<?xml version="1.0" encoding="UTF-8" standalone="no"?>
<svg width="575px" height="132px" viewBox="0 0 575 132" version="1.1" xmlns="http://www.w3.org/2000/svg" xmlns:xlink="http://www.w3.org/1999/xlink">
    <!-- Generator: Sketch 3.8.2 (29753) - http://www.bohemiancoding.com/sketch -->
    <title>izberg-logo-and-baseline-black</title>
    <desc>Created with Sketch.</desc>
    <defs></defs>
    <g id="Page-1" stroke="none" stroke-width="1" fill="none" fill-rule="evenodd">
        <g id="izberg-logo-and-baseline-black" fill="#0F199D">
            <g id="Layer_1">
                <path d="M54.4,0.2 C62.2,16.6 69.9,33 77.7,49.4 C54.7,49.4 31.7,49.4 8.7,49.3 L8.7,49.3 C12.1,41.8 15.5,34.3 19,26.7 C21.3,29.1 23.7,31.5 26,33.9 L26.1,33.9 C29,27.2 31.8,20.6 34.6,13.9 C38.2,18.3 41.8,22.7 45.4,27 L45.4,27 C48.4,18.2 51.4,9.2 54.4,0.2 L54.4,0.2 Z" id="Shape"></path>
                <path d="M0.6,56.8 L85.6,56.8 C77.3,74.2 69,91.6 60.8,109 L60.8,109 C57.4,100.4 54,91.8 50.6,83.3 L50.6,83.3 C45.6,98.9 40.6,114.4 35.6,130 C35.6,130 35.6,130 35.5,130 C23.8,105.6 12.2,81.2 0.6,56.8 L0.6,56.8 Z" id="Shape"></path>
                <path d="M317.4,105.4 C321.2,105.3 323.4,106.3 325.4,108 C325.8,108.3 326.4,108.8 326.6,109.3 C326,109.8 325.3,110.3 324.7,110.8 C323.6,108.2 318.8,106.8 315.1,107.9 C311.6,109 309.4,111.3 308.3,114.8 C308,115.8 307.6,117.3 307.8,118.6 C308,119.8 308,120.9 308.3,121.9 C309.5,125.8 312.1,128.1 316.4,128.9 C317.3,129.1 318.6,129.1 319.5,128.9 C320.3,128.7 321.1,128.5 321.8,128.2 C323.3,127.5 324.2,126.4 325.3,125.2 C325.3,125.2 325.3,125.2 325.4,125.3 C326,125.7 326.6,126.2 327.2,126.6 C325.9,128.5 324,129.9 321.4,130.6 C316.4,132.1 310.8,129.8 308.6,127.1 C307.3,125.5 306.4,123.8 305.8,121.5 C304.4,116 306.9,110.5 309.8,108.2 C311.1,107.2 312.5,106.4 314.3,105.9 C314.9,105.8 315.5,105.6 316.2,105.5 C316.6,105.5 317,105.4 317.4,105.4 L317.4,105.4 Z" id="Shape"></path>
                <path d="M390.9,105.4 C394.3,105.3 397,106.4 398.2,108.5 C398.2,108.5 398.2,108.5 398.2,108.6 C397.6,109 396.9,109.5 396.3,109.9 C396.3,109.9 396.2,109.9 396.2,109.8 C395.4,108.1 392.3,106.9 389.7,107.7 C387.5,108.3 385.4,110.2 386.2,113.4 C386.9,116.3 390.3,116.8 393,117.6 C396.4,118.7 399.1,120.5 398.6,125.1 C398.5,125.9 398.3,126.7 398,127.3 C396,130.6 391.4,132.1 386.7,130.2 C385.5,129.7 384.7,129.1 383.9,128.2 C383.7,128 383.1,127.5 383.2,127.2 C383.9,126.7 384.6,126.3 385.3,125.8 C385.5,126.3 385.9,126.8 386.3,127.1 C388.9,129.7 394,129.3 395.8,126.2 C396.2,125.5 396.5,124.4 396.3,123.2 C395.5,119.2 389.2,119.3 386.3,117.2 C383.3,115.1 382.6,109.6 385.8,107.1 C386.8,106.3 387.9,105.7 389.3,105.4 C389.8,105.6 390.3,105.5 390.9,105.4 L390.9,105.4 Z" id="Shape"></path>
                <path d="M451.7,105.4 C455.1,105.3 457.8,106.4 459,108.5 C459,108.5 459,108.5 459,108.6 C458.4,109 457.7,109.5 457.1,109.9 C457.1,109.9 457,109.9 457,109.8 C456.2,108.1 453.1,106.9 450.5,107.7 C448.3,108.3 446.2,110.2 447,113.4 C447.7,116.3 451.1,116.8 453.8,117.6 C457.2,118.7 459.9,120.5 459.4,125.1 C459.3,125.9 459.1,126.7 458.8,127.3 C456.8,130.6 452.2,132.1 447.5,130.2 C446.3,129.7 445.5,129.1 444.7,128.2 C444.5,128 443.9,127.5 444,127.2 C444.7,126.7 445.4,126.3 446.1,125.8 C446.3,126.3 446.7,126.8 447.1,127.1 C449.7,129.7 454.8,129.3 456.6,126.2 C457,125.5 457.3,124.4 457.1,123.2 C456.3,119.2 450,119.3 447.1,117.2 C444.1,115.1 443.4,109.6 446.6,107.1 C447.6,106.3 448.7,105.7 450.1,105.4 C450.6,105.6 451.1,105.5 451.7,105.4 L451.7,105.4 Z" id="Shape"></path>
                <path d="M545.4,105.4 C549.2,105.3 551.4,106.3 553.4,108 C553.8,108.3 554.4,108.8 554.6,109.3 C554,109.8 553.3,110.3 552.7,110.8 C551.6,108.2 546.8,106.8 543.1,107.9 C539.6,109 537.4,111.3 536.3,114.8 C536,115.8 535.6,117.3 535.8,118.6 C536,119.8 536,120.9 536.3,121.9 C537.5,125.8 540.1,128.1 544.4,128.9 C545.3,129.1 546.6,129.1 547.5,128.9 C548.3,128.7 549.1,128.5 549.8,128.2 C551.3,127.5 552.2,126.4 553.3,125.2 C553.3,125.2 553.3,125.2 553.4,125.3 C554,125.7 554.6,126.2 555.2,126.6 C553.9,128.5 552,129.9 549.4,130.6 C544.4,132.1 538.8,129.8 536.6,127.1 C535.3,125.5 534.4,123.8 533.8,121.5 C532.4,116 534.9,110.5 537.8,108.2 C539.1,107.2 540.5,106.4 542.3,105.9 C542.9,105.8 543.5,105.6 544.2,105.5 C544.6,105.5 545,105.4 545.4,105.4 L545.4,105.4 Z" id="Shape"></path>
                <path d="M109.9,106 L113.3,106 C116.3,112.8 119.2,119.7 122.2,126.5 C122.2,126.5 122.2,126.5 122.2,126.4 C125.2,119.6 128.1,112.8 131.1,106 L134.3,106 L134.3,130.4 L132,130.4 L132,108.8 C132,108.8 132,108.8 132,108.9 C128.9,116.1 125.8,123.2 122.7,130.4 L121.7,130.4 C118.5,123.2 115.4,116 112.2,108.8 L112.2,130.4 L109.9,130.4 C109.9,122.3 109.9,114.2 109.9,106 L109.9,106 Z" id="Shape"></path>
                <path d="M184.9,106 L187.2,106 L187.2,116.8 L187.4,116.8 C191.3,113.2 195.3,109.6 199.2,106 L202.3,106 C198.2,109.7 194.1,113.5 190,117.2 C194.3,121.6 198.7,126 203,130.5 L199.7,130.5 C195.6,126.3 191.4,122.1 187.3,117.9 L187.1,117.9 L187.1,130.5 L184.8,130.5 C184.9,122.3 184.9,114.2 184.9,106 L184.9,106 Z" id="Shape"></path>
                <path d="M206,106 L221,106 L221,108.1 L208.3,108.1 L208.3,116.8 L220.2,116.8 L220.2,118.9 L208.3,118.9 L208.3,128.4 L221.5,128.4 L221.5,130.5 L206,130.5 L206,106 L206,106 Z" id="Shape"></path>
                <path d="M223.6,106 L242.6,106 L242.6,108.1 L234.2,108.1 L234.2,130.5 L231.9,130.5 L231.9,108.1 L223.5,108.1 C223.6,107.4 223.6,106.7 223.6,106 L223.6,106 Z" id="Shape"></path>
                <path d="M266.2,106 L268.5,106 L268.5,128.4 L279.9,128.4 L279.9,130.5 L266.2,130.5 L266.2,106 L266.2,106 Z" id="Shape"></path>
                <path d="M331.4,106 L346.4,106 L346.4,108.1 L333.7,108.1 L333.7,116.8 L345.6,116.8 L345.6,118.9 L333.7,118.9 L333.7,128.4 L346.9,128.4 L346.9,130.5 L331.4,130.5 L331.4,106 L331.4,106 Z" id="Shape"></path>
                <path d="M464.5,106 L479.5,106 L479.5,108.1 L466.8,108.1 L466.8,116.8 L478.7,116.8 L478.7,118.9 L466.8,118.9 L466.8,128.4 L480,128.4 L480,130.5 L464.5,130.5 L464.5,106 L464.5,106 Z" id="Shape"></path>
                <path d="M502.2,106 C502.6,106 504.6,105.9 504.7,106.1 C506.6,111.3 508.6,116.5 510.5,121.8 C511,123.1 511.5,124.5 512,125.8 C512.2,126.2 512.3,127.2 512.6,127.4 C515.2,120.3 517.9,113.1 520.5,106 L522.9,106 C519.8,114.1 516.7,122.3 513.6,130.4 L511.3,130.4 C510.6,128.5 509.9,126.7 509.2,124.8 C506.9,118.6 504.6,112.3 502.2,106 L502.2,106 Z" id="Shape"></path>
                <path d="M526.2,106 L528.5,106 L528.5,130.4 L526.2,130.4 L526.2,106 L526.2,106 Z" id="Shape"></path>
                <path d="M559.5,106 L574.5,106 L574.5,108.1 L561.8,108.1 L561.8,116.8 L573.7,116.8 L573.7,118.9 L561.8,118.9 L561.8,128.4 L575,128.4 L575,130.5 L559.5,130.5 L559.5,106 L559.5,106 Z" id="Shape"></path>
                <path d="M173.4,118.7 C177.4,118.3 180.9,115.2 179.4,110.3 C179.2,109.5 178.7,108.8 178.3,108.3 C176,105.4 169.8,106 164.6,106 L164.6,130.4 L166.9,130.4 L166.9,118.8 L171.1,118.8 C173.4,122.7 175.7,126.5 178,130.3 C178.2,130.5 180.1,130.4 180.6,130.4 C178.1,126.5 175.7,122.6 173.4,118.7 L173.4,118.7 Z M166.8,116.8 L166.8,108.1 C172,108.1 176.6,107.5 177.3,112 C177.4,112.8 177.2,113.6 177,114.1 C175.7,117.2 171.3,116.8 166.8,116.8 L166.8,116.8 Z" id="Shape"></path>
                <path d="M261.3,111.7 C261.2,111.1 261.1,110.5 260.9,109.9 C259.1,105.2 252.8,105.9 246.4,105.9 L246.4,130.3 L248.7,130.3 L248.7,118.7 C250.8,118.7 253.6,119 255.5,118.6 C259,118.1 261.7,116.1 261.3,111.7 L261.3,111.7 Z M259,113.1 C258.3,117.5 253.7,116.9 248.7,116.8 L248.7,108.1 C253.2,108.1 256.9,107.6 258.6,110.5 C258.9,111.1 259.2,112.1 259,113.1 L259,113.1 Z" id="Shape"></path>
                <path d="M493.9,118.7 C497.9,118.3 501.4,115.2 499.9,110.3 C499.7,109.5 499.2,108.8 498.8,108.3 C496.5,105.4 490.3,106 485.1,106 L485.1,130.4 L487.4,130.4 L487.4,118.8 L491.6,118.8 C493.9,122.7 496.2,126.5 498.5,130.3 C498.7,130.5 500.6,130.4 501.1,130.4 C498.6,126.5 496.2,122.6 493.9,118.7 L493.9,118.7 Z M487.3,116.8 L487.3,108.1 C492.5,108.1 497.1,107.5 497.8,112 C497.9,112.8 497.7,113.6 497.5,114.1 C496.2,117.2 491.8,116.8 487.3,116.8 L487.3,116.8 Z" id="Shape"></path>
                <path d="M150.7,106 L148.4,106 C144.8,114.1 141.3,122.3 137.7,130.5 L140,130.5 C140.4,130.1 140.6,129.2 140.8,128.6 C141.4,127.1 142.1,125.5 142.8,124 L155.8,124 C156.7,126.2 157.6,128.3 158.4,130.5 L160.9,130.5 C157.6,122.3 154.1,114.2 150.7,106 L150.7,106 Z M154.9,121.9 L143.7,121.9 C145.6,117.5 147.5,113 149.3,108.5 C149.7,108.8 150.6,111.7 150.9,112.4 C152.3,115.5 153.6,118.7 154.9,121.9 L154.9,121.9 L154.9,121.9 Z" id="Shape"></path>
                <path d="M293.3,106 L291,106 C287.4,114.1 283.9,122.3 280.3,130.5 L282.6,130.5 C283,130.1 283.2,129.2 283.4,128.6 C284,127.1 284.7,125.5 285.4,124 L298.4,124 C299.3,126.2 300.2,128.3 301,130.5 L303.5,130.5 C300.2,122.3 296.7,114.2 293.3,106 L293.3,106 Z M297.5,121.9 L286.3,121.9 C288.2,117.5 290.1,113 291.9,108.5 C292.3,108.8 293.2,111.7 293.5,112.4 C294.9,115.5 296.2,118.7 297.5,121.9 L297.5,121.9 L297.5,121.9 Z" id="Shape"></path>
                <path d="M370.7,106 L368.4,106 C364.8,114.1 361.3,122.3 357.7,130.5 L360,130.5 C360.4,130.1 360.6,129.2 360.8,128.6 C361.4,127.1 362.1,125.5 362.8,124 L375.8,124 C376.7,126.2 377.6,128.3 378.4,130.5 L380.9,130.5 C377.6,122.3 374.2,114.2 370.7,106 L370.7,106 Z M375,121.9 L363.8,121.9 C365.7,117.5 367.6,113 369.4,108.5 C369.8,108.8 370.7,111.7 371,112.4 C372.3,115.5 373.7,118.7 375,121.9 L375,121.9 L375,121.9 Z" id="Shape"></path>
                <path d="M422.5,106 L420.2,106 C416.6,114.1 413.1,122.3 409.5,130.5 L411.8,130.5 C412.2,130.1 412.4,129.2 412.6,128.6 C413.2,127.1 413.9,125.5 414.6,124 L427.6,124 C428.5,126.2 429.4,128.3 430.2,130.5 L432.7,130.5 C429.4,122.3 426,114.2 422.5,106 L422.5,106 Z M426.8,121.9 L415.6,121.9 C417.5,117.5 419.4,113 421.2,108.5 C421.6,108.8 422.5,111.7 422.8,112.4 C424.2,115.5 425.5,118.7 426.8,121.9 L426.8,121.9 L426.8,121.9 Z" id="Shape"></path>
                <g id="Group" transform="translate(109.000000, 0.000000)">
                    <polygon id="Shape" points="0.4 2.7 20.8 2.7 20.8 86.1 0.4 86.1"></polygon>
                    <polygon id="Shape" points="118 2.7 60.1 77.6 114.9 77.6 114.9 86.2 33.3 86.2 33.3 82.3 88.8 10.5 37.2 10.5 37.2 2.7 118 2.7"></polygon>
                    <path d="M128.5,2.7 L164.3,2.7 C169.1,2.7 173.5,3.2 177.5,4.2 C181.5,5.2 184.9,6.7 187.8,8.5 C190.7,10.3 192.9,12.6 194.5,15.2 C196.1,17.8 196.9,20.7 196.9,23.9 C196.9,25.9 196.7,27.7 196.3,29.4 C195.9,31.1 195.2,32.6 194.2,34.1 C193.2,35.6 191.9,37 190.3,38.4 C188.7,39.8 186.6,41.1 184.3,42.5 C186.8,43.3 189,44.3 191.1,45.6 C193.2,46.9 194.9,48.4 196.4,50.1 C197.9,51.8 199.1,53.7 199.9,55.8 C200.7,57.9 201.2,60.2 201.2,62.5 C201.2,65.8 200.4,68.8 198.9,71.7 C197.4,74.5 195.3,77 192.5,79.1 C189.7,81.2 186.4,82.9 182.5,84.1 C178.6,85.3 174.3,85.9 169.6,85.9 L128.5,85.9 L128.5,2.7 L128.5,2.7 L128.5,2.7 Z M148.9,38.8 L162.4,38.8 C164.5,38.8 166.5,38.5 168.2,37.8 C169.9,37.1 171.3,36.2 172.5,35 C173.7,33.8 174.6,32.4 175.2,30.7 C175.8,29 176.1,27.2 176.1,25.2 C176.1,23.1 175.7,21.1 175,19.3 C174.3,17.5 173.1,15.9 171.5,14.6 C169.9,13.3 167.9,12.3 165.4,11.6 C162.9,10.9 160,10.5 156.6,10.5 L148.9,10.5 L148.9,38.8 L148.9,38.8 L148.9,38.8 Z M148.9,77.6 L160.2,77.6 C163.5,77.6 166.4,77.2 168.8,76.5 C171.2,75.8 173.2,74.8 174.8,73.5 C176.4,72.3 177.6,70.8 178.3,69 C179.1,67.3 179.4,65.4 179.4,63.3 C179.4,61 179,58.8 178.3,56.8 C177.6,54.8 176.5,53.1 174.9,51.6 C173.3,50.1 171.3,49 168.7,48.1 C166.1,47.3 163,46.8 159.4,46.8 L148.8,46.8 L148.9,77.6 L148.9,77.6 L148.9,77.6 Z" id="Shape"></path>
                    <polygon id="Shape" points="280.4 2.7 280.4 9.8 238.6 9.8 238.6 37.3 273.3 37.3 273.3 44.4 238.6 44.4 238.6 77.5 280.4 77.5 280.4 86.1 218.1 86.1 218.1 2.7"></polygon>
                    <path d="M297.3,2.7 L328.6,2.7 C334,2.7 338.7,3.3 342.8,4.4 C346.9,5.5 350.2,7.1 352.9,9.1 C355.6,11.1 357.6,13.5 359,16.3 C360.3,19.1 361,22.1 361,25.4 C361,27.7 360.5,30 359.6,32.1 C358.7,34.2 357.4,36.2 355.7,38 C354,39.8 352,41.4 349.7,42.7 C347.4,44.1 344.8,45.2 341.9,46.1 L371.6,86.1 L349.4,86.1 L321.3,48.3 L317.7,48.3 L317.7,86.1 L297.3,86.1 L297.3,2.7 L297.3,2.7 Z M317.8,41.1 L322.3,41.1 C324.8,41.1 327.1,40.7 329.2,40 C331.3,39.3 333.2,38.3 334.7,37 C336.3,35.7 337.5,34.1 338.4,32.2 C339.3,30.3 339.7,28.2 339.7,25.8 C339.7,23.6 339.4,21.6 338.7,19.8 C338,18 337.1,16.4 335.9,15 C334.7,13.7 333.3,12.6 331.6,11.9 C329.9,11.2 328.1,10.8 326.1,10.8 L317.8,10.8 L317.8,41.1 L317.8,41.1 L317.8,41.1 Z" id="Shape"></path>
                    <path d="M430.8,45.4 L465.5,45.4 L465.5,77.6 C462.8,79 460.1,80.3 457.5,81.5 C454.8,82.7 452,83.8 448.9,84.6 C445.8,85.4 442.5,86.2 439,86.7 C435.4,87.2 431.4,87.4 426.9,87.4 C419.7,87.4 413.1,86.4 407,84.4 C400.9,82.4 395.7,79.5 391.3,75.9 C386.9,72.2 383.5,67.8 381,62.7 C378.5,57.6 377.3,51.8 377.3,45.5 C377.3,41.1 377.9,36.9 379,33 C380.1,29.1 381.7,25.4 383.7,22.1 C385.8,18.8 388.2,15.8 391.2,13.2 C394.1,10.6 397.4,8.3 401.1,6.5 C404.8,4.7 408.7,3.3 413,2.3 C417.3,1.3 421.8,0.8 426.7,0.8 C431,0.8 435,1.4 438.9,2.5 C442.8,3.6 446.4,5.1 449.8,7 C453.1,8.9 456.1,11.1 458.8,13.5 C461.5,15.9 463.7,18.5 465.4,21 L457,28.7 C455.2,26.2 453.4,23.9 451.5,21.7 C449.6,19.6 447.5,17.7 445.3,16.1 C443.1,14.5 440.8,13.3 438.3,12.4 C435.8,11.5 433.2,11.1 430.3,11.1 C426,11.1 421.9,11.9 418.2,13.4 C414.5,14.9 411.3,17.2 408.6,20.1 C405.9,23.1 403.8,26.7 402.2,30.9 C400.7,35.2 399.9,40 399.9,45.4 C399.9,50.8 400.7,55.6 402.4,59.7 C404.1,63.8 406.3,67.4 409.1,70.2 C411.9,73 415.2,75.2 419,76.6 C422.8,78 426.9,78.8 431.2,78.8 C433.8,78.8 436.2,78.5 438.5,77.8 C440.8,77.1 442.9,76.1 444.8,74.7 L444.8,52.5 L430.6,52.5 L430.8,45.4 L430.8,45.4 L430.8,45.4 Z" id="Shape"></path>
                </g>
            </g>
        </g>
    </g>
</svg>