<?xml version="1.0" encoding="UTF-8" standalone="no"?>
<svg width="147px" height="30px" viewBox="0 0 147 30" version="1.1" xmlns="http://www.w3.org/2000/svg" xmlns:xlink="http://www.w3.org/1999/xlink">
    <!-- Generator: Sketch 3.8.2 (29753) - http://www.bohemiancoding.com/sketch -->
    <title>facebook</title>
    <desc>Created with Sketch.</desc>
    <defs></defs>
    <g id="Page-1" stroke="none" stroke-width="1" fill="none" fill-rule="evenodd">
        <g id="facebook" fill="#3E5294">
            <g id="Layer_1">
                <path d="M49.4,27.5 C49.1,26.6 48.9,25.7 48.6,24.8 L48.3,23.8 C48.3,23.8 41.5,27.1 40.4,20.9 C40.3,19.9 40.3,18.8 40.5,17.8 C40.8,15.9 41.9,14.9 43.8,14.7 C44.4,14.6 45.1,14.7 45.7,14.8 C46.5,14.9 47.4,15.2 48.3,15.4 C48.6,14.4 49,13.4 49.3,12.5 C49.3,12.3 49.4,12.2 49.4,12.1 L49.6,11.5 C49.6,11.4 49.5,11.3 49.3,11.3 L48.5,10.9 C48.3,10.8 48.2,10.8 48,10.7 C47.8,10.7 47.8,10.6 47.8,10.6 C46,10.1 44.2,10 42.3,10.2 C38.4,10.6 35.7,12.9 34.9,16.8 C34.5,18.8 34.5,20.9 35,22.9 C35.7,25.9 37.5,27.9 40.5,28.8 C42.5,29.4 44.5,29.4 46.4,29.1 C47.2,29 48.4,28.5 49.3,28.2 L49.6,28.1 L49.4,27.5 L49.4,27.5 Z M27.3,12.7 L27.1,12.5 L27,12.4 C25.7,11.1 25.2,10.7 24.2,10.4 C20.2,9.2 16.4,11.3 15.2,15.3 C14.4,17.7 14.4,20.3 14.9,22.7 C15.8,28.1 19.8,29.9 24.1,29 C25.4,28.7 26.4,27.9 27.3,26.8 C27.3,26.8 27.4,26.7 27.5,26.5 L27.5,28.9 L32.9,28.9 L32.9,10.4 L27.5,10.4 L27.5,12.7 L27.3,12.7 Z M26.8,22 C26.6,23.7 25.2,24.7 23.6,24.7 C21.9,24.6 20.8,23.7 20.5,22.1 C20.1,19.8 20.6,17.1 20.6,16.9 C21,15.4 22.2,14.6 23.8,14.6 C25.4,14.6 26.6,15.6 26.8,17.3 C27,18.9 27,20.5 26.8,22 L26.8,22 Z M14,10.4 L9.8,10.4 L9.8,7.6 C10.1,5 14.4,5.5 14.4,5.5 L14.4,1 C14.3,1 5.8,-1 4.1,5.4 C3.8,6.2 3.9,9.9 3.9,10.4 L0.3,10.4 L0.3,15.3 L4.1,15.3 L4.1,28.7 L9.7,28.7 L9.7,15.3 L14,15.3 L14.5,10.4 L14,10.4 L14,10.4 Z M147,10.6 L140.8,10.6 L135.4,19 L135.4,0.6 L129.6,1.4 L129.6,28.9 L135.4,28.9 L135.4,20.4 L140.8,28.9 L147,28.9 L141.1,19.7 L147,10.6 Z M107.5,16.6 C106.8,13.4 104.8,11.3 101.6,10.4 C99.6,9.9 97.5,9.9 95.5,10.4 C92.5,11.2 90.4,13.1 89.8,16.2 C89.4,17.9 89.4,19.6 89.5,21.3 C89.7,25.2 92.1,28 95.9,28.8 L96.1,28.8 C96.2,28.8 96.4,28.9 96.5,28.9 L96.6,28.9 C96.8,28.9 97,29 97.2,29 C97.9,29.1 98.9,29.1 99.6,29 L99.7,29 C103.6,28.8 106.5,26.4 107.4,22.6 C107.9,20.8 107.9,18.7 107.5,16.6 L107.5,16.6 Z M101.9,21.8 C101.9,21.9 101.9,22 101.8,22.2 C101.4,23.9 100.2,24.9 98.5,24.8 C96.7,24.7 95.5,23.7 95.3,21.9 C95.2,20.6 95.2,19.3 95.3,17.9 C95.5,15.8 96.8,14.7 98.7,14.7 C100.3,14.7 101.4,15.6 101.8,17.2 C102.2,18.7 101.9,21.4 101.9,21.8 L101.9,21.8 Z M87.3,15.6 C86.5,12.3 84.3,10.5 80.9,10.2 C78.7,10 76.8,10.6 75.2,12.6 L75.2,0.7 L69.4,1.4 L69.4,28.9 L75.2,28.9 L75.2,27.3 C76,27.9 76.8,28.5 77.6,28.9 C81,30.1 85.5,29.1 87.1,24.6 C88.1,21.5 88.1,18.5 87.3,15.6 L87.3,15.6 Z M81.8,22.1 C81.5,23.9 80.1,24.9 78.4,24.7 C78,24.7 77.6,24.6 77.2,24.4 C75.8,23.6 75.4,22.3 75.3,21.4 C75.2,20.1 75.1,17.4 75.7,16.1 C76.2,15.1 77.2,14.6 78.4,14.5 C80.2,14.4 81.5,15.3 81.7,17.1 C82,18.8 82,20.5 81.8,22.1 L81.8,22.1 Z M127.4,16.6 C126.7,13.4 124.7,11.3 121.5,10.4 C119.5,9.9 117.4,9.9 115.4,10.4 C112.4,11.2 110.3,13.1 109.7,16.2 C109.3,17.9 109.3,19.6 109.4,21.3 C109.6,25.2 112,28 115.8,28.8 L116,28.8 C116.1,28.8 116.3,28.9 116.4,28.9 L116.5,28.9 C116.7,28.9 116.9,29 117.1,29 C117.8,29.1 118.8,29.1 119.5,29 L119.6,29 C123.5,28.8 126.4,26.4 127.3,22.6 C127.9,20.8 127.9,18.7 127.4,16.6 L127.4,16.6 Z M121.8,21.8 C121.8,21.9 121.8,22 121.7,22.2 C121.3,23.9 120.1,24.9 118.4,24.8 C116.6,24.7 115.4,23.7 115.2,21.9 C115.1,20.6 115.1,19.3 115.2,17.9 C115.4,15.8 116.7,14.7 118.6,14.7 C120.2,14.7 121.3,15.6 121.7,17.2 C122.1,18.7 121.8,21.4 121.8,21.8 L121.8,21.8 Z M67.4,21.7 L67.4,20.3 C67.4,19 67.4,17.7 67.2,16.5 C66.7,13.1 64.6,10.9 61.2,10.3 C59.9,10.1 58.5,10.1 57.2,10.2 C53.6,10.5 50.9,12.8 50.3,16.2 C50,18.2 49.9,20.4 50.2,22.5 C50.6,25.6 52.1,27.6 54.7,28.5 C55.9,28.9 61.7,30.4 66.8,27.8 L66.6,27 C66.4,26 66.1,25 65.8,24 L65.8,23.9 C65.8,23.9 65.7,23.9 65.5,24 C65.3,24.1 65.1,24.1 64.8,24.2 L64.7,24.2 C63.9,24.4 62.8,24.7 61.6,24.8 C60.6,24.9 59.6,24.9 58.6,24.8 C57,24.5 55.7,23.7 55.8,21.6 L66.5,21.6 C66.7,21.7 67.4,21.7 67.4,21.7 L67.4,21.7 Z M62.1,17.8 L55.8,17.8 C55.8,16.5 56,15.4 57.1,14.7 C58.3,13.9 59.6,13.9 60.8,14.6 C62.1,15.2 62.2,16.5 62.1,17.8 L62.1,17.8 Z" id="Shape"></path>
            </g>
        </g>
    </g>
</svg>