<svg id="Layer_1" xmlns="http://www.w3.org/2000/svg" viewBox="0 0 595.3 841.9"><style>.st0{fill:#3E5294;}</style><path class="st0" d="M273.4 450.5c-.3-.9-.5-1.8-.8-2.7l-.3-1s-6.8 3.3-7.9-2.9c-.1-1-.1-2.1.1-3.1.3-1.9 1.4-2.9 3.3-3.1.6-.1 1.3 0 1.9.1.8.1 1.7.4 2.6.6.3-1 .7-2 1-2.9 0-.2.1-.3.1-.4l.2-.6c0-.1-.1-.2-.3-.2l-.8-.4c-.2-.1-.3-.1-.5-.2-.2 0-.2-.1-.2-.1-1.8-.5-3.6-.6-5.5-.4-3.9.4-6.6 2.7-7.4 6.6-.4 2-.4 4.1.1 6.1.7 3 2.5 5 5.5 5.9 2 .6 4 .6 5.9.3.8-.1 2-.6 2.9-.9l.3-.1-.2-.6zM251.3 435.7l-.2-.2-.1-.1c-1.3-1.3-1.8-1.7-2.8-2-4-1.2-7.8.9-9 4.9-.8 2.4-.8 5-.3 7.4.9 5.4 4.9 7.2 9.2 6.3 1.3-.3 2.3-1.1 3.2-2.2 0 0 .1-.1.2-.3v2.4h5.4v-18.5h-5.4v2.3zm-.5 9.3c-.2 1.7-1.6 2.7-3.2 2.7-1.7-.1-2.8-1-3.1-2.6-.4-2.3.1-5 .1-5.2.4-1.5 1.6-2.3 3.2-2.3s2.8 1 3 2.7c.2 1.6.2 3.2 0 4.7zM238 433.4h-4.2v-2.8c.3-2.6 4.6-2.1 4.6-2.1V424c-.1 0-8.6-2-10.3 4.4-.3.8-.2 4.5-.2 5h-3.6v4.9h3.8v13.4h5.6v-13.4h4.3l.5-4.9h-.5zM371 433.6h-6.2l-5.4 8.4V423.6l-5.8.8v27.5h5.8v-8.5l5.4 8.5h6.2l-5.9-9.2zM331.5 439.6c-.7-3.2-2.7-5.3-5.9-6.2-2-.5-4.1-.5-6.1 0-3 .8-5.1 2.7-5.7 5.8-.4 1.7-.4 3.4-.3 5.1.2 3.9 2.6 6.7 6.4 7.5h.2c.1 0 .3.1.4.1h.1c.2 0 .4.1.6.1.7.1 1.7.1 2.4 0h.1c3.9-.2 6.8-2.6 7.7-6.4.5-1.8.5-3.9.1-6zm-5.6 5.2c0 .1 0 .2-.1.4-.4 1.7-1.6 2.7-3.3 2.6-1.8-.1-3-1.1-3.2-2.9-.1-1.3-.1-2.6 0-4 .2-2.1 1.5-3.2 3.4-3.2 1.6 0 2.7.9 3.1 2.5.4 1.5.1 4.2.1 4.6zM311.3 438.6c-.8-3.3-3-5.1-6.4-5.4-2.2-.2-4.1.4-5.7 2.4V423.7l-5.8.7v27.5h5.8v-1.6c.8.6 1.6 1.2 2.4 1.6 3.4 1.2 7.9.2 9.5-4.3 1-3.1 1-6.1.2-9zm-5.5 6.5c-.3 1.8-1.7 2.8-3.4 2.6-.4 0-.8-.1-1.2-.3-1.4-.8-1.8-2.1-1.9-3-.1-1.3-.2-4 .4-5.3.5-1 1.5-1.5 2.7-1.6 1.8-.1 3.1.8 3.3 2.6.3 1.7.3 3.4.1 5zM351.4 439.6c-.7-3.2-2.7-5.3-5.9-6.2-2-.5-4.1-.5-6.1 0-3 .8-5.1 2.7-5.7 5.8-.4 1.7-.4 3.4-.3 5.1.2 3.9 2.6 6.7 6.4 7.5h.2c.1 0 .3.1.4.1h.1c.2 0 .4.1.6.1.7.1 1.7.1 2.4 0h.1c3.9-.2 6.8-2.6 7.7-6.4.6-1.8.6-3.9.1-6zm-5.6 5.2c0 .1 0 .2-.1.4-.4 1.7-1.6 2.7-3.3 2.6-1.8-.1-3-1.1-3.2-2.9-.1-1.3-.1-2.6 0-4 .2-2.1 1.5-3.2 3.4-3.2 1.6 0 2.7.9 3.1 2.5.4 1.5.1 4.2.1 4.6zM291.4 444.7v-1.4c0-1.3 0-2.6-.2-3.8-.5-3.4-2.6-5.6-6-6.2-1.3-.2-2.7-.2-4-.1-3.6.3-6.3 2.6-6.9 6-.3 2-.4 4.2-.1 6.3.4 3.1 1.9 5.1 4.5 6 1.2.4 7 1.9 12.1-.7l-.2-.8c-.2-1-.5-2-.8-3v-.1s-.1 0-.3.1c-.2.1-.4.1-.7.2h-.1c-.8.2-1.9.5-3.1.6-1 .1-2 .1-3 0-1.6-.3-2.9-1.1-2.8-3.2h10.7c.2.1.9.1.9.1zm-5.3-3.9h-6.3c0-1.3.2-2.4 1.3-3.1 1.2-.8 2.5-.8 3.7-.1 1.3.6 1.4 1.9 1.3 3.2z"/></svg>