<?xml version="1.0" encoding="UTF-8" standalone="no"?>
<svg width="201px" height="185px" viewBox="0 0 201 185" version="1.1" xmlns="http://www.w3.org/2000/svg" xmlns:xlink="http://www.w3.org/1999/xlink">
    <!-- Generator: Sketch 3.8.2 (29753) - http://www.bohemiancoding.com/sketch -->
    <title>Wit robot-wit</title>
    <desc>Created with Sketch.</desc>
    <defs></defs>
    <g id="Page-1" stroke="none" stroke-width="1" fill="none" fill-rule="evenodd">
        <g id="Wit-robot-wit" transform="translate(0.000000, -3.000000)" fill="#BCD5EF">
            <g id="svg3274">
                <g id="layer1" transform="translate(0.605120, 0.846160)">
                    <g id="g4825" transform="translate(100.542067, 93.717748) scale(1, -1) translate(-100.542067, -93.717748) translate(0.114953, 0.740840)">
                        <path d="M80.7690404,184.457637 C77.1365703,184.457637 70.0853049,183.175197 69.230606,174.625596 L69.230606,85.282268 L69.230606,79.2975474 L173.076515,77.1601472 L173.076515,168.640876 C173.076515,168.640876 173.076515,179.541617 162.820129,180.610317 L82.6921128,184.457637 C82.6921128,184.457637 82.0510886,184.457637 80.7690404,184.457637 L80.7690404,184.457637 Z M100.854463,146.411914 C106.62368,146.411914 111.110849,141.709633 111.110849,136.152393 C111.110849,130.381412 106.410006,125.892872 100.854463,125.892872 C95.0852459,125.892872 90.598077,130.595152 90.598077,136.152393 C90.3844023,141.709633 95.0852459,146.411914 100.854463,146.411914 L100.854463,146.411914 Z M148.076574,146.411914 C153.845791,146.411914 158.33296,141.709633 158.33296,136.152393 C158.33296,130.381412 153.632116,125.892872 148.076574,125.892872 C142.307357,125.892872 137.820188,130.595152 137.820188,136.152393 C137.606513,141.709633 142.307357,146.411914 148.076574,146.411914 L148.076574,146.411914 Z M35.4700019,123.755472 C35.4700019,114.137171 38.2477731,106.44253 42.0939179,106.22879 C45.7263879,106.22879 48.9315086,113.923431 48.9315086,123.541732 C48.9315086,133.160032 46.1537374,140.854673 42.3075926,141.068413 C38.6751225,141.068413 35.4700019,133.373772 35.4700019,123.755472 L35.4700019,123.755472 Z M44.8716891,163.938595 L44.8716891,148.335574 L45.0853638,145.343214 C48.5041592,142.350853 51.0682557,133.801253 51.0682557,123.755472 C51.0682557,114.350911 48.2904845,105.58757 45.0853638,102.16773 L45.0853638,97.8929292 L45.0853638,75.6639671 L65.598136,79.5112874 L65.598136,180.182837 C65.3844613,179.969097 44.4443397,169.923316 44.8716891,163.938595 L44.8716891,163.938595 Z M65.3844613,75.6639671 L65.3844613,70.7479466 L44.8716891,69.2517665 L44.8716891,72.4578668 L60.2562682,74.809007 L65.3844613,75.6639671 L65.3844613,75.6639671 Z M28.2050617,0.42748004 L28.2050617,56.4273653 C28.2050617,56.4273653 28.6324111,63.908266 21.7948204,63.694526 C21.7948204,63.694526 3.84614478,63.694526 0.21367471,48.7327246 L0.21367471,0.64122006 C0.21367471,0.42748004 28.2050617,0.42748004 28.2050617,0.42748004 L28.2050617,0.42748004 Z M200.213203,0.42748004 L200.213203,54.9311851 C200.213203,54.9311851 201.281577,63.908266 192.734588,64.7632261 L46.5810868,66.9006263 C46.5810868,66.9006263 32.0512065,69.6792465 31.4101824,56.6411053 L31.4101824,0.42748004 L200.213203,0.42748004 L200.213203,0.42748004 Z M173.29019,72.4578668 L147.862899,73.3128269 L69.8716302,75.6639671 L69.6579555,70.9616866 L173.076515,68.1830664 L173.29019,72.4578668 L173.29019,72.4578668 L173.29019,72.4578668 Z" id="path4827"></path>
                    </g>
                </g>
            </g>
        </g>
    </g>
</svg>