<?xml version="1.0" encoding="UTF-8" standalone="no"?>
<svg width="1150px" height="421px" viewBox="0 0 1150 421" version="1.1" xmlns="http://www.w3.org/2000/svg" xmlns:xlink="http://www.w3.org/1999/xlink">
    <!-- Generator: Sketch 3.8.2 (29753) - http://www.bohemiancoding.com/sketch -->
    <title>PeopleDoc-logo</title>
    <desc>Created with Sketch.</desc>
    <defs></defs>
    <g id="Page-1" stroke="none" stroke-width="1" fill="none" fill-rule="evenodd">
        <g id="PeopleDoc-logo">
            <g id="Calque_1">
                <path d="M887.6,252.8 C869.6,252.3 852.1,242.2 838.3,224.3 C826.3,208.7 819.2,189.6 819.2,173 C819.2,163.9 819.2,153.6 819.3,143.6 C819.4,124.2 819.4,105.9 819.2,99 C819,91.5 823.2,84.5 835.7,71.4 C843.2,63.5 853.5,53.8 864.6,44.1 C867.9,41.2 871.2,38.3 874.4,35.4 C900.6,12.2 913.8,1 926.5,0.6 C948.4,-0.2 981.8,-0.1 992.8,0.6 C1042,3.7 1071.6,33.4 1072,80.2 C1072,83.8 1071.9,87.9 1071.8,91.9 C1071.7,95.2 1071.6,98.6 1071.6,101.5 L1040.6,101.5 C1040.6,98.2 1040.7,94.6 1040.8,91.1 C1040.9,87.4 1041,83.5 1041,80.4 C1040.8,50 1023.9,33.5 990.9,31.5 C981.8,30.9 950.7,30.7 928.8,31.5 C923,33.9 906.9,48.1 895.1,58.6 C891.9,61.5 888.6,64.4 885.2,67.4 C866.2,84.1 854.3,96.6 850.5,101.7 C850.6,110.5 850.6,126.7 850.5,143.7 C850.5,153.7 850.4,164 850.4,173 C850.4,192.7 870.1,221.3 888.6,221.8 L887.6,252.8 L887.6,252.8 Z" id="Shape" fill="#115181"></path>
                <path d="M843,109.8 C885,59.5 888.5,56.3 926.9,9.1 L926.8,109.8 L843,109.8 L843,109.8 Z M72.7,101.8 C90.8,101.8 106.2,108.1 119.1,120.6 C131.9,133.1 138.4,149.8 138.4,170.5 C138.4,191.3 132,208.2 119.3,221.2 C106.5,234.2 91.7,240.7 74.7,240.7 C57.7,240.7 42.5,233.3 28.9,218.4 L28.9,287.9 L0.5,287.9 L0.5,103.9 L28.9,103.9 L28.9,127.5 C40,110.3 54.6,101.8 72.7,101.8 L72.7,101.8 Z M28.4,171.5 C28.4,184.3 32.3,194.9 40.1,203.1 C47.9,211.3 57.3,215.4 68.5,215.4 C79.7,215.4 89.4,211.3 97.7,203.2 C106,195.1 110.1,184.6 110.1,171.6 C110.1,158.7 106,147.9 97.9,139.4 C89.8,130.9 80.1,126.6 68.7,126.6 C57.4,126.6 47.8,130.9 40.1,139.4 C32.2,147.9 28.4,158.6 28.4,171.5 L28.4,171.5 Z M213.2,101.8 C231.6,101.8 246.9,106.9 259.1,117.1 C271.3,127.3 277.4,140.6 277.6,157 L277.9,157.5 L179.5,198.8 C188.3,209.6 200.2,215 215.4,215 C230.5,215 243,209.1 252.8,197.3 L269.5,215.8 C253.4,232.4 234.5,240.6 212.7,240.6 C193.6,240.6 177.2,234.3 163.5,221.6 C149.8,208.9 143,192.2 143,171.4 C143,157 146.5,144.4 153.6,133.5 C160.7,122.6 169.5,114.6 180,109.4 C190.4,104.3 201.5,101.8 213.2,101.8 L213.2,101.8 Z M170.3,172 C170.3,174.2 170.4,175.8 170.6,176.8 L245.4,144.6 C239.7,133.4 229.4,127.9 214.7,127.9 C203.5,127.9 193.4,131.8 184.2,139.6 C174.9,147.3 170.3,158.1 170.3,172 L170.3,172 Z M400.7,220.5 C387.2,233.9 370.3,240.7 350,240.7 C329.7,240.7 312.8,234 299.3,220.5 C285.8,207.1 279,190.6 279,171.2 C279,151.8 285.8,135.3 299.3,121.9 C312.8,108.5 329.7,101.7 350,101.7 C370.3,101.7 387.2,108.4 400.7,121.9 C414.2,135.3 421,151.8 421,171.2 C421,190.7 414.3,207.1 400.7,220.5 L400.7,220.5 Z M319.5,203 C327.5,211.2 337.7,215.3 350,215.3 C362.3,215.3 372.5,211.2 380.5,203 C388.5,194.8 392.5,184.2 392.5,171.2 C392.5,158.2 388.5,147.6 380.5,139.4 C372.5,131.2 362.3,127.1 350,127.1 C337.7,127.1 327.5,131.2 319.5,139.4 C311.5,147.6 307.5,158.2 307.5,171.2 C307.4,184.2 311.5,194.8 319.5,203 L319.5,203 Z M506.4,101.8 C524.5,101.8 539.9,108.1 552.8,120.6 C565.6,133.1 572.1,149.8 572.1,170.5 C572.1,191.3 565.7,208.2 553,221.2 C540.2,234.2 525.4,240.7 508.4,240.7 C491.4,240.7 476.2,233.3 462.6,218.4 L462.6,287.9 L434.2,287.9 L434.2,103.9 L462.6,103.9 L462.6,127.5 C473.7,110.3 488.4,101.8 506.4,101.8 L506.4,101.8 Z M462.1,171.5 C462.1,184.3 466,194.9 473.8,203.1 C481.6,211.3 491,215.4 502.2,215.4 C513.4,215.4 523.1,211.3 531.4,203.2 C539.7,195.1 543.8,184.6 543.8,171.6 C543.8,158.7 539.7,147.9 531.6,139.4 C523.5,130.9 513.8,126.6 502.4,126.6 C491.1,126.6 481.5,130.9 473.8,139.4 C466,147.9 462.1,158.6 462.1,171.5 L462.1,171.5 Z M653,229 C646.2,236.8 636.8,240.7 624.6,240.7 C612.4,240.7 602.7,237.1 595.3,229.8 C587.9,222.5 584.3,211.8 584.3,197.6 L584.3,61.5 L612.7,61.5 L612.7,194.3 C612.7,207.8 617.8,214.6 627.9,214.6 C633.8,214.6 638,212.5 640.6,208.3 L653,229 L653,229 Z M715.1,101.8 C733.5,101.8 748.8,106.9 761,117.1 C773.2,127.3 779.3,140.6 779.5,157 L779.8,157.5 L681.4,198.8 C690.2,209.6 702.1,215 717.3,215 C732.4,215 744.9,209.1 754.7,197.3 L771.4,215.8 C755.3,232.4 736.4,240.6 714.6,240.6 C695.5,240.6 679.1,234.3 665.4,221.6 C651.7,208.9 644.9,192.2 644.9,171.4 C644.9,157 648.4,144.4 655.5,133.5 C662.6,122.6 671.4,114.6 681.9,109.4 C692.3,104.3 703.4,101.8 715.1,101.8 L715.1,101.8 Z M672.2,172 C672.2,174.2 672.3,175.8 672.5,176.8 L747.3,144.6 C741.6,133.4 731.3,127.9 716.6,127.9 C705.4,127.9 695.3,131.8 686.1,139.6 C676.8,147.3 672.2,158.1 672.2,172 L672.2,172 Z" id="Shape" fill="#115181"></path>
                <path d="M508.3,255.2 L508.3,417.5 L493.4,417.5 L493.4,397.4 C487.1,405.1 480,410.9 472.1,414.7 C464.2,418.6 455.6,420.5 446.3,420.5 C429.7,420.5 415.6,414.5 403.8,402.5 C392.1,390.5 386.2,375.9 386.2,358.6 C386.2,341.7 392.1,327.3 404,315.3 C415.8,303.3 430.1,297.3 446.7,297.3 C456.3,297.3 465,299.3 472.8,303.4 C480.6,307.5 487.4,313.6 493.3,321.8 L493.3,255.1 L508.3,255.1 L508.3,255.2 Z M448,311.9 C439.6,311.9 431.9,314 424.8,318.1 C417.7,322.2 412.1,328 407.9,335.5 C403.7,343 401.6,350.8 401.6,359.2 C401.6,367.4 403.7,375.3 407.9,382.9 C412.1,390.4 417.8,396.3 424.9,400.5 C432,404.7 439.7,406.8 447.9,406.8 C456.1,406.8 464,404.7 471.3,400.6 C478.7,396.4 484.4,390.8 488.3,383.7 C492.3,376.6 494.3,368.6 494.3,359.7 C494.3,346.2 489.8,334.8 480.9,325.7 C472.1,316.4 461.1,311.9 448,311.9 L448,311.9 Z M581.3,297.4 C599.3,297.4 614.3,303.9 626.2,317 C637,328.9 642.4,343 642.4,359.3 C642.4,375.7 636.7,390 625.3,402.2 C613.9,414.4 599.3,420.6 581.4,420.6 C563.4,420.6 548.7,414.5 537.3,402.2 C525.9,390 520.2,375.7 520.2,359.3 C520.2,343.1 525.6,329 536.4,317.1 C548.2,303.9 563.2,297.4 581.3,297.4 L581.3,297.4 Z M581.3,312.1 C568.8,312.1 558,316.7 549,326 C540,335.3 535.5,346.5 535.5,359.6 C535.5,368.1 537.6,376 541.7,383.3 C545.8,390.6 551.3,396.3 558.3,400.3 C565.3,404.3 573,406.3 581.3,406.3 C589.7,406.3 597.3,404.3 604.3,400.3 C611.3,396.3 616.8,390.7 620.9,383.3 C625,376 627.1,368.1 627.1,359.6 C627.1,346.5 622.6,335.3 613.5,326 C604.5,316.7 593.7,312.1 581.3,312.1 L581.3,312.1 Z M767.4,324.7 L755.5,332.1 C745.2,318.4 731.1,311.5 713.2,311.5 C698.9,311.5 687.1,316.1 677.7,325.3 C668.3,334.5 663.6,345.6 663.6,358.7 C663.6,367.2 665.8,375.3 670.1,382.8 C674.4,390.3 680.4,396.2 688,400.3 C695.6,404.5 704,406.5 713.4,406.5 C730.6,406.5 744.7,399.6 755.6,385.9 L767.5,393.8 C761.9,402.2 754.4,408.8 744.9,413.4 C735.5,418 724.7,420.4 712.7,420.4 C694.2,420.4 678.8,414.5 666.6,402.7 C654.4,390.9 648.3,376.6 648.3,359.7 C648.3,348.4 651.2,337.8 656.9,328.1 C662.6,318.4 670.4,310.8 680.4,305.3 C690.4,299.8 701.5,297.1 713.9,297.1 C721.7,297.1 729.1,298.3 736.3,300.7 C743.5,303.1 749.6,306.2 754.7,310 C759.6,314 763.9,318.8 767.4,324.7 L767.4,324.7 Z" id="Shape" fill="#4BA5DC"></path>
                <g id="Group" transform="translate(907.000000, 111.000000)" fill="#4BA5DC">
                    <path d="M165.5,242.6 L77.2,242.6 C34.9,242.6 0.5,208.2 0.5,165.9 L0.5,77.6 C0.5,35.3 34.9,0.9 77.2,0.9 L133.6,0.9 C154.5,0.9 173.5,19.7 187.3,33.5 C189.1,35.3 190.8,37 192.3,38.4 C196,41.9 201.1,46.4 206.5,51.1 C232.5,73.7 242.3,83.4 242.3,95 L242.3,165.9 C242.2,208.2 207.8,242.6 165.5,242.6 L165.5,242.6 Z M77.2,31.9 C52,31.9 31.5,52.4 31.5,77.6 L31.5,165.9 C31.5,191.1 52,211.6 77.2,211.6 L165.5,211.6 C190.7,211.6 211.2,191.1 211.2,165.9 L211.2,98.1 C207,92.7 193.6,81 186.1,74.4 C180.4,69.5 175.1,64.8 170.9,60.8 C169.2,59.2 167.4,57.4 165.4,55.4 C158.3,48.4 141.7,31.8 133.6,31.8 L77.2,31.8 L77.2,31.9 Z" id="Shape"></path>
                    <path d="M139.6,30.3 C177.7,65.9 180.1,68.9 215.9,101.5 L139.6,101.5 L139.6,30.3 L139.6,30.3 Z" id="Shape"></path>
                </g>
            </g>
        </g>
    </g>
</svg>