<?xml version="1.0" encoding="UTF-8" standalone="no"?>
<svg width="2356px" height="1486px" viewBox="0 0 2356 1486" version="1.1" xmlns="http://www.w3.org/2000/svg" xmlns:xlink="http://www.w3.org/1999/xlink">
    <!-- Generator: Sketch 3.8.2 (29753) - http://www.bohemiancoding.com/sketch -->
    <title>openclassroom-color</title>
    <desc>Created with Sketch.</desc>
    <defs></defs>
    <g id="Page-1" stroke="none" stroke-width="1" fill="none" fill-rule="evenodd">
        <g id="openclassroom-color">
            <path d="M1769,1485 C1766.2,1484.3 1763.4,1483.5 1760.6,1482.8 C1740.6,1477.3 1727.7,1464.5 1724.2,1444.1 C1719,1412.9 1719.2,1381.3 1723.1,1350.1 C1726.5,1322.7 1745.3,1307.3 1773,1305.3 C1782.3,1304.6 1791.6,1305.2 1800.7,1307.7 C1825.5,1314.6 1836.6,1332.6 1838.5,1356.6 C1840.7,1383.8 1841.3,1411.2 1837.9,1438.4 C1834.7,1464.2 1818.2,1480.3 1792.5,1484.2 C1791.6,1484.3 1790.8,1484.8 1789.9,1485.2 C1783,1485 1776,1485 1769,1485 L1769,1485 Z M1800,1393.4 L1800,1393.4 C1800.1,1380.7 1800.4,1368.1 1800,1355.4 C1799.7,1342.7 1792.9,1336.6 1780.3,1336.8 C1768,1337 1760.3,1344.5 1760.1,1358 C1759.7,1380 1759.8,1402 1759.9,1424 C1759.9,1428.5 1760.3,1433 1761.1,1437.4 C1763,1448.2 1769.4,1453.5 1780,1453.5 C1792.3,1453.6 1799.4,1446.7 1799.9,1432.9 C1800.4,1419.8 1800,1406.6 1800,1393.4 L1800,1393.4 Z M1925,1485 C1922.2,1484.2 1919.4,1483.5 1916.6,1482.7 C1896.2,1477 1883.4,1463.8 1880.2,1442.9 C1875.4,1411.6 1875.5,1380 1879.5,1348.8 C1883.5,1317.9 1911.1,1300.9 1945.5,1305.5 C1976.4,1309.6 1993.2,1327 1995,1358.2 C1996.6,1384.9 1997.8,1411.9 1994.2,1438.5 C1990.5,1465.5 1974.9,1479.9 1947.7,1484.2 C1947.1,1484.3 1946.6,1484.7 1946.1,1485 L1925,1485 L1925,1485 Z M1956.1,1393.5 L1956.2,1393.5 C1956.2,1380.8 1956.7,1368.2 1956.1,1355.5 C1955.4,1341.5 1948.6,1336 1934.6,1337 C1923.9,1337.7 1916.8,1344.2 1916.5,1357 C1915.8,1382.8 1914.9,1408.7 1917,1434.4 C1918.2,1448.2 1925,1453.9 1937.6,1453.5 C1948.8,1453.1 1955.5,1446.3 1956,1433 C1956.5,1419.8 1956.1,1406.6 1956.1,1393.5 L1956.1,1393.5 Z" id="Shape" fill="#1F1F1D"></path>
            <path d="M243,1485 C239.2,1484 235.4,1483.1 231.7,1481.9 C210.8,1475.3 199.9,1460.3 197.1,1439.2 C193.4,1410.5 193.6,1381.6 196.3,1353 C199.5,1319.6 226.8,1300.8 262.8,1305.4 C292.6,1309.2 308.6,1324 311.9,1354 C315,1382.5 315.1,1411.2 311.6,1439.7 C308.6,1464.3 291.6,1480.2 267,1484 C265.9,1484.2 264.9,1484.7 263.9,1485 L243,1485 L243,1485 Z M274,1393.5 C274,1380.7 274.3,1367.8 274,1355 C273.7,1343 267.3,1337.1 255.4,1336.8 C243,1336.5 234.6,1343.4 234.3,1356.4 C233.8,1381.7 234.1,1407 234.3,1432.3 C234.3,1435.1 235.2,1437.9 236,1440.6 C238.6,1449.2 243.9,1453.2 252.8,1453.4 C265.9,1453.8 273.3,1446.8 273.9,1432.4 C274.4,1419.5 274,1406.5 274,1393.5 L274,1393.5 Z" id="Shape" fill="#C51632"></path>
            <path d="M1471,1485 C1468.7,1484.4 1466.4,1483.6 1464,1483.1 C1445.8,1479.5 1433.8,1468 1424.8,1452.6 C1423.7,1450.7 1423.9,1449.8 1425.7,1448.7 C1434.1,1443.3 1442.4,1437.8 1450.6,1432.1 C1453.7,1430 1453.8,1432.7 1454.7,1434.2 C1463.8,1450.2 1478.4,1457.4 1493.6,1453 C1501.3,1450.8 1507,1446.3 1508,1437.7 C1509.1,1428.2 1506.3,1422.7 1497.2,1418.5 C1483.9,1412.4 1470.1,1407.4 1457.1,1400.9 C1429.4,1387.2 1418.9,1357.3 1432.1,1331.2 C1440.4,1314.8 1455,1307.6 1472.4,1305.4 C1499.2,1302.1 1521.7,1309.8 1538.1,1332.3 C1540.3,1335.3 1539.9,1336.4 1537,1338.2 C1529.7,1342.8 1522.4,1347.5 1515.4,1352.5 C1512.6,1354.5 1511.5,1353.8 1509.7,1351.2 C1501.9,1339.9 1491.4,1334 1477.3,1335.8 C1469.9,1336.8 1464.6,1340.5 1462.7,1348.1 C1460.8,1355.7 1463.7,1361.7 1469.9,1365.8 C1481.1,1373.2 1494.3,1376.1 1506.7,1380.9 C1538.3,1393 1552.6,1422 1541.1,1452.1 C1533.9,1470.9 1518.9,1480 1500.1,1483.9 C1499,1484.1 1498,1484.6 1497,1485 L1471,1485 L1471,1485 Z M2280,1485 C2278.6,1483.1 2276.4,1483.6 2274.6,1483.2 C2256.2,1479.6 2244.2,1467.8 2235,1452.3 C2233.5,1449.7 2235.4,1449.2 2236.8,1448.3 C2244.5,1443.1 2252.4,1438.1 2260.1,1432.8 C2262.9,1430.8 2263.8,1431.4 2265.3,1434.3 C2273.7,1450 2288.6,1457.2 2303.8,1453.1 C2312.6,1450.8 2317.7,1445.3 2318.8,1437 C2319.9,1428.7 2316.9,1422.8 2308.1,1418.7 C2294.6,1412.4 2280.4,1407.3 2267.1,1400.7 C2239.1,1386.7 2228.9,1354 2244.3,1328.5 C2252.9,1314.3 2266.4,1307.8 2282.3,1305.7 C2309.3,1302.1 2331.9,1309.7 2348.7,1332.2 C2351,1335.2 2350.7,1336.5 2347.5,1338.5 C2340.3,1342.9 2333.2,1347.6 2326.3,1352.6 C2323.4,1354.7 2322.3,1354.1 2320.3,1351.3 C2312.7,1340.4 2302.5,1334.5 2288.8,1336 C2281.2,1336.8 2275.6,1340.4 2273.4,1348.1 C2271.4,1355.4 2274.4,1362.3 2281.6,1366.8 C2290.3,1372.3 2300.2,1374.6 2309.7,1378.2 C2317.8,1381.3 2325.8,1384.4 2333.1,1389.1 C2345.4,1396.9 2351.3,1408.8 2355.1,1422.1 L2355.1,1440.1 C2352.3,1456.2 2344.5,1468.9 2330.1,1477.2 C2322.6,1481.5 2314.3,1483.1 2306.1,1485.1 C2297.3,1485 2288.7,1485 2280,1485 L2280,1485 Z M1328,1485 C1316.6,1482.2 1305.3,1479.4 1296.3,1471 C1290.6,1465.7 1286.2,1459.6 1282,1453.1 C1280.4,1450.6 1281.2,1449.4 1283.4,1448.1 C1291.1,1443.1 1298.8,1438.2 1306.3,1432.9 C1309.2,1430.8 1310.3,1431.1 1312,1434.3 C1320.1,1449.9 1335,1457.1 1350.4,1452.9 C1358.2,1450.8 1363.8,1446.2 1365,1437.8 C1366.3,1428.7 1363.7,1423 1354.7,1418.8 C1342.6,1413.1 1329.9,1408.4 1317.7,1402.9 C1289.1,1389.9 1277.1,1364 1287,1336.4 C1294,1316.7 1309.8,1308 1329.3,1305.5 C1356.1,1302 1378.6,1309.9 1395.1,1332.3 C1397.2,1335.2 1397.1,1336.4 1394,1338.3 C1386.7,1342.9 1379.5,1347.7 1372.4,1352.6 C1369.8,1354.4 1368.7,1354.3 1366.7,1351.4 C1358.9,1339.9 1348.2,1333.9 1333.9,1336 C1326.7,1337.1 1321.6,1340.7 1319.8,1348.2 C1318,1355.6 1320.6,1361.4 1326.5,1365.6 C1335.3,1371.9 1345.9,1374.1 1355.7,1378 C1362.3,1380.6 1369.1,1382.8 1375.3,1386.5 C1395.5,1398.4 1404.5,1417.8 1400.9,1442.1 C1397.9,1462.2 1382.6,1477.9 1361,1483.1 C1358.7,1483.7 1356.4,1484.4 1354,1485.1 C1345.3,1485 1336.7,1485 1328,1485 L1328,1485 Z M882,1485 C876.2,1483.3 870.1,1482.3 864.6,1479.9 C847,1472.2 836.7,1458.5 834.8,1439.4 C831.9,1410.2 831.3,1380.7 834.6,1351.7 C838.1,1321.2 859.1,1305.3 892.2,1304.6 C900.9,1304.4 909.5,1305.4 917.8,1308.3 C943.4,1317.2 949,1338.2 950.1,1360.9 C950.3,1364.1 948,1363.2 946.4,1363.3 C936.4,1363.3 926.4,1363.2 916.4,1363.4 C913,1363.5 912.1,1362.7 911.9,1359.1 C911.4,1344.3 904.6,1336.3 893,1336.3 C882.2,1336.3 873.6,1343.1 873,1353.9 C871.6,1381.2 871.4,1408.5 873.1,1435.8 C873.8,1446.5 880.6,1452.1 891.7,1453 C901,1453.8 908.2,1448.6 911,1438.6 C912,1434.9 913,1431 912.8,1427.3 C912.5,1422.1 914.6,1421.4 919.1,1421.6 C928.6,1421.9 938.1,1421.7 947.6,1421.7 C949.4,1421.7 951.3,1421.3 951.3,1424.2 C951.1,1442.3 948.4,1459.4 933.6,1472.1 C925.5,1479.1 916,1482.6 905.6,1484.2 C904.7,1484.3 903.5,1483.8 903.1,1485.2 C896,1485 889,1485 882,1485 L882,1485 Z" id="Shape" fill="#1F1F1D"></path>
            <path d="M400,0 C401.7,27.2 403.3,54.4 405.1,81.6 C405.3,85.1 404.7,86.8 400.9,87.8 C367.3,96.5 333.8,105.4 300.3,114.5 C296.5,115.5 295.3,114.6 294.9,110.9 C294.5,107.3 294.2,103.5 292.8,100.2 C288.1,89 292.8,82 301,74.4 C331.3,46.3 364,21.6 399,0 L400,0 L400,0 Z" id="Shape" fill="#C51632"></path>
            <path d="M0,423 C2.9,404.6 10.4,388.2 21.8,373.5 C27.7,365.8 38.8,365 44.8,372.2 C60.5,390.9 76.1,409.7 91.9,428.4 C94.5,431.4 94.2,432.3 90.2,433.2 C61.6,439.8 33,446.7 4.4,453.5 C3,453.8 1.4,453.8 5.32907052e-15,454 L5.32907052e-15,423 L0,423 Z" id="Shape" fill="#F49A4C"></path>
            <path d="M2355,883 C2352.2,890.6 2346.3,891.2 2339.1,891 C2318.6,890.6 2298.1,890.7 2277.6,890.9 C2273.6,890.9 2272.6,889.7 2272.7,885.9 C2272.9,869.4 2272.8,852.9 2272.8,835.6 C2276.9,837.9 2280.5,839.8 2284,841.8 C2306,854.2 2328,866.7 2350.1,879 C2351.6,879.8 2352.9,881.5 2355,880.9 L2355,883 L2355,883 Z" id="Shape" fill="#E95427"></path>
            <path d="M2167.8,1339.6 C2162.2,1361.7 2157.1,1381.9 2152,1402.1 C2145.8,1426.8 2139.5,1451.4 2133.5,1476.1 C2132.7,1479.3 2131.6,1480.4 2128.2,1480.3 C2120.9,1479.9 2111.7,1482.6 2106.8,1479.1 C2102.3,1475.8 2102.4,1466.1 2100.6,1459.2 C2090.6,1420.6 2080.7,1382 2070.7,1343.4 C2070.4,1342.2 2070,1341 2069.9,1340.8 L2069.9,1378.3 C2069.9,1411.1 2069.9,1443.9 2070.1,1476.8 C2070.1,1479.8 2069.1,1480.3 2066.4,1480.3 C2057.9,1480.1 2049.4,1480.1 2040.9,1480.3 C2038,1480.4 2037.3,1479.3 2037.3,1476.6 C2037.4,1421.8 2037.4,1367 2037.3,1312.1 C2037.3,1309.1 2038.1,1308.1 2041.2,1308.1 C2055.7,1308.3 2070.2,1308.3 2084.7,1308.1 C2088.2,1308 2088.8,1309.9 2089.5,1312.4 C2099,1347.4 2110.2,1381.8 2118.2,1417.2 C2118.3,1417.8 2118.7,1418.3 2119.5,1420.1 C2124.3,1393.7 2132,1369.2 2138.9,1344.6 C2142,1333.7 2145.1,1322.9 2148.1,1312 C2148.8,1309.2 2150,1308.1 2153.1,1308.1 C2167.4,1308.3 2181.8,1308.3 2196.1,1308.1 C2199.4,1308.1 2200.2,1309 2200.2,1312.3 C2200.1,1367 2200.1,1421.6 2200.2,1476.3 C2200.2,1479.7 2199.1,1480.4 2196,1480.3 C2187.7,1480.1 2179.3,1480.1 2171,1480.3 C2167.7,1480.4 2166.9,1479.5 2166.9,1476.2 C2167.4,1432.1 2166,1387.9 2168.4,1343.8 C2168.5,1343 2168.2,1342.3 2167.8,1339.6 L2167.8,1339.6 Z" id="Shape" fill="#1F1F1D"></path>
            <path d="M701.4,1369.5 C702.8,1404.5 701.5,1439.4 702.1,1474.3 C702.2,1479.1 701.1,1480.6 696.2,1480.3 C687.7,1479.8 679.2,1480.1 670.7,1480.2 C667.8,1480.3 667.1,1479.3 667.1,1476.5 C667.2,1421.7 667.2,1366.9 667.1,1312.1 C667.1,1308.5 668.5,1308.1 671.5,1308.1 C680.3,1308.3 689.2,1308.4 698,1308.1 C702,1308 704.2,1309.2 706.1,1312.8 C723,1344.8 741.9,1375.7 756.8,1407.1 L756.8,1376.2 C756.7,1354.7 756.7,1333.2 756.5,1311.7 C756.5,1308.7 757.7,1308.1 760.4,1308.2 C769.6,1308.3 778.7,1308.4 787.9,1308.2 C791.2,1308.1 791.7,1309.5 791.7,1312.3 C791.6,1366.9 791.6,1421.6 791.7,1476.2 C791.7,1479.6 790.6,1480.4 787.4,1480.3 C779.9,1480.1 772.4,1480 764.9,1480.3 C761.4,1480.4 759.6,1479.2 758,1476.1 C739.4,1440.5 717.8,1406.4 701.4,1369.5 L701.4,1369.5 Z" id="Shape" fill="#C51632"></path>
            <path d="M1699,1480.2 C1685.7,1480.2 1672.9,1480.1 1660.1,1480.2 C1657,1480.2 1656.8,1477.9 1656,1476 C1646.3,1455.2 1636.6,1434.5 1627.2,1413.6 C1624.2,1407.1 1618.9,1410.3 1614.8,1410.2 C1611.3,1410.2 1613.2,1414.2 1613.2,1416.2 C1613,1436.2 1613,1456.2 1613.2,1476.2 C1613.2,1479.1 1612.7,1480.2 1609.4,1480.2 C1599.4,1480 1589.4,1480 1579.4,1480.2 C1576.3,1480.3 1575.5,1479.3 1575.5,1476.3 C1575.6,1421.7 1575.6,1367 1575.6,1312.4 C1575.6,1310.7 1574.6,1308.1 1578.1,1308.2 C1603.5,1308.9 1629.1,1306.4 1654.4,1310 C1677.9,1313.3 1691.4,1326.7 1694,1348.2 C1697.4,1376.6 1688.4,1393.8 1665.1,1402.9 C1661.4,1404.3 1662.7,1405.7 1663.8,1407.9 C1675,1430.7 1686.2,1453.5 1697.3,1476.4 C1697.8,1477.4 1698.3,1478.6 1699,1480.2 L1699,1480.2 Z M1613,1358.6 L1613,1366.1 C1613,1383.4 1613,1383.4 1630.6,1382.2 C1651.1,1380.9 1657.5,1373.1 1655.2,1352.6 C1654,1342.4 1648.8,1336.9 1638.6,1336 C1631.3,1335.3 1624,1335.6 1616.7,1335.1 C1613.4,1334.9 1612.9,1336.2 1612.9,1339.1 C1613.1,1345.6 1613,1352.1 1613,1358.6 L1613,1358.6 Z" id="Shape" fill="#1F1F1D"></path>
            <path d="M509.2,1393.8 C509.2,1366.8 509.3,1339.8 509.1,1312.8 C509.1,1309.2 509.8,1308 513.7,1308 C549.2,1308.2 584.7,1308.1 620.1,1308 C623.7,1308 625.1,1308.8 624.9,1312.6 C624.6,1320.1 624.6,1327.6 624.9,1335.1 C625,1338.8 623.9,1339.9 620.2,1339.8 C597.2,1339.6 574.2,1339.8 551.2,1339.6 C547.8,1339.6 546.6,1340.3 546.7,1343.9 C547,1353.2 546.9,1362.6 546.7,1371.9 C546.6,1375.2 547.6,1376.1 550.9,1376 C565.9,1375.8 580.9,1376.1 595.9,1375.8 C599.7,1375.7 600.7,1376.9 600.6,1380.6 C600.3,1388.1 600.3,1395.6 600.6,1403.1 C600.8,1407 599.4,1407.8 595.7,1407.7 C580.9,1407.5 566,1407.7 551.2,1407.5 C547.9,1407.5 546.9,1408.4 547,1411.7 C547.2,1422.2 547.3,1432.7 547,1443.2 C546.9,1447 548,1447.9 551.7,1447.9 C576.4,1447.7 601,1447.9 625.7,1447.7 C629.1,1447.7 630.3,1448.3 630.2,1452 C629.9,1460 630,1468 630.2,1476 C630.3,1478.9 629.7,1480.1 626.4,1480 C588.6,1479.9 550.8,1479.9 513,1480 C509.4,1480 509.1,1478.5 509.1,1475.6 C509.2,1448.5 509.2,1421.2 509.2,1393.8 L509.2,1393.8 Z" id="Shape" fill="#C51632"></path>
            <path d="M1281,835.4 C1281,853.1 1280.9,870.7 1281.1,888.4 C1281.1,891.7 1280.2,892.6 1276.9,892.6 C1241.9,892.5 1206.9,892.5 1171.9,892.6 C1168.6,892.6 1167.7,891.7 1167.7,888.4 C1167.9,852.8 1167.9,817.1 1167.9,781.5 C1167.9,778.7 1168.6,777.8 1171.5,777.8 C1206.8,777.9 1242.1,777.9 1277.5,777.8 C1281,777.8 1281.1,779.4 1281.1,782 C1281,799.8 1281,817.6 1281,835.4 L1281,835.4 Z" id="Shape" fill="#C41531"></path>
            <path d="M1715.5,1013.7 C1698.3,1013.7 1681.2,1013.6 1664,1013.8 C1660.3,1013.8 1658.8,1013.1 1658.9,1008.9 C1659.1,974.2 1659.1,939.6 1658.9,904.9 C1658.9,901 1660.2,900.3 1663.8,900.3 C1698.3,900.4 1732.8,900.4 1767.3,900.3 C1771.4,900.3 1772.2,901.7 1772.1,905.4 C1772,939.7 1771.9,974 1772.1,1008.4 C1772.1,1013 1770.7,1013.9 1766.5,1013.8 C1749.5,1013.5 1732.5,1013.7 1715.5,1013.7 L1715.5,1013.7 Z M598.5,1013.7 C581.3,1013.7 564.2,1013.6 547,1013.8 C543.3,1013.8 541.8,1013.1 541.9,1008.9 C542.1,974.2 542.1,939.6 541.9,904.9 C541.9,901 543.2,900.3 546.8,900.3 C581.3,900.4 615.8,900.4 650.3,900.3 C654.4,900.3 655.2,901.7 655.2,905.4 C655.1,939.9 655.1,974.4 655.2,1008.9 C655.2,1013 653.9,1013.8 650.1,1013.8 C632.8,1013.6 615.7,1013.7 598.5,1013.7 L598.5,1013.7 Z M2027.1,956.9 C2027.1,939.6 2027.2,922.2 2027,904.9 C2027,901.3 2027.8,900 2031.7,900 C2066.4,900.1 2101,900.1 2135.7,900 C2139.2,900 2140.2,901 2140.2,904.5 C2140.1,939.3 2140.1,974.2 2140.2,1009 C2140.2,1012.9 2138.9,1013.7 2135.3,1013.7 C2101,1013.6 2066.6,1013.6 2032.3,1013.7 C2028.1,1013.7 2026.9,1012.5 2027,1008.4 C2027.3,991.2 2027.1,974.1 2027.1,956.9 L2027.1,956.9 Z" id="Shape" fill="#F49A4C"></path>
            <path d="M606,783.5 C602.2,819.1 598.5,854.4 594.8,889.6 C594.5,892.5 593.4,893.1 590.7,892.8 C555.6,888.8 520.6,884.9 485.5,881.1 C483.2,880.8 481.9,880.6 482.2,877.7 C486.1,842.3 490,806.9 493.7,771.5 C494,768.4 494.9,767.7 497.9,768 C532.6,771.9 567.4,775.7 602.1,779.5 C604.9,779.9 607.2,780.2 606,783.5 L606,783.5 Z" id="Shape" fill="#7C1C16"></path>
            <path d="M1101.9,532.3 C1119.1,532.3 1136.2,532.4 1153.4,532.2 C1157,532.2 1158.3,533.1 1158.2,536.9 C1158.1,571.5 1158.1,606.2 1158.2,640.8 C1158.2,644.5 1157.2,645.6 1153.5,645.6 C1119.9,645.5 1086.2,645.4 1052.5,645.6 C1048.2,645.6 1048.1,643.8 1047.7,640.3 C1043.7,605.9 1045.3,571.5 1044.9,537 C1044.9,533 1046.1,532 1049.9,532 C1067.3,532.5 1084.6,532.3 1101.9,532.3 L1101.9,532.3 Z" id="Shape" fill="#F49A4C"></path>
            <path d="M735.1,335.5 C735.5,338.7 732.5,338.4 730.7,338.9 C699.1,347 667.6,355 636,363 C626.2,365.5 626.2,365.4 623.7,355.5 C615.7,324.1 607.8,292.7 599.6,261.3 C598.5,257 599.5,255.6 603.7,254.5 C637.3,246.1 670.7,237.6 704.2,228.9 C706.9,228.2 708,228.6 708.7,231.3 C717.3,265.5 726.1,299.6 734.8,333.8 C734.9,334.4 735,334.9 735.1,335.5 L735.1,335.5 Z M2140.1,343.5 C2140.1,360.8 2140,378.2 2140.2,395.5 C2140.2,398.9 2139.4,400.1 2135.8,400.1 C2101,400 2066.1,400 2031.3,400.1 C2027.9,400.1 2027.1,399 2027.1,395.8 C2027.2,361 2027.2,326.1 2027.1,291.3 C2027.1,288.1 2027.9,287 2031.3,287 C2066.1,287.1 2101,287.1 2135.8,287 C2139.4,287 2140.3,288.2 2140.2,291.6 C2140,308.8 2140.1,326.2 2140.1,343.5 L2140.1,343.5 Z" id="Shape" fill="#FCE16D"></path>
            <path d="M2263,343.5 C2263,361 2262.9,378.5 2263.1,395.9 C2263.1,399.2 2262.2,400 2258.9,400 C2223.9,399.9 2189,399.9 2154,400 C2150.7,400 2149.9,399 2149.9,395.8 C2150,360.8 2150,325.9 2149.9,290.9 C2149.9,287.5 2150.9,286.8 2154.1,286.8 C2189.1,286.9 2224,286.9 2259,286.8 C2262.3,286.8 2263.1,287.7 2263.1,290.9 C2262.9,308.5 2263,326 2263,343.5 L2263,343.5 Z M1101.5,409.8 C1118.8,409.8 1136.2,409.9 1153.5,409.7 C1157.1,409.7 1158.3,410.5 1158.3,414.3 C1158.1,449 1158.2,483.6 1158.3,518.3 C1158.3,521.7 1157.6,522.9 1153.9,522.9 C1119.1,522.8 1084.2,522.8 1049.4,522.9 C1045.9,522.9 1044.9,522 1044.9,518.5 C1045,483.7 1045,448.8 1044.9,414 C1044.9,410.2 1046.3,409.7 1049.5,409.8 C1066.8,409.9 1084.2,409.8 1101.5,409.8 L1101.5,409.8 Z" id="Shape" fill="#E95326"></path>
            <path d="M1281,466.5 C1281,483.8 1280.9,501.1 1281.1,518.5 C1281.1,521.9 1280.4,523 1276.8,523 C1242,522.9 1207.2,522.8 1172.4,523 C1168.4,523 1167.8,521.7 1167.8,518.2 C1167.9,483.6 1167.9,448.9 1167.8,414.3 C1167.8,410.8 1168.7,409.9 1172.2,409.9 C1207,410 1241.8,410.1 1276.6,409.9 C1280.6,409.9 1281.1,411.2 1281.1,414.7 C1280.9,431.8 1281,449.2 1281,466.5 L1281,466.5 Z" id="Shape" fill="#C41531"></path>
            <path d="M1592,522.9 C1575,522.9 1558,522.8 1541.1,523 C1537.1,523 1536.1,521.9 1536.1,517.9 C1536.2,483.4 1536.2,449 1536.1,414.5 C1536.1,410.9 1537.1,409.6 1540.9,409.6 C1575.5,409.7 1610.2,409.7 1644.8,409.6 C1648.3,409.6 1649.3,410.7 1649.3,414.2 C1649.2,448.8 1649.2,483.5 1649.3,518.1 C1649.3,521.8 1648.3,523 1644.5,522.9 C1626.9,522.8 1609.5,522.9 1592,522.9 L1592,522.9 Z" id="Shape" fill="#FCE16D"></path>
            <path d="M1715.5,522.8 C1698.2,522.8 1680.9,522.7 1663.5,522.9 C1659.7,522.9 1658.8,521.8 1658.9,518.1 C1659,483.5 1659,448.8 1658.9,414.2 C1658.9,410.6 1659.6,409.4 1663.5,409.4 C1698.1,409.6 1732.8,409.6 1767.4,409.4 C1771.2,409.4 1772.1,410.5 1772,414.2 C1771.9,448.8 1771.8,483.5 1772,518.1 C1772,522.4 1770.5,522.9 1766.9,522.9 C1749.8,522.8 1732.7,522.8 1715.5,522.8 L1715.5,522.8 Z M1281,712 C1281,729.2 1280.9,746.3 1281.1,763.5 C1281.1,766.7 1280.7,768.1 1276.9,768.1 C1241.9,767.9 1206.9,768 1171.9,768.1 C1168.9,768.1 1167.9,767.4 1167.9,764.3 C1168,729.1 1168,694 1167.9,658.8 C1167.9,655.6 1168.9,655 1171.9,655 C1206.9,655.1 1241.9,655.1 1276.9,655 C1280.7,655 1281.1,656.4 1281.1,659.6 C1280.9,677 1281,694.5 1281,712 L1281,712 Z" id="Shape" fill="#E95326"></path>
            <path d="M1536.2,711 C1536.2,693.9 1536.3,676.7 1536.1,659.6 C1536.1,656.4 1536.4,655 1540.3,655 C1575.3,655.2 1610.2,655.1 1645.2,655 C1648.5,655 1649.3,655.9 1649.3,659.2 C1649.2,694.2 1649.2,729.1 1649.3,764.1 C1649.3,767.4 1648.4,768.2 1645.2,768.2 C1610.2,768.1 1575.3,768.1 1540.3,768.2 C1537,768.2 1536.1,767.3 1536.2,764 L1536.2,711 L1536.2,711 Z" id="Shape" fill="#7C1C16"></path>
            <path d="M1715.3,890.9 C1698.1,890.9 1681,890.8 1663.8,891 C1660.2,891 1658.9,890.1 1659,886.3 C1659.1,851.6 1659.1,817 1659,782.3 C1659,778.7 1660.2,777.8 1663.6,777.9 C1698.3,778 1732.9,778 1767.6,777.9 C1771,777.9 1772.2,778.7 1772.2,782.3 C1772.1,817 1772.1,851.6 1772.2,886.3 C1772.2,890.1 1771,891 1767.4,891 C1749.9,890.8 1732.6,890.9 1715.3,890.9 L1715.3,890.9 Z M1045,834.5 C1045,817.2 1045.1,799.9 1044.9,782.5 C1044.9,778.7 1046,777.8 1049.7,777.8 C1084.2,777.9 1118.6,777.9 1153.1,777.8 C1157,777.8 1158.2,778.8 1158.2,782.8 C1158.1,817.3 1158.1,851.7 1158.2,886.2 C1158.2,890 1157,890.9 1153.4,890.9 C1118.8,890.8 1084.1,890.8 1049.5,890.9 C1046,890.9 1045,889.9 1045,886.4 C1045.1,869.1 1045,851.8 1045,834.5 L1045,834.5 Z" id="Shape" fill="#FCE16D"></path>
            <path d="M1592.6,777.8 C1610.1,777.8 1627.6,777.9 1645.1,777.7 C1648.4,777.7 1649.3,778.6 1649.3,781.8 C1649.2,816.8 1649.2,851.7 1649.3,886.7 C1649.3,890.1 1648.2,890.8 1645,890.8 C1610.2,890.7 1575.4,890.7 1540.6,890.8 C1537.1,890.8 1536.1,889.9 1536.1,886.4 C1536.2,851.6 1536.2,816.8 1536.1,782 C1536.1,778.3 1537.4,777.7 1540.7,777.7 C1558,777.9 1575.3,777.8 1592.6,777.8 L1592.6,777.8 Z" id="Shape" fill="#C41632"></path>
            <path d="M922.1,343.5 C922.1,326.3 922.2,309.2 922,292 C922,288.2 922.8,286.8 926.9,286.8 C961.4,287 995.8,287 1030.3,286.8 C1034.3,286.8 1035.3,288.1 1035.3,291.9 C1035.2,326.2 1035.2,360.5 1035.3,394.8 C1035.3,398.6 1034.5,400 1030.4,399.9 C995.9,399.7 961.5,399.7 927,399.9 C922.9,399.9 922,398.6 922.1,394.8 C922.2,377.8 922.1,360.7 922.1,343.5 L922.1,343.5 Z" id="Shape" fill="#FCE16D"></path>
            <path d="M1894.8,343.5 C1894.8,360.8 1894.7,378.2 1894.9,395.5 C1894.9,398.7 1894.5,400.1 1890.7,400.1 C1855.7,399.9 1820.7,400 1785.7,400.1 C1782.7,400.1 1781.7,399.4 1781.8,396.3 C1781.9,361.1 1781.9,326 1781.8,290.8 C1781.8,287.7 1782.7,287 1785.7,287 C1820.7,287.1 1855.7,287.1 1890.7,287 C1894.5,287 1895,288.3 1894.9,291.6 C1894.8,308.8 1894.8,326.2 1894.8,343.5 L1894.8,343.5 Z" id="Shape" fill="#C41531"></path>
            <path d="M1715.5,400 C1698,400 1680.5,399.9 1663,400.1 C1659.7,400.1 1658.9,399.3 1658.9,396 C1659,361 1659,326 1658.9,291.1 C1658.9,287.8 1659.7,287 1663,287 C1698,287.1 1733,287.1 1767.9,287 C1771.2,287 1772,287.8 1772,291.1 C1771.9,326.1 1771.9,361.1 1772,396 C1772,399.3 1771.2,400.1 1767.9,400.1 C1750.5,399.9 1733,400 1715.5,400 L1715.5,400 Z" id="Shape" fill="#7C1B15"></path>
            <path d="M887.2,344 C887.2,361.3 887.1,378.6 887.3,395.9 C887.3,399.2 886.4,400 883.2,400 C848.2,399.9 813.3,399.9 778.3,400 C775,400 774.2,399.1 774.2,395.8 C774.3,360.8 774.3,325.9 774.2,290.9 C774.2,287.5 775.2,286.8 778.4,286.8 C813.4,286.9 848.3,286.9 883.3,286.8 C886.7,286.8 887.4,287.8 887.4,291 C887.1,308.7 887.2,326.4 887.2,344 L887.2,344 Z" id="Shape" fill="#7C1C16"></path>
            <path d="M1101.5,400 C1084.3,400 1067.2,399.9 1050,400.1 C1046.4,400.1 1044.8,399.6 1044.8,395.3 C1045,360.7 1045,326 1044.8,291.4 C1044.8,287.9 1045.7,286.9 1049.2,287 C1084,287.1 1118.8,287.1 1153.6,287 C1157.2,287 1158,288.1 1158,291.5 C1157.9,326.1 1157.9,360.8 1158,395.4 C1158,399.1 1157,400.1 1153.3,400.1 C1136.2,399.9 1118.8,400 1101.5,400 L1101.5,400 Z" id="Shape" fill="#F49A4B"></path>
            <path d="M916.6,160.6 C912.6,191.1 908.6,221.6 904.5,252.1 C904.1,254.9 903.2,257.7 903.4,260.5 C904.2,269.6 899.6,269.7 892.4,268.7 C860.6,264.2 828.8,260.1 796.9,256 C792.1,255.4 790,254.6 790.8,248.7 C795.6,214.9 799.9,181.1 804.2,147.3 C804.7,143.5 806.1,143.1 809.7,143.6 C843.8,148.2 878,152.6 912.1,157.1 C914.1,157.4 917.3,156.7 916.6,160.6 L916.6,160.6 Z" id="Shape" fill="#F49A4C"></path>
            <path d="M395.9,718.1 C371.3,720.5 346.6,722.8 322,725.3 C318.7,725.6 317.3,725 317,721.3 C313.7,686.6 310.2,651.8 306.6,617.1 C306.3,613.9 306.9,613.2 310,612.9 C345.1,609.4 380.1,605.9 415.2,602.2 C418,601.9 418.9,602.6 419.2,605.5 C421.4,628.7 423.8,651.8 426.2,675 C427.4,686.5 428.4,698 429.8,709.5 C430.2,713.1 430.1,714.9 425.6,715.1 C415.6,715.7 405.8,717.1 395.9,718.1 L395.9,718.1 Z" id="Shape" fill="#F49A4B"></path>
            <path d="M1244.6,1479.9 C1238.6,1479.9 1231,1482.1 1227.1,1479.3 C1223.3,1476.5 1223.4,1468.5 1221.9,1462.8 C1217.7,1446.3 1217.7,1446.3 1200.4,1446.3 C1190.1,1446.3 1179.7,1446.5 1169.4,1446.2 C1166,1446.1 1164.8,1447.4 1164.1,1450.4 C1161.9,1459.3 1159.4,1468.1 1157.3,1477 C1156.7,1479.7 1155.7,1480.5 1153,1480.4 C1143,1480.3 1133,1480.2 1123,1480.4 C1119.8,1480.5 1119.5,1479.4 1120.2,1476.6 C1135.8,1421.6 1151.3,1366.6 1166.8,1311.6 C1167.5,1309 1168.6,1308.2 1171.2,1308.2 C1184.2,1308.3 1197.2,1308.3 1210.2,1308.2 C1212.9,1308.2 1214,1309.1 1214.7,1311.6 C1230.5,1366.7 1246.4,1421.7 1262.4,1476.8 C1263.3,1480 1262.4,1480.5 1259.6,1480.4 C1254.6,1480.2 1249.6,1480.4 1244.6,1480.4 L1244.6,1479.9 L1244.6,1479.9 Z M1190.9,1337.8 C1184.5,1364.6 1178.6,1389.2 1172.6,1413.6 C1171.8,1416.7 1172.9,1416.9 1175.4,1416.8 C1182.4,1416.7 1189.4,1416.8 1196.4,1416.8 C1210.3,1416.8 1210.3,1416.8 1207,1403.4 C1201.8,1382.3 1196.6,1361.3 1190.9,1337.8 L1190.9,1337.8 Z" id="Shape" fill="#1F1F1D"></path>
            <path d="M507.7,489.2 C502.9,491.1 502,488.1 501.5,483.1 C498.5,449.4 495.3,415.8 491.9,382.2 C491.5,378 492.8,377.1 496.8,376.7 C530.3,373.7 563.8,370.5 597.2,367.1 C602.3,366.6 604.4,367.4 604.9,373 C607.8,406.8 611,440.7 614.2,474.5 C614.6,478.2 613.8,479.3 610.1,479.7 C576.3,482.6 542.5,485.9 507.7,489.2 L507.7,489.2 Z M2150,957 C2150,939.5 2150.1,922 2149.9,904.5 C2149.9,901 2150.8,900 2154.3,900.1 C2189,900.2 2223.6,900.2 2258.3,900.1 C2261.9,900.1 2263.1,900.8 2263.1,904.7 C2262.9,936.5 2263,968.3 2263,1000.2 C2263,1005.1 2254.8,1013.5 2249.7,1013.5 C2217.7,1013.5 2185.7,1013.5 2153.7,1013.6 C2149.9,1013.6 2149.9,1011.8 2149.9,1009 C2150,991.7 2150,974.3 2150,957 L2150,957 Z" id="Shape" fill="#E95326"></path>
            <path d="M1158.2,712 C1158.2,729.2 1158.1,746.3 1158.3,763.5 C1158.3,766.7 1157.9,768.1 1154.1,768.1 C1119.1,767.9 1084.1,768 1049.2,768.1 C1046,768.1 1045,767.5 1045,764.1 C1045.2,738.4 1044.8,712.8 1045.2,687.1 C1045.3,677.3 1046.9,667.6 1047.7,657.8 C1047.9,655.3 1049.2,655 1051.3,655 C1085.8,655 1120.3,655.1 1154.7,655 C1158.1,655 1158.3,656.4 1158.3,659.1 C1158.1,676.7 1158.2,694.4 1158.2,712 L1158.2,712 Z M1649.2,589 C1649.2,606.2 1649.1,623.3 1649.3,640.5 C1649.3,644.2 1648.6,645.6 1644.5,645.6 C1610,645.4 1575.5,645.4 1541,645.6 C1536.9,645.6 1536.1,644.3 1536.1,640.5 C1536.2,606.2 1536.2,571.9 1536.1,537.5 C1536.1,533.7 1537,532.4 1541,532.4 C1575.5,532.6 1610,532.6 1644.5,532.4 C1648.7,532.4 1649.3,533.9 1649.3,537.5 C1649.1,554.7 1649.2,571.9 1649.2,589 L1649.2,589 Z" id="Shape" fill="#C41531"></path>
            <path d="M1838,1013.4 C1820.9,1013.4 1803.7,1013.3 1786.6,1013.5 C1783,1013.5 1781.7,1012.8 1781.8,1008.9 C1782,974.3 1781.9,939.6 1781.8,905 C1781.8,901.6 1782.6,900.4 1786.2,900.5 C1821,900.6 1855.8,900.6 1890.6,900.5 C1894.2,900.5 1895,901.8 1895,905.1 C1894.9,939.7 1894.9,974.4 1895,1009 C1895,1013 1893.4,1013.6 1890,1013.5 C1872.6,1013.4 1855.3,1013.4 1838,1013.4 L1838,1013.4 Z" id="Shape" fill="#E95326"></path>
            <path d="M1224.6,645.2 C1207.3,645.2 1189.9,645.1 1172.6,645.3 C1168.9,645.3 1167.8,644.2 1167.8,640.5 C1167.9,606.2 1167.9,571.9 1167.8,537.5 C1167.8,533.8 1168.8,532.6 1172.6,532.7 C1207.3,532.8 1241.9,532.8 1276.6,532.7 C1280.1,532.7 1281.1,533.8 1281.1,537.2 C1281,571.7 1281,606.2 1281.1,640.7 C1281.1,644.7 1279.6,645.3 1276.1,645.3 C1258.9,645.2 1241.8,645.2 1224.6,645.2 L1224.6,645.2 Z" id="Shape" fill="#FCE16D"></path>
            <path d="M1158.2,957.5 C1158.2,974.7 1158.1,991.8 1158.3,1009 C1158.3,1012.3 1157.8,1013.6 1154.1,1013.6 C1119.1,1013.5 1084.2,1013.5 1049.2,1013.6 C1045.9,1013.6 1045,1012.8 1045.1,1009.5 C1045.2,974.5 1045.2,939.6 1045.1,904.6 C1045.1,901.2 1046.1,900.5 1049.3,900.5 C1084.3,900.6 1119.2,900.6 1154.2,900.5 C1158,900.5 1158.4,901.9 1158.4,905.1 C1158.1,922.5 1158.2,940 1158.2,957.5 L1158.2,957.5 Z" id="Shape" fill="#7C1B15"></path>
            <path d="M733.1,1013.4 C716,1013.4 698.8,1013.3 681.7,1013.5 C678.2,1013.5 676.8,1012.9 676.8,1008.9 C677,974.3 677,939.6 676.8,905 C676.8,901.1 678.1,900.4 681.6,900.4 C716.1,900.5 750.5,900.5 785,900.4 C789,900.4 790,901.6 790,905.5 C789.9,939.8 789.8,974.1 790,1008.4 C790,1012.8 788.5,1013.5 784.6,1013.5 C767.4,1013.3 750.2,1013.4 733.1,1013.4 L733.1,1013.4 Z" id="Shape" fill="#E95326"></path>
            <path d="M922.2,956.5 C922.2,939.3 922.3,922.2 922.1,905 C922.1,901.6 922.9,900.4 926.5,900.4 C961.3,900.5 996.1,900.5 1030.9,900.4 C1034.2,900.4 1035.6,901 1035.5,904.7 C1035.4,939.5 1035.4,974.3 1035.5,1009.1 C1035.5,1012.2 1034.8,1013.4 1031.4,1013.4 C996.4,1013.3 961.4,1013.3 926.5,1013.4 C922.9,1013.4 922.1,1012.2 922.1,1008.8 C922.2,991.5 922.2,974 922.2,956.5 L922.2,956.5 Z" id="Shape" fill="#C41531"></path>
            <path d="M1960.8,400 C1943.7,400 1926.5,399.9 1909.4,400.1 C1905.7,400.1 1904.6,399.2 1904.6,395.4 C1904.7,360.8 1904.7,326.1 1904.6,291.5 C1904.6,288.1 1905.4,286.9 1909,287 C1943.6,287.1 1978.3,287.1 2012.9,287 C2016.4,287 2017.4,287.9 2017.4,291.5 C2017.3,326.3 2017.3,361.1 2017.4,395.9 C2017.4,399.7 2015.9,400.2 2012.7,400.2 C1995.4,399.9 1978.1,400 1960.8,400 L1960.8,400 Z" id="Shape" fill="#F49A4B"></path>
            <path d="M2017.2,956.8 C2017.2,974 2017.1,991.1 2017.3,1008.3 C2017.3,1012.3 2016.1,1013.4 2012.2,1013.4 C1978.1,1013.3 1943.9,1013.3 1909.8,1013.4 C1905.9,1013.4 1904.7,1012.3 1904.7,1008.3 C1904.8,973.8 1904.8,939.3 1904.7,904.9 C1904.7,901.1 1905.9,900.1 1909.5,900.1 C1943.8,900.2 1978.1,900.2 2012.4,900.1 C2016.1,900.1 2017.3,901.1 2017.2,904.9 C2017.1,922.1 2017.2,939.5 2017.2,956.8 L2017.2,956.8 Z" id="Shape" fill="#FCE16D"></path>
            <path d="M2017.2,166.1 L2017.5,274 C2017.5,276.5 2016.5,277 2014.2,277 C1978.7,276.9 1943.3,276.9 1907.8,277 C1905.1,277 1904.5,276 1904.5,273.5 C1904.6,238.2 1904.6,202.9 1904.5,167.6 C1904.5,164.8 1905.2,163.9 1908.1,163.9 C1940.7,164.1 1973.4,164.1 2006,164.2 C2009.8,164.8 2013.5,165.5 2017.2,166.1 L2017.2,166.1 Z" id="Shape" fill="#E95326"></path>
            <path d="M912.2,957.5 C912.2,974.5 912.1,991.5 912.3,1008.5 C912.3,1012.2 911.2,1013.3 907.5,1013.3 C873.2,1013.2 838.9,1013.2 804.5,1013.3 C800.8,1013.3 799.7,1012.2 799.7,1008.5 C799.8,974.2 799.8,939.9 799.7,905.5 C799.7,901.8 800.8,900.7 804.5,900.7 C838.8,900.8 873.1,900.8 907.5,900.7 C911.2,900.7 912.4,901.8 912.3,905.5 C912.1,922.9 912.2,940.2 912.2,957.5 L912.2,957.5 Z" id="Shape" fill="#FCE16D"></path>
            <path d="M354.5,1394.1 C354.5,1367.1 354.6,1340.1 354.4,1313.2 C354.4,1309.5 355.1,1308 359.3,1308.1 C383.7,1309 408.3,1306.2 432.6,1310 C460.8,1314.4 476.1,1334.2 475.2,1364 C474.3,1392.4 457.2,1411.3 429.6,1414 C418.9,1415.1 408,1415.4 397.2,1415.7 C393.6,1415.8 392.8,1416.8 392.8,1420.2 C392.9,1438.7 392.8,1457.2 392.9,1475.7 C392.9,1479.1 392.1,1480.3 388.5,1480.2 C378.7,1480 368.8,1479.9 359,1480.2 C355.2,1480.3 354.3,1479.2 354.3,1475.5 C354.5,1448.4 354.5,1421.2 354.5,1394.1 L354.5,1394.1 Z M392.8,1361.8 C392.8,1369.1 392.9,1376.4 392.8,1383.8 C392.8,1386 393.1,1387.2 395.7,1387.1 C403,1386.7 410.4,1386.9 417.6,1386 C428.4,1384.7 435.1,1375.4 435.5,1362.5 C436,1347.4 431.4,1340.4 419.3,1337.9 C411.9,1336.4 404.4,1337.3 396.9,1336.9 C393.7,1336.7 392.6,1337.6 392.7,1341 C393,1347.8 392.8,1354.8 392.8,1361.8 L392.8,1361.8 Z" id="Shape" fill="#C51632"></path>
            <path d="M856.3,1023.2 C873.5,1023.2 890.6,1023.3 907.8,1023.1 C911.4,1023.1 912.6,1023.9 912.6,1027.8 C912.5,1060.8 912.4,1093.8 912.6,1126.7 C912.6,1130.6 911.4,1131.7 907.6,1132.1 C873.4,1135.4 839.2,1135.7 804.9,1133.1 C800.5,1132.8 799.4,1131.4 799.4,1127.1 C799.6,1094.3 799.6,1061.5 799.4,1028.7 C799.4,1023.9 801,1023 805.3,1023.1 C822.3,1023.3 839.3,1023.2 856.3,1023.2 L856.3,1023.2 Z" id="Shape" fill="#C41632"></path>
            <path d="M302.1,387.8 C329.7,390.6 357.4,393.4 385,396 C387.9,396.3 388.1,397.6 387.8,399.9 C384.1,434.6 380.3,469.3 376.7,504.1 C376.4,507.3 375.3,508.2 372.1,507.9 C337,504.2 302,500.5 266.9,497 C263,496.6 263.9,494.4 264.1,492.2 C267.3,462.6 270.5,433 273.6,403.4 C273.9,400.9 274,398.4 274.2,395.9 L286.8,398.6 C300.8,401.9 300.8,401.9 302.1,387.8 L302.1,387.8 Z M673.1,564.8 C670.3,583.1 669.5,601.7 671,620.4 C672,632.4 671.7,632.4 659.6,633.9 C630.7,637.5 601.8,641.2 572.9,644.8 C570.9,645.1 569.3,645.6 568.9,642.3 C564.5,606.8 560,571.3 555.4,535.8 C554.8,531.5 558.1,532.6 559.9,532.4 C582,529.5 604.1,526.8 626.3,524 C638.3,522.5 650.4,521.1 662.4,519.3 C666.1,518.8 667.7,519.4 668.1,523.5 C669.5,537.2 671.3,550.9 673.1,564.8 L673.1,564.8 Z M1894.8,220.4 C1894.8,237.9 1894.7,255.4 1894.9,272.9 C1894.9,276.1 1894.2,277.1 1890.8,277.1 C1855.8,277 1820.8,277 1785.9,277.1 C1782.6,277.1 1781.8,276.3 1781.8,273 C1781.9,242.7 1781.9,212.4 1781.8,182.1 C1781.8,179 1782.9,177.9 1785.7,177.1 C1820.2,167.7 1855.2,161.8 1891.2,164 C1894.4,164.2 1895,165.2 1895,168 C1894.8,185.4 1894.8,202.9 1894.8,220.4 L1894.8,220.4 Z" id="Shape" fill="#7C1C16"></path>
            <path d="M553,709.5 L553,660.6 C553,658 552.7,656 556.7,655.9 C588.5,655.4 620.2,654.8 652,654 C656.2,653.9 657.1,655.2 657.3,659.2 C658.1,672.3 659.4,685.5 663.5,698 C668.3,712.7 666.6,727.6 667.3,742.5 C667.7,749.1 667.6,755.8 667.9,762.4 C668,765.2 667.1,766.1 664.2,766.2 C629.3,766.8 594.3,767.4 559.4,768.2 C555.6,768.3 554.7,767 554.7,763.4 C554.9,745.4 554.8,727.5 554.8,709.5 L553,709.5 L553,709.5 Z" id="Shape" fill="#F49A4C"></path>
            <path d="M1961.5,1023.2 C1978.7,1023.2 1995.8,1023.3 2013,1023.1 C2016.4,1023.1 2017.6,1023.9 2017.6,1027.5 C2017.5,1059.1 2017.5,1090.8 2017.6,1122.4 C2017.6,1125.6 2016.4,1126.6 2013.4,1127.1 C1979,1132.5 1944.3,1134.9 1909.5,1135 C1905.5,1135 1904.5,1133.8 1904.5,1129.9 C1904.6,1095.9 1904.7,1062 1904.5,1028 C1904.5,1023.9 1905.8,1023.1 1909.6,1023.1 C1926.9,1023.3 1944.2,1023.2 1961.5,1023.2 L1961.5,1023.2 Z" id="Shape" fill="#C41531"></path>
            <path d="M1838,1023.1 C1855.5,1023.1 1873,1023.2 1890.5,1023 C1894,1023 1895,1024 1895,1027.5 C1894.9,1061.6 1894.9,1095.8 1895,1129.9 C1895,1132.6 1894.7,1134.2 1891.3,1134.1 C1855.3,1132.8 1819.8,1127.3 1784.9,1118.4 C1782.4,1117.8 1781.9,1116.5 1781.9,1114.2 C1782,1085.1 1782,1055.9 1781.9,1026.8 C1781.9,1022.9 1784,1023.1 1786.6,1023.1 C1803.7,1023.2 1820.8,1023.1 1838,1023.1 L1838,1023.1 Z" id="Shape" fill="#F49A4C"></path>
            <path d="M2140.2,834.3 C2140.2,851.5 2140.1,868.6 2140.3,885.8 C2140.3,889.5 2139.7,890.9 2135.5,890.9 C2101,890.7 2066.5,890.7 2032,890.9 C2027.9,890.9 2027.1,889.6 2027.1,885.8 C2027.3,865.6 2027.2,845.5 2027.1,825.3 C2027.1,822.6 2027.6,820.7 2029.9,819 C2044,808.4 2056.1,795.8 2066.7,781.9 C2069.1,778.8 2071.5,777.7 2075.4,777.7 C2095.2,777.9 2115.1,777.9 2134.9,777.7 C2138.9,777.7 2140.3,778.5 2140.2,782.8 C2140,800 2140.2,817.2 2140.2,834.3 L2140.2,834.3 Z" id="Shape" fill="#C41632"></path>
            <path d="M684.1,146 C663.3,142.2 642.7,138.4 622.1,134.6 C608.2,132 594.3,129.4 580.4,127 C576.7,126.4 575.4,125.2 576.2,121.3 C581.2,95 586.1,68.7 590.8,42.3 C591.3,39.4 592.3,38.2 595.4,37.8 C628.1,33.1 661.1,32.1 694.1,33.1 C706.9,33.5 707.3,33.9 705,46.3 C699.2,78.2 693.3,110.1 687.4,142 C687,143.9 687.6,146.9 684.1,146 L684.1,146 Z" id="Shape" fill="#E95326"></path>
            <path d="M1649.2,343.7 C1649.2,361 1649.1,378.4 1649.3,395.7 C1649.3,399.2 1648.4,400.1 1644.9,400.1 C1610.1,400 1575.3,400 1540.5,400.1 C1536.8,400.1 1536.1,399 1536.2,395.6 C1536.4,377.1 1536.3,358.6 1536.2,340.1 C1536.2,337.7 1536.7,335.7 1538.3,333.7 C1551.5,318 1565.6,303.2 1580.6,289.2 C1582.2,287.7 1583.9,286.8 1586.3,286.8 C1606,286.9 1625.6,287 1645.3,286.8 C1648.9,286.8 1649.3,288.1 1649.2,291.1 C1649.1,308.7 1649.2,326.2 1649.2,343.7 L1649.2,343.7 Z" id="Shape" fill="#C41531"></path>
            <path d="M979,277 C961.5,277 944,276.9 926.5,277.1 C923,277.1 922,276.2 922.1,272.7 C922.2,237.9 922.2,203 922.1,168.2 C922.1,164.5 923.4,163.7 926.7,164 C952,166.3 976.6,171.9 1001,178.5 C1011.4,181.3 1021.6,184.9 1032,187.9 C1034.8,188.7 1035.6,190 1035.6,192.8 C1035.5,219.5 1035.5,246.1 1035.6,272.8 C1035.6,276.5 1034.3,277.1 1031,277.1 C1013.7,276.9 996.3,277 979,277 L979,277 Z M2140.2,466.3 C2140.2,483.6 2140.1,501 2140.3,518.3 C2140.3,522.1 2139.2,523 2135.5,522.9 C2115.8,522.7 2096.2,522.7 2076.5,522.9 C2073.3,522.9 2071.5,522 2069.6,519.3 C2058.3,502.9 2045.3,488 2029.5,475.7 C2027.8,474.4 2027,472.9 2027,470.7 C2027.1,451.7 2027.1,432.7 2027,413.7 C2027,410.5 2027.8,409.4 2031.2,409.4 C2066.2,409.5 2101.2,409.5 2136.2,409.4 C2139.7,409.4 2140.2,410.7 2140.2,413.8 C2140.1,431.3 2140.2,448.8 2140.2,466.3 L2140.2,466.3 Z" id="Shape" fill="#C41632"></path>
            <path d="M1593.1,900.6 C1610.3,900.6 1627.4,900.7 1644.6,900.5 C1648.4,900.5 1649.3,901.6 1649.3,905.3 C1649.2,939.8 1649.2,974.3 1649.3,1008.8 C1649.3,1012.4 1648.6,1013.7 1644.7,1013.6 C1626.5,1013.4 1608.4,1013.5 1590.2,1013.5 C1587.8,1013.5 1585.8,1013 1583.9,1011.3 C1567.8,996.8 1552.8,981.2 1538.8,964.7 C1537.1,962.7 1536.2,960.7 1536.2,958 C1536.3,940.3 1536.4,922.7 1536.2,905 C1536.2,901.5 1537.2,900.5 1540.7,900.5 C1558.1,900.6 1575.6,900.6 1593.1,900.6 L1593.1,900.6 Z" id="Shape" fill="#E95326"></path>
            <path d="M789.8,1077.5 C789.8,1094 789.7,1110.5 789.9,1127 C789.9,1130.7 788.7,1131.5 785.4,1131.1 C749.5,1126.7 714.3,1119.2 679.8,1108 C677.5,1107.3 676.8,1106.2 676.8,1103.8 C676.9,1078.1 676.9,1052.5 676.8,1026.8 C676.8,1023.9 677.6,1023.2 680.5,1023.2 C715.7,1023.3 750.8,1023.3 786,1023.2 C789.6,1023.2 790,1024.6 790,1027.6 C789.8,1044.1 789.8,1060.8 789.8,1077.5 L789.8,1077.5 Z M979.1,1023.2 C996.4,1023.2 1013.8,1023.3 1031.1,1023.1 C1034.6,1023.1 1035.6,1024 1035.6,1027.5 C1035.5,1051.5 1035.5,1075.5 1035.6,1099.5 C1035.6,1102.6 1034.5,1103.9 1031.8,1104.8 C997.4,1116.6 962.2,1124.9 926.2,1129.9 C923.3,1130.3 922.1,1129.8 922.1,1126.5 C922.2,1093.3 922.2,1060.2 922.1,1027 C922.1,1023.2 923.8,1023.2 926.6,1023.2 L979.1,1023.2 L979.1,1023.2 Z" id="Shape" fill="#7C1C16"></path>
            <path d="M1715.6,768 C1698.1,768 1680.6,767.9 1663.1,768.1 C1659.9,768.1 1658.8,767.3 1658.9,764 C1659,729 1659,694.1 1658.9,659.1 C1658.9,655.7 1660,655 1663.2,655 C1689.3,655.1 1715.5,655.1 1741.6,655 C1744.7,655 1745.9,655.7 1746,659.1 C1747.3,694.4 1754.9,728.3 1770.8,760 C1773.8,766 1772.5,768.1 1766,768.1 C1749.3,768 1732.4,768 1715.6,768 L1715.6,768 Z" id="Shape" fill="#F49A4B"></path>
            <path d="M1526.7,711.9 C1526.7,729.1 1526.6,746.2 1526.8,763.4 C1526.8,767.1 1525.8,768.2 1522,768.1 C1496.3,767.9 1470.7,768 1445,768.1 C1441.7,768.1 1440.5,767.2 1439.8,763.9 C1432,729.7 1428.5,695 1427.3,660 C1427.2,656.1 1428.3,655 1432.3,655 C1462.1,655.2 1491.9,655.2 1521.8,655 C1525.7,655 1526.9,656 1526.8,660 C1526.5,677.2 1526.7,694.5 1526.7,711.9 L1526.7,711.9 Z" id="Shape" fill="#F49A4C"></path>
            <path d="M1715.3,532.8 C1732.5,532.8 1749.6,532.9 1766.8,532.7 C1770.5,532.7 1771.6,533.3 1769.7,537.1 C1753.8,569.8 1745.9,604.3 1746,640.7 C1746,644.1 1745,645.3 1741.5,645.3 C1715.5,645.2 1689.5,645.2 1663.5,645.3 C1660.1,645.3 1658.9,644.4 1658.9,640.8 C1659,606.3 1659,571.8 1658.9,537.4 C1658.9,533.5 1660.2,532.7 1663.8,532.7 C1681,532.9 1698.1,532.8 1715.3,532.8 L1715.3,532.8 Z" id="Shape" fill="#FCE16D"></path>
            <path d="M2083.4,277 C2066.2,277 2049.1,276.9 2031.9,277.1 C2028.3,277.1 2027,276.4 2027,272.5 C2027.2,239.2 2027.1,205.9 2027,172.6 C2027,169.2 2027.4,168.1 2031.3,168.8 C2067.5,175.8 2102.5,186.6 2136.2,201.7 C2139.1,203 2140.1,204.5 2140.1,207.6 C2140,229.1 2139.9,250.6 2140.1,272.1 C2140.1,276.5 2138.6,277.2 2134.7,277.2 C2117.7,276.9 2100.5,277 2083.4,277 L2083.4,277 Z" id="Shape" fill="#F49A4C"></path>
            <path d="M1526.4,589.5 C1526.4,606.7 1526.3,623.8 1526.5,641 C1526.5,644.5 1525.5,645.5 1522,645.5 C1492,645.4 1462,645.4 1432,645.5 C1428.6,645.5 1427.4,644.7 1427.4,641.1 C1427.6,605.7 1431.8,570.7 1439.2,536.1 C1439.8,533.3 1441.1,532.5 1444,532.5 C1470,532.6 1496,532.6 1522,532.5 C1525.5,532.5 1526.5,533.6 1526.5,537 C1526.4,554.5 1526.4,572 1526.4,589.5 L1526.4,589.5 Z" id="Shape" fill="#E95326"></path>
            <path d="M2206.3,890.9 C2189.1,890.9 2172,890.8 2154.8,891 C2150.8,891.1 2149.8,889.8 2149.9,886 C2150,851.7 2150.1,817.3 2149.9,783 C2149.9,778.7 2151.2,778.1 2155.2,777.8 C2165.7,777 2174.8,779.8 2183.9,785.2 C2208.5,799.8 2233.6,813.6 2258.6,827.5 C2261.7,829.2 2263.1,831.1 2263,834.8 C2262.8,852 2262.8,869.1 2263,886.3 C2263,890 2262,891.1 2258.3,891 C2241,890.8 2223.7,890.9 2206.3,890.9 L2206.3,890.9 Z M302.1,387.8 C300.8,401.9 300.8,401.9 286.9,398.7 C282.7,397.7 278.5,396.9 274.3,396 C241.8,388.3 209.3,380.4 176.8,373.1 C169.3,371.4 168.6,369.5 172,362.8 C182.7,342.3 192.6,321.4 202.7,300.6 C204.2,297.5 205.7,296.8 209.2,297.6 C240.2,304.3 271.3,310.7 302.4,317.1 C306.1,317.9 307.6,319 307.3,323.2 C305.3,344.7 303.8,366.3 302.1,387.8 L302.1,387.8 Z" id="Shape" fill="#F49A4C"></path>
            <path d="M2083.5,1023.2 C2101,1023.2 2118.5,1023.3 2136,1023.1 C2139.2,1023.1 2140.3,1023.8 2140.2,1027.2 C2140,1046.5 2140.1,1065.9 2140.2,1085.2 C2140.2,1087.6 2139.7,1089 2137.2,1090.1 C2103.1,1105.6 2067.6,1116.4 2031.1,1123.9 C2028.1,1124.5 2027.1,1123.8 2027.1,1120.5 C2027.2,1089.3 2027.2,1058.2 2027.1,1027 C2027.1,1023.3 2028.6,1023.1 2031.6,1023.1 C2048.9,1023.2 2066.2,1023.2 2083.5,1023.2 L2083.5,1023.2 Z M461.8,1006.1 C442.6,1003.1 424.1,998.9 405.9,993.8 C391.4,989.7 377.2,984.5 362.9,979.5 C354.5,976.5 348.6,971.9 344.2,963.9 C337,950.6 336.5,950.9 349.6,942.9 C376.1,926.7 402.7,910.6 429.2,894.3 C432.3,892.4 433.6,892.6 435.6,895.8 C453.5,925.5 471.6,955.2 489.8,984.8 C491.5,987.6 491.7,989.1 488.6,990.9 C480.8,995.4 473.2,1000.2 465.6,1004.8 C464.2,1005.5 463,1006.5 461.8,1006.1 L461.8,1006.1 Z" id="Shape" fill="#7C1C16"></path>
            <path d="M1224.3,400 C1207,400 1189.6,399.9 1172.3,400.1 C1168.4,400.2 1167.7,399 1167.7,395.4 C1167.8,360.7 1167.8,326.1 1167.7,291.4 C1167.7,288.1 1168.2,286.5 1172,286.9 C1175.3,287.2 1178.7,287.5 1182,286.9 C1197.8,284.1 1209.1,290.7 1219.8,302 C1237.4,320.7 1254.5,339.7 1270.4,359.9 C1278.2,369.8 1282.4,379.8 1281.3,392.6 C1280.8,398.4 1280.1,400.3 1273.8,400.1 C1257.3,399.6 1240.8,400 1224.3,400 L1224.3,400 Z" id="Shape" fill="#7C1B15"></path>
            <path d="M1035.4,834.6 C1035.4,851.8 1035.3,868.9 1035.5,886.1 C1035.5,889.7 1034.7,891 1030.8,891 C996.1,890.9 961.5,890.9 926.8,891 C923.6,891 922,890.5 922.1,886.7 C922.3,874.4 922.3,862 922.1,849.7 C922.1,846.9 923,845.6 925.5,844.5 C958.7,831.2 985.5,809.7 1006.5,780.9 C1008.2,778.6 1010,777.7 1012.7,777.9 C1020,778.2 1029.6,775.5 1034,779.2 C1038.5,783 1035.2,792.9 1035.3,800.2 C1035.5,811.6 1035.4,823.1 1035.4,834.6 L1035.4,834.6 Z" id="Shape" fill="#F49A4C"></path>
            <path d="M572.9,208 C542.7,238.3 512.9,268.3 483.1,298.3 C478.9,302.6 474.6,306.7 470.4,311 C468.5,313 467.7,313.3 466.5,310.4 C456.1,285.4 445.6,260.5 435,235.6 C434.1,233.4 434.2,232.1 435.9,230.4 C452.9,214 469.8,197.4 486.7,180.9 C487.9,179.7 488.8,178.6 490.9,179.4 C518.1,189 545.4,198.4 572.9,208 L572.9,208 Z" id="Shape" fill="#7C1C16"></path>
            <path d="M987.8,1394.4 C987.8,1367.3 987.9,1340.1 987.7,1313 C987.7,1309 988.9,1308 992.7,1308.1 C1002.4,1308.4 1012,1308.4 1021.7,1308.1 C1025.8,1308 1026.6,1309.4 1026.6,1313.2 C1026.5,1356.3 1026.6,1399.5 1026.4,1442.6 C1026.4,1447.4 1027.8,1448.2 1032.2,1448.2 C1053.8,1448 1075.5,1448.2 1097.2,1448 C1100.9,1448 1102.4,1448.6 1102.2,1452.7 C1101.8,1460.7 1102,1468.7 1102.2,1476.7 C1102.3,1479.5 1101.5,1480.3 1098.6,1480.3 C1063,1480.2 1027.3,1480.2 991.7,1480.3 C987.9,1480.3 987.9,1478.7 987.9,1475.9 C987.9,1448.7 987.8,1421.5 987.8,1394.4 L987.8,1394.4 Z" id="Shape" fill="#1F1F1D"></path>
            <path d="M1167.9,956.9 C1167.9,939.7 1168,922.6 1167.8,905.4 C1167.8,901.7 1168.5,900.2 1172.7,900.2 C1207.2,900.3 1241.7,900.2 1276.1,900 C1280,900 1280.9,901 1281.2,904.9 C1281.7,912.3 1279.5,918.2 1275.1,924.2 C1251.8,956.3 1225.3,985.3 1195.2,1011.2 C1192.6,1013.4 1189.9,1013.7 1186.9,1013.6 C1180.8,1013.4 1172.7,1015.5 1169,1012.5 C1165.1,1009.3 1167.9,1000.9 1167.8,994.8 C1167.7,982.2 1167.9,969.6 1167.9,956.9 L1167.9,956.9 Z M676.9,834 C676.9,816.8 677,799.7 676.8,782.5 C676.8,778.8 677.9,778.1 681.5,777.7 C692.7,776.5 700.3,779.8 707.7,789.4 C727.9,815.7 754.5,834 785.6,845.7 C788.7,846.9 790,848.1 790,851.6 C789.8,863.3 789.8,874.9 790,886.6 C790,889.9 789.1,890.9 785.8,890.9 C751,890.8 716.2,890.8 681.4,890.9 C677.9,890.9 676.9,889.9 676.9,886.4 L676.9,834 L676.9,834 Z" id="Shape" fill="#F49A4C"></path>
            <path d="M979,409.9 C996,409.9 1013,410.1 1029.9,409.8 C1034.4,409.7 1035.4,411.2 1035.4,415.4 C1035.2,449.4 1035.2,483.3 1035.4,517.3 C1035.4,522.1 1033.7,522.5 1029.5,523.1 C1017.2,524.8 1009.7,520.1 1002.3,509.8 C982.9,482.8 956.9,463.2 926.1,450.4 C922.9,449.1 921.9,447.5 922,444.2 C922.2,434.2 922.2,424.2 922,414.2 C921.9,410.7 923.1,409.7 926.5,409.7 C944.1,409.9 961.6,409.9 979,409.9 L979,409.9 Z" id="Shape" fill="#F49A4B"></path>
            <path d="M2207,409.3 C2224,409.3 2241,409.4 2257.9,409.2 C2261.6,409.2 2263.2,409.8 2263,414.1 C2262.7,425.6 2262.8,437.1 2263,448.6 C2263,451.5 2262.1,453.1 2259.6,454.5 C2224.2,475.1 2188.9,495.7 2153.7,516.5 C2149.9,518.8 2149.9,517.1 2149.9,514 C2150,480.7 2150,447.4 2149.9,414.1 C2149.9,410.4 2150.8,409.3 2154.6,409.3 C2172.1,409.4 2189.6,409.3 2207,409.3 L2207,409.3 Z" id="Shape" fill="#F49A4C"></path>
            <path d="M1715.5,277 C1698.3,277 1681.2,276.9 1664,277.1 C1660.3,277.1 1658.8,276.5 1658.9,272.3 C1659.2,259.7 1659.1,247 1659,234.3 C1659,231.6 1659.9,230.1 1662.2,228.8 C1695.7,209 1731.2,193.6 1768.3,182 C1771.5,181 1772.2,181.6 1772.2,184.9 C1772.1,214.2 1772.1,243.5 1772.2,272.8 C1772.2,276.6 1770.7,277 1767.5,277 C1750.1,276.9 1732.8,277 1715.5,277 L1715.5,277 Z" id="Shape" fill="#F49A4B"></path>
            <path d="M686.8,404.3 C721.2,408 755.8,411.7 790.4,415.3 C794.2,415.7 795.8,416.6 795.1,420.9 C793.7,430.1 792.8,439.4 792.1,448.7 C791.9,451.4 790.6,452 788.5,452.5 C748,462.3 715,484 688.2,515.8 C684,520.8 677.8,516.7 672.8,516.1 C669.4,515.7 671.8,511.9 672,509.8 C675.5,475.9 679.2,442 682.9,408 C683.1,405.5 683.1,403.1 686.8,404.3 L686.8,404.3 Z" id="Shape" fill="#C41632"></path>
            <path d="M395.9,718.1 C405.8,717.1 415.6,715.7 425.5,715.1 C429.9,714.8 430.1,713.1 429.7,709.5 C428.3,698 427.3,686.5 426.1,675 C445.8,676.7 465.5,678.4 485.2,679.9 C488.1,680.1 489.3,680.9 489.3,684 C489.2,707.2 489.1,730.3 489.2,753.5 C489.2,756 488.4,757.3 486,758.3 C456.5,771 427,783.8 397.6,796.7 C393.6,798.5 393,797.4 393.1,793.4 C394.1,768.3 395,743.2 395.9,718.1 L395.9,718.1 Z" id="Shape" fill="#FCE16D"></path>
            <path d="M1715.4,1023.2 C1732.9,1023.2 1750.4,1023.3 1767.9,1023.1 C1771.2,1023.1 1772.1,1023.9 1772.1,1027.2 C1772,1055.2 1772,1083.2 1772.1,1111.2 C1772.1,1114.6 1771.3,1114.9 1768.3,1114 C1731.1,1102.8 1695.6,1087.5 1661.9,1068 C1659.8,1066.8 1658.9,1065.4 1659,1062.9 C1659.1,1050.9 1659.2,1038.9 1659,1026.9 C1658.9,1023.7 1660.1,1023.1 1663,1023.1 C1680.4,1023.2 1697.9,1023.2 1715.4,1023.2 L1715.4,1023.2 Z M197.6,223.9 C166.1,220.1 134.8,216.3 103.4,212.5 C95,211.5 86.6,210.3 78.1,209.5 C75.1,209.2 74.7,208.1 75.4,205.4 C76.9,199.4 78.3,193.4 79.3,187.4 C80.1,182.5 82.5,179 86.1,175.7 C104.8,158.4 127.8,147.8 149.1,134.6 C150.5,133.7 152,133.9 153.4,134.1 C162.6,135.6 171.8,137.3 181,138.5 C184.3,138.9 185.3,140.5 185.9,143.4 C190.6,169.1 195.4,194.7 200.3,220.4 C200.7,222.9 201.1,224.8 197.6,223.9 L197.6,223.9 Z" id="Shape" fill="#7C1C16"></path>
            <path d="M152,778.5 C124.5,777.7 97.3,774.8 70.3,769.3 C67,768.6 66.8,767.7 67.7,764.8 C74.1,743.1 80.3,721.4 86.4,699.7 C87.3,696.4 88.5,695.5 91.9,696.3 C124,703.6 156.1,710.8 188.2,717.8 C191.7,718.6 192.5,719.5 191.4,723 C186.3,740 181.5,757.1 176.7,774.2 C175.9,777.1 174.9,778.7 171.4,778.6 C165,778.3 158.5,778.6 152,778.5 L152,778.5 Z" id="Shape" fill="#C41632"></path>
            <path d="M1290.8,589 C1290.8,571.7 1290.9,554.4 1290.7,537 C1290.7,533.2 1291.7,532.3 1295.4,532.4 C1312.4,532.6 1329.4,532.6 1346.4,532.4 C1349.4,532.4 1350.6,533.2 1351.4,536.3 C1359.2,570.7 1363.1,605.5 1363.6,640.7 C1363.7,644.9 1362.2,645.6 1358.5,645.6 C1337.7,645.4 1316.9,645.4 1296,645.6 C1292,645.6 1290.6,644.8 1290.7,640.5 C1291,623.3 1290.8,606.2 1290.8,589 L1290.8,589 Z" id="Shape" fill="#7C1B15"></path>
            <path d="M1290.9,711.2 C1290.9,694.1 1291,676.9 1290.8,659.8 C1290.8,656.3 1291.4,654.9 1295.4,654.9 C1316.5,655.1 1337.7,655.1 1358.8,654.9 C1362.3,654.9 1363.3,655.9 1363.2,659.4 C1362.3,694.9 1357.6,729.9 1349.1,764.4 C1348.4,767.3 1347.1,768 1344.3,768 C1328.2,767.9 1312,767.8 1295.9,768 C1292,768 1290.8,767.1 1290.9,763.1 C1291,745.9 1290.9,728.5 1290.9,711.2 L1290.9,711.2 Z" id="Shape" fill="#F49A4B"></path>
            <path d="M1526.7,466.2 C1526.7,483.4 1526.6,500.5 1526.8,517.7 C1526.8,521.3 1526.2,523 1521.9,523 C1497.1,522.8 1472.2,522.8 1447.4,523 C1443.6,523 1442.4,522.3 1443.5,518.2 C1453.2,481.7 1466.8,446.7 1484.4,413.3 C1485.9,410.4 1487.6,409.2 1491,409.3 C1501.3,409.5 1511.7,409.5 1522,409.3 C1525.9,409.2 1526.8,410.6 1526.7,414.2 C1526.6,431.5 1526.6,448.9 1526.7,466.2 L1526.7,466.2 Z" id="Shape" fill="#F49A4C"></path>
            <path d="M1781.8,778.8 C1796.6,800.6 1813.8,817.7 1835,830.6 C1852,840.8 1870.2,847.9 1889.7,851 C1893.8,851.7 1895,853.2 1894.9,857.3 C1894.5,866.8 1894.6,876.3 1894.9,885.8 C1895,889.5 1894.3,890.9 1890.1,890.9 C1855.5,890.7 1820.8,890.8 1786.2,890.8 C1783.8,890.8 1781.8,891.1 1781.8,887.4 C1781.9,851.8 1781.8,816.2 1781.8,778.8 L1781.8,778.8 Z M1526.5,834.3 C1526.5,851.6 1526.4,869 1526.6,886.3 C1526.6,890.1 1525.5,891.1 1521.8,891 C1511.6,890.8 1501.5,890.8 1491.3,891 C1488.6,891 1487.2,890.1 1485.9,887.8 C1467.7,854.2 1453.9,818.8 1444,781.9 C1443,778.3 1444.1,777.9 1447.3,777.9 C1472.3,778 1497.3,778 1522.3,777.9 C1526,777.9 1526.6,779 1526.6,782.4 C1526.4,799.6 1526.5,816.9 1526.5,834.3 L1526.5,834.3 Z" id="Shape" fill="#7C1C16"></path>
            <path d="M155.7,664 C154.8,663.1 154,662.2 153.3,661.4 C132.8,638.9 118.1,612.7 103.9,586.1 C102.8,584 103.2,582.9 104.9,581.5 C119.3,569.2 133.7,556.8 148,544.3 C150.2,542.4 151.3,543.2 152.8,544.9 C172.3,567.2 191.9,589.4 211.5,611.7 C213.2,613.6 213.4,614.6 211.3,616.4 C193.4,631.6 175.7,647 157.9,662.3 C157.2,662.9 156.6,663.3 155.7,664 L155.7,664 Z" id="Shape" fill="#E95427"></path>
            <path d="M1781.9,515.8 L1781.9,510.4 C1781.9,478.4 1782,446.5 1781.8,414.5 C1781.8,410.3 1783,409.2 1787.1,409.3 C1821.2,409.5 1855.4,409.5 1889.5,409.3 C1894,409.3 1895.2,410.6 1895,415 C1894.7,422.8 1894.8,430.6 1894.9,438.5 C1894.9,440.9 1894.3,442 1891.8,442.5 C1845.2,450.7 1809.5,475.7 1781.9,515.8 L1781.9,515.8 Z" id="Shape" fill="#F49A4C"></path>
            <path d="M1101.2,277 C1083.7,277 1066.2,276.9 1048.7,277.1 C1045.6,277.1 1044.8,276.3 1044.9,273.2 C1045,247.7 1045,222.2 1044.9,196.7 C1044.9,193.6 1045.2,192.6 1048.6,193.9 C1086.5,208.4 1122.3,226.9 1155.7,249.9 C1157.6,251.2 1158.2,252.7 1158.1,254.8 C1157.9,262 1160.7,271.4 1157.1,275.6 C1153.5,280 1143.7,276.7 1136.6,276.8 C1124.9,277.2 1113.1,277 1101.2,277 L1101.2,277 Z" id="Shape" fill="#7C1C16"></path>
            <path d="M610.8,1023.2 C627.9,1023.2 645.1,1023.3 662.2,1023.1 C665.7,1023.1 667.1,1023.7 667.1,1027.6 C666.9,1051.4 666.9,1075.2 667.1,1099 C667.1,1103.2 665.9,1103.1 662.6,1101.9 C626.2,1088.4 591.6,1071.1 559,1050 C555.2,1047.6 553.8,1045 553.8,1040.5 C554.1,1023.2 553.9,1023.2 571.3,1023.2 L610.8,1023.2 L610.8,1023.2 Z" id="Shape" fill="#E95427"></path>
            <path d="M1101.7,1023.1 C1119,1023.1 1136.3,1023.2 1153.7,1023 C1157.2,1023 1157.9,1024 1158.3,1027.4 C1159.5,1036.6 1156,1041.9 1148.1,1047 C1117.2,1067 1084.9,1083.9 1050.8,1097.6 C1046.3,1099.4 1044.9,1099.1 1045,1093.7 C1045.3,1071.9 1045.2,1050.1 1045,1028.2 C1045,1024.2 1045.9,1022.8 1050.2,1022.8 C1067.4,1023.3 1084.5,1023.1 1101.7,1023.1 L1101.7,1023.1 Z" id="Shape" fill="#F49A4C"></path>
            <path d="M2017.6,827.8 L2017.6,887.6 C2017.6,890.4 2016.3,890.8 2013.9,890.8 C1978.6,890.7 1943.3,890.7 1908,890.8 C1905,890.8 1904.3,889.7 1904.4,887 C1904.5,876.8 1904.5,866.7 1904.4,856.5 C1904.4,854.1 1904.9,852.9 1907.8,853.1 C1946.6,856 1983.2,848.7 2017.6,827.8 L2017.6,827.8 Z" id="Shape" fill="#E95427"></path>
            <path d="M357.8,886.7 C320.1,883.8 282.9,876.4 246.5,864.5 C242.8,863.3 242.2,862.3 244.6,859 C254.8,844.4 264.8,829.7 274.6,814.9 C276.6,811.8 277.9,812 280.7,813.9 C309.5,833.6 338.4,853.2 367.4,872.7 C370.2,874.6 370.8,876 368.3,878.4 C365.1,881.4 365.1,888.2 357.8,886.7 L357.8,886.7 Z" id="Shape" fill="#7C1C16"></path>
            <path d="M1290.8,466.1 C1290.8,449.4 1290.7,432.8 1290.9,416.1 C1290.9,414.1 1288.9,410.2 1292.8,410.1 C1296.8,410 1301.5,407.6 1304.6,413.3 C1322.1,445.4 1335.9,479 1345.8,514.2 C1348.2,522.9 1348.2,522.9 1339.2,522.9 C1324.9,522.9 1310.5,522.7 1296.2,523 C1291.9,523.1 1290.5,522.2 1290.6,517.6 C1291,500.4 1290.8,483.2 1290.8,466.1 L1290.8,466.1 Z" id="Shape" fill="#E95427"></path>
            <path d="M1961.3,409.5 C1978.3,409.5 1995.3,409.6 2012.2,409.4 C2016.2,409.3 2017.6,410.2 2017.6,414.5 C2017.3,430.5 2017.4,446.5 2017.5,462.4 C2017.5,465.7 2017,466.6 2013.8,464.6 C1981.7,444.7 1946.4,438.2 1909.2,440.2 C1905.4,440.4 1904.3,439.7 1904.4,435.8 C1904.7,428.7 1904.7,421.5 1904.4,414.3 C1904.2,410.4 1905.3,409.2 1909.3,409.3 C1926.7,409.6 1944,409.5 1961.3,409.5 L1961.3,409.5 Z" id="Shape" fill="#7C1C16"></path>
            <path d="M2272.9,298.6 C2290.5,317.1 2305.7,335.8 2319.5,355.7 C2328.5,368.6 2336.7,381.8 2344.6,395.3 C2346.5,398.6 2347.2,400.1 2342.1,400 C2320.4,399.8 2298.8,399.9 2277.1,399.9 C2275,399.9 2272.8,400.4 2272.8,396.9 C2272.9,364.7 2272.9,332.4 2272.9,298.6 L2272.9,298.6 Z" id="Shape" fill="#F49A4B"></path>
            <path d="M856,890.8 C838.8,890.8 821.7,890.7 804.5,890.9 C800.8,890.9 799.2,890.2 799.3,886 C799.6,875.5 799.5,865 799.4,854.5 C799.4,851.4 800,850.4 803.4,851.3 C838.5,860.4 873.5,860.2 908.4,850.3 C911.9,849.3 912.7,850.2 912.7,853.6 C912.5,864.6 912.5,875.6 912.7,886.6 C912.8,890.3 911.3,890.9 908,890.9 C890.6,890.8 873.3,890.8 856,890.8 L856,890.8 Z" id="Shape" fill="#E95427"></path>
            <path d="M2250.8,277 L2153.2,277 C2150.9,277 2150,276.4 2150,274 C2150.1,253.2 2150.1,232.4 2150,211.6 C2150,208.8 2150.8,208.6 2153.1,209.8 C2188.4,227.5 2220.5,249.6 2250.8,277 L2250.8,277 Z" id="Shape" fill="#C41632"></path>
            <path d="M1290.8,835 C1290.8,817.5 1290.9,800 1290.7,782.5 C1290.7,779 1291.2,777.6 1295.2,777.7 C1310.3,778 1325.5,777.9 1340.7,777.7 C1344.1,777.7 1345.3,777.9 1344.1,781.9 C1333,819.5 1317.4,855.2 1297.7,889 C1296.5,891.1 1295.2,893.1 1292.4,892.3 C1289.4,891.5 1290.9,888.9 1290.9,887.3 C1290.8,869.9 1290.8,852.5 1290.8,835 L1290.8,835 Z M2272.8,993.2 L2272.8,965.5 C2272.8,945.2 2272.9,924.9 2272.7,904.6 C2272.7,901.1 2273.6,900.1 2277.1,900.2 C2298.1,900.4 2319,900.3 2340,900.3 C2342.6,900.3 2344.8,899.8 2342.4,903.7 C2322.7,935.4 2300.3,965.1 2274.5,992.2 C2274.3,992.3 2273.8,992.5 2272.8,993.2 L2272.8,993.2 Z" id="Shape" fill="#7C1C16"></path>
            <path d="M856.1,409.9 C873.1,409.9 890.1,410 907,409.8 C911.2,409.7 912.4,411.1 912.3,415.2 C912,423.8 912.1,432.5 912.3,441.2 C912.4,444.6 911.4,445 908.3,444.1 C873.9,434 839.3,433.2 804.4,441.5 C800.7,442.4 799.6,441.7 799.7,437.9 C799.9,430.2 799.9,422.6 799.7,414.9 C799.6,411 800.7,409.7 804.7,409.8 C821.8,410 839,409.9 856.1,409.9 L856.1,409.9 Z" id="Shape" fill="#FCE16D"></path>
            <path d="M2241.8,1023.2 C2213.7,1047.3 2184.5,1066.8 2152.8,1082.7 C2150.1,1084.1 2149.9,1083 2149.9,1080.6 C2150,1062.6 2149.9,1044.7 2149.9,1026.7 C2149.9,1024.8 2149.7,1023.1 2152.6,1023.2 L2241.8,1023.2 L2241.8,1023.2 Z" id="Shape" fill="#C51632"></path>
            <path d="M2335.4,409.5 C2333.8,410.8 2333.2,411.4 2332.4,411.8 C2313.8,422.7 2295.1,433.6 2276.5,444.6 C2273.5,446.4 2272.7,446.2 2272.8,442.6 C2273,432.8 2273,423 2272.8,413.1 C2272.8,410.2 2273.7,409.4 2276.5,409.5 L2335.4,409.5 L2335.4,409.5 Z M481.9,80.8 C501.3,72.1 520.4,65.2 539.5,58.4 C542.4,57.4 542.2,58.9 541.8,60.8 C539.6,72 537.4,83.2 535.3,94.5 C534.9,96.4 534.6,97.7 532.3,96.9 C515.7,91.6 499.2,86.3 481.9,80.8 L481.9,80.8 Z M2108.5,768 C2099.4,768 2090.2,767.9 2081.1,768 C2078.3,768 2077.5,767.7 2079.3,764.9 C2084.8,756.4 2090.2,747.8 2095.3,739.1 C2096.8,736.5 2098,736.6 2100.3,737.9 C2112.7,745 2125.1,752.1 2137.6,758.9 C2141.1,760.8 2140.3,763.5 2140.2,766.1 C2140,769.5 2137.1,767.8 2135.5,767.8 C2126.4,768.1 2117.5,768 2108.5,768 L2108.5,768 Z M1594.5,277 C1612.3,262 1629.8,248.9 1649.1,236.8 L1649.1,274.7 C1649.1,276.4 1648.6,277.1 1646.8,277.1 C1629.9,277 1612.8,277 1594.5,277 L1594.5,277 Z M1526.5,348.4 L1526.5,399.4 C1526.5,401.5 1525.3,401.8 1523.6,401.8 C1513.9,401.8 1504.3,401.7 1494.6,401.8 C1492.1,401.8 1491.2,401.4 1492.7,398.8 C1502.6,381.8 1513.4,365.5 1526.5,348.4 L1526.5,348.4 Z" id="Shape" fill="#7C1C16"></path>
            <path d="M1597.8,1023.1 C1614.6,1023.1 1629.9,1023.2 1645.2,1023 C1648.3,1023 1649.2,1024 1649.2,1027 C1649,1036.8 1649.1,1046.6 1649.1,1056.5 C1649.1,1058.5 1649.3,1060.4 1646.3,1058.5 C1629.8,1048 1614,1036.5 1597.8,1023.1 L1597.8,1023.1 Z M1526.7,949.9 C1514.3,934 1504.3,918.8 1494.9,903.1 C1493.6,900.9 1494.3,900.2 1496.7,900.2 L1523.6,900.2 C1525.6,900.2 1526.7,900.8 1526.7,903 C1526.6,918 1526.7,933 1526.7,949.9 L1526.7,949.9 Z" id="Shape" fill="#F49A4C"></path>
            <path d="M2126.3,532.5 C2114,539.7 2103.2,545.8 2092.6,552.3 C2089.9,553.9 2089.5,552.1 2088.6,550.6 C2085.8,545.7 2083.2,540.7 2080.2,535.9 C2078.1,532.6 2079.7,532.5 2082.4,532.5 L2126.3,532.5 L2126.3,532.5 Z" id="Shape" fill="#7C1C16"></path>
            <path d="M311,211 C304,220.8 294.3,228.1 286.4,237 C285.1,238.5 284,237.6 283,236.8 C277.1,232.5 271.2,228.1 264.3,223.1 C280.5,218.7 295.4,213.6 311,211 L311,211 Z" id="Shape" fill="#F49A4C"></path>
            <path d="M1035.6,727.4 L1035.6,764.7 C1035.6,765.8 1036,767.6 1034.6,767.7 C1028.6,767.9 1022.6,768 1016.7,767.7 C1015.4,767.6 1016.3,766.1 1016.8,765.4 C1023.9,753.2 1029.9,740.5 1035.6,727.4 L1035.6,727.4 Z" id="Shape" fill="#E95427"></path>
            <path d="M284,961 C270.5,954.1 258.3,945.2 244.5,936.9 L274.1,936.9 C275.3,936.9 276,937.5 276.3,938.5 C278.8,946.1 282.8,953.1 284,961 L284,961 Z" id="Shape" fill="#F49A4C"></path>
            <path d="M1035.5,568.6 C1030.3,557.2 1025.5,545.8 1019.3,535 C1018.1,532.9 1018.9,532.4 1021,532.5 L1021.5,532.5 C1035.6,531.7 1035.6,531.7 1035.6,545.7 C1035.5,553.3 1035.5,560.9 1035.5,568.6 L1035.5,568.6 Z" id="Shape" fill="#7C1C16"></path>
            <path d="M1191.4,277 L1182.9,277 C1165.9,277 1165.9,277 1168.3,258.9 C1172.2,261.9 1175.9,264.6 1179.5,267.4 C1183.2,270.3 1186.7,273.2 1191.4,277 L1191.4,277 Z" id="Shape" fill="#E95427"></path>
            <path d="M676.8,740.8 C681.6,749.7 685.8,757.4 689.9,765.1 C690.3,765.8 690.8,767.2 690.8,767.2 C687.1,768.9 683.1,767.5 679.3,768 C677.3,768.2 676.8,767.2 676.8,765.4 C676.9,757.6 676.8,749.8 676.8,740.8 L676.8,740.8 Z M522,1023.2 C529.6,1023.2 535.6,1023.3 541.5,1023.2 C545.3,1023.1 544.2,1025.8 544.2,1027.7 C544.2,1031.4 543.9,1035.2 543.7,1038.9 C539.9,1037.8 537.4,1034.9 534.4,1032.7 C530.5,1030 527,1027 522,1023.2 L522,1023.2 Z M676.8,551.5 C676.8,545.1 676.9,540.5 676.8,535.9 C676.7,533.4 677.3,532.1 680.1,532.5 C682,532.8 683.9,532.9 685.8,533.1 C685.1,534.7 684.4,536.3 683.6,537.9 C681.5,542 679.5,546.1 676.8,551.5 L676.8,551.5 Z M1180.8,1023.2 C1176.3,1026.6 1173.1,1029.1 1169.9,1031.4 C1169.5,1031.7 1168.7,1031.6 1168.1,1031.7 C1168,1029.6 1167.9,1027.4 1167.9,1025.3 C1167.8,1023.9 1168.4,1023.2 1169.9,1023.2 L1180.8,1023.2 L1180.8,1023.2 Z M1290.8,390 C1293,393.6 1294.5,396 1295.8,398.4 C1296.3,399.3 1296.4,400.5 1296.7,401.6 C1295.4,401.7 1294.1,401.7 1292.7,401.8 C1291.2,401.9 1290.7,401.1 1290.7,399.7 C1290.9,397 1290.8,394.2 1290.8,390 L1290.8,390 Z M2017.2,166.1 C2013.5,165.5 2009.8,164.8 2006.1,164.2 C2009.8,164.8 2014.1,161.8 2017.2,166.1 L2017.2,166.1 Z" id="Shape" fill="#7C1C16"></path>
            <path d="M311,211 C311.1,210.8 311.3,210.7 311.4,210.5 C311.4,210.6 311.4,210.8 311.3,210.8 C311.3,210.9 311.1,210.9 311,211 L311,211 Z M284,961 C284.2,961.1 284.3,961.2 284.5,961.3 L284.2,961.3 C284.1,961.2 284.1,961.1 284,961 L284,961 Z" id="Shape" fill="#F49A4C"></path>
        </g>
    </g>
</svg>