<?xml version="1.0" encoding="UTF-8"?> <svg xmlns="http://www.w3.org/2000/svg" xmlns:xlink="http://www.w3.org/1999/xlink" width="501px" height="107px" viewBox="0 0 501 107"> <!-- Generator: Sketch 49.2 (51160) - http://www.bohemiancoding.com/sketch --> <title>technicis</title> <desc>Created with Sketch.</desc> <defs></defs> <g id="Page-1" stroke="none" stroke-width="1" fill="none" fill-rule="evenodd"> <g id="technicis"> <g transform="translate(0.000000, 0.843000)"> <polygon id="Fill-1" fill="#000000" points="0 5.9209 0 17.4069 16.758 17.4069 16.758 69.9409 29.75 69.9409 29.75 17.4069 46.508 17.4069 46.508 5.9209"></polygon> <path d="M58.3696,41.4141 L76.9166,41.4141 C77.6696,36.0481 76.2576,31.3401 68.7246,31.3401 C61.8526,31.3401 58.9336,35.2941 58.3696,41.4141 Z M58.3696,48.9451 C58.7466,56.1011 62.6996,60.8091 71.3616,60.8091 C75.4106,60.8091 80.0226,60.7141 85.9546,58.9251 L87.4616,68.7171 C81.2466,70.4111 75.7866,70.8821 69.6666,70.8821 C51.4966,70.8821 45.1886,61.1851 45.1886,46.4031 C45.1886,31.6231 51.4966,21.9261 69.3856,21.9261 C89.3446,21.9261 90.7566,35.3891 88.7786,48.9451 L58.3696,48.9451 Z" id="Fill-2" fill="#000000"></path> <path d="M119.2798,21.9258 C125.2118,21.9258 130.1058,22.7728 135.7558,24.1858 L133.5908,33.8818 C125.7758,31.9988 122.7628,31.9988 119.2798,31.9988 C112.2188,31.9988 107.9818,36.8008 107.9818,46.4038 C107.9818,55.7248 111.8428,60.8088 119.2798,60.8088 C122.7628,60.8088 125.7758,60.8088 133.5908,58.9248 L135.7558,68.7168 C130.1058,70.0338 125.2118,70.8818 119.2798,70.8818 C101.0148,70.8818 95.0848,61.1848 95.0848,46.4038 C95.0848,31.6228 101.0148,21.9258 119.2798,21.9258" id="Fill-4" fill="#000000"></path> <path d="M141.1187,69.9404 L141.1187,4.0374 L153.3577,4.0374 L153.3577,28.9864 L153.5457,28.9864 C157.5947,24.6564 162.7717,21.9254 168.8917,21.9254 C178.3067,21.9254 183.0147,28.0444 183.0147,37.7424 L183.0147,69.9404 L170.7747,69.9404 L170.7747,40.5664 C170.7747,35.6704 168.3267,32.0934 163.2427,32.0934 C159.3837,32.0934 155.7117,34.1654 153.3577,35.7654 L153.3577,69.9404 L141.1187,69.9404 Z" id="Fill-6" fill="#000000"></path> <path d="M191.0142,69.9404 L191.0142,22.8674 L203.2522,22.8674 L203.2522,28.9864 L203.4412,28.9864 C207.4892,24.6564 212.6672,21.9254 218.7872,21.9254 C228.2022,21.9254 232.9092,28.0444 232.9092,37.7424 L232.9092,69.9404 L220.6702,69.9404 L220.6702,40.5664 C220.6702,35.6704 218.5042,32.0934 213.1382,32.0934 C209.2782,32.0934 205.6062,34.1654 203.2522,35.7654 L203.2522,69.9404 L191.0142,69.9404 Z" id="Fill-8" fill="#000000"></path> <path d="M241.002,69.94 L253.147,69.94 L253.147,22.867 L241.002,22.867 L241.002,69.94 Z M241.002,16.936 L253.147,16.936 L253.147,4.038 L241.002,4.038 L241.002,16.936 Z" id="Fill-10" fill="#000000"></path> <path d="M284.4966,21.9258 C290.4286,21.9258 295.3236,22.7728 300.9736,24.1858 L298.8076,33.8818 C290.9926,31.9988 287.9806,31.9988 284.4966,31.9988 C277.4356,31.9988 273.1996,36.8008 273.1996,46.4038 C273.1996,55.7248 277.0596,60.8088 284.4966,60.8088 C287.9806,60.8088 290.9926,60.8088 298.8076,58.9248 L300.9736,68.7168 C295.3236,70.0338 290.4286,70.8818 284.4966,70.8818 C266.2326,70.8818 260.3016,61.1848 260.3016,46.4038 C260.3016,31.6228 266.2326,21.9258 284.4966,21.9258" id="Fill-12" fill="#000000"></path> <path d="M306.43,69.94 L318.575,69.94 L318.575,22.867 L306.43,22.867 L306.43,69.94 Z M306.43,16.936 L318.575,16.936 L318.575,4.038 L306.43,4.038 L306.43,16.936 Z" id="Fill-13" fill="#000000"></path> <path d="M353.0317,56.5713 C353.0317,54.1243 350.4897,52.9943 344.8407,51.9583 C334.2017,50.0753 326.1997,46.5923 326.1997,36.0483 C326.1997,25.9733 333.3547,21.9253 344.7467,21.9253 C352.3727,21.9253 358.8687,22.7723 364.5177,24.1853 L362.3517,33.8823 C354.5377,31.9993 348.9827,31.7173 345.4057,31.7173 C339.7567,31.7173 338.3437,34.0703 338.3437,35.6713 C338.3437,37.9303 339.9447,39.1543 345.9697,40.4723 C354.9147,42.4493 365.1767,44.8033 365.1767,55.7243 C365.1767,66.0803 358.0207,70.8823 346.6297,70.8823 C339.0037,70.8823 330.9067,70.0343 325.2587,68.6223 L327.4237,58.9253 C335.1427,60.8083 341.7337,61.0913 345.2177,61.0913 C351.2427,61.0913 353.0317,58.2663 353.0317,56.5713" id="Fill-14" fill="#000000"></path> <polygon id="Fill-15" fill="#8E8B86" points="20.8071 85.9434 13.4311 85.9434 13.4311 83.6524 30.6941 83.6524 30.6941 85.9434 23.3181 85.9434 23.3181 105.6234 20.8071 105.6234"></polygon> <path d="M56.6235,94.8574 C59.9195,94.8574 62.2735,93.1624 62.2735,90.3374 L62.2735,90.2744 C62.2735,87.5754 60.2015,85.9434 56.6545,85.9434 L49.8755,85.9434 L49.8755,94.8574 L56.6235,94.8574 Z M47.3955,83.6524 L56.8435,83.6524 C59.5435,83.6524 61.7085,84.4674 63.0895,85.8484 C64.1565,86.9164 64.7845,88.4544 64.7845,90.1804 L64.7845,90.2434 C64.7845,93.8834 62.2735,96.0184 58.8205,96.6464 L65.5685,105.6234 L62.5235,105.6234 L56.1525,97.0864 L49.8755,97.0864 L49.8755,105.6234 L47.3955,105.6234 L47.3955,83.6524 Z" id="Fill-16" fill="#8E8B86"></path> <path d="M96.395,97.5566 L91.405,86.3826 L86.383,97.5566 L96.395,97.5566 Z M90.275,83.4946 L92.597,83.4946 L102.61,105.6226 L99.942,105.6226 L97.368,99.8166 L85.41,99.8166 L82.805,105.6226 L80.262,105.6226 L90.275,83.4946 Z" id="Fill-17" fill="#8E8B86"></path> <polygon id="Fill-18" fill="#8E8B86" points="118.9985 83.6523 121.3205 83.6523 135.1625 101.2593 135.1625 83.6523 137.5795 83.6523 137.5795 105.6233 135.6025 105.6233 121.4155 87.6063 121.4155 105.6233 118.9985 105.6233"></polygon> <path d="M154.4077,102.4219 L155.9457,100.6009 C158.2367,102.6729 160.4337,103.7079 163.4787,103.7079 C166.4287,103.7079 168.3757,102.1389 168.3757,99.9739 L168.3757,99.9099 C168.3757,97.8699 167.2757,96.7089 162.6627,95.7359 C157.6097,94.6379 155.2867,93.0049 155.2867,89.3959 L155.2867,89.3329 C155.2867,85.8809 158.3307,83.3379 162.5057,83.3379 C165.7077,83.3379 167.9987,84.2479 170.2267,86.0369 L168.7837,87.9519 C166.7427,86.2879 164.7027,85.5669 162.4427,85.5669 C159.5867,85.5669 157.7657,87.1359 157.7657,89.1129 L157.7657,89.1759 C157.7657,91.2479 158.8957,92.4089 163.7287,93.4439 C168.6257,94.5119 170.8867,96.3009 170.8867,99.6589 L170.8867,99.7229 C170.8867,103.4879 167.7467,105.9369 163.3847,105.9369 C159.9007,105.9369 157.0447,104.7759 154.4077,102.4219" id="Fill-19" fill="#8E8B86"></path> <polygon id="Fill-20" fill="#8E8B86" points="187.9966 83.6523 190.4756 83.6523 190.4756 103.3323 202.8426 103.3323 202.8426 105.6233 187.9966 105.6233"></polygon> <path d="M233.731,97.5566 L228.741,86.3826 L223.718,97.5566 L233.731,97.5566 Z M227.61,83.4946 L229.933,83.4946 L239.946,105.6226 L237.278,105.6226 L234.704,99.8166 L222.745,99.8166 L220.14,105.6226 L217.598,105.6226 L227.61,83.4946 Z" id="Fill-21" fill="#8E8B86"></path> <polygon id="Fill-22" fill="#8E8B86" points="259.313 85.9434 251.936 85.9434 251.936 83.6524 269.2 83.6524 269.2 85.9434 261.823 85.9434 261.823 105.6234 259.313 105.6234"></polygon> <polygon id="Fill-23" fill="#8E8B86" points="286.122 105.623 288.601 105.623 288.601 83.652 286.122 83.652"></polygon> <path d="M325.9536,94.7002 L325.9536,94.6382 C325.9536,89.6462 322.3126,85.5662 317.2916,85.5662 C312.2686,85.5662 308.6906,89.5842 308.6906,94.5752 L308.6906,94.6382 C308.6906,99.6282 312.3326,103.7082 317.3536,103.7082 C322.3756,103.7082 325.9536,99.6902 325.9536,94.7002 M306.1176,94.7002 L306.1176,94.6382 C306.1176,88.5802 310.6686,83.2752 317.3536,83.2752 C324.0396,83.2752 328.5276,88.5162 328.5276,94.5752 L328.5276,94.6382 C328.5276,100.6952 323.9766,106.0002 317.2916,106.0002 C310.6056,106.0002 306.1176,100.7582 306.1176,94.7002" id="Fill-24" fill="#8E8B86"></path> <polygon id="Fill-25" fill="#8E8B86" points="345.8267 83.6523 348.1487 83.6523 361.9907 101.2593 361.9907 83.6523 364.4077 83.6523 364.4077 105.6233 362.4307 105.6233 348.2437 87.6063 348.2437 105.6233 345.8267 105.6233"></polygon> <path d="M428,51.5 C428,45.961 424.716,41.109 419.781,38.37 C418.031,37.399 417,35.501 417,33.5 C417,31.499 418.031,29.601 419.781,28.63 C424.716,25.891 428,21.039 428,15.5 C428,6.939 420.165,0 410.5,0 C400.835,0 393,6.939 393,15.5 C393,20.673 395.868,25.243 400.268,28.055 C401.937,29.122 403,30.914 403,32.894 L403,34.106 C403,36.086 401.937,37.878 400.268,38.945 C395.868,41.757 393,46.327 393,51.5 C393,56.673 395.868,61.243 400.268,64.055 C401.937,65.122 403,66.914 403,68.894 L403,70.106 C403,72.086 401.937,73.878 400.268,74.945 C395.868,77.757 393,82.327 393,87.5 C393,96.061 400.835,103 410.5,103 C420.165,103 428,96.061 428,87.5 C428,81.961 424.716,77.109 419.781,74.37 C418.031,73.399 417,71.501 417,69.5 C417,67.499 418.031,65.601 419.781,64.63 C424.716,61.891 428,57.039 428,51.5" id="Fill-26" fill="#63A8B8"></path> <path d="M501,51.5 C501,60.061 493.165,67 483.5,67 C473.835,67 466,60.061 466,51.5 C466,42.939 473.835,36 483.5,36 C493.165,36 501,42.939 501,51.5" id="Fill-27" fill="#F0AC49"></path> <path d="M454,51.5 C454,49.499 455.031,47.601 456.781,46.63 C461.716,43.891 465,39.039 465,33.5 C465,24.939 457.165,18 447.5,18 C437.835,18 430,24.939 430,33.5 C430,38.673 432.868,43.243 437.268,46.055 C438.937,47.122 440,48.914 440,50.894 L440,52.106 C440,54.086 438.937,55.878 437.268,56.945 C432.868,59.757 430,64.327 430,69.5 C430,78.061 437.835,85 447.5,85 C457.165,85 465,78.061 465,69.5 C465,63.961 461.716,59.109 456.781,56.37 C455.031,55.399 454,53.501 454,51.5" id="Fill-28" fill="#A9BF53"></path> </g> </g> </g> </svg> 