<?xml version="1.0" encoding="UTF-8"?> <svg xmlns="http://www.w3.org/2000/svg" xmlns:xlink="http://www.w3.org/1999/xlink" width="356px" height="201px" viewBox="0 0 356 201"> <!-- Generator: Sketch 49 (51002) - http://www.bohemiancoding.com/sketch --> <title>Page 1</title> <desc>Created with Sketch.</desc> <defs></defs> <g id="Page-1" stroke="none" stroke-width="1" fill="none" fill-rule="evenodd"> <g fill="#FF2D67"> <polygon id="Fill-1" points="21.9996 83.0001 21.9996 97.0001 8.0006 97.0001 8.0006 83.0001 -0.0004 83.0001 -0.0004 118.0001 8.0006 118.0001 8.0006 105.0001 21.9996 105.0001 21.9996 118.0001 29.9996 118.0001 29.9996 83.0001"></polygon> <polygon id="Fill-2" points="66 91 66 83 51 83 43 83 43 118 51 118 66 118 66 110 51 110 51 104 61 104 61 96 51 96 51 91"></polygon> <polygon id="Fill-3" points="106 91 106 83 91 83 83 83 83 118 91 118 106 118 106 110 91 110 91 104 101 104 101 96 91 96 91 91"></polygon> <g id="Group-8" transform="translate(113.000000, 0.000000)"> <path d="M115,118 L107,118 L107,104.5 L93,104.5 L93,118 L85,118 L85,83 L93,83 L93,96.5 L107,96.5 L107,83 L115,83 L115,118 Z M63.5,119 C53.283,119 45,110.717 45,100.5 C45,90.283 53.283,82 63.5,82 C68.463,82 72.959,83.965 76.282,87.146 L70.312,92.519 C68.478,90.952 66.102,90 63.5,90 C57.701,90 53,94.701 53,100.5 C53,106.299 57.701,111 63.5,111 C66.371,111 68.97,109.846 70.865,107.979 L76.811,113.33 C73.446,116.82 68.731,119 63.5,119 Z M35,91 L25,91 L25,118 L17,118 L17,91 L7,91 L7,83 L17,83 L25,83 L35,83 L35,91 Z M100.5,0 C44.995,0 0,44.995 0,100.5 C0,156.005 44.995,201 100.5,201 C156.005,201 201,156.005 201,100.5 C201,44.995 156.005,0 100.5,0 Z" id="Fill-4"></path> <path d="M243,101 C243,108.732 236.732,115 229,115 C221.268,115 215,108.732 215,101 C215,93.268 221.268,87 229,87 C236.732,87 243,93.268 243,101" id="Fill-6"></path> </g> </g> </g> </svg> 