<?xml version="1.0" encoding="UTF-8" standalone="no"?>
<svg width="953px" height="168px" viewBox="0 0 953 168" version="1.1" xmlns="http://www.w3.org/2000/svg" xmlns:xlink="http://www.w3.org/1999/xlink">
    <!-- Generator: Sketch 3.8.3 (29802) - http://www.bohemiancoding.com/sketch -->
    <title>bisam</title>
    <desc>Created with Sketch.</desc>
    <defs></defs>
    <g id="Page-1" stroke="none" stroke-width="1" fill="none" fill-rule="evenodd">
        <g id="bisam" transform="translate(-1.000000, 0.000000)" fill="#1D1C1B">
            <g id="Group-3" transform="translate(0.000000, 2.517600)">
                <path d="M113.710194,116.928133 C113.710194,135.0048 98.3700708,145.8948 73.7346862,145.8948 L19.1250246,145.8948 L19.1250246,88.6581333 L70.4842862,88.6581333 C98.8407169,88.6581333 113.710194,98.8514667 113.710194,116.466133 L113.710194,116.928133 Z M19.1250246,16.5861333 L68.6237631,16.5861333 C91.8619169,16.5861333 104.650255,27.0141333 104.650255,43.0008 L104.650255,43.4628 C104.650255,62.4708 89.3101323,72.4368 67.2338862,72.4368 L19.1250246,72.4368 L19.1250246,16.5861333 Z M97.4434862,78.4574667 C110.224471,72.8988 123.233425,62.0088 123.233425,40.9181333 L123.233425,40.4561333 C123.233425,30.0281333 119.519732,21.4481333 112.783609,14.4961333 C103.480994,5.46146667 88.84684,0.130133333 70.2489631,0.130133333 L0.997793846,0.130133333 L0.997793846,162.3508 L73.2713938,162.3508 C108.82724,162.3508 132.300717,145.8948 132.300717,118.0868 L132.300717,117.6248 C132.300717,95.3754667 116.732625,84.2508 97.4434862,78.4574667 L97.4434862,78.4574667 Z" id="Fill-1"></path>
            </g>
            <polygon id="Fill-4" points="228.476523 164.866933 246.839077 164.866933 246.839077 2.64626667 228.476523 2.64626667"></polygon>
            <path d="M410.883529,74.9522 C375.09236,67.3035333 366.731037,58.7308667 366.731037,43.4335333 L366.731037,42.9715333 C366.731037,28.3708667 380.210637,16.7842 401.352945,16.7842 C418.082945,16.7842 433.195098,22.1155333 448.292545,34.3988667 L458.985037,20.2602 C442.483006,7.05286667 425.525037,0.335533333 401.823591,0.335533333 C370.908022,0.335533333 348.368483,19.1015333 348.368483,44.5922 L348.368483,45.0542 C348.368483,71.7108667 365.561775,83.7595333 402.978145,91.8702 C437.144114,99.0568667 445.277468,107.629533 445.277468,122.6922 L445.277468,123.1542 C445.277468,139.140867 430.863929,150.727533 409.023006,150.727533 C386.483468,150.727533 370.21676,143.0862 353.251437,127.788867 L341.860329,141.230867 C361.384791,158.610867 382.534452,167.183533 408.324391,167.183533 C440.629837,167.183533 463.867991,149.106867 463.867991,121.298867 L463.867991,120.836867 C463.867991,96.0428667 447.137991,82.8355333 410.883529,74.9522" id="Fill-6"></path>
            <path d="M620.257825,105.309267 L612.73484,121.9926" id="Fill-7"></path>
            <polyline id="Fill-8" points="668.540972 121.995533 687.594788 164.8662 707.347218 164.8662 633.213095 1.48686667 616.019803 1.48686667 541.88568 164.8662 560.711526 164.8662 580.000665 121.995533 612.732634 121.995533 620.255618 105.3122 587.20008 105.3122 624.38848 22.8122 661.341557 105.3122"></polyline>
            <polygon id="Fill-9" points="934.593566 2.64993333 875.32892 91.1706 816.071628 2.64993333 797.481105 2.64993333 797.481105 164.8706 815.373012 164.8706 815.373012 33.6992667 874.637658 120.371933 875.564243 120.371933 934.821535 33.4719333 934.821535 164.8706 953.176735 164.8706 953.176735 2.64993333"></polygon>
        </g>
    </g>
</svg>