<?xml version="1.0" encoding="UTF-8" standalone="no"?>
<svg width="22253px" height="4984px" viewBox="0 0 22253 4984" version="1.1" xmlns="http://www.w3.org/2000/svg" xmlns:xlink="http://www.w3.org/1999/xlink">
    <!-- Generator: Sketch 3.8.3 (29802) - http://www.bohemiancoding.com/sketch -->
    <title>boursier</title>
    <desc>Created with Sketch.</desc>
    <defs></defs>
    <g id="Page-1" stroke="none" stroke-width="1" fill="none" fill-rule="evenodd">
        <g id="boursier">
            <path d="M14453.9705,4585.08479 L21935.505,4585.08479 L21935.505,383.555323 L14453.9705,383.555323 L14453.9705,4585.08479 Z M16866.3979,2065.45853 L16866.3979,1993.28067 C16866.3979,1683.34048 16751.6516,1513.51023 16534.9084,1513.51023 C16415.9122,1513.51023 16322.3266,1564.45931 16275.6666,1653.62019 C16220.4184,1747.02682 16207.6688,1831.94194 16207.6688,2061.21277 L16207.6688,3003.85907 C16207.6688,3220.39264 16220.4184,3330.87075 16254.3287,3424.18893 C16296.8274,3538.9128 16407.4124,3606.84489 16539.1583,3606.84489 C16700.6532,3606.84489 16806.8998,3509.1925 16849.3985,3313.79927 C16866.3979,3245.86717 16870.6478,3177.93507 16874.8977,2982.63029 L17316.9723,2982.63029 L17316.9723,3076.03693 C17316.9723,3696.00577 17049.1422,4018.68323 16539.1583,4018.68323 C16254.3287,4018.68323 16029.0859,3908.29357 15905.8397,3704.49728 C15799.5931,3530.42128 15769.844,3364.74834 15769.844,2944.41849 L15769.844,2150.37365 C15769.844,1700.3235 15803.843,1543.23053 15935.5888,1364.90877 C16058.8349,1194.99007 16271.4167,1101.58344 16534.9084,1101.58344 C17027.8928,1101.58344 17304.1341,1424.2609 17304.1341,2001.77218 L17304.1341,2065.45853 L16866.3979,2065.45853 Z M19037.9023,3076.04577 C19037.9023,3394.47748 18991.2423,3585.5365 18876.4074,3746.96369 C18748.9999,3925.28544 18536.4181,4018.69208 18264.4267,4018.69208 C17992.4353,4018.69208 17779.8535,3925.28544 17652.446,3746.96369 C17537.6111,3585.5365 17490.9511,3394.47748 17490.9511,3076.04577 L17490.9511,2044.23859 C17490.9511,1725.80688 17537.6111,1534.65941 17652.446,1373.32068 C17779.8535,1194.99892 17992.4353,1101.59229 18264.4267,1101.59229 C18536.4181,1101.59229 18748.9999,1194.99892 18876.4074,1373.32068 C18991.2423,1534.65941 19037.9023,1725.80688 19037.9023,2044.23859 L19037.9023,3076.04577 Z M17928.5988,3067.55426 C17928.5988,3292.57933 17941.4369,3364.75719 17983.9356,3454.00652 C18034.934,3547.3247 18141.0921,3606.85374 18264.4267,3606.85374 C18387.7613,3606.85374 18493.9195,3547.3247 18544.9178,3454.00652 C18591.6664,3364.75719 18600.1661,3296.82509 18600.1661,3067.55426 L18600.1661,2052.7301 C18600.1661,1823.45927 18591.6664,1755.52718 18544.9178,1666.3663 C18493.9195,1572.95966 18387.7613,1513.51908 18264.4267,1513.51908 C18141.0921,1513.51908 18034.934,1572.95966 17983.9356,1666.3663 C17941.4369,1751.28142 17928.5988,1827.70503 17928.5988,2052.7301 L17928.5988,3067.55426 Z M21320.3989,3976.23452 L20903.9121,3976.23452 L20903.9121,1891.39137 L20410.9276,3976.23452 L20164.3469,3976.23452 L19675.6123,1891.39137 L19675.6123,3976.23452 L19259.1255,3976.23452 L19259.1255,1144.04985 L19900.8552,1144.04985 L20291.8429,2923.19855 L20687.1689,1144.04985 L21320.3989,1144.04985 L21320.3989,3976.23452 Z" id="Combined-Shape" fill="#0C71B4"></path>
            <g id="Group-8" transform="translate(0.000000, 0.084000)">
                <path d="M13841.919,3486.70329 C13841.919,3181.53957 14089.4737,2934.22428 14394.9328,2934.22428 C14700.3919,2934.22428 14947.9466,3181.53957 14947.9466,3486.70329 C14947.9466,3791.86701 14700.3919,4039.1823 14394.9328,4039.1823 C14089.4737,4039.1823 13841.919,3791.86701 13841.919,3486.70329 L13841.919,3486.70329 Z" id="Fill-2" fill="#252F61"></path>
                <path d="M14394.9416,3243.80182 C14547.5827,3243.80182 14686.3231,3285.19794 14791.2416,3352.59932 C14735.0194,3186.92638 14579.8108,3066.89531 14394.9416,3066.89531 C14210.0725,3066.89531 14054.8638,3186.92638 13998.6417,3352.59932 C14103.5602,3285.19794 14242.3006,3243.80182 14394.9416,3243.80182" id="Fill-4" fill="#269DD4"></path>
                <path d="M0,4983.04042 L22252.7398,4983.04042 L22252.7398,0.203382278 L0,0.203382278 L0,4983.04042 Z M177.07774,4806.13392 L22075.662,4806.13392 L22075.662,177.109886 L177.07774,177.109886 L177.07774,4806.13392 Z" id="Fill-6" fill="#929A9F"></path>
            </g>
            <g id="Group-26" transform="translate(1102.000000, 1101.084000)" fill="#1D1C1B">
                <path d="M658.923021,2471.75946 C939.414161,2471.75946 1096.74773,2327.40376 1096.74773,2072.65839 C1096.74773,1788.10428 901.165369,1601.29101 595.175035,1601.29101 L437.930002,1601.29101 L437.930002,2471.75946 L658.923021,2471.75946 L658.923021,2471.75946 Z M595.175035,1197.94418 C862.916577,1197.94418 1037.16107,1040.85121 1037.16107,798.754657 C1037.16107,692.610754 998.912282,599.292574 930.91443,535.517779 C858.666712,471.831438 769.419531,446.356901 603.674766,446.356901 L437.930002,446.356901 L437.930002,1197.94418 L595.175035,1197.94418 L595.175035,1197.94418 Z M0.193829399,43.0100727 L654.673156,43.0100727 C1185.99491,43.0100727 1483.48552,302.001194 1483.48552,760.542852 C1483.48552,1096.04604 1334.74022,1295.59657 1016.00028,1393.24896 C1398.4882,1503.63862 1551.48337,1698.9434 1551.48337,2072.65839 C1551.48337,2573.65761 1236.9933,2875.19474 709.92141,2875.19474 L0.193829399,2875.19474 L0.193829399,43.0100727 L0.193829399,43.0100727 Z" id="Fill-9"></path>
                <path d="M2171.91065,1966.47026 C2171.91065,2191.49533 2184.66024,2263.67319 2227.1589,2352.92252 C2278.15729,2446.2407 2384.40393,2505.76974 2507.65004,2505.76974 C2630.98469,2505.76974 2737.14279,2446.2407 2788.14118,2352.92252 C2834.97824,2263.67319 2843.38943,2195.74109 2843.38943,1966.47026 L2843.38943,951.646102 C2843.38943,722.375274 2834.97824,654.443176 2788.14118,565.282298 C2737.14279,471.875664 2630.98469,412.435079 2507.65004,412.435079 C2384.40393,412.435079 2278.15729,471.875664 2227.1589,565.282298 C2184.66024,650.19742 2171.91065,726.62103 2171.91065,951.646102 L2171.91065,1966.47026 Z M3281.21415,1974.96177 C3281.21415,2293.39348 3234.46562,2484.4525 3119.71925,2645.87969 C2992.22327,2824.20144 2779.72999,2917.60808 2507.65004,2917.60808 C2235.65863,2917.60808 2023.16534,2824.20144 1895.66937,2645.87969 C1780.83446,2484.4525 1734.17447,2293.39348 1734.17447,1974.96177 L1734.17447,943.15459 C1734.17447,624.722883 1780.83446,433.575406 1895.66937,272.236675 C2023.16534,93.9149191 2235.65863,0.508285151 2507.65004,0.508285151 C2779.72999,0.508285151 2992.22327,93.9149191 3119.71925,272.236675 C3234.46562,433.575406 3281.21415,624.722883 3281.21415,943.15459 L3281.21415,1974.96177 Z" id="Fill-11"></path>
                <path d="M5002.63998,43.0012273 L5002.63998,1962.25989 C5002.63998,2318.9034 4960.14132,2501.47091 4841.14508,2662.80964 C4717.89897,2828.48258 4509.65555,2917.64346 4254.57507,2917.64346 C3995.33325,2917.64346 3787.08983,2828.48258 3663.84373,2662.80964 C3544.84748,2501.47091 3502.34883,2318.9034 3502.34883,1962.25989 L3502.34883,43.0012273 L3940.085,43.0012273 L3940.085,2034.43774 C3940.085,2369.85247 4029.33218,2505.71667 4250.3252,2505.71667 C4475.56808,2505.71667 4564.9038,2369.85247 4564.9038,2034.43774 L4564.9038,43.0012273 L5002.63998,43.0012273 Z" id="Fill-13"></path>
                <path d="M5848.55805,1308.34269 C6035.55214,1308.34269 6120.54946,1287.11391 6188.54731,1219.18181 C6260.79503,1147.00395 6294.88249,1032.28009 6294.88249,875.275565 C6294.88249,722.339892 6260.79503,607.704478 6188.54731,535.526624 C6120.54946,467.594527 6035.55214,446.365746 5848.55805,446.365746 L5687.06315,446.365746 L5687.06315,1308.34269 L5848.55805,1308.34269 Z M5687.06315,2875.11514 L5249.23844,2875.11514 L5249.23844,43.018918 L5933.55536,43.018918 C6192.79717,43.018918 6358.63048,93.9679911 6494.62618,212.849162 C6664.62081,357.204869 6749.61813,573.738429 6749.61813,853.958331 C6749.61813,1210.6903 6622.12215,1456.94415 6367.04167,1588.56259 L6783.61705,2875.11514 L6324.54301,2875.11514 L5950.55483,1711.68951 L5687.06315,1711.68951 L5687.06315,2875.11514 Z" id="Fill-15"></path>
                <path d="M7999.26459,832.782623 C7931.26674,552.562721 7803.77077,412.45277 7625.2764,412.45277 C7463.7815,412.45277 7340.5354,535.579696 7340.5354,701.164184 C7340.5354,798.816574 7383.03406,904.960476 7459.53164,985.629842 C7531.77936,1066.29921 7531.77936,1066.29921 7833.51983,1295.57004 C8071.51231,1482.3833 8160.75949,1563.05267 8254.25654,1677.77654 C8369.09145,1817.88649 8437.0893,2004.69976 8437.0893,2195.75878 C8437.0893,2624.6686 8122.5107,2917.62577 7659.27533,2917.62577 C7174.70209,2917.62577 6889.96109,2658.63465 6800.71391,2119.33517 L7221.45062,1996.20824 C7276.69887,2335.86873 7425.53271,2505.78743 7659.27533,2505.78743 C7850.51929,2505.78743 7982.26513,2374.08054 7982.26513,2183.02151 C7982.26513,2004.69976 7893.01795,1890.06434 7561.52842,1630.98477 C7166.20236,1321.13303 7149.2029,1304.06155 7042.95626,1168.19735 C6940.95948,1036.57891 6885.71122,870.994427 6885.71122,696.918428 C6885.71122,289.23739 7191.70156,0.525975801 7625.2764,0.525975801 C8029.01365,0.525975801 8301.0936,242.534073 8420.0013,709.655696 L7999.26459,832.782623 Z" id="Fill-17"></path>
                <polygon id="Fill-19" points="8560.42395 2875.17705 8998.16012 2875.17705 8998.16012 42.992382 8560.42395 42.992382"></polygon>
                <polygon id="Fill-21" points="10532.4768 446.356901 9686.66493 446.356901 9686.66493 1193.69843 10311.4837 1193.69843 10311.4837 1597.04525 9686.66493 1597.04525 9686.66493 2471.75946 10532.4768 2471.75946 10532.4768 2875.10629 9248.92876 2875.10629 9248.92876 43.0100727 10532.4768 43.0100727"></polygon>
                <path d="M11250.8192,1308.34269 C11437.8133,1308.34269 11522.8106,1287.11391 11590.8084,1219.18181 C11663.0561,1147.00395 11697.1436,1032.28009 11697.1436,875.275565 C11697.1436,722.339892 11663.0561,607.704478 11590.8084,535.526624 C11522.8106,467.594527 11437.8133,446.365746 11250.8192,446.365746 L11089.3243,446.365746 L11089.3243,1308.34269 L11250.8192,1308.34269 Z M11089.3243,2875.11514 L10651.4996,2875.11514 L10651.4996,43.018918 L11335.8165,43.018918 C11595.0583,43.018918 11760.8916,93.9679911 11896.8873,212.849162 C12066.8819,357.204869 12151.8792,573.738429 12151.8792,853.958331 C12151.8792,1210.6903 12024.3833,1456.94415 11769.3028,1588.56259 L12185.8782,2875.11514 L11726.8041,2875.11514 L11352.8159,1711.68951 L11089.3243,1711.68951 L11089.3243,2875.11514 Z" id="Fill-22"></path>
            </g>
        </g>
    </g>
</svg>