<?xml version="1.0" encoding="UTF-8"?> <svg xmlns="http://www.w3.org/2000/svg" xmlns:xlink="http://www.w3.org/1999/xlink" width="720px" height="224px" viewBox="0 0 720 224"> <!-- Generator: Sketch 47.1 (45422) - http://www.bohemiancoding.com/sketch --> <title>Euronext</title> <desc>Created with Sketch.</desc> <defs></defs> <g id="Page-1" stroke="none" stroke-width="1" fill="none" fill-rule="evenodd"> <g id="Euronext"> <g id="g3009" transform="translate(477.109448, 108.345867) scale(-1, 1) rotate(-180.000000) translate(-477.109448, -108.345867) translate(225.891711, 64.482453)"> <g id="Group"> <g id="g3011"> <g id="g3021" transform="translate(5.252444, 2.599904)"></g> </g> </g> </g> <path d="M235.131739,150.657315 C235.131739,151.465381 235.929255,151.465381 235.929255,151.465381 L275.805087,151.465381 C276.602603,151.465381 276.602603,150.657315 276.602603,150.657315 L276.602603,140.960523 C276.602603,140.152457 275.805087,140.152457 275.805087,140.152457 L250.284555,140.152457 C249.487038,140.152457 249.487038,140.152457 249.487038,139.344391 L249.487038,121.566937 C249.487038,120.758871 249.487038,120.758871 250.284555,120.758871 L272.61502,120.758871 C273.412537,120.758871 273.412537,119.950805 273.412537,119.950805 L273.412537,111.062079 C273.412537,110.254012 272.61502,110.254012 272.61502,110.254012 L250.284555,110.254012 C249.487038,110.254012 249.487038,110.254012 249.487038,109.445946 L249.487038,90.052361 C249.487038,89.244295 249.487038,89.244295 250.284555,89.244295 L276.602603,89.244295 C277.40012,89.244295 277.40012,88.4362289 277.40012,88.4362289 L277.40012,78.7394362 C277.40012,77.9313702 276.602603,77.9313702 276.602603,77.9313702 L235.929255,77.9313702 C235.131739,77.9313702 235.131739,78.7394362 235.131739,78.7394362 C235.131739,77.9313702 235.131739,150.657315 235.131739,150.657315 Z M342.796483,94.0926913 C342.796483,81.9717004 332.428767,75.507172 316.478434,75.507172 C298.135552,75.507172 290.160386,81.9717004 290.160386,94.0926913 L290.160386,151.465381 C290.160386,152.273447 290.957902,152.273447 290.957902,152.273447 L302.920652,152.273447 C303.718168,152.273447 303.718168,151.465381 303.718168,151.465381 L303.718168,98.1330216 C303.718168,89.244295 309.300785,88.4362289 315.680918,88.4362289 C322.061051,88.4362289 328.441184,89.244295 328.441184,98.1330216 L328.441184,150.657315 C328.441184,151.465381 329.2387,151.465381 329.2387,151.465381 L341.20145,151.465381 C342.796483,152.273447 342.796483,151.465381 342.796483,150.657315 C342.796483,150.657315 342.796483,94.0926913 342.796483,94.0926913 Z M381.874798,102.981418 C381.077281,104.59755 381.077281,104.59755 380.279764,105.405616 L372.304598,105.405616 C371.507082,105.405616 371.507082,105.405616 371.507082,104.59755 L371.507082,77.9313702 C371.507082,77.1233041 370.709565,77.1233041 370.709565,77.1233041 L358.746816,77.1233041 C357.949299,77.1233041 357.949299,77.9313702 357.949299,77.9313702 L357.949299,150.657315 C357.949299,151.465381 358.746816,151.465381 358.746816,151.465381 L381.874798,151.465381 C398.622647,151.465381 406.597813,145.808919 406.597813,130.455664 C406.597813,120.758871 404.205263,114.294343 397.027614,110.254012 C396.230097,109.445946 396.230097,109.445946 396.230097,108.63788 C396.230097,107.829814 397.027614,106.213682 397.82513,104.59755 L412.180429,77.1233041 C412.180429,76.315238 412.180429,76.315238 411.382913,76.315238 L397.027614,76.315238 C396.230097,76.315238 396.230097,76.315238 395.43258,77.1233041 L381.874798,102.981418 L381.874798,102.981418 Z M390.647481,128.839532 C390.647481,138.536324 388.254931,140.960523 377.887215,140.960523 L372.304598,140.960523 C371.507082,140.960523 370.709565,140.960523 370.709565,140.152457 L370.709565,115.910475 C370.709565,115.102409 370.709565,115.102409 371.507082,115.102409 L377.887215,115.102409 C387.457414,115.102409 390.647481,119.142739 390.647481,128.839532 L390.647481,128.839532 Z M467.209077,82.7797665 C462.423977,77.1233041 456.043844,75.507172 445.676128,75.507172 C435.308412,75.507172 428.928279,77.1233041 424.143179,82.7797665 C419.358079,88.4362289 416.965529,100.55722 416.965529,114.294343 C416.965529,128.031466 419.358079,140.152457 424.143179,145.808919 C428.928279,151.465381 435.308412,153.081514 446.473644,153.081514 C456.84136,153.081514 463.221493,151.465381 468.006593,145.808919 C472.791693,140.152457 475.184243,128.031466 475.184243,114.294343 C475.184243,100.55722 471.994176,88.4362289 467.209077,82.7797665 L467.209077,82.7797665 Z M435.308412,90.8604271 C436.903445,88.4362289 440.093511,88.4362289 445.676128,88.4362289 C451.258744,88.4362289 454.448811,88.4362289 456.043844,90.8604271 C458.436394,94.0926913 459.23391,103.789484 459.23391,114.294343 C459.23391,124.799202 458.436394,134.495994 456.043844,137.728258 C454.448811,140.152457 451.258744,140.152457 445.676128,140.152457 C440.093511,140.152457 436.903445,140.152457 435.308412,137.728258 C432.915862,134.495994 432.118345,124.799202 432.118345,114.294343 C432.118345,103.789484 432.915862,94.0926913 435.308412,90.8604271 L435.308412,90.8604271 Z M523.03524,77.1233041 C522.237724,77.1233041 522.237724,77.9313702 521.440207,78.7394362 L501.502291,132.879862 C500.704775,134.495994 500.704775,135.30406 499.907258,135.30406 C499.109742,135.30406 499.109742,135.30406 499.109742,132.879862 L499.109742,78.7394362 C499.109742,77.9313702 498.312225,77.9313702 498.312225,77.9313702 L487.944509,77.9313702 C487.146992,77.9313702 487.146992,78.7394362 487.146992,78.7394362 L487.146992,151.465381 C487.146992,152.273447 487.944509,152.273447 487.944509,152.273447 L506.287391,152.273447 C507.084908,152.273447 507.084908,151.465381 507.882424,150.657315 L526.225307,98.1330216 C527.022823,96.5168895 527.022823,96.5168895 527.82034,96.5168895 C528.617857,96.5168895 528.617857,96.5168895 528.617857,97.3249555 L528.617857,150.657315 C528.617857,151.465381 529.415373,151.465381 529.415373,151.465381 L540.580606,151.465381 C541.378123,151.465381 541.378123,150.657315 541.378123,150.657315 L541.378123,77.9313702 C541.378123,77.1233041 540.580606,77.1233041 540.580606,77.1233041 L523.03524,77.1233041 L523.03524,77.1233041 Z M554.935905,150.657315 C554.935905,151.465381 555.733422,151.465381 555.733422,151.465381 L595.609253,151.465381 C596.40677,151.465381 596.40677,150.657315 596.40677,150.657315 L596.40677,140.960523 C596.40677,140.152457 595.609253,140.152457 595.609253,140.152457 L570.088721,140.152457 C569.291205,140.152457 569.291205,140.152457 569.291205,139.344391 L569.291205,121.566937 C569.291205,120.758871 569.291205,120.758871 570.088721,120.758871 L592.419187,120.758871 C593.216703,120.758871 593.216703,119.950805 593.216703,119.950805 L593.216703,111.062079 C593.216703,110.254012 592.419187,110.254012 592.419187,110.254012 L570.088721,110.254012 C569.291205,110.254012 569.291205,110.254012 569.291205,109.445946 L569.291205,90.052361 C569.291205,89.244295 569.291205,89.244295 570.088721,89.244295 L596.40677,89.244295 C597.204286,89.244295 597.204286,88.4362289 597.204286,88.4362289 L597.204286,78.7394362 C597.204286,77.9313702 596.40677,77.9313702 596.40677,77.9313702 L555.733422,77.9313702 C554.935905,77.9313702 554.935905,78.7394362 554.935905,78.7394362 L554.935905,150.657315 L554.935905,150.657315 Z M664.9932,77.9313702 L642.662734,116.718541 L661.803133,150.657315 C661.803133,151.465381 661.803133,152.273447 661.005616,152.273447 L648.24535,152.273447 C647.447834,152.273447 646.650317,152.273447 646.650317,150.657315 L634.687568,130.455664 L622.724818,150.657315 C621.927302,151.465381 621.927302,152.273447 620.332269,152.273447 L607.572003,152.273447 C606.774486,152.273447 605.976969,151.465381 606.774486,150.657315 L625.914885,116.718541 L604.381936,77.9313702 C604.381936,77.1233041 604.381936,76.315238 605.179453,76.315238 L617.939719,76.315238 C618.737235,76.315238 619.534752,76.315238 619.534752,77.9313702 L633.092535,102.981418 L647.447834,77.9313702 C648.24535,77.1233041 648.24535,76.315238 649.042867,76.315238 L662.60065,76.315238 C664.9932,77.1233041 664.9932,77.9313702 664.9932,77.9313702 L664.9932,77.9313702 Z M686.526148,139.344391 C686.526148,140.152457 685.728632,140.152457 686.526148,139.344391 L668.980783,140.152457 C668.183266,140.152457 668.183266,140.960523 668.183266,140.960523 L668.183266,150.657315 C668.183266,151.465381 668.980783,151.465381 668.980783,151.465381 L718.426813,151.465381 C719.22433,151.465381 719.22433,150.657315 719.22433,150.657315 L719.22433,140.960523 C719.22433,140.152457 718.426813,140.152457 718.426813,140.152457 L701.678964,140.152457 C700.881448,140.152457 700.881448,140.152457 700.881448,139.344391 L700.881448,77.9313702 C700.881448,77.1233041 700.083931,77.1233041 700.083931,77.1233041 L688.121182,77.1233041 C687.323665,77.1233041 687.323665,77.9313702 687.323665,77.9313702 L686.526148,139.344391 L686.526148,139.344391 Z" id="path3023" fill="#00897E" fill-rule="nonzero" transform="translate(477.178034, 114.294343) scale(1, -1) translate(-477.178034, -114.294343) "></path> <polygon id="path3025" fill="#99DEF9" fill-rule="nonzero" points="0.780968 75.5698478 21.1973936 75.5698478 21.1973936 133.629058 0.780968 133.629058"></polygon> <polygon id="path3027" fill="#59CAF5" fill-rule="nonzero" points="21.1973936 180.204029 0.780968 180.204029 0.780968 134.267071 21.1973936 134.267071"></polygon> <polygon id="path3029" fill="#66CEF5" fill-rule="nonzero" points="21.1973936 32.1849434 41.6138192 32.1849434 41.6138192 96.6242867 21.1973936 96.6242867"></polygon> <polygon id="path3031" fill="#00ADEF" fill-rule="nonzero" points="21.1973936 96.6242867 41.6138192 96.6242867 41.6138192 170.63383 21.1973936 170.63383"></polygon> <polygon id="path3033" fill="#57C6BB" fill-rule="nonzero" points="62.6682581 112.574619 42.2518325 112.574619 42.2518325 43.0311695 62.6682581 43.0311695"></polygon> <polygon id="path3035" fill="#33ABA4" fill-rule="nonzero" points="62.6682581 193.602308 42.2518325 193.602308 42.2518325 111.936606 62.6682581 111.936606"></polygon> <polygon id="path3037" fill="#8CD8C9" fill-rule="nonzero" points="62.6682581 0.9222917 93.9309098 0.9222917 93.9309098 74.9318345 62.6682581 74.9318345"></polygon> <polygon id="path3039" fill="#038F90" fill-rule="nonzero" points="93.9309098 210.828667 62.6682581 210.828667 62.6682581 74.9318345 93.9309098 74.9318345"></polygon> <polygon id="path3041" fill="#12AB4A" fill-rule="nonzero" points="93.9309098 37.9270631 114.347335 37.9270631 114.347335 133.629058 93.9309098 133.629058"></polygon> <polygon id="path3043" fill="#005F5F" fill-rule="nonzero" points="114.347335 223.588933 93.9309098 223.588933 93.9309098 133.629058 114.347335 133.629058"></polygon> <polygon id="path3045" fill="#73C128" fill-rule="nonzero" points="114.347335 19.4246774 145.609987 19.4246774 145.609987 104.280446 114.347335 104.280446"></polygon> <polygon id="path3047" fill="#007C6F" fill-rule="nonzero" points="145.609987 196.154362 114.347335 196.154362 114.347335 104.280446 145.609987 104.280446"></polygon> <polygon id="path3049" fill="#A3D952" fill-rule="nonzero" points="166.026413 121.506805 145.609987 121.506805 145.609987 75.5698478 166.026413 75.5698478"></polygon> <polygon id="path3051" fill="#11A447" fill-rule="nonzero" points="166.026413 170.63383 145.609987 170.63383 145.609987 121.506805 166.026413 121.506805"></polygon> <polygon id="path3053" fill="#BDE593" fill-rule="nonzero" points="186.442838 104.280446 166.026413 104.280446 166.026413 62.1715685 186.442838 62.1715685"></polygon> <polygon id="path3055" fill="#6BC74A" fill-rule="nonzero" points="186.442838 152.769457 166.026413 152.769457 166.026413 104.280446 186.442838 104.280446"></polygon> </g> </g> </svg> 