<?xml version="1.0" encoding="UTF-8" standalone="no"?>
<svg width="3384px" height="849px" viewBox="0 0 3384 849" version="1.1" xmlns="http://www.w3.org/2000/svg" xmlns:xlink="http://www.w3.org/1999/xlink">
    <!-- Generator: Sketch 3.8.3 (29802) - http://www.bohemiancoding.com/sketch -->
    <title>manreo</title>
    <desc>Created with Sketch.</desc>
    <defs>
        <polygon id="path-1" points="2144.35472 384.644983 2144.35472 0.0889627532 0.00384875445 0.0889627532 0.00384875445 384.644983"></polygon>
    </defs>
    <g id="Page-1" stroke="none" stroke-width="1" fill="none" fill-rule="evenodd">
        <g id="manreo" transform="translate(0.000000, -1.000000)">
            <g id="Group-3" transform="translate(1239.348754, 275.686930)">
                <mask id="mask-2" fill="white">
                    <use xlink:href="#path-1"></use>
                </mask>
                <g id="Clip-2"></g>
                <path d="M1169.44241,384.644983 C1192.62748,382.373096 1209.40917,380.717518 1231.84517,378.518138 L1231.84517,84.4174901 L1379.59412,84.4174901 C1381.93799,110.060814 1383.87109,131.160363 1386.08207,155.377715 C1407.33404,154.278025 1424.29696,153.395856 1443.7125,152.392842 C1443.7125,118.604561 1450.51458,86.5564479 1441.61025,59.7288423 C1434.16783,37.2637437 1409.69001,6.15822254 1390.46778,4.44222254 C1317.59006,-2.07132676 1243.79412,1.81988451 1169.44241,1.81988451 L1169.44241,384.644983 Z M835.403404,1.51777183 L835.403404,380.765856 L896.996678,380.765856 L896.996678,84.3812366 L1061.18903,84.3812366 L1061.18903,384.403293 C1084.61573,382.554363 1101.69947,381.212983 1120.97002,379.70242 C1120.97002,273.262082 1124.35294,170.712955 1118.40867,68.6955465 C1117.0555,45.3361944 1085.34065,6.76244789 1064.52362,4.58723662 C989.604062,-3.23143944 913.379667,1.51777183 835.403404,1.51777183 L835.403404,1.51777183 Z M2143.57785,197.649321 L2143.81949,197.649321 C2143.81949,157.528758 2145.24515,117.347772 2143.45703,77.3118 C2141.24606,27.620307 2116.53867,-0.403664789 2063.63225,0.671856338 C2015.52232,1.66278592 1967.36406,1.44526479 1919.24205,0.720194366 C1869.62189,-0.0169605634 1842.6552,26.6898 1841.0604,73.045969 C1838.23324,155.184363 1838.88566,237.528194 1841.08456,319.714927 C1842.22025,362.54242 1867.71296,384.294532 1911.93253,383.629885 C1966.0713,382.796054 2020.23424,382.771885 2074.37301,383.6178 C2119.65579,384.330786 2141.19773,360.306786 2143.16707,317.986842 C2145.03976,277.962955 2143.57785,237.769885 2143.57785,197.649321 L2143.57785,197.649321 Z M780.551802,383.231096 C780.551802,275.691068 781.155895,177.468194 780.261838,79.2694901 C779.899383,39.3543634 764.180895,4.58723662 720.070059,2.67788451 C640.5594,-0.778284507 560.807105,1.69903944 479.399596,1.69903944 L479.399596,79.5716028 L713.48545,79.5716028 L713.48545,153.347518 C657.413582,153.347518 605.413297,154.604307 553.509667,152.984983 C506.269632,151.498589 477.406091,174.289969 479.194205,219.268504 C481.417265,275.243941 449.666162,343.001772 522.314329,380.681265 C527.316215,383.279434 534.094133,383.122335 540.050486,383.13442 C617.881767,383.279434 695.713048,383.231096 780.551802,383.231096 L780.551802,383.231096 Z M1555.0105,231.389265 L1633.6996,231.389265 C1659.82056,231.37718 1686.00193,230.325828 1712.06248,231.606786 C1754.24022,233.661152 1786.54709,216.960363 1790.667,174.483321 C1798.76184,91.0035465 1801.55275,29.9767859 1755.13428,8.18841972 C1744.67139,3.27002535 1731.92504,1.50568732 1720.19356,1.34858873 C1667.95164,0.635602817 1615.69764,1.38484225 1563.44364,0.937715493 C1516.19152,0.538926761 1491.53246,25.4813493 1490.52967,70.6048986 C1488.75364,150.942701 1488.94694,231.37718 1490.48134,311.739152 C1491.19417,349.2978 1507.83088,380.790025 1549.71865,382.240166 C1623.47835,384.802082 1697.39511,382.953152 1773.60743,382.953152 L1773.60743,303.050392 L1555.0105,303.050392 L1555.0105,231.389265 Z M420.162283,380.56042 C420.162283,273.225828 422.784044,168.549828 417.975468,64.2242789 C416.996838,43.1126451 388.616571,6.30323662 371.677817,5.61441972 C247.971749,0.563095775 123.963635,2.89540563 0.00384875445,2.89540563 L0.00384875445,380.282476 L60.0144004,380.282476 L60.0144004,82.9673493 L177.425824,82.9673493 L177.425824,380.886701 L241.616696,380.886701 L241.616696,82.8465042 L358.907301,82.8465042 L358.907301,380.56042 L420.162283,380.56042 Z" id="Fill-1" fill="#FDFDFE" mask="url(#mask-2)"></path>
            </g>
            <path d="M1659.51587,656.253392 L1598.24881,656.253392 L1598.24881,358.539476 L1480.97028,358.539476 L1480.97028,656.567589 L1416.77941,656.567589 L1416.77941,358.660321 L1299.35591,358.660321 L1299.35591,655.963363 L1239.35744,655.963363 L1239.35744,278.576293 C1363.31722,278.576293 1487.32534,276.256068 1611.0314,281.295307 C1627.95808,281.996208 1656.35043,318.805617 1657.32906,339.917251 C1662.13763,444.2428 1659.51587,548.906715 1659.51587,656.253392" id="Fill-4" fill="#324E94"></path>
            <path d="M2794.36288,507.074986 L2794.36288,578.736113 L3012.9598,578.736113 L3012.9598,658.638873 C2936.73541,658.638873 2862.83073,660.487803 2789.07103,657.925887 C2747.18326,656.475746 2730.54655,624.983521 2729.83372,587.424873 C2728.29932,507.062901 2728.10601,426.628423 2729.88205,346.29062 C2730.87276,301.16707 2755.53181,276.224648 2802.79601,276.623437 C2855.03794,277.070563 2907.30402,276.333408 2959.53386,277.03431 C2971.27742,277.191408 2984.02377,278.955746 2994.47457,283.874141 C3040.90512,305.674592 3038.10214,366.689268 3030.01938,450.169042 C3025.89947,492.646085 2993.5926,509.346873 2951.41486,507.292507 C2925.35431,506.011549 2899.17294,507.074986 2873.05198,507.074986 L2794.36288,507.074986 Z M2794.18165,425.371634 L2968.51068,425.371634 L2968.51068,357.831324 L2794.18165,357.831324 L2794.18165,425.371634 Z" id="Fill-6" fill="#2E4B92"></path>
            <path d="M2019.90418,658.916817 C1935.06543,658.916817 1857.23415,658.977239 1779.40286,658.820141 C1773.44651,658.808056 1766.66859,658.965155 1761.66671,656.366986 C1689.01854,618.687493 1720.76964,550.929662 1718.54658,494.954225 C1716.75847,449.987775 1745.60993,427.18431 1792.86205,428.670704 C1844.76568,430.290028 1896.75388,429.033239 1952.82575,429.033239 L1952.82575,355.257324 L1718.73989,355.257324 L1718.73989,277.384761 C1800.1474,277.384761 1879.91178,274.907437 1959.41036,278.363606 C2003.53327,280.272958 2019.25176,315.040085 2019.61422,354.955211 C2020.50827,453.153915 2019.90418,551.376789 2019.90418,658.916817 Z M1779.84989,579.400761 L1953.82854,579.400761 L1953.82854,508.295521 L1779.84989,508.295521 L1779.84989,579.400761 Z" id="Fill-8" fill="#2F4C93"></path>
            <path d="M3382.91815,473.347127 C3382.91815,513.455606 3384.39214,553.648676 3382.51945,593.684648 C3380.53802,635.992507 3359.00817,660.016507 3313.72539,659.303521 C3259.58662,658.457606 3205.4116,658.481775 3151.27283,659.315606 C3107.06534,659.980254 3081.57263,638.240225 3080.42486,595.400648 C3078.23804,513.226 3077.58562,430.870085 3080.41278,348.743775 C3082.00758,302.375521 3108.97427,275.668761 3158.59443,276.418 C3206.71644,277.130986 3254.8747,277.348507 3302.98463,276.357577 C3355.89105,275.282056 3380.58635,303.318113 3382.80941,352.997521 C3384.59753,393.033493 3383.17187,433.226563 3383.17187,473.347127 L3382.91815,473.347127 Z M3145.31648,578.494423 L3317.90571,578.494423 L3317.90571,358.254282 L3145.31648,358.254282 L3145.31648,578.494423 Z" id="Fill-9" fill="#314D93"></path>
            <path d="M2074.75699,277.208327 C2152.73325,277.208327 2228.95765,272.459115 2303.8772,280.277792 C2324.68215,282.453003 2356.39701,321.026749 2357.76226,344.386101 C2363.69445,446.391425 2360.31153,548.952637 2360.31153,655.392975 C2341.05306,656.903538 2323.96932,658.244918 2300.53053,660.093848 L2300.53053,360.071792 L2136.33818,360.071792 L2136.33818,656.444327 L2074.75699,656.444327 L2074.75699,277.208327 Z" id="Fill-10" fill="#345095"></path>
            <path d="M2408.79116,660.331913 L2408.79116,277.506814 C2483.14287,277.506814 2556.93881,273.615603 2629.81654,280.129152 C2649.03876,281.845152 2673.51659,312.950673 2680.95901,335.415772 C2689.86333,362.243377 2683.06125,394.29149 2683.06125,428.079772 C2663.64572,429.082786 2646.6828,429.964955 2625.43082,431.064645 C2623.21985,406.847293 2621.28675,385.747744 2618.94287,360.10442 L2471.19392,360.10442 L2471.19392,654.205068 C2448.75792,656.404448 2431.97623,658.060025 2408.79116,660.331913" id="Fill-11" fill="#334F94"></path>
            <path d="M987.001407,665.042454 C927.304984,789.065749 837.790553,869.814425 787.058863,845.379552 C736.327173,820.956763 743.600447,700.607158 803.29687,576.583862 C862.993294,452.560566 952.519806,371.81189 1003.23941,396.234679 C1053.9711,420.669552 1046.69783,541.019158 987.001407,665.042454" id="Fill-13" fill="#2B4991"></path>
            <path d="M1134.66095,240.739701 C1104.8067,302.757392 1060.05552,343.119645 1034.68364,330.914293 C1009.32383,318.696856 1012.96047,258.528096 1042.81472,196.510406 C1072.6569,134.492715 1117.42015,94.130462 1142.77996,106.335814 C1168.15184,118.553251 1164.5152,178.722011 1134.66095,240.739701" id="Fill-14" fill="#2B4991"></path>
            <path d="M683.91973,636.655946 C605.327292,763.531186 499.55069,840.304059 447.659142,808.147186 C395.767594,775.990313 417.406189,647.072792 495.998626,520.197552 C574.603146,393.322313 680.379747,316.537355 732.271295,348.706313 C784.162843,380.863186 762.512167,509.780707 683.91973,636.655946" id="Fill-15" fill="#2B4991"></path>
            <path d="M891.802466,196.126118 C852.500206,259.557696 799.617947,297.950175 773.666132,281.87778 C747.726399,265.793301 758.551737,201.334541 797.841915,137.890879 C837.144174,74.4593014 890.026434,36.0668225 915.978249,52.1513014 C941.917982,68.2236958 931.104726,132.694541 891.802466,196.126118" id="Fill-16" fill="#E4AD1F"></path>
            <path d="M311.822897,633.33029 C206.79537,765.522713 77.8216157,837.836403 23.7674164,794.863896 C-30.2988648,751.891389 11.0089822,609.886346 116.036509,477.706008 C221.064036,345.513586 350.03779,273.199896 404.104071,316.172403 C458.15827,359.14491 416.850423,501.137868 311.822897,633.33029" id="Fill-17" fill="#2B4991"></path>
            <path d="M603.452189,165.778296 C550.944466,231.868465 486.451548,268.037394 459.424448,246.539056 C432.385267,225.052803 453.045231,154.056324 505.565036,87.9661549 C558.072758,21.8759859 622.553594,-14.2929437 649.592776,7.19330986 C676.619875,28.6916479 655.959911,99.6881268 603.452189,165.778296" id="Fill-18" fill="#2B4991"></path>
        </g>
    </g>
</svg>