<?xml version="1.0" encoding="UTF-8" standalone="no"?>
<svg width="3384px" height="849px" viewBox="0 0 3384 849" version="1.1" xmlns="http://www.w3.org/2000/svg" xmlns:xlink="http://www.w3.org/1999/xlink">
    <!-- Generator: Sketch 3.8.3 (29802) - http://www.bohemiancoding.com/sketch -->
    <title>manreo</title>
    <desc>Created with Sketch.</desc>
    <defs></defs>
    <g id="Page-1" stroke="none" stroke-width="1" fill="none" fill-rule="evenodd">
        <g id="manreo" transform="translate(0.000000, -1.000000)">
            <path d="M1659.51587,656.253392 L1598.24881,656.253392 L1598.24881,358.539476 L1480.97028,358.539476 L1480.97028,656.567589 L1416.77941,656.567589 L1416.77941,358.660321 L1299.35591,358.660321 L1299.35591,655.963363 L1239.35744,655.963363 L1239.35744,278.576293 C1363.31722,278.576293 1487.32534,276.256068 1611.0314,281.295307 C1627.95808,281.996208 1656.35043,318.805617 1657.32906,339.917251 C1662.13763,444.2428 1659.51587,548.906715 1659.51587,656.253392" id="Fill-4" fill="#324E94"></path>
            <path d="M2794.36288,507.074986 L2794.36288,578.736113 L3012.9598,578.736113 L3012.9598,658.638873 C2936.73541,658.638873 2862.83073,660.487803 2789.07103,657.925887 C2747.18326,656.475746 2730.54655,624.983521 2729.83372,587.424873 C2728.29932,507.062901 2728.10601,426.628423 2729.88205,346.29062 C2730.87276,301.16707 2755.53181,276.224648 2802.79601,276.623437 C2855.03794,277.070563 2907.30402,276.333408 2959.53386,277.03431 C2971.27742,277.191408 2984.02377,278.955746 2994.47457,283.874141 C3040.90512,305.674592 3038.10214,366.689268 3030.01938,450.169042 C3025.89947,492.646085 2993.5926,509.346873 2951.41486,507.292507 C2925.35431,506.011549 2899.17294,507.074986 2873.05198,507.074986 L2794.36288,507.074986 Z M2794.18165,425.371634 L2968.51068,425.371634 L2968.51068,357.831324 L2794.18165,357.831324 L2794.18165,425.371634 Z" id="Fill-6" fill="#2E4B92"></path>
            <path d="M2019.90418,658.916817 C1935.06543,658.916817 1857.23415,658.977239 1779.40286,658.820141 C1773.44651,658.808056 1766.66859,658.965155 1761.66671,656.366986 C1689.01854,618.687493 1720.76964,550.929662 1718.54658,494.954225 C1716.75847,449.987775 1745.60993,427.18431 1792.86205,428.670704 C1844.76568,430.290028 1896.75388,429.033239 1952.82575,429.033239 L1952.82575,355.257324 L1718.73989,355.257324 L1718.73989,277.384761 C1800.1474,277.384761 1879.91178,274.907437 1959.41036,278.363606 C2003.53327,280.272958 2019.25176,315.040085 2019.61422,354.955211 C2020.50827,453.153915 2019.90418,551.376789 2019.90418,658.916817 Z M1779.84989,579.400761 L1953.82854,579.400761 L1953.82854,508.295521 L1779.84989,508.295521 L1779.84989,579.400761 Z" id="Fill-8" fill="#2F4C93"></path>
            <path d="M3382.91815,473.347127 C3382.91815,513.455606 3384.39214,553.648676 3382.51945,593.684648 C3380.53802,635.992507 3359.00817,660.016507 3313.72539,659.303521 C3259.58662,658.457606 3205.4116,658.481775 3151.27283,659.315606 C3107.06534,659.980254 3081.57263,638.240225 3080.42486,595.400648 C3078.23804,513.226 3077.58562,430.870085 3080.41278,348.743775 C3082.00758,302.375521 3108.97427,275.668761 3158.59443,276.418 C3206.71644,277.130986 3254.8747,277.348507 3302.98463,276.357577 C3355.89105,275.282056 3380.58635,303.318113 3382.80941,352.997521 C3384.59753,393.033493 3383.17187,433.226563 3383.17187,473.347127 L3382.91815,473.347127 Z M3145.31648,578.494423 L3317.90571,578.494423 L3317.90571,358.254282 L3145.31648,358.254282 L3145.31648,578.494423 Z" id="Fill-9" fill="#314D93"></path>
            <path d="M2074.75699,277.208327 C2152.73325,277.208327 2228.95765,272.459115 2303.8772,280.277792 C2324.68215,282.453003 2356.39701,321.026749 2357.76226,344.386101 C2363.69445,446.391425 2360.31153,548.952637 2360.31153,655.392975 C2341.05306,656.903538 2323.96932,658.244918 2300.53053,660.093848 L2300.53053,360.071792 L2136.33818,360.071792 L2136.33818,656.444327 L2074.75699,656.444327 L2074.75699,277.208327 Z" id="Fill-10" fill="#345095"></path>
            <path d="M2408.79116,660.331913 L2408.79116,277.506814 C2483.14287,277.506814 2556.93881,273.615603 2629.81654,280.129152 C2649.03876,281.845152 2673.51659,312.950673 2680.95901,335.415772 C2689.86333,362.243377 2683.06125,394.29149 2683.06125,428.079772 C2663.64572,429.082786 2646.6828,429.964955 2625.43082,431.064645 C2623.21985,406.847293 2621.28675,385.747744 2618.94287,360.10442 L2471.19392,360.10442 L2471.19392,654.205068 C2448.75792,656.404448 2431.97623,658.060025 2408.79116,660.331913" id="Fill-11" fill="#334F94"></path>
            <path d="M987.001407,665.042454 C927.304984,789.065749 837.790553,869.814425 787.058863,845.379552 C736.327173,820.956763 743.600447,700.607158 803.29687,576.583862 C862.993294,452.560566 952.519806,371.81189 1003.23941,396.234679 C1053.9711,420.669552 1046.69783,541.019158 987.001407,665.042454" id="Fill-13" fill="#2B4991"></path>
            <path d="M1134.66095,240.739701 C1104.8067,302.757392 1060.05552,343.119645 1034.68364,330.914293 C1009.32383,318.696856 1012.96047,258.528096 1042.81472,196.510406 C1072.6569,134.492715 1117.42015,94.130462 1142.77996,106.335814 C1168.15184,118.553251 1164.5152,178.722011 1134.66095,240.739701" id="Fill-14" fill="#2B4991"></path>
            <path d="M683.91973,636.655946 C605.327292,763.531186 499.55069,840.304059 447.659142,808.147186 C395.767594,775.990313 417.406189,647.072792 495.998626,520.197552 C574.603146,393.322313 680.379747,316.537355 732.271295,348.706313 C784.162843,380.863186 762.512167,509.780707 683.91973,636.655946" id="Fill-15" fill="#2B4991"></path>
            <path d="M891.802466,196.126118 C852.500206,259.557696 799.617947,297.950175 773.666132,281.87778 C747.726399,265.793301 758.551737,201.334541 797.841915,137.890879 C837.144174,74.4593014 890.026434,36.0668225 915.978249,52.1513014 C941.917982,68.2236958 931.104726,132.694541 891.802466,196.126118" id="Fill-16" fill="#E4AD1F"></path>
            <path d="M311.822897,633.33029 C206.79537,765.522713 77.8216157,837.836403 23.7674164,794.863896 C-30.2988648,751.891389 11.0089822,609.886346 116.036509,477.706008 C221.064036,345.513586 350.03779,273.199896 404.104071,316.172403 C458.15827,359.14491 416.850423,501.137868 311.822897,633.33029" id="Fill-17" fill="#2B4991"></path>
            <path d="M603.452189,165.778296 C550.944466,231.868465 486.451548,268.037394 459.424448,246.539056 C432.385267,225.052803 453.045231,154.056324 505.565036,87.9661549 C558.072758,21.8759859 622.553594,-14.2929437 649.592776,7.19330986 C676.619875,28.6916479 655.959911,99.6881268 603.452189,165.778296" id="Fill-18" fill="#2B4991"></path>
        </g>
    </g>
</svg>