<?xml version="1.0" encoding="UTF-8" standalone="no"?>
<svg width="9675px" height="6796px" viewBox="0 0 9675 6796" version="1.1" xmlns="http://www.w3.org/2000/svg" xmlns:xlink="http://www.w3.org/1999/xlink">
    <!-- Generator: Sketch 3.8.3 (29802) - http://www.bohemiancoding.com/sketch -->
    <title>pickup</title>
    <desc>Created with Sketch.</desc>
    <defs></defs>
    <g id="Page-1" stroke="none" stroke-width="1" fill="none" fill-rule="evenodd">
        <g id="pickup" transform="translate(0.000000, -1.000000)">
            <g id="Group-3" transform="translate(0.000000, 4466.792433)" fill="#A30050">
                <path d="M180.327553,623.000345 C180.327553,835.652145 211.067073,953.505239 282.812174,1012.40246 C351.976093,1073.88082 482.648384,1094.38339 777.255002,1094.38339 C1117.9709,1094.38339 1238.37713,1068.74785 1304.9892,979.111449 C1351.09848,915.051928 1374.15312,802.331808 1374.15312,623.000345 C1374.15312,412.929697 1343.4136,295.076603 1271.69783,236.179387 C1202.50458,174.701019 1071.86162,154.198452 766.988941,154.198452 C257.176353,154.198452 180.327553,215.676821 180.327553,623.000345 L180.327553,623.000345 Z M182.879403,18.4239438 L182.879403,197.755407 C257.176353,46.6113066 400.666554,0.473198756 790.043581,0.473198756 C1148.71042,0.473198756 1317.80711,33.793536 1417.71055,120.907446 C1522.74702,213.095668 1566.30445,361.717278 1566.30445,625.581498 C1566.30445,886.864565 1522.74702,1035.48617 1417.71055,1127.6744 C1317.80711,1214.78831 1148.71042,1248.10864 790.043581,1248.10864 C398.085373,1248.10864 259.757534,1201.97054 182.879403,1050.82644 L182.879403,1742.54608 L0.994133679,1742.54608 L0.994133679,18.4239438 L182.879403,18.4239438 Z" id="Fill-1"></path>
            </g>
            <path d="M1942.86943,5696.95913 L2124.7547,5696.95913 L2124.7547,4485.19584 L1942.86943,4485.19584 L1942.86943,5696.95913 Z M1942.86943,4195.75475 L2124.7547,4195.75475 L2124.7547,3972.86633 L1942.86943,3972.86633 L1942.86943,4195.75475 Z" id="Fill-4" fill="#A30050"></path>
            <path d="M4020.50312,5253.75172 C4012.81824,5420.29474 3989.7636,5486.87675 3923.15153,5563.72471 C3820.66691,5679.02598 3659.28443,5714.89814 3257.06016,5714.89814 C2900.97451,5714.89814 2739.5627,5684.15896 2644.79229,5594.4639 C2542.30767,5502.27567 2501.33142,5353.65406 2501.33142,5089.78984 C2501.33142,4828.50678 2542.30767,4679.9145 2644.79229,4587.69695 C2739.5627,4498.00188 2900.97451,4467.29203 3254.50832,4467.29203 C3615.727,4467.29203 3777.10948,4498.00188 3877.01292,4587.69695 C3956.4429,4659.41193 3994.8673,4749.07766 4002.55218,4884.85217 L4002.55218,4910.48771 L3802.7453,4910.48771 L3802.7453,4884.85217 C3800.16412,4802.87124 3779.69066,4749.07766 3728.44835,4705.55004 C3656.70325,4638.90937 3543.9819,4620.98795 3236.55737,4620.98795 C2921.44797,4620.98795 2824.09638,4644.04234 2757.48431,4738.81171 C2713.95621,4800.31941 2693.45342,4915.62069 2693.45342,5089.78984 C2693.45342,5302.44164 2721.64109,5417.71359 2788.25316,5479.22129 C2859.96893,5545.8033 2954.76867,5561.17289 3262.16386,5561.17289 C3605.49027,5561.17289 3710.52674,5535.53735 3779.69066,5435.635 C3810.43018,5392.10738 3820.66691,5345.9986 3823.21876,5253.75172 L4020.50312,5253.75172 Z" id="Fill-6" fill="#A30050"></path>
            <polygon id="Fill-7" fill="#A30050" points="4363.71807 3972.85753 4545.60334 3972.85753 4545.60334 4971.96901 4650.63981 4971.96901 5414.08277 4485.21638 5718.92612 4485.21638 4835.07693 5048.81698 5803.48913 5696.95033 5503.74948 5696.95033 4650.63981 5125.66494 4545.60334 5125.66494 4545.60334 5696.95033 4363.71807 5696.95033"></polygon>
            <path d="M7581.37144,5696.9562 L7150.98883,5696.9562 L7150.98883,5420.27421 C7092.06164,5653.42857 6961.38935,5725.14356 6600.19999,5725.14356 C6323.48565,5725.14356 6169.78805,5676.45363 6067.33276,5556.04872 C5987.90278,5463.83116 5957.16326,5348.52989 5957.16326,5135.90742 L5957.16326,4500.59184 L6397.7826,4500.59184 L6397.7826,5117.98601 C6397.7826,5333.18963 6464.424,5381.85023 6771.8192,5381.85023 C7056.21842,5381.85023 7140.7521,5305.00227 7140.7521,5041.13805 L7140.7521,4500.59184 L7581.37144,4500.59184 L7581.37144,5696.9562 Z" id="Fill-8" fill="#97B3DC"></path>
            <path d="M8470.31553,4848.98588 C8419.10255,4892.54283 8401.18094,4956.60236 8401.18094,5110.29828 C8401.18094,5358.79291 8449.84207,5392.11324 8836.66724,5392.11324 C9046.74018,5392.11324 9110.8004,5381.84729 9154.3285,5340.87149 C9205.57081,5294.73338 9220.96991,5230.70319 9220.96991,5082.11091 C9220.96991,4848.98588 9156.90968,4800.32528 8841.80028,4800.32528 C8593.2736,4800.32528 8519.00599,4810.5619 8470.31553,4848.98588 L8470.31553,4848.98588 Z M8398.59976,4751.66468 C8460.0788,4518.51032 8552.29736,4472.40154 8959.65466,4472.40154 C9267.07918,4472.40154 9441.27957,4513.40667 9553.97159,4613.30902 C9643.66763,4690.15698 9674.40715,4815.69487 9674.40715,5092.37686 C9674.40715,5384.42845 9638.5346,5512.48883 9533.49813,5599.60274 C9425.90981,5691.82029 9267.07918,5725.14063 8946.83675,5725.14063 C8593.2736,5725.14063 8442.15719,5655.97746 8398.59976,5474.09418 L8398.59976,6217.02624 L7957.95109,6217.02624 L7957.95109,4500.5889 L8398.59976,4500.5889 L8398.59976,4751.66468 Z" id="Fill-9" fill="#97B3DC"></path>
            <path d="M3519.87719,6674.08389 C3520.66915,6706.52429 3542.05188,6712.85984 3645.76843,6712.85984 C3725.72638,6712.85984 3751.06889,6704.14845 3751.06889,6678.04361 C3751.06889,6660.62083 3738.39763,6651.11749 3709.91665,6649.5336 C3696.45344,6647.94971 3677.44656,6647.94971 3641.01671,6647.94971 L3572.93806,6647.94971 C3424.87213,6647.94971 3379.73079,6621.81554 3379.73079,6535.52291 C3379.73079,6475.36445 3403.48939,6438.14305 3449.42268,6424.67999 C3485.8232,6414.38471 3545.2197,6409.63304 3631.51327,6409.63304 C3748.69303,6409.63304 3795.41827,6415.17665 3828.65098,6433.39138 C3857.16129,6448.43833 3869.04059,6472.98861 3871.41645,6520.47596 L3728.10224,6520.47596 C3724.93443,6499.09345 3707.51146,6494.34179 3633.88913,6494.34179 C3547.59556,6494.34179 3520.66915,6501.46929 3520.66915,6525.22763 C3520.66915,6548.19402 3536.50821,6552.94569 3610.13053,6552.94569 L3705.92755,6552.94569 C3850.03371,6552.94569 3890.42333,6578.25859 3890.42333,6669.33222 C3890.42333,6731.07457 3867.45669,6765.92013 3816.80101,6780.96708 C3779.5792,6792.02498 3717.83618,6796.80597 3614.0903,6796.80597 C3499.28641,6796.80597 3461.27265,6792.02498 3426.45604,6773.81025 C3392.40205,6756.4168 3376.56298,6724.76834 3375.77103,6674.08389 L3519.87719,6674.08389 Z" id="Fill-10" fill="#A30050"></path>
            <path d="M4338.69822,6556.90248 C4337.90626,6503.84219 4319.69134,6494.33885 4221.51846,6494.33885 C4163.73521,6494.33885 4139.97661,6499.09052 4125.72145,6512.55358 C4115.42606,6522.84886 4110.67434,6535.51997 4110.67434,6551.35887 L4110.67434,6556.90248 L4338.69822,6556.90248 Z M4470.92508,6670.12123 C4470.13313,6724.76541 4454.29406,6754.03803 4414.6964,6772.25276 C4380.67174,6788.88359 4335.5304,6794.42721 4236.56558,6794.42721 C4115.42606,6794.42721 4063.15714,6785.71582 4025.96467,6759.58164 C3987.15896,6731.07164 3972.11184,6689.1279 3972.11184,6607.58694 C3972.11184,6504.66346 3994.28654,6454.77095 4051.30717,6431.01261 C4085.33183,6416.78694 4127.30536,6412.03527 4224.68628,6412.03527 C4352.95338,6412.03527 4396.51081,6419.92539 4429.74351,6450.81123 C4460.62969,6479.29191 4470.92508,6513.37486 4470.92508,6589.34288 L4470.92508,6629.73205 L4110.67434,6629.73205 C4111.46629,6703.35357 4124.9295,6712.0943 4239.73339,6712.0943 C4314.14767,6712.0943 4333.9465,6703.35357 4337.11431,6670.12123 L4470.92508,6670.12123 Z" id="Fill-11" fill="#A30050"></path>
            <path d="M4571.63221,6418.35323 L4702.27517,6418.35323 L4702.27517,6500.68614 C4717.29295,6459.50502 4724.42053,6449.23907 4741.8435,6436.56796 C4764.81014,6419.11585 4805.99171,6409.64184 4854.27153,6409.64184 C4913.66803,6409.64184 4956.43351,6424.68879 4977.78691,6453.16946 C4994.41793,6474.55197 5000.72423,6505.43781 5000.72423,6560.8446 L5000.72423,6581.4645 L4873.27841,6581.4645 L4872.48646,6575.89155 L4872.48646,6571.13988 C4872.48646,6533.15587 4851.10372,6516.52504 4800.41871,6516.52504 C4760.85038,6516.52504 4734.71592,6527.61226 4720.46076,6551.34127 C4710.95732,6566.41755 4707.81884,6582.22711 4707.81884,6617.86462 L4707.81884,6788.07405 L4571.63221,6788.07405 L4571.63221,6418.35323 Z" id="Fill-12" fill="#A30050"></path>
            <polygon id="Fill-13" fill="#A30050" points="5043.64516 6418.35323 5198.04672 6418.35323 5315.98909 6685.17991 5434.75275 6418.35323 5587.5704 6418.35323 5406.24243 6788.07405 5226.5277 6788.07405"></polygon>
            <path d="M5664.52186,6788.08285 L5800.70849,6788.08285 L5800.70849,6418.36203 L5664.52186,6418.36203 L5664.52186,6788.08285 Z M5664.52186,6358.96618 L5800.70849,6358.96618 L5800.70849,6260.00244 L5664.52186,6260.00244 L5664.52186,6358.96618 Z" id="Fill-14" fill="#A30050"></path>
            <path d="M6273.42247,6560.05266 C6270.25466,6519.69281 6247.28801,6510.18948 6155.4801,6510.18948 C6058.8618,6510.18948 6038.27101,6526.02837 6038.27101,6602.81767 C6038.27101,6648.72113 6049.35836,6674.09269 6073.90891,6686.73447 C6086.58016,6692.27808 6114.26919,6695.44586 6160.20248,6695.44586 C6249.66387,6695.44586 6272.63052,6685.17991 6276.59028,6643.96946 L6415.9154,6643.96946 C6414.36082,6762.73182 6360.53733,6795.9935 6165.74616,6795.9935 C6049.35836,6795.9935 5989.99119,6785.69822 5954.3533,6758.00949 C5917.92345,6731.08337 5901.29243,6683.56669 5901.29243,6605.98545 C5901.29243,6519.69281 5920.29931,6468.21641 5961.48088,6441.2903 C5995.50553,6419.93712 6056.48594,6409.64184 6157.85596,6409.64184 C6358.16147,6409.64184 6410.40106,6440.52768 6411.98496,6560.05266 L6273.42247,6560.05266 Z" id="Fill-15" fill="#A30050"></path>
            <path d="M6867.38743,6556.90248 C6866.59548,6503.84219 6848.38055,6494.33885 6750.20768,6494.33885 C6692.39509,6494.33885 6668.66582,6499.09052 6654.38133,6512.55358 C6644.11527,6522.84886 6639.36355,6535.51997 6639.36355,6551.35887 L6639.36355,6556.90248 L6867.38743,6556.90248 Z M6999.61429,6670.12123 C6998.79301,6724.76541 6982.95394,6754.03803 6943.38561,6772.25276 C6909.36095,6788.88359 6864.21962,6794.42721 6765.25479,6794.42721 C6644.11527,6794.42721 6591.84635,6785.71582 6554.65388,6759.58164 C6515.84817,6731.07164 6500.80106,6689.1279 6500.80106,6607.58694 C6500.80106,6504.66346 6522.97575,6454.77095 6579.96705,6431.01261 C6614.02104,6416.78694 6655.99457,6412.03527 6753.34616,6412.03527 C6881.61326,6412.03527 6925.17069,6419.92539 6958.43272,6450.81123 C6989.28957,6479.29191 6999.61429,6513.37486 6999.61429,6589.34288 L6999.61429,6629.73205 L6639.36355,6629.73205 C6640.1555,6703.35357 6653.61871,6712.0943 6768.39327,6712.0943 C6842.83688,6712.0943 6862.63571,6703.35357 6865.77419,6670.12123 L6999.61429,6670.12123 Z" id="Fill-16" fill="#A30050"></path>
            <path d="M7226.21266,6674.08389 C7226.97528,6706.52429 7248.38735,6712.85984 7352.07457,6712.85984 C7432.06185,6712.85984 7457.40435,6704.14845 7457.40435,6678.04361 C7457.40435,6660.62083 7444.70377,6651.11749 7416.22278,6649.5336 C7402.75958,6647.94971 7383.7527,6647.94971 7347.35218,6647.94971 L7279.27353,6647.94971 C7131.2076,6647.94971 7086.06626,6621.81554 7086.06626,6535.52291 C7086.06626,6475.36445 7109.79553,6438.14305 7155.75815,6424.67999 C7192.15867,6414.38471 7251.52583,6409.63304 7337.84874,6409.63304 C7455.02849,6409.63304 7501.75374,6415.17665 7534.95711,6433.39138 C7563.49676,6448.43833 7575.34673,6472.98861 7577.72259,6520.47596 L7434.43771,6520.47596 C7431.26989,6499.09345 7413.81759,6494.34179 7340.2246,6494.34179 C7253.90169,6494.34179 7226.97528,6501.46929 7226.97528,6525.22763 C7226.97528,6548.19402 7242.81435,6552.94569 7316.466,6552.94569 L7412.26302,6552.94569 C7556.36918,6552.94569 7596.72947,6578.25859 7596.72947,6669.33222 C7596.72947,6731.07457 7573.79215,6765.92013 7523.10714,6780.96708 C7485.91467,6792.02498 7424.14231,6796.80597 7320.42577,6796.80597 C7205.62187,6796.80597 7167.60812,6792.02498 7132.76217,6773.81025 C7098.70818,6756.4168 7082.89845,6724.76834 7082.10649,6674.08389 L7226.21266,6674.08389 Z" id="Fill-17" fill="#A30050"></path>
            <path d="M7178.6632,2560.14269 L6555.36664,1614.20882 L6643.36145,829.597006 L7405.98312,1768.19806 L7178.6632,2560.14269 Z M7955.95067,0.988267487 L6548.03374,499.620075 L6430.70733,1658.20575 L7193.329,2860.78834 L8498.58532,2193.50166 L8960.55807,1152.24112 L7955.95067,0.988267487 Z" id="Fill-18" fill="#97B3DC"></path>
            <polygon id="Fill-19" fill="#A1004D" points="6804.68526 2266.82986 6944.01037 1841.52626 6562.69954 1973.51704 5880.73977 2032.1796 5829.40947 2127.50627 5521.42764 1973.51704 4509.48734 2127.50627 4260.16872 2560.14269 5037.45619 2325.49243 4832.13497 2860.78834 4949.46138 3088.10578 4663.47826 3249.42784 4304.16612 3513.40938 4861.46657 4019.37401 4861.46657 3660.0658 5455.43153 3432.74835 5858.74107 3557.40631 6056.72939 3880.05042 6643.36145 3432.74835 6284.04931 3432.74835 6020.06489 2956.11501 5770.74626 2956.11501 6122.7255 2428.15192"></polygon>
            <path d="M5822.07657,1873.46216 C5965.27345,1873.46216 6081.3386,1757.39828 6081.3386,1614.20295 C6081.3386,1471.03696 5965.27345,1354.94375 5822.07657,1354.94375 C5678.87968,1354.94375 5562.81453,1471.03696 5562.81453,1614.20295 C5562.81453,1757.39828 5678.87968,1873.46216 5822.07657,1873.46216" id="Fill-20" fill="#A1004D"></path>
        </g>
    </g>
</svg>