<?xml version="1.0" encoding="UTF-8" standalone="no"?>
<svg width="2038px" height="609px" viewBox="0 0 2038 609" version="1.1" xmlns="http://www.w3.org/2000/svg" xmlns:xlink="http://www.w3.org/1999/xlink">
    <!-- Generator: Sketch 3.8.3 (29802) - http://www.bohemiancoding.com/sketch -->
    <title>realviz</title>
    <desc>Created with Sketch.</desc>
    <defs></defs>
    <g id="Page-1" stroke="none" stroke-width="1" fill="none" fill-rule="evenodd">
        <g id="realviz" transform="translate(-1.000000, 0.000000)">
            <g id="Group-3" transform="translate(0.000000, 0.371544)" fill="#F40B0C">
                <path d="M66.945495,281.403266 C118.245245,325.093646 169.011195,369.42757 220.970345,412.317443 C282.302395,462.945544 345.235845,511.635165 405.971295,562.953899 C415.249995,570.794152 416.403945,588.248329 421.318045,601.252633 C403.647695,603.308835 382.570445,612.365544 369.091995,605.804532 C347.787095,595.43719 330.893895,575.298962 313.317745,558.088076 C227.642845,474.168329 142.336895,389.864025 56.960295,305.646051 C20.677595,269.858709 21.548945,255.794911 70.368095,238.740987 C150.147645,210.856684 231.850445,188.520987 312.469945,162.959722 C358.345345,148.41719 404.110845,133.223266 448.910795,115.729848 C458.699745,111.907823 468.786995,97.5771899 469.980195,87.0921266 C470.741645,80.382 456.768645,68.4921266 447.120995,64.6544051 C335.242795,20.1164304 220.044045,23.6009873 104.813895,46.517443 C85.181045,50.4179494 69.426095,71.5057975 50.507595,82.2341519 C39.085845,88.7088354 25.191345,91.5812405 12.019045,93.6609873 C8.933995,94.1475696 -0.015005,82.4617468 1.091845,80.4761772 C7.662295,68.6883291 14.201345,52.1366835 24.814545,48.2361772 C57.564745,36.1971899 91.672995,24.7232658 126.110945,21.0346582 C213.936745,11.6169367 302.170745,5.26782278 390.389045,0.606050633 C413.012745,-0.594708861 436.853195,6.96301266 458.990195,14.0498481 C498.695495,26.7637722 522.575195,58.9017468 521.735245,94.4614937 C520.738295,136.652886 493.914845,158.556937 457.443745,168.068835 C378.158745,188.75643 298.057345,206.304785 218.583945,226.278203 C168.846345,238.77238 119.642545,253.346304 70.195395,266.978456 C69.112095,271.789342 68.028795,276.59238 66.945495,281.403266" id="Fill-1"></path>
            </g>
            <g id="Group-17" transform="translate(413.000000, 269.371544)">
                <path d="M16.298355,58.142 L32.367305,58.142 C49.150605,58.142 59.803055,48.9440253 59.803055,35.045038 C59.803055,19.3409873 48.428405,12.4895949 31.825655,12.4895949 C24.242555,12.4895949 19.006605,13.0232658 16.298355,13.7452911 L16.298355,58.142 L16.298355,58.142 Z M0.598355,2.74225316 C8.534705,1.29820253 20.089905,0.215164557 30.742355,0.215164557 C47.533505,0.215164557 58.539205,3.46427848 65.941755,10.1430127 C71.899905,15.5503544 75.503055,23.8536456 75.503055,33.420481 C75.503055,49.305038 65.400105,59.9470633 52.761605,64.2792152 L52.761605,64.8207342 C61.969655,68.0698481 67.566705,76.7341519 70.447655,89.3695949 C74.419755,106.329342 77.308555,118.062253 79.836255,122.74757 L63.594605,122.74757 C61.608555,119.137443 58.900305,108.85643 55.650405,93.6938987 C52.039405,76.9146582 45.359055,70.5969367 31.103455,70.0554177 L16.298355,70.0554177 L16.298355,122.74757 L0.598355,122.74757 L0.598355,2.74225316 L0.598355,2.74225316 Z" id="Fill-4" fill="#000000"></path>
                <polygon id="Fill-6" fill="#000000" points="332.06853 65.7216962 284.95283 65.7216962 284.95283 109.576886 337.66558 109.576886 337.66558 122.753848 269.07228 122.753848 269.07228 1.11612658 334.95733 1.11612658 334.95733 14.2930886 284.95283 14.2930886 284.95283 52.7330886 332.06853 52.7330886"></polygon>
                <path d="M589.351495,72.2207089 L577.254645,37.2103291 C574.546395,29.2680506 572.748745,22.0477975 570.943245,15.0080506 L570.574295,15.0080506 C568.768795,22.0477975 566.971145,29.6290633 564.443445,37.0298228 L552.527145,72.2207089 L589.351495,72.2207089 Z M549.277245,84.4872911 L536.646595,122.746785 L520.397095,122.746785 L561.915745,1.11691139 L580.685095,1.11691139 L622.203745,122.746785 L605.412595,122.746785 L592.420845,84.4872911 L549.277245,84.4872911 Z" id="Fill-8" fill="#000000"></path>
                <polygon id="Fill-10" fill="#000000" points="811.43977 1.11691139 827.32032 1.11691139 827.32032 109.577671 879.31087 109.577671 879.31087 122.754633 811.43977 122.754633"></polygon>
                <path d="M1084.42666,122.750709 L1044.53296,1.11298734 L1061.68521,1.11298734 L1080.63511,61.0332405 C1085.69051,77.4514684 1090.19641,92.2529873 1093.63471,106.512987 L1093.99581,106.512987 C1097.41841,92.4334937 1102.29326,77.0904557 1107.89031,61.2137468 L1128.46516,1.11298734 L1145.25631,1.11298734 L1101.75946,122.750709 L1084.42666,122.750709 Z" id="Fill-12" fill="#000000"></path>
                <polygon id="Fill-14" fill="#000000" points="1329.8051 122.748354 1345.68565 122.748354 1345.68565 1.11063291 1329.8051 1.11063291"></polygon>
                <polygon id="Fill-16" fill="#F40B0C" points="1536.34645 113.545671 1603.6759 14.8322532 1603.6759 14.2907342 1542.12405 14.2907342 1542.12405 1.11377215 1624.2586 1.11377215 1624.2586 10.6806076 1557.1097 109.033013 1557.1097 109.574532 1625.1535 109.574532 1625.1535 122.751494 1536.34645 122.751494"></polygon>
            </g>
        </g>
    </g>
</svg>