<?xml version="1.0" encoding="UTF-8"?> <svg xmlns="http://www.w3.org/2000/svg" width="539" height="260" viewBox="0 0 539 260" fill="none"> <path d="M0 0H14.7V70C14.7 89 25.3 104.7 45.7 104.7C66.1 104.7 76.7 89 76.7 70V0H91.4V74.3C91.4 99.5 72.4 118.5 45.3 118.5C19 118.5 0 99.5 0 74.3V0Z" transform="translate(0.817261 0.804932)" fill="#4D9D45"></path> <path d="M118.8 0V116.7H105V0H118.8Z" transform="translate(0.817261 0.804932)" fill="#4D9D45"></path> <path d="M139.5 17.3H153.4V36.7001H166.1V48.8H153.4V107.2H161.8V116.7H139.5V48.8H128.5V36.7001H139.5V17.3Z" transform="translate(0.817261 0.804932)" fill="#4D9D45"></path> <path d="M314.2 67.7C314.2 53.9 306.2 47.7 296.7 47.7C285.2 47.7 276.6 54.9 276.6 68.3V116.7H262.8V67.7C262.8 53.9 254.8 47.7 245.3 47.7C233.8 47.7 225.2 54.9 225.2 68.3V107.2H233.6V116.6H211.3V36.5999H225.1V46.0999H225.4C229.1 37.9999 239.1 34.7 247.5 34.7C255.6 34.7 264.5 36.8 271.1 48.5C276 38.4 286.6 34.7 297.2 34.7C314.4 34.7 327.9 45 327.9 66V107.1H336.3V116.5H314.1V67.7H314.2Z" transform="translate(0.817261 0.804932)" fill="#4D9D45"></path> <path d="M397.4 63.0999C397.4 49.8999 384.2 46.9999 373.5 46.9999C366 46.9999 358.9 48.7999 351.4 52.4999L345.4 40.9999C357.5 35.8999 367 34.8999 374.3 34.8999C393.5 34.8999 411.3 42.9999 411.3 62.0999V107.3H419.7V116.7H398.4V108.1C391.3 115.5 383.5 118.5 372.9 118.5C353.4 118.5 338.1 107.6 338.1 89.7999C338.1 75.1999 350.5 62.2999 372.8 62.2999C381.2 62.2999 390.1 64.7999 397.5 71.3999V63.0999H397.4ZM375.3 74.4999C358.4 74.4999 352.7 82.5999 352.7 90.4999C352.7 98.3999 358.4 106.5 375.3 106.5C389 106.5 397.2 98.3999 397.2 98.7999C397.2 98.7999 397.2 91.9999 397.2 90.5999C397.2 89.0999 397.2 83.1999 397.2 83.1999C397.2 83.1999 389.1 74.4999 375.3 74.4999Z" transform="translate(0.817261 0.804932)" fill="#4D9D45"></path> <path d="M429 17.3H442.9V36.7001H455.6V48.8H442.9V107.2H451.3V116.7H429V48.8H418V36.7001H429V17.3Z" transform="translate(0.817261 0.804932)" fill="#4D9D45"></path> <path d="M534 101.2C523.3 113.2 511.9 118.5 497.9 118.5C469.5 118.5 454.3 97.9001 454.3 76.6001C454.3 53.9001 470.6 34.8 495.6 34.8C520.3 34.8 537.5 53.7001 537.5 81.9001H469C471.2 95.6001 482.2 105.5 497.7 105.5C507.5 105.5 516.3 100.9 523.3 92.6001L534 101.2ZM521.9 70.6001C520.5 57.4001 509.8 47.7001 495.5 47.7001C478.6 47.7001 470.5 59.7001 469.1 70.6001H521.9Z" transform="translate(0.817261 0.804932)" fill="#4D9D45"></path> <path d="M318.8 220.9C318.6 219.8 318.4 218.4 319 218C319.8 217.6 320.5 217.4 321.2 217.4C322.5 217.4 322.9 218 322.9 219.4C322.6 224.2 322.3 229.1 322.2 233.9C322.1 235.9 322.5 237.7 322.7 239.7C322.8 240.8 322.6 241.2 321.5 241.3C319.5 241.6 318.6 240.7 318.6 238.7C318.8 233.6 318.9 228.8 319.1 223.7C319 222.9 318.9 222 318.8 220.9Z" transform="translate(0.817261 0.804932)" fill="#4D9D45"></path> <path d="M316.2 221.6C313.7 222 312.2 222.5 309.8 223C309.5 223.1 308.3 223.3 308.3 223.3C308.3 227.3 308.2 231.8 308.3 235.8C308.3 236.3 308.5 236.9 308.7 237.4C308.8 237.6 309.6 238.5 309.2 239.5C308.7 240.7 307.6 241.2 306.3 241.3C305.5 241.4 304.9 241.1 304.8 240.3C304.7 238.2 304.6 236.1 304.6 234C304.6 230.7 304.6 227.4 304.7 224.1C303.4 224.4 302.2 224.7 301 225C299.4 225.4 298.1 224.6 297.7 223.1C297.5 222.2 298 221.5 298.9 221.4C300.8 221.3 302.7 221.2 304.6 221.1C304.7 219.6 304.6 208.9 305.8 203.8C306.7 200.1 310.8 199.2 313.9 200.3C314.8 200.6 317.2 202.2 318.7 205.1C319.6 206.8 317.7 208.2 317 207.4C315.8 206.2 313.8 204.1 312 203.4C311.1 203.1 309.3 203.4 308.9 208C308.5 212.5 308.5 219.9 308.6 220.4C310.7 220.1 312.9 219.7 315 219.4C316.2 219 317.9 221.3 316.2 221.6Z" transform="translate(0.817261 0.804932)" fill="#4D9D45"></path> <path d="M166.5 227.6C165.8 227.8 164.4 228.3 163.3 228C162.1 227.7 161.2 225.7 162.9 225C164 224.5 165.2 224.3 166.4 223.9C166.3 219.5 166.2 214.6 166 210.3C164.7 210.5 163.4 210.9 162.3 210.8C158.2 210.6 159.2 207.8 160.3 207.5C162.1 207 163.2 207 165.1 206.6C165.3 206.6 165.6 206.2 165.6 206C165.7 205 166.3 204.6 167.1 204.5C168 204.3 169.2 203.9 169.8 204.9C170.4 205.8 170.5 205.7 171.4 205.7C174.6 205.4 178.5 204.9 181.7 204.8C184 204.7 186.2 204.9 188.2 206.1C190.4 207.3 191 209.9 189.8 212.4C188.6 214.8 186.8 216.5 184.8 218.2C180.5 221.7 176.1 224.1 171 225.9C170.1 226.2 169.8 226.6 169.9 227.6C170.1 230.6 169.9 238 170 241C170 241.1 170 241.1 170 241.2C170.2 242.8 170 243.2 169 243.5C167.8 243.8 166.3 243 166.1 242C166 241.6 166 241.2 166 240.7C166.1 238.6 166.3 236.4 166.4 234.3C166.5 233.4 166.5 228.4 166.5 227.6ZM175.6 208.1C172.4 208.5 170 209.1 170 209.1C170 209.1 170 218.4 169.8 222.8C174 221.8 180 218.4 183.5 215.2C184.6 214.2 185.7 213 186.5 211.7C187.6 209.7 186.5 207.7 182.9 207.7C182.9 207.6 178.8 207.7 175.6 208.1Z" transform="translate(0.817261 0.804932)" fill="#4D9D45"></path> <path d="M228.6 225C230.2 223.6 231.8 222.2 233.6 220.6C236.3 218.3 239.3 216.6 242.7 215.8C243.9 215.5 245.3 215.5 246.4 215.7C248.2 216 249.1 217.4 249.1 219.4C249.1 222.4 247.8 225 246.1 227.4C242.6 232.1 238.1 235 233.3 237.9C232.5 238.4 231.5 238.5 230.6 238.6C230.2 238.6 229.7 238.2 229.5 237.8C229.4 237.5 229.6 236.8 229.8 236.5C230.1 236.1 230.7 235.8 231.1 235.5C236.2 232.5 240.7 229.4 244.2 224.4C244.8 223.5 245.2 222.5 245.5 221.5C246 219.6 244.9 218.4 243.2 218.9C242 219.2 240.8 219.7 239.7 220.4C235.4 223.1 231.7 225.7 228.7 229.9C228.1 230.7 227.8 231.5 227.8 232.5C227.5 239.6 227.2 246.8 227.7 253.9C227.8 254.8 227.8 255.6 227.7 256.5C227.7 257.3 227.4 258 226.5 258.2C225.4 258.4 224.6 258.1 224.3 257.2C224.1 256.5 224 255.8 224 255.1C224.1 249.8 224.2 244.5 224.4 239.2C224.6 232.7 224.9 226.2 225.2 219.6C225.3 218.1 226 217.2 227.2 216.8C228.7 216.3 229.5 217 229.2 218.6C229.2 220.9 228.9 223.2 228.6 225Z" transform="translate(0.817261 0.804932)" fill="#4D9D45"></path> <path d="M256.9 235.4C257 232.9 258.1 229.7 259.5 227.5C262.3 223.2 265.6 219.3 270 216.6C271 216 272.1 215.5 273.2 215.4C275.3 215.1 276.7 216.6 276.7 218.7C276.7 220.7 275.8 222.5 274.5 224C271.1 227.9 266.8 230.5 261.9 232.1C261.1 232.4 260.8 232.8 260.6 233.5C259.9 236.9 262.2 239.1 265.8 238.5C268.4 238.1 270.6 236.7 272.6 235.1C274.8 233.3 275.8 232.3 277.9 230.5C279.7 228.9 280.5 231 279.6 232C276.1 236 273.7 238.6 269.2 240.7C266.8 241.8 264.5 242.1 262 241.7C258.6 241.1 256.8 238.8 256.9 235.4ZM262 228.8C265.9 227.5 271.4 223.2 273.2 219.8C273.3 219.5 273.2 218.5 272.2 219C268 221.4 265 224.9 262 228.8Z" transform="translate(0.817261 0.804932)" fill="#4D9D45"></path> <path d="M218.8 215.5C214.9 215.3 208.3 217.7 201.9 228.9C201.7 229.2 198.3 233.4 196.2 235.1C194.2 236.7 192 238.1 189.4 238.5C185.8 239.1 183.5 236.9 184.2 233.5C184.4 232.8 184.6 232.4 185.5 232.1C190.4 230.6 194.6 228 198.1 224C199.5 222.5 200.3 220.7 200.3 218.7C200.3 216.6 198.9 215.1 196.8 215.4C195.7 215.5 194.6 216 193.6 216.6C189.2 219.3 185.9 223.2 183.1 227.5C181.7 229.6 180.5 232.9 180.5 235.4C180.5 238.9 182.2 240.9 185.6 241.4C188.1 241.8 190.6 241.3 192.9 240.2C195.8 238.9 197.7 237.1 200 234.9C199.9 235.6 199.9 236.1 199.9 236.5C199.9 239.3 202.1 241.2 204.9 241.5C211.4 242.2 217.6 234.5 220.1 229.6C221.7 226.6 222.8 222.8 222.7 219.8C222.8 217.4 221.2 215.7 218.8 215.5ZM195.8 219.1C196.8 218.6 196.9 219.6 196.8 219.9C195 223.3 189.6 227.5 185.6 228.9C188.7 224.9 191.7 221.4 195.8 219.1ZM219.2 223.2C218 227.8 211.7 236.7 207.6 238C204.4 239.1 203 238.1 203.6 234C204 231.7 205 229.9 206.2 227.9C206.8 226.8 207.4 227.6 208.3 226.2C210.8 222.2 215.9 217.6 218.7 218.9C219.9 219.3 219.5 222.1 219.2 223.2Z" transform="translate(0.817261 0.804932)" fill="#4D9D45"></path> <path d="M361.1 231.5C359 235.1 354.8 237.7 350.8 239.8C349.4 240.6 348 241.3 346.4 241.3C345.6 241.3 345 240.8 344.8 240C344.6 239.2 344.9 238.5 345.7 238C346.1 237.7 346.6 237.5 347.1 237.3C348.4 236.8 349.7 236.4 350.9 235.9C353.5 234.7 355.8 233 357.7 230.8C358.2 230.2 358.3 228.5 356.7 229C354.1 229.7 351.5 230.6 348.9 231.3C346.8 231.9 344.6 232.5 342.4 232.8C339.8 233.2 338.2 231.1 339 228.5C339.7 226.2 341.1 224.2 342.7 222.4C345 220 347.4 217.8 350.2 216.1C351.1 215.5 352.1 215 353.2 214.7C355.1 214.1 357.1 215.3 357.5 217C357.6 217.4 357.6 217.9 357.5 218.3C357.4 218.7 357.1 219.4 356.7 219.5C356.4 219.6 355.7 219.3 355.5 219C354.6 218 353.6 218.1 352.5 218.7C349.7 220.2 347.3 222.3 345.1 224.6C344.1 225.6 343.3 226.8 342.5 227.9C341.9 228.9 342.4 229.7 343.5 229.5C344.9 229.2 346.4 228.9 347.8 228.4C350.7 227.5 353.5 226.6 356.4 225.7C357.1 225.5 357.8 225.5 358.5 225.6C361.3 226 363 228.3 361.1 231.5Z" transform="translate(0.817261 0.804932)" fill="#4D9D45"></path> <path d="M367 221.2C365.6 221.6 364.2 222 362.8 222.4C362.2 222.6 361.5 222.9 361 222.7C360.4 222.5 359.8 222 359.6 221.5C359.3 220.8 360 220.3 360.7 220.1C361.7 219.7 367 218.2 367.1 218C367.4 217.4 367.5 215.1 367.7 214C367.9 212.6 368.1 211.3 368.4 209.9C368.7 208.3 369.5 207.6 370.8 207.7C372 207.7 372.6 208.5 372.4 209.7C372 211.8 371.6 214.6 371.2 216.7C371.2 216.8 371.2 217 371.2 217.2C372.4 217 373.5 216.7 374.6 216.5C376.6 216.1 378 215.6 380 215.2C381 215 382.2 214.8 382.8 215.8C383.1 216.3 382.8 218 381.6 218.5C380.5 218.9 379.3 218.6 378.1 218.8C375.5 219.2 373.5 219.8 370.8 220.3C370.7 224 370.5 227.6 370.4 231.1C370.4 232.7 370.6 235 370.7 236.6C370.8 237.6 371.4 237.9 371.6 238.7C371.8 239.6 371.1 241 369.4 241.3C368 241.5 367.2 240.7 367.2 239C367.2 236.2 367.2 232.7 367.2 229.8C367 227.1 367 224.2 367 221.2Z" transform="translate(0.817261 0.804932)" fill="#4D9D45"></path> <path d="M330.2 223.4C333.8 217.6 340.7 215.5 342.7 216.9C343.4 217.4 342.6 219.3 341.7 219.3C338.2 219.1 333.1 223.5 331.9 227.2C331 229.7 331.6 237.3 331.4 240C331.4 240.4 331 241 330.6 241.2C330 241.6 328.7 241.1 328.4 240.4C328.1 239.7 328 239 328 238.2C328 235.6 328.5 233 328.2 230.5C327.8 227.3 326.9 224.1 326.1 220.9C325.7 219.4 326.1 218.3 327.5 217.8C328.6 217.4 329.3 217.8 329.7 218.7C330.1 219.6 330.2 223.4 330.2 223.4Z" transform="translate(0.817261 0.804932)" fill="#4D9D45"></path> <path d="M255.3 214.6C255.1 218.9 254.8 221.7 254.6 226.6C254.5 231 254.5 235.4 254.4 239.7C254.4 240 254.5 240.2 254.5 240.5C254.7 241.7 254.1 242.3 252.9 242.3C251.3 242.3 250.7 241.6 250.8 240C251.1 230.9 251.5 223.8 251.7 214.7C251.8 211.8 251.9 209.4 251.6 206.5C251.4 203.8 255.5 204.2 255.6 205.6C255.6 206 255.6 206.4 255.6 206.8C255.5 209.2 255.5 211.6 255.3 214.6Z" transform="translate(0.817261 0.804932)" fill="#4D9D45"></path> <path d="M322.889 212.403C323.123 210.874 322.25 209.473 320.94 209.273C319.629 209.073 318.378 210.15 318.144 211.678C317.911 213.207 318.784 214.608 320.094 214.808C321.404 215.009 322.656 213.932 322.889 212.403Z" transform="translate(0.817261 0.804932)" fill="#4D9D45"></path> <path d="M379.104 238.987C379.338 237.458 378.465 236.057 377.155 235.857C375.845 235.657 374.593 236.734 374.36 238.262C374.126 239.791 374.999 241.192 376.309 241.392C377.62 241.593 378.871 240.516 379.104 238.987Z" transform="translate(0.817261 0.804932)" fill="#4D9D45"></path> <path d="M18.2 138.5C17.6 134.3 15.2 131.8 11.4 131.8C6.4 131.8 5.1 135.1 5.1 137.5C5.1 140.1 6.8 141.8 10.2 143.1L14.6 144.8C20.2 146.9 22.8 150.2 22.8 154.4C22.8 160.1 18.3 164.2 11.5 164.2C5.1 164.2 0.6 160.8 0 153.8H4.4C4.8 157.6 6.7 160.3 11.7 160.3C15.5 160.3 18.3 157.9 18.3 154.8C18.3 152.1 16 150.3 12.8 149.1L8.3 147.3C3.1 145.3 0.5 142.2 0.5 137.7C0.5 131.6 5.5 128 11.3 128C17.1 128 21.7 131.5 22.2 138.6H18.2V138.5Z" transform="translate(96.8173 14.0049)" fill="#65656A"></path> <path d="M59.6 127.9C71.5 127.9 78.2 137.3 78.2 146C78.2 154.7 71.5 164.1 59.6 164.1C47.7 164.1 41 154.7 41 146C41 137.3 47.7 127.9 59.6 127.9ZM59.6 160C66.8 160 73.5 154.4 73.5 146C73.5 137.7 66.7 132 59.6 132C52.4 132 45.7 137.6 45.7 146C45.7 154.3 52.5 160 59.6 160Z" transform="translate(96.8173 14.0049)" fill="#65656A"></path> <path d="M98 128.4H116.2V132.6H102.4V143.7H116.2V147.9H102.4V163.6H98V128.4Z" transform="translate(96.8173 14.0049)" fill="#65656A"></path> <path d="M142.1 132.6H133.4V128.4H155.4V132.6H146.6V163.6H142.1V132.6Z" transform="translate(96.8173 14.0049)" fill="#65656A"></path> <path d="M211.8 128.4H216.5L205.7 163.6H202.3L193.8 135.7H193.7L185.3 163.6H181.8L171 128.4H175.7L183.6 155.1H183.7L191.7 128.4H195.8L203.8 155.2H203.9L211.8 128.4Z" transform="translate(96.8173 14.0049)" fill="#65656A"></path> <path d="M254 155.4H237.6L234.4 163.6H229.5L243.8 128.5H247.7L262 163.6H257.1L254 155.4ZM245.8 134.3L239.1 151.5H252.4L245.8 134.3Z" transform="translate(96.8173 14.0049)" fill="#65656A"></path> <path d="M284.7 148.6V163.6H280.3V128.5H290.4C297.2 128.5 302.2 132.4 302.2 139.1C302.2 145.4 297.2 149.3 291.5 149.6L305.2 163.6H299L284.7 148.6ZM284.7 145.9C285.3 145.9 286 145.9 288.6 145.9C295.4 145.9 297.8 142.9 297.8 139.1C297.8 135 295 132.3 290.4 132.3H284.8V145.9H284.7Z" transform="translate(96.8173 14.0049)" fill="#65656A"></path> <path d="M323.3 128.4H341.5V132.6H327.7V143.7H341.5V147.9H327.7V159.4H341.5V163.6H323.3V128.4Z" transform="translate(96.8173 14.0049)" fill="#65656A"></path> <path d="M100.6 9.3C100.6 14.4 96.4 18.6 91.3 18.6C86.2 18.6 82 14.4 82 9.3C82 4.2 86.2 0 91.3 0C96.4 0 100.6 4.2 100.6 9.3ZM98.4 67.3H104.9V29.5C104.9 26.1 102.3 23.4 98.9 23.4H83.9C80.5 23.4 77.8 26.1 77.8 29.5V67.3H83.9V103.5H98.3L98.4 67.3Z" transform="translate(96.8173 14.0049)" fill="#65656A"></path> </svg> 