<?xml version="1.0" encoding="UTF-8"?> <!-- Generator: Adobe Illustrator 22.0.0, SVG Export Plug-In . SVG Version: 6.00 Build 0) --> <svg xmlns="http://www.w3.org/2000/svg" xmlns:xlink="http://www.w3.org/1999/xlink" id="Layer_1" x="0px" y="0px" viewBox="0 0 764 554" style="enable-background:new 0 0 764 554;" xml:space="preserve"> <style type="text/css"> .st0{fill:#407BBD;} </style> <title>groupe-figaro</title> <desc>Created with Sketch.</desc> <g id="Page-1"> <g id="Group-2" transform="translate(-93.000000, 0.000000)"> <g id="groupe-figaro" transform="translate(93.000000, 0.000000)"> <g id="Group-3" transform="translate(270.000000, 82.000000)"> <path id="Fill-1" class="st0" d="M0.5,0.8h318.9v96.4h-78V80.7c0-8.7-5.3-16.2-17.2-16.2h-70.6v54.3h65.2v58.2h-65.2v43.3 c0,12,5.1,16.8,20.7,16.8H199v63.8H0.5v-63.8h26.3c7.6,0,12.9-4.9,12.9-12.6V80.3c0-9.1-1.6-15.8-14-15.8H0.5V0.8z"></path> </g> <g id="Group-11" transform="translate(172.000000, 0.000000)"> <path id="Fill-4" d="M308.9,294.9l0.7-1.2c-14-9.2-27.5-19.2-40.6-29.6c-2.4-1.9-4.8-3.9-7.2-5.9l-4.4,0.3 C273.8,271.7,291.1,283.7,308.9,294.9"></path> <g id="Group-8"> <path id="Fill-6" d="M31.3,28.4c1.1,1,2.3,1.9,3.4,2.9h-1.1v10.6c-3.8-7-7.3-14.2-10.4-21.5C25.8,23.1,28.5,25.9,31.3,28.4 L31.3,28.4z M34.8,31.5c3.1,2.8,6.2,5.6,9.5,8.3v19.9c-3.4-5.1-6.5-10.2-9.5-15.5V31.5z M45.6,40.8c3.1,2.5,6.3,4.9,9.5,7.3 v26.7c-3.3-4.3-6.5-8.6-9.5-13.1V40.8z M56.4,49.1c1,0.7,1.9,1.5,2.9,2.2c2.3,1.7,4.6,3.2,7,4.7v32c-3.4-3.8-6.7-7.7-9.8-11.7 V49.1z M67.5,57c3.2,2.2,6.4,4.3,9.7,6.4v36.4c-3.3-3.3-6.6-6.7-9.7-10.2V57z M78.5,64.1c3.1,1.9,6.3,3.9,9.5,5.7v40 c-3.2-2.7-6.3-5.6-9.3-8.5c-0.1-0.1-0.1-0.1-0.2-0.2V64.1z M89.3,70.6c0.2,0.1,0.3,0.2,0.5,0.3c10.7,5.7,21.5,11.1,33.3,14.6 l2.1,0.6l-0.6-2.1l0,0c-0.6-2.1-1-4.2-1.3-6.4c14.7,6,28.7,15,40.6,26.2c8.8,8.1,16.5,17.3,23.4,27.2v50 c-3.5-3.2-7.2-6.4-10.9-9.4v-53.8h-1.3v52.7c-3.6-2.9-7.2-5.7-11-8.4v-54.4h-1.3v53.4c-0.8-0.6-1.7-1.2-2.5-1.8 c-2.1-1.5-4.3-2.9-6.5-4.4V99.5h-1.3v54.6c-3.2-2.2-6.4-4.4-9.6-6.5v-55h-1.3v54.2c-2.9-1.9-5.8-3.8-8.7-5.6V85.8h-1.3v54.5 c-3-2-6.1-3.9-9.1-5.8V89.1h-1.3v44.5c-1-0.7-2.1-1.3-3.1-2c-2.6-1.6-5.1-3.3-7.6-4.9V85.8h-1.3v40.1c-3.2-2.1-6.3-4.4-9.3-6.6 V79.8h-1.3v38.5c-3.2-2.4-6.3-4.9-9.3-7.5V70.6z M188.6,132.7c2.6,3.8,5.1,7.6,7.5,11.6c1,1.6,1.9,3.2,2.9,4.9v43.3 c0,0,0,0,0,0c-3.3-3.6-6.8-7-10.4-10.3V132.7z M207.1,255c-9.3-3.3-18.5-7.1-27.6-11.2c-25.3-11.1-48.1-26.5-73.4-38.5 c5.8,0.4,11.7,0.2,17.5-0.4l2.1-0.3l-1.9-1.3l-0.1-0.1c-14.2-9.9-28.9-18.6-43.2-27.8c-7.2-4.6-14.3-9.3-21.3-14.1 c-5.3-3.8-10.8-7.7-15.8-12c7.7,3.7,16.1,6.1,24.7,6.8l2.3,0.2l-1.8-1.7l-0.1-0.1c-7.5-6.9-15-13.7-21.3-21.5 c-6.5-7.7-12.4-15.8-17.7-24.3c-5.3-8.5-10.1-17.4-14.5-26.4c-3.6-7.4-6.9-15.1-10-22.8c3,3.1,6.6,5.6,10.6,7.2l1.4,0.6 L16.8,66l0-0.1c-2.7-10.5-5.3-21-7-31.7c-0.9-5.3-1.7-10.7-2.1-16.1C7.4,13.4,7.2,8.6,7.4,3.9C12.2,9.2,21,19.8,21,19.8 c5.5,16.1,13.5,31.1,22.6,45.3c9.2,14.2,19.7,27.6,31.9,39.5c12,12,25.7,22.4,39.9,31.4c14.2,8.9,28.4,17.9,42.1,27.5 c13.6,9.6,26.7,19.9,38.3,32c3.6,3.7,7.1,7.6,10.5,11.5l-0.1-6.5c-1.9-2.2-3.9-4.5-5.9-6.7v-42.6c1.7,2.9,3.5,5.8,5.2,8.7 l-0.1-8.6c-1.8-3.1-3.7-6.3-5.5-9.4c-9-15.1-19.5-29.7-32.5-41.8c-6.4-6.1-13.4-11.7-20.9-16.5c-7.5-4.8-15.5-9-24.7-10.7l0,0 l-3.2-0.5l1.1,2.7c1,2.3,1.7,4.7,2.2,7.1c-10.3-4.1-20.5-8.8-30.3-14.3C81,62.2,70.8,55.9,61,49c-9.7-7-19.2-14.3-28.1-22.4 c-9-7.9-17.5-16.4-25.7-25.2l0,0L6.1,0.1L5.8,1.8c-1.3,11-0.1,22,1.5,32.8c0.8,5.4,2.1,10.7,3.4,16.1c1.1,4.7,2.5,9.4,4.1,14 C10,62.4,5.8,58.9,3,54.5l0-0.1l-2-3.1L1.5,55c3,20.5,11.5,40,22.7,57.3c5.6,8.8,12.1,16.9,19.4,24.3 c6.3,6.8,13.7,12.4,21.3,17.6c-9-1.2-17.8-4.1-25.7-8.7l-0.1-0.1l-2.8-1.6l1.7,2.8c4.8,7.6,11.2,13.6,17.8,19.3 c6.7,5.6,13.7,10.7,21,15.4c7.3,4.7,14.8,9,22.5,13c6.8,3.5,13.8,6.6,20.9,9.4c-6,0.5-12.2,0.5-18.2-0.3c-0.1,0-0.1,0-0.1,0 l-3.2-1.4l2.6,2.8c10.3,11,22.5,19.4,35.2,26.9c12.8,7.3,26,14,39.5,20c10.2,4.5,20.6,8.6,31.3,12.2L207.1,255z"></path> </g> <path id="Fill-9" d="M400.3,382.9l-0.1-0.2c0-0.2-0.1-0.3-0.1-0.5l-0.3-0.8c-0.2-0.5-0.5-1-0.7-1.5c-0.5-1-1.1-1.9-1.7-2.9 c-1.2-1.9-2.4-3.7-3.8-5.4c-2.6-3.6-5.4-7-8.2-10.3c-5.6-6.7-11.5-13.2-17.5-19.7c-11.9-12.8-24.3-25.3-36.8-37.6 c-15.9-15.7-32.2-31-47.7-46.9l-4.1,0.2c16.3,16.6,33.4,32.4,50.1,48.5c12.6,12.2,25,24.5,37,37.2c6,6.4,11.9,12.8,17.6,19.4 c2.8,3.3,5.6,6.7,8.2,10.2c1.3,1.7,2.6,3.5,3.7,5.3c0.2,0.3,0.4,0.7,0.6,1l-0.2-0.2l-3.8-4l-7.7-7.9 c-5.2-5.2-10.5-10.3-15.8-15.3c-10.8-10-21.7-19.9-33.2-29c-22.9-18.4-47.4-35.2-74.1-48.3c-3.4-1.6-6.9-2.9-10.3-4.4 c-0.2-0.1-0.3-0.1-0.5-0.2l-0.5,8.4c2.7,1.1,5.3,2.1,7.9,3.3c26.2,12,50.8,27.9,74,45.5c11.6,8.8,23,18,34.1,27.5 c5.5,4.8,11,9.6,16.4,14.6l8,7.4l4,3.8l2,1.9l1,1c0.5,0.5,1.3,0.9,1.8,1.1C400.2,384,400.4,382.8,400.3,382.9"></path> </g> <path class="st0" d="M54.3,543.9c-2.1,3-5.5,5.4-10,7.1c-4.5,1.7-9.6,2.5-15.2,2.5c-5.7,0-10.7-1.4-15.1-4.1 c-4.4-2.7-7.8-6.6-10.3-11.5c-2.4-5-3.7-10.7-3.7-17.1v-9.2c0-10.1,2.5-18,7.6-23.8c5.1-5.8,11.9-8.7,20.5-8.7 c7.5,0,13.5,1.9,18,5.7s7.3,9,8.1,15.7h-6.1c-0.9-5.3-3.1-9.3-6.5-12.1c-3.4-2.7-7.9-4.1-13.5-4.1c-6.8,0-12.1,2.4-16.1,7.2 S6.1,503,6.1,511.8v8.6c0,5.5,0.9,10.4,2.8,14.6s4.6,7.5,8.1,9.8s7.5,3.5,12.1,3.5c5.3,0,9.8-0.8,13.6-2.5 c2.5-1.1,4.3-2.4,5.5-3.8v-18.7H28.7v-5.2h25.6V543.9z M98.7,522.3H77.7v30.2h-6.2V480H95c7.7,0,13.8,1.9,18.1,5.6 s6.5,9,6.5,15.7c0,4.6-1.4,8.7-4.1,12.3c-2.7,3.6-6.4,6-11,7.4l18.1,30.8v0.6h-6.5L98.7,522.3z M77.7,517.1h18.8 c5.1,0,9.3-1.5,12.4-4.4s4.7-6.7,4.7-11.3c0-5.1-1.6-9.1-4.9-11.9c-3.3-2.8-7.8-4.2-13.7-4.2H77.7V517.1z M189.9,520.2 c0,6.7-1.2,12.5-3.5,17.6s-5.6,8.9-9.9,11.6c-4.3,2.7-9.2,4.1-14.8,4.1c-8.5,0-15.3-3-20.5-9.1s-7.8-14.2-7.8-24.5v-7.5 c0-6.6,1.2-12.5,3.5-17.5s5.6-9,9.9-11.7s9.2-4.1,14.8-4.1c5.6,0,10.5,1.3,14.8,4s7.6,6.5,9.9,11.4c2.3,4.9,3.5,10.6,3.6,17.1 V520.2z M183.8,512.3c0-8.7-2-15.6-5.9-20.5c-3.9-4.9-9.4-7.4-16.2-7.4c-6.7,0-12.1,2.5-16.1,7.4c-4,5-6,11.9-6,20.8v7.6 c0,8.6,2,15.4,6,20.4c4,5,9.4,7.5,16.2,7.5c6.9,0,12.3-2.5,16.2-7.4c3.9-5,5.8-11.9,5.8-20.7V512.3z M255.3,480v49.5 c0,4.9-1.1,9.1-3.2,12.7c-2.1,3.6-5.1,6.4-9,8.3c-3.9,1.9-8.3,2.9-13.3,2.9c-7.6,0-13.7-2.1-18.3-6.2c-4.6-4.2-7-9.9-7.1-17.3 V480h6.1v49c0,6.1,1.7,10.8,5.2,14.2s8.2,5.1,14.2,5.1c6,0,10.7-1.7,14.2-5.1c3.5-3.4,5.2-8.1,5.2-14.1V480H255.3z M278.5,523 v29.5h-6.1V480H297c7.5,0,13.5,1.9,17.8,5.8c4.4,3.8,6.5,9.1,6.5,15.9c0,6.8-2.1,12.1-6.3,15.8c-4.2,3.7-10.3,5.6-18.2,5.6H278.5 z M278.5,517.8H297c5.9,0,10.5-1.4,13.6-4.2s4.7-6.8,4.7-11.8c0-5-1.6-9-4.7-12s-7.5-4.5-13.2-4.6h-19V517.8z M375.1,517.7h-33.9 v29.6h39v5.2h-45.1V480H380v5.2h-38.7v27.3h33.9V517.7z M459.4,522.9h-28.7v29.6h-14.9V480H463v12.1h-32.3v18.7h28.7V522.9z M487.5,552.5h-14.9V480h14.9V552.5z M558.7,543.3c-2.7,3.2-6.5,5.7-11.4,7.5c-4.9,1.8-10.4,2.7-16.3,2.7 c-6.3,0-11.8-1.4-16.5-4.1c-4.7-2.7-8.4-6.7-11-11.9c-2.6-5.2-3.9-11.3-4-18.4v-4.9c0-7.2,1.2-13.5,3.7-18.8 c2.4-5.3,6-9.3,10.6-12.1s10-4.2,16.2-4.2c8.6,0,15.3,2,20.2,6.1c4.8,4.1,7.7,10.1,8.6,17.9h-14.5c-0.7-4.1-2.1-7.2-4.4-9.1 c-2.3-1.9-5.4-2.9-9.4-2.9c-5.1,0-8.9,1.9-11.6,5.7c-2.7,3.8-4,9.5-4,17v4.6c0,7.6,1.4,13.3,4.3,17.2s7.1,5.8,12.7,5.8 c5.6,0,9.6-1.2,12-3.6v-12.5h-13.6v-11h28.5V543.3z M611.7,537.5h-26.2l-5,14.9h-15.9l27-72.5h13.8l27.1,72.5h-15.9L611.7,537.5z M589.6,525.4h18.1l-9.1-27.1L589.6,525.4z M666.2,525.9h-11.9v26.5h-14.9V480h26.9c8.6,0,15.2,1.9,19.8,5.7 c4.6,3.8,7,9.2,7,16.2c0,4.9-1.1,9.1-3.2,12.4c-2.1,3.3-5.4,5.9-9.7,7.9l15.7,29.6v0.7h-16L666.2,525.9z M654.3,513.8h12 c3.8,0,6.7-1,8.7-2.9c2.1-1.9,3.1-4.5,3.1-7.9c0-3.4-1-6.1-2.9-8.1c-1.9-2-4.9-2.9-8.9-2.9h-12V513.8z M764,517.9 c0,7.1-1.3,13.4-3.8,18.8c-2.5,5.4-6.1,9.5-10.8,12.4s-10.1,4.4-16.2,4.4c-6,0-11.4-1.4-16.1-4.3s-8.4-7-11-12.4 c-2.6-5.4-3.9-11.5-3.9-18.5v-3.6c0-7.1,1.3-13.4,3.9-18.8s6.2-9.6,10.9-12.5c4.7-2.9,10.1-4.4,16.1-4.4c6,0,11.4,1.5,16.1,4.4 c4.7,2.9,8.3,7.1,10.9,12.5s3.9,11.7,3.9,18.8V517.9z M748.9,514.6c0-7.6-1.4-13.4-4.1-17.3c-2.7-3.9-6.6-5.9-11.6-5.9 c-5,0-8.9,1.9-11.6,5.8c-2.7,3.9-4.1,9.6-4.1,17.1v3.5c0,7.4,1.4,13.1,4.1,17.2s6.6,6.1,11.7,6.1c5,0,8.9-2,11.5-5.9 s4-9.7,4.1-17.2V514.6z"></path> </g> </g> </g> </svg> 