<?xml version="1.0" encoding="UTF-8" standalone="no"?>
<svg width="746px" height="241px" viewBox="0 0 746 241" version="1.1" xmlns="http://www.w3.org/2000/svg" xmlns:xlink="http://www.w3.org/1999/xlink">
    <!-- Generator: Sketch 3.8.2 (29753) - http://www.bohemiancoding.com/sketch -->
    <title>happn-icon-app</title>
    <desc>Created with Sketch.</desc>
    <defs></defs>
    <g id="Page-1" stroke="none" stroke-width="1" fill="none" fill-rule="evenodd">
        <g id="happn-icon-app" fill="#0087B4">
            <g id="Group">
                <g id="Calque_1">
                    <path d="M533.2,79.7 L533.2,79.7 C525.1,79.7 518,82 512.2,86.4 C507.4,81.4 492.1,81.4 492.1,81.4 L490.7,108.4 L485.2,212.7 L505.5,212.7 L508.5,155.9 C513.3,159.6 519.7,161.7 526.8,161.7 C544.2,161.7 563.6,148.6 565.1,119.7 C566.4,96.5 552.9,79.7 533.2,79.7 L533.2,79.7 Z M544.6,120.1 C544,131.8 538.7,144.1 525.4,144.1 L525.4,144.1 L525.4,144.1 L525.4,144.1 C517.9,144.1 511.7,139 510.3,131.6 C510.1,130.5 510,129 510.1,127.3 L510.7,114.9 C510.8,114 511,112.7 511.3,111.5 L511.6,110.3 C514,102.6 520.9,97.3 528.4,97.3 C540.4,97.3 545.2,108.8 544.6,120.1 L544.6,120.1 Z" id="Shape"></path>
                    <path d="M616.6,79.7 L616.6,79.7 C608.5,79.7 601.4,82 595.6,86.4 C590.8,81.4 575.5,81.4 575.5,81.4 L574.1,108.4 L568.6,212.7 L589,212.7 L592,155.9 C596.8,159.6 603.2,161.7 610.3,161.7 C627.7,161.7 647.1,148.6 648.6,119.7 C649.8,96.5 636.4,79.7 616.6,79.7 L616.6,79.7 Z M628.1,120.1 C627.5,131.8 622.1,144.1 608.8,144.1 C601.3,144.1 595.1,139 593.7,131.6 C593.5,130.5 593.4,129 593.5,127.3 L594.2,114.9 C594.2,114 594.5,112.7 594.8,111.5 L595.1,110.3 C597.5,102.6 604.4,97.3 611.9,97.3 C623.9,97.3 628.7,108.8 628.1,120.1 L628.1,120.1 Z" id="Shape"></path>
                    <path d="M397.1,144.7 C392.9,144.7 388.7,143.2 389.2,132.5 L390.2,113.7 C391.5,88.5 376.4,79.6 363,79.6 C362,79.6 361,79.6 360,79.7 C359.1,79.8 358.3,79.9 357.5,80 L357.4,80 C343.6,82.2 337.1,91.7 336.7,92.3 L339.1,47.2 C340,29.2 319.7,28.6 319.7,28.6 L315.7,104.2 L312.8,160.1 L333.2,160.1 L334.3,139.4 C337,102.7 351.4,98.1 356.3,97.6 L357.9,97.6 C366.4,97.6 370.5,103.5 369.8,115.2 L368.8,134.5 L368.8,135.2 C368.4,143.5 369.3,153.5 377,158.6 C377.9,159.1 388.1,165 397.1,158.3 C400.3,155.8 403.2,151.5 403.6,144.2 C401.6,144.4 399.9,144.7 397.1,144.7" id="Shape"></path>
                    <path d="M738.7,144.7 C734.5,144.7 730.3,143.2 730.8,132.5 L731.8,113.7 C733.1,88.5 718,79.6 704.6,79.6 C703.6,79.6 702.6,79.6 701.6,79.7 C700.7,79.8 699.9,79.9 699.1,80 L699,80 C685.2,82.2 678.7,91.7 678.3,92.3 L678.6,86.1 C672.9,81.2 658.4,81.4 658.4,81.4 L657.2,104.3 L654.3,160.2 L674.7,160.2 L675.8,139.5 C678.5,102.8 692.9,98.2 697.8,97.7 L699.5,97.7 C708,97.7 712,103.6 711.4,115.3 L710.4,134.6 L710.4,135.3 C710,143.6 710.9,153.6 718.6,158.7 C719.5,159.2 729.7,165.1 738.7,158.4 C741.9,155.9 744.8,151.6 745.2,144.3 C743.1,144.4 741.5,144.7 738.7,144.7" id="Shape"></path>
                    <path d="M459.6,81.4 L459.3,86.4 C454,82 447.1,79.7 439,79.7 C419.3,79.7 404.1,96.5 402.9,119.6 C401.4,148.5 419.4,161.6 436.8,161.6 C443.9,161.6 450.5,159.5 455.7,155.8 L455.7,155.9 C459.7,159.4 470.9,159.9 474.6,160 L475.8,160 L478.5,108.3 L479.6,86.4 C474.9,81.4 459.6,81.4 459.6,81.4 L459.6,81.4 Z M457.1,127.3 C457,129 456.8,130.5 456.4,131.6 C454.2,139 447.5,144.1 440,144.1 C426.7,144.1 422.7,131.8 423.3,120.2 C423.9,108.8 429.9,97.4 441.9,97.4 C449.4,97.4 455.7,102.7 457.4,110.4 C457.4,110.8 457.5,111.2 457.5,111.6 C457.7,112.8 457.8,114.1 457.8,115 L457.1,127.3 L457.1,127.3 Z" id="Shape"></path>
                    <path d="M189,0.6 L51,0.6 C22.9,0.6 0,23.6 0,51.6 L0,189.6 C0,217.7 23,240.6 51,240.6 L189,240.6 C217.1,240.6 240,217.6 240,189.6 L240,51.6 C240,23.6 217,0.6 189,0.6 L189,0.6 Z M59.9,139.5 C59.9,136.2 60.5,132.9 61.5,129.8 C73.1,94.8 88.2,61.7 106.2,30.8 C108.4,27.1 114.2,28.2 114.6,32.3 C116.1,47.4 118.4,62.4 121.3,77.1 C137.3,80.1 153.3,82.9 169.3,85.5 C173.6,86.2 176,89.1 176,89.1 L60,140.6 C60,140.3 60,139.9 59.9,139.5 L59.9,139.5 Z M178.5,111.4 C166.9,146.4 151.8,179.5 133.8,210.4 C131.6,214.1 125.8,213 125.4,208.9 C123.9,193.8 121.6,178.8 118.7,164.1 C102.7,161.1 86.7,158.3 70.7,155.7 C66.4,155 64,152.1 64,152.1 L180,100.6 C180,101 180,101.4 180.1,101.7 C180.1,105 179.5,108.3 178.5,111.4 L178.5,111.4 Z" id="Shape"></path>
                </g>
            </g>
        </g>
    </g>
</svg>