<svg xmlns="http://www.w3.org/2000/svg" xmlns:xlink="http://www.w3.org/1999/xlink" viewBox="0 0 841.9 595.3">
  <style>
    .st0{clip-path:url(#SVGID_2_);} .st1{fill:#0087B4;} .st2{fill:#FFFFFF;}
  </style>
  <g id="Calque_1">
    <defs>
      <path id="SVGID_1_" d="M101 177.6c-28.7 0-52 23.3-52 52v136c0 28.7 23.3 52 52 52h136c28.7 0 52-23.3 52-52v-136c0-28.7-23.3-52-52-52H101z"/>
    </defs>
    <use xlink:href="#SVGID_1_" overflow="visible" fill="#1C95BE"/>
    <clipPath id="SVGID_2_">
      <use xlink:href="#SVGID_1_" overflow="visible"/>
    </clipPath>
    <g class="st0">
      <defs>
        <path id="SVGID_3_" d="M0 .3h841v595H0z"/>
      </defs>
      <use xlink:href="#SVGID_3_" overflow="visible" fill="#1C95BE"/>
      <clipPath id="SVGID_4_">
        <use xlink:href="#SVGID_3_" overflow="visible"/>
      </clipPath>
    </g>
  </g>
  <g id="Calque_2">
    <path class="st1" d="M239.3 254.5l6.3 32.6.8 4.2 1.7-3.9 30.4-70.3 1.3-3-3 1.3-70.3 30.4-3.9 1.6 4.1.8z"/>
    <path class="st1" d="M198.7 332.8l.8 4.2 1.7-3.9 30.3-70.3 1.3-3.1-3 1.3-70.3 30.4-3.9 1.7 4.2.8 32.6 6.3zM152.3 290l3-1.3 70.3-30.3 3.9-1.7-4.1-.8-32.6-6.3-6.4-32.6-.8-4.2-1.6 3.9-30.4 70.3zm-10.8-38.7l6.3 32.6.8 4.1 1.7-3.8 30.3-70.4 1.3-3-3 1.3-70.3 30.4-3.9 1.7 4.2.8z"/>
    <path class="st1" d="M185.9 305.4l-3.1 1.3-70.3 30.4-3.9 1.6 4.2.9 32.6 6.3 6.3 32.6.8 4.1 1.7-3.9 30.4-70.3zm-46.4-42.8l-.8-4.1-1.7 3.9-30.4 70.3-1.3 3 3-1.3 70.4-30.4 3.8-1.6-4.1-.8-32.6-6.4zm-38.7 66.9l.8 4.2 1.7-3.9 30.4-70.3 1.3-3-3 1.3-70.4 30.4-3.8 1.6 4.1.8 32.6 6.3zm30.9-76.1l-4.2-.8-32.6-6.3-6.3-32.6-.8-4.1-1.7 3.9-30.4 70.3-1.3 3 3.1-1.3 70.3-30.4z"/>
    <path class="st1" d="M98.8 340.9l-6.3-32.6-.8-4.1L90 308l-30.3 70.4-1.3 3 3-1.3 70.3-30.4 3.9-1.7-4.2-.8zm107.7 1.1l4.1.8 32.6 6.3 6.4 32.6.8 4.2 1.6-3.9 30.4-70.3 1.3-3-3 1.3-70.3 30.3zm30.8-76.1l-.8-4.1-1.7 3.8-30.3 70.4-1.3 3 3-1.3 70.3-30.4 3.9-1.7-4.2-.8-32.6-6.3z"/>
    <path class="st1" d="M233.4 351.3l-4.1-.8-32.6-6.3-6.3-32.6-.8-4.2-1.7 3.9-30.4 70.3-1.3 3 3-1.3 70.3-30.3zM53.5 386.9c2.9 6.4 7 12.1 12 16.8l19.2-8.3 3.9-1.7-4.1-.8-31-6zm31.2-87.8l-4.2-.8-31.5-6.1v22.3l31.8-13.7zm3.3 3l-3 1.3L49 319v31.1l4.9 25.1.8 4.2 1.6-3.9 30.4-70.3zm61.7-109.7l-1.3 3.1 3-1.3 38.2-16.6h-33.5zm-99.8 88.2l.8 4.1 1.7-3.9 30.4-70.3 1.3-3-3 1.3-31.6 13.6c-.3 2.3-.5 4.7-.5 7.1v46.1l.9 5z"/>
    <path class="st1" d="M96.9 235l.8 4.1 1.7-3.9 24.9-57.6H101c-2.6 0-5.2.2-7.7.6l-24.4 10.5c-3 2.3-5.7 5-8.1 7.9l29.8 5.8 6.3 32.6zm47-45.7l.8 4.1 1.7-3.8 5.1-12h-9.9zm38.2 228.3l6.4-14.6 1.3-3-3 1.3-37.9 16.3zm-32.4-27.8l-6.3-32.6-.8-4.1-1.7 3.9-26.2 60.6h23.8l44.1-19 3.8-1.7-4.1-.8zm91.5-29.3l-.8-4.1-1.7 3.9-24.7 57.3h23c2.9 0 5.8-.3 8.6-.7l22.8-9.9c3.2-2.4 6.1-5.2 8.6-8.3l-29.5-5.7-6.3-32.5zM69 406.6c4.5 3.5 9.6 6.3 15.1 8.2l6.5-15.1 1.3-3-3 1.3-19.9 8.6zm30.3 11l-2.8-14.7-.8-4.1-1.7 3.9-5.8 13.3c3.5.9 7.2 1.5 11.1 1.6"/>
    <path class="st1" d="M178.6 207.8l-4.1-.8-32.6-6.3-4.5-23.1h-8.6l-26.1 60.5-1.3 3 3-1.3 70.3-30.3zm56.8 149.5l1.3-3-3 1.3-70.3 30.4-3.9 1.7 4.2.8 32.6 6.3 4.4 22.8h8.7zm-97.8-3.2l1.3-3-3 1.3-70.3 30.3-3.9 1.7 4.1.8 32.6 6.3 5.1 26.1h6.6zM80.8 204.5l-4.1-.8-18.4-3.6c-3.6 5.2-6.3 11.1-7.8 17.5L77 206.2l3.8-1.7z"/>
    <path class="st1" d="M194.8 238.2l.8 4.2 1.6-3.9 26.3-60.9H200l-44.4 19.2-3.9 1.7 4.1.8 32.6 6.3zm-.5 168l-.8-4.2-1.7 3.9-5.1 11.7h9.8zm55.2-204.4l4.1.8 30.8 6c-2.8-6.4-6.9-12-11.9-16.8l-19.2 8.3-3.8 1.7zm7.9 189.1l4.1.8 18.2 3.5c3.6-5.2 6.3-11 7.8-17.4l-26.3 11.4-3.8 1.7zm-9.9-195.2l-1.3 3 3-1.3 19.9-8.6c-4.5-3.5-9.6-6.4-15.1-8.3l-6.5 15.2zm6 100.6l4.1.9 31.4 6V281l-31.7 13.7z"/>
    <path class="st1" d="M272.6 212.7l3.9-1.7-4.2-.8-32.6-6.3-5.1-26.3h-6.5l-27.5 63.8-1.3 3 3-1.3z"/>
    <path class="st1" d="M242.5 196.7l1.7-3.9 5.8-13.5c-3.6-.9-7.4-1.5-11.2-1.6l2.9 14.9.8 4.1zM289 365.6V319l-.8-4.1-.8-4.1-1.7 3.9-30.4 70.3-1.3 3 3-1.3 31.4-13.6c.4-2.5.6-5 .6-7.5m-38.9-72.3l3.1-1.3 35.8-15.5v-31.9l-4.7-24.4-.8-4.1-1.7 3.9-30.4 70.3zm332.1-36.6c-8.1 0-15.2 2.3-21 6.7-4.8-5-20.1-5-20.1-5l-1.4 27-5.5 104.3h20.3l3-56.8c4.8 3.7 11.2 5.8 18.3 5.8 17.4 0 36.8-13.1 38.3-42 1.3-23.2-12.2-40-31.9-40m-7.8 64.4c-7.5 0-13.7-5.1-15.1-12.5-.2-1.1-.3-2.6-.2-4.3l.6-12.4c.1-.9.3-2.2.6-3.4l.3-1.2c2.4-7.7 9.3-13 16.8-13 12 0 16.8 11.5 16.2 22.8-.6 11.7-5.9 24-19.2 24m91.2-64.4c-8.1 0-15.2 2.3-21 6.7-4.8-5-20.1-5-20.1-5l-1.4 27-5.5 104.3H638l3-56.8c4.8 3.7 11.2 5.8 18.3 5.8 17.4 0 36.8-13.1 38.3-42 1.2-23.2-12.2-40-32-40m-7.8 64.4c-7.5 0-13.7-5.1-15.1-12.5-.2-1.1-.3-2.6-.2-4.3l.7-12.4c0-.9.3-2.2.6-3.4l.3-1.2c2.4-7.7 9.3-13 16.8-13 12 0 16.8 11.5 16.2 22.8-.6 11.7-6 24-19.3 24m-211.7.6c-4.2 0-8.4-1.5-7.9-12.2l1-18.8c1.3-25.2-13.8-34.1-27.2-34.1-1 0-2 0-3 .1-.9.1-1.7.2-2.5.3h-.1c-13.8 2.2-20.3 11.7-20.7 12.3l2.4-45.1c.9-18-19.4-18.6-19.4-18.6l-4 75.6-2.9 55.9h20.4l1.1-20.7c2.7-36.7 17.1-41.3 22-41.8h1.6c8.5 0 12.6 5.9 11.9 17.6l-1 19.3v.7c-.4 8.3.5 18.3 8.2 23.4.9.5 11.1 6.4 20.1-.3 3.2-2.5 6.1-6.8 6.5-14.1-2 .2-3.7.5-6.5.5m341.6 0c-4.2 0-8.4-1.5-7.9-12.2l1-18.8c1.3-25.2-13.8-34.1-27.2-34.1-1 0-2 0-3 .1-.9.1-1.7.2-2.5.3h-.1c-13.8 2.2-20.3 11.7-20.7 12.3l.3-6.2c-5.7-4.9-20.2-4.7-20.2-4.7l-1.2 22.9-2.9 55.9h20.4l1.1-20.7c2.7-36.7 17.1-41.3 22-41.8h1.7c8.5 0 12.5 5.9 11.9 17.6l-1 19.3v.7c-.4 8.3.5 18.3 8.2 23.4.9.5 11.1 6.4 20.1-.3 3.2-2.5 6.1-6.8 6.5-14.1-2.1.1-3.7.4-6.5.4m-279.1-63.3l-.3 5c-5.3-4.4-12.2-6.7-20.3-6.7-19.7 0-34.9 16.8-36.1 39.9-1.5 28.9 16.5 42 33.9 42 7.1 0 13.7-2.1 18.9-5.8v.1c4 3.5 15.2 4 18.9 4.1h1.2l2.7-51.7 1.1-21.9c-4.7-5-20-5-20-5m-2.5 45.9c-.1 1.7-.3 3.2-.7 4.3-2.2 7.4-8.9 12.5-16.4 12.5-13.3 0-17.3-12.3-16.7-23.9.6-11.4 6.6-22.8 18.6-22.8 7.5 0 13.8 5.3 15.5 13 0 .4.1.8.1 1.2.2 1.2.3 2.5.3 3.4l-.7 12.3z"/>
  </g>
  <path class="st2" d="M109 317.6l116-51.5s-2.4-2.9-6.7-3.6c-16-2.6-32-5.4-48-8.4-2.9-14.7-5.2-29.7-6.7-44.8-.4-4.1-6.2-5.2-8.4-1.5-18 30.9-33.1 64-44.7 99-1 3.1-1.6 6.4-1.6 9.7.1.4.1.8.1 1.1m120-40l-116 51.5s2.4 2.9 6.7 3.6c16 2.6 32 5.4 48 8.4 2.9 14.7 5.2 29.7 6.7 44.8.4 4.1 6.2 5.2 8.4 1.5 18-30.9 33.1-64 44.7-99 1-3.1 1.6-6.4 1.6-9.7-.1-.3-.1-.7-.1-1.1" id="Calque_3"/>
</svg>
