<?xml version="1.0" encoding="UTF-8" standalone="no"?>
<svg width="696px" height="67px" viewBox="0 0 696 67" version="1.1" xmlns="http://www.w3.org/2000/svg" xmlns:xlink="http://www.w3.org/1999/xlink">
    <!-- Generator: Sketch 3.8.2 (29753) - http://www.bohemiancoding.com/sketch -->
    <title>MARCOVASCO_logoCHOCOLAT</title>
    <desc>Created with Sketch.</desc>
    <defs></defs>
    <g id="Page-1" stroke="none" stroke-width="1" fill="none" fill-rule="evenodd">
        <g id="MARCOVASCO_logoCHOCOLAT" fill="#4D3423">
            <g id="Calque_1">
                <path d="M12.2,1.5 C12.4,0.8 13.1,0.1 13.9,0.1 L15.4,0.1 C16,0.1 16.8,0.6 17,1.1 L36.4,48.5 L36.8,48.5 L56.1,1.1 C56.3,0.6 57,0.1 57.7,0.1 L59.2,0.1 C59.9,0.1 60.7,0.7 60.9,1.5 L72.3,63.8 C72.6,65.1 71.9,65.9 70.6,65.9 L64.6,65.9 C63.8,65.9 63,65.2 62.8,64.6 L55.9,23.2 L55.6,23.2 L38.9,65.8 C38.7,66.4 38.2,66.8 37.3,66.8 L35.6,66.8 C34.9,66.8 34.2,66.3 34,65.8 L17.2,23.2 L16.8,23.2 L10.1,64.6 C10,65.2 9.2,65.9 8.4,65.9 L2.4,65.9 C1.1,65.9 0.5,65.1 0.6,63.8 L12.2,1.5 L12.2,1.5 Z M86.3,63.5 L114.8,1.1 C115.1,0.6 115.9,0.1 116.4,0.1 L117.3,0.1 C117.8,0.1 118.6,0.6 118.9,1.1 L147.2,63.5 C147.8,64.7 147,65.9 145.6,65.9 L139.8,65.9 C138.7,65.9 138,65.3 137.7,64.5 L132,51.8 L101.7,51.8 C99.8,56.1 97.9,60.2 96,64.5 C95.7,65.1 95,65.9 93.9,65.9 L88.1,65.9 C86.5,65.9 85.7,64.7 86.3,63.5 L86.3,63.5 Z M128.3,43.8 L116.9,18.4 L116.4,18.4 L105.1,43.8 L128.3,43.8 L128.3,43.8 Z M165.6,2.8 C165.6,1.9 166.3,1 167.4,1 L192.6,1 C203.7,1 212.8,9.8 212.8,20.8 C212.8,29.3 207.1,36.4 199.1,39.6 L211.8,63.2 C212.5,64.4 211.8,65.9 210.2,65.9 L203,65.9 C202.3,65.9 201.7,65.4 201.5,65.1 L189.2,40.5 L175.2,40.5 L175.2,64.1 C175.2,65 174.4,65.9 173.4,65.9 L167.4,65.9 C166.4,65.9 165.6,65.1 165.6,64.1 L165.6,2.8 L165.6,2.8 Z M191.9,32.5 C197.9,32.5 203.2,27.4 203.2,21 C203.2,15 197.9,10 191.9,10 L175.4,10 L175.4,32.5 L191.9,32.5 L191.9,32.5 Z M259,0.1 C268.4,0.1 275.1,3.3 281.4,8.7 C282.2,9.4 282.2,10.6 281.5,11.3 L277.4,15.5 C276.8,16.3 275.9,16.3 275.1,15.5 C270.7,11.7 264.8,9.3 259.1,9.3 C245.8,9.3 235.8,20.4 235.8,33.4 C235.8,46.4 245.9,57.4 259.2,57.4 C266,57.4 270.7,54.7 275.1,51.3 C275.9,50.6 276.8,50.7 277.3,51.2 L281.6,55.4 C282.3,56 282.2,57.3 281.5,57.9 C275.2,64 267.2,66.9 259,66.9 C240.5,66.9 225.5,52.2 225.5,33.6 C225.5,15 240.4,0.1 259,0.1 L259,0.1 Z M323,0.1 C341.5,0.1 356.4,15 356.4,33.6 C356.4,52.1 341.6,66.9 323,66.9 C304.5,66.9 289.7,52.2 289.7,33.6 C289.8,15 304.5,0.1 323,0.1 L323,0.1 Z M323,57.6 C336.3,57.6 347.1,46.8 347.1,33.6 C347.1,20.4 336.3,9.4 323,9.4 C309.8,9.4 299,20.4 299,33.6 C299,46.8 309.9,57.6 323,57.6 L323,57.6 Z M381.4,3.4 C380.9,2.2 381.6,1 383,1 L389.6,1 C390.3,1 391,1.6 391.2,2 L411.6,47.9 L412.1,47.9 L432.5,2 C432.7,1.5 433.2,1 434.1,1 L440.7,1 C442.1,1 442.8,2.2 442.3,3.4 L413.8,65.8 C413.5,66.4 413,66.8 412.2,66.8 L411.3,66.8 C410.6,66.8 410,66.3 409.7,65.8 L381.4,3.4 L381.4,3.4 Z M438.8,63.5 L467.3,1.1 C467.6,0.5 468.4,0.1 468.9,0.1 L469.8,0.1 C470.3,0.1 471.1,0.6 471.4,1.1 L499.7,63.5 C500.3,64.7 499.5,65.9 498.1,65.9 L492.3,65.9 C491.2,65.9 490.5,65.3 490.2,64.5 L484.5,51.8 L454,51.8 C452.1,56.1 450.2,60.2 448.3,64.5 C448,65.1 447.3,65.9 446.2,65.9 L440.4,65.9 C439,65.9 438.3,64.7 438.8,63.5 L438.8,63.5 Z M480.8,43.8 L469.4,18.4 L469,18.4 L457.7,43.8 L480.8,43.8 L480.8,43.8 Z M511.7,56.5 C512.5,55.3 513.3,53.9 514.1,52.7 C514.9,51.5 516.2,51.1 517.3,52 C517.9,52.5 525,58.4 532.1,58.4 C538.5,58.4 542.6,54.5 542.6,49.8 C542.6,44.2 537.8,40.7 528.6,36.9 C519.1,32.9 511.7,28 511.7,17.2 C511.7,10 517.3,0 532,0 C541.3,0 548.2,4.8 549.1,5.5 C549.8,6 550.6,7.3 549.7,8.7 C549,9.8 548.1,11.1 547.4,12.2 C546.7,13.4 545.5,14 544.2,13.1 C543.5,12.7 537.1,8.5 531.7,8.5 C523.9,8.5 521.2,13.4 521.2,16.8 C521.2,22.1 525.3,25.3 533,28.5 C543.8,32.9 552.9,38 552.9,49.3 C552.9,59 544.3,66.8 532.2,66.8 C520.9,66.8 513.8,60.9 512.3,59.5 C511.4,58.8 510.8,58.1 511.7,56.5 L511.7,56.5 Z M597.9,0.1 C607.3,0.1 614,3.3 620.3,8.7 C621.1,9.4 621.1,10.6 620.4,11.3 L616.3,15.5 C615.7,16.3 614.8,16.3 614,15.5 C609.6,11.7 603.7,9.3 598,9.3 C584.7,9.3 574.7,20.4 574.7,33.4 C574.7,46.4 584.8,57.4 598.1,57.4 C604.9,57.4 609.6,54.7 614,51.3 C614.8,50.6 615.7,50.7 616.2,51.2 L620.5,55.4 C621.2,56 621.1,57.3 620.4,57.9 C614.1,64 606.1,66.9 597.9,66.9 C579.4,66.9 564.4,52.2 564.4,33.6 C564.5,15 579.4,0.1 597.9,0.1 L597.9,0.1 Z M662,0.1 C680.5,0.1 695.4,15 695.4,33.6 C695.4,52.1 680.6,66.9 662,66.9 C643.5,66.9 628.7,52.2 628.7,33.6 C628.7,15 643.5,0.1 662,0.1 L662,0.1 Z M662,57.6 C675.3,57.6 686.1,46.8 686.1,33.6 C686.1,20.4 675.3,9.4 662,9.4 C648.8,9.4 638,20.4 638,33.6 C638,46.8 648.8,57.6 662,57.6 L662,57.6 Z" id="Shape"></path>
            </g>
        </g>
    </g>
</svg>