<?xml version="1.0" encoding="UTF-8" standalone="no"?>
<svg width="382px" height="438px" viewBox="0 0 382 438" version="1.1" xmlns="http://www.w3.org/2000/svg" xmlns:xlink="http://www.w3.org/1999/xlink">
    <!-- Generator: Sketch 3.8.2 (29753) - http://www.bohemiancoding.com/sketch -->
    <title>AKENEO-logo-couleur-fond-blanc-RVB</title>
    <desc>Created with Sketch.</desc>
    <defs>
        <linearGradient x1="-5218.18756%" y1="1014.44739%" x2="5276.84342%" y2="-906.162949%" id="linearGradient-1">
            <stop stop-color="#5F2385" offset="4.29448%"></stop>
            <stop stop-color="#9452BA" offset="96.93%"></stop>
        </linearGradient>
        <linearGradient x1="-13612.4994%" y1="2973.23214%" x2="13674.5811%" y2="-2865.42329%" id="linearGradient-2">
            <stop stop-color="#5F2385" offset="4.29448%"></stop>
            <stop stop-color="#9452BA" offset="96.93%"></stop>
        </linearGradient>
        <linearGradient x1="-11953.8995%" y1="-8926.58061%" x2="-1062.82292%" y2="-782.63206%" id="linearGradient-3">
            <stop stop-color="#4F1374" offset="23.31%"></stop>
            <stop stop-color="#5F2385" offset="84.05%"></stop>
        </linearGradient>
        <linearGradient x1="-13637.3483%" y1="7302.3647%" x2="10575.5129%" y2="-5649.78616%" id="linearGradient-4">
            <stop stop-color="#5F2385" offset="4.29448%"></stop>
            <stop stop-color="#9452BA" offset="96.93%"></stop>
        </linearGradient>
        <linearGradient x1="-12060.4388%" y1="-22553.1732%" x2="-1169.36222%" y2="-2193.30185%" id="linearGradient-5">
            <stop stop-color="#4F1374" offset="23.31%"></stop>
            <stop stop-color="#5F2385" offset="84.05%"></stop>
        </linearGradient>
    </defs>
    <g id="Page-1" stroke="none" stroke-width="1" fill="none" fill-rule="evenodd">
        <g id="AKENEO-logo-couleur-fond-blanc-RVB">
            <g id="Logo_AKENEO_-_Couleur_-_Fond_Blanc">
                <g id="Group" transform="translate(0.000000, 347.000000)" fill="#000000">
                    <path d="M36.5,48.6 C36.5,43.9 35.3,40.6 32.9,38.8 C30.5,37 27,36 22.5,36 C19.7,36 17.1,36.2 14.6,36.7 C12.2,37.1 9.8,37.7 7.5,38.4 C6,35.8 5.2,32.6 5.2,28.9 C7.9,28 10.9,27.3 14.2,26.9 C17.5,26.4 20.6,26.2 23.7,26.2 C31.7,26.2 37.8,28 42,31.7 C46.2,35.3 48.2,41.2 48.2,49.2 L48.2,87.8 C45.4,88.4 42,89.1 38,89.8 C34,90.5 29.9,90.8 25.8,90.8 C21.9,90.8 18.3,90.4 15.2,89.7 C12,89 9.4,87.8 7.2,86.2 C5,84.6 3.3,82.6 2.1,80.1 C0.9,77.6 0.3,74.6 0.3,71.1 C0.3,67.7 1,64.6 2.4,62 C3.8,59.4 5.7,57.2 8.1,55.5 C10.5,53.8 13.3,52.5 16.4,51.7 C19.5,50.9 22.8,50.4 26.2,50.4 C28.8,50.4 30.9,50.5 32.5,50.6 C34.1,50.7 35.5,50.9 36.6,51 L36.6,48.6 L36.5,48.6 Z M36.5,60.3 C35.3,60.1 33.8,60 31.9,59.8 C30.1,59.6 28.5,59.6 27.2,59.6 C22.2,59.6 18.5,60.5 15.9,62.4 C13.3,64.2 12,67 12,70.8 C12,73.2 12.4,75.1 13.3,76.4 C14.2,77.8 15.3,78.8 16.6,79.5 C17.9,80.2 19.4,80.7 21,80.8 C22.6,81 24.1,81 25.6,81 C27.4,81 29.3,80.9 31.3,80.7 C33.3,80.5 35,80.2 36.5,79.8 L36.5,60.3 L36.5,60.3 Z" id="Shape"></path>
                    <path d="M65.5,1.2 C66.4,1 67.4,0.9 68.4,0.8 C69.5,0.7 70.5,0.7 71.3,0.7 C72.2,0.7 73.2,0.7 74.3,0.8 C75.4,0.9 76.4,1 77.3,1.2 L77.3,89.2 C76.4,89.4 75.4,89.5 74.3,89.6 C73.2,89.7 72.2,89.7 71.3,89.7 C70.4,89.7 69.4,89.7 68.4,89.6 C67.3,89.5 66.3,89.4 65.5,89.2 L65.5,1.2 L65.5,1.2 Z M77.7,57.3 L100.3,27.6 C101.3,27.4 102.4,27.3 103.4,27.2 C104.4,27.1 105.5,27.1 106.6,27.1 C107.8,27.1 108.9,27.1 110,27.2 C111.1,27.3 112.2,27.4 113.3,27.6 L90.7,56.4 L116.7,89.2 C115.6,89.4 114.5,89.5 113.5,89.6 C112.5,89.7 111.4,89.7 110.3,89.7 C109.2,89.7 108.1,89.7 106.9,89.6 C105.8,89.5 104.7,89.4 103.5,89.2 L77.7,57.3 L77.7,57.3 Z" id="Shape"></path>
                    <path d="M134.2,61.4 C134.4,68.1 136.1,73 139.4,76.2 C142.7,79.3 147.6,80.9 154.1,80.9 C159.8,80.9 165.2,79.9 170.3,77.9 C170.9,79.1 171.5,80.6 171.9,82.3 C172.3,84 172.5,85.7 172.6,87.4 C170,88.5 167.1,89.4 163.9,89.9 C160.7,90.5 157.2,90.7 153.4,90.7 C147.8,90.7 143,89.9 139,88.4 C135,86.8 131.7,84.6 129.1,81.8 C126.5,79 124.6,75.6 123.4,71.7 C122.2,67.8 121.6,63.6 121.6,58.9 C121.6,54.3 122.2,50.1 123.3,46.1 C124.5,42.1 126.2,38.7 128.6,35.8 C131,32.9 134,30.6 137.7,28.8 C141.3,27.1 145.6,26.2 150.6,26.2 C154.8,26.2 158.6,26.9 161.8,28.4 C165,29.8 167.7,31.8 169.8,34.3 C172,36.8 173.6,39.8 174.7,43.3 C175.8,46.8 176.4,50.6 176.4,54.6 C176.4,55.7 176.4,56.9 176.3,58.1 C176.2,59.3 176.1,60.4 176.1,61.3 L134.2,61.3 L134.2,61.4 Z M164.8,52.5 C164.8,50.3 164.5,48.1 163.9,46.1 C163.3,44.1 162.4,42.3 161.3,40.8 C160.1,39.3 158.7,38.1 156.9,37.1 C155.1,36.2 153,35.7 150.5,35.7 C145.6,35.7 141.9,37.2 139.3,40.1 C136.7,43.1 135.1,47.2 134.6,52.5 L164.8,52.5 L164.8,52.5 Z" id="Shape"></path>
                    <path d="M192.1,27.6 C193,27.4 193.8,27.3 194.7,27.2 C195.5,27.1 196.4,27.1 197.3,27.1 C198.2,27.1 199,27.1 199.8,27.2 C200.6,27.3 201.4,27.4 202.3,27.6 C202.5,28.8 202.8,30.4 203,32.5 C203.2,34.5 203.4,36.2 203.4,37.6 C204.2,36.2 205.2,34.9 206.5,33.5 C207.7,32.1 209.2,30.9 210.8,29.8 C212.4,28.7 214.2,27.8 216.3,27.2 C218.4,26.5 220.7,26.2 223.1,26.2 C230.1,26.2 235.4,28.2 238.7,32.3 C242.1,36.3 243.7,42.3 243.7,50.3 L243.7,89.3 C242.8,89.5 241.8,89.6 240.7,89.7 C239.6,89.8 238.6,89.8 237.7,89.8 C236.8,89.8 235.8,89.8 234.8,89.7 C233.7,89.6 232.7,89.5 231.9,89.3 L231.9,53.5 C231.9,47.8 231,43.6 229.3,41 C227.5,38.3 224.7,37 220.9,37 C218.7,37 216.5,37.4 214.5,38.2 C212.5,39 210.7,40.2 209.2,41.9 C207.7,43.6 206.5,45.8 205.5,48.4 C204.6,51.1 204.1,54.3 204.1,58.1 L204.1,89.3 C203.2,89.5 202.2,89.6 201.2,89.7 C200.1,89.8 199.1,89.8 198.3,89.8 C197.4,89.8 196.4,89.8 195.3,89.7 C194.2,89.6 193.2,89.5 192.3,89.3 L192.3,27.6 L192.1,27.6 Z" id="Shape"></path>
                    <path d="M270.4,61.4 C270.6,68.1 272.3,73 275.6,76.2 C278.9,79.3 283.8,80.9 290.3,80.9 C296,80.9 301.4,79.9 306.5,77.9 C307.1,79.1 307.7,80.6 308.1,82.3 C308.5,84 308.7,85.7 308.8,87.4 C306.2,88.5 303.3,89.4 300.1,89.9 C296.9,90.5 293.4,90.7 289.6,90.7 C284,90.7 279.2,89.9 275.2,88.4 C271.2,86.8 267.9,84.6 265.3,81.8 C262.7,79 260.8,75.6 259.6,71.7 C258.4,67.8 257.8,63.6 257.8,58.9 C257.8,54.3 258.4,50.1 259.5,46.1 C260.7,42.1 262.4,38.7 264.8,35.8 C267.2,32.9 270.2,30.6 273.9,28.8 C277.5,27.1 281.8,26.2 286.8,26.2 C291,26.2 294.8,26.9 298,28.4 C301.2,29.8 303.9,31.8 306,34.3 C308.2,36.8 309.8,39.8 310.9,43.3 C312,46.8 312.6,50.6 312.6,54.6 C312.6,55.7 312.6,56.9 312.5,58.1 C312.4,59.3 312.3,60.4 312.3,61.3 L270.4,61.3 L270.4,61.4 Z M300.9,52.5 C300.9,50.3 300.6,48.1 300,46.1 C299.4,44.1 298.5,42.3 297.4,40.8 C296.2,39.3 294.8,38.1 293,37.1 C291.2,36.2 289.1,35.7 286.6,35.7 C281.7,35.7 278,37.2 275.4,40.1 C272.8,43.1 271.2,47.2 270.7,52.5 L300.9,52.5 L300.9,52.5 Z" id="Shape"></path>
                    <path d="M353.3,90.7 C348.5,90.7 344.3,89.9 340.7,88.2 C337.1,86.6 334.1,84.3 331.7,81.4 C329.3,78.5 327.5,75.1 326.4,71.2 C325.2,67.3 324.7,63 324.7,58.5 C324.7,53.9 325.3,49.7 326.4,45.8 C327.6,41.9 329.3,38.5 331.7,35.6 C334.1,32.7 337.1,30.4 340.7,28.8 C344.3,27.1 348.5,26.3 353.3,26.3 C358.1,26.3 362.3,27.1 365.9,28.8 C369.5,30.5 372.5,32.8 374.9,35.6 C377.3,38.5 379.1,41.9 380.2,45.8 C381.4,49.7 381.9,54 381.9,58.5 C381.9,63.1 381.3,67.3 380.2,71.2 C379,75.1 377.3,78.5 374.9,81.4 C372.5,84.3 369.5,86.5 365.9,88.2 C362.3,89.8 358.1,90.7 353.3,90.7 L353.3,90.7 Z M353.3,81.2 C358.8,81.2 362.9,79.2 365.5,75.2 C368.1,71.2 369.5,65.6 369.5,58.5 C369.5,51.4 368.2,45.8 365.5,41.9 C362.9,37.9 358.8,36 353.3,36 C347.8,36 343.7,38 341.1,41.9 C338.5,45.9 337.2,51.4 337.2,58.5 C337.2,65.6 338.5,71.2 341.1,75.2 C343.7,79.2 347.8,81.2 353.3,81.2 L353.3,81.2 Z" id="Shape"></path>
                </g>
                <path d="M254,323.2 C255.2,327.2 256.3,329.9 256.6,330.8 C256.4,330.4 256.1,329.5 255.7,328.3 L254,323.2 L254,323.2 Z" id="Shape" fill="url(#linearGradient-1)"></path>
                <path d="M256.6,330.8 L255.7,328.3 C256.2,329.5 256.5,330.4 256.6,330.8 L256.6,330.8 Z" id="Shape" fill="url(#linearGradient-2)"></path>
                <path d="M256.6,330.8 L255.7,328.3 C256.2,329.5 256.5,330.4 256.6,330.8 L256.6,330.8 Z" id="Shape" fill="url(#linearGradient-3)"></path>
                <path id="Shape" fill="url(#linearGradient-4)"></path>
                <path id="Shape" fill="url(#linearGradient-5)"></path>
                <path d="M320.2,137.8 C320.2,136.9 320.1,136 320.1,135 C320.1,135 320.1,135 320.1,134.9 C320,133.9 319.9,133 319.8,132 C319.8,131.8 319.7,131.5 319.7,131.3 C319.6,130.4 319.4,129.5 319.3,128.6 L319.3,128.4 C319.1,127.4 318.9,126.5 318.7,125.5 C318.6,125.2 318.6,124.9 318.5,124.7 C318.3,123.9 318.1,123.1 317.9,122.2 C317.8,122 317.8,121.8 317.7,121.6 C317.4,120.7 317.1,119.7 316.8,118.8 C316.7,118.4 316.6,118 316.4,117.7 C316.2,117 316,116.4 315.7,115.7 C315.5,115.1 315.3,114.6 315.1,114 C314.9,113.4 314.6,112.7 314.3,112.1 C314.1,111.6 313.8,111 313.6,110.4 C313.4,110 313.3,109.6 313.1,109.3 C299.2,77.5 266.7,41.6 229.9,10.9 C229.3,10.4 228.7,9.9 228,9.3 C227.4,8.8 226.9,8.4 226.3,7.9 C225.1,6.9 223.8,5.9 222.6,4.9 C222.3,4.7 222,4.5 221.8,4.2 L221.8,4.2 C220.2,2.9 217.8,4.2 218,6.2 C220,37 219.2,66.9 215.4,91.4 C210.7,122.4 198.3,158.3 181.7,190.7 C181.6,190.9 181.5,191 181.4,191.2 C181.5,191 181.6,190.9 181.6,190.7 C150,187 118,179.2 91.4,168.4 C87.6,166.9 83.9,165.3 80.4,163.6 C70.2,158.8 59.4,152.9 48.3,146.1 C48.1,146 47.9,145.9 47.7,145.7 C47.5,145.6 47.4,145.5 47.2,145.4 C34.3,137.4 21,128.3 8,118.4 C6.4,117.1 4,118.4 4.2,120.5 C4.2,120.9 4.3,121.2 4.3,121.6 C4.3,122 4.4,122.3 4.4,122.7 C4.5,123.5 4.5,124.3 4.6,125.1 C4.6,125.3 4.6,125.4 4.7,125.6 C4.7,126 4.8,126.3 4.8,126.7 C5,128.4 5.1,130 5.3,131.7 C5.4,132.5 5.5,133.2 5.6,134 C5.8,135.9 6,137.8 6.3,139.8 C6.4,140.5 6.5,141.2 6.6,141.9 L6.6,142.3 C6.9,144.7 7.2,147 7.6,149.4 C7.6,149.6 7.6,149.9 7.7,150.1 C7.9,151.4 8.1,152.7 8.3,154 C8.4,154.3 8.4,154.7 8.5,155 C8.7,156.1 8.9,157.3 9.1,158.4 C9.1,158.6 9.2,158.8 9.2,159 C9.6,161.5 10,163.9 10.5,166.4 C10.6,166.9 10.7,167.4 10.8,167.9 C11.2,169.8 11.5,171.8 11.9,173.7 C12,174.2 12.1,174.7 12.2,175.1 C12.3,175.4 12.3,175.6 12.4,175.9 C12.9,178.2 13.4,180.6 13.9,182.9 C14,183.3 14.1,183.8 14.2,184.2 C16,192.1 18.1,199.8 20.3,207.1 L20.3,207.2 C20.6,208.1 20.9,209.1 21.2,210 C21.3,210.4 21.5,210.8 21.6,211.3 C21.8,212 22,212.6 22.3,213.3 C22.6,214.2 22.9,215 23.2,215.9 C23.3,216.3 23.5,216.8 23.7,217.2 C24.1,218.4 24.6,219.7 25,220.9 C25,221 25.1,221.1 25.1,221.2 C26.7,225.5 28.4,229.7 30.1,233.7 C30.2,233.8 30.2,234 30.3,234.1 C30.8,235.3 31.4,236.5 31.9,237.6 C32,237.7 32,237.9 32.1,238 C32.7,239.3 33.3,240.5 33.9,241.8 C34.7,243.3 35.4,244.8 36.2,246.2 C36.2,246.3 36.2,246.3 36.3,246.4 L36.3,246.4 C36.4,246.7 36.6,246.9 36.7,247.2 C37.3,248.2 37.8,249.2 38.4,250.2 C38.5,250.4 38.6,250.6 38.7,250.7 C39.4,251.9 40.1,253 40.8,254.1 C40.8,254.2 40.9,254.2 40.9,254.3 L40.9,254.3 C41,254.5 41.1,254.6 41.2,254.8 C41.8,255.7 42.4,256.6 42.9,257.5 C43.3,258 43.6,258.5 43.9,259 C44.2,259.4 44.6,259.9 44.9,260.3 C45,260.5 45.1,260.6 45.3,260.8 C45.6,261.2 45.9,261.6 46.2,261.9 C46.3,262 46.4,262.2 46.5,262.3 C46.8,262.7 47.2,263.1 47.5,263.5 C48,264.1 48.5,264.7 49,265.3 C50.1,266.6 51.3,267.9 52.5,269.1 C52.7,269.3 52.9,269.5 53.1,269.7 C53.7,270.3 54.3,270.8 54.9,271.4 L55,271.5 C55.4,271.9 55.8,272.2 56.3,272.6 C56.9,273.1 57.5,273.6 58,274.1 C58.5,274.5 58.9,274.8 59.4,275.2 C60,275.7 60.6,276.1 61.2,276.6 C61.7,276.9 62.1,277.2 62.6,277.5 C63.2,277.9 63.9,278.3 64.6,278.7 C65,279 65.5,279.2 66,279.5 L66,279.5 C66.8,279.9 67.5,280.2 68.3,280.6 C68.7,280.7 69.1,281 69.4,281.1 C70,281.4 70.5,281.6 71.1,281.8 C71.7,282 72.3,282.2 72.9,282.4 C73.6,282.6 74.3,282.9 74.9,283.2 C75,283.2 75.1,283.3 75.2,283.3 C130.3,299.8 185.2,279.5 250.7,326.1 C252.5,327.4 256.8,330.6 256.8,330.6 C250.8,244.5 300.5,210.3 318.1,153.9 C318.1,153.8 318.2,153.7 318.2,153.5 C318.3,152.7 318.5,151.8 318.8,150.9 C319.2,149.6 319.5,148.3 319.7,147 L319.7,146.8 C319.8,146 320,145.2 320.1,144.4 C320.1,144.2 320.2,143.9 320.2,143.7 C320.3,142.8 320.4,142 320.4,141.1 L320.4,141 L320.4,138.2 C320.2,138.2 320.2,138 320.2,137.8 L320.2,137.8 Z" id="Shape" fill="#602385"></path>
                <path d="M255.8,328.3 C251.3,314.8 233.5,255.4 243,192.1 C224,193.8 203,193.2 181.7,190.7 C171.9,209.8 160.7,227.7 148.6,242.6 C210.5,271.7 251.8,324.4 256.6,330.7 C256.3,329.8 255.2,327.1 254,323.1 L255.8,328.3 L255.8,328.3 Z" id="Shape" fill="#76389C"></path>
                <path d="M243,192.1 C243.9,186 245.1,179.9 246.5,173.8 C269.7,76 217.6,1 217.6,1 C220,33.7 219.4,65.6 215.4,91.5 C210.7,122.5 198.3,158.4 181.7,190.8 C203,193.2 224,193.8 243,192.1 L243,192.1 Z" id="Shape" fill="#9967B6"></path>
                <path d="M131.4,235.4 C137.3,237.6 143.1,240 148.6,242.7 C160.6,227.8 171.9,209.9 181.7,190.8 C150.1,187.1 118.1,179.3 91.5,168.5 C87.7,167 84,165.4 80.5,163.7 C70.3,158.9 59.5,153 48.4,146.2 C48.2,146.1 48,146 47.8,145.8 C47.6,145.7 47.5,145.6 47.3,145.5 C33,136.7 18.2,126.4 3.9,115.2 C3.8,115.2 37.1,200.4 131.4,235.4 L131.4,235.4 Z" id="Shape" fill="#8E62AA"></path>
                <path d="M148.7,242.7 C128.6,267.7 106.3,284.3 85.1,284.5 C83.3,284.5 81.5,284.4 79.8,284.2 C78.6,284.1 77.5,283.9 76.3,283.6 C75.1,283.3 74,283 72.8,282.7 C73.6,283 74.3,283.2 74.9,283.5 C131.7,300.6 188.3,278.4 256.6,330.8 C251.9,324.5 210.6,271.8 148.7,242.7 L148.7,242.7 Z" id="Shape" fill="#602385"></path>
                <path d="M79.8,284.2 C81.6,284.4 83.3,284.5 85.1,284.5 C106.3,284.3 128.6,267.7 148.7,242.7 C143.1,240.1 137.4,237.6 131.5,235.4 C37.2,200.4 3.9,115.2 3.9,115.2 C4.1,117.4 4.2,119.5 4.4,121.7 C4.4,122.1 4.5,122.4 4.5,122.8 C4.6,123.6 4.6,124.4 4.7,125.2 C4.7,125.4 4.7,125.5 4.8,125.7 C4.8,126.1 4.9,126.4 4.9,126.8 C5.1,128.5 5.2,130.1 5.4,131.8 C5.5,132.6 5.6,133.3 5.7,134.1 C5.9,136 6.1,137.9 6.4,139.9 C6.5,140.6 6.6,141.3 6.7,142 L6.7,142.4 C7,144.8 7.3,147.1 7.7,149.5 C7.7,149.7 7.7,150 7.8,150.2 C8,151.5 8.2,152.8 8.4,154.1 C8.5,154.4 8.5,154.8 8.6,155.1 C8.8,156.2 9,157.4 9.2,158.5 C9.2,158.7 9.3,158.9 9.3,159.1 C9.7,161.6 10.1,164 10.6,166.5 C10.7,167 10.8,167.5 10.9,168 C11.3,169.9 11.6,171.9 12,173.8 C12.1,174.3 12.2,174.8 12.3,175.2 C12.4,175.5 12.4,175.7 12.5,176 C13,178.3 13.5,180.7 14,183 C14.1,183.4 14.2,183.9 14.3,184.3 C16.1,192.2 18.2,199.9 20.4,207.2 L20.4,207.3 C20.7,208.2 21,209.2 21.3,210.1 C21.4,210.5 21.6,210.9 21.7,211.4 C21.9,212.1 22.1,212.7 22.4,213.4 C22.7,214.3 23,215.1 23.3,216 C23.4,216.4 23.6,216.9 23.8,217.3 C24.2,218.5 24.7,219.8 25.1,221 C25.1,221.1 25.2,221.2 25.2,221.3 C26.8,225.6 28.5,229.8 30.2,233.8 C30.3,233.9 30.3,234.1 30.4,234.2 C30.9,235.4 31.5,236.6 32,237.7 C32.1,237.8 32.1,238 32.2,238.1 C32.8,239.4 33.4,240.6 34,241.9 C34.8,243.4 35.5,244.9 36.3,246.3 C36.3,246.4 36.3,246.4 36.4,246.5 L36.4,246.5 C36.5,246.8 36.7,247 36.8,247.3 C37.4,248.3 37.9,249.3 38.5,250.3 C38.6,250.5 38.7,250.7 38.8,250.8 C39.5,252 40.2,253.1 40.9,254.2 C40.9,254.3 41,254.3 41,254.4 L41,254.4 C41.1,254.6 41.2,254.7 41.3,254.9 C41.9,255.8 42.5,256.7 43,257.6 C43.4,258.1 43.7,258.6 44,259.1 C44.3,259.5 44.7,260 45,260.4 C45.1,260.6 45.2,260.7 45.4,260.9 C45.7,261.3 46,261.7 46.3,262 C46.4,262.1 46.5,262.3 46.6,262.4 C46.9,262.8 47.3,263.2 47.6,263.6 C48.1,264.2 48.6,264.8 49.1,265.4 C50.2,266.7 51.4,268 52.6,269.2 C52.8,269.4 53,269.6 53.2,269.8 C53.8,270.4 54.4,270.9 55,271.5 L55.1,271.6 C55.5,272 55.9,272.3 56.4,272.7 C57,273.2 57.6,273.7 58.1,274.2 C58.6,274.6 59,274.9 59.5,275.3 C60.1,275.8 60.7,276.2 61.3,276.7 C61.8,277 62.2,277.3 62.7,277.6 C63.3,278 64,278.4 64.7,278.8 C65.1,279.1 65.6,279.3 66.1,279.6 L66.1,279.6 C66.9,280 67.6,280.3 68.4,280.7 C68.8,280.8 69.2,281.1 69.5,281.2 C70.1,281.5 70.6,281.7 71.2,281.9 C71.8,282.1 72.4,282.3 73,282.5 C74.2,282.9 75.3,283.2 76.5,283.4 C77.4,283.9 78.6,284.1 79.8,284.2 L79.8,284.2 Z" id="Shape" fill="#642B87"></path>
                <path d="M243,192.1 C233.5,255.4 251.3,314.8 255.8,328.3 L256.7,330.8 C250.7,244.6 300.5,210.5 318.1,153.9 C318.2,153.1 318.4,152.1 318.7,151.1 C311.5,176.1 281.3,188.7 243,192.1 L243,192.1 Z" id="Shape" fill="#672A8E"></path>
                <path d="M319.6,147.1 C319.7,146.3 319.9,145.5 320,144.7 C320,144.5 320.1,144.2 320.1,144 C320.2,143.1 320.3,142.3 320.3,141.4 L320.3,141.3 L320.3,138.5 L320.3,137.8 C320.3,136.9 320.2,136 320.2,135 C320.2,135 320.2,135 320.2,134.9 C320.1,133.9 320,133 319.9,132 C319.9,131.8 319.8,131.5 319.8,131.3 C319.7,130.4 319.5,129.5 319.4,128.6 L319.4,128.4 C319.2,127.4 319,126.5 318.8,125.5 C318.7,125.2 318.7,124.9 318.6,124.7 C318.4,123.9 318.2,123.1 318,122.2 C317.9,122 317.9,121.8 317.8,121.6 C317.5,120.7 317.2,119.7 316.9,118.8 C316.8,118.4 316.7,118 316.5,117.7 C316.3,117 316.1,116.4 315.8,115.7 C315.6,115.1 315.4,114.6 315.2,114 C315,113.4 314.7,112.7 314.4,112.1 C314.2,111.6 313.9,111 313.7,110.4 C313.5,110 313.4,109.6 313.2,109.3 C299.3,77.5 266.8,41.6 230,10.9 C229.4,10.4 228.8,9.9 228.1,9.3 C227.5,8.8 227,8.4 226.4,7.9 C225.2,6.9 223.9,5.9 222.7,4.9 C222.4,4.7 222.1,4.5 221.9,4.2 C220.5,3.1 219.1,1.9 217.6,0.8 C217.6,0.8 269.7,75.8 246.5,173.7 C245.1,179.8 243.9,185.9 243,192 C281.3,188.6 311.5,176 318.6,151 C319,149.7 319.3,148.4 319.5,147.1 C319.6,147.2 319.6,147.1 319.6,147.1 L319.6,147.1 Z" id="Shape" fill="#69308C"></path>
            </g>
        </g>
    </g>
</svg>