<?xml version="1.0" encoding="UTF-8" standalone="no"?>
<svg width="703px" height="389px" viewBox="0 0 703 389" version="1.1" xmlns="http://www.w3.org/2000/svg" xmlns:xlink="http://www.w3.org/1999/xlink">
    <!-- Generator: Sketch 3.8.2 (29753) - http://www.bohemiancoding.com/sketch -->
    <title>infinit</title>
    <desc>Created with Sketch.</desc>
    <defs></defs>
    <g id="Page-1" stroke="none" stroke-width="1" fill="none" fill-rule="evenodd">
        <g id="infinit">
            <g id="Group-3" transform="translate(302.000000, 186.000000)" fill="#636459">
                <path d="M152.7417,164.8373 C152.5697,167.8633 152.2277,170.6513 151.7127,173.1973 C151.1967,175.7433 150.4347,177.8453 149.4297,179.5093 C148.4227,181.1683 147.0857,182.0003 145.4177,182.0003 C144.8767,182.0003 144.3497,181.6393 143.8347,180.9153 C143.3197,180.1923 142.8527,178.6243 142.4367,176.2123 C142.0177,173.8013 141.6747,170.2633 141.4047,165.5993 C141.1347,160.9373 140.9997,154.6673 140.9997,146.7893 C140.9997,145.6643 141.0487,144.1253 141.1487,142.1673 C141.2457,140.2103 141.3687,138.0943 141.5147,135.8163 C141.6637,133.5393 141.8337,131.2213 142.0317,128.8623 C142.2267,126.5033 142.4367,124.3753 142.6567,122.4703 C142.8767,120.5693 143.1117,119.0143 143.3567,117.8063 C143.6017,116.6013 143.8227,116.0003 144.0197,116.0003 C144.6067,116.0003 145.2457,116.7233 145.9327,118.1713 C146.6197,119.6173 147.2937,121.5053 147.9577,123.8363 C148.6217,126.1703 149.2567,128.8083 149.8707,131.7553 C150.4847,134.7033 151.0247,137.6653 151.4907,140.6383 C151.9557,143.6123 152.3247,146.4673 152.5947,149.2003 C152.8647,151.9333 152.9997,154.2383 152.9997,156.1133 C152.9997,158.9013 152.9127,161.8073 152.7417,164.8373 M150.1677,73.3223 C150.5537,69.8413 151.2197,65.8063 152.1677,61.2163 C153.1107,56.6283 154.5007,51.3763 156.3347,45.4653 C158.1687,39.5543 160.6937,32.7103 163.9147,24.9363 C164.9707,22.2913 166.1657,20.3083 167.4987,18.9843 C168.8337,17.6633 170.7767,17.0003 173.3347,17.0003 C174.7767,17.0003 175.9157,17.6633 176.7487,18.9843 C177.5827,20.3083 177.9997,22.3973 177.9997,25.2593 C177.9997,27.3133 177.1237,30.3083 175.3757,34.2493 C173.6237,38.1903 171.3607,42.7403 168.5837,47.8943 C165.8047,53.0523 162.6937,58.6393 159.2497,64.6583 C155.8037,70.6783 152.3867,76.7933 148.9997,83.0003 C149.3877,80.0323 149.7757,76.8053 150.1677,73.3223 M398.6137,71.0083 C395.6407,70.8503 384.5287,73.0413 377.3417,74.6563 C380.4567,63.4583 383.5117,52.4803 383.9267,51.0353 C384.7727,48.0923 385.4787,45.4573 386.0417,43.1313 C386.6077,40.8053 386.8887,39.0253 386.8887,37.7933 C386.8887,36.3343 386.4667,35.1723 385.6197,34.3023 C384.7727,33.4343 383.1657,33.0003 380.7947,33.0003 C379.4957,33.0003 378.0437,33.1553 376.4367,33.4623 C374.8277,33.7703 373.2747,34.2493 371.7817,34.8903 C370.2867,35.5363 368.9457,36.3773 367.7607,37.4133 C366.5767,38.4513 365.7877,39.6973 365.3917,41.1553 C364.7227,43.9263 359.2597,63.9243 355.2327,78.6703 C352.4407,80.2453 350.2967,82.5563 351.2157,84.5173 C351.5017,85.1253 352.2397,85.6353 353.2157,86.0593 C352.1087,90.1163 351.2907,93.1233 350.9977,94.2263 C349.6717,99.2173 348.4157,104.2203 347.2317,109.2363 C346.0477,114.2533 345.0447,119.1023 344.2267,123.7823 C343.8967,125.6713 343.6507,127.4413 343.4547,129.1423 C343.0227,129.4813 342.5987,129.8293 342.1647,130.1633 C339.6317,132.1113 337.1277,133.7713 334.6537,135.1443 C332.1767,136.5163 329.9287,137.2013 327.9037,137.2013 C326.1587,137.2013 325.0037,136.4733 324.4447,135.0183 C323.8817,133.5663 323.5987,131.6043 323.5987,129.1363 C323.5987,126.6123 323.8817,123.7743 324.4447,120.6183 C325.0037,117.4643 325.7107,114.2283 326.5537,110.9073 C327.3977,107.5903 328.2967,104.2703 329.2517,100.9503 C330.2097,97.6293 331.1087,94.5313 331.9537,91.6503 C332.7967,88.7713 333.4997,86.1933 334.0627,83.9163 C334.6237,81.6393 334.9077,79.8963 334.9077,78.6883 C334.9077,77.2633 334.4847,76.1253 333.6397,75.2733 C332.7967,74.4263 331.1947,74.0003 328.8317,74.0003 C327.5357,74.0003 326.0887,74.1523 324.4857,74.4523 C322.8837,74.7543 321.3357,75.2203 319.8467,75.8503 C318.3547,76.4813 317.0187,77.3053 315.8387,78.3193 C314.6567,79.3343 313.8677,80.5543 313.4767,81.9803 C312.4627,86.0953 311.2937,90.5933 309.9747,95.4773 C308.6527,100.3613 307.3997,105.2583 306.2197,110.1673 C305.0387,115.0773 304.0387,119.8233 303.2247,124.4043 C303.0467,125.4013 302.8967,126.3603 302.7577,127.3033 C301.6157,128.2673 300.4667,129.2163 299.3027,130.1363 C297.9827,131.1793 296.6907,132.0973 295.4307,132.8923 C294.1647,133.6873 292.9857,134.3333 291.8917,134.8263 C290.7987,135.3183 289.8287,135.5663 288.9857,135.5663 C287.1327,135.5663 285.7707,134.4703 284.9007,132.2753 C284.0317,130.0813 283.5977,127.2833 283.5977,123.8803 C283.5977,121.8533 283.7207,119.6303 283.9737,117.2143 C284.2267,114.8013 284.5497,112.3603 284.9437,109.8923 C285.3367,107.4223 285.7707,105.0093 286.2487,102.6493 C286.7247,100.2903 287.1597,98.1243 287.5547,96.1483 C287.9467,94.1743 288.2707,92.4723 288.5247,91.0473 C288.7757,89.6203 288.9007,88.6063 288.9007,88.0023 C288.9007,83.9413 288.0717,80.7593 286.4167,78.4543 C284.7597,76.1513 282.5307,75.0003 279.7227,75.0003 C276.9137,75.0003 274.3587,75.5483 272.0567,76.6453 C269.7567,77.7413 267.7057,79.7723 265.9097,82.7353 C265.5167,83.3943 264.9267,84.4083 264.1417,85.7783 C263.3537,87.1513 262.4847,88.7293 261.5307,90.5113 C260.5767,92.2943 259.5517,94.1603 258.4567,96.1083 C257.3617,98.0553 256.3357,99.9063 255.3847,101.6623 C254.4277,103.4193 253.5857,104.9683 252.8547,106.3113 C252.1257,107.6563 251.5907,108.6303 251.2567,109.2333 L249.5717,109.2333 C249.5717,108.8503 249.6567,108.0953 249.8237,106.9703 C249.9927,105.8453 250.2007,104.5293 250.4557,103.0203 C250.7087,101.5113 250.9727,99.8653 251.2567,98.0813 C251.5367,96.3003 251.8037,94.5723 252.0557,92.8973 C252.3087,91.2253 252.5207,89.6883 252.6857,88.2893 C252.8547,86.8913 252.9387,85.7783 252.9387,84.9573 C252.9387,81.9403 252.3497,79.5253 251.1727,77.7143 C249.9927,75.9043 247.8867,75.0003 244.8537,75.0003 C241.8237,75.0003 239.4227,75.8513 237.6527,77.5503 C235.8857,79.2513 234.6927,81.3633 234.0757,83.8863 C233.2867,87.1243 232.4727,91.0193 231.6317,95.5733 C230.7907,100.1263 230.0327,104.8593 229.3577,109.7673 C228.6847,114.6793 228.1237,119.5063 227.6727,124.2513 C227.6217,124.7953 227.5837,125.3053 227.5377,125.8343 C225.7717,127.3093 223.9867,128.7613 222.1637,130.1633 C219.6327,132.1113 217.1287,133.7713 214.6547,135.1443 C212.1767,136.5163 209.9277,137.2013 207.9027,137.2013 C206.1597,137.2013 205.0047,136.4733 204.4457,135.0183 C203.8807,133.5663 203.6017,131.6043 203.6017,129.1363 C203.6017,126.6123 203.8807,123.7743 204.4457,120.6183 C205.0047,117.4643 205.7107,114.2283 206.5537,110.9073 C207.3957,107.5903 208.2967,104.2703 209.2527,100.9503 C210.2097,97.6293 211.1117,94.5313 211.9537,91.6503 C212.7967,88.7713 213.4997,86.1933 214.0617,83.9163 C214.6237,81.6393 214.9057,79.8963 214.9057,78.6883 C214.9057,77.2633 214.4847,76.1253 213.6407,75.2733 C212.7967,74.4263 211.1947,74.0003 208.8337,74.0003 C207.5367,74.0003 206.0897,74.1523 204.4867,74.4523 C202.8837,74.7543 201.3347,75.2203 199.8457,75.8503 C198.3537,76.4813 197.0187,77.3053 195.8377,78.3193 C194.6547,79.3343 193.8697,80.5543 193.4757,81.9803 C192.4597,86.0953 191.2967,90.5933 189.9737,95.4773 C189.9707,95.4853 189.9687,95.4943 189.9667,95.5023 C188.5177,96.5593 186.9607,97.5413 185.2947,98.4473 C182.4467,100.0433 178.9417,101.4863 174.7817,102.7783 C170.6197,104.0713 165.8307,104.7193 160.4077,104.7193 C159.8597,104.7193 159.3947,104.6513 159.0127,104.5123 C158.6287,104.3753 158.2577,104.2233 157.9047,104.0583 C157.5467,103.8923 157.1507,103.7413 156.7127,103.6033 C156.2737,103.4673 155.6997,103.3983 154.9887,103.3983 C154.3847,103.3983 153.8117,103.4813 153.2627,103.6443 C152.7157,103.8093 151.8957,104.1693 150.7997,104.7193 L150.9617,103.3983 C154.3577,99.0533 157.6827,94.3903 160.9427,89.4103 C164.1987,84.4323 167.3077,79.3723 170.2637,74.2263 C173.2197,69.0833 175.9427,63.9273 178.4367,58.7553 C180.9287,53.5833 183.0897,48.6043 184.9247,43.8193 C186.7567,39.0323 188.1807,34.5343 189.1947,30.3273 C190.2077,26.1173 190.7137,22.3903 190.7137,19.1463 C190.7137,15.5673 190.1507,12.5573 189.0307,10.1073 C187.9097,7.6613 186.4967,5.6933 184.7997,4.2073 C183.1037,2.7233 181.2267,1.6513 179.1757,0.9893 C177.1217,0.3283 175.1637,0.0003 173.3037,0.0003 C168.5927,0.0003 164.2697,1.4303 160.3257,4.2893 C156.3837,7.1503 152.8107,11.0453 149.6097,15.9663 C146.4067,20.8913 143.5177,26.6413 140.9447,33.2133 C138.3707,39.7883 136.0837,46.7883 134.0857,54.2153 C132.0857,61.6413 130.3607,69.2743 128.9127,77.1153 C127.4607,84.9543 126.1997,92.6013 125.1337,100.0553 C124.0677,107.5103 123.2037,114.5783 122.5487,121.2633 C122.2217,124.5723 121.9297,127.6873 121.6707,130.6113 C120.5727,131.4523 119.4897,132.2263 118.4297,132.8923 C117.1657,133.6873 115.9877,134.3333 114.8937,134.8263 C113.7987,135.3183 112.8297,135.5663 111.9847,135.5663 C110.1337,135.5663 108.7707,134.4703 107.9017,132.2753 C107.0317,130.0813 106.5977,127.2833 106.5977,123.8803 C106.5977,121.8533 106.7237,119.6303 106.9767,117.2143 C107.2297,114.8013 107.5507,112.3603 107.9437,109.8923 C108.3367,107.4223 108.7707,105.0093 109.2507,102.6493 C109.7257,100.2903 110.1637,98.1243 110.5557,96.1483 C110.9477,94.1743 111.2717,92.4723 111.5247,91.0473 C111.7787,89.6203 111.9017,88.6063 111.9017,88.0023 C111.9017,83.9413 111.0737,80.7593 109.4177,78.4543 C107.7617,76.1513 105.5297,75.0003 102.7217,75.0003 C99.9147,75.0003 97.3607,75.5483 95.0597,76.6453 C92.7537,77.7413 90.7077,79.7723 88.9097,82.7353 C88.5167,83.3943 87.9287,84.4083 87.1427,85.7783 C86.3557,87.1513 85.4867,88.7293 84.5297,90.5113 C83.5757,92.2943 82.5527,94.1603 81.4577,96.1083 C80.3617,98.0553 79.3347,99.9063 78.3837,101.6623 C77.4257,103.4193 76.5847,104.9683 75.8557,106.3113 C75.1267,107.6563 74.5917,108.6303 74.2567,109.2333 L72.5717,109.2333 C72.5717,108.8503 72.6567,108.0953 72.8257,106.9703 C72.9937,105.8453 73.2027,104.5293 73.4557,103.0203 C73.7097,101.5113 73.9737,99.8653 74.2567,98.0813 C74.5357,96.3003 74.8047,94.5723 75.0557,92.8973 C75.3077,91.2253 75.5197,89.6883 75.6877,88.2893 C75.8557,86.8913 75.9417,85.7783 75.9417,84.9573 C75.9417,81.9403 75.3507,79.5253 74.1717,77.7143 C72.9937,75.9043 70.8877,75.0003 67.8547,75.0003 C64.8227,75.0003 62.4227,75.8513 60.6547,77.5503 C58.8857,79.2513 57.6917,81.3633 57.0747,83.8863 C56.2887,87.1243 55.4747,91.0193 54.6337,95.5733 C53.7897,100.1263 53.0327,104.8593 52.3587,109.7673 C51.7767,114.0193 51.2937,118.1943 50.8787,122.3203 C49.8447,123.1833 48.7507,124.1123 47.5867,125.1163 C45.1677,127.2003 42.6947,129.2173 40.1617,131.1643 C37.6297,133.1113 35.1277,134.7713 32.6527,136.1443 C30.1767,137.5163 27.9287,138.2013 25.9027,138.2013 C24.1577,138.2013 23.0067,137.4733 22.4437,136.0193 C21.8787,134.5663 21.5987,132.6053 21.5987,130.1363 C21.5987,127.6133 21.8787,124.7743 22.4437,121.6183 C23.0067,118.4643 23.7087,115.2283 24.5527,111.9073 C25.3957,108.5903 26.2967,105.2703 27.2527,101.9503 C28.2087,98.6293 29.1097,95.5313 29.9517,92.6503 C30.7967,89.7713 31.4987,87.1933 32.0627,84.9163 C32.6237,82.6393 32.9057,80.8973 32.9057,79.6893 C32.9057,78.2633 32.4837,77.1253 31.6397,76.2733 C30.7967,75.4263 29.1937,75.0003 26.8297,75.0003 C25.5357,75.0003 24.0887,75.1523 22.4857,75.4523 C20.8827,75.7553 19.3337,76.2203 17.8437,76.8503 C16.3547,77.4823 15.0177,78.3053 13.8367,79.3193 C12.6557,80.3343 11.8677,81.5543 11.4747,82.9803 C10.4617,87.0953 9.2937,91.5933 7.9737,96.4773 C6.6497,101.3613 5.3997,106.2583 4.2187,111.1673 C3.0367,116.0773 2.0387,120.8233 1.2227,125.4043 C0.4077,129.9853 -0.0003,134.0043 -0.0003,137.4593 C-0.0003,139.9283 0.2657,142.1923 0.8007,144.2503 C1.3357,146.3063 2.2217,148.0483 3.4597,149.4743 C4.6957,150.9023 6.3137,152.0133 8.3117,152.8073 C10.3077,153.6023 12.7687,154.0003 15.6937,154.0003 C18.9537,154.0003 22.4017,153.4253 26.0297,152.2723 C29.6587,151.1213 33.2147,149.6793 36.7017,147.9523 C40.1897,146.2253 43.4387,144.3293 46.4477,142.2743 C47.7587,141.3773 48.9597,140.5083 50.0837,139.6583 C50.1467,140.8523 50.2387,142.0293 50.3807,143.1793 C50.6307,145.2363 51.1367,147.0753 51.8957,148.6923 C52.6527,150.3103 53.7347,151.6003 55.1377,152.5603 C56.5407,153.5213 58.3937,154.0003 60.6967,154.0003 C62.5487,154.0003 64.1767,153.5893 65.5817,152.7663 C66.9837,151.9433 68.2477,150.4083 69.3697,148.1593 L91.4377,105.3633 L92.7837,105.3633 C92.1107,109.7563 91.5467,113.8543 91.1017,117.6683 C90.6507,121.4823 90.4247,125.0343 90.4247,128.3253 C90.4247,136.7193 91.4797,143.0973 93.5827,147.4593 C95.6917,151.8193 98.2857,154.0003 101.3727,154.0003 C104.4627,154.0003 107.4097,153.5763 110.2187,152.7243 C113.0257,151.8743 115.7207,150.7783 118.3037,149.4333 C118.9957,149.0733 119.6797,148.6973 120.3577,148.3113 C120.2967,149.3763 120.2457,150.3653 120.2067,151.2593 C120.0687,154.3403 119.9997,156.0173 119.9997,156.2923 C119.9997,159.6483 120.1227,163.1273 120.3697,166.7313 C120.6167,170.3353 121.0387,173.8693 121.6407,177.3363 C122.2447,180.8013 123.0797,184.0883 124.1487,187.1963 C125.2177,190.3053 126.5427,193.0273 128.1317,195.3663 C129.7197,197.7033 131.6347,199.5613 133.8817,200.9363 C136.1237,202.3113 138.7537,203.0003 141.7667,203.0003 C144.7757,203.0003 147.4727,202.3683 149.8567,201.1023 C152.2377,199.8363 154.3427,198.1733 156.1787,196.1093 C158.0137,194.0463 159.6147,191.6803 160.9837,189.0123 C162.3517,186.3433 163.5157,183.5793 164.4737,180.7203 C165.4327,177.8583 166.2117,175.0253 166.8147,172.2193 C167.4167,169.4133 167.8827,166.8573 168.2117,164.5453 C168.5387,162.2353 168.7717,160.2813 168.9087,158.6863 C169.0447,157.0913 169.1147,156.0453 169.1147,155.5513 C169.1147,151.3143 168.5517,147.1203 167.4297,142.9653 C166.3087,138.8113 165.0627,135.0583 163.6937,131.7023 C162.1057,127.7973 160.3257,124.0283 158.3567,120.3973 C162.1887,120.2313 166.0467,119.8483 169.9357,119.2423 C173.2757,118.6923 176.9167,117.8673 180.8587,116.7653 C182.2707,116.3713 183.6537,115.9003 185.0237,115.3943 C184.3507,118.4623 183.7457,121.4703 183.2227,124.4043 C182.4077,128.9853 181.9997,133.0043 181.9997,136.4583 C181.9997,138.9283 182.2667,141.1923 182.8027,143.2503 C183.3347,145.3063 184.2217,147.0483 185.4597,148.4743 C186.6937,149.9023 188.3157,151.0133 190.3117,151.8063 C192.3087,152.6023 194.7697,153.0003 197.6937,153.0003 C200.9547,153.0003 204.4007,152.4253 208.0287,151.2723 C211.6587,150.1213 215.2177,148.6793 218.7037,146.9523 C221.7477,145.4443 224.5977,143.8023 227.2777,142.0433 C227.3147,142.4203 227.3347,142.8073 227.3807,143.1793 C227.6317,145.2363 228.1367,147.0753 228.8967,148.6923 C229.6537,150.3103 230.7327,151.6003 232.1377,152.5603 C233.5407,153.5213 235.3937,154.0003 237.6987,154.0003 C239.5497,154.0003 241.1767,153.5893 242.5787,152.7663 C243.9847,151.9433 245.2467,150.4083 246.3717,148.1593 L268.4357,105.3633 L269.7827,105.3633 C269.1117,109.7563 268.5467,113.8543 268.0987,117.6683 C267.6487,121.4823 267.4247,125.0343 267.4247,128.3253 C267.4247,136.7193 268.4787,143.0973 270.5837,147.4593 C272.6897,151.8193 275.2857,154.0003 278.3747,154.0003 C281.4617,154.0003 284.4077,153.5763 287.2177,152.7243 C290.0237,151.8743 292.7207,150.7783 295.3017,149.4333 C297.8817,148.0883 300.3697,146.5673 302.7557,144.8663 C302.9077,144.7573 303.0557,144.6493 303.2077,144.5413 C303.7437,146.0433 304.4897,147.3583 305.4597,148.4743 C306.6957,149.9023 308.3127,151.0133 310.3087,151.8063 C312.3097,152.6023 314.7717,153.0003 317.6947,153.0003 C320.9547,153.0003 324.4017,152.4253 328.0307,151.2723 C331.6587,150.1213 335.2157,148.6793 338.7037,146.9523 C340.5757,146.0253 342.3737,145.0453 344.1077,144.0223 C344.6517,145.6953 345.4287,147.1553 346.4707,148.3763 C347.7097,149.8343 349.3337,150.9703 351.3357,151.7803 C353.3377,152.5943 355.8067,153.0003 358.7417,153.0003 C362.0117,153.0003 365.4677,152.4123 369.1067,151.2353 C372.7487,150.0583 376.3157,148.5853 379.8147,146.8203 C383.3137,145.0563 386.5717,143.1193 389.5917,141.0183 C391.3777,139.7733 392.1767,139.1833 393.6307,138.0423 C393.9807,137.7673 394.7457,136.8623 395.0437,136.2823 C396.6747,133.1043 397.5827,126.0523 396.5827,122.8733 C395.5957,119.7353 391.1637,123.1463 389.7167,124.3683 C389.5847,124.4823 389.4537,124.5963 389.3217,124.7093 C389.2787,124.7483 389.2547,124.7703 389.2547,124.7703 L389.2537,124.7683 C387.3007,126.4453 385.3107,128.0803 383.2857,129.6673 C380.7467,131.6573 378.2347,133.3533 375.7517,134.7563 C373.2687,136.1573 371.0127,136.8573 368.9817,136.8573 C367.2327,136.8573 366.0747,136.1143 365.5107,134.6283 C364.9467,133.1443 364.6657,131.1393 364.6657,128.6173 C364.6657,126.0393 364.9467,123.1383 365.5107,119.9153 C366.0747,116.6913 366.7807,113.3863 367.6257,109.9923 C368.4717,106.6033 369.3777,103.2113 370.3357,99.8183 C370.6417,98.7373 372.0487,93.6843 373.8497,87.2103 C379.3707,86.8073 385.0057,86.3993 385.3047,86.3883 C385.8967,86.3673 395.6357,86.0003 398.1897,82.9863 C400.7427,79.9723 402.7757,71.2273 398.6137,71.0083" id="Fill-1"></path>
            </g>
            <path d="M514.6288,248 C517.3218,248 519.6328,247.595 521.5628,246.786 C523.4908,245.976 525.0868,244.918 526.3568,243.612 C527.6248,242.307 528.5468,240.816 529.1278,239.145 C529.7118,237.472 529.9998,235.749 529.9998,233.972 C529.9998,232.04 529.6448,230.368 528.9328,228.957 C528.2188,227.547 527.2528,226.41 526.0388,225.548 C524.8238,224.686 523.3988,224.046 521.7588,223.628 C520.1218,223.21 518.3778,223 516.5308,223 C513.5708,223 511.1038,223.459 509.1218,224.372 C507.1428,225.287 505.5558,226.41 504.3678,227.743 C503.1788,229.074 502.3208,230.498 501.7918,232.012 C501.2628,233.529 500.9998,234.886 500.9998,236.089 C500.9998,239.693 502.1088,242.581 504.3268,244.747 C506.5458,246.916 509.9798,248 514.6288,248" id="Fill-4" fill="#636459"></path>
            <path d="M634.6273,248 C637.3233,248 639.6313,247.595 641.5593,246.786 C643.4903,245.976 645.0863,244.918 646.3553,243.612 C647.6213,242.307 648.5433,240.816 649.1253,239.145 C649.7083,237.472 650.0003,235.749 650.0003,233.972 C650.0003,232.04 649.6413,230.368 648.9293,228.957 C648.2163,227.547 647.2503,226.41 646.0383,225.548 C644.8203,224.686 643.3953,224.046 641.7583,223.628 C640.1203,223.21 638.3783,223 636.5283,223 C633.5703,223 631.1013,223.459 629.1203,224.372 C627.1403,225.287 625.5553,226.41 624.3673,227.743 C623.1803,229.074 622.3203,230.498 621.7923,232.012 C621.2643,233.529 621.0003,234.886 621.0003,236.089 C621.0003,239.693 622.1083,242.581 624.3273,244.747 C626.5463,246.916 629.9793,248 634.6273,248" id="Fill-6" fill="#636459"></path>
            <path d="M331.6281,248 C334.3231,248 336.6321,247.595 338.5621,246.786 C340.4901,245.976 342.0871,244.918 343.3541,243.612 C344.6241,242.307 345.5471,240.816 346.1271,239.145 C346.7111,237.472 347.0001,235.749 347.0001,233.972 C347.0001,232.04 346.6431,230.368 345.9321,228.957 C345.2181,227.547 344.2521,226.41 343.0381,225.548 C341.8231,224.686 340.3971,224.046 338.7601,223.628 C337.1221,223.21 335.3781,223 333.5311,223 C330.5711,223 328.1021,223.459 326.1221,224.372 C324.1421,225.287 322.5561,226.41 321.3691,227.743 C320.1791,229.074 319.3201,230.498 318.7931,232.012 C318.2631,233.529 318.0001,234.886 318.0001,236.089 C318.0001,239.693 319.1081,242.581 321.3281,244.747 C323.5461,246.916 326.9811,248 331.6281,248" id="Fill-8" fill="#636459"></path>
            <g id="Group-12" fill="#EE6258">
                <path d="M232.9733,89.6111 C195.7083,114.4361 174.2303,160.1721 174.2303,160.1721 C140.3553,151.1941 129.1733,145.5281 129.1733,145.5281 C129.1733,145.5281 147.0543,57.4321 120.4953,22.3771 C97.7993,-7.5789 60.7513,-4.9159 33.0483,15.3871 C32.8803,15.5101 32.7183,15.6351 32.5523,15.7591 C30.2523,17.7581 27.6553,20.0181 24.8843,22.4511 C20.8493,26.6021 17.6703,31.0931 15.3083,35.8421 C10.4613,46.7451 8.7783,60.9471 13.9253,79.8831 L13.9253,79.8841 C15.2623,83.7161 16.9433,87.5651 18.9563,91.4041 C31.3403,112.1771 59.7873,130.7211 82.6833,143.1221 C100.9063,152.7711 115.9063,159.0911 115.9063,159.0911 C111.2343,181.3911 109.1473,185.6901 109.1473,185.6901 C109.1473,185.6901 51.7403,171.4901 27.0403,185.8011 C2.3423,200.1151 0.3403,219.4201 0.0063,233.3971 C-0.3277,247.3771 11.6873,280.6611 55.0773,274.6701 C98.4663,268.6791 115.1553,204.3301 115.1553,204.3301 C135.5143,208.9911 149.8663,214.7591 149.8663,214.7591 C149.8663,214.7591 142.5233,234.7271 136.8493,260.0261 C130.4833,289.7451 141.1423,337.8161 201.9433,339.0001 C262.2603,337.3331 265.3723,272.6131 240.3163,245.7121 C217.0643,220.7491 171.5603,203.7741 171.5603,203.7741 C177.8553,188.3841 181.5743,183.1401 181.5743,183.1401 C181.5743,183.1401 207.9423,192.7911 226.6323,198.4501 C245.3223,204.1071 319.0843,235.0621 355.7993,175.4841 C400.1503,103.5131 315.4133,34.6911 232.9733,89.6111 M36.8663,250.2081 C15.1153,243.3091 16.3153,213.6721 36.8663,203.0871 C57.4183,192.5011 104.0003,201.7211 104.0003,201.7211 C87.2163,243.3791 59.4733,257.3801 36.8663,250.2081 M118.6853,141.0001 C118.6853,141.0001 105.2063,137.0531 69.9393,113.2071 C34.6733,89.3581 24.8383,44.6871 54.6803,30.5791 C86.1893,15.6841 103.5113,32.2591 113.6843,60.8091 C123.8573,89.3581 118.6853,141.0001 118.6853,141.0001 M120.0003,188.2091 C122.3423,182.2091 125.8553,165.0001 125.8553,165.0001 C142.4163,171.6311 165.0003,178.7361 165.0003,178.7361 C163.1603,182.3661 155.7993,198.0001 155.7993,198.0001 C147.4353,195.7891 120.0003,188.2091 120.0003,188.2091 M225.1663,265.6501 C237.6533,285.6421 230.0953,306.9661 202.4913,305.9661 C174.8883,304.9661 164.3733,292.1391 161.5793,271.6461 C158.7853,251.1551 167.0013,223.0001 167.0013,223.0001 C178.3393,228.1651 212.6793,245.6571 225.1663,265.6501 M281.0703,171.0701 C238.2013,177.7191 194.0003,165.0531 194.0003,165.0531 C194.0003,165.0531 217.5023,125.8401 259.3573,112.4701 C301.8663,98.8921 322.4633,113.1531 325.2203,127.3891 C327.9763,141.6231 325.6143,164.1631 281.0703,171.0701" id="Fill-10"></path>
            </g>
        </g>
    </g>
</svg>