<svg xmlns="http://www.w3.org/2000/svg" viewBox="0 0 1084.09 1278.32"><title>filet-header@1x</title><line x1="465.62" y1="0.17" x2="0.47" y2="1278.15" fill="none"/><line x1="465.62" y1="0.17" x2="0.47" y2="1278.15" fill="none" stroke="#fde98f" stroke-miterlimit="10"/><line x1="471.62" y1="0.17" x2="6.47" y2="1278.15" fill="none" stroke="#fde98f" stroke-miterlimit="10"/><line x1="477.62" y1="0.17" x2="12.47" y2="1278.15" fill="none" stroke="#fde98f" stroke-miterlimit="10"/><line x1="483.62" y1="0.17" x2="18.47" y2="1278.15" fill="none" stroke="#fde98f" stroke-miterlimit="10"/><line x1="489.62" y1="0.17" x2="24.47" y2="1278.15" fill="none" stroke="#fde98f" stroke-miterlimit="10"/><line x1="495.62" y1="0.17" x2="30.47" y2="1278.15" fill="none" stroke="#fde98f" stroke-miterlimit="10"/><line x1="501.62" y1="0.17" x2="36.47" y2="1278.15" fill="none" stroke="#fde98f" stroke-miterlimit="10"/><line x1="507.62" y1="0.17" x2="42.47" y2="1278.15" fill="none" stroke="#fde98f" stroke-miterlimit="10"/><line x1="513.62" y1="0.17" x2="48.47" y2="1278.15" fill="none" stroke="#fde98f" stroke-miterlimit="10"/><line x1="519.62" y1="0.17" x2="54.47" y2="1278.15" fill="none" stroke="#fde98f" stroke-miterlimit="10"/><line x1="525.62" y1="0.17" x2="60.47" y2="1278.15" fill="none" stroke="#fde98f" stroke-miterlimit="10"/><line x1="531.62" y1="0.17" x2="66.47" y2="1278.15" fill="none" stroke="#fde98f" stroke-miterlimit="10"/><line x1="537.62" y1="0.17" x2="72.47" y2="1278.15" fill="none" stroke="#fde98f" stroke-miterlimit="10"/><line x1="543.62" y1="0.17" x2="78.47" y2="1278.15" fill="none" stroke="#fde98f" stroke-miterlimit="10"/><line x1="549.62" y1="0.17" x2="84.47" y2="1278.15" fill="none" stroke="#fde98f" stroke-miterlimit="10"/><line x1="555.62" y1="0.17" x2="90.47" y2="1278.15" fill="none" stroke="#fde98f" stroke-miterlimit="10"/><line x1="561.62" y1="0.17" x2="96.47" y2="1278.15" fill="none" stroke="#fde98f" stroke-miterlimit="10"/><line x1="567.62" y1="0.17" x2="102.47" y2="1278.15" fill="none" stroke="#fde98f" stroke-miterlimit="10"/><line x1="573.62" y1="0.17" x2="108.47" y2="1278.15" fill="none" stroke="#fde98f" stroke-miterlimit="10"/><line x1="579.62" y1="0.17" x2="114.47" y2="1278.15" fill="none" stroke="#fde98f" stroke-miterlimit="10"/><line x1="585.62" y1="0.17" x2="120.47" y2="1278.15" fill="none" stroke="#fde98f" stroke-miterlimit="10"/><line x1="591.62" y1="0.17" x2="126.47" y2="1278.15" fill="none" stroke="#fde98f" stroke-miterlimit="10"/><line x1="597.62" y1="0.17" x2="132.47" y2="1278.15" fill="none" stroke="#fde98f" stroke-miterlimit="10"/><line x1="603.62" y1="0.17" x2="138.47" y2="1278.15" fill="none" stroke="#fde98f" stroke-miterlimit="10"/><line x1="609.62" y1="0.17" x2="144.47" y2="1278.15" fill="none" stroke="#fde98f" stroke-miterlimit="10"/><line x1="615.62" y1="0.17" x2="150.47" y2="1278.15" fill="none" stroke="#fde98f" stroke-miterlimit="10"/><line x1="621.62" y1="0.17" x2="156.47" y2="1278.15" fill="none" stroke="#fde98f" stroke-miterlimit="10"/><line x1="627.62" y1="0.17" x2="162.47" y2="1278.15" fill="none" stroke="#fde98f" stroke-miterlimit="10"/><line x1="633.62" y1="0.17" x2="168.47" y2="1278.15" fill="none" stroke="#fde98f" stroke-miterlimit="10"/><line x1="639.62" y1="0.17" x2="174.47" y2="1278.15" fill="none" stroke="#fde98f" stroke-miterlimit="10"/><line x1="645.62" y1="0.17" x2="180.47" y2="1278.15" fill="none" stroke="#fde98f" stroke-miterlimit="10"/><line x1="651.62" y1="0.17" x2="186.47" y2="1278.15" fill="none" stroke="#fde98f" stroke-miterlimit="10"/><line x1="657.62" y1="0.17" x2="192.47" y2="1278.15" fill="none" stroke="#fde98f" stroke-miterlimit="10"/><line x1="663.62" y1="0.17" x2="198.47" y2="1278.15" fill="none" stroke="#fde98f" stroke-miterlimit="10"/><line x1="669.62" y1="0.17" x2="204.47" y2="1278.15" fill="none" stroke="#fde98f" stroke-miterlimit="10"/><line x1="675.62" y1="0.17" x2="210.47" y2="1278.15" fill="none" stroke="#fde98f" stroke-miterlimit="10"/><line x1="681.62" y1="0.17" x2="216.47" y2="1278.15" fill="none" stroke="#fde98f" stroke-miterlimit="10"/><line x1="687.62" y1="0.17" x2="222.47" y2="1278.15" fill="none" stroke="#fde98f" stroke-miterlimit="10"/><line x1="693.62" y1="0.17" x2="228.47" y2="1278.15" fill="none" stroke="#fde98f" stroke-miterlimit="10"/><line x1="699.62" y1="0.17" x2="234.47" y2="1278.15" fill="none" stroke="#fde98f" stroke-miterlimit="10"/><line x1="705.62" y1="0.17" x2="240.47" y2="1278.15" fill="none" stroke="#fde98f" stroke-miterlimit="10"/><line x1="711.62" y1="0.17" x2="246.47" y2="1278.15" fill="none" stroke="#fde98f" stroke-miterlimit="10"/><line x1="717.62" y1="0.17" x2="252.47" y2="1278.15" fill="none" stroke="#fde98f" stroke-miterlimit="10"/><line x1="723.62" y1="0.17" x2="258.47" y2="1278.15" fill="none" stroke="#fde98f" stroke-miterlimit="10"/><line x1="729.62" y1="0.17" x2="264.47" y2="1278.15" fill="none" stroke="#fde98f" stroke-miterlimit="10"/><line x1="735.62" y1="0.17" x2="270.47" y2="1278.15" fill="none" stroke="#fde98f" stroke-miterlimit="10"/><line x1="741.62" y1="0.17" x2="276.47" y2="1278.15" fill="none" stroke="#fde98f" stroke-miterlimit="10"/><line x1="747.62" y1="0.17" x2="282.47" y2="1278.15" fill="none" stroke="#fde98f" stroke-miterlimit="10"/><line x1="753.62" y1="0.17" x2="288.47" y2="1278.15" fill="none" stroke="#fde98f" stroke-miterlimit="10"/><line x1="759.62" y1="0.17" x2="294.47" y2="1278.15" fill="none" stroke="#fde98f" stroke-miterlimit="10"/><line x1="765.62" y1="0.17" x2="300.47" y2="1278.15" fill="none" stroke="#fde98f" stroke-miterlimit="10"/><line x1="771.62" y1="0.17" x2="306.47" y2="1278.15" fill="none" stroke="#fde98f" stroke-miterlimit="10"/><line x1="777.62" y1="0.17" x2="312.47" y2="1278.15" fill="none" stroke="#fde98f" stroke-miterlimit="10"/><line x1="783.62" y1="0.17" x2="318.47" y2="1278.15" fill="none" stroke="#fde98f" stroke-miterlimit="10"/><line x1="789.62" y1="0.17" x2="324.47" y2="1278.15" fill="none" stroke="#fde98f" stroke-miterlimit="10"/><line x1="795.62" y1="0.17" x2="330.47" y2="1278.15" fill="none" stroke="#fde98f" stroke-miterlimit="10"/><line x1="801.62" y1="0.17" x2="336.47" y2="1278.15" fill="none" stroke="#fde98f" stroke-miterlimit="10"/><line x1="807.62" y1="0.17" x2="342.47" y2="1278.15" fill="none" stroke="#fde98f" stroke-miterlimit="10"/><line x1="813.62" y1="0.17" x2="348.47" y2="1278.15" fill="none" stroke="#fde98f" stroke-miterlimit="10"/><line x1="819.62" y1="0.17" x2="354.47" y2="1278.15" fill="none" stroke="#fde98f" stroke-miterlimit="10"/><line x1="825.62" y1="0.17" x2="360.47" y2="1278.15" fill="none" stroke="#fde98f" stroke-miterlimit="10"/><line x1="831.62" y1="0.17" x2="366.47" y2="1278.15" fill="none" stroke="#fde98f" stroke-miterlimit="10"/><line x1="837.62" y1="0.17" x2="372.47" y2="1278.15" fill="none" stroke="#fde98f" stroke-miterlimit="10"/><line x1="843.62" y1="0.17" x2="378.47" y2="1278.15" fill="none" stroke="#fde98f" stroke-miterlimit="10"/><line x1="849.62" y1="0.17" x2="384.47" y2="1278.15" fill="none" stroke="#fde98f" stroke-miterlimit="10"/><line x1="855.62" y1="0.17" x2="390.47" y2="1278.15" fill="none" stroke="#fde98f" stroke-miterlimit="10"/><line x1="861.62" y1="0.17" x2="396.47" y2="1278.15" fill="none" stroke="#fde98f" stroke-miterlimit="10"/><line x1="867.62" y1="0.17" x2="402.47" y2="1278.15" fill="none" stroke="#fde98f" stroke-miterlimit="10"/><line x1="873.62" y1="0.17" x2="408.47" y2="1278.15" fill="none" stroke="#fde98f" stroke-miterlimit="10"/><line x1="879.62" y1="0.17" x2="414.47" y2="1278.15" fill="none" stroke="#fde98f" stroke-miterlimit="10"/><line x1="885.62" y1="0.17" x2="420.47" y2="1278.15" fill="none" stroke="#fde98f" stroke-miterlimit="10"/><line x1="891.62" y1="0.17" x2="426.47" y2="1278.15" fill="none" stroke="#fde98f" stroke-miterlimit="10"/><line x1="897.62" y1="0.17" x2="432.47" y2="1278.15" fill="none" stroke="#fde98f" stroke-miterlimit="10"/><line x1="903.62" y1="0.17" x2="438.47" y2="1278.15" fill="none" stroke="#fde98f" stroke-miterlimit="10"/><line x1="909.62" y1="0.17" x2="444.47" y2="1278.15" fill="none" stroke="#fde98f" stroke-miterlimit="10"/><line x1="915.62" y1="0.17" x2="450.47" y2="1278.15" fill="none" stroke="#fde98f" stroke-miterlimit="10"/><line x1="921.62" y1="0.17" x2="456.47" y2="1278.15" fill="none" stroke="#fde98f" stroke-miterlimit="10"/><line x1="927.62" y1="0.17" x2="462.47" y2="1278.15" fill="none" stroke="#fde98f" stroke-miterlimit="10"/><line x1="933.62" y1="0.17" x2="468.47" y2="1278.15" fill="none" stroke="#fde98f" stroke-miterlimit="10"/><line x1="939.62" y1="0.17" x2="474.47" y2="1278.15" fill="none" stroke="#fde98f" stroke-miterlimit="10"/><line x1="945.62" y1="0.17" x2="480.47" y2="1278.15" fill="none" stroke="#fde98f" stroke-miterlimit="10"/><line x1="951.62" y1="0.17" x2="486.47" y2="1278.15" fill="none" stroke="#fde98f" stroke-miterlimit="10"/><line x1="957.62" y1="0.17" x2="492.47" y2="1278.15" fill="none" stroke="#fde98f" stroke-miterlimit="10"/><line x1="963.62" y1="0.17" x2="498.47" y2="1278.15" fill="none" stroke="#fde98f" stroke-miterlimit="10"/><line x1="969.62" y1="0.17" x2="504.47" y2="1278.15" fill="none" stroke="#fde98f" stroke-miterlimit="10"/><line x1="975.62" y1="0.17" x2="510.47" y2="1278.15" fill="none" stroke="#fde98f" stroke-miterlimit="10"/><line x1="981.62" y1="0.17" x2="516.47" y2="1278.15" fill="none" stroke="#fde98f" stroke-miterlimit="10"/><line x1="987.62" y1="0.17" x2="522.47" y2="1278.15" fill="none" stroke="#fde98f" stroke-miterlimit="10"/><line x1="993.62" y1="0.17" x2="528.47" y2="1278.15" fill="none" stroke="#fde98f" stroke-miterlimit="10"/><line x1="999.62" y1="0.17" x2="534.47" y2="1278.15" fill="none" stroke="#fde98f" stroke-miterlimit="10"/><line x1="1005.62" y1="0.17" x2="540.47" y2="1278.15" fill="none" stroke="#fde98f" stroke-miterlimit="10"/><line x1="1011.62" y1="0.17" x2="546.47" y2="1278.15" fill="none" stroke="#fde98f" stroke-miterlimit="10"/><line x1="1017.62" y1="0.17" x2="552.47" y2="1278.15" fill="none" stroke="#fde98f" stroke-miterlimit="10"/><line x1="1023.62" y1="0.17" x2="558.47" y2="1278.15" fill="none" stroke="#fde98f" stroke-miterlimit="10"/><line x1="1029.62" y1="0.17" x2="564.47" y2="1278.15" fill="none" stroke="#fde98f" stroke-miterlimit="10"/><line x1="1035.62" y1="0.17" x2="570.47" y2="1278.15" fill="none" stroke="#fde98f" stroke-miterlimit="10"/><line x1="1041.62" y1="0.17" x2="576.47" y2="1278.15" fill="none" stroke="#fde98f" stroke-miterlimit="10"/><line x1="1047.62" y1="0.17" x2="582.47" y2="1278.15" fill="none" stroke="#fde98f" stroke-miterlimit="10"/><line x1="1053.62" y1="0.17" x2="588.47" y2="1278.15" fill="none" stroke="#fde98f" stroke-miterlimit="10"/><line x1="1059.62" y1="0.17" x2="594.47" y2="1278.15" fill="none" stroke="#fde98f" stroke-miterlimit="10"/><line x1="1065.62" y1="0.17" x2="600.47" y2="1278.15" fill="none" stroke="#fde98f" stroke-miterlimit="10"/><line x1="1071.62" y1="0.17" x2="606.47" y2="1278.15" fill="none" stroke="#fde98f" stroke-miterlimit="10"/><line x1="1077.62" y1="0.17" x2="612.47" y2="1278.15" fill="none" stroke="#fde98f" stroke-miterlimit="10"/><line x1="1083.62" y1="0.17" x2="618.47" y2="1278.15" fill="none" stroke="#fde98f" stroke-miterlimit="10"/></svg>