<?xml version="1.0" encoding="UTF-8"?> <svg xmlns="http://www.w3.org/2000/svg" xmlns:xlink="http://www.w3.org/1999/xlink" width="23202px" height="3542px" viewBox="0 0 23202 3542"> <!-- Generator: Sketch 46.2 (44496) - http://www.bohemiancoding.com/sketch --> <title>soundcharts</title> <desc>Created with Sketch.</desc> <defs></defs> <g id="Page-1" stroke="none" stroke-width="1" fill="none" fill-rule="evenodd"> <g id="soundcharts" fill="#000000"> <polygon id="Fill-1" points="2116.39952 0.543150254 2116.39952 2541.20161 2219.74151 2541.20161 2219.74151 1905.67277 2280.38731 1905.67277 2280.38731 2541.49909 2326.40571 2541.49909 2326.40571 1980.95157 2387.07354 1980.95157 2387.07354 2541.26045 2436.12935 2541.26045 2436.12935 2171.65022 2491.22915 2171.65022 2491.22915 2541.54812 2539.76991 2541.54812 2539.76991 2059.50922 2600.43774 2059.50922 2600.43774 2541.31384 2646.43411 2541.31384 2646.43411 1944.87341 2707.64343 1944.87341 2707.64343 2541.61677 2753.12035 2541.61677 2753.12035 2171.83546 2814.32967 2171.83546 2814.32967 2541.37269 2860.34587 2541.37269 2860.34587 1905.50714 2920.99387 1905.50714 2920.99387 2541.67398 3023.31843 2541.67398 3023.31843 0.543150254"></polygon> <path d="M1959.05756,2538.15263 L1959.05756,1366.9945 L1058.21733,1366.9945 C1058.21733,1758.36943 1058.21733,2148.46344 1058.21237,2538.17715 L1161.55271,2538.17715 L1161.55271,1981.2441 L1222.20457,1981.2441 L1222.20457,2538.47954 L1268.19763,2538.47954 L1268.19763,2092.79503 L1328.855,2092.79503 L1328.855,2538.2409 L1371.8134,2538.2409 L1371.8134,2132.31767 L1433.00785,2132.31767 L1433.00785,2538.55745 L1481.52768,2538.55745 L1481.52768,2132.0349 L1539.14103,2132.0349 L1539.14103,2538.31336 L1588.18803,2538.31336 L1588.18803,2020.40551 L1649.38743,2020.40551 L1649.38743,2538.62501 L1694.83846,2538.62501 L1694.83846,2020.63434 L1756.04723,2020.63434 L1756.04723,2538.39127 L1798.99627,2538.39127 L1798.99627,2210.7827 L1859.663,2210.7827 L1859.663,2538.15263 L1959.05756,2538.15263 Z" id="Fill-2"></path> <path d="M900.874608,2538.17154 L900.874608,1769.38482 L0.0591617949,1769.38482 L0.0591617949,2538.16173 L103.408868,2538.16173 L103.408868,1984.30266 L164.061276,1984.30266 L164.061276,2538.47338 L207.005358,2538.47338 L207.005358,2059.57166 L267.657214,2059.57166 L267.657214,2538.23528 L313.660192,2538.23528 L313.660192,2210.95743 L374.864556,2210.95743 L374.864556,2538.53713 L420.330451,2538.53713 L420.330451,1944.61984 L480.972943,1944.61984 L480.972943,2538.32791 L530.014986,2538.32791 L530.014986,2132.25866 L588.170369,2132.25866 L588.170369,2538.61994 L636.689652,2538.61994 L636.689652,2247.39083 L697.903931,2247.39083 L697.903931,2538.36659 L740.848013,2538.36659 L740.848013,1904.93647 L801.490505,1904.93647 C801.490505,2117.11159 801.490505,2327.86849 801.484996,2538.17154 L900.874608,2538.17154 Z" id="Fill-4"></path> <polygon id="Fill-6" points="1695.55776 3541.84745 1748.69321 3541.84745 1748.69321 2712.31551 1695.55776 2712.31551"></polygon> <polygon id="Fill-8" points="2332.90767 3526.72434 2382.9743 3526.72434 2382.9743 2712.2959 2332.90767 2712.2959"></polygon> <polygon id="Fill-9" points="1164.68036 3509.14565 1214.75195 3509.14565 1214.75195 2712.83692 1164.68036 2712.83692"></polygon> <polygon id="Fill-10" points="2226.11953 3505.63743 2276.30955 3505.63743 2276.30955 2712.52473 2226.11953 2712.52473"></polygon> <polygon id="Fill-11" points="1592.01581 3484.81476 1641.81142 3484.81476 1641.81142 2712.1793 1592.01581 2712.1793"></polygon> <polygon id="Fill-12" points="2543.30717 3481.40407 2593.403 3481.40407 2593.403 2712.32532 2543.30717 2712.32532"></polygon> <polygon id="Fill-13" points="1058.41443 3436.23526 1107.94893 3436.23526 1107.94893 2711.97008 1058.41443 2711.97008"></polygon> <polygon id="Fill-14" points="2649.77031 3427.50421 2699.86614 3427.50421 2699.86614 2712.83638 2649.77031 2712.83638"></polygon> <polygon id="Fill-15" points="1274.43375 3424.46891 1324.55437 3424.46891 1324.55437 2712.83202 1274.43375 2712.83202"></polygon> <polygon id="Fill-16" points="1911.82332 3418.46151 1961.8602 3418.46151 1961.8602 2712.8658 1911.82332 2712.8658"></polygon> <polygon id="Fill-17" points="1378.15804 3364.05986 1431.24446 3364.05986 1431.24446 2712.8658 1378.15804 2712.8658"></polygon> <polygon id="Fill-18" points="2866.31184 3394.26139 2916.37903 3394.26139 2916.37903 2712.83638 2866.31184 2712.83638"></polygon> <polygon id="Fill-19" points="1484.88724 3364.04024 1534.93459 3364.04024 1534.93459 2712.85599 1484.88724 2712.85599"></polygon> <polygon id="Fill-20" points="2116.40029 3360.46446 2166.47683 3360.46446 2166.47683 2712.30571 2116.40029 2712.30571"></polygon> <polygon id="Fill-21" points="636.77867 3315.19758 689.451396 3315.19758 689.451396 2712.66639 636.77867 2712.66639"></polygon> <polygon id="Fill-22" points="2436.13949 3306.13091 2489.26502 3306.13091 2489.26502 2712.48605 2436.13949 2712.48605"></polygon> <polygon id="Fill-23" points="426.960868 3336.28395 477.042374 3336.28395 477.042374 2712.31551 426.960868 2712.31551"></polygon> <polygon id="Fill-24" points="2970.23334 3300.03089 3023.39853 3300.03089 3023.39853 2712.32477 2970.23334 2712.32477"></polygon> <polygon id="Fill-25" points="743.739229 3306.21318 793.820735 3306.21318 793.820735 2712.39778 743.739229 2712.39778"></polygon> <polygon id="Fill-26" points="533.310529 3303.41707 583.618988 3303.41707 583.618988 2712.73449 533.310529 2712.73449"></polygon> <polygon id="Fill-27" points="2759.57768 3300.56157 2809.64487 3300.56157 2809.64487 2712.85599 2759.57768 2712.85599"></polygon> <polygon id="Fill-28" points="210.172552 3291.46548 260.263973 3291.46548 260.263973 2712.82657 210.172552 2712.82657"></polygon> <polygon id="Fill-29" points="103.443352 3258.22865 156.578796 3258.22865 156.578796 2712.84183 103.443352 2712.84183"></polygon> <polygon id="Fill-30" points="1805.35081 3245.5802 1858.4466 3245.5802 1858.4466 2712.30571 1805.35081 2712.30571"></polygon> <polygon id="Fill-31" points="853.625377 3270.32081 903.696968 3270.32081 903.696968 2712.83692 853.625377 2712.83692"></polygon> <polygon id="Fill-32" points="0 3239.57771 50.1404474 3239.57771 50.1404474 2712.33458 0 2712.33458"></polygon> <polygon id="Fill-33" points="320.241033 3239.54883 370.302708 3239.54883 370.302708 2712.30571 320.241033 2712.30571"></polygon> <path d="M4846.3632,1780.84982 C4480.93114,1640.94818 4319.86509,1520.4755 4319.86509,1275.64326 C4319.86509,1096.8815 4457.36062,883.142698 4818.83699,883.142698 C5058.54527,883.142698 5235.35034,960.852577 5321.76017,1007.5028 L5416.09128,731.571687 C5298.1902,665.506658 5101.751,603.338864 4830.65007,603.338864 C4315.91491,603.338864 3974.08312,906.455281 3974.08312,1314.50283 C3974.08312,1683.69027 4241.28346,1905.20012 4673.47965,2056.75642 C5031.0152,2192.775 5172.4813,2332.68754 5172.4813,2577.49035 C5172.4813,2841.77226 4968.14175,3024.41709 4618.46249,3024.41709 C4382.73523,3024.41709 4158.77038,2946.6925 4005.53087,2853.42583 L3919.10066,3137.1476 C4060.55189,3230.3745 4339.50967,3304.25525 4594.90188,3304.25525 C5219.64217,3304.25525 5522.15505,2954.47335 5522.15505,2550.29906 C5522.15505,2165.57444 5294.27362,1951.84054 4846.3632,1780.84982" id="Fill-34"></path> <path d="M6667.49203,3051.60751 C6329.58674,3051.60751 6089.91757,2740.69989 6089.91757,2328.8085 C6089.91757,1971.26101 6266.72706,1598.18996 6675.34942,1598.18996 C7083.98556,1598.18996 7245.0428,2002.3588 7245.0428,2321.02329 C7245.0428,2744.58787 6997.53552,3051.60751 6667.49203,3051.60751 M6683.21067,1341.70851 C6156.7076,1341.70851 5740.23005,1710.88124 5740.23005,2340.45771 C5740.23005,2935.0337 6137.07404,3308.11838 6651.7789,3308.11838 C7111.47651,3308.11838 7598.69042,3004.99161 7598.69042,2309.36918 C7598.69042,1734.20417 7229.32857,1341.70851 6683.21067,1341.70851" id="Fill-35"></path> <path d="M9409.51282,2752.3934 L9409.51282,1384.45622 L9063.77107,1384.45622 L9063.77107,2538.63988 C9063.77107,2600.82674 9051.97286,2663.0147 9032.33875,2713.51367 C8969.4697,2865.07978 8808.3739,3024.41202 8576.5467,3024.41202 C8262.24663,3024.41202 8152.2068,2783.47212 8152.2068,2425.9437 L8152.2068,1384.45622 L7806.45954,1384.45622 L7806.45954,2484.24313 C7806.45954,3144.89887 8164.0342,3308.11364 8462.61672,3308.11364 C8800.52312,3308.11364 9000.92681,3109.91201 9091.28681,2958.37042 L9099.14365,2958.37042 L9118.78823,3265.36119 L9425.26176,3265.36119 C9413.45363,3117.67815 9409.51833,2946.68744 9409.51833,2752.3934 L9409.51282,2752.3934 Z" id="Fill-36"></path> <path d="M10713.5569,1341.70829 C10399.2128,1341.70829 10179.1783,1516.58753 10084.8813,1695.33948 L10077.0206,1695.33948 L10057.3854,1384.45638 L9750.89758,1384.45638 C9762.68918,1539.89085 9766.60961,1699.22745 9766.60961,1893.5362 L9766.62173,1893.5362 L9766.62173,3265.36135 L10112.4075,3265.36135 L10112.4075,2134.48537 C10112.4075,2076.19084 10120.2693,2017.89631 10135.9731,1975.14386 C10194.9206,1784.72254 10371.7202,1625.38103 10599.5912,1625.38103 C10925.7104,1625.38103 11039.6706,1877.99412 11039.6706,2181.11108 L11039.6706,3265.36571 L11385.4278,3265.36571 L11385.4278,2142.26131 C11385.4278,1497.14276 10976.7911,1341.70829 10713.5569,1341.70829" id="Fill-37"></path> <path d="M12996.3688,2476.48685 C12996.3688,2530.86889 12992.4539,2577.48534 12980.6556,2624.16989 C12917.7921,2880.61156 12705.6034,3032.18748 12473.812,3032.18748 C12100.5391,3032.18748 11911.9413,2717.39679 11911.9413,2336.57486 C11911.9413,1920.75136 12124.0937,1609.84374 12481.6683,1609.84374 C12740.9876,1609.84374 12929.5688,1788.60604 12980.6556,2006.24209 C12992.4483,2048.99017 12996.3688,2107.27435 12996.3688,2150.02734 L12996.3688,2476.48685 Z M13342.1259,506.169398 L12996.3677,506.169398 L12996.3677,1629.2836 L12988.5158,1629.2836 C12902.0768,1477.7175 12705.5979,1341.70818 12414.8579,1341.70818 C11951.2134,1341.70818 11558.3251,1726.4328 11562.256,2352.10169 C11562.256,2923.37436 11915.8607,3308.11805 12375.5445,3308.11805 C12685.9588,3308.11805 12917.786,3148.78635 13023.8542,2938.92571 L13031.716,2938.92571 L13047.4253,3265.36615 L13357.8391,3265.36615 C13346.0464,3137.14204 13342.1259,2946.69239 13342.1259,2779.5842 L13342.1259,506.169398 Z" id="Fill-38"></path> <path d="M14799.8078,1617.6101 C14988.3957,1617.6101 15118.0642,1660.36309 15200.5827,1706.9937 L15279.1699,1442.74121 C15184.8812,1396.1057 15004.1149,1345.59147 14799.809,1345.59147 C14179.0249,1345.59147 13778.25,1765.30294 13778.25,2344.34121 C13778.25,2919.50132 14151.4981,3304.24555 14725.1522,3304.24555 C14980.5482,3304.24555 15180.9431,3242.01892 15271.3092,3195.40301 L15212.3743,2938.91667 C15114.1481,2981.67402 14984.4797,3032.18334 14788.0399,3032.18334 C14410.8207,3032.18334 14127.932,2764.04724 14127.932,2328.80403 C14127.932,1936.28876 14363.6901,1617.6101 14799.8078,1617.6101" id="Fill-39"></path> <path d="M16537.9438,1341.71336 C16408.2754,1341.71336 16286.4875,1380.56803 16184.3447,1438.85765 C16078.2319,1497.14783 15991.7929,1582.64346 15936.8087,1679.80246 L15928.9481,1679.80246 L15928.9481,506.169126 L15583.1661,506.169126 L15583.1661,3265.36097 L15928.9525,3265.36097 L15928.9525,2130.60246 C15928.9525,2064.53199 15932.8839,2014.01286 15952.5186,1967.37734 C16015.3915,1780.83963 16192.1921,1625.38119 16416.1361,1625.38119 C16742.2591,1625.38119 16856.215,1881.88716 16856.215,2185.00412 L16856.215,3265.37078 L17201.9733,3265.37078 L17201.9733,2146.14945 C17201.9733,1497.14783 16793.3465,1341.71336 16537.9438,1341.71336" id="Fill-40"></path> <path d="M18611.0457,2305.4763 L18611.0457,2631.93527 C18611.0457,2666.8976 18603.1828,2705.74791 18591.4066,2740.70044 C18536.3873,2900.05176 18379.256,3055.49113 18131.7228,3055.49113 C17954.9095,3055.49113 17805.5981,2950.58015 17805.5981,2729.05069 C17805.5981,2363.76103 18233.87,2297.71017 18611.0479,2305.4763 L18611.0457,2305.4763 Z M18945.008,2111.16265 C18945.008,1734.20908 18803.5849,1341.70906 18222.0751,1341.70906 C17982.4059,1341.70906 17754.5041,1407.76428 17597.3342,1508.81125 L17675.9214,1734.20908 C17809.5213,1648.71399 17994.1777,1594.30743 18170.9877,1594.30743 C18559.9716,1594.30743 18603.174,1874.09655 18603.174,2029.55554 L18603.174,2068.41021 C17868.4649,2064.53749 17459.8376,2313.24244 17459.8376,2767.92606 C17459.8376,3039.9534 17656.2823,3308.11892 18041.343,3308.11892 C18312.4395,3308.11892 18516.7504,3175.98233 18622.8549,3028.30474 L18634.6333,3028.30474 L18662.1353,3265.36103 L18662.1353,3265.36103 L18976.4651,3265.36103 C18952.8687,3137.13747 18945.008,2977.79596 18945.008,2814.58064 L18945.008,2111.16265 Z" id="Fill-41"></path> <path d="M19724.4457,1753.6387 L19708.7419,1753.6387 L19696.9481,1384.45671 L19394.3956,1384.45671 C19406.185,1559.33049 19410.106,1749.74637 19410.106,1971.26057 L19410.1082,1971.26057 L19410.1082,3265.35623 L19751.9631,3265.35623 L19751.9631,2262.72342 C19751.9631,2204.41908 19759.8183,2150.01797 19767.6768,2103.39172 C19814.8057,1846.90537 19987.6815,1664.24583 20231.297,1664.24583 C20278.4568,1664.24583 20313.804,1668.12836 20349.1876,1675.91411 L20349.1876,1353.35728 C20317.7415,1345.58679 20290.2407,1341.70317 20250.9383,1341.70317 C20019.1375,1341.70317 19810.8847,1501.02616 19724.4457,1753.6387" id="Fill-42"></path> <path d="M21205.6294,844.272776 L20867.7362,933.661284 L20867.7362,1384.46128 L20573.0697,1384.46128 L20573.0697,1644.82144 L20867.7362,1644.82144 L20867.7362,2670.77555 C20867.7362,2892.26578 20903.1198,3059.38324 21001.3394,3160.44111 C21083.8454,3253.71651 21213.4923,3304.2449 21374.5887,3304.2449 C21508.1819,3304.2449 21614.2666,3284.78542 21681.0622,3257.59031 L21665.3584,3001.10832 C21622.1163,3012.75263 21555.3428,3024.41219 21464.9575,3024.41219 C21272.436,3024.41219 21205.6294,2892.26578 21205.6294,2659.11708 L21205.6294,1644.81599 L21700.6946,1644.81599 L21700.6946,1384.45693 L21205.6294,1384.45693 L21205.6294,844.272776 Z" id="Fill-43"></path> <path d="M22702.6244,2173.35061 C22455.088,2080.06977 22341.1238,2010.13529 22341.1238,1854.6763 C22341.1238,1714.78883 22455.0824,1598.1954 22659.3735,1598.1954 C22836.1891,1598.1954 22973.7155,1660.3681 23048.3673,1706.99871 L23134.8107,1458.2785 C23028.7326,1396.10581 22859.7789,1341.70906 22667.2408,1341.70906 C22258.6058,1341.70906 22011.0693,1590.42382 22011.0693,1893.53642 C22011.0693,2118.92443 22172.1712,2305.47195 22514.0019,2425.94353 C22769.42,2519.21565 22867.6418,2608.58891 22867.6418,2771.81403 C22867.6418,2927.26757 22749.7545,3051.60751 22498.2893,3051.60751 C22325.4267,3051.60751 22144.6791,2981.67848 22042.5286,2915.60801 L21956.0874,3175.98342 C22089.6631,3253.71781 22282.2143,3304.24512 22490.4352,3304.24512 C22942.287,3304.24512 23201.6151,3071.03321 23201.6151,2740.70044 C23201.6151,2460.9451 23032.6591,2297.71017 22702.6244,2173.35061" id="Fill-44"></path> </g> </g> </svg> 