<svg xmlns="http://www.w3.org/2000/svg" xmlns:xlink="http://www.w3.org/1999/xlink" width="821px" height="159px" viewBox="0 0 821 159"> <!-- Generator: Sketch 42 (36781) - http://www.bohemiancoding.com/sketch --> <title>theguarantors</title> <desc>Created with Sketch.</desc> <defs></defs> <g id="Page-1" stroke="none" stroke-width="1" fill="none" fill-rule="evenodd"> <g id="theguarantors"> <path d="M72.8761,15.5174 C69.9521,17.9744 67.2671,19.9684 64.9121,22.2954 C63.0991,24.0854 61.6061,24.7854 59.3831,23.0044 C55.9981,20.2934 52.9901,21.3014 50.1131,24.1254 C40.9581,33.1134 31.7501,42.0494 22.5221,50.9634 C18.1211,55.2154 15.5911,60.2374 15.5271,66.4474 C15.4341,75.4434 15.2271,84.4384 15.1301,93.4354 C15.0891,97.2944 16.6261,100.5644 19.2761,103.3184 C30.3681,114.8464 41.4481,126.3854 52.5831,137.8714 C55.8401,141.2304 59.7991,142.8924 64.6041,143.1244 C73.2671,143.5404 81.9161,143.5964 90.5851,143.5204 C96.7621,143.4674 101.9981,141.4344 106.5551,137.4694 C118.9051,126.7234 129.5241,114.2784 140.7471,102.4284 C143.4511,99.5724 143.6531,95.7374 143.7421,92.0834 C143.9441,83.7554 143.9701,75.4214 143.9711,67.0904 C143.9721,61.3134 141.8421,56.4134 137.6751,52.3514 C128.3681,43.2794 119.1641,34.1004 109.8201,25.0654 C104.7921,20.2044 101.9821,20.1004 97.0171,24.9244 C87.5761,34.0934 78.3751,43.5094 69.0051,52.7534 C64.8261,56.8774 63.0051,61.8074 63.1311,67.6104 C63.2891,74.9404 63.4101,82.2724 63.4031,89.6034 C63.3991,93.5544 64.9201,95.3924 69.0961,95.1304 C76.4101,94.6684 83.7411,94.4104 91.0691,94.2374 C94.6841,94.1524 96.0581,92.5324 96.0031,88.9794 C95.8671,80.3164 95.9261,57.3274 95.9261,57.3274 L111.0571,57.0534 C111.0571,57.0534 110.9481,96.5114 111.0371,104.1754 C111.0851,108.3334 109.1941,110.4034 105.0911,110.4624 C87.9301,110.7074 70.7691,110.9414 53.6061,111.1594 C49.6751,111.2094 47.8571,109.2044 47.8751,105.2794 C47.9401,90.9494 47.8631,76.6174 48.0151,62.2874 C48.0801,56.1754 50.8101,50.9294 54.8351,46.5564 C68.8351,31.3514 83.7801,17.0724 98.4631,2.5384 C101.7921,-0.7556 105.1481,-0.7866 108.5011,2.5184 C123.3331,17.1394 138.2171,31.7064 152.9611,46.4134 C156.9841,50.4264 159.2271,55.4874 159.2101,61.2584 C159.1701,74.7504 159.0711,88.2444 158.8131,101.7334 C158.7371,105.6844 157.0061,109.1194 154.0971,111.9144 C140.5191,124.9614 127.0731,138.1424 114.0641,151.7624 C109.5521,156.4854 103.9511,158.6204 97.4711,158.6544 C85.6401,158.7184 73.8091,158.7814 61.9791,158.8974 C55.8101,158.9584 50.7461,156.7734 46.3361,152.3794 C33.1161,139.2054 19.8101,126.1144 6.3521,113.1844 C2.2161,109.2094 0.1001,104.6764 0.0831,99.0484 C0.0461,86.3844 -0.0189,73.7194 0.0051,61.0544 C0.0171,55.0594 2.6111,50.0594 6.6761,45.8684 C20.8291,31.2744 36.1111,17.8284 50.1131,3.0694 C54.0851,-1.1176 57.1251,-0.8646 61.4541,2.8804 C63.2121,4.4024 64.8261,6.1074 66.3861,7.8374 C68.2751,9.9334 70.0371,12.1424 72.8761,15.5174" id="Fill-1" fill="#83B741"></path> <path d="M388.6617,67.327 C383.5247,63.401 378.5037,61.027 372.5067,61.452 C365.0117,61.983 358.8267,66.277 356.7517,73.261 C354.4437,81.029 355.0077,88.496 361.2457,94.536 C366.0747,99.211 374.9867,100.473 381.4027,97.698 C383.1157,96.956 384.1517,95.955 384.1057,93.998 C384.0657,92.334 384.1037,90.668 384.1397,89.003 C384.3587,78.851 382.4267,80.03 393.5857,79.819 C396.7877,79.758 398.1327,80.797 397.9527,84.098 C397.7527,87.75 397.5297,91.473 398.0037,95.075 C398.7567,100.795 395.9407,104.026 391.4597,106.731 C376.0487,116.035 354.8847,111.448 345.9267,96.745 C336.9587,82.026 341.5597,62.306 356.4477,53.443 C368.1067,46.503 379.9007,47.43 391.4947,54.157 C395.1317,56.267 395.5587,58.467 392.7947,61.59 C391.3847,63.182 390.2837,65.049 388.6617,67.327" id="Fill-4" fill="#83B741"></path> <path d="M235.3102,110.7659 C235.1552,109.3599 234.9902,108.5599 234.9892,107.7589 C234.9752,87.6299 234.9782,67.5019 234.9782,47.1609 C239.2482,45.9869 243.3022,46.4579 247.9252,46.8289 L247.9252,67.6709 C250.5132,67.7599 251.6492,66.0779 253.1932,65.2869 C263.4832,60.0079 275.7772,65.8499 277.9502,77.2079 C278.4162,79.6429 278.5602,82.1679 278.5822,84.6549 C278.6582,93.1129 278.6112,101.5709 278.6112,110.3679 C274.2032,111.0749 270.2922,110.8029 265.9422,110.5689 C264.9502,105.1069 265.6562,99.6439 265.4662,94.2329 C265.3252,90.2439 265.4082,86.2429 265.1292,82.2639 C264.8652,78.4989 263.3642,75.3909 259.1192,74.8319 C254.4792,74.2209 250.9902,76.0109 248.9992,80.3539 C247.5522,83.5119 248.0282,86.8959 248.0052,90.2039 C247.9592,96.8309 247.9922,103.4589 247.9922,110.2779 C243.6792,111.2389 239.7432,110.5919 235.3102,110.7659" id="Fill-6" fill="#AAB3BD"></path> <path d="M484.1217,90.6644 C480.4157,91.3334 475.2227,89.6444 474.9137,95.7054 C474.6987,99.9304 478.3597,100.5604 481.6477,100.6144 C486.2127,100.6884 490.1197,97.4164 490.0587,93.7544 C489.9807,89.0294 486.1937,91.5584 484.1217,90.6644 M463.7747,69.7024 C473.1577,63.5474 482.8947,61.4854 493.3847,64.9804 C499.4897,67.0144 502.9757,71.6494 503.1857,78.1094 C503.5017,87.7464 503.3957,97.3964 503.5037,107.0414 C503.5337,109.7754 502.2777,111.1764 499.5537,110.7364 C496.1757,110.1904 491.4537,113.1824 490.4007,106.6184 C485.3797,110.7734 480.2417,112.0104 474.5147,110.9164 C466.6057,109.4064 461.3517,103.3454 461.3867,95.6554 C461.4197,88.1894 466.0767,83.1744 474.5427,81.9654 C478.3117,81.4274 482.1747,81.5684 485.9857,81.2904 C487.5057,81.1794 489.6367,81.7794 489.8717,79.3104 C490.0637,77.2824 488.9117,75.7724 487.1597,74.9104 C483.0837,72.9014 479.0197,73.8924 475.0607,75.3264 C467.7317,77.9814 467.7497,78.0294 463.7747,69.7024" id="Fill-8" fill="#83B741"></path> <path d="M301.1075,82.5023 L320.5865,82.5023 C319.9105,77.2283 317.2385,74.5693 312.4155,74.1483 C307.3175,73.7033 303.0655,76.6603 301.1075,82.5023 L301.1075,82.5023 Z M301.2115,91.9273 C303.0885,101.2183 312.5095,103.0033 323.5655,96.3913 C325.7095,98.6763 327.9305,101.0433 330.1225,103.3803 C323.6035,111.8923 308.7295,113.9453 298.6705,107.9333 C288.5255,101.8693 284.6135,88.2153 289.7335,76.7413 C294.3895,66.3083 306.9575,60.9303 318.7875,64.3073 C330.6255,67.6873 336.1295,77.5523 333.7705,91.9273 L301.2115,91.9273 Z" id="Fill-10" fill="#AAB3BD"></path> <path d="M576.4557,91.0823 C572.4967,90.6863 568.8507,90.4903 565.2507,91.1593 C562.9947,91.5783 561.1847,92.9033 561.1227,95.4843 C561.0617,97.9963 562.6107,99.3613 564.8827,100.1483 C571.0777,102.2923 576.5917,98.2753 576.4557,91.0823 M555.6367,77.8263 C553.2777,75.5903 551.7537,73.0573 550.3367,70.4673 C557.7807,62.8363 574.6717,60.9453 583.3127,66.6823 C587.8987,69.7263 589.7777,74.2433 589.8837,79.4583 C590.0677,88.6033 589.8657,97.7573 590.0267,106.9033 C590.0827,110.1033 588.6327,111.0623 585.8077,110.7633 C582.4807,110.4113 578.2187,112.4843 576.7957,106.5633 C572.2097,110.6183 567.2337,111.8993 561.6747,111.0313 C553.4217,109.7433 548.0107,103.8093 547.9517,95.8423 C547.8947,88.0473 552.4887,83.0923 561.3377,81.9513 C566.2407,81.3193 571.2207,81.2723 576.1397,80.9633 C576.1357,72.7053 569.8817,71.7833 555.6367,77.8263" id="Fill-12" fill="#83B741"></path> <path d="M727.1598,87.6273 C727.2458,79.8043 722.7358,74.6463 715.7978,74.6333 C709.1608,74.6203 704.4418,79.7313 704.2798,87.1053 C704.1148,94.6243 708.9408,100.0663 715.7748,100.0683 C722.6008,100.0703 727.0768,95.1803 727.1598,87.6273 M740.3558,87.3383 C740.3818,101.1733 730.0018,111.3143 715.8218,111.3113 C701.7638,111.3083 691.1198,100.9933 691.1328,87.3883 C691.1448,73.7763 701.7978,63.3743 715.7718,63.3283 C729.7928,63.2813 740.3318,73.5743 740.3558,87.3383" id="Fill-14" fill="#83B741"></path> <path d="M602.1823,110.7806 L602.1823,64.6446 C610.8463,63.0256 613.5593,63.6056 616.0103,67.5426 C617.9033,66.5526 619.7353,65.3886 621.7143,64.5956 C632.0843,60.4386 643.7583,66.8906 644.7683,78.1006 C645.6463,87.8476 645.1143,97.7226 645.1813,107.5416 C645.1973,109.7486 644.1863,110.9476 641.8213,110.7786 C640.6613,110.6946 639.4723,110.6396 638.3293,110.8036 C633.5523,111.4906 631.8633,109.5876 632.0993,104.7216 C632.4483,97.5826 632.2753,90.4066 632.0753,83.2526 C631.8923,76.7406 629.2583,73.7766 624.2303,73.8436 C618.9443,73.9136 615.1623,77.6596 614.9743,83.5736 C614.7473,90.7256 614.6103,97.9036 614.9693,105.0436 C615.2083,109.7816 613.4343,111.3306 608.9703,110.8216 C606.8613,110.5816 604.7033,110.7806 602.1823,110.7806" id="Fill-16" fill="#83B741"></path> <path d="M437.7359,106.4046 C434.7849,108.3246 432.4009,110.4156 429.1729,111.0136 C418.1799,113.0536 408.7239,105.9866 408.1619,94.6296 C407.7189,85.6666 408.1049,76.6646 407.9809,67.6826 C407.9409,64.7926 409.2299,63.7906 411.8939,64.0076 C412.2239,64.0346 412.5589,64.0086 412.8919,64.0006 C421.0899,63.8196 421.0859,63.8196 421.0969,71.8936 C421.1059,78.0496 420.9619,84.2116 421.1849,90.3596 C421.4239,96.8996 424.0269,99.9156 428.9319,99.9726 C434.2439,100.0356 438.0039,96.5476 438.3249,90.4416 C438.6919,83.4726 438.7189,76.4666 438.4699,69.4906 C438.3119,65.0676 439.9159,63.3566 444.2499,63.9696 C445.5549,64.1546 446.9109,64.0746 448.2379,64.0086 C450.8489,63.8776 451.7569,65.2216 451.7519,67.6596 C451.7219,80.8026 451.7069,93.9466 451.7639,107.0906 C451.7759,109.9426 450.4199,111.0816 447.7729,110.7446 C444.0739,110.2736 439.1209,113.0006 437.7359,106.4046" id="Fill-18" fill="#83B741"></path> <path d="M209.6949,110.6175 L196.4239,110.6175 L196.4239,62.1395 L179.5229,62.1395 C178.8039,57.9455 178.9009,54.3865 179.3919,50.4575 L226.5949,50.4575 C227.2319,54.0895 227.0009,57.6525 226.7179,61.8655 L209.6949,61.8655 L209.6949,110.6175 Z" id="Fill-20" fill="#AAB3BD"></path> <path d="M781.7848,103.8372 C783.3458,100.9722 784.8888,98.4782 787.2748,96.2762 C791.8408,98.8912 796.3808,101.3722 801.7418,101.3032 C804.1038,101.2732 806.8538,101.3242 807.5788,98.5702 C808.3488,95.6402 805.6598,94.6012 803.5718,93.6812 C799.4658,91.8712 795.0618,90.6482 791.1478,88.5102 C782.2258,83.6372 781.9258,72.7012 790.3178,66.8492 C798.1388,61.3962 810.9598,62.3882 818.8718,69.2452 C817.9958,72.0072 816.3558,74.4182 814.5658,76.9972 C810.1688,75.3252 806.1598,73.0592 801.4948,73.6132 C799.6928,73.8282 797.5868,73.7572 797.0368,76.0272 C796.4098,78.6122 798.4088,79.5652 800.3038,80.2922 C804.1868,81.7832 808.1708,83.0222 812.0228,84.5862 C816.6238,86.4542 819.7958,89.3922 820.0478,94.9192 C820.3258,101.0272 818.2178,105.6392 812.9418,108.7362 C804.7548,113.5462 790.5858,111.4302 781.7848,103.8372" id="Fill-22" fill="#83B741"></path> <path d="M659.6217,50.5223 C660.6717,50.3933 661.8047,50.1683 662.9427,50.1273 C671.7767,49.8023 671.8567,49.8133 671.8767,58.7853 C671.8837,61.9613 672.0667,64.1173 676.2907,64.0873 C683.7547,64.0363 683.9187,64.5233 682.5167,72.7333 C681.3927,73.6683 680.0257,73.5313 678.7057,73.5933 C671.9347,73.9103 671.9317,73.9103 671.9177,80.4793 C671.9107,83.8113 671.9097,87.1433 671.9177,90.4753 C671.9427,100.1813 674.1527,101.6763 682.6707,97.7563 C688.8657,105.7233 689.0147,108.2143 677.2797,110.9153 C667.3107,113.2103 659.2187,106.0893 658.8687,95.7493 C658.6827,90.2573 658.7997,84.7553 658.7847,79.2573 C658.7777,76.5763 659.1137,73.9083 655.1877,73.3673 C652.7677,73.0333 653.1907,70.6113 653.2407,68.8443 C653.2887,67.1253 652.5787,64.5133 655.0117,64.2593 C659.3827,63.8043 658.6787,60.8533 658.7987,58.0883 C658.9057,55.6243 658.3407,53.0813 659.6217,50.5223" id="Fill-24" fill="#83B741"></path> <path d="M527.2399,63.9979 C527.9119,65.6209 528.4669,66.9609 529.0739,68.4269 C533.1979,66.8219 536.3439,63.1419 541.4059,63.9429 C542.7409,67.5809 542.3299,71.2789 541.7579,74.9399 C530.6209,77.7689 528.4199,80.6269 528.2529,92.3539 C528.1759,97.6789 528.1679,103.0059 528.0719,108.3309 C528.0609,108.9589 527.6949,109.5809 527.5259,110.1089 C527.2609,110.2609 527.1239,110.3959 526.9699,110.4179 C515.4639,112.1579 515.1369,111.8829 515.1369,100.5069 C515.1369,90.1839 515.3369,79.8549 515.0469,69.5399 C514.9219,65.0879 516.4199,63.4499 520.7679,63.9559 C522.8909,64.2029 525.0669,63.9979 527.2399,63.9979" id="Fill-26" fill="#83B741"></path> <path d="M762.441,63.9983 C762.825,65.9213 763.102,67.3113 763.455,69.0763 C767.664,66.5623 771.211,63.2143 776.251,63.8033 C777.501,66.2083 776.736,68.5813 776.993,70.8463 C777.355,74.0383 776.386,75.6613 772.77,75.8953 C767,76.2693 764.559,80.4683 763.581,85.5523 C762.312,92.1383 762.735,98.8613 763.131,105.4633 C763.492,111.4703 759.953,110.7133 756.24,110.8263 C752.378,110.9453 749.652,110.8903 749.843,105.4813 C750.268,93.5143 750.162,81.5163 749.878,69.5403 C749.773,65.1433 751.082,63.4033 755.497,63.9533 C757.615,64.2163 759.794,63.9983 762.441,63.9983" id="Fill-28" fill="#83B741"></path> </g> </g> </svg>