<?xml version="1.0" encoding="UTF-8" standalone="no"?>
<svg width="540px" height="114px" viewBox="0 0 540 114" version="1.1" xmlns="http://www.w3.org/2000/svg" xmlns:xlink="http://www.w3.org/1999/xlink">
    <!-- Generator: Sketch 3.8.2 (29753) - http://www.bohemiancoding.com/sketch -->
    <title>Mention Full Logo - Colored</title>
    <desc>Created with Sketch.</desc>
    <defs></defs>
    <g id="Page-1" stroke="none" stroke-width="1" fill="none" fill-rule="evenodd">
        <g id="Mention-Full-Logo---Colored">
            <g id="Page-1">
                <path d="M499.7,45.6 C503.1,38.5 509,35.1 517.2,35.1 C528.2,35.1 533.8,41.3 533.8,54.4 L533.8,77.4 C533.8,80 534.4,80.2 535.5,80.2 L540,80.2 L540,87.9 L513.5,87.9 L513.5,80 L517.7,80 C518.8,80 519.4,79.7 519.4,77.2 L519.4,54.5 C519.4,47.4 516.9,44.3 510.9,44.3 C503.8,44.3 499.6,49.7 499.6,61.3 L499.6,77.5 C499.6,80.1 500.2,80.3 501.3,80.3 L505.5,80.3 L505.5,88 L479,88 L479,80.1 L483.5,80.1 C484.6,80.1 485.2,79.8 485.2,77.3 L485.2,47.5 C485.2,44.9 484.9,44.4 483.5,44.4 L479,44.4 L479,36.5 L487.2,36.5 C492.3,36.5 497.1,35.9 499.3,35.4 L499.7,45.6 L499.7,45.6 Z M461,62.9 L461,61.5 C461,49 456.8,43.4 448,43.4 C439,43.4 435,49.1 435,61.5 L435,62.9 C435,75.4 438.9,81 448,81 C457.1,80.8 461,75.1 461,62.9 L461,62.9 Z M420.7,62.1 C420.7,45.9 431.7,34.9 448.3,34.9 C464.4,34.9 475.4,46 475.4,62.1 C475.4,78.3 464.4,89.3 448,89.3 C431.4,89.3 420.7,78.5 420.7,62.1 L420.7,62.1 Z M394.4,22.7 C394.4,17.9 397.8,13.9 403.1,13.9 C408.2,13.9 411.8,17.9 411.8,22.7 C411.8,27.5 408.1,31.5 403.1,31.5 C397.8,31.5 394.4,27.5 394.4,22.7 L394.4,22.7 Z M389.6,80 L394.4,80 C395.5,80 396.1,79.4 396.1,77.2 L396.1,48.6 C396.1,45.2 395.5,44.3 393.8,44.3 L389.6,44.3 L389.6,36.4 L398.1,36.4 C403.2,36.4 408,35.8 410.5,35.3 L410.5,77.3 C410.5,79.6 411.1,80.1 412.2,80.1 L416.7,80.1 L416.7,88 L389.6,88 L389.6,80 Z M360.8,73.1 L360.8,44.2 L353.7,44.2 L353.7,37.1 L357.6,36.8 C361.3,36.2 363.5,34.8 363.8,30.8 L364.9,21.4 L374.8,21.4 L374.8,36.1 L385,36.1 L385,44 L374.6,44 L374.6,73.1 C374.6,78.8 376.6,80.8 381.1,80.8 C383.4,80.8 384.8,80.2 385.9,79.9 L385.9,87.8 C383.9,88.4 380.3,89.2 376.6,89.2 C365.4,89.3 360.8,84.7 360.8,73.1 L360.8,73.1 Z M312,45.6 C315.4,38.5 321.3,35.1 329.5,35.1 C340.5,35.1 346.1,41.3 346.1,54.4 L346.1,77.4 C346.1,80 346.7,80.2 347.8,80.2 L352.3,80.2 L352.3,87.9 L325.8,87.9 L325.8,80 L330,80 C331.1,80 331.7,79.7 331.7,77.2 L331.7,54.5 C331.7,47.4 329.2,44.3 323.2,44.3 C316.1,44.3 311.9,49.7 311.9,61.3 L311.9,77.5 C311.9,80.1 312.5,80.3 313.6,80.3 L317.8,80.3 L317.8,88 L291.3,88 L291.3,80.1 L295.8,80.1 C296.9,80.1 297.5,79.8 297.5,77.3 L297.5,47.5 C297.5,44.9 296.9,44.4 295.8,44.4 L291.3,44.4 L291.3,36.5 L299.5,36.5 C304.6,36.5 309.4,35.9 311.6,35.4 L312,45.6 L312,45.6 Z M250.5,56.4 L273.6,56.4 C273.3,45.9 270.2,41.9 262.6,41.9 C255.3,42 251.1,46.2 250.5,56.4 L250.5,56.4 Z M250.5,63.8 C250.8,73.4 255.6,80 265.2,80 C272.5,80 276.8,76.3 279,70.1 L286.9,73.8 C284.1,82 277,88.5 263.8,88.5 C245.2,88.5 235.6,77.2 235.6,61.3 C235.6,45.1 246.6,34.1 262.4,34.1 C278.8,34.1 287.8,44.3 287.8,61.3 L287.8,63.9 L250.5,63.9 L250.5,63.8 L250.5,63.8 Z M141.1,80 L145.6,80 C146.7,80 147.3,79.7 147.3,77.2 L147.3,47.4 C147.3,44.8 147,44.3 145.6,44.3 L141.1,44.3 L141.1,36.4 L149.3,36.4 C154.4,36.4 159.2,35.8 161.4,35.3 L161.4,45.5 C164.5,38.7 169.6,35 177.5,35 C185.7,35 191,38.7 192.7,46.9 C195.5,39.2 200.9,35 209.6,35 C220.9,35 226.5,41.2 226.5,55.1 L226.5,77.1 C226.5,79.7 227.1,79.9 228.2,79.9 L232.7,79.9 L232.7,87.8 L206.2,87.8 L206.2,79.9 L210.1,79.9 C211.2,79.9 211.8,79.6 211.8,77.1 L211.8,55.8 C211.8,47.9 209.3,44.5 203.3,44.5 C196.8,44.5 193.4,49.6 193.4,59.5 L193.4,77.4 C193.4,80 194,80.2 195.1,80.2 L199.6,80.2 L199.6,87.9 L173.4,87.9 L173.4,80 L178.2,80 C179.3,80 179.9,79.7 179.9,77.2 L179.9,54.8 C179.9,47.7 177.1,44.3 171.4,44.3 C164.9,44.3 161.5,49.4 161.5,59.3 L161.5,77.1 C161.5,79.7 162.1,79.9 163.2,79.9 L167.4,79.9 L167.4,87.8 L140.9,87.8 L140.9,80 L141.1,80 Z" id="Fill-1" fill="#788B99"></path>
                <path d="M83.2,93.7 L57.6,74.8 L31.5,93.7 L41.3,63.5 L15.7,44.9 L47.4,44.9 L57.5,14.7 L67.1,44.6 L99.1,44.6 L73.3,63.5 L83.2,93.7 L83.2,93.7 Z M56.9,0 C25.6,0 0,25.4 0,57 C0,88.3 25.4,114 56.9,114 C88.5,114 113.8,88.6 113.8,57 C113.9,25.4 88.5,0 56.9,0 L56.9,0 Z" id="Fill-3" fill="#0D98DC"></path>
            </g>
        </g>
    </g>
</svg>