<?xml version="1.0" encoding="UTF-8"?> <svg xmlns="http://www.w3.org/2000/svg" xmlns:xlink="http://www.w3.org/1999/xlink" width="267px" height="53px" viewBox="0 0 267 53"> <!-- Generator: Sketch 48.2 (47327) - http://www.bohemiancoding.com/sketch --> <title>supermood</title> <desc>Created with Sketch.</desc> <defs></defs> <g id="Page-1" stroke="none" stroke-width="1" fill="none" fill-rule="evenodd"> <g id="supermood"> <path d="M260.562,3.429 L266.312,0 L266.312,34.009 L266.312,39.145 L260.664,39.107 L260.664,35.331 C259.493,37.416 256.899,39.145 253.388,39.145 C246.264,39.145 241.482,33.551 241.482,26.076 C241.482,18.955 246.315,13.107 253.286,13.107 C257.611,13.107 259.798,15.09 260.562,16.666 L260.562,3.429 Z M247.384,26.076 C247.384,30.805 250.029,33.958 254.049,33.958 C257.916,33.958 260.613,30.754 260.613,26.024 C260.613,21.295 257.967,18.345 254.1,18.345 C250.233,18.345 247.384,21.345 247.384,26.076 Z" id="Path" fill="#FF2E92"></path> <path d="M5.807,3.032 C8.063,1.138 10.845,0.19 14.15,0.19 C16.779,0.19 19.145,0.811 21.25,2.055 C23.352,3.298 24.988,4.933 26.152,6.961 L21.904,10.397 L21.847,10.309 C19.887,7.296 17.324,5.795 14.15,5.795 C12.603,5.795 11.298,6.178 10.234,6.944 C9.178,7.705 8.651,8.806 8.651,10.256 C8.651,11.522 9.032,12.482 9.793,13.146 C10.569,13.823 11.887,14.617 13.743,15.525 L17.885,17.462 C20.879,18.873 23.109,20.399 24.574,22.043 C26.044,23.695 26.78,25.769 26.78,28.261 C26.78,31.555 25.602,34.212 23.25,36.225 C20.9,38.235 17.921,39.239 14.318,39.239 C11.28,39.239 8.539,38.513 6.099,37.061 C3.659,35.608 1.727,33.601 0.301,31.042 L4.604,27.609 L4.662,27.694 C7.367,31.657 10.567,33.634 14.262,33.634 C16.143,33.634 17.661,33.166 18.818,32.231 C19.97,31.3 20.544,30.055 20.544,28.488 C20.544,27.185 20.136,26.167 19.317,25.427 C18.486,24.674 17.104,23.843 15.172,22.936 L11.089,20.998 C8.355,19.74 6.227,18.29 4.707,16.646 C3.18,14.995 2.415,12.939 2.415,10.484 C2.415,7.418 3.547,4.931 5.807,3.032 Z" id="Path" fill="#3397FF"></path> <path d="M194.542,4.672 C194.542,4.198 194.926,3.814 195.4,3.814 C195.873,3.814 196.258,4.198 196.258,4.672 L196.258,12.1 C196.258,12.573 195.873,12.956 195.4,12.956 C194.926,12.956 194.542,12.573 194.542,12.1 L194.542,4.672 Z" id="Path" fill="#E432C7"></path> <path d="M203.789,7.381 C203.943,7.091 204.24,6.925 204.547,6.925 C204.683,6.925 204.82,6.958 204.949,7.026 C205.367,7.249 205.526,7.768 205.303,8.186 L202.352,13.736 C202.131,14.154 201.612,14.313 201.193,14.09 C200.775,13.868 200.616,13.349 200.839,12.93 L203.789,7.381 Z" id="Path" fill="#E432C7"></path> <path d="M186.123,7.026 C186.25,6.958 186.389,6.925 186.524,6.925 C186.832,6.925 187.128,7.091 187.282,7.381 L190.234,12.93 C190.455,13.349 190.297,13.868 189.878,14.09 C189.46,14.313 188.941,14.154 188.719,13.736 L185.769,8.186 C185.546,7.768 185.704,7.249 186.123,7.026 Z" id="Path" fill="#E432C7"></path> <path d="M208.742,12.565 C208.911,12.349 209.163,12.235 209.418,12.235 C209.603,12.235 209.789,12.295 209.946,12.417 C210.318,12.709 210.385,13.248 210.094,13.621 L207.984,16.321 C207.691,16.695 207.152,16.762 206.779,16.47 C206.406,16.178 206.34,15.639 206.632,15.266 L208.742,12.565 Z" id="Path" fill="#E432C7"></path> <path d="M181.126,12.417 C181.282,12.295 181.469,12.235 181.653,12.235 C181.909,12.235 182.161,12.349 182.33,12.565 L184.44,15.266 C184.731,15.639 184.665,16.178 184.292,16.47 C183.918,16.762 183.38,16.695 183.089,16.321 L180.978,13.621 C180.687,13.248 180.753,12.709 181.126,12.417 Z" id="Path" fill="#E432C7"></path> <path d="M212.02,26.126 C212.02,18.548 217.465,13.004 224.842,13.004 C232.272,13.004 237.716,18.548 237.716,26.126 C237.716,33.754 232.272,39.298 224.842,39.298 C217.465,39.298 212.02,33.754 212.02,26.126 Z M217.923,26.126 C217.923,31.262 221.231,34.009 224.842,34.009 C228.507,34.009 231.762,31.314 231.762,26.126 C231.762,20.99 228.507,18.345 224.842,18.345 C221.231,18.345 217.923,20.99 217.923,26.126 Z" id="Path" fill="#F430A8"></path> <path d="M90.536,26.024 C90.536,18.192 96.337,13.004 102.595,13.004 C110.227,13.004 114.705,18.04 114.705,25.871 C114.705,26.838 114.603,27.652 114.553,27.753 L96.438,27.753 C96.591,31.517 99.543,34.212 103.206,34.212 C106.768,34.212 108.599,32.33 109.414,29.889 L114.4,31.466 C113.077,35.789 109.159,39.298 103.206,39.298 C96.489,39.298 90.536,34.415 90.536,26.024 Z M102.646,17.938 C98.931,17.938 96.795,20.785 96.591,23.431 L108.752,23.431 C108.651,20.532 106.716,17.938 102.646,17.938 Z" id="Path" fill="#5B7AFF"></path> <path d="M160.477,17.429 C162.411,14.174 165.31,13.055 168.517,13.055 C172.994,13.055 177.268,15.903 177.268,22.464 L177.268,38.919 L171.57,38.919 L171.57,23.431 C171.57,20.532 170.094,18.345 166.786,18.345 C163.683,18.345 161.647,20.785 161.647,23.837 L161.647,38.919 L155.847,38.919 L155.847,23.431 C155.847,20.583 154.422,18.345 151.064,18.345 C147.909,18.345 145.925,20.684 145.925,23.837 L145.925,38.919 L140.073,38.919 L140.073,13.767 L145.722,13.767 L145.722,16.921 C147.146,14.378 150.25,13.055 153.048,13.055 C156.305,13.055 159.154,14.53 160.477,17.429 Z" id="Path" fill="#DA35DD"></path> <path d="M128.333,13.721 C129.163,13.305 130.144,13.096 131.279,13.096 C132.787,13.096 134.361,13.58 136.004,14.547 L133.388,19.7 C132.303,18.932 131.246,18.549 130.213,18.549 C127.096,18.549 125.538,20.866 125.538,25.502 L125.538,38.903 L119.69,38.903 L119.69,13.772 L125.538,13.772 L125.538,15.948 C126.589,14.863 127.519,14.122 128.333,13.721 Z" id="Path" fill="#5D79FF"></path> <path d="M67.436,17.124 C68.656,14.988 71.507,13.208 75.323,13.208 C82.65,13.208 86.771,18.803 86.771,26.126 C86.771,33.551 82.242,39.145 75.119,39.145 C71.557,39.145 68.861,37.619 67.588,35.737 L67.588,48.769 L61.737,52.197 L61.737,13.767 L67.436,13.767 L67.436,17.124 Z M67.538,26.126 C67.538,30.855 70.336,33.907 74.203,33.907 C78.121,33.907 80.868,30.855 80.868,26.126 C80.868,21.497 78.172,18.446 74.203,18.446 C70.336,18.446 67.538,21.497 67.538,26.126 Z" id="Path" fill="#468AFF"></path> <path d="M48.774,13.767 L54.677,13.767 L54.677,34.009 L54.677,38.919 L49.08,38.919 L49.08,35.789 C47.858,38.027 44.958,39.247 42.058,39.247 C36.156,39.247 32.695,34.873 32.695,29.381 L32.695,13.767 L38.597,13.767 L38.597,28.312 C38.597,31.364 40.023,33.958 43.584,33.958 C46.993,33.958 48.774,31.669 48.774,28.414 L48.774,13.767 Z" id="Path" fill="#3F8FFF"></path> <path d="M182.559,31.082 C182.559,23.504 188.004,17.961 195.382,17.961 C202.81,17.961 208.256,23.504 208.256,31.082 C208.256,34.09 207.409,36.772 205.93,38.919 L184.882,38.919 C183.406,36.772 182.559,34.09 182.559,31.082 Z M188.462,31.024 C188.462,36.16 191.769,38.906 195.382,38.906 C199.046,38.906 202.302,36.211 202.302,31.024 C202.302,25.887 199.046,23.242 195.382,23.242 C191.769,23.242 188.462,25.887 188.462,31.024 Z" id="Path" fill="#E432C7"></path> </g> </g> </svg> 