<?xml version="1.0" encoding="UTF-8" standalone="no"?>
<svg width="87px" height="64px" viewBox="0 0 87 64" version="1.1" xmlns="http://www.w3.org/2000/svg" xmlns:xlink="http://www.w3.org/1999/xlink">
    <!-- Generator: Sketch 3.8.2 (29753) - http://www.bohemiancoding.com/sketch -->
    <title>wheretoget</title>
    <desc>Created with Sketch.</desc>
    <defs></defs>
    <g id="Page-1" stroke="none" stroke-width="1" fill="none" fill-rule="evenodd">
        <g id="wheretoget" fill="#E61E5C">
            <path d="M46.094,49.499 C46.269,49.208 46.356,48.888 46.356,48.539 C46.356,48.133 46.225,47.768 45.963,47.448 C45.701,47.129 45.337,46.968 44.872,46.968 C44.056,46.968 43.329,47.303 42.69,47.972 C42.049,48.642 41.511,49.369 41.075,50.155 C40.638,50.941 40.289,51.639 40.027,52.25 C39.765,52.861 39.604,53.138 39.547,53.079 C38.557,55.523 37.059,57.43 35.051,58.797 C33.043,60.165 30.904,60.849 28.634,60.849 C26.306,60.849 24.152,60.166 22.174,58.797 C20.195,57.43 18.711,55.523 17.722,53.079 L4.016,19.293 C3.608,18.363 3.331,17.475 3.187,16.63 C3.041,15.787 2.969,14.958 2.969,14.142 C2.969,12.513 3.288,11.014 3.929,9.646 C4.568,8.28 5.413,7.115 6.46,6.155 C7.507,5.195 8.715,4.453 10.083,3.929 C11.45,3.405 12.833,3.143 14.23,3.143 C16.267,3.143 18.26,3.74 20.21,4.933 C22.159,6.127 23.658,8.091 24.706,10.826 C24.997,11.524 25.346,12.266 25.754,13.052 C26.16,13.838 26.597,14.536 27.063,15.147 C27.528,15.758 28.052,16.268 28.634,16.675 C29.215,17.083 29.826,17.286 30.467,17.286 C31.107,17.286 31.602,17.083 31.951,16.675 C32.3,16.269 32.475,15.832 32.475,15.365 C32.475,15.075 32.358,14.798 32.126,14.536 C31.893,14.274 31.544,14.143 31.078,14.143 L30.642,14.143 C30.467,14.143 30.234,13.998 29.944,13.706 C29.652,13.416 29.377,13.066 29.115,12.658 C28.853,12.252 28.605,11.844 28.373,11.436 C28.14,11.029 27.994,10.738 27.936,10.563 C26.655,7.363 24.763,4.801 22.262,2.881 C19.758,0.96 16.906,0 13.706,0 C11.611,0 9.704,0.408 7.988,1.222 C6.271,2.038 4.83,3.114 3.667,4.452 C2.502,5.792 1.6,7.333 0.96,9.079 C0.319,10.825 0,12.63 0,14.492 C0,16.587 0.378,18.567 1.135,20.428 L14.754,54.213 C15.976,57.24 17.853,59.626 20.385,61.372 C22.917,63.118 25.667,63.991 28.635,63.991 C31.603,63.991 34.338,63.104 36.841,61.328 C39.343,59.553 41.235,57.181 42.515,54.213 C42.747,53.748 43.126,53.021 43.65,52.031 C44.174,51.042 44.668,50.372 45.134,50.023 C45.599,49.965 45.92,49.791 46.094,49.499 L46.094,49.499 Z M59.539,13.706 C59.072,13.125 58.636,12.47 58.229,11.742 C57.821,11.015 57.443,10.332 57.094,9.69 C55.988,6.839 54.213,4.511 51.769,2.706 C49.324,0.903 46.647,0 43.737,0 C41.874,0 40.143,0.277 38.543,0.829 C36.942,1.383 35.444,2.299 34.047,3.579 C33.639,3.928 33.174,4.365 32.65,4.888 C32.126,5.412 31.631,5.994 31.166,6.634 C30.699,7.275 30.307,7.93 29.987,8.598 C29.666,9.268 29.507,9.894 29.507,10.475 C29.507,10.942 29.667,11.291 29.987,11.523 C30.306,11.756 30.699,11.872 31.166,11.872 C31.457,11.872 31.733,11.8 31.995,11.654 C32.257,11.509 32.445,11.261 32.562,10.912 C33.492,8.526 34.948,6.621 36.927,5.194 C38.905,3.769 41.059,3.055 43.387,3.055 C45.714,3.055 47.868,3.768 49.847,5.194 C51.825,6.621 53.28,8.555 54.212,10.999 C54.503,11.64 54.852,12.295 55.26,12.963 C55.667,13.633 56.089,14.272 56.526,14.884 C56.963,15.496 57.428,15.99 57.923,16.368 C58.417,16.747 58.897,16.935 59.363,16.935 C59.887,16.935 60.293,16.747 60.585,16.368 C60.875,15.99 61.021,15.569 61.021,15.102 C61.021,14.753 60.919,14.447 60.715,14.185 C60.51,13.923 60.148,13.792 59.624,13.792 L59.539,13.706 Z M45.745,52.118 C45.337,52.118 44.959,52.249 44.61,52.511 C44.261,52.773 44.086,53.137 44.086,53.602 C44.086,53.777 44.143,53.981 44.261,54.213 C45.54,57.181 47.432,59.553 49.935,61.328 C52.437,63.104 55.173,63.991 58.141,63.991 C61.109,63.991 63.844,63.104 66.347,61.328 C68.849,59.553 70.712,57.181 71.934,54.213 L85.64,20.428 C86.396,18.566 86.775,16.587 86.775,14.492 C86.775,12.63 86.454,10.825 85.815,9.079 C85.174,7.333 84.272,5.792 83.109,4.452 C81.944,3.114 80.504,2.038 78.788,1.222 C77.071,0.408 75.165,0 73.07,0 C70.159,0 67.409,0.873 64.82,2.619 C62.23,4.365 60.353,6.752 59.189,9.778 C59.072,10.127 59.014,10.36 59.014,10.476 C59.014,10.943 59.174,11.292 59.494,11.524 C59.813,11.757 60.206,11.873 60.673,11.873 C60.964,11.873 61.24,11.801 61.502,11.655 C61.764,11.51 61.952,11.262 62.07,10.913 C63.175,8.119 64.689,6.127 66.61,4.933 C68.531,3.741 70.508,3.143 72.546,3.143 C73.943,3.143 75.325,3.405 76.693,3.929 C78.06,4.453 79.268,5.195 80.316,6.155 C81.364,7.115 82.207,8.28 82.848,9.647 C83.488,11.015 83.808,12.514 83.808,14.143 C83.808,15.832 83.459,17.548 82.76,19.294 L69.054,53.078 C68.064,55.522 66.579,57.429 64.602,58.796 C62.623,60.164 60.469,60.848 58.142,60.848 C55.814,60.848 53.646,60.165 51.638,58.796 C49.63,57.429 48.16,55.522 47.229,53.078 C46.996,52.438 46.501,52.118 45.745,52.118 L45.745,52.118 Z" id="Page-1"></path>
        </g>
    </g>
</svg>