<?xml version="1.0" encoding="UTF-8" standalone="no"?>
<svg width="477px" height="116px" viewBox="0 0 477 116" version="1.1" xmlns="http://www.w3.org/2000/svg" xmlns:xlink="http://www.w3.org/1999/xlink">
    <!-- Generator: Sketch 3.8.2 (29753) - http://www.bohemiancoding.com/sketch -->
    <title>concord</title>
    <desc>Created with Sketch.</desc>
    <defs></defs>
    <g id="Page-1" stroke="none" stroke-width="1" fill="none" fill-rule="evenodd">
        <g id="concord" fill="#4C4C4C">
            <g id="Group">
                <g id="Calque_13" transform="translate(0.000000, 42.000000)">
                    <path d="M62.4,61.9 C59,66 55.1,69.1 50.8,71 C46.5,73 41.8,73.9 36.8,73.9 C31.5,73.9 26.5,73 22,71.2 C17.5,69.4 13.6,66.8 10.4,63.6 C7,60.4 4.5,56.5 2.7,52 C0.9,47.5 0,42.6 0,37.3 C0,31.9 0.9,27 2.7,22.6 C4.5,18.1 7,14.2 10.2,11 C13.4,7.7 17.3,5.2 21.8,3.4 C26.3,1.6 31.3,0.7 36.6,0.7 C41.7,0.7 46.5,1.8 50.9,3.9 C55.3,6 59.2,9 62.6,12.8 L55.4,18.2 C52.8,15.3 49.9,13 46.8,11.3 C43.7,9.6 40.3,8.8 36.7,8.8 C32.5,8.8 28.6,9.6 25.2,11.1 C21.8,12.6 18.9,14.6 16.4,17.2 C13.9,19.8 12.1,22.8 10.9,26.3 C9.6,29.8 9,33.5 9,37.4 C9,41.3 9.6,45 10.9,48.5 C12.2,52 14,55 16.4,57.6 C18.8,60.2 21.7,62.2 25.2,63.7 C28.6,65.2 32.4,66 36.7,66 C40.5,66 44,65.1 47.2,63.4 C50.4,61.6 53.1,59.3 55.4,56.4 L62.4,61.9 L62.4,61.9 Z" id="Shape"></path>
                </g>
                <g id="Calque_12" transform="translate(67.000000, 42.000000)">
                    <path d="M0.6,37.3 C0.6,32 1.5,27.1 3.3,22.6 C5.1,18.1 7.6,14.2 10.8,11 C14,7.7 17.9,5.2 22.4,3.4 C26.9,1.6 31.9,0.7 37.2,0.7 C42.5,0.7 47.4,1.6 51.9,3.4 C56.4,5.2 60.3,7.8 63.5,11 C66.8,14.3 69.3,18.1 71.1,22.6 C72.9,27.1 73.8,32 73.8,37.3 C73.8,42.6 72.9,47.5 71.1,52 C69.3,56.5 66.7,60.4 63.5,63.6 C60.2,66.9 56.4,69.4 51.9,71.2 C47.4,73 42.5,73.9 37.2,73.9 C31.9,73.9 26.9,73 22.4,71.2 C17.9,69.4 14,66.8 10.8,63.6 C7.6,60.3 5.1,56.5 3.3,52 C1.5,47.5 0.6,42.6 0.6,37.3 L0.6,37.3 Z M9.7,37.3 C9.7,41.2 10.3,44.9 11.6,48.4 C12.9,51.9 14.7,54.9 17.1,57.5 C19.5,60.1 22.4,62.1 25.9,63.6 C29.3,65.1 33.1,65.9 37.4,65.9 C41.6,65.9 45.5,65.1 48.9,63.6 C52.3,62.1 55.2,60.1 57.7,57.5 C60.2,54.9 62,51.9 63.2,48.4 C64.5,44.9 65.1,41.2 65.1,37.3 C65.1,33.4 64.5,29.7 63.2,26.2 C61.9,22.7 60.1,19.7 57.7,17.1 C55.3,14.5 52.4,12.5 48.9,11 C45.5,9.5 41.7,8.7 37.4,8.7 C33.2,8.7 29.3,9.5 25.9,11 C22.5,12.5 19.6,14.5 17.1,17.1 C14.6,19.7 12.8,22.7 11.6,26.2 C10.3,29.6 9.7,33.3 9.7,37.3 L9.7,37.3 Z" id="Shape"></path>
                </g>
                <g id="Calque_14" transform="translate(148.000000, 42.000000)">
                    <g id="N_concord_copie_1_">
                        <path d="M30,0.6 C-0.9,0.6 0.1,28.6 0.1,28.6 L0.1,72.2 L9.1,72.2 L9.1,28.6 C9.1,28.6 10.1,8.5 30,8.5 C49.9,8.5 49.9,28.6 49.9,28.6 L49.9,72.2 L58.9,72.2 L58.9,28.6 C58.9,28.6 60.9,0.6 30,0.6 L30,0.6 Z" id="Shape"></path>
                    </g>
                </g>
                <g id="Calque_11" transform="translate(213.000000, 42.000000)">
                    <path d="M62.9,61.9 C59.5,66 55.6,69.1 51.3,71 C47,73 42.3,73.9 37.3,73.9 C32,73.9 27,73 22.5,71.2 C18,69.4 14.1,66.8 10.9,63.6 C7.7,60.3 5.2,56.5 3.4,52 C1.6,47.5 0.7,42.6 0.7,37.3 C0.7,32 1.6,27.1 3.4,22.6 C5.2,18.1 7.7,14.2 10.9,11 C14.1,7.7 18,5.2 22.5,3.4 C27,1.6 32,0.7 37.3,0.7 C42.4,0.7 47.2,1.8 51.6,3.9 C56,6 59.9,9 63.3,12.8 L56.1,18.2 C53.5,15.3 50.6,13 47.5,11.3 C44.4,9.6 41,8.8 37.4,8.8 C33.2,8.8 29.3,9.6 25.9,11.1 C22.5,12.6 19.6,14.6 17.1,17.2 C14.6,19.8 12.8,22.8 11.6,26.3 C10.3,29.8 9.7,33.5 9.7,37.4 C9.7,41.3 10.3,45 11.6,48.5 C12.9,52 14.7,55 17.1,57.6 C19.5,60.2 22.4,62.2 25.9,63.7 C29.3,65.2 33.1,66 37.4,66 C41.2,66 44.7,65.1 47.9,63.4 C51.1,61.6 53.8,59.3 56.1,56.4 L62.9,61.9 L62.9,61.9 Z" id="Shape"></path>
                </g>
                <g id="Calque_10" transform="translate(281.000000, 42.000000)">
                    <path d="M0.2,37.3 C0.2,32 1.1,27.1 2.9,22.6 C4.7,18.1 7.2,14.2 10.4,11 C13.6,7.7 17.5,5.2 22,3.4 C26.5,1.6 31.5,0.7 36.8,0.7 C42.1,0.7 47,1.6 51.5,3.4 C56,5.2 59.9,7.8 63.1,11 C66.4,14.3 68.9,18.1 70.7,22.6 C72.5,27.1 73.4,32 73.4,37.3 C73.4,42.6 72.5,47.5 70.7,52 C68.9,56.5 66.3,60.4 63.1,63.6 C59.8,66.9 56,69.4 51.5,71.2 C47,73 42.1,73.9 36.8,73.9 C31.5,73.9 26.5,73 22,71.2 C17.5,69.4 13.6,66.8 10.4,63.6 C7.2,60.3 4.7,56.5 2.9,52 C1.1,47.5 0.2,42.6 0.2,37.3 L0.2,37.3 Z M9.3,37.3 C9.3,41.2 9.9,44.9 11.2,48.4 C12.5,51.9 14.3,54.9 16.7,57.5 C19.1,60.1 22,62.1 25.5,63.6 C28.9,65.1 32.7,65.9 37,65.9 C41.2,65.9 45.1,65.1 48.5,63.6 C51.9,62.1 54.8,60.1 57.3,57.5 C59.8,54.9 61.6,51.9 62.8,48.4 C64.1,44.9 64.7,41.2 64.7,37.3 C64.7,33.4 64.1,29.7 62.8,26.2 C61.5,22.7 59.7,19.7 57.3,17.1 C54.9,14.5 52,12.5 48.5,11 C45.1,9.5 41.3,8.7 37,8.7 C32.8,8.7 28.9,9.5 25.5,11 C22.1,12.5 19.2,14.5 16.7,17.1 C14.2,19.7 12.4,22.7 11.2,26.2 C9.9,29.6 9.3,33.3 9.3,37.3 L9.3,37.3 Z" id="Shape"></path>
                </g>
                <g id="Calque_6" transform="translate(364.000000, 42.000000)">
                    <path d="M0.8,22 C0.8,20.7 0.7,19.1 0.6,17.2 C0.5,15.3 0.4,13.5 0.4,11.5 C0.3,9.6 0.3,7.8 0.2,6.1 C0.1,4.4 5.68434189e-14,3.2 5.68434189e-14,2.2 L9.1,2.2 C9.2,4.8 9.3,7.3 9.3,9.8 C9.3,12.2 9.5,13.8 9.7,14.5 C12,10.4 15,7 18.6,4.4 C22.2,1.8 26.7,0.5 31.9,0.5 C32.8,0.5 33.7,0.6 34.5,0.7 C35.4,0.9 36.2,1 37.1,1.2 L36,10.1 C34.8,9.7 33.6,9.5 32.5,9.5 C28.6,9.5 25.2,10.1 22.3,11.4 C19.4,12.7 17.1,14.4 15.2,16.6 C13.3,18.8 12,21.4 11,24.4 C10.1,27.4 9.6,30.6 9.6,34 L9.6,72.1 L0.5,72.1 L0.5,22 L0.8,22 Z" id="Shape"></path>
                </g>
                <g id="Calque_5" transform="translate(402.000000, 0.000000)">
                    <path d="M65.4,101.9 L65.1,101.9 C63.7,104.3 61.9,106.4 59.8,108.2 C57.7,110 55.4,111.4 52.9,112.6 C50.4,113.8 47.8,114.6 45.1,115.2 C42.4,115.8 39.7,116 37.1,116 C31.8,116 26.8,115.1 22.3,113.3 C17.8,111.5 13.9,108.9 10.7,105.7 C7.5,102.4 5,98.6 3.2,94.1 C1.4,89.6 0.5,84.7 0.5,79.4 C0.5,74.1 1.4,69.2 3.2,64.7 C5,60.2 7.5,56.3 10.7,53.1 C13.9,49.8 17.8,47.3 22.3,45.5 C26.8,43.7 31.8,42.8 37.1,42.8 C39.7,42.8 42.4,43.1 45.1,43.6 C47.8,44.2 50.4,45 52.9,46.2 C55.4,47.4 57.7,48.8 59.8,50.6 C61.9,52.4 63.7,54.5 65.1,56.9 L65.4,56.9 L65.4,0 L74.5,0 L74.5,114.2 L65.4,114.2 L65.4,101.9 L65.4,101.9 Z M66.3,79.3 C66.3,75.4 65.5,71.7 64,68.2 C62.5,64.7 60.4,61.7 57.8,59.1 C55.2,56.5 52.1,54.5 48.6,53 C45.1,51.5 41.3,50.7 37.1,50.7 C32.9,50.7 29,51.5 25.6,53 C22.2,54.5 19.3,56.5 16.8,59.1 C14.3,61.7 12.5,64.7 11.3,68.2 C10,71.7 9.4,75.4 9.4,79.3 C9.4,83.2 10,86.9 11.3,90.4 C12.6,93.9 14.4,96.9 16.8,99.5 C19.2,102.1 22.1,104.1 25.6,105.6 C29,107.1 32.8,107.9 37.1,107.9 C41.2,107.9 45.1,107.1 48.6,105.6 C52.1,104.1 55.2,102.1 57.8,99.5 C60.4,96.9 62.5,93.9 64,90.4 C65.5,86.9 66.3,83.2 66.3,79.3 L66.3,79.3 Z" id="Shape"></path>
                </g>
            </g>
        </g>
    </g>
</svg>