<?xml version="1.0" encoding="UTF-8" standalone="no"?>
<svg width="123px" height="175px" viewBox="0 0 123 175" version="1.1" xmlns="http://www.w3.org/2000/svg" xmlns:xlink="http://www.w3.org/1999/xlink">
    <!-- Generator: Sketch 3.8.2 (29753) - http://www.bohemiancoding.com/sketch -->
    <title>Heetch</title>
    <desc>Created with Sketch.</desc>
    <defs></defs>
    <g id="Page-1" stroke="none" stroke-width="1" fill="none" fill-rule="evenodd">
        <g id="Heetch" fill="#EA5262">
            <g id="Layer_1">
                <path d="M108,47.5 C108,21.7 87.1,0.7 61.2,0.7 C35.4,0.7 14.4,21.6 14.4,47.5 C14.4,48.2 14.4,48.9 14.5,49.6 L14.4,49.6 C14.4,78.8 37.8,90.5 61.2,125.6 C84.6,90.5 108,78.8 108,49.6 L107.9,49.6 C108,48.9 108,48.2 108,47.5 L108,47.5 Z M79.4,64.6 C77.9,64.9 76.4,65.2 75,65.6 C73.1,66.2 71.2,66.9 69.2,67.4 C65.6,68.3 61.9,68.6 58.2,68.6 C55.2,68.5 52.2,68.6 49.3,67.8 C48,67.4 46.7,66.8 45.4,66.1 C44.1,65.4 43.9,64.5 44.4,63.1 C44.5,62.9 44.6,62.7 44.6,62.5 C44.9,61.7 44.8,61.3 44.1,60.8 C43.8,60.6 43.4,60.3 43.1,60.1 C41.8,59.1 41.8,57.6 42.9,56.4 C43.2,56.1 43.5,55.8 43.8,55.6 C44.3,55.1 44.3,54.8 43.7,54.3 C43.4,54 43.1,53.8 42.8,53.5 C41.5,52.2 41.9,50.1 43.5,49.3 C43.6,49.2 43.8,49.2 43.9,49.1 C44.7,48.7 44.8,48.3 44.5,47.4 C44.3,46.9 44.1,46.4 44.1,45.9 C43.8,44.1 44.7,42.8 46.6,42.8 C48.3,42.7 50,42.9 51.7,43 C54.1,43.2 56.4,43.5 58.8,43.7 C60.7,43.8 61.8,42.4 61.3,40.6 C60.9,38.9 60.2,37.3 59.7,35.6 C59.2,34.2 58.8,32.8 58.4,31.4 C57.9,29.4 58.8,27.6 60.6,26.6 C61.9,25.9 63,26.2 63.4,27.7 C64.5,31.5 66.5,34.9 69,38 L74.4,44.3 C75.2,45.2 75.8,46.3 76.4,47.3 C77.1,48.5 78,49.2 79.4,49.3 C80.1,49.4 80.2,49.7 80.3,50.3 L80.3,62 C80.3,62.5 80.3,63 80.4,63.5 C80.4,64.2 80,64.5 79.4,64.6 L79.4,64.6 Z M5.5,154 C6.1,153.8 6.7,153.6 7.4,153.4 C8.1,153.2 8.8,153.1 9.7,153.1 C10.9,153.1 12,153.3 13.1,153.7 C14.1,154.1 15,154.6 15.8,155.4 C16.6,156.1 17.1,157.1 17.6,158.2 C18,159.3 18.2,160.6 18.2,162 L18.2,174.5 L12.7,174.5 L12.7,162.8 C12.7,161.4 12.4,160.2 11.9,159.4 C11.4,158.6 10.5,158.2 9.4,158.2 C8.6,158.2 7.9,158.3 7.4,158.5 C6.9,158.7 6.3,159 5.7,159.4 L5.7,174.6 L0,174.6 L0,145.2 L5.5,142.9 L5.5,154 L5.5,154 Z M27.3,165.2 C27.3,165.9 27.4,166.5 27.7,167.1 C28,167.7 28.4,168.2 28.8,168.6 C29.3,169 29.9,169.4 30.6,169.6 C31.3,169.8 32,169.9 32.8,169.9 C33.8,169.9 34.8,169.7 35.7,169.3 C36.6,168.9 37.5,168.3 38.4,167.4 L40.8,171.7 C39.6,172.6 38.3,173.4 36.9,174 C35.5,174.6 33.9,174.9 32.3,174.9 C30.7,174.9 29.2,174.6 27.8,174.1 C26.5,173.5 25.3,172.8 24.4,171.8 C23.4,170.8 22.7,169.7 22.2,168.3 C21.7,167 21.4,165.5 21.4,163.9 C21.4,162.3 21.6,160.9 22.1,159.6 C22.6,158.3 23.3,157.2 24.2,156.2 C25.1,155.3 26.2,154.5 27.5,154 C28.8,153.5 30.2,153.2 31.7,153.2 C32.8,153.2 33.9,153.4 35,153.9 C36.1,154.3 37.1,155 38,156 C38.9,157 39.6,158.2 40.2,159.8 C40.8,161.3 41.1,163.2 41.1,165.3 L27.3,165.3 L27.3,165.2 Z M34.9,160.8 C34.7,160 34.3,159.4 33.7,158.8 C33.1,158.2 32.4,157.9 31.4,157.9 C30.4,157.9 29.7,158.2 29,158.7 C28.3,159.3 27.9,160 27.6,160.8 L34.9,160.8 L34.9,160.8 Z M49.4,165.2 C49.4,165.9 49.5,166.5 49.8,167.1 C50.1,167.7 50.5,168.2 50.9,168.6 C51.4,169 52,169.4 52.7,169.6 C53.4,169.8 54.1,169.9 54.9,169.9 C55.9,169.9 56.9,169.7 57.8,169.3 C58.7,168.9 59.6,168.3 60.5,167.4 L62.9,171.7 C61.7,172.6 60.4,173.4 59,174 C57.6,174.6 56,174.9 54.4,174.9 C52.8,174.9 51.3,174.6 49.9,174.1 C48.6,173.5 47.4,172.8 46.5,171.8 C45.5,170.8 44.8,169.7 44.3,168.3 C43.8,167 43.5,165.5 43.5,163.9 C43.5,162.3 43.7,160.9 44.2,159.6 C44.7,158.3 45.4,157.2 46.3,156.2 C47.2,155.3 48.3,154.5 49.6,154 C50.9,153.5 52.3,153.2 53.8,153.2 C54.9,153.2 56,153.4 57.1,153.9 C58.2,154.3 59.2,155 60.1,156 C61,157 61.7,158.2 62.3,159.8 C62.9,161.3 63.2,163.2 63.2,165.3 L49.4,165.3 L49.4,165.2 Z M57,160.8 C56.8,160 56.4,159.4 55.8,158.8 C55.2,158.2 54.5,157.9 53.5,157.9 C52.6,157.9 51.8,158.2 51.1,158.7 C50.4,159.3 50,160 49.7,160.8 L57,160.8 L57,160.8 Z M73.8,153.7 L78.8,153.7 L78.8,158.3 L73.8,158.3 L73.8,167.2 C73.8,168.2 73.8,168.9 73.9,169.3 C74,169.7 74.2,169.9 74.6,169.9 C75.2,169.9 75.7,169.8 76.2,169.6 C76.7,169.4 77.3,169.1 78,168.7 L80.1,173 C79.6,173.2 79.1,173.5 78.6,173.7 C78,173.9 77.5,174.1 76.9,174.3 C76.3,174.5 75.8,174.6 75.3,174.7 C74.8,174.8 74.4,174.8 74,174.8 C73.3,174.8 72.6,174.7 71.9,174.5 C71.2,174.3 70.6,174 70,173.5 C69.4,173.1 69,172.5 68.6,171.8 C68.2,171.1 68.1,170.3 68.1,169.4 L68.1,158.3 L64.7,158.3 L64.7,153.7 L68.1,153.7 L68.1,149.5 L73.6,146.4 L73.6,153.7 L73.8,153.7 Z M98.6,159.8 C97.8,159.5 97.1,159.2 96.5,159 C95.9,158.8 95.4,158.6 94.9,158.5 C94.4,158.4 94,158.3 93.7,158.2 C93.3,158.2 93,158.1 92.7,158.1 C91.1,158.1 89.8,158.6 88.8,159.7 C87.8,160.8 87.3,162.2 87.3,164 C87.3,165.8 87.8,167.2 88.8,168.2 C89.8,169.2 91.2,169.7 92.9,169.7 C93.6,169.7 94.5,169.6 95.3,169.4 C96.2,169.2 97.4,168.8 99,168.2 L101.2,172.7 C100.5,173 99.7,173.3 98.9,173.6 C98.1,173.9 97.4,174.1 96.6,174.3 C95.8,174.5 95.1,174.6 94.5,174.7 C93.8,174.8 93.2,174.8 92.7,174.8 C91.1,174.8 89.5,174.5 88.2,174 C86.8,173.5 85.6,172.7 84.7,171.8 C83.7,170.9 83,169.7 82.4,168.4 C81.8,167.1 81.6,165.7 81.6,164.1 C81.6,162.5 81.9,161 82.4,159.6 C83,158.2 83.7,157.1 84.7,156.1 C85.7,155.1 86.8,154.4 88.2,153.8 C89.6,153.3 91,153 92.6,153 C93.6,153 94.8,153.2 96.3,153.6 C97.8,154 99.3,154.5 100.7,155.2 L98.6,159.8 L98.6,159.8 Z M109.9,154 C110.5,153.8 111.1,153.6 111.8,153.4 C112.5,153.2 113.2,153.1 114.1,153.1 C115.3,153.1 116.4,153.3 117.5,153.7 C118.5,154.1 119.4,154.6 120.2,155.4 C121,156.1 121.5,157.1 122,158.2 C122.5,159.3 122.6,160.6 122.6,162 L122.6,174.5 L117.1,174.5 L117.1,162.8 C117.1,161.4 116.8,160.2 116.3,159.4 C115.8,158.6 114.9,158.2 113.8,158.2 C113,158.2 112.3,158.3 111.8,158.5 C111.3,158.7 110.7,159 110.1,159.4 L110.1,174.6 L104.6,174.6 L104.6,145.2 L110.1,142.9 L110.1,154 L109.9,154 Z" id="Shape"></path>
            </g>
        </g>
    </g>
</svg>