<?xml version="1.0" encoding="utf-8"?>
<!-- Generator: Adobe Illustrator 19.2.1, SVG Export Plug-In . SVG Version: 6.00 Build 0)  -->
<!DOCTYPE svg PUBLIC "-//W3C//DTD SVG 1.1//EN" "http://www.w3.org/Graphics/SVG/1.1/DTD/svg11.dtd">
<svg version="1.1" id="Calque_1" xmlns="http://www.w3.org/2000/svg" xmlns:xlink="http://www.w3.org/1999/xlink" x="0px" y="0px"
	 viewBox="0 0 2355 1485" style="enable-background:new 0 0 2355 1485;" xml:space="preserve">
<style type="text/css">
	.st0{fill:#1F1F1D;}
	.st1{fill:#C51632;}
	.st2{fill:#F49A4C;}
	.st3{fill:#E95427;}
	.st4{fill:#C41531;}
	.st5{fill:#7C1C16;}
	.st6{fill:#FCE16D;}
	.st7{fill:#E95326;}
	.st8{fill:#C41632;}
	.st9{fill:#7C1B15;}
	.st10{fill:#F49A4B;}
</style>
<g>
	<path class="st0" d="M1769,1485c-2.8-0.7-5.6-1.5-8.4-2.2c-20-5.5-32.9-18.3-36.4-38.7c-5.2-31.2-5-62.8-1.1-94
		c3.4-27.4,22.2-42.8,49.9-44.8c9.3-0.7,18.6-0.1,27.7,2.4c24.8,6.9,35.9,24.9,37.8,48.9c2.2,27.2,2.8,54.6-0.6,81.8
		c-3.2,25.8-19.7,41.9-45.4,45.8c-0.9,0.1-1.7,0.6-2.6,1C1783,1485,1776,1485,1769,1485z M1800,1393.4
		C1800,1393.4,1800.1,1393.4,1800,1393.4c0.1-12.7,0.4-25.3,0-38c-0.3-12.7-7.1-18.8-19.7-18.6c-12.3,0.2-20,7.7-20.2,21.2
		c-0.4,22-0.3,44-0.2,66c0,4.5,0.4,9,1.2,13.4c1.9,10.8,8.3,16.1,18.9,16.1c12.3,0.1,19.4-6.8,19.9-20.6
		C1800.4,1419.8,1800,1406.6,1800,1393.4z"/>
	<path class="st0" d="M1925,1485c-2.8-0.8-5.6-1.5-8.4-2.3c-20.4-5.7-33.2-18.9-36.4-39.8c-4.8-31.3-4.7-62.9-0.7-94.1
		c4-30.9,31.6-47.9,66-43.3c30.9,4.1,47.7,21.5,49.5,52.7c1.6,26.7,2.8,53.7-0.8,80.3c-3.7,27-19.3,41.4-46.5,45.7
		c-0.6,0.1-1.1,0.5-1.6,0.8C1939,1485,1932,1485,1925,1485z M1956.1,1393.5c0,0,0.1,0,0.1,0c0-12.7,0.5-25.3-0.1-38
		c-0.7-14-7.5-19.5-21.5-18.5c-10.7,0.7-17.8,7.2-18.1,20c-0.7,25.8-1.6,51.7,0.5,77.4c1.2,13.8,8,19.5,20.6,19.1
		c11.2-0.4,17.9-7.2,18.4-20.5C1956.5,1419.8,1956.1,1406.6,1956.1,1393.5z"/>
	<path class="st1" d="M243,1485c-3.8-1-7.6-1.9-11.3-3.1c-20.9-6.6-31.8-21.6-34.6-42.7c-3.7-28.7-3.5-57.6-0.8-86.2
		c3.2-33.4,30.5-52.2,66.5-47.6c29.8,3.8,45.8,18.6,49.1,48.6c3.1,28.5,3.2,57.2-0.3,85.7c-3,24.6-20,40.5-44.6,44.3
		c-1.1,0.2-2.1,0.7-3.1,1C257,1485,250,1485,243,1485z M274,1393.5C274,1393.5,274,1393.5,274,1393.5c0-12.8,0.3-25.7,0-38.5
		c-0.3-12-6.7-17.9-18.6-18.2c-12.4-0.3-20.8,6.6-21.1,19.6c-0.5,25.3-0.2,50.6,0,75.9c0,2.8,0.9,5.6,1.7,8.3
		c2.6,8.6,7.9,12.6,16.8,12.8c13.1,0.4,20.5-6.6,21.1-21C274.4,1419.5,274,1406.5,274,1393.5z"/>
	<path class="st0" d="M1471,1485c-2.3-0.6-4.6-1.4-7-1.9c-18.2-3.6-30.2-15.1-39.2-30.5c-1.1-1.9-0.9-2.8,0.9-3.9
		c8.4-5.4,16.7-10.9,24.9-16.6c3.1-2.1,3.2,0.6,4.1,2.1c9.1,16,23.7,23.2,38.9,18.8c7.7-2.2,13.4-6.7,14.4-15.3
		c1.1-9.5-1.7-15-10.8-19.2c-13.3-6.1-27.1-11.1-40.1-17.6c-27.7-13.7-38.2-43.6-25-69.7c8.3-16.4,22.9-23.6,40.3-25.8
		c26.8-3.3,49.3,4.4,65.7,26.9c2.2,3,1.8,4.1-1.1,5.9c-7.3,4.6-14.6,9.3-21.6,14.3c-2.8,2-3.9,1.3-5.7-1.3
		c-7.8-11.3-18.3-17.2-32.4-15.4c-7.4,1-12.7,4.7-14.6,12.3c-1.9,7.6,1,13.6,7.2,17.7c11.2,7.4,24.4,10.3,36.8,15.1
		c31.6,12.1,45.9,41.1,34.4,71.2c-7.2,18.8-22.2,27.9-41,31.8c-1.1,0.2-2.1,0.7-3.1,1.1C1488.3,1485,1479.7,1485,1471,1485z"/>
	<path class="st0" d="M2280,1485c-1.4-1.9-3.6-1.4-5.4-1.8c-18.4-3.6-30.4-15.4-39.6-30.9c-1.5-2.6,0.4-3.1,1.8-4
		c7.7-5.2,15.6-10.2,23.3-15.5c2.8-2,3.7-1.4,5.2,1.5c8.4,15.7,23.3,22.9,38.5,18.8c8.8-2.3,13.9-7.8,15-16.1
		c1.1-8.3-1.9-14.2-10.7-18.3c-13.5-6.3-27.7-11.4-41-18c-28-14-38.2-46.7-22.8-72.2c8.6-14.2,22.1-20.7,38-22.8
		c27-3.6,49.6,4,66.4,26.5c2.3,3,2,4.3-1.2,6.3c-7.2,4.4-14.3,9.1-21.2,14.1c-2.9,2.1-4,1.5-6-1.3c-7.6-10.9-17.8-16.8-31.5-15.3
		c-7.6,0.8-13.2,4.4-15.4,12.1c-2,7.3,1,14.2,8.2,18.7c8.7,5.5,18.6,7.8,28.1,11.4c8.1,3.1,16.1,6.2,23.4,10.9
		c12.3,7.8,18.2,19.7,22,33c0,6,0,12,0,18c-2.8,16.1-10.6,28.8-25,37.1c-7.5,4.3-15.8,5.9-24,7.9C2297.3,1485,2288.7,1485,2280,1485
		z"/>
	<path class="st0" d="M1328,1485c-11.4-2.8-22.7-5.6-31.7-14c-5.7-5.3-10.1-11.4-14.3-17.9c-1.6-2.5-0.8-3.7,1.4-5
		c7.7-5,15.4-9.9,22.9-15.2c2.9-2.1,4-1.8,5.7,1.4c8.1,15.6,23,22.8,38.4,18.6c7.8-2.1,13.4-6.7,14.6-15.1c1.3-9.1-1.3-14.8-10.3-19
		c-12.1-5.7-24.8-10.4-37-15.9c-28.6-13-40.6-38.9-30.7-66.5c7-19.7,22.8-28.4,42.3-30.9c26.8-3.5,49.3,4.4,65.8,26.8
		c2.1,2.9,2,4.1-1.1,6c-7.3,4.6-14.5,9.4-21.6,14.3c-2.6,1.8-3.7,1.7-5.7-1.2c-7.8-11.5-18.5-17.5-32.8-15.4
		c-7.2,1.1-12.3,4.7-14.1,12.2c-1.8,7.4,0.8,13.2,6.7,17.4c8.8,6.3,19.4,8.5,29.2,12.4c6.6,2.6,13.4,4.8,19.6,8.5
		c20.2,11.9,29.2,31.3,25.6,55.6c-3,20.1-18.3,35.8-39.9,41c-2.3,0.6-4.6,1.3-7,2C1345.3,1485,1336.7,1485,1328,1485z"/>
	<path class="st0" d="M882,1485c-5.8-1.7-11.9-2.7-17.4-5.1c-17.6-7.7-27.9-21.4-29.8-40.5c-2.9-29.2-3.5-58.7-0.2-87.7
		c3.5-30.5,24.5-46.4,57.6-47.1c8.7-0.2,17.3,0.8,25.6,3.7c25.6,8.9,31.2,29.9,32.3,52.6c0.2,3.2-2.1,2.3-3.7,2.4
		c-10,0-20-0.1-30,0.1c-3.4,0.1-4.3-0.7-4.5-4.3c-0.5-14.8-7.3-22.8-18.9-22.8c-10.8,0-19.4,6.8-20,17.6
		c-1.4,27.3-1.6,54.6,0.1,81.9c0.7,10.7,7.5,16.3,18.6,17.2c9.3,0.8,16.5-4.4,19.3-14.4c1-3.7,2-7.6,1.8-11.3
		c-0.3-5.2,1.8-5.9,6.3-5.7c9.5,0.3,19,0.1,28.5,0.1c1.8,0,3.7-0.4,3.7,2.5c-0.2,18.1-2.9,35.2-17.7,47.9c-8.1,7-17.6,10.5-28,12.1
		c-0.9,0.1-2.1-0.4-2.5,1C896,1485,889,1485,882,1485z"/>
	<path class="st1" d="M400,0c1.7,27.2,3.3,54.4,5.1,81.6c0.2,3.5-0.4,5.2-4.2,6.2c-33.6,8.7-67.1,17.6-100.6,26.7
		c-3.8,1-5,0.1-5.4-3.6c-0.4-3.6-0.7-7.4-2.1-10.7c-4.7-11.2,0-18.2,8.2-25.8C331.3,46.3,364,21.6,399,0C399.3,0,399.7,0,400,0z"/>
	<path class="st2" d="M0,423c2.9-18.4,10.4-34.8,21.8-49.5c5.9-7.7,17-8.5,23-1.3c15.7,18.7,31.3,37.5,47.1,56.2
		c2.6,3,2.3,3.9-1.7,4.8c-28.6,6.6-57.2,13.5-85.8,20.3c-1.4,0.3-3,0.3-4.4,0.5C0,443.7,0,433.3,0,423z"/>
	<path class="st3" d="M2355,883c-2.8,7.6-8.7,8.2-15.9,8c-20.5-0.4-41-0.3-61.5-0.1c-4,0-5-1.2-4.9-5c0.2-16.5,0.1-33,0.1-50.3
		c4.1,2.3,7.7,4.2,11.2,6.2c22,12.4,44,24.9,66.1,37.2c1.5,0.8,2.8,2.5,4.9,1.9C2355,881.7,2355,882.3,2355,883z"/>
	<path class="st0" d="M2167.8,1339.6c-5.6,22.1-10.7,42.3-15.8,62.5c-6.2,24.7-12.5,49.3-18.5,74c-0.8,3.2-1.9,4.3-5.3,4.2
		c-7.3-0.4-16.5,2.3-21.4-1.2c-4.5-3.3-4.4-13-6.2-19.9c-10-38.6-19.9-77.2-29.9-115.8c-0.3-1.2-0.7-2.4-0.8-2.6
		c0,11.9,0,24.7,0,37.5c0,32.8,0,65.6,0.2,98.5c0,3-1,3.5-3.7,3.5c-8.5-0.2-17-0.2-25.5,0c-2.9,0.1-3.6-1-3.6-3.7
		c0.1-54.8,0.1-109.6,0-164.5c0-3,0.8-4,3.9-4c14.5,0.2,29,0.2,43.5,0c3.5-0.1,4.1,1.8,4.8,4.3c9.5,35,20.7,69.4,28.7,104.8
		c0.1,0.6,0.5,1.1,1.3,2.9c4.8-26.4,12.5-50.9,19.4-75.5c3.1-10.9,6.2-21.7,9.2-32.6c0.7-2.8,1.9-3.9,5-3.9c14.3,0.2,28.7,0.2,43,0
		c3.3,0,4.1,0.9,4.1,4.2c-0.1,54.7-0.1,109.3,0,164c0,3.4-1.1,4.1-4.2,4c-8.3-0.2-16.7-0.2-25,0c-3.3,0.1-4.1-0.8-4.1-4.1
		c0.5-44.1-0.9-88.3,1.5-132.4C2168.5,1343,2168.2,1342.3,2167.8,1339.6z"/>
	<path class="st1" d="M701.4,1369.5c1.4,35,0.1,69.9,0.7,104.8c0.1,4.8-1,6.3-5.9,6c-8.5-0.5-17-0.2-25.5-0.1
		c-2.9,0.1-3.6-0.9-3.6-3.7c0.1-54.8,0.1-109.6,0-164.4c0-3.6,1.4-4,4.4-4c8.8,0.2,17.7,0.3,26.5,0c4-0.1,6.2,1.1,8.1,4.7
		c16.9,32,35.8,62.9,50.7,94.3c0-9.4,0-20.1,0-30.9c-0.1-21.5-0.1-43-0.3-64.5c0-3,1.2-3.6,3.9-3.5c9.2,0.1,18.3,0.2,27.5,0
		c3.3-0.1,3.8,1.3,3.8,4.1c-0.1,54.6-0.1,109.3,0,163.9c0,3.4-1.1,4.2-4.3,4.1c-7.5-0.2-15-0.3-22.5,0c-3.5,0.1-5.3-1.1-6.9-4.2
		C739.4,1440.5,717.8,1406.4,701.4,1369.5z"/>
	<path class="st0" d="M1699,1480.2c-13.3,0-26.1-0.1-38.9,0c-3.1,0-3.3-2.3-4.1-4.2c-9.7-20.8-19.4-41.5-28.8-62.4
		c-3-6.5-8.3-3.3-12.4-3.4c-3.5,0-1.6,4-1.6,6c-0.2,20-0.2,40,0,60c0,2.9-0.5,4-3.8,4c-10-0.2-20-0.2-30,0c-3.1,0.1-3.9-0.9-3.9-3.9
		c0.1-54.6,0.1-109.3,0.1-163.9c0-1.7-1-4.3,2.5-4.2c25.4,0.7,51-1.8,76.3,1.8c23.5,3.3,37,16.7,39.6,38.2
		c3.4,28.4-5.6,45.6-28.9,54.7c-3.7,1.4-2.4,2.8-1.3,5c11.2,22.8,22.4,45.6,33.5,68.5C1697.8,1477.4,1698.3,1478.6,1699,1480.2z
		 M1613,1358.6c0,2.5,0,5,0,7.5c0,17.3,0,17.3,17.6,16.1c20.5-1.3,26.9-9.1,24.6-29.6c-1.2-10.2-6.4-15.7-16.6-16.6
		c-7.3-0.7-14.6-0.4-21.9-0.9c-3.3-0.2-3.8,1.1-3.8,4C1613.1,1345.6,1613,1352.1,1613,1358.6z"/>
	<path class="st1" d="M509.2,1393.8c0-27,0.1-54-0.1-81c0-3.6,0.7-4.8,4.6-4.8c35.5,0.2,71,0.1,106.4,0c3.6,0,5,0.8,4.8,4.6
		c-0.3,7.5-0.3,15,0,22.5c0.1,3.7-1,4.8-4.7,4.7c-23-0.2-46,0-69-0.2c-3.4,0-4.6,0.7-4.5,4.3c0.3,9.3,0.2,18.7,0,28
		c-0.1,3.3,0.9,4.2,4.2,4.1c15-0.2,30,0.1,45-0.2c3.8-0.1,4.8,1.1,4.7,4.8c-0.3,7.5-0.3,15,0,22.5c0.2,3.9-1.2,4.7-4.9,4.6
		c-14.8-0.2-29.7,0-44.5-0.2c-3.3,0-4.3,0.9-4.2,4.2c0.2,10.5,0.3,21,0,31.5c-0.1,3.8,1,4.7,4.7,4.7c24.7-0.2,49.3,0,74-0.2
		c3.4,0,4.6,0.6,4.5,4.3c-0.3,8-0.2,16,0,24c0.1,2.9-0.5,4.1-3.8,4c-37.8-0.1-75.6-0.1-113.4,0c-3.6,0-3.9-1.5-3.9-4.4
		C509.2,1448.5,509.2,1421.2,509.2,1393.8z"/>
	<path class="st4" d="M1281,835.4c0,17.7-0.1,35.3,0.1,53c0,3.3-0.9,4.2-4.2,4.2c-35-0.1-70-0.1-105,0c-3.3,0-4.2-0.9-4.2-4.2
		c0.2-35.6,0.2-71.3,0.2-106.9c0-2.8,0.7-3.7,3.6-3.7c35.3,0.1,70.6,0.1,106,0c3.5,0,3.6,1.6,3.6,4.2
		C1281,799.8,1281,817.6,1281,835.4z"/>
	<path class="st2" d="M1715.5,1013.7c-17.2,0-34.3-0.1-51.5,0.1c-3.7,0-5.2-0.7-5.1-4.9c0.2-34.7,0.2-69.3,0-104
		c0-3.9,1.3-4.6,4.9-4.6c34.5,0.1,69,0.1,103.5,0c4.1,0,4.9,1.4,4.8,5.1c-0.1,34.3-0.2,68.6,0,103c0,4.6-1.4,5.5-5.6,5.4
		C1749.5,1013.5,1732.5,1013.7,1715.5,1013.7z"/>
	<path class="st2" d="M598.5,1013.7c-17.2,0-34.3-0.1-51.5,0.1c-3.7,0-5.2-0.7-5.1-4.9c0.2-34.7,0.2-69.3,0-104
		c0-3.9,1.3-4.6,4.9-4.6c34.5,0.1,69,0.1,103.5,0c4.1,0,4.9,1.4,4.9,5.1c-0.1,34.5-0.1,69,0,103.5c0,4.1-1.3,4.9-5.1,4.9
		C632.8,1013.6,615.7,1013.7,598.5,1013.7z"/>
	<path class="st2" d="M2027.1,956.9c0-17.3,0.1-34.7-0.1-52c0-3.6,0.8-4.9,4.7-4.9c34.7,0.1,69.3,0.1,104,0c3.5,0,4.5,1,4.5,4.5
		c-0.1,34.8-0.1,69.7,0,104.5c0,3.9-1.3,4.7-4.9,4.7c-34.3-0.1-68.7-0.1-103,0c-4.2,0-5.4-1.2-5.3-5.3
		C2027.3,991.2,2027.1,974.1,2027.1,956.9z"/>
	<path class="st5" d="M606,783.5c-3.8,35.6-7.5,70.9-11.2,106.1c-0.3,2.9-1.4,3.5-4.1,3.2c-35.1-4-70.1-7.9-105.2-11.7
		c-2.3-0.3-3.6-0.5-3.3-3.4c3.9-35.4,7.8-70.8,11.5-106.2c0.3-3.1,1.2-3.8,4.2-3.5c34.7,3.9,69.5,7.7,104.2,11.5
		C604.9,779.9,607.2,780.2,606,783.5z"/>
	<path class="st2" d="M1101.9,532.3c17.2,0,34.3,0.1,51.5-0.1c3.6,0,4.9,0.9,4.8,4.7c-0.1,34.6-0.1,69.3,0,103.9
		c0,3.7-1,4.8-4.7,4.8c-33.6-0.1-67.3-0.2-101,0c-4.3,0-4.4-1.8-4.8-5.3c-4-34.4-2.4-68.8-2.8-103.3c0-4,1.2-5,5-5
		C1067.3,532.5,1084.6,532.3,1101.9,532.3z"/>
	<path class="st6" d="M735.1,335.5c0.4,3.2-2.6,2.9-4.4,3.4C699.1,347,667.6,355,636,363c-9.8,2.5-9.8,2.4-12.3-7.5
		c-8-31.4-15.9-62.8-24.1-94.2c-1.1-4.3-0.1-5.7,4.1-6.8c33.6-8.4,67-16.9,100.5-25.6c2.7-0.7,3.8-0.3,4.5,2.4
		c8.6,34.2,17.4,68.3,26.1,102.5C734.9,334.4,735,334.9,735.1,335.5z"/>
	<path class="st6" d="M2140.1,343.5c0,17.3-0.1,34.7,0.1,52c0,3.4-0.8,4.6-4.4,4.6c-34.8-0.1-69.7-0.1-104.5,0
		c-3.4,0-4.2-1.1-4.2-4.3c0.1-34.8,0.1-69.7,0-104.5c0-3.2,0.8-4.3,4.2-4.3c34.8,0.1,69.7,0.1,104.5,0c3.6,0,4.5,1.2,4.4,4.6
		C2140,308.8,2140.1,326.2,2140.1,343.5z"/>
	<path class="st7" d="M2263,343.5c0,17.5-0.1,35,0.1,52.4c0,3.3-0.9,4.1-4.2,4.1c-35-0.1-69.9-0.1-104.9,0c-3.3,0-4.1-1-4.1-4.2
		c0.1-35,0.1-69.9,0-104.9c0-3.4,1-4.1,4.2-4.1c35,0.1,69.9,0.1,104.9,0c3.3,0,4.1,0.9,4.1,4.1C2262.9,308.5,2263,326,2263,343.5z"
		/>
	<path class="st7" d="M1101.5,409.8c17.3,0,34.7,0.1,52-0.1c3.6,0,4.8,0.8,4.8,4.6c-0.2,34.7-0.1,69.3,0,104c0,3.4-0.7,4.6-4.4,4.6
		c-34.8-0.1-69.7-0.1-104.5,0c-3.5,0-4.5-0.9-4.5-4.4c0.1-34.8,0.1-69.7,0-104.5c0-3.8,1.4-4.3,4.6-4.2
		C1066.8,409.9,1084.2,409.8,1101.5,409.8z"/>
	<path class="st4" d="M1281,466.5c0,17.3-0.1,34.6,0.1,52c0,3.4-0.7,4.5-4.3,4.5c-34.8-0.1-69.6-0.2-104.4,0c-4,0-4.6-1.3-4.6-4.8
		c0.1-34.6,0.1-69.3,0-103.9c0-3.5,0.9-4.4,4.4-4.4c34.8,0.1,69.6,0.2,104.4,0c4,0,4.5,1.3,4.5,4.8
		C1280.9,431.8,1281,449.2,1281,466.5z"/>
	<path class="st6" d="M1592,522.9c-17,0-34-0.1-50.9,0.1c-4,0-5-1.1-5-5.1c0.1-34.5,0.1-68.9,0-103.4c0-3.6,1-4.9,4.8-4.9
		c34.6,0.1,69.3,0.1,103.9,0c3.5,0,4.5,1.1,4.5,4.6c-0.1,34.6-0.1,69.3,0,103.9c0,3.7-1,4.9-4.8,4.8
		C1626.9,522.8,1609.5,522.9,1592,522.9z"/>
	<path class="st7" d="M1715.5,522.8c-17.3,0-34.6-0.1-52,0.1c-3.8,0-4.7-1.1-4.6-4.8c0.1-34.6,0.1-69.3,0-103.9
		c0-3.6,0.7-4.8,4.6-4.8c34.6,0.2,69.3,0.2,103.9,0c3.8,0,4.7,1.1,4.6,4.8c-0.1,34.6-0.2,69.3,0,103.9c0,4.3-1.5,4.8-5.1,4.8
		C1749.8,522.8,1732.7,522.8,1715.5,522.8z"/>
	<path class="st7" d="M1281,712c0,17.2-0.1,34.3,0.1,51.5c0,3.2-0.4,4.6-4.2,4.6c-35-0.2-70-0.1-105,0c-3,0-4-0.7-4-3.8
		c0.1-35.2,0.1-70.3,0-105.5c0-3.2,1-3.8,4-3.8c35,0.1,70,0.1,105,0c3.8,0,4.2,1.4,4.2,4.6C1280.9,677,1281,694.5,1281,712z"/>
	<path class="st5" d="M1536.2,711c0-17.1,0.1-34.3-0.1-51.4c0-3.2,0.3-4.6,4.2-4.6c35,0.2,69.9,0.1,104.9,0c3.3,0,4.1,0.9,4.1,4.2
		c-0.1,35-0.1,69.9,0,104.9c0,3.3-0.9,4.1-4.1,4.1c-35-0.1-69.9-0.1-104.9,0c-3.3,0-4.2-0.9-4.1-4.2
		C1536.2,746.3,1536.2,728.6,1536.2,711z"/>
	<path class="st6" d="M1715.3,890.9c-17.2,0-34.3-0.1-51.5,0.1c-3.6,0-4.9-0.9-4.8-4.7c0.1-34.7,0.1-69.3,0-104
		c0-3.6,1.2-4.5,4.6-4.4c34.7,0.1,69.3,0.1,104,0c3.4,0,4.6,0.8,4.6,4.4c-0.1,34.7-0.1,69.3,0,104c0,3.8-1.2,4.7-4.8,4.7
		C1749.9,890.8,1732.6,890.9,1715.3,890.9z"/>
	<path class="st6" d="M1045,834.5c0-17.3,0.1-34.6-0.1-52c0-3.8,1.1-4.7,4.8-4.7c34.5,0.1,68.9,0.1,103.4,0c3.9,0,5.1,1,5.1,5
		c-0.1,34.5-0.1,68.9,0,103.4c0,3.8-1.2,4.7-4.8,4.7c-34.6-0.1-69.3-0.1-103.9,0c-3.5,0-4.5-1-4.5-4.5
		C1045.1,869.1,1045,851.8,1045,834.5z"/>
	<path class="st8" d="M1592.6,777.8c17.5,0,35,0.1,52.5-0.1c3.3,0,4.2,0.9,4.2,4.1c-0.1,35-0.1,69.9,0,104.9c0,3.4-1.1,4.1-4.3,4.1
		c-34.8-0.1-69.6-0.1-104.4,0c-3.5,0-4.5-0.9-4.5-4.4c0.1-34.8,0.1-69.6,0-104.4c0-3.7,1.3-4.3,4.6-4.3
		C1558,777.9,1575.3,777.8,1592.6,777.8z"/>
	<path class="st6" d="M922.1,343.5c0-17.2,0.1-34.3-0.1-51.5c0-3.8,0.8-5.2,4.9-5.2c34.5,0.2,68.9,0.2,103.4,0c4,0,5,1.3,5,5.1
		c-0.1,34.3-0.1,68.6,0,102.9c0,3.8-0.8,5.2-4.9,5.1c-34.5-0.2-68.9-0.2-103.4,0c-4.1,0-5-1.3-4.9-5.1
		C922.2,377.8,922.1,360.7,922.1,343.5z"/>
	<path class="st4" d="M1894.8,343.5c0,17.3-0.1,34.7,0.1,52c0,3.2-0.4,4.6-4.2,4.6c-35-0.2-70-0.1-105,0c-3,0-4-0.7-3.9-3.8
		c0.1-35.2,0.1-70.3,0-105.5c0-3.1,0.9-3.8,3.9-3.8c35,0.1,70,0.1,105,0c3.8,0,4.3,1.3,4.2,4.6
		C1894.8,308.8,1894.8,326.2,1894.8,343.5z"/>
	<path class="st9" d="M1715.5,400c-17.5,0-35-0.1-52.5,0.1c-3.3,0-4.1-0.8-4.1-4.1c0.1-35,0.1-70,0-104.9c0-3.3,0.8-4.1,4.1-4.1
		c35,0.1,70,0.1,104.9,0c3.3,0,4.1,0.8,4.1,4.1c-0.1,35-0.1,70,0,104.9c0,3.3-0.8,4.1-4.1,4.1C1750.5,399.9,1733,400,1715.5,400z"/>
	<path class="st5" d="M887.2,344c0,17.3-0.1,34.6,0.1,51.9c0,3.3-0.9,4.1-4.1,4.1c-35-0.1-69.9-0.1-104.9,0c-3.3,0-4.1-0.9-4.1-4.2
		c0.1-35,0.1-69.9,0-104.9c0-3.4,1-4.1,4.2-4.1c35,0.1,69.9,0.1,104.9,0c3.4,0,4.1,1,4.1,4.2C887.1,308.7,887.2,326.4,887.2,344z"/>
	<path class="st10" d="M1101.5,400c-17.2,0-34.3-0.1-51.5,0.1c-3.6,0-5.2-0.5-5.2-4.8c0.2-34.6,0.2-69.3,0-103.9
		c0-3.5,0.9-4.5,4.4-4.4c34.8,0.1,69.6,0.1,104.4,0c3.6,0,4.4,1.1,4.4,4.5c-0.1,34.6-0.1,69.3,0,103.9c0,3.7-1,4.7-4.7,4.7
		C1136.2,399.9,1118.8,400,1101.5,400z"/>
	<path class="st2" d="M916.6,160.6c-4,30.5-8,61-12.1,91.5c-0.4,2.8-1.3,5.6-1.1,8.4c0.8,9.1-3.8,9.2-11,8.2
		c-31.8-4.5-63.6-8.6-95.5-12.7c-4.8-0.6-6.9-1.4-6.1-7.3c4.8-33.8,9.1-67.6,13.4-101.4c0.5-3.8,1.9-4.2,5.5-3.7
		c34.1,4.6,68.3,9,102.4,13.5C914.1,157.4,917.3,156.7,916.6,160.6z"/>
	<path class="st10" d="M395.9,718.1c-24.6,2.4-49.3,4.7-73.9,7.2c-3.3,0.3-4.7-0.3-5-4c-3.3-34.7-6.8-69.5-10.4-104.2
		c-0.3-3.2,0.3-3.9,3.4-4.2c35.1-3.5,70.1-7,105.2-10.7c2.8-0.3,3.7,0.4,4,3.3c2.2,23.2,4.6,46.3,7,69.5c1.2,11.5,2.2,23,3.6,34.5
		c0.4,3.6,0.3,5.4-4.2,5.6C415.6,715.7,405.8,717.1,395.9,718.1z"/>
	<path class="st0" d="M1244.6,1479.9c-6,0-13.6,2.2-17.5-0.6c-3.8-2.8-3.7-10.8-5.2-16.5c-4.2-16.5-4.2-16.5-21.5-16.5
		c-10.3,0-20.7,0.2-31-0.1c-3.4-0.1-4.6,1.2-5.3,4.2c-2.2,8.9-4.7,17.7-6.8,26.6c-0.6,2.7-1.6,3.5-4.3,3.4c-10-0.1-20-0.2-30,0
		c-3.2,0.1-3.5-1-2.8-3.8c15.6-55,31.1-110,46.6-165c0.7-2.6,1.8-3.4,4.4-3.4c13,0.1,26,0.1,39,0c2.7,0,3.8,0.9,4.5,3.4
		c15.8,55.1,31.7,110.1,47.7,165.2c0.9,3.2,0,3.7-2.8,3.6c-5-0.2-10,0-15,0C1244.6,1480.1,1244.6,1480,1244.6,1479.9z
		 M1190.9,1337.8c-6.4,26.8-12.3,51.4-18.3,75.8c-0.8,3.1,0.3,3.3,2.8,3.2c7-0.1,14,0,21,0c13.9,0,13.9,0,10.6-13.4
		C1201.8,1382.3,1196.6,1361.3,1190.9,1337.8z"/>
	<path class="st7" d="M507.7,489.2c-4.8,1.9-5.7-1.1-6.2-6.1c-3-33.7-6.2-67.3-9.6-100.9c-0.4-4.2,0.9-5.1,4.9-5.5
		c33.5-3,67-6.2,100.4-9.6c5.1-0.5,7.2,0.3,7.7,5.9c2.9,33.8,6.1,67.7,9.3,101.5c0.4,3.7-0.4,4.8-4.1,5.2
		C576.3,482.6,542.5,485.9,507.7,489.2z"/>
	<path class="st7" d="M2150,957c0-17.5,0.1-35-0.1-52.5c0-3.5,0.9-4.5,4.4-4.4c34.7,0.1,69.3,0.1,104,0c3.6,0,4.8,0.7,4.8,4.6
		c-0.2,31.8-0.1,63.6-0.1,95.5c0,4.9-8.2,13.3-13.3,13.3c-32,0-64,0-96,0.1c-3.8,0-3.8-1.8-3.8-4.6C2150,991.7,2150,974.3,2150,957z
		"/>
	<path class="st4" d="M1158.2,712c0,17.2-0.1,34.3,0.1,51.5c0,3.2-0.4,4.6-4.2,4.6c-35-0.2-70-0.1-104.9,0c-3.2,0-4.2-0.6-4.2-4
		c0.2-25.7-0.2-51.3,0.2-77c0.1-9.8,1.7-19.5,2.5-29.3c0.2-2.5,1.5-2.8,3.6-2.8c34.5,0,69,0.1,103.4,0c3.4,0,3.6,1.4,3.6,4.1
		C1158.1,676.7,1158.2,694.4,1158.2,712z"/>
	<path class="st4" d="M1649.2,589c0,17.2-0.1,34.3,0.1,51.5c0,3.7-0.7,5.1-4.8,5.1c-34.5-0.2-69-0.2-103.5,0c-4.1,0-4.9-1.3-4.9-5.1
		c0.1-34.3,0.1-68.6,0-103c0-3.8,0.9-5.1,4.9-5.1c34.5,0.2,69,0.2,103.5,0c4.2,0,4.8,1.5,4.8,5.1
		C1649.1,554.7,1649.2,571.9,1649.2,589z"/>
	<path class="st7" d="M1838,1013.4c-17.1,0-34.3-0.1-51.4,0.1c-3.6,0-4.9-0.7-4.8-4.6c0.2-34.6,0.1-69.3,0-103.9
		c0-3.4,0.8-4.6,4.4-4.5c34.8,0.1,69.6,0.1,104.4,0c3.6,0,4.4,1.3,4.4,4.6c-0.1,34.6-0.1,69.3,0,103.9c0,4-1.6,4.6-5,4.5
		C1872.6,1013.4,1855.3,1013.4,1838,1013.4z"/>
	<path class="st6" d="M1224.6,645.2c-17.3,0-34.7-0.1-52,0.1c-3.7,0-4.8-1.1-4.8-4.8c0.1-34.3,0.1-68.6,0-103c0-3.7,1-4.9,4.8-4.8
		c34.7,0.1,69.3,0.1,104,0c3.5,0,4.5,1.1,4.5,4.5c-0.1,34.5-0.1,69,0,103.5c0,4-1.5,4.6-5,4.6
		C1258.9,645.2,1241.8,645.2,1224.6,645.2z"/>
	<path class="st9" d="M1158.2,957.5c0,17.2-0.1,34.3,0.1,51.5c0,3.3-0.5,4.6-4.2,4.6c-35-0.1-69.9-0.1-104.9,0
		c-3.3,0-4.2-0.8-4.1-4.1c0.1-35,0.1-69.9,0-104.9c0-3.4,1-4.1,4.2-4.1c35,0.1,69.9,0.1,104.9,0c3.8,0,4.2,1.4,4.2,4.6
		C1158.1,922.5,1158.2,940,1158.2,957.5z"/>
	<path class="st7" d="M733.1,1013.4c-17.1,0-34.3-0.1-51.4,0.1c-3.5,0-4.9-0.6-4.9-4.6c0.2-34.6,0.2-69.3,0-103.9
		c0-3.9,1.3-4.6,4.8-4.6c34.5,0.1,68.9,0.1,103.4,0c4,0,5,1.2,5,5.1c-0.1,34.3-0.2,68.6,0,102.9c0,4.4-1.5,5.1-5.4,5.1
		C767.4,1013.3,750.2,1013.4,733.1,1013.4z"/>
	<path class="st4" d="M922.2,956.5c0-17.2,0.1-34.3-0.1-51.5c0-3.4,0.8-4.6,4.4-4.6c34.8,0.1,69.6,0.1,104.4,0
		c3.3,0,4.7,0.6,4.6,4.3c-0.1,34.8-0.1,69.6,0,104.4c0,3.1-0.7,4.3-4.1,4.3c-35-0.1-70-0.1-104.9,0c-3.6,0-4.4-1.2-4.4-4.6
		C922.2,991.5,922.2,974,922.2,956.5z"/>
	<path class="st10" d="M1960.8,400c-17.1,0-34.3-0.1-51.4,0.1c-3.7,0-4.8-0.9-4.8-4.7c0.1-34.6,0.1-69.3,0-103.9
		c0-3.4,0.8-4.6,4.4-4.5c34.6,0.1,69.3,0.1,103.9,0c3.5,0,4.5,0.9,4.5,4.5c-0.1,34.8-0.1,69.6,0,104.4c0,3.8-1.5,4.3-4.7,4.3
		C1995.4,399.9,1978.1,400,1960.8,400z"/>
	<path class="st6" d="M2017.2,956.8c0,17.2-0.1,34.3,0.1,51.5c0,4-1.2,5.1-5.1,5.1c-34.1-0.1-68.3-0.1-102.4,0
		c-3.9,0-5.1-1.1-5.1-5.1c0.1-34.5,0.1-69,0-103.4c0-3.8,1.2-4.8,4.8-4.8c34.3,0.1,68.6,0.1,102.9,0c3.7,0,4.9,1,4.8,4.8
		C2017.1,922.1,2017.2,939.5,2017.2,956.8z"/>
	<path class="st7" d="M2017.2,166.1c0.1,36,0.2,71.9,0.3,107.9c0,2.5-1,3-3.3,3c-35.5-0.1-70.9-0.1-106.4,0c-2.7,0-3.3-1-3.3-3.5
		c0.1-35.3,0.1-70.6,0-105.9c0-2.8,0.7-3.7,3.6-3.7c32.6,0.2,65.3,0.2,97.9,0.3C2009.8,164.8,2013.5,165.5,2017.2,166.1z"/>
	<path class="st6" d="M912.2,957.5c0,17-0.1,34,0.1,51c0,3.7-1.1,4.8-4.8,4.8c-34.3-0.1-68.6-0.1-103,0c-3.7,0-4.8-1.1-4.8-4.8
		c0.1-34.3,0.1-68.6,0-103c0-3.7,1.1-4.8,4.8-4.8c34.3,0.1,68.6,0.1,103,0c3.7,0,4.9,1.1,4.8,4.8
		C912.1,922.9,912.2,940.2,912.2,957.5z"/>
	<path class="st1" d="M354.5,1394.1c0-27,0.1-54-0.1-80.9c0-3.7,0.7-5.2,4.9-5.1c24.4,0.9,49-1.9,73.3,1.9
		c28.2,4.4,43.5,24.2,42.6,54c-0.9,28.4-18,47.3-45.6,50c-10.7,1.1-21.6,1.4-32.4,1.7c-3.6,0.1-4.4,1.1-4.4,4.5
		c0.1,18.5,0,37,0.1,55.5c0,3.4-0.8,4.6-4.4,4.5c-9.8-0.2-19.7-0.3-29.5,0c-3.8,0.1-4.7-1-4.7-4.7
		C354.5,1448.4,354.5,1421.2,354.5,1394.1z M392.8,1361.8c0,7.3,0.1,14.6,0,22c0,2.2,0.3,3.4,2.9,3.3c7.3-0.4,14.7-0.2,21.9-1.1
		c10.8-1.3,17.5-10.6,17.9-23.5c0.5-15.1-4.1-22.1-16.2-24.6c-7.4-1.5-14.9-0.6-22.4-1c-3.2-0.2-4.3,0.7-4.2,4.1
		C393,1347.8,392.8,1354.8,392.8,1361.8z"/>
	<path class="st8" d="M856.3,1023.2c17.2,0,34.3,0.1,51.5-0.1c3.6,0,4.8,0.8,4.8,4.7c-0.1,33-0.2,66,0,98.9c0,3.9-1.2,5-5,5.4
		c-34.2,3.3-68.4,3.6-102.7,1c-4.4-0.3-5.5-1.7-5.5-6c0.2-32.8,0.2-65.6,0-98.4c0-4.8,1.6-5.7,5.9-5.6
		C822.3,1023.3,839.3,1023.2,856.3,1023.2z"/>
	<path class="st5" d="M302.1,387.8c27.6,2.8,55.3,5.6,82.9,8.2c2.9,0.3,3.1,1.6,2.8,3.9c-3.7,34.7-7.5,69.4-11.1,104.2
		c-0.3,3.2-1.4,4.1-4.6,3.8c-35.1-3.7-70.1-7.4-105.2-10.9c-3.9-0.4-3-2.6-2.8-4.8c3.2-29.6,6.4-59.2,9.5-88.8
		c0.3-2.5,0.4-5,0.6-7.5c4.2,0.9,8.4,1.8,12.6,2.7C300.8,401.9,300.8,401.9,302.1,387.8z"/>
	<path class="st5" d="M673.1,564.8c-2.8,18.3-3.6,36.9-2.1,55.6c1,12,0.7,12-11.4,13.5c-28.9,3.6-57.8,7.3-86.7,10.9
		c-2,0.3-3.6,0.8-4-2.5c-4.4-35.5-8.9-71-13.5-106.5c-0.6-4.3,2.7-3.2,4.5-3.4c22.1-2.9,44.2-5.6,66.4-8.4c12-1.5,24.1-2.9,36.1-4.7
		c3.7-0.5,5.3,0.1,5.7,4.2C669.5,537.2,671.3,550.9,673.1,564.8z"/>
	<path class="st5" d="M1894.8,220.4c0,17.5-0.1,35,0.1,52.5c0,3.2-0.7,4.2-4.1,4.2c-35-0.1-70-0.1-104.9,0c-3.3,0-4.1-0.8-4.1-4.1
		c0.1-30.3,0.1-60.6,0-90.9c0-3.1,1.1-4.2,3.9-5c34.5-9.4,69.5-15.3,105.5-13.1c3.2,0.2,3.8,1.2,3.8,4
		C1894.8,185.4,1894.8,202.9,1894.8,220.4z"/>
	<path class="st2" d="M553,709.5c0-16.3,0-32.6,0-48.9c0-2.6-0.3-4.6,3.7-4.7c31.8-0.5,63.5-1.1,95.3-1.9c4.2-0.1,5.1,1.2,5.3,5.2
		c0.8,13.1,2.1,26.3,6.2,38.8c4.8,14.7,3.1,29.6,3.8,44.5c0.4,6.6,0.3,13.3,0.6,19.9c0.1,2.8-0.8,3.7-3.7,3.8
		c-34.9,0.6-69.9,1.2-104.8,2c-3.8,0.1-4.7-1.2-4.7-4.8c0.2-18,0.1-35.9,0.1-53.9C554.2,709.5,553.6,709.5,553,709.5z"/>
	<path class="st4" d="M1961.5,1023.2c17.2,0,34.3,0.1,51.5-0.1c3.4,0,4.6,0.8,4.6,4.4c-0.1,31.6-0.1,63.3,0,94.9
		c0,3.2-1.2,4.2-4.2,4.7c-34.4,5.4-69.1,7.8-103.9,7.9c-4,0-5-1.2-5-5.1c0.1-34,0.2-67.9,0-101.9c0-4.1,1.3-4.9,5.1-4.9
		C1926.9,1023.3,1944.2,1023.2,1961.5,1023.2z"/>
	<path class="st2" d="M1838,1023.1c17.5,0,35,0.1,52.5-0.1c3.5,0,4.5,1,4.5,4.5c-0.1,34.1-0.1,68.3,0,102.4c0,2.7-0.3,4.3-3.7,4.2
		c-36-1.3-71.5-6.8-106.4-15.7c-2.5-0.6-3-1.9-3-4.2c0.1-29.1,0.1-58.3,0-87.4c0-3.9,2.1-3.7,4.7-3.7
		C1803.7,1023.2,1820.8,1023.1,1838,1023.1z"/>
	<path class="st8" d="M2140.2,834.3c0,17.2-0.1,34.3,0.1,51.5c0,3.7-0.6,5.1-4.8,5.1c-34.5-0.2-69-0.2-103.5,0
		c-4.1,0-4.9-1.3-4.9-5.1c0.2-20.2,0.1-40.3,0-60.5c0-2.7,0.5-4.6,2.8-6.3c14.1-10.6,26.2-23.2,36.8-37.1c2.4-3.1,4.8-4.2,8.7-4.2
		c19.8,0.2,39.7,0.2,59.5,0c4,0,5.4,0.8,5.3,5.1C2140,800,2140.2,817.2,2140.2,834.3z"/>
	<path class="st7" d="M684.1,146c-20.8-3.8-41.4-7.6-62-11.4c-13.9-2.6-27.8-5.2-41.7-7.6c-3.7-0.6-5-1.8-4.2-5.7
		c5-26.3,9.9-52.6,14.6-79c0.5-2.9,1.5-4.1,4.6-4.5c32.7-4.7,65.7-5.7,98.7-4.7c12.8,0.4,13.2,0.8,10.9,13.2
		c-5.8,31.9-11.7,63.8-17.6,95.7C687,143.9,687.6,146.9,684.1,146z"/>
	<path class="st4" d="M1649.2,343.7c0,17.3-0.1,34.7,0.1,52c0,3.5-0.9,4.4-4.4,4.4c-34.8-0.1-69.6-0.1-104.4,0
		c-3.7,0-4.4-1.1-4.3-4.5c0.2-18.5,0.1-37,0-55.5c0-2.4,0.5-4.4,2.1-6.4c13.2-15.7,27.3-30.5,42.3-44.5c1.6-1.5,3.3-2.4,5.7-2.4
		c19.7,0.1,39.3,0.2,59,0c3.6,0,4,1.3,3.9,4.3C1649.1,308.7,1649.2,326.2,1649.2,343.7z"/>
	<path class="st8" d="M979,277c-17.5,0-35-0.1-52.5,0.1c-3.5,0-4.5-0.9-4.4-4.4c0.1-34.8,0.1-69.7,0-104.5c0-3.7,1.3-4.5,4.6-4.2
		c25.3,2.3,49.9,7.9,74.3,14.5c10.4,2.8,20.6,6.4,31,9.4c2.8,0.8,3.6,2.1,3.6,4.9c-0.1,26.7-0.1,53.3,0,80c0,3.7-1.3,4.3-4.6,4.3
		C1013.7,276.9,996.3,277,979,277z"/>
	<path class="st8" d="M2140.2,466.3c0,17.3-0.1,34.7,0.1,52c0,3.8-1.1,4.7-4.8,4.6c-19.7-0.2-39.3-0.2-59,0c-3.2,0-5-0.9-6.9-3.6
		c-11.3-16.4-24.3-31.3-40.1-43.6c-1.7-1.3-2.5-2.8-2.5-5c0.1-19,0.1-38,0-57c0-3.2,0.8-4.3,4.2-4.3c35,0.1,70,0.1,105,0
		c3.5,0,4,1.3,4,4.4C2140.1,431.3,2140.2,448.8,2140.2,466.3z"/>
	<path class="st7" d="M1593.1,900.6c17.2,0,34.3,0.1,51.5-0.1c3.8,0,4.7,1.1,4.7,4.8c-0.1,34.5-0.1,69,0,103.5
		c0,3.6-0.7,4.9-4.6,4.8c-18.2-0.2-36.3-0.1-54.5-0.1c-2.4,0-4.4-0.5-6.3-2.2c-16.1-14.5-31.1-30.1-45.1-46.6c-1.7-2-2.6-4-2.6-6.7
		c0.1-17.7,0.2-35.3,0-53c0-3.5,1-4.5,4.5-4.5C1558.1,900.6,1575.6,900.6,1593.1,900.6z"/>
	<path class="st5" d="M789.8,1077.5c0,16.5-0.1,33,0.1,49.5c0,3.7-1.2,4.5-4.5,4.1c-35.9-4.4-71.1-11.9-105.6-23.1
		c-2.3-0.7-3-1.8-3-4.2c0.1-25.7,0.1-51.3,0-77c0-2.9,0.8-3.6,3.7-3.6c35.2,0.1,70.3,0.1,105.5,0c3.6,0,4,1.4,4,4.4
		C789.8,1044.1,789.8,1060.8,789.8,1077.5z"/>
	<path class="st5" d="M979.1,1023.2c17.3,0,34.7,0.1,52-0.1c3.5,0,4.5,0.9,4.5,4.4c-0.1,24-0.1,48,0,72c0,3.1-1.1,4.4-3.8,5.3
		c-34.4,11.8-69.6,20.1-105.6,25.1c-2.9,0.4-4.1-0.1-4.1-3.4c0.1-33.2,0.1-66.3,0-99.5c0-3.8,1.7-3.8,4.5-3.8
		C944.1,1023.2,961.6,1023.2,979.1,1023.2z"/>
	<path class="st10" d="M1715.6,768c-17.5,0-35-0.1-52.5,0.1c-3.2,0-4.3-0.8-4.2-4.1c0.1-35,0.1-69.9,0-104.9c0-3.4,1.1-4.1,4.3-4.1
		c26.1,0.1,52.3,0.1,78.4,0c3.1,0,4.3,0.7,4.4,4.1c1.3,35.3,8.9,69.2,24.8,100.9c3,6,1.7,8.1-4.8,8.1
		C1749.3,768,1732.4,768,1715.6,768z"/>
	<path class="st2" d="M1526.7,711.9c0,17.2-0.1,34.3,0.1,51.5c0,3.7-1,4.8-4.8,4.7c-25.7-0.2-51.3-0.1-77,0c-3.3,0-4.5-0.9-5.2-4.2
		c-7.8-34.2-11.3-68.9-12.5-103.9c-0.1-3.9,1-5,5-5c29.8,0.2,59.6,0.2,89.5,0c3.9,0,5.1,1,5,5
		C1526.5,677.2,1526.7,694.5,1526.7,711.9z"/>
	<path class="st6" d="M1715.3,532.8c17.2,0,34.3,0.1,51.5-0.1c3.7,0,4.8,0.6,2.9,4.4c-15.9,32.7-23.8,67.2-23.7,103.6
		c0,3.4-1,4.6-4.5,4.6c-26-0.1-52-0.1-78,0c-3.4,0-4.6-0.9-4.6-4.5c0.1-34.5,0.1-69,0-103.4c0-3.9,1.3-4.7,4.9-4.7
		C1681,532.9,1698.1,532.8,1715.3,532.8z"/>
	<path class="st2" d="M2083.4,277c-17.2,0-34.3-0.1-51.5,0.1c-3.6,0-4.9-0.7-4.9-4.6c0.2-33.3,0.1-66.6,0-99.9
		c0-3.4,0.4-4.5,4.3-3.8c36.2,7,71.2,17.8,104.9,32.9c2.9,1.3,3.9,2.8,3.9,5.9c-0.1,21.5-0.2,43,0,64.5c0,4.4-1.5,5.1-5.4,5.1
		C2117.7,276.9,2100.5,277,2083.4,277z"/>
	<path class="st7" d="M1526.4,589.5c0,17.2-0.1,34.3,0.1,51.5c0,3.5-1,4.5-4.5,4.5c-30-0.1-60-0.1-90,0c-3.4,0-4.6-0.8-4.6-4.4
		c0.2-35.4,4.4-70.4,11.8-105c0.6-2.8,1.9-3.6,4.8-3.6c26,0.1,52,0.1,78,0c3.5,0,4.5,1.1,4.5,4.5
		C1526.4,554.5,1526.4,572,1526.4,589.5z"/>
	<path class="st2" d="M2206.3,890.9c-17.2,0-34.3-0.1-51.5,0.1c-4,0.1-5-1.2-4.9-5c0.1-34.3,0.2-68.7,0-103c0-4.3,1.3-4.9,5.3-5.2
		c10.5-0.8,19.6,2,28.7,7.4c24.6,14.6,49.7,28.4,74.7,42.3c3.1,1.7,4.5,3.6,4.4,7.3c-0.2,17.2-0.2,34.3,0,51.5c0,3.7-1,4.8-4.7,4.7
		C2241,890.8,2223.7,890.9,2206.3,890.9z"/>
	<path class="st2" d="M302.1,387.8c-1.3,14.1-1.3,14.1-15.2,10.9c-4.2-1-8.4-1.8-12.6-2.7c-32.5-7.7-65-15.6-97.5-22.9
		c-7.5-1.7-8.2-3.6-4.8-10.3c10.7-20.5,20.6-41.4,30.7-62.2c1.5-3.1,3-3.8,6.5-3c31,6.7,62.1,13.1,93.2,19.5
		c3.7,0.8,5.2,1.9,4.9,6.1C305.3,344.7,303.8,366.3,302.1,387.8z"/>
	<path class="st5" d="M2083.5,1023.2c17.5,0,35,0.1,52.5-0.1c3.2,0,4.3,0.7,4.2,4.1c-0.2,19.3-0.1,38.7,0,58c0,2.4-0.5,3.8-3,4.9
		c-34.1,15.5-69.6,26.3-106.1,33.8c-3,0.6-4-0.1-4-3.4c0.1-31.2,0.1-62.3,0-93.5c0-3.7,1.5-3.9,4.5-3.9
		C2048.9,1023.2,2066.2,1023.2,2083.5,1023.2z"/>
	<path class="st5" d="M461.8,1006.1c-19.2-3-37.7-7.2-55.9-12.3c-14.5-4.1-28.7-9.3-43-14.3c-8.4-3-14.3-7.6-18.7-15.6
		c-7.2-13.3-7.7-13,5.4-21c26.5-16.2,53.1-32.3,79.6-48.6c3.1-1.9,4.4-1.7,6.4,1.5c17.9,29.7,36,59.4,54.2,89
		c1.7,2.8,1.9,4.3-1.2,6.1c-7.8,4.5-15.4,9.3-23,13.9C464.2,1005.5,463,1006.5,461.8,1006.1z"/>
	<path class="st9" d="M1224.3,400c-17.3,0-34.7-0.1-52,0.1c-3.9,0.1-4.6-1.1-4.6-4.7c0.1-34.7,0.1-69.3,0-104c0-3.3,0.5-4.9,4.3-4.5
		c3.3,0.3,6.7,0.6,10,0c15.8-2.8,27.1,3.8,37.8,15.1c17.6,18.7,34.7,37.7,50.6,57.9c7.8,9.9,12,19.9,10.9,32.7
		c-0.5,5.8-1.2,7.7-7.5,7.5C1257.3,399.6,1240.8,400,1224.3,400z"/>
	<path class="st2" d="M1035.4,834.6c0,17.2-0.1,34.3,0.1,51.5c0,3.6-0.8,4.9-4.7,4.9c-34.7-0.1-69.3-0.1-104,0
		c-3.2,0-4.8-0.5-4.7-4.3c0.2-12.3,0.2-24.7,0-37c0-2.8,0.9-4.1,3.4-5.2c33.2-13.3,60-34.8,81-63.6c1.7-2.3,3.5-3.2,6.2-3
		c7.3,0.3,16.9-2.4,21.3,1.3c4.5,3.8,1.2,13.7,1.3,21C1035.5,811.6,1035.4,823.1,1035.4,834.6z"/>
	<path class="st5" d="M572.9,208c-30.2,30.3-60,60.3-89.8,90.3c-4.2,4.3-8.5,8.4-12.7,12.7c-1.9,2-2.7,2.3-3.9-0.6
		c-10.4-25-20.9-49.9-31.5-74.8c-0.9-2.2-0.8-3.5,0.9-5.2c17-16.4,33.9-33,50.8-49.5c1.2-1.2,2.1-2.3,4.2-1.5
		C518.1,189,545.4,198.4,572.9,208z"/>
	<path class="st0" d="M987.8,1394.4c0-27.1,0.1-54.3-0.1-81.4c0-4,1.2-5,5-4.9c9.7,0.3,19.3,0.3,29,0c4.1-0.1,4.9,1.3,4.9,5.1
		c-0.1,43.1,0,86.3-0.2,129.4c0,4.8,1.4,5.6,5.8,5.6c21.6-0.2,43.3,0,65-0.2c3.7,0,5.2,0.6,5,4.7c-0.4,8-0.2,16,0,24
		c0.1,2.8-0.7,3.6-3.6,3.6c-35.6-0.1-71.3-0.1-106.9,0c-3.8,0-3.8-1.6-3.8-4.4C987.9,1448.7,987.8,1421.5,987.8,1394.4z"/>
	<path class="st2" d="M1167.9,956.9c0-17.2,0.1-34.3-0.1-51.5c0-3.7,0.7-5.2,4.9-5.2c34.5,0.1,69,0,103.4-0.2c3.9,0,4.8,1,5.1,4.9
		c0.5,7.4-1.7,13.3-6.1,19.3c-23.3,32.1-49.8,61.1-79.9,87c-2.6,2.2-5.3,2.5-8.3,2.4c-6.1-0.2-14.2,1.9-17.9-1.1
		c-3.9-3.2-1.1-11.6-1.2-17.7C1167.7,982.2,1167.9,969.6,1167.9,956.9z"/>
	<path class="st2" d="M676.9,834c0-17.2,0.1-34.3-0.1-51.5c0-3.7,1.1-4.4,4.7-4.8c11.2-1.2,18.8,2.1,26.2,11.7
		c20.2,26.3,46.8,44.6,77.9,56.3c3.1,1.2,4.4,2.4,4.4,5.9c-0.2,11.7-0.2,23.3,0,35c0,3.3-0.9,4.3-4.2,4.3
		c-34.8-0.1-69.6-0.1-104.4,0c-3.5,0-4.5-1-4.5-4.5C676.9,869,676.9,851.5,676.9,834z"/>
	<path class="st10" d="M979,409.9c17,0,34,0.2,50.9-0.1c4.5-0.1,5.5,1.4,5.5,5.6c-0.2,34-0.2,67.9,0,101.9c0,4.8-1.7,5.2-5.9,5.8
		c-12.3,1.7-19.8-3-27.2-13.3c-19.4-27-45.4-46.6-76.2-59.4c-3.2-1.3-4.2-2.9-4.1-6.2c0.2-10,0.2-20,0-30c-0.1-3.5,1.1-4.5,4.5-4.5
		C944.1,409.9,961.6,409.9,979,409.9z"/>
	<path class="st2" d="M2207,409.3c17,0,34,0.1,50.9-0.1c3.7,0,5.3,0.6,5.1,4.9c-0.3,11.5-0.2,23,0,34.5c0,2.9-0.9,4.5-3.4,5.9
		c-35.4,20.6-70.7,41.2-105.9,62c-3.8,2.3-3.8,0.6-3.8-2.5c0.1-33.3,0.1-66.6,0-99.9c0-3.7,0.9-4.8,4.7-4.8
		C2172.1,409.4,2189.6,409.3,2207,409.3z"/>
	<path class="st10" d="M1715.5,277c-17.2,0-34.3-0.1-51.5,0.1c-3.7,0-5.2-0.6-5.1-4.8c0.3-12.6,0.2-25.3,0.1-38
		c0-2.7,0.9-4.2,3.2-5.5c33.5-19.8,69-35.2,106.1-46.8c3.2-1,3.9-0.4,3.9,2.9c-0.1,29.3-0.1,58.6,0,87.9c0,3.8-1.5,4.2-4.7,4.2
		C1750.1,276.9,1732.8,277,1715.5,277z"/>
	<path class="st8" d="M686.8,404.3c34.4,3.7,69,7.4,103.6,11c3.8,0.4,5.4,1.3,4.7,5.6c-1.4,9.2-2.3,18.5-3,27.8
		c-0.2,2.7-1.5,3.3-3.6,3.8C748,462.3,715,484,688.2,515.8c-4.2,5-10.4,0.9-15.4,0.3c-3.4-0.4-1-4.2-0.8-6.3
		c3.5-33.9,7.2-67.8,10.9-101.8C683.1,405.5,683.1,403.1,686.8,404.3z"/>
	<path class="st6" d="M395.9,718.1c9.9-1,19.7-2.4,29.6-3c4.4-0.3,4.6-2,4.2-5.6c-1.4-11.5-2.4-23-3.6-34.5
		c19.7,1.7,39.4,3.4,59.1,4.9c2.9,0.2,4.1,1,4.1,4.1c-0.1,23.2-0.2,46.3-0.1,69.5c0,2.5-0.8,3.8-3.2,4.8
		c-29.5,12.7-59,25.5-88.4,38.4c-4,1.8-4.6,0.7-4.5-3.3C394.1,768.3,395,743.2,395.9,718.1z"/>
	<path class="st5" d="M1715.4,1023.2c17.5,0,35,0.1,52.5-0.1c3.3,0,4.2,0.8,4.2,4.1c-0.1,28-0.1,56,0,84c0,3.4-0.8,3.7-3.8,2.8
		c-37.2-11.2-72.7-26.5-106.4-46c-2.1-1.2-3-2.6-2.9-5.1c0.1-12,0.2-24,0-36c-0.1-3.2,1.1-3.8,4-3.8
		C1680.4,1023.2,1697.9,1023.2,1715.4,1023.2z"/>
	<path class="st5" d="M197.6,223.9c-31.5-3.8-62.8-7.6-94.2-11.4c-8.4-1-16.8-2.2-25.3-3c-3-0.3-3.4-1.4-2.7-4.1
		c1.5-6,2.9-12,3.9-18c0.8-4.9,3.2-8.4,6.8-11.7c18.7-17.3,41.7-27.9,63-41.1c1.4-0.9,2.9-0.7,4.3-0.5c9.2,1.5,18.4,3.2,27.6,4.4
		c3.3,0.4,4.3,2,4.9,4.9c4.7,25.7,9.5,51.3,14.4,77C200.7,222.9,201.1,224.8,197.6,223.9z"/>
	<path class="st8" d="M152,778.5c-27.5-0.8-54.7-3.7-81.7-9.2c-3.3-0.7-3.5-1.6-2.6-4.5c6.4-21.7,12.6-43.4,18.7-65.1
		c0.9-3.3,2.1-4.2,5.5-3.4c32.1,7.3,64.2,14.5,96.3,21.5c3.5,0.8,4.3,1.7,3.2,5.2c-5.1,17-9.9,34.1-14.7,51.2
		c-0.8,2.9-1.8,4.5-5.3,4.4C165,778.3,158.5,778.6,152,778.5z"/>
	<path class="st9" d="M1290.8,589c0-17.3,0.1-34.6-0.1-52c0-3.8,1-4.7,4.7-4.6c17,0.2,34,0.2,51,0c3,0,4.2,0.8,5,3.9
		c7.8,34.4,11.7,69.2,12.2,104.4c0.1,4.2-1.4,4.9-5.1,4.9c-20.8-0.2-41.6-0.2-62.5,0c-4,0-5.4-0.8-5.3-5.1
		C1291,623.3,1290.8,606.2,1290.8,589z"/>
	<path class="st10" d="M1290.9,711.2c0-17.1,0.1-34.3-0.1-51.4c0-3.5,0.6-4.9,4.6-4.9c21.1,0.2,42.3,0.2,63.4,0c3.5,0,4.5,1,4.4,4.5
		c-0.9,35.5-5.6,70.5-14.1,105c-0.7,2.9-2,3.6-4.8,3.6c-16.1-0.1-32.3-0.2-48.4,0c-3.9,0-5.1-0.9-5-4.9
		C1291,745.9,1290.9,728.5,1290.9,711.2z"/>
	<path class="st2" d="M1526.7,466.2c0,17.2-0.1,34.3,0.1,51.5c0,3.6-0.6,5.3-4.9,5.3c-24.8-0.2-49.7-0.2-74.5,0
		c-3.8,0-5-0.7-3.9-4.8c9.7-36.5,23.3-71.5,40.9-104.9c1.5-2.9,3.2-4.1,6.6-4c10.3,0.2,20.7,0.2,31,0c3.9-0.1,4.8,1.3,4.7,4.9
		C1526.6,431.5,1526.6,448.9,1526.7,466.2z"/>
	<path class="st5" d="M1781.8,778.8c14.8,21.8,32,38.9,53.2,51.8c17,10.2,35.2,17.3,54.7,20.4c4.1,0.7,5.3,2.2,5.2,6.3
		c-0.4,9.5-0.3,19,0,28.5c0.1,3.7-0.6,5.1-4.8,5.1c-34.6-0.2-69.3-0.1-103.9-0.1c-2.4,0-4.4,0.3-4.4-3.4
		C1781.9,851.8,1781.8,816.2,1781.8,778.8z"/>
	<path class="st5" d="M1526.5,834.3c0,17.3-0.1,34.7,0.1,52c0,3.8-1.1,4.8-4.8,4.7c-10.2-0.2-20.3-0.2-30.5,0
		c-2.7,0-4.1-0.9-5.4-3.2c-18.2-33.6-32-69-41.9-105.9c-1-3.6,0.1-4,3.3-4c25,0.1,50,0.1,75,0c3.7,0,4.3,1.1,4.3,4.5
		C1526.4,799.6,1526.5,816.9,1526.5,834.3z"/>
	<path class="st3" d="M155.7,664c-0.9-0.9-1.7-1.8-2.4-2.6c-20.5-22.5-35.2-48.7-49.4-75.3c-1.1-2.1-0.7-3.2,1-4.6
		c14.4-12.3,28.8-24.7,43.1-37.2c2.2-1.9,3.3-1.1,4.8,0.6c19.5,22.3,39.1,44.5,58.7,66.8c1.7,1.9,1.9,2.9-0.2,4.7
		c-17.9,15.2-35.6,30.6-53.4,45.9C157.2,662.9,156.6,663.3,155.7,664z"/>
	<path class="st2" d="M1781.9,515.8c0-2.9,0-4.1,0-5.4c0-32,0.1-63.9-0.1-95.9c0-4.2,1.2-5.3,5.3-5.2c34.1,0.2,68.3,0.2,102.4,0
		c4.5,0,5.7,1.3,5.5,5.7c-0.3,7.8-0.2,15.6-0.1,23.5c0,2.4-0.6,3.5-3.1,4C1845.2,450.7,1809.5,475.7,1781.9,515.8z"/>
	<path class="st5" d="M1101.2,277c-17.5,0-35-0.1-52.5,0.1c-3.1,0-3.9-0.8-3.8-3.9c0.1-25.5,0.1-51,0-76.5c0-3.1,0.3-4.1,3.7-2.8
		c37.9,14.5,73.7,33,107.1,56c1.9,1.3,2.5,2.8,2.4,4.9c-0.2,7.2,2.6,16.6-1,20.8c-3.6,4.4-13.4,1.1-20.5,1.2
		C1124.9,277.2,1113.1,277,1101.2,277z"/>
	<path class="st3" d="M610.8,1023.2c17.1,0,34.3,0.1,51.4-0.1c3.5,0,4.9,0.6,4.9,4.5c-0.2,23.8-0.2,47.6,0,71.4
		c0,4.2-1.2,4.1-4.5,2.9c-36.4-13.5-71-30.8-103.6-51.9c-3.8-2.4-5.2-5-5.2-9.5c0.3-17.3,0.1-17.3,17.5-17.3
		C584.5,1023.2,597.7,1023.2,610.8,1023.2z"/>
	<path class="st2" d="M1101.7,1023.1c17.3,0,34.6,0.1,52-0.1c3.5,0,4.2,1,4.6,4.4c1.2,9.2-2.3,14.5-10.2,19.6
		c-30.9,20-63.2,36.9-97.3,50.6c-4.5,1.8-5.9,1.5-5.8-3.9c0.3-21.8,0.2-43.6,0-65.5c0-4,0.9-5.4,5.2-5.4
		C1067.4,1023.3,1084.5,1023.1,1101.7,1023.1z"/>
	<path class="st3" d="M2017.6,827.8c0,20.6,0,40.2,0,59.8c0,2.8-1.3,3.2-3.7,3.2c-35.3-0.1-70.6-0.1-105.9,0c-3,0-3.7-1.1-3.6-3.8
		c0.1-10.2,0.1-20.3,0-30.5c0-2.4,0.5-3.6,3.4-3.4C1946.6,856,1983.2,848.7,2017.6,827.8z"/>
	<path class="st5" d="M357.8,886.7c-37.7-2.9-74.9-10.3-111.3-22.2c-3.7-1.2-4.3-2.2-1.9-5.5c10.2-14.6,20.2-29.3,30-44.1
		c2-3.1,3.3-2.9,6.1-1c28.8,19.7,57.7,39.3,86.7,58.8c2.8,1.9,3.4,3.3,0.9,5.7C365.1,881.4,365.1,888.2,357.8,886.7z"/>
	<path class="st3" d="M1290.8,466.1c0-16.7-0.1-33.3,0.1-50c0-2-2-5.9,1.9-6c4-0.1,8.7-2.5,11.8,3.2c17.5,32.1,31.3,65.7,41.2,100.9
		c2.4,8.7,2.4,8.7-6.6,8.7c-14.3,0-28.7-0.2-43,0.1c-4.3,0.1-5.7-0.8-5.6-5.4C1291,500.4,1290.8,483.2,1290.8,466.1z"/>
	<path class="st5" d="M1961.3,409.5c17,0,34,0.1,50.9-0.1c4-0.1,5.4,0.8,5.4,5.1c-0.3,16-0.2,32-0.1,47.9c0,3.3-0.5,4.2-3.7,2.2
		c-32.1-19.9-67.4-26.4-104.6-24.4c-3.8,0.2-4.9-0.5-4.8-4.4c0.3-7.1,0.3-14.3,0-21.5c-0.2-3.9,0.9-5.1,4.9-5
		C1926.7,409.6,1944,409.5,1961.3,409.5z"/>
	<path class="st10" d="M2272.9,298.6c17.6,18.5,32.8,37.2,46.6,57.1c9,12.9,17.2,26.1,25.1,39.6c1.9,3.3,2.6,4.8-2.5,4.7
		c-21.7-0.2-43.3-0.1-65-0.1c-2.1,0-4.3,0.5-4.3-3C2272.9,364.7,2272.9,332.4,2272.9,298.6z"/>
	<path class="st3" d="M856,890.8c-17.2,0-34.3-0.1-51.5,0.1c-3.7,0-5.3-0.7-5.2-4.9c0.3-10.5,0.2-21,0.1-31.5c0-3.1,0.6-4.1,4-3.2
		c35.1,9.1,70.1,8.9,105-1c3.5-1,4.3-0.1,4.3,3.3c-0.2,11-0.2,22,0,33c0.1,3.7-1.4,4.3-4.7,4.3C890.6,890.8,873.3,890.8,856,890.8z"
		/>
	<path class="st8" d="M2250.8,277c-33.5,0-65.6,0-97.6,0c-2.3,0-3.2-0.6-3.2-3c0.1-20.8,0.1-41.6,0-62.4c0-2.8,0.8-3,3.1-1.8
		C2188.4,227.5,2220.5,249.6,2250.8,277z"/>
	<path class="st5" d="M1290.8,835c0-17.5,0.1-35-0.1-52.5c0-3.5,0.5-4.9,4.5-4.8c15.1,0.3,30.3,0.2,45.5,0c3.4,0,4.6,0.2,3.4,4.2
		c-11.1,37.6-26.7,73.3-46.4,107.1c-1.2,2.1-2.5,4.1-5.3,3.3c-3-0.8-1.5-3.4-1.5-5C1290.8,869.9,1290.8,852.5,1290.8,835z"/>
	<path class="st5" d="M2272.8,993.2c0-9.6,0-18.7,0-27.7c0-20.3,0.1-40.6-0.1-60.9c0-3.5,0.9-4.5,4.4-4.4c21,0.2,41.9,0.1,62.9,0.1
		c2.6,0,4.8-0.5,2.4,3.4c-19.7,31.7-42.1,61.4-67.9,88.5C2274.3,992.3,2273.8,992.5,2272.8,993.2z"/>
	<path class="st6" d="M856.1,409.9c17,0,34,0.1,50.9-0.1c4.2-0.1,5.4,1.3,5.3,5.4c-0.3,8.6-0.2,17.3,0,26c0.1,3.4-0.9,3.8-4,2.9
		c-34.4-10.1-69-10.9-103.9-2.6c-3.7,0.9-4.8,0.2-4.7-3.6c0.2-7.7,0.2-15.3,0-23c-0.1-3.9,1-5.2,5-5.1
		C821.8,410,839,409.9,856.1,409.9z"/>
	<path class="st1" d="M2241.8,1023.2c-28.1,24.1-57.3,43.6-89,59.5c-2.7,1.4-2.9,0.3-2.9-2.1c0.1-18,0-35.9,0-53.9
		c0-1.9-0.2-3.6,2.7-3.5C2181.9,1023.2,2211.1,1023.2,2241.8,1023.2z"/>
	<path class="st5" d="M2335.4,409.5c-1.6,1.3-2.2,1.9-3,2.3c-18.6,10.9-37.3,21.8-55.9,32.8c-3,1.8-3.8,1.6-3.7-2
		c0.2-9.8,0.2-19.6,0-29.5c0-2.9,0.9-3.7,3.7-3.6C2295.6,409.5,2314.8,409.5,2335.4,409.5z"/>
	<path class="st5" d="M481.9,80.8c19.4-8.7,38.5-15.6,57.6-22.4c2.9-1,2.7,0.5,2.3,2.4c-2.2,11.2-4.4,22.4-6.5,33.7
		c-0.4,1.9-0.7,3.2-3,2.4C515.7,91.6,499.2,86.3,481.9,80.8z"/>
	<path class="st5" d="M2108.5,768c-9.1,0-18.3-0.1-27.4,0c-2.8,0-3.6-0.3-1.8-3.1c5.5-8.5,10.9-17.1,16-25.8c1.5-2.6,2.7-2.5,5-1.2
		c12.4,7.1,24.8,14.2,37.3,21c3.5,1.9,2.7,4.6,2.6,7.2c-0.2,3.4-3.1,1.7-4.7,1.7C2126.4,768.1,2117.5,768,2108.5,768z"/>
	<path class="st5" d="M1594.5,277c17.8-15,35.3-28.1,54.6-40.2c0,13.1,0,25.5,0,37.9c0,1.7-0.5,2.4-2.3,2.4
		C1629.9,277,1612.8,277,1594.5,277z"/>
	<path class="st5" d="M1526.5,348.4c0,18.2,0,34.6,0,51c0,2.1-1.2,2.4-2.9,2.4c-9.7,0-19.3-0.1-29,0c-2.5,0-3.4-0.4-1.9-3
		C1502.6,381.8,1513.4,365.5,1526.5,348.4z"/>
	<path class="st2" d="M1597.8,1023.1c16.8,0,32.1,0.1,47.4-0.1c3.1,0,4,1,4,4c-0.2,9.8-0.1,19.6-0.1,29.5c0,2,0.2,3.9-2.8,2
		C1629.8,1048,1614,1036.5,1597.8,1023.1z"/>
	<path class="st2" d="M1526.7,949.9c-12.4-15.9-22.4-31.1-31.8-46.8c-1.3-2.2-0.6-2.9,1.8-2.9c9,0,18,0,26.9,0c2,0,3.1,0.6,3.1,2.8
		C1526.6,918,1526.7,933,1526.7,949.9z"/>
	<path class="st5" d="M2126.3,532.5c-12.3,7.2-23.1,13.3-33.7,19.8c-2.7,1.6-3.1-0.2-4-1.7c-2.8-4.9-5.4-9.9-8.4-14.7
		c-2.1-3.3-0.5-3.4,2.2-3.4C2096.4,532.5,2110.4,532.5,2126.3,532.5z"/>
	<path class="st2" d="M311,211c-7,9.8-16.7,17.1-24.6,26c-1.3,1.5-2.4,0.6-3.4-0.2c-5.9-4.3-11.8-8.7-18.7-13.7
		C280.5,218.7,295.4,213.6,311,211L311,211z"/>
	<path class="st3" d="M1035.6,727.4c0,12.4,0,24.9,0,37.3c0,1.1,0.4,2.9-1,3c-6,0.2-12,0.3-17.9,0c-1.3-0.1-0.4-1.6,0.1-2.3
		C1023.9,753.2,1029.9,740.5,1035.6,727.4z"/>
	<path class="st2" d="M284,961c-13.5-6.9-25.7-15.8-39.5-24.1c10.6,0,20.1,0,29.6,0c1.2,0,1.9,0.6,2.2,1.6
		C278.8,946.1,282.8,953.1,284,961L284,961z"/>
	<path class="st5" d="M1035.5,568.6c-5.2-11.4-10-22.8-16.2-33.6c-1.2-2.1-0.4-2.6,1.7-2.5c0.2,0,0.3,0,0.5,0
		c14.1-0.8,14.1-0.8,14.1,13.2C1035.5,553.3,1035.5,560.9,1035.5,568.6z"/>
	<path class="st3" d="M1191.4,277c-3.9,0-6.2,0-8.5,0c-17,0-17,0-14.6-18.1c3.9,3,7.6,5.7,11.2,8.5
		C1183.2,270.3,1186.7,273.2,1191.4,277z"/>
	<path class="st5" d="M676.8,740.8c4.8,8.9,9,16.6,13.1,24.3c0.4,0.7,0.9,2.1,0.9,2.1c-3.7,1.7-7.7,0.3-11.5,0.8
		c-2,0.2-2.5-0.8-2.5-2.6C676.9,757.6,676.8,749.8,676.8,740.8z"/>
	<path class="st5" d="M522,1023.2c7.6,0,13.6,0.1,19.5,0c3.8-0.1,2.7,2.6,2.7,4.5c0,3.7-0.3,7.5-0.5,11.2c-3.8-1.1-6.3-4-9.3-6.2
		C530.5,1030,527,1027,522,1023.2z"/>
	<path class="st5" d="M676.8,551.5c0-6.4,0.1-11,0-15.6c-0.1-2.5,0.5-3.8,3.3-3.4c1.9,0.3,3.8,0.4,5.7,0.6c-0.7,1.6-1.4,3.2-2.2,4.8
		C681.5,542,679.5,546.1,676.8,551.5z"/>
	<path class="st5" d="M1180.8,1023.2c-4.5,3.4-7.7,5.9-10.9,8.2c-0.4,0.3-1.2,0.2-1.8,0.3c-0.1-2.1-0.2-4.3-0.2-6.4
		c-0.1-1.4,0.5-2.1,2-2.1C1173,1023.2,1176,1023.2,1180.8,1023.2z"/>
	<path class="st5" d="M1290.8,390c2.2,3.6,3.7,6,5,8.4c0.5,0.9,0.6,2.1,0.9,3.2c-1.3,0.1-2.6,0.1-4,0.2c-1.5,0.1-2-0.7-2-2.1
		C1290.9,397,1290.8,394.2,1290.8,390z"/>
	<path class="st5" d="M2017.2,166.1c-3.7-0.6-7.4-1.3-11.1-1.9C2009.8,164.8,2014.1,161.8,2017.2,166.1z"/>
	<path class="st2" d="M311,211c0.1-0.2,0.3-0.3,0.4-0.5c0,0.1,0,0.3-0.1,0.3C311.3,210.9,311.1,210.9,311,211
		C311,211,311,211,311,211z"/>
	<path class="st2" d="M284,961c0.2,0.1,0.3,0.2,0.5,0.3c-0.1,0-0.2,0-0.3,0C284.1,961.2,284.1,961.1,284,961
		C284,961,284,961,284,961z"/>
</g>
</svg>
