<?xml version="1.0" encoding="UTF-8" standalone="no"?>
<svg width="908px" height="197px" viewBox="0 0 908 197" version="1.1" xmlns="http://www.w3.org/2000/svg" xmlns:xlink="http://www.w3.org/1999/xlink">
    <!-- Generator: Sketch 3.8.2 (29753) - http://www.bohemiancoding.com/sketch -->
    <title>antoice</title>
    <desc>Created with Sketch.</desc>
    <defs></defs>
    <g id="Page-1" stroke="none" stroke-width="1" fill="none" fill-rule="evenodd">
        <g id="antoice">
            <path d="M227.6352,131.3029 L236.4112,106.5289 C239.1422,98.5319 241.8722,90.3399 243.2382,85.2679 C244.6052,90.3399 247.3352,98.5319 250.0672,106.5289 L258.8452,131.3029 L227.6352,131.3029 L227.6352,131.3029 Z M437.8472,152.0499 L437.8472,111.1769 L465.1212,111.1769 L462.2542,85.9959 L437.8472,85.9959 L437.8472,46.4759 L411.1172,59.8429 L411.1172,85.9959 L372.0462,85.9959 C367.9532,84.6019 363.3092,83.8649 358.0702,83.8649 C347.4152,83.8649 338.8922,87.9309 334.2442,92.7739 L334.2442,85.9959 L307.5092,85.9959 L307.5092,183.8299 L257.0872,51.1339 L230.5602,51.1339 L178.2872,187.6719 L207.5462,187.6719 L218.2742,157.2419 L268.2062,157.2419 L278.9322,187.6719 L307.5092,187.6719 L307.5092,187.6969 L334.2442,187.6969 L334.2442,132.0979 C334.2442,114.4689 340.6382,109.0449 351.6762,109.0449 C362.7162,109.0449 368.9192,114.4689 368.9192,132.6819 L368.9192,187.6969 L395.6522,187.6969 L395.6522,130.3539 C395.6522,122.8659 394.8502,116.1259 393.2162,110.2429 L394.0692,111.1769 L411.1172,111.1769 L411.1172,159.2209 C411.1172,177.0409 421.7702,189.8249 438.2382,189.8249 C446.5652,189.8249 454.5062,187.1129 458.9642,183.6249 L462.8372,156.5079 C456.2512,162.1249 452.5712,164.2569 447.7292,164.2569 C441.3362,164.2569 437.8472,161.7379 437.8472,152.0499 L437.8472,152.0499 Z" id="Fill-1" fill="#575756"></path>
            <g id="Group-5" transform="translate(0.000000, 47.171000)" fill="#B1CC35">
                <path d="M155.4487,56.1709 C155.5887,66.0249 152.0357,75.0129 146.4987,83.4709 C140.4237,92.7529 137.6737,115.8369 150.3557,141.7929 C116.4147,136.0829 117.6527,108.6049 110.5147,110.8079 C101.9387,113.4579 90.8607,115.6689 81.0377,115.7959 C39.2267,116.3369 0.4497,89.3569 0.0037,58.1749 C-0.4413,26.9939 37.1317,1.2289 78.9407,0.6909 C120.7497,0.1509 155.0037,24.9889 155.4487,56.1709" id="Fill-3"></path>
            </g>
            <path d="M17.6611,21.1378 C17.7231,25.5918 14.8371,29.2438 11.2101,29.2898 C7.5841,29.3368 4.5961,25.7608 4.5301,21.3078 C4.4681,16.8528 7.3561,13.2028 10.9791,13.1548 C14.6081,13.1098 17.5971,16.6838 17.6611,21.1378" id="Fill-6" fill="#B1CC35"></path>
            <path d="M43.2329,30.025 C43.2959,34.479 40.4099,38.129 36.7829,38.176 C33.1569,38.224 30.1679,34.65 30.1019,30.194 C30.0399,25.742 32.9279,22.092 36.5539,22.045 C40.1799,21.997 43.1689,25.573 43.2329,30.025" id="Fill-8" fill="#B1CC35"></path>
            <path d="M78.9404,47.8619 C78.9404,47.8619 65.0614,0.4039 61.7874,0.0759 C50.8974,-0.9971 28.0654,9.6049 13.4094,17.9899 L16.8524,21.9799 C16.8524,21.9799 56.9254,4.5609 59.3094,6.2579 C62.5044,8.5349 72.9654,50.0669 72.9654,50.0669" id="Fill-10" fill="#B1CC35"></path>
            <path d="M95.9565,49.3722 C95.9565,49.3722 87.7335,11.4522 84.9725,11.8822 C82.2135,12.3082 58.4305,14.9792 40.1445,26.2512 C27.5775,33.9992 42.6575,29.9642 42.6575,29.9642 C42.6575,29.9642 79.0445,16.4882 82.3115,19.2052 C85.5775,21.9222 89.6755,50.6332 89.6755,50.6332" id="Fill-12" fill="#B1CC35"></path>
            <path d="M150.3452,191.631 C150.3452,194.139 119.7212,196.171 81.9452,196.171 C44.1682,196.171 13.5432,194.139 13.5432,191.631 C13.5432,189.123 44.1682,187.084 81.9452,187.084 C119.7212,187.084 150.3452,189.123 150.3452,191.631" id="Fill-14" fill="#1A171B"></path>
            <path d="M82.1123,81.3688 C82.2043,87.7898 76.7773,93.0638 69.9913,93.1538 C63.2113,93.2398 57.6403,88.1078 57.5463,81.6858 C57.4553,75.2648 62.8803,69.9868 69.6613,69.9008 C76.4463,69.8138 82.0213,74.9488 82.1123,81.3688" id="Fill-16" fill="#FEFEFE"></path>
            <path d="M82.1123,81.3688 C82.2043,87.7898 76.7773,93.0638 69.9913,93.1538 C63.2113,93.2398 57.6403,88.1078 57.5463,81.6858 C57.4553,75.2648 62.8803,69.9868 69.6613,69.9008 C76.4463,69.8138 82.0213,74.9488 82.1123,81.3688 L82.1123,81.3688 Z" id="Stroke-18" stroke="#B1CC35"></path>
            <path d="M78.6025,81.4132 C78.6655,85.9982 74.7895,89.7692 69.9445,89.8312 C65.1025,89.8932 61.1225,86.2252 61.0575,81.6402 C60.9915,77.0522 64.8645,73.2852 69.7085,73.2232 C74.5555,73.1612 78.5375,76.8272 78.6025,81.4132" id="Fill-20" fill="#B1CC35"></path>
            <path d="M78.6025,81.4132 C78.6655,85.9982 74.7895,89.7692 69.9445,89.8312 C65.1025,89.8932 61.1225,86.2252 61.0575,81.6402 C60.9915,77.0522 64.8645,73.2852 69.7085,73.2232 C74.5555,73.1612 78.5375,76.8272 78.6025,81.4132 L78.6025,81.4132 Z" id="Stroke-22" stroke="#FEFEFE"></path>
            <path d="M67.1274,83.7438 C67.1274,84.7598 66.2044,85.5838 65.0674,85.5838 C63.9294,85.5838 63.0064,84.7598 63.0064,83.7438 C63.0064,82.7268 63.9294,81.9028 65.0674,81.9028 C66.2044,81.9028 67.1274,82.7268 67.1274,83.7438" id="Fill-24" fill="#FEFEFE"></path>
            <path d="M67.1274,83.7438 C67.1274,84.7598 66.2044,85.5838 65.0674,85.5838 C63.9294,85.5838 63.0064,84.7598 63.0064,83.7438 C63.0064,82.7268 63.9294,81.9028 65.0674,81.9028 C66.2044,81.9028 67.1274,82.7268 67.1274,83.7438 L67.1274,83.7438 Z" id="Stroke-26" stroke="#B1CC35"></path>
            <polygon id="Fill-28" fill="#B0CB31" points="441.1435 49.1827 474.6545 49.1827 510.7305 146.3707 546.8045 49.1827 579.5275 49.1827 523.7405 188.1637 496.9315 188.1637"></polygon>
            <path d="M678.35,187.177 L708.317,187.177 L708.317,81.513 L678.35,81.513 L678.35,187.177 Z M677.562,69.883 L709.104,69.883 L709.104,43.27 L677.562,43.27 L677.562,69.883 Z" id="Fill-30" fill="#B0CB31"></path>
            <path d="M715.6684,134.9366 L715.6684,134.5436 C715.6684,104.3816 738.7344,79.5436 771.0634,79.5436 C787.2494,79.5436 800.8934,85.9186 809.8264,93.5056 C806.4864,96.8446 794.9164,116.9966 794.9164,116.9966 C788.2154,109.9006 781.5134,105.3666 770.8674,105.3666 C755.8864,105.3666 745.2394,118.5746 745.2394,134.1506 L745.2394,134.5436 C745.2394,150.7076 755.6874,163.7166 772.0514,163.7166 C782.1064,163.7166 789.0044,159.3796 796.2974,152.4796 C796.2974,152.4796 805.0574,170.2896 809.2124,174.9436 C799.9284,183.6546 788.6714,189.5436 770.6694,189.5436 C738.9324,189.5436 715.6684,165.0966 715.6684,134.9366" id="Fill-32" fill="#B0CB31"></path>
            <path d="M630.5102,134.9366 C630.5102,150.5096 620.2622,163.7166 603.1092,163.7166 C586.5482,163.7166 575.3152,150.1176 575.3152,134.5436 L575.3152,134.1506 C575.3152,118.5746 585.5652,105.3666 602.7152,105.3666 C619.2742,105.3666 630.5102,118.9706 630.5102,134.5436 L630.5102,134.9366 Z M613.7072,79.5436 C580.7862,79.5436 556.3422,104.1856 556.3422,134.5436 L556.3422,134.9366 C556.3422,165.2936 580.5902,189.5436 613.3142,189.5436 C646.2362,189.5436 670.6772,164.9006 670.6772,134.5436 L670.6772,134.1506 C670.6772,103.7896 646.4302,79.5436 613.7072,79.5436 L613.7072,79.5436 Z" id="Fill-33" fill="#B0CB31"></path>
            <path d="M823.5415,125.59 C825.9075,111.986 833.9905,103.115 846.4115,103.115 C859.0235,103.115 866.9105,112.184 868.6845,125.59 L823.5415,125.59 Z M907.2595,136.431 C907.2595,106.467 891.0935,79.066 855.8055,79.066 C825.0515,79.066 803.5645,103.903 803.5645,134.065 L803.5645,134.461 C803.5645,166.788 827.0245,189.064 858.7655,189.064 C877.8855,189.064 892.0785,181.574 901.9325,169.351 L884.7855,154.174 C876.5055,161.861 869.2115,165.014 859.1585,165.014 C845.7555,165.014 836.2895,157.918 833.3355,144.319 L906.8635,144.319 C907.0595,141.557 907.2595,138.797 907.2595,136.431 L907.2595,136.431 Z" id="Fill-34" fill="#B0CB31"></path>
        </g>
    </g>
</svg>