<?xml version="1.0" encoding="UTF-8"?> <svg xmlns="http://www.w3.org/2000/svg" xmlns:xlink="http://www.w3.org/1999/xlink" width="208px" height="76px" viewBox="0 0 208 76"> <!-- Generator: Sketch 47.1 (45422) - http://www.bohemiancoding.com/sketch --> <title>afilias</title> <desc>Created with Sketch.</desc> <defs></defs> <g id="Page-1" stroke="none" stroke-width="1" fill="none" fill-rule="evenodd"> <g id="afilias" fill-rule="nonzero"> <polyline id="path2844" fill="#000000" points="61.66124 74.6775 53.41499 74.6775 30.92624 21.825 8.24625 74.6775 0 74.6775 31.10624 4.39875 61.66124 74.6775"></polyline> <polygon id="path2846" fill="#000000" points="84.52124 74.48625 91.64249 74.48625 91.64249 32.6925 84.52124 32.6925"></polygon> <polygon id="path2848" fill="#000000" points="113.19749 74.48625 120.30749 74.48625 120.30749 32.6925 113.19749 32.6925"></polygon> <polygon id="path2850" fill="#000000" points="98.57249 74.48625 105.69375 74.48625 105.69375 0.8325 98.57249 0.8325"></polygon> <path d="M70.46999,74.48625 L63.33749,74.48625 L63.33749,39.07125 L59.41124,39.07125 L59.41124,32.6925 L63.33749,32.6925 L63.33749,13.2075 C63.33749,13.2075 62.92124,8.0775 66.10499,3.74625 C68.78249,0.09 72.42749,5.68434189e-14 75.56625,5.68434189e-14 C78.70499,5.68434189e-14 81.23625,0.8325 81.23625,0.8325 L81.23625,7.90875 C81.23625,7.90875 78.76125,7.02 76.55624,7.02 C74.35124,7.02 73.49625,7.14375 71.86499,8.7975 C70.43624,10.26 70.46999,13.2075 70.46999,13.2075 L70.46999,32.6925 L81.14624,32.6925 L81.14624,39.07125 L70.46999,39.07125 L70.46999,74.48625" id="path2854" fill="#000000"></path> <path d="M144.045,75.92625 C132.7725,75.92625 123.62624,65.9925 123.62624,53.7525 C123.62624,41.50125 132.7725,31.5675 144.045,31.5675 C149.68125,31.5675 154.78874,34.0425 158.47874,38.0475 L158.47874,32.6925 L165.6,32.6925 L165.6,74.80125 L158.47874,74.80125 L158.47874,69.44625 C154.78874,73.45125 149.68125,75.92625 144.045,75.92625 M144.98999,38.07 C137.19374,38.07 130.87124,45.1125 130.87124,53.80875 C130.87124,62.505 137.19374,69.5475 144.98999,69.5475 C152.78625,69.5475 159.10874,62.505 159.10874,53.80875 C159.10874,45.1125 152.78625,38.07 144.98999,38.07" id="path2858" fill="#000000"></path> <path d="M183.90375,75.70125 C177.72749,75.70125 171.07874,71.40375 168.8175,65.475 L175.80375,62.325 C177.525,65.475 179.99999,68.5125 183.90375,68.5125 C187.35749,68.5125 190.34999,66.1725 190.34999,62.58375 C190.34999,60.33375 189.25874,59.25375 187.35749,57.99375 L179.36999,53.775 C174.645,51.255 171.20249,48.92625 171.20249,43.1775 C171.20249,36.34875 176.82749,30.96 183.72374,30.96 C188.89875,30.96 193.75874,34.70625 196.03124,39.285 L189.405,42.78375 C188.40375,40.725 185.62499,38.14875 183.27375,38.14875 C181.00124,38.14875 178.81875,39.9375 178.81875,42.2775 C178.81875,45.95625 183.72374,47.57625 188.70749,49.82625 C193.70249,52.065 198.51749,55.125 198.51749,61.77375 C198.51749,69.76125 191.80124,75.70125 183.90375,75.70125" id="path2862" fill="#000000"></path> <path d="M31.00499,70.695 C30.97624,70.695 30.94624,70.69375 30.91749,70.69375 L30.92374,70.22125 C30.95125,70.22125 30.97749,70.2225 31.00499,70.2225 C32.35999,70.2225 33.66624,70.0575 34.89624,69.7525 C34.87874,69.835 34.85999,69.91625 34.84124,69.9975 L35.06499,70.05 C33.78999,70.46875 32.42624,70.695 31.00499,70.695 M30.46749,70.68375 C29.25249,70.63375 28.07999,70.41875 26.97374,70.0575 L27.23625,69.9975 C27.21874,69.92125 27.20125,69.84375 27.18374,69.76625 C28.2325,70.0225 29.33499,70.17625 30.47374,70.2125 L30.46749,70.68375 M26.77249,69.99 C25.64874,69.60375 24.59499,69.0675 23.63749,68.40375 C24.57875,68.9175 25.60624,69.335 26.69749,69.64 C26.72124,69.7575 26.74624,69.87375 26.77249,69.99 M35.29874,69.97125 C35.325,69.85625 35.35124,69.74125 35.375,69.62625 C36.42124,69.33125 37.40749,68.9325 38.31374,68.445 C37.38999,69.0775 36.37875,69.59375 35.29874,69.97125 M31.00499,69.7725 C30.97999,69.7725 30.95499,69.77125 30.92999,69.77125 L30.96,67.67875 C31.00125,67.67875 31.04249,67.68 31.08374,67.68 C32.52999,67.68 33.92249,67.5175 35.22624,67.21625 C35.18749,67.90875 35.1125,68.595 34.99249,69.26375 C33.73875,69.59375 32.39874,69.7725 31.00499,69.7725 M30.47999,69.7625 C29.29999,69.725 28.1625,69.5575 27.08624,69.28 C26.9625,68.6 26.88125,67.90125 26.84124,67.19375 C28.00124,67.46875 29.2325,67.6325 30.50999,67.67125 L30.47999,69.7625 M26.60499,69.14625 C25.44999,68.805 24.3725,68.33375 23.40249,67.755 C23.25625,67.10125 23.16624,66.4525 23.125,65.81625 C24.11375,66.33875 25.20999,66.765 26.38375,67.0775 C26.4175,67.77625 26.48999,68.4675 26.60499,69.14625 M35.46874,69.13 C35.58124,68.46375 35.65,67.7875 35.68375,67.10375 C36.88249,66.7925 37.99999,66.3625 39.00749,65.83125 C38.96749,66.4375 38.88375,67.05375 38.74874,67.67625 C37.76124,68.28125 36.6575,68.77375 35.46874,69.13 M22.87749,67.42375 C22.02749,66.85875 21.27124,66.2075 20.63249,65.48625 L20.62999,65.4875 C20.37999,65.14875 20.14624,64.7975 19.93124,64.435 L19.99125,64.42875 C19.95749,64.0825 19.93499,63.73625 19.93499,63.40125 C20.45749,63.975 21.06624,64.50375 21.74624,64.98 C22.0375,65.18375 22.34374,65.37625 22.66,65.56 C22.68874,66.17375 22.75999,66.795 22.87749,67.42375 M39.27249,67.335 C39.37999,66.74125 39.44624,66.15625 39.4725,65.57625 C39.79874,65.3875 40.11125,65.18875 40.41,64.98 C41.07874,64.51125 41.67999,63.99125 42.19875,63.42875 C42.19749,63.71875 42.17874,64.015 42.15249,64.31375 C41.91124,64.73 41.64624,65.1325 41.35875,65.5175 C40.75875,66.18875 40.05749,66.79875 39.27249,67.335 M31.08374,67.23 C31.04499,67.23 31.00499,67.22875 30.96624,67.22875 L31.0125,63.99875 C31.1075,64 31.20249,64.00125 31.29749,64.00125 C32.62875,64.00125 33.9125,63.84875 35.12,63.56625 C35.20749,64.40625 35.25749,65.25375 35.25749,66.09375 C35.25749,66.3125 35.25375,66.53125 35.24624,66.75 C33.94249,67.06125 32.54249,67.23 31.08374,67.23 M30.51625,67.22125 C29.22374,67.1825 27.98374,67.01 26.81999,66.725 C26.81249,66.51125 26.80874,66.2975 26.80874,66.0825 C26.80874,65.20375 26.86375,64.3175 26.96124,63.43875 C28.09374,63.74375 29.30249,63.9325 30.56249,63.985 L30.51625,67.22125 M35.7,66.635 C35.70499,66.455 35.70749,66.27375 35.70749,66.09375 C35.70749,65.215 35.65374,64.33125 35.55999,63.45625 C36.71124,63.1525 37.78624,62.72875 38.75499,62.20375 C38.93499,63.0925 39.0375,64.0125 39.0375,64.9575 C39.0375,65.075 39.03499,65.1925 39.03249,65.31 C38.03249,65.86125 36.91124,66.31 35.7,66.635 M26.36499,66.6075 C25.17999,66.28125 24.08124,65.835 23.10124,65.29125 C23.09749,65.18 23.09624,65.06875 23.09624,64.9575 C23.09499,63.93 23.21499,62.93 23.42499,61.97 C24.35874,62.52125 25.40124,62.975 26.52499,63.31375 C26.42,64.23125 26.36,65.16 26.35875,66.0825 C26.35875,66.2575 26.36125,66.43375 26.36499,66.6075 M39.48625,65.04875 C39.4875,65.0175 39.4875,64.9875 39.4875,64.9575 C39.48625,63.92875 39.36875,62.93 39.16624,61.97125 C39.5175,61.765 39.85499,61.545 40.17374,61.3125 C40.71749,60.91625 41.21249,60.4825 41.65249,60.0175 C41.93625,60.885 42.12374,61.80375 42.17999,62.77 C41.62375,63.44125 40.94499,64.05875 40.1625,64.60875 C39.94499,64.76125 39.71999,64.9075 39.48625,65.04875 M22.64624,65.0275 C22.42624,64.8925 22.2125,64.75375 22.00499,64.60875 C21.20499,64.05 20.51625,63.42125 19.95499,62.73875 C20.0225,61.64375 20.25749,60.6125 20.60999,59.6475 C21.12749,60.25375 21.73624,60.8125 22.42124,61.3125 C22.61499,61.45375 22.81625,61.59 23.02124,61.7225 C22.78624,62.7575 22.6475,63.83875 22.64624,64.9575 C22.64624,64.98125 22.64624,65.00375 22.64624,65.0275 M19.49875,63.64 C19.19874,63.03875 18.94749,62.41125 18.7475,61.76125 C18.96499,62.15375 19.21999,62.53375 19.5075,62.8975 C19.5,63.06125 19.49625,63.22625 19.49625,63.39375 C19.49625,63.475 19.4975,63.5575 19.49875,63.64 M31.29749,63.55125 C31.20499,63.55125 31.11124,63.55 31.01875,63.54875 L31.07374,59.69125 C31.11499,59.69125 31.15499,59.6925 31.19624,59.6925 C32.30749,59.6925 33.37749,59.5675 34.38125,59.33625 C34.66874,60.54375 34.91249,61.82 35.06875,63.1175 C33.8825,63.3975 32.61499,63.55125 31.29749,63.55125 M30.56875,63.535 C29.32374,63.48125 28.12999,63.29125 27.01499,62.98625 C27.17749,61.7075 27.42374,60.45125 27.71249,59.2625 C28.62999,59.4975 29.60874,59.64125 30.62374,59.68125 L30.56875,63.535 M42.6375,63.39 C42.6375,63.235 42.63375,63.08125 42.62749,62.92875 C42.79374,62.72 42.94999,62.50625 43.09499,62.2875 C42.95999,62.66375 42.80749,63.03125 42.6375,63.39 M35.50874,63.00625 C35.34874,61.7075 35.10249,60.43375 34.81374,59.23 C35.75,58.98125 36.62125,58.63875 37.40374,58.22 C37.92249,59.3125 38.36499,60.4975 38.65749,61.75 C37.70874,62.27375 36.65,62.70125 35.50874,63.00625 M26.57999,62.86125 C25.46874,62.52125 24.44249,62.065 23.52999,61.51625 C23.83249,60.30375 24.27374,59.15875 24.785,58.10125 C25.53749,58.5275 26.37625,58.88 27.27999,59.14375 C26.99125,60.32875 26.74499,61.5825 26.57999,62.86125 M42.57875,62.25 C42.48374,61.33375 42.27874,60.46375 41.98999,59.64125 C42.525,59.0125 42.96124,58.3325 43.28125,57.6125 C43.4975,58.245 43.64999,58.92625 43.72249,59.66 C43.71499,59.715 43.70749,59.77 43.7,59.825 C43.49499,60.67875 43.1125,61.49375 42.57875,62.25 M19.55874,62.215 C18.99249,61.40375 18.60249,60.525 18.41749,59.60375 C18.51625,58.6575 18.74874,57.79875 19.07999,57.0175 C19.35124,57.8075 19.76125,58.55625 20.28874,59.24875 C19.92874,60.17375 19.67124,61.16375 19.55874,62.215 M39.06375,61.51625 C38.76125,60.265 38.31749,59.085 37.79874,57.9975 C38.01374,57.87125 38.22,57.73875 38.41874,57.6 C38.93125,57.24375 39.38999,56.84625 39.7875,56.415 C40.46374,57.35875 41.05624,58.40375 41.48374,59.5425 C41.02874,60.04875 40.50249,60.52125 39.91499,60.9525 C39.64374,61.15 39.35999,61.33875 39.06375,61.51625 M23.13249,61.265 C22.97874,61.16375 22.82749,61.06 22.67999,60.9525 C21.95125,60.41875 21.31749,59.82 20.795,59.1725 C21.23499,58.11125 21.81499,57.135 22.46499,56.25125 C22.89624,56.745 23.40874,57.1975 23.98499,57.6 C24.11875,57.6925 24.25499,57.7825 24.39499,57.87 C23.88625,58.92 23.44499,60.05875 23.13249,61.265 M31.19624,59.2425 C31.15749,59.2425 31.11875,59.24125 31.07999,59.24125 L31.13624,55.29375 C31.82749,55.29375 32.49249,55.22 33.11999,55.08375 C33.2125,55.34625 33.30749,55.61875 33.40124,55.90125 C33.70375,56.81625 34.00499,57.8275 34.27374,58.9 C33.30749,59.12125 32.2725,59.2425 31.19624,59.2425 M30.62999,59.23125 C29.64749,59.19125 28.70375,59.0525 27.82124,58.82625 C28.17499,57.43625 28.58124,56.15 28.96999,55.04375 C29.51499,55.17375 30.09124,55.25625 30.68625,55.28375 L30.62999,59.23125 M41.80999,59.15875 C41.36125,58.03375 40.76125,57.0025 40.085,56.0725 C40.56124,55.48875 40.92624,54.85125 41.15999,54.175 C41.92124,54.97375 42.57999,55.90875 43.04624,56.99875 C42.76625,57.76375 42.34874,58.48875 41.80999,59.15875 M34.70624,58.7925 C34.35374,57.3925 33.94749,56.095 33.55749,54.97625 C34.10374,54.8275 34.61625,54.63 35.085,54.38875 C35.24624,54.60625 35.41,54.83375 35.57249,55.06875 C36.13749,55.88625 36.70124,56.80875 37.20624,57.815 C36.45499,58.22 35.61375,58.55125 34.70624,58.7925 M20.48749,58.76625 C19.96624,58.03375 19.58374,57.2425 19.36499,56.41125 C19.84499,55.48 20.46999,54.6725 21.17249,53.97125 C21.37875,54.655 21.72124,55.30125 22.17499,55.895 C21.52874,56.7625 20.94375,57.72125 20.48749,58.76625 M27.38874,58.7075 C26.51374,58.45 25.70625,58.10875 24.98499,57.6975 C25.63374,56.4275 26.375,55.295 27.08624,54.34 C27.52999,54.5775 28.01625,54.775 28.53624,54.92875 C28.1475,56.035 27.74249,57.31875 27.38874,58.7075 M18.20375,58.25125 C18.20375,58.20625 18.20249,58.1625 18.20249,58.1175 C18.20249,56.9125 18.37625,55.74625 18.69874,54.6425 C18.69749,54.68 18.69749,54.71625 18.69749,54.75375 C18.69749,55.30375 18.76375,55.84125 18.88875,56.365 C18.60249,56.9475 18.36999,57.575 18.20375,58.25125 M43.81499,57.83 C43.72999,57.5425 43.63249,57.26375 43.52374,56.99375 C43.58999,56.7975 43.64874,56.59875 43.69749,56.39875 C43.76375,56.8675 43.80374,57.345 43.81499,57.83 M37.6,57.59125 C36.94875,56.2975 36.20249,55.14375 35.48124,54.16875 C35.61375,54.09 35.74125,54.0075 35.86499,53.92125 C36.20249,53.6875 36.50625,53.42625 36.76999,53.1425 C37.03874,53.37625 37.31249,53.625 37.58624,53.8875 C38.24875,54.5275 38.91,55.25 39.51625,56.0475 C39.12875,56.47375 38.67499,56.87 38.15999,57.22875 C37.97999,57.355 37.79374,57.475 37.6,57.59125 M24.59749,57.46375 C24.47624,57.3875 24.35874,57.30875 24.24375,57.22875 C23.66374,56.825 23.15999,56.3725 22.74375,55.88375 C23.04624,55.495 23.35999,55.12625 23.68124,54.77625 C24.25999,54.14625 24.8575,53.57875 25.43624,53.08 C25.71374,53.3875 26.03874,53.67 26.40375,53.92125 C26.49749,53.9875 26.59374,54.05125 26.69375,54.1125 C25.98374,55.06875 25.24499,56.1975 24.59749,57.46375 M43.2425,56.365 C42.73499,55.335 42.06124,54.445 41.30499,53.68125 C41.40124,53.28375 41.45375,52.87625 41.45624,52.45875 C41.45499,52.3075 41.44749,52.15875 41.43374,52.01 C41.9375,52.4225 42.42874,52.8975 42.8975,53.44375 C43.11499,53.97125 43.29624,54.5175 43.43875,55.07875 C43.41624,55.51625 43.34999,55.94625 43.2425,56.365 M19.22499,55.74125 C19.17374,55.4175 19.1475,55.0875 19.1475,54.75375 C19.1475,54.285 19.19999,53.82125 19.29874,53.37125 C19.83874,52.75125 20.41,52.225 20.99249,51.7775 C20.96374,52.00125 20.94749,52.22875 20.94749,52.45875 C20.94749,52.8 20.98124,53.135 21.04624,53.4625 C20.36,54.12 19.73374,54.87625 19.22499,55.74125 M39.80874,55.7025 C39.20124,54.91375 38.54499,54.2025 37.88999,53.5725 C37.61,53.3025 37.32999,53.04625 37.05499,52.80625 C37.34249,52.4325 37.5625,52.0275 37.70124,51.5975 C37.93124,51.7225 38.16374,51.85625 38.39624,51.9975 C39.22624,52.4975 40.05624,53.09875 40.80749,53.82125 C40.60999,54.4875 40.27124,55.12 39.80874,55.7025 M22.45874,55.525 C22.02124,54.9325 21.70999,54.2925 21.54124,53.61875 C21.935,53.25875 22.34874,52.92875 22.76999,52.6275 C23.3575,52.20875 23.95999,51.8475 24.54749,51.53625 C24.67374,51.96125 24.87999,52.3625 25.15375,52.73375 C24.85124,52.995 24.54124,53.275 24.2325,53.5725 C23.62999,54.155 23.02499,54.8075 22.45874,55.525 M31.14249,54.84375 L31.19375,51.27625 C31.3225,51.27375 31.45124,51.26375 31.57625,51.24625 C31.65624,51.42375 31.84749,51.85 32.1075,52.47 C32.34874,53.045 32.6475,53.785 32.96624,54.655 C32.38874,54.77625 31.77749,54.8425 31.14249,54.84375 M30.69249,54.83375 C30.14624,54.8075 29.61999,54.73375 29.1225,54.61875 C29.42999,53.765 29.72124,53.035 29.95874,52.47 C30.23874,51.8225 30.43624,51.38625 30.51124,51.22375 C30.58749,51.2375 30.66499,51.24875 30.74375,51.2575 L30.69249,54.83375 M33.40624,54.55 C32.78874,52.83625 32.23625,51.60375 32.02749,51.15125 C32.07749,51.1375 32.12875,51.12125 32.17749,51.105 C32.22749,51.15 32.30124,51.21875 32.39999,51.31125 C32.59124,51.49125 32.86125,51.76125 33.1875,52.11 C33.64624,52.60125 34.21124,53.24875 34.80874,54.02375 C34.37875,54.23875 33.9075,54.41625 33.40624,54.55 M28.68624,54.505 C28.2125,54.36625 27.76749,54.18875 27.36124,53.97875 C28.36875,52.6725 29.28249,51.74375 29.73374,51.31125 C29.85249,51.2 29.93624,51.12375 29.9825,51.08125 C30.01125,51.09125 30.03999,51.10125 30.06875,51.11125 C29.87749,51.5225 29.31749,52.76125 28.68624,54.505 M35.20874,53.80625 C34.08124,52.335 33.05749,51.31875 32.6225,50.90875 C32.70624,50.8625 32.78624,50.81375 32.86125,50.76 C32.95374,50.6925 33.04124,50.61875 33.11999,50.53875 C33.17999,50.57375 33.25625,50.6175 33.34499,50.67 C33.60374,50.81625 33.96374,51.04125 34.40249,51.33375 C34.97624,51.72125 35.67999,52.22875 36.42499,52.85 C36.18875,53.10125 35.91499,53.33625 35.60624,53.55 C35.47874,53.63875 35.34624,53.725 35.20874,53.80625 M26.96374,53.755 C26.85624,53.68875 26.75249,53.62125 26.65124,53.55 C26.31875,53.32 26.02624,53.065 25.77749,52.79125 C27.05999,51.72875 28.20874,51.0075 28.78874,50.67 C28.9125,50.59625 29.00874,50.54 29.07249,50.5025 C29.1625,50.59625 29.26374,50.6825 29.37374,50.76 C29.42874,50.8 29.4875,50.83875 29.54749,50.87375 C29.13875,51.25625 28.10874,52.26875 26.96374,53.755 M40.92749,53.3175 C40.19999,52.64375 39.4125,52.07625 38.63249,51.60375 C38.35874,51.44 38.08499,51.28625 37.81375,51.14375 C37.84874,50.94875 37.86749,50.74875 37.86749,50.54625 C37.86749,50.35875 37.85124,50.17375 37.82249,49.9925 C38.82124,50.3425 39.89125,50.85875 40.93124,51.62 C40.98124,51.895 41.00625,52.175 41.00625,52.45875 L41.45624,52.45875 L41.00625,52.45875 C41.00625,52.74875 40.97999,53.035 40.92749,53.3175 M21.44124,53.1 C21.4125,52.88875 21.3975,52.675 21.3975,52.45875 C21.3975,52.09875 21.43874,51.74375 21.51749,51.3975 C22.50749,50.7225 23.51499,50.26 24.45375,49.94375 C24.41874,50.14 24.40124,50.34125 24.40124,50.54625 C24.40124,50.72625 24.41624,50.905 24.44375,51.07875 C24.1325,51.24 23.81749,51.41375 23.50125,51.60375 C22.80374,52.025 22.10124,52.52 21.44124,53.1 M36.71124,52.5125 C35.22999,51.26875 33.9175,50.47875 33.39999,50.1825 C33.44249,50.11125 33.47874,50.03625 33.51,49.95875 C33.55999,49.9725 33.61875,49.9875 33.68249,50.00625 C33.96374,50.085 34.36875,50.1975 34.85249,50.355 C35.53499,50.5875 36.39125,50.925 37.29499,51.385 C37.17874,51.78125 36.98125,52.16 36.71124,52.5125 M25.49499,52.445 C25.23999,52.09625 25.05499,51.72125 24.94749,51.33125 C26.44249,50.59 27.7875,50.18125 28.45125,50.00625 C28.55374,49.97625 28.63874,49.955 28.70624,49.93875 C28.73374,50.01 28.76625,50.0775 28.80374,50.14375 C28.34999,50.39875 27.02,51.1825 25.49499,52.445 M19.60374,52.395 C20.21249,51.22875 21.00125,50.1675 21.93375,49.245 L21.96499,49.3075 C21.57625,49.875 21.28874,50.485 21.11999,51.1275 C20.60499,51.49 20.09624,51.91 19.60374,52.395 M42.2825,52.1575 C41.97124,51.86875 41.65499,51.60375 41.335,51.36125 C41.2475,50.95625 41.11249,50.5625 40.935,50.18375 C41.44375,50.79625 41.89624,51.4575 42.2825,52.1575 M40.76375,50.95625 C39.72624,50.26375 38.67374,49.79375 37.69749,49.47625 C37.57,49.0825 37.37374,48.71 37.12124,48.36375 C37.8975,48.45125 38.75249,48.64875 39.65249,49.02 C40.16,49.6175 40.53874,50.2675 40.76375,50.95625 M37.39249,50.9275 C35.69875,50.09125 34.19999,49.6725 33.61124,49.5275 C33.61374,49.4925 33.61499,49.45625 33.61499,49.42125 L33.16499,49.42125 C33.16499,49.78125 32.96249,50.13 32.59124,50.4 C32.23124,50.65875 31.70249,50.83875 31.11749,50.83875 C30.53249,50.83875 30.00375,50.65875 29.63249,50.4 C29.26124,50.13 29.05874,49.78125 29.05874,49.42125 C29.05874,49.05 29.26124,48.7125 29.63249,48.4425 C30.00375,48.18375 30.53249,48.00375 31.11749,48.00375 C31.70249,48.00375 32.23124,48.18375 32.59124,48.4425 C32.96249,48.7125 33.16499,49.05 33.16499,49.42125 L33.61499,49.42125 C33.61499,49.3725 33.61124,49.32375 33.60624,49.27625 C33.64374,49.27625 33.68374,49.275 33.72749,49.275 C34.38374,49.275 35.73625,49.34625 37.32999,49.83125 C37.38749,50.065 37.41749,50.30375 37.41749,50.54625 L37.86749,50.54625 L37.41749,50.54625 C37.41749,50.675 37.40874,50.8025 37.39249,50.9275 M24.85874,50.87125 C24.84624,50.76375 24.83999,50.655 24.83999,50.54625 C24.83999,50.29 24.87374,50.0375 24.93749,49.79125 C26.47249,49.3425 27.76874,49.275 28.40624,49.275 C28.48875,49.275 28.55874,49.27625 28.61625,49.2775 C28.61249,49.325 28.60874,49.3725 28.60874,49.42125 C28.60874,49.45 28.60999,49.4775 28.61124,49.505 C28.10874,49.625 26.59624,50.02625 24.85874,50.87125 M21.71999,50.73125 C21.96124,50.09625 22.33374,49.49625 22.81749,48.94375 C23.64249,48.6225 24.42499,48.44625 25.1425,48.365 C24.89999,48.69625 24.71124,49.0525 24.58499,49.42875 C23.67624,49.7125 22.69624,50.1275 21.71999,50.73125 M37.15249,49.31125 C35.6375,48.89 34.36749,48.825 33.72749,48.825 C33.63249,48.825 33.55249,48.82625 33.48625,48.82875 C33.47374,48.79875 33.45874,48.76875 33.44375,48.74 C33.44875,48.73875 33.45249,48.73625 33.45749,48.735 C33.59249,48.69 33.78374,48.6225 34.04249,48.56625 C34.5375,48.43125 35.25749,48.3075 36.12374,48.3075 C36.2475,48.3075 36.37375,48.31 36.50249,48.31625 C36.77874,48.62625 36.99875,48.96 37.15249,49.31125 M25.12125,49.27375 C25.27499,48.93625 25.48874,48.615 25.75499,48.31625 C25.8875,48.31 26.01749,48.3075 26.14499,48.3075 C27.42499,48.3075 28.38125,48.57875 28.7875,48.72625 C28.76999,48.76125 28.75249,48.795 28.73625,48.83125 C28.65999,48.8275 28.54874,48.825 28.40624,48.825 C27.78624,48.825 26.575,48.88625 25.12125,49.27375 M33.17499,48.36125 C33.11999,48.3 33.05874,48.2425 32.99375,48.1875 L33.19875,48.02625 C33.37875,47.89125 33.64874,47.71125 33.98624,47.53125 C34.25499,47.38125 34.56374,47.23375 34.90249,47.11 C35.15249,47.23875 35.3875,47.38 35.60624,47.53125 C35.75625,47.635 35.89874,47.745 36.0325,47.85875 C34.535,47.8825 33.47874,48.24375 33.17499,48.36125 M29.06499,48.34875 C28.72624,48.22 27.67999,47.88 26.225,47.85875 C26.35875,47.745 26.50125,47.635 26.65124,47.53125 C26.8725,47.3775 27.11124,47.235 27.36374,47.105 C28.29375,47.44 29.00499,47.96 29.26124,48.1675 C29.19124,48.225 29.125,48.285 29.06499,48.34875 M38.92624,48.28125 C38.13499,48.04 37.38874,47.91875 36.70999,47.87625 C36.45999,47.61625 36.17749,47.37625 35.86499,47.16 C35.74875,47.07875 35.62999,47.00125 35.50625,46.9275 C35.83874,46.84875 36.18999,46.8 36.55124,46.8 L36.58249,46.80125 C37.23625,47.1125 37.86,47.47625 38.44499,47.88625 C38.61249,48.015 38.77374,48.14625 38.92624,48.28125 M23.54624,48.2225 C23.76375,48.0325 23.99749,47.85125 24.24375,47.6775 C24.71,47.35125 25.22374,47.0575 25.77875,46.80125 C26.11875,46.805 26.44874,46.85125 26.76249,46.925 C26.63875,47 26.51874,47.07875 26.40375,47.16 C26.08874,47.37625 25.80375,47.61625 25.55374,47.87625 C24.93374,47.915 24.25874,48.02 23.54624,48.2225 M32.63999,47.9425 C32.51625,47.8725 32.38499,47.81125 32.24625,47.75875 C32.28999,47.6425 32.35999,47.46 32.44499,47.25 C32.56,46.9875 32.71124,46.67625 32.87625,46.41 C33.39374,46.51375 33.88375,46.6625 34.33749,46.84875 C33.29874,47.30375 32.62749,47.90625 32.61375,47.91375 L32.63999,47.9425 M29.64999,47.90875 C29.59124,47.8575 28.92875,47.2825 27.92874,46.845 C28.41124,46.6475 28.93624,46.4925 29.49125,46.38875 C29.50875,46.41625 29.52624,46.445 29.5425,46.47375 C29.76749,46.85625 29.94749,47.295 30.06,47.57625 C30.08125,47.62625 30.09874,47.67125 30.1125,47.71125 C29.94874,47.765 29.79375,47.83125 29.64999,47.90875 M31.82124,47.63125 C31.66624,47.59625 31.50625,47.57375 31.34249,47.56125 L31.34249,46.24 C31.70249,46.24875 32.05375,46.27875 32.39499,46.3275 C32.33249,46.43875 32.275,46.55125 32.21999,46.665 C32.02749,47.065 31.8875,47.4425 31.82124,47.63125 M30.54999,47.6025 C30.45999,47.345 30.25625,46.80375 29.97624,46.31125 C30.27374,46.2725 30.57999,46.24875 30.89249,46.24125 L30.89249,47.56125 C30.77624,47.57 30.66124,47.58375 30.54999,47.6025 M34.93749,46.62125 C34.39624,46.36 33.79999,46.155 33.1625,46.015 C33.235,45.93375 33.30375,45.8725 33.36749,45.83125 C34.19499,45.96125 34.98124,46.1625 35.7125,46.42625 C35.44249,46.47375 35.18374,46.54125 34.93749,46.62125 M27.32999,46.61875 C27.1125,46.54875 26.88499,46.4875 26.6475,46.4425 C27.38624,46.1725 28.17999,45.96625 29.01499,45.83375 C29.07249,45.8725 29.135,45.92625 29.19749,45.99375 C28.52624,46.13375 27.8975,46.345 27.32999,46.61875 M32.65625,45.91875 C32.2325,45.85125 31.79374,45.81125 31.34249,45.80125 L31.34249,45.665 C31.83499,45.67 32.31749,45.7 32.78874,45.75375 C32.75999,45.78625 32.73124,45.82 32.70375,45.855 C32.68749,45.87625 32.67249,45.8975 32.65625,45.91875 M29.7125,45.9025 C29.70125,45.88625 29.68999,45.87 29.67749,45.855 C29.64999,45.82125 29.62124,45.7875 29.59374,45.755 C30.01749,45.70625 30.45124,45.67625 30.89249,45.6675 L30.89249,45.80125 C30.48999,45.81125 30.095,45.845 29.7125,45.9025" id="path2932" fill="#155DA1"></path> <path d="M30.91749,70.69375 C30.76625,70.6925 30.61625,70.68875 30.46749,70.68375 L30.47374,70.2125 C29.33499,70.17625 28.2325,70.0225 27.18374,69.76625 C27.20125,69.84375 27.21874,69.92125 27.23625,69.9975 L26.97374,70.0575 C26.90624,70.03625 26.83999,70.01375 26.77249,69.99 C26.74624,69.87375 26.72124,69.7575 26.69749,69.64 C25.60624,69.335 24.57875,68.9175 23.63749,68.40375 C23.03374,67.985 22.46874,67.5175 21.94875,67.005 C21.46999,66.535 21.02874,66.0275 20.62999,65.4875 L20.63249,65.48625 C21.27124,66.2075 22.02749,66.85875 22.87749,67.42375 C22.75999,66.795 22.68874,66.17375 22.66,65.56 C22.34374,65.37625 22.0375,65.18375 21.74624,64.98 C21.06624,64.50375 20.45749,63.975 19.93499,63.40125 C19.93499,63.73625 19.95749,64.0825 19.99125,64.42875 L19.93124,64.435 C19.77749,64.175 19.63374,63.91 19.49875,63.64 C19.4975,63.5575 19.49625,63.475 19.49625,63.39375 C19.49625,63.22625 19.5,63.06125 19.5075,62.8975 C19.21999,62.53375 18.96499,62.15375 18.7475,61.76125 C18.40624,60.64875 18.21749,59.47125 18.20375,58.25125 C18.36999,57.575 18.60249,56.9475 18.88875,56.365 C18.76375,55.84125 18.69749,55.30375 18.69749,54.75375 C18.69749,54.71625 18.69749,54.68 18.69874,54.6425 C18.92749,53.86 19.2325,53.1075 19.60374,52.395 C20.09624,51.91 20.60499,51.49 21.11999,51.1275 C21.28874,50.485 21.57625,49.875 21.96499,49.3075 L21.93375,49.245 C21.93875,49.24 21.94375,49.235 21.94875,49.23 C24.26625,46.9575 27.47249,45.55125 31.00499,45.55125 C33.00749,45.55125 34.89874,46 36.58249,46.80125 L36.55124,46.8 C36.18999,46.8 35.83874,46.84875 35.50625,46.9275 C35.62999,47.00125 35.74875,47.07875 35.86499,47.16 C36.17749,47.37625 36.45999,47.61625 36.70999,47.87625 C37.38874,47.91875 38.13499,48.04 38.92624,48.28125 C38.77374,48.14625 38.61249,48.015 38.44499,47.88625 C39.02124,48.29125 39.56124,48.74 40.06125,49.23 C40.36875,49.5325 40.65999,49.85125 40.935,50.18375 C41.11249,50.5625 41.2475,50.95625 41.335,51.36125 C41.65499,51.60375 41.97124,51.86875 42.2825,52.1575 C42.51125,52.57375 42.71624,53.0025 42.8975,53.44375 C42.42874,52.8975 41.9375,52.4225 41.43374,52.01 C41.44749,52.15875 41.45499,52.3075 41.45624,52.45875 L41.00625,52.45875 C41.00625,52.175 40.98124,51.895 40.93124,51.62 C39.89125,50.85875 38.82124,50.3425 37.82249,49.9925 C37.85124,50.17375 37.86749,50.35875 37.86749,50.54625 L37.41749,50.54625 C37.41749,50.30375 37.38749,50.065 37.32999,49.83125 C35.73625,49.34625 34.38374,49.275 33.72749,49.275 C33.68374,49.275 33.64374,49.27625 33.60624,49.27625 C33.61124,49.32375 33.61499,49.3725 33.61499,49.42125 L33.16499,49.42125 C33.16499,49.05 32.96249,48.7125 32.59124,48.4425 C32.23124,48.18375 31.70249,48.00375 31.11749,48.00375 C30.53249,48.00375 30.00375,48.18375 29.63249,48.4425 C29.26124,48.7125 29.05874,49.05 29.05874,49.42125 C29.05874,49.78125 29.26124,50.13 29.63249,50.4 C30.00375,50.65875 30.53249,50.83875 31.11749,50.83875 C31.70249,50.83875 32.23124,50.65875 32.59124,50.4 C32.96249,50.13 33.16499,49.78125 33.16499,49.42125 L33.61499,49.42125 C33.61499,49.45625 33.61374,49.4925 33.61124,49.5275 C34.19999,49.6725 35.69875,50.09125 37.39249,50.9275 C37.40874,50.8025 37.41749,50.675 37.41749,50.54625 L37.86749,50.54625 C37.86749,50.74875 37.84874,50.94875 37.81375,51.14375 C38.08499,51.28625 38.35874,51.44 38.63249,51.60375 C39.4125,52.07625 40.19999,52.64375 40.92749,53.3175 C40.97999,53.035 41.00625,52.74875 41.00625,52.45875 L41.45624,52.45875 C41.45375,52.87625 41.40124,53.28375 41.30499,53.68125 C42.06124,54.445 42.73499,55.335 43.2425,56.365 C43.34999,55.94625 43.41624,55.51625 43.43875,55.07875 C43.54874,55.51 43.63499,55.95 43.69749,56.39875 C43.64874,56.59875 43.58999,56.7975 43.52374,56.99375 C43.63249,57.26375 43.72999,57.5425 43.81499,57.83 C43.81749,57.925 43.81875,58.02125 43.81875,58.1175 L43.895,58.1175 L43.81875,58.1175 C43.81875,58.64 43.78499,59.155 43.72249,59.66 C43.64999,58.92625 43.4975,58.245 43.28125,57.6125 C42.96124,58.3325 42.525,59.0125 41.98999,59.64125 C42.27874,60.46375 42.48374,61.33375 42.57875,62.25 C43.1125,61.49375 43.49499,60.67875 43.7,59.825 C43.58249,60.67625 43.37749,61.5 43.09499,62.2875 C42.94999,62.50625 42.79374,62.72 42.62749,62.92875 C42.63375,63.08125 42.6375,63.235 42.6375,63.39 C42.48875,63.705 42.32624,64.01375 42.15249,64.31375 C42.17874,64.015 42.19749,63.71875 42.19875,63.42875 C41.67999,63.99125 41.07874,64.51125 40.41,64.98 C40.11125,65.18875 39.79874,65.3875 39.4725,65.57625 C39.44624,66.15625 39.37999,66.74125 39.27249,67.335 C40.05749,66.79875 40.75875,66.18875 41.35875,65.5175 C40.96499,66.04625 40.53124,66.54375 40.06125,67.005 C39.52374,67.535 38.93874,68.01625 38.31374,68.445 C37.40749,68.9325 36.42124,69.33125 35.375,69.62625 C35.35124,69.74125 35.325,69.85625 35.29874,69.97125 C35.22124,69.9975 35.1425,70.025 35.06499,70.05 L34.84124,69.9975 C34.85999,69.91625 34.87874,69.835 34.89624,69.7525 C33.66624,70.0575 32.35999,70.2225 31.00499,70.2225 C30.97749,70.2225 30.95125,70.22125 30.92374,70.22125 L30.91749,70.69375 M30.92999,69.77125 C30.95499,69.77125 30.97999,69.7725 31.00499,69.7725 C32.39874,69.7725 33.73875,69.59375 34.99249,69.26375 C35.1125,68.595 35.18749,67.90875 35.22624,67.21625 C33.92249,67.5175 32.52999,67.68 31.08374,67.68 C31.04249,67.68 31.00125,67.67875 30.96,67.67875 L30.92999,69.77125 M27.08624,69.28 C28.1625,69.5575 29.29999,69.725 30.47999,69.7625 L30.50999,67.67125 C29.2325,67.6325 28.00124,67.46875 26.84124,67.19375 C26.88125,67.90125 26.9625,68.6 27.08624,69.28 M23.40249,67.755 C24.3725,68.33375 25.44999,68.805 26.60499,69.14625 C26.48999,68.4675 26.4175,67.77625 26.38375,67.0775 C25.20999,66.765 24.11375,66.33875 23.125,65.81625 C23.16624,66.4525 23.25625,67.10125 23.40249,67.755 M35.68375,67.10375 C35.65,67.7875 35.58124,68.46375 35.46874,69.13 C36.6575,68.77375 37.76124,68.28125 38.74874,67.67625 C38.88375,67.05375 38.96749,66.4375 39.00749,65.83125 C37.99999,66.3625 36.88249,66.7925 35.68375,67.10375 M30.96624,67.22875 C31.00499,67.22875 31.04499,67.23 31.08374,67.23 C32.54249,67.23 33.94249,67.06125 35.24624,66.75 C35.25375,66.53125 35.25749,66.3125 35.25749,66.09375 C35.25749,65.25375 35.20749,64.40625 35.12,63.56625 C33.9125,63.84875 32.62875,64.00125 31.29749,64.00125 C31.20249,64.00125 31.1075,64 31.0125,63.99875 L30.96624,67.22875 M26.81999,66.725 C27.98374,67.01 29.22374,67.1825 30.51625,67.22125 L30.56249,63.985 C29.30249,63.9325 28.09374,63.74375 26.96124,63.43875 C26.86375,64.3175 26.80874,65.20375 26.80874,66.0825 C26.80874,66.2975 26.81249,66.51125 26.81999,66.725 M35.55999,63.45625 C35.65374,64.33125 35.70749,65.215 35.70749,66.09375 C35.70749,66.27375 35.70499,66.455 35.7,66.635 C36.91124,66.31 38.03249,65.86125 39.03249,65.31 C39.03499,65.1925 39.0375,65.075 39.0375,64.9575 C39.0375,64.0125 38.93499,63.0925 38.75499,62.20375 C37.78624,62.72875 36.71124,63.1525 35.55999,63.45625 M23.10124,65.29125 C24.08124,65.835 25.17999,66.28125 26.36499,66.6075 C26.36125,66.43375 26.35875,66.2575 26.35875,66.0825 C26.36,65.16 26.42,64.23125 26.52499,63.31375 C25.40124,62.975 24.35874,62.52125 23.42499,61.97 C23.21499,62.93 23.09499,63.93 23.09624,64.9575 C23.09624,65.06875 23.09749,65.18 23.10124,65.29125 M39.16624,61.97125 C39.36875,62.93 39.48625,63.92875 39.4875,64.9575 C39.4875,64.9875 39.4875,65.0175 39.48625,65.04875 C39.71999,64.9075 39.94499,64.76125 40.1625,64.60875 C40.94499,64.05875 41.62375,63.44125 42.17999,62.77 C42.12374,61.80375 41.93625,60.885 41.65249,60.0175 C41.21249,60.4825 40.71749,60.91625 40.17374,61.3125 C39.85499,61.545 39.5175,61.765 39.16624,61.97125 M19.95499,62.73875 C20.51625,63.42125 21.20499,64.05 22.00499,64.60875 C22.2125,64.75375 22.42624,64.8925 22.64624,65.0275 C22.64624,65.00375 22.64624,64.98125 22.64624,64.9575 C22.6475,63.83875 22.78624,62.7575 23.02124,61.7225 C22.81625,61.59 22.61499,61.45375 22.42124,61.3125 C21.73624,60.8125 21.12749,60.25375 20.60999,59.6475 C20.25749,60.6125 20.0225,61.64375 19.95499,62.73875 M31.01875,63.54875 C31.11124,63.55 31.20499,63.55125 31.29749,63.55125 C32.61499,63.55125 33.8825,63.3975 35.06875,63.1175 C34.91249,61.82 34.66874,60.54375 34.38125,59.33625 C33.37749,59.5675 32.30749,59.6925 31.19624,59.6925 C31.15499,59.6925 31.11499,59.69125 31.07374,59.69125 L31.01875,63.54875 M27.01499,62.98625 C28.12999,63.29125 29.32374,63.48125 30.56875,63.535 L30.62374,59.68125 C29.60874,59.64125 28.62999,59.4975 27.71249,59.2625 C27.42374,60.45125 27.17749,61.7075 27.01499,62.98625 M34.81374,59.23 C35.10249,60.43375 35.34874,61.7075 35.50874,63.00625 C36.65,62.70125 37.70874,62.27375 38.65749,61.75 C38.36499,60.4975 37.92249,59.3125 37.40374,58.22 C36.62125,58.63875 35.75,58.98125 34.81374,59.23 M23.52999,61.51625 C24.44249,62.065 25.46874,62.52125 26.57999,62.86125 C26.74499,61.5825 26.99125,60.32875 27.27999,59.14375 C26.37625,58.88 25.53749,58.5275 24.785,58.10125 C24.27374,59.15875 23.83249,60.30375 23.52999,61.51625 M18.41749,59.60375 C18.60249,60.525 18.99249,61.40375 19.55874,62.215 C19.67124,61.16375 19.92874,60.17375 20.28874,59.24875 C19.76125,58.55625 19.35124,57.8075 19.07999,57.0175 C18.74874,57.79875 18.51625,58.6575 18.41749,59.60375 M37.79874,57.9975 C38.31749,59.085 38.76125,60.265 39.06375,61.51625 C39.35999,61.33875 39.64374,61.15 39.91499,60.9525 C40.50249,60.52125 41.02874,60.04875 41.48374,59.5425 C41.05624,58.40375 40.46374,57.35875 39.7875,56.415 C39.38999,56.84625 38.93125,57.24375 38.41874,57.6 C38.22,57.73875 38.01374,57.87125 37.79874,57.9975 M20.795,59.1725 C21.31749,59.82 21.95125,60.41875 22.67999,60.9525 C22.82749,61.06 22.97874,61.16375 23.13249,61.265 C23.44499,60.05875 23.88625,58.92 24.39499,57.87 C24.25499,57.7825 24.11875,57.6925 23.98499,57.6 C23.40874,57.1975 22.89624,56.745 22.46499,56.25125 C21.81499,57.135 21.23499,58.11125 20.795,59.1725 M31.07999,59.24125 C31.11875,59.24125 31.15749,59.2425 31.19624,59.2425 C32.2725,59.2425 33.30749,59.12125 34.27374,58.9 C34.00499,57.8275 33.70375,56.81625 33.40124,55.90125 C33.30749,55.61875 33.2125,55.34625 33.11999,55.08375 C32.49249,55.22 31.82749,55.29375 31.13624,55.29375 L31.07999,59.24125 M27.82124,58.82625 C28.70375,59.0525 29.64749,59.19125 30.62999,59.23125 L30.68625,55.28375 C30.09124,55.25625 29.51499,55.17375 28.96999,55.04375 C28.58124,56.15 28.17499,57.43625 27.82124,58.82625 M40.085,56.0725 C40.76125,57.0025 41.36125,58.03375 41.80999,59.15875 C42.34874,58.48875 42.76625,57.76375 43.04624,56.99875 C42.57999,55.90875 41.92124,54.97375 41.15999,54.175 C40.92624,54.85125 40.56124,55.48875 40.085,56.0725 M33.55749,54.97625 C33.94749,56.095 34.35374,57.3925 34.70624,58.7925 C35.61375,58.55125 36.45499,58.22 37.20624,57.815 C36.70124,56.80875 36.13749,55.88625 35.57249,55.06875 C35.41,54.83375 35.24624,54.60625 35.085,54.38875 C34.61625,54.63 34.10374,54.8275 33.55749,54.97625 M19.36499,56.41125 C19.58374,57.2425 19.96624,58.03375 20.48749,58.76625 C20.94375,57.72125 21.52874,56.7625 22.17499,55.895 C21.72124,55.30125 21.37875,54.655 21.17249,53.97125 C20.46999,54.6725 19.84499,55.48 19.36499,56.41125 M24.98499,57.6975 C25.70625,58.10875 26.51374,58.45 27.38874,58.7075 C27.74249,57.31875 28.1475,56.035 28.53624,54.92875 C28.01625,54.775 27.52999,54.5775 27.08624,54.34 C26.375,55.295 25.63374,56.4275 24.98499,57.6975 M35.48124,54.16875 C36.20249,55.14375 36.94875,56.2975 37.6,57.59125 C37.79374,57.475 37.97999,57.355 38.15999,57.22875 C38.67499,56.87 39.12875,56.47375 39.51625,56.0475 C38.91,55.25 38.24875,54.5275 37.58624,53.8875 C37.31249,53.625 37.03874,53.37625 36.76999,53.1425 C36.50625,53.42625 36.20249,53.6875 35.86499,53.92125 C35.74125,54.0075 35.61375,54.09 35.48124,54.16875 M22.74375,55.88375 C23.15999,56.3725 23.66374,56.825 24.24375,57.22875 C24.35874,57.30875 24.47624,57.3875 24.59749,57.46375 C25.24499,56.1975 25.98374,55.06875 26.69375,54.1125 C26.59374,54.05125 26.49749,53.9875 26.40375,53.92125 C26.03874,53.67 25.71374,53.3875 25.43624,53.08 C24.8575,53.57875 24.25999,54.14625 23.68124,54.77625 C23.35999,55.12625 23.04624,55.495 22.74375,55.88375 M19.29874,53.37125 C19.19999,53.82125 19.1475,54.285 19.1475,54.75375 C19.1475,55.0875 19.17374,55.4175 19.22499,55.74125 C19.73374,54.87625 20.36,54.12 21.04624,53.4625 C20.98124,53.135 20.94749,52.8 20.94749,52.45875 C20.94749,52.22875 20.96374,52.00125 20.99249,51.7775 C20.41,52.225 19.83874,52.75125 19.29874,53.37125 M37.05499,52.80625 C37.32999,53.04625 37.61,53.3025 37.88999,53.5725 C38.54499,54.2025 39.20124,54.91375 39.80874,55.7025 C40.27124,55.12 40.60999,54.4875 40.80749,53.82125 C40.05624,53.09875 39.22624,52.4975 38.39624,51.9975 C38.16374,51.85625 37.93124,51.7225 37.70124,51.5975 C37.5625,52.0275 37.34249,52.4325 37.05499,52.80625 M21.54124,53.61875 C21.70999,54.2925 22.02124,54.9325 22.45874,55.525 C23.02499,54.8075 23.62999,54.155 24.2325,53.5725 C24.54124,53.275 24.85124,52.995 25.15375,52.73375 C24.87999,52.3625 24.67374,51.96125 24.54749,51.53625 C23.95999,51.8475 23.3575,52.20875 22.76999,52.6275 C22.34874,52.92875 21.935,53.25875 21.54124,53.61875 M31.19375,51.27625 L31.14249,54.84375 C31.77749,54.8425 32.38874,54.77625 32.96624,54.655 C32.6475,53.785 32.34874,53.045 32.1075,52.47 C31.84749,51.85 31.65624,51.42375 31.57625,51.24625 C31.45124,51.26375 31.3225,51.27375 31.19375,51.27625 M29.1225,54.61875 C29.61999,54.73375 30.14624,54.8075 30.69249,54.83375 L30.74375,51.2575 C30.66499,51.24875 30.58749,51.2375 30.51124,51.22375 C30.43624,51.38625 30.23874,51.8225 29.95874,52.47 C29.72124,53.035 29.42999,53.765 29.1225,54.61875 M32.02749,51.15125 C32.23625,51.60375 32.78874,52.83625 33.40624,54.55 C33.9075,54.41625 34.37875,54.23875 34.80874,54.02375 C34.21124,53.24875 33.64624,52.60125 33.1875,52.11 C32.86125,51.76125 32.59124,51.49125 32.39999,51.31125 C32.30124,51.21875 32.22749,51.15 32.17749,51.105 C32.12875,51.12125 32.07749,51.1375 32.02749,51.15125 M27.36124,53.97875 C27.76749,54.18875 28.2125,54.36625 28.68624,54.505 C29.31749,52.76125 29.87749,51.5225 30.06875,51.11125 C30.03999,51.10125 30.01125,51.09125 29.9825,51.08125 C29.93624,51.12375 29.85249,51.2 29.73374,51.31125 C29.28249,51.74375 28.36875,52.6725 27.36124,53.97875 M32.6225,50.90875 C33.05749,51.31875 34.08124,52.335 35.20874,53.80625 C35.34624,53.725 35.47874,53.63875 35.60624,53.55 C35.91499,53.33625 36.18875,53.10125 36.42499,52.85 C35.67999,52.22875 34.97624,51.72125 34.40249,51.33375 C33.96374,51.04125 33.60374,50.81625 33.34499,50.67 C33.25625,50.6175 33.17999,50.57375 33.11999,50.53875 C33.04124,50.61875 32.95374,50.6925 32.86125,50.76 C32.78624,50.81375 32.70624,50.8625 32.6225,50.90875 M25.77749,52.79125 C26.02624,53.065 26.31875,53.32 26.65124,53.55 C26.75249,53.62125 26.85624,53.68875 26.96374,53.755 C28.10874,52.26875 29.13875,51.25625 29.54749,50.87375 C29.4875,50.83875 29.42874,50.8 29.37374,50.76 C29.26374,50.6825 29.1625,50.59625 29.07249,50.5025 C29.00874,50.54 28.9125,50.59625 28.78874,50.67 C28.20874,51.0075 27.05999,51.72875 25.77749,52.79125 M21.51749,51.3975 C21.43874,51.74375 21.3975,52.09875 21.3975,52.45875 C21.3975,52.675 21.4125,52.88875 21.44124,53.1 C22.10124,52.52 22.80374,52.025 23.50125,51.60375 C23.81749,51.41375 24.1325,51.24 24.44375,51.07875 C24.41624,50.905 24.40124,50.72625 24.40124,50.54625 C24.40124,50.34125 24.41874,50.14 24.45375,49.94375 C23.51499,50.26 22.50749,50.7225 21.51749,51.3975 M33.39999,50.1825 C33.9175,50.47875 35.22999,51.26875 36.71124,52.5125 C36.98125,52.16 37.17874,51.78125 37.29499,51.385 C36.39125,50.925 35.53499,50.5875 34.85249,50.355 C34.36875,50.1975 33.96374,50.085 33.68249,50.00625 C33.61875,49.9875 33.55999,49.9725 33.51,49.95875 C33.47874,50.03625 33.44249,50.11125 33.39999,50.1825 M24.94749,51.33125 C25.05499,51.72125 25.23999,52.09625 25.49499,52.445 C27.02,51.1825 28.34999,50.39875 28.80374,50.14375 C28.76625,50.0775 28.73374,50.01 28.70624,49.93875 C28.63874,49.955 28.55374,49.97625 28.45125,50.00625 C27.7875,50.18125 26.44249,50.59 24.94749,51.33125 M37.69749,49.47625 C38.67374,49.79375 39.72624,50.26375 40.76375,50.95625 C40.53874,50.2675 40.16,49.6175 39.65249,49.02 C38.75249,48.64875 37.8975,48.45125 37.12124,48.36375 C37.37374,48.71 37.57,49.0825 37.69749,49.47625 M24.93749,49.79125 C24.87374,50.0375 24.83999,50.29 24.83999,50.54625 C24.83999,50.655 24.84624,50.76375 24.85874,50.87125 C26.59624,50.02625 28.10874,49.625 28.61124,49.505 C28.60999,49.4775 28.60874,49.45 28.60874,49.42125 C28.60874,49.3725 28.61249,49.325 28.61625,49.2775 C28.55874,49.27625 28.48875,49.275 28.40624,49.275 C27.76874,49.275 26.47249,49.3425 24.93749,49.79125 M22.81749,48.94375 C22.33374,49.49625 21.96124,50.09625 21.71999,50.73125 C22.69624,50.1275 23.67624,49.7125 24.58499,49.42875 C24.71124,49.0525 24.89999,48.69625 25.1425,48.365 C24.42499,48.44625 23.64249,48.6225 22.81749,48.94375 M33.72749,48.825 C34.36749,48.825 35.6375,48.89 37.15249,49.31125 C36.99875,48.96 36.77874,48.62625 36.50249,48.31625 C36.37375,48.31 36.2475,48.3075 36.12374,48.3075 C35.25749,48.3075 34.5375,48.43125 34.04249,48.56625 C33.78374,48.6225 33.59249,48.69 33.45749,48.735 C33.45249,48.73625 33.44875,48.73875 33.44375,48.74 C33.45874,48.76875 33.47374,48.79875 33.48625,48.82875 C33.55249,48.82625 33.63249,48.825 33.72749,48.825 M25.75499,48.31625 C25.48874,48.615 25.27499,48.93625 25.12125,49.27375 C26.575,48.88625 27.78624,48.825 28.40624,48.825 C28.54874,48.825 28.65999,48.8275 28.73625,48.83125 C28.75249,48.795 28.76999,48.76125 28.7875,48.72625 C28.38125,48.57875 27.42499,48.3075 26.14499,48.3075 C26.01749,48.3075 25.8875,48.31 25.75499,48.31625 M32.99375,48.1875 C33.05874,48.2425 33.11999,48.3 33.17499,48.36125 C33.47874,48.24375 34.535,47.8825 36.0325,47.85875 C35.89874,47.745 35.75625,47.635 35.60624,47.53125 C35.3875,47.38 35.15249,47.23875 34.90249,47.11 C34.56374,47.23375 34.25499,47.38125 33.98624,47.53125 C33.64874,47.71125 33.37875,47.89125 33.19875,48.02625 L32.99375,48.1875 M26.225,47.85875 C27.67999,47.88 28.72624,48.22 29.06499,48.34875 C29.125,48.285 29.19124,48.225 29.26124,48.1675 C29.00499,47.96 28.29375,47.44 27.36374,47.105 C27.11124,47.235 26.8725,47.3775 26.65124,47.53125 C26.50125,47.635 26.35875,47.745 26.225,47.85875 M25.77875,46.80125 C25.22374,47.0575 24.71,47.35125 24.24375,47.6775 C23.99749,47.85125 23.76375,48.0325 23.54624,48.2225 C24.25874,48.02 24.93374,47.915 25.55374,47.87625 C25.80375,47.61625 26.08874,47.37625 26.40375,47.16 C26.51874,47.07875 26.63875,47 26.76249,46.925 C26.44874,46.85125 26.11875,46.805 25.77875,46.80125 M32.24625,47.75875 C32.38499,47.81125 32.51625,47.8725 32.63999,47.9425 L32.61375,47.91375 C32.62749,47.90625 33.29874,47.30375 34.33749,46.84875 C33.88375,46.6625 33.39374,46.51375 32.87625,46.41 C32.71124,46.67625 32.56,46.9875 32.44499,47.25 C32.35999,47.46 32.28999,47.6425 32.24625,47.75875 M27.92874,46.845 C28.92875,47.2825 29.59124,47.8575 29.64999,47.90875 C29.79375,47.83125 29.94874,47.765 30.1125,47.71125 C30.09874,47.67125 30.08125,47.62625 30.06,47.57625 C29.94749,47.295 29.76749,46.85625 29.5425,46.47375 C29.52624,46.445 29.50875,46.41625 29.49125,46.38875 C28.93624,46.4925 28.41124,46.6475 27.92874,46.845 M31.34249,47.56125 C31.50625,47.57375 31.66624,47.59625 31.82124,47.63125 C31.8875,47.4425 32.02749,47.065 32.21999,46.665 C32.275,46.55125 32.33249,46.43875 32.39499,46.3275 C32.05375,46.27875 31.70249,46.24875 31.34249,46.24 L31.34249,47.56125 M29.97624,46.31125 C30.25625,46.80375 30.45999,47.345 30.54999,47.6025 C30.66124,47.58375 30.77624,47.57 30.89249,47.56125 L30.89249,46.24125 C30.57999,46.24875 30.27374,46.2725 29.97624,46.31125 M33.1625,46.015 C33.79999,46.155 34.39624,46.36 34.93749,46.62125 C35.18374,46.54125 35.44249,46.47375 35.7125,46.42625 C34.98124,46.1625 34.19499,45.96125 33.36749,45.83125 C33.30375,45.8725 33.235,45.93375 33.1625,46.015 M26.6475,46.4425 C26.88499,46.4875 27.1125,46.54875 27.32999,46.61875 C27.8975,46.345 28.52624,46.13375 29.19749,45.99375 C29.135,45.92625 29.07249,45.8725 29.01499,45.83375 C28.17999,45.96625 27.38624,46.1725 26.6475,46.4425 M31.34249,45.80125 C31.79374,45.81125 32.2325,45.85125 32.65625,45.91875 C32.67249,45.8975 32.68749,45.87625 32.70375,45.855 C32.73124,45.82 32.75999,45.78625 32.78874,45.75375 C32.31749,45.7 31.83499,45.67 31.34249,45.665 L31.34249,45.80125 M29.59374,45.755 C29.62124,45.7875 29.64999,45.82125 29.67749,45.855 C29.68999,45.87 29.70125,45.88625 29.7125,45.9025 C30.095,45.845 30.48999,45.81125 30.89249,45.80125 L30.89249,45.6675 C30.45124,45.67625 30.01749,45.70625 29.59374,45.755" id="path2944" fill="#FFFFFF"></path> <path d="M31.00499,71.06625 C27.37124,71.06625 24.075,69.615 21.68999,67.275 C19.30499,64.935 17.83124,61.695 17.83124,58.1175 C17.83124,54.55125 19.30499,51.31125 21.68999,48.97125 C24.075,46.62 27.37124,45.18 31.00499,45.18 C34.64999,45.18 37.94624,46.62 40.33124,48.97125 C42.71624,51.31125 44.18999,54.55125 44.18999,58.1175 L43.81875,58.1175 C43.81875,58.02125 43.81749,57.925 43.81499,57.83 C43.80374,57.345 43.76375,56.8675 43.69749,56.39875 C43.63499,55.95 43.54874,55.51 43.43875,55.07875 C43.29624,54.5175 43.11499,53.97125 42.8975,53.44375 C42.71624,53.0025 42.51125,52.57375 42.2825,52.1575 C41.89624,51.4575 41.44375,50.79625 40.935,50.18375 C40.65999,49.85125 40.36875,49.5325 40.06125,49.23 C39.56124,48.74 39.02124,48.29125 38.44499,47.88625 C37.86,47.47625 37.23625,47.1125 36.58249,46.80125 C34.89874,46 33.00749,45.55125 31.00499,45.55125 C27.47249,45.55125 24.26625,46.9575 21.94875,49.23 C21.94375,49.235 21.93875,49.24 21.93375,49.245 C21.00125,50.1675 20.21249,51.22875 19.60374,52.395 C19.2325,53.1075 18.92749,53.86 18.69874,54.6425 C18.37625,55.74625 18.20249,56.9125 18.20249,58.1175 C18.20249,58.1625 18.20375,58.20625 18.20375,58.25125 C18.21749,59.47125 18.40624,60.64875 18.7475,61.76125 C18.94749,62.41125 19.19874,63.03875 19.49875,63.64 C19.63374,63.91 19.77749,64.175 19.93124,64.435 C20.14624,64.7975 20.37999,65.14875 20.62999,65.4875 C21.02874,66.0275 21.46999,66.535 21.94875,67.005 C22.46874,67.5175 23.03374,67.985 23.63749,68.40375 C24.59499,69.0675 25.64874,69.60375 26.77249,69.99 C26.83999,70.01375 26.90624,70.03625 26.97374,70.0575 C28.07999,70.41875 29.25249,70.63375 30.46749,70.68375 C30.61625,70.68875 30.76625,70.6925 30.91749,70.69375 C30.94624,70.69375 30.97624,70.695 31.00499,70.695 C32.42624,70.695 33.78999,70.46875 35.06499,70.05 C35.1425,70.025 35.22124,69.9975 35.29874,69.97125 C36.37875,69.59375 37.38999,69.0775 38.31374,68.445 C38.93874,68.01625 39.52374,67.535 40.06125,67.005 C40.53124,66.54375 40.96499,66.04625 41.35875,65.5175 C41.64624,65.1325 41.91124,64.73 42.15249,64.31375 C42.32624,64.01375 42.48875,63.705 42.6375,63.39 C42.80749,63.03125 42.95999,62.66375 43.09499,62.2875 C43.37749,61.5 43.58249,60.67625 43.7,59.825 C43.70749,59.77 43.71499,59.715 43.72249,59.66 C43.78499,59.155 43.81875,58.64 43.81875,58.1175 L44.18999,58.1175 C44.18999,61.695 42.71624,64.935 40.33124,67.275 C37.94624,69.615 34.64999,71.06625 31.00499,71.06625" id="path2948" fill="#FFFFFF"></path> <path d="M200.91375,36.25875 C200.11499,36.25875 199.79999,36.01125 199.60874,35.8425 C199.24874,35.51625 199.16999,35.15625 199.16999,34.75125 L199.72124,34.75125 C199.72124,35.5275 200.35124,35.7525 200.9025,35.7525 C201.33,35.7525 202.0275,35.65125 202.0275,35.0325 C202.0275,34.5825 201.825,34.43625 201.11624,34.27875 L200.23874,34.065 C199.95749,33.9975 199.31624,33.80625 199.31624,33.0525 C199.31624,32.38875 199.75499,31.725 200.80125,31.725 C202.29749,31.725 202.455,32.625 202.47749,33.0975 L201.92625,33.0975 C201.90374,32.43375 201.35249,32.22 200.86875,32.22 C200.49749,32.22 199.87874,32.3325 199.87874,32.97375 C199.87874,33.345 200.13749,33.46875 200.38499,33.525 L201.62249,33.80625 C202.17375,33.94125 202.58999,34.27875 202.58999,34.95375 C202.58999,35.9775 201.64499,36.25875 200.91375,36.25875" id="path2952" fill="#000000"></path> <path d="M207.43875,36.14625 L206.86499,36.14625 L206.86499,33.60375 C206.86499,33.48 206.88749,32.92875 206.88749,32.535 L206.86499,32.535 L205.66125,36.14625 L205.0875,36.14625 L203.87249,32.535 L203.86125,32.535 C203.86125,32.92875 203.87249,33.48 203.87249,33.60375 L203.87249,36.14625 L203.30999,36.14625 L203.30999,31.8375 L204.14249,31.8375 L205.36874,35.47125 L205.37999,35.47125 L206.60624,31.8375 L207.43875,31.8375 L207.43875,36.14625" id="path2956" fill="#000000"></path> </g> </g> </svg> 