<?xml version="1.0" encoding="UTF-8" standalone="no"?>
<svg width="799px" height="192px" viewBox="0 0 799 192" version="1.1" xmlns="http://www.w3.org/2000/svg" xmlns:xlink="http://www.w3.org/1999/xlink">
    <!-- Generator: Sketch 3.8.2 (29753) - http://www.bohemiancoding.com/sketch -->
    <title>genymobile</title>
    <desc>Created with Sketch.</desc>
    <defs></defs>
    <g id="Page-1" stroke="none" stroke-width="1" fill="none" fill-rule="evenodd">
        <g id="genymobile" transform="translate(-1.000000, 0.000000)">
            <path d="M309.537783,119.869029 L309.537783,102.810267 L289.849759,102.810267 C287.844588,102.810267 286.193271,101.162267 286.193271,99.1611238 C286.193271,97.159981 287.844588,95.5217905 289.849759,95.5217905 L313.666076,95.5217905 C315.553295,95.5217905 317.322563,97.159981 317.322563,99.1611238 L317.322563,119.751314 C317.322563,121.163886 316.850759,122.341029 315.789198,123.635886 C310.127539,130.218076 301.870954,136.574648 287.608685,136.574648 C264.735978,136.574648 250.827563,124.342171 250.827563,95.3942667 C250.827563,67.5156 264.735978,54.105981 287.608685,54.105981 C298.814051,54.105981 308.594173,58.9322667 314.13788,66.5738857 C314.727637,67.3978857 314.963539,68.2218857 314.963539,69.0458857 C314.963539,71.1647429 313.312222,72.8127429 311.1891,72.8127429 C310.127539,72.8127429 309.065978,72.4596 308.122368,71.2824571 C304.112027,65.7498857 296.572978,61.3944571 287.608685,61.3944571 C269.454027,61.3944571 259.084149,72.3418857 259.084149,95.3942667 C259.084149,119.869029 269.454027,129.276362 287.608685,129.276362 C298.578149,129.276362 305.645393,124.695314 309.537783,119.869029" id="Fill-1" fill="#000000"></path>
            <path d="M352.257749,86.6892952 C342.005822,86.6892952 336.344163,93.2812952 335.636456,103.748057 L367.345676,103.748057 C367.345676,95.2726286 364.396895,86.6892952 352.257749,86.6892952 M352.257749,79.8716762 C371.120115,79.8716762 374.776602,94.811581 374.776602,102.806343 C374.776602,106.220057 374.776602,110.340057 370.058554,110.340057 L335.636456,110.340057 C335.636456,121.983962 342.349846,129.517676 353.437261,129.517676 C360.268602,129.517676 364.278944,126.927962 367.581578,124.455962 C368.289285,123.985105 368.76109,123.749676 369.7047,123.749676 C371.59192,123.749676 373.125285,125.279962 373.125285,127.16339 C373.125285,128.458248 372.535529,129.164533 371.827822,129.870819 C370.058554,131.636533 363.92509,136.45301 353.437261,136.45301 C337.749749,136.45301 327.969627,127.869676 327.969627,108.103486 C327.969627,89.9852952 336.92409,79.8716762 352.257749,79.8716762" id="Fill-3" fill="#000000"></path>
            <path d="M431.386307,100.690429 L431.386307,132.110333 C431.386307,134.219381 429.73499,135.867381 427.611868,135.867381 C425.488746,135.867381 423.837429,134.219381 423.837429,132.110333 L423.837429,102.220714 C423.837429,92.9212857 421.13438,86.5745238 409.693112,86.5745238 C398.025771,86.5745238 394.015429,93.637381 394.015429,103.044714 L394.015429,132.110333 C394.015429,134.219381 392.364112,135.867381 390.24099,135.867381 C388.117868,135.867381 386.47638,134.219381 386.47638,132.110333 L386.47638,84.3379524 C386.47638,82.2190952 388.117868,80.5710952 390.24099,80.5710952 C392.364112,80.5710952 394.015429,82.2190952 394.015429,84.3379524 L394.015429,88.1048095 C396.256502,83.6316667 402.036112,79.8648095 409.693112,79.8648095 C427.847771,79.8648095 431.386307,90.6945238 431.386307,100.690429" id="Fill-5" fill="#000000"></path>
            <path d="M576.5646,100.690429 L576.5646,132.110333 C576.5646,134.219381 574.913283,135.867381 572.790161,135.867381 C570.667039,135.867381 569.015722,134.219381 569.015722,132.110333 L569.015722,102.220714 C569.015722,92.9212857 565.713088,86.5745238 554.281649,86.5745238 C544.147673,86.5745238 539.547576,91.989381 539.547576,100.690429 L539.547576,132.110333 C539.547576,134.219381 537.896259,135.867381 535.773137,135.867381 C533.650015,135.867381 531.998698,134.219381 531.998698,132.110333 L531.998698,102.220714 C531.998698,92.9212857 529.059746,86.5745238 517.500527,86.5745238 C506.531063,86.5745238 503.002356,93.1567143 503.002356,103.044714 L503.002356,132.110333 C503.002356,134.219381 501.351039,135.867381 499.227917,135.867381 C497.104795,135.867381 495.463307,134.219381 495.463307,132.110333 L495.463307,84.3379524 C495.463307,82.2190952 497.104795,80.5710952 499.227917,80.5710952 C501.351039,80.5710952 503.002356,82.2190952 503.002356,84.3379524 L503.002356,88.1048095 C505.007527,83.749381 510.659356,79.8648095 518.326185,79.8648095 C527.998185,79.8648095 534.239771,83.3962381 537.0706,88.1048095 C540.01938,83.5139524 545.209234,79.8648095 554.281649,79.8648095 C572.436307,79.8648095 576.5646,90.6945238 576.5646,100.690429" id="Fill-7" fill="#000000"></path>
            <path d="M629.070585,108.104467 C629.070585,93.2822762 622.829,86.6902762 611.977488,86.6902762 C601.135805,86.6902762 594.88439,93.2822762 594.88439,108.104467 C594.88439,123.162086 601.135805,129.636371 611.977488,129.636371 C622.829,129.636371 629.070585,123.162086 629.070585,108.104467 M636.737415,108.104467 C636.737415,127.3998 627.301317,136.45399 611.977488,136.45399 C596.77161,136.45399 587.22739,127.3998 587.22739,108.104467 C587.22739,88.8091333 596.77161,79.8726571 611.977488,79.8726571 C627.301317,79.8726571 636.737415,88.8091333 636.737415,108.104467" id="Fill-9" fill="#000000"></path>
            <path d="M656.101073,113.282914 C656.101073,124.455962 662.58839,129.63539 671.660805,129.63539 C682.512317,129.63539 688.282098,122.807962 688.282098,108.103486 C688.282098,93.6344381 682.384537,86.6892952 671.660805,86.6892952 C660.58322,86.6892952 656.101073,97.0481524 656.101073,97.0481524 L656.101073,113.282914 Z M695.830976,108.103486 C695.830976,127.398819 686.866683,136.45301 671.660805,136.45301 C658.224195,136.45301 648.552195,128.81139 648.552195,113.282914 L648.552195,54.9260571 C648.552195,52.8072 650.203512,51.1592 652.326634,51.1592 C654.449756,51.1592 656.101073,52.8072 656.101073,54.9260571 L656.101073,87.5132952 C658.813951,83.7464381 664.583732,79.8716762 672.13261,79.8716762 C687.338488,79.8716762 695.830976,88.8081524 695.830976,108.103486 L695.830976,108.103486 Z" id="Fill-11" fill="#000000"></path>
            <path d="M715.071768,132.10641 C715.071768,134.225267 713.420451,135.873267 711.297329,135.873267 C709.174207,135.873267 707.52289,134.225267 707.52289,132.10641 L707.52289,84.3340286 C707.52289,82.224981 709.174207,80.576981 711.297329,80.576981 C713.420451,80.576981 715.071768,82.224981 715.071768,84.3340286 L715.071768,132.10641 Z M706.825012,65.0485048 C706.825012,61.6347905 708.4665,60.3399333 711.297329,60.3399333 C714.128159,60.3399333 715.779476,61.6347905 715.779476,65.0485048 C715.779476,67.8638381 714.128159,69.5118381 711.297329,69.5118381 C708.4665,69.5118381 706.825012,67.8638381 706.825012,65.0485048 L706.825012,65.0485048 Z" id="Fill-13" fill="#000000"></path>
            <path d="M737.955288,54.9240952 L737.955288,122.109524 C737.955288,126.808286 739.488654,128.809429 742.663507,128.809429 C744.550727,128.809429 746.202044,130.339714 746.202044,132.340857 C746.202044,134.342 744.550727,135.872286 742.663507,135.872286 C734.770605,135.872286 730.40641,131.163714 730.40641,122.109524 L730.40641,54.9240952 C730.40641,52.9229524 732.175678,51.1572381 734.180849,51.1572381 C736.303971,51.1572381 737.955288,52.9229524 737.955288,54.9240952" id="Fill-15" fill="#000000"></path>
            <g id="Group-19" transform="translate(752.024390, 79.035829)" fill="#000000">
                <path d="M24.9648878,7.65346667 C14.712961,7.65346667 9.05130244,14.2454667 8.34359512,24.7122286 L40.0528146,24.7122286 C40.0528146,16.2368 37.1040341,7.65346667 24.9648878,7.65346667 M24.9648878,0.835847619 C43.8272537,0.835847619 47.4837415,15.7757524 47.4837415,23.7705143 C47.4837415,27.1842286 47.4837415,31.3042286 42.7656927,31.3042286 L8.34359512,31.3042286 C8.34359512,42.9481333 15.0569854,50.4818476 26.1444,50.4818476 C32.9757415,50.4818476 36.9860829,47.8921333 40.2887171,45.4201333 C40.9964244,44.9492762 41.4682293,44.7138476 42.411839,44.7138476 C44.2990585,44.7138476 45.8324244,46.2441333 45.8324244,48.1275619 C45.8324244,49.422419 45.2426683,50.1287048 44.534961,50.8349905 C42.7656927,52.6007048 36.6322293,57.417181 26.1444,57.417181 C10.4568878,57.417181 0.676765854,48.8338476 0.676765854,29.0676571 C0.676765854,10.9494667 9.63122927,0.835847619 24.9648878,0.835847619" id="Fill-17"></path>
            </g>
            <path d="M483.757632,130.655581 C483.77729,130.037581 483.875583,129.507867 483.875583,128.860438 C483.875583,127.57539 483.826437,126.535581 483.757632,125.623295 L483.757632,83.6385333 C483.757632,81.5196762 482.116144,79.8716762 479.983193,79.8716762 C477.860071,79.8716762 476.208754,81.5196762 476.208754,83.6385333 L476.208754,112.694343 C476.208754,122.101676 472.208241,129.164533 460.5409,129.164533 C449.099632,129.164533 446.386754,122.817771 446.386754,113.518343 L446.386754,83.6385333 C446.386754,81.5196762 444.735437,79.8716762 442.612315,79.8716762 C440.499022,79.8716762 438.847705,81.5196762 438.847705,83.6385333 L438.847705,115.048629 C438.847705,125.044533 442.386241,135.874248 460.5409,135.874248 C468.1979,135.874248 473.97751,132.10739 476.208754,127.634248 L476.208754,131.126438 C476.198924,142.750724 469.485534,150.274629 458.417778,150.274629 C451.576607,150.274629 447.566266,147.684914 444.263632,145.212914 C443.555924,144.742057 443.093949,144.506629 442.14051,144.506629 C440.25329,144.506629 438.729754,146.036914 438.729754,147.920343 C438.729754,149.2152 439.31951,149.911676 440.027217,150.627771 C441.786656,152.383676 447.92012,157.209962 458.417778,157.209962 C473.259973,157.209962 482.715729,149.381962 483.688827,131.773867 C483.698656,131.646343 483.757632,131.538438 483.757632,131.401105 L483.757632,130.655581 Z" id="Fill-20" fill="#000000"></path>
            <g id="Group-24" transform="translate(0.000000, 0.369162)" fill="#82BE5D">
                <path d="M159.228612,82.7931048 C159.228612,97.5858667 147.1681,109.612343 132.355393,109.612343 L106.396295,109.612343 L106.396295,137.206533 L91.6523927,137.206533 L91.6523927,109.612343 L65.6932951,109.612343 C50.8805878,109.612343 38.8200756,97.5858667 38.8200756,82.7931048 L38.8200756,61.9969143 L53.563978,61.9969143 L53.563978,82.7931048 C53.563978,89.4733905 59.0093927,94.8980571 65.6932951,94.8980571 L132.355393,94.8980571 C139.039295,94.8980571 144.48471,89.4733905 144.48471,82.7931048 L144.48471,61.9969143 L159.228612,61.9969143 L159.228612,82.7931048 Z M96.5670268,0.436438095 C43.7838561,0.436438095 0.99705122,43.1372952 0.99705122,95.8144381 C0.99705122,148.491581 43.7838561,191.192438 96.5670268,191.192438 C149.350198,191.192438 192.137002,148.491581 192.137002,95.8144381 C192.137002,43.1372952 149.350198,0.436438095 96.5670268,0.436438095 L96.5670268,0.436438095 Z" id="Fill-22"></path>
            </g>
        </g>
    </g>
</svg>