<?xml version="1.0" encoding="UTF-8" standalone="no"?>
<svg width="243px" height="78px" viewBox="0 0 243 78" version="1.1" xmlns="http://www.w3.org/2000/svg" xmlns:xlink="http://www.w3.org/1999/xlink">
    <!-- Generator: Sketch 3.8.2 (29753) - http://www.bohemiancoding.com/sketch -->
    <title>Startingdot logo-sd-2014-1 (1)</title>
    <desc>Created with Sketch.</desc>
    <defs></defs>
    <g id="Page-1" stroke="none" stroke-width="1" fill="none" fill-rule="evenodd">
        <g id="Startingdot-logo-sd-2014-1-(1)">
            <g id="Layer_1">
                <path d="M94.5,23 C96.1,23 97.4,21.7 97.4,20.1 C97.4,18.5 96.1,17.2 94.5,17.2 C92.9,17.2 91.6,18.5 91.6,20.1 C91.6,21.7 92.9,23 94.5,23 L94.5,23 Z M82.4,22.6 C82.4,20.9 81.1,19.6 79.5,19.6 C77.9,19.6 76.6,20.9 76.6,22.5 L76.6,26.1 L75.4,26.1 C70.9,25.9 67.8,28.5 66.2,32.3 L66.2,29.4 C66.2,27.8 64.9,26.5 63.3,26.5 C61.7,26.5 60.4,27.8 60.4,29.4 L60.4,48.9 C60.4,50.5 61.7,51.8 63.3,51.8 C64.9,51.8 66.2,50.5 66.2,48.9 L66.2,42.1 C66.2,35.4 69.6,32 74.7,32 L76.5,32 L76.5,45 C76.5,50.6 79.5,52.5 83.8,52.5 C85.8,52.5 87.4,52.1 88.8,51.4 C89,51.3 89.1,51.1 89.1,50.9 L89.1,47.4 C89.1,47.1 88.8,46.8 88.5,46.8 L88.3,46.8 C87.4,47.1 86.5,47.3 85.5,47.3 C83.5,47.3 82.4,46.4 82.4,44.1 L82.4,30.8 L91.6,30.8 L91.6,49.1 C91.6,50.7 92.9,52 94.5,52 C96.1,52 97.4,50.7 97.4,49.2 L97.4,26.2 L82.4,26.2 L82.4,22.6 L82.4,22.6 Z M47.1,26.2 L29.2,26.2 L29.2,22.7 L29.2,22.6 C29.2,21 27.9,19.7 26.3,19.7 C24.7,19.7 23.4,21 23.4,22.6 L23.4,26.2 L11.5,26.2 C6.4,26.2 2.4,29.1 2.4,34 C2.4,38.9 6.6,40.4 10.3,41.5 C13.3,42.4 16,43.1 16,45.1 L16,45.2 C16,46.9 14.6,47.9 12.1,47.9 C9.5,47.9 6.5,46.8 3.8,44.8 C3.4,44.6 3,44.4 2.5,44.4 C1.2,44.4 0.1,45.5 0.1,46.8 C0.1,47.6 0.5,48.3 1.1,48.7 C4.3,51.2 8.3,52.5 11.9,52.5 C17.2,52.5 21.3,49.9 21.3,44.5 L21.3,44.4 C21.3,39.8 17.1,38.1 13.4,37 C10.4,36 7.7,35.3 7.7,33.4 L7.7,33.3 C7.7,31.8 9,30.7 11.3,30.7 C13.4,30.7 20.3,30.6 20.3,30.6 L23.2,30.6 L23.2,45 C23.2,50.6 26.2,52.5 30.5,52.5 C32.3,52.5 33.8,52.2 35.1,51.5 C35.3,51.4 35.5,51.2 35.5,50.9 C35.5,50.8 35.5,50.7 35.4,50.6 L33.7,47.8 C33.5,47.4 33.1,47.2 32.7,47.2 L32.2,47.2 C30.2,47.2 29.1,46.3 29.1,44 L29.1,30.7 L46.3,30.7 C50.3,30.7 52.6,33.3 52.6,36.8 L52.6,37.4 C50.6,36.8 48.7,36.3 45.6,36.3 C39.7,36.3 35.3,39 35.3,44.5 L35.3,44.6 C35.3,45.3 35.4,45.9 35.5,46.5 L35.9,47.7 C37.2,50.8 40.6,52.4 44.3,52.4 C48.2,52.4 50.8,50.8 52.5,48.7 L52.5,48.9 C52.5,50.5 53.8,51.8 55.4,51.8 C57,51.8 58.3,50.5 58.3,48.9 L58.3,37 C58.3,30.2 54.6,26.2 47.1,26.2 L47.1,26.2 Z M52.6,42.8 C52.6,46 49.7,48.1 45.9,48.1 C43.2,48.1 41,46.8 41,44.3 L41,44.2 C41,41.6 43.2,40.1 46.8,40.1 C49.1,40.1 51.1,40.5 52.6,41.1 L52.6,42.8 L52.6,42.8 Z M150.1,29.4 C150.1,27.8 148.8,26.5 147.2,26.5 C145.6,26.5 144.3,27.8 144.3,29.4 L144.3,30.4 C142.3,28 139.7,26.1 135.4,26.1 C130.1,26.1 125.1,29.6 124,35.8 C124,29.9 120.6,26.1 115,26.1 C111.1,26.1 108.7,28.2 107.1,30.6 L107.1,29.5 C107.1,27.9 105.8,26.6 104.2,26.6 C102.6,26.6 101.3,27.9 101.3,29.5 L101.3,49.2 C101.3,50.8 102.6,52.1 104.2,52.1 C105.8,52.1 107.1,50.8 107.1,49.3 L107.1,37.7 C107.1,33.8 109.5,31.4 112.8,31.4 C116.3,31.4 118.2,33.7 118.2,37.6 L118.2,49.1 C118.2,50.7 119.5,52 121.1,52 C122.7,52 124,50.7 124,49.1 L124,40.4 C125,46.5 130,50 135.4,50 C139.6,50 142.2,48.1 144.4,45.3 L144.4,47.3 C144.4,52.4 141.6,55.1 136.4,55.1 C133.8,55.1 131.5,54.5 129.4,53.5 C129.1,53.4 128.7,53.3 128.4,53.3 C127.1,53.3 126,54.4 126,55.7 C126,56.7 126.6,57.5 127.4,57.9 L127.5,57.9 C130.2,59.1 133.3,59.7 136.5,59.7 C145.3,59.7 150.2,55.7 150.2,46.7 L150.2,29.4 C150.1,29.5 150.1,29.5 150.1,29.4 C150.1,29.5 150.1,29.5 150.1,29.4 L150.1,29.4 Z M136.9,45.1 C132.9,45.1 129.7,42.3 129.7,38 C129.7,33.8 132.9,31 136.9,31 C140.9,31 144.4,33.8 144.4,38.1 C144.4,42.3 140.9,45.1 136.9,45.1 L136.9,45.1 Z" id="Shape" fill="#D10019"></path>
                <path d="M170.8,28.8 C165.5,28.8 161.2,32.7 161.2,39.3 L161.2,39.4 C161.2,45.9 165.7,50 170.8,50 C175.9,50 180.8,45.7 180.8,39.5 L180.8,39.4 C180.8,33 175.9,28.8 170.8,28.8 L170.8,28.8 Z M198.6,28.7 C192.8,28.7 188.6,33.5 188.6,39.2 L188.6,39.3 C188.6,45.2 193,49.9 198.7,49.9 C204.5,49.9 208.7,45.1 208.7,39.4 L208.7,39.3 C208.8,33.4 204.3,28.7 198.6,28.7 L198.6,28.7 Z" id="Shape" fill="#666666"></path>
                <path d="M191.9,0.7 C170.8,0.7 153.3,18 153.3,39.3 C153.3,60.6 170.6,77.9 191.9,77.9 C218,77.9 242.6,39.3 242.6,39.3 C242.6,39.3 218.1,0.7 191.9,0.7 L191.9,0.7 Z M183,51.6 L180.6,51.6 L180.6,46.1 C178.5,49.3 175.4,52.2 170.5,52.2 C164.6,52.2 158.6,47.4 158.6,39.4 L158.6,39.3 C158.6,31.3 164.6,26.4 170.5,26.4 C175.4,26.4 178.6,29.2 180.6,32.3 L180.6,16.5 L183,16.5 L183,51.6 L183,51.6 Z M211.3,39.3 C211.3,46.2 206,52.2 198.6,52.2 C191.3,52.2 186,46.3 186,39.4 L186,39.3 C186,32.4 191.3,26.4 198.7,26.4 C206,26.5 211.3,32.4 211.3,39.3 L211.3,39.3 Z M223.4,49.8 C224.6,49.8 225.6,49.6 227,48.9 L227,51.1 C225.7,51.7 224.5,52 223,52 C219.2,52 216.1,49.9 216.1,45.3 L216.1,29.2 L212.5,29.2 L212.5,27 L216.1,27 L216.1,19.1 L218.5,19.1 L218.5,27 L227.1,27 L227.1,29.2 L218.5,29.2 L218.5,45 C218.5,48.6 220.5,49.8 223.4,49.8 L223.4,49.8 Z" id="Shape" fill="#666666"></path>
            </g>
        </g>
    </g>
</svg>