<?xml version="1.0" encoding="UTF-8" standalone="no"?>
<svg width="852px" height="191px" viewBox="0 0 852 191" version="1.1" xmlns="http://www.w3.org/2000/svg" xmlns:xlink="http://www.w3.org/1999/xlink">
    <!-- Generator: Sketch 3.8.2 (29753) - http://www.bohemiancoding.com/sketch -->
    <title>talentio</title>
    <desc>Created with Sketch.</desc>
    <defs></defs>
    <g id="Page-1" stroke="none" stroke-width="1" fill="none" fill-rule="evenodd">
        <g id="talentio">
            <polygon id="Fill-1" fill="#7D8183" points="0 63.6077182 0 71.7195667 66.4530722 102.696067 66.4530722 94.5812939 6.4236701 67.9589909 66.4530722 40.7489152 66.4530722 32.6370667"></polygon>
            <g id="Group-43" transform="translate(127.000000, 0.214529)">
                <path d="M0.106395876,16.1962091 L8.6703134,16.1962091 L11.624499,28.7324364 L32.5936536,28.7324364 L32.5936536,39.7948455 L13.7647464,39.7948455 L13.7647464,84.2638 C13.7647464,91.489603 16.8887464,95.1039667 23.1426021,95.1039667 L32.5936536,95.1039667 L32.5936536,106.166376 L19.5969938,106.166376 C6.60326186,106.166376 0.106395876,99.209603 0.106395876,85.2960576 L0.106395876,16.1962091 L0.106395876,16.1962091 Z" id="Fill-2" fill="#191E2E"></path>
                <path d="M79.9783216,70.0303424 C68.114734,70.0303424 62.1829402,74.2120091 62.1829402,82.5665697 C62.1829402,90.9269788 66.8616206,95.102797 76.2131258,95.102797 C85.6612495,95.102797 93.6630227,92.5967212 100.209662,87.5816455 L100.209662,71.5041606 C93.4668577,70.5245394 86.7211258,70.0303424 79.9783216,70.0303424 M48.5245897,82.7888121 C48.5245897,66.9101758 59.009167,58.9679333 79.9783216,58.9679333 C86.7211258,58.9679333 93.4668577,59.4621303 100.209662,60.4446758 L100.209662,53.1428424 C100.209662,44.2443727 93.2414144,39.7966 79.3137031,39.7966 C71.3382804,39.7966 63.1666928,41.0247818 54.7989402,43.4811455 L54.7989402,32.4216606 C63.1666928,29.9623727 71.3382804,28.7341909 79.3137031,28.7341909 C102.349909,28.7341909 113.868012,36.7466152 113.868012,52.7743879 L113.868012,106.165206 L106.188301,106.165206 L101.465703,98.4949182 C93.7332907,103.609418 85.3186928,106.165206 76.2131258,106.165206 C57.7531258,106.165206 48.5245897,98.3750242 48.5245897,82.7888121" id="Fill-4" fill="#191E2E"></path>
                <polygon id="Fill-6" fill="#191E2E" points="139.026021 106.167545 152.684371 106.167545 152.684371 0.710590909 139.026021 0.710590909"></polygon>
                <path d="M187.810779,60.0010682 L229.749089,60.0010682 C229.456305,46.4325833 222.81012,39.6483409 209.816388,39.6483409 C196.03214,39.6483409 188.697913,46.4325833 187.810779,60.0010682 M209.816388,28.7321439 C231.865913,28.7321439 242.895068,39.6220227 242.895068,61.4047045 C242.895068,64.5014773 242.669625,67.8175682 242.227522,71.3588258 L187.810779,71.3588258 C187.810779,87.1906742 197.065666,95.1036742 215.572511,95.1036742 C224.385295,95.1036742 232.211398,94.1211288 239.053748,92.1531136 L239.053748,103.215523 C232.211398,105.183538 223.890491,106.166083 214.09981,106.166083 C187.465295,106.166083 174.152429,92.966053 174.152429,66.5659924 C174.152429,41.3444015 186.039439,28.7321439 209.816388,28.7321439" id="Fill-8" fill="#191E2E"></path>
                <path d="M263.545674,106.166668 L263.545674,28.7327288 L272.77421,28.7327288 L275.213097,38.6137439 C283.135819,32.02835 291.849056,28.7327288 301.34988,28.7327288 C320.697014,28.7327288 330.364726,38.3447136 330.364726,57.5686833 L330.364726,106.166668 L316.709303,106.166668 L316.709303,57.3464409 C316.709303,45.8424712 310.973674,40.0904864 299.505344,40.0904864 C291.676313,40.0904864 284.245468,43.3597894 277.206953,49.8983955 L277.206953,106.166668 L263.545674,106.166668 Z" id="Fill-9" fill="#191E2E"></path>
                <path d="M354.789019,16.1962091 L363.352936,16.1962091 L366.307122,28.7324364 L387.276276,28.7324364 L387.276276,39.7948455 L368.447369,39.7948455 L368.447369,84.2638 C368.447369,91.489603 371.571369,95.1039667 377.825225,95.1039667 L387.276276,95.1039667 L387.276276,106.166376 L374.279616,106.166376 C361.285885,106.166376 354.789019,99.209603 354.789019,85.2960576 L354.789019,16.1962091 Z" id="Fill-10" fill="#191E2E"></path>
                <polygon id="Fill-11" fill="#F8B02E" points="403.201649 106.167545 416.862928 106.167545 416.862928 92.5259545 403.201649 92.5259545"></polygon>
                <path d="M439.067629,106.167545 L452.728907,106.167545 L452.728907,28.7336061 L439.067629,28.7336061 L439.067629,106.167545 Z M439.067629,13.6152727 L452.728907,13.6152727 L452.728907,0.710590909 L439.067629,0.710590909 L439.067629,13.6152727 Z" id="Fill-12" fill="#F8B02E"></path>
                <path d="M511.848338,95.1036742 C527.35708,95.1036742 535.10706,85.7870379 535.10706,67.1537652 C535.10706,48.9152652 527.35708,39.794553 511.848338,39.794553 C496.342524,39.794553 488.592544,48.9152652 488.592544,67.1537652 C488.592544,85.7870379 496.342524,95.1036742 511.848338,95.1036742 M474.931266,67.4491136 C474.931266,41.63975 487.236957,28.7321439 511.848338,28.7321439 C536.45972,28.7321439 548.768338,41.63975 548.768338,67.4491136 C548.768338,93.2146136 536.45972,106.092977 511.848338,106.092977 C487.336503,106.092977 475.030812,93.2146136 474.931266,67.4491136" id="Fill-13" fill="#F8B02E"></path>
                <polygon id="Fill-14" fill="#7D8183" points="593.650586 106.166668 585.159864 106.166668 638.689472 0.709713636 647.180194 0.709713636"></polygon>
                <polygon id="Fill-15" fill="#7D8183" points="657.679703 102.479783 657.679703 94.3679348 717.709105 67.7456318 657.679703 40.5326318 657.679703 32.4207833 724.129847 63.3943591 724.129847 71.5062076"></polygon>
                <path d="M24.4812082,180.997447 C22.1711464,181.877644 19.6795588,182.31628 17.012301,182.31628 C6.63898144,182.31628 1.4567134,177.350917 1.4567134,167.417265 C1.4567134,158.021674 6.46038351,153.319492 16.4735794,153.319492 C19.3399299,153.319492 22.0101155,153.720114 24.4812082,154.518432 L24.4812082,157.720477 C22.0101155,156.787644 19.4746103,156.319765 16.8717649,156.319765 C9.06322887,156.319765 5.15749691,160.018932 5.15749691,167.417265 C5.15749691,175.350735 9.00467216,179.318932 16.693167,179.318932 C17.9199299,179.318932 19.2813732,179.158098 20.7745691,178.839356 L20.7745691,169.119174 L24.4812082,169.119174 L24.4812082,180.997447 Z" id="Fill-16" fill="#7D8183"></path>
                <path d="M31.2002969,182.116847 L31.2002969,161.117862 L33.700668,161.117862 L34.3623588,163.796468 C36.203967,162.01268 38.4203381,161.117862 41.0114722,161.117862 L41.0114722,164.200014 C38.4993897,164.200014 36.4645443,165.086059 34.9040082,166.85815 L34.9040082,182.116847 L31.2002969,182.116847 Z" id="Fill-17" fill="#7D8183"></path>
                <path d="M48.1067876,169.59758 L59.4814268,169.59758 C59.3994474,165.918883 57.595901,164.079535 54.0737155,164.079535 C50.3377979,164.079535 48.3468701,165.918883 48.1067876,169.59758 M54.0737155,161.117277 C60.0523546,161.117277 63.0446021,164.070762 63.0446021,169.977732 C63.0446021,170.816989 62.9831175,171.717656 62.8630763,172.679732 L48.1067876,172.679732 C48.1067876,176.969595 50.6159423,179.118914 55.6342515,179.118914 C58.0262928,179.118914 60.1460454,178.849883 62.0022928,178.314747 L62.0022928,181.317944 C60.1460454,181.850156 57.8916124,182.116262 55.236066,182.116262 C48.0130969,182.116262 44.4030763,178.539914 44.4030763,171.378444 C44.4030763,164.538641 47.6266227,161.117277 54.0737155,161.117277" id="Fill-18" fill="#7D8183"></path>
                <path d="M76.0412619,172.31888 C72.8235711,172.31888 71.2161897,173.453486 71.2161897,175.71685 C71.2161897,177.983138 72.4839423,179.117744 75.0194474,179.117744 C77.5813031,179.117744 79.7537567,178.436395 81.5250969,177.076623 L81.5250969,172.719502 C79.6981278,172.450471 77.8682309,172.31888 76.0412619,172.31888 M67.5124784,175.778259 C67.5124784,171.47085 70.3554062,169.318608 76.0412619,169.318608 C77.8682309,169.318608 79.6981278,169.453123 81.5250969,169.716305 L81.5250969,167.739517 C81.5250969,165.324092 79.6395711,164.119305 75.8626639,164.119305 C73.696066,164.119305 71.4796948,164.452668 69.2135505,165.119395 L69.2135505,162.119123 C71.4796948,161.452395 73.696066,161.119032 75.8626639,161.119032 C82.1077361,161.119032 85.2317361,163.291744 85.2317361,167.637168 L85.2317361,182.118017 L83.1500454,182.118017 L81.8676536,180.03888 C79.7713237,181.422047 77.4876124,182.118017 75.0194474,182.118017 C70.0128495,182.118017 67.5124784,180.003789 67.5124784,175.778259" id="Fill-19" fill="#7D8183"></path>
                <path d="M91.8012124,157.720477 L94.1229856,157.720477 L94.9222845,161.118447 L100.611068,161.118447 L100.611068,164.11872 L95.5049237,164.11872 L95.5049237,176.178295 C95.5049237,178.134614 96.3539959,179.117159 98.0492124,179.117159 L100.611068,179.117159 L100.611068,182.117432 L97.0859546,182.117432 C93.5637691,182.117432 91.8012124,180.228371 91.8012124,176.456098 L91.8012124,157.720477 Z" id="Fill-20" fill="#7D8183"></path>
                <path d="M121.072536,161.119909 L121.072536,180.516409 C121.072536,184.756561 120.036082,187.941061 117.966103,190.075758 L114.862598,187.976152 C116.531464,186.177742 117.365897,183.689212 117.365897,180.516409 L117.365897,161.119909 L121.072536,161.119909 Z" id="Fill-21" fill="#7D8183"></path>
                <path d="M137.008157,179.118329 C141.215456,179.118329 143.314713,176.591783 143.314713,171.538692 C143.314713,166.593798 141.215456,164.119889 137.008157,164.119889 C132.803786,164.119889 130.704528,166.593798 130.704528,171.538692 C130.704528,176.591783 132.803786,179.118329 137.008157,179.118329 M126.997889,171.620571 C126.997889,164.619935 130.335621,161.119617 137.008157,161.119617 C143.683621,161.119617 147.021353,164.619935 147.021353,171.620571 C147.021353,178.603662 143.683621,182.098132 137.008157,182.098132 C130.361971,182.098132 127.024239,178.603662 126.997889,171.620571" id="Fill-22" fill="#7D8183"></path>
                <path d="M156.442247,178.455988 C157.657299,178.844912 159.132928,179.037912 160.869134,179.037912 C165.541959,179.037912 167.875443,176.376852 167.875443,171.057655 C167.875443,166.566018 165.761546,164.3202 161.527897,164.3202 C159.607237,164.3202 157.912021,164.679882 156.442247,165.399245 L156.442247,178.455988 Z M152.738536,153.520973 L156.442247,153.520973 L156.442247,162.118245 C158.032062,161.454442 159.733134,161.118155 161.548392,161.118155 C168.197505,161.118155 171.520598,164.481033 171.520598,171.198018 C171.520598,178.476458 168.027691,182.117139 161.047732,182.117139 C158.032062,182.117139 155.26233,181.830564 152.738536,181.257412 L152.738536,153.520973 Z" id="Fill-23" fill="#7D8183"></path>
                <path d="M177.005897,181.117341 L177.005897,177.915295 C179.47699,178.719462 181.971505,179.117159 184.495299,179.117159 C187.844742,179.117159 189.519464,178.117068 189.519464,176.116886 C189.519464,174.25122 188.351258,173.318386 186.014845,173.318386 L183.013814,173.318386 C178.47567,173.318386 176.20367,171.250947 176.20367,167.118992 C176.20367,163.118629 179.122722,161.118447 184.954969,161.118447 C187.464124,161.118447 189.955711,161.451811 192.423876,162.118538 L192.423876,165.320583 C189.955711,164.519341 187.464124,164.121644 184.954969,164.121644 C181.456206,164.121644 179.711216,165.118811 179.711216,167.118992 C179.711216,168.987583 180.812082,169.917492 183.013814,169.917492 L186.014845,169.917492 C190.822351,169.917492 193.223175,171.984932 193.223175,176.116886 C193.223175,180.11725 190.315835,182.117432 184.495299,182.117432 C181.971505,182.117432 179.47699,181.784068 177.005897,181.117341" id="Fill-24" fill="#7D8183"></path>
                <path d="M209.881093,182.116847 L209.881093,160.100226 C209.881093,155.017892 212.76501,152.47965 218.529918,152.47965 C220.119732,152.47965 221.615856,152.745756 223.015361,153.280892 L223.015361,156.278241 C221.694907,155.746029 220.192928,155.479923 218.509423,155.479923 C215.22732,155.479923 213.587732,156.965438 213.587732,159.939392 L213.587732,161.117862 L220.093381,161.117862 L220.093381,164.121059 L213.587732,164.121059 L213.587732,182.116847 L209.881093,182.116847 Z" id="Fill-25" fill="#7D8183"></path>
                <path d="M233.100874,179.118329 C237.305245,179.118329 239.407431,176.591783 239.407431,171.538692 C239.407431,166.593798 237.305245,164.119889 233.100874,164.119889 C228.896503,164.119889 226.797245,166.593798 226.797245,171.538692 C226.797245,176.591783 228.896503,179.118329 233.100874,179.118329 M223.090606,171.620571 C223.090606,164.619935 226.428338,161.119617 233.100874,161.119617 C239.776338,161.119617 243.11407,164.619935 243.11407,171.620571 C243.11407,178.603662 239.776338,182.098132 233.100874,182.098132 C226.451761,182.098132 223.116957,178.603662 223.090606,171.620571" id="Fill-26" fill="#7D8183"></path>
                <path d="M248.832132,182.116847 L248.832132,161.117862 L251.335431,161.117862 L251.997122,163.796468 C253.83873,162.01268 256.055101,161.117862 258.646235,161.117862 L258.646235,164.200014 C256.134153,164.200014 254.099307,165.086059 252.538771,166.85815 L252.538771,182.116847 L248.832132,182.116847 Z" id="Fill-27" fill="#7D8183"></path>
                <path d="M288.054874,164.679882 C286.787122,164.361139 285.217802,164.200306 283.349843,164.200306 C278.876111,164.200306 276.642173,166.618655 276.642173,171.458276 C276.642173,176.432412 278.75607,178.918018 282.986792,178.918018 C284.913307,178.918018 286.59974,178.558336 288.054874,177.836048 L288.054874,164.679882 Z M291.761513,182.117139 C291.761513,187.181927 288.535039,189.717245 282.087946,189.717245 C279.49974,189.717245 277.204318,189.380958 275.198751,188.717155 L275.198751,185.713958 C277.245307,186.383609 279.552441,186.716973 282.128936,186.716973 C286.078586,186.716973 288.054874,185.18467 288.054874,182.117139 L288.054874,181.117048 C286.479699,181.783776 284.784482,182.117139 282.969225,182.117139 C276.320111,182.117139 272.997019,178.578806 272.997019,171.499215 C272.997019,164.580458 276.504565,161.118155 283.507946,161.118155 C286.353802,161.118155 289.103039,161.407655 291.761513,161.977882 L291.761513,182.117139 Z" id="Fill-28" fill="#7D8183"></path>
                <path d="M298.439612,182.116847 L298.439612,161.117862 L300.942911,161.117862 L301.601674,163.796468 C303.443282,162.01268 305.659654,161.117862 308.250788,161.117862 L308.250788,164.200014 C305.738705,164.200014 303.70386,165.086059 302.143324,166.85815 L302.143324,182.116847 L298.439612,182.116847 Z" id="Fill-29" fill="#7D8183"></path>
                <path d="M315.346103,169.59758 L326.714887,169.59758 C326.632907,165.918883 324.832289,164.079535 321.310103,164.079535 C317.574186,164.079535 315.586186,165.918883 315.346103,169.59758 M321.310103,161.117277 C327.29167,161.117277 330.283918,164.070762 330.283918,169.977732 C330.283918,170.816989 330.219505,171.717656 330.099464,172.679732 L315.346103,172.679732 C315.346103,176.969595 317.85233,179.118914 322.870639,179.118914 C325.26268,179.118914 327.382433,178.849883 329.241608,178.314747 L329.241608,181.317944 C327.382433,181.850156 325.130928,182.116262 322.472454,182.116262 C315.252412,182.116262 311.639464,178.539914 311.639464,171.378444 C311.639464,164.538641 314.86301,161.117277 321.310103,161.117277" id="Fill-30" fill="#7D8183"></path>
                <path d="M343.277649,172.31888 C340.059959,172.31888 338.455505,173.453486 338.455505,175.71685 C338.455505,177.983138 339.72033,179.117744 342.255835,179.117744 C344.820619,179.117744 346.990144,178.436395 348.764412,177.076623 L348.764412,172.719502 C346.937443,172.450471 345.107546,172.31888 343.277649,172.31888 M334.748866,175.778259 C334.748866,171.47085 337.594722,169.318608 343.277649,169.318608 C345.107546,169.318608 346.937443,169.453123 348.764412,169.716305 L348.764412,167.739517 C348.764412,165.324092 346.875959,164.119305 343.096124,164.119305 C340.935381,164.119305 338.71901,164.452668 336.452866,165.119395 L336.452866,162.119123 C338.71901,161.452395 340.935381,161.119032 343.096124,161.119032 C349.344124,161.119032 352.471052,163.291744 352.471052,167.637168 L352.471052,182.118017 L350.386433,182.118017 L349.104041,180.03888 C347.007711,181.422047 344.726928,182.118017 342.255835,182.118017 C337.252165,182.118017 334.748866,180.003789 334.748866,175.778259" id="Fill-31" fill="#7D8183"></path>
                <path d="M359.0376,157.720477 L361.362301,157.720477 L362.1616,161.118447 L367.850384,161.118447 L367.850384,164.11872 L362.744239,164.11872 L362.744239,176.178295 C362.744239,178.134614 363.590384,179.117159 365.2856,179.117159 L367.850384,179.117159 L367.850384,182.117432 L364.32527,182.117432 C360.803085,182.117432 359.0376,180.228371 359.0376,176.456098 L359.0376,157.720477 Z" id="Fill-32" fill="#7D8183"></path>
                <path d="M398.320363,165.399538 C396.824239,164.680174 395.117311,164.320492 393.196652,164.320492 C388.96593,164.320492 386.849105,166.566311 386.849105,171.057947 C386.849105,176.377144 388.96593,179.038205 393.196652,179.038205 C395.117311,179.038205 396.824239,178.777947 398.320363,178.254508 L398.320363,165.399538 Z M402.027002,180.857083 C399.476858,181.696341 396.332363,182.117432 392.596445,182.117432 C386.333806,182.117432 383.203951,178.47675 383.203951,171.195386 C383.203951,164.481326 386.529971,161.118447 393.176157,161.118447 C394.991414,161.118447 396.704198,161.451811 398.320363,162.118538 L398.320363,153.521265 L402.027002,153.521265 L402.027002,180.857083 Z" id="Fill-33" fill="#7D8183"></path>
                <path d="M411.447019,169.59758 L422.81873,169.59758 C422.739678,165.918883 420.936132,164.079535 417.413946,164.079535 C413.675101,164.079535 411.687101,165.918883 411.447019,169.59758 M417.413946,161.117277 C423.392586,161.117277 426.384833,164.070762 426.384833,169.977732 C426.384833,170.816989 426.323348,171.717656 426.203307,172.679732 L411.447019,172.679732 C411.447019,176.969595 413.956173,179.118914 418.974482,179.118914 C421.363596,179.118914 423.486276,178.849883 425.342524,178.314747 L425.342524,181.317944 C423.486276,181.850156 421.231843,182.116262 418.576297,182.116262 C411.353328,182.116262 407.740379,178.539914 407.740379,171.378444 C407.740379,164.538641 410.966854,161.117277 417.413946,161.117277" id="Fill-34" fill="#7D8183"></path>
                <polygon id="Fill-35" fill="#7D8183" points="429.079905 161.118739 433.085184 161.118739 439.110668 177.576376 445.098091 161.118739 449.103369 161.118739 440.554091 182.117724 437.108029 182.117724"></polygon>
                <path d="M455.281687,169.59758 L466.653398,169.59758 C466.571419,165.918883 464.7708,164.079535 461.248614,164.079535 C457.509769,164.079535 455.521769,165.918883 455.281687,169.59758 M461.248614,161.117277 C467.227254,161.117277 470.219501,164.070762 470.219501,169.977732 C470.219501,170.816989 470.158016,171.717656 470.037975,172.679732 L455.281687,172.679732 C455.281687,176.969595 457.787913,179.118914 462.809151,179.118914 C465.198264,179.118914 467.320944,178.849883 469.177192,178.314747 L469.177192,181.317944 C467.320944,181.850156 465.066511,182.116262 462.410965,182.116262 C455.187996,182.116262 451.575047,178.539914 451.575047,171.378444 C451.575047,164.538641 454.801522,161.117277 461.248614,161.117277" id="Fill-36" fill="#7D8183"></path>
                <polygon id="Fill-37" fill="#7D8183" points="476.054969 182.11597 479.761608 182.11597 479.761608 153.519803 476.054969 153.519803"></polygon>
                <path d="M495.636623,179.118329 C499.840994,179.118329 501.943179,176.591783 501.943179,171.538692 C501.943179,166.593798 499.840994,164.119889 495.636623,164.119889 C491.432252,164.119889 489.330066,166.593798 489.330066,171.538692 C489.330066,176.591783 491.432252,179.118329 495.636623,179.118329 M485.623427,171.620571 C485.623427,164.619935 488.961159,161.119617 495.636623,161.119617 C502.309159,161.119617 505.646891,164.619935 505.646891,171.620571 C505.646891,178.603662 502.309159,182.098132 495.636623,182.098132 C488.990437,182.098132 485.652705,178.603662 485.623427,171.620571" id="Fill-38" fill="#7D8183"></path>
                <path d="M515.070713,177.836048 C516.525847,178.558336 518.147868,178.918018 519.936775,178.918018 C524.299249,178.918018 526.483414,176.297897 526.483414,171.057655 C526.483414,166.484139 524.313889,164.200306 519.977765,164.200306 C518.106878,164.200306 516.473146,164.361139 515.070713,164.679882 L515.070713,177.836048 Z M511.364074,161.977882 C514.157229,161.407655 517.038219,161.118155 520.015827,161.118155 C526.755703,161.118155 530.128569,164.445942 530.128569,171.09567 C530.128569,178.444291 526.735208,182.117139 519.95727,182.117139 C518.273765,182.117139 516.645889,181.783776 515.070713,181.117048 L515.070713,189.714321 L511.364074,189.714321 L511.364074,161.977882 Z" id="Fill-39" fill="#7D8183"></path>
                <path d="M538.610507,169.59758 L549.982219,169.59758 C549.903167,165.918883 548.099621,164.079535 544.577435,164.079535 C540.83859,164.079535 538.85059,165.918883 538.610507,169.59758 M544.577435,161.117277 C550.556074,161.117277 553.548322,164.070762 553.548322,169.977732 C553.548322,170.816989 553.486837,171.717656 553.366796,172.679732 L538.610507,172.679732 C538.610507,176.969595 541.119662,179.118914 546.137971,179.118914 C548.527085,179.118914 550.649765,178.849883 552.506012,178.314747 L552.506012,181.317944 C550.649765,181.850156 548.395332,182.116262 545.739786,182.116262 C538.516816,182.116262 534.903868,178.539914 534.903868,171.378444 C534.903868,164.538641 538.130342,161.117277 544.577435,161.117277" id="Fill-40" fill="#7D8183"></path>
                <path d="M559.251159,182.116847 L559.251159,161.117862 L561.754458,161.117862 L562.416148,163.796468 C564.257757,162.01268 566.474128,161.117862 569.065262,161.117862 L569.065262,164.200014 C566.553179,164.200014 564.518334,165.086059 562.957798,166.85815 L562.957798,182.116847 L559.251159,182.116847 Z" id="Fill-41" fill="#7D8183"></path>
                <path d="M573.810404,181.117341 L573.810404,177.915295 C576.281497,178.719462 578.776012,179.117159 581.299806,179.117159 C584.649249,179.117159 586.323971,178.117068 586.323971,176.116886 C586.323971,174.25122 585.158693,173.318386 582.82228,173.318386 L579.818322,173.318386 C575.280177,173.318386 573.011105,171.250947 573.011105,167.118992 C573.011105,163.118629 575.927229,161.118447 581.759476,161.118447 C584.268631,161.118447 586.760219,161.451811 589.231311,162.118538 L589.231311,165.320583 C586.760219,164.519341 584.268631,164.121644 581.759476,164.121644 C578.260713,164.121644 576.515724,165.118811 576.515724,167.118992 C576.515724,168.987583 577.61659,169.917492 579.818322,169.917492 L582.82228,169.917492 C587.626858,169.917492 590.03061,171.984932 590.03061,176.116886 C590.03061,180.11725 587.120342,182.117432 581.299806,182.117432 C578.776012,182.117432 576.281497,181.784068 573.810404,181.117341" id="Fill-42" fill="#7D8183"></path>
            </g>
        </g>
    </g>
</svg>