<?xml version="1.0" encoding="UTF-8" standalone="no"?>
<svg width="750px" height="178px" viewBox="0 0 750 178" version="1.1" xmlns="http://www.w3.org/2000/svg" xmlns:xlink="http://www.w3.org/1999/xlink">
    <!-- Generator: Sketch 3.8.2 (29753) - http://www.bohemiancoding.com/sketch -->
    <title>VideoStitch_Logo ( Adobe Illustrator CS 4 Compatible )</title>
    <desc>Created with Sketch.</desc>
    <defs></defs>
    <g id="Page-1" stroke="none" stroke-width="1" fill="none" fill-rule="evenodd">
        <g id="VideoStitch_Logo-(-Adobe-Illustrator-CS-4-Compatible-)">
            <g id="sss">
                <g id="Stitch" transform="translate(535.000000, 41.000000)" fill="#00A0DE">
                    <path d="M64.8,48.3 C64.4,53.8 65.7,56.4 69.9,56.4 C71.9,56.4 72.8,56.3 74.1,56 L73.5,66.8 C71.7,67.5 68.2,68 64.2,68 C59.6,68 55.9,66.4 53.7,64.1 C51.2,61.4 50.2,57 50.6,50.5 L51.8,31.7 L45.7,31.7 L46.4,21.2 L52.5,21.2 L53,12.7 L67.2,8.9 L66.4,21.3 L76.6,21.3 L76,31.7 L65.8,31.7 L64.8,48.3 L64.8,48.3 Z M29.5,29.6 C21.4,26.5 18.1,24.7 18.3,20.7 C18.5,17.5 21.7,14.6 27.9,14.6 C34,14.6 38.5,16.4 40.8,17.6 L44.7,6.2 C41.1,4.4 36,3 28.8,3 C14,3 4.4,11.2 3.7,22 C3.1,31.2 9.7,37 20,40.8 C27.4,43.4 30.3,45.7 30,49.6 C29.7,53.7 26.1,56.5 19.5,56.5 C13.4,56.5 7.5,54.5 3.9,52.6 L0.2,64.3 C3.6,66.3 10.6,68.2 17.9,68.2 C35.3,68.2 43.9,59.2 44.6,48.6 C45.2,39.5 40.4,33.7 29.5,29.6 L29.5,29.6 Z M88.8,15.6 C93.6,15.6 96.7,12.4 97,8.5 C97.2,4.5 94.5,1.4 89.9,1.4 C85.3,1.4 82.1,4.5 81.8,8.5 C81.5,12.4 84.3,15.6 88.8,15.6 L88.8,15.6 Z M157.1,31.2 C160.9,31.2 163.3,31.9 165,32.6 L167.9,22 C165,20.9 160.9,20.2 157.1,20.2 C140,20.2 130.1,31.2 129.3,44.6 C128.4,59 137.3,68.1 152.1,68.1 C157.5,68.1 162.4,67.2 165,65.9 L164,55.4 C161.8,56.3 159.1,56.9 155.7,56.9 C148.8,56.9 143.4,52.4 144,44 C144.4,36.5 149.6,31.2 157.1,31.2 L157.1,31.2 Z M78.4,67.1 L92.7,67.1 L95.6,21.2 L81.3,21.2 L78.4,67.1 L78.4,67.1 Z M199.5,20.2 C196.9,20.2 194.2,20.9 192,22 C189.7,23.1 187.7,24.7 186.1,26.8 L185.9,26.8 L187.6,0.5 L173.3,0.5 L169,67.1 L183.3,67.1 L185,39.9 C185.1,38.9 185.2,37.6 185.7,36.8 C186.9,34.2 189.4,31.7 193.2,31.7 C198.5,31.7 200.3,35.8 200,41.8 L198.4,67 L212.7,67 L214.4,40.3 C215.1,26.5 208.6,20.2 199.5,20.2 L199.5,20.2 Z M118.5,31.7 L128.7,31.7 L129.4,21.2 L119.2,21.2 L120,8.8 L105.8,12.6 L105.3,21.1 L99,21.1 L98.3,31.6 L104.4,31.6 L103.2,50.4 C102.8,56.9 103.8,61.3 106.3,64 C108.5,66.3 112.2,67.9 116.8,67.9 C120.7,67.9 124.2,67.3 126.1,66.7 L126.7,55.9 C125.4,56.2 124.4,56.3 122.5,56.3 C118.3,56.3 117,53.8 117.4,48.2 L118.5,31.7 L118.5,31.7 Z" id="Shape"></path>
                </g>
                <path d="M327.3,108.1 L311.1,44.9 L326.8,44.9 L332.8,71.6 C334.5,79.2 336,86.3 337,94.2 L337.3,94.2 C339.4,86.6 341.8,79.1 344.5,71.9 L354.3,44.9 L369.5,44.9 L344,108.1 L327.3,108.1 L327.3,108.1 Z M367.8,108.1 L370.7,62.2 L385,62.2 L382.1,108.1 L367.8,108.1 L367.8,108.1 Z M386.3,49.4 C386.1,53.3 382.9,56.5 378.1,56.5 C373.6,56.5 370.9,53.3 371.1,49.4 C371.4,45.4 374.6,42.3 379.2,42.3 C383.9,42.3 386.5,45.4 386.3,49.4 L386.3,49.4 Z M438.1,41.4 L434.7,94.3 C434.4,99.5 434.2,104.9 434.2,108 L421.5,108 L421.4,101.3 L421.1,101.3 C418,106.4 412.2,109 406.3,109 C395.4,109 387.3,99.7 388.2,85.4 C389,70.1 399.3,61 410.3,61 C416,61 420.2,63.1 422.1,66.2 L422.3,66.2 L423.9,41.4 L438.1,41.4 L438.1,41.4 Z M421.2,81.6 C421.2,80.8 421.3,79.8 421.2,79 C420.6,75.2 417.7,72.1 413.3,72.1 C406.7,72.1 403.1,77.9 402.6,85.1 C402.1,92.9 405.6,97.8 411.5,97.8 C415.6,97.8 419.2,95 420.3,91 C420.6,90 420.7,88.8 420.8,87.7 L421.2,81.6 L421.2,81.6 Z M453.2,89.7 C453.2,95.6 458.9,98.4 465.6,98.4 C470.5,98.4 474.5,97.7 478.4,96.4 L479.7,106.1 C474.9,108.1 469.1,109 462.9,109 C447.3,109 439,100 439.9,85.6 C440.6,74 448.7,61.1 464.6,61.1 C479.4,61.1 484.3,72.6 483.6,84 C483.4,86.4 483,88.6 482.8,89.6 L453.2,89.6 L453.2,89.7 Z M470.6,79.9 C470.8,76.4 469.7,70.6 463.1,70.6 C457.1,70.6 454.3,76.1 453.7,79.9 L470.6,79.9 L470.6,79.9 Z M534.5,84.6 C533.4,101.4 521,109.1 508.7,109.1 C495.3,109.1 485.5,100.3 486.5,85.5 C487.5,70.6 497.8,61.1 512.6,61.1 C526.6,61 535.4,70.7 534.5,84.6 L534.5,84.6 Z M501.2,85.1 C500.7,93 503.6,98.9 509.7,98.9 C515.3,98.9 519.2,93.4 519.7,85 C520.1,78.2 517.9,71.3 511.5,71.3 C504.8,71.3 501.7,78.3 501.2,85.1 L501.2,85.1 Z" id="Video" fill="#3A383A"></path>
                <g id="Mark">
                    <path d="M126.1,31 L171.2,57 C177.8,60.8 177.8,67 171.2,70.8 L126.1,96.8 C119.5,100.6 114.2,97.5 114.2,89.9 L114.2,37.9 C114.1,30.3 119.5,27.2 126.1,31 L126.1,31 Z" id="Shape" fill="#3A383A"></path>
                    <g id="Group">
                        <path d="M223.1,14.5 L223.1,3.1 C200.2,6.8 173.1,9.7 143.8,9.7 C114,9.7 86.5,6.8 63.3,2.9 L63.3,14.5 C34.4,9.8 12.2,3.7 0.7,0.2 L0.7,150.5 C17.1,145.5 54.8,135.3 102.5,131.3 L102.5,120 C115.6,118.9 129.4,118.2 143.8,118.2 C157.8,118.2 171.3,118.9 184.1,119.9 L184.1,131.3 C231.9,135.3 269.5,145.5 285.9,150.5 L285.9,0.1 C274.3,3.7 252.1,9.8 223.1,14.5 L223.1,14.5 Z M95.7,125 C57.6,128.7 26.6,136 7.5,141.3 L7.5,9.2 C20.8,13 40,17.6 63.3,21.4 L63.3,124.9 C73.3,123.2 84.2,121.8 95.7,120.6 L95.7,125 L95.7,125 Z M95.7,113.7 C87.2,114.5 78.7,115.6 70.2,116.9 L70.2,22.4 C78.3,23.6 86.8,24.7 95.7,25.5 L95.7,113.7 L95.7,113.7 Z M143.8,111.3 C130.2,111.3 116.4,111.9 102.5,113.1 L102.5,19.3 C91.1,18.3 80.3,17 70.1,15.5 L70.1,10.9 C95,14.6 119.7,16.5 143.7,16.5 C167.4,16.5 191.7,14.7 216.2,11.1 L216.2,15.6 C206.1,17.1 195.4,18.4 184,19.4 L184,113 C170.5,111.9 157,111.3 143.8,111.3 L143.8,111.3 Z M216.3,22.5 L216.3,116.8 C207.8,115.6 199.4,114.5 191,113.7 L191,25.6 C199.8,24.7 208.3,23.6 216.3,22.5 L216.3,22.5 Z M279.1,141.3 C260,136 229,128.7 190.9,125 L190.9,120.5 C202.3,121.6 213.1,123.1 223.1,124.7 L223.1,21.4 C246.5,17.7 265.7,13 279.1,9.2 L279.1,141.3 L279.1,141.3 Z" id="Shape" fill="#0067AE"></path>
                        <path d="M223.1,14.5 L223.1,3.1 C200.2,6.8 173.1,9.7 143.8,9.7 C114,9.7 86.5,6.8 63.3,2.9 L63.3,14.5 C34.4,9.8 12.2,3.7 0.7,0.2 L0.7,150.5 C17.1,145.5 54.8,135.3 102.5,131.3 L102.5,120 C115.6,118.9 129.4,118.2 143.8,118.2 C157.8,118.2 171.3,118.9 184.1,119.9 L184.1,131.3 C231.9,135.3 269.5,145.5 285.9,150.5 L285.9,0.1 C274.3,3.7 252.1,9.8 223.1,14.5 L223.1,14.5 Z M95.7,125 C57.6,128.7 26.6,136 7.5,141.3 L7.5,9.2 C20.8,13 40,17.6 63.3,21.4 L63.3,124.9 C73.3,123.2 84.2,121.8 95.7,120.6 L95.7,125 L95.7,125 Z M95.7,113.7 C87.2,114.5 78.7,115.6 70.2,116.9 L70.2,22.4 C78.3,23.6 86.8,24.7 95.7,25.5 L95.7,113.7 L95.7,113.7 Z M143.8,111.3 C130.2,111.3 116.4,111.9 102.5,113.1 L102.5,19.3 C91.1,18.3 80.3,17 70.1,15.5 L70.1,10.9 C95,14.6 119.7,16.5 143.7,16.5 C167.4,16.5 191.7,14.7 216.2,11.1 L216.2,15.6 C206.1,17.1 195.4,18.4 184,19.4 L184,113 C170.5,111.9 157,111.3 143.8,111.3 L143.8,111.3 Z M216.3,22.5 L216.3,116.8 C207.8,115.6 199.4,114.5 191,113.7 L191,25.6 C199.8,24.7 208.3,23.6 216.3,22.5 L216.3,22.5 Z M279.1,141.3 C260,136 229,128.7 190.9,125 L190.9,120.5 C202.3,121.6 213.1,123.1 223.1,124.7 L223.1,21.4 C246.5,17.7 265.7,13 279.1,9.2 L279.1,141.3 L279.1,141.3 Z" id="Shape" fill="#00A0DE"></path>
                    </g>
                    <path d="M252.7,177.1 C252.2,180.1 203.4,173.6 143.3,173.7 C83.1,173.5 34.4,180.1 33.9,177.1 C33.3,174.4 82.1,163.1 143.3,163.3 C204.6,163.1 253.3,174.4 252.7,177.1 L252.7,177.1 Z" id="Shape" fill="#DCDCDD"></path>
                </g>
            </g>
        </g>
    </g>
</svg>