<?xml version="1.0" encoding="utf-8"?>
<!-- Generator: Adobe Illustrator 19.2.0, SVG Export Plug-In . SVG Version: 6.00 Build 0)  -->
<!DOCTYPE svg PUBLIC "-//W3C//DTD SVG 1.1//EN" "http://www.w3.org/Graphics/SVG/1.1/DTD/svg11.dtd">
<svg version="1.1" id="Calque_1" xmlns="http://www.w3.org/2000/svg" xmlns:xlink="http://www.w3.org/1999/xlink" x="0px" y="0px"
	 viewBox="0 0 100 100" style="enable-background:new 0 0 100 100;" xml:space="preserve">
<style type="text/css">
	.st0{fill-rule:evenodd;clip-rule:evenodd;fill:#010202;}
</style>
<path class="st0" d="M88.3,63.5c-14.3,14.3-37.4,14.3-51.7,0c-14.3-14.3-14.3-37.4,0-51.7C50.8-2.6,74-2.6,88.3,11.7
	C102.6,26,102.6,49.2,88.3,63.5L88.3,63.5z M81.8,18.2C71.1,7.5,53.7,7.5,43,18.2C32.3,28.9,32.3,46.3,43,57
	c10.7,10.7,28.1,10.7,38.8,0C92.5,46.3,92.5,28.9,81.8,18.2L81.8,18.2z M39.8,66.7L7.5,99L1,92.6l32.3-32.3L39.8,66.7L39.8,66.7z"/>
</svg>
