<?xml version="1.0" encoding="UTF-8" standalone="no"?>
<svg width="1272px" height="949px" viewBox="0 0 1272 949" version="1.1" xmlns="http://www.w3.org/2000/svg" xmlns:xlink="http://www.w3.org/1999/xlink">
    <!-- Generator: Sketch 3.8.2 (29753) - http://www.bohemiancoding.com/sketch -->
    <title>sqreen</title>
    <desc>Created with Sketch.</desc>
    <defs></defs>
    <g id="Page-1" stroke="none" stroke-width="1" fill="none" fill-rule="evenodd">
        <g id="sqreen" transform="translate(-1.000000, 0.000000)">
            <path d="M464.884023,364.730694 C447.683114,243.452961 542.79425,144.356694 673.049023,155.487981 C673.049023,155.487981 597.901295,172.50935 540.479932,230.877155 C486.338795,285.90403 464.884023,364.730694 464.884023,364.730694 M638.380614,121.387309 C522.452205,121.387309 428.480841,215.331204 428.480841,331.228686 C428.480841,447.106856 522.452205,541.043026 638.380614,541.043026 C754.297432,541.043026 848.280386,447.106856 848.280386,331.228686 C848.280386,215.331204 754.297432,121.387309 638.380614,121.387309" id="Fill-1" fill="#3C3C3B"></path>
            <path d="M390.83125,651.785432 C337.988295,622.342751 305.135795,576.809529 272.418523,531.585294 C233.426705,477.655326 122.710341,331.183496 122.710341,331.183496 C122.710341,331.183496 230.868977,188.284338 272.418523,130.855083 C305.135795,85.6153992 337.988295,40.0899012 390.83125,10.6394964 C250.175568,-19.726285 221.569205,23.8448648 163.633977,97.0402251 C113.924432,159.838144 70.3001136,215.54093 24.7903409,281.602533 C14.70625,296.248557 2.88738636,311.929691 1.04443182,330.978792 L0.998068182,330.978792 C1.00965909,331.063764 1.01738636,331.144873 1.02897727,331.210533 C1.01738636,331.291642 1.00965909,331.372751 0.998068182,331.430687 L1.04443182,331.442274 C2.88738636,350.506824 14.70625,366.187958 24.7903409,380.833982 C70.3001136,446.880136 113.924432,502.590646 163.633977,565.400152 C221.569205,638.568476 250.175568,682.135764 390.83125,651.785432" id="Fill-3" fill="#3D7ACC"></path>
            <path d="M882.682977,651.785432 C935.525932,622.342751 968.378432,576.809529 1001.08411,531.585294 C1040.09139,477.655326 1150.80389,331.183496 1150.80389,331.183496 C1150.80389,331.183496 1042.63366,188.284338 1001.08411,130.855083 C968.378432,85.6153992 935.525932,40.0899012 882.682977,10.6394964 C1023.34639,-19.726285 1051.95661,23.8448648 1109.88025,97.0402251 C1159.5898,159.838144 1203.21411,215.54093 1248.73161,281.602533 C1258.80025,296.248557 1270.63457,311.929691 1272.4582,330.978792 L1272.50457,330.978792 C1272.50457,331.063764 1272.49684,331.144873 1272.49684,331.210533 C1272.49684,331.291642 1272.50457,331.372751 1272.50457,331.430687 L1272.4582,331.442274 C1270.63457,350.506824 1258.80025,366.187958 1248.73161,380.833982 C1203.21411,446.880136 1159.5898,502.590646 1109.88025,565.400152 C1051.95661,638.568476 1023.34639,682.135764 882.682977,651.785432" id="Fill-6" fill="#3D7ACC"></path>
            <path d="M216.971477,882.692055 C212.466477,880.440306 208.59125,875.983156 207.992386,869.614144 C207.157841,860.603286 213.424659,853.063982 222.438523,852.23744 C225.363295,851.951626 228.349886,852.476905 230.598523,853.616298 C244.917159,860.838889 258.845568,863.836071 270.251023,862.770063 C281.923068,861.69633 286.845341,856.961091 286.254205,850.588217 L286.203977,850.070662 C285.38875,841.306994 271.313523,839.669359 255.221477,836.347739 C234.786705,832.350209 211.365341,825.162379 208.811477,797.569764 L208.76125,797.044484 C206.08375,768.130946 227.932614,749.777067 256.585341,747.131359 C271.452614,745.7525 287.208523,748.3171 301.643068,753.921367 C307.751477,756.304436 311.962841,761.259828 312.604205,768.169569 C313.43875,777.188152 306.916932,784.739043 297.891477,785.57331 C294.966705,785.843674 293.054205,785.488338 290.291705,784.406881 C278.364659,779.899521 267.15625,777.454654 258.667841,778.238711 C248.854205,779.150225 244.20625,783.86229 244.720114,789.424071 L244.770341,789.957075 C245.516023,797.9251 259.386477,800.381553 275.266023,804.247764 C295.774205,809.0448 319.751932,816.448921 322.162841,842.454112 L322.213068,842.983253 C325.133977,874.554087 302.840795,891.057901 272.063068,893.900589 C254.556932,895.522776 235.250341,892.235917 216.971477,882.692055" id="Fill-9" fill="#3C3C3B"></path>
            <path d="M375.025886,820.218573 L375.025886,820.747715 C375.025886,844.45867 391.013614,860.174565 409.941568,860.174565 C428.857932,860.174565 444.579068,844.45867 444.579068,820.747715 L444.579068,820.218573 C444.579068,796.507618 428.857932,780.795585 409.941568,780.795585 C391.013614,780.795585 375.025886,796.237253 375.025886,820.218573 L375.025886,820.218573 Z M484.548386,928.383634 C484.548386,939.572857 475.492023,948.633926 464.299068,948.633926 C453.10225,948.633926 444.04975,939.572857 444.04975,928.383634 L444.04975,871.363788 C434.18975,884.685027 420.601341,894.537877 399.544523,894.537877 C366.243841,894.537877 334.531114,868.436128 334.531114,820.747715 L334.531114,820.218573 C334.531114,772.526298 365.702932,746.424549 399.544523,746.424549 C421.138386,746.424549 434.460205,756.285124 444.04975,767.740849 L444.04975,767.474347 C444.04975,756.543901 453.10225,747.494419 464.299068,747.494419 C475.492023,747.494419 484.548386,756.543901 484.548386,767.740849 L484.548386,928.383634 Z" id="Fill-11" fill="#3C3C3B"></path>
            <path d="M512.761432,767.740462 C512.761432,756.543515 521.825523,747.494033 533.018477,747.494033 C544.215295,747.494033 553.267795,756.543515 553.267795,767.740462 L553.267795,774.124924 C559.128932,760.293855 581.259841,747.494033 593.248705,747.494033 C605.778477,747.494033 612.972568,755.751734 612.972568,767.215183 C612.972568,777.875264 606.045068,784.259726 597.776886,786.117515 C577.257114,790.914551 553.267795,806.638171 553.267795,835.393353 L553.267795,873.232778 C553.267795,884.418138 544.215295,893.479207 533.018477,893.479207 C521.825523,893.479207 512.761432,884.418138 512.761432,873.232778 L512.761432,767.740462 Z" id="Fill-14" fill="#3C3C3B"></path>
            <path d="M719.448205,809.538022 C717.099114,791.809844 706.671159,779.81339 689.972523,779.81339 C673.540477,779.81339 662.838205,791.543342 659.708659,809.538022 L719.448205,809.538022 Z M693.89025,893.505471 C651.888659,893.505471 620.848205,864.047342 620.848205,821.267973 L620.848205,820.750419 C620.848205,780.856224 649.280705,747.991504 689.972523,747.991504 C736.672295,747.991504 757.277068,786.329172 757.277068,815.273609 C757.277068,826.748645 749.190477,834.311123 738.754795,834.311123 L660.234114,834.311123 C664.147977,852.301941 676.673886,861.695172 694.404114,861.695172 C705.36525,861.695172 714.50275,858.311755 722.57775,852.301941 C725.452295,850.223998 728.06025,849.181164 732.232977,849.181164 C741.103886,849.181164 747.621841,855.959585 747.621841,864.823674 C747.621841,870.037844 745.27275,873.954265 742.409795,876.565212 C730.146614,886.993552 714.232295,893.505471 693.89025,893.505471 L693.89025,893.505471 Z" id="Fill-16" fill="#3C3C3B"></path>
            <path d="M871.505477,809.538022 C869.156386,791.809844 858.720705,779.81339 842.029795,779.81339 C825.590023,779.81339 814.895477,791.543342 811.765932,809.538022 L871.505477,809.538022 Z M845.935932,893.505471 C803.949795,893.505471 772.89775,864.047342 772.89775,821.267973 L772.89775,820.750419 C772.89775,780.856224 801.33025,747.991504 842.029795,747.991504 C888.721841,747.991504 909.334341,786.329172 909.334341,815.273609 C909.334341,826.748645 901.24775,834.311123 890.812068,834.311123 L812.291386,834.311123 C816.20525,852.301941 828.723432,861.695172 846.461386,861.695172 C857.422523,861.695172 866.552295,858.311755 874.638886,852.301941 C877.501841,850.223998 880.117523,849.181164 884.29025,849.181164 C893.161159,849.181164 899.679114,855.959585 899.679114,864.823674 C899.679114,870.037844 897.333886,873.954265 894.467068,876.565212 C882.200023,886.993552 866.293432,893.505471 845.935932,893.505471 L845.935932,893.505471 Z" id="Fill-18" fill="#3C3C3B"></path>
            <path d="M929.044295,767.740462 C929.044295,756.543515 938.108386,747.494033 949.305205,747.494033 C960.498159,747.494033 969.554523,756.543515 969.554523,767.740462 L969.554523,769.343337 C978.873614,757.350746 990.874068,746.424163 1011.39384,746.424163 C1042.0402,746.424163 1059.8902,766.670592 1059.8902,799.442616 L1059.8902,873.232778 C1059.8902,884.418138 1050.82225,893.479207 1039.64089,893.479207 C1028.44407,893.479207 1019.38384,884.418138 1019.38384,873.232778 L1019.38384,812.219264 C1019.38384,793.042705 1010.32748,783.193717 994.865205,783.193717 C979.414523,783.193717 969.554523,793.042705 969.554523,812.219264 L969.554523,873.232778 C969.554523,884.418138 960.498159,893.479207 949.305205,893.479207 C938.108386,893.479207 929.044295,884.418138 929.044295,873.232778 L929.044295,767.740462 Z" id="Fill-20" fill="#3C3C3B"></path>
        </g>
    </g>
</svg>