<?xml version="1.0" encoding="UTF-8" standalone="no"?>
<svg width="330px" height="246px" viewBox="0 0 330 246" version="1.1" xmlns="http://www.w3.org/2000/svg" xmlns:xlink="http://www.w3.org/1999/xlink">
    <!-- Generator: Sketch 3.8.2 (29753) - http://www.bohemiancoding.com/sketch -->
    <title>sqreen</title>
    <desc>Created with Sketch.</desc>
    <defs>
        <polygon id="path-1" points="100.8975 0.613 0 0.613 0 171.67302 100.8975 171.67302 100.8975 0.613"></polygon>
        <polygon id="path-3" points="101.095 171.67302 101.095 0.613 0.2003 0.613 0.2003 171.67302 101.095 171.67302"></polygon>
        <polygon id="path-5" points="0.3257 53 39.1537 53 39.1537 0.6464 0.3257 0.6464 0.3257 53"></polygon>
    </defs>
    <g id="Page-1" stroke="none" stroke-width="1" fill="none" fill-rule="evenodd">
        <g id="sqreen" transform="translate(0.000000, -1.000000)">
            <path d="M120.0641,95.2091 C115.6121,63.8091 140.2291,38.1521 173.9421,41.0341 C173.9421,41.0341 154.4921,45.4411 139.6301,60.5531 C125.6171,74.8001 120.0641,95.2091 120.0641,95.2091 M164.9691,32.2051 C134.9641,32.2051 110.6421,56.5281 110.6421,86.5351 C110.6421,116.5371 134.9641,140.8581 164.9691,140.8581 C194.9711,140.8581 219.2961,116.5371 219.2961,86.5351 C219.2961,56.5281 194.9711,32.2051 164.9691,32.2051" id="Fill-1" fill="#3C3C3B"></path>
            <g id="Group-5" transform="translate(0.000000, 0.387000)">
                <mask id="mask-2" fill="white">
                    <use xlink:href="#path-1"></use>
                </mask>
                <g id="Clip-4"></g>
                <path d="M100.8975,169.1434 C87.2205,161.5204 78.7175,149.7314 70.2495,138.0224 C60.1575,124.0594 31.5015,86.1364 31.5015,86.1364 C31.5015,86.1364 59.4955,49.1384 70.2495,34.2694 C78.7175,22.5564 87.2205,10.7694 100.8975,3.1444 C64.4925,-4.7176 57.0885,6.5634 42.0935,25.5144 C29.2275,41.7734 17.9365,56.1954 6.1575,73.2994 C3.5475,77.0914 0.4885,81.1514 0.0115,86.0834 L-0.0005,86.0834 C0.0025,86.1054 0.0045,86.1264 0.0075,86.1434 C0.0045,86.1644 0.0025,86.1854 -0.0005,86.2004 L0.0115,86.2034 C0.4885,91.1394 3.5475,95.1994 6.1575,98.9914 C17.9365,116.0914 29.2275,130.5154 42.0935,146.7774 C57.0885,165.7214 64.4925,177.0014 100.8975,169.1434" id="Fill-3" fill="#3D7ACC" mask="url(#mask-2)"></path>
            </g>
            <g id="Group-8" transform="translate(228.000000, 0.387000)">
                <mask id="mask-4" fill="white">
                    <use xlink:href="#path-3"></use>
                </mask>
                <g id="Clip-7"></g>
                <path d="M0.2003,169.1434 C13.8773,161.5204 22.3803,149.7314 30.8453,138.0224 C40.9413,124.0594 69.5963,86.1364 69.5963,86.1364 C69.5963,86.1364 41.5993,49.1384 30.8453,34.2694 C22.3803,22.5564 13.8773,10.7694 0.2003,3.1444 C36.6073,-4.7176 44.0123,6.5634 59.0043,25.5144 C71.8703,41.7734 83.1613,56.1954 94.9423,73.2994 C97.5483,77.0914 100.6113,81.1514 101.0833,86.0834 L101.0953,86.0834 C101.0953,86.1054 101.0933,86.1264 101.0933,86.1434 C101.0933,86.1644 101.0953,86.1854 101.0953,86.2004 L101.0833,86.2034 C100.6113,91.1394 97.5483,95.1994 94.9423,98.9914 C83.1613,116.0914 71.8703,130.5154 59.0043,146.7774 C44.0123,165.7214 36.6073,177.0014 0.2003,169.1434" id="Fill-6" fill="#3D7ACC" mask="url(#mask-4)"></path>
            </g>
            <path d="M55.8985,229.3144 C54.7325,228.7314 53.7295,227.5774 53.5745,225.9284 C53.3585,223.5954 54.9805,221.6434 57.3135,221.4294 C58.0705,221.3554 58.8435,221.4914 59.4255,221.7864 C63.1315,223.6564 66.7365,224.4324 69.6885,224.1564 C72.7095,223.8784 73.9835,222.6524 73.8305,221.0024 L73.8175,220.8684 C73.6065,218.5994 69.9635,218.1754 65.7985,217.3154 C60.5095,216.2804 54.4475,214.4194 53.7865,207.2754 L53.7735,207.1394 C53.0805,199.6534 58.7355,194.9014 66.1515,194.2164 C69.9995,193.8594 74.0775,194.5234 77.8135,195.9744 C79.3945,196.5914 80.4845,197.8744 80.6505,199.6634 C80.8665,201.9984 79.1785,203.9534 76.8425,204.1694 C76.0855,204.2394 75.5905,204.1474 74.8755,203.8674 C71.7885,202.7004 68.8875,202.0674 66.6905,202.2704 C64.1505,202.5064 62.9475,203.7264 63.0805,205.1664 L63.0935,205.3044 C63.2865,207.3674 66.8765,208.0034 70.9865,209.0044 C76.2945,210.2464 82.5005,212.1634 83.1245,218.8964 L83.1375,219.0334 C83.8935,227.2074 78.1235,231.4804 70.1575,232.2164 C65.6265,232.6364 60.6295,231.7854 55.8985,229.3144" id="Fill-9" fill="#3C3C3B"></path>
            <g id="Group-13" transform="translate(86.000000, 193.387000)">
                <mask id="mask-6" fill="white">
                    <use xlink:href="#path-5"></use>
                </mask>
                <g id="Clip-12"></g>
                <path d="M10.8067,19.7524 L10.8067,19.8894 C10.8067,26.0284 14.9447,30.0974 19.8437,30.0974 C24.7397,30.0974 28.8087,26.0284 28.8087,19.8894 L28.8087,19.7524 C28.8087,13.6134 24.7397,9.5454 19.8437,9.5454 C14.9447,9.5454 10.8067,13.5434 10.8067,19.7524 L10.8067,19.7524 Z M39.1537,47.7574 C39.1537,50.6544 36.8097,53.0004 33.9127,53.0004 C31.0147,53.0004 28.6717,50.6544 28.6717,47.7574 L28.6717,32.9944 C26.1197,36.4434 22.6027,38.9944 17.1527,38.9944 C8.5337,38.9944 0.3257,32.2364 0.3257,19.8894 L0.3257,19.7524 C0.3257,7.4044 8.3937,0.6464 17.1527,0.6464 C22.7417,0.6464 26.1897,3.1994 28.6717,6.1654 L28.6717,6.0964 C28.6717,3.2664 31.0147,0.9234 33.9127,0.9234 C36.8097,0.9234 39.1537,3.2664 39.1537,6.1654 L39.1537,47.7574 Z" id="Fill-11" fill="#3C3C3B" mask="url(#mask-6)"></path>
            </g>
            <path d="M132.4559,199.5523 C132.4559,196.6533 134.8019,194.3103 137.6989,194.3103 C140.5969,194.3103 142.9399,196.6533 142.9399,199.5523 L142.9399,201.2053 C144.4569,197.6243 150.1849,194.3103 153.2879,194.3103 C156.5309,194.3103 158.3929,196.4483 158.3929,199.4163 C158.3929,202.1763 156.5999,203.8293 154.4599,204.3103 C149.1489,205.5523 142.9399,209.6233 142.9399,217.0683 L142.9399,226.8653 C142.9399,229.7613 140.5969,232.1073 137.6989,232.1073 C134.8019,232.1073 132.4559,229.7613 132.4559,226.8653 L132.4559,199.5523 Z" id="Fill-14" fill="#3C3C3B"></path>
            <path d="M185.9513,210.3741 C185.3433,205.7841 182.6443,202.6781 178.3223,202.6781 C174.0693,202.6781 171.2993,205.7151 170.4893,210.3741 L185.9513,210.3741 Z M179.3363,232.1141 C168.4653,232.1141 160.4313,224.4871 160.4313,213.4111 L160.4313,213.2771 C160.4313,202.9481 167.7903,194.4391 178.3223,194.4391 C190.4093,194.4391 195.7423,204.3651 195.7423,211.8591 C195.7423,214.8301 193.6493,216.7881 190.9483,216.7881 L170.6253,216.7881 C171.6383,221.4461 174.8803,223.8781 179.4693,223.8781 C182.3063,223.8781 184.6713,223.0021 186.7613,221.4461 C187.5053,220.9081 188.1803,220.6381 189.2603,220.6381 C191.5563,220.6381 193.2433,222.3931 193.2433,224.6881 C193.2433,226.0381 192.6353,227.0521 191.8943,227.7281 C188.7203,230.4281 184.6013,232.1141 179.3363,232.1141 L179.3363,232.1141 Z" id="Fill-16" fill="#3C3C3B"></path>
            <path d="M225.3073,210.3741 C224.6993,205.7841 221.9983,202.6781 217.6783,202.6781 C213.4233,202.6781 210.6553,205.7151 209.8453,210.3741 L225.3073,210.3741 Z M218.6893,232.1141 C207.8223,232.1141 199.7853,224.4871 199.7853,213.4111 L199.7853,213.2771 C199.7853,202.9481 207.1443,194.4391 217.6783,194.4391 C229.7633,194.4391 235.0983,204.3651 235.0983,211.8591 C235.0983,214.8301 233.0053,216.7881 230.3043,216.7881 L209.9813,216.7881 C210.9943,221.4461 214.2343,223.8781 218.8253,223.8781 C221.6623,223.8781 224.0253,223.0021 226.1183,221.4461 C226.8593,220.9081 227.5363,220.6381 228.6163,220.6381 C230.9123,220.6381 232.5993,222.3931 232.5993,224.6881 C232.5993,226.0381 231.9923,227.0521 231.2503,227.7281 C228.0753,230.4281 223.9583,232.1141 218.6893,232.1141 L218.6893,232.1141 Z" id="Fill-18" fill="#3C3C3B"></path>
            <path d="M240.1997,199.5523 C240.1997,196.6533 242.5457,194.3103 245.4437,194.3103 C248.3407,194.3103 250.6847,196.6533 250.6847,199.5523 L250.6847,199.9673 C253.0967,196.8623 256.2027,194.0333 261.5137,194.0333 C269.4457,194.0333 274.0657,199.2753 274.0657,207.7603 L274.0657,226.8653 C274.0657,229.7613 271.7187,232.1073 268.8247,232.1073 C265.9267,232.1073 263.5817,229.7613 263.5817,226.8653 L263.5817,211.0683 C263.5817,206.1033 261.2377,203.5533 257.2357,203.5533 C253.2367,203.5533 250.6847,206.1033 250.6847,211.0683 L250.6847,226.8653 C250.6847,229.7613 248.3407,232.1073 245.4437,232.1073 C242.5457,232.1073 240.1997,229.7613 240.1997,226.8653 L240.1997,199.5523 Z" id="Fill-20" fill="#3C3C3B"></path>
        </g>
    </g>
</svg>