<?xml version="1.0" encoding="utf-8"?>
<!-- Generator: Adobe Illustrator 19.2.1, SVG Export Plug-In . SVG Version: 6.00 Build 0)  -->
<!DOCTYPE svg PUBLIC "-//W3C//DTD SVG 1.1//EN" "http://www.w3.org/Graphics/SVG/1.1/DTD/svg11.dtd">
<svg version="1.1" id="Layer_1" xmlns="http://www.w3.org/2000/svg" xmlns:xlink="http://www.w3.org/1999/xlink" x="0px" y="0px"
	 viewBox="0 0 288 56.3" style="enable-background:new 0 0 288 56.3;" xml:space="preserve">
<style type="text/css">
	.st0{display:none;}
	.st1{display:inline;fill:#231F20;}
	.st2{fill:#231F20;}
</style>
<g class="st0">
	<path class="st1" d="M36.9,28c1.6-1.5,2.7-3.6,2.7-5.9c0-4.4-3.6-8-8-8H18.9h-3.7v3.7v20.7v3.7h3.7H32c4.4,0,8-3.6,8-8
		C40,31.7,38.8,29.4,36.9,28 M18.9,17.8h12.7c2.3,0,4.3,1.9,4.3,4.2c0,2.3-1.9,4.2-4.3,4.2H18.9V17.8z M32,38.5H18.9V30h12.7H32
		c2.3,0,4.3,1.9,4.3,4.2C36.2,36.6,34.3,38.5,32,38.5 M180.4,28c1.6-1.5,2.7-3.6,2.7-5.9c0-4.4-3.6-8-8-8h-12.7h-3.7v3.7v20.7v3.7
		h3.7h13.1c4.4,0,8-3.6,8-8C183.5,31.7,182.3,29.4,180.4,28 M162.4,17.8h12.7c2.3,0,4.3,1.9,4.3,4.2c0,2.3-1.9,4.2-4.3,4.2h-12.7
		V17.8z M175.5,38.5h-13.1V30h12.7h0.4c2.3,0,4.2,1.9,4.2,4.2C179.8,36.6,177.9,38.5,175.5,38.5 M48.2,14h3.7v28.2h-3.7V14z
		 M205.1,13.4c-8.2,0-14.8,6.6-14.8,14.8c0,8.2,6.6,14.8,14.8,14.8c8.2,0,14.8-6.6,14.8-14.8C219.9,20,213.3,13.4,205.1,13.4
		 M205.1,39.2c-6.1,0-11-5-11-11c0-6.1,5-11,11-11c6.1,0,11.1,5,11.1,11C216.2,34.3,211.2,39.2,205.1,39.2 M93.1,28.2
		c0,6.1,5,11,11,11c3.6,0,7.1-1.8,9.1-4.8l1.1-1.5l3.1,2.1l-1.1,1.5c-2.8,4-7.3,6.4-12.2,6.4c-8.2,0-14.8-6.6-14.8-14.8
		c0-8.2,6.6-14.8,14.8-14.8c4.9,0,9.5,2.4,12.2,6.4l1.1,1.5l-3.1,2.1l-1.1-1.5c-2.1-3-5.5-4.8-9.1-4.8
		C98.1,17.1,93.1,22.1,93.1,28.2 M145.7,14h3.8v28.2h-3.8V30.6h-17.2v11.7h-3.7V14h3.7v12.8h17.2V14z M271.4,28.2l-7.6,7.6l-7.6-7.6
		l7.6-7.6L271.4,28.2z M76,30c4.4,0,8-3.6,8-8c0-4.4-3.6-8-8-8H64.8H61v3.7v24.5h3.7V30h4.8l9.8,12.2h4.8L74.3,30H76z M64.8,26.3
		v-8.5H76c2.3,0,4.2,1.9,4.2,4.2c0,2.3-1.9,4.2-4.2,4.2H64.8z M239.1,27.8L251,42.3h-4.8l-9.5-11.6l-9.5,11.6h-4.8l11.9-14.5L223,14
		h4.8l8.8,10.8l8.8-10.8h4.8L239.1,27.8z"/>
	<path class="st1" d="M276.9,16.4c0,1.4-0.9,2.3-2.1,2.3c-1.2,0-2.1-1-2.1-2.3c0-1.4,0.9-2.3,2.1-2.3
		C275.9,14.1,276.9,15,276.9,16.4 M276.5,16.4c0-1.2-0.7-2-1.8-2c-1,0-1.7,0.8-1.7,2c0,1.2,0.7,2,1.7,2
		C275.7,18.3,276.5,17.6,276.5,16.4 M274.7,15.2c0.5,0,0.8,0.3,0.8,0.7c0,0.3-0.2,0.5-0.4,0.6l0.5,0.9h-0.3l-0.5-0.9
		c0,0-0.1,0-0.1,0h-0.3v0.9H274v-2.3H274.7z M274.7,16.4c0.3,0,0.5-0.1,0.5-0.4c0-0.3-0.2-0.4-0.5-0.4h-0.4v0.9H274.7z"/>
</g>
<rect x="257.7" y="21.9" transform="matrix(0.7071 -0.7071 0.7071 0.7071 57.284 195.1451)" class="st2" width="13" height="13"/>
<path class="st2" d="M36.8,28.2c1.6-1.5,2.6-3.6,2.6-5.9c0-4.4-3.6-8-8-8H18.9h-3.7v3.7v20.6v3.7h3.7h13c4.4,0,8-3.6,8-8
	C39.9,32,38.7,29.7,36.8,28.2 M18.9,18.1h12.6c2.3,0,4.2,1.9,4.2,4.2c0,2.3-1.9,4.2-4.2,4.2H18.9V18.1z M32,38.7h-13v-8.5h12.6H32
	c2.3,0,4.2,1.9,4.2,4.2C36.2,36.8,34.3,38.7,32,38.7 M179.6,28.2c1.6-1.5,2.7-3.6,2.7-5.9c0-4.4-3.6-8-8-8h-12.6H158v3.7v20.6v3.7
	h3.7h13c4.4,0,8-3.6,8-8C182.7,32,181.4,29.7,179.6,28.2 M161.7,18.1h12.6c2.3,0,4.2,1.9,4.2,4.2c0,2.3-1.9,4.2-4.2,4.2h-12.6V18.1z
	 M174.7,38.7h-13v-8.5h12.6h0.4c2.3,0,4.2,1.9,4.2,4.2C178.9,36.8,177,38.7,174.7,38.7 M48.1,14.4h3.7v28.1h-3.7V14.4z M204.1,13.7
	c-8.1,0-14.7,6.6-14.7,14.7c0,8.1,6.6,14.7,14.7,14.7c8.1,0,14.7-6.6,14.7-14.7C218.8,20.3,212.2,13.7,204.1,13.7 M204.1,39.4
	c-6.1,0-11-4.9-11-11c0-6.1,4.9-11,11-11c6.1,0,11,4.9,11,11C215.1,34.5,210.2,39.4,204.1,39.4 M92.8,28.4c0,6.1,4.9,11,11,11
	c3.6,0,7-1.8,9.1-4.8l1.1-1.5l3.1,2.1l-1.1,1.5c-2.7,4-7.3,6.4-12.1,6.4c-8.1,0-14.7-6.6-14.7-14.7c0-8.1,6.6-14.7,14.7-14.7
	c4.9,0,9.4,2.4,12.1,6.4l1.1,1.5l-3.1,2.1l-1.1-1.5c-2.1-3-5.4-4.8-9.1-4.8C97.7,17.4,92.8,22.4,92.8,28.4 M145,14.4h3.7v28.1H145
	V30.8H128v11.6h-3.7V14.4h3.7v12.7H145V14.4z M75.7,30.3c4.4,0,8-3.6,8-8c0-4.4-3.6-8-8-8H64.6h-3.7v3.7v24.4h3.7V30.3h4.7L79,42.5
	h4.8l-9.7-12.2H75.7z M64.6,26.6v-8.5h11.1c2.3,0,4.2,1.9,4.2,4.2c0,2.3-1.9,4.2-4.2,4.2H64.6z M237.9,28l11.8,14.4h-4.8L235.5,31
	l-9.4,11.5h-4.8L233.1,28l-11.2-13.6h4.8l8.8,10.7l8.8-10.7h4.8L237.9,28z"/>
</svg>
