<svg version="1" xmlns="http://www.w3.org/2000/svg" width="413.333" height="413.333" viewBox="0 0 310.000000 310.000000"><path d="M138.5 18.6c-2.2 1.9-8 7.2-12.9 11.7-4.9 4.5-9.2 8.3-9.6 8.5-.3.1-1.2-.9-2-2.3-1.7-3.1-3.8-3.2-4.4-.3-.7 3-1.3 24.8-.7 24.8.2 0 3.9-3.6 8.1-8 13.4-14 13.2-10.9-1.3 17-17.4 33.4-19.9 40.4-21.3 59-1 14.1.5 23.6 8.1 51 2.8 10.3 1.7 23.9-2.9 32.9-1.3 2.5-3.5 7-5 9.9-5.4 10.7-7.4 19.1-8.1 33.6-.7 13.7-.3 15.6 2.6 11.7 9.4-12.7 13.8-18.2 16.9-21.6 3.8-4 3.8-4.1 4.2-13.5.4-9.6 1.8-13.9 5.8-18.5 5.6-6.5 7-22.6 4.8-57.3-2-30.7-.8-39.4 7.3-51.9 6.8-10.4 9.1-20.6 10.9-48.3 1-15.8 3.2-35 4.6-39.8.9-3.1-.4-2.7-5.1 1.4zM158.6 75.2c-.2.7-.7 5.8-1 11.3-.3 5.5-1.2 11.9-2.1 14.2-6.4 18-7.8 30.4-7 58.8 1.1 33.1-.6 40.9-11.5 53.6-6 6.9-11.3 14.6-10.8 15.9.2.5 2.8-.7 5.8-2.6 3-1.9 9.6-5.5 14.7-8.1l9.2-4.6 2.5-7.6c8.3-25.2 11.6-46.7 11.5-73.2-.1-10.7.1-20.5.4-21.9.4-1.4 1.8-7.3 3.2-13.1 1.4-5.9 2.5-12.2 2.5-14.1 0-3.2-.2-3.4-7.7-6.3-4.2-1.7-8-3.1-8.5-3.3-.4-.2-1 .2-1.2 1zM194.4 92.2c-1.5 4.8-.7 20.1 1.6 27.3 1.2 3.8 2.6 9.2 3.2 12 2.1 10.1-1.1 36.6-6.3 51.5-2.3 6.6-4.8 11.6-10 19.8-3.1 4.9-3 5.4 1.9 11.1l2.9 3.5 4.1-6.2c14.7-21.5 23.2-48.5 23.2-73.3 0-10.1-2.5-32.9-4.5-40.5-.3-1.1-12.8-7.4-14.5-7.4-.5 0-1.2 1-1.6 2.2zM244.7 113.8c-1.4 2.3-8.7 39.5-9.6 48.7-1.4 14.6-5.2 25.7-12.9 37.7-4.6 7.3-14.8 20.1-19.6 24.8-2.5 2.4-4.6 4.9-4.6 5.5 0 .7 1.5 2.9 3.4 5.1l3.4 3.9 4.4-5c6.9-7.7 33.4-38.9 42.2-49.5 4.3-5.2 11.5-13.6 16.1-18.5 18.3-19.9 25.4-28 25.5-29 0-.6-3.3-2.7-7.3-4.7l-7.2-3.5-7.6 7.1c-4.2 3.9-10.2 10.4-13.4 14.3-5.4 6.9-8.4 8.9-8.6 6-.2-2.8.4-7.2 1.3-9.6 1.5-3.8 7.8-25.4 7.8-26.6 0-1.3-12.8-7.7-13.3-6.7zM299.8 146.3c-3.3 5.3-11.8 22.7-11.8 24.2 0 2-10.5 18.1-17.2 26.2-7.3 9-25.2 27.2-42.3 43l-12 11.2 2.8 2.8c2 2 3.1 2.5 4.1 1.8 26.2-18.2 60.1-49.5 72.4-66.8 3.4-4.8 6.2-8.9 6.2-9.2 0-.3 1.8-3.4 4-7l4-6.5v-10.9c0-10.6 0-10.8-2.5-11.9-4-1.8-4.8-1.5-7.7 3.1zM66.6 154.8c-2.6 6.4-4.8 12.4-4.8 13.2-.1.8.7 5.6 1.6 10.7 1.2 7 1.5 12.1 1 21.5-.9 18.7 1.8 34.8 6 34.8 1.7 0 10.5-23.3 11.9-31.6 1.2-6.7.1-14.2-5.4-35.9-1.5-6.3-3.1-14.2-3.5-17.5-.4-3.3-1-6.2-1.4-6.5-.4-.2-2.8 4.8-5.4 11.3zM304.1 199.3c-5.1 10.5-7.1 16.3-5.5 15.6.5-.2 3.3-1.7 6.2-3.3l5.2-2.9v-9.9c0-5.4-.2-9.8-.5-9.8s-2.7 4.6-5.4 10.3zM42.8 204.7c-3.3 7.1-6.9 15.2-7.9 18.1-2.1 6.2-1.7 9.7 3 23.6 1.7 4.9 3.4 11.7 3.7 15.2.6 5.5 1.2 6.8 4.9 11.1 4.8 5.5 13 10.2 14.8 8.4 1.8-1.8 1.4-16.8-.7-26.1-1-4.7-3.7-13.9-5.9-20.5l-4.1-12 .1-15.3c.1-9.3-.3-15.2-.9-15.2-.5 0-3.7 5.7-7 12.7zM287.5 243c-3.8 2-10.8 5.6-15.5 8-15.2 7.9-34 20.1-34 22.1 0 1.2 7.1 9.9 8.2 9.9.4 0 4.2-2.2 8.5-5 4.3-2.7 8.2-5 8.6-5 .4 0 3.5-1.9 6.8-4.3 6.5-4.5 28.3-30.1 25.2-29.6-.4.1-3.9 1.8-7.8 3.9zM305.1 250c-12.6 15.7-26 40.4-31.1 57.2l-.9 2.8h14.5l2.3-5.8c3.9-9.5 16.5-31.3 19.3-33.3.5-.3.7-6.4.6-13.5l-.3-12.9-4.4 5.5z"/></svg>