<?xml version="1.0" encoding="UTF-8"?> <svg xmlns="http://www.w3.org/2000/svg" xmlns:xlink="http://www.w3.org/1999/xlink" width="3324px" height="1295px" viewBox="0 0 3324 1295"> <!-- Generator: Sketch 46.2 (44496) - http://www.bohemiancoding.com/sketch --> <title>mailjet</title> <desc>Created with Sketch.</desc> <defs></defs> <g id="Page-1" stroke="none" stroke-width="1" fill="none" fill-rule="evenodd"> <g id="mailjet"> <g id="Group"></g> <g id="Group" transform="translate(3028.000000, 498.000000)"></g> <g id="Group" transform="translate(2273.000000, 412.000000)"></g> <path d="M547.314109,448.966368 L1713.17054,174.905381 L1504.25248,289.806726 L382.22203,907.720628 L313.291832,945.595516 L517.529455,646.852018 L547.314109,448.966368 Z M540.080693,396.622422 L531.145297,390.239013 L235.426238,172.777578 L0.127475248,5.68434189e-14 L641.77401,88.9421525 L1131.94431,156.606278 L1362.98812,188.948879 L1420.00446,196.608969 L540.080693,396.622422 Z M2528.36916,1130.31208 C2518.5815,1187.343 2512.62379,1200.11111 2391.7674,1294.16957 L2362.82996,1254.58841 C2455.6,1178.83092 2467.51542,1170.31884 2476.02643,1119.67198 L2563.26432,625.12029 L2619.437,617.45942 L2528.36916,1130.31208 Z M2596.88282,428.491304 L2653.05551,420.830435 L2633.48018,530.210628 L2578.15859,537.871498 L2596.88282,428.491304 Z M2693.90837,970.285024 C2693.05727,979.222705 2692.20617,987.734783 2692.20617,995.821256 C2692.20617,1035.40242 2707.52599,1055.8314 2773.48634,1055.8314 C2827.95683,1055.8314 2882.00176,1037.53043 2940.3022,1010.29179 L2953.91982,1052.00097 C2896.89604,1082.21884 2830.93568,1103.49903 2767.10308,1103.49903 C2678.58855,1103.49903 2638.16123,1068.59952 2638.16123,997.098068 C2638.16123,982.627536 2640.28899,966.880193 2643.26784,950.707246 L2670.92863,791.531401 C2692.63172,671.511111 2754.33656,612.352174 2875.6185,612.352174 C2952.21762,612.352174 3000.7304,651.082126 3000.7304,721.732367 C3000.7304,797.489855 2950.51542,837.922222 2821.14802,874.098551 C2730.08018,899.209179 2705.82379,906.018841 2705.82379,906.018841 L2693.90837,970.285024 Z M3054.34978,1040.08406 C3054.34978,1034.1256 3055.20088,1028.16715 3056.47753,1021.78309 L3118.60793,668.10628 L3028.39119,668.10628 L3036.0511,621.715459 L3127.11894,621.715459 L3147.54537,506.376812 L3202.86696,498.715942 L3181.58943,621.715459 L3323.2978,621.715459 L3312.65903,668.10628 L3173.07841,668.10628 L3112.22467,1015.82464 C3110.94802,1022.6343 3110.09692,1028.16715 3110.09692,1033.2744 C3110.09692,1051.57536 3119.45903,1056.257 3142.01322,1056.257 C3168.39736,1056.257 3201.16476,1048.59614 3236.05991,1034.1256 L3249.67753,1070.72754 C3213.50573,1091.15652 3173.07841,1102.64783 3132.22555,1102.64783 C3084.56388,1103.07343 3054.34978,1082.64444 3054.34978,1040.08406 Z M1076.42316,671.17561 C1138.55,637.126829 1212.16605,612.015854 1267.05895,612.015854 C1316.42,612.015854 1340.675,637.126829 1349.61105,672.026829 C1416.41868,633.296341 1489.18368,612.015854 1543.22553,612.015854 C1607.90553,612.015854 1629.60737,654.576829 1629.60737,706.07561 C1629.60737,722.67439 1627.90526,737.996341 1624.50105,752.467073 L1564.50184,1093.8061 L1448.33316,1093.8061 L1507.48132,757.57439 C1508.33237,752.467073 1508.33237,746.934146 1508.33237,744.806098 C1508.33237,732.463415 1502.375,724.802439 1484.07737,724.802439 C1453.01395,724.802439 1387.05737,753.743902 1343.65368,780.131707 L1288.33526,1094.23171 L1172.16658,1094.23171 L1231.31474,758 C1232.16579,752.892683 1232.16579,747.359756 1232.16579,745.231707 C1232.16579,732.889024 1226.20842,725.228049 1207.91079,725.228049 C1176.84737,725.228049 1110.89079,754.169512 1067.48711,780.557317 L1012.16868,1094.65732 L896,1094.65732 L958.552368,741.826829 L1076.42316,671.17561 Z M2006.62368,1093.8061 L1908.75263,1093.8061 L1907.90158,1041.4561 C1867.47658,1078.48415 1816.83895,1103.59512 1753.86105,1103.59512 C1672.58553,1103.59512 1644.07526,1060.18293 1644.07526,995.915854 C1644.07526,980.168293 1646.20289,963.995122 1649.18158,946.545122 L1673.43658,809.073171 C1695.56395,680.964634 1725.77632,612.441463 1907.90158,612.441463 C1953.43289,612.441463 2037.68711,626.912195 2086.19711,642.659756 L2006.62368,1093.8061 Z M2160.66421,630.742683 L2279.81158,614.569512 L2195.55737,1094.23171 L2079.38868,1094.23171 L2160.66421,630.742683 Z M2196.40842,429.003659 L2315.55579,412.830488 L2292.57737,544.769512 L2173.43,562.219512 L2196.40842,429.003659 Z M2390.44842,429.003659 L2509.59579,412.830488 L2389.59737,1093.8061 L2273.42868,1093.8061 L2390.44842,429.003659 Z M1957.26263,716.715854 C1935.98632,712.885366 1914.71,709.906098 1890.455,709.906098 C1815.98789,709.906098 1801.09447,740.97561 1790.88184,802.689024 L1761.52053,968.25122 C1760.66947,974.209756 1760.66947,977.189024 1760.66947,979.742683 C1760.66947,997.192683 1771.30763,1004.85366 1792.58395,1004.85366 C1829.17921,1004.85366 1882.79553,969.953659 1918.53974,934.202439 L1957.26263,716.715854 Z M2947.53656,720.029952 C2947.53656,677.469565 2919.45022,657.891787 2870.08634,657.891787 C2785.82731,657.891787 2741.14449,701.728986 2724.54802,794.510628 L2713.90925,854.520773 C2713.90925,854.520773 2732.20793,849.83913 2823.27577,825.57971 C2911.79031,802.597101 2947.53656,770.676812 2947.53656,720.029952 Z" id="Combined-Shape" fill="#FBAA20" fill-rule="nonzero"></path> </g> </g> </svg> 