<?xml version="1.0" encoding="UTF-8" standalone="no"?>
<svg width="1454px" height="495px" viewBox="0 0 1454 495" version="1.1" xmlns="http://www.w3.org/2000/svg" xmlns:xlink="http://www.w3.org/1999/xlink">
    <!-- Generator: Sketch 3.8.2 (29753) - http://www.bohemiancoding.com/sketch -->
    <title>mailjet-color</title>
    <desc>Created with Sketch.</desc>
    <defs></defs>
    <g id="Page-1" stroke="none" stroke-width="1" fill="none" fill-rule="evenodd">
        <g id="mailjet-color">
            <g id="Calque_1">
                <path d="M1453,216.1 C1452.5,219.1 1451.9,222 1451.5,225 C1450,234.9 1448.6,244.9 1447.2,255.2 C1446.1,255.3 1445,255.4 1443.8,255.6 C1443.6,255 1443.3,254.6 1443.3,254.3 C1444,249.3 1444.6,244.2 1445.4,239.2 C1446.3,233.1 1447.3,227 1448.2,220.9 C1448.3,220 1448.2,219 1448.2,217.3 C1447.2,218.6 1446.5,219.4 1446.1,220.2 C1441.5,228.6 1437,236.9 1432.5,245.3 C1429.8,250.4 1429.8,250.4 1423.4,249.5 C1421.3,238.7 1419.1,227.7 1417,216.7 L1416.2,216.7 C1413.6,229.5 1411,242.2 1408.4,255.4 C1407.4,255.5 1406.2,255.6 1404.9,255.7 C1404.8,254.9 1404.6,254.4 1404.7,253.9 C1405.9,247.7 1407.1,241.5 1408.4,235.4 L1412.9,213.8 C1413.1,212.6 1413.5,211.5 1413.8,210.1 L1419.6,210.1 C1422,221.9 1424.4,233.8 1427,246.4 C1427.9,245.2 1428.6,244.5 1429,243.7 C1434.2,234.2 1439.4,224.6 1444.7,215.1 C1447.5,210 1447.5,210 1453.2,209.8 C1453,211.8 1453,213.9 1453,216.1 L1453,216.1 Z" id="Shape" fill="#FDC24D"></path>
                <path d="M548.6,288.8 C541.2,330.5 533.9,372.1 526.5,413.9 L480,413.9 C481.1,407.2 482.2,400.6 483.4,394.1 C487.3,372.1 491.2,350 495.1,328 C497.9,311.9 500.8,295.8 503.5,279.7 C503.8,278.1 503.9,276.5 503.9,274.9 C503.8,270 501.6,267.3 496.6,267.1 C492.9,267 489.1,267.4 485.5,268.3 C470.7,271.9 457.1,278.6 443.7,285.8 C438.1,288.8 438.2,288.9 437.1,295.1 C432.7,320.5 428.2,345.8 423.7,371.1 C421.4,383.9 419.2,396.7 417,409.5 C416.7,410.9 416.4,412.4 416.1,414 L369.8,414 C370.3,410.7 370.8,407.5 371.4,404.3 C375.9,379.1 380.3,353.9 384.8,328.7 C387.9,311.3 391,293.9 394.1,276.4 C394.5,274.2 395.4,272.9 397.3,271.8 C411.9,263.3 426.2,254.3 441,246.1 C460.9,234.9 481.9,226.6 504.5,223 C511.7,221.9 518.9,221.3 526.1,222.6 C537.3,224.6 545.2,230.6 549.3,241.3 C549.8,242.7 550.3,244 550.9,245.6 C552.3,244.9 553.7,244.2 554.9,243.5 C571.8,234.3 589.6,227.4 608.6,223.9 C617.2,222.3 625.8,221.3 634.6,222.4 C651.9,224.6 659.6,236 661.8,250.2 C663.2,259.2 662.3,268.1 660.8,277 C657.4,296.3 654,315.5 650.6,334.8 L638,406.5 C637.6,409 637.1,411.5 636.7,414.1 L590.4,414.1 C590.4,413.3 590.4,412.5 590.5,411.8 C595.5,383.3 600.5,354.8 605.5,326.2 C608.3,310.5 611.1,294.8 613.7,279 C615.2,269.7 611.9,266 602.5,267 C598.1,267.4 593.8,268.6 589.6,269.9 C575.2,274.4 561.7,281.2 548.6,288.8 L548.6,288.8 Z M844.8,234 C834.2,294.2 823.7,354 813.2,414 L773.9,414 L773.9,394.5 C773.6,394.3 773.3,394.2 773,394 C771.9,394.8 770.9,395.7 769.8,396.5 C757.9,406.3 744.6,413.3 729.4,416.2 C718.2,418.3 707,418.8 695.9,416 C680.4,412 671.5,401.8 669.2,385.9 C667.7,375.7 668.6,365.5 670.3,355.5 C673.9,334.6 677.6,313.8 681.4,292.9 C683,283.8 685.3,274.8 688.3,266.1 C695.9,244 711.3,230.8 733.9,225.7 C750.3,222 766.8,220.9 783.5,222.3 C803.3,223.9 822.8,227.5 842,233 C842.8,233.2 843.7,233.6 844.8,234 L844.8,234 Z M793.3,263.7 C790.3,263.2 787.8,262.7 785.3,262.3 C774.9,260.9 764.5,260.2 754,261.9 C742.7,263.7 734.7,269.7 731.1,280.7 C729.5,285.8 728.1,291 727.2,296.3 C723.7,315.5 720.3,334.8 717,354.1 C716.1,359.1 715.3,364.2 715.1,369.2 C714.9,374.1 717.3,376.8 722.2,378 C723.6,378.4 725.1,378.6 726.6,378.6 C732.9,378.9 738.8,376.9 744.4,374.3 C755.4,369.3 764.9,362.2 773.9,354.3 C776.8,351.8 778.2,348.9 778.9,345.1 C781.5,329.2 784.5,313.4 787.3,297.6 C789.2,286.6 791.2,275.3 793.3,263.7 L793.3,263.7 Z M1013.9,142.2 C997.9,233.1 981.9,323.5 966,414 L919.4,414 C935,325.4 950.6,237.1 966.2,148.8 C982.2,146.6 997.7,144.4 1013.9,142.2 L1013.9,142.2 Z" id="Shape" fill="#232020"></path>
                <path d="M1186.1,380.9 C1188,386.6 1189.7,391.8 1191.5,397.2 C1190.3,397.9 1189.4,398.6 1188.3,399.1 C1171.8,407.4 1154.5,413.6 1136.3,416.4 C1123.7,418.3 1111,418.9 1098.3,416 C1086,413.3 1077.2,406.2 1072.2,394.8 C1069.5,388.7 1067.6,382.2 1065.5,375.9 C1064.2,372.2 1065.3,368.4 1065.9,364.8 C1069.6,342.9 1073.7,321 1077.4,299.1 C1079,289.6 1080.9,280.1 1084.2,271 C1088.5,259.2 1094.5,248.6 1103.8,240.1 C1113.9,230.8 1126.1,225.9 1139.4,223.5 C1147.7,222 1156.2,221.4 1164.6,221.9 C1174.3,222.5 1183.7,224.4 1192.1,229.8 C1203.2,236.9 1208.8,247.3 1209.8,260.3 C1210.3,266.6 1210.1,272.9 1208.6,279.1 C1205.6,290.7 1198.4,299 1188.9,305.6 C1178.9,312.5 1167.8,317.4 1156.2,320.9 C1139.6,326 1122.8,330.6 1106,335.4 C1102.3,336.5 1098.5,337.6 1094.8,338.5 C1093.1,338.9 1092.4,339.7 1092.1,341.4 C1090.7,349.9 1088.8,358.2 1087.7,366.7 C1086.9,372.4 1086.8,378.2 1088.1,383.9 C1089.4,389.2 1092.5,393 1097.4,395.3 C1103.4,398.1 1109.8,398.7 1116.2,398.9 C1132.9,399.4 1148.9,395.6 1164.5,389.8 C1170.6,387.5 1176.6,384.8 1182.7,382.3 C1183.6,381.8 1184.6,381.5 1186.1,380.9 L1186.1,380.9 Z M1096.1,318.2 C1097,318.3 1097.2,318.4 1097.5,318.3 C1115.3,313.5 1133.2,308.8 1151,303.7 C1159.4,301.3 1167.3,297.6 1174.5,292.5 C1184.1,285.6 1189.2,276.5 1189,264.5 C1188.8,252.3 1182.8,244.7 1170.9,241.8 C1162.4,239.7 1153.9,240.1 1145.4,241.4 C1136.8,242.8 1128.8,245.8 1122,251.3 C1114.5,257.4 1109.6,265.3 1106,274.1 C1102.2,283.6 1100.5,293.7 1098.7,303.7 C1097.8,308.4 1097,313.2 1096.1,318.2 L1096.1,318.2 Z" id="Shape" fill="#FDBF43"></path>
                <path d="M586.2,101.7 C587.5,103.1 588.9,102.3 590.3,102.1 C600.2,100.1 610.1,98.2 620.4,96.9 C458.1,191.2 295.7,285.4 133.4,379.7 C133.2,379.5 133.1,379.3 132.9,379.1 C133.1,378.7 133.2,378.1 133.4,377.8 C137.8,372.8 142.3,367.8 146.8,362.8 C157,351.5 167.3,340.2 177.5,328.8 C178.1,328.2 178.3,327.2 178.6,326.4 L178.6,326.5 C179.2,326.1 179.7,325.8 180.3,325.4 C181.1,324.8 181.9,324.2 182.8,323.6 C183.3,323.2 183.9,322.9 184.4,322.5 C186.3,321.6 188.3,320.8 190.2,319.8 C208.1,309.9 226.1,300.1 244,290.1 C253.8,284.7 263.4,278.9 273,273.3 C274,273 275.1,272.9 276,272.4 C281.9,269.2 287.7,266 293.6,262.7 C296.3,261.2 299,259.7 301.6,258.2 C305.5,256 309.4,253.8 313.3,251.5 C316.1,249.9 318.9,248.4 321.7,246.8 C323,246.2 324.4,245.7 325.7,245 C335.3,239.7 344.8,234.3 354.4,228.9 C354.9,228.7 355.4,228.6 355.9,228.4 C367.3,222.2 378.6,215.9 390,209.6 C393.2,207.8 396.3,205.7 399.5,203.8 C401.3,203 403.2,202.4 405,201.4 C423.3,191.4 441.6,181.3 459.8,171.2 C463.2,169.3 466.5,167.3 469.8,165.3 C471.1,164.6 472.3,163.9 473.6,163.2 C485.1,157 496.6,150.9 508.1,144.7 C513.6,141.7 519,138.5 524.4,135.4 C530.3,132.3 536.1,129.2 542,126 C554.9,118.9 567.8,111.7 580.7,104.6 C582.4,103.8 584.3,102.7 586.2,101.7 L586.2,101.7 Z" id="Shape" fill="#F5D8B7"></path>
                <path d="M888.6,414 L842.1,414 C852.9,352.3 863.8,290.8 874.6,229.2 C890.4,227 906,224.9 922.3,222.7 C911,286.6 899.8,350.3 888.6,414 L888.6,414 Z" id="Shape" fill="#232020"></path>
                <path d="M1256.9,244.3 L1221.1,244.3 C1222.2,238 1223.1,232 1224.2,225.8 L1260.5,225.8 C1263.3,210.4 1266,195.3 1268.7,179.7 C1275.8,178.7 1282.8,177.7 1290.4,176.6 C1290.2,178.7 1290.1,180.5 1289.8,182.2 C1287.5,196.1 1285.1,209.9 1282.7,223.8 C1282.6,224.3 1282.6,224.8 1282.5,225.7 L1338.7,225.7 C1337.2,232.1 1335.9,238 1334.5,244.2 L1278.9,244.2 C1278.1,248.5 1277.3,252.5 1276.6,256.6 C1272.9,277.6 1269.3,298.6 1265.6,319.5 C1262.5,337.3 1259.4,355.1 1256.3,373 C1255.7,376.6 1254.9,380.1 1254.4,383.7 C1254,386.1 1253.8,388.5 1253.8,390.9 C1253.8,395.8 1256.1,398.5 1261,398.9 C1265.7,399.2 1270.4,399.1 1275,398.6 C1283.8,397.6 1292.3,394.9 1300.6,391.8 C1301.6,391.4 1302.6,391.2 1304,390.7 C1305.8,395.5 1307.5,400.1 1309.3,405 C1308,405.8 1306.9,406.6 1305.8,407.2 C1294,413.1 1281.7,416.9 1268.5,417.8 C1262.4,418.2 1256.4,418.1 1250.5,416.7 C1241.6,414.6 1234.9,409.7 1232.3,400.4 C1230.9,395.2 1231.4,390 1232.3,384.8 C1236.4,361.6 1240.4,338.4 1244.5,315.1 C1248.5,292.1 1252.6,269.2 1256.6,246.2 C1256.8,245.7 1256.9,245.2 1256.9,244.3 L1256.9,244.3 Z M1057.9,224.8 C1056.8,231 1055.8,237 1054.7,243.1 C1051.1,263.7 1047.4,284.3 1043.7,304.8 C1040.6,321.9 1037.6,339.1 1034.5,356.2 C1031.1,375.3 1027.7,394.5 1024.3,413.6 C1023,421.1 1021.7,428.6 1020.2,436.1 C1018.5,444.7 1014.5,452.2 1008.5,458.7 C1000.6,467.2 991.6,474.5 982.6,481.7 C977.5,485.8 972.3,489.8 966.9,494.1 C963,488.7 959.2,483.5 955.3,478.1 C959.2,474.9 962.8,472 966.4,469 C973.3,463.1 980.2,457.1 987.1,451.1 C995.7,443.5 999.2,433.4 1001,422.4 C1003.9,404.8 1007.1,387.3 1010.2,369.7 C1013.6,350.6 1017,331.4 1020.4,312.3 C1024.6,288.6 1028.8,264.8 1033.1,241.1 C1033.8,237.3 1034.4,233.4 1035,229.6 C1035.3,227.9 1036.1,227 1037.8,226.7 C1044,225.9 1050.3,225.1 1056.5,224.3 C1056.8,224.3 1057,224.5 1057.9,224.8 L1057.9,224.8 Z" id="Shape" fill="#FDBF43"></path>
                <path d="M192.3,108.1 C200.6,114.3 209,120.5 217.3,126.7 C222.2,130.4 227,134.1 231.9,137.8 C228,136.9 224.1,136.1 220.3,134.9 C206.1,130.5 192,125.9 177.9,121.4 C156.6,114.6 135.3,107.9 114,101.2 C104.7,98.3 95.4,95.4 86.1,92.4 C64,85.4 42,78.4 19.9,71.4 C13.9,69.5 7.9,67.8 1.9,65.9 C1.3,65.7 0.8,65.3 0.4,64.2 C1.8,64.1 3.1,63.8 4.5,63.8 C16.3,63.8 28.2,64.3 39.9,63.6 C55.7,62.7 71.6,63.7 87.3,62.7 C99.5,61.9 111.7,62.5 123.9,62 C125.3,61.9 126.7,61.4 128,61.1 C129,61.8 130,62.4 131,63.1 C135.9,66.6 140.7,70 145.6,73.5 C146.2,74.2 146.8,75 147.5,75.5 C154.5,80.6 161.6,85.7 168.6,90.7 C176.5,96.6 184.4,102.4 192.3,108.1 L192.3,108.1 Z" id="Shape" fill="#EAE6E0"></path>
                <path d="M879.6,201.8 C882.8,183.6 885.8,166.2 888.9,148.7 C904.8,146.5 920.4,144.4 936.5,142.2 C933.4,160 930.4,177.3 927.3,194.9 C911.4,197.2 895.7,199.5 879.6,201.8 L879.6,201.8 Z" id="Shape" fill="#232020"></path>
                <path d="M550.8,70.4 C545.9,69.6 541.1,68.8 536.2,68 C535.7,67.9 535.1,67.9 534.6,67.8 L534.2,67.9 L533.8,67.8 C525,66.6 516.3,65.4 507.5,64.3 C494.5,62.6 481.5,60.8 468.5,59.1 C466.6,58.8 464.8,58.6 462.9,58.3 L462.8,58.3 C460.9,58 459.1,57.8 457.2,57.5 C456.4,57.2 455.6,57 454.8,56.7 C453.7,56.6 452.7,56.5 451.6,56.4 C450.7,56.3 449.8,56.1 449,56 C445.9,55.7 442.7,55.4 439.6,55.2 C435.3,54.6 431.1,54 426.8,53.4 C425.8,53.2 424.8,52.8 423.7,52.7 C418.6,52 413.4,51.2 408.3,50.6 C400.8,49.6 393.3,48.7 385.8,47.8 L381.6,47.2 C380.7,47.1 379.8,46.9 378.9,46.8 C377.6,46.6 376.4,46.5 375.1,46.3 C374.9,46.1 374.6,46.1 374.3,46.2 C368.9,45.4 363.5,44.6 358,43.9 C356.2,43.6 354.3,43.4 352.5,43.1 L352.4,43.1 C350.3,42.8 348.2,42.5 346.1,42.3 L346,42.3 C344.1,42 342.3,41.8 340.4,41.5 C339.9,41.5 339.5,41.4 339,41.4 C337.6,41.2 336.2,41 334.7,40.8 C334.2,40.7 333.7,40.7 333.2,40.6 C332.4,40.4 331.7,40.1 330.9,40 C323.5,39 316.1,37.9 308.7,36.9 C301.3,35.9 293.9,35.1 286.5,34.2 L282.3,33.6 C281.8,33.5 281.3,33.5 280.8,33.4 C280.3,33.2 279.8,32.9 279.3,32.9 C269.5,31.5 259.7,30.2 249.9,28.9 C242.8,28 235.6,27.1 228.5,26.3 C227.9,25.9 227.3,25.8 226.6,25.7 C217.1,24.4 207.5,23 198,21.7 C190.7,20.7 183.4,19.9 176.1,19 C175.3,18.8 174.6,18.5 173.8,18.4 C164.4,17.1 155.1,15.7 145.7,14.5 C138.6,13.6 131.4,12.7 124.3,11.8 C122.7,11.6 121.1,11.3 119.5,11.1 C119,11 118.5,11 118,10.9 C117.5,10.7 117,10.4 116.5,10.4 L55.9,2 C53.2,1.6 50.5,1.4 47.7,0.4 L46.1,0.4 C47.2,1.4 48.2,3 49.5,4 C67.9,17.6 86.4,31.2 104.8,44.8 C108.2,47.3 111.8,49.8 115.3,52.2 C115.3,51.8 115.3,51.4 115.4,50.9 C115.4,51.3 115.3,51.8 115.3,52.2 C115.6,52.4 115.9,52.7 116.3,52.9 C116.5,53.1 116.7,53.3 116.9,53.4 C120.4,56.1 124,58.9 127.5,61.6 C128.5,62.3 129.5,62.9 130.5,63.6 C135.4,67.1 140.2,70.5 145.1,74 C145.7,74.7 146.3,75.5 147,76 C154,81.1 161.1,86.2 168.1,91.2 C176,96.9 183.9,102.6 191.9,108.4 L191.9,100.5 L191.9,108.4 C200.2,114.6 208.6,120.8 216.9,127 C221.8,130.7 226.6,134.4 231.5,138.1 C231.7,138.2 231.9,138.4 232.2,138.5 C232.4,138.7 232.7,138.8 232.9,139 C236.3,142.1 240.1,142.4 244.2,140.7 C244.4,140.6 244.7,140.6 245,140.6 C252.6,138.8 260.2,137 267.8,135.1 C268.6,135 269.3,134.8 270.1,134.7 C270.6,134.5 271.2,134.4 271.7,134.2 C272.5,134.1 273.3,133.9 274.2,133.8 L275.1,133.5 C276,133.4 277,133.4 277.9,133.2 C285.4,131.5 292.9,129.8 300.5,128 C307.3,126.4 314.2,124.8 321,123.1 C321.8,123 322.6,122.8 323.4,122.7 C323.9,122.5 324.5,122.4 325,122.2 C325.8,122.1 326.6,121.9 327.5,121.8 L328.4,121.5 C330.2,121.1 332.1,120.8 333.9,120.4 C334.5,120.2 335,120.1 335.6,119.9 C340.8,118.8 346,117.8 351.2,116.6 C358.9,114.8 366.7,112.9 374.4,111.1 C375.2,111 375.9,110.8 376.7,110.7 C377.2,110.5 377.8,110.4 378.3,110.2 C383.5,109.1 388.8,108.1 394,106.9 C402.7,104.9 411.4,102.8 420.1,100.7 C426.7,99.3 433.4,97.9 440,96.4 C448.2,94.5 456.3,92.6 464.4,90.7 L465.6,90.7 C488.3,85.6 510.9,80.4 533.6,75.3 C539.3,74 545,72.7 550.7,71.3 C550.9,70.7 550.9,70.5 550.8,70.4 L550.8,70.4 Z M227.2,26.1 C227,26.2 226.9,26.2 226.7,26.3 C226.9,26.2 227.1,26.2 227.2,26.1 L227.2,26.1 Z M226.5,26.6 C226.6,26.5 226.6,26.4 226.7,26.4 C226.6,26.5 226.5,26.5 226.5,26.6 L226.5,26.6 Z M226.2,27.1 C226.2,27 226.3,26.9 226.4,26.7 C226.3,26.9 226.3,27 226.2,27.1 L226.2,27.1 Z" id="Shape" fill="#5A5A5B"></path>
                <path d="M1071.6,145.6 C1068.9,160.7 1066.4,174.8 1063.8,189.4 C1056.7,190.4 1049.6,191.3 1041.9,192.3 C1043.9,177.3 1046.7,163.2 1049,148.6 C1056.2,147.7 1063.4,146.7 1071.6,145.6 L1071.6,145.6 Z" id="Shape" fill="#FDBF43"></path>
                <path d="M533.9,67.7 C525.1,66.5 516.4,65.3 507.6,64.2 C494.6,62.5 481.6,60.7 468.6,59 C466.7,58.7 464.9,58.5 463,58.2 L462.9,58.2 C461,57.9 459.2,57.7 457.3,57.4 C456.5,57.1 455.7,56.9 454.9,56.6 C455.9,56.3 456.9,55.8 457.9,55.8 C476,55.5 494,55.2 512.1,55 C516.8,54.9 521.5,55.3 526.2,54.9 C542.1,53.6 558,54.5 574,54.1 C578.4,54 582.7,53.4 587.1,53.1 C587.2,53.4 587.2,53.7 587.3,54 C584.1,54.8 581,55.8 577.8,56.5 C565.4,59.5 552.9,62.4 540.5,65.6 C539.1,66 536.7,65.3 536.4,67.9 C535.9,67.8 535.3,67.8 534.8,67.7 C534.4,67.8 534.1,67.8 533.9,67.7 L533.9,67.7 Z" id="Shape" fill="#E9E6E0"></path>
                <path d="M653.1,63.5 C639.9,66.6 626.8,69.7 613.6,72.8 C591.9,77.9 570.1,83.1 548.4,88.3 C548.8,90.9 549.3,93.6 549.8,96.2 C549.4,93.6 548.9,90.9 548.4,88.3 C545,89 541.7,89.7 538.3,90.5 C528.2,92.9 518.2,95.4 508.1,97.8 C501.1,99.4 494,100.9 487,102.6 C478.4,104.6 469.9,106.8 461.3,108.9 C460.4,109 459.4,109 458.5,109.2 C438,114 417.4,118.8 396.9,123.7 C390.7,125.2 384.5,126.8 378.3,128.4 C369.5,130.4 360.6,132.3 351.8,134.4 C345.8,135.8 339.9,137.4 334,138.8 C333.1,138.9 332.1,138.9 331.2,139.1 C319.8,141.7 308.3,144.4 296.9,147.1 C290,148.7 283.2,150.6 276.4,152.3 C271,153.4 265.7,154.5 260.3,155.8 C253.8,157.3 247.3,158.9 240.6,160.5 C240.3,162.2 239.9,163.8 239.7,165.4 C237.6,179.3 235.5,193.2 233.5,207.1 C232.8,212 232.2,216.9 231.6,221.8 C231.3,223.5 230.9,225.2 230.7,226.9 C230.3,229.3 229.7,231.5 228.3,233.6 C220.8,244.4 213.5,255.2 206.1,266 C203.8,269.4 201.6,272.9 199.3,276.3 C198.7,277 198,277.7 197.5,278.4 C184.6,297.2 171.8,316 159,334.8 C158.6,335.4 158.3,336 157.9,336.6 C159.3,336.5 160.2,336.1 161.1,335.6 C166.9,332.5 172.6,329.4 178.4,326.3 L178.4,326.4 C179,326 179.5,325.7 180.1,325.3 C180.9,324.7 181.7,324.1 182.6,323.5 C183.1,323.1 183.7,322.8 184.2,322.4 C184.9,319.4 187.3,317.5 189.2,315.3 C194.8,308.9 200.7,302.7 206.4,296.3 C207.2,295.4 207.7,294.3 208.3,293.3 C211.4,290.2 214.4,287 217.5,283.9 C218,283.4 218.4,282.9 218.8,282.4 C223.4,277.5 227.9,272.7 232.5,267.9 C236.8,263.5 238.7,257.7 241.2,252.3 C241.8,251 242.3,249.6 242.9,248.3 C242,248.4 241.3,248.4 240.7,248.1 C241.3,248.3 242,248.4 242.9,248.3 C244.5,244.3 246.1,240.3 247.8,236.2 L260.7,206.5 C264.5,197.7 268.4,188.9 272.2,180.1 C274.3,175.2 276.4,170.3 278.4,165.4 C279,163.9 279.7,162.8 281.6,163 L283.2,163 C287,162.1 290.8,160.9 294.6,160.2 C303.9,158.4 313.3,156.7 322.6,155 C326.3,154.2 330,153.4 333.8,152.6 C334.4,152.5 335,152.1 335.5,151.8 C341.1,150.9 346.7,149.9 352.4,149 L365.3,146.9 C368.3,146.1 371.3,145.3 374.4,144.5 C375.9,144.1 377.5,143.9 379,143.6 C378.4,142.3 377.7,141.1 377.4,139.7 C377.7,141.1 378.4,142.3 379,143.6 C388.6,141.7 398.3,139.9 407.9,138 C423.7,134.9 439.4,131.7 455.2,128.5 C459.1,127.7 462.9,126.8 466.8,125.9 C466.7,123.8 466.2,121.8 465.5,119.9 C466.2,121.8 466.7,123.8 466.8,125.9 L470,125.9 C479.2,124 488.5,122.1 497.7,120.3 C502.1,119.4 506.6,118.7 511,117.8 C514.2,117.3 517.4,116.7 520.7,116.2 C524.7,115.3 528.6,114.4 532.6,113.6 C538.8,112.3 545.1,111 551.3,110 C560.2,108 569.1,106.2 578.1,104.4 C578.8,104.3 579.6,104.7 580.3,104.9 C582.2,103.9 584.1,102.8 586,101.8 C609,89.1 632,76.4 655,63.8 C654.3,63.2 653.7,63.3 653.1,63.5 L653.1,63.5 Z M511.1,109.8 C511.1,110 511.2,110.1 511.2,110.3 C511.2,110.1 511.2,109.9 511.1,109.8 L511.1,109.8 Z" id="Shape" fill="#F3C84C"></path>
                <path d="M1382.6,255.4 L1379.2,255.4 C1379.1,255 1378.8,254.6 1378.8,254.2 C1379.7,248.4 1380.6,242.6 1381.6,236.8 L1385.2,216.7 C1385.3,215.9 1385.3,215.1 1385.3,213.8 L1371.7,213.8 C1372,212.1 1372.3,211.1 1372.5,209.9 L1404.5,209.9 C1404.2,211.3 1404,212.3 1403.7,213.7 L1389.9,213.7 C1387.5,227.6 1385.1,241.3 1382.6,255.4 L1382.6,255.4 Z" id="Shape" fill="#FDC24D"></path>
                <path d="M352.5,42.9 C350.4,42.6 348.3,42.3 346.2,42.1 C348.3,42.3 350.4,42.6 352.5,42.9 L352.5,42.9 Z M358.2,43.7 C356.4,43.4 354.5,43.2 352.7,42.9 C354.5,43.2 356.3,43.4 358.2,43.7 L358.2,43.7 Z M346.1,42.1 C344.2,41.8 342.4,41.6 340.5,41.3 C342.4,41.5 344.3,41.8 346.1,42.1 L346.1,42.1 Z M124.6,11.4 C123,11.2 121.4,10.9 119.8,10.7 C121.4,11 123,11.2 124.6,11.4 L124.6,11.4 Z" id="Shape" fill="#656567"></path>
                <path d="M379,46.6 C377.7,46.4 376.5,46.3 375.2,46.1 C376.4,46.3 377.7,46.4 379,46.6 L379,46.6 Z" id="Shape" fill="#4C4A4B"></path>
                <path d="M339.2,41.2 C337.8,41 336.4,40.8 334.9,40.6 C336.3,40.7 337.7,41 339.2,41.2 L339.2,41.2 Z" id="Shape" fill="#514F50"></path>
                <polygon id="Shape" fill="#555555" points="286.8 33.9 282.6 33.3"></polygon>
                <polygon id="Shape" fill="#4C4A4B" points="385.8 47.6 381.6 47"></polygon>
                <path id="Shape" fill="#E9E6E0"></path>
                <path d="M323.7,122.4 C324.2,122.2 324.8,122.1 325.3,121.9 C324.7,122 324.2,122.2 323.7,122.4 L323.7,122.4 Z M334.1,120 C334.7,119.8 335.2,119.7 335.8,119.5 C335.2,119.6 334.7,119.8 334.1,120 L334.1,120 Z" id="Shape" fill="#514F50"></path>
                <path d="M376.8,110.3 C377.3,110.1 377.9,110 378.4,109.8 C377.9,110 377.4,110.1 376.8,110.3 L376.8,110.3 Z" id="Shape" fill="#4C4A4B"></path>
                <path d="M270.5,134.4 C271,134.2 271.6,134.1 272.1,133.9 C271.6,134.1 271,134.3 270.5,134.4 L270.5,134.4 Z" id="Shape" fill="#555555"></path>
                <path d="M116.7,52.5 C116.9,52.7 117.1,52.9 117.3,53 C117.1,52.9 116.9,52.7 116.7,52.5 L116.7,52.5 Z" id="Shape" fill="#656567"></path>
                <path d="M232.6,138.2 C232.8,138.4 233.1,138.5 233.3,138.7 C233,138.6 232.8,138.4 232.6,138.2 L232.6,138.2 Z" id="Shape" fill="#E9E6E0"></path>
                <polygon id="Shape" fill="#514F50" points="327.7 121.4 328.6 121.1"></polygon>
                <path id="Shape" fill="#555555"></path>
                <path d="M578.3,104.2 C569.4,106 560.5,107.8 551.5,109.7 C545.3,110.9 539,112.1 532.8,113.4 C528.8,114.2 524.9,115.2 520.9,116.1 C517.7,116.6 514.4,117.2 511.2,117.7 C506.8,118.5 502.3,119.3 497.9,120.2 C488.6,122 479.4,124 470.2,125.8 C470.1,125.9 470.1,126.1 470,126.2 C469.8,126.6 469.7,127.1 469.7,127.5 C469.8,127.1 469.9,126.6 470,126.2 C470.1,126.1 470.1,125.9 470.2,125.8 L467,125.8 C463.2,126.7 459.3,127.6 455.4,128.4 C439.6,131.6 423.9,134.7 408.1,137.9 C398.5,139.8 388.8,141.7 379.2,143.5 C377.6,143.8 376.1,144 374.6,144.4 C371.6,145.1 368.6,146 365.5,146.8 C366.1,147.5 366.5,148.3 366.8,149 C366.5,148.2 366.1,147.5 365.5,146.8 L352.6,148.9 C347,149.8 341.4,150.8 335.7,151.7 C335.1,152 334.6,152.4 334,152.5 C330.3,153.3 326.6,154.1 322.8,154.9 C313.5,156.6 304.1,158.3 294.8,160.1 C291,160.9 287.2,162 283.4,162.9 L281.8,162.9 C280,162.7 279.3,163.8 278.6,165.3 C276.6,170.2 274.5,175.1 272.4,180 C268.6,188.8 264.8,197.6 260.9,206.4 L248,236.1 C246.4,240.1 244.8,244.1 243.1,248.2 C242.5,249.5 242,250.9 241.4,252.2 C239,257.7 237,263.4 232.7,267.8 C228.1,272.6 223.5,277.5 219,282.3 C218.5,282.8 218.1,283.3 217.7,283.8 C214.6,286.9 211.6,290.1 208.5,293.2 C207.9,294.2 207.4,295.4 206.6,296.2 C200.9,302.5 195,308.8 189.4,315.2 C187.5,317.3 185.1,319.2 184.4,322.3 C186.3,321.4 188.3,320.6 190.2,319.6 C208.1,309.7 226.1,299.9 244,289.9 C253.8,284.5 263.4,278.7 273,273.1 C274,272.8 275.1,272.7 276,272.2 C281.9,269 287.7,265.8 293.6,262.5 C296.3,261 299,259.5 301.6,258 C305.5,255.8 309.4,253.6 313.3,251.3 C316.1,249.7 318.9,248.2 321.7,246.6 C323,246 324.4,245.5 325.7,244.8 C335.3,239.5 344.8,234.1 354.4,228.7 C354.9,228.5 355.4,228.4 355.9,228.2 C367.3,222 378.6,215.7 390,209.4 C393.2,207.6 396.3,205.5 399.5,203.6 C401.3,202.8 403.2,202.2 405,201.2 C423.3,191.2 441.6,181.1 459.8,171 C463.2,169.1 466.5,167.1 469.8,165.1 C471.1,164.4 472.3,163.7 473.6,163 C485.1,156.8 496.6,150.7 508.1,144.5 C513.6,141.5 519,138.3 524.4,135.2 C524.3,135.1 524.3,135 524.2,134.9 C524.3,135 524.3,135.1 524.4,135.2 C530.3,132.1 536.1,129 542,125.8 C554.9,118.7 567.8,111.5 580.7,104.4 C579.8,104.6 579,104.1 578.3,104.2 L578.3,104.2 Z M367.2,151.2 C367.2,150.6 367.1,150.1 367,149.6 C367.1,150.1 367.2,150.6 367.2,151.2 L367.2,151.2 Z" id="Shape" fill="#E79B34"></path>
                <path d="M182.7,323.6 C183.2,323.2 183.8,322.9 184.3,322.5 C183.8,322.8 183.2,323.2 182.7,323.6 L182.7,323.6 Z" id="Shape" fill="#E28C34"></path>
                <path d="M457.3,57.4 C459.2,57.7 461,57.9 462.9,58.2 C461.1,57.9 459.2,57.7 457.3,57.4 L457.3,57.4 Z M463,58.2 C464.9,58.5 466.7,58.7 468.6,59 C466.7,58.7 464.9,58.5 463,58.2 L463,58.2 Z" id="Shape" fill="#5A5A5B"></path>
            </g>
        </g>
    </g>
</svg>