<?xml version="1.0" encoding="UTF-8" standalone="no"?>
<svg width="383px" height="78px" viewBox="0 0 383 78" version="1.1" xmlns="http://www.w3.org/2000/svg" xmlns:xlink="http://www.w3.org/1999/xlink">
    <!-- Generator: Sketch 3.8.2 (29753) - http://www.bohemiancoding.com/sketch -->
    <title>Textmaster logo-vecto-1</title>
    <desc>Created with Sketch.</desc>
    <defs></defs>
    <g id="Page-1" stroke="none" stroke-width="1" fill="none" fill-rule="evenodd">
        <g id="Textmaster-logo-vecto-1" fill="#3D4C51">
            <g id="Logo_1_">
                <polygon id="Select" points="164.6 5.6 164.6 0.8 151 0.8 151 2.7 148.6 2.7 148.6 0.8 134.9 0.8 134.9 5.6 147.4 5.6 147.4 72.8 134.9 72.8 134.9 77.6 148.6 77.6 148.6 75.7 151 75.7 151 77.6 164.6 77.6 164.6 72.8 152.2 72.8 152.2 5.6"></polygon>
                <path d="M60.5,33.9 C55.5,33.9 52.8,36.7 52.3,42.1 L67.9,42.1 C68.3,36.7 65.8,33.9 60.5,33.9 L60.5,33.9 Z" id="Shape"></path>
                <path d="M133.4,7 L133.4,0.8 L0.2,0.8 L0.2,77.6 L133.4,77.6 L133.4,71.4 L145.9,71.4 L145.9,7 L133.4,7 L133.4,7 Z M31.7,64.4 L22.1,64.4 L22.1,21.2 L7.5,21.2 L7.5,13 L46.1,13 L46.1,21.2 L31.7,21.2 L31.7,64.4 L31.7,64.4 Z M76.8,48.8 L52.3,48.8 C52.3,53.8 56.6,56.5 64.8,56.5 C68.6,56.5 72.3,56 76.1,55.3 L76.1,63 C72.8,63.7 68.6,64.4 63.4,64.4 C49.8,64.4 43,57.5 43,44.7 C43,32.5 49.3,26.9 61.7,26.9 C74.1,27 79,33.9 76.8,48.8 L76.8,48.8 Z M118.1,64.4 L107.5,64.4 L98.7,52.7 L89.9,64.4 L79.3,64.4 L93.3,45.7 L79.3,27 L90,27 L98.8,38.7 L107.6,27 L118.2,27 L104.2,45.7 L118.1,64.4 L118.1,64.4 Z M139.7,33.9 L132,33.9 L132,51.2 C132,54.7 133.5,56.5 136.6,56.5 L139.7,56.5 L139.7,64.4 L132,64.4 C125.7,64.4 122.4,60.6 122.4,53.8 L122.4,20.4 L129.6,20.4 L131,26.9 L139.6,26.9 L139.7,33.9 L139.7,33.9 Z" id="Shape"></path>
                <g id="Master" transform="translate(159.000000, 13.000000)">
                    <path d="M27.2,38.9 L10,0.3 L0.2,0.3 L0.2,51.4 L9.1,51.4 L9.1,15.9 L23.3,51.4 L31.2,51.4 L45.1,15.9 L45.1,51.4 L53.7,51.4 L53.7,0.3 L44.3,0.3 L27.2,38.9 L27.2,38.9 Z M76.9,14 C72.8,14 68.7,14.5 64.7,15.7 L64.7,23.1 C68.7,21.9 72.9,21.4 76.9,21.4 C83.4,21.4 86.7,23.1 86.7,26.4 L86.7,28.8 C84.2,28.3 81.1,28.1 77.8,28.1 C67,28.1 61.7,31.9 61.7,39.6 C61.7,47.4 66.7,51.4 76.8,51.4 C80.5,51.4 83.9,50.5 87.1,48.8 L91.2,51.4 L96,51.4 L96,26.2 C96.1,18 89.7,14 76.9,14 L76.9,14 Z M86.8,40.8 C84.1,42.7 80.8,43.7 77,43.7 C73.2,43.7 71.2,42.2 71.2,39.4 C71.2,36.6 73.4,35.3 77.9,35.3 C81.3,35.3 84.4,35.5 86.8,36 L86.8,40.8 L86.8,40.8 Z M122.5,28.4 L116.5,28.4 C113.5,28.4 111.9,27.4 111.9,25 C111.9,22.4 114.5,20.9 119.6,20.9 C124.5,20.9 128.9,21.9 133,23.5 L133,15.6 C128.8,14.2 124.5,13.4 119.8,13.4 C108.7,13.4 103.2,17.3 103.2,25.2 C103.2,32.8 106.9,36.7 114.5,36.7 L121.2,36.7 C123.9,36.7 125.3,37.7 125.3,40.1 C125.3,42.7 123.4,44.2 119.3,44.2 C113.9,44.2 109.1,43.2 104.9,41.6 L104.9,49.5 C109.1,50.9 113.9,51.7 119.1,51.7 C129.7,51.7 134.9,47.8 134.9,39.9 C135,32.3 130.8,28.4 122.5,28.4 L122.5,28.4 Z M148.4,7.7 L141.4,7.7 L141.4,41.1 C141.4,47.8 144.5,51.4 150.8,51.4 L158.7,51.4 L158.7,43.7 L155.3,43.7 C152.3,43.7 151,41.9 151,38.4 L151,21.4 L158.7,21.4 L158.7,14 L149.8,14 L148.4,7.7 L148.4,7.7 Z M182,14 C169.6,14 163.5,20.1 163.5,32.2 C163.5,45 170.1,51.4 183.7,51.4 C188.9,51.4 193.4,50.9 196.7,50.2 L196.7,42.8 C192.9,43.5 189,43.8 185.2,43.8 C177,43.8 173,41.4 173,36.4 L197.5,36.4 C199.6,21.4 194.4,14 182,14 L182,14 Z M188.5,29.3 L172.9,29.3 C173.3,23.9 176.1,21.1 181.1,21.1 C186.4,21.2 188.9,23.9 188.5,29.3 L188.5,29.3 Z M213,18.5 L211.8,13.9 L204.6,13.9 L204.6,51.3 L214,51.3 L214,26.1 C216.8,22.9 219.8,21.3 223.4,21.3 L223.4,14 C219.7,14 216.3,15.3 213,18.5 L213,18.5 Z" id="Shape"></path>
                </g>
            </g>
        </g>
    </g>
</svg>