<?xml version="1.0" encoding="UTF-8" standalone="no"?>
<svg width="402px" height="114px" viewBox="0 0 402 114" version="1.1" xmlns="http://www.w3.org/2000/svg" xmlns:xlink="http://www.w3.org/1999/xlink">
    <!-- Generator: Sketch 3.8.2 (29753) - http://www.bohemiancoding.com/sketch -->
    <title>captain-train-color</title>
    <desc>Created with Sketch.</desc>
    <defs></defs>
    <g id="Page-1" stroke="none" stroke-width="1" fill="none" fill-rule="evenodd">
        <g id="captain-train-color" transform="translate(0.000000, -1.000000)">
            <g id="captain-train-color.svg">
                <path d="M184.581,37.019 C183.228,44.969 177.357,51.155 167.308,51.155 C156.123,51.155 147.998,43.68 147.998,32.347 C147.998,21.095 156.123,13.539 167.308,13.539 C177.318,13.539 183.182,19.749 184.567,27.595 L175.113,29.775 C174.308,24.953 171.734,22.381 167.39,22.381 C162.883,22.381 159.743,25.515 159.743,32.347 C159.743,39.179 162.883,42.314 167.39,42.314 C171.734,42.314 174.308,39.661 175.113,34.839 C175.113,34.839 184.585,37.005 184.581,37.019 L184.581,37.019 Z M211.155,34.356 L205.281,35.562 C201.66,36.285 199.407,37.17 199.407,39.983 C199.407,42.073 201.017,43.359 203.507,43.359 C207.771,43.359 211.151,40.144 211.151,35.079 L211.151,34.356 L211.155,34.356 Z M222.581,40.465 C222.581,42.313 223.387,43.118 224.834,43.118 C225.863179,43.1372084 226.882716,42.9167309 227.812,42.474 L227.812,48.663 C225.624343,50.2694683 222.959562,51.0926797 220.247,51 C215.983,51 212.847,48.749 211.799,44.73 C209.788,48.83 205.362,51 199.809,51 C192.649,51 188.143,47.382 188.143,41.274 C188.143,34.443 193.294,31.548 201.179,30.021 L211.155,28.254 L211.155,27.6 C211.155,24.225 209.466,22.215 205.926,22.215 C202.545,22.215 200.855,24.306 200.211,27.28 L189.43,26.48 C190.636,18.843 196.35,13.539 206.568,13.539 C215.902,13.539 222.581,17.718 222.581,27.444 L222.581,40.465 L222.581,40.465 Z M278.329,22.621 L273.342,22.621 L273.342,15.549 L275.916,15.149 C279.456,14.506 280.503,12.658 281.386,9.361 L282.594,4.62 L289.756,4.62 L289.756,14.5 L299.256,14.5 L299.256,22.618 L289.756,22.618 L289.756,37.488 C289.756,40.543 291.205,41.828 293.94,41.828 C295.951513,41.7609739 297.925945,41.2681328 299.733,40.382 L299.733,48.017 C297.08,50.027 294.022,51.152 289.354,51.152 C283.562,51.152 278.329,48.66 278.329,40.623 L278.329,22.623 L278.329,22.621 Z M325.959,34.356 L320.086,35.562 C316.463,36.285 314.212,37.17 314.212,39.983 C314.212,42.073 315.821,43.359 318.312,43.359 C322.576,43.359 325.955,40.144 325.955,35.079 L325.955,34.356 L325.959,34.356 Z M337.387,40.465 C337.387,42.313 338.193,43.118 339.638,43.118 C340.667168,43.1370985 341.686681,42.9166264 342.616,42.474 L342.616,48.663 C340.428521,50.2698212 337.763614,51.0930713 335.051,51 C330.788,51 327.651,48.749 326.604,44.73 C324.593,48.83 320.165,51 314.614,51 C307.452,51 302.947,47.382 302.947,41.274 C302.947,34.443 308.096,31.548 315.983,30.021 L325.959,28.254 L325.959,27.6 C325.959,24.225 324.27,22.215 320.73,22.215 C317.35,22.215 315.659,24.306 315.016,27.28 L304.232,26.48 C305.44,18.843 311.153,13.539 321.372,13.539 C330.706,13.539 337.387,17.718 337.387,27.444 L337.387,40.465 L337.387,40.465 Z M243.5,32.749 C243.5,38.536 246.8,42.149 251.627,42.149 C257.1,42.149 259.753,38.211 259.753,32.343 C259.753,26.556 257.1,22.617 251.627,22.617 C246.8,22.617 243.5,26.234 243.5,31.941 L243.5,32.741 L243.5,32.749 Z M243.5,63.797 L231.909,63.797 L231.909,14.5 L243.5,14.5 L243.5,20.93 C245.271,16.669 249.373,13.53 255.571,13.53 C266.03,13.53 271.503,21.889 271.503,32.338 C271.503,42.867 266.03,51.146 255.571,51.146 C249.371,51.146 245.271,48.011 243.5,43.831 L243.5,63.8 L243.5,63.797 Z M262.928,113.046 L251.337,113.046 L251.337,77.359 L262.924,77.359 L262.924,113.046 L262.928,113.046 Z M251.354,67.3 L262.908,63.847 L262.908,74.457 L251.354,74.457 L251.354,67.3 L251.354,67.3 Z M377.446,50.193 L365.86,50.193 L365.86,14.5 L377.446,14.5 L377.446,20.046 C379.379,16.107 383.722,13.535 389.116,13.535 C398.769,13.535 401.988,20.207 401.988,27.842 L401.988,50.187 L390.4,50.187 L390.4,30.659 C390.4,25.515 388.711,22.702 384.446,22.702 C379.777,22.702 377.446,26.402 377.446,32.026 L377.446,50.191 L377.446,50.193 Z M152.985,85.477 L148,85.477 L148,78.4 L150.574,78 C154.115,77.357 155.162,75.509 156.044,72.213 L157.252,67.471 L164.413,67.471 L164.413,77.357 L173.913,77.357 L173.913,85.475 L164.413,85.475 L164.413,100.344 C164.413,103.4 165.864,104.684 168.598,104.684 C170.609453,104.617377 172.5839,104.124873 174.391,103.239 L174.391,110.875 C171.736,112.883 168.679,114.008 164.01,114.008 C158.219,114.008 152.987,111.518 152.987,103.479 L152.987,85.479 L152.985,85.477 Z M205.362,88.693 C203.498227,87.6514615 201.38091,87.1503562 199.248,87.246 C194.42,87.246 191.2,89.979 191.2,96.167 L191.2,113.046 L179.613,113.046 L179.613,77.359 L191.2,77.359 L191.2,83.87 C192.566927,79.5211371 196.543057,76.5189586 201.1,76.395 C202.876625,76.3228289 204.628488,76.8307324 206.091,77.842 L205.362,88.693 Z M230.625,97.213 L224.752,98.413 C221.13,99.136 218.877,100.02 218.877,102.834 C218.877,104.924 220.487,106.21 222.983,106.21 C227.246,106.21 230.625,102.995 230.625,97.93 L230.625,97.208 L230.625,97.213 Z M242.053,103.32 C242.053,105.169 242.853,105.973 244.306,105.973 C245.334431,105.992246 246.353252,105.772117 247.282,105.33 L247.282,111.519 C245.093489,113.123267 242.428915,113.944654 239.717,113.851 C235.454,113.851 232.317,111.599 231.271,107.581 C229.259,111.681 224.832,113.851 219.279,113.851 C212.119,113.851 207.615,110.233 207.615,104.125 C207.615,97.293 212.764,94.399 220.649,92.871 L230.625,91.104 L230.625,90.46 C230.625,87.085 228.938,85.076 225.396,85.076 C222.017,85.076 220.325,87.166 219.683,90.139 L208.9,89.339 C210.108,81.703 215.821,76.399 226.04,76.399 C235.372,76.399 242.053,80.578 242.053,90.304 L242.053,103.324 L242.053,103.32 Z M282.114,113.046 L270.526,113.046 L270.526,77.359 L282.114,77.359 L282.114,82.905 C284.044,78.966 288.389,76.395 293.782,76.395 C303.436,76.395 306.656,83.067 306.656,90.702 L306.656,113.046 L295.07,113.046 L295.07,93.515 C295.07,88.371 293.38,85.558 289.115,85.558 C284.446,85.558 282.115,89.258 282.115,94.882 L282.115,113.046 L282.114,113.046 Z M358.3,50.191 L346.714,50.191 L346.714,14.5 L358.3,14.5 L358.3,50.187 L358.3,50.191 Z M346.729,4.442 L358.283,0.99 L358.283,11.6 L346.729,11.6 L346.729,4.443 L346.729,4.442 Z" id="Forme_4" fill="#1A2327"></path>
                <path d="M98.974,78.231 L109.392,67.818 L46.9,5.36 L36.482,15.774 L98.974,78.231 Z M62.487,114.656 L72.905,104.242 L10.417,41.785 L0,52.2 L62.487,114.656 Z" id="Forme_3" fill="#A0A0A0"></path>
                <polygon id="Forme_3_copie_2" fill="#4DB04F" points="80.685 96.49 91.1 86.077 28.591 23.6 18.173 34.015"></polygon>
                <path d="M36.442,104.264 L46.861,114.676 L109.35,52.219 L98.931,41.807 L36.442,104.264 Z M0,67.8 L10.419,78.212 L72.91,15.755 L62.491,5.343 L0,67.8 Z" id="Forme_3_copie" fill="#1B1C1F"></path>
            </g>
        </g>
    </g>
</svg>