<?xml version="1.0" encoding="UTF-8" standalone="no"?>
<svg width="935px" height="227px" viewBox="0 0 935 227" version="1.1" xmlns="http://www.w3.org/2000/svg" xmlns:xlink="http://www.w3.org/1999/xlink">
    <!-- Generator: Sketch 3.8.2 (29753) - http://www.bohemiancoding.com/sketch -->
    <title>bime-dark</title>
    <desc>Created with Sketch.</desc>
    <defs></defs>
    <g id="Page-1" stroke="none" stroke-width="1" fill="none" fill-rule="evenodd">
        <g id="bime-dark">
            <g id="Layer_1">
                <path d="M0,0.2 L35.4,0.2 L35.4,99.7 L36.3,99.7 C38.1,97.3 40.3,94.9 43.1,92.5 C45.9,90 49.2,87.7 53.1,85.6 C57,83.4 61.6,81.7 66.7,80.3 C71.8,78.9 77.7,78.2 84.4,78.2 C94.4,78.2 103.7,80.1 112.2,84 C120.7,87.8 127.9,93.1 133.9,99.8 C139.9,106.5 144.6,114.4 147.9,123.4 C151.2,132.5 152.9,142.2 152.9,152.6 C152.9,163 151.3,172.8 148.2,181.8 C145,190.9 140.4,198.7 134.3,205.4 C128.2,212.1 120.8,217.4 112.2,221.2 C103.5,225 93.8,227 83,227 C73,227 63.6,225 55,221.1 C46.3,217.2 39.4,210.9 34.3,202.2 L33.7,202.2 L33.7,223.5 L0,223.5 L0,0.2 L0,0.2 Z M117.5,152.5 C117.5,147 116.6,141.7 114.7,136.6 C112.8,131.5 110.1,127 106.4,123 C102.8,119.1 98.4,115.9 93.3,113.6 C88.2,111.2 82.4,110.1 75.9,110.1 C69.4,110.1 63.6,111.3 58.5,113.6 C53.4,116 49,119.1 45.4,123 C41.8,126.9 39,131.5 37.1,136.6 C35.2,141.7 34.3,147 34.3,152.5 C34.3,158 35.2,163.3 37.1,168.4 C39,173.5 41.7,178 45.4,182 C49,185.9 53.4,189.1 58.5,191.4 C63.6,193.8 69.4,194.9 75.9,194.9 C82.4,194.9 88.2,193.7 93.3,191.4 C98.4,189 102.8,185.9 106.4,182 C110,178.1 112.8,173.5 114.7,168.4 C116.5,163.4 117.5,158.1 117.5,152.5 L117.5,152.5 Z M176.8,33.6 C176.8,27.9 178.9,22.9 183.1,18.7 C187.3,14.5 192.7,12.4 199.2,12.4 C205.7,12.4 211.2,14.4 215.6,18.5 C220,22.5 222.2,27.6 222.2,33.7 C222.2,39.8 220,44.9 215.6,48.9 C211.2,52.9 205.7,55 199.2,55 C192.7,55 187.3,52.9 183.1,48.7 C178.9,44.2 176.8,39.3 176.8,33.6 L176.8,33.6 Z M181.8,81.7 L217.2,81.7 L217.2,223.4 L181.8,223.4 L181.8,81.7 L181.8,81.7 L181.8,81.7 Z M251.8,81.7 L285.5,81.7 L285.5,103.8 L286.1,103.8 C289.2,97.1 294.3,91.2 301.3,85.9 C308.3,80.7 317.7,78.1 329.5,78.1 C351.7,78.1 366.5,86.9 373.8,104.4 C378.9,95.3 385.3,88.7 393,84.5 C400.7,80.3 409.8,78.2 420.5,78.2 C429.9,78.2 437.9,79.8 444.4,82.9 C450.9,86.1 456.2,90.4 460.2,95.9 C464.2,101.4 467.1,107.9 468.9,115.2 C470.7,122.5 471.6,130.5 471.6,139 L471.6,223.4 L436.2,223.4 L436.2,143.1 C436.2,138.8 435.8,134.6 435,130.6 C434.2,126.6 432.8,123 430.9,120 C428.9,117 426.3,114.5 422.9,112.8 C419.6,111 415.2,110.1 409.9,110.1 C404.4,110.1 399.7,111.1 395.9,113.2 C392.1,115.3 388.9,118 386.5,121.5 C384,124.9 382.3,128.9 381.2,133.3 C380.1,137.7 379.6,142.2 379.6,146.7 L379.6,223.5 L343.9,223.5 L343.9,139.1 C343.9,130.2 342,123.2 338.3,118 C334.6,112.8 328.4,110.2 319.7,110.2 C313.8,110.2 308.8,111.2 304.8,113.2 C300.8,115.2 297.4,117.8 294.8,121.2 C292.1,124.5 290.2,128.4 289,132.7 C287.8,137 287.2,141.6 287.2,146.3 L287.2,223.7 L251.8,223.7 L251.8,81.7 L251.8,81.7 L251.8,81.7 Z M533.8,165 C535,175.6 539.1,183.9 546.2,189.8 C553.3,195.7 561.8,198.7 571.9,198.7 C580.8,198.7 588.2,196.9 594.2,193.2 C600.2,189.6 605.5,185 610,179.5 L635.4,198.7 C627.1,208.9 617.9,216.2 607.6,220.5 C597.4,224.8 586.6,227 575.4,227 C564.8,227 554.7,225.2 545.3,221.7 C535.9,218.2 527.7,213.1 520.8,206.6 C513.9,200.1 508.4,192.3 504.4,183.1 C500.4,173.9 498.3,163.8 498.3,152.5 C498.3,141.3 500.3,131.1 504.4,121.9 C508.4,112.7 513.9,104.9 520.8,98.4 C527.7,91.9 535.9,86.9 545.3,83.3 C554.7,79.7 564.8,78 575.4,78 C585.2,78 594.2,79.7 602.4,83.2 C610.6,86.6 617.6,91.6 623.4,98.1 C629.2,104.6 633.7,112.6 637,122.2 C640.2,131.7 641.9,142.7 641.9,155.1 L641.9,164.8 L533.8,164.8 L533.8,165 L533.8,165 L533.8,165 Z M606.4,138.4 C606.2,128 603,119.8 596.7,113.7 C590.4,107.7 581.6,104.7 570.4,104.7 C559.8,104.7 551.4,107.8 545.2,113.9 C539,120 535.2,128.2 533.8,138.4 L606.4,138.4 L606.4,138.4 L606.4,138.4 Z" id="Shape" fill="#2E3240"></path>
                <path d="M929.6,223.6 L872.3,223.6 C869.5,223.6 867.3,221.4 867.3,218.6 L867.3,5 C867.3,2.2 869.5,0 872.3,0 L929.6,0 C932.4,0 934.6,2.2 934.6,5 L934.6,218.5 C934.6,221.3 932.3,223.6 929.6,223.6 L929.6,223.6 Z" id="Shape" fill="#1ECE6D"></path>
                <path d="M841,223.5 L782.4,223.5 C780,223.5 778,221.5 778,219.1 L778,56.6 C778,54.2 780,52.2 782.4,52.2 L841,52.2 C843.4,52.2 845.4,54.2 845.4,56.6 L845.4,219.2 C845.4,221.6 843.4,223.5 841,223.5 L841,223.5 L841,223.5 Z" id="Shape" fill="#FF004E"></path>
                <path d="M752.6,223.5 L692.6,223.5 C690.6,223.5 688.9,221.9 688.9,219.8 L688.9,106.8 C688.9,104.8 690.5,103.1 692.6,103.1 L752.6,103.1 C754.6,103.1 756.3,104.7 756.3,106.8 L756.3,219.8 C756.2,221.9 754.6,223.5 752.6,223.5 L752.6,223.5 Z" id="Shape" fill="#00B4FF"></path>
            </g>
        </g>
    </g>
</svg>