<?xml version="1.0" encoding="UTF-8"?> <svg xmlns="http://www.w3.org/2000/svg" xmlns:xlink="http://www.w3.org/1999/xlink" width="58px" height="22px" viewBox="0 0 58 22"> <!-- Generator: Sketch 45.2 (43514) - http://www.bohemiancoding.com/sketch --> <title>hull</title> <desc>Created with Sketch.</desc> <defs></defs> <g id="Page-1" stroke="none" stroke-width="1" fill="none" fill-rule="evenodd"> <g id="hull" transform="translate(0.484662, 0.323809)"> <path d="M7.98435404,0.0149230153 C7.1883397,3.48487177 6.39232535,6.95487203 5.59662008,10.4249238 C5.57606681,10.5147607 5.55984054,10.6055763 5.52646079,10.7707751 C5.6234063,10.6450859 5.67476373,10.5801293 5.72436975,10.5138335 C6.29280424,9.75495924 6.96730187,9.11533521 7.82131868,8.68711627 C9.94500232,7.62220949 12.2507807,8.77782884 12.6742606,11.1132782 C12.852595,12.0967445 12.7520951,13.0627483 12.4928354,14.0174195 C12.1556381,15.2592184 11.8011843,16.4963812 11.4770711,17.7415283 C11.4007303,18.0347344 11.3746138,18.3550873 11.3982578,18.6572564 C11.4420429,19.2164188 11.9529386,19.4834568 12.4231398,19.1761364 C12.6846145,19.0051682 12.9092066,18.739212 13.0749206,18.4697014 C13.3109484,18.0856797 13.4775896,17.6589546 13.6884796,17.2200727 C14.0827006,17.3716724 14.4873271,17.5273416 14.889481,17.682032 C14.8974653,17.7179358 14.9127644,17.7449281 14.906789,17.7658934 C14.6172403,18.7751158 14.2120472,19.7249964 13.4542547,20.4817586 C12.4560559,21.4784635 10.7686271,21.7420502 9.51518651,21.0922784 C8.5130213,20.5727802 8.15290118,19.6774508 8.16959105,18.6135228 C8.17721482,18.129877 8.25391613,17.6371135 8.37388749,17.1675305 C8.6667845,16.0208227 9.02731672,14.8911139 9.30991134,13.7420881 C9.42030148,13.2933159 9.45419635,12.8064763 9.41788041,12.3452897 C9.3583841,11.5909486 8.81127556,11.0780955 8.06120988,10.9846528 C7.10386008,10.8654541 6.32092978,11.1806043 5.74281103,11.9629164 C5.32123714,12.5334114 5.10334154,13.1918888 4.94478772,13.873186 C4.39654592,16.2293947 3.84691329,18.5853457 3.30660432,20.9434088 C3.26178892,21.1389997 3.19018729,21.2073046 2.98563329,21.2042654 C1.99057673,21.1894299 0.995211097,21.1907692 0,21.1863392 L0,20.9802914 C0.0338433587,20.9058051 0.0815434351,20.8345125 0.0995211097,20.7563689 C1.43759582,14.9412865 2.77340401,9.1256376 4.10874859,3.30983412 C4.1540276,3.11280087 4.19286762,2.91422226 4.24458563,2.66969498 L1.88286522,2.66969498 C2.12182921,1.7538123 2.3487394,0.884341902 2.57559808,0.0149230153 L7.98435404,0.0149230153 Z" id="Fill-1" fill="#393939"></path> <path d="M56.6631577,0.117946938 C56.4995042,0.791929443 56.3297208,1.46457264 56.1732789,2.14020352 C55.0041635,7.18935448 53.835357,12.2386085 52.6747926,17.2897169 C52.5831528,17.6886255 52.5316408,18.1006182 52.5057303,18.5093141 C52.4883708,18.7829456 52.5393161,19.0785213 52.8299981,19.2163157 C53.1318582,19.3594675 53.4586501,19.3300026 53.7061135,19.1202459 C53.9494045,18.913992 54.168794,18.6587503 54.3333747,18.3855823 C54.5486947,18.0282439 54.6998308,17.6322714 54.894752,17.2185273 C55.2956696,17.3729087 55.7065806,17.5310504 56.147935,17.7009884 C55.7426389,18.9693674 55.2914457,20.1931886 54.1089371,20.9225464 C53.0376943,21.5832904 51.8724937,21.6168247 50.7206348,21.1469841 C49.8479191,20.7909849 49.4730666,20.039889 49.3491803,19.1438899 C49.2498653,18.4255556 49.3572162,17.7237052 49.5188092,17.0259241 C50.6027754,12.3446201 51.686175,7.6631615 52.7691625,2.9815999 C52.7897157,2.89289631 52.80383,2.80264735 52.8269074,2.68164575 L50.476056,2.68164575 C50.7069841,1.76983252 50.9292067,0.892377768 51.1513778,0.0149230153 C52.9285405,0.0149230153 54.7057031,0.0139957999 56.4828658,0.0186833884 C56.5456074,0.0188894363 56.6874713,-0.0640448218 56.6631577,0.117946938" id="Fill-3" fill="#393939"></path> <path d="M48.3182199,0.0149230153 C47.9658266,1.55343077 47.6152877,3.09240213 47.2607824,4.63039477 C46.2681469,8.93586754 45.2705662,13.240207 44.2864817,17.5476373 C44.2054019,17.9024517 44.1682618,18.2796738 44.1881454,18.6422149 C44.2179193,19.1859237 44.5771637,19.4022224 45.1043886,19.2533013 C45.4198479,19.1641856 45.6563908,18.9563349 45.8109782,18.685691 C46.0483453,18.2702471 46.2459452,17.8320348 46.4596683,17.4030947 C46.485991,17.3502949 46.507729,17.2951771 46.544354,17.2121914 C46.9650522,17.374145 47.3764267,17.5325443 47.8102605,17.6995976 C47.4468436,18.8742763 47.0302148,20.001358 46.0231045,20.7490542 C44.8769633,21.5999287 43.5966335,21.661331 42.3136251,21.1095864 C41.4384884,20.73324 41.1002608,19.9417587 41.0036244,19.0372087 C40.9239869,18.2920366 41.0569393,17.567933 41.2247653,16.8454777 C42.2983776,12.2241851 43.3674568,7.60175925 44.4374118,2.97953943 C44.4566257,2.89665668 44.4692461,2.81228009 44.4920659,2.69060883 L42.1401843,2.69060883 C42.1700613,2.55951089 42.1877814,2.47070427 42.2105497,2.38318545 C42.3942413,1.67747157 42.5795814,0.972169796 42.7623458,0.266146852 C42.7835687,0.184088297 42.7920682,0.0987329767 42.80644,0.0149230153 L48.3182199,0.0149230153 Z" id="Fill-5" fill="#393939"></path> <path d="M28.4085944,21.7395365 C28.3548159,21.5159745 28.3030979,21.2918975 28.2468468,21.0689022 C27.9499834,19.8932447 27.2388092,19.0762135 26.074948,18.7326287 C25.2382392,18.4855774 24.3751563,18.322542 23.5178942,18.1519859 C22.507178,17.9509347 21.4941953,17.7663158 20.5317973,17.3808518 C18.2361152,16.4612603 17.0436133,14.7296342 16.7951196,12.3041935 C16.7225908,11.595904 16.7512314,10.8904477 16.8970618,10.1834975 C16.9468739,10.4416755 16.9799445,10.704438 17.0497433,10.9571557 C17.2298291,11.6095032 17.3849316,12.2730803 17.6245137,12.9037927 C18.1257251,14.2230141 19.0455742,15.185309 20.3710285,15.6671004 C21.4075522,16.0439104 22.4904881,16.2933828 23.5535405,16.5969943 C24.1226962,16.7595146 24.7021542,16.890767 25.2615741,17.0814128 C26.7779317,17.5982323 27.9995379,18.4370531 28.4110669,20.1684731 C28.4547491,20.0652432 28.4828231,20.0156887 28.4972465,19.9624768 C28.7728355,18.9464034 29.3957696,18.2021586 30.2892961,17.6697824 C31.1485671,17.157805 32.0999931,16.8965879 33.0583216,16.6529878 C33.96452,16.4225233 34.8758181,16.2088002 35.7735171,15.9483557 C37.7872227,15.3640555 39.0302063,14.020469 39.556298,12.0044969 C39.7118641,11.408452 39.8367291,10.8044227 40.0056368,10.194109 C40.0210904,10.3110927 40.0406134,10.4277158 40.0512764,10.545163 C40.1774807,11.9351618 40.062506,13.2912142 39.4527074,14.5702047 C38.7538961,16.0360806 37.5770539,16.9817887 36.0634779,17.4630134 C34.9967682,17.8022197 33.8831311,17.9946684 32.7889655,18.2460983 C32.295687,18.3594246 31.7974118,18.4507038 31.3038242,18.5625362 C29.6908301,18.9279621 28.7611938,19.937339 28.4910135,21.5633656 C28.4814838,21.6208014 28.4659787,21.677207 28.4532552,21.7341277 L28.4085944,21.7395365 Z" id="Fill-7" fill="#393939"></path> <path d="M28.3953146,17.3752061 C28.3716706,17.2896963 28.3451419,17.2048046 28.3248462,17.1185735 C28.1258555,16.2739319 27.613157,15.7149756 26.7759331,15.4927015 C26.1881301,15.3367233 25.5833796,15.2457531 24.9913527,15.1040953 C24.4248756,14.9685158 23.847169,14.8518412 23.3057783,14.6447116 C21.7768517,14.0599993 21.0041723,12.891502 20.8663778,11.287368 C20.8317618,10.8842869 20.8612266,10.475694 20.8612266,10.0696252 C20.8895067,10.0666375 20.9177352,10.0637013 20.9460153,10.0607136 C20.9666716,10.1544654 20.9841342,10.2490414 21.0085508,10.3417629 C21.1132746,10.7397443 21.1994541,11.1440617 21.33014,11.5334406 C21.6780518,12.5699643 22.3805204,13.2786659 23.4148806,13.6220446 C24.0733065,13.8406099 24.7571278,13.9813405 25.4225078,14.1805888 C25.9472086,14.3377518 26.4764425,14.4962541 26.976057,14.7166738 C27.6472064,15.012713 28.1228678,15.520518 28.3523536,16.2346283 C28.3648195,16.2734683 28.3867121,16.3092691 28.4173617,16.3743287 C28.4557381,16.3100418 28.4888088,16.2721805 28.5031806,16.2281893 C28.7511592,15.4651941 29.2777145,14.9473959 29.9996546,14.6575896 C30.5861183,14.4222314 31.2045709,14.2644503 31.8127211,14.0854977 C32.3146022,13.9377614 32.8278159,13.8270107 33.3260911,13.6687144 C34.4940733,13.2975708 35.2498568,12.5083045 35.5981807,11.3369225 C35.7274757,10.9021615 35.8231849,10.4574588 35.9355325,10.0122409 C35.942023,10.0206373 35.9621642,10.0346486 35.9639671,10.0506688 C36.1123731,11.3590726 35.946453,12.5894873 35.0522054,13.6306471 C34.5859706,14.1734802 33.9909559,14.5445723 33.312904,14.7331061 C32.4878884,14.9624889 31.641959,15.1162006 30.8061259,15.3072584 C30.5386758,15.3684031 30.2714833,15.4339263 30.0095964,15.5149547 C29.2417076,15.7524763 28.7569286,16.2654324 28.5528897,17.0434176 C28.5235794,17.1549925 28.491951,17.2659493 28.461456,17.3772151 C28.4393573,17.3765454 28.4173617,17.3759273 28.3953146,17.3752061" id="Fill-9" fill="#8B8B8B"></path> </g> </g> </svg> 