<?xml version="1.0" encoding="UTF-8"?> <svg xmlns="http://www.w3.org/2000/svg" xmlns:xlink="http://www.w3.org/1999/xlink" width="549px" height="80px" viewBox="0 0 549 80"> <!-- Generator: Sketch 45.2 (43514) - http://www.bohemiancoding.com/sketch --> <title>pandascore</title> <desc>Created with Sketch.</desc> <defs></defs> <g id="Page-1" stroke="none" stroke-width="1" fill="none" fill-rule="evenodd"> <g id="pandascore" transform="translate(0.679311, 0.275674)"> <path d="M21.9578165,36.6304087 C24.0773645,36.6304087 26.095621,36.4761049 28.0116394,36.1684438 C29.9257644,35.8607828 31.6363599,35.3136194 33.1415324,34.5269538 C34.6457583,33.7412348 35.8432698,32.6639478 36.7331202,31.2950928 C37.6210773,29.9271844 38.0669492,28.1493769 38.0669492,25.9597768 C38.0669492,23.8402288 37.6210773,22.1116471 36.7331202,20.7778181 C35.8432698,19.4439891 34.662798,18.4017281 33.1926515,17.6481952 C31.7206117,16.8965556 30.0459889,16.4005113 28.1649966,16.1600624 C26.2830576,15.9215067 24.3509462,15.8012822 22.3686624,15.8012822 L12.9286747,15.8012822 L12.9286747,36.6304087 L21.9578165,36.6304087 Z M0.000283994816,4.92522743 L23.7015447,4.92522743 C27.8734286,4.92522743 31.6363599,5.30199389 34.9884454,6.0536335 C38.3395842,6.80716642 41.2117184,8.03875727 43.607688,9.74745941 C46.0008177,11.4580549 47.8477306,13.6467082 49.1484269,16.3143662 C50.4462832,18.9820242 51.097578,22.1977922 51.097578,25.9597768 C51.097578,29.9962898 50.3440451,33.3824547 48.8398192,36.1173248 C47.3346467,38.8540881 45.3002971,41.0597812 42.7348773,42.7353506 C40.1704041,44.4118667 37.1770987,45.6254712 33.7568545,46.3780575 C30.3366103,47.1315904 26.7109431,47.5064635 22.8817463,47.5064635 L12.9286747,47.5064635 L12.9286747,77.5701548 L0.000283994816,77.5701548 L0.000283994816,4.92522743 Z" id="Fill-1" fill="#000000"></path> <path d="M86.5975927,55.0998223 L83.8276966,55.0998223 C81.8425728,55.0998223 79.7561575,55.1859674 77.5684508,55.3563642 C75.3779041,55.5267611 73.3615409,55.9044742 71.514628,56.4847703 C69.667715,57.066013 68.1284631,57.8867581 66.8968723,58.9470054 C65.6662281,60.009146 65.050906,61.4603595 65.050906,63.3072725 C65.050906,64.4716512 65.3074479,65.4467001 65.8195853,66.2324191 C66.3326692,67.0190847 67.000057,67.6523931 67.8208021,68.1304511 C68.6415471,68.6094557 69.5654769,68.9511961 70.5906982,69.156619 C71.6168661,69.3610953 72.643034,69.4642801 73.669202,69.4642801 C77.9101912,69.4642801 81.1240659,68.3349274 83.3146126,66.0781152 C85.5023193,63.8203564 86.5975927,60.7427993 86.5975927,56.8435504 L86.5975927,55.0998223 Z M86.8030156,71.311193 L86.4953545,71.311193 C85.2637637,73.5007931 83.2786399,75.2965869 80.5437698,76.697628 C77.8070065,78.0986691 74.6953699,78.801083 71.2069669,78.801083 C69.2218432,78.801083 67.1534142,78.544541 64.9997869,78.031457 C62.8442662,77.5193197 60.8600891,76.6635487 59.0482022,75.4669838 C57.234422,74.270419 55.7292494,72.6961411 54.5336313,70.7460433 C53.3361198,68.7968923 52.7378374,66.3857763 52.7378374,63.5126954 C52.7378374,59.8188695 53.7800984,56.8785765 55.8674603,54.6889764 C57.9529289,52.500323 60.6385732,50.8247536 63.9215532,49.6613215 C67.20548,48.4988361 70.8472402,47.7292101 74.8496738,47.3524437 C78.8511607,46.9775705 82.7665026,46.7882406 86.5975927,46.7882406 L86.5975927,45.5566498 C86.5975927,42.478146 85.4852796,40.2052408 83.2634935,38.733201 C81.0388675,37.2640012 78.3891958,36.5275079 75.310692,36.5275079 C72.7111928,36.5275079 70.2139317,37.0756179 67.8208021,38.168998 C65.4257791,39.2642713 63.4425487,40.5981003 61.8692174,42.1704849 L55.5086801,34.680595 C58.3126556,32.0820424 61.5445166,30.1319447 65.2042632,28.8321951 C68.863063,27.5333921 72.5748753,26.883044 76.33686,26.883044 C80.7141667,26.883044 84.3227942,27.4983661 87.1617957,28.7299569 C89.9998506,29.9606011 92.2405697,31.5689584 93.8830064,33.5521889 C95.5244964,35.536366 96.6689955,37.7590988 97.3202903,40.2213338 C97.9696918,42.6835689 98.2943925,45.1467506 98.2943925,47.6089857 L98.2943925,77.5694921 L86.8030156,77.5694921 L86.8030156,71.311193 Z" id="Fill-3" fill="#000000"></path> <path d="M112.657714,28.3191111 L124.354514,28.3191111 L124.354514,36.2198469 L124.559937,36.2198469 C125.653317,33.7576118 127.551349,31.5869448 130.25498,29.7040591 C132.95577,27.8240135 136.154499,26.883044 139.848325,26.883044 C143.063146,26.883044 145.815056,27.447247 148.107841,28.5756531 C150.398732,29.7040591 152.279724,31.192192 153.751764,33.0391049 C155.220964,34.8860179 156.299198,37.0074592 156.983625,39.4005888 C157.666159,41.7956118 158.009793,44.2578468 158.009793,46.7882406 L158.009793,77.5694921 L145.696725,77.5694921 L145.696725,50.2766436 C145.696725,48.8405765 145.594486,47.3363506 145.389064,45.7620727 C145.183641,44.1896881 144.737769,42.7706606 144.055235,41.5040438 C143.370807,40.2393202 142.429838,39.1951659 141.233273,38.3744209 C140.035761,37.5536759 138.44539,37.14283 136.46216,37.14283 C134.477983,37.14283 132.768334,37.5375828 131.332267,38.3233018 C129.895253,39.1099675 128.715728,40.1190957 127.791798,41.3506866 C126.868815,42.5813308 126.166401,44.0013048 125.68929,45.6087155 C125.209339,47.2161262 124.970783,48.8405765 124.970783,50.4820666 L124.970783,77.5694921 L112.657714,77.5694921 L112.657714,28.3191111 Z" id="Fill-5" fill="#000000"></path> <path d="M181.915246,52.738784 C181.915246,54.6548024 182.205868,56.5717674 182.78711,58.4849458 C183.368353,60.4009642 184.240217,62.1115596 185.404596,63.6148388 C186.566135,65.120958 188.036281,66.3525489 189.815982,67.3096114 C191.59379,68.2676206 193.680205,68.7456785 196.075228,68.7456785 C198.33204,68.7456785 200.34935,68.2837136 202.129051,67.3607305 C203.906858,66.4377473 205.428124,65.2231961 206.694741,63.7180236 C207.959464,62.2147444 208.916527,60.5211886 209.567821,58.638303 C210.216276,56.7582573 210.541924,54.8602253 210.541924,52.9442069 C210.541924,51.0300819 210.216276,49.1150102 209.567821,47.1980452 C208.916527,45.2839201 207.959464,43.5733247 206.694741,42.0681521 C205.428124,40.5648729 203.906858,39.3332821 202.129051,38.3743262 C200.34935,37.4172637 198.33204,36.9382591 196.075228,36.9382591 C193.680205,36.9382591 191.59379,37.3992774 189.815982,38.3232072 C188.036281,39.247137 186.566135,40.4616881 185.404596,41.965914 C184.240217,43.4710865 183.368353,45.1646423 182.78711,47.044688 C182.205868,48.9266269 181.915246,50.8256056 181.915246,52.738784 L181.915246,52.738784 Z M222.444146,77.5693975 L210.747347,77.5693975 L210.747347,70.1826923 L210.541924,70.1826923 C208.832275,73.0548265 206.454292,75.2444266 203.41176,76.7486524 C200.366389,78.2528783 197.101396,79.0064112 193.612046,79.0064112 C189.850061,79.0064112 186.480936,78.3039974 183.505617,76.9029563 C180.530298,75.5019152 177.998958,73.6199762 175.913489,71.2590326 C173.826127,68.8990357 172.218716,66.1300863 171.09031,62.9483977 C169.961904,59.7686024 169.397701,56.3663445 169.397701,52.738784 C169.397701,49.1150102 169.977997,45.7288453 171.142376,42.5812361 C172.303915,39.4355202 173.946352,36.6997035 176.066846,34.3728393 C178.186394,32.048815 180.717735,30.2170484 183.659921,28.8832195 C186.600214,27.5503371 189.815982,26.8829493 193.304385,26.8829493 C195.562144,26.8829493 197.578507,27.1394913 199.358208,27.6525753 C201.136015,28.1656592 202.693254,28.798021 204.027083,29.5506073 C205.360912,30.3041402 206.505411,31.1248852 207.464366,32.0128423 C208.421429,32.9026928 209.209041,33.7575172 209.824363,34.5782622 L210.132024,34.5782622 L210.132024,0 L222.444146,0 L222.444146,77.5693975 Z" id="Fill-7" fill="#000000"></path> <path d="M267.794521,55.0998223 L265.024625,55.0998223 C263.039501,55.0998223 260.953086,55.1859674 258.765379,55.3563642 C256.574833,55.5267611 254.55847,55.9044742 252.711557,56.4847703 C250.864644,57.066013 249.325392,57.8867581 248.093801,58.9470054 C246.863157,60.009146 246.247835,61.4603595 246.247835,63.3072725 C246.247835,64.4716512 246.504377,65.4467001 247.016514,66.2324191 C247.529598,67.0190847 248.196986,67.6523931 249.017731,68.1304511 C249.838476,68.6094557 250.762406,68.9511961 251.787627,69.156619 C252.813795,69.3610953 253.839963,69.4642801 254.866131,69.4642801 C259.10712,69.4642801 262.320995,68.3349274 264.511541,66.0781152 C266.699248,63.8203564 267.794521,60.7427993 267.794521,56.8435504 L267.794521,55.0998223 Z M267.999944,71.311193 L267.692283,71.311193 C266.460692,73.5007931 264.475569,75.2965869 261.740698,76.697628 C259.003935,78.0986691 255.892299,78.801083 252.403896,78.801083 C250.418772,78.801083 248.350343,78.544541 246.196716,78.031457 C244.041195,77.5193197 242.057018,76.6635487 240.245131,75.4669838 C238.431351,74.270419 236.926178,72.6961411 235.73056,70.7460433 C234.533048,68.7968923 233.934766,66.3857763 233.934766,63.5126954 C233.934766,59.8188695 234.977027,56.8785765 237.064389,54.6889764 C239.149857,52.500323 241.835502,50.8247536 245.118482,49.6613215 C248.402409,48.4988361 252.044169,47.7292101 256.046602,47.3524437 C260.048089,46.9775705 263.963431,46.7882406 267.794521,46.7882406 L267.794521,45.5566498 C267.794521,42.478146 266.682208,40.2052408 264.460422,38.733201 C262.235796,37.2640012 259.586124,36.5275079 256.507621,36.5275079 C253.908121,36.5275079 251.41086,37.0756179 249.017731,38.168998 C246.622708,39.2642713 244.639477,40.5981003 243.066146,42.1704849 L236.705609,34.680595 C239.509584,32.0820424 242.741445,30.1319447 246.401192,28.8321951 C250.059992,27.5333921 253.771804,26.883044 257.533789,26.883044 C261.911095,26.883044 265.519723,27.4983661 268.358724,28.7299569 C271.195833,29.9606011 273.436552,31.5689584 275.078988,33.5521889 C276.720478,35.536366 277.864977,37.7590988 278.516272,40.2213338 C279.16662,42.6835689 279.492268,45.1467506 279.492268,47.6089857 L279.492268,77.5694921 L267.999944,77.5694921 L267.999944,71.311193 Z" id="Fill-9" fill="#000000"></path> <path d="M331.510746,20.1108089 C330.141891,18.3330014 328.210727,16.8448685 325.713465,15.6473571 C323.215258,14.4517389 320.701904,13.8515632 318.172456,13.8515632 C316.666337,13.8515632 315.161165,14.040893 313.657885,14.4157662 C312.152713,14.7925327 310.783858,15.374722 309.55416,16.160441 C308.32257,16.9480533 307.312495,17.9742213 306.525829,19.2389448 C305.739163,20.5055617 305.346304,22.0268273 305.346304,23.8046348 C305.346304,25.4461249 305.688044,26.8490593 306.372472,28.0115447 C307.055953,29.1749768 307.996922,30.1661187 309.194434,30.9868637 C310.390052,31.8076087 311.845052,32.5261156 313.554701,33.1414377 C315.264349,33.7577065 317.146288,34.3730286 319.198624,34.9883507 C321.522649,35.7418836 323.933765,36.596708 326.431972,37.5537705 C328.92734,38.5127264 331.219178,39.7774499 333.30654,41.3507812 C335.392955,42.9250592 337.102604,44.907343 338.436433,47.3014193 C339.771209,49.6964422 340.43765,52.6717612 340.43765,56.2273763 C340.43765,60.1266252 339.719143,63.5307764 338.283076,66.4379366 C336.847009,69.3460436 334.930044,71.7571596 332.536914,73.670338 C330.141891,75.587303 327.337916,77.0233701 324.123094,77.9804326 C320.907326,78.9374952 317.522108,79.4164997 313.965547,79.4164997 C309.245553,79.4164997 304.628744,78.5446357 300.114173,76.8009075 C295.598655,75.0562327 291.904829,72.4747198 289.032695,69.0535289 L298.26726,60.4352329 C300.045067,62.8965213 302.422104,64.846619 305.39837,66.2826861 C308.373689,67.7196999 311.296942,68.4382068 314.170969,68.4382068 C315.674249,68.4382068 317.213501,68.2507702 318.788725,67.8740038 C320.36111,67.4991306 321.780137,66.8658222 323.046754,65.9750251 C324.311478,65.087068 325.337646,63.9747549 326.124311,62.6409259 C326.91003,61.307097 327.304783,59.6495139 327.304783,57.6643901 C327.304783,55.7502651 326.858911,54.1598941 325.970007,52.8932772 C325.080157,51.6285536 323.882646,50.5332803 322.379366,49.6102971 C320.874194,48.6863673 319.096386,47.8836086 317.04405,47.1982345 C314.991714,46.5157003 312.836194,45.7971934 310.579382,45.0436605 C308.389782,44.3611263 306.201128,43.5403813 304.012475,42.5814254 C301.822875,41.6243629 299.856684,40.3596393 298.112956,38.7853614 C296.368281,37.2120301 294.948307,35.2799187 293.854927,32.9880805 C292.759654,30.697189 292.21249,27.8420945 292.21249,24.4199569 C292.21249,20.726131 292.983063,17.5463357 294.522315,14.8777311 C296.06062,12.2100731 298.07793,10.0043801 300.575191,8.25970524 C303.071505,6.51597706 305.910507,5.2171741 309.091249,4.36045641 C312.272937,3.50657866 315.504798,3.07869314 318.788725,3.07869314 C322.481604,3.07869314 326.226549,3.72904127 330.02356,5.02784423 C333.819624,6.32759384 337.119644,8.27769157 339.924566,10.8762441 L331.510746,20.1108089 Z" id="Fill-11" fill="#B300DE"></path> <path d="M386.404483,41.9655353 C385.445527,40.5985736 384.00946,39.4521812 382.094388,38.5282514 C380.179317,37.6052683 378.229219,37.1433034 376.246935,37.1433034 C373.989176,37.1433034 372.004052,37.6052683 370.294404,38.5282514 C368.584755,39.4521812 367.165727,40.6667324 366.036375,42.1709583 C364.907969,43.6761308 364.069237,45.3696865 363.523021,47.2497322 C362.974911,49.1316712 362.702276,51.0306499 362.702276,52.9438283 C362.702276,54.8607933 362.992897,56.7578787 363.575086,58.638871 C364.154436,60.52081 365.027246,62.2143657 366.190679,63.717645 C367.353164,65.2237641 368.807218,66.4373687 370.551892,67.3612985 C372.296567,68.283335 374.32997,68.7462465 376.656834,68.7462465 C378.570959,68.7462465 380.486978,68.3704267 382.402049,67.6168938 C384.317121,66.8652542 385.856373,65.7699808 387.019805,64.3329671 L394.715118,72.1324114 C392.662782,74.3210648 390.04719,76.0146205 386.865501,77.2111853 C383.684759,78.4068035 380.247475,79.0060326 376.554596,79.0060326 C372.927982,79.0060326 369.490698,78.4238432 366.241798,77.2623044 C362.992897,76.099819 360.153895,74.3882769 357.72574,72.1324114 C355.297584,69.8746526 353.381566,67.1388358 351.980525,63.9230679 C350.576644,60.7091932 349.87707,57.0485 349.87707,52.9438283 C349.87707,48.978314 350.576644,45.3867262 351.980525,42.1709583 C353.381566,38.9561369 355.279598,36.2203202 357.674621,33.9625614 C360.068697,31.7057493 362.856579,29.9610745 366.036375,28.7294836 C369.218063,27.4988394 372.619375,26.8825706 376.246935,26.8825706 C379.871656,26.8825706 383.378045,27.5679448 386.763263,28.9349065 C390.149428,30.3037615 392.833179,32.1847539 394.818303,34.5778835 L386.404483,41.9655353 Z" id="Fill-13" fill="#B300DE"></path> <path d="M412.464983,52.738784 C412.464983,54.6548024 412.755605,56.5717674 413.337794,58.4849458 C413.917143,60.4009642 414.789954,62.1115596 415.954333,63.6148388 C417.115872,65.120958 418.586018,66.3525489 420.365719,67.3096114 C422.144473,68.2676206 424.264968,68.7456785 426.727203,68.7456785 C429.189438,68.7456785 431.308986,68.2676206 433.088687,67.3096114 C434.866494,66.3525489 436.337588,65.120958 437.50102,63.6148388 C438.663505,62.1115596 439.535369,60.4009642 440.117559,58.4849458 C440.697855,56.5717674 440.989423,54.6548024 440.989423,52.738784 C440.989423,50.8256056 440.697855,48.9266269 440.117559,47.044688 C439.535369,45.1646423 438.663505,43.4710865 437.50102,41.965914 C436.337588,40.4616881 434.866494,39.247137 433.088687,38.3232072 C431.308986,37.3992774 429.189438,36.9382591 426.727203,36.9382591 C424.264968,36.9382591 422.144473,37.3992774 420.365719,38.3232072 C418.586018,39.247137 417.115872,40.4616881 415.954333,41.965914 C414.789954,43.4710865 413.917143,45.1646423 413.337794,47.044688 C412.755605,48.9266269 412.464983,50.8256056 412.464983,52.738784 M399.947438,52.738784 C399.947438,48.8404818 400.647959,45.3009598 402.050893,42.1192712 C403.451934,38.9385293 405.349966,36.2197522 407.745936,33.9629401 C410.139066,31.7051813 412.978067,29.9605065 416.261994,28.7298623 C419.544974,27.4982714 423.033377,26.8829493 426.727203,26.8829493 C430.421029,26.8829493 433.909432,27.4982714 437.193359,28.7298623 C440.476339,29.9605065 443.314394,31.7051813 445.709416,33.9629401 C448.102546,36.2197522 450.000578,38.9385293 451.404459,42.1192712 C452.804554,45.3009598 453.506967,48.8404818 453.506967,52.738784 C453.506967,56.6380329 452.804554,60.1955413 451.404459,63.4094159 C450.000578,66.6261305 448.102546,69.378987 445.709416,71.6698785 C443.314394,73.9626633 440.476339,75.7575105 437.193359,77.0563135 C433.909432,78.3560631 430.421029,79.0064112 426.727203,79.0064112 C423.033377,79.0064112 419.544974,78.3560631 416.261994,77.0563135 C412.978067,75.7575105 410.139066,73.9626633 407.745936,71.6698785 C405.349966,69.378987 403.451934,66.6261305 402.050893,63.4094159 C400.647959,60.1955413 399.947438,56.6380329 399.947438,52.738784" id="Fill-15" fill="#B300DE"></path> <path d="M465.407108,28.3191111 L477.207092,28.3191111 L477.207092,36.5275079 L477.412515,36.5275079 C478.779477,33.654427 480.695495,31.3304028 483.15773,29.5507019 C485.620912,27.7728944 488.493993,26.883044 491.776026,26.883044 C492.254084,26.883044 492.767168,26.9000837 493.315278,26.934163 C493.863388,26.9691891 494.341446,27.0543875 494.752292,27.190705 L494.752292,38.476659 C493.931547,38.2721828 493.23008,38.1358652 492.648837,38.0667598 C492.066648,37.9995477 491.502445,37.9635751 490.956228,37.9635751 C488.150359,37.9635751 485.893547,38.476659 484.183898,39.502827 C482.473303,40.5289949 481.139474,41.7605857 480.182411,43.1966529 C479.224402,44.6336666 478.574054,46.1057064 478.23326,47.6089857 C477.890573,49.1151048 477.720176,50.3116697 477.720176,51.2005734 L477.720176,77.5694921 L465.407108,77.5694921 L465.407108,28.3191111 Z" id="Fill-17" fill="#B300DE"></path> <path d="M535.591409,48.0193582 C535.591409,46.4469735 535.368947,44.941801 534.924021,43.5047872 C534.47815,42.0677735 533.777629,40.8030499 532.820566,39.7087232 C531.862557,38.6143965 530.648006,37.7434791 529.178806,37.0921843 C527.706766,36.4427828 525.980078,36.1171354 523.996847,36.1171354 C520.303022,36.1171354 517.173399,37.2303951 514.607979,39.4521812 C512.043506,41.6758606 510.622585,44.5309552 510.34995,48.0193582 L535.591409,48.0193582 Z M547.903531,53.560097 L547.903531,55.2015871 C547.903531,55.7506437 547.868505,56.2968604 547.800346,56.8430771 L510.34995,56.8430771 C510.486267,58.622778 510.948232,60.2472283 511.735845,61.7173748 C512.520617,63.188468 513.563825,64.4531915 514.864521,65.5134389 C516.163324,66.5755795 517.634417,67.4114709 519.276854,68.0277396 C520.918344,68.6430617 522.627992,68.9507228 524.407693,68.9507228 C527.48525,68.9507228 530.08475,68.3865197 532.205244,67.2581137 C534.324792,66.1297076 536.06852,64.5743627 537.437375,62.5901855 L545.646719,69.1561457 C540.788514,75.7230525 533.744496,79.0060326 524.509931,79.0060326 C520.677895,79.0060326 517.155412,78.4068035 513.941538,77.2111853 C510.724823,76.0146205 507.938834,74.3210648 505.578837,72.1324114 C503.21884,69.9428113 501.372874,67.2581137 500.038098,64.0773717 C498.704269,60.8966298 498.037828,57.288949 498.037828,53.252436 C498.037828,49.2859751 498.704269,45.6773476 500.038098,42.4275002 C501.372874,39.1795462 503.200854,36.4087034 505.527718,34.1159186 C507.851742,31.8259737 510.606492,30.0472195 513.787234,28.7806027 C516.967976,27.5158791 520.40526,26.8825706 524.099086,26.8825706 C527.51933,26.8825706 530.681139,27.4477203 533.590192,28.5751798 C536.496406,29.7045325 539.010707,31.3810485 541.132148,33.6028346 C543.251696,35.8274607 544.911172,38.5973568 546.107737,41.9144163 C547.304302,45.233369 547.903531,49.1146315 547.903531,53.560097 L547.903531,53.560097 Z" id="Fill-19" fill="#B300DE"></path> </g> </g> </svg> 