<?xml version="1.0" encoding="UTF-8"?> <svg xmlns="http://www.w3.org/2000/svg" xmlns:xlink="http://www.w3.org/1999/xlink" width="343px" height="124px" viewBox="0 0 343 124"> <!-- Generator: Sketch 45.2 (43514) - http://www.bohemiancoding.com/sketch --> <title>planity</title> <desc>Created with Sketch.</desc> <defs></defs> <g id="Page-1" stroke="none" stroke-width="1" fill="none" fill-rule="evenodd"> <g id="planity" transform="translate(0.000000, 0.055578)" fill="#000000"> <path d="M0.0372612287,0 L342.797853,0 L342.797853,123.371148 L0.0372612287,123.371148 L0.0372612287,0 Z M130.631561,44.197263 L115.170805,75.1187749 L121.355108,75.1187749 L124.447259,68.9344725 L143.000166,68.9344725 L146.092317,75.1187749 L152.27662,75.1187749 L136.815864,44.197263 L130.631561,44.197263 Z M139.908015,62.7501701 L127.53941,62.7501701 L133.723713,50.3815654 L139.908015,62.7501701 Z M44.0513281,44.197263 L25.498421,44.197263 L25.498421,75.1187749 L31.6840976,75.1187749 L31.6827233,68.9344725 L31.6840976,68.9344725 L44.0513281,68.9344725 C50.8825772,68.9344725 56.4199328,63.3971169 56.4199328,56.5658677 C56.4199328,49.7346186 50.8825772,44.197263 44.0513281,44.197263 Z M44.0513281,62.7501701 L31.6840976,62.7501701 L31.6827233,62.7501701 L31.6827233,50.3815654 L31.6840976,50.3815654 L44.0513281,50.3815654 C47.4667809,50.3815654 50.2356305,53.150415 50.2356305,56.5658677 C50.2356305,59.9813205 47.4667809,62.7501701 44.0513281,62.7501701 Z M81.1571424,44.197263 L74.97284,44.197263 L74.97284,75.1187749 L99.7100495,75.1187749 L99.7100495,68.9344725 L81.1571424,68.9344725 L81.1571424,44.197263 Z M217.211795,44.197263 L217.211795,75.1187749 L223.396097,75.1187749 L223.396097,44.197263 L217.211795,44.197263 Z M241.949004,44.197263 L241.949004,50.3815654 L254.317609,50.3815654 L254.317609,75.1187749 L260.501911,75.1187749 L260.501911,50.3815654 L272.870516,50.3815654 L272.870516,44.197263 L241.949004,44.197263 Z M313.068482,44.197263 L303.792028,58.1119433 L294.515574,44.197263 L288.331272,44.197263 L300.699877,62.7501701 L300.699877,75.1187749 L306.884179,75.1187749 L306.884179,62.7501701 L319.252784,44.197263 L313.068482,44.197263 Z M192.474585,65.8423213 L173.921678,44.197263 L167.737376,44.197263 L167.737376,75.1187749 L173.921678,75.1187749 L173.921678,53.4737166 L192.474585,75.1187749 L198.658888,75.1187749 L198.658888,44.197263 L192.474585,44.197263 L192.474585,65.8423213 Z" id="Rectangle"></path> </g> </g> </svg> 