<?xml version="1.0" encoding="UTF-8" standalone="no"?>
<svg width="402px" height="128px" viewBox="0 0 402 128" version="1.1" xmlns="http://www.w3.org/2000/svg" xmlns:xlink="http://www.w3.org/1999/xlink">
    <!-- Generator: Sketch 3.8.2 (29753) - http://www.bohemiancoding.com/sketch -->
    <title>algolia-color</title>
    <desc>Created with Sketch.</desc>
    <defs></defs>
    <g id="Page-1" stroke="none" stroke-width="1" fill="none" fill-rule="evenodd">
        <g id="algolia-color" transform="translate(-1.000000, 0.000000)">
            <g id="algolia-color.svg">
                <path d="M71.907,102.265 C70.4196667,98.3103333 69.0216667,94.4226667 67.713,90.602 C66.4043333,86.7813333 65.0496667,82.894 63.649,78.94 L22.489,78.94 L14.231,102.265 L0.991,102.265 C4.485,92.6023333 7.762,83.6636667 10.822,75.449 C13.882,67.2343333 16.8753333,59.438 19.802,52.06 C22.728,44.6786667 25.6336667,37.6286667 28.519,30.91 C31.4043333,24.1913333 34.419,17.5373333 37.563,10.948 L49.23,10.948 C52.376,17.536 55.391,24.19 58.275,30.91 C61.159,37.63 64.065,44.68 66.993,52.06 C69.919,59.438 72.9116667,67.2343333 75.971,75.449 C79.0303333,83.6636667 82.3076667,92.6023333 85.803,102.265 L71.903,102.265 L71.907,102.265 Z M59.979,68.4 C57.179,60.756 54.4046667,53.356 51.656,46.2 C48.9073333,39.044 46.045,32.1696667 43.069,25.577 C40.009,32.167 37.1036667,39.0413333 34.353,46.2 C31.6023333,53.3586667 28.871,60.7586667 26.159,68.4 L59.979,68.4 L59.979,68.4 Z M117.785,103.581 C110.270333,103.405 104.940333,101.779667 101.795,98.705 C98.6496667,95.6303333 97.077,90.843 97.077,84.343 L97.077,2.117 L109.265,0.009 L109.265,82.366 C109.228268,84.0510613 109.404325,85.7340229 109.789,87.375 C110.067146,88.5603831 110.653612,89.6512093 111.489,90.537 C112.373972,91.3826847 113.455994,91.9941578 114.637,92.316 C116.22546,92.7686271 117.846175,93.0992555 119.485,93.305 L117.785,103.581 L117.785,103.581 Z M175.856,95.411 C173.923257,96.5195244 171.880639,97.4243758 169.761,98.111 C166.366154,99.2707286 162.794799,99.8284462 159.208,99.759 C155.255436,99.7849305 151.329062,99.116093 147.608,97.783 C144.018106,96.4861593 140.769708,94.3907717 138.108,91.655 C135.27453,88.6884149 133.087431,85.1661736 131.685,81.311 C130.01205,76.574959 129.212758,71.5745557 129.326,66.553 C129.272093,61.8687629 130.025788,57.2102673 131.554,52.782 C132.944442,48.7706402 135.154654,45.0926293 138.044,41.982 C140.968123,38.8917098 144.521487,36.4650556 148.464,34.866 C152.878919,33.0946769 157.602586,32.2209939 162.359,32.296 C167.347331,32.2366979 172.32984,32.6562882 177.238,33.549 C181.476,34.385 185.036667,35.1533333 187.92,35.854 L187.92,96.997 C187.92,107.539 185.211667,115.181333 179.795,119.924 C174.378333,124.666667 166.161333,127.035667 155.144,127.031 C151.079069,127.051216 147.020815,126.699415 143.02,125.98 C139.663073,125.390968 136.354114,124.555372 133.12,123.48 L135.348,112.807 C138.26539,113.908157 141.268549,114.767063 144.327,115.375 C147.97012,116.131852 151.682111,116.507542 155.403,116.496 C162.656333,116.496 167.878,115.046 171.068,112.146 C174.258,109.246 175.852667,104.634 175.852,98.31 L175.852,95.41 L175.852,95.41 L175.856,95.411 Z M170.81,43.56 C168.049963,43.2106911 165.268741,43.0563087 162.487,43.098 C155.933,43.098 150.886,45.251 147.346,49.557 C143.806,53.863 142.036333,59.5723333 142.037,66.685 C141.957437,70.1288243 142.46711,73.5609114 143.544,76.833 C144.412522,79.4118343 145.795057,81.7877258 147.608,83.817 C149.237886,85.6097569 151.255929,87.0063112 153.508,87.9 C155.697631,88.7718869 158.033165,89.2191747 160.39,89.218 C163.416108,89.249379 166.426621,88.7807391 169.3,87.831 C171.603745,87.114738 173.774032,86.024527 175.724,84.604 L175.724,44.549 C174.108041,44.1179777 172.466885,43.787676 170.81,43.56 L170.81,43.56 Z M306.263,103.583 C298.745667,103.405 293.415,101.779667 290.271,98.707 C287.127,95.6343333 285.554,90.8466667 285.552,84.344 L285.552,2.119 L297.744,0.011 L297.744,82.366 C297.706491,84.0510375 297.882218,85.7340548 298.267,87.375 C298.544837,88.5617754 299.133676,89.6531648 299.973,90.537 C300.855119,91.3846376 301.936294,91.9967533 303.117,92.317 C304.706083,92.7696281 306.327488,93.0999267 307.967,93.305 L306.267,103.583 L306.263,103.583 Z M327.632,21.358 C325.560952,21.4014511 323.557683,20.6192838 322.064,19.184 C319.00408,15.8738174 319.00408,10.7671826 322.064,7.457 C325.211857,4.5568935 330.058143,4.5568935 333.206,7.457 C336.26351,10.7681254 336.26351,15.8728746 333.206,19.184 C331.709811,20.6191629 329.704779,21.4011758 327.632,21.358 L327.632,21.358 L327.632,21.358 Z M321.6,33.744 L333.791,33.744 L333.791,102.265 L321.6,102.265 L321.6,33.744 L321.6,33.744 Z M376.785,32.031 C380.995393,31.9219709 385.191194,32.5692243 389.173,33.942 C392.284275,35.0468611 395.075259,36.9015637 397.299,39.342 C399.385145,41.7318058 400.888541,44.5729234 401.691,47.642 C402.596136,51.105607 403.036333,54.674262 403,58.254 L403,101.081 C401.950667,101.255667 400.487,101.497 398.609,101.805 C396.731,102.113 394.611667,102.398 392.251,102.66 C389.891,102.926667 387.335,103.168 384.583,103.384 C381.831,103.6 379.1,103.710333 376.39,103.715 C372.815976,103.745656 369.251178,103.347479 365.772,102.529 C362.757392,101.835931 359.907301,100.560354 357.382,98.774 C354.994251,97.0236178 353.09961,94.6856311 351.882,91.987 C350.493095,88.7889561 349.822016,85.3253564 349.916,81.84 C349.824526,78.445254 350.617112,75.0850349 352.216,72.089 C353.70574,69.4057503 355.846397,67.1402648 358.441,65.501 C361.263853,63.7507814 364.36834,62.5023554 367.617,61.811 C371.231824,61.0075165 374.924987,60.6097241 378.628,60.625 C379.85,60.625 381.116667,60.6916667 382.428,60.825 C383.738,60.957 384.984,61.136 386.163,61.354 C387.342,61.572 388.37,61.77 389.245,61.946 C390.12,62.122 390.729,62.255 391.079,62.341 L391.079,58.915 C391.079798,56.8971159 390.860162,54.8851825 390.424,52.915 C390.018152,51.0117459 389.21384,49.2160176 388.064,47.646 C386.847363,46.0442405 385.246765,44.7748365 383.41,43.955 C380.983916,42.9454905 378.367895,42.4736651 375.742,42.572 C372.205426,42.5314399 368.672689,42.8183304 365.189,43.429 C362.887941,43.8073677 360.627862,44.4026893 358.439,45.207 L356.997,35.061 C359.536964,34.0974637 362.174109,33.4127784 364.862,33.019 C368.799242,32.3373014 372.789253,32.0066689 376.785,32.031 L376.785,32.031 L376.785,32.031 Z M377.833,93.431 C380.717,93.431 383.273667,93.3643333 385.503,93.231 C387.376804,93.1476599 389.240156,92.9054576 391.073,92.507 L391.073,72.089 C389.712983,71.5176805 388.279204,71.1409727 386.814,70.97 C384.447517,70.6346512 382.058979,70.4795384 379.669,70.506 C377.718134,70.5150292 375.769836,70.6486344 373.836,70.906 C371.879589,71.1409462 369.975348,71.6970818 368.2,72.552 C366.535897,73.3528397 365.078057,74.5253386 363.939,75.979 C362.737677,77.6410903 362.138107,79.6626977 362.239,81.711 C362.239,86.103 363.637,89.1553333 366.433,90.868 C369.229,92.5806667 373.029,93.4373333 377.833,93.438 L377.833,93.438 L377.833,93.431 Z" id="Forme_2" fill="#000000"></path>
                <path d="M242.345,49.141 L237.098,67.741 L253.998,58.474 C251.519514,53.9286137 247.322003,50.5667864 242.345,49.141 L242.345,49.141 Z M209.845,33.941 C208.633323,32.7217879 206.985407,32.0362047 205.2665,32.0362047 C203.547593,32.0362047 201.899677,32.7217879 200.688,33.941 L199.544,35.091 C197.019178,37.6379877 197.019178,41.7440123 199.544,44.291 L200.763,45.514 C203.353282,41.3401767 206.646969,37.6465776 210.498,34.597 L209.845,33.941 Z M249.395,27.572 C249.404,27.432 249.435,27.299 249.435,27.156 L249.435,23.902 C249.442744,20.3183485 246.545643,17.4060302 242.962,17.395 L231.632,17.395 C228.048518,17.4060301 225.151703,20.3185107 225.16,23.902 L225.16,27.102 C233.107167,24.8581102 241.541441,25.0227238 249.395,27.575 L249.395,27.572 Z M236.947,42.351 C247.375357,42.3429094 256.781389,48.6185207 260.77785,58.2507068 C264.77431,67.8828929 262.573891,78.9741006 255.202932,86.3510691 C247.831972,93.7280375 236.742561,95.9374943 227.107122,91.9488848 C217.471682,87.9602752 211.188408,78.5593605 211.188,68.131 C211.19956,53.9062486 222.722262,42.3746005 236.947,42.352 L236.947,42.351 Z M200.885,68.131 C200.901013,88.0437097 217.053604,104.174668 236.966318,104.163995 C256.879031,104.153321 273.01432,88.0050566 273.008987,68.0923411 C273.003654,48.1796257 256.859716,32.0400064 236.947,32.04 C227.378795,32.0434471 218.203892,35.8479133 211.440869,42.6163752 C204.677846,49.3848371 200.880756,58.5627953 200.885,68.131 L200.885,68.131 Z" id="Forme_2_copie" fill="#4DAFD8"></path>
            </g>
        </g>
    </g>
</svg>