<?xml version="1.0" encoding="UTF-8" standalone="no"?>
<svg width="595px" height="515px" viewBox="0 0 595 515" version="1.1" xmlns="http://www.w3.org/2000/svg" xmlns:xlink="http://www.w3.org/1999/xlink">
    <!-- Generator: Sketch 3.8.2 (29753) - http://www.bohemiancoding.com/sketch -->
    <title>Clustree logo-bleu</title>
    <desc>Created with Sketch.</desc>
    <defs></defs>
    <g id="Page-1" stroke="none" stroke-width="1" fill="none" fill-rule="evenodd">
        <g id="Clustree-logo-bleu" fill="#039AB0">
            <g id="Layer_1">
                <path d="M292.5,357.7 C270.3,357.9 248,351.1 227.5,338.9 C187,314.9 154.5,282.7 132,241.1 C111.1,202.3 109.4,162.2 129.3,122.8 C154,73.9 191.3,36.7 240.7,12.9 C278.7,-5.5 317.4,-3.7 354.5,16 C398.7,39.5 433,73.7 456.8,117.7 C479.1,159 478.7,201.2 455.9,242.2 C431.4,286.4 396.5,320.5 351.5,343.9 C332.9,353.6 314.1,357.7 292.5,357.7 L292.5,357.7 Z M264.5,110.1 C259.2,107.7 253.9,105.3 248.6,102.8 C245.8,101.5 242.7,100 241,103.9 C239.3,107.8 242.5,109.1 245.3,110.4 C248.3,111.8 251.2,113.6 254.4,114.5 C267.4,118.2 273.7,127.2 278,139.7 C285.8,162.3 291.4,184.8 290.4,208.9 C289.4,232.2 290.2,255.5 290.2,278.9 C290.2,280.4 290.1,281.9 290.4,283.4 C290.9,285.6 292.4,286.9 294.7,286.8 C296.8,286.7 298.1,285.4 298.4,283.4 C298.6,281.9 298.6,280.4 298.6,278.9 L298.6,201.4 C298.6,194.1 298.5,186.7 299.6,179.5 C302.1,163.3 308.7,148.3 313.7,132.8 C316.1,125.4 320,120.7 327.4,118 C333.8,115.7 339.8,112.4 345.9,109.4 C348.1,108.3 349.2,106.5 348.1,104.1 C347,101.5 344.9,100.9 342.4,102.1 C337.1,104.5 331.9,107 326.5,109.4 C325.5,109.9 324.4,111.3 322.7,109.8 C325.4,102.9 328.1,96 330.8,89 C331.9,86.3 333.1,83.3 329.5,81.7 C325.7,80 324.2,82.9 323,85.9 C320.2,93.1 317.4,100.3 314.1,108.7 C311.3,102.6 309,97.5 306.5,92.5 C305,89.5 304.3,84.2 299.2,86.4 C294.1,88.7 297.5,92.6 298.9,95.7 C302,102.7 305.4,109.6 308.6,116.5 C309.2,117.8 310.1,119 309.4,120.7 C303.9,134.3 299.2,148.2 294.2,163.2 C289.3,148.3 284.6,134.4 279.1,120.9 C278.3,119 279.5,117.7 280.2,116.2 C283.7,108.6 287.2,101.1 290.8,93.6 C292,90.9 293.3,88 289.8,86.3 C286,84.4 284.5,87.4 283.2,90.2 C280.4,96.2 277.6,102.1 274.5,108.8 C271.1,100.3 268.1,92.7 265.1,85.1 C264,82.3 262.4,80.2 259.2,81.5 C256,82.8 256.4,85.5 257.5,88.3 C260.2,95.1 262.7,102 265.4,108.8 C265.2,109.4 264.9,109.8 264.5,110.1 L264.5,110.1 Z M274.3,184.5 C271.2,183.7 268.5,182.9 265.8,182.3 C256.4,180.4 246.9,181.6 237.4,181.4 C234.7,181.4 232.8,180.6 230.8,178.7 C224.7,172.6 218.5,166.5 212.2,160.6 C209.1,157.7 206.3,158 204.8,161 C203.6,163.5 205.1,165 206.6,166.7 C211.2,171.6 215.8,176.4 220.8,181.8 C212.9,181.8 205.5,181.7 198,181.8 C193.6,181.9 191.3,185.1 193.2,188.1 C194.4,190 196.4,190.2 198.5,190.2 L221.5,190.2 C216.5,195.3 211.9,200.1 207.3,204.8 C205.2,206.9 203.7,209.2 206.1,211.7 C208.8,214.5 211.2,212.8 213.3,210.5 L231,192.2 C232.2,190.9 233.3,189.4 235.5,189.5 C244.6,189.9 253.8,188.7 262.9,190.2 C273.4,191.9 275.8,194.8 275.8,205.4 L275.8,281.4 C275.8,284.4 276.4,287 279.9,287 C283.3,287 284.1,284.4 284,281.4 C283.9,252.1 284,222.8 283.9,193.4 C283.9,182.6 280.1,173.3 272.1,165.8 C265,159 258.1,152 250.3,145.9 C248.4,144.4 247.2,142.8 246.8,140.2 C245.3,131.7 243.4,123.2 241.6,114.8 C241,112 239.8,109.4 236.4,110.2 C233,110.9 232.8,113.6 233.4,116.5 C234.7,122.4 235.8,128.4 237.3,135.5 C229.8,129.8 223.3,124.8 216.9,119.9 C214.5,118.1 212.1,117.2 209.9,120 C207.9,122.6 209.5,124.7 211.6,126.3 L215.2,129 C221.2,133.6 227.2,138.2 234.2,143.6 C226.6,145.1 220.3,146.3 214,147.7 C210.9,148.4 206.5,148.5 207.7,153.4 C208.8,157.9 212.5,156.4 215.6,155.8 C223.6,154.2 231.6,152.7 239.5,150.9 C241.7,150.4 243.2,150.6 245,152 C253.4,159.1 261.5,166.5 269,174.6 C271.5,177.4 273.6,180.3 274.3,184.5 L274.3,184.5 Z M351.6,135.6 C353,128.5 354,122.7 355.3,117.1 C356,114 356.3,111.1 352.6,110.3 C348.5,109.4 347.7,112.7 347.1,115.7 C345.4,124 343.6,132.3 342.1,140.6 C341.7,142.7 340.8,144.2 339.1,145.5 C332,151 325.8,157.6 319,163.5 C308.8,172.5 304.7,183.7 304.8,197.2 C305.1,224.9 304.9,252.5 304.9,280.2 C304.9,281.4 304.9,282.5 305.1,283.7 C305.5,285.8 307,286.8 309,286.8 C311,286.8 312.6,285.7 312.9,283.7 C313.2,282.2 313.1,280.7 313.1,279.2 L313.1,203.7 C313.1,195 316,191.8 324.5,190.2 C333.3,188.6 342.1,189.7 350.9,189.3 C353.5,189.2 355.2,190.1 357,191.9 C362.4,197.6 367.8,203.3 373.3,208.8 C375.6,211.1 378,215.4 381.8,211.5 C385.5,207.8 381.3,205.3 379.1,202.9 C375.1,198.6 370.9,194.5 366.5,189.9 L389.4,189.9 C392.5,189.9 395.9,190.1 396.1,185.9 C396.3,181.6 392.8,181.5 389.8,181.5 L367.2,181.5 C372.1,176.3 376.5,171.6 380.9,167 C383,164.8 385.1,162.6 382.4,159.8 C379.7,156.9 377.3,158.9 375.2,161 C369.1,166.9 363,172.9 356.9,178.8 C355.6,180.1 354.4,181.2 352.3,181.3 C339.8,181.5 327.1,179.6 314.5,184.6 C315.4,180.6 317,177.9 319.2,175.5 C326.9,166.9 335.4,159.2 344.2,151.8 C345.8,150.5 347.3,150.4 349.2,150.9 C357.6,152.8 366.1,154.5 374.6,156.1 C377.2,156.6 380.3,157.1 381.1,153.4 C382,149.6 379.4,148.6 376.3,147.9 C369.5,146.6 362.8,145.1 354.8,143.4 C362.3,137.7 368.8,132.7 375.3,127.6 C377.9,125.6 381.8,123.7 378.7,119.8 C375.7,116 372.8,119.2 370.2,121.2 C364.4,125.8 358.6,130.2 351.6,135.6 L351.6,135.6 Z M553.6,473.3 C542.4,473.3 531.3,473.4 520.1,473.2 C517.1,473.2 516.1,473.8 516.5,477.1 C518.7,494.9 528.8,504.6 546.7,505.6 C551.5,505.9 556.3,505.8 561.1,504.8 C570.3,502.8 577.2,497.9 581.7,489.7 C583.2,486.9 584.9,484.1 588.6,486.3 C592.2,488.4 590.6,491.3 589.1,494.1 C584.7,502.7 577.7,508.3 568.6,511.3 C558.6,514.6 548.3,515.1 538,512.8 C521.9,509.2 512,499.2 508.8,483.1 C505.6,466.7 507.1,451.1 519.4,438.4 C538.1,418.9 575.9,422.6 589.4,445.1 C593.1,451.3 594.6,458 594.9,465.1 C595.1,471.1 593,473.3 587,473.4 C575.9,473.3 564.7,473.3 553.6,473.3 L553.6,473.3 Z M550.2,465.2 L580.2,465.2 C584.1,465.2 585.6,463.7 584.8,459.7 C582.6,448.2 576,440.5 565.2,436.5 C557.2,433.5 548.9,433.4 540.6,435.5 C527.8,438.8 520.3,447.4 517.1,460.1 C516.2,463.7 516.7,465.5 521.2,465.4 C530.9,465 540.6,465.2 550.2,465.2 L550.2,465.2 Z M460,473.3 C449,473.3 438,473.5 427,473.2 C423.2,473.1 422.6,474.4 423,477.8 C425.2,494.8 435.5,504.6 452.8,505.7 C457.3,506 461.8,506 466.2,505.2 C476.1,503.4 483.8,498.4 488.5,489.3 C489.8,486.7 491.6,484.6 494.8,486.2 C498.2,487.9 497.4,490.7 496.1,493.5 C491.2,503.4 483.1,509.3 472.7,512.2 C463.9,514.6 454.9,514.9 446,513.2 C428.9,510 417.8,498.3 415,481 C413.5,471.5 413.6,462 417,453 C422.9,437.4 434.3,428.6 450.8,426.5 C460.4,425.3 469.7,426.1 478.7,430 C493.1,436.3 502.1,450.5 501.6,466.2 C501.4,471.4 499.3,473.3 493.5,473.4 C482.3,473.3 471.2,473.3 460,473.3 L460,473.3 Z M456.5,465.2 L486.5,465.2 C490.3,465.2 492,464 491.3,459.8 C490.4,454.9 488.9,450.4 485.8,446.6 C476,434.6 463,432.3 448.8,435.1 C434.8,437.9 426.7,447.1 423.6,460.9 C422.8,464.3 423.5,465.3 427,465.2 C436.8,465.1 446.6,465.2 456.5,465.2 L456.5,465.2 Z M61.6,394.1 C80.9,394.3 96.1,397.9 108.2,410.1 C108.8,410.7 109.4,411.3 109.9,411.9 C111.8,414 112.5,416.3 110.1,418.5 C107.8,420.6 105.6,419.8 103.5,417.7 C85.3,399.3 63.3,398.9 40.9,406.3 C21.4,412.7 11.8,428.1 10,448.3 C9.4,455.1 9.7,462 11.4,468.7 C17,491.3 34.4,504.6 60,505.3 C75.7,505.7 90,501.8 101.3,489.9 C103.4,487.7 106,486 108.6,488.7 C111.5,491.5 109.7,494.1 107.4,496.4 C92.5,511.1 74,514.7 54,513 C43.2,512.1 33,509.1 24.1,502.8 C4.4,488.7 -1.1,468.6 1.6,445.9 C5.6,412.8 28.9,394 61.6,394.1 L61.6,394.1 Z M275,514.4 C268.8,514.4 262.7,513.6 256.8,511.6 C244.5,507.3 238.8,498 237.3,485.6 C237,482.8 238.2,480.6 241.1,480.1 C244.1,479.6 245.8,481.2 246.3,484.1 C246.5,485.1 246.6,486.1 246.8,487.1 C248.1,495.9 253,501.7 261.5,504.1 C270.5,506.6 279.6,506.7 288.6,504.2 C296.1,502.1 300.5,497 300.8,490.8 C301.1,484.7 297.4,480.4 289.5,477.4 C281.5,474.4 272.9,474.2 264.6,472.5 C260.3,471.7 256.2,470.6 252.3,468.6 C238.4,461.5 236.4,443.3 248.5,433.3 C261,423 287.6,423 300.1,433.3 C303.9,436.5 306.5,440.5 307.9,445.2 C308.7,448 308.2,450.3 305.3,451.3 C302.6,452.3 300.1,451.3 299.3,448.4 C296.9,440.1 291.1,436.2 283,435 C272.9,433.5 262.9,433 254.5,440 C246.4,446.7 248.5,457.5 258.6,461.3 C267.7,464.8 277.5,465.2 286.9,467.2 C290.7,468 294.3,469.1 297.8,470.8 C305.2,474.5 309.7,480.2 310,488.8 C310.3,497.8 306.8,504.7 299,509.1 C291.7,513.4 283.4,514.5 275,514.4 L275,514.4 Z M224.3,460.3 C224.3,468.5 224.6,476.6 224.2,484.8 C223.4,500.1 215.5,509.3 200.5,512.8 C191.1,515 181.6,514.8 172.4,511.6 C160.7,507.6 153.5,499.4 153,487 C152.3,469 152.7,451 152.6,433 C152.6,430 153.7,427.5 157.1,427.6 C160.5,427.7 161.3,430.3 161.3,433.2 L161.3,475.7 C161.3,478.2 161.2,480.7 161.4,483.2 C162.1,497.2 169.2,504.5 183.1,505.6 C188.9,506.1 194.8,506.1 200.5,504.4 C209.3,501.9 214.8,496.1 215.1,486.9 C215.7,470.1 215.4,453.3 215.6,436.4 C215.6,432.8 214.4,427.6 220.1,427.7 C225.4,427.8 224.3,432.7 224.3,436.2 C224.4,444.2 224.3,452.2 224.3,460.2 C224.4,460.3 224.4,460.3 224.3,460.3 L224.3,460.3 Z M335.8,473.6 C335.8,462.3 335.7,450.9 335.9,439.6 C335.9,436.6 335.1,435.4 332,435.6 C327.8,435.8 323.7,435.7 319.5,435.6 C316.8,435.6 314.9,434.5 314.9,431.5 C315,428.6 316.9,427.5 319.6,427.5 C323.4,427.5 327.3,427.3 331.1,427.6 C334.7,427.9 336.3,427 335.9,423 C335.5,418.9 335.9,414.7 335.8,410.5 C335.8,407.4 336.4,404.5 340.1,404.6 C343.8,404.6 344.5,407.6 344.5,410.6 C344.5,414.9 344.7,419.3 344.5,423.6 C344.4,426.6 345.2,427.8 348.4,427.6 C352.5,427.3 356.7,427.5 360.9,427.5 C363.8,427.5 366,428.6 365.9,431.7 C365.8,434.5 363.7,435.6 361,435.6 C357.2,435.6 353.3,435.9 349.5,435.5 C345.6,435.2 344.4,436.5 344.4,440.5 C344.6,461.7 344.5,482.8 344.5,504 C344.5,505.7 344.5,507.3 344.3,509 C344,511.6 342.5,513.5 339.8,513.3 C337,513.2 335.7,511.3 335.7,508.6 L335.7,483.6 C335.8,480.3 335.8,476.9 335.8,473.6 L335.8,473.6 Z M383,442 C390.2,433 398.8,428.7 408.7,426.9 C410.2,426.6 411.7,426.5 413.2,426.5 C415.2,426.6 416.7,427.7 417.1,429.7 C417.5,432.1 416.2,433.4 414.2,434.3 C413.7,434.5 413.2,434.5 412.7,434.6 C396.3,436.8 386.9,448.1 384.1,467 C382.2,479.7 383.5,492.6 383.2,505.4 C383.2,506.9 383.3,508.4 383.1,509.9 C382.7,512.1 381.2,513.4 378.9,513.5 C376.8,513.6 375.3,512.4 374.8,510.5 C374.4,509.1 374.4,507.6 374.4,506.1 L374.4,435.2 C374.4,433.9 374.3,432.5 374.7,431.2 C375.2,429.1 376.6,427.6 378.9,427.7 C381.4,427.8 383,429.2 383.2,431.7 C383.2,434.6 383,437.6 383,442 L383,442 Z M135,455.3 L135,506.8 C135,510 134.7,513.3 130.7,513.3 C126.7,513.3 126.1,510.2 126.1,506.9 L126.1,403 C126.1,399.7 126.9,396.7 130.8,396.7 C134.4,396.8 135,399.7 135,402.8 L135,455.3 L135,455.3 Z" id="Shape"></path>
                <path d="M265.6,109 C265.7,109.4 265.7,109.8 265.8,110.3 C265.4,110.3 265,110.2 264.5,110.2 C264.9,109.8 265.2,109.4 265.6,109 L265.6,109 Z" id="Shape"></path>
            </g>
        </g>
    </g>
</svg>