<?xml version="1.0" standalone="no"?><!DOCTYPE svg PUBLIC "-//W3C//DTD SVG 1.1//EN" "http://www.w3.org/Graphics/SVG/1.1/DTD/svg11.dtd"><svg width="100%" height="100%" viewBox="0 0 271 57" version="1.1" xmlns="http://www.w3.org/2000/svg" xmlns:xlink="http://www.w3.org/1999/xlink" xml:space="preserve" style="fill-rule:evenodd;clip-rule:evenodd;stroke-linejoin:round;stroke-miterlimit:1.41421;"><path id="XMLID_1_" d="M171.861,47.285c-0.682,0.075 -1.213,0.075 -1.743,0.075c-2.501,0 -4.319,-0.909 -4.319,-4.168l0,-42.282l-9.927,0l0,43.95c0,7.198 4.547,11.442 11.821,11.442c1.592,0 2.728,-0.152 4.168,-0.455l0,-8.563ZM205.051,34.327c0,-4.319 2.576,-7.729 6.971,-7.729c4.85,0 6.896,3.258 6.896,7.426l0,21.747l10.078,0l0,-23.49c0,-8.184 -4.244,-14.776 -13.488,-14.776c-4.016,0 -8.487,1.742 -10.76,5.607l0,-4.622l-9.776,0l0,37.281l10.079,0l0,-21.444l0,0ZM125.41,34.327c0,-4.319 2.577,-7.729 6.972,-7.729c4.849,0 6.895,3.258 6.895,7.426l0,21.747l10.078,0l0,-23.49c0,-8.184 -4.244,-14.776 -13.488,-14.776c-4.016,0 -8.487,1.742 -10.76,5.607l0,-4.622l-9.775,0l0,37.281l10.078,0l0,-21.444ZM176.256,6.289c0,3.335 2.803,6.139 6.214,6.139c3.485,-0.001 6.213,-2.804 6.213,-6.139c0,-3.485 -2.728,-6.289 -6.213,-6.289c-3.411,0 -6.214,2.804 -6.214,6.289M187.546,18.49l-10.078,0l0,37.281l10.078,0l0,-37.281ZM96.539,6.289c0,3.335 2.804,6.139 6.214,6.139c3.486,-0.001 6.214,-2.804 6.214,-6.139c0,-3.485 -2.728,-6.289 -6.214,-6.289c-3.41,0 -6.214,2.804 -6.214,6.289M107.83,18.49l-10.079,0l0,37.281l10.079,0l0,-37.281ZM262.034,42.587c-1.212,3.334 -3.788,5.683 -8.486,5.683c-5.002,0 -9.17,-3.562 -9.397,-8.487l26.674,0c0,-0.151 0.151,-1.667 0.151,-3.107c0,-11.973 -6.896,-19.323 -18.414,-19.323c-9.547,0 -18.337,7.729 -18.337,19.627c0,12.578 9.017,19.929 19.246,19.929c9.17,-0.001 15.08,-5.381 16.974,-11.822l-8.411,-2.501ZM244.378,32.888c0.228,-3.411 3.108,-7.351 8.336,-7.351c5.759,0 8.184,3.637 8.335,7.351l-16.671,0ZM72.14,49.331c-3.259,-0.001 -4.85,-2.122 -4.85,-4.32c0,-2.879 2.046,-4.319 4.622,-4.698l8.411,-1.288l0,1.667c0,6.592 -3.94,8.638 -8.184,8.638M57.211,45.618c0,5.834 4.85,11.215 12.807,11.215c5.531,0 9.093,-2.577 10.987,-5.532c0,1.44 0.152,3.486 0.379,4.47l9.244,0c-0.227,-1.287 -0.454,-3.94 -0.454,-5.91l0,-18.338c0,-7.501 -4.395,-14.17 -16.216,-14.17c-10.003,0 -15.382,6.441 -15.989,12.276l8.941,1.894c0.304,-3.258 2.729,-6.062 7.124,-6.062c4.243,0 6.289,2.197 6.289,4.849c0,1.289 -0.682,2.35 -2.804,2.653l-9.168,1.364c-6.214,0.91 -11.139,4.622 -11.139,11.291M53.422,18.338c-0.757,-0.075 -1.515,-0.151 -2.349,-0.151c-3.182,0 -8.335,0.909 -10.608,5.835l0,-5.532l-9.775,0l0,37.281l10.078,0l0,-17.049c0,-8.032 4.47,-10.533 9.624,-10.533c0.909,0 1.894,0.076 3.03,0.303l0,-10.154l0,0ZM6.745,29.629l0,15.155c0,7.198 4.546,11.518 11.82,11.518c3.714,0 5.684,-0.909 5.684,-0.909l0,-8.336c-0.531,0.152 -1.895,0.303 -3.107,0.303c-2.88,0 -4.395,-1.06 -4.395,-4.319l0,-13.412l-10.002,0ZM16.595,16.292c0.152,-0.606 0.152,-1.288 0.152,-2.046l0,-6.895l-9.093,0l0,5.152c0,1.516 -0.303,2.88 -0.985,3.789l9.926,0ZM0,18.49l0,8.941l3.789,0c6.744,0 10.836,-3.562 12.427,-8.941l-16.216,0l0,0ZM18.414,18.49c-0.909,3.864 -2.652,6.592 -6.138,8.941l11.973,0l0,-8.941l-5.835,0Z" style="fill:#00b8b0;fill-rule:nonzero;"/></svg>