<?xml version="1.0" encoding="UTF-8" standalone="no"?>
<svg width="271px" height="57px" viewBox="0 0 271 57" version="1.1" xmlns="http://www.w3.org/2000/svg" xmlns:xlink="http://www.w3.org/1999/xlink">
    <!-- Generator: Sketch 3.8.2 (29753) - http://www.bohemiancoding.com/sketch -->
    <title>Captain Train - trainline</title>
    <desc>Created with Sketch.</desc>
    <defs></defs>
    <g id="Page-1" stroke="none" stroke-width="1" fill="none" fill-rule="evenodd">
        <g id="Captain-Train---trainline" fill="#00B8B0">
            <path d="M171.861,47.285 C171.179,47.36 170.648,47.36 170.118,47.36 C167.617,47.36 165.799,46.451 165.799,43.192 L165.799,0.91 L155.872,0.91 L155.872,44.86 C155.872,52.058 160.419,56.302 167.693,56.302 C169.285,56.302 170.421,56.15 171.861,55.847 L171.861,47.284 L171.861,47.285 Z M205.051,34.327 C205.051,30.008 207.627,26.598 212.022,26.598 C216.872,26.598 218.918,29.856 218.918,34.024 L218.918,55.771 L228.996,55.771 L228.996,32.281 C228.996,24.097 224.752,17.505 215.508,17.505 C211.492,17.505 207.021,19.247 204.748,23.112 L204.748,18.49 L194.972,18.49 L194.972,55.771 L205.051,55.771 L205.051,34.327 L205.051,34.327 L205.051,34.327 Z M125.41,34.327 C125.41,30.008 127.987,26.598 132.382,26.598 C137.231,26.598 139.277,29.856 139.277,34.024 L139.277,55.771 L149.355,55.771 L149.355,32.281 C149.355,24.097 145.111,17.505 135.867,17.505 C131.851,17.505 127.38,19.247 125.107,23.112 L125.107,18.49 L115.332,18.49 L115.332,55.771 L125.41,55.771 L125.41,34.327 L125.41,34.327 Z M176.256,6.289 C176.256,9.624 179.059,12.428 182.47,12.428 C185.955,12.427 188.683,9.624 188.683,6.289 C188.683,2.804 185.955,0 182.47,0 C179.059,0 176.256,2.804 176.256,6.289 L176.256,6.289 Z M187.546,18.49 L177.468,18.49 L177.468,55.771 L187.546,55.771 L187.546,18.49 L187.546,18.49 Z M96.539,6.289 C96.539,9.624 99.343,12.428 102.753,12.428 C106.239,12.427 108.967,9.624 108.967,6.289 C108.967,2.804 106.239,0 102.753,0 C99.343,0 96.539,2.804 96.539,6.289 L96.539,6.289 Z M107.83,18.49 L97.751,18.49 L97.751,55.771 L107.83,55.771 L107.83,18.49 L107.83,18.49 Z M262.034,42.587 C260.822,45.921 258.246,48.27 253.548,48.27 C248.546,48.27 244.378,44.708 244.151,39.783 L270.825,39.783 C270.825,39.632 270.976,38.116 270.976,36.676 C270.976,24.703 264.08,17.353 252.562,17.353 C243.015,17.353 234.225,25.082 234.225,36.98 C234.225,49.558 243.242,56.909 253.471,56.909 C262.641,56.908 268.551,51.528 270.445,45.087 L262.034,42.586 L262.034,42.587 Z M244.378,32.888 C244.606,29.477 247.486,25.537 252.714,25.537 C258.473,25.537 260.898,29.174 261.049,32.888 L244.378,32.888 L244.378,32.888 Z M72.14,49.331 C68.881,49.33 67.29,47.209 67.29,45.011 C67.29,42.132 69.336,40.692 71.912,40.313 L80.323,39.025 L80.323,40.692 C80.323,47.284 76.383,49.33 72.139,49.33 L72.14,49.331 Z M57.211,45.618 C57.211,51.452 62.061,56.833 70.018,56.833 C75.549,56.833 79.111,54.256 81.005,51.301 C81.005,52.741 81.157,54.787 81.384,55.771 L90.628,55.771 C90.401,54.484 90.174,51.831 90.174,49.861 L90.174,31.523 C90.174,24.022 85.779,17.353 73.958,17.353 C63.955,17.353 58.576,23.794 57.969,29.629 L66.91,31.523 C67.214,28.265 69.639,25.461 74.034,25.461 C78.277,25.461 80.323,27.658 80.323,30.31 C80.323,31.599 79.641,32.66 77.519,32.963 L68.351,34.327 C62.137,35.237 57.212,38.949 57.212,45.618 L57.211,45.618 Z M53.422,18.338 C52.665,18.263 51.907,18.187 51.073,18.187 C47.891,18.187 42.738,19.096 40.465,24.022 L40.465,18.49 L30.69,18.49 L30.69,55.771 L40.768,55.771 L40.768,38.722 C40.768,30.69 45.238,28.189 50.392,28.189 C51.301,28.189 52.286,28.265 53.422,28.492 L53.422,18.338 L53.422,18.338 L53.422,18.338 Z M6.745,29.629 L6.745,44.784 C6.745,51.982 11.291,56.302 18.565,56.302 C22.279,56.302 24.249,55.393 24.249,55.393 L24.249,47.057 C23.718,47.209 22.354,47.36 21.142,47.36 C18.262,47.36 16.747,46.3 16.747,43.041 L16.747,29.629 L6.745,29.629 L6.745,29.629 Z M16.595,16.292 C16.747,15.686 16.747,15.004 16.747,14.246 L16.747,7.351 L7.654,7.351 L7.654,12.503 C7.654,14.019 7.351,15.383 6.669,16.292 L16.595,16.292 L16.595,16.292 Z M0,18.49 L0,27.431 L3.789,27.431 C10.533,27.431 14.625,23.869 16.216,18.49 L0,18.49 L0,18.49 L0,18.49 Z M18.414,18.49 C17.505,22.354 15.762,25.082 12.276,27.431 L24.249,27.431 L24.249,18.49 L18.414,18.49 L18.414,18.49 Z" id="XMLID_1_"></path>
        </g>
    </g>
</svg>