<?xml version="1.0" encoding="UTF-8"?> <svg xmlns="http://www.w3.org/2000/svg" width="2020" height="573" viewBox="0 0 2020 573" fill="none"> <path d="M0 562.052V0H405.499V102.658H105.224V256.645H387.533V354.17H105.224V562.052H0Z" transform="translate(0.0032959 0.599365)" fill="#1D1D1B"></path> <path d="M102.658 243.812C110.357 292.575 151.42 328.505 220.714 328.505C256.645 328.505 305.407 315.673 325.939 292.575L387.533 354.17C346.47 397.799 277.176 418.331 218.148 418.331C82.1263 418.331 9.79022e-06 333.638 9.79022e-06 207.882C9.79022e-06 87.2592 82.1262 0 210.449 0C343.904 0 426.03 82.1263 410.631 243.812C410.631 243.812 102.658 243.812 102.658 243.812ZM318.239 164.253C310.54 112.924 272.043 87.2592 215.581 87.2592C161.686 87.2592 118.057 112.924 105.224 164.253H318.239Z" transform="translate(451.697 154.586)" fill="#1D1D1B"></path> <path d="M102.658 243.812C110.357 292.575 151.42 328.505 220.714 328.505C256.645 328.505 305.407 315.673 325.939 292.575L387.533 354.17C346.47 397.799 277.176 418.331 218.148 418.331C82.1263 418.331 3.91609e-05 333.638 3.91609e-05 207.882C3.91609e-05 87.2592 82.1262 0 210.449 0C343.904 0 426.03 82.1263 410.631 243.812C410.631 243.812 102.658 243.812 102.658 243.812ZM318.239 164.253C310.54 112.924 272.043 87.2592 215.581 87.2592C161.686 87.2592 118.057 112.924 105.224 164.253H318.239Z" transform="translate(921.358 154.586)" fill="#1D1D1B"></path> <path d="M433.729 0V562.052H341.337L333.638 508.156C302.841 554.352 254.078 572.317 205.316 572.317C89.8256 572.317 0 495.324 0 364.435C0 228.414 87.2592 156.553 202.749 156.553C243.812 156.553 310.54 179.651 333.638 220.714V0H433.729ZM102.658 361.869C102.658 431.163 151.42 477.359 215.582 477.359C277.176 477.359 331.072 431.163 331.072 361.869C331.072 292.575 277.176 246.379 215.582 246.379C151.42 246.379 102.658 292.575 102.658 361.869Z" transform="translate(1385.88 0.599365)" fill="#1D1D1B"></path> <path d="M115.49 57.745C115.49 134.738 -7.83217e-05 134.738 -7.83217e-05 57.745C-7.83217e-05 -19.2484 115.49 -19.2484 115.49 57.745Z" transform="translate(1904.31 453.578)" fill="#1D1D1B"></path> </svg> 