<?xml version="1.0" encoding="UTF-8"?> <svg xmlns="http://www.w3.org/2000/svg" width="766" height="1056" viewBox="0 0 766 1056" fill="none"> <path d="M650.629 182.621L167.567 576.992C152.512 589.428 136.148 594.338 120.766 594.338C102.438 594.338 85.0924 587.138 72.3285 576.665C65.783 571.101 59.5647 564.228 54.9828 556.373L54.6555 555.719L0 468.335C4.25462 474.881 9.49108 480.772 15.3821 485.354C28.1459 496.154 45.4917 503.027 63.8193 503.027C79.2014 503.027 95.5653 497.79 110.62 485.681L593.683 91.3107C617.902 71.3467 626.738 39.6007 616.265 10.1457C614.956 6.54559 613.647 3.27278 612.011 0L665.684 85.7469C668.957 90.6561 671.575 95.8926 673.539 101.784C683.685 130.911 674.848 162.985 650.629 182.621Z" transform="translate(87.3442 461.04)" fill="#F8CC00"></path> <path fill-rule="evenodd" clip-rule="evenodd" d="M697.871 459.834C699.835 463.107 701.144 466.38 702.453 469.98C712.926 499.435 704.089 531.508 679.544 550.817L196.481 945.188C181.426 957.297 165.062 962.534 149.68 962.534C131.352 962.534 114.007 955.661 101.243 944.861C94.697 939.624 89.1333 933.406 84.5515 925.878L80.2969 918.024L26.9504 819.84C13.532 799.222 8.95019 771.73 24.3323 743.257L93.3879 617.909C83.2424 613.655 74.7331 606.127 68.5149 596.636C65.8967 592.709 64.2602 588.782 62.6238 584.854L7.6411 485.689C-1.52271 469.325 -2.50465 449.688 5.02294 432.67L181.426 39.6085C190.59 18.9899 210.881 5.57164 233.463 5.24425L508.377 0.00767845C528.996 -0.31947 547.65 9.82604 559.105 26.8446C559.105 27.172 559.432 27.4991 559.432 27.4991L563.36 36.3358L619.652 138.774L620.961 140.738C629.797 157.101 630.125 176.738 622.27 193.757L566.633 313.541H574.487C605.906 313.541 633.07 332.523 643.543 361.978C643.731 362.166 643.811 362.246 643.845 362.342C643.87 362.413 643.87 362.493 643.87 362.632V362.305L696.235 456.888L697.871 459.834ZM596.088 421.542L600.342 417.942C611.552 408.562 615.406 396.625 615.369 385.816C615.364 381.074 614.625 376.521 613.433 372.451C608.524 359.359 596.088 345.614 575.142 345.614H451.103C441.285 345.614 432.448 340.705 427.212 332.523C424.472 327.956 423.057 322.777 423.025 317.555C423.045 313.53 423.886 309.487 425.576 305.686L534.232 71.6817C534.723 70.618 535.142 69.5392 535.49 68.4493C537.924 60.8202 536.85 52.6588 532.268 45.4994C531.614 44.5177 530.913 43.5868 530.17 42.7098C524.967 36.5716 517.666 33.0638 509.362 33.0629H508.704L234.118 37.972C225.527 37.972 217.437 42.4825 212.917 49.7491C212.272 50.7872 211.699 51.8815 211.208 53.027L34.478 445.761C32.9319 449.275 32.1706 452.909 32.1938 456.508C32.1609 461.403 33.5767 466.241 36.4416 470.634C41.3508 478.161 49.2053 482.416 58.042 482.416H149.68C161.135 482.416 171.607 488.307 177.499 498.125C180.544 503.37 182.102 509.051 182.129 514.718C182.099 519.904 180.786 525.071 178.153 529.871L53.1328 758.966C40.6963 781.549 50.8418 801.84 63.2783 811.985C66.9314 815.097 71.4236 817.818 76.4309 819.684C88.3415 824.161 103.214 823.839 117.275 812.316L117.279 812.313L596.088 421.542Z" transform="translate(0.829102 0.879395)" fill="#6B8FC9"></path> </svg> 