<?xml version="1.0" encoding="UTF-8"?> <svg xmlns="http://www.w3.org/2000/svg" width="166" height="29" viewBox="0 0 166 29" fill="none"> <path d="M9.095 8.118C10.2051 8.16461 11.2888 8.47044 12.2595 9.011C13.2302 9.55156 14.0608 10.3118 14.685 11.231L17.447 8.645C16.4588 7.33727 15.1894 6.26836 13.7324 5.51732C12.2755 4.76627 10.6684 4.3523 9.03 4.306C3.368 4.306 1.362 8.035 1.362 11.042C1.362 15.483 5.141 16.742 8.175 17.758C11.115 18.744 12.915 19.458 12.915 21.544C12.915 23.831 10.115 24.186 8.908 24.186C7.72209 24.1435 6.56317 23.8204 5.52628 23.2433C4.4894 22.6662 3.6041 21.8515 2.943 20.866L0 23.55L0.609 24.25C1.60392 25.4645 2.86449 26.4342 4.2935 27.0844C5.72251 27.7345 7.28176 28.0478 8.851 28C13.887 28 17.138 25.241 17.138 21.143C17.138 16.556 13.229 15.201 10.085 14.113C7.292 13.14 5.579 12.464 5.579 10.698C5.579 8.757 7.493 8.118 9.095 8.118ZM75 8V5H59V9H69L58.121 24.616L58 28H75V24H63L75 8ZM94 5L84 28H89L91 21H99L102 28H106L97 5H94ZM93 18L95.313 11.155L98 18H93ZM133 20L121 5H118V28H122L122.037 12.727L134 28H137V5H133V20ZM45 24H35V18H44V14H35V9H45V5L39.887 4.926L43.514 0H38.755L35.486 4.926L31 5V28H45V24ZM166 24H155V18H165V14H155V9H166V5H151V28H166V24Z" fill="black"></path> </svg> 