<?xml version="1.0" encoding="UTF-8" standalone="no"?>
<svg width="861px" height="478px" viewBox="0 0 861 478" version="1.1" xmlns="http://www.w3.org/2000/svg" xmlns:xlink="http://www.w3.org/1999/xlink">
    <!-- Generator: Sketch 3.8.2 (29753) - http://www.bohemiancoding.com/sketch -->
    <title>frichti</title>
    <desc>Created with Sketch.</desc>
    <defs></defs>
    <g id="Page-1" stroke="none" stroke-width="1" fill="none" fill-rule="evenodd">
        <g id="frichti" transform="translate(0.000000, -1.000000)" fill="#596678">
            <path d="M318.549,337.093 L304.476,337.093 C301.313,337.093 298.746,339.654 298.746,342.818 L298.746,471.963 C298.746,475.127 301.313,477.694 304.476,477.694 L318.549,477.694 C321.713,477.694 324.28,475.127 324.28,471.963 L324.28,342.818 C324.28,339.654 321.713,337.093 318.549,337.093" id="Fill-1"></path>
            <g id="Group-5" transform="translate(381.000000, 336.365000)">
                <path d="M43.8745,30.6382 C49.3755,27.2382 55.1995,25.5852 61.6885,25.5852 C68.6315,25.5852 75.0905,27.8942 81.4365,32.6462 L85.6635,35.8102 C87.8635,37.4572 90.9405,37.3112 92.9665,35.4462 L103.5395,25.7492 C104.7895,24.6022 105.4665,22.9552 105.3915,21.2582 C105.3115,19.5612 104.4785,17.9862 103.1235,16.9602 L97.0375,12.3542 C86.2665,4.1932 74.3695,0.0562 61.6885,0.0562 C53.2975,0.0562 45.1615,1.8092 37.4905,5.2652 C29.9515,8.6652 23.3435,13.3522 17.8555,19.1822 C12.3915,24.9692 8.0285,31.8942 4.8825,39.7572 C1.7195,47.6512 0.1095,58.1742 0.1095,71.0282 C0.1095,84.2402 1.6255,94.1762 4.8765,102.2932 C8.0285,110.1632 12.3915,117.0872 17.8495,122.8682 C23.3435,128.7042 29.9515,133.3852 37.4905,136.7852 C45.1615,140.2472 53.2975,142.0002 61.6885,142.0002 C74.9285,142.0002 87.0365,137.9102 97.6725,129.8482 L102.7065,126.0382 C105.2175,124.1422 105.7215,120.5742 103.8445,118.0502 L95.4595,106.7872 C94.5455,105.5602 93.1845,104.7492 91.6675,104.5372 C90.1695,104.3292 88.6215,104.7242 87.3975,105.6472 L82.2755,109.5382 C76.1405,114.2032 69.4025,116.4722 61.6885,116.4722 C55.1995,116.4722 49.3695,114.8152 43.8685,111.4152 C38.2115,107.9192 33.8545,103.2822 30.5415,97.2312 C27.3775,91.4722 25.5625,81.9182 25.5625,71.0282 C25.5625,59.6532 27.2345,50.8392 30.5415,44.8162 C33.8545,38.7712 38.2185,34.1312 43.8745,30.6382" id="Fill-3"></path>
            </g>
            <path d="M86.6354,337.093 L5.7684,337.093 C2.6044,337.093 0.0434,339.654 0.0374,342.818 L0.0004,471.963 C0.0004,473.483 0.6034,474.94 1.6784,476.015 C2.7534,477.091 4.2144,477.694 5.7314,477.694 L19.8034,477.694 C22.9674,477.694 25.5344,475.127 25.5344,471.963 L25.5344,415.803 L62.0704,415.803 C65.2344,415.803 67.8014,413.236 67.8014,410.072 L67.8014,396 C67.8014,392.836 65.2344,390.275 62.0704,390.275 L25.5344,390.275 L25.5344,362.621 L79.1514,362.621 L86.7414,362.478 C89.8614,362.416 92.3664,359.871 92.3664,356.747 L92.3664,342.818 C92.3664,339.654 89.7994,337.093 86.6354,337.093" id="Fill-6"></path>
            <path d="M208.1709,379.1737 C208.1709,380.9517 207.8419,384.4197 207.1389,386.0637 C206.3749,387.8477 205.3369,389.3677 203.8629,390.8467 C202.6199,392.1027 200.7179,393.2277 198.3689,394.1037 C195.6459,395.1107 192.4329,395.6267 188.8279,395.6267 L166.3239,395.6267 L166.3239,362.6207 L188.8279,362.6207 C192.4389,362.6207 195.6399,363.1307 198.3559,364.1437 C200.7619,365.0387 202.6139,366.1327 203.8699,367.4077 C205.3299,368.8777 206.4059,370.4347 207.1519,372.1627 C207.8479,373.7757 208.1709,377.4087 208.1709,379.1737 M230.6529,396.0807 C232.6799,391.3167 233.7049,384.3827 233.7049,379.1737 C233.7049,373.9587 232.6739,366.8417 230.6469,362.0927 C228.6579,357.4127 225.7739,353.1417 222.0629,349.4037 C218.1969,345.5157 213.2559,342.4327 207.3749,340.2377 C201.7749,338.1497 195.5469,337.0927 188.8649,337.0927 L146.0109,337.0927 C144.4259,337.0927 142.9159,337.7457 141.8339,338.9017 C140.7529,340.0547 140.1929,341.6057 140.2929,343.1847 L140.7149,349.5987 L140.7899,471.9687 C140.7959,475.1297 143.3569,477.6937 146.5209,477.6937 L160.5929,477.6937 C163.7569,477.6937 166.3239,475.1267 166.3239,471.9627 L166.3239,421.1547 L181.9399,421.1547 L206.6979,474.2537 C207.6049,476.3447 209.6689,477.6997 211.9499,477.6997 L227.8629,477.6997 C229.8019,477.6997 231.6109,476.7177 232.6669,475.0927 C233.7239,473.4667 233.8859,471.4157 233.0959,469.6447 L208.1649,417.5807 C213.6909,415.4307 218.3459,412.4777 222.0009,408.8107 C225.7309,405.0997 228.6399,400.8167 230.6529,396.0807" id="Fill-8"></path>
            <path d="M626.1898,337.093 L612.1168,337.093 C608.9538,337.093 606.3868,339.654 606.3868,342.818 L606.3868,395.304 L562.3288,395.304 L562.3288,342.818 C562.3288,339.654 559.7618,337.093 556.5978,337.093 L542.5258,337.093 C539.3618,337.093 536.7948,339.654 536.7948,342.818 L536.7948,471.963 C536.7948,475.127 539.3618,477.694 542.5258,477.694 L556.5978,477.694 C559.7618,477.694 562.3288,475.127 562.3288,471.963 L562.3288,420.832 L606.3868,420.832 L606.3868,471.963 C606.3868,475.127 608.9538,477.694 612.1168,477.694 L626.1898,477.694 C629.3538,477.694 631.9208,475.127 631.9208,471.963 L631.9208,342.818 C631.9208,339.654 629.3538,337.093 626.1898,337.093" id="Fill-10"></path>
            <path d="M776.0319,337.093 L685.5799,337.093 C682.4159,337.093 679.8489,339.654 679.8489,342.818 L679.8489,356.747 C679.8489,359.905 682.4039,362.466 685.5609,362.478 L718.0389,362.599 L718.0389,471.963 C718.0389,475.127 720.6059,477.694 723.7699,477.694 L737.8419,477.694 C741.0059,477.694 743.5729,475.127 743.5729,471.963 L743.5729,362.621 L768.5479,362.621 L776.1379,362.478 C779.2579,362.416 781.7629,359.871 781.7629,356.747 L781.7629,342.818 C781.7629,339.654 779.1959,337.093 776.0319,337.093" id="Fill-12"></path>
            <path d="M855.1696,337.093 L841.0966,337.093 C837.9336,337.093 835.3666,339.654 835.3666,342.818 L835.3666,471.963 C835.3666,475.127 837.9336,477.694 841.0966,477.694 L855.1696,477.694 C858.3336,477.694 860.9006,475.127 860.9006,471.963 L860.9006,342.818 C860.9006,339.654 858.3336,337.093 855.1696,337.093" id="Fill-14"></path>
            <g id="Group-18" transform="translate(294.000000, 0.365000)">
                <path d="M255.5646,229.8635 L17.4606,229.8635 C17.3276,229.8635 17.1626,229.8285 16.9896,229.7685 L26.4216,205.7885 C27.9666,202.1765 28.4196,202.1765 29.1726,202.1765 L243.5716,202.1565 C244.4096,202.3575 246.0426,203.9275 246.3436,205.0105 L256.0286,229.7535 C255.8606,229.8205 255.6946,229.8635 255.5646,229.8635 L255.5646,229.8635 Z M130.7526,177.2765 L142.1476,177.2865 L142.1476,186.7685 L130.7526,186.7685 L130.7526,177.2765 Z M33.2456,161.4945 C33.0776,161.2885 33.0196,161.0505 33.0746,160.7915 C44.6106,106.4035 87.1396,68.4175 136.4936,68.4175 C185.9236,68.4175 228.4676,106.4745 239.9506,160.9625 C240.0056,161.2205 239.9486,161.4595 239.7776,161.6645 C239.5416,161.9555 239.2706,161.9555 239.1806,161.9555 L33.8446,161.7875 C33.7546,161.7875 33.4836,161.7875 33.2456,161.4945 L33.2456,161.4945 Z M118.5326,29.4255 L154.4906,29.4255 L154.4906,16.0435 L118.5326,16.0435 L118.5326,29.4255 Z M271.4796,227.0625 L261.0616,200.4515 C258.7346,192.8675 251.0976,186.7685 243.8176,186.7685 L162.6926,186.7685 L162.6926,177.3015 L239.1806,177.3635 C244.0756,177.3635 248.6556,175.1825 251.7446,171.3755 C254.8446,167.5535 256.0406,162.5975 255.0276,157.7855 C242.8156,99.8355 199.0586,58.3155 146.7226,53.4955 L146.7226,44.8335 L155.7516,44.8335 C163.5516,44.8335 169.8986,38.4865 169.8986,30.6845 L169.8986,14.7795 C169.8986,6.9795 163.5516,0.6345 155.7516,0.6345 L117.2706,0.6345 C109.4716,0.6345 103.1246,6.9795 103.1246,14.7795 L103.1246,30.6845 C103.1246,38.4865 109.4716,44.8335 117.2706,44.8335 L126.1776,44.8335 L126.1776,53.4985 C73.9586,58.3555 30.2636,99.7855 18.0026,157.5945 C16.9816,162.4075 18.1726,167.3625 21.2676,171.1895 C24.3546,175.0015 28.9346,177.1905 33.8296,177.1955 L110.2076,177.2585 L110.2076,186.7685 L29.1726,186.7685 C17.7916,186.7685 13.7666,196.1905 12.0866,200.1325 L1.7786,226.3475 C0.3166,230.1895 0.8816,234.4275 3.3266,237.9735 C6.3356,242.3405 12.0166,245.2715 17.4606,245.2715 L255.5646,245.2715 C260.7336,245.2715 265.8946,242.7185 269.0346,238.6105 C271.6546,235.1825 272.5456,230.9715 271.4796,227.0625 L271.4796,227.0625 Z" id="Fill-16"></path>
            </g>
        </g>
    </g>
</svg>