<?xml version="1.0" encoding="UTF-8" standalone="no"?>
<svg width="2890px" height="745px" viewBox="0 0 2890 745" version="1.1" xmlns="http://www.w3.org/2000/svg" xmlns:xlink="http://www.w3.org/1999/xlink">
    <!-- Generator: Sketch 3.8.2 (29753) - http://www.bohemiancoding.com/sketch -->
    <title>tinyclues</title>
    <desc>Created with Sketch.</desc>
    <defs></defs>
    <g id="Page-1" stroke="none" stroke-width="1" fill="none" fill-rule="evenodd">
        <g id="tinyclues" fill="#000000">
            <g id="Group-3" transform="translate(0.000000, 111.000000)">
                <path d="M128.9796,0.8353 L142.9236,0.8353 L142.9236,122.3453 L233.5576,122.3453 L233.5576,142.2643 L144.4176,142.2643 C144.4176,142.2643 141.4296,343.9513 142.9236,372.8343 C145.6556,425.6563 194.7146,453.5093 250.4896,396.7383 C253.3676,393.8083 257.9596,404.7053 257.9596,404.7053 C257.9596,404.7053 226.5856,455.5563 149.3976,455.5013 C84.6276,455.4543 58.7626,410.1833 58.7626,360.3843 L58.7626,140.7703 L-0.0004,140.7703 L-0.0004,125.8313 C14.9396,127.8233 107.5656,112.8833 128.9796,0.8353" id="Fill-1"></path>
            </g>
            <path d="M2890,121.0309 C2890,148.2879 2867.904,170.3849 2840.646,170.3849 C2813.389,170.3849 2791.293,148.2879 2791.293,121.0309 C2791.293,93.7739 2813.389,71.6769 2840.646,71.6769 C2867.904,71.6769 2890,93.7739 2890,121.0309" id="Fill-4"></path>
            <g id="Group-8" transform="translate(1525.000000, 0.000000)">
                <polygon id="Fill-6" points="0.3334 10.6667 0.3334 26.6667 59.6664 26.6667 59.6664 555.5817 206.3334 555.5817 206.3334 537.9997 144.3334 537.9997 144.3334 -0.0003"></polygon>
            </g>
            <polygon id="Fill-9" points="265.3333 233.0974 265.3333 251.3334 311.3333 251.3334 311.3333 555.5814 453.3333 555.5814 453.3333 536.6664 396.0003 536.6664 396.0003 233.0974"></polygon>
            <g id="Group-13" transform="translate(855.000000, 233.000000)">
                <polygon id="Fill-11" points="0.3333 0.0974 0.3333 17.6664 44.3333 17.6664 185.0003 322.5814 105.0003 505.0004 123.0003 512.0004 343.0003 18.3334 386.3333 18.3334 386.3333 0.0974 265.6663 0.0974 265.6663 17.0004 318.3333 17.0004 229.0003 227.0004 136.3333 17.6664 187.0003 17.6664 187.0003 0.0974"></polygon>
            </g>
            <path d="M2270.6667,293.3333 C2271.3337,281.3333 2281.3337,241.3333 2336.6667,242.0003 C2391.9997,242.6663 2392.6667,289.3333 2393.3337,303.3333 C2393.9997,317.3333 2393.3337,355.3333 2393.3337,355.3333 L2270.6667,355.3333 C2270.6667,355.3333 2269.9997,305.3333 2270.6667,293.3333 L2270.6667,293.3333 Z M2465.3337,455.3333 C2465.3337,455.3333 2442.3837,548.5663 2353.3337,550.6663 C2264.2837,552.7673 2270.3707,474.0003 2270.3707,474.0003 L2270.3707,372.5003 L2471.3337,372.5003 C2471.3337,372.5003 2482.6667,375.3333 2481.9997,360.0003 C2481.3337,344.6663 2467.3337,228.6663 2338.6667,228.6663 C2209.9997,228.6663 2175.3997,350.6663 2175.3997,391.3293 C2175.3997,428.0003 2185.3337,567.5803 2331.9997,567.5803 C2478.6657,567.5803 2482.0287,456.0003 2482.0287,456.0003 L2465.3337,455.3333 Z" id="Fill-14"></path>
            <path d="M462.6667,233.0974 L462.6667,251.3334 L519.9997,251.3334 L519.9997,555.5814 L653.9997,555.5814 L653.9997,538.0004 L603.3337,538.0004 C603.3337,538.0004 601.9377,420.6124 603.3337,402.6664 C606.4627,362.4274 599.5267,275.4944 689.7487,255.0724 C738.6667,244.0004 741.9997,312.0004 741.9997,312.0004 L741.9997,555.5814 L883.9997,555.5814 L883.9997,536.6664 L826.6667,536.6664 L826.6667,325.3334 C826.6667,325.3334 837.3347,228.6664 733.9997,228.6664 C630.6657,228.6664 605.9997,305.3334 605.9997,305.3334 L605.9997,233.0974 L462.6667,233.0974 Z" id="Fill-16"></path>
            <path d="M2152.6667,557.1503 L2152.6667,538.9143 L2095.3337,538.9143 L2095.3337,234.6663 L1951.3337,234.6663 L1951.3337,252.2473 L2011.9997,252.2473 C2011.9997,252.2473 2013.3957,369.6353 2011.9997,387.5813 C2008.8707,427.8203 2012.4337,523.2023 1921.9997,542.6663 C1861.9987,555.5813 1873.3337,478.2473 1873.3337,478.2473 L1873.3337,234.6663 L1735.9997,234.6663 L1735.9997,253.5813 L1788.6667,253.5813 L1788.6667,464.9143 C1788.6667,464.9143 1774.6647,567.5803 1877.9987,567.5803 C1981.3337,567.5803 2009.3337,484.9143 2009.3337,484.9143 L2009.3337,557.1503 L2152.6667,557.1503 Z" id="Fill-18"></path>
            <path d="M2744,274.6667 L2728,285.9997 C2728,285.9997 2705.333,239.9837 2648,241.9917 C2590.667,243.9997 2570.667,279.3247 2573.333,298.6627 C2576,317.9997 2584.667,334.6667 2667.333,349.9997 C2750,365.3337 2771.333,413.3337 2765.333,467.9997 C2759.333,522.6667 2735.711,567.5807 2656,567.5807 C2603.332,567.5807 2567.333,531.9997 2567.333,531.9997 L2544,555.5817 L2530.667,555.5817 L2530.667,439.9997 L2548.667,439.9997 C2548.667,439.9997 2566.667,553.9997 2654,551.3337 C2741.333,548.6667 2731.333,487.3337 2731.333,477.9997 C2731.333,468.6667 2717.333,441.3337 2664,435.3337 C2610.667,429.3337 2529.333,415.3337 2534.667,320.6667 C2540,225.9997 2642.002,228.6667 2652.667,228.6667 C2663.332,228.6667 2714,227.3337 2744,274.6667" id="Fill-20"></path>
            <path d="M1512.6666,457.3334 L1527.9996,457.3334 C1527.9996,457.3334 1516.0006,567.5804 1387.9996,567.5804 C1259.9986,567.5804 1229.9996,444.0004 1231.9996,388.0004 C1233.9996,332.0004 1279.3346,224.2364 1407.3336,228.6664 C1535.3316,233.0974 1523.3336,307.3334 1521.9996,314.6664 C1520.6666,322.0004 1519.0226,366.2194 1461.9996,354.0004 C1424.6666,346.0004 1435.3336,306.0004 1439.9996,300.0004 C1444.6666,294.0004 1463.9996,279.3334 1458.6666,266.6664 C1453.3336,254.0004 1429.9996,240.6664 1403.9996,241.3334 C1377.9996,242.0004 1325.9996,250.0004 1325.9996,334.0004 C1325.9996,418.0004 1326.6666,470.0004 1327.3336,481.3334 C1327.9996,492.6664 1333.9996,551.3334 1395.3336,548.0004 C1456.6666,544.6664 1489.3336,530.0004 1512.6666,457.3334" id="Fill-22"></path>
        </g>
    </g>
</svg>