<?xml version="1.0" encoding="UTF-8"?> <svg xmlns="http://www.w3.org/2000/svg" width="675" height="350" viewBox="0 0 675 350" fill="none"> <path d="M0 0H72.4817V9.72315H64.5264C59.2229 9.72315 55.6872 10.1651 53.9193 11.491C52.1515 12.8169 51.2676 14.1428 51.2676 15.9106C51.2676 17.6785 52.1515 20.3302 53.4774 24.3079L90.6022 117.562L121.098 38.0087C123.307 32.7052 124.191 27.8436 124.191 22.982C124.191 18.5624 122.865 15.4687 120.656 13.2589C118.004 11.049 114.468 9.72315 109.607 9.72315H102.977V0H159.99V9.72315H155.571C152.035 9.72315 148.499 11.049 145.847 13.7008C142.754 16.3526 140.102 21.2142 137.45 27.8436L86.6245 157.338H74.6915L20.7722 21.2142C19.0044 16.3526 16.7945 13.2588 14.5847 11.933C12.3749 10.6071 8.39727 9.72315 3.09373 9.72315H0V0Z" transform="translate(0.78833 152.883)" fill="#172753"></path> <path d="M0 56.5711L41.5444 54.8033V137.892C41.5444 140.102 42.4283 141.87 43.7542 143.196C45.0801 144.522 47.2899 144.963 49.9417 144.963H56.1292V154.687H0V144.963H6.18747C9.72317 144.963 11.933 144.08 13.2589 142.754C14.5847 140.986 15.4687 138.334 15.4687 134.356V77.3433C15.4687 73.8076 14.5847 71.1558 12.3749 68.946C10.6071 67.1782 7.51335 65.8523 4.41962 65.8523H0V56.5711ZM25.6338 0C30.0534 0 34.0311 1.76784 37.1248 4.86157C40.2185 7.95531 41.9864 12.3749 41.9864 16.7945C41.9864 21.6561 40.2185 25.6338 37.1248 28.7275C34.0311 31.8212 30.0534 33.5891 25.6338 33.5891C21.2142 33.5891 17.2365 31.8212 14.1428 28.7275C11.049 25.1918 9.28119 21.2142 9.28119 16.7945C9.28119 11.933 11.049 7.95531 14.1428 4.86157C17.2365 1.76784 20.7722 0 25.6338 0Z" transform="translate(162.104 152.883)" fill="#172753"></path> <path d="M0 1.32588L44.1962 0V106.955L72.0398 83.5308C76.4594 79.9951 78.6692 76.4594 78.6692 74.2496C78.6692 72.4817 77.7853 71.1558 76.0174 70.2719C74.2496 68.946 71.1558 68.5041 67.1782 68.5041H64.0845V59.2229H118.446V68.5041C112.7 68.5041 107.839 69.388 104.745 70.7139C100.325 72.4817 95.9057 75.1335 91.9281 78.6692L76.0174 92.37L110.49 141.428C113.142 145.405 116.678 147.173 120.656 147.173H125.959V156.896H67.1782V147.173H72.9237C75.5755 147.173 77.7853 146.731 78.6692 146.289C79.9951 145.847 80.437 144.963 80.437 144.08C80.437 143.196 79.9951 142.312 79.5531 141.428L57.0131 108.723L44.1962 119.33V138.776C44.1962 141.87 44.6381 144.08 45.964 145.405C47.2899 146.731 49.0578 147.173 51.7095 147.173H58.339V156.896H0.883927V147.173H7.95531C11.491 147.173 13.7008 146.289 15.4687 144.521C17.2365 142.754 17.6785 140.102 17.6785 136.566V18.5624C17.6785 15.9106 16.7945 13.7008 15.4687 12.3749C13.7008 11.049 11.491 10.1651 8.83924 10.1651H0V1.32588Z" transform="translate(223.979 150.673)" fill="#172753"></path> <path d="M0 56.5711L41.5444 54.8033V137.892C41.5444 140.102 42.4283 141.87 43.7542 143.196C45.0801 144.522 47.2899 144.963 49.9417 144.963H56.1291V154.687H0V144.963H6.18744C9.72313 144.963 11.933 144.08 13.2589 142.754C14.5847 140.986 15.4687 138.334 15.4687 134.356V77.3433C15.4687 73.8076 14.5847 71.1558 12.3749 68.946C10.6071 67.1782 7.51335 65.8523 4.41962 65.8523H0V56.5711ZM25.6338 0C30.0534 0 34.031 1.76784 37.1248 4.86157C40.2185 7.95531 41.9864 12.3749 41.9864 16.7945C41.9864 21.6561 40.2185 25.6338 37.1248 28.7275C34.031 31.8212 30.0534 33.5891 25.6338 33.5891C21.2141 33.5891 17.2365 31.8212 14.1428 28.7275C11.049 25.1918 9.28119 21.2142 9.28119 16.7945C9.28119 11.933 11.049 7.95531 14.1428 4.86157C17.2365 1.76784 21.2141 0 25.6338 0Z" transform="translate(357.894 152.883)" fill="#172753"></path> <path d="M124.633 92.37V102.093H68.5041V92.37H74.2496C77.3433 92.37 79.5531 91.4861 81.3209 89.7182C82.6468 87.9504 83.5308 85.7406 83.5308 82.2049V39.7766C83.5308 32.7052 81.7629 26.9597 78.6692 22.982C75.5754 19.0044 71.5978 17.2365 66.2943 17.2365C59.2229 17.2365 53.4774 19.8883 49.0578 25.6338C44.6381 31.3793 42.4283 38.8926 42.4283 49.4997V82.2049C42.4283 85.2986 43.3123 87.9504 44.6381 89.7182C46.406 91.4861 48.1738 92.37 50.8256 92.37H57.897V102.093H0V92.37H7.51334C10.6071 92.37 12.8169 91.4861 14.1428 89.7182C15.4686 87.9504 16.3526 85.7406 16.3526 82.2049V24.3079C16.3526 20.7722 15.4687 18.1204 13.2589 16.3526C11.049 14.5847 8.39727 13.2589 4.86157 13.2589H0.88391V3.97765L40.2185 1.76784C41.5444 7.9553 42.8703 15.0267 43.3122 22.982C48.6158 15.4687 54.8032 9.28119 60.9907 5.7455C67.1782 1.76784 73.8076 0 80.437 0C89.7182 0 97.2316 3.09374 102.535 9.72316C107.839 16.3526 110.49 25.1918 110.49 36.6828V81.7629C110.49 85.2986 111.374 87.9504 112.7 89.2763C114.026 90.6022 116.678 91.4861 120.214 91.4861H124.633V92.37Z" transform="translate(424.188 205.035)" fill="#172753"></path> <path d="M76.9014 15.0267C84.8567 5.30355 92.812 0 100.767 0C104.745 0 107.839 1.32588 110.49 3.53569C113.142 5.7455 114.026 9.2812 114.026 12.8169C114.026 16.3526 113.142 19.0044 111.374 21.2142C109.607 23.424 107.397 24.3079 104.303 24.3079C100.325 24.3079 97.6735 22.0981 95.9057 17.6785C95.0218 15.0267 93.6959 13.7008 91.9281 13.7008C90.1602 13.7008 87.5085 15.9106 84.4147 19.8883C91.4861 27.4016 95.4638 35.357 95.4638 43.7542C95.4638 50.3837 93.6959 56.1292 90.1602 61.4327C86.6245 66.7362 81.763 70.7139 74.6916 74.2496C67.6202 77.3433 59.2229 79.1112 48.6158 79.1112H38.0087C30.0534 79.1112 24.7499 79.9951 22.0981 81.7629C19.4463 83.5308 17.6785 85.7406 17.6785 88.3924C17.6785 90.6022 18.5624 92.37 20.3303 93.2539C22.5401 94.5798 26.5177 95.4638 31.3793 95.4638L40.6605 95.0218C50.3836 94.5798 57.897 94.1379 62.7586 94.1379C78.2272 94.1379 89.2763 96.3477 95.0218 101.209C101.209 105.629 104.303 112.258 104.303 120.214C104.303 129.937 100.767 137.892 93.6959 143.638C85.2986 150.709 70.272 154.687 49.0578 154.687C30.9374 154.687 18.1204 152.477 11.049 148.057C3.53569 143.638 0 138.334 0 132.589C0 129.053 1.76787 125.517 4.86161 122.865C7.95534 120.214 14.5848 117.562 24.7499 114.91C18.1205 113.584 13.2589 111.374 9.72318 107.839C6.18749 104.303 4.86161 100.325 4.86161 95.0218C4.86161 90.1602 6.18747 86.1826 8.39728 82.6469C11.0491 79.1112 15.4687 76.4594 21.6562 73.8076C15.4687 70.2719 11.0491 66.2943 7.95533 61.4327C4.86159 56.5711 3.09375 51.2676 3.09375 45.0801C3.09375 38.4507 4.86159 32.7052 8.39728 27.4016C11.933 22.0981 17.2365 17.6785 24.3079 14.5847C31.3793 11.491 39.7766 9.72316 49.9417 9.72316C54.8033 9.72316 59.2229 10.1651 64.0845 11.049C68.5041 11.933 72.9237 13.2589 76.9014 15.0267ZM88.3924 129.495C88.3924 125.517 86.1825 122.423 81.7629 120.656C78.6692 119.33 72.0398 118.888 61.8746 118.888C43.3123 118.888 30.9373 120.214 25.6338 122.865C20.3303 125.517 17.6785 128.611 17.6785 132.589C17.6785 136.124 19.8883 139.66 23.866 141.87C28.2856 144.522 36.2409 145.847 47.7319 145.847C63.2005 145.847 73.8076 144.08 80.879 140.102C86.1826 137.45 88.3924 133.914 88.3924 129.495ZM49.4997 18.5624C45.0801 18.5624 41.1024 20.7722 37.5668 25.1918C34.473 29.6114 32.7052 36.2409 32.7052 44.6382C32.7052 52.5935 34.473 58.7809 37.5668 63.2005C40.6605 67.6202 44.6381 69.83 49.4997 69.83C54.3613 69.83 58.339 67.6202 61.4327 63.2005C64.9684 58.7809 66.2943 52.5935 66.2943 44.6382C66.2943 36.6828 64.5265 30.0534 61.4327 25.6338C57.897 20.7722 53.9193 18.5624 49.4997 18.5624Z" transform="translate(556.334 194.427)" fill="#172753"></path> <path d="M239.927 56.5711C239.043 56.1291 238.159 56.1291 236.833 56.5711C216.061 59.2229 216.503 67.1782 216.945 82.2049C216.945 84.8567 217.387 87.9504 217.387 91.4861C217.387 102.977 216.503 111.816 215.177 118.888C204.128 100.767 182.914 68.0621 161.699 44.1962C161.699 44.1962 161.699 44.1962 161.699 43.7542C150.208 22.982 121.481 6.18747 112.2 0.883924L110.432 0C109.99 0 109.548 0 109.548 0C109.548 0.441962 109.99 0.883924 109.99 1.32589L72.4232 72.0398L23.3654 122.423C21.5976 118.004 22.0396 114.91 22.0396 114.468V82.6469C22.0396 76.9014 20.7137 72.9237 17.62 71.1558C17.178 70.7139 16.736 70.7139 16.2941 70.2719C14.9682 69.388 13.2003 69.388 11.4325 69.83C10.1066 69.83 9.22267 70.2719 9.22267 70.2719C8.78071 70.2719 8.33873 70.7139 8.33873 71.1558C7.01284 72.0398 5.245 73.3657 3.91911 74.6915C-0.0585457 79.5531 -1.38443 85.7406 1.7093 87.9504C4.36107 90.1602 8.33874 89.2763 12.3164 86.1825C12.7584 91.4861 12.3164 99.4414 10.9905 110.49L10.5485 112.7C7.45481 134.798 5.245 150.267 17.178 160.874L4.80305 173.249C3.03521 175.017 3.03521 177.669 4.80305 179.436C5.68698 180.32 7.01285 180.762 7.89677 180.762C8.7807 180.762 10.1066 180.32 10.9905 179.436L24.6913 165.736C30.4368 168.387 37.5082 171.039 46.7894 172.807H47.2314H202.36C203.244 172.807 219.596 172.365 229.762 159.99C235.949 152.035 238.159 141.428 235.949 128.169C235.065 123.749 233.297 118.004 231.529 111.816C226.668 96.7896 220.48 76.4594 226.668 68.5041C229.762 69.388 234.181 70.2719 238.601 69.83C247.882 68.946 254.953 65.4103 254.511 61.4327C254.069 58.7809 247.882 56.5711 239.927 56.5711ZM110.874 4.41962C113.084 12.3749 114.852 19.4463 116.177 26.5177L77.7268 66.2943L110.874 4.41962ZM74.191 73.3657L116.619 29.1695C118.387 38.0087 118.829 46.406 119.271 54.3613L45.0216 128.611L74.191 73.3657ZM36.6243 136.566C33.5306 134.798 30.4368 132.589 28.227 130.379C26.4592 128.611 25.1333 126.401 24.2494 124.633L68.4456 79.1112L39.2761 133.914L36.6243 136.566ZM75.075 144.522C60.4902 144.522 48.9992 142.312 40.16 138.334L41.9279 135.24L119.713 57.455C120.155 85.2986 113.526 104.303 109.548 114.026L78.1687 144.522H75.075ZM128.994 144.522H80.8205L106.012 120.214C106.012 120.656 105.57 120.656 105.57 120.656H128.552V144.522H128.994ZM204.57 142.312C200.15 145.405 196.172 144.522 196.172 144.522C196.172 144.522 195.731 144.522 195.289 144.522H137.834V120.656H154.628C154.628 120.656 187.333 100.767 166.119 53.0354C186.007 76.9014 205.012 106.513 214.735 122.423C212.083 133.914 208.106 139.66 204.57 142.312Z" transform="translate(419.827 0.848877)" fill="#172753"></path> <path d="M8.83924 17.6785C13.721 17.6785 17.6785 13.721 17.6785 8.83924C17.6785 3.95746 13.721 0 8.83924 0C3.95746 0 0 3.95746 0 8.83924C0 13.721 3.95746 17.6785 8.83924 17.6785Z" transform="translate(518.326 138.741)" fill="#172753"></path> <path d="M8.83924 17.6785C13.721 17.6785 17.6785 13.721 17.6785 8.83924C17.6785 3.95746 13.721 0 8.83924 0C3.95746 0 0 3.95746 0 8.83924C0 13.721 3.95746 17.6785 8.83924 17.6785Z" transform="translate(496.227 138.741)" fill="#172753"></path> <path d="M8.83924 17.6785C13.721 17.6785 17.6785 13.721 17.6785 8.83924C17.6785 3.95746 13.721 0 8.83924 0C3.95746 0 0 3.95746 0 8.83924C0 13.721 3.95746 17.6785 8.83924 17.6785Z" transform="translate(474.129 138.741)" fill="#172753"></path> <path d="M4.41962 8.83924C1.76785 8.83924 0 6.62943 0 4.41962C0 1.76785 2.20981 0 4.41962 0C6.62943 0 8.83924 2.20981 8.83924 4.41962C9.2812 6.62943 7.07139 8.83924 4.41962 8.83924ZM4.41962 0.883927C2.65177 0.883927 0.883944 2.65177 0.883944 4.41962C0.883944 6.18747 2.65177 7.95531 4.41962 7.95531C6.18747 7.95531 7.95533 6.18747 7.95533 4.41962C7.95533 2.65177 6.62943 0.883927 4.41962 0.883927Z" transform="translate(478.549 143.16)" fill="white"></path> <path d="M4.41962 8.83924C1.76785 8.83924 0 6.62943 0 4.41962C0 1.76785 2.20981 0 4.41962 0C6.62943 0 8.83924 2.20981 8.83924 4.41962C9.2812 6.62943 7.07139 8.83924 4.41962 8.83924ZM4.41962 0.883927C2.65177 0.883927 0.883944 2.65177 0.883944 4.41962C0.883944 6.18747 2.65177 7.95531 4.41962 7.95531C6.18747 7.95531 7.95533 6.18747 7.95533 4.41962C7.95533 2.65177 6.62943 0.883927 4.41962 0.883927Z" transform="translate(500.647 143.16)" fill="white"></path> <path d="M4.41962 8.83924C1.76785 8.83924 0 6.62943 0 4.41962C0 1.76785 2.20981 0 4.41962 0C6.62943 0 8.83924 2.20981 8.83924 4.41962C9.2812 6.62943 7.07139 8.83924 4.41962 8.83924ZM4.41962 0.883927C2.65177 0.883927 0.883944 2.65177 0.883944 4.41962C0.883944 6.18747 2.65177 7.95531 4.41962 7.95531C6.18747 7.95531 7.95533 6.18747 7.95533 4.41962C7.95533 2.65177 6.62943 0.883927 4.41962 0.883927Z" transform="translate(522.745 143.16)" fill="white"></path> <path d="M8.83924 17.6785C13.721 17.6785 17.6785 13.721 17.6785 8.83924C17.6785 3.95746 13.721 0 8.83924 0C3.95746 0 0 3.95746 0 8.83924C0 13.721 3.95746 17.6785 8.83924 17.6785Z" transform="translate(540.424 138.741)" fill="#172753"></path> <path d="M8.83927 17.6785C13.721 17.6785 17.6785 13.721 17.6785 8.83924C17.6785 3.95746 13.721 0 8.83927 0C3.95749 0 0 3.95746 0 8.83924C0 13.721 3.95749 17.6785 8.83927 17.6785Z" transform="translate(562.522 138.741)" fill="#172753"></path> <path d="M8.83924 17.6785C13.721 17.6785 17.6785 13.721 17.6785 8.83924C17.6785 3.95746 13.721 0 8.83924 0C3.95746 0 0 3.95746 0 8.83924C0 13.721 3.95746 17.6785 8.83924 17.6785Z" transform="translate(584.62 138.741)" fill="#172753"></path> <path d="M8.83924 17.6785C13.721 17.6785 17.6785 13.721 17.6785 8.83924C17.6785 3.95746 13.721 0 8.83924 0C3.95746 0 0 3.95746 0 8.83924C0 13.721 3.95746 17.6785 8.83924 17.6785Z" transform="translate(606.718 138.741)" fill="#172753"></path> <path d="M4.41962 8.83924C1.76785 8.83924 0 6.62943 0 4.41962C0 1.76785 2.20981 0 4.41962 0C6.62943 0 8.83924 2.20981 8.83924 4.41962C9.2812 6.62943 7.07139 8.83924 4.41962 8.83924ZM4.41962 0.883927C2.65177 0.883927 0.883944 2.65177 0.883944 4.41962C0.883944 6.18747 2.65177 7.95531 4.41962 7.95531C6.18747 7.95531 7.95533 6.18747 7.95533 4.41962C7.95533 2.65177 6.62943 0.883927 4.41962 0.883927Z" transform="translate(544.843 143.16)" fill="white"></path> <path d="M4.41962 8.83924C1.76785 8.83924 0 6.62943 0 4.41962C0 1.76785 2.20981 0 4.41962 0C6.62943 0 8.83924 2.20981 8.83924 4.41962C9.2812 6.62943 7.07139 8.83924 4.41962 8.83924ZM4.41962 0.883927C2.65177 0.883927 0.88391 2.65177 0.88391 4.41962C0.88391 6.18747 2.65177 7.95531 4.41962 7.95531C6.18747 7.95531 7.95526 6.18747 7.95526 4.41962C7.95526 2.65177 6.62943 0.883927 4.41962 0.883927Z" transform="translate(566.941 143.16)" fill="white"></path> <path d="M4.41962 8.83924C1.76785 8.83924 0 6.62943 0 4.41962C0 1.76785 2.20981 0 4.41962 0C6.62943 0 8.83924 2.20981 8.83924 4.41962C9.2812 6.62943 7.07139 8.83924 4.41962 8.83924ZM4.41962 0.883927C2.65177 0.883927 0.88391 2.65177 0.88391 4.41962C0.88391 6.18747 2.65177 7.95531 4.41962 7.95531C6.18747 7.95531 7.95526 6.18747 7.95526 4.41962C7.95526 2.65177 6.62943 0.883927 4.41962 0.883927Z" transform="translate(589.039 143.16)" fill="white"></path> <path d="M4.41962 8.83924C1.76785 8.83924 0 6.62943 0 4.41962C0 1.76785 2.20981 0 4.41962 0C6.62943 0 8.83924 2.20981 8.83924 4.41962C9.2812 6.62943 7.07139 8.83924 4.41962 8.83924ZM4.41962 0.883927C2.65177 0.883927 0.88391 2.65177 0.88391 4.41962C0.88391 6.18747 2.65177 7.95531 4.41962 7.95531C6.18747 7.95531 7.95526 6.18747 7.95526 4.41962C7.95526 2.65177 6.62943 0.883927 4.41962 0.883927Z" transform="translate(611.137 143.16)" fill="white"></path> </svg> 