<?xml version="1.0" encoding="UTF-8"?> <svg xmlns="http://www.w3.org/2000/svg" xmlns:xlink="http://www.w3.org/1999/xlink" width="262px" height="37px" viewBox="0 0 262 37"> <!-- Generator: Sketch 45.2 (43514) - http://www.bohemiancoding.com/sketch --> <title>jobteaser</title> <desc>Created with Sketch.</desc> <defs></defs> <g id="Page-1" stroke="none" stroke-width="1" fill="none" fill-rule="evenodd"> <g id="jobteaser" transform="translate(0.387954, 0.218317)"> <g id="Group-3" transform="translate(0.000000, 0.003966)" fill="#BEE33B"> <path d="M11.0224677,32.9176579 L10.9886759,33.053804 C10.9981541,33.006619 11.0076838,32.9594856 11.0173165,32.9124036 C11.047554,32.8924685 11.0777916,32.8724819 11.1080291,32.8524952 C11.0981903,32.8412141 11.0883515,32.829933 11.0785127,32.8186004 C11.0598654,32.8516195 11.0411666,32.8846387 11.0224677,32.9176579 M18.3888327,15.3443522 C17.5441911,17.3427587 16.7313839,19.2651336 15.9190402,21.1877146 C15.1112297,23.0996325 14.3023888,25.0111899 13.4968448,26.9240866 C12.6882615,28.844298 11.8659246,30.7589461 11.0693436,32.6839996 C11.0995296,32.7020288 11.1297671,32.720161 11.1599531,32.7382417 C11.2162042,32.7100647 11.2899178,32.6961564 11.3261822,32.6517016 C17.5073601,25.0760435 23.6858593,17.4981188 29.9445111,9.82211538 C28.1508131,9.78487223 26.4804347,9.8088253 24.8106745,9.80444678 C23.1361751,9.80001675 21.4616243,9.80341654 19.6608176,9.80336503 C19.8386884,9.54374474 19.9360975,9.3915269 20.0433454,9.24652072 C22.2072599,6.32141399 24.3770468,3.40058275 26.5301952,0.467543168 C26.7592174,0.155535217 26.9973572,0.0430846046 27.381688,0.047926729 C29.0982726,0.0696132648 30.8153208,0.0552414275 32.532163,0.0579715615 C34.6680034,0.061319839 36.2438573,1.62393519 36.2449391,3.76575104 C36.2497812,13.3114841 36.2493691,22.8572172 36.2453512,32.4029503 C36.244424,34.6423814 34.4857026,36.1123267 32.5222211,36.1090814 C22.9249761,36.0934218 13.3276795,36.0923401 3.73048595,36.1099056 C1.73228545,36.1135115 0.000659353108,34.5781975 0.00179261626,32.4081531 C0.00678927653,22.8624715 0.00921033872,13.3167384 -1.03023923e-05,3.77100526 C-0.00207078085,1.60837858 1.71374115,0.0321640688 3.76185674,0.0476691692 C8.01942338,0.0798641452 12.2773506,0.057353418 16.5351748,0.057353418 L17.1970005,0.057353418 C15.8778307,2.57927603 14.57226,4.98421498 13.284667,7.3985291 C11.9962498,9.81438859 10.7086053,12.2305571 9.3747546,14.7326992 C12.4138058,14.9389015 15.3474635,15.1379438 18.3888327,15.3443522" id="Fill-1"></path> </g> <path d="M78.0297681,14.7845356 C78.0433158,12.9820291 77.4769933,11.2184141 76.2143836,9.70767126 C74.730427,7.93205394 72.848283,6.87827375 70.529472,6.62555606 C68.6243536,6.41796286 66.7749197,6.62565909 65.08167,7.53984187 C62.0297408,9.18760649 60.5806578,11.8105441 60.6563804,15.2607122 C60.7304031,18.6330973 62.3589022,21.0594137 65.3324817,22.5670658 C67.0687954,23.4474052 68.9491365,23.5898358 70.8576032,23.3114652 C74.6701065,22.755239 78.078756,19.5107581 78.0297681,14.7845356 M69.1330342,26.4214999 C66.7016182,26.3800327 64.4249955,25.8469354 62.3879035,24.4939223 C59.5795744,22.6287772 57.834143,20.0537457 57.4220989,16.6791971 C57.0380772,13.5342373 57.6009999,10.5848169 59.5905464,8.02997818 C61.5487736,5.51537027 64.1318924,4.05206998 67.2970449,3.64991609 C69.5388455,3.36505495 71.7642652,3.46158836 73.8868671,4.29000373 C77.5535401,5.72100602 80.0892679,8.26404853 81.0078292,12.1518108 C81.7946229,15.4818016 81.3769124,18.683373 79.3095313,21.5142128 C77.4677726,24.0360839 74.958625,25.5565625 71.8876879,26.1118099 C70.9804592,26.275824 70.0518531,26.3215666 69.1330342,26.4214999" id="Fill-4" fill="#525156"></path> <path d="M88.4933362,13.3659168 C89.8152877,13.3277465 91.1002021,13.4583293 92.3719809,13.2162231 C94.3733236,12.8351376 95.4353457,11.4861938 95.2841066,9.50643463 C95.1937031,8.32356546 94.6132148,7.47552403 93.4816516,7.04751114 C93.2583472,6.96308304 93.0273676,6.89050269 92.7936063,6.8436268 C91.4008774,6.56407139 89.9916647,6.70320519 88.5884273,6.69362397 C88.5620532,6.69341792 88.535473,6.73277306 88.4933362,6.7661013 L88.4933362,13.3659168 Z M88.4927696,23.1998078 C90.1879767,23.1998078 91.8319295,23.2179401 93.474955,23.1883207 C93.9480924,23.1798212 94.4324078,23.0790638 94.8880311,22.942248 C96.4789781,22.4643716 97.490776,20.7738005 97.169908,19.1580248 C96.8935978,17.7664807 95.9889963,16.9311112 94.6756988,16.5608432 C93.9903322,16.3676219 93.2606652,16.2808757 92.5466579,16.2509473 C91.2962566,16.1985596 90.0424554,16.225964 88.7900966,16.2235429 C88.6937693,16.2233884 88.5973904,16.2513078 88.4927696,16.2674826 L88.4927696,23.1998078 Z M85.2984098,3.83620395 C85.4780321,3.83620395 85.6281379,3.83594639 85.7781923,3.83625546 C87.7346165,3.84058247 89.6910408,3.8437247 91.6474651,3.84985462 C92.6821344,3.85315139 93.7089738,3.95457844 94.6909979,4.28662454 C96.7470463,4.98177846 98.145184,6.32103795 98.517976,8.51905335 C98.9338321,10.9710742 98.1230338,12.8336952 95.8889601,14.0200157 C95.7276246,14.1056286 95.5687102,14.195826 95.3516388,14.3152823 C95.7955689,14.4506557 96.1702669,14.550795 96.5352291,14.6788022 C97.7474601,15.1039819 98.7687878,15.8029992 99.5370887,16.8422016 C101.264491,19.1786811 100.781103,22.5592566 98.4614159,24.4078149 C97.3021392,25.3316819 95.9714307,25.8441744 94.5087486,26.0060765 C93.8624795,26.0776781 93.2085867,26.1037432 92.5578876,26.1071945 C90.3440065,26.1191452 88.1299709,26.111779 85.9159867,26.111779 L85.3652209,26.111779 C85.2384499,25.682942 85.180705,5.58235642 85.2984098,3.83620395 L85.2984098,3.83620395 Z" id="Fill-6" fill="#515155"></path> <path d="M196.359734,13.565706 C197.565114,13.5627698 198.729336,13.6072246 199.885728,13.4302295 C201.247601,13.2217606 202.191352,12.4814822 202.599944,11.1582945 C202.7381,10.7108616 202.766895,10.211041 202.75139,9.73826421 C202.705853,8.34816242 201.797697,7.18589803 200.446538,6.8645149 C199.685655,6.68355338 198.889898,6.63157781 198.106041,6.5707937 C197.532146,6.52628736 196.951915,6.56208817 196.359734,6.56208817 L196.359734,13.565706 Z M210.31623,26.1117018 C209.096582,26.1117018 207.964555,26.1057779 206.832682,26.116853 C206.616538,26.118965 206.483895,26.0476209 206.369229,25.871759 C205.572751,24.6510286 204.761747,23.4396733 203.971605,22.2148219 C203.293295,21.1634112 202.724191,20.0365871 201.889749,19.0935061 C201.345422,18.4781442 200.765294,17.891629 200.170331,17.3247399 C199.647742,16.8267737 199.008737,16.5216169 198.278864,16.4868463 C197.650778,16.4569694 197.02022,16.4806649 196.354274,16.4806649 L196.354274,26.097742 C195.798305,26.1262797 195.272832,26.1074778 194.7488,26.1109806 C194.23605,26.1143804 193.7233,26.1117533 193.173256,26.1117533 L193.173256,3.87867556 C193.284418,3.86971248 193.415465,3.85008642 193.546511,3.8499834 C195.400633,3.84802595 197.254806,3.84498674 199.108927,3.85018945 C200.217053,3.85328017 201.294683,4.03795055 202.326158,4.45210672 C204.904744,5.48744563 206.272335,7.67876448 206.08988,10.4489747 C205.938332,12.749705 204.820316,14.3819645 202.737739,15.3609493 C202.632088,15.4106069 202.531021,15.4701547 202.382822,15.549071 C204.120217,16.7333825 205.234112,18.4070062 206.319469,20.0981439 C207.570128,22.0469959 208.744549,24.0460206 210.180754,25.8706258 C210.219388,25.9197682 210.243289,25.9805523 210.31623,26.1117018 L210.31623,26.1117018 Z" id="Fill-8" fill="#171815"></path> <path d="M148.060934,8.62855233 C146.926332,11.3672888 145.84185,13.9849721 144.74377,16.6354686 L151.635246,16.6354686 C150.444908,13.9690549 149.275998,11.3505474 148.060934,8.62855233 M152.976618,19.5338921 L143.452416,19.5338921 C142.526025,21.7198022 141.598913,23.9072062 140.671337,26.0958979 L137.370193,26.0958979 C140.569343,18.6259423 143.751031,11.1967842 146.943588,3.74248824 L149.237467,3.74248824 C152.557156,11.1672163 155.883695,18.6073465 159.239081,26.1118666 L158.69496,26.1118666 L155.949218,26.1118666 C154.952874,23.9072062 153.965905,21.7230475 152.976618,19.5338921" id="Fill-10" fill="#181916"></path> <path d="M136.409067,23.2162968 L136.409067,26.0640326 L123.531438,26.0640326 C123.425787,25.6929404 123.377211,5.02072666 123.481471,3.86433463 L136.097472,3.86433463 L136.097472,6.67173654 L126.702772,6.67173654 L126.702772,13.4376781 L135.764653,13.4376781 L135.764653,16.3297142 L126.694221,16.3297142 L126.694221,23.2162968 L136.409067,23.2162968 Z" id="Fill-12" fill="#181916"></path> <path d="M189.621228,23.2268619 L189.621228,26.0618742 L176.74607,26.0618742 C176.634341,25.6612142 176.582314,5.48506063 176.691313,3.87057273 L189.304944,3.87057273 L189.304944,6.67570811 L179.890515,6.67570811 L179.890515,13.4430921 L188.991288,13.4430921 L188.991288,16.3162232 L179.906278,16.3162232 L179.906278,23.2268619 L189.621228,23.2268619 Z" id="Fill-14" fill="#171815"></path> <path d="M160.653749,24.3511208 L160.653749,20.3106771 C160.856655,20.5366085 160.999858,20.6968107 161.143885,20.8561887 C162.150275,21.9701349 163.311766,22.8538741 164.775788,23.2796205 C165.71073,23.5515521 166.659477,23.6457675 167.622184,23.4425013 C167.805773,23.4037643 167.98864,23.3512736 168.163626,23.2839475 C170.088113,22.5438236 170.706669,20.5857509 169.555943,18.8758114 C169.118761,18.2261425 168.556663,17.6920665 167.906582,17.2686897 C166.872479,16.5952223 165.815042,15.9574527 164.764095,15.3100504 C163.856299,14.7508365 163.008155,14.1200726 162.218682,13.3975143 C159.583124,10.9853636 159.952774,5.94682415 163.929343,4.17558536 C165.217915,3.60163908 166.573761,3.46827461 167.957579,3.57794358 C169.39981,3.69235165 170.738503,4.14885065 171.969382,4.91292757 C172.070191,4.97551461 172.162191,5.05216441 172.256715,5.1210359 L172.256715,8.69653266 C172.091413,8.56239551 171.963921,8.46395616 171.841838,8.35912931 C170.713108,7.3905499 169.451374,6.69488086 167.957063,6.49192373 C167.027118,6.3656164 166.104487,6.39734777 165.224354,6.76169187 C164.48763,7.0666942 163.873401,7.52401739 163.610536,8.31761067 C163.354779,9.08992951 163.508233,9.8301564 163.96875,10.4693683 C164.285394,10.9088169 164.677967,11.3115374 165.099798,11.6524435 C165.603997,12.0599547 166.166199,12.399367 166.720364,12.7404792 C167.523281,13.2347365 168.344846,13.6985502 169.152399,14.1852867 C170.158685,14.791737 171.079461,15.504405 171.802071,16.4419227 C173.197066,18.2517955 173.533903,20.2784306 172.823501,22.4196798 C172.126802,24.5196164 170.556718,25.7611062 168.427162,26.1818044 C165.585504,26.7431818 162.987808,26.0676024 160.653749,24.3511208" id="Fill-16" fill="#181916"></path> <polygon id="Fill-18" fill="#1A1B18" points="120.424818 3.82964133 120.424818 6.64162779 112.689318 6.64162779 112.689318 26.0821391 109.455294 26.0821391 109.455294 6.66352038 101.818286 6.66352038 101.818286 3.82964133"></polygon> <path d="M50.1605916,3.86195993 L53.3268258,3.86195993 C53.3388796,3.99043076 53.3618024,4.12096207 53.3618539,4.25149338 C53.3633993,11.6475808 53.3742683,19.0436683 53.349388,26.4397042 C53.3461428,27.4104986 53.23055,28.3947892 53.0423252,29.3482241 C52.5986012,31.596103 50.7885739,33.2270748 48.5148359,33.5344466 C47.7807905,33.6337102 47.0489085,33.6816678 46.2557788,33.49504 C46.067142,32.5516499 45.8737661,31.5848219 45.6666365,30.5489679 C45.9100821,30.5489679 46.0935162,30.5573643 46.2759715,30.5473195 C46.7547237,30.5209969 47.2368242,30.5147124 47.7107342,30.4501164 C48.9748377,30.2777574 49.7529774,29.5283614 49.9583556,28.2608066 C50.0623068,27.6194826 50.1205668,26.9669806 50.1449319,26.3174148 C50.1777451,25.4434113 50.160128,24.5675019 50.160231,23.6923137 C50.1609007,17.2915404 50.1605916,10.8907671 50.1605916,4.48999377 L50.1605916,3.86195993 Z" id="Fill-20" fill="#515055"></path> <path d="M260.841635,12.1131047 L260.841635,26.0804186 L258.979168,26.0804186 C258.970463,26.0726402 258.956864,26.0619258 258.94517,26.0494599 C258.933889,26.0374061 258.920136,26.0249917 258.915293,26.0101562 C258.904579,25.9778067 258.895255,25.9441694 258.891907,25.9104291 C258.887013,25.8592777 258.886189,25.8075597 258.886086,25.7560992 C258.88315,22.3225694 258.880471,18.8890912 258.876917,15.4556129 C258.876917,15.4409835 258.865893,15.4263541 258.841683,15.3666517 C258.76153,15.4374292 258.682253,15.4893017 258.626208,15.559667 C257.376271,17.1294426 256.129011,18.7013301 254.880619,20.2723934 C254.827304,20.3395135 254.771774,20.4056033 254.711248,20.4661814 C254.452194,20.7253381 254.273448,20.7204444 254.036647,20.4315138 C253.46028,19.7284786 252.887982,19.022095 252.317126,18.3145783 C251.552483,17.3669127 250.791187,16.41662 250.026441,15.4690575 C249.997285,15.4328446 249.947473,15.41327 249.83698,15.3381141 L249.83698,26.0839214 L247.945667,26.0839214 C247.827859,25.7208135 247.778201,13.1044009 247.895855,12.1340186 C248.458623,12.0942513 249.037051,12.0946634 249.610997,12.1365942 C249.74807,12.1465875 249.894364,12.3158558 249.998521,12.4428843 C250.813904,13.4376833 251.618882,14.4410333 252.429371,15.4398502 C253.055705,16.2117055 253.685284,16.9809336 254.321457,17.7610307 C254.545328,17.7441348 254.634083,17.557816 254.743803,17.422082 C256.069824,15.7814775 257.393836,14.1390702 258.706361,12.4876482 C258.915654,12.224216 259.130665,12.080034 259.483316,12.1054809 C259.92297,12.1371608 260.366591,12.1131047 260.841635,12.1131047" id="Fill-22" fill="#A4A8AD"></path> <path d="M237.851099,24.4088709 C238.226673,24.3806423 238.608892,24.3876479 238.976739,24.3185189 C241.346289,23.8733525 243.020685,21.9692128 243.275154,19.8527924 C243.482078,18.1310566 243.030473,16.6549298 241.836734,15.4255969 C240.000797,13.5351079 237.138895,13.4329597 235.166708,14.4645897 C232.096853,16.0703721 231.753732,19.8269334 233.250257,22.0464808 C234.337881,23.6595264 235.897869,24.4304544 237.851099,24.4088709 M230.36636,19.1352823 C230.301352,17.004593 231.067695,15.2196005 232.644476,13.7870529 C233.715822,12.8136828 234.98245,12.2443727 236.405262,12.0171534 C237.657002,11.8172355 238.907095,11.8542211 240.121489,12.215526 C242.81644,13.0172066 244.624974,14.7402302 245.240233,17.5187339 C245.696165,19.5775125 245.380191,21.552275 244.086983,23.2852404 C242.962631,24.7917593 241.45261,25.7319556 239.614663,26.091303 C237.831267,26.440039 236.054517,26.3766793 234.38692,25.5821588 C232.297698,24.5867932 230.949321,22.9614878 230.458875,20.6695145 C230.423126,20.5022552 230.377332,20.3337596 230.370481,20.1643882 C230.356676,19.8218337 230.36636,19.4783519 230.36636,19.1352823" id="Fill-24" fill="#A4A8AD"></path> <path d="M228.493328,22.8641147 C228.493328,23.621392 228.51043,24.2681247 228.477926,24.9123333 C228.471899,25.0318411 228.285787,25.1827196 228.148868,25.2485519 C227.24849,25.6815099 226.304534,25.9878516 225.312053,26.1203918 C224.735994,26.1973507 224.155557,26.2903813 223.577027,26.291154 C221.41507,26.2941417 219.423463,25.7840187 217.869398,24.1647402 C216.784608,23.0344648 216.118816,21.69196 215.913747,20.1183211 C215.622807,17.88502 216.220397,15.9326136 217.749272,14.2972634 C219.038153,12.9185973 220.647799,12.1710042 222.544366,11.9833461 C224.538703,11.7860038 226.377835,12.2956116 228.184256,13.0382595 C228.214133,13.0505709 228.237159,13.0795206 228.288517,13.1210393 L228.288517,15.2064495 C227.928191,15.0367691 227.610053,14.8845513 227.289906,14.7366089 C225.946216,14.1155807 224.541794,13.778847 223.054386,13.8661083 C220.600047,14.0100842 218.536324,15.6467223 218.065607,17.9635242 C217.442622,21.0300828 219.131699,23.6837215 222.153339,24.2705973 C224.153497,24.659049 226.033426,24.2267091 227.802965,23.2558117 C227.996701,23.149491 228.187553,23.037813 228.493328,22.8641147" id="Fill-26" fill="#A5A8AD"></path> <path d="M212.573114,23.8596967 C213.252041,23.8530516 213.843295,24.4197347 213.847983,25.0816119 C213.852568,25.7245327 213.303296,26.2655113 212.619011,26.292143 C211.947913,26.3182081 211.397095,25.7958253 211.386123,25.122976 C211.374276,24.3920213 211.867966,23.8665993 212.573114,23.8596967" id="Fill-28" fill="#A5A9AE"></path> </g> </g> </svg> 