<?xml version="1.0" encoding="UTF-8"?> <svg xmlns="http://www.w3.org/2000/svg" xmlns:xlink="http://www.w3.org/1999/xlink" width="407px" height="98px" viewBox="0 0 407 98"> <!-- Generator: Sketch 45.2 (43514) - http://www.bohemiancoding.com/sketch --> <title>keymetrics</title> <desc>Created with Sketch.</desc> <defs> <linearGradient x1="-21.9382931%" y1="252.318%" x2="51.268809%" y2="46.389%" id="linearGradient-1"> <stop stop-color="#9DD1E9" offset="0%"></stop> <stop stop-color="#3BB3E3" offset="100%"></stop> </linearGradient> <linearGradient x1="672.414866%" y1="9663%" x2="2953.31832%" y2="2677%" id="linearGradient-2"> <stop stop-color="#9DD1E9" offset="0%"></stop> <stop stop-color="#3BB3E3" offset="100%"></stop> </linearGradient> <linearGradient x1="1102.33205%" y1="10468%" x2="3109.82489%" y2="3482%" id="linearGradient-3"> <stop stop-color="#9DD1E9" offset="0%"></stop> <stop stop-color="#3BB3E3" offset="100%"></stop> </linearGradient> <linearGradient x1="-1054%" y1="2889.35993%" x2="3677%" y2="407.096557%" id="linearGradient-4"> <stop stop-color="#9DD1E9" offset="0%"></stop> <stop stop-color="#3BB3E3" offset="100%"></stop> </linearGradient> <linearGradient x1="1192%" y1="2493.30848%" x2="5923%" y2="698.843385%" id="linearGradient-5"> <stop stop-color="#9DD1E9" offset="0%"></stop> <stop stop-color="#3BB3E3" offset="100%"></stop> </linearGradient> <linearGradient x1="3185%" y1="2695.96398%" x2="7916%" y2="993.943242%" id="linearGradient-6"> <stop stop-color="#9DD1E9" offset="0%"></stop> <stop stop-color="#3BB3E3" offset="100%"></stop> </linearGradient> <linearGradient x1="2309.36724%" y1="11962%" x2="4590.43086%" y2="4976%" id="linearGradient-7"> <stop stop-color="#9DD1E9" offset="0%"></stop> <stop stop-color="#3BB3E3" offset="100%"></stop> </linearGradient> </defs> <g id="Page-1" stroke="none" stroke-width="1" fill="none" fill-rule="evenodd"> <g id="keymetrics" transform="translate(0.898863, 0.461828)" fill-rule="nonzero"> <path d="M140.461951,69.2568327 L127.939671,69.2568327 L113.836669,46.7068483 L132.696656,26.7156572 L144.749659,26.7156572 L125.72666,46.5043183 L140.464421,69.2568327 L140.461951,69.2568327 Z M110.354141,69.2568327 L116.422631,26.7057777 L106.187457,26.7057777 L100.079449,69.2568327 L110.354141,69.2568327 L110.354141,69.2568327 Z M172.706206,55.9441913 L173.810242,48.2060641 C174.410422,43.9677538 173.622531,41.0187196 171.446569,39.354022 C169.273076,37.6745051 165.721392,36.8594454 160.801395,36.8594454 C155.575134,36.8594454 151.519594,37.7239026 148.632307,39.4775159 C145.74255,41.2064304 144.013636,44.1208862 143.433214,48.1961846 L141.803095,59.5823213 C140.822554,66.4485816 145.977189,69.8817118 157.26947,69.8817118 C161.534949,69.8817118 165.790548,69.4618326 169.972052,68.6220741 L170.841449,62.4967771 C167.284825,63.3612344 163.636815,63.8305112 159.973986,63.9046075 C156.45935,63.9046075 154.120376,63.4847283 152.959533,62.6943674 C151.764112,61.7805126 151.230619,60.2491883 151.61098,58.7919604 L152.02098,55.9022034 L172.706206,55.8775046 L172.706206,55.9441913 Z M164.323441,50.5104601 L152.81381,50.5104601 L153.480677,45.9164874 C153.604171,44.9359459 154.196942,44.0739585 155.0367,43.5824528 C156.568025,42.9155858 158.222843,42.6438993 159.877661,42.7673931 C161.977057,42.7673931 163.409586,43.0390797 164.15055,43.5824528 C164.891513,44.1258259 165.237296,45.0396807 165.039706,45.9288367 L164.397537,50.5228095 L164.372839,50.5228095 L164.323441,50.5104601 Z M209.892687,37.5189028 L185.9818,82.9004378 L176.225782,82.9004378 L184.005897,68.9950257 L175.818252,37.5287823 L186.290534,37.5287823 L190.267038,59.9305741 L199.993416,37.5287823 L209.897626,37.5287823 L209.892687,37.5189028 Z M256.153498,69.2568327 L259.463134,45.9856439 C259.907712,42.9229954 259.463134,40.6383585 258.104702,39.131733 C256.770968,37.6004088 254.029403,36.8594454 249.929406,36.8594454 C247.43483,36.8100478 244.964952,37.1558307 242.56917,37.8720953 C240.766159,38.2919745 239.234835,39.5022147 238.395077,41.1570328 C237.505921,38.2672758 234.393875,36.8347466 229.058939,36.8347466 C222.513762,36.8347466 218.734849,38.3413721 217.697501,41.354623 L218.265573,37.4769149 L212.337866,37.4769149 L207.842688,69.2395436 L213.770395,69.2395436 L217.055332,46.3437762 C217.351718,44.2937776 218.142079,42.9106461 219.401716,42.1696827 C220.686053,41.4287194 223.057135,41.0582377 226.564362,41.0829365 C227.799301,41.0335389 229.03424,41.1817316 230.195082,41.5028157 C230.960744,41.6757071 231.627611,42.1202852 232.096888,42.7377546 C232.417972,43.2070314 232.615563,43.7751033 232.689659,44.3431752 C232.739057,44.9853434 232.714358,45.6522104 232.615563,46.2943787 L229.305926,69.2148448 L235.233633,69.2148448 L238.518571,46.3190774 C238.814956,44.2937776 239.481823,42.9106461 240.568569,42.1943815 C241.655315,41.4781169 243.927603,41.1076352 247.43483,41.0829365 C248.669768,41.0582377 249.904707,41.2064304 251.090249,41.5028157 C251.855911,41.6757071 252.547477,42.1202852 253.016753,42.7624534 C253.337838,43.2564289 253.535428,43.7998021 253.609524,44.367874 C253.658922,45.0100422 253.634223,45.6769092 253.535428,46.3437762 L250.275189,69.2148448 L256.202896,69.2148448 L256.153498,69.2568327 Z M291.472751,54.7043126 L270.083609,54.7043126 L269.416742,59.4909358 C269.120357,61.7187656 269.688429,63.3019573 271.120958,64.2479205 C272.578186,65.1914138 274.850473,65.6557509 277.962519,65.6557509 C281.667336,65.5618955 285.347454,65.0382814 288.928777,64.0849086 L288.286609,68.604785 C284.433599,69.4568928 280.506493,69.8965311 276.579388,69.9212299 C266.82337,69.9212299 262.426988,66.6856899 263.340843,60.21461 L265.168552,47.6849199 C265.736624,43.7948623 267.24325,41.0211895 269.713127,39.3614316 C272.183005,37.7066135 275.887822,36.8767346 280.802879,36.866855 C285.42155,36.866855 288.681789,37.6670955 290.583595,39.2626365 C292.485401,40.8581776 293.152268,43.6664287 292.584196,47.6849199 L291.571546,54.7043126 L291.546847,54.7043126 L291.472751,54.7043126 Z M286.113116,50.8340141 L286.829381,45.8522705 C287.101067,43.9307056 286.705887,42.609321 285.619141,41.8905865 C284.557093,41.174322 282.630588,40.8186595 279.864325,40.8285391 C277.814327,40.7149247 275.764328,41.0631774 273.862522,41.8510685 C272.405294,42.6784775 271.466741,44.185103 271.392644,45.8522705 L270.701079,50.8340141 L286.162514,50.8340141 L286.113116,50.8340141 Z M315.208277,69.3506881 C312.985387,69.7063505 310.737798,69.8841817 308.490209,69.8792419 C304.489007,69.8792419 301.79684,69.2000255 300.413709,67.8415927 C299.030577,66.4831599 298.610698,63.8724991 299.154071,60.0120801 L301.821539,41.3892013 L294.658893,41.3892013 L295.226965,37.5213727 L302.389611,37.5213727 L303.797441,27.6838493 L309.799244,27.6838493 L308.391414,37.5213727 L319.80225,37.5213727 L319.258876,41.3916712 L307.87274,41.3916712 L305.180573,60.3356341 C304.859489,62.6079216 305.081778,64.1293664 305.84744,64.8876189 C306.613102,65.6483412 308.342016,66.0336422 311.009485,66.0385819 C312.639604,65.9447266 314.245024,65.7668954 315.825746,65.5100281 L315.282373,69.3630375 L315.307072,69.3383387 L315.208277,69.3506881 Z M339.536573,41.8510685 L340.252838,36.7581804 L337.363081,36.7581804 C335.214287,36.807578 333.13959,37.4201077 331.287181,38.5290828 C329.237183,39.7146242 328.101039,41.0681172 327.854051,42.6043812 L328.595015,37.4176378 L322.988392,37.4176378 L318.468516,69.1555677 L324.396222,69.1555677 L327.607063,46.9414867 C327.705859,45.3113673 328.669111,43.8047418 330.126339,43.0143809 C332.077542,42.22402 334.176938,41.8782371 336.276335,42.001731 L339.61067,41.8782371 L339.536573,41.8510685 Z M349.539578,32.1444487 L343.611872,32.1444487 L344.501028,25.9821035 L350.428734,25.9821035 L349.564277,32.1444487 L349.539578,32.1444487 Z M344.25404,69.1876761 L338.326333,69.1876761 L342.84621,37.4497462 L348.773916,37.4497462 L344.25404,69.1876761 Z M374.386549,68.9209293 C370.978118,69.5729771 367.520289,69.8792419 364.037761,69.8397239 C362.111257,69.8397239 360.62933,69.8051456 359.542584,69.735989 C358.332343,69.6446035 357.122103,69.4272543 355.961261,69.0839413 C354.849816,68.8369535 353.837166,68.2762912 353.046805,67.4785207 C352.33054,66.5893647 351.836565,65.5396666 351.614276,64.420812 C351.268493,62.7906926 351.243794,61.1111757 351.540179,59.4711768 L353.219696,47.8874499 C353.417287,46.3437762 353.812467,44.8248014 354.35584,43.3675735 C354.800418,42.2215501 355.467285,41.1817316 356.356441,40.3123346 C357.097405,39.5837206 357.912464,38.9440223 358.80162,38.4105287 C359.81427,37.8671556 360.901016,37.5213727 362.012461,37.3879993 C363.346195,37.190409 364.507038,37.0595055 365.494989,36.9928188 C366.507639,36.9236622 367.841373,36.8890839 369.496191,36.8890839 C372.509442,36.9137827 375.522693,37.2595656 378.461848,37.9264326 L377.844378,42.2487188 C374.707633,41.3595628 371.447395,40.890286 368.187156,40.8408884 C364.902218,40.8408884 362.704027,41.2360689 361.617281,42.0264298 C360.530535,42.8167907 359.789571,44.4963076 359.41909,47.0649805 L357.566681,60.0565379 C357.245597,62.378223 357.59138,63.9095473 358.60403,64.6752094 C359.61668,65.4408715 361.864269,65.8360519 365.339387,65.8360519 C368.631734,65.8113532 371.933961,65.4161727 375.120103,64.601113 L374.477935,69.0715919 L374.490284,68.9974956 L374.386549,68.9209293 Z M403.852192,58.1473223 C404.543757,53.1631089 401.530506,50.6710022 394.837138,50.6710022 L391.15702,50.6710022 C387.254613,50.6710022 385.451602,49.6089547 385.747987,47.460161 L386.118469,44.7679942 C386.266662,43.4589589 387.057022,42.2981164 388.242564,41.7300445 C389.452804,41.112575 391.626296,40.8161897 394.812439,40.8161897 C398.122075,40.8655872 401.382314,41.1619726 404.642553,41.7300445 L405.235323,37.4818546 C399.875688,37.1360717 396.689546,36.9631803 395.627499,36.9631803 C386.143168,36.9631803 381.030521,39.4577569 380.338955,44.4469101 L379.919076,47.4107634 C379.474498,49.4854608 380.141365,51.6342545 381.697388,53.0914824 C383.204013,54.4499152 385.649192,55.141481 388.983527,55.141481 L392.614248,55.141481 C394.120873,55.0179871 395.627499,55.3143724 396.980992,56.0059382 C397.870148,56.697504 398.252979,57.8336478 397.959063,58.8956953 L397.509545,62.1065364 C397.400871,63.5390656 396.447498,64.7740045 395.081656,65.2185825 C393.130452,65.8113532 391.080453,66.058341 389.042804,65.9842446 C385.387385,65.8360519 381.756665,65.4161727 378.150643,64.7493057 L377.508475,69.2691821 C381.114496,69.7878565 384.720518,70.0348442 388.351238,70.059543 C392.846416,70.059543 396.378341,69.392676 398.947014,68.0836408 C401.540386,66.7746055 403.07171,64.4035228 403.565686,60.9703926 L403.960866,58.2535271 L403.852192,58.1473223 Z" id="Shape" fill="#1F1E28"></path> <path d="M28.9025102,33.8140861 L64.5626061,6.43302059 C65.5999548,5.67229822 66.1383882,4.41266053 65.9753762,3.14067346 C65.8123643,1.8662165 64.9726058,0.781940141 63.777185,0.300313967 C62.5792942,-0.178842329 61.2183916,0.0212177739 60.2131513,0.823928064 L24.5505855,28.1926441 C23.5132368,28.9583063 22.9748034,30.217944 23.1378154,31.489931 C23.3032972,32.7594482 24.1455255,33.8461945 25.3360066,34.3253508 C26.5363673,34.8045071 27.8997398,34.604447 28.9049801,33.8017367 L28.8975705,33.8017367 L28.9025102,33.8140861 Z" id="Shape" fill="url(#linearGradient-1)"></path> <path d="M61.1121868,20.4619266 C62.3174872,22.0056002 64.545317,22.2896362 66.1087496,21.1040948 L84.4278334,7.05049004 C85.9393986,5.84024991 86.2061454,3.64699841 85.0206041,2.12061392 C83.8350627,0.589289672 81.6368715,0.287964578 80.0808484,1.43645776 L61.754355,15.5024119 C60.2131513,16.7003027 59.9266455,18.9108433 61.1121868,20.4619266 Z" id="Shape" fill="url(#linearGradient-2)"></path> <path d="M64.1624859,90.7373601 L28.50239,63.3809934 C27.4996196,62.5782831 26.1362471,62.378223 24.9408262,62.8573793 C23.7454053,63.3365356 22.903177,64.4232818 22.7426349,65.6977388 C22.5771531,66.9697259 23.1180564,68.2293636 24.155405,68.9925558 L59.8130311,96.358802 C61.3764637,97.5443434 63.6166429,97.247958 64.8170035,95.691935 C66.019834,94.135912 65.7259186,91.8883232 64.1624859,90.7027818 L64.1624859,90.7373601 Z" id="Shape" fill="url(#linearGradient-3)"></path> <path d="M17.0174582,42.8686581 C18.5734812,41.6831168 18.8772762,39.4651665 17.6966746,37.9091435 C16.5012537,36.3605301 14.2758938,36.0616749 12.7124611,37.2373367 L2.53656452,44.9063073 C2.23276955,45.0545 1.95614323,45.2644396 1.72891447,45.5163672 L1.05463783,46.025162 C0.326023872,46.5932339 -0.0617469454,47.4922694 0.0296385338,48.4085941 C-0.0617469454,49.3224489 0.326023872,50.2239543 1.05463783,50.7920262 L1.72891447,51.300821 C1.95614323,51.5552184 2.23276955,51.7626881 2.5390344,51.9133507 L12.714931,59.6119598 C13.7226411,60.4270195 15.0860137,60.6246098 16.2839044,60.1306342 C17.4793253,59.6366586 18.3166139,58.5499124 18.4697463,57.2655759 C18.617939,56.0059382 18.0671562,54.7463006 17.019928,53.9806384 L10.5735469,49.0902804 C10.3759567,48.9420877 10.227764,48.6950999 10.227764,48.4234133 C10.227764,48.1764256 10.3759567,47.904739 10.5735469,47.7565463 L17.0446268,42.890887 L17.0174582,42.8686581 Z" id="Shape" fill="url(#linearGradient-4)"></path> <path d="M50.4176159,72.6702039 C51.4302658,73.4704443 52.7961082,73.6655646 53.9915291,73.1765288 C55.1869499,72.687493 56.0217686,71.595807 56.1749011,70.3164103 C56.3280335,69.0394835 55.772311,67.7823157 54.7275527,67.0265331 L31.0315449,49.0804008 C30.8166655,48.9198588 30.6907017,48.6679312 30.6907017,48.3987146 C30.6907017,48.1517268 30.8141956,47.8800402 31.0315449,47.7318476 L54.8090586,29.7264383 C56.3403829,28.5408969 56.6120694,26.3427057 55.4265281,24.8113814 C54.2656855,23.2800572 52.0674942,22.9589731 50.5114712,24.0951169 L23.0192612,44.913717 C22.7080566,45.0619096 22.4339002,45.2718492 22.2042016,45.5237768 L21.5299249,46.0325716 C20.801311,46.6006435 20.4135402,47.5021489 20.5049256,48.4184736 C20.4135402,49.3323284 20.801311,50.2214844 21.5299249,50.7895563 L22.2042016,51.2835319 C22.4264906,51.5305196 22.6981771,51.7281099 23.0069119,51.9010013 L50.4176159,72.647975 L50.4176159,72.6702039 Z" id="Shape" fill="url(#linearGradient-5)"></path> <path d="M86.396326,73.0258663 L54.7769502,49.0804008 C54.5620708,48.9198588 54.4361071,48.6679312 54.4361071,48.3987146 C54.4361071,48.1517268 54.559601,47.8800402 54.7769502,47.7318476 L86.5050006,23.6752376 C88.0610237,22.4896963 88.3623488,20.2668062 87.1817472,18.7107832 C85.9863263,17.179459 83.7634363,16.8830736 82.1975337,18.0439162 L46.7547871,44.913717 C46.4460523,45.0619096 46.1718959,45.2693794 45.9446671,45.5213069 L45.2703905,46.0301017 C44.5294272,46.5981736 44.1342467,47.4972092 44.2330418,48.4135338 C44.1342467,49.3273886 44.5294272,50.228894 45.2456917,50.7969659 L45.9125587,51.300821 C46.1348477,51.5552184 46.4065343,51.7626881 46.7029196,51.9133507 L82.0468712,78.6670672 C83.6028942,79.7958014 85.8010855,79.4722474 86.961928,77.9409231 C88.1227706,76.4095989 87.8510841,74.223757 86.3444586,73.0258663 L86.396326,73.0258663 Z" id="Shape" fill="url(#linearGradient-6)"></path> <path d="M83.9264482,90.7373601 L65.6172439,76.6343578 C64.0562812,75.4833947 61.8630297,75.7871897 60.6774883,77.316044 C59.491947,78.8226695 59.753754,81.0208608 61.270259,82.2311009 L79.5868729,96.2847057 C80.5698842,97.2232592 82.0073531,97.5196446 83.28428,97.0503678 C84.5636767,96.581091 85.4627122,95.4202484 85.5985555,94.0865144 C85.7343988,92.7280816 85.0872908,91.4190464 83.9264482,90.7027818 L83.9264482,90.7373601 Z" id="Shape" fill="url(#linearGradient-7)"></path> </g> </g> </svg> 