<?xml version="1.0" encoding="UTF-8"?> <!-- Generator: Adobe Illustrator 21.0.2, SVG Export Plug-In . SVG Version: 6.00 Build 0) --> <svg xmlns="http://www.w3.org/2000/svg" xmlns:xlink="http://www.w3.org/1999/xlink" id="PLANITY_-_Logotype__x28_2016_x29_" x="0px" y="0px" viewBox="0 0 963 198" style="enable-background:new 0 0 963 198;" xml:space="preserve"> <g> <path d="M360,54l-45,90h18l9-18h54l9,18h18l-45-90H360z M387,108h-36l18-36L387,108z"></path> <path d="M108,54H54v90h18l0-18h0h36c19.9,0,36-16.1,36-36S127.9,54,108,54z M108,108H72h0V72h0h36c9.9,0,18,8.1,18,18 S117.9,108,108,108z"></path> <polygon points="216,54 198,54 198,144 270,144 270,126 216,126 "></polygon> <rect x="612" y="54" width="18" height="90"></rect> <polygon points="684,54 684,72 720,72 720,144 738,144 738,72 774,72 774,54 "></polygon> <polygon points="891,54 864,94.5 837,54 819,54 855,108 855,144 873,144 873,108 909,54 "></polygon> <polygon points="540,117 486,54 468,54 468,144 486,144 486,81 540,144 558,144 558,54 540,54 "></polygon> </g> </svg> 