<?xml version="1.0" encoding="UTF-8" standalone="no"?>
<svg width="533px" height="116px" viewBox="0 0 533 116" version="1.1" xmlns="http://www.w3.org/2000/svg" xmlns:xlink="http://www.w3.org/1999/xlink">
    <!-- Generator: Sketch 3.8.2 (29753) - http://www.bohemiancoding.com/sketch -->
    <title>speachme</title>
    <desc>Created with Sketch.</desc>
    <defs></defs>
    <g id="Page-1" stroke="none" stroke-width="1" fill="none" fill-rule="evenodd">
        <g id="speachme">
            <path d="M108.4921,52.0307 C108.4921,52.0307 115.8621,56.5407 123.1221,56.5407 C127.1921,56.5407 128.5121,55.3307 128.5121,53.7907 C128.5121,47.7407 104.5321,51.8107 104.5321,33.7707 C104.5321,25.5207 111.1321,19.2507 123.6721,19.2507 C137.6421,19.2507 144.6821,23.4307 144.6821,23.4307 L140.1721,34.7607 C140.1721,34.7607 133.6821,30.5807 125.6521,30.5807 C122.5721,30.5807 120.8121,31.4607 120.8121,33.2207 C120.8121,39.0507 145.4521,34.6507 145.4521,52.9107 C145.4521,61.2707 139.2921,67.6507 124.3321,67.6507 C110.0321,67.6507 103.8721,62.8107 103.8721,62.8107 L108.4921,52.0307 Z" id="Fill-1" fill="#E74625"></path>
            <path d="M173.392,54.6708 C178.782,54.6708 182.302,50.1608 182.302,43.5608 C182.302,36.9608 178.782,32.2308 173.392,32.2308 C167.892,32.2308 164.482,36.7408 164.482,43.5608 C164.482,50.3808 167.892,54.6708 173.392,54.6708 L173.392,54.6708 Z M165.252,62.3708 L165.252,83.7108 L149.412,83.7108 L149.412,20.3508 L159.422,20.3508 L161.842,26.6208 L162.502,26.6208 C162.502,26.6208 166.132,19.2508 176.912,19.2508 C189.122,19.2508 198.252,28.4908 198.252,43.3408 C198.252,57.7508 189.342,67.6498 177.462,67.6498 C168.442,67.6498 165.912,62.3708 165.912,62.3708 L165.252,62.3708 Z" id="Fill-3" fill="#E74625"></path>
            <path d="M214.9721,38.0605 L229.8221,38.0605 C229.6021,33.6605 227.0721,30.6905 222.5621,30.6905 C218.8221,30.6905 215.9621,33.1105 214.9721,38.0605 L214.9721,38.0605 Z M242.6921,62.2605 C242.6921,62.2605 236.8621,67.9805 224.8721,67.9805 C208.8121,67.9805 199.4621,57.0905 199.4621,43.4505 C199.4621,29.5905 209.1421,19.2505 223.0021,19.2505 C236.5321,19.2505 245.0021,27.9405 245.0021,42.2405 C245.0021,43.8905 244.8921,46.6405 244.8921,46.6405 L214.7521,46.6405 C215.6321,52.9105 219.3721,55.5505 225.9721,55.5505 C232.6821,55.5505 237.3021,52.0305 237.3021,52.0305 L242.6921,62.2605 Z" id="Fill-5" fill="#E74625"></path>
            <path d="M274.7016,46.8608 C273.8216,46.5308 272.0616,45.8708 268.4306,45.8708 C263.2616,45.8708 260.1816,48.0708 260.1816,51.8108 C260.1816,55.2208 262.9316,57.3108 266.5616,57.3108 C270.9616,57.3108 274.7016,54.5608 274.7016,50.2708 L274.7016,46.8608 Z M289.8816,66.5508 L279.1016,66.5508 L276.9016,60.9408 L276.4616,60.9408 C274.1516,64.9008 269.6416,67.6508 261.9416,67.6508 C251.6016,67.6508 245.4416,61.4908 245.4416,53.1308 C245.4416,43.4508 252.3716,37.8408 266.4516,37.8408 C269.8616,37.8408 272.6116,38.2808 274.7016,38.8308 L274.7016,37.4008 C274.7016,32.8908 270.9616,31.5708 264.6916,31.5708 C258.3116,31.5708 253.1416,34.6508 253.1416,34.6508 L248.3016,23.4308 C248.3016,23.4308 255.0116,19.2508 268.1016,19.2508 C281.9616,19.2508 289.8816,26.8398 289.8816,38.0608 L289.8816,66.5508 Z" id="Fill-7" fill="#E74625"></path>
            <path d="M293.0698,43.4506 C293.0698,29.7006 302.8598,19.2506 318.1498,19.2506 C327.7198,19.2506 332.7798,23.4306 332.7798,23.4306 L328.8198,34.7606 C328.8198,34.7606 324.6398,32.2306 319.5798,32.2306 C313.3098,32.2306 309.0198,36.6306 309.0198,43.4506 C309.0198,50.2706 313.3098,54.6706 319.5798,54.6706 C324.6398,54.6706 328.8198,52.1406 328.8198,52.1406 L332.7798,63.2506 C332.7798,63.2506 327.7198,67.6506 318.1498,67.6506 C302.8598,67.6506 293.0698,57.0906 293.0698,43.4506" id="Fill-9" fill="#E74625"></path>
            <path d="M335.9692,0.0004 L352.0302,0.0004 L352.0302,24.5304 L352.4692,24.5304 C354.4492,21.6704 358.4092,19.1404 364.5702,19.1404 C375.4592,19.1404 382.7202,26.8404 382.7202,39.2704 L382.7202,66.4404 L366.8792,66.4404 L366.8792,40.5904 C366.8792,36.4104 363.5792,33.1104 359.4002,33.1104 C355.4402,33.1104 352.2492,36.0804 352.0302,40.0404 L352.0302,66.5504 L335.9692,66.5504 L335.9692,0.0004 Z" id="Fill-11" fill="#E74625"></path>
            <path d="M390.4194,64.5702 C390.4194,63.0302 391.7394,61.7112 393.2794,61.7112 C394.8194,61.7112 396.1394,63.0302 396.1394,64.5702 C396.1394,66.1102 394.8194,67.4302 393.2794,67.4302 C391.7394,67.4302 390.4194,66.1102 390.4194,64.5702" id="Fill-13" fill="#E74625"></path>
            <path d="M407.7983,20.3505 L409.4473,20.3505 L409.9973,30.0305 L410.1083,30.0305 C409.9973,30.5805 413.9573,19.2505 427.7083,19.2505 C437.4983,19.2505 443.8783,24.5305 445.9683,32.2305 L446.4073,32.2305 C446.2983,32.6705 448.6083,19.2505 464.4483,19.2505 C476.7683,19.2505 483.3683,28.6005 483.3683,41.1405 L483.3683,66.5505 L481.1683,66.5505 L481.1683,41.2505 C481.1683,29.9205 475.6683,21.3405 464.2283,21.3405 C451.9073,21.3405 446.9583,33.0005 446.7373,39.8205 L446.7373,66.5505 L444.5383,66.5505 L444.5383,38.5005 C444.5383,28.8205 438.9283,21.3405 427.4873,21.3405 C415.1683,21.3405 410.2183,31.6805 409.9973,37.7305 L409.9973,66.5505 L407.7983,66.5505 L407.7983,20.3505 Z" id="Fill-15" fill="#E74625"></path>
            <g id="Group-19" transform="translate(492.000000, 18.475000)" fill="#E74625">
                <path d="M2.8071,21.4556 L38.4481,21.4556 C38.2271,11.9956 32.3971,2.8656 21.0671,2.8656 C12.1581,2.8656 4.1271,9.3556 2.8071,21.4556 L2.8071,21.4556 Z M38.1181,44.2266 C38.1181,44.2266 32.0681,49.1756 22.1671,49.1756 C9.6271,49.1756 0.2771,40.1556 0.2771,25.3056 C0.2771,9.4656 9.5171,0.7756 21.0671,0.7756 C33.4971,0.7756 40.7571,9.4656 40.7571,22.9956 L40.7571,23.6556 L2.5871,23.6556 L2.5871,25.3056 C2.5871,38.9456 11.4971,47.0856 22.1671,47.0856 C31.7381,47.0856 37.0171,42.3556 37.0171,42.3556 L38.1181,44.2266 Z" id="Fill-17"></path>
            </g>
            <path d="M203.6408,108.8451 C203.6408,108.8451 204.9008,109.9251 206.8808,109.9251 C209.4908,109.9251 211.1108,108.5151 211.1108,104.9761 L211.1108,92.7961 L212.4308,92.7961 L212.4308,105.2151 C212.4308,109.4151 210.3008,111.1851 206.9708,111.1851 C204.4208,111.1851 203.0108,109.9551 202.9808,109.8951 L203.6408,108.8451 Z" id="Fill-20" fill="#41918E"></path>
            <path d="M230.5505,110.7953 L229.7105,110.7953 L229.4405,108.5453 L229.3805,108.5453 C229.2905,108.6953 228.1505,111.0953 224.7605,111.0953 C221.4305,111.0953 219.6905,108.6353 219.6905,105.2153 L219.6905,98.1953 L220.9805,98.1953 L220.9805,105.0953 C220.9805,107.8563 222.2105,109.9853 224.9705,109.9853 C227.9705,109.9853 229.2005,107.4953 229.2605,105.9363 L229.2605,98.1953 L230.5505,98.1953 L230.5505,110.7953 Z" id="Fill-22" fill="#41918E"></path>
            <path d="M237.5407,108.7855 C237.5407,108.7855 239.1907,109.9555 241.7097,109.9555 C244.2297,109.9555 245.2797,108.8755 245.2797,107.5555 C245.2797,104.0455 236.9707,105.8755 236.9707,101.3155 C236.9707,99.3065 238.4407,97.8955 241.4997,97.8955 C244.4107,97.8955 245.9997,98.8865 245.9997,98.8865 L245.4897,100.0255 C245.4897,100.0255 244.0197,99.0355 241.5607,99.0355 C239.3407,99.0355 238.1707,99.7555 238.1707,101.2855 C238.1707,104.6755 246.4797,102.6055 246.4797,107.4955 C246.4797,109.4455 245.1897,111.0645 241.7407,111.0645 C238.4707,111.0645 236.9407,109.7455 236.9407,109.7455 L237.5407,108.7855 Z" id="Fill-24" fill="#41918E"></path>
            <path d="M253.4401,98.1957 L253.4401,94.3557 L254.7301,94.3557 L254.7301,98.1957 L258.6001,98.1957 L258.6001,99.2757 L254.7301,99.2757 L254.7301,107.6157 C254.7301,109.2647 255.5411,109.9557 256.8601,109.9557 C257.8801,109.9557 258.7201,109.4157 258.7201,109.4157 L259.1401,110.4057 C259.1401,110.4057 258.2701,111.0947 256.7401,111.0947 C254.5501,111.0947 253.4401,109.7457 253.4401,107.6457 L253.4401,99.2757 L251.0101,99.2757 L251.0101,98.1957 L253.4401,98.1957 Z" id="Fill-26" fill="#41918E"></path>
            <path d="M274.111,108.7855 C274.111,108.7855 275.76,109.9555 278.28,109.9555 C280.8,109.9555 281.85,108.8755 281.85,107.5555 C281.85,104.0455 273.541,105.8755 273.541,101.3155 C273.541,99.3065 275.01,97.8955 278.07,97.8955 C280.98,97.8955 282.57,98.8865 282.57,98.8865 L282.06,100.0255 C282.06,100.0255 280.59,99.0355 278.131,99.0355 C275.91,99.0355 274.74,99.7555 274.74,101.2855 C274.74,104.6755 283.049,102.6055 283.049,107.4955 C283.049,109.4455 281.76,111.0645 278.31,111.0645 C275.041,111.0645 273.51,109.7455 273.51,109.7455 L274.111,108.7855 Z" id="Fill-28" fill="#41918E"></path>
            <path d="M295.4099,109.9857 C298.0799,109.9857 300.1799,107.7357 300.1799,104.4957 C300.1799,101.2557 298.0799,99.0067 295.4099,99.0067 C292.8299,99.0067 290.5199,101.0157 290.5199,104.4957 C290.5199,107.9747 292.8299,109.9857 295.4099,109.9857 L295.4099,109.9857 Z M290.5799,108.2147 L290.5799,115.4747 L289.2899,115.4747 L289.2899,98.1957 L290.2209,98.1957 L290.4309,100.8357 L290.5509,100.8357 C290.5509,100.8357 291.7209,97.8957 295.5899,97.8957 C298.8889,97.8957 301.4999,100.5357 301.4999,104.4957 C301.4999,108.4247 298.8889,111.0947 295.6199,111.0947 C291.7209,111.0947 290.6399,108.2147 290.6399,108.2147 L290.5799,108.2147 Z" id="Fill-30" fill="#41918E"></path>
            <path d="M308.4597,103.2953 L316.9807,103.2953 C316.7697,100.8353 315.3897,99.0353 312.8397,99.0353 C310.5897,99.0353 308.8507,100.4763 308.4597,103.2953 L308.4597,103.2953 Z M317.6397,109.7153 C317.6397,109.7153 316.1397,111.0953 313.2307,111.0953 C309.5697,111.0953 307.0797,108.5453 307.0797,104.5563 C307.0797,100.4763 309.4807,97.8963 312.8697,97.8963 C316.3497,97.8963 318.2997,100.4453 318.2997,104.0453 L318.2997,104.3753 L308.3697,104.3753 L308.3697,104.5563 C308.3697,108.0353 310.5607,109.9853 313.2897,109.9853 C315.7497,109.9853 317.0997,108.7253 317.0997,108.7253 L317.6397,109.7153 Z" id="Fill-32" fill="#41918E"></path>
            <path d="M332.9987,105.0951 C332.4297,104.7951 331.1397,104.2261 329.1587,104.2261 C325.9497,104.2261 324.7497,105.5151 324.7497,107.1651 C324.7497,108.6961 325.8897,110.0151 328.3797,110.0151 C331.1397,110.0151 332.9987,107.9151 332.9987,106.4151 L332.9987,105.0951 Z M334.2287,110.7951 L333.3287,110.7951 L333.1487,108.5751 L333.0597,108.5751 C332.2487,109.9551 330.5097,111.0951 328.2287,111.0951 C325.0197,111.0951 323.4297,109.3251 323.4297,107.1961 C323.4297,105.0051 325.1397,103.2051 329.0397,103.2051 C330.8987,103.2051 332.2197,103.6251 332.9987,103.9861 L332.9987,103.2051 C332.9987,100.5661 331.6487,99.0661 328.7697,99.0661 C326.7287,99.0661 324.9897,100.1161 324.9897,100.1161 L324.4787,99.0061 C324.4787,99.0061 326.3397,97.8961 328.9197,97.8961 C332.6697,97.8961 334.2287,100.0851 334.2287,103.2361 L334.2287,110.7951 Z" id="Fill-34" fill="#41918E"></path>
            <path d="M340.4997,104.5561 C340.4997,100.5351 343.1397,97.8961 346.6797,97.8961 C349.2887,97.8961 350.5197,99.0351 350.5197,99.0351 L350.0687,100.0261 C350.0687,100.0261 348.7787,99.0061 346.7087,99.0061 C344.1297,99.0061 341.8187,101.0761 341.8187,104.5561 C341.8187,108.0351 344.1297,109.9861 346.7087,109.9861 C348.7787,109.9861 350.0687,108.9651 350.0687,108.9651 L350.4887,109.9551 C350.4887,109.9551 349.2597,111.0951 346.6797,111.0951 C343.1397,111.0951 340.4997,108.5451 340.4997,104.5561" id="Fill-36" fill="#41918E"></path>
            <path d="M356.7888,92.6459 L358.0788,92.6459 L358.0788,100.2059 L358.1398,100.2059 C358.5598,99.7259 359.7288,97.8959 362.5788,97.8959 C365.9088,97.8959 367.7988,100.3559 367.7988,103.7759 L367.7988,110.7949 L366.5088,110.7949 L366.5088,103.9249 C366.5088,101.1359 365.1288,99.0059 362.3388,99.0059 C359.3688,99.0059 358.1398,101.5259 358.0788,103.0849 L358.0788,110.7949 L356.7888,110.7949 L356.7888,92.6459 Z" id="Fill-38" fill="#41918E"></path>
            <path d="M386.4294,115.475 L385.0484,115.475 L388.1994,109.385 L382.5894,98.196 L384.0594,98.196 L388.6184,107.496 C388.7084,107.736 388.8284,108.095 388.8284,108.246 L388.9184,108.246 C388.9184,108.095 389.0084,107.736 389.0984,107.496 L393.6584,98.196 L394.9784,98.196 L386.4294,115.475 Z" id="Fill-40" fill="#41918E"></path>
            <path d="M410.3386,104.5561 C410.3386,101.1361 407.9986,98.9761 405.4186,98.9761 C402.8396,98.9761 400.4996,101.1361 400.4996,104.5561 C400.4996,107.9751 402.8396,110.0151 405.4186,110.0151 C407.9986,110.0151 410.3386,107.9751 410.3386,104.5561 M405.4186,111.0951 C401.9696,111.0951 399.2096,108.6061 399.2096,104.5561 C399.2096,100.5351 401.9696,97.8961 405.4186,97.8961 C408.8386,97.8961 411.6286,100.5351 411.6286,104.5561 C411.6286,108.6061 408.8386,111.0951 405.4186,111.0951" id="Fill-42" fill="#41918E"></path>
            <path d="M428.6989,110.7953 L427.8589,110.7953 L427.5899,108.5453 L427.5289,108.5453 C427.4389,108.6953 426.2999,111.0953 422.9099,111.0953 C419.5799,111.0953 417.8399,108.6353 417.8399,105.2153 L417.8399,98.1953 L419.1299,98.1953 L419.1299,105.0953 C419.1299,107.8563 420.3599,109.9853 423.1199,109.9853 C426.1199,109.9853 427.3489,107.4953 427.4089,105.9363 L427.4089,98.1953 L428.6989,98.1953 L428.6989,110.7953 Z" id="Fill-44" fill="#41918E"></path>
            <path d="M441.5388,99.2758 L440.9698,99.2758 C438.7498,99.2758 437.3398,101.1058 437.2788,103.2958 L437.2788,110.7958 L435.9888,110.7958 L435.9888,98.1958 L436.9198,98.1958 L437.0998,100.6258 L437.1598,100.6258 C437.4598,99.9958 438.5398,98.1958 440.9698,98.1958 L441.5388,98.1958 L441.5388,99.2758 Z" id="Fill-46" fill="#41918E"></path>
            <polygon id="Fill-48" fill="#41918E" points="453.989 92.7963 467.759 92.7963 467.759 94.0253 461.519 94.0253 461.519 110.7953 460.199 110.7953 460.199 94.0253 453.989 94.0253"></polygon>
            <path d="M470.9987,103.2953 L479.5197,103.2953 C479.3087,100.8353 477.9287,99.0353 475.3787,99.0353 C473.1287,99.0353 471.3897,100.4763 470.9987,103.2953 L470.9987,103.2953 Z M480.1787,109.7153 C480.1787,109.7153 478.6787,111.0953 475.7697,111.0953 C472.1087,111.0953 469.6187,108.5453 469.6187,104.5563 C469.6187,100.4763 472.0197,97.8963 475.4087,97.8963 C478.8887,97.8963 480.8387,100.4453 480.8387,104.0453 L480.8387,104.3753 L470.9087,104.3753 L470.9087,104.5563 C470.9087,108.0353 473.0997,109.9853 475.8287,109.9853 C478.2887,109.9853 479.6387,108.7253 479.6387,108.7253 L480.1787,109.7153 Z" id="Fill-50" fill="#41918E"></path>
            <path d="M495.5378,105.0951 C494.9688,104.7951 493.6788,104.2261 491.6978,104.2261 C488.4888,104.2261 487.2888,105.5151 487.2888,107.1651 C487.2888,108.6961 488.4288,110.0151 490.9188,110.0151 C493.6788,110.0151 495.5378,107.9151 495.5378,106.4151 L495.5378,105.0951 Z M496.7678,110.7951 L495.8678,110.7951 L495.6878,108.5751 L495.5988,108.5751 C494.7878,109.9551 493.0488,111.0951 490.7678,111.0951 C487.5588,111.0951 485.9688,109.3251 485.9688,107.1961 C485.9688,105.0051 487.6788,103.2051 491.5788,103.2051 C493.4378,103.2051 494.7588,103.6251 495.5378,103.9861 L495.5378,103.2051 C495.5378,100.5661 494.1878,99.0661 491.3088,99.0661 C489.2678,99.0661 487.5288,100.1161 487.5288,100.1161 L487.0178,99.0061 C487.0178,99.0061 488.8788,97.8961 491.4588,97.8961 C495.2088,97.8961 496.7678,100.0851 496.7678,103.2361 L496.7678,110.7951 Z" id="Fill-52" fill="#41918E"></path>
            <path d="M503.0388,104.5561 C503.0388,100.5351 505.6788,97.8961 509.2188,97.8961 C511.8278,97.8961 513.0588,99.0351 513.0588,99.0351 L512.6078,100.0261 C512.6078,100.0261 511.3178,99.0061 509.2478,99.0061 C506.6688,99.0061 504.3578,101.0761 504.3578,104.5561 C504.3578,108.0351 506.6688,109.9861 509.2478,109.9861 C511.3178,109.9861 512.6078,108.9651 512.6078,108.9651 L513.0278,109.9551 C513.0278,109.9551 511.7988,111.0951 509.2188,111.0951 C505.6788,111.0951 503.0388,108.5451 503.0388,104.5561" id="Fill-54" fill="#41918E"></path>
            <path d="M519.3278,92.6459 L520.6178,92.6459 L520.6178,100.2059 L520.6788,100.2059 C521.0988,99.7259 522.2678,97.8959 525.1178,97.8959 C528.4478,97.8959 530.3378,100.3559 530.3378,103.7759 L530.3378,110.7949 L529.0478,110.7949 L529.0478,103.9249 C529.0478,101.1359 527.6678,99.0059 524.8778,99.0059 C521.9078,99.0059 520.6788,101.5259 520.6178,103.0849 L520.6178,110.7949 L519.3278,110.7949 L519.3278,92.6459 Z" id="Fill-56" fill="#41918E"></path>
            <g id="Group-60" transform="translate(0.000000, 4.475000)" fill="#E74625">
                <path d="M69.2673,61.7996 L66.5173,66.2996 C66.5173,66.2996 44.5173,55.2996 45.2673,38.5496 C46.0173,21.7996 60.0173,23.7996 60.0173,23.7996 C60.0173,23.7996 69.2673,24.5496 69.2673,33.7996 C69.2673,43.0496 58.0173,45.0496 53.7673,43.2996 C53.7673,43.2996 53.5173,50.2996 69.2673,61.7996 M38.2673,61.7996 L35.5173,66.2996 C35.5173,66.2996 13.5173,55.2996 14.2673,38.5496 C15.0173,21.7996 29.0173,23.7996 29.0173,23.7996 C29.0173,23.7996 38.2673,24.5496 38.2673,33.7996 C38.2673,43.0496 27.0173,45.0496 22.7673,43.2996 C22.7673,43.2996 22.5173,50.2996 38.2673,61.7996 M76.4183,14.2996 C71.6683,8.2996 43.1683,-12.4504 14.1683,14.2996 C-14.8317,41.0496 9.6683,71.0496 9.6683,71.0496 C9.6683,71.0496 25.1643,90.3706 50.1313,83.6636 C53.7553,86.8846 61.3873,92.6896 69.6683,93.0496 C69.6683,93.0496 63.9843,87.3586 62.3373,78.5296 C103.0083,55.5506 81.1333,20.2546 76.4183,14.2996" id="Fill-58"></path>
            </g>
        </g>
    </g>
</svg>