<?xml version="1.0" encoding="UTF-8" standalone="no"?>
<svg width="401px" height="98px" viewBox="0 0 401 98" version="1.1" xmlns="http://www.w3.org/2000/svg" xmlns:xlink="http://www.w3.org/1999/xlink">
    <!-- Generator: Sketch 3.8.2 (29753) - http://www.bohemiancoding.com/sketch -->
    <title>iadvize-color</title>
    <desc>Created with Sketch.</desc>
    <defs></defs>
    <g id="Page-1" stroke="none" stroke-width="1" fill="none" fill-rule="evenodd">
        <g id="iadvize-color" transform="translate(-1.000000, 0.000000)">
            <g id="iadvize-color.svg">
                <path d="M115.532,30.236 C119.395711,30.2974995 122.508073,33.4240497 122.552,37.288 C122.552,41.1006978 119.461198,44.1915 115.6485,44.1915 C111.835802,44.1915 108.745,41.1006978 108.745,37.288 C108.763864,33.5031827 111.750679,30.3997468 115.532,30.236 L115.532,30.236 Z M109.8,55.625 C109.772986,53.600558 110.837538,51.718229 112.586392,50.6981296 C114.335247,49.6780302 116.497753,49.6780302 118.246608,50.6981296 C119.995462,51.718229 121.060014,53.600558 121.033,55.625 L121.033,91.358 C121.060014,93.382442 119.995462,95.264771 118.246608,96.2848704 C116.497753,97.3049698 114.335247,97.3049698 112.586392,96.2848704 C110.837538,95.264771 109.772986,93.382442 109.8,91.358 L109.8,55.625 L109.8,55.625 Z M162.687,32.351 L191.587,88.889 C191.944755,89.6229549 192.144073,90.4239738 192.172,91.24 C192.225459,92.7384326 191.671674,94.1949796 190.636206,95.2793977 C189.600737,96.3638159 188.171303,96.9842396 186.672,97 C184.531954,97.0899438 182.547627,95.8845965 181.641,93.944 L175.323,82.072 L143.847,82.072 L137.411,93.944 C136.504582,95.8847842 134.520116,97.090216 132.38,97 C130.880697,96.9842396 129.451263,96.3638159 128.415794,95.2793977 C127.380326,94.1949796 126.826541,92.7384326 126.88,91.24 C126.90733,90.4238904 127.106679,89.622749 127.465,88.889 L156.365,32.351 C156.891973,31.0701608 158.139991,30.2341111 159.525,30.2341111 C160.910009,30.2341111 162.158027,31.0701608 162.685,32.351 L162.687,32.351 Z M149.114,72.316 L170.058,72.316 L159.526,52.8 L149.114,72.316 Z M266.47,95.354 L246.345,57.976 C245.98763,57.2462228 245.826344,56.4360006 245.877,55.625 C245.853986,54.1262329 246.437426,52.681731 247.494888,51.6193727 C248.552351,50.5570144 249.994143,49.9669087 251.493,49.983 C253.612616,49.8453155 255.603595,51.0081708 256.525,52.922 L268.925,76.43 L281.325,52.922 C282.246193,51.0079757 284.237318,49.8450355 286.357,49.983 C287.855857,49.9669087 289.297649,50.5570144 290.355112,51.6193727 C291.412574,52.681731 291.996014,54.1262329 291.973,55.625 C292.023346,56.4360886 291.861714,57.2463152 291.504,57.976 L271.38,95.354 C270.968181,96.3463651 269.999422,96.9932071 268.925,96.9932071 C267.850578,96.9932071 266.881819,96.3463651 266.47,95.354 L266.47,95.354 Z M303.577,30.236 C307.440711,30.2974995 310.553073,33.4240497 310.597,37.288 C310.597,41.1004216 307.506422,44.191 303.694,44.191 C299.881578,44.191 296.791,41.1004216 296.791,37.288 C296.809332,33.503347 299.795847,30.3997653 303.577,30.236 L303.577,30.236 Z M297.844,55.625 C297.844,52.5233688 300.358369,50.009 303.46,50.009 C306.561631,50.009 309.076,52.5233688 309.076,55.625 L309.076,91.358 C309.076,94.4596312 306.561631,96.974 303.46,96.974 C300.358369,96.974 297.844,94.4596312 297.844,91.358 L297.844,55.625 L297.844,55.625 Z M317.617,97 C316.352773,96.8100234 315.440572,95.68948 315.511,94.413 C315.511,94.061 315.628,93.826 315.628,93.473 L336.221,60.327 L319.957,60.327 C318.616464,60.3337591 317.329226,59.8025739 316.38357,58.8524072 C315.437914,57.9022404 314.912861,56.6124883 314.926,55.272 C314.884611,53.90149 315.393049,52.5713477 316.338054,51.5778809 C317.283059,50.5844141 318.586134,50.010145 319.957,49.983 L351.315,49.983 C352.579325,50.1720697 353.491853,51.2925817 353.421,52.569 C353.421,52.922 353.304,53.156 353.304,53.509 L332.594,87.009 L348.975,87.009 C350.291034,86.9800844 351.561439,87.4916758 352.49016,88.4245535 C353.41888,89.3574311 353.924793,90.6301078 353.89,91.946 C353.928961,93.273848 353.428221,94.5608181 352.502074,95.5131573 C351.575927,96.4654965 350.303418,97.0019242 348.975,97 L317.617,97 L317.617,97 Z M378.679,96.768 C365.819167,96.676575 355.444612,86.2217466 355.452309,73.3615909 C355.460006,60.5014351 365.847067,50.0590322 378.707,49.983 C384.919394,49.9895763 390.865378,52.506891 395.194,56.963 C399.546358,61.3806629 401.990353,67.3304946 402,73.532 C402.019171,76.4790331 399.680861,78.901726 396.735,78.987 L367.074,78.987 C369.074,82.601 373.525,86.357 378.674,86.357 C381.819512,86.3204165 384.840466,85.1222925 387.156,82.993 C389.3135,81.0522714 392.635771,81.2279996 394.5765,83.3855 C396.517229,85.5430004 396.3415,88.8652714 394.184,90.806 C389.932137,94.6445597 384.407253,96.7689942 378.679,96.768 L378.679,96.768 Z M367.086,68.144 L390.286,68.144 C388.388657,63.4532259 383.760881,60.449287 378.704,60.626 C373.551,60.626 369.1,63.175 367.086,68.144 L367.086,68.144 Z M234.441,30.236 C232.941352,30.278879 231.522491,30.925223 230.505926,32.0285718 C229.489362,33.1319206 228.961157,34.5988656 229.041,36.097 L229.041,53.651 C225.261578,51.2790708 220.889069,50.0228499 216.427,50.027 C203.58066,50.0644648 193.175894,60.4690606 193.138218,73.3153995 C193.100542,86.1617384 203.444101,96.627185 216.29,96.74 C220.77951,96.7445383 225.17202,95.4339118 228.925,92.97 C229.694885,95.6483814 232.327812,97.3438012 235.08471,96.9364201 C237.841609,96.5290389 239.871661,94.1445806 239.834,91.358 L239.834,35.878 C239.906755,34.4038124 239.37032,32.9645337 238.350453,31.8975784 C237.330586,30.8306231 235.916969,30.2298138 234.441,30.236 L234.441,30.236 Z M216.247,85.754 C211.238364,85.7766729 206.71029,82.7769932 204.777837,78.1561084 C202.845384,73.5352237 203.889927,68.2050771 207.423561,64.6553751 C210.957194,61.1056731 216.282547,60.0369584 220.912151,61.9484265 C225.541756,63.8598946 228.561949,68.3743126 228.562,73.383 C228.570309,80.196904 223.060872,85.731395 216.247,85.754 L216.247,85.754 Z" id="Forme_1" fill="#282C38"></path>
                <path d="M11.826,79.1 C1.8031403,66.6779307 -1.53947795,50.1517842 2.868,34.811 C7.16392106,19.0098966 19.3807058,6.58773044 35.108,2.029 C67.838,-7.341 97.557,17.093 97.557,48.501 C97.610476,74.62853 76.9174364,96.0824213 50.805,96.972 L50.821,97 L6.269,97 C5.27126157,96.9954633 4.35171838,96.4590334 3.85669638,95.5927449 C3.36167437,94.7264564 3.36636438,93.6618933 3.869,92.8 L11.826,79.1 Z" id="Forme_1_copie" fill="#00CB3E"></path>
            </g>
        </g>
    </g>
</svg>