<?xml version="1.0" encoding="UTF-8"?> <svg xmlns="http://www.w3.org/2000/svg" width="2105" height="1076" viewBox="0 0 2105 1076" fill="none"> <path d="M275.898 494.663C269.061 522.985 254.412 548.866 232.438 570.351C224.136 578.164 222.183 583.536 225.601 592.814C252.459 665.573 278.828 738.332 305.197 811.09C305.685 812.555 306.173 814.02 307.15 816.95C271.015 824.763 236.344 832.576 202.162 839.413C199.721 839.901 196.302 838.436 194.838 833.553C180.188 784.721 165.539 735.89 151.377 687.059C146.494 670.456 141.611 653.853 136.728 637.25C134.286 628.949 127.45 629.437 111.824 633.832C104.499 635.786 106.453 642.622 106.453 647.017C106.453 713.916 105.964 781.303 106.453 848.202C106.453 857.969 104.011 861.387 93.7564 863.34C62.5043 869.688 31.7404 876.525 -7.45109e-06 883.849L131.357 1001.53C163.097 994.697 195.326 987.86 226.578 981.512C236.344 979.559 239.274 976.141 239.274 966.374C239.274 935.122 238.786 903.87 239.274 872.618L333.519 957.585C367.701 950.26 404.324 942.935 440.46 935.122C439.483 932.192 438.995 930.728 438.506 929.263C428.252 900.452 417.509 871.641 407.254 842.343L496.128 922.426C571.816 905.823 727.589 871.641 727.589 871.641C737.843 869.2 740.773 867.247 740.773 857.48C740.773 857.48 740.773 820.368 740.773 796.929L804.254 854.55C880.431 837.948 957.585 821.345 1033.76 804.254C1034.74 804.254 1035.23 803.766 1035.72 803.766C1045.97 801.324 1048.9 799.371 1048.9 789.605C1048.9 789.605 1048.9 786.675 1048.9 782.28C1048.9 770.072 1048.9 745.656 1048.9 728.565L1113.36 787.163C1163.17 776.42 1213.46 765.677 1262.29 754.934C1272.06 752.981 1281.34 750.051 1291.1 746.633C1327.24 733.937 1358.98 712.939 1379.49 676.316C1382.91 670.456 1385.35 665.084 1387.79 659.225L1448.83 713.916C1483.99 706.103 1518.66 698.29 1553.33 690.477C1558.21 666.061 1563.09 641.645 1567 617.718C1568.47 608.44 1571.88 604.533 1581.16 602.58C1597.28 599.65 1596.3 599.65 1607.53 597.209L1680.29 663.131C1716.91 655.318 1755 646.528 1791.63 638.715C1788.21 623.089 1766.23 521.52 1684.69 125.009C1684.2 123.544 1683.71 120.614 1682.73 119.637L1548.93 0.488315C1547.96 1.09147e-07 1547.47 0 1546.49 0C1548.93 0 1550.89 1.46494 1551.86 5.85977C1568.47 87.8966 1585.56 169.933 1602.65 251.97C1611.93 296.407 1621.2 340.844 1630.97 385.28C1640.25 428.74 1659.29 521.032 1659.29 521.032C1622.67 528.845 1585.56 537.146 1548.93 544.959C1544.05 522.497 1539.17 500.522 1535.26 477.572C1533.8 469.27 1530.87 466.829 1521.59 468.782C1497.17 474.642 1472.76 480.013 1448.83 484.896C1439.06 486.85 1436.13 490.756 1434.18 500.034C1430.27 523.962 1425.39 548.377 1420.51 572.793C1385.84 580.606 1351.65 587.931 1316.5 595.744C1320.4 575.723 1323.82 556.679 1327.24 537.634C1340.42 469.27 1353.61 400.906 1366.79 332.054C1372.65 301.778 1378.51 271.991 1384.37 241.716L1241.3 111.824C1253.5 125.009 1261.8 142.1 1264.73 162.609C1267.18 180.676 1268.64 199.232 1268.64 217.788C1269.13 301.778 1269.13 385.28 1268.64 469.27C1268.64 499.057 1262.78 529.333 1246.67 558.144C1226.16 594.767 1194.42 615.276 1158.28 628.461C1149 631.879 1139.24 634.809 1129.47 636.762C1080.64 647.505 1031.81 658.248 982.001 668.991V199.232L916.078 138.681C916.078 143.076 916.078 196.791 916.078 221.695C916.078 229.508 913.636 232.438 905.823 233.903C867.247 242.204 828.67 250.994 789.605 258.807C781.792 260.272 778.373 263.202 778.373 271.015V321.311C778.373 322.288 778.373 322.776 778.373 323.753C778.373 332.054 780.815 334.007 789.116 332.054C818.415 325.217 848.202 318.869 877.501 312.521C881.408 311.545 886.291 310.568 890.686 309.591C890.686 309.591 890.686 367.701 890.686 390.163C890.686 398.465 887.756 400.906 879.943 402.859C849.667 409.208 818.903 416.044 788.628 422.392C780.815 423.857 778.862 427.275 778.862 434.6C779.35 480.013 779.35 568.398 778.862 614.3C778.862 622.113 781.792 623.089 789.116 621.624C827.205 612.835 865.293 605.022 902.894 596.72C906.8 595.744 911.195 594.767 916.078 593.79V672.409C916.078 682.175 913.148 684.129 902.894 686.57C899.475 687.547 746.633 720.752 673.386 736.867V266.131L607.463 206.069C607.463 206.069 607.463 263.202 607.463 289.082C607.463 296.895 605.022 299.825 597.209 301.29C558.632 309.591 520.055 318.381 480.99 326.194C473.177 327.659 469.759 330.589 469.759 338.402V388.698C469.759 389.675 469.759 390.163 469.759 391.14C469.759 399.441 472.2 401.395 480.502 399.441C509.8 392.605 539.588 386.257 568.886 379.909C572.793 378.932 577.676 377.955 582.071 376.979C582.071 376.979 582.071 435.088 582.071 457.551C582.071 465.852 579.141 468.294 571.328 470.247C541.053 476.595 510.289 483.431 480.013 489.779C472.2 491.244 470.247 494.663 470.247 501.987C470.735 547.401 470.735 635.786 470.247 681.687C470.247 689.5 473.177 690.965 480.502 689.012C518.59 680.222 556.679 672.409 594.279 664.108C598.185 663.131 602.58 662.154 607.463 661.178V739.797C607.463 749.563 604.533 751.516 594.279 753.958C590.861 754.934 438.018 788.14 364.771 804.254V424.834C344.75 406.766 255.877 327.171 255.877 327.171C254.9 326.194 253.435 324.729 252.459 323.753C266.131 336.449 274.921 354.028 278.828 374.537C284.687 413.114 286.152 452.668 275.898 494.663Z" transform="translate(311.365 3.73962)" fill="#111111"></path> <path d="M133.798 1006.9C133.31 1006.9 132.822 1006.9 132.333 1006.42L0.976633 888.732C0.488318 888.244 0 887.756 0 886.779C0 885.314 0.976629 884.338 2.44157 884.338C10.7429 882.384 19.5326 880.431 27.8339 878.478C50.2964 873.595 73.2472 868.223 95.7096 863.828C104.499 861.875 106.453 859.922 106.453 850.644C105.964 783.256 105.964 715.381 106.453 649.458C106.453 648.97 106.453 647.993 106.453 647.505C106.453 643.11 105.964 636.274 113.777 633.832C127.938 629.437 138.193 627.484 141.611 638.715C145.029 649.458 147.959 660.69 151.378 671.432C152.842 677.292 154.796 683.152 156.261 689.012L166.027 722.217C176.77 759.329 188.001 797.418 199.721 835.018C200.697 838.436 202.651 839.413 204.604 839.413C232.438 833.553 260.272 827.693 289.082 821.345L307.15 817.438V816.95C306.662 815.485 306.662 814.509 306.173 814.02L288.594 765.189C268.573 709.521 247.575 651.9 227.066 595.744C223.16 585.977 225.113 579.629 234.391 570.84C255.877 549.842 270.526 524.938 277.363 496.128C286.152 458.527 287.129 419.951 279.316 377.467C275.409 356.47 267.108 339.867 253.924 328.147C252.947 327.171 252.947 325.706 253.924 324.729C254.9 323.753 256.365 323.753 257.342 324.241C258.807 325.706 260.272 326.682 261.248 327.659C263.202 329.124 266.131 331.566 271.991 336.937L370.142 424.834C370.631 425.322 371.119 425.81 371.119 426.787V802.789L491.733 776.42C547.401 764.212 595.744 753.958 597.697 753.469C607.463 751.028 608.928 749.563 608.928 741.75C608.928 740.285 608.928 693.407 608.928 666.061C607.463 666.549 605.998 666.549 604.533 667.038C602.58 667.526 600.627 668.014 598.674 668.503L567.91 675.339C540.564 681.199 512.242 687.547 484.896 693.895C480.99 694.872 477.083 695.36 474.642 692.918C472.2 690.965 471.712 687.059 471.712 684.129C472.2 636.762 472.2 548.866 471.712 504.429C471.712 495.639 474.642 491.733 483.431 489.779C498.569 486.85 514.195 483.431 529.333 480.013C544.471 476.595 559.608 473.177 574.746 470.247C581.583 468.782 583.536 466.829 583.536 459.992C583.536 440.46 583.536 394.558 583.536 382.35C582.071 382.839 580.606 382.839 579.141 383.327C577.188 383.815 574.746 384.304 573.281 384.792C565.468 386.745 557.655 388.21 549.354 390.163C528.356 394.558 506.382 399.441 484.896 404.324C481.478 405.301 477.083 405.789 474.153 403.348C471.224 400.906 471.224 397 471.224 393.582V392.117C471.224 391.628 471.224 391.628 471.224 391.14V341.332C471.224 340.844 471.224 340.844 471.224 340.355C471.712 331.077 476.107 328.147 484.408 326.682C505.406 322.288 526.891 317.404 547.889 313.01C565.468 309.103 583.048 305.197 600.627 301.778C606.975 300.313 608.928 298.36 608.928 292.012V208.999C608.928 208.022 609.417 206.557 610.882 206.557C611.37 206.557 612.346 206.557 612.835 207.045C612.835 207.045 612.835 207.045 613.323 207.045L679.246 267.108C679.734 267.596 680.222 268.085 680.222 269.061V735.89L805.719 708.544C858.945 696.825 904.847 687.059 906.8 686.57C916.566 684.129 918.031 682.664 918.031 674.851C918.031 673.386 918.031 626.508 918.031 599.162C916.566 599.65 915.101 599.65 913.637 600.139C911.683 600.627 909.73 601.115 907.777 601.603L877.501 608.44C850.156 614.3 821.833 620.648 793.999 626.996C790.093 627.972 786.186 628.461 783.745 626.019C781.303 624.066 780.815 620.159 780.815 617.23C781.303 569.863 781.303 481.966 780.815 437.53C780.815 428.74 783.745 424.834 792.535 422.88C807.672 419.95 823.298 416.532 838.436 413.114C853.085 409.696 868.712 406.278 883.849 403.348C890.686 401.883 892.639 399.93 892.639 393.093C892.639 373.561 892.639 327.659 892.639 315.451C891.174 315.939 889.709 315.94 888.732 316.428C886.779 316.916 884.338 317.404 882.873 317.893C875.06 319.846 866.758 321.311 858.945 323.264C837.948 327.659 815.974 332.542 794.976 337.425C791.558 338.402 787.163 338.89 784.233 336.449C781.303 334.007 781.303 330.101 781.303 326.682V325.217C781.303 325.217 781.303 324.729 781.303 324.241V273.456C781.303 272.968 781.303 272.968 781.303 272.48C781.792 263.202 786.186 260.272 794.488 258.807C815.974 254.412 837.459 249.529 858.457 245.134C876.036 241.227 893.127 237.321 910.707 233.903C917.055 232.438 919.008 230.484 919.008 224.136V141.123C919.008 140.146 919.496 139.17 920.473 138.681C921.45 138.193 922.426 138.681 922.914 139.17L985.907 200.209C986.395 200.697 986.884 201.186 986.884 202.162V668.991L1020.09 661.666C1057.2 653.365 1094.31 645.552 1131.42 637.25C1140.21 635.297 1149.49 632.367 1159.75 628.949C1200.28 614.788 1228.6 591.837 1246.67 560.097C1261.32 534.216 1268.15 505.406 1268.15 472.2C1268.64 378.444 1268.64 295.919 1268.15 220.718C1268.15 203.139 1266.69 184.583 1264.25 165.539C1261.8 146.006 1253.99 128.915 1241.78 116.219C1241.78 116.219 1241.78 115.731 1241.3 115.731V115.242C1240.81 114.266 1241.3 113.289 1242.27 112.801C1243.25 112.312 1244.71 112.312 1245.2 113.289L1388.28 243.181C1388.77 243.669 1389.25 244.646 1389.25 245.622C1383.4 275.898 1377.54 305.685 1371.68 335.96C1358.49 404.324 1345.31 472.688 1332.12 541.541C1329.68 554.237 1327.24 566.933 1324.8 579.629L1321.87 596.232L1421 574.746C1422.46 568.398 1423.44 561.562 1424.9 555.214C1428.32 538.123 1431.74 520.543 1434.67 503.452C1436.62 492.709 1440.53 488.315 1451.27 486.361C1475.2 481.966 1499.61 476.595 1524.03 470.247C1529.4 468.782 1532.82 469.27 1535.75 470.735C1539.17 472.688 1540.14 477.083 1540.63 480.99C1543.56 497.104 1546.98 513.219 1550.4 528.845C1551.38 534.216 1552.84 540.076 1553.82 545.447L1659.29 522.497C1656.36 507.847 1640.25 429.228 1631.46 389.187C1627.06 367.701 1622.67 346.215 1617.79 325.217C1612.9 302.267 1608.02 278.828 1603.14 255.877L1601.18 246.111C1585.07 168.469 1568.47 88.8732 1552.35 9.76629C1551.86 4.88315 1550.4 4.88315 1549.42 4.88315C1547.96 4.88315 1546.98 3.90652 1546.98 2.44157C1546.98 0.976629 1547.96 0 1549.42 0C1550.4 0 1551.38 0 1552.35 0.488315C1552.84 0.488315 1552.84 0.976629 1553.33 0.976629L1687.13 121.102C1688.59 122.567 1689.08 125.497 1689.57 127.938C1759.4 468.294 1785.28 589.396 1793.58 629.437C1795.04 635.785 1795.53 639.692 1796.02 641.645C1796.51 643.11 1795.53 644.087 1794.07 644.575C1775.51 648.482 1756.47 652.877 1737.42 657.271C1718.87 661.178 1700.8 665.573 1682.73 669.479C1681.76 669.479 1681.27 669.479 1680.78 668.991L1609 604.045C1599.23 605.998 1599.23 605.998 1585.07 608.928L1583.6 609.417C1575.3 610.881 1572.37 613.811 1570.91 622.601C1567.98 639.692 1564.56 657.271 1561.14 674.362C1559.68 681.199 1558.21 688.523 1557.24 695.36C1557.24 696.336 1556.26 697.313 1555.28 697.313C1538.19 701.22 1521.1 704.638 1504.5 708.544C1486.92 712.451 1468.85 716.357 1450.78 720.264C1449.81 720.264 1449.32 720.264 1448.83 719.776L1390.23 667.038C1388.28 671.921 1385.84 676.804 1382.91 681.199C1364.35 714.404 1335.05 737.843 1293.06 752.493C1282.8 755.911 1273.04 758.841 1264.25 760.794C1234.46 767.63 1204.18 773.979 1173.91 780.327C1154.38 784.721 1134.84 788.628 1115.31 793.023C1114.33 793.023 1113.85 793.023 1113.36 792.534L1052.81 737.843V785.698C1052.81 789.605 1052.81 791.558 1052.81 793.023C1052.81 804.254 1048.9 807.184 1037.67 809.626C1037.67 809.626 1037.18 809.625 1036.2 810.114L806.696 860.41C805.719 860.41 805.231 860.41 804.742 859.922L745.656 805.719C745.656 847.714 745.656 857.969 745.656 860.41C745.656 871.641 741.75 874.571 730.519 877.013C730.03 877.013 573.77 911.195 499.057 927.798C498.081 927.798 497.593 927.798 497.104 927.309L415.556 854.062L443.39 931.704C443.878 932.681 443.878 933.657 444.366 935.122L445.343 938.052C445.343 938.541 445.343 939.517 445.343 940.005C444.855 940.494 444.366 940.982 443.878 940.982C417.997 946.842 391.628 952.213 365.748 957.585L336.937 963.445C335.96 963.445 335.472 963.445 334.984 962.956L244.646 881.896C244.646 908.265 244.646 937.564 244.646 970.281C244.646 981.512 241.227 985.419 229.996 987.86C196.302 994.697 164.074 1001.04 134.775 1007.39C134.286 1006.9 133.798 1006.9 133.798 1006.9ZM7.81303 888.244L134.775 1002.02C163.585 995.673 195.326 989.325 228.531 982.489C237.321 980.536 239.274 978.582 239.274 969.793C239.274 934.634 239.274 904.358 239.274 876.036C239.274 875.06 239.762 874.083 240.739 873.595C241.716 873.106 242.692 873.595 243.181 874.083L336.449 958.073L364.283 952.213C388.698 946.842 414.579 941.959 439.483 936.099V935.611C438.995 934.146 438.995 933.657 438.506 932.681L407.254 845.761C406.766 844.784 407.254 843.319 408.231 842.831C409.208 842.343 410.184 842.343 411.161 842.831L499.057 921.938C575.235 905.335 728.565 871.641 729.542 871.641C739.308 869.2 740.773 867.735 740.773 859.922C740.773 858.457 740.773 823.298 740.773 799.371C740.773 798.394 741.261 797.418 742.238 796.929C743.215 796.441 744.191 796.929 744.68 797.418L807.184 854.55L1035.23 805.719C1036.2 805.719 1036.69 805.231 1036.69 805.231C1046.46 802.789 1047.92 801.324 1047.92 793.511C1047.92 793.023 1047.92 790.581 1047.92 786.186V732.472C1047.92 731.495 1048.41 730.519 1049.39 730.03C1050.36 729.542 1051.34 730.03 1051.83 730.519L1115.8 788.14C1134.84 783.745 1153.89 779.838 1173.42 775.443C1203.7 769.095 1233.97 762.259 1263.76 755.911C1272.55 753.958 1281.83 751.028 1292.08 747.61C1332.61 733.448 1360.93 710.498 1379 678.757C1381.93 673.386 1384.86 667.526 1387.3 661.666C1387.79 661.178 1388.28 660.201 1389.25 660.201C1390.23 660.201 1390.72 660.201 1391.21 660.69L1451.27 714.892C1468.85 710.986 1486.43 707.079 1503.52 703.173C1520.12 699.266 1536.73 695.848 1552.84 691.942C1554.31 685.594 1555.28 678.757 1556.75 672.409C1560.16 655.318 1563.58 637.739 1566.51 620.648C1568.47 609.905 1572.37 605.51 1582.63 603.557L1584.09 603.068C1597.77 600.139 1597.77 600.139 1608.02 598.185L1609.48 597.697C1610.46 597.697 1610.95 597.697 1611.44 598.185L1683.22 663.131C1700.8 659.225 1718.87 655.318 1736.45 651.412C1754.51 647.505 1773.07 643.11 1790.65 639.204C1790.16 636.762 1789.67 633.832 1788.7 629.437C1780.39 589.396 1754.51 468.294 1684.69 127.938C1684.2 125.497 1683.71 124.032 1683.22 123.544L1557.72 11.2312C1573.35 88.8732 1589.95 167.492 1606.07 243.669L1608.02 253.435C1612.9 276.386 1617.79 299.825 1622.67 322.776C1627.06 344.262 1631.95 365.748 1636.34 386.745C1665.15 523.473 1665.15 523.473 1663.69 524.45C1663.2 524.938 1662.71 524.938 1662.71 524.938L1552.35 548.866C1551.86 548.866 1550.89 548.866 1550.4 548.377C1549.91 547.889 1549.42 547.401 1549.42 546.912C1547.96 540.564 1546.49 534.216 1545.52 527.868C1542.1 512.242 1538.68 496.128 1535.75 479.525C1535.26 475.618 1534.28 473.665 1532.82 472.688C1531.35 471.712 1528.91 471.712 1525.01 472.688C1500.59 479.037 1475.69 484.408 1451.76 488.803C1443.46 490.268 1440.53 493.198 1439.55 501.987C1436.62 519.078 1433.2 536.658 1429.78 553.749C1428.32 560.585 1426.86 567.91 1425.88 574.746C1425.88 575.723 1424.9 576.699 1423.93 576.699L1319.91 599.65C1318.94 599.65 1318.45 599.65 1317.47 599.162C1316.5 598.674 1316.5 597.697 1316.98 596.72L1320.89 576.699C1323.33 564.003 1325.77 551.307 1328.22 538.611C1341.4 470.247 1354.58 401.883 1367.77 333.03C1373.63 303.243 1379.49 273.944 1385.35 244.157L1259.85 130.38C1265.22 140.635 1268.64 151.866 1270.11 164.074C1272.55 183.118 1274.01 202.162 1274.01 219.742C1274.5 294.942 1274.5 377.467 1274.01 471.224C1274.01 505.406 1266.69 534.704 1251.55 561.562C1232.99 594.767 1203.7 618.206 1161.7 632.856C1151.45 636.762 1141.68 639.204 1132.89 641.157C1095.78 649.458 1059.15 657.271 1021.55 665.573L985.419 673.386C984.93 673.386 983.954 673.386 983.465 672.897C982.977 672.409 982.489 671.921 982.489 670.944V203.139L921.45 146.983V224.136C921.45 232.926 918.031 236.833 909.242 238.786C891.662 242.692 874.571 246.111 856.992 250.017C835.994 254.412 814.509 259.295 793.023 263.69C785.698 265.155 783.745 267.108 783.745 273.456C783.745 273.944 783.745 273.944 783.745 273.944V322.776C783.745 323.264 783.745 323.264 783.745 323.753V326.194C783.745 329.612 784.233 331.566 784.721 332.054C785.698 332.542 787.651 332.542 791.07 332.054C812.555 327.171 834.041 322.288 855.039 317.893C862.852 315.939 871.153 314.475 878.966 312.521C880.919 312.033 882.873 311.545 884.826 311.056C887.268 310.568 889.709 310.08 892.151 309.591C892.639 309.591 893.616 309.591 894.104 310.08C894.592 310.568 895.081 311.056 895.081 312.033C895.081 312.033 895.081 370.142 895.081 392.605C895.081 401.883 891.662 405.789 882.384 407.743C867.247 410.673 852.109 414.091 836.971 417.509C821.833 420.927 806.207 424.345 791.07 427.275C784.721 428.74 783.256 430.693 783.256 437.042C783.745 481.478 783.745 569.375 783.256 616.741C783.256 620.159 783.745 621.624 784.233 622.113C785.21 623.089 789.116 622.113 790.581 622.113C818.415 615.765 846.737 609.417 874.083 603.557L904.359 596.72C906.312 596.232 908.265 595.744 910.218 595.255C912.66 594.767 915.101 594.279 917.543 593.79C918.031 593.79 919.008 593.79 919.496 594.279C919.985 594.767 920.473 595.255 920.473 596.232C920.473 657.76 920.473 671.432 920.473 674.851C920.473 686.082 916.566 689.012 905.335 691.453C903.382 691.942 857.48 701.708 804.254 713.428L675.827 741.261C674.851 741.261 674.362 741.261 673.874 740.773C673.386 740.285 672.897 739.797 672.897 738.82V270.038L611.858 214.37V292.012C611.858 300.802 608.44 304.708 599.65 306.662C582.071 310.568 564.492 313.986 546.912 317.893C525.915 322.288 504.429 327.171 483.431 331.566C476.107 333.031 474.153 334.984 474.153 341.332C474.153 341.82 474.153 341.82 474.153 341.82V390.652C474.153 391.14 474.153 391.14 474.153 391.628V394.07C474.153 397.488 474.642 399.441 475.13 399.93C476.107 400.418 478.06 400.418 481.478 399.93C502.964 395.046 524.938 390.163 545.936 385.768C553.749 383.815 561.562 382.35 569.863 380.397C571.816 379.909 573.77 379.42 575.723 378.932C578.164 378.444 580.606 377.955 583.048 377.467C583.536 377.467 584.513 377.467 585.001 377.955C585.489 378.444 585.977 378.932 585.977 379.909C585.977 379.909 585.977 438.018 585.977 460.481C585.977 469.759 582.559 473.665 573.281 475.618C558.143 478.548 542.517 481.966 527.868 485.385C512.73 488.803 497.104 492.221 481.966 495.151C475.618 496.616 474.153 498.569 474.153 504.917C474.642 549.354 474.642 637.25 474.153 684.617C474.153 688.035 474.642 689.5 475.13 689.988C476.107 690.965 480.013 689.988 481.478 689.988C509.312 683.64 537.634 677.781 564.492 671.432L595.255 664.596C597.209 664.108 599.162 663.619 601.115 663.131C603.557 662.643 605.998 662.154 608.44 661.666C608.928 661.666 609.905 661.666 610.393 662.155C610.881 662.643 611.37 663.131 611.37 664.108C611.37 725.635 611.37 739.308 611.37 742.726C611.37 753.958 607.463 756.888 596.232 759.329C594.279 759.817 545.936 770.072 490.268 782.28L366.724 809.137C365.748 809.137 365.259 809.137 364.771 808.649C364.283 808.161 363.794 807.672 363.794 806.696V428.252L352.563 417.997C331.077 398.953 293.477 365.259 271.991 345.727C276.874 354.516 280.293 365.259 282.246 376.49C290.059 419.462 289.571 459.016 280.293 497.104C273.456 526.891 258.318 552.772 235.856 574.258C228.043 581.583 227.066 585.977 229.996 594.279C250.994 650.923 271.503 708.056 291.524 763.724L309.103 812.555C309.591 813.532 309.591 814.509 310.08 815.974L311.056 818.903C311.056 819.392 311.056 820.368 311.056 820.857C310.568 821.345 310.08 821.833 309.591 821.833L289.082 826.228C259.783 832.576 232.438 838.924 204.604 844.296C200.697 845.272 196.302 842.831 194.349 836.971C183.118 799.371 171.398 761.282 160.655 724.17L150.889 690.965C149.424 685.105 147.471 679.245 146.006 673.386C142.588 662.643 139.658 651.412 136.24 640.669C134.287 634.809 131.357 633.832 114.754 639.204C110.847 640.669 110.847 643.11 110.847 647.993C110.847 648.97 110.847 649.458 110.847 649.947C110.847 715.869 110.359 783.745 110.847 851.132C110.847 862.363 107.429 866.758 96.198 868.712C73.7355 873.106 50.7847 878.478 28.3223 883.361C21.9742 884.826 14.6494 886.779 7.81303 888.244Z" transform="translate(308.435 1.2981)" fill="black"></path> <path d="M2.5686 5.01017C1.59197 5.01017 0.61534 4.03354 0.127025 3.05691C-0.361289 1.59197 0.61531 0.615338 2.08025 0.127023C3.5452 -0.361291 5.01017 0.615336 5.01017 2.08028C5.49849 3.54522 4.52184 4.52185 3.54521 5.01017H3.05694C2.56863 5.01017 2.5686 5.01017 2.5686 5.01017Z" transform="translate(1223.9 139.853)" fill="black"></path> <path d="M7.32471 143.128C19.0443 140.199 31.2521 138.245 42.9717 133.851C58.5978 127.991 68.8524 115.295 69.829 98.6919C71.2939 78.1827 72.2706 58.1618 71.7823 38.1409C71.2939 11.7719 61.0393 -0.924317 41.0184 0.052312C28.3222 1.02894 14.6494 5.42379 1.46495 8.35368C0.976637 8.842 0.4883 9.3303 0.4883 9.3303C0.4883 52.302 0.976622 95.2737 -7.45109e-06 138.245C0.976622 141.664 2.92988 144.105 7.32471 143.128Z" transform="translate(416.352 404.594)" fill="#111111"></path> <path d="M6.83639 148.032C4.88313 148.032 3.41822 147.544 2.44159 146.567C0.976644 145.102 1.49022e-05 143.149 1.49022e-05 141.196C0.488329 114.827 0.488322 87.4811 0.488322 61.6004C0.488322 44.9977 0.488322 28.8833 0.488322 12.2806C0.488322 11.304 0.976622 10.3274 1.46494 9.83905L1.95324 9.35074C2.44156 8.86243 2.92989 8.37413 3.4182 8.37413C7.32472 7.3975 11.2312 6.42084 15.6261 5.44421C24.904 3.00264 34.182 0.561073 42.9717 0.0727586C51.7613 -0.415556 59.0861 1.53772 64.9458 6.42086C72.2705 12.769 76.1771 24.4885 76.1771 40.1146C76.6654 57.6939 76.1771 76.2499 74.2238 101.154C72.7589 118.733 62.5043 131.918 45.4132 138.266C36.6236 141.196 27.8339 143.149 19.5326 145.102C16.1144 146.079 12.6962 146.567 9.76631 147.544C8.30136 148.032 7.3247 148.032 6.83639 148.032ZM5.37147 13.2573C5.37147 29.3717 5.37147 45.486 5.37147 61.6004C5.37147 87.9694 5.37148 114.827 4.88316 141.196C4.88316 141.684 4.88315 142.661 5.37147 142.661C5.85978 143.149 6.83641 143.149 7.81304 142.661C11.2312 141.684 14.6494 141.196 18.0676 140.219C26.369 138.266 35.1586 136.313 43.46 133.383C58.5977 128.011 67.8757 115.803 68.8524 100.666C70.8056 76.2498 71.2939 57.2056 70.8056 40.1146C70.3173 25.4651 66.8991 15.2105 61.0393 9.83905C56.6445 5.93253 50.7847 3.97928 42.9717 4.4676C34.182 4.95591 24.904 7.39748 16.1144 9.83905C12.6962 11.304 8.78967 12.2806 5.37147 13.2573Z" transform="translate(414.887 402.132)" fill="black"></path> <path d="M70.3172 338.11C74.2238 324.926 74.7122 311.253 74.7122 298.557C75.2005 214.078 75.2005 130.088 74.7122 46.0982C74.7122 35.8436 73.2472 26.0773 70.8056 16.7994C67.8757 5.56812 59.5744 -1.26828 47.3665 0.196668C31.7405 2.14993 16.1143 6.54475 -2.98044e-05 10.4513V371.804C14.6494 368.874 27.8339 365.944 41.9951 362.526C55.1795 358.131 66.899 350.318 70.3172 338.11Z" transform="translate(1399.33 188.614)" fill="#111111"></path> <path d="M2.44157 376.686C1.95326 376.686 1.465 376.686 0.976689 376.197C0.488374 375.709 0 375.221 0 374.244V12.8914C0 11.9148 0.976599 10.9382 1.95323 10.4499C6.83637 9.47323 11.7195 8.00828 16.6027 7.03165C27.8339 4.10176 38.5769 1.6602 49.8081 0.195256C62.5043 -1.26969 72.7589 5.56671 75.6888 18.7512C78.1303 29.4941 79.5952 39.2604 79.5952 49.0267C80.0835 134.482 80.0835 217.984 79.5952 301.485C79.5952 315.158 79.1069 328.343 75.2004 342.015C71.7822 353.735 60.5509 363.013 45.4132 366.92C29.7871 370.826 16.6027 373.756 2.44157 376.686C2.44157 376.686 2.92989 376.686 2.44157 376.686ZM4.88315 14.8447V370.826C17.5793 368.384 29.7872 365.455 43.9483 362.036C57.1328 358.618 67.3874 350.317 70.3173 340.551C74.2238 327.854 74.2237 314.67 74.7121 301.485C75.2004 217.984 75.2004 134.482 74.7121 49.0267C74.7121 39.7487 73.2472 30.4707 70.8056 20.2161C68.364 9.47322 60.5509 4.10177 50.2963 5.56671C39.5534 7.03165 28.8106 9.47322 17.5794 11.9148C13.1845 12.8914 9.27798 13.8681 4.88315 14.8447Z" transform="translate(1397.38 185.198)" fill="black"></path> <path d="M38.0886 -7.45109e-06C37.112 0.488307 35.647 0.976625 34.6703 0.976625C22.9508 70.8056 11.7195 140.146 -2.98044e-05 210.952C25.8806 205.092 49.3198 200.209 74.2238 194.837C62.5043 128.915 51.2731 63.9692 38.0886 -7.45109e-06Z" transform="translate(1758.24 187.346)" fill="#111111"></path> <path d="M2.15549 215.347C1.66718 215.347 0.690611 215.347 0.690611 214.858C0.202296 214.37 -0.286048 213.393 0.202267 212.905L34.8726 2.92988C34.8726 1.95325 35.8492 1.46495 36.3375 0.976636L39.7558 3.72554e-06C40.2441 3.72554e-06 41.2207 3.72554e-06 41.709 3.72554e-06C42.1973 0.488318 42.6857 0.976629 42.6857 1.46494C51.4754 45.9016 59.7766 91.3148 68.078 135.263C71.9845 155.772 75.4028 175.793 79.3093 196.302C79.3093 197.767 78.8208 198.744 77.3559 199.232L2.64384 215.347C2.64384 215.347 2.64381 215.347 2.15549 215.347ZM38.7791 6.8364L5.08541 209.975L73.9378 194.837C70.5196 175.305 66.613 155.772 63.1948 136.24C55.3818 93.2681 47.5687 49.3198 38.7791 6.8364Z" transform="translate(1756.09 185.393)" fill="black"></path> <path d="M237.809 680.711C237.321 606.487 237.809 489.291 237.321 415.067C237.321 406.766 239.274 403.348 248.064 401.883C266.62 397.976 287.617 394.07 306.662 390.163V59.0861L241.716 7.45109e-06V22.9508C241.716 42.9717 241.716 62.5043 241.716 83.5018C241.716 91.3148 239.274 94.2447 231.949 95.7097C193.861 104.011 155.284 112.312 117.195 120.614C113.777 121.59 110.359 122.079 105.476 123.055V140.635C105.476 155.284 105.964 169.933 105.476 184.583C104.988 192.396 107.429 194.838 115.731 192.884C146.006 185.56 176.77 179.7 207.045 172.375C212.905 170.91 215.835 171.887 216.812 175.793V255.388C215.835 259.783 213.393 261.737 207.534 263.202C177.258 269.55 146.494 276.874 116.219 282.734C107.429 284.687 105.476 287.617 105.476 295.919C105.964 370.142 105.476 487.338 105.964 561.562C105.964 571.816 103.034 575.723 92.7798 577.676C62.0159 583.536 31.2521 590.861 -5.82117e-08 597.697L130.868 715.381C192.396 702.196 194.349 702.196 225.601 695.848C234.879 694.383 237.809 691.453 237.809 680.711Z" transform="translate(4.21497 357.279)" fill="#111111"></path> <path d="M133.31 721.443C132.822 721.443 132.333 721.443 131.845 720.955L0.976629 603.271C0 602.782 0 601.806 0 600.829C0 599.853 0.976629 599.364 1.95326 598.876C10.7429 596.923 19.5326 594.969 28.3222 593.016C50.2964 588.133 72.7589 583.25 94.733 578.855C104.011 576.902 105.964 574.46 105.964 565.182C105.476 523.675 105.476 468.984 105.476 415.758C105.476 373.275 105.476 332.256 105.476 299.539C105.476 289.773 108.894 285.866 118.172 283.913C134.775 280.495 152.354 276.588 168.469 273.17C182.141 270.24 195.814 267.31 209.487 264.38C214.858 263.404 216.323 261.451 216.812 258.521V179.414C216.323 178.437 215.835 177.949 215.835 177.949C214.858 177.46 212.905 177.46 209.975 177.949C195.814 181.367 181.653 184.297 167.98 187.227C151.866 190.645 135.263 194.551 118.66 198.458C115.242 199.435 110.847 199.923 108.406 197.481C105.476 195.04 105.476 191.133 105.476 187.715C105.964 177.46 105.964 166.718 105.476 156.463C105.476 152.068 105.476 147.673 105.476 143.278V125.699C105.476 124.722 106.453 123.746 107.429 123.258L150.401 113.98C178.235 107.631 206.069 101.772 234.391 95.9119C240.739 94.447 242.204 92.4937 242.204 86.1456V65.6364C242.204 52.4519 242.204 39.7557 242.204 26.0829V25.5946V2.64385C242.204 1.66722 242.692 0.690596 243.669 0.202281C244.646 -0.286033 245.622 0.202274 246.111 0.690589L311.056 59.7766C311.545 60.265 312.033 60.7533 312.033 61.7299V392.807C312.033 393.784 311.056 394.76 310.08 395.249C297.384 398.179 283.711 400.62 270.526 403.062C264.178 404.527 257.83 405.503 251.482 406.968C243.669 408.433 242.692 410.875 242.692 417.711C242.692 450.917 242.692 491.935 242.692 534.418C242.692 587.156 242.692 641.848 243.181 683.354C243.181 695.074 239.762 698.98 228.043 701.422C217.788 703.375 210.952 704.84 204.115 706.305C189.954 709.235 175.305 712.165 133.31 720.955C133.798 721.443 133.31 721.443 133.31 721.443ZM7.81303 602.782L134.286 716.56C174.817 707.77 189.466 704.84 203.627 701.91C210.464 700.445 217.788 698.98 227.555 697.027C236.833 695.074 238.786 692.632 238.786 683.843C238.297 642.824 238.297 588.133 238.297 534.907C238.297 492.423 238.297 450.917 238.297 418.2C238.297 408.433 241.716 404.527 250.994 402.573C256.853 401.109 263.69 400.132 270.038 398.667C282.734 396.225 295.43 393.784 307.638 390.854V63.1948L247.575 8.50361V25.5946V26.0829C247.575 39.2674 247.575 52.4519 247.575 65.6364V86.1456C247.575 94.9353 244.646 98.8418 235.856 100.795C208.022 106.655 180.188 113.003 151.866 118.863L110.847 127.652V143.278C110.847 147.673 110.847 152.068 110.847 155.975C110.847 166.229 110.847 176.972 110.847 187.227C110.847 190.645 110.847 192.598 111.824 193.087C112.312 193.575 113.777 194.063 118.172 193.087C134.775 189.18 151.377 185.762 167.492 181.855C181.653 178.925 195.326 175.995 209.487 172.577C212.905 171.601 216.323 171.112 219.253 173.066C220.718 174.042 221.695 175.507 222.183 177.949V258.032C220.718 264.869 215.835 266.822 210.952 267.799C197.279 270.729 183.606 273.658 169.933 276.588C153.331 280.006 136.24 283.913 119.149 287.331C111.336 288.796 110.359 291.238 110.359 298.074C110.359 330.791 110.359 372.298 110.359 414.293C110.359 467.519 110.359 522.211 110.847 563.717C110.847 575.437 107.429 579.832 95.7096 582.273C73.7355 586.668 51.273 591.551 29.2989 596.434C21.9742 599.853 14.6494 601.317 7.81303 602.782Z" transform="translate(0.796692 354.147)" fill="black"></path> <path d="M7.62939e-07 1.49022e-05V0.488322V1.49022e-05Z" transform="translate(245.931 356.791)" fill="#111111"></path> <path d="M2.57146 5.01304C1.59483 5.01304 0.618203 4.52472 0.129889 3.05977C-0.358426 2.08314 0.6182 0.618207 1.59483 0.129892C1.59483 0.129892 1.59482 0.129892 2.08314 0.129892C3.54808 -0.358422 4.52472 0.618185 5.01303 1.59481C5.50135 3.05976 4.52472 4.03642 3.54809 4.52473C2.57147 4.52473 2.57146 5.01304 2.57146 5.01304Z" transform="translate(243.359 354.708)" fill="black"></path> <path d="M2.44157 146.006C0.976629 146.006 0 145.029 0 143.564V2.9299C0 1.95327 0.976636 0.976644 1.95327 0.488329L5.37145 -1.49022e-05C5.85977 -1.49022e-05 6.8364 1.48803e-05 7.32472 0.488329C7.81303 0.976644 8.30133 1.46493 8.30133 2.44156L4.88315 143.564C4.88315 145.029 3.90652 146.006 2.44157 146.006Z" transform="translate(308.435 744.513)" fill="black"></path> <path d="M2.4416 4.88314C1.95329 4.88314 1.46496 4.88314 0.976644 4.39483C0.488329 3.90651 2.98044e-05 2.92988 2.98044e-05 1.95325C2.98044e-05 0.976625 0.976599 0.488313 1.46491 -1.86277e-06C1.95323 -1.86277e-06 2.9299 0 3.41822 0.488315C3.90653 0.976629 4.39483 1.46494 4.39483 2.44157V2.92989C4.39483 3.90652 3.9065 4.88315 2.92987 5.37146C2.92987 4.88315 2.4416 4.88314 2.4416 4.88314ZM2.4416 2.44157L2.92987 4.39483L2.4416 2.44157Z" transform="translate(1224.51 139.979)" fill="black"></path> <path d="M2.15555 601.115C1.66724 601.115 0.690521 601.115 0.690521 600.627C0.202207 600.139 -0.285988 599.162 0.202326 598.185L4.10878 578.164C6.55036 565.468 8.99193 552.772 11.4335 540.076C24.618 471.712 37.8025 403.348 50.987 334.495C56.8468 304.22 62.7066 274.433 68.5664 244.157L69.5429 239.274C74.9144 210.952 80.7741 183.118 86.1456 154.796C92.4937 122.567 100.795 80.0836 108.608 37.6002C110.073 29.2989 113.98 25.3924 121.793 23.9274C152.068 17.5793 182.344 10.7429 212.131 4.39483L227.757 0.976629C230.198 0.488315 232.152 -7.27648e-09 234.105 -7.27648e-09C238.011 0.488315 240.453 2.92989 241.43 7.81303C257.544 86.92 274.147 166.515 290.261 244.157L292.214 253.924C297.098 276.874 301.981 300.313 306.864 323.264C311.259 344.75 316.142 366.236 320.537 387.233C349.347 523.961 349.347 523.961 347.882 524.938C347.394 525.426 346.906 525.426 346.906 525.426L236.547 549.354C236.058 549.354 235.082 549.354 234.593 548.866C234.105 548.377 233.617 547.889 233.617 547.401C232.152 541.052 230.687 534.704 229.71 528.356C226.292 512.73 222.874 496.616 219.944 480.013C219.456 476.107 218.479 474.153 217.014 473.177C215.549 472.2 213.107 472.2 209.201 473.177C184.785 479.525 159.881 484.896 135.954 489.291C127.652 490.756 124.722 493.686 123.746 502.476C120.816 519.567 117.398 537.146 113.98 554.237C112.515 561.073 111.05 568.398 110.073 575.234C110.073 576.211 109.096 577.188 108.12 577.188L4.10878 600.139C2.64384 601.115 2.15555 601.115 2.15555 601.115ZM232.152 5.37146C231.175 5.37146 229.222 5.85977 227.757 5.85977L212.131 9.27798C182.344 15.6261 152.068 22.4625 121.793 28.8106C115.445 30.2755 113.491 32.2288 112.026 39.0652C104.213 81.5485 95.9119 124.032 89.5638 156.261C84.1924 184.583 78.8209 212.417 72.9612 240.739L71.9845 245.622C66.1247 275.898 60.2649 305.685 54.4051 335.96C41.2206 404.324 28.0363 472.688 14.8518 541.541C12.4102 554.237 9.96862 566.933 7.52704 579.629L4.59713 596.232L103.725 574.746C105.19 568.398 106.167 561.562 107.632 555.214C111.05 538.123 114.468 520.543 117.398 503.452C119.351 492.709 123.258 488.315 134 486.361C157.928 481.966 182.344 476.595 206.759 470.247C212.131 468.782 215.549 469.27 218.479 470.735C221.897 472.688 222.874 477.083 223.362 480.99C226.292 497.104 229.71 513.219 233.128 528.845C234.105 534.216 235.57 540.076 236.547 545.447L342.023 522.497C339.093 507.847 322.978 429.228 314.189 389.187C309.794 367.701 305.399 346.215 300.516 325.217C295.633 302.267 290.749 278.828 285.866 255.877L283.913 246.111C267.799 168.469 251.196 88.8732 235.082 9.76629C235.082 5.37146 233.617 5.37146 232.152 5.37146C232.64 5.37146 232.64 5.37146 232.152 5.37146ZM133.024 399.93C132.535 399.93 131.559 399.93 131.559 399.441C131.071 398.953 130.582 397.976 131.071 397.488L165.741 187.513C165.741 186.536 166.718 186.048 167.206 185.56L170.624 184.583C171.112 184.583 172.089 184.583 172.577 184.583C173.066 185.071 173.554 185.56 173.554 186.048C182.344 230.484 190.645 275.898 198.946 319.846C202.853 340.355 206.271 360.376 210.178 380.885C210.178 382.35 209.689 383.327 208.224 383.815L133.512 399.93C133.512 399.93 133.512 399.93 133.024 399.93ZM169.647 191.419L135.954 394.558L204.806 379.42C201.388 359.888 197.481 340.355 194.063 320.823C186.25 277.851 178.437 233.903 169.647 191.419Z" transform="translate(1625.22 0.809875)" fill="black"></path> <path d="M2.44157 587.935C1.95326 587.935 1.46495 587.935 0.976633 587.447C0.488318 586.958 0 586.47 0 585.493V39.5577C0 38.5811 0.976637 37.6044 1.95327 37.1161L4.88315 36.1395C7.32472 35.6512 9.27798 34.6745 11.7196 34.1862C24.4157 31.2563 37.1119 28.8148 49.8081 25.8849C82.5251 18.5601 116.219 11.2354 149.424 4.39902C184.095 -2.9257 212.417 -0.97244 235.856 9.28216C243.669 12.7004 250.505 17.5835 256.853 23.4433C270.526 36.1395 279.804 53.7188 283.711 75.6929C291.524 118.665 291.035 158.218 281.757 196.307C274.921 226.094 259.783 251.974 237.321 273.46C229.508 280.785 228.531 285.18 231.461 293.481C252.459 350.126 272.968 407.259 292.989 462.926L310.568 511.758C311.056 512.734 311.056 513.711 311.545 515.176L312.521 518.106C312.521 518.594 312.521 519.571 312.521 520.059C312.033 520.547 311.545 521.036 311.056 521.036L290.547 525.431C261.248 531.779 233.903 538.127 206.069 543.498C202.162 544.475 197.767 542.033 195.814 536.174C184.583 498.573 172.863 460.485 162.12 423.373L152.354 390.168C150.889 384.308 148.936 378.448 147.471 372.588C144.053 361.845 141.123 350.614 137.705 339.871C135.751 334.011 132.822 333.035 116.219 338.406C112.312 339.871 112.312 342.313 112.312 347.196C112.312 348.172 112.312 348.661 112.312 349.149C112.312 415.072 111.824 482.947 112.312 550.335C112.312 561.566 108.894 565.961 97.6629 567.914C75.2004 572.309 52.2496 577.68 29.7872 582.563C20.9975 584.517 12.2079 586.47 3.41821 588.423C2.92989 587.935 2.44157 587.935 2.44157 587.935ZM4.88315 41.5109V582.563C12.6962 581.098 20.5092 579.145 27.8339 577.68C50.2964 572.797 73.2472 567.426 95.7096 563.031C104.499 561.078 106.453 559.124 106.453 549.846C105.964 482.459 105.964 414.583 106.453 348.661C106.453 348.172 106.453 347.196 106.453 346.707C106.453 342.313 105.964 335.476 113.777 333.035C127.938 328.64 138.193 326.687 141.611 337.918C145.029 348.661 147.959 359.892 151.378 370.635C152.842 376.495 154.796 382.354 156.261 388.214L166.027 421.42C176.77 458.532 188.001 496.62 199.721 534.22C200.697 537.639 202.651 538.615 204.604 538.615C232.438 532.755 260.272 526.896 289.082 520.547L307.15 516.641V516.153C306.662 514.688 306.662 513.711 306.173 513.223L288.594 464.391C268.573 408.723 247.575 351.102 227.066 294.946C223.16 285.18 225.113 278.832 234.391 270.042C255.877 249.045 270.526 224.141 277.363 195.33C286.152 157.73 287.129 119.153 279.316 76.6696C275.409 55.6721 267.108 39.0694 253.924 27.3498C248.064 21.9784 241.716 17.5835 234.391 14.1653C212.417 3.91071 185.071 2.44576 151.378 9.28216C116.707 16.1186 83.0135 23.9316 50.2964 31.2563C37.6002 34.1862 24.904 36.6278 12.2079 39.5577C10.2546 40.046 7.81302 40.5343 5.85976 41.5109H4.88315ZM113.289 247.58C111.336 247.58 109.871 247.091 108.894 246.115C107.429 244.65 106.453 242.697 106.453 240.743C106.941 214.374 106.941 187.029 106.941 161.148C106.941 144.545 106.941 128.431 106.941 111.828C106.941 110.852 107.429 109.875 107.918 109.387L108.406 108.898C108.894 108.41 109.382 107.922 109.871 107.922C113.777 106.945 117.684 105.968 122.079 104.992C131.357 102.55 140.635 100.109 149.424 99.6204C158.214 99.132 165.539 101.085 171.398 105.968C178.723 112.317 182.63 124.036 182.63 139.662C183.118 157.241 182.63 175.797 180.676 200.701C179.211 218.281 168.957 231.465 151.866 237.813C143.076 240.743 134.287 242.697 125.985 244.65C122.567 245.626 119.149 246.115 116.219 247.091C114.754 247.58 113.777 247.58 113.289 247.58ZM111.824 112.805C111.824 128.919 111.824 145.034 111.824 161.148C111.824 187.517 111.824 214.374 111.336 240.743C111.336 241.232 111.336 242.208 111.824 242.208C112.312 242.697 113.289 242.697 114.266 242.208C117.684 241.232 121.102 240.743 124.52 239.767C132.822 237.813 141.611 235.86 149.913 232.93C165.05 227.559 174.328 215.351 175.305 200.213C177.258 175.797 177.747 156.753 177.258 139.662C176.77 125.013 173.352 114.758 167.492 109.387C163.097 105.48 157.237 103.527 149.424 104.015C140.635 104.504 131.357 106.945 122.567 109.387C119.149 110.852 115.242 111.828 111.824 112.805Z" transform="translate(308.435 302.584)" fill="black"></path> <path d="M2.4416 588.005C1.95329 588.005 1.46488 588.005 0.976569 587.517C0.488255 587.028 2.98044e-05 586.54 2.98044e-05 585.563V39.1394C2.98044e-05 38.1628 0.976629 37.1862 1.95326 36.6978C16.1144 33.768 29.7872 30.3498 43.46 27.4199C77.642 19.6068 113.289 11.7938 148.448 4.9574C166.027 1.5392 183.606 -0.414056 200.697 0.0742581C226.09 0.562573 248.064 9.84055 263.69 26.4432C276.386 40.116 284.687 58.1837 287.617 78.6929C290.059 97.7372 291.524 116.781 291.524 134.361C292.012 209.561 292.012 292.086 291.524 385.843C291.524 420.025 284.199 449.324 269.061 476.181C250.505 509.386 221.206 532.825 179.211 547.475C168.957 551.381 159.191 553.823 150.401 555.776C113.289 564.078 76.6654 571.891 39.0652 580.192L2.92995 588.005C2.92995 588.005 2.4416 588.005 2.4416 588.005ZM4.88317 41.0927V582.633L38.0885 575.309C75.2004 567.007 112.312 559.194 149.424 550.893C158.214 548.94 167.492 546.01 177.746 542.592C218.277 528.431 246.599 505.48 264.666 473.739C279.316 447.859 286.152 419.048 286.152 385.843C286.641 292.086 286.641 209.561 286.152 134.361C286.152 116.781 284.687 98.2255 282.246 79.1812C279.804 59.6486 271.991 42.5576 259.783 29.8614C244.646 14.2354 224.136 5.44572 200.209 4.9574C183.606 4.46909 166.515 6.42235 148.936 9.84055C114.266 16.677 78.6187 24.49 44.4367 32.303C31.2522 35.2329 18.0677 38.1628 4.88317 41.0927ZM109.382 474.228C108.894 474.228 108.406 474.228 107.918 473.739C107.429 473.251 106.941 472.763 106.941 471.786V110.433C106.941 109.457 107.917 108.48 108.894 107.992C113.777 107.015 118.66 105.55 123.544 104.574C134.775 101.644 145.518 99.2021 156.749 97.7372C169.445 96.2722 179.7 103.109 182.63 116.293C185.071 127.036 186.536 136.802 186.536 146.569C187.024 232.024 187.024 315.525 186.536 399.027C186.536 412.7 186.048 425.885 182.141 439.557C178.723 451.277 167.492 460.555 152.354 464.461C136.728 468.368 123.544 471.298 109.382 474.228C109.382 474.228 109.871 474.228 109.382 474.228ZM111.824 112.387V468.368C124.52 465.926 136.728 462.996 150.889 459.578C164.074 456.16 174.328 447.859 177.258 438.092C181.165 425.396 181.165 412.212 181.653 399.027C182.141 315.525 182.141 232.024 181.653 146.569C181.653 137.291 180.188 128.013 177.746 117.758C175.305 107.015 167.492 101.644 157.237 103.109C146.494 104.574 135.751 107.015 124.52 109.457C120.125 110.433 116.219 111.41 111.824 112.387Z" transform="translate(1290.44 87.6556)" fill="black"></path> <path d="M2.44157 603.557C1.95326 603.557 1.46494 603.557 0.976629 603.068C0.488315 602.58 0 602.092 0 601.115V55.1795C0 54.2029 0.976629 53.2263 1.95326 52.738C42.4834 43.9483 82.5252 35.1587 123.055 26.369C163.585 17.5793 203.627 8.78967 244.157 7.45109e-06C244.646 7.45109e-06 245.622 0 246.111 0.488315C246.599 0.976629 247.087 1.46495 247.087 2.44158V24.904V25.3923C247.087 38.5768 247.087 51.7613 247.087 64.9458V85.4551C247.087 94.2447 244.157 98.1512 235.368 100.104C207.534 105.964 179.7 112.312 151.378 118.172L110.359 126.962C110.359 136.24 110.847 174.328 110.359 187.024C110.359 190.443 110.359 192.396 111.336 192.884C111.824 193.373 113.289 193.861 117.684 192.884C134.286 188.978 150.889 185.56 167.004 181.653C181.165 178.723 194.837 175.793 208.999 172.375C212.417 171.398 215.835 170.91 218.765 172.863C220.23 173.84 221.206 175.305 221.695 177.746V257.83C220.23 264.666 215.347 266.62 210.464 267.596C196.791 270.526 183.118 273.456 169.445 276.386C152.842 279.804 135.751 283.711 118.66 287.129C110.847 288.594 109.871 291.035 109.871 297.872C109.871 330.589 109.871 372.096 109.871 414.091C109.871 467.317 109.871 522.008 110.359 563.515C110.359 575.235 106.941 579.629 95.2213 582.071C73.2472 586.466 50.7847 591.349 28.8106 596.232C20.0209 598.185 11.2312 600.139 2.44157 602.092C2.92989 603.557 2.44157 603.557 2.44157 603.557ZM4.88315 57.1328V598.185C12.6962 596.232 20.5092 594.767 28.3222 592.814C50.2964 587.931 72.7589 583.048 94.733 578.653C104.011 576.699 105.964 574.258 105.964 564.98C105.476 523.473 105.476 468.782 105.476 415.556C105.476 373.072 105.476 332.054 105.476 299.337C105.476 289.57 108.894 285.664 118.172 283.711C134.775 280.293 152.354 276.386 168.469 272.968C182.141 270.038 195.814 267.108 209.487 264.178C214.858 263.202 216.323 261.248 216.812 258.318V179.211C216.323 178.235 215.835 177.746 215.835 177.746C214.858 177.258 212.905 177.258 209.975 177.746C195.814 181.165 181.653 184.095 167.98 187.024C151.866 190.443 135.263 194.349 118.66 198.256C115.242 199.232 110.847 199.721 108.406 197.279C105.476 194.838 105.476 190.931 105.476 187.513C105.964 172.863 105.476 125.985 105.476 125.497C105.476 124.52 106.453 123.544 107.429 123.055L150.401 113.777C178.235 107.429 206.069 101.569 234.391 95.7097C240.739 94.2447 242.204 92.2914 242.204 85.9434V65.4342C242.204 52.2497 242.204 39.5535 242.204 25.8807V25.3923V5.37146C202.651 14.1611 163.097 22.4625 124.032 31.2521C84.4784 39.5535 44.4366 48.3431 4.88315 57.1328Z" transform="translate(0.796692 354.838)" fill="black"></path> <path d="M2.44156 603.068C1.95324 603.068 1.46491 603.068 0.976599 602.58C0.488285 602.092 -1.49022e-05 601.603 -1.49022e-05 600.627V55.1795C-1.49022e-05 54.2029 0.976659 53.2263 1.95329 52.738C41.5068 43.9483 81.5486 35.1586 121.59 26.8573C162.609 18.0676 203.627 9.27798 244.157 3.72554e-06C244.646 3.72554e-06 245.622 -3.74737e-06 246.111 0.488311C246.599 0.976625 247.087 1.95326 247.087 2.44158V85.455C247.087 94.2447 243.669 98.1512 234.879 100.104C217.3 104.011 199.721 107.429 182.141 111.336C161.144 115.731 139.658 120.614 118.66 125.009C111.336 126.473 109.382 128.427 109.382 134.775C109.382 135.263 109.382 135.263 109.382 135.263V184.095C109.382 184.583 109.382 184.583 109.382 185.071V187.513C109.382 190.931 109.871 192.884 110.359 193.373C111.336 193.861 113.289 193.861 116.707 193.373C138.193 188.489 160.167 183.606 181.165 179.211C188.978 177.258 196.791 175.793 205.092 173.84C207.045 173.352 208.999 172.863 210.952 172.375C213.393 171.887 215.835 171.398 218.277 170.91C218.765 170.91 219.742 170.91 220.23 171.398C220.718 171.887 221.206 172.375 221.206 173.352C221.206 173.352 221.206 231.461 221.206 253.924C221.206 263.202 217.788 267.108 208.51 269.061C193.373 271.991 177.747 275.409 163.097 278.828C147.959 282.246 132.333 285.664 117.195 288.594C110.847 290.059 109.382 292.012 109.382 298.36C109.871 342.797 109.871 430.693 109.382 478.06C109.382 481.478 109.871 482.943 110.359 483.431C111.336 484.408 115.242 483.431 116.707 483.431C144.541 477.083 172.863 471.223 199.721 464.875L230.484 458.039C232.438 457.551 234.391 457.062 236.344 456.574C238.786 456.086 241.227 455.597 243.669 455.109C244.157 455.109 245.134 455.109 245.622 455.597C246.111 456.086 246.599 456.574 246.599 457.551C246.599 519.078 246.599 532.751 246.599 536.169C246.599 547.401 242.692 550.33 231.461 552.772C229.508 553.26 181.165 563.515 125.497 575.723L1.95329 602.58C2.4416 603.068 2.44156 603.068 2.44156 603.068ZM4.88313 57.1328V597.209L125.497 570.84C181.165 558.632 229.508 548.377 231.461 547.889C241.227 545.447 242.692 543.982 242.692 536.169C242.692 534.704 242.692 487.826 242.692 460.481C241.227 460.969 239.762 460.969 238.297 461.457C236.344 461.946 234.391 462.434 232.438 462.922L201.674 469.759C174.328 475.618 146.006 481.966 118.66 488.315C114.754 489.291 110.847 489.779 108.406 487.338C105.964 485.385 105.476 481.478 105.476 478.548C105.964 431.182 105.964 343.285 105.476 298.848C105.476 290.059 108.406 286.152 117.195 284.199C132.333 281.269 147.959 277.851 163.097 274.433C178.235 271.015 193.373 267.596 208.51 264.666C215.347 263.202 217.3 261.248 217.3 254.412C217.3 234.879 217.3 188.978 217.3 176.77C215.835 177.258 214.37 177.258 212.905 177.746C210.952 178.235 208.51 178.723 207.045 179.211C199.232 181.165 191.419 182.63 183.118 184.583C162.12 188.978 140.146 193.861 118.66 198.744C115.242 199.721 110.847 200.209 107.918 197.767C104.988 195.326 104.988 191.419 104.988 188.001V186.536C104.988 186.048 104.988 186.048 104.988 185.559V135.263C104.988 134.775 104.988 134.775 104.988 134.286C105.476 125.008 109.871 122.079 118.172 120.614C139.17 116.219 160.655 111.336 181.653 106.941C199.232 103.034 216.812 99.1278 234.391 95.7096C240.739 94.2447 242.692 92.2914 242.692 85.9433V5.85978C202.65 14.6494 162.609 23.4391 123.055 31.7404C83.0134 40.0418 43.9483 48.8315 4.88313 57.1328Z" transform="translate(673.206 207.367)" fill="black"></path> <path d="M2.44154 602.58C1.95323 602.58 1.46497 602.58 0.976659 602.092C0.488344 601.603 -2.98044e-05 601.115 -2.98044e-05 600.139V55.1795C-2.98044e-05 54.2029 0.976644 53.2263 1.95327 52.738C41.9951 43.9483 82.5252 35.1586 123.055 26.369C163.585 17.5793 203.627 8.78966 244.157 -1.86277e-06C245.134 -1.86277e-06 246.11 0 246.599 0.488315C247.087 0.976629 247.575 1.95326 247.575 2.44157V85.4551C247.575 94.2447 244.157 98.1512 235.368 100.104C217.788 104.011 200.697 107.429 183.118 111.336C162.12 115.731 140.635 120.614 119.149 125.009C111.824 126.473 109.871 128.427 109.871 134.775C109.871 135.263 109.871 135.263 109.871 135.263V184.095C109.871 184.583 109.871 184.583 109.871 185.071V187.513C109.871 190.931 110.359 192.884 110.847 193.373C111.824 193.861 113.777 193.861 117.195 193.373C138.681 188.489 160.167 183.606 181.165 179.211C188.978 177.258 197.279 175.793 205.092 173.84C207.045 173.352 208.999 172.863 210.952 172.375C213.393 171.887 215.835 171.398 218.277 170.91C218.765 170.91 219.742 170.91 220.23 171.398C220.718 171.887 221.206 172.375 221.206 173.352C221.206 173.352 221.206 231.461 221.206 253.924C221.206 263.202 217.788 267.108 208.51 269.061C193.373 271.991 178.235 275.409 163.097 278.828C147.959 282.246 132.333 285.664 117.195 288.594C110.847 290.059 109.382 292.012 109.382 298.36C109.871 342.797 109.871 430.693 109.382 478.06C109.382 481.478 109.871 482.943 110.359 483.431C111.336 484.408 115.242 483.431 116.707 483.431C144.541 477.083 172.863 470.735 200.209 464.875L230.484 458.039C232.438 457.551 234.391 457.062 236.344 456.574C238.786 456.086 241.227 455.597 243.669 455.109C244.157 455.109 245.134 455.109 245.622 455.597C246.111 456.086 246.599 456.574 246.599 457.551C246.599 519.078 246.599 532.751 246.599 536.169C246.599 547.401 242.692 550.33 231.461 552.772C229.508 553.26 183.606 563.027 130.38 574.746L1.95327 602.58C2.9299 602.58 2.44154 602.58 2.44154 602.58ZM4.88312 57.1328V597.209L130.38 569.863C183.606 558.144 229.508 548.377 231.461 547.889C241.227 545.447 242.692 543.982 242.692 536.169C242.692 534.704 242.692 487.826 242.692 460.481C241.227 460.969 239.762 460.969 238.297 461.457C236.344 461.946 234.391 462.434 232.438 462.922L202.162 469.759C174.817 475.618 146.494 481.966 118.66 488.314C114.754 489.291 110.847 489.779 108.406 487.338C105.964 485.385 105.476 481.478 105.476 478.548C105.964 431.182 105.964 343.285 105.476 298.848C105.476 290.059 108.406 286.152 117.195 284.199C132.333 281.269 147.959 277.851 163.097 274.433C177.746 271.015 193.373 267.596 208.51 264.666C215.347 263.202 217.3 261.248 217.3 254.412C217.3 234.879 217.3 188.978 217.3 176.77C215.835 177.258 214.37 177.258 213.393 177.746C211.44 178.235 208.999 178.723 207.534 179.211C199.721 181.165 191.419 182.63 183.606 184.583C162.609 188.978 140.635 193.861 119.637 198.744C116.219 199.721 111.824 200.209 108.894 197.767C105.964 195.326 105.964 191.419 105.964 188.001V186.536C105.964 186.536 105.964 186.048 105.964 185.56V134.775C105.964 134.286 105.964 134.286 105.964 133.798C106.453 124.52 110.847 121.59 119.149 120.125C140.635 115.731 162.12 110.847 183.118 106.453C200.697 102.546 217.788 98.6395 235.368 95.2213C241.716 93.7564 243.669 91.8031 243.669 85.4551V5.37146C204.115 14.1611 164.562 22.4625 125.009 31.2521C83.9901 39.5535 44.4366 48.3431 4.88312 57.1328Z" transform="translate(981.821 139.979)" fill="black"></path> </svg> 