<?xml version="1.0" encoding="UTF-8"?> <svg xmlns="http://www.w3.org/2000/svg" width="654" height="157" viewBox="0 0 654 157" fill="none"> <path fill-rule="evenodd" clip-rule="evenodd" d="M21.4 94.5C21.4 94.5 28.1 88.9 43.9 73.1C59.6 57.4 63 54.5 71.5 54.5C79.9 54.5 85 56.2 88.9 62.4C88.9 62.4 78.2 71.4 68.6 80.4C59.1 89.4 50.1 102.4 39.9 102.4C29.8 102.4 21.4 94.5 21.4 94.5ZM68.2 94.5C68.2 94.5 75 88.9 90.7 73.1C106.4 57.4 109.8 54.5 118.3 54.5C126.7 54.5 131.8 56.2 135.7 62.4C135.7 62.4 125 71.4 115.4 80.4C105.9 89.4 96.9 102.4 86.7 102.4C76.6 102.4 68.2 94.5 68.2 94.5ZM78.2 0C121.4 0 156.4 35 156.4 78.2C156.4 121.4 121.4 156.4 78.2 156.4C35 156.4 0 121.4 0 78.2C0 35 35 0 78.2 0Z" fill="#073476"></path> <path fill-rule="evenodd" clip-rule="evenodd" d="M25.9 13C25.5 12 25.1 10.9 24.7 9.9C24.4 8.9 24 7.9 23.7 7.1C23.4 6.3 23.2 5.6 23 5C22.9 4.5 22.8 4.2 22.7 4.1C22.6 4.3 22.6 4.6 22.4 5.2C22.2 5.7 22 6.4 21.7 7.2C21.4 8 21.1 9 20.7 10C20.3 11 20 12 19.6 13L12.8 30.8H32.7L25.9 13ZM40.1 50.8L34.1 35H11.3L5.40001 50.8H-1.2207e-05L19.7 1.90735e-07H25.8L45.5 50.8H40.1Z" transform="translate(544.8 15.8)" fill="#073476"></path> <path fill-rule="evenodd" clip-rule="evenodd" d="M30.3 14.2C30.3 12.6 30.1 11.1 29.5 9.9C28.9 8.6 28 7.6 26.9 6.7C25.8 5.8 24.4 5.2 22.9 4.8C21.3 4.3 19.6 4.1 17.6 4.1H5.19999V24.9H17.8C20 24.9 21.9 24.6 23.5 24.1C25 23.5 26.3 22.7 27.3 21.8C28.3 20.9 29.1 19.7 29.6 18.4C30.1 17.1 30.3 15.7 30.3 14.2ZM31.2 50.8L17.3 29H5.19999V50.8H6.10352e-06V1.90735e-07H18C20.8 1.90735e-07 23.3 0.300001 25.4 0.900001C27.6 1.6 29.4 2.5 30.9 3.7C32.4 4.9 33.6 6.4 34.4 8.2C35.2 9.9 35.6 11.9 35.6 14.2C35.6 15.8 35.4 17.3 34.8 18.9C34.3 20.4 33.6 21.9 32.5 23.2C31.5 24.4 30.1 25.6 28.5 26.5C26.8 27.4 24.8 28 22.5 28.3L37.3 50.8H31.2Z" transform="translate(478.6 15.8)" fill="#073476"></path> <path fill-rule="evenodd" clip-rule="evenodd" d="M26 13.1C25.5 12 25.2 11 24.8 10C24.4 8.9 24.1 8 23.8 7.2C23.5 6.3 23.3 5.7 23.1 5.1C22.9 4.6 22.8 4.3 22.7 4.2C22.7 4.3 22.6 4.7 22.4 5.2C22.2 5.8 22 6.5 21.7 7.3C21.4 8.1 21.1 9.1 20.7 10C20.4 11 20 12.1 19.6 13.1L12.9 30.9H32.7L26 13.1ZM40.1 50.8L34.1 35.1H11.4L5.39999 50.8H-6.10352e-06L19.7 -1.52588e-06H25.9L45.6 50.8H40.1Z" transform="translate(381.9 91.1)" fill="#073476"></path> <path fill-rule="evenodd" clip-rule="evenodd" d="M2.44141e-05 50.8V1.90735e-07H5.1V46.4H30V50.8H2.44141e-05Z" transform="translate(618.9 15.8)" fill="#073476"></path> <path fill-rule="evenodd" clip-rule="evenodd" d="M1.2207e-05 50.8V1.90735e-07H33.5V4.2H5.19999V22.5H31.3V26.7H5.19999V46.5H35V50.8H1.2207e-05Z" transform="translate(415.7 15.8)" fill="#073476"></path> <path fill-rule="evenodd" clip-rule="evenodd" d="M35.4 50.8L4.30001 6.1C4.30001 7.2 4.40001 8.2 4.40001 9.3C4.40001 10.2 4.40001 11.2 4.40001 12.3C4.40001 13.3 4.49999 14.4 4.49999 15.3V50.8H-1.2207e-05V1.90735e-07H5.59999L37 44.8C36.9 43.8 36.9 42.8 36.8 41.8C36.8 40.8 36.7 39.8 36.7 38.6C36.7 37.4 36.7 36.2 36.7 35V1.90735e-07H41.2V50.8H35.4Z" transform="translate(343.8 15.8)" fill="#073476"></path> <path fill-rule="evenodd" clip-rule="evenodd" d="M6.10352e-06 50.8V1.90735e-07H33.5V4.2H5.10001V22.5H31.3V26.7H5.10001V46.5H34.9V50.8H6.10352e-06Z" transform="translate(280.1 15.8)" fill="#073476"></path> <path fill-rule="evenodd" clip-rule="evenodd" d="M23.3 52.3C19.3 52.3 15.9 51.6 13 50.3C9.99999 49 7.60001 47.2 5.70001 44.8C3.70001 42.5 2.3 39.7 1.3 36.5C0.399997 33.3 -6.10352e-06 29.7 -6.10352e-06 25.9C-6.10352e-06 22 0.399997 18.4 1.3 15.2C2.3 12 3.70001 9.2 5.70001 7C7.60001 4.8 10 3 12.8 1.8C15.7 0.599999 19.1 0 23 0C25.8 0 28.3 0.3 30.4 1C32.6 1.6 34.4 2.5 36 3.5C37.6 4.6 38.9 5.8 39.9 7.2C41 8.6 41.9 10 42.6 11.4L37.9 13C37.3 11.9 36.6 10.8 35.7 9.7C34.9 8.7 33.9 7.8 32.7 6.9C31.5 6.2 30.1 5.5 28.5 5C26.9 4.6 25 4.3 23 4.3C19.9 4.3 17.2 4.8 15 5.9C12.7 6.9 10.9 8.4 9.49999 10.2C7.99999 12.1 6.9 14.4 6.3 17.1C5.6 19.7 5.20001 22.7 5.20001 25.9C5.20001 29.1 5.6 32.1 6.3 34.8C7.1 37.5 8.20001 39.9 9.70001 41.8C11.2 43.8 13.1 45.3 15.4 46.3C17.7 47.5 20.3 48 23.3 48C25.3 48 27 47.8 28.6 47.4C30.2 47.1 31.7 46.6 33 46C34.3 45.4 35.4 44.7 36.4 44C37.4 43.3 38.2 42.6 38.8 41.8V30.8H23.6V26.8H43.7V43.8C42.6 45 41.5 46.1 40.1 47.1C38.7 48.1 37.2 49 35.5 49.8C33.8 50.6 31.9 51.2 29.9 51.6C27.9 52.1 25.7 52.3 23.3 52.3Z" transform="translate(205.9 15)" fill="#073476"></path> <path fill-rule="evenodd" clip-rule="evenodd" d="M23.4 52.3C19.4 52.3 16 51.6 13 50.3C10.1 49 7.60001 47.2 5.70001 44.8C3.80001 42.5 2.30002 39.7 1.40002 36.5C0.500024 33.2 0 29.7 0 25.9C0 21.9 0.500024 18.3 1.40002 15.2C2.30002 11.9 3.80001 9.2 5.70001 7C7.60001 4.7 10 3 12.9 1.8C15.8 0.599997 19.1 1.52588e-06 23 1.52588e-06C26 1.52588e-06 28.5 0.300002 30.7 1C32.8 1.6 34.7 2.6 36.2 3.7C37.8 4.8 39.1 6 40.1 7.4C41.2 8.8 42 10.2 42.7 11.6L38.1 13.4C37.5 12.2 36.8 11.1 36 10C35.1 8.9 34.1 8 32.9 7.1C31.7 6.3 30.2 5.6 28.6 5.1C27 4.6 25.1 4.3 23.1 4.3C19.9 4.3 17.3 4.8 15 5.9C12.8 6.9 11 8.3 9.5 10.2C8.1 12.1 6.99999 14.4 6.29999 17C5.59999 19.7 5.29999 22.7 5.29999 25.9C5.29999 29.1 5.70002 32.1 6.40002 34.8C7.20002 37.5 8.29999 39.8 9.79999 41.8C11.3 43.7 13.2 45.2 15.4 46.3C17.7 47.4 20.4 47.9 23.4 47.9C25.6 47.9 27.5 47.7 29.2 47C30.9 46.4 32.5 45.6 33.8 44.6C35.1 43.5 36.2 42.4 37.2 41.1C38.1 39.9 38.8 38.6 39.4 37.4L43.8 39.4C42.9 41 41.9 42.6 40.7 44.1C39.5 45.7 38 47.1 36.4 48.2C34.7 49.4 32.8 50.4 30.7 51.2C28.5 51.9 26.1 52.3 23.4 52.3Z" transform="translate(610 90.4)" fill="#073476"></path> <path d="M5.20001 0H0V50.8H5.20001V0Z" transform="translate(578 91.1)" fill="#073476"></path> <path fill-rule="evenodd" clip-rule="evenodd" d="M20.2 4.4V50.8H15.6V4.4H-2.44141e-05V-1.52588e-06H35.8V4.4H20.2Z" transform="translate(517.6 91.1)" fill="#073476"></path> <path fill-rule="evenodd" clip-rule="evenodd" d="M-6.10352e-06 50.8V-1.52588e-06H5.20001V46.5H30.1V50.8H-6.10352e-06Z" transform="translate(326.9 91.1)" fill="#073476"></path> <path fill-rule="evenodd" clip-rule="evenodd" d="M25.9 13.1C25.5 12 25.1 11 24.8 10C24.4 8.9 24.1 8 23.7 7.2C23.5 6.3 23.2 5.7 23.1 5.1C22.9 4.6 22.8 4.3 22.7 4.2C22.7 4.3 22.6 4.7 22.4 5.2C22.2 5.8 22 6.5 21.7 7.3C21.4 8.1 21.1 9.1 20.7 10C20.4 11 20 12.1 19.6 13.1L12.8 30.9H32.7L25.9 13.1ZM40.1 50.8L34.1 35.1H11.3L5.40001 50.8H-3.05176e-06L19.7 -1.52588e-06H25.8L45.5 50.8H40.1Z" transform="translate(204.2 91.1)" fill="#073476"></path> <path fill-rule="evenodd" clip-rule="evenodd" d="M35.4 50.8L4.30001 6.2C4.30001 7.2 4.40001 8.3 4.40001 9.3C4.40001 10.3 4.40001 11.3 4.40001 12.3C4.40001 13.4 4.49999 14.4 4.49999 15.4V50.8H-1.2207e-05V-1.52588e-06H5.59999L37 44.9C36.9 43.9 36.9 42.9 36.8 41.8C36.8 40.9 36.7 39.8 36.7 38.6C36.7 37.5 36.7 36.3 36.7 35.1V-1.52588e-06H41.2V50.8H35.4V50.8Z" transform="translate(451.8 91.1)" fill="#073476"></path> <path fill-rule="evenodd" clip-rule="evenodd" d="M20.2 4.4V50.8H15.5V4.4H-1.2207e-05V-1.52588e-06H35.7V4.4H20.2Z" transform="translate(266.8 91.1)" fill="#073476"></path> </svg> 