<?xml version="1.0" encoding="UTF-8"?> <svg xmlns="http://www.w3.org/2000/svg" width="503" height="114" viewBox="0 0 503 114" fill="none"> <path d="M44.4243 47.915C38.4007 41.4152 32.4607 34.9154 26.5208 28.5823C19.4095 20.9159 12.2146 13.1662 4.93605 5.33315L-1.02126e-05 -3.1788e-07V71.4975H12.7166V31.3322C18.7402 37.6654 24.7639 44.0818 30.7038 50.3316C37.8151 57.9147 45.01 65.4977 52.2885 73.1641L57.2246 78.4139V6.99976H44.508V47.915H44.4243Z" transform="translate(377.173 17.8401)" fill="#293678"></path> <path d="M35.6399 31.3322C33.632 29.749 31.4568 28.499 29.1143 27.4157C26.9391 26.4991 24.9312 25.6658 23.007 24.9991C21.9194 24.6658 20.8318 24.2492 19.8278 23.8325C18.9075 23.4992 18.1546 22.9992 17.4853 22.5825C16.8997 22.1659 16.565 21.7492 16.1467 21.0826C15.8957 20.6659 15.7284 19.9993 15.7284 18.916C15.7284 16.9994 16.2304 15.5828 17.4016 14.2495C17.9036 13.6662 18.4056 13.3329 19.2422 12.9995C20.0788 12.6662 21.0827 12.4996 22.505 12.4996C23.5926 12.4996 24.5129 12.6662 25.4331 12.8329C26.4371 13.0829 27.2737 13.4162 28.0267 13.7495C28.7796 14.1662 29.5326 14.4995 30.0345 14.9161C30.7038 15.4161 31.2058 15.8328 31.4568 16.0828L33.7157 18.3327L35.7235 15.8328C36.3928 14.9995 37.0621 14.0828 37.7314 13.2495C38.4007 12.4162 38.9863 11.5829 39.6556 10.7496L41.4125 8.58303L39.321 6.8331C36.1418 4.16652 33.2137 2.33325 30.2855 1.33329C27.6084 0.499982 25.0148 -6.35761e-07 22.4213 -6.35761e-07C19.0749 -6.35761e-07 16.063 0.499982 13.4695 1.66661C11.0433 2.7499 8.9518 4.24985 7.36223 6.08312C5.85632 7.83306 4.68506 9.91632 4.01576 12.1662C3.43013 14.0828 3.09548 16.0828 3.09548 17.9994C3.09548 18.166 3.09548 18.416 3.09548 18.5827C3.17914 21.3326 3.68112 23.9158 4.85238 26.0824C5.85632 28.0824 7.1949 29.749 8.70081 31.1656C10.1231 32.4989 11.7126 33.5822 13.3859 34.3321C14.8081 34.9988 16.063 35.5821 17.2343 35.9987C18.5729 36.4987 20.1625 37.082 21.9194 37.6654C23.4253 38.1653 24.9312 38.832 26.3534 39.6653C27.692 40.4153 28.6959 41.3319 29.6162 42.4152C29.9509 42.8318 30.2019 43.3318 30.3692 43.9151C30.5365 44.4985 30.6202 45.2484 30.6202 46.1651C30.6202 47.415 30.3692 48.415 30.0345 49.165C29.6162 50.0816 29.0306 50.7482 28.3613 51.2482C27.6083 51.8315 26.7717 52.2482 25.6841 52.5815C24.5965 52.9148 23.5089 53.0815 22.3377 53.0815C20.9991 53.0815 19.7442 52.9148 18.6566 52.5815C17.4853 52.1649 16.3977 51.7482 15.3937 51.0816C14.3061 50.4149 13.3859 49.7483 12.4656 48.915C11.5453 48.0817 10.7087 47.3317 10.1231 46.665L8.11518 44.4984L2.55315e-06 52.5815L1.25493 54.4981C2.17521 55.9147 3.43013 57.248 4.85238 58.498C6.35829 59.7479 8.03152 60.9145 9.87208 61.9145C11.7963 62.9145 13.8042 63.7478 15.9794 64.4144C18.2382 65.0811 20.5808 65.4144 23.007 65.4144C25.6841 65.4144 28.2776 64.9977 30.7038 64.0811C33.13 63.2478 35.3889 61.9145 37.2294 60.2479C39.1537 58.5813 40.6596 56.498 41.7472 54.1648C42.8348 51.7482 43.4204 49.0816 43.4204 46.1651C43.4204 42.9152 42.7511 39.8319 41.2452 37.2487C39.4883 34.9988 37.7314 32.9989 35.6399 31.3322Z" transform="translate(144.594 24.4233)" fill="#293678"></path> <path d="M12.7166 52.0815V38.1653H38.7354V25.8324H12.7166V12.3329H41.9982V-6.35761e-07H-2.04252e-05V64.3311H43.1694V52.0815H12.7166Z" transform="translate(459.831 24.8398)" fill="#293678"></path> <path d="M38.819 25.8324H12.7166V-6.35761e-07H-5.1063e-06V64.4144H12.7166V38.1653H38.819V64.4144H51.5356V-6.35761e-07H38.819V25.8324Z" transform="translate(212.025 24.8398)" fill="#293678"></path> <path d="M56.3043 9.74966C53.2925 6.74977 49.7787 4.41651 45.7629 2.66657C41.7472 0.916635 37.3968 0 32.9627 0C28.445 0 24.0946 0.833305 20.0788 2.66657C16.1467 4.41651 12.6329 6.74977 9.6211 9.74966C6.60928 12.7496 4.26673 16.2494 2.5935 20.2493C0.836606 24.2492 1.02126e-05 28.499 1.02126e-05 32.9988C1.02126e-05 37.4987 0.836606 41.7485 2.5935 45.7484C4.26673 49.6649 6.69294 53.1648 9.6211 56.1647C12.6329 59.1646 16.063 61.4979 20.0788 63.1645C24.0946 64.9144 28.3613 65.7477 32.879 65.7477C37.3131 65.7477 41.6635 64.9144 45.6793 63.1645C49.695 61.4979 53.2088 59.1646 56.2206 56.1647C59.2325 53.1648 61.575 49.7483 63.3319 45.7484C65.0888 41.7485 66.0091 37.4154 66.0091 32.9155C66.0091 28.499 65.0888 24.1658 63.3319 20.166C61.7423 16.2494 59.3161 12.7496 56.3043 9.74966ZM51.7866 40.9152C50.699 43.4152 49.2767 45.5817 47.4362 47.415C45.5956 49.2483 43.4204 50.7482 40.9106 51.8315C38.4844 52.9148 35.8909 53.4148 33.0464 53.4148C30.2019 53.4148 27.6083 52.9148 25.1822 51.8315C22.6723 50.7482 20.5808 49.2483 18.6566 47.415C16.816 45.5817 15.3937 43.4152 14.3061 40.9152C13.2185 38.4987 12.7166 35.8321 12.7166 32.9155C12.7166 29.999 13.2185 27.4157 14.3061 24.9158C15.3937 22.4159 16.816 20.2493 18.6566 18.416C20.4971 16.5828 22.6723 15.0828 25.0985 13.9995C27.5247 12.9162 30.1182 12.4162 32.9627 12.4162C35.8072 12.4162 38.4007 12.9162 40.8269 13.9995C43.3367 15.0828 45.4283 16.5828 47.2689 18.416C49.1094 20.2493 50.5316 22.4159 51.6192 24.9158C52.7068 27.4157 53.2088 29.999 53.2088 32.9155C53.3761 35.8321 52.8742 38.4987 51.7866 40.9152Z" transform="translate(286.316 24.1733)" fill="#293678"></path> <path d="M46.1236 51.6724L103.934 24.9233C92.0539 9.09054 73.481 -1.07577 54.8245 0.0908584C36.1679 1.25748 20.8578 10.7572 10.9857 23.6734C-1.14521 41.0894 -2.06548 57.4222 2.61957 73.0883L67.6247 62.422L9.81447 89.5044C23.033 106.504 39.849 114.92 60.8481 113.92C77.7478 112.504 92.4722 105.421 103.85 89.9211C107.113 85.9212 109.539 81.588 111.212 77.0048C115.312 66.0052 115.73 53.0057 111.714 41.0894L46.1236 51.6724ZM20.4395 33.0897C27.0488 23.4234 35.8333 16.8403 47.7132 14.507C61.5174 11.8404 71.3895 14.3404 81.5962 21.0068L13.8302 51.7557C14.6669 45.4226 16.2564 39.1728 20.4395 33.0897ZM83.3531 91.5877C73.8157 99.0041 63.0233 101.254 51.3943 99.8374C44.0321 99.0041 38.2594 96.0875 32.9051 92.5876L100.587 61.8387C99.0815 73.9216 94.4801 83.0046 83.3531 91.5877Z" fill="#293678"></path> </svg> 