<?xml version="1.0" encoding="UTF-8"?> <svg xmlns="http://www.w3.org/2000/svg" xmlns:xlink="http://www.w3.org/1999/xlink" width="1213px" height="183px" viewBox="0 0 1213 183"> <!-- Generator: Sketch 45.1 (43504) - http://www.bohemiancoding.com/sketch --> <title>deepomatic</title> <desc>Created with Sketch.</desc> <defs></defs> <g id="Page-1" stroke="none" stroke-width="1" fill="none" fill-rule="evenodd"> <g id="deepomatic" fill="#000000"> <path d="M766.3976,138.6816 L740.4046,138.6816 L740.4046,43.8366 L766.0086,43.8366 L766.0086,53.2606 C766.7846,52.6656 767.2206,52.4136 767.5526,52.0636 C775.2796,43.9246 784.8096,40.9546 795.8286,42.0126 C803.2996,42.7296 810.0246,45.1376 815.5016,50.3956 C817.3856,52.2056 818.9716,54.3266 820.7786,56.4016 C821.1346,56.0216 821.5796,55.5856 821.9806,55.1126 C830.5646,45.0186 841.5546,40.9026 854.6296,41.9626 C859.4396,42.3526 864.1236,43.2676 868.5286,45.3356 C875.3006,48.5146 879.8606,53.7676 882.8136,60.5346 C885.3836,66.4226 886.4296,72.6486 886.4606,78.9986 C886.5576,98.3526 886.5006,117.7066 886.4976,137.0616 C886.4976,137.5266 886.4436,137.9906 886.4056,138.6026 L860.1416,138.6026 C860.1176,137.7536 860.0686,136.8356 860.0686,135.9176 C860.0636,119.1216 860.0696,102.3276 860.0616,85.5326 C860.0606,81.6816 859.8106,77.8536 858.5786,74.1676 C856.5106,67.9846 852.2856,64.8466 845.8556,64.2196 C836.2326,63.2796 828.8026,68.7326 827.1016,78.9686 C826.6716,81.5576 826.4986,84.2146 826.4896,86.8426 C826.4356,103.1576 826.4626,119.4726 826.4626,135.7876 L826.4626,138.3406 C824.5696,138.8456 803.9196,138.9946 800.0306,138.5446 C799.9916,137.6756 799.9156,136.7506 799.9146,135.8266 C799.9066,118.6306 799.9096,101.4356 799.9066,84.2406 C799.9066,81.0306 799.6376,77.8536 798.7006,74.7606 C796.6796,68.1036 792.3786,64.7106 785.4526,64.2156 C781.3426,63.9226 777.4926,64.5366 774.0476,66.9666 C770.6176,69.3866 768.5976,72.7336 767.5176,76.7206 C766.6326,79.9896 766.3936,83.3276 766.3956,86.6986 C766.4016,103.0136 766.3976,119.3286 766.3976,135.6446 L766.3976,138.6816 Z" id="Fill-1"></path> <path d="M271.8063,93.4579 C271.8273,81.4059 267.3643,73.0389 259.5053,68.7609 C250.9143,64.0839 242.2523,64.5469 233.9353,69.4459 C224.7993,74.8289 220.4183,85.9019 222.7413,96.9039 C226.1273,112.9459 244.7543,121.6929 259.0303,113.7879 C267.8273,108.9159 271.5193,100.9409 271.8063,93.4579 M296.9923,138.6729 L271.1763,138.6729 L271.1763,128.5939 C270.5463,129.0389 270.2843,129.1789 270.0793,129.3769 C258.2593,140.8359 244.2733,143.4039 229.0653,138.3459 C210.6603,132.2239 200.2863,118.8669 197.2493,99.8859 C195.8463,91.1149 196.2003,82.2719 199.1443,73.8109 C205.5443,55.4199 218.3733,44.6069 237.8253,42.1729 C249.9293,40.6579 260.8223,43.6249 270.0433,51.8999 C270.2603,52.0949 270.5383,52.2209 271.0693,52.5559 L271.0693,0.0279 C279.7893,-0.0231 288.3003,0.0159 296.7713,0.0029 C297.2763,1.8779 297.4753,134.1069 296.9923,138.6729" id="Fill-3"></path> <path d="M572.9303,65.684 C563.2663,65.278 553.0433,71.387 549.5513,82.79 C548.2893,86.91 547.8963,91.118 548.6543,95.351 C550.4443,105.351 555.7093,112.69 565.6973,115.653 C580.2053,119.956 595.6833,110.718 597.7953,94.995 C600.0373,78.302 588.2003,65.563 572.9303,65.684 M548.7763,182.349 L523.2193,182.349 L523.2193,43.835 L548.9943,43.835 L548.9943,53.996 C549.6693,53.523 550.0623,53.33 550.3513,53.035 C559.1443,44.023 569.9053,40.755 582.2423,42.107 C591.9633,43.171 600.7033,46.582 607.9603,53.266 C616.3913,61.032 621.3663,70.695 622.9513,82.017 C624.1593,90.649 624.1033,99.329 621.3253,107.659 C614.9833,126.672 601.7943,137.837 581.8663,140.427 C573.6683,141.492 565.5363,140.277 558.0983,136.365 C555.0223,134.747 552.2663,132.518 549.2073,130.461 C549.4693,130.334 549.3913,130.359 549.3283,130.405 C549.2713,130.447 549.1973,130.506 549.1863,130.566 C549.1473,130.802 549.1103,131.04 549.1093,131.278 C549.0793,148.15 549.0543,165.022 549.0233,181.894 C549.0233,181.961 548.9533,182.028 548.7763,182.349" id="Fill-5"></path> <path d="M972.1154,93.0868 C972.2284,72.4238 955.0564,60.6068 937.6364,67.6808 C926.3624,72.2608 920.4024,84.3888 923.0284,96.8838 C926.5214,113.5148 946.3114,122.1318 960.5444,113.0898 C968.4874,108.0438 971.8724,100.3898 972.1154,93.0868 M997.2554,138.6718 L971.4474,138.6718 L971.4474,128.5558 C970.7514,129.0928 970.4334,129.2918 970.1704,129.5478 C959.0104,140.3528 945.7024,143.1858 931.1594,138.9108 C911.8674,133.2408 900.8524,119.7828 897.5714,100.1098 C896.0134,90.7738 896.5064,81.3858 899.8864,72.4438 C906.5984,54.6918 919.4114,44.3988 938.3454,42.1428 C950.3724,40.7098 961.1774,43.6928 970.3264,51.8988 C970.5434,52.0938 970.8144,52.2288 971.3394,52.5748 L971.3394,43.8618 L997.0944,43.8618 C997.5544,45.5198 997.7444,134.4048 997.2554,138.6718" id="Fill-7"></path> <path d="M485.7775,79.5536 C485.6545,78.9866 485.6255,78.5136 485.4515,78.1026 C483.0585,72.4436 479.0495,68.4326 473.2605,66.2836 C469.8435,65.0156 466.2895,64.6346 462.6605,64.7206 C453.0075,64.9476 446.0115,69.5496 441.1705,77.7136 C440.8625,78.2326 440.7035,78.8386 440.4135,79.5536 L485.7775,79.5536 Z M439.0635,100.5616 C440.7005,106.1326 443.6145,110.1666 447.8665,113.3196 C455.1005,118.6846 471.6185,120.5366 481.2165,111.6406 C483.8295,109.2186 485.9025,106.4266 487.6735,103.0106 C494.6065,107.1396 501.4325,111.2036 508.4525,115.3846 C507.4415,117.0086 506.6035,118.5416 505.5925,119.9506 C497.1775,131.6836 485.9415,138.6706 471.4645,140.2556 C459.6195,141.5526 448.2985,140.0056 437.9075,133.9026 C423.6505,125.5276 415.9475,112.8446 414.1795,96.5376 C412.6315,82.2646 416.5985,69.5146 426.0595,58.7856 C437.2145,46.1346 451.4655,40.6676 468.2985,42.0556 C479.3535,42.9676 489.1095,46.9966 497.1575,54.6786 C506.2715,63.3776 511.2485,74.1426 512.1615,86.7046 C512.4505,90.6856 512.3255,94.6976 512.3675,98.6946 C512.3735,99.2366 512.2485,99.7796 512.1555,100.5616 L439.0635,100.5616 Z" id="Fill-9"></path> <path d="M379.5378,79.5624 C379.4978,79.1514 379.5278,78.9024 379.4458,78.6974 C377.2128,73.1014 373.4738,68.9544 367.8378,66.6244 C364.2328,65.1344 360.4718,64.6494 356.5978,64.7184 C346.9638,64.8884 339.9098,69.3774 335.0238,77.5214 C334.6738,78.1054 334.4558,78.7684 334.1008,79.5624 L379.5378,79.5624 Z M381.7188,103.1864 C388.3868,107.1594 395.1638,111.1974 402.0468,115.2974 C401.7608,115.9094 401.5798,116.4214 401.3018,116.8744 C393.0408,130.2814 381.2958,138.3594 365.5068,140.2094 C355.5648,141.3754 345.8568,140.5534 336.6338,136.4004 C320.0218,128.9184 310.5248,115.9524 308.1248,98.0354 C305.8188,80.8214 311.2528,66.0654 324.1218,54.4154 C334.8648,44.6894 347.7338,40.7414 362.1948,42.0664 C374.6668,43.2084 385.3098,48.1354 393.6728,57.5364 C401.5058,66.3414 405.5648,76.7554 406.0438,88.5194 C406.2038,92.4234 406.0698,96.3394 406.0698,100.5874 L332.9618,100.5874 C333.1808,101.4844 333.2578,102.0314 333.4458,102.5364 C335.7438,108.7004 339.8788,113.1604 345.9678,115.6764 C351.5128,117.9684 357.3328,118.3444 363.1698,117.3234 C370.7048,116.0054 376.2778,111.7214 380.1948,105.2114 C380.5638,104.5994 380.9338,103.9864 381.3108,103.3794 C381.3448,103.3264 381.4438,103.3134 381.7188,103.1864 L381.7188,103.1864 Z" id="Fill-11"></path> <path d="M656.6622,90.7763 C656.9822,93.0653 657.1192,95.3983 657.6522,97.6363 C660.6132,110.0743 673.3302,118.2683 685.4012,115.3593 C695.0272,113.0403 701.2662,106.8703 703.6912,97.3113 C706.1482,87.6293 703.4132,79.1853 695.9902,72.5613 C686.2722,63.8883 672.3072,64.6893 663.4332,74.1883 C659.0932,78.8353 657.0122,84.4183 656.6622,90.7763 M729.8192,91.3673 C729.8792,121.7043 704.2572,140.9643 680.1692,140.7593 C657.6832,140.5683 631.4702,122.8793 631.2952,91.2553 C631.1432,63.8763 653.2942,41.8503 680.6412,41.7853 C705.8422,41.7263 730.0252,62.0573 729.8192,91.3673" id="Fill-13"></path> <path d="M1212.7335,71.9433 C1205.1245,75.1883 1197.5055,78.4363 1189.7805,81.7303 C1189.4105,81.0563 1189.0955,80.5223 1188.8155,79.9703 C1184.8115,72.0853 1175.8775,64.9523 1163.2955,66.8893 C1152.7755,68.5093 1144.9065,76.6923 1143.2355,87.3603 C1141.1865,100.4463 1149.4625,112.6913 1162.2025,115.4223 C1172.6575,117.6633 1183.4215,112.6173 1188.5075,103.0883 C1188.8805,102.3883 1189.2295,101.6763 1189.7035,100.7483 C1197.3695,104.0093 1204.9755,107.2473 1212.8465,110.5963 C1209.5545,118.6613 1204.5345,125.1903 1197.8405,130.4943 C1187.7375,138.5013 1176.0885,141.3453 1163.4565,140.5603 C1142.1425,139.2353 1120.1435,122.5183 1117.9705,95.7643 C1115.6005,66.5833 1135.6705,46.9833 1157.1325,42.8353 C1185.9585,37.2643 1205.9725,54.3053 1212.7335,71.9433" id="Fill-15"></path> <path d="M1068.9513,67.1762 L1051.3563,67.1762 C1051.2773,67.8902 1051.1523,68.4942 1051.1523,69.0992 C1051.1403,79.3352 1051.1153,89.5712 1051.1703,99.8072 C1051.1803,101.9572 1051.3873,104.1222 1051.6973,106.2512 C1052.3483,110.7142 1054.6923,113.0912 1059.1683,113.7402 C1061.6123,114.0952 1064.0993,114.1472 1066.5683,114.3322 C1067.2673,114.3842 1067.9683,114.4222 1068.8003,114.4732 L1068.8003,138.6652 C1065.6273,138.6652 1062.5173,138.8822 1059.4513,138.6112 C1055.3243,138.2482 1051.1703,137.7782 1047.1343,136.8792 C1035.9153,134.3812 1029.2803,127.2082 1026.7593,116.0962 C1025.4963,110.5332 1025.0623,104.8792 1025.0403,99.1932 C1025.0013,89.5962 1025.0283,80.0012 1025.0283,70.4042 L1025.0283,67.2652 L1009.0393,67.2652 L1009.0393,43.7622 C1014.1913,43.5502 1019.4333,43.7962 1024.9153,43.6222 C1024.9553,42.7112 1025.0223,41.8642 1025.0233,41.0182 C1025.0343,35.1012 1025.0603,29.1832 1025.0063,23.2662 C1024.9943,21.9932 1025.3783,21.2392 1026.5323,20.6172 C1034.2703,16.4492 1041.9703,12.2092 1049.6843,7.9992 C1050.0203,7.8162 1050.3903,7.6972 1051.0793,7.4072 L1051.0793,43.6062 L1068.8353,43.6062 C1069.0673,51.4932 1068.8803,59.1862 1068.9513,67.1762" id="Fill-17"></path> <polygon id="Fill-19" points="1081.448 138.601 1107.237 138.601 1107.237 43.833 1081.448 43.833"></polygon> <path d="M19.0021,66.1498 C12.6191,66.1358 7.5781,71.1228 7.5361,77.4928 C7.4941,83.9268 12.6831,89.1368 19.0611,89.0648 C25.3911,88.9918 30.4341,83.8818 30.4191,77.5528 C30.4041,71.1958 25.3661,66.1638 19.0021,66.1498 M31.3261,91.2278 C28.8811,92.6228 26.6731,93.8818 24.3331,95.2178 C24.1521,97.3218 24.9221,99.3338 25.7471,101.3098 C28.1141,106.9828 31.6391,111.9188 35.6281,116.5388 C39.1481,120.6158 42.9671,124.3418 47.8351,126.8438 C48.8141,127.3468 49.7191,128.0728 50.5021,128.8538 C51.7951,130.1438 51.9291,131.7528 51.0541,133.2458 C50.3161,134.5048 48.9841,135.1448 47.3201,134.7038 C45.8691,134.3188 44.3641,133.8298 43.1261,133.0178 C40.7291,131.4438 38.3601,129.7698 36.2331,127.8548 C30.3001,122.5128 25.4561,116.2718 21.6321,109.2588 C19.5181,105.3808 17.8101,101.3428 17.1181,96.9358 C17.0591,96.5548 16.8611,96.1948 16.7491,95.8828 C14.0841,95.0298 11.5081,94.2058 8.6241,93.2828 C8.7101,94.1608 8.7421,94.9768 8.8751,95.7748 C9.7561,101.1108 11.6401,106.1128 14.0661,110.9138 C18.0981,118.8938 23.2611,126.0818 29.4211,132.5558 C32.7011,136.0028 36.5061,138.7598 40.5871,141.1808 C42.6451,142.3998 44.7191,143.6498 46.5591,145.1618 C48.6931,146.9158 48.4551,149.3268 46.0791,150.6708 C45.2851,151.1188 44.0361,151.1998 43.1451,150.9398 C41.7111,150.5188 40.3361,149.7818 39.0491,148.9938 C19.3621,136.9398 6.8301,119.6958 1.7411,97.1548 C0.1291,90.0178 -0.5149,82.7428 0.4591,75.4618 C1.4341,68.1658 5.3291,62.8318 12.2911,60.1288 C19.0341,57.5098 25.4211,58.4528 30.9391,63.1638 C35.6131,67.1548 37.6301,72.5828 37.2201,78.6038 C36.7931,84.8608 37.9571,90.7028 40.5291,96.2988 C42.9971,101.6668 46.2981,106.4238 51.2871,109.8458 C52.5921,110.7418 53.7371,111.8948 54.8591,113.0258 C55.7671,113.9408 56.0991,115.1108 55.4701,116.3298 C54.8321,117.5698 53.7541,118.3228 52.3471,118.1058 C51.1901,117.9268 49.9141,117.6698 48.9881,117.0218 C47.0351,115.6558 45.0931,114.1838 43.4721,112.4498 C37.8271,106.4148 33.5851,99.5238 31.3261,91.2278" id="Fill-21"></path> <path d="M132.7262,94.207 C139.0522,94.258 144.1962,89.258 144.3212,82.938 C144.4432,76.702 139.3412,71.457 133.0442,71.348 C126.5842,71.236 121.3992,76.3 121.3832,82.74 C121.3672,89.1 126.3692,94.157 132.7262,94.207 M141.8002,66.192 C141.2472,64.115 140.8722,62.332 140.2962,60.614 C137.9602,53.645 134.2232,47.403 129.9572,41.487 C127.4362,37.991 124.6722,34.662 121.8962,31.358 C119.6232,28.652 117.0182,26.3 113.7762,24.732 C112.7782,24.249 111.8492,23.585 110.9712,22.898 C108.8512,21.238 108.3902,19.533 109.4802,17.73 C110.5822,15.906 112.2042,15.477 114.7192,16.598 C116.2402,17.276 117.6772,18.177 119.0742,19.096 C123.5202,22.023 127.3182,25.677 130.6992,29.765 C140.9412,42.152 147.7742,56.163 150.5022,72.05 C151.2972,76.682 152.1392,81.393 151.1582,86.107 C149.6742,93.243 145.5362,98.243 138.5752,100.576 C131.9912,102.782 125.8592,101.606 120.6542,97.009 C116.2672,93.133 114.3612,87.974 114.6222,82.183 C114.7712,78.883 114.1282,75.829 112.9752,72.829 C110.9472,67.555 108.0752,62.784 104.2762,58.583 C103.6872,57.932 103.0892,57.276 102.5982,56.552 C101.3452,54.705 101.4452,52.971 102.8132,51.527 C104.1222,50.145 105.6712,49.952 107.5482,51.373 C109.1232,52.565 110.7042,53.929 111.7912,55.547 C114.3712,59.385 116.6672,63.414 119.0582,67.378 C119.4672,68.057 119.7752,68.796 120.2132,69.674 C122.2002,68.249 124.1122,66.877 126.2232,65.362 C125.8972,64.501 125.6012,63.519 125.1652,62.603 C121.9422,55.846 117.9132,49.618 112.6962,44.226 C111.0922,42.568 109.1922,41.199 107.4552,39.667 C106.6222,38.931 105.7422,38.204 105.0802,37.325 C104.2762,36.259 103.9412,34.96 104.7522,33.742 C105.5702,32.514 106.8582,31.892 108.2892,32.252 C109.5812,32.578 110.9512,33.047 111.9852,33.844 C114.0652,35.446 116.1192,37.154 117.8682,39.101 C124.5422,46.528 129.8282,54.885 134.0492,64.052 C136.4102,64.704 138.8522,65.378 141.8002,66.192" id="Fill-22"></path> <path d="M90.1847,140.0527 C90.1967,133.6537 85.3167,128.6817 79.0477,128.7037 C72.5497,128.7277 67.7067,133.3427 67.7087,139.5107 C67.7107,146.3657 72.7457,151.6537 79.2717,151.6547 C85.3727,151.6557 90.1727,146.5527 90.1847,140.0527 M91.5177,126.5007 C92.9807,128.1397 94.4527,129.7867 96.1897,131.7337 C96.7487,131.5267 97.7247,131.2487 98.6267,130.8197 C104.9017,127.8357 110.4817,123.8667 115.2497,118.8097 C116.4497,117.5357 117.3807,116.0147 118.5007,114.6607 C119.2637,113.7407 120.0747,112.8397 120.9797,112.0647 C122.4297,110.8237 123.2377,110.7787 124.6637,111.6017 C126.2727,112.5307 127.0267,113.6987 126.6237,115.3307 C126.3057,116.6187 125.7887,117.9807 124.9727,118.9977 C123.2287,121.1717 121.3867,123.3147 119.3127,125.1647 C113.1377,130.6757 106.3277,135.2737 98.7777,138.7277 C98.4187,138.8917 98.0807,139.0997 97.7307,139.2877 C97.3237,142.1587 96.9237,144.9807 96.4877,148.0597 C97.3567,147.8727 98.1137,147.7667 98.8357,147.5477 C102.4587,146.4517 105.8077,144.7517 108.9767,142.7167 C116.9677,137.5847 124.1857,131.5907 130.0327,124.0137 C131.5827,122.0047 133.4967,120.2497 135.3917,118.5437 C136.7677,117.3057 137.4477,117.3667 138.5757,118.1747 C140.4207,119.4957 140.9527,120.5397 140.3897,122.1647 C140.0807,123.0587 139.6227,123.9377 139.0627,124.6997 C125.6377,143.0197 107.8217,154.3487 85.3887,158.2397 C80.9547,159.0087 76.5587,159.2257 72.1727,157.4817 C60.2097,152.7257 56.0687,137.3207 65.9317,127.1827 C69.8357,123.1697 74.8407,120.9927 80.7537,122.0727 C81.4177,122.1937 82.1907,122.0777 82.8407,121.8577 C88.9607,119.7857 94.3927,116.4287 99.6147,112.7067 C100.1787,112.3047 100.5337,111.6157 101.0107,111.0807 C101.9137,110.0707 102.7577,108.9877 103.7677,108.0947 C105.1317,106.8887 106.0037,106.8317 107.2337,107.5557 C108.6917,108.4137 109.5587,109.8797 109.1257,111.3437 C108.7737,112.5377 108.2447,113.8147 107.4177,114.7067 C105.7447,116.5157 103.9577,118.2867 101.9607,119.7127 C98.5857,122.1227 95.0107,124.2517 91.5177,126.5007" id="Fill-23"></path> <path d="M66.0788,26.2245 C65.9958,32.5625 70.9848,37.7495 77.2738,37.8635 C83.5878,37.9785 88.7848,32.9865 88.9168,26.6775 C89.0528,20.2265 84.0048,14.9765 77.6068,14.9145 C71.3088,14.8535 66.1618,19.9035 66.0788,26.2245 M63.5128,38.7675 C62.1688,36.7405 60.9848,34.9535 59.7048,33.0215 C59.1748,33.1795 58.5658,33.3055 58.0008,33.5375 C53.4758,35.3885 49.1538,37.6295 45.1038,40.3725 C42.2428,42.3105 39.5828,44.4525 37.8128,47.5365 C37.3998,48.2555 36.6408,48.8575 35.9098,49.2935 C34.8048,49.9515 33.6008,49.8995 32.5188,49.1265 C31.3958,48.3255 30.6688,47.1975 31.0188,45.8415 C31.3288,44.6385 31.8078,43.3215 32.6248,42.4365 C34.5138,40.3935 36.5098,38.3945 38.7168,36.7125 C44.3938,32.3855 50.6218,28.9475 57.0918,25.9465 C57.6648,25.6805 58.2478,25.4325 58.7748,25.1985 C59.4558,22.7245 60.1088,20.3485 60.8378,17.6975 C60.0068,17.8025 59.2088,17.7665 58.5108,18.0135 C55.1318,19.2135 51.6508,20.2245 48.4438,21.7895 C40.4188,25.7045 33.2218,30.8875 26.7238,37.0085 C25.2188,38.4255 23.9518,40.0955 22.5708,41.6455 C22.0938,42.1815 21.6568,42.7675 21.1118,43.2235 C19.5858,44.4945 17.8028,44.5815 16.5088,43.5215 C15.0908,42.3575 14.7188,40.4915 15.6878,38.7575 C16.1898,37.8585 16.8548,37.0375 17.5198,36.2425 C22.4388,30.3595 28.3208,25.5865 34.7348,21.4445 C45.3538,14.5885 56.8598,10.0185 69.4218,8.3395 C73.3658,7.8115 77.3368,7.2455 81.3468,8.1485 C95.3838,11.3095 101.1458,28.0345 91.6778,38.6055 C86.8578,43.9865 80.7378,46.2685 73.5098,44.5605 C71.8498,44.1675 70.3068,44.3765 68.7928,44.7855 C63.0718,46.3305 57.9858,49.1215 53.5728,53.0705 C52.2628,54.2425 50.9208,54.8075 49.2148,54.2765 C47.0578,53.6035 46.0048,51.4415 47.2058,49.5545 C48.1278,48.1065 49.3478,46.6685 50.7728,45.7585 C54.1278,43.6155 57.6818,41.7805 61.1668,39.8445 C61.8538,39.4625 62.5978,39.1835 63.5128,38.7675" id="Fill-24"></path> <path d="M1094.3019,34.331 C1087.4169,34.267 1082.2079,31.175 1079.8969,25.504 C1077.9669,20.771 1078.0269,15.948 1080.1169,11.295 C1082.0309,7.035 1085.4029,4.361 1089.9949,3.336 C1094.0089,2.441 1097.9849,2.626 1101.6949,4.452 C1107.2579,7.191 1109.8079,11.949 1110.0229,17.995 C1110.3459,27.103 1104.9719,32.429 1098.3379,33.859 C1097.0209,34.143 1095.6489,34.18 1094.3019,34.331" id="Fill-25"></path> </g> </g> </svg> 