<?xml version="1.0" encoding="UTF-8" standalone="no"?>
<svg width="128px" height="39px" viewBox="0 0 128 39" version="1.1" xmlns="http://www.w3.org/2000/svg" xmlns:xlink="http://www.w3.org/1999/xlink">
    <!-- Generator: Sketch 3.8.2 (29753) - http://www.bohemiancoding.com/sketch -->
    <title>Gemmyo logo nouveau logo baseline-01</title>
    <desc>Created with Sketch.</desc>
    <defs></defs>
    <g id="Page-1" stroke="none" stroke-width="1" fill="none" fill-rule="evenodd">
        <g id="Gemmyo-logo-nouveau-logo-baseline-01" fill="#000000">
            <g id="27aa4a97-01f1-4d16-a182-b33569f6f604">
                <path d="M33.56,31.13 L32.9,31.13 L31.9,35.55 L31.71,36.3 C31.6458668,36.5425041 31.5553253,36.7772414 31.44,37 C31.296451,37.3017899 31.0921954,37.5707264 30.84,37.79 C30.5965993,38.0022735 30.2828989,38.1163464 29.96,38.11 C29.8277266,38.0965988 29.6989783,38.0593296 29.58,38 C29.46739,37.962195 29.3624163,37.9046288 29.27,37.83 C29.1828932,37.7586689 29.1114086,37.6701642 29.06,37.57 C29.0198383,37.4786253 28.9993937,37.3798095 29,37.28 C28.9902109,37.1293491 29.0490142,36.9823409 29.16,36.88 C29.2525016,36.7934841 29.3733989,36.7437029 29.5,36.74 C29.622486,36.7321874 29.7401147,36.7891045 29.81,36.89 C29.8709542,36.9710341 29.9058298,37.0686859 29.91,37.17 C29.9131501,37.2509094 29.8922725,37.33094 29.85,37.4 L29.76,37.53 L29.7,37.59 L29.7,37.64 C29.6927578,37.6661749 29.6927578,37.6938251 29.7,37.72 C29.7048536,37.7709982 29.7300952,37.8178755 29.77,37.85 C29.8249227,37.8986321 29.8967375,37.9237673 29.97,37.92 C30.13269,37.9187346 30.2864718,37.8455052 30.39,37.72 C30.5053725,37.5750991 30.5903947,37.4084556 30.64,37.23 C30.7066667,37.0233333 30.77,36.8033333 30.83,36.57 L32,31.13 L31.2,31.13 L31.2,30.96 L33.6,30.96 L33.56,31.13 Z M36.53,36.48 C36.4064414,36.6506175 36.2657046,36.8081087 36.11,36.95 C35.9820835,37.0659192 35.8411397,37.1665934 35.69,37.25 C35.5636788,37.3194214 35.4293508,37.3731526 35.29,37.41 C35.1671457,37.4253727 35.0428543,37.4253727 34.92,37.41 C34.7268339,37.4111419 34.5357373,37.3701926 34.36,37.29 C34.1960668,37.2224941 34.0466769,37.1240326 33.92,37 C33.7873454,36.8514477 33.6853883,36.6781207 33.62,36.49 C33.5455374,36.2814506 33.5083045,36.0614377 33.51,35.84 C33.5128849,35.5805269 33.5602376,35.3234694 33.65,35.08 C33.7405893,34.8216731 33.8759932,34.5813312 34.05,34.37 C34.1752421,34.2184529 34.3198066,34.0839744 34.48,33.97 C34.6429411,33.8639437 34.8173903,33.7767191 35,33.71 C35.1516999,33.6480429 35.3091237,33.6011506 35.47,33.57 C35.6063395,33.5566268 35.7436605,33.5566268 35.88,33.57 C36.1580889,33.5598417 36.4319135,33.6405848 36.66,33.8 C36.8595232,33.9381036 36.9760607,34.1674194 36.97,34.41 C36.9730201,34.5773693 36.9241112,34.7415635 36.83,34.88 C36.7362147,35.0147281 36.6173893,35.1301584 36.48,35.22 C36.3252883,35.3228329 36.157004,35.4036094 35.98,35.46 C35.7935607,35.5201258 35.6030798,35.5669105 35.41,35.6 L34.85,35.67 L34.34,35.67 C34.3354278,35.7532706 34.3354278,35.8367294 34.34,35.92 C34.3296349,36.0698209 34.3296349,36.2201791 34.34,36.37 L34.34,36.59 C34.3498449,36.6969592 34.3768576,36.8016337 34.42,36.9 C34.4687327,37.0102814 34.5443794,37.1065591 34.64,37.18 C34.7657445,37.2672512 34.9172465,37.3095308 35.07,37.3 C35.2212953,37.3005785 35.3710835,37.2699401 35.51,37.21 C35.6455357,37.1490473 35.7731421,37.0718118 35.89,36.98 C36.0034949,36.8911463 36.1104386,36.7942286 36.21,36.69 L36.46,36.41 L36.53,36.48 Z M34.37,35.48 L34.63,35.48 C35.0105472,35.433853 35.3778741,35.3114107 35.71,35.12 C35.8608074,35.0209652 35.9956817,34.8995783 36.11,34.76 C36.1946686,34.658266 36.262218,34.543432 36.31,34.42 C36.3387466,34.3430001 36.3556063,34.2620734 36.36,34.18 L36.36,34.09 C36.3522369,34.0297303 36.3317875,33.9717905 36.3,33.92 C36.2564664,33.85424 36.1982753,33.7994719 36.13,33.76 C36.0318907,33.7074377 35.9210946,33.683201 35.81,33.69 C35.6610067,33.690883 35.5140937,33.7250488 35.38,33.79 C35.2264669,33.8686248 35.0904095,33.9774707 34.98,34.11 C34.8380866,34.2796474 34.7203052,34.4680975 34.63,34.67 C34.5119344,34.9358348 34.4246994,35.2143156 34.37,35.5 L34.37,35.48 Z M41,33.62 L41.7,33.62 L41,36.49 L41,36.71 C40.9926296,36.779806 40.9926296,36.850194 41,36.92 C40.9841666,36.9938448 41.0161145,37.0697211 41.08,37.11 L41.18,37.11 C41.3511064,37.0687349 41.5007858,36.9653848 41.6,36.82 C41.809969,36.5790211 41.9850155,36.3097188 42.12,36.02 L42.25,36.09 C42.1966667,36.21 42.1266667,36.3466667 42.04,36.5 C41.9541866,36.6527263 41.853713,36.7967385 41.74,36.93 C41.6293194,37.0571597 41.5014165,37.1682332 41.36,37.26 C41.2271913,37.3502363 41.0705605,37.3989659 40.91,37.4 C40.7961907,37.4073733 40.6832807,37.3756174 40.59,37.31 C40.5190343,37.2569444 40.4609298,37.1885862 40.42,37.11 C40.3858135,37.0377525 40.3654626,36.9597407 40.36,36.88 L40.36,36.71 C40.3528836,36.6201407 40.3528836,36.5298593 40.36,36.44 C40.36,36.36 40.36,36.28 40.41,36.17 L40.15,36.59 C40.0437068,36.7501236 39.9158351,36.8948205 39.77,37.02 C39.6274743,37.1530463 39.4612706,37.2581956 39.28,37.33 C39.1332038,37.3869955 38.9774522,37.4174687 38.82,37.42 C38.6963628,37.4228224 38.5735711,37.3989462 38.46,37.35 C38.3682488,37.3075171 38.2864739,37.246186 38.22,37.17 C38.1352639,37.1298638 38.060214,37.0718707 38,37 C37.9877941,36.9104138 37.9877941,36.8195862 38,36.73 C37.9910441,36.6402228 37.9910441,36.5497772 38,36.46 L38.05,36.19 L38.6,33.83 L37.79,33.83 L37.79,33.66 L39.4,33.66 L38.8,36.24 L38.8,36.74 C38.7967928,36.7765965 38.7967928,36.8134035 38.8,36.85 C38.7878712,36.9587347 38.8288093,37.0666624 38.91,37.14 C38.9806438,37.1976099 39.068846,37.2293627 39.16,37.23 L39.32,37.23 C39.3983797,37.2091207 39.4727316,37.1753244 39.54,37.13 C39.6339367,37.0695125 39.7211034,36.9991086 39.8,36.92 C39.8794736,36.7864659 39.9464255,36.645867 40,36.5 C40.1847349,36.2597483 40.3329991,35.9935466 40.44,35.71 C40.5266667,35.4633333 40.6033333,35.2333333 40.67,35.02 L41,33.62 Z M45.93,34.48 C45.9324954,34.4333667 45.9324954,34.3866333 45.93,34.34 C45.9340829,34.2900833 45.9340829,34.2399167 45.93,34.19 C45.9374062,34.1005656 45.9043862,34.0125122 45.84,33.95 C45.7727727,33.8943425 45.6871763,33.8658104 45.6,33.87 C45.4638554,33.8796674 45.331131,33.9171025 45.21,33.98 C45.032601,34.0699965 44.8759298,34.1960147 44.75,34.35 C44.5650085,34.5606537 44.4163158,34.8005896 44.31,35.06 C44.2019257,35.3202215 44.1117166,35.5875078 44.04,35.86 L43.68,37.36 L43,37.36 L43.83,33.8 L43,33.8 L43,33.63 L44.53,33.63 L44.25,34.87 C44.3160674,34.7295572 44.3895029,34.5927001 44.47,34.46 C44.5559549,34.319776 44.6565155,34.1890473 44.77,34.07 C44.9336442,33.8955475 45.1309496,33.756073 45.35,33.66 C45.5534652,33.5652953 45.7755883,33.5174534 46,33.52 C46.1878035,33.5146446 46.3716281,33.5747411 46.52,33.69 C46.6610981,33.8084409 46.7387756,33.9859894 46.73,34.17 C46.7373704,34.239806 46.7373704,34.310194 46.73,34.38 L46.73,34.58 L46.3,36.48 L46.3,36.73 C46.2957265,36.7832477 46.2957265,36.8367523 46.3,36.89 C46.2947983,36.9526357 46.3166347,37.0145055 46.36,37.06 C46.3954419,37.0925217 46.4418998,37.1103901 46.49,37.11 C46.5400831,37.0821489 46.5842434,37.0447825 46.62,37 C46.724922,36.9077557 46.818874,36.8037374 46.9,36.69 C46.9828175,36.5774934 47.0595926,36.4606617 47.13,36.34 L47.27,36.08 L47.41,36.13 L47.29,36.38 C47.2319583,36.4864848 47.1685432,36.5899516 47.1,36.69 C46.9744661,36.8830817 46.8230567,37.0580437 46.65,37.21 C46.4861414,37.3595559 46.2718416,37.4417042 46.05,37.44 C45.8815726,37.4493731 45.7162554,37.3918714 45.59,37.28 C45.473559,37.1640395 45.4117746,37.0041271 45.42,36.84 C45.4151746,36.7834361 45.4151746,36.7265639 45.42,36.67 L45.42,36.51 L45.93,34.48 Z M51.28,36.48 C51.1564414,36.6506175 51.0157046,36.8081087 50.86,36.95 C50.7320835,37.0659192 50.5911397,37.1665934 50.44,37.25 C50.3136788,37.3194214 50.1793508,37.3731526 50.04,37.41 C49.9171457,37.4253727 49.7928543,37.4253727 49.67,37.41 C49.4768339,37.4111419 49.2857373,37.3701926 49.11,37.29 C48.9460668,37.2224941 48.7966769,37.1240326 48.67,37 C48.5373454,36.8514477 48.4353883,36.6781207 48.37,36.49 C48.2955374,36.2814506 48.2583045,36.0614377 48.26,35.84 C48.2628849,35.5805269 48.3102376,35.3234694 48.4,35.08 C48.4905893,34.8216731 48.6259932,34.5813312 48.8,34.37 C48.9252421,34.2184529 49.0698066,34.0839744 49.23,33.97 C49.3803157,33.8665381 49.5412232,33.7793799 49.71,33.71 C49.8616999,33.6480429 50.0191237,33.6011506 50.18,33.57 C50.3163395,33.5566268 50.4536605,33.5566268 50.59,33.57 C50.8680889,33.5598417 51.1419135,33.6405848 51.37,33.8 C51.5695232,33.9381036 51.6860607,34.1674194 51.68,34.41 C51.6830201,34.5773693 51.6341112,34.7415635 51.54,34.88 C51.4462147,35.0147281 51.3273893,35.1301584 51.19,35.22 C51.0352883,35.3228329 50.867004,35.4036094 50.69,35.46 C50.5035607,35.5201258 50.3130798,35.5669105 50.12,35.6 L49.56,35.67 L49.09,35.67 C49.0854278,35.7532706 49.0854278,35.8367294 49.09,35.92 C49.0796349,36.0698209 49.0796349,36.2201791 49.09,36.37 L49.09,36.59 C49.0998449,36.6969592 49.1268576,36.8016337 49.17,36.9 C49.2187327,37.0102814 49.2943794,37.1065591 49.39,37.18 C49.5157445,37.2672512 49.6672465,37.3095308 49.82,37.3 C49.9712953,37.3005785 50.1210835,37.2699401 50.26,37.21 C50.3955357,37.1490473 50.5231421,37.0718118 50.64,36.98 C50.7534949,36.8911463 50.8604386,36.7942286 50.96,36.69 L51.21,36.41 L51.28,36.48 Z M49.12,35.48 L49.38,35.48 C49.7605472,35.433853 50.1278741,35.3114107 50.46,35.12 C50.6108074,35.0209652 50.7456817,34.8995783 50.86,34.76 C50.9446686,34.658266 51.012218,34.543432 51.06,34.42 C51.0887466,34.3430001 51.1056063,34.2620734 51.11,34.18 L51.11,34.09 C51.0873883,34.0253851 51.0496761,33.9671026 51,33.92 C50.9564664,33.85424 50.8982753,33.7994719 50.83,33.76 C50.7318907,33.7074377 50.6210946,33.683201 50.51,33.69 C50.3610067,33.690883 50.2140937,33.7250488 50.08,33.79 C49.9264669,33.8686248 49.7904095,33.9774707 49.68,34.11 C49.5380866,34.2796474 49.4203052,34.4680975 49.33,34.67 C49.2290384,34.937898 49.1585937,35.2163221 49.12,35.5 L49.12,35.48 Z M60.39,34.55 L60.64,34.17 C60.7148287,34.0538085 60.7984041,33.9434891 60.89,33.84 C60.9715123,33.7459556 61.0698634,33.667953 61.18,33.61 C61.2884693,33.5553905 61.4085771,33.5279373 61.53,33.53 C61.6750562,33.5244819 61.8160271,33.5787015 61.92,33.68 C62.0182036,33.7778244 62.0723588,33.9114071 62.07,34.05 C62.0693621,34.1719795 62.0309322,34.2907628 61.96,34.39 C61.8892599,34.4963131 61.7674945,34.5571958 61.64,34.55 C61.554944,34.5489459 61.4731828,34.5169524 61.41,34.46 C61.3466787,34.4086817 61.3099281,34.3315055 61.31,34.25 C61.3026963,34.2036191 61.3026963,34.1563809 61.31,34.11 L61.31,34.02 C61.3148863,33.9831116 61.300792,33.9462535 61.2725396,33.9220372 C61.2442872,33.8978208 61.2057071,33.8895294 61.17,33.9 L61.11,33.9 C61.0299108,33.9475102 60.9615522,34.0124508 60.91,34.09 L60.63,34.5 L60.4,34.89 L60.09,35.39 L59.89,35.71 L59.75,35.92 L59.62,36.1 C59.6556218,36.1821152 59.6956809,36.2622334 59.74,36.34 C59.8061942,36.4600756 59.8831783,36.5738783 59.97,36.68 C60.0617042,36.7948504 60.1694781,36.8958885 60.29,36.98 C60.4127188,37.0666803 60.5597716,37.1121967 60.71,37.11 C60.9148248,37.0958923 61.1103434,37.0190814 61.27,36.89 C61.4755574,36.7321155 61.6515974,36.5391485 61.79,36.32 L61.93,36.4 L61.74,36.67 C61.6502634,36.7920246 61.5461834,36.9028194 61.43,37 C61.2936739,37.1163962 61.1423183,37.2139365 60.98,37.29 C60.7880265,37.3745661 60.579701,37.4155482 60.37,37.41 C60.2065406,37.4117656 60.0440511,37.3846841 59.89,37.33 C59.7577067,37.2826799 59.63042,37.2223862 59.51,37.15 C59.415455,37.108659 59.3250492,37.0584336 59.24,37 L59.06,36.81 L58.68,37.09 C58.5639841,37.1721726 58.4400326,37.2425234 58.31,37.3 C58.1753514,37.3614048 58.0345617,37.4083347 57.89,37.44 C57.7171698,37.4586766 57.5428302,37.4586766 57.37,37.44 C57.1150913,37.4416561 56.8616664,37.4011082 56.62,37.32 C56.3939492,37.2560304 56.1830925,37.1472011 56,37 C55.8371768,36.8562252 55.7075219,36.6788027 55.62,36.48 C55.4122495,35.9937018 55.4455935,35.4379688 55.71,34.98 C55.8591478,34.7423072 56.0486616,34.5324884 56.27,34.36 C56.4943351,34.1866163 56.7395947,34.0421483 57,33.93 C57.2533333,33.8166667 57.4766667,33.7266667 57.67,33.66 C57.621031,33.4854844 57.5809792,33.3085888 57.55,33.13 C57.5160756,32.9419103 57.4993399,32.7511234 57.5,32.56 C57.4896691,32.2790033 57.5408631,31.9991428 57.65,31.74 C57.7401475,31.5400776 57.8733158,31.3625199 58.04,31.22 C58.2021278,31.108767 58.3862987,31.0337344 58.58,31 C58.7590039,30.9491988 58.9439412,30.9222988 59.13,30.92 C59.4601079,30.9017764 59.7860142,31.0009653 60.05,31.2 C60.2650223,31.3720038 60.3871384,31.6347384 60.38,31.91 C60.3806236,32.0623698 60.3464197,32.2128673 60.28,32.35 C60.2110306,32.4929292 60.1160833,32.6217863 60,32.73 C59.8204386,32.9043923 59.6145962,33.0494943 59.39,33.16 C59.1225314,33.3001821 58.8451167,33.4205065 58.56,33.52 C58.6533333,33.78 58.7466667,34.0366667 58.84,34.29 L59.12,35 L59.36,35.58 L59.53,35.97 L59.67,35.76 L59.81,35.56 L60,35.25 L60.23,34.87 L60.39,34.55 Z M57.72,33.81 L57.37,34.01 C57.2173933,34.1065875 57.0793375,34.22444 56.96,34.36 C56.8166563,34.5267095 56.7017822,34.7159139 56.62,34.92 C56.518594,35.1811178 56.4709752,35.4600281 56.48,35.74 C56.4776852,35.9256941 56.5012449,36.1108057 56.55,36.29 C56.5939011,36.4557495 56.6685267,36.611785 56.77,36.75 C56.8655033,36.8787729 56.9884782,36.984668 57.13,37.06 C57.285038,37.1373589 57.4568103,37.1751488 57.63,37.17 C57.7754567,37.1705418 57.9202475,37.1503385 58.06,37.11 C58.1870313,37.0871694 58.3111281,37.0502758 58.43,37 L58.72,36.82 L58.93,36.66 L58.68,36.24 L58.52,35.96 C58.4422038,35.8171831 58.3721037,35.6703065 58.31,35.52 L58.09,34.97 C58.0166667,34.7766667 57.95,34.5833333 57.89,34.39 L57.72,33.81 Z M58.53,33.35 C58.6930077,33.2753267 58.850124,33.1884113 59,33.09 C59.1432725,32.992857 59.2742294,32.8786894 59.39,32.75 C59.504928,32.6219471 59.5993759,32.476902 59.67,32.32 C59.7438207,32.1566548 59.7813494,31.9792466 59.78,31.8 C59.7937277,31.5954848 59.7253453,31.3939368 59.59,31.24 C59.4432281,31.0699755 59.2237816,30.9807091 59,31 L58.79,31 C58.6903421,31.0179004 58.5951932,31.0552804 58.51,31.11 C58.4039865,31.1802953 58.3178831,31.2767311 58.26,31.39 C58.184021,31.5452254 58.1495676,31.7174923 58.16,31.89 C58.1656969,32.1027602 58.1958962,32.314155 58.25,32.52 C58.3237436,32.8028936 58.4173081,33.0802456 58.53,33.35 L58.53,33.35 Z M70,31.13 L69.35,31.13 L68.35,35.55 L68.16,36.3 C68.0958668,36.5425041 68.0053253,36.7772414 67.89,37 C67.746451,37.3017899 67.5421954,37.5707264 67.29,37.79 C67.0465993,38.0022735 66.7328989,38.1163464 66.41,38.11 C66.2674875,38.1003017 66.1282282,38.0629394 66,38 C65.88739,37.962195 65.7824163,37.9046288 65.69,37.83 C65.6028932,37.7586689 65.5314086,37.6701642 65.48,37.57 C65.4270348,37.4680897 65.3995832,37.3548514 65.4,37.24 C65.3902109,37.0893491 65.4490142,36.9423409 65.56,36.84 C65.6525016,36.7534841 65.7733989,36.7037029 65.9,36.7 C66.022486,36.6921874 66.1401147,36.7491045 66.21,36.85 C66.2709542,36.9310341 66.3058298,37.0286859 66.31,37.13 C66.3131501,37.2109094 66.2922725,37.29094 66.25,37.36 L66.16,37.49 L66.1,37.55 L66.1,37.6 C66.0927578,37.6261749 66.0927578,37.6538251 66.1,37.68 C66.1048536,37.7309982 66.1300952,37.7778755 66.17,37.81 C66.2249227,37.8586321 66.2967375,37.8837673 66.37,37.88 C66.53269,37.8787346 66.6864718,37.8055052 66.79,37.68 C66.8866347,37.5439323 66.9577864,37.3914642 67,37.23 C67.0666667,37.0233333 67.13,36.8033333 67.19,36.57 L68.42,31.13 L67.65,31.13 L67.65,30.96 L70,30.96 L70,31.13 Z M73.13,36.44 C72.9271016,36.7617196 72.6491444,37.0293821 72.32,37.22 C72.0639564,37.3677648 71.7754599,37.4501924 71.48,37.46 C71.2762506,37.4598041 71.074964,37.4154528 70.89,37.33 C70.7062785,37.2538066 70.539671,37.1416016 70.4,37 C70.2606518,36.8452519 70.1520504,36.6653808 70.08,36.47 C70.0118847,36.257028 69.9847392,36.0330782 70,35.81 C69.9956667,35.4985183 70.0641529,35.1903305 70.2,34.91 C70.3327805,34.6376429 70.5121464,34.3905917 70.73,34.18 C70.9337395,33.9780108 71.1704752,33.8122958 71.43,33.69 C71.6573073,33.5775159 71.9064565,33.5160818 72.16,33.51 C72.365131,33.5079417 72.5676624,33.556 72.75,33.65 C72.9248957,33.7395551 73.0810372,33.8617528 73.21,34.01 C73.3367169,34.161061 73.4349748,34.3338594 73.5,34.52 C73.5672029,34.7059428 73.6010556,34.9022885 73.6,35.1 C73.6008273,35.3385209 73.560224,35.5753736 73.48,35.8 C73.3922704,36.0279287 73.2745685,36.243155 73.13,36.44 L73.13,36.44 Z M72.69,35.44 C72.69,35.2933333 72.72,35.13 72.78,34.95 C72.7929683,34.7769092 72.7929683,34.6030908 72.78,34.43 C72.790447,34.2258806 72.7380972,34.0234614 72.63,33.85 C72.5087124,33.6878019 72.3116017,33.6006184 72.11,33.62 C71.9300807,33.6155732 71.7539246,33.6719432 71.61,33.78 C71.4745097,33.8809683 71.3591789,34.0064753 71.27,34.15 C71.182863,34.2998269 71.109239,34.4571145 71.05,34.62 C71.0166667,34.8733333 70.9633333,35.09 70.89,35.27 C70.8166667,35.45 70.77,35.66 70.75,35.9 C70.7185462,36.0783234 70.7018231,36.2589331 70.7,36.44 C70.6957561,36.5832229 70.7195348,36.7258953 70.77,36.86 C70.8084145,36.957316 70.8662581,37.0457827 70.94,37.12 C71.0048509,37.1837709 71.0835672,37.2316852 71.17,37.26 C71.2495331,37.2722228 71.3304669,37.2722228 71.41,37.26 C71.5454819,37.2630969 71.6795756,37.2321522 71.8,37.17 C71.9015781,37.1281839 71.9960391,37.0708326 72.08,37 C72.1471543,36.9279704 72.2043319,36.847249 72.25,36.76 L72.34,36.59 C72.3814209,36.498605 72.4181356,36.4051493 72.45,36.31 L72.55,35.99 L72.64,35.69 L72.69,35.47 L72.69,35.44 Z M77.81,33.63 L78.55,33.63 L78,36.07 L78,36.74 C77.9960439,36.79326 77.9960439,36.84674 78,36.9 C77.9866667,36.9592593 77.9866667,37.0207407 78,37.08 C78.0286042,37.1351609 78.0882565,37.1669754 78.15,37.16 C78.2392696,37.1559234 78.3242469,37.1205162 78.39,37.06 C78.4857282,36.9791883 78.5728569,36.8887085 78.65,36.79 C78.7409449,36.6754687 78.8244496,36.5552219 78.9,36.43 C78.9428943,36.2890595 78.9763024,36.1454048 79,36 L79.1,36.1 L78.94,36.43 C78.8606965,36.5882874 78.7669664,36.7389251 78.66,36.88 C78.5502109,37.0254396 78.4225394,37.1564709 78.28,37.27 C78.1477901,37.3794596 77.9816411,37.4395561 77.81,37.44 C77.6144421,37.458996 77.4248756,37.3661471 77.32,37.2 C77.2232708,37.0226314 77.1782316,36.821687 77.19,36.62 C77.1445053,36.705955 77.0944334,36.7894082 77.04,36.87 C76.9740597,36.9686121 76.8968745,37.0592208 76.81,37.14 C76.713081,37.2312768 76.6015321,37.3056428 76.48,37.36 C76.3318363,37.4241272 76.171373,37.4548542 76.01,37.45 C75.8381502,37.4522569 75.6677626,37.4181794 75.51,37.35 C75.3549841,37.2823096 75.2154565,37.1836193 75.1,37.06 C74.976721,36.927027 74.8814934,36.7705816 74.82,36.6 C74.7499764,36.4009463 74.7161101,36.1909753 74.72,35.98 C74.7101594,35.6368398 74.7749877,35.2956381 74.91,34.98 C75.0308859,34.695634 75.196291,34.4323361 75.4,34.2 C75.5898408,33.9846872 75.8167684,33.8051773 76.07,33.67 C76.2874056,33.5491562 76.5312968,33.4838896 76.78,33.48 C76.9133677,33.4770869 77.0459703,33.5008873 77.17,33.55 C77.2630379,33.5908839 77.3477767,33.6485063 77.42,33.72 C77.4930231,33.7870586 77.5509686,33.868864 77.59,33.96 C77.59,34.0333333 77.6166667,34.1133333 77.67,34.2 L77.81,33.63 Z M77.36,35.63 L77.42,35.38 C77.42,35.2866667 77.44,35.19 77.48,35.09 L77.48,34.79 C77.4855532,34.7000857 77.4855532,34.6099143 77.48,34.52 C77.484783,34.3906439 77.464406,34.2615895 77.42,34.14 C77.383616,34.0469608 77.329246,33.9620076 77.26,33.89 C77.2015652,33.8279615 77.1297412,33.7800789 77.05,33.75 C76.9771831,33.7376917 76.9028169,33.7376917 76.83,33.75 C76.6533352,33.749079 76.482498,33.8131429 76.35,33.93 C76.2020579,34.0617988 76.0770245,34.2172457 75.98,34.39 C75.8680393,34.5828864 75.7775014,34.7874349 75.71,35 C75.6366667,35.2266667 75.5766667,35.44 75.53,35.64 C75.4833333,35.84 75.45,36.0233333 75.43,36.19 C75.4239749,36.3032533 75.4239749,36.4167467 75.43,36.53 C75.425217,36.6593561 75.445594,36.7884105 75.49,36.91 C75.5208713,36.9982252 75.5683987,37.0797007 75.63,37.15 C75.6815771,37.2084142 75.746869,37.2530877 75.82,37.28 C75.8928472,37.2919414 75.9671528,37.2919414 76.04,37.28 C76.2246461,37.284696 76.4051007,37.2245445 76.55,37.11 C76.6961658,36.9958127 76.8213637,36.8570798 76.92,36.7 C77.0239613,36.5302873 77.1078569,36.3490729 77.17,36.16 C77.2566667,35.9733333 77.32,35.7966667 77.36,35.63 L77.36,35.63 Z M79.86,33.62 L81.43,33.62 L80.73,36.55 C80.7080165,36.6287995 80.6913128,36.7089774 80.68,36.79 C80.6775978,36.8299639 80.6775978,36.8700361 80.68,36.91 C80.6778233,36.9705853 80.695369,37.0302405 80.73,37.08 C80.7688145,37.1279143 80.8284675,37.1540125 80.89,37.15 C81.0594292,37.1230228 81.2127315,37.0338935 81.32,36.9 C81.5320815,36.6626715 81.6982331,36.3880127 81.81,36.09 L81.95,36.16 C81.8863872,36.3340483 81.8060094,36.5015021 81.71,36.66 C81.6224513,36.8079148 81.5184573,36.9454552 81.4,37.07 C81.2933541,37.1835475 81.1682528,37.2782187 81.03,37.35 C80.899914,37.4161763 80.7559502,37.4504534 80.61,37.45 L80.46,37.45 C80.386876,37.4432433 80.315656,37.4228947 80.25,37.39 C80.172615,37.346827 80.1072899,37.2849401 80.06,37.21 C80.0017823,37.0995829 79.9807402,36.97333 80,36.85 C79.9928444,36.7768412 79.9928444,36.7031588 80,36.63 C80,36.55 80,36.43 80.08,36.28 L80.65,33.79 L79.82,33.79 L79.86,33.62 Z M80.86,31.68 C80.8570342,31.4658331 81.0054321,31.2792554 81.2147733,31.2339506 C81.4241145,31.1886459 81.6363773,31.297171 81.7222277,31.4934004 C81.808078,31.6896298 81.7437214,31.9191759 81.5683709,32.0421738 C81.3930204,32.1651717 81.1552769,32.1475308 81,32 C80.9111812,31.9172181 80.8605169,31.801414 80.86,31.68 L80.86,31.68 Z M83.34,30.95 L84.93,30.95 L83.62,36.56 L83.57,36.8 C83.5654444,36.8432136 83.5654444,36.8867864 83.57,36.93 C83.5664883,36.9846045 83.5844279,37.0384234 83.62,37.08 C83.6593383,37.120203 83.7137874,37.1419826 83.77,37.14 C83.8599533,37.119839 83.940775,37.0706432 84,37 C84.0899756,36.9268524 84.1705843,36.842885 84.24,36.75 C84.3231243,36.6411718 84.3999179,36.5276508 84.47,36.41 C84.54,36.29 84.61,36.17 84.66,36.07 L84.8,36.12 C84.7333333,36.26 84.6566667,36.4033333 84.57,36.55 C84.4874528,36.699241 84.3903109,36.8399292 84.28,36.97 C84.1721293,37.0944441 84.0435725,37.1993194 83.9,37.28 C83.7525776,37.3595752 83.5875258,37.4008382 83.42,37.4 C83.3154224,37.4051716 83.2114895,37.3809206 83.12,37.33 C83.071826,37.291012 83.0311615,37.2435701 83,37.19 C82.9614867,37.1287052 82.9343833,37.0609468 82.92,36.99 C82.9157265,36.9367523 82.9157265,36.8832477 82.92,36.83 C82.9100617,36.7202245 82.9100617,36.6097755 82.92,36.5 C82.92,36.3733333 82.9633333,36.17 83.05,35.89 L84.17,31.12 L83.29,31.12 L83.34,30.95 Z M86.25,30.95 L87.84,30.95 L86.53,36.56 L86.48,36.8 C86.4754444,36.8432136 86.4754444,36.8867864 86.48,36.93 C86.4764883,36.9846045 86.4944279,37.0384234 86.53,37.08 C86.5693383,37.120203 86.6237874,37.1419826 86.68,37.14 C86.7755192,37.1372153 86.8672331,37.1019407 86.94,37.04 C87.0299756,36.9668524 87.1105843,36.882885 87.18,36.79 C87.2631243,36.6811718 87.3399179,36.5676508 87.41,36.45 C87.48,36.33 87.55,36.21 87.6,36.11 L87.74,36.16 C87.6733333,36.3 87.5966667,36.4433333 87.51,36.59 C87.4274528,36.739241 87.3303109,36.8799292 87.22,37.01 C87.1121293,37.1344441 86.9835725,37.2393194 86.84,37.32 C86.6925776,37.3995752 86.5275258,37.4408382 86.36,37.44 C86.2554224,37.4451716 86.1514895,37.4209206 86.06,37.37 C85.9905957,37.3276903 85.9323097,37.2694043 85.89,37.2 C85.847967,37.139429 85.8174574,37.07163 85.8,37 C85.7957265,36.9467523 85.7957265,36.8932477 85.8,36.84 C85.7900617,36.7302245 85.7900617,36.6197755 85.8,36.51 C85.8,36.3833333 85.8433333,36.18 85.93,35.9 L87.05,31.13 L86.2,31.13 L86.25,30.95 Z M88.58,33.62 L90.15,33.62 L89.45,36.55 C89.4280165,36.6287995 89.4113128,36.7089774 89.4,36.79 C89.3975978,36.8299639 89.3975978,36.8700361 89.4,36.91 C89.3978233,36.9705853 89.415369,37.0302405 89.45,37.08 C89.4888145,37.1279143 89.5484675,37.1540125 89.61,37.15 C89.7663558,37.111496 89.904321,37.0195192 90,36.89 C90.2120815,36.6526715 90.3782331,36.3780127 90.49,36.08 L90.63,36.15 C90.5663872,36.3240483 90.4860094,36.4915021 90.39,36.65 C90.3024513,36.7979148 90.1984573,36.9354552 90.08,37.06 C89.9733541,37.1735475 89.8482528,37.2682187 89.71,37.34 C89.579914,37.4061763 89.4359502,37.4404534 89.29,37.44 L89.18,37.44 C89.1165624,37.426712 89.0557478,37.4030619 89,37.37 C88.922615,37.326827 88.8572899,37.2649401 88.81,37.19 C88.7455324,37.0887136 88.7140862,36.9699168 88.72,36.85 C88.7128444,36.7768412 88.7128444,36.7031588 88.72,36.63 C88.72,36.55 88.72,36.43 88.8,36.28 L89.37,33.79 L88.54,33.79 L88.58,33.62 Z M89.58,31.68 C89.5817165,31.4654235 89.7347022,31.281911 89.9454668,31.241608 C90.1562313,31.201305 90.3661313,31.3154256 90.4468956,31.5142299 C90.5276598,31.7130343 90.4568164,31.9412068 90.2776582,32.05931 C90.0985,32.1774131 89.8608761,32.1525858 89.71,32 C89.6248615,31.9155113 89.5779055,31.7999271 89.58,31.68 L89.58,31.68 Z M94.57,36.48 C94.4464414,36.6506175 94.3057046,36.8081087 94.15,36.95 C94.0220835,37.0659192 93.8811397,37.1665934 93.73,37.25 C93.6036788,37.3194214 93.4693508,37.3731526 93.33,37.41 C93.2071457,37.4253727 93.0828543,37.4253727 92.96,37.41 C92.7668339,37.4111419 92.5757373,37.3701926 92.4,37.29 C92.2503072,37.2181826 92.1148026,37.1199418 92,37 C91.8673454,36.8514477 91.7653883,36.6781207 91.7,36.49 C91.6255374,36.2814506 91.5883045,36.0614377 91.59,35.84 C91.5928849,35.5805269 91.6402376,35.3234694 91.73,35.08 C91.8205893,34.8216731 91.9559932,34.5813312 92.13,34.37 C92.2552421,34.2184529 92.3998066,34.0839744 92.56,33.97 C92.7103157,33.8665381 92.8712232,33.7793799 93.04,33.71 C93.1916999,33.6480429 93.3491237,33.6011506 93.51,33.57 C93.6463395,33.5566268 93.7836605,33.5566268 93.92,33.57 C94.1980889,33.5598417 94.4719135,33.6405848 94.7,33.8 C94.8995232,33.9381036 95.0160607,34.1674194 95.01,34.41 C95.0130201,34.5773693 94.9641112,34.7415635 94.87,34.88 C94.7762147,35.0147281 94.6573893,35.1301584 94.52,35.22 C94.3652883,35.3228329 94.197004,35.4036094 94.02,35.46 C93.8335607,35.5201258 93.6430798,35.5669105 93.45,35.6 L92.89,35.67 L92.38,35.67 C92.3754278,35.7532706 92.3754278,35.8367294 92.38,35.92 C92.3696349,36.0698209 92.3696349,36.2201791 92.38,36.37 L92.38,36.59 C92.3898449,36.6969592 92.4168576,36.8016337 92.46,36.9 C92.5087327,37.0102814 92.5843794,37.1065591 92.68,37.18 C92.8057445,37.2672512 92.9572465,37.3095308 93.11,37.3 C93.2612953,37.3005785 93.4110835,37.2699401 93.55,37.21 C93.6855357,37.1490473 93.8131421,37.0718118 93.93,36.98 C94.0434949,36.8911463 94.1504386,36.7942286 94.25,36.69 L94.5,36.41 L94.57,36.48 Z M92.41,35.48 L92.67,35.48 C93.0505472,35.433853 93.4178741,35.3114107 93.75,35.12 C93.9008074,35.0209652 94.0356817,34.8995783 94.15,34.76 C94.2346686,34.658266 94.302218,34.543432 94.35,34.42 C94.3787466,34.3430001 94.3956063,34.2620734 94.4,34.18 L94.4,34.09 C94.3922369,34.0297303 94.3717875,33.9717905 94.34,33.92 C94.2964664,33.85424 94.2382753,33.7994719 94.17,33.76 C94.0718907,33.7074377 93.9610946,33.683201 93.85,33.69 C93.7010067,33.690883 93.5540937,33.7250488 93.42,33.79 C93.2664669,33.8686248 93.1304095,33.9774707 93.02,34.11 C92.8780866,34.2796474 92.7603052,34.4680975 92.67,34.67 C92.5519344,34.9358348 92.4646994,35.2143156 92.41,35.5 L92.41,35.48 Z M97.15,34.85 C97.2166667,34.6966667 97.2933333,34.5433333 97.38,34.39 C97.4640722,34.2385637 97.5611013,34.0946928 97.67,33.96 C97.7709018,33.8336111 97.8926529,33.7253879 98.03,33.64 C98.1594768,33.5610016 98.308327,33.519462 98.46,33.52 C98.5784827,33.5122499 98.6957491,33.5477851 98.79,33.62 C98.8706498,33.6901182 98.9148453,33.793241 98.91,33.9 C98.9148717,33.9431964 98.9148717,33.9868036 98.91,34.03 C98.8982908,34.0797999 98.8779867,34.1271762 98.85,34.17 C98.8188067,34.2179312 98.7779312,34.2588067 98.73,34.29 C98.6678782,34.3075193 98.6021218,34.3075193 98.54,34.29 C98.4602651,34.2969478 98.3810596,34.2717461 98.32,34.22 L98.23,34.12 L98.23,34 C98.2013727,33.9871657 98.1686273,33.9871657 98.14,34 C98.0734216,34.0003421 98.0093171,34.0252717 97.96,34.07 C97.8791863,34.1473452 97.8086121,34.2347228 97.75,34.33 C97.6516473,34.4782752 97.5615116,34.6318398 97.48,34.79 C97.4048313,34.9360752 97.3380561,35.0863192 97.28,35.24 C97.22,35.3933333 97.1666667,35.5533333 97.12,35.72 C97.0733333,35.8866667 97.0266667,36.0666667 96.98,36.26 L96.72,37.38 L96,37.38 L96.81,33.82 L95.99,33.82 L95.99,33.65 L97.5,33.65 L97.15,34.85 Z M73,21.22 L73,21.84 L67.18,21.84 L67.18,21.26 C67.63,21.26 68.05,21.2 68.47,21.14 C69.0928304,21.1038709 69.5971855,20.6207071 69.66,20 C69.7156592,19.6694755 69.7457484,19.3351512 69.75,19 L69.75,6.85 C69.7583173,6.69010809 69.7583173,6.52989191 69.75,6.37 C69.7899363,5.82311899 69.5784138,5.28785716 69.1754191,4.91601178 C68.7724243,4.54416639 68.2219104,4.37629316 67.68,4.46 L67.2,4.46 L67.2,3.8 C67.3031777,3.79197961 67.4068223,3.79197961 67.51,3.8 L71.99,3.8 C72.2474307,3.78591215 72.4748883,3.96616155 72.52,4.22 C74.32,8.64 76.1266667,13.0566667 77.94,17.47 L78.17,17.99 L78.93,16.33 C80.7633333,12.33 82.5933333,8.30333333 84.42,4.25 C84.5057535,3.95927532 84.7891375,3.7731724 85.09,3.81 L89.09,3.81 L89.09,4.42 C88.71,4.42 88.35,4.42 87.99,4.51 C87.2355897,4.50992077 86.6209335,5.11566893 86.61,5.87 C86.5770788,6.1387506 86.5603819,6.40924079 86.56,6.68 L86.56,18.83 C86.5673726,19.2237039 86.6142747,19.6156716 86.7,20 C86.781197,20.6548658 87.3401386,21.1450146 88,21.14 C88.36,21.14 88.72,21.2 89.12,21.23 L89.12,21.85 L81.42,21.85 L81.42,21.23 C81.78,21.23 82.13,21.23 82.49,21.16 C82.8553695,21.1854753 83.2145346,21.0556442 83.4791655,20.8024362 C83.7437965,20.5492281 83.8893391,20.1961375 83.88,19.83 C84,19 84,18.09 84,17.21 C84,13.99 84,10.76 84.07,7.54 C84.0818338,7.41634187 84.0420237,7.29329249 83.96,7.2 L77.51,21.88 L70.51,5.56 L70.51,19.22 C70.51,20.7 71.03,21.22 72.51,21.22 L73,21.22 L73,21.22 Z M41.91,4.37 L41.91,3.79 L46.66,3.79 C46.9449771,3.76266781 47.2060147,3.95095723 47.27,4.23 C49.07,8.65 50.8766667,13.0666667 52.69,17.48 C52.75,17.62 52.82,17.76 52.92,17.97 L55.18,12.97 C56.5133333,10.0433333 57.8466667,7.11333333 59.18,4.18 C59.2566621,3.90194169 59.5231242,3.72007072 59.81,3.75 L63.92,3.75 L63.92,4.32 C63.53,4.32 63.16,4.32 62.79,4.41 C62.4169578,4.40999048 62.0593384,4.55886198 61.7964981,4.8235797 C61.5336578,5.08829742 61.3873354,5.44696731 61.39,5.82 C61.39,6.15 61.34,6.49 61.34,6.82 L61.34,18.59 C61.336984,19.0328552 61.3771743,19.4749486 61.46,19.91 C61.5322614,20.5932296 62.1130183,21.1089764 62.8,21.1 C63.16,21.1 63.52,21.16 63.91,21.19 L63.91,21.8 L56.17,21.8 L56.17,21.23 C56.56,21.23 56.96,21.23 57.34,21.15 C57.9950907,21.1525008 58.5428139,20.6525947 58.6,20 C58.678811,19.5139444 58.7189369,19.0224024 58.72,18.53 C58.72,14.77 58.7466667,11.0066667 58.8,7.24 C58.7857502,7.17823396 58.7656598,7.11796273 58.74,7.06 L52.26,21.89 L45.26,5.68 L45.2,5.68 L45.2,18.88 C45.1971726,19.2150386 45.2239433,19.5496722 45.28,19.88 C45.3170138,20.5666504 45.8823661,21.1057073 46.57,21.11 C46.96,21.16 47.35,21.18 47.77,21.22 L47.77,21.81 L41.93,21.81 L41.93,21.26 C42.35,21.26 42.76,21.21 43.16,21.15 C43.8470639,21.1291657 44.3991657,20.5770639 44.42,19.89 C44.4661644,19.5955724 44.489567,19.2980245 44.49,19 L44.49,6.66 C44.4907014,6.40545652 44.4706349,6.15128009 44.43,5.9 C44.3683763,5.06764021 43.6844365,4.4183303 42.85,4.4 C42.56,4.4 42.26,4.39 41.91,4.37 L41.91,4.37 Z M20.21,6.31 C19.28,6.38 19.21,6.39 19,5.76 C16.84,0.36 10,0.46 6.94,3.54 C5.25398104,5.21440624 4.19479808,7.4175068 3.94,9.78 C3.55978986,12.357032 3.90610595,14.9890343 4.94,17.38 C6.24643284,20.3993617 9.37018073,22.2127582 12.64,21.85 C14.0855605,21.7607714 15.4992707,21.3869538 16.8,20.75 C17.0424805,20.6666535 17.1929173,20.4242831 17.16,20.17 C17.16,18.65 17.16,17.17 17.11,15.6 C17.1098641,15.3292331 17.0931662,15.058728 17.06,14.79 C17.026416,14.1033416 16.4856782,13.5497291 15.8,13.5 C15.36,13.44 14.91,13.45 14.43,13.42 L14.43,12.85 L22.77,12.85 L22.77,13.46 L21.3,13.46 C20.53,13.46 20.3,13.67 20.3,14.46 L20.3,20.03 C20.3425706,20.3571646 20.150918,20.6696417 19.84,20.78 C16.188425,22.6852041 11.9298664,23.0628635 8,21.83 C3.3376986,20.419097 0.303436461,15.9323958 0.73,11.08 C1.01188374,5.80910862 5.02355209,1.49435514 10.26,0.83 C13.474891,0.370510662 16.7528721,0.933749679 19.63,2.44 C20.0237818,2.61014116 20.2651845,3.01247904 20.23,3.44 C20.17,4.42 20.21,5.35 20.21,6.31 L20.21,6.31 Z M109,12.8 C109.06,9.65 110.09,6.92 112.79,5.06 C117.67,1.69 126.18,3.71 127.07,11.58 C127.414263,13.933732 126.864873,16.3310699 125.53,18.3 C123.255123,21.462718 119.220877,22.8288203 115.492428,21.6989873 C111.763979,20.5691544 109.166636,17.1934796 109.03,13.3 C109,13.17 109,13 109,12.8 L109,12.8 Z M124.53,13 C124.581794,11.1899312 124.201273,9.39359834 123.42,7.76 C122.316864,5.27741208 119.683317,3.8457795 117,4.27 C114.825796,4.60943096 113.03805,6.16399251 112.4,8.27 C111.551441,10.5940549 111.374692,13.1101362 111.89,15.53 C112.102544,17.1764284 112.842847,18.7096642 114,19.9 C115.230048,21.0348505 116.888481,21.5863564 118.553187,21.4141454 C120.217894,21.2419344 121.728311,20.3626164 122.7,19 C123.937734,17.2480397 124.579311,15.1445093 124.53,13 L124.53,13 Z M39.76,17.94 C39.34,19.2 38.92,20.44 38.48,21.68 C38.3785326,21.8013411 38.2281716,21.8710206 38.07,21.87 L24.48,21.87 L24.48,21.27 C24.98,21.27 25.48,21.22 25.98,21.14 C26.2634878,21.1414214 26.534257,21.022452 26.7249539,20.8126854 C26.9156508,20.6029188 27.0083527,20.32207 26.98,20.04 L26.98,19.33 L26.98,7.08 C26.9843516,6.62096358 26.9475375,6.16246138 26.87,5.71 C26.8375333,4.96814686 26.2120271,4.39178756 25.47,4.42 C25.14,4.42 24.81,4.42 24.47,4.35 L24.47,3.82 L38.09,3.82 L38.31,7.45 L38.18,7.54 C38.0872722,7.4524839 38.000417,7.35894759 37.92,7.26 C37.9078561,7.19724881 37.9078561,7.13275119 37.92,7.07 C37.57,5.21 36.79,4.48 34.92,4.41 C33.37,4.35 31.81,4.41 30.25,4.41 C29.76,4.41 29.65,4.56 29.65,5.17 L29.65,12.86 L33.48,12.86 C33.9851746,12.8991697 34.4823297,12.7161896 34.8415735,12.3588669 C35.2008173,12.0015442 35.3864605,11.5053774 35.35,11 C35.35,10.75 35.41,10.5 35.44,10.22 L36.08,10.22 L36.08,16 L35.46,16 C35.39,15.6 35.34,15.19 35.25,14.79 C35.1607643,14.0931732 34.5909514,13.5568788 33.89,13.51 C32.49,13.44 31.07,13.51 29.63,13.51 L29.63,20.1 C29.63,21.1 29.77,21.23 30.77,21.22 C32.39,21.22 34.01,21.22 35.63,21.14 C37.3437858,21.0976576 38.8289783,19.9411553 39.29,18.29 C39.41,17.93 39.41,17.93 39.76,17.94 L39.76,17.94 Z M104,21.22 L104,21.84 L96.25,21.84 L96.25,21.23 L97,21.23 C97.4687986,21.3049205 97.9460777,21.1608687 98.295148,20.8390999 C98.6442183,20.5173312 98.8265778,20.0533363 98.79,19.58 C98.85,17.8 98.79,16.02 98.79,14.25 C98.7506117,14.0169184 98.6544489,13.7971176 98.51,13.61 C97.05,11.19 95.56,8.79 94.13,6.36 C93.44,5.18 92.64,4.26 91.13,4.36 L91.13,4.04 L91.13,3.77 L98.13,3.77 L98.13,4.32 C97.77,4.32 97.42,4.32 97.13,4.41 C96.8840711,4.39527211 96.6494117,4.51471735 96.5166053,4.72222737 C96.3837989,4.92973739 96.3736208,5.19285068 96.49,5.41 C96.5366206,5.57763426 96.6037973,5.73885828 96.69,5.89 L100.99,13.15 C101.11,13 101.19,12.89 101.27,12.78 C102.71,10.6333333 104.146667,8.48333333 105.58,6.33 C105.990172,5.95177493 106.13224,5.36377429 105.94,4.84 C105.59975,4.42455656 105.053057,4.23844849 104.53,4.36 L104.08,4.36 L104.08,3.8 L109.2,3.8 L109.2,4.38 C107.66,4.38 106.92,5.49 106.2,6.6 C104.686667,8.92666667 103.18,11.26 101.68,13.6 C101.586439,13.7258529 101.527794,13.8741927 101.51,14.03 L101.51,19.65 C101.51,20.8 101.95,21.16 103.1,21.22 C103.38,21.23 103.68,21.22 104,21.22 L104,21.22 Z" id="Shape"></path>
            </g>
        </g>
    </g>
</svg>