<?xml version="1.0" encoding="UTF-8" standalone="no"?>
<svg width="1898px" height="380px" viewBox="0 0 1898 380" version="1.1" xmlns="http://www.w3.org/2000/svg" xmlns:xlink="http://www.w3.org/1999/xlink">
    <!-- Generator: Sketch 3.8.2 (29753) - http://www.bohemiancoding.com/sketch -->
    <title>Aquarelle</title>
    <desc>Created with Sketch.</desc>
    <defs></defs>
    <g id="Page-1" stroke="none" stroke-width="1" fill="none" fill-rule="evenodd">
        <g id="Aquarelle" fill="#FF3366">
            <g id="AQUARELLE_COLLECTIONS_DE_BOUQU_1_">
                <path d="M0.9,232.2 L97.3,2.1 L115.8,2.1 L212.2,232.2 L187.9,232.2 L158,160.3 L54.5,160.3 L25,232.2 L0.9,232.2 L0.9,232.2 Z M106.7,28.7 L59.3,142.5 L152.8,142.5 L106.7,28.7 L106.7,28.7 Z M402,211.8 C393.1,218.7 383.4,224.1 373,228 C362.5,231.9 351.2,233.8 339.1,233.8 C323.1,233.8 308.4,230.5 295.1,223.8 C281.8,217.1 270.4,208.4 260.9,197.5 C251.4,186.7 244,174.3 238.8,160.2 C233.6,146.2 231,131.8 231,117.1 C231,101.8 233.8,87.1 239.3,73 C244.8,59 252.4,46.5 262.2,35.7 C271.9,24.9 283.4,16.3 296.6,9.9 C309.8,3.5 324.1,0.3 339.4,0.3 C355.4,0.3 370.1,3.7 383.4,10.5 C396.7,17.3 408.1,26.2 417.5,37.2 C426.9,48.2 434.2,60.7 439.4,74.6 C444.6,88.5 447.2,102.7 447.2,117.2 C447.2,133 444.3,148 438.6,162.2 C432.9,176.5 424.9,189 414.7,199.8 L442,231.9 L419.6,231.9 L402,211.8 L402,211.8 Z M339,213.4 C348.7,213.4 357.7,211.8 365.9,208.7 C374.1,205.6 381.7,201.3 388.6,195.9 L359.7,161.5 L382.1,161.5 L400.6,183.5 C408.2,174.4 414,164.1 418.1,152.5 C422.2,140.9 424.3,129.1 424.3,117 C424.3,104.5 422.2,92.4 418,80.9 C413.8,69.3 407.9,59.1 400.3,50.3 C392.7,41.4 383.8,34.3 373.4,28.9 C363,23.5 351.5,20.8 339,20.8 C326,20.8 314.2,23.6 303.6,29.1 C293.1,34.7 284.1,42 276.7,51 C269.3,60.1 263.7,70.4 259.7,82 C255.7,93.6 253.7,105.3 253.7,117.2 C253.7,129.7 255.8,141.8 259.9,153.3 C264,164.9 269.8,175.1 277.4,184.1 C285,193.1 293.9,200.2 304.3,205.5 C314.7,210.8 326.3,213.4 339,213.4 L339,213.4 Z M584,213.4 C598.5,213.4 610.6,210.6 620.2,205.1 C629.8,199.6 637.5,192.4 643.2,183.4 C648.9,174.4 652.9,164.2 655.2,152.8 C657.5,141.4 658.6,129.8 658.6,118.1 L658.6,2.1 L681.3,2.1 L681.3,118.1 C681.3,133.7 679.6,148.4 676.1,162.3 C672.6,176.2 667.1,188.5 659.4,199.1 C651.7,209.7 641.7,218.1 629.4,224.4 C617.1,230.7 602,233.8 584.3,233.8 C565.9,233.8 550.6,230.5 538.2,223.9 C525.9,217.3 515.9,208.6 508.3,197.8 C500.7,187 495.3,174.7 492.1,160.9 C488.9,147.1 487.2,132.8 487.2,118.1 L487.2,2.1 L509.6,2.1 L509.6,118.1 C509.6,130.2 510.8,142 513.2,153.4 C515.6,164.9 519.6,175 525.4,183.9 C531.1,192.8 538.8,199.9 548.3,205.3 C557.9,210.7 569.8,213.4 584,213.4 L584,213.4 Z M702.2,232.2 L798.6,2.1 L817,2.1 L913.4,232.2 L889.1,232.2 L859.2,160.3 L755.7,160.3 L726.2,232.2 L702.2,232.2 L702.2,232.2 Z M808,28.7 L760.6,142.5 L854,142.5 L808,28.7 L808,28.7 Z M946.8,232.2 L946.8,2.1 L1043.8,2.1 C1053.7,2.1 1062.9,4.2 1071.4,8.4 C1079.8,12.6 1087.1,18.1 1093.1,24.9 C1099.2,31.7 1103.9,39.4 1107.2,48.1 C1110.6,56.7 1112.2,65.5 1112.2,74.4 C1112.2,82.8 1111,90.9 1108.5,98.5 C1106,106.2 1102.5,113.1 1098,119.2 C1093.5,125.4 1088,130.5 1081.8,134.8 C1075.5,139 1068.5,141.9 1060.7,143.4 L1117.5,232.2 L1091.9,232.2 L1037.4,147.3 L969.3,147.3 L969.3,232.2 L946.8,232.2 L946.8,232.2 Z M969.2,127.2 L1044.8,127.2 C1051.5,127.2 1057.6,125.7 1063.1,122.8 C1068.6,119.9 1073.3,115.9 1077.2,111 C1081.1,106 1084.1,100.4 1086.3,94.1 C1088.5,87.8 1089.5,81.2 1089.5,74.3 C1089.5,67.4 1088.3,60.7 1085.8,54.4 C1083.3,48 1080,42.5 1075.7,37.7 C1071.5,32.9 1066.5,29.2 1060.8,26.4 C1055.1,23.6 1049.1,22.2 1042.8,22.2 L969.1,22.2 L969.1,127.2 L969.2,127.2 Z M1315.8,212.1 L1315.8,232.2 L1161,232.2 L1161,2.1 L1312.9,2.1 L1312.9,22.2 L1183.4,22.2 L1183.4,105.2 L1296.3,105.2 L1296.3,124.3 L1183.4,124.3 L1183.4,212.1 L1315.8,212.1 L1315.8,212.1 Z M1359.9,232.2 L1359.9,2.1 L1382.3,2.1 L1382.3,212.1 L1515.7,212.1 L1515.7,232.2 L1359.9,232.2 L1359.9,232.2 Z M1551.4,232.2 L1551.4,2.1 L1573.8,2.1 L1573.8,212.1 L1707.2,212.1 L1707.2,232.2 L1551.4,232.2 L1551.4,232.2 Z M1897.6,212.1 L1897.6,232.2 L1742.8,232.2 L1742.8,2.1 L1894.7,2.1 L1894.7,22.2 L1765.2,22.2 L1765.2,105.2 L1878.1,105.2 L1878.1,124.3 L1765.2,124.3 L1765.2,212.1 L1897.6,212.1 L1897.6,212.1 Z M11.7,342 C11.7,337.7 12.5,333.4 14,329.1 C15.5,324.8 17.7,321 20.6,317.6 C23.5,314.2 27.1,311.5 31.3,309.3 C35.6,307.2 40.4,306.1 45.8,306.1 C52.2,306.1 57.7,307.6 62.2,310.5 C66.7,313.4 70.1,317.2 72.3,321.8 L66.6,325.2 C65.4,322.8 64.1,320.8 62.4,319.2 C60.7,317.6 59,316.3 57.1,315.2 C55.2,314.2 53.2,313.5 51.2,313 C49.2,312.6 47.2,312.3 45.2,312.3 C40.9,312.3 37.1,313.2 33.7,314.9 C30.4,316.7 27.6,319 25.3,321.8 C23,324.6 21.3,327.8 20.2,331.4 C19,334.9 18.5,338.5 18.5,342.2 C18.5,346.2 19.2,350 20.6,353.6 C22,357.2 23.9,360.5 26.3,363.3 C28.7,366.1 31.5,368.3 34.8,370 C38.1,371.7 41.6,372.5 45.5,372.5 C47.5,372.5 49.6,372.2 51.7,371.7 C53.8,371.2 55.9,370.4 57.9,369.3 C59.9,368.2 61.7,366.8 63.4,365.1 C65.1,363.4 66.5,361.4 67.7,359.1 L73.6,362.1 C72.4,364.8 70.8,367.2 68.7,369.2 C66.6,371.3 64.3,373 61.7,374.4 C59.1,375.8 56.4,376.9 53.5,377.6 C50.6,378.3 47.8,378.7 45,378.7 C40.1,378.7 35.5,377.6 31.4,375.5 C27.3,373.3 23.7,370.5 20.8,367 C17.8,363.5 15.5,359.6 13.9,355.2 C12.5,351.1 11.7,346.6 11.7,342 L11.7,342 Z M134.9,379 C129.9,379 125.3,378 121.2,375.9 C117,373.8 113.5,371.1 110.5,367.7 C107.5,364.3 105.2,360.4 103.6,356 C102,351.6 101.2,347.1 101.2,342.5 C101.2,337.7 102.1,333.1 103.8,328.7 C105.5,324.3 107.9,320.4 110.9,317.1 C113.9,313.7 117.5,311 121.6,309 C125.7,307 130.2,306 135,306 C140,306 144.6,307.1 148.7,309.2 C152.8,311.3 156.4,314.1 159.3,317.6 C162.2,321.1 164.5,324.9 166.1,329.3 C167.7,333.7 168.5,338.1 168.5,342.6 C168.5,347.4 167.6,352 165.9,356.4 C164.2,360.8 161.8,364.7 158.8,368 C155.8,371.3 152.2,374 148.1,376 C144.2,378 139.7,379 134.9,379 L134.9,379 Z M108.3,342.5 C108.3,346.4 108.9,350.2 110.2,353.8 C111.5,357.4 113.3,360.6 115.7,363.4 C118.1,366.2 120.9,368.4 124.1,370.1 C127.3,371.8 131,372.6 135,372.6 C139.1,372.6 142.7,371.7 146.1,370 C149.4,368.2 152.2,365.9 154.5,363.1 C156.8,360.3 158.6,357.1 159.8,353.5 C161,349.9 161.7,346.3 161.7,342.6 C161.7,338.7 161,334.9 159.7,331.3 C158.4,327.7 156.5,324.5 154.2,321.7 C151.8,318.9 149,316.7 145.8,315.1 C142.6,313.4 139,312.6 135.1,312.6 C131,312.6 127.4,313.5 124,315.2 C120.7,316.9 117.9,319.2 115.6,322 C113.3,324.8 111.5,328 110.3,331.6 C108.9,335.2 108.3,338.8 108.3,342.5 L108.3,342.5 Z M202.7,378.5 L202.7,306.6 L209.7,306.6 L209.7,372.2 L251.4,372.2 L251.4,378.5 L202.7,378.5 L202.7,378.5 Z M282.8,378.5 L282.8,306.6 L289.8,306.6 L289.8,372.2 L331.5,372.2 L331.5,378.5 L282.8,378.5 L282.8,378.5 Z M411.3,372.2 L411.3,378.5 L362.9,378.5 L362.9,306.6 L410.4,306.6 L410.4,312.9 L369.9,312.9 L369.9,338.8 L405.2,338.8 L405.2,344.8 L369.9,344.8 L369.9,372.2 L411.3,372.2 L411.3,372.2 Z M440.7,342 C440.7,337.7 441.5,333.4 443,329.1 C444.5,324.8 446.7,321 449.6,317.6 C452.5,314.2 456.1,311.5 460.3,309.3 C464.6,307.2 469.4,306.1 474.8,306.1 C481.2,306.1 486.7,307.6 491.2,310.5 C495.7,313.4 499.1,317.2 501.3,321.8 L495.6,325.2 C494.4,322.8 493.1,320.8 491.4,319.2 C489.7,317.6 488,316.3 486.1,315.2 C484.2,314.2 482.2,313.5 480.2,313 C478.2,312.6 476.2,312.3 474.2,312.3 C469.9,312.3 466.1,313.2 462.7,314.9 C459.4,316.7 456.6,319 454.3,321.8 C452,324.6 450.3,327.8 449.2,331.4 C448,334.9 447.5,338.5 447.5,342.2 C447.5,346.2 448.2,350 449.6,353.6 C451,357.2 452.9,360.5 455.3,363.3 C457.7,366.1 460.5,368.3 463.8,370 C467.1,371.7 470.6,372.5 474.5,372.5 C476.5,372.5 478.6,372.2 480.7,371.7 C482.8,371.2 484.9,370.4 486.9,369.3 C488.9,368.2 490.7,366.8 492.4,365.1 C494.1,363.4 495.5,361.4 496.7,359.1 L502.6,362.1 C501.4,364.8 499.8,367.2 497.7,369.2 C495.6,371.3 493.3,373 490.7,374.4 C488.1,375.8 485.4,376.9 482.5,377.6 C479.6,378.3 476.8,378.7 474,378.7 C469.1,378.7 464.5,377.6 460.4,375.5 C456.3,373.3 452.7,370.5 449.8,367 C446.8,363.5 444.5,359.6 442.9,355.2 C441.5,351.1 440.7,346.6 440.7,342 L440.7,342 Z M585.9,312.9 L560.2,312.9 L560.2,378.5 L553.1,378.5 L553.1,312.9 L527.4,312.9 L527.4,306.6 L585.8,306.6 L585.8,312.9 L585.9,312.9 Z M617.2,378.5 L617.2,306.7 L624.2,306.7 L624.2,378.5 L617.2,378.5 L617.2,378.5 Z M692,379 C687,379 682.4,378 678.3,375.9 C674.1,373.8 670.6,371.1 667.6,367.7 C664.6,364.3 662.3,360.4 660.7,356 C659.1,351.6 658.3,347.1 658.3,342.5 C658.3,337.7 659.2,333.1 660.9,328.7 C662.6,324.3 665,320.4 668,317.1 C671,313.7 674.6,311 678.7,309 C682.8,307 687.3,306 692.1,306 C697.1,306 701.7,307.1 705.8,309.2 C709.9,311.3 713.5,314.1 716.4,317.6 C719.3,321.1 721.6,324.9 723.2,329.3 C724.8,333.7 725.6,338.1 725.6,342.6 C725.6,347.4 724.7,352 723,356.4 C721.3,360.8 718.9,364.7 715.9,368 C712.9,371.3 709.3,374 705.2,376 C701.2,378 696.8,379 692,379 L692,379 Z M665.3,342.5 C665.3,346.4 665.9,350.2 667.2,353.8 C668.5,357.4 670.3,360.6 672.7,363.4 C675.1,366.2 677.9,368.4 681.1,370.1 C684.3,371.8 688,372.6 692,372.6 C696.1,372.6 699.7,371.7 703.1,370 C706.4,368.2 709.2,365.9 711.5,363.1 C713.8,360.3 715.6,357.1 716.8,353.5 C718,349.9 718.7,346.3 718.7,342.6 C718.7,338.7 718,334.9 716.7,331.3 C715.4,327.7 713.5,324.5 711.2,321.7 C708.8,318.9 706,316.7 702.8,315.1 C699.6,313.4 696,312.6 692.1,312.6 C688,312.6 684.4,313.5 681,315.2 C677.7,316.9 674.9,319.2 672.6,322 C670.3,324.8 668.5,328 667.3,331.6 C665.9,335.2 665.3,338.8 665.3,342.5 L665.3,342.5 Z M766.7,319.8 L766.7,378.5 L759.7,378.5 L759.7,306.6 L765.2,306.6 L812.9,366.5 L812.9,306.7 L819.9,306.7 L819.9,378.5 L813.8,378.5 L766.7,319.8 L766.7,319.8 Z M900.7,320.1 C898.7,317.8 895.9,315.9 892.5,314.5 C889.1,313.1 885.2,312.4 881,312.4 C874.6,312.4 869.9,313.6 867,316 C864.1,318.4 862.6,321.7 862.6,325.8 C862.6,328 863,329.7 863.8,331.1 C864.6,332.5 865.8,333.7 867.5,334.7 C869.2,335.7 871.3,336.6 873.8,337.3 C876.3,338 879.3,338.8 882.8,339.5 C886.7,340.3 890.1,341.2 893.1,342.2 C896.1,343.2 898.7,344.4 900.9,345.9 C903.1,347.4 904.7,349.3 905.9,351.5 C907,353.7 907.6,356.4 907.6,359.7 C907.6,363 907,365.9 905.7,368.3 C904.4,370.7 902.6,372.8 900.3,374.4 C898,376 895.3,377.2 892.1,378 C888.9,378.8 885.5,379.2 881.8,379.2 C870.5,379.2 860.9,375.7 852.9,368.8 L856.3,363 C858.9,365.8 862.5,368.1 866.9,370 C871.4,371.9 876.3,372.9 881.8,372.9 C887.5,372.9 892,371.9 895.3,369.8 C898.5,367.7 900.2,364.6 900.2,360.4 C900.2,358.2 899.7,356.3 898.8,354.8 C897.9,353.3 896.5,352 894.7,350.8 C892.9,349.7 890.6,348.7 887.9,347.9 C885.2,347.1 882,346.3 878.4,345.5 C874.6,344.6 871.3,343.7 868.5,342.8 C865.7,341.9 863.3,340.7 861.4,339.3 C859.5,337.9 858,336.2 857,334.2 C856,332.2 855.5,329.8 855.5,326.9 C855.5,323.6 856.1,320.6 857.4,318 C858.6,315.4 860.4,313.2 862.7,311.5 C865,309.8 867.7,308.5 870.8,307.5 C873.9,306.6 877.4,306.1 881.2,306.1 C885.9,306.1 890.2,306.8 893.9,308.3 C897.7,309.8 901,311.8 904.1,314.4 L900.7,320.1 L900.7,320.1 Z M987,378.5 L987,306.6 L1011.3,306.6 C1017,306.6 1022.1,307.5 1026.4,309.4 C1030.7,311.3 1034.3,313.9 1037.2,317.1 C1040.1,320.3 1042.2,324.1 1043.6,328.5 C1045,332.9 1045.7,337.5 1045.7,342.4 C1045.7,347.9 1044.9,352.8 1043.3,357.2 C1041.7,361.6 1039.4,365.4 1036.4,368.5 C1033.4,371.6 1029.8,374.1 1025.5,375.8 C1021.2,377.5 1016.5,378.4 1011.2,378.4 L987,378.4 L987,378.5 Z M1038.7,342.4 C1038.7,338.1 1038.1,334.1 1036.9,330.5 C1035.7,326.9 1033.9,323.8 1031.6,321.1 C1029.3,318.5 1026.4,316.4 1023,315 C1019.6,313.5 1015.7,312.8 1011.3,312.8 L994,312.8 L994,372.2 L1011.3,372.2 C1015.8,372.2 1019.7,371.4 1023.1,369.9 C1026.5,368.4 1029.4,366.3 1031.7,363.6 C1034,360.9 1035.7,357.8 1036.9,354.2 C1038.1,350.6 1038.7,346.7 1038.7,342.4 L1038.7,342.4 Z M1128.4,372.2 L1128.4,378.5 L1080,378.5 L1080,306.6 L1127.5,306.6 L1127.5,312.9 L1087,312.9 L1087,338.8 L1122.3,338.8 L1122.3,344.8 L1087,344.8 L1087,372.2 L1128.4,372.2 L1128.4,372.2 Z M1262.8,360 C1262.8,362.7 1262.3,365.2 1261.2,367.4 C1260.1,369.7 1258.7,371.6 1256.8,373.3 C1255,375 1252.8,376.2 1250.4,377.1 C1248,378 1245.4,378.5 1242.6,378.5 L1208.7,378.5 L1208.7,306.6 L1243.3,306.6 C1245.8,306.6 1248.1,307.1 1250.1,308.2 C1252.1,309.3 1253.9,310.7 1255.3,312.4 C1256.7,314.1 1257.8,316.1 1258.6,318.3 C1259.4,320.5 1259.8,322.7 1259.8,324.9 C1259.8,328.5 1258.9,331.9 1257.1,334.9 C1255.3,337.9 1252.7,340.1 1249.5,341.6 C1253.6,342.8 1256.9,345.1 1259.3,348.4 C1261.6,351.7 1262.8,355.6 1262.8,360 L1262.8,360 Z M1215.7,312.8 L1215.7,339.3 L1240.4,339.3 C1242.2,339.3 1243.8,338.9 1245.3,338.2 C1246.8,337.5 1248.1,336.5 1249.3,335.3 C1250.4,334.1 1251.3,332.7 1251.9,331.1 C1252.5,329.5 1252.8,327.8 1252.8,326.1 C1252.8,324.3 1252.5,322.6 1251.9,320.9 C1251.3,319.3 1250.5,317.9 1249.5,316.7 C1248.5,315.5 1247.2,314.6 1245.7,313.9 C1244.2,313.2 1242.7,312.8 1241,312.8 L1215.7,312.8 L1215.7,312.8 Z M1255.7,358.7 C1255.7,356.9 1255.4,355.2 1254.8,353.6 C1254.2,351.9 1253.3,350.5 1252.2,349.2 C1251.1,348 1249.8,346.9 1248.2,346.2 C1246.7,345.4 1245,345 1243.3,345 L1215.7,345 L1215.7,372.2 L1242.6,372.2 C1244.4,372.2 1246.1,371.8 1247.8,371.1 C1249.4,370.4 1250.8,369.4 1252,368.1 C1253.1,366.9 1254.1,365.4 1254.7,363.7 C1255.3,362.2 1255.7,360.5 1255.7,358.7 L1255.7,358.7 Z M1326,379 C1321,379 1316.4,378 1312.3,375.9 C1308.1,373.8 1304.6,371.1 1301.6,367.7 C1298.6,364.3 1296.3,360.4 1294.7,356 C1293.1,351.6 1292.3,347.1 1292.3,342.5 C1292.3,337.7 1293.2,333.1 1294.9,328.7 C1296.6,324.3 1299,320.4 1302,317.1 C1305,313.7 1308.6,311 1312.7,309 C1316.8,307 1321.3,306 1326.1,306 C1331.1,306 1335.7,307.1 1339.8,309.2 C1344,311.3 1347.5,314.1 1350.4,317.6 C1353.3,321 1355.6,324.9 1357.2,329.3 C1358.8,333.7 1359.6,338.1 1359.6,342.6 C1359.6,347.4 1358.7,352 1357,356.4 C1355.3,360.8 1352.9,364.7 1349.9,368 C1346.9,371.3 1343.3,374 1339.2,376 C1335.2,378 1330.8,379 1326,379 L1326,379 Z M1299.3,342.5 C1299.3,346.4 1299.9,350.2 1301.2,353.8 C1302.5,357.4 1304.3,360.6 1306.7,363.4 C1309.1,366.2 1311.9,368.4 1315.1,370.1 C1318.3,371.8 1322,372.6 1326,372.6 C1330.1,372.6 1333.7,371.7 1337.1,370 C1340.4,368.2 1343.2,365.9 1345.5,363.1 C1347.8,360.3 1349.6,357.1 1350.8,353.5 C1352,349.9 1352.7,346.3 1352.7,342.6 C1352.7,338.7 1352,334.9 1350.7,331.3 C1349.4,327.7 1347.5,324.5 1345.2,321.7 C1342.8,318.9 1340,316.7 1336.8,315.1 C1333.6,313.4 1330,312.6 1326,312.6 C1321.9,312.6 1318.3,313.5 1314.9,315.2 C1311.6,316.9 1308.8,319.2 1306.5,322 C1304.2,324.8 1302.4,328 1301.2,331.6 C1299.9,335.2 1299.3,338.8 1299.3,342.5 L1299.3,342.5 Z M1422.8,372.6 C1427.3,372.6 1431.1,371.7 1434.1,370 C1437.1,368.3 1439.5,366 1441.3,363.2 C1443.1,360.4 1444.3,357.2 1445.1,353.6 C1445.8,350 1446.2,346.4 1446.2,342.8 L1446.2,306.5 L1453.3,306.5 L1453.3,342.8 C1453.3,347.7 1452.8,352.3 1451.7,356.6 C1450.6,361 1448.9,364.8 1446.5,368.1 C1444.1,371.4 1441,374 1437.1,376 C1433.2,378 1428.5,378.9 1423,378.9 C1417.3,378.9 1412.5,377.9 1408.6,375.8 C1404.7,373.7 1401.6,371 1399.3,367.6 C1396.9,364.2 1395.2,360.4 1394.2,356.1 C1393.2,351.8 1392.7,347.3 1392.7,342.7 L1392.7,306.4 L1399.7,306.4 L1399.7,342.7 C1399.7,346.5 1400.1,350.2 1400.8,353.7 C1401.5,357.3 1402.8,360.5 1404.6,363.2 C1406.4,366 1408.8,368.2 1411.7,369.9 C1414.6,371.8 1418.3,372.6 1422.8,372.6 L1422.8,372.6 Z M1539.4,372.1 C1536.6,374.3 1533.6,375.9 1530.3,377.2 C1527,378.4 1523.5,379 1519.7,379 C1514.7,379 1510.1,378 1506,375.9 C1501.8,373.8 1498.3,371.1 1495.3,367.7 C1492.3,364.3 1490,360.4 1488.4,356.1 C1486.8,351.7 1486,347.2 1486,342.6 C1486,337.8 1486.9,333.2 1488.6,328.8 C1490.3,324.4 1492.7,320.5 1495.7,317.2 C1498.7,313.8 1502.3,311.1 1506.4,309.1 C1510.5,307.1 1515,306.1 1519.8,306.1 C1524.8,306.1 1529.4,307.2 1533.5,309.3 C1537.7,311.4 1541.2,314.2 1544.1,317.7 C1547,321.1 1549.3,325 1550.9,329.4 C1552.5,333.8 1553.3,338.2 1553.3,342.7 C1553.3,347.6 1552.4,352.3 1550.6,356.8 C1548.8,361.3 1546.3,365.2 1543.1,368.5 L1551.6,378.5 L1544.6,378.5 L1539.4,372.1 L1539.4,372.1 Z M1519.8,372.6 C1522.8,372.6 1525.6,372.1 1528.2,371.1 C1530.8,370.1 1533.1,368.8 1535.3,367.1 L1526.3,356.4 L1533.3,356.4 L1539.1,363.3 C1541.5,360.5 1543.3,357.2 1544.6,353.6 C1545.9,350 1546.5,346.3 1546.5,342.5 C1546.5,338.6 1545.8,334.8 1544.5,331.2 C1543.2,327.6 1541.3,324.4 1539,321.6 C1536.6,318.8 1533.8,316.6 1530.6,314.9 C1527.4,313.2 1523.8,312.4 1519.8,312.4 C1515.7,312.4 1512.1,313.3 1508.7,315 C1505.4,316.7 1502.6,319 1500.3,321.8 C1498,324.6 1496.2,327.9 1495,331.5 C1493.7,335.1 1493.1,338.8 1493.1,342.5 C1493.1,346.4 1493.7,350.2 1495,353.8 C1496.3,357.4 1498.1,360.6 1500.5,363.4 C1502.9,366.2 1505.7,368.4 1508.9,370.1 C1512.1,371.8 1515.8,372.6 1519.8,372.6 L1519.8,372.6 Z M1616.6,372.6 C1621.1,372.6 1624.9,371.7 1627.9,370 C1630.9,368.3 1633.3,366 1635.1,363.2 C1636.9,360.4 1638.1,357.2 1638.9,353.6 C1639.6,350 1640,346.4 1640,342.8 L1640,306.5 L1647.1,306.5 L1647.1,342.8 C1647.1,347.7 1646.6,352.3 1645.5,356.6 C1644.4,361 1642.7,364.8 1640.3,368.1 C1637.9,371.4 1634.8,374 1630.9,376 C1627,378 1622.3,378.9 1616.8,378.9 C1611.1,378.9 1606.3,377.9 1602.4,375.8 C1598.5,373.7 1595.4,371 1593.1,367.6 C1590.7,364.2 1589,360.4 1588,356.1 C1587,351.8 1586.5,347.3 1586.5,342.7 L1586.5,306.4 L1593.5,306.4 L1593.5,342.7 C1593.5,346.5 1593.9,350.2 1594.6,353.7 C1595.3,357.3 1596.6,360.5 1598.4,363.2 C1600.2,366 1602.6,368.2 1605.5,369.9 C1608.4,371.8 1612.1,372.6 1616.6,372.6 L1616.6,372.6 Z M1732.7,372.2 L1732.7,378.5 L1684.3,378.5 L1684.3,306.6 L1731.8,306.6 L1731.8,312.9 L1691.3,312.9 L1691.3,338.8 L1726.6,338.8 L1726.6,344.8 L1691.3,344.8 L1691.3,372.2 L1732.7,372.2 L1732.7,372.2 Z M1818,312.9 L1792.3,312.9 L1792.3,378.5 L1785.2,378.5 L1785.2,312.9 L1759.5,312.9 L1759.5,306.6 L1817.9,306.6 L1817.9,312.9 L1818,312.9 Z M1890.7,320.1 C1888.7,317.8 1885.9,315.9 1882.5,314.5 C1879.1,313.1 1875.2,312.4 1871,312.4 C1864.6,312.4 1859.9,313.6 1857,316 C1854.1,318.4 1852.6,321.7 1852.6,325.8 C1852.6,328 1853,329.7 1853.8,331.1 C1854.6,332.5 1855.8,333.7 1857.5,334.7 C1859.2,335.7 1861.3,336.6 1863.8,337.3 C1866.3,338 1869.3,338.8 1872.8,339.5 C1876.7,340.3 1880.1,341.2 1883.1,342.2 C1886.1,343.2 1888.7,344.4 1890.9,345.9 C1893.1,347.4 1894.7,349.3 1895.9,351.5 C1897,353.7 1897.6,356.4 1897.6,359.7 C1897.6,363 1897,365.9 1895.7,368.3 C1894.4,370.7 1892.6,372.8 1890.3,374.4 C1888,376 1885.3,377.2 1882.1,378 C1878.9,378.8 1875.5,379.2 1871.8,379.2 C1860.5,379.2 1850.9,375.7 1842.9,368.8 L1846.3,363 C1848.9,365.8 1852.5,368.1 1856.9,370 C1861.4,371.9 1866.3,372.9 1871.8,372.9 C1877.5,372.9 1882,371.9 1885.3,369.8 C1888.5,367.7 1890.2,364.6 1890.2,360.4 C1890.2,358.2 1889.7,356.3 1888.8,354.8 C1887.9,353.3 1886.5,352 1884.7,350.8 C1882.9,349.7 1880.6,348.7 1877.9,347.9 C1875.2,347.1 1872,346.3 1868.4,345.5 C1864.6,344.6 1861.3,343.7 1858.5,342.8 C1855.7,341.9 1853.3,340.7 1851.4,339.3 C1849.5,337.9 1848,336.2 1847,334.2 C1846,332.2 1845.5,329.8 1845.5,326.9 C1845.5,323.6 1846.1,320.6 1847.4,318 C1848.7,315.4 1850.4,313.2 1852.7,311.5 C1855,309.8 1857.7,308.5 1860.8,307.5 C1863.9,306.5 1867.4,306.1 1871.2,306.1 C1875.9,306.1 1880.2,306.8 1883.9,308.3 C1887.7,309.8 1891,311.8 1894.1,314.4 L1890.7,320.1 L1890.7,320.1 Z" id="Shape"></path>
            </g>
        </g>
    </g>
</svg>