<svg id="AQUARELLE_COLLECTIONS_DE_BOUQU_1_" xmlns="http://www.w3.org/2000/svg" viewBox="0 0 2000 422">
  <style>
    .st0{fill:#FF3366;}
  </style>
  <path class="st0" d="M44.9 247.2l96.4-230.1h18.5l96.4 230.1h-24.3L202 175.3H98.5L69 247.2H44.9zM150.7 43.7l-47.4 113.8h93.5L150.7 43.7zM446 226.8c-8.9 6.9-18.6 12.3-29 16.2-10.5 3.9-21.8 5.8-33.9 5.8-16 0-30.7-3.3-44-10s-24.7-15.4-34.2-26.3c-9.5-10.8-16.9-23.2-22.1-37.3-5.2-14-7.8-28.4-7.8-43.1 0-15.3 2.8-30 8.3-44.1 5.5-14 13.1-26.5 22.9-37.3 9.7-10.8 21.2-19.4 34.4-25.8 13.2-6.4 27.5-9.6 42.8-9.6 16 0 30.7 3.4 44 10.2 13.3 6.8 24.7 15.7 34.1 26.7 9.4 11 16.7 23.5 21.9 37.4 5.2 13.9 7.8 28.1 7.8 42.6 0 15.8-2.9 30.8-8.6 45-5.7 14.3-13.7 26.8-23.9 37.6l27.3 32.1h-22.4L446 226.8zm-63 1.6c9.7 0 18.7-1.6 26.9-4.7s15.8-7.4 22.7-12.8l-28.9-34.4h22.4l18.5 22c7.6-9.1 13.4-19.4 17.5-31 4.1-11.6 6.2-23.4 6.2-35.5 0-12.5-2.1-24.6-6.3-36.1-4.2-11.6-10.1-21.8-17.7-30.6-7.6-8.9-16.5-16-26.9-21.4-10.4-5.4-21.9-8.1-34.4-8.1-13 0-24.8 2.8-35.4 8.3-10.5 5.6-19.5 12.9-26.9 21.9-7.4 9.1-13 19.4-17 31-4 11.6-6 23.3-6 35.2 0 12.5 2.1 24.6 6.2 36.1 4.1 11.6 9.9 21.8 17.5 30.8s16.5 16.1 26.9 21.4c10.4 5.3 22 7.9 34.7 7.9zm245 0c14.5 0 26.6-2.8 36.2-8.3 9.6-5.5 17.3-12.7 23-21.7 5.7-9 9.7-19.2 12-30.6 2.3-11.4 3.4-23 3.4-34.7v-116h22.7v116c0 15.6-1.7 30.3-5.2 44.2-3.5 13.9-9 26.2-16.7 36.8-7.7 10.6-17.7 19-30 25.3-12.3 6.3-27.4 9.4-45.1 9.4-18.4 0-33.7-3.3-46.1-9.9-12.3-6.6-22.3-15.3-29.9-26.1-7.6-10.8-13-23.1-16.2-36.9-3.2-13.8-4.9-28.1-4.9-42.8v-116h22.4v116c0 12.1 1.2 23.9 3.6 35.3 2.4 11.5 6.4 21.6 12.2 30.5 5.7 8.9 13.4 16 22.9 21.4 9.6 5.4 21.5 8.1 35.7 8.1zm118.2 18.8l96.4-230.1H861l96.4 230.1h-24.3l-29.9-71.9H799.7l-29.5 71.9h-24zM852 43.7l-47.4 113.8H898L852 43.7zm138.8 203.5V17.1h97c9.9 0 19.1 2.1 27.6 6.3 8.4 4.2 15.7 9.7 21.7 16.5 6.1 6.8 10.8 14.5 14.1 23.2 3.4 8.6 5 17.4 5 26.3 0 8.4-1.2 16.5-3.7 24.1-2.5 7.7-6 14.6-10.5 20.7-4.5 6.2-10 11.3-16.2 15.6-6.3 4.2-13.3 7.1-21.1 8.6l56.8 88.8h-25.6l-54.5-84.9h-68.1v84.9h-22.5zm22.4-105h75.6c6.7 0 12.8-1.5 18.3-4.4s10.2-6.9 14.1-11.8c3.9-5 6.9-10.6 9.1-16.9 2.2-6.3 3.2-12.9 3.2-19.8s-1.2-13.6-3.7-19.9c-2.5-6.4-5.8-11.9-10.1-16.7-4.2-4.8-9.2-8.5-14.9-11.3-5.7-2.8-11.7-4.2-18-4.2h-73.7v105zm346.6 84.9v20.1H1205V17.1h151.9v20.1h-129.5v83h112.9v19.1h-112.9v87.8h132.4zm44.1 20.1V17.1h22.4v210h133.4v20.1h-155.8zm191.5 0V17.1h22.4v210h133.4v20.1h-155.8zm346.2-20.1v20.1h-154.8V17.1h151.9v20.1h-129.5v83h112.9v19.1h-112.9v87.8h132.4zM55.7 357c0-4.3.8-8.6 2.3-12.9 1.5-4.3 3.7-8.1 6.6-11.5 2.9-3.4 6.5-6.1 10.7-8.3 4.3-2.1 9.1-3.2 14.5-3.2 6.4 0 11.9 1.5 16.4 4.4 4.5 2.9 7.9 6.7 10.1 11.3l-5.7 3.4c-1.2-2.4-2.5-4.4-4.2-6s-3.4-2.9-5.3-4c-1.9-1-3.9-1.7-5.9-2.2-2-.4-4-.7-6-.7-4.3 0-8.1.9-11.5 2.6-3.3 1.8-6.1 4.1-8.4 6.9-2.3 2.8-4 6-5.1 9.6-1.2 3.5-1.7 7.1-1.7 10.8 0 4 .7 7.8 2.1 11.4 1.4 3.6 3.3 6.9 5.7 9.7 2.4 2.8 5.2 5 8.5 6.7 3.3 1.7 6.8 2.5 10.7 2.5 2 0 4.1-.3 6.2-.8 2.1-.5 4.2-1.3 6.2-2.4 2-1.1 3.8-2.5 5.5-4.2 1.7-1.7 3.1-3.7 4.3-6l5.9 3c-1.2 2.7-2.8 5.1-4.9 7.1-2.1 2.1-4.4 3.8-7 5.2-2.6 1.4-5.3 2.5-8.2 3.2-2.9.7-5.7 1.1-8.5 1.1-4.9 0-9.5-1.1-13.6-3.2-4.1-2.2-7.7-5-10.6-8.5-3-3.5-5.3-7.4-6.9-11.8-1.4-4.1-2.2-8.6-2.2-13.2zm123.2 37c-5 0-9.6-1-13.7-3.1-4.2-2.1-7.7-4.8-10.7-8.2-3-3.4-5.3-7.3-6.9-11.7-1.6-4.4-2.4-8.9-2.4-13.5 0-4.8.9-9.4 2.6-13.8 1.7-4.4 4.1-8.3 7.1-11.6 3-3.4 6.6-6.1 10.7-8.1s8.6-3 13.4-3c5 0 9.6 1.1 13.7 3.2s7.7 4.9 10.6 8.4 5.2 7.3 6.8 11.7c1.6 4.4 2.4 8.8 2.4 13.3 0 4.8-.9 9.4-2.6 13.8-1.7 4.4-4.1 8.3-7.1 11.6-3 3.3-6.6 6-10.7 8-3.9 2-8.4 3-13.2 3zm-26.6-36.5c0 3.9.6 7.7 1.9 11.3 1.3 3.6 3.1 6.8 5.5 9.6s5.2 5 8.4 6.7c3.2 1.7 6.9 2.5 10.9 2.5 4.1 0 7.7-.9 11.1-2.6 3.3-1.8 6.1-4.1 8.4-6.9 2.3-2.8 4.1-6 5.3-9.6 1.2-3.6 1.9-7.2 1.9-10.9 0-3.9-.7-7.7-2-11.3-1.3-3.6-3.2-6.8-5.5-9.6-2.4-2.8-5.2-5-8.4-6.6-3.2-1.7-6.8-2.5-10.7-2.5-4.1 0-7.7.9-11.1 2.6-3.3 1.7-6.1 4-8.4 6.8-2.3 2.8-4.1 6-5.3 9.6-1.4 3.6-2 7.2-2 10.9zm94.4 36v-71.9h7v65.6h41.7v6.3h-48.7zm80.1 0v-71.9h7v65.6h41.7v6.3h-48.7zm128.5-6.3v6.3h-48.4v-71.9h47.5v6.3h-40.5v25.9h35.3v6h-35.3v27.4h41.4zm29.4-30.2c0-4.3.8-8.6 2.3-12.9 1.5-4.3 3.7-8.1 6.6-11.5 2.9-3.4 6.5-6.1 10.7-8.3 4.3-2.1 9.1-3.2 14.5-3.2 6.4 0 11.9 1.5 16.4 4.4 4.5 2.9 7.9 6.7 10.1 11.3l-5.7 3.4c-1.2-2.4-2.5-4.4-4.2-6s-3.4-2.9-5.3-4c-1.9-1-3.9-1.7-5.9-2.2-2-.4-4-.7-6-.7-4.3 0-8.1.9-11.5 2.6-3.3 1.8-6.1 4.1-8.4 6.9-2.3 2.8-4 6-5.1 9.6-1.2 3.5-1.7 7.1-1.7 10.8 0 4 .7 7.8 2.1 11.4 1.4 3.6 3.3 6.9 5.7 9.7 2.4 2.8 5.2 5 8.5 6.7 3.3 1.7 6.8 2.5 10.7 2.5 2 0 4.1-.3 6.2-.8 2.1-.5 4.2-1.3 6.2-2.4 2-1.1 3.8-2.5 5.5-4.2 1.7-1.7 3.1-3.7 4.3-6l5.9 3c-1.2 2.7-2.8 5.1-4.9 7.1-2.1 2.1-4.4 3.8-7 5.2-2.6 1.4-5.3 2.5-8.2 3.2-2.9.7-5.7 1.1-8.5 1.1-4.9 0-9.5-1.1-13.6-3.2-4.1-2.2-7.7-5-10.6-8.5-3-3.5-5.3-7.4-6.9-11.8-1.4-4.1-2.2-8.6-2.2-13.2zm145.2-29.1h-25.7v65.6h-7.1v-65.6h-25.7v-6.3h58.4v6.3zm31.3 65.6v-71.8h7v71.8h-7zm74.8.5c-5 0-9.6-1-13.7-3.1-4.2-2.1-7.7-4.8-10.7-8.2-3-3.4-5.3-7.3-6.9-11.7-1.6-4.4-2.4-8.9-2.4-13.5 0-4.8.9-9.4 2.6-13.8 1.7-4.4 4.1-8.3 7.1-11.6 3-3.4 6.6-6.1 10.7-8.1s8.6-3 13.4-3c5 0 9.6 1.1 13.7 3.2s7.7 4.9 10.6 8.4 5.2 7.3 6.8 11.7c1.6 4.4 2.4 8.8 2.4 13.3 0 4.8-.9 9.4-2.6 13.8-1.7 4.4-4.1 8.3-7.1 11.6-3 3.3-6.6 6-10.7 8-4 2-8.4 3-13.2 3zm-26.7-36.5c0 3.9.6 7.7 1.9 11.3 1.3 3.6 3.1 6.8 5.5 9.6s5.2 5 8.4 6.7c3.2 1.7 6.9 2.5 10.9 2.5 4.1 0 7.7-.9 11.1-2.6 3.3-1.8 6.1-4.1 8.4-6.9 2.3-2.8 4.1-6 5.3-9.6 1.2-3.6 1.9-7.2 1.9-10.9 0-3.9-.7-7.7-2-11.3-1.3-3.6-3.2-6.8-5.5-9.6-2.4-2.8-5.2-5-8.4-6.6-3.2-1.7-6.8-2.5-10.7-2.5-4.1 0-7.7.9-11.1 2.6-3.3 1.7-6.1 4-8.4 6.8-2.3 2.8-4.1 6-5.3 9.6-1.4 3.6-2 7.2-2 10.9zm101.4-22.7v58.7h-7v-71.9h5.5l47.7 59.9v-59.8h7v71.8h-6.1l-47.1-58.7zm134 .3c-2-2.3-4.8-4.2-8.2-5.6-3.4-1.4-7.3-2.1-11.5-2.1-6.4 0-11.1 1.2-14 3.6-2.9 2.4-4.4 5.7-4.4 9.8 0 2.2.4 3.9 1.2 5.3.8 1.4 2 2.6 3.7 3.6 1.7 1 3.8 1.9 6.3 2.6 2.5.7 5.5 1.5 9 2.2 3.9.8 7.3 1.7 10.3 2.7 3 1 5.6 2.2 7.8 3.7s3.8 3.4 5 5.6c1.1 2.2 1.7 4.9 1.7 8.2 0 3.3-.6 6.2-1.9 8.6-1.3 2.4-3.1 4.5-5.4 6.1-2.3 1.6-5 2.8-8.2 3.6-3.2.8-6.6 1.2-10.3 1.2-11.3 0-20.9-3.5-28.9-10.4l3.4-5.8c2.6 2.8 6.2 5.1 10.6 7 4.5 1.9 9.4 2.9 14.9 2.9 5.7 0 10.2-1 13.5-3.1 3.2-2.1 4.9-5.2 4.9-9.4 0-2.2-.5-4.1-1.4-5.6-.9-1.5-2.3-2.8-4.1-4-1.8-1.1-4.1-2.1-6.8-2.9-2.7-.8-5.9-1.6-9.5-2.4-3.8-.9-7.1-1.8-9.9-2.7-2.8-.9-5.2-2.1-7.1-3.5s-3.4-3.1-4.4-5.1c-1-2-1.5-4.4-1.5-7.3 0-3.3.6-6.3 1.9-8.9 1.2-2.6 3-4.8 5.3-6.5 2.3-1.7 5-3 8.1-4 3.1-.9 6.6-1.4 10.4-1.4 4.7 0 9 .7 12.7 2.2 3.8 1.5 7.1 3.5 10.2 6.1l-3.4 5.7zm86.3 58.4v-71.9h24.3c5.7 0 10.8.9 15.1 2.8 4.3 1.9 7.9 4.5 10.8 7.7 2.9 3.2 5 7 6.4 11.4 1.4 4.4 2.1 9 2.1 13.9 0 5.5-.8 10.4-2.4 14.8-1.6 4.4-3.9 8.2-6.9 11.3-3 3.1-6.6 5.6-10.9 7.3-4.3 1.7-9 2.6-14.3 2.6H1031zm51.7-36.1c0-4.3-.6-8.3-1.8-11.9-1.2-3.6-3-6.7-5.3-9.4-2.3-2.6-5.2-4.7-8.6-6.1-3.4-1.5-7.3-2.2-11.7-2.2H1038v59.4h17.3c4.5 0 8.4-.8 11.8-2.3 3.4-1.5 6.3-3.6 8.6-6.3 2.3-2.7 4-5.8 5.2-9.4 1.2-3.6 1.8-7.5 1.8-11.8zm89.7 29.8v6.3H1124v-71.9h47.5v6.3H1131v25.9h35.3v6H1131v27.4h41.4zm134.4-12.2c0 2.7-.5 5.2-1.6 7.4-1.1 2.3-2.5 4.2-4.4 5.9-1.8 1.7-4 2.9-6.4 3.8s-5 1.4-7.8 1.4h-33.9v-71.9h34.6c2.5 0 4.8.5 6.8 1.6s3.8 2.5 5.2 4.2c1.4 1.7 2.5 3.7 3.3 5.9.8 2.2 1.2 4.4 1.2 6.6 0 3.6-.9 7-2.7 10-1.8 3-4.4 5.2-7.6 6.7 4.1 1.2 7.4 3.5 9.8 6.8 2.3 3.3 3.5 7.2 3.5 11.6zm-47.1-47.2v26.5h24.7c1.8 0 3.4-.4 4.9-1.1 1.5-.7 2.8-1.7 4-2.9 1.1-1.2 2-2.6 2.6-4.2.6-1.6.9-3.3.9-5 0-1.8-.3-3.5-.9-5.2-.6-1.6-1.4-3-2.4-4.2-1-1.2-2.3-2.1-3.8-2.8-1.5-.7-3-1.1-4.7-1.1h-25.3zm40 45.9c0-1.8-.3-3.5-.9-5.1-.6-1.7-1.5-3.1-2.6-4.4-1.1-1.2-2.4-2.3-4-3-1.5-.8-3.2-1.2-4.9-1.2h-27.6v27.2h26.9c1.8 0 3.5-.4 5.2-1.1 1.6-.7 3-1.7 4.2-3 1.1-1.2 2.1-2.7 2.7-4.4.6-1.5 1-3.2 1-5zM1370 394c-5 0-9.6-1-13.7-3.1-4.2-2.1-7.7-4.8-10.7-8.2-3-3.4-5.3-7.3-6.9-11.7-1.6-4.4-2.4-8.9-2.4-13.5 0-4.8.9-9.4 2.6-13.8 1.7-4.4 4.1-8.3 7.1-11.6 3-3.4 6.6-6.1 10.7-8.1s8.6-3 13.4-3c5 0 9.6 1.1 13.7 3.2 4.2 2.1 7.7 4.9 10.6 8.4 2.9 3.4 5.2 7.3 6.8 11.7 1.6 4.4 2.4 8.8 2.4 13.3 0 4.8-.9 9.4-2.6 13.8-1.7 4.4-4.1 8.3-7.1 11.6-3 3.3-6.6 6-10.7 8-4 2-8.4 3-13.2 3zm-26.7-36.5c0 3.9.6 7.7 1.9 11.3 1.3 3.6 3.1 6.8 5.5 9.6s5.2 5 8.4 6.7c3.2 1.7 6.9 2.5 10.9 2.5 4.1 0 7.7-.9 11.1-2.6 3.3-1.8 6.1-4.1 8.4-6.9 2.3-2.8 4.1-6 5.3-9.6 1.2-3.6 1.9-7.2 1.9-10.9 0-3.9-.7-7.7-2-11.3-1.3-3.6-3.2-6.8-5.5-9.6-2.4-2.8-5.2-5-8.4-6.6-3.2-1.7-6.8-2.5-10.8-2.5-4.1 0-7.7.9-11.1 2.6-3.3 1.7-6.1 4-8.4 6.8-2.3 2.8-4.1 6-5.3 9.6-1.3 3.6-1.9 7.2-1.9 10.9zm123.5 30.1c4.5 0 8.3-.9 11.3-2.6 3-1.7 5.4-4 7.2-6.8 1.8-2.8 3-6 3.8-9.6.7-3.6 1.1-7.2 1.1-10.8v-36.3h7.1v36.3c0 4.9-.5 9.5-1.6 13.8-1.1 4.4-2.8 8.2-5.2 11.5-2.4 3.3-5.5 5.9-9.4 7.9-3.9 2-8.6 2.9-14.1 2.9-5.7 0-10.5-1-14.4-3.1-3.9-2.1-7-4.8-9.3-8.2-2.4-3.4-4.1-7.2-5.1-11.5s-1.5-8.8-1.5-13.4v-36.3h7v36.3c0 3.8.4 7.5 1.1 11 .7 3.6 2 6.8 3.8 9.5 1.8 2.8 4.2 5 7.1 6.7 2.9 1.9 6.6 2.7 11.1 2.7zm116.6-.5c-2.8 2.2-5.8 3.8-9.1 5.1-3.3 1.2-6.8 1.8-10.6 1.8-5 0-9.6-1-13.7-3.1-4.2-2.1-7.7-4.8-10.7-8.2-3-3.4-5.3-7.3-6.9-11.6-1.6-4.4-2.4-8.9-2.4-13.5 0-4.8.9-9.4 2.6-13.8 1.7-4.4 4.1-8.3 7.1-11.6 3-3.4 6.6-6.1 10.7-8.1s8.6-3 13.4-3c5 0 9.6 1.1 13.7 3.2 4.2 2.1 7.7 4.9 10.6 8.4 2.9 3.4 5.2 7.3 6.8 11.7 1.6 4.4 2.4 8.8 2.4 13.3 0 4.9-.9 9.6-2.7 14.1-1.8 4.5-4.3 8.4-7.5 11.7l8.5 10h-7l-5.2-6.4zm-19.6.5c3 0 5.8-.5 8.4-1.5 2.6-1 4.9-2.3 7.1-4l-9-10.7h7l5.8 6.9c2.4-2.8 4.2-6.1 5.5-9.7 1.3-3.6 1.9-7.3 1.9-11.1 0-3.9-.7-7.7-2-11.3-1.3-3.6-3.2-6.8-5.5-9.6-2.4-2.8-5.2-5-8.4-6.7-3.2-1.7-6.8-2.5-10.8-2.5-4.1 0-7.7.9-11.1 2.6-3.3 1.7-6.1 4-8.4 6.8-2.3 2.8-4.1 6.1-5.3 9.7-1.3 3.6-1.9 7.3-1.9 11 0 3.9.6 7.7 1.9 11.3 1.3 3.6 3.1 6.8 5.5 9.6s5.2 5 8.4 6.7c3.2 1.7 6.9 2.5 10.9 2.5zm96.8 0c4.5 0 8.3-.9 11.3-2.6 3-1.7 5.4-4 7.2-6.8 1.8-2.8 3-6 3.8-9.6.7-3.6 1.1-7.2 1.1-10.8v-36.3h7.1v36.3c0 4.9-.5 9.5-1.6 13.8-1.1 4.4-2.8 8.2-5.2 11.5-2.4 3.3-5.5 5.9-9.4 7.9-3.9 2-8.6 2.9-14.1 2.9-5.7 0-10.5-1-14.4-3.1-3.9-2.1-7-4.8-9.3-8.2-2.4-3.4-4.1-7.2-5.1-11.5s-1.5-8.8-1.5-13.4v-36.3h7v36.3c0 3.8.4 7.5 1.1 11 .7 3.6 2 6.8 3.8 9.5 1.8 2.8 4.2 5 7.1 6.7 2.9 1.9 6.6 2.7 11.1 2.7zm116.1-.4v6.3h-48.4v-71.9h47.5v6.3h-40.5v25.9h35.3v6h-35.3v27.4h41.4zm85.3-59.3h-25.7v65.6h-7.1v-65.6h-25.7v-6.3h58.4v6.3zm72.7 7.2c-2-2.3-4.8-4.2-8.2-5.6-3.4-1.4-7.3-2.1-11.5-2.1-6.4 0-11.1 1.2-14 3.6-2.9 2.4-4.4 5.7-4.4 9.8 0 2.2.4 3.9 1.2 5.3.8 1.4 2 2.6 3.7 3.6 1.7 1 3.8 1.9 6.3 2.6 2.5.7 5.5 1.5 9 2.2 3.9.8 7.3 1.7 10.3 2.7 3 1 5.6 2.2 7.8 3.7s3.8 3.4 5 5.6c1.1 2.2 1.7 4.9 1.7 8.2 0 3.3-.6 6.2-1.9 8.6s-3.1 4.5-5.4 6.1c-2.3 1.6-5 2.8-8.2 3.6-3.2.8-6.6 1.2-10.3 1.2-11.3 0-20.9-3.5-28.9-10.4l3.4-5.8c2.6 2.8 6.2 5.1 10.6 7 4.5 1.9 9.4 2.9 14.9 2.9 5.7 0 10.2-1 13.5-3.1 3.2-2.1 4.9-5.2 4.9-9.4 0-2.2-.5-4.1-1.4-5.6-.9-1.5-2.3-2.8-4.1-4-1.8-1.1-4.1-2.1-6.8-2.9-2.7-.8-5.9-1.6-9.5-2.4-3.8-.9-7.1-1.8-9.9-2.7-2.8-.9-5.2-2.1-7.1-3.5s-3.4-3.1-4.4-5.1c-1-2-1.5-4.4-1.5-7.3 0-3.3.6-6.3 1.9-8.9 1.3-2.6 3-4.8 5.3-6.5 2.3-1.7 5-3 8.1-4s6.6-1.4 10.4-1.4c4.7 0 9 .7 12.7 2.2 3.8 1.5 7.1 3.5 10.2 6.1l-3.4 5.7z"/>
</svg>
