<?xml version="1.0" encoding="UTF-8"?> <svg xmlns="http://www.w3.org/2000/svg" xmlns:xlink="http://www.w3.org/1999/xlink" width="234px" height="58px" viewBox="0 0 234 58"> <!-- Generator: Sketch 47.1 (45422) - http://www.bohemiancoding.com/sketch --> <title>capital-e</title> <desc>Created with Sketch.</desc> <defs></defs> <g id="Page-1" stroke="none" stroke-width="1" fill="none" fill-rule="evenodd"> <g id="capital-e"> <path d="M41.6987,12.1029 C39.7137,12.1029 38.1767,12.8489 37.0867,14.3399 C35.9977,15.8319 35.4527,17.9119 35.4527,20.5779 C35.4527,26.1239 37.5347,28.8989 41.6987,28.8989 C43.4457,28.8989 45.5617,28.4619 48.0467,27.5889 L48.0467,32.0129 C46.0047,32.8649 43.7237,33.2899 41.2047,33.2899 C37.5857,33.2899 34.8177,32.1919 32.9007,29.9969 C30.9837,27.8009 30.0247,24.6499 30.0247,20.5429 C30.0247,17.9569 30.4947,15.6909 31.4367,13.7449 C32.3787,11.7989 33.7317,10.3069 35.4957,9.2689 C37.2597,8.2309 39.3277,7.7119 41.6987,7.7119 C44.1157,7.7119 46.5427,8.2959 48.9827,9.4639 L47.2807,13.7529 C46.3497,13.3099 45.4137,12.9249 44.4727,12.5959 C43.5307,12.2669 42.6067,12.1029 41.6987,12.1029 Z" id="Fill-1" fill="#454036"></path> <path d="M63.4814,24.1341 L61.4734,24.2021 C59.9644,24.2471 58.8414,24.5201 58.1034,25.0191 C57.3664,25.5191 56.9974,26.2791 56.9974,27.2991 C56.9974,28.7631 57.8364,29.4941 59.5164,29.4941 C60.7184,29.4941 61.6804,29.1481 62.4004,28.4561 C63.1214,27.7651 63.4814,26.8451 63.4814,25.6991 L63.4814,24.1341 Z M65.0134,32.9481 L64.0084,30.3631 L63.8724,30.3631 C62.9994,31.4621 62.1004,32.2261 61.1754,32.6521 C60.2504,33.0761 59.0454,33.2891 57.5594,33.2891 C55.7324,33.2891 54.2944,32.7681 53.2454,31.7241 C52.1954,30.6801 51.6704,29.1951 51.6704,27.2651 C51.6704,25.2451 52.3774,23.7571 53.7894,22.7981 C55.2024,21.8391 57.3324,21.3091 60.1794,21.2061 L63.4814,21.1051 L63.4814,20.2711 C63.4814,18.3421 62.4944,17.3781 60.5204,17.3781 C59.0004,17.3781 57.2124,17.8371 55.1594,18.7561 L53.4404,15.2511 C55.6304,14.1051 58.0584,13.5311 60.7244,13.5311 C63.2774,13.5311 65.2344,14.0871 66.5954,15.1991 C67.9574,16.3121 68.6374,18.0011 68.6374,20.2711 L68.6374,32.9481 L65.0134,32.9481 Z" id="Fill-3" fill="#454036"></path> <path d="M82.8989,17.7181 C81.6169,17.7181 80.6809,18.1131 80.0909,18.9011 C79.5009,19.6901 79.1949,20.9911 79.1719,22.8061 L79.1719,23.3681 C79.1719,25.4091 79.4759,26.8741 80.0829,27.7591 C80.6899,28.6441 81.6509,29.0861 82.9669,29.0861 C85.2929,29.0861 86.4559,27.1691 86.4559,23.3331 C86.4559,21.4621 86.1689,20.0581 85.5959,19.1221 C85.0239,18.1871 84.1239,17.7181 82.8989,17.7181 M84.4309,33.2891 C82.1949,33.2891 80.4419,32.4781 79.1719,30.8561 L78.8999,30.8561 C79.0809,32.4451 79.1719,33.3631 79.1719,33.6131 L79.1719,41.3221 L73.9819,41.3221 L73.9819,13.9231 L78.2019,13.9231 L78.9339,16.3911 L79.1719,16.3911 C80.3859,14.5071 82.1839,13.5661 84.5669,13.5661 C86.8129,13.5661 88.5709,14.4341 89.8419,16.1691 C91.1129,17.9051 91.7479,20.3161 91.7479,23.4021 C91.7479,25.4331 91.4499,27.1971 90.8549,28.6951 C90.2589,30.1931 89.4109,31.3321 88.3109,32.1141 C87.2099,32.8981 85.9169,33.2891 84.4309,33.2891" id="Fill-5" fill="#454036"></path> <path d="M96.037,32.949 L101.227,32.949 L101.227,13.924 L96.037,13.924 L96.037,32.949 Z M95.815,9.005 C95.815,7.315 96.757,6.47 98.64,6.47 C100.523,6.47 101.465,7.315 101.465,9.005 C101.465,9.811 101.229,10.437 100.759,10.886 C100.288,11.333 99.582,11.558 98.64,11.558 C96.757,11.558 95.815,10.706 95.815,9.005 L95.815,9.005 Z" id="Fill-7" fill="#454036"></path> <path d="M114.688,29.1536 C115.595,29.1536 116.685,28.9566 117.955,28.5576 L117.955,32.4216 C116.662,33.0006 115.073,33.2896 113.19,33.2896 C111.114,33.2896 109.602,32.7646 108.655,31.7156 C107.708,30.6656 107.234,29.0916 107.234,26.9936 L107.234,17.8196 L104.75,17.8196 L104.75,15.6246 L107.608,13.8886 L109.106,9.8726 L112.424,9.8726 L112.424,13.9236 L117.751,13.9236 L117.751,17.8196 L112.424,17.8196 L112.424,26.9936 C112.424,27.7296 112.631,28.2746 113.046,28.6266 C113.459,28.9776 114.007,29.1536 114.688,29.1536" id="Fill-9" fill="#454036"></path> <path d="M132.3525,24.1341 L130.3445,24.2021 C128.8355,24.2471 127.7125,24.5201 126.9745,25.0191 C126.2375,25.5191 125.8685,26.2791 125.8685,27.2991 C125.8685,28.7631 126.7075,29.4941 128.3875,29.4941 C129.5895,29.4941 130.5515,29.1481 131.2715,28.4561 C131.9925,27.7651 132.3525,26.8451 132.3525,25.6991 L132.3525,24.1341 Z M133.8845,32.9481 L132.8795,30.3631 L132.7435,30.3631 C131.8705,31.4621 130.9715,32.2261 130.0465,32.6521 C129.1215,33.0761 127.9165,33.2891 126.4305,33.2891 C124.6035,33.2891 123.1655,32.7681 122.1165,31.7241 C121.0665,30.6801 120.5415,29.1951 120.5415,27.2651 C120.5415,25.2451 121.2485,23.7571 122.6605,22.7981 C124.0735,21.8391 126.2035,21.3091 129.0505,21.2061 L132.3525,21.1051 L132.3525,20.2711 C132.3525,18.3421 131.3655,17.3781 129.3915,17.3781 C127.8715,17.3781 126.0835,17.8371 124.0305,18.7561 L122.3115,15.2511 C124.5015,14.1051 126.9295,13.5311 129.5955,13.5311 C132.1485,13.5311 134.1055,14.0871 135.4665,15.1991 C136.8285,16.3121 137.5085,18.0011 137.5085,20.2711 L137.5085,32.9481 L133.8845,32.9481 Z" id="Fill-10" fill="#454036"></path> <polygon id="Fill-11" fill="#454036" points="142.852 32.949 148.043 32.949 148.043 6.47 142.852 6.47"></polygon> <polygon id="Fill-12" fill="#454036" points="151.804 25.734 160.943 25.734 160.943 21.48 151.804 21.48"></polygon> <polygon id="Fill-13" fill="#454036" points="179.4404 32.9486 165.1114 32.9486 165.1114 8.0696 179.4404 8.0696 179.4404 12.3916 170.3874 12.3916 170.3874 17.8546 178.8104 17.8546 178.8104 22.1776 170.3874 22.1776 170.3874 28.5936 179.4404 28.5936"></polygon> <path d="M100.9321,47.6702 C100.9321,48.3742 100.6761,48.9132 100.1641,49.2892 C99.6511,49.6642 98.9181,49.8522 97.9631,49.8522 C97.0031,49.8522 96.2321,49.7062 95.6511,49.4162 L95.6511,48.0942 C96.4971,48.4842 97.2851,48.6802 98.0151,48.6802 C98.9571,48.6802 99.4281,48.3962 99.4281,47.8262 C99.4281,47.6452 99.3761,47.4922 99.2711,47.3712 C99.1671,47.2492 98.9961,47.1232 98.7571,46.9932 C98.5181,46.8622 98.1861,46.7152 97.7611,46.5502 C96.9321,46.2292 96.3701,45.9072 96.0771,45.5862 C95.7841,45.2652 95.6381,44.8492 95.6381,44.3362 C95.6381,43.7202 95.8861,43.2412 96.3831,42.9002 C96.8801,42.5602 97.5571,42.3892 98.4121,42.3892 C99.2591,42.3892 100.0591,42.5612 100.8151,42.9032 L100.3201,44.0562 C99.5431,43.7342 98.8901,43.5742 98.3601,43.5742 C97.5521,43.5742 97.1481,43.8042 97.1481,44.2652 C97.1481,44.4902 97.2541,44.6812 97.4641,44.8372 C97.6751,44.9942 98.1341,45.2092 98.8421,45.4822 C99.4361,45.7122 99.8691,45.9232 100.1381,46.1142 C100.4071,46.3052 100.6071,46.5252 100.7371,46.7742 C100.8671,47.0242 100.9321,47.3232 100.9321,47.6702" id="Fill-14" fill="#454036"></path> <path d="M108.8169,49.722 L107.2789,49.722 L107.2789,45.293 C107.2789,44.738 107.1679,44.324 106.9439,44.05 C106.7199,43.776 106.3659,43.639 105.8789,43.639 C105.2369,43.639 104.7649,43.831 104.4629,44.216 C104.1609,44.6 104.0099,45.243 104.0099,46.147 L104.0099,49.722 L102.4799,49.722 L102.4799,39.589 L104.0099,39.589 L104.0099,42.161 C104.0099,42.574 103.9839,43.014 103.9319,43.483 L104.0299,43.483 C104.2379,43.136 104.5279,42.867 104.8999,42.675 C105.2709,42.485 105.7039,42.389 106.1979,42.389 C107.9439,42.389 108.8169,43.268 108.8169,45.027 L108.8169,49.722 Z" id="Fill-15" fill="#454036"></path> <path d="M113.0669,48.68 C113.6229,48.68 114.0689,48.525 114.4049,48.214 C114.7419,47.904 114.9099,47.469 114.9099,46.909 L114.9099,46.284 L113.9849,46.323 C113.2649,46.349 112.7399,46.469 112.4129,46.684 C112.0849,46.899 111.9209,47.228 111.9209,47.67 C111.9209,47.992 112.0159,48.241 112.2079,48.416 C112.3989,48.592 112.6849,48.68 113.0669,48.68 L113.0669,48.68 Z M115.3459,49.722 L115.0399,48.719 L114.9879,48.719 C114.6409,49.158 114.2919,49.456 113.9399,49.615 C113.5879,49.773 113.1359,49.852 112.5849,49.852 C111.8779,49.852 111.3249,49.661 110.9279,49.28 C110.5299,48.897 110.3319,48.357 110.3319,47.658 C110.3319,46.915 110.6079,46.355 111.1589,45.977 C111.7099,45.6 112.5499,45.394 113.6789,45.359 L114.9229,45.32 L114.9229,44.936 C114.9229,44.475 114.8159,44.131 114.6009,43.904 C114.3859,43.675 114.0519,43.561 113.6009,43.561 C113.2319,43.561 112.8779,43.616 112.5399,43.724 C112.2009,43.832 111.8749,43.96 111.5629,44.109 L111.0669,43.014 C111.4589,42.81 111.8859,42.655 112.3509,42.548 C112.8149,42.443 113.2539,42.389 113.6659,42.389 C114.5819,42.389 115.2739,42.589 115.7399,42.989 C116.2069,43.388 116.4409,44.015 116.4409,44.87 L116.4409,49.722 L115.3459,49.722 Z" id="Fill-16" fill="#454036"></path> <path d="M121.752,43.639 C121.144,43.639 120.7,43.818 120.42,44.173 C120.14,44.53 120,45.098 120,45.879 L120,46.108 C120,46.985 120.139,47.619 120.417,48.012 C120.694,48.406 121.148,48.602 121.778,48.602 C122.308,48.602 122.716,48.385 123.002,47.951 C123.289,47.517 123.432,46.898 123.432,46.095 C123.432,45.287 123.29,44.676 123.005,44.261 C122.721,43.847 122.303,43.639 121.752,43.639 M122.123,49.852 C121.211,49.852 120.503,49.525 120,48.868 L119.909,48.868 C119.97,49.477 120,49.846 120,49.976 L120,52.926 L118.47,52.926 L118.47,42.519 L119.707,42.519 C119.742,42.654 119.814,42.975 119.922,43.483 L120,43.483 C120.478,42.753 121.194,42.389 122.149,42.389 C123.048,42.389 123.748,42.714 124.25,43.366 C124.751,44.017 125.002,44.931 125.002,46.108 C125.002,47.285 124.747,48.202 124.236,48.863 C123.726,49.523 123.022,49.852 122.123,49.852" id="Fill-17" fill="#454036"></path> <path d="M126.673,49.722 L128.203,49.722 L128.203,42.519 L126.673,42.519 L126.673,49.722 Z M126.582,40.611 C126.582,40.337 126.656,40.127 126.806,39.98 C126.956,39.832 127.17,39.758 127.448,39.758 C127.717,39.758 127.926,39.832 128.076,39.98 C128.226,40.127 128.301,40.337 128.301,40.611 C128.301,40.871 128.226,41.076 128.076,41.227 C127.926,41.376 127.717,41.451 127.448,41.451 C127.17,41.451 126.956,41.376 126.806,41.227 C126.656,41.076 126.582,40.871 126.582,40.611 L126.582,40.611 Z" id="Fill-18" fill="#454036"></path> <path d="M136.6211,49.722 L135.0841,49.722 L135.0841,45.293 C135.0841,44.738 134.9721,44.324 134.7481,44.05 C134.5251,43.776 134.1701,43.639 133.6841,43.639 C133.0371,43.639 132.5641,43.83 132.2641,44.212 C131.9651,44.595 131.8151,45.235 131.8151,46.134 L131.8151,49.722 L130.2851,49.722 L130.2851,42.519 L131.4831,42.519 L131.6981,43.463 L131.7761,43.463 C131.9931,43.12 132.3011,42.856 132.7011,42.669 C133.1001,42.483 133.5431,42.389 134.0291,42.389 C135.7571,42.389 136.6211,43.268 136.6211,45.027 L136.6211,49.722 Z" id="Fill-19" fill="#454036"></path> <path d="M139.7251,44.8509 C139.7251,45.3019 139.8411,45.6499 140.0731,45.8929 C140.3061,46.1359 140.6391,46.2569 141.0731,46.2569 C141.9581,46.2569 142.4001,45.7849 142.4001,44.8369 C142.4001,44.3689 142.2911,44.0069 142.0721,43.7529 C141.8531,43.4989 141.5201,43.3719 141.0731,43.3719 C140.6301,43.3719 140.2951,43.4979 140.0671,43.7499 C139.8391,44.0019 139.7251,44.3689 139.7251,44.8509 L139.7251,44.8509 Z M139.0671,50.8419 C139.0671,51.1719 139.2161,51.4259 139.5131,51.6039 C139.8101,51.7819 140.2281,51.8719 140.7671,51.8719 C141.6001,51.8719 142.2211,51.7509 142.6291,51.5129 C143.0371,51.2739 143.2401,50.9569 143.2401,50.5619 C143.2401,50.2489 143.1291,50.0269 142.9061,49.8949 C142.6821,49.7619 142.2671,49.6959 141.6591,49.6959 L140.5001,49.6959 C140.0611,49.6959 139.7131,49.7989 139.4541,50.0049 C139.1961,50.2109 139.0671,50.4909 139.0671,50.8419 L139.0671,50.8419 Z M144.7261,42.5189 L144.7261,43.3599 L143.4961,43.5869 C143.6071,43.7399 143.7011,43.9259 143.7751,44.1479 C143.8501,44.3689 143.8871,44.6029 143.8871,44.8509 C143.8871,45.5929 143.6291,46.1769 143.1171,46.6029 C142.6051,47.0279 141.9001,47.2409 141.0011,47.2409 C140.7711,47.2409 140.5631,47.2239 140.3761,47.1889 C140.0461,47.3929 139.8811,47.6309 139.8811,47.9049 C139.8811,48.0699 139.9581,48.1939 140.1121,48.2769 C140.2671,48.3589 140.5501,48.3999 140.9621,48.3999 L142.2191,48.3999 C143.0141,48.3999 143.6171,48.5699 144.0291,48.9079 C144.4411,49.2469 144.6481,49.7349 144.6481,50.3729 C144.6481,51.1899 144.3101,51.8189 143.6391,52.2619 C142.9651,52.7049 141.9931,52.9259 140.7211,52.9259 C139.7401,52.9259 138.9911,52.7519 138.4751,52.4059 C137.9581,52.0579 137.7001,51.5629 137.7001,50.9199 C137.7001,50.4779 137.8401,50.1049 138.1201,49.8029 C138.4001,49.5009 138.7911,49.2919 139.2951,49.1749 C139.0911,49.0879 138.9231,48.9489 138.7901,48.7549 C138.6581,48.5619 138.5921,48.3589 138.5921,48.1459 C138.5921,47.8769 138.6671,47.6489 138.8201,47.4619 C138.9721,47.2759 139.1971,47.0909 139.4971,46.9089 C139.1231,46.7479 138.8211,46.4869 138.5881,46.1239 C138.3561,45.7609 138.2401,45.3369 138.2401,44.8509 C138.2401,44.0699 138.4861,43.4629 138.9791,43.0339 C139.4721,42.6039 140.1741,42.3889 141.0861,42.3889 C141.2901,42.3889 141.5041,42.4039 141.7271,42.4309 C141.9511,42.4589 142.1191,42.4889 142.2321,42.5189 L144.7261,42.5189 Z" id="Fill-20" fill="#454036"></path> <path d="M152.582,43.4241 L150.765,43.4241 L150.765,49.7221 L149.684,49.7221 L149.684,43.4241 L148.407,43.4241 L148.407,42.9361 L149.684,42.5451 L149.684,42.1481 C149.684,40.3941 150.45,39.5171 151.983,39.5171 C152.36,39.5171 152.804,39.5931 153.311,39.7451 L153.031,40.6111 C152.614,40.4771 152.259,40.4091 151.964,40.4091 C151.556,40.4091 151.254,40.5451 151.059,40.8171 C150.862,41.0871 150.765,41.5231 150.765,42.1221 L150.765,42.5841 L152.582,42.5841 L152.582,43.4241 Z" id="Fill-21" fill="#454036"></path> <path d="M154.5,46.1468 C154.5,47.0588 154.683,47.7528 155.047,48.2308 C155.412,48.7088 155.948,48.9468 156.655,48.9468 C157.363,48.9468 157.9,48.7098 158.268,48.2338 C158.634,47.7578 158.817,47.0628 158.817,46.1468 C158.817,45.2398 158.634,44.5498 158.268,44.0798 C157.9,43.6078 157.358,43.3728 156.643,43.3728 C155.935,43.3728 155.4,43.6048 155.04,44.0698 C154.68,44.5338 154.5,45.2258 154.5,46.1468 M159.937,46.1468 C159.937,47.3098 159.645,48.2188 159.059,48.8728 C158.473,49.5258 157.663,49.8518 156.63,49.8518 C155.991,49.8518 155.425,49.7028 154.93,49.4028 C154.435,49.1028 154.053,48.6728 153.783,48.1138 C153.515,47.5528 153.38,46.8978 153.38,46.1468 C153.38,44.9828 153.671,44.0768 154.253,43.4278 C154.834,42.7788 155.642,42.4548 156.675,42.4548 C157.674,42.4548 158.467,42.7868 159.056,43.4508 C159.644,44.1148 159.937,45.0138 159.937,46.1468" id="Fill-22" fill="#454036"></path> <path d="M164.9824,42.4544 C165.2994,42.4544 165.5844,42.4794 165.8364,42.5324 L165.6854,43.5354 C165.3904,43.4704 165.1294,43.4374 164.9044,43.4374 C164.3274,43.4374 163.8334,43.6724 163.4224,44.1414 C163.0124,44.6094 162.8074,45.1934 162.8074,45.8924 L162.8074,49.7224 L161.7264,49.7224 L161.7264,42.5844 L162.6184,42.5844 L162.7424,43.9064 L162.7944,43.9064 C163.0584,43.4414 163.3784,43.0834 163.7524,42.8324 C164.1254,42.5804 164.5354,42.4544 164.9824,42.4544" id="Fill-23" fill="#454036"></path> <path d="M173.0537,48.6146 C173.4267,48.6146 173.7997,48.5556 174.1737,48.4386 L174.1737,49.5926 C174.0037,49.6656 173.7857,49.7276 173.5197,49.7776 C173.2517,49.8276 172.9757,49.8516 172.6887,49.8516 C171.2387,49.8516 170.5137,49.0886 170.5137,47.5596 L170.5137,43.6776 L169.5307,43.6776 L169.5307,43.0016 L170.5847,42.4406 L171.1067,40.9176 L172.0507,40.9176 L172.0507,42.5186 L174.1027,42.5186 L174.1027,43.6776 L172.0507,43.6776 L172.0507,47.5336 C172.0507,47.9026 172.1427,48.1756 172.3267,48.3506 C172.5117,48.5266 172.7537,48.6146 173.0537,48.6146" id="Fill-24" fill="#454036"></path> <path d="M176.6523,46.1077 C176.6523,47.7707 177.2663,48.6017 178.4953,48.6017 C179.7113,48.6017 180.3193,47.7707 180.3193,46.1077 C180.3193,44.4617 179.7073,43.6387 178.4823,43.6387 C177.8393,43.6387 177.3743,43.8517 177.0863,44.2777 C176.7973,44.7037 176.6523,45.3127 176.6523,46.1077 M181.8943,46.1077 C181.8943,47.2847 181.5923,48.2027 180.9893,48.8627 C180.3853,49.5227 179.5463,49.8517 178.4693,49.8517 C177.7963,49.8517 177.2013,49.7007 176.6843,49.3967 C176.1683,49.0917 175.7703,48.6567 175.4933,48.0867 C175.2153,47.5187 175.0763,46.8587 175.0763,46.1077 C175.0763,44.9397 175.3763,44.0277 175.9743,43.3727 C176.5743,42.7167 177.4193,42.3887 178.5083,42.3887 C179.5503,42.3887 180.3753,42.7237 180.9833,43.3947 C181.5903,44.0657 181.8943,44.9697 181.8943,46.1077" id="Fill-25" fill="#454036"></path> <path d="M189.6162,49.722 L188.0792,49.722 L188.0792,45.281 C188.0792,44.729 187.9742,44.318 187.7662,44.046 C187.5572,43.775 187.2322,43.639 186.7892,43.639 C186.1992,43.639 185.7652,43.831 185.4902,44.216 C185.2152,44.6 185.0762,45.24 185.0762,46.134 L185.0762,49.722 L183.5462,49.722 L183.5462,42.519 L184.7442,42.519 L184.9592,43.463 L185.0372,43.463 C185.2372,43.12 185.5272,42.856 185.9072,42.669 C186.2872,42.483 186.7052,42.389 187.1602,42.389 C188.2672,42.389 189.0012,42.767 189.3612,43.522 L189.4662,43.522 C189.6782,43.166 189.9782,42.888 190.3642,42.689 C190.7512,42.489 191.1942,42.389 191.6932,42.389 C192.5532,42.389 193.1792,42.606 193.5722,43.04 C193.9652,43.475 194.1612,44.137 194.1612,45.027 L194.1612,49.722 L192.6312,49.722 L192.6312,45.281 C192.6312,44.729 192.5252,44.318 192.3152,44.046 C192.1042,43.775 191.7782,43.639 191.3352,43.639 C190.7402,43.639 190.3042,43.825 190.0292,44.197 C189.7542,44.568 189.6162,45.137 189.6162,45.906 L189.6162,49.722 Z" id="Fill-26" fill="#454036"></path> <path d="M197.3369,46.1077 C197.3369,47.7707 197.9509,48.6017 199.1799,48.6017 C200.3959,48.6017 201.0039,47.7707 201.0039,46.1077 C201.0039,44.4617 200.3919,43.6387 199.1669,43.6387 C198.5239,43.6387 198.0589,43.8517 197.7709,44.2777 C197.4819,44.7037 197.3369,45.3127 197.3369,46.1077 M202.5789,46.1077 C202.5789,47.2847 202.2769,48.2027 201.6739,48.8627 C201.0699,49.5227 200.2309,49.8517 199.1539,49.8517 C198.4809,49.8517 197.8859,49.7007 197.3689,49.3967 C196.8529,49.0917 196.4549,48.6567 196.1779,48.0867 C195.8999,47.5187 195.7609,46.8587 195.7609,46.1077 C195.7609,44.9397 196.0609,44.0277 196.6589,43.3727 C197.2589,42.7167 198.1039,42.3887 199.1929,42.3887 C200.2349,42.3887 201.0599,42.7237 201.6679,43.3947 C202.2749,44.0657 202.5789,44.9697 202.5789,46.1077" id="Fill-27" fill="#454036"></path> <path d="M207.8838,42.389 C208.1928,42.389 208.4458,42.41 208.6468,42.454 L208.4958,43.88 C208.2798,43.828 208.0538,43.802 207.8198,43.802 C207.2068,43.802 206.7108,44.002 206.3308,44.402 C205.9508,44.801 205.7608,45.32 205.7608,45.957 L205.7608,49.722 L204.2308,49.722 L204.2308,42.519 L205.4288,42.519 L205.6308,43.789 L205.7088,43.789 C205.9478,43.36 206.2598,43.019 206.6438,42.767 C207.0288,42.515 207.4418,42.389 207.8838,42.389" id="Fill-28" fill="#454036"></path> <path d="M213.5283,42.389 C213.8373,42.389 214.0903,42.41 214.2913,42.454 L214.1403,43.88 C213.9243,43.828 213.6983,43.802 213.4643,43.802 C212.8513,43.802 212.3553,44.002 211.9753,44.402 C211.5953,44.801 211.4053,45.32 211.4053,45.957 L211.4053,49.722 L209.8743,49.722 L209.8743,42.519 L211.0733,42.519 L211.2753,43.789 L211.3533,43.789 C211.5923,43.36 211.9043,43.019 212.2883,42.767 C212.6733,42.515 213.0863,42.389 213.5283,42.389" id="Fill-29" fill="#454036"></path> <path d="M216.666,46.1077 C216.666,47.7707 217.28,48.6017 218.509,48.6017 C219.725,48.6017 220.333,47.7707 220.333,46.1077 C220.333,44.4617 219.721,43.6387 218.496,43.6387 C217.853,43.6387 217.388,43.8517 217.1,44.2777 C216.811,44.7037 216.666,45.3127 216.666,46.1077 M221.908,46.1077 C221.908,47.2847 221.606,48.2027 221.003,48.8627 C220.399,49.5227 219.56,49.8517 218.483,49.8517 C217.81,49.8517 217.215,49.7007 216.698,49.3967 C216.182,49.0917 215.784,48.6567 215.507,48.0867 C215.229,47.5187 215.09,46.8587 215.09,46.1077 C215.09,44.9397 215.39,44.0277 215.988,43.3727 C216.588,42.7167 217.433,42.3887 218.522,42.3887 C219.564,42.3887 220.389,42.7237 220.997,43.3947 C221.604,44.0657 221.908,44.9697 221.908,46.1077" id="Fill-30" fill="#454036"></path> <path d="M229.4668,49.722 L228.5348,46.362 C228.4228,46.005 228.2188,45.179 227.9228,43.88 L227.8638,43.88 C227.6128,45.053 227.4128,45.884 227.2658,46.374 L226.3088,49.722 L224.6148,49.722 L222.5958,42.519 L224.1588,42.519 L225.0768,46.069 C225.2858,46.946 225.4338,47.697 225.5208,48.322 L225.5598,48.322 C225.6028,48.005 225.6688,47.641 225.7578,47.231 C225.8468,46.821 225.9238,46.514 225.9888,46.31 L227.0828,42.519 L228.7638,42.519 L229.8248,46.31 C229.8898,46.522 229.9718,46.848 230.0698,47.286 C230.1668,47.725 230.2248,48.066 230.2408,48.309 L230.2938,48.309 C230.3588,47.775 230.5108,47.028 230.7498,46.069 L231.6808,42.519 L233.2178,42.519 L231.1858,49.722 L229.4668,49.722 Z" id="Fill-31" fill="#454036"></path> <polygon id="Fill-33" fill="#E9C838" points="16.8336 -0.0001 -0.0004 17.9999 -0.0004 28.0009 16.8336 10.0009"></polygon> <polygon id="Fill-34" fill="#E9C838" points="0 33.3332 0 43.0002 10.833 31.0002 10.833 21.3332"></polygon> <polygon id="Fill-35" fill="#E9C838" points="0 47.6666 0 57.4996 16.834 39.4996 16.834 29.6666"></polygon> </g> </g> </svg> 