<?xml version="1.0" encoding="UTF-8" standalone="no"?>
<svg width="2412px" height="709px" viewBox="0 0 2412 709" version="1.1" xmlns="http://www.w3.org/2000/svg" xmlns:xlink="http://www.w3.org/1999/xlink">
    <!-- Generator: Sketch 3.8.3 (29802) - http://www.bohemiancoding.com/sketch -->
    <title>certinergy</title>
    <desc>Created with Sketch.</desc>
    <defs></defs>
    <g id="Page-1" stroke="none" stroke-width="1" fill="none" fill-rule="evenodd">
        <g id="certinergy" transform="translate(-1.000000, 0.000000)">
            <g id="Group-3" transform="translate(0.000000, 140.346442)" fill="#95C11E">
                <path d="M319.316287,63.1187667 L302.733336,129.441433 L299.509975,128.063017 C292.755795,93.0671 278.850713,65.5384333 257.814566,45.49685 C236.778418,25.4651833 211.368418,15.4394333 181.584566,15.4394333 C142.259566,15.4394333 110.789648,36.1751833 87.1450574,77.62685 C63.4905492,119.078517 51.6781721,173.89785 51.6781721,242.0551 C51.6781721,309.7661 64.3435,364.585433 89.6741557,406.493267 C115.01473,448.411017 148.250057,469.364933 189.409893,469.364933 C223.190713,469.364933 252.825795,453.478433 278.315139,421.695517 C289.988664,406.95935 299.351287,387.840017 306.422844,364.347433 L309.646205,362.969017 L319.316287,422.389683 C282.768336,463.84135 239.000057,484.567183 188.031287,484.567183 C138.579975,484.567183 96.0514508,464.7636 60.425877,425.146517 C41.9981721,404.886767 27.4880902,378.39935 16.8956311,345.694183 C6.2932541,312.998933 0.99702459,278.67735 0.99702459,242.749267 C0.99702459,178.737183 16.0426803,123.91785 46.1439098,78.3210167 C80.2321885,26.27835 125.993992,0.2471 183.419402,0.2471 C240.229893,0.2471 285.535467,21.2109333 319.316287,63.1187667" id="Fill-1"></path>
            </g>
            <path d="M380.582951,446.888633 L543.655246,446.888633 C543.655246,423.2473 536.583689,404.217217 522.470328,389.77855 C508.337131,375.3498 489.601967,368.130467 466.264836,368.130467 C419.888115,368.130467 391.32418,394.379883 380.582951,446.888633 M591.103115,456.5673 L378.281967,456.5673 C376.734754,464.2428 375.971066,473.604133 375.971066,484.661217 C375.971066,512.606383 381.505328,537.477383 392.563934,559.274217 C408.522049,590.908383 436.014836,606.71555 475.012541,606.71555 C502.03918,606.71555 525.148197,598.74255 544.349508,582.7668 C563.540902,566.800967 577.436066,543.923217 586.035,514.13355 L594.792623,521.967717 C587.413607,552.0648 572.21918,575.854883 549.189508,593.367717 C526.149918,610.860717 498.81582,619.617133 467.187213,619.617133 C427.872131,619.617133 395.390574,607.181633 369.752459,582.310633 C344.114344,557.429717 331.290328,525.964133 331.290328,487.884133 C331.290328,451.95605 344.342459,421.4028 370.446721,396.224383 C396.541066,371.055883 428.328361,358.461717 465.798689,358.461717 C497.427295,358.461717 525.296967,367.902383 549.407705,386.783717 C573.518443,405.66505 587.413607,428.92955 591.103115,456.5673" id="Fill-4" fill="#95C11E"></path>
            <path d="M622.886443,382.4065 L622.886443,379.63975 C645.618574,375.960667 665.732344,370.89325 683.237672,364.4375 L680.936689,428.925583 C690.755541,407.743583 703.738246,390.8555 719.855049,378.261333 C735.98177,365.677083 752.941607,359.38 770.764311,359.38 C772.906607,359.38 775.20759,359.538667 777.667262,359.836167 L760.628082,408.19975 C752.941607,399.602 744.798902,395.308083 736.209885,395.308083 C720.241852,395.308083 707.338492,404.292583 697.509721,422.251667 C687.680951,440.21075 682.771525,463.633917 682.771525,492.491417 L682.771525,530.720167 C682.771525,561.432083 684.91382,582.77275 689.218246,594.742167 C692.600295,603.65725 699.820623,609.022167 710.87923,610.866667 L710.87923,614.089583 C697.053492,612.869833 680.470541,612.245083 661.120459,612.245083 C643.615131,612.245083 628.718246,612.869833 616.439721,614.089583 L616.439721,610.866667 C628.420705,609.329583 636.543574,602.88375 640.857918,591.51925 C645.152426,580.164667 647.304639,559.895 647.304639,530.720167 L647.304639,515.984 C647.304639,453.95525 646.223574,415.7265 644.081279,401.287833 C642.534066,390.240667 635.482344,383.943583 622.886443,382.4065" id="Fill-6" fill="#95C11E"></path>
            <path d="M870.716262,303.184233 L869.793885,375.0404 L918.630279,375.0404 L914.484541,387.932067 L869.337656,387.932067 L868.415279,447.8089 C867.492902,509.530233 869.56577,551.2199 874.633885,572.867983 C879.702,594.516067 889.907656,606.88215 905.26077,609.9464 L905.26077,613.169317 L852.744787,613.169317 C844.76077,610.402567 839.395115,605.027733 836.627984,597.044817 C832.938475,586.612483 831.093721,571.410233 831.093721,551.447983 C831.093721,540.0934 831.867328,499.554067 833.404623,429.849817 L834.327,387.932067 L795.626836,387.932067 L798.393967,379.185567 C816.514213,371.807567 830.250689,362.832983 839.62323,352.241983 C848.985852,341.641067 857.82282,325.288483 866.114295,303.184233 L870.716262,303.184233 Z" id="Fill-8" fill="#95C11E"></path>
            <path d="M973.901492,281.535158 C980.348213,281.535158 985.882475,283.835825 990.484443,288.447075 C995.08641,293.048408 997.397311,298.730658 997.397311,305.493825 C997.397311,311.632242 995.08641,317.007075 990.484443,321.608408 C985.882475,326.209742 980.348213,328.520325 973.901492,328.520325 C967.45477,328.520325 961.920508,326.209742 957.318541,321.608408 C952.706656,317.007075 950.405672,311.473575 950.405672,305.027742 C950.405672,298.581908 952.706656,293.048408 957.318541,288.447075 C961.920508,283.835825 967.45477,281.535158 973.901492,281.535158 M936.123705,382.407492 L936.123705,379.640742 C965.302557,374.424575 985.108869,369.357158 995.552557,364.438492 L995.552557,530.721158 C995.552557,562.345408 997.546082,583.537325 1001.54305,594.286992 C1004.91518,603.489658 1011.51067,609.023158 1021.34936,610.857742 L1021.34936,614.090575 C1005.37141,612.870825 988.788459,612.246075 971.600508,612.246075 C956.852393,612.246075 943.800262,612.870825 932.444115,614.090575 L932.444115,610.857742 C942.262967,609.023158 949.324607,601.962492 953.629033,589.675742 C957.933459,577.398908 960.075754,557.744075 960.075754,530.721158 L960.075754,515.984992 C960.075754,454.253742 959.004607,416.034908 956.852393,401.288825 C955.315098,390.231742 948.40223,383.944575 936.123705,382.407492" id="Fill-10" fill="#95C11E"></path>
            <path d="M1352.09493,633.063142 L1092.28214,176.152725 L1092.28214,345.648392 C1092.28214,451.776558 1094.59304,520.558558 1099.19501,552.004308 C1103.79698,583.450058 1114.24066,602.609058 1130.51616,609.481308 L1130.51616,614.637975 C1107.17902,612.684392 1091.0523,611.692725 1082.15583,611.692725 C1069.85747,611.692725 1055.89288,612.684392 1040.2323,614.637975 L1040.2323,609.481308 C1052.51083,605.058475 1061.25853,595.974808 1066.48534,582.220392 C1074.16189,562.069725 1078.76386,523.751725 1080.31107,467.246558 C1080.60861,456.933225 1080.7673,416.393892 1080.7673,345.648392 L1080.7673,232.162058 C1080.7673,194.329975 1078.76386,168.903642 1074.78673,155.883058 C1070.78976,142.872392 1062.03214,132.668142 1048.52378,125.300058 L1048.52378,120.143392 C1060.50476,122.116808 1073.23952,123.088642 1086.7578,123.088642 C1099.9587,123.088642 1112.5546,122.116808 1124.53558,120.143392 L1340.58009,505.574475 L1340.58009,352.282642 C1340.58009,283.014725 1339.0428,230.942308 1335.97812,196.045558 C1333.51845,169.518475 1327.37919,150.359475 1317.55042,138.568558 C1314.47583,134.641558 1309.10025,130.218725 1301.43361,125.300058 L1301.43361,120.143392 C1313.40468,122.116808 1326.29812,123.088642 1340.12386,123.088642 C1356.08198,123.088642 1372.2087,122.116808 1388.49411,120.143392 L1388.49411,125.300058 C1375.88829,132.668142 1367.59681,141.275808 1363.60976,151.093308 C1358.70034,162.884225 1355.47698,184.988475 1353.9496,217.415975 C1352.70984,242.971225 1352.09493,293.823892 1352.09493,369.973975 L1352.09493,633.063142 Z" id="Fill-12" fill="#525B53"></path>
            <path d="M1440.53402,446.888633 L1603.60632,446.888633 C1603.60632,423.2473 1596.53476,404.217217 1582.4214,389.77855 C1568.29812,375.3498 1549.55304,368.130467 1526.22583,368.130467 C1479.84911,368.130467 1451.28517,394.379883 1440.53402,446.888633 M1651.06411,456.5673 L1438.24296,456.5673 C1436.68583,464.2428 1435.93206,473.604133 1435.93206,484.661217 C1435.93206,512.606383 1441.4564,537.477383 1452.51501,559.274217 C1468.47312,590.908383 1495.96591,606.71555 1534.96361,606.71555 C1561.99025,606.71555 1585.10919,598.74255 1604.3105,582.7668 C1623.49198,566.800967 1637.39706,543.923217 1645.99599,514.13355 L1654.75361,521.967717 C1647.3746,552.0648 1632.17025,575.854883 1609.14058,593.367717 C1586.11091,610.860717 1558.76689,619.617133 1527.13829,619.617133 C1487.83312,619.617133 1455.35157,607.181633 1429.71345,582.310633 C1404.06542,557.429717 1391.2414,525.964133 1391.2414,487.884133 C1391.2414,451.95605 1404.30345,421.4028 1430.40771,396.224383 C1456.50206,371.055883 1488.27943,358.461717 1525.75968,358.461717 C1557.38829,358.461717 1585.25796,367.902383 1609.3687,386.783717 C1633.47943,405.66505 1647.3746,428.92955 1651.06411,456.5673" id="Fill-14" fill="#525B53"></path>
            <path d="M1655.20489,382.4065 L1655.20489,379.63975 C1677.9271,375.960667 1698.04087,370.89325 1715.55611,364.4375 L1713.25513,428.925583 C1723.07398,407.743583 1736.04677,390.8555 1752.17349,378.261333 C1768.30021,365.677083 1785.26005,359.38 1803.08275,359.38 C1805.22505,359.38 1807.52603,359.538667 1809.9857,359.836167 L1792.94652,408.19975 C1785.26005,399.602 1777.12726,395.308083 1768.52833,395.308083 C1752.55038,395.308083 1739.66685,404.292583 1729.82816,422.251667 C1719.99939,440.21075 1715.08997,463.633917 1715.08997,492.491417 L1715.08997,530.720167 C1715.08997,561.432083 1717.24218,582.77275 1721.53669,594.742167 C1724.91874,603.65725 1732.13907,609.022167 1743.18775,610.866667 L1743.18775,614.089583 C1729.38185,612.869833 1712.78898,612.245083 1693.4389,612.245083 C1675.93357,612.245083 1661.03669,612.869833 1648.75816,614.089583 L1648.75816,610.866667 C1660.73915,609.329583 1668.87193,602.88375 1673.17636,591.51925 C1677.47087,580.164667 1679.62308,559.895 1679.62308,530.720167 L1679.62308,515.984 C1679.62308,453.95525 1678.55193,415.7265 1676.39972,401.287833 C1674.85251,390.240667 1667.80079,383.943583 1655.20489,382.4065" id="Fill-16" fill="#525B53"></path>
            <path d="M2120.46179,465.312808 C2110.94048,446.590142 2098.81072,424.783392 2084.07252,399.912392 C2074.23384,383.321808 2062.719,372.274642 2049.5181,366.751058 L2049.5181,363.518225 C2051.89843,363.676892 2054.02089,363.795892 2056.26236,363.934725 C2046.86007,354.632892 2036.06925,349.704308 2023.7213,349.704308 C2007.43589,349.704308 1994.55236,355.545225 1985.03105,367.207225 C2028.93818,386.247225 2050.8967,413.111475 2050.8967,447.809892 C2050.8967,471.153725 2040.84974,491.106058 2020.72605,507.686725 C2012.9999,514.063142 2004.45056,519.338808 1995.10777,523.583142 C2035.8213,546.659225 2082.83277,559.907892 2132.97834,559.907892 C2144.2849,559.907892 2155.42285,559.154225 2166.38228,557.855142 C2162.60351,549.435892 2158.1999,540.243142 2153.17146,530.257058 L2120.46179,465.312808 Z" id="Fill-18" fill="#95C11E"></path>
            <path d="M1978.79657,513.60995 C1982.44641,511.2597 1985.85821,508.631783 1988.94272,505.617117 C2002.91723,491.961867 2009.89952,472.842533 2009.89952,448.269033 C2009.89952,422.793117 2002.99657,403.138283 1989.17084,389.31445 C1975.35502,375.500533 1955.39002,368.588617 1929.28575,368.588617 C1906.10731,368.588617 1887.65977,374.459283 1873.84395,386.032033 C1895.30657,438.392033 1932.16198,482.779033 1978.79657,513.60995" id="Fill-20" fill="#95C11E"></path>
            <path d="M2132.97438,0 C1978.34233,0 1852.98831,125.33675 1852.98831,279.9475 C1852.98831,311.085833 1858.14569,340.984583 1867.51823,368.9595 C1884.55741,361.978167 1903.90749,358.45775 1925.60815,358.45775 C1942.1911,358.45775 1957.85167,360.292333 1972.58987,363.981333 C1996.23446,336.343583 2026.02823,322.529667 2061.96126,322.529667 C2062.88364,322.529667 2067.32692,322.837083 2075.32085,323.451917 L2060.73143,364.209417 C2073.8629,364.973 2084.61405,365.369667 2092.81626,365.369667 C2099.8779,365.369667 2116.16331,364.754833 2141.65266,363.525167 L2141.65266,366.748083 L2138.4293,368.1265 C2128.29307,372.430333 2123.22495,378.261333 2123.22495,385.629417 C2123.22495,391.470333 2129.36421,406.35525 2141.65266,430.313917 L2203.59077,550.9105 C2209.92839,549.264333 2216.147,547.3405 2222.29618,545.267917 L2248.52938,492.491417 C2268.79192,451.962 2280.61421,427.547167 2283.99626,419.256833 C2287.37831,410.9665 2289.06438,402.834833 2289.06438,394.842 C2289.06438,380.105833 2279.85052,370.7445 2261.42282,366.748083 L2261.42282,363.525167 C2276.46848,364.754833 2289.52061,365.369667 2300.58913,365.369667 C2306.72839,365.369667 2321.3079,364.754833 2344.34749,363.525167 L2344.34749,366.748083 C2332.98143,371.974167 2322.69643,381.176833 2313.47266,394.375917 C2303.95134,408.507167 2287.52708,439.367833 2264.18995,486.957917 L2238.34356,539.327833 C2340.73733,497.697667 2412.96044,397.2815 2412.96044,279.9475 L2132.97438,279.9475 L2132.97438,0 Z" id="Fill-22" fill="#95C11E"></path>
            <path d="M2132.97438,0 C2287.60643,0 2412.96044,125.33675 2412.96044,279.9475 L2412.96044,0 L2132.97438,0 Z" id="Fill-24" fill="#95C11E"></path>
            <path d="M1914.54557,595.2023 C1962.15213,595.2023 1996.09164,600.7358 2016.35418,611.782967 C2032.01475,620.380717 2039.85,631.427883 2039.85,644.954217 C2039.85,661.21755 2029.86254,674.267883 2009.89754,684.0953 C1989.94246,693.922717 1963.52082,698.841383 1930.6723,698.841383 C1897.81385,698.841383 1872.23525,694.1508 1853.97615,684.789467 C1835.69721,675.418217 1826.5627,662.298467 1826.5627,645.410383 C1826.5627,628.829717 1834.54672,616.076883 1850.51475,607.181633 C1864.94549,599.198717 1886.2891,595.2023 1914.54557,595.2023 M1929.74992,526.112883 C1876.0041,526.112883 1849.12623,499.55605 1849.12623,446.432467 C1849.12623,421.868883 1856.18787,402.74955 1870.32107,389.084383 C1871.4418,388.003467 1872.66172,387.031633 1873.85189,386.03005 C1871.5509,380.43705 1869.4582,374.734967 1867.52418,368.963467 C1861.40475,371.462467 1855.57295,374.3978 1850.05852,377.799217 C1821.49459,395.619467 1807.21262,418.953383 1807.21262,447.810883 C1807.21262,472.06705 1818.42,492.0293 1840.83475,507.687717 C1851.27844,515.0558 1864.94549,522.4338 1881.8359,529.801883 C1849.28492,535.632883 1833.00943,546.997383 1833.00943,563.885467 C1833.00943,575.249967 1844.2168,583.68905 1866.64148,589.212633 C1842.38197,594.438717 1825.33287,599.9623 1815.5041,605.7933 C1797.99877,615.928133 1789.24115,628.829717 1789.24115,644.488133 C1789.24115,662.9133 1802.22385,678.184967 1828.16943,690.31305 C1854.115,702.441133 1886.90402,708.510133 1926.52656,708.510133 C1963.07451,708.510133 1995.62549,702.827883 2024.18943,691.4733 C2057.34541,678.2643 2073.93828,658.143383 2073.93828,631.130383 C2073.93828,608.103883 2060.12246,592.13805 2032.4809,583.222967 C2010.97861,576.479633 1971.67344,570.489967 1914.54557,565.263883 C1886.60648,562.80455 1872.62205,556.97355 1872.62205,547.760967 C1872.62205,540.085467 1881.8359,536.247717 1900.27352,536.247717 C1925.13803,536.247717 1939.72746,536.098967 1944.03189,535.781633 C1963.1241,534.462717 1980.14344,530.37705 1995.10975,523.584133 C1989.55566,520.430633 1984.11066,517.118467 1978.79459,513.607967 C1965.92098,521.908217 1949.60582,526.112883 1929.74992,526.112883" id="Fill-26" fill="#525B53"></path>
            <path d="M2211.67,566.64825 L2203.5868,550.9105 C2191.4868,554.054083 2179.05951,556.344833 2166.38426,557.852167 C2177.83959,583.338 2183.57221,601.624333 2183.57221,612.711167 C2183.57221,626.217667 2177.04615,639.65475 2163.99402,653.002583 C2150.94189,666.37025 2137.81041,673.044167 2124.60951,673.044167 C2113.5509,673.044167 2104.95197,668.899 2098.8127,660.608667 L2095.58934,659.686417 L2081.29746,704.827083 C2083.14221,705.124583 2085.13574,705.28325 2087.29787,705.28325 C2094.66697,705.28325 2104.17836,703.746167 2115.85189,700.681917 C2136.12434,695.455833 2152.47918,685.70775 2164.91639,671.42775 C2177.35361,657.14775 2193.25221,630.511583 2212.59238,591.51925 L2238.33959,539.327833 C2233.07311,541.469833 2227.71738,543.44325 2222.29221,545.267917 L2211.67,566.64825 Z" id="Fill-28" fill="#525B53"></path>
            <path d="M2059.65532,367.206233 L2060.72647,364.2114 C2059.29827,364.132067 2057.75106,364.0329 2056.26335,363.933733 C2057.38409,365.054317 2058.57425,365.956733 2059.65532,367.206233" id="Fill-30" fill="#525B53"></path>
        </g>
    </g>
</svg>