<?xml version="1.0" encoding="UTF-8" standalone="no"?>
<svg width="931px" height="448px" viewBox="0 0 931 448" version="1.1" xmlns="http://www.w3.org/2000/svg" xmlns:xlink="http://www.w3.org/1999/xlink">
    <!-- Generator: Sketch 3.8.2 (29753) - http://www.bohemiancoding.com/sketch -->
    <title>cws</title>
    <desc>Created with Sketch.</desc>
    <defs></defs>
    <g id="Page-1" stroke="none" stroke-width="1" fill="none" fill-rule="evenodd">
        <g id="cws">
            <path d="M23.1635128,111.88293 L23.1635128,275.48097 C23.1635128,275.48097 107.719323,191.236823 296.879987,219.539283 L296.879987,55.9412441 C107.719323,27.6387833 23.1635128,111.88293 23.1635128,111.88293 L23.1635128,111.88293 Z" id="Fill-1" fill="#F28898"></path>
            <path d="M296.879103,55.9394755 L296.879103,219.537515 C317.46261,222.614926 339.282895,227.032074 362.366459,233.032142 L362.366459,69.4341029 C339.282895,63.4340343 317.46261,59.0168873 296.879103,55.9394755" id="Fill-3" fill="#F28898"></path>
            <path d="M362.3669,69.4349873 L362.3669,233.033026 C383.162427,238.436183 404.987128,245.13486 427.854256,253.301497 L427.854256,89.7034578 C404.987128,81.5368206 383.162427,74.8381441 362.3669,69.4349873" id="Fill-5" fill="#DE89AB"></path>
            <path d="M427.854698,89.7016892 L427.854698,253.299728 C448.804821,260.776601 470.625105,269.491513 493.342053,279.585954 L493.342053,115.987915 C470.625105,105.893474 448.804821,97.1785618 427.854698,89.7016892" id="Fill-7" fill="#CA8BBF"></path>
            <path d="M513.457352,125.147636 C506.668328,121.959685 499.980897,118.935332 493.342053,115.986146 L493.342053,279.584185 C499.980897,282.533372 506.668328,285.557725 513.457352,288.745675 C528.925901,296.010313 544.054337,302.31547 558.829409,307.767264 L558.829409,144.169225 C544.054337,138.71743 528.925901,132.412274 513.457352,125.147636" id="Fill-9" fill="#B58CD2"></path>
            <path d="M558.830734,144.167898 L558.830734,307.765937 C581.525596,316.135967 603.372383,322.476496 624.318089,327.1103 L624.318089,163.512261 C603.372383,158.878457 581.525596,152.537927 558.830734,144.167898" id="Fill-11" fill="#A18DE5"></path>
            <path d="M624.318973,163.510934 L624.318973,327.108974 C809.725134,368.123444 924.24629,275.482738 924.24629,275.482738 L924.24629,111.884699 C924.24629,111.884699 809.725134,204.525405 624.318973,163.510934" id="Fill-13" fill="#A18DE5"></path>
            <path d="M4.36538199,215.5329 L0.00132511848,214.851978 L6.82126825,171.162459 L12.1217422,185.3159 L12.1217422,115.91938 L29.529382,188.114753 L39.7681308,134.087606 L44.1454389,134.498812 L44.1454389,165.940586 L53.7127943,181.911292 L61.0539507,115.769047 L73.6160739,170.636292 L83.801818,109.459469 L92.3179128,156.328096 L100.180282,155.200596 L103.245723,180.991606 L109.301515,97.8616941 L113.714159,98.0208706 L113.714159,152.264675 L121.788548,146.383988 L135.887809,105.453527 L138.007998,126.650527 L138.007998,75.9837725 L153.441211,132.637331 L164.510368,91.0966941 L164.510368,152.388478 L167.050178,135.453871 L181.542557,136.568106 L192.117003,88.9345471 L192.117003,158.998724 L206.569628,136.391243 L219.04341,139.512871 L227.563922,88.3287922 L236.208112,145.809184 L258.372927,93.8469098 L258.372927,142.687557 L261.522292,130.60341 L274.194842,140.985253 L280.705591,127.95489 L295.917951,138.106812 L295.917951,128.901106 L312.928055,142.002214 L323.970709,138.690459 L339.863297,150.880724 L354.444017,135.62189 L354.444017,160.82041 L368.799467,149.213792 L368.799467,160.528586 C373.145856,158.224949 380.244074,155.18291 384.374027,157.146086 C385.632889,157.74742 387.200946,159.047361 387.554311,161.859478 L388.185951,166.922175 L397.510368,159.922831 L397.510368,176.503714 L393.093306,176.503714 L393.093306,168.765969 L384.749477,175.031331 L383.172586,162.407753 C383.044491,161.4129 382.664624,161.227194 382.479107,161.138763 C379.917211,159.931675 372.187354,163.455665 367.761458,166.219145 L364.382406,168.328233 L364.382406,158.468135 L350.026955,170.074753 L350.026955,146.640439 L340.313837,156.801204 L323.078463,143.571871 L312.031391,146.892469 L300.335012,137.881312 L300.335012,146.366302 L282.41941,134.41038 L275.674557,147.909429 L264.057685,138.394214 L253.955865,177.153684 L253.955865,115.459537 L234.158595,161.877165 L227.343069,116.556086 L222.612396,144.960243 L208.579391,141.449518 L187.699941,174.111645 L187.699941,129.215037 L185.023202,141.272655 L170.804681,140.176106 L164.483865,182.357871 L160.093306,182.030675 L160.093306,124.837684 L153.489799,149.620576 L142.42506,109.004047 L142.42506,170.976753 L138.016832,171.197831 L133.498178,125.960763 L125.512131,149.143047 L109.297098,160.948635 L109.297098,158.737851 L105.975467,204.297694 L101.580491,204.39939 L96.3286047,160.219076 L88.7312588,161.306782 L83.9917517,135.219527 L74.3007185,193.425057 L62.5690028,142.174655 L56.6589744,195.414763 L39.7283773,167.169782 L39.7283773,158.021557 L30.0461782,209.108361 L16.5388038,153.078243 L16.5388038,209.696429 L8.58809289,188.4729 L4.36538199,215.5329 Z" id="Fill-15" fill="#07BC6F"></path>
            <path d="M59.222637,412.389536 C55.9672626,423.47883 45.5429972,431.375752 33.0206275,431.375752 C16.6598313,431.375752 4.9325327,418.40287 4.9325327,403.475654 C4.9325327,389.20283 16.0061062,375.725889 32.9455374,375.725889 C48.3654995,375.801056 57.1245327,387.17333 59.222637,394.999507 L47.8575374,394.999507 C46.1923052,391.303075 41.4174616,385.289742 32.8748645,385.214575 C22.4505991,385.214575 15.7189972,393.986968 15.7189972,403.475654 C15.7189972,413.260585 22.7421251,421.882644 32.9455374,421.882644 C42.4996417,421.882644 46.8460303,414.34387 47.8575374,412.389536 L59.222637,412.389536 Z" id="Fill-17" fill="#000000"></path>
            <path d="M73.6492019,410.506832 C73.6492019,417.46196 78.9320076,422.604244 85.4471735,422.604244 C91.9623393,422.604244 97.174472,417.46196 97.174472,410.431666 C97.174472,403.405793 91.9623393,398.259087 85.4471735,398.259087 C78.9320076,398.259087 73.6492019,403.405793 73.6492019,410.431666 L73.6492019,410.506832 Z M64.1657706,410.360921 C64.1657706,400.217842 71.6217706,389.420372 85.4471735,389.420372 C99.2725763,389.420372 106.728576,400.217842 106.728576,410.431666 C106.728576,420.725077 99.2725763,431.522548 85.4471735,431.522548 C71.6217706,431.522548 64.1657706,420.725077 64.1657706,410.431666 L64.1657706,410.360921 Z" id="Fill-19" fill="#000000"></path>
            <path d="M150.684965,430.361002 L141.780169,430.361002 L141.780169,425.072806 C140.114936,428.190012 136.572453,431.665365 129.403562,431.590198 C116.37323,431.523875 113.912927,421.593031 113.912927,414.633482 L113.912927,390.580149 L123.396358,390.580149 L123.396358,412.245835 C123.396358,418.113257 125.3487,422.751482 132.084718,422.680737 C138.886993,422.680737 141.205951,418.188424 141.205951,412.537659 L141.205951,390.580149 L150.684965,390.580149 L150.684965,430.361002 Z" id="Fill-21" fill="#000000"></path>
            <path d="M193.336995,410.433434 C193.336995,404.707503 189.21146,398.185689 181.176825,398.185689 C177.700597,398.185689 174.732332,399.565219 172.559137,401.811375 C170.461033,403.986787 169.158,407.099572 169.158,410.579346 C169.158,413.983954 170.461033,417.025993 172.634227,419.201405 C174.807422,421.376817 177.84636,422.751925 181.247498,422.751925 C188.487062,422.751925 193.336995,417.025993 193.336995,410.508601 L193.336995,410.433434 Z M160.111858,390.580591 L169.016654,390.580591 L169.016654,396.377268 C171.839156,392.393434 176.472654,389.346974 183.058493,389.346974 C196.954569,389.346974 202.816009,401.156983 202.816009,410.796003 C202.816009,422.101954 194.785791,431.59064 183.129166,431.59064 C175.386057,431.59064 171.185431,427.606807 169.595289,425.073248 L169.595289,430.361444 L169.595289,444.271699 L160.111858,444.271699 L160.111858,390.580591 Z" id="Fill-23" fill="#000000"></path>
            <polygon id="Fill-25" fill="#000000" points="210.221213 430.360118 219.700227 430.360118 219.700227 376.739755 210.221213 376.739755"></polygon>
            <path d="M229.04673,430.360118 L238.525744,430.360118 L238.525744,390.579265 L229.04673,390.579265 L229.04673,430.360118 Z M229.04673,385.215902 L238.525744,385.215902 L238.525744,376.739755 L229.04673,376.739755 L229.04673,385.215902 Z" id="Fill-27" fill="#000000"></path>
            <path d="M247.875338,390.579707 L256.780135,390.579707 C256.780135,392.321805 256.780135,393.988736 256.705045,395.867903 C258.445367,392.755119 261.98785,389.275344 269.081651,389.350511 C282.04131,389.421256 284.501613,399.347677 284.501613,406.37355 L284.501613,430.36056 L275.018182,430.36056 L275.018182,408.765619 C275.018182,402.827452 273.065841,398.259972 266.404912,398.259972 C259.67331,398.335138 257.354353,402.827452 257.354353,408.40305 L257.354353,430.36056 L247.875338,430.36056 L247.875338,390.579707 Z" id="Fill-28" fill="#000000"></path>
            <path d="M301.166745,410.433434 C301.166745,417.388562 306.162442,422.681179 313.039807,422.681179 C316.586707,422.681179 319.409209,421.447562 321.507314,419.27215 C323.605418,417.171905 324.837778,414.205032 324.908451,410.796003 C324.908451,407.753964 323.967617,404.566013 322.015276,402.244689 C320.129191,399.852621 317.165342,398.260856 313.039807,398.260856 C306.595314,398.260856 301.166745,403.26165 301.166745,410.358268 L301.166745,410.433434 Z M334.391882,425.648052 C334.391882,432.174287 333.163939,436.374777 330.699219,439.70864 C327.298082,444.271699 320.637153,447.897385 312.461172,447.897385 C300.080148,447.897385 294.143617,440.504523 292.699238,434.345277 L303.702138,434.345277 C304.567882,436.158121 306.087352,437.533228 307.827674,438.404277 C309.780015,439.487562 311.878119,439.783807 313.039807,439.783807 C318.684811,439.783807 324.837778,435.866297 324.837778,427.827885 L324.837778,424.494023 C322.885437,428.040121 318.684811,431.59064 311.953209,431.59064 C300.517437,431.59064 291.683314,422.897836 291.683314,410.650091 C291.683314,397.68163 300.950309,389.42214 311.953209,389.42214 C317.668887,389.42214 322.593911,392.030866 324.837778,395.943954 L324.837778,390.580591 L334.391882,390.580591 L334.391882,425.648052 Z" id="Fill-29" fill="#000000"></path>
            <polygon id="Fill-30" fill="#000000" points="358.881839 376.740639 369.884739 376.740639 379.005972 415.579698 388.34364 376.740639 396.594711 376.740639 406.007469 415.650443 415.053611 376.740639 425.985839 376.740639 411.506711 430.361002 401.806844 430.361002 392.398502 392.317825 383.060834 430.361002 373.069441 430.361002"></polygon>
            <path d="M434.552288,410.649649 C434.552288,415.579698 438.099189,422.751482 446.641786,422.751482 C451.924591,422.751482 455.400819,419.996845 457.207397,416.37558 C458.148231,414.633482 458.58552,412.754316 458.731283,410.795561 C458.801956,408.911973 458.439757,406.957639 457.644686,405.215541 C455.979454,401.448365 452.286791,398.189669 446.566696,398.189669 C438.89426,398.189669 434.552288,404.419659 434.552288,410.578904 L434.552288,410.649649 Z M468.139625,430.361002 L458.656193,430.361002 L458.656193,424.635071 C456.125217,429.273296 450.837994,431.590198 445.263663,431.590198 C432.524857,431.590198 425.068857,421.663776 425.068857,410.432992 C425.068857,397.897845 434.119416,389.350953 445.263663,389.350953 C452.503227,389.350953 456.920288,393.188875 458.656193,396.376825 L458.656193,390.580149 L468.139625,390.580149 L468.139625,430.361002 Z" id="Fill-31" fill="#000000"></path>
            <polygon id="Fill-32" fill="#000000" points="496.820047 430.361002 487.557469 430.361002 472.791232 390.580149 482.632445 390.580149 492.190967 418.40508 501.740654 390.580149 511.590701 390.580149"></polygon>
            <path d="M544.75665,406.374876 C544.394451,402.6077 540.414679,397.319504 533.462224,397.394671 C526.443513,397.394671 522.605086,402.461788 522.242887,406.374876 L544.75665,406.374876 Z M522.101541,413.626249 C522.534413,419.997729 528.179418,423.552671 533.612404,423.477504 C538.241484,423.477504 541.351096,421.377259 543.166508,418.114141 L552.937048,418.114141 C551.05538,422.53571 548.232878,425.869573 544.902413,428.115729 C541.571949,430.432631 537.667266,431.591082 533.537314,431.591082 C521.302053,431.591082 512.54302,421.664661 512.54302,410.579788 C512.54302,399.278259 521.377143,389.347416 533.391551,389.347416 C539.328082,389.347416 544.540214,391.593573 548.232878,395.431494 C553.082811,400.432288 554.88939,406.6667 554.094318,413.626249 L522.101541,413.626249 Z" id="Fill-33" fill="#000000"></path>
            <path d="M600.375407,401.305548 C600.300317,399.200881 599.213719,397.029891 595.521056,397.029891 C592.340772,397.029891 590.821302,399.059391 590.821302,401.018146 C590.891975,403.551705 593.789568,404.926813 597.548487,406.010097 C603.922307,407.752195 610.795255,409.640205 610.870345,418.187097 C611.016108,426.375842 604.138743,431.593293 595.812582,431.593293 C589.659615,431.593293 581.333454,428.405342 580.609056,418.766323 L590.096904,418.766323 C590.459103,423.041979 594.151767,423.908607 595.958345,423.908607 C598.92661,423.908607 601.457587,421.954274 601.386914,419.270381 C601.386914,415.870195 598.423065,414.928401 591.108411,412.390421 C585.750516,410.723489 581.408544,407.752195 581.333454,402.030685 C581.333454,394.204509 587.92371,389.349626 595.596146,389.349626 C600.954042,389.349626 608.918004,391.741695 609.708658,401.305548 L600.375407,401.305548 Z" id="Fill-34" fill="#000000"></path>
            <path d="M625.359191,410.506832 C625.359191,417.46196 630.646413,422.604244 637.161579,422.604244 C643.672328,422.604244 648.884461,417.46196 648.884461,410.431666 C648.884461,403.405793 643.672328,398.259087 637.161579,398.259087 C630.646413,398.259087 625.359191,403.405793 625.359191,410.431666 L625.359191,410.506832 Z M615.880176,410.360921 C615.880176,400.217842 623.336176,389.420372 637.161579,389.420372 C650.986982,389.420372 658.442982,400.217842 658.442982,410.431666 C658.442982,420.725077 650.986982,431.522548 637.161579,431.522548 C623.336176,431.522548 615.880176,420.725077 615.880176,410.431666 L615.880176,410.360921 Z" id="Fill-35" fill="#000000"></path>
            <polygon id="Fill-36" fill="#000000" points="665.770445 430.360118 675.24946 430.360118 675.24946 376.739755 665.770445 376.739755"></polygon>
            <path d="M721.22312,430.361002 L712.318324,430.361002 L712.318324,425.072806 C710.653092,428.190012 707.110609,431.665365 699.941718,431.590198 C686.911386,431.523875 684.451082,421.593031 684.451082,414.633482 L684.451082,390.580149 L693.934514,390.580149 L693.934514,412.245835 C693.934514,418.113257 695.891272,422.751482 702.618457,422.680737 C709.425149,422.680737 711.744106,418.188424 711.744106,412.537659 L711.744106,390.580149 L721.22312,390.580149 L721.22312,430.361002 Z" id="Fill-37" fill="#000000"></path>
            <polygon id="Fill-38" fill="#000000" points="733.253871 397.898729 726.668032 397.898729 726.668032 390.581033 733.253871 390.581033 733.253871 376.741524 742.732885 376.741524 742.732885 390.581033 749.543994 390.581033 749.543994 397.898729 742.732885 397.898729 742.732885 430.361886 733.253871 430.361886"></polygon>
            <path d="M755.048095,430.360118 L764.527109,430.360118 L764.527109,390.579265 L755.048095,390.579265 L755.048095,430.360118 Z M755.048095,385.215902 L764.527109,385.215902 L764.527109,376.739755 L755.048095,376.739755 L755.048095,385.215902 Z" id="Fill-39" fill="#000000"></path>
            <path d="M781.258938,410.506832 C781.258938,417.46196 786.546161,422.604244 793.061327,422.604244 C799.572076,422.604244 804.784209,417.46196 804.784209,410.431666 C804.784209,403.405793 799.572076,398.259087 793.061327,398.259087 C786.546161,398.259087 781.258938,403.405793 781.258938,410.431666 L781.258938,410.506832 Z M771.779924,410.360921 C771.779924,400.217842 779.235924,389.420372 793.061327,389.420372 C806.88673,389.420372 814.34273,400.217842 814.34273,410.431666 C814.34273,420.725077 806.88673,431.522548 793.061327,431.522548 C779.235924,431.522548 771.779924,420.725077 771.779924,410.431666 L771.779924,410.360921 Z" id="Fill-40" fill="#000000"></path>
            <path d="M821.672844,390.579707 L830.57764,390.579707 C830.57764,392.321805 830.57764,393.988736 830.50255,395.867903 C832.242872,392.755119 835.785355,389.275344 842.883573,389.350511 C855.838815,389.421256 858.299118,399.347677 858.299118,406.37355 L858.299118,430.36056 L848.820104,430.36056 L848.820104,408.765619 C848.820104,402.827452 846.863346,398.259972 840.202417,398.259972 C833.470815,398.335138 831.151858,402.827452 831.151858,408.40305 L831.151858,430.36056 L821.672844,430.36056 L821.672844,390.579707 Z" id="Fill-41" fill="#000000"></path>
            <path d="M884.809881,401.305548 C884.734791,399.200881 883.648193,397.029891 879.95553,397.029891 C876.775245,397.029891 875.255776,399.059391 875.255776,401.018146 C875.326449,403.551705 878.224042,404.926813 881.982961,406.010097 C888.356781,407.752195 895.229729,409.640205 895.304819,418.187097 C895.450582,426.375842 888.573217,431.593293 880.247056,431.593293 C874.094089,431.593293 865.767928,428.405342 865.04353,418.766323 L874.531378,418.766323 C874.893577,423.041979 878.586241,423.908607 880.392819,423.908607 C883.361084,423.908607 885.892061,421.954274 885.821388,419.270381 C885.821388,415.870195 882.857539,414.928401 875.542885,412.390421 C870.18499,410.723489 865.843018,407.752195 865.767928,402.030685 C865.767928,394.204509 872.358184,389.349626 880.03062,389.349626 C885.388516,389.349626 893.352478,391.741695 894.143132,401.305548 L884.809881,401.305548 Z" id="Fill-42" fill="#000000"></path>
            <path d="M911.329477,384.007929 L911.329477,389.795763 L914.408169,389.795763 C915.468264,389.751547 918.246595,389.795763 918.246595,386.709508 C918.246595,384.007929 915.80396,384.007929 914.748282,384.007929 L911.329477,384.007929 Z M915.340169,381.390361 C918.211259,381.390361 921.881837,382.48691 921.881837,386.457478 C921.881837,388.106724 921.24578,389.835557 918.798728,390.892312 C920.441875,391.48038 921.369458,392.541557 921.541723,395.075116 C921.749325,398.369184 921.749325,398.705224 922.093856,399.589537 L918.546955,399.589537 C918.211259,399.001469 918.078747,396.596135 917.955069,395.287351 C917.831391,393.890135 917.575202,392.24089 914.160813,392.24089 L911.329477,392.24089 L911.329477,399.589537 L907.658899,399.589537 L907.658899,381.390361 L915.340169,381.390361 Z M914.580434,377.123547 C907.067012,377.123547 901.37342,383.24742 901.37342,390.596067 C901.37342,398.072939 907.323202,404.068586 914.620188,404.068586 C921.881837,404.068586 927.787448,398.156949 927.787448,390.596067 C927.787448,383.335851 922.173363,377.123547 914.620188,377.123547 L914.580434,377.123547 Z M914.708529,374.421969 C923.692832,374.421969 930.698292,381.81041 930.698292,390.596067 C930.698292,399.589537 923.480813,406.770165 914.620188,406.770165 C905.680055,406.770165 898.462576,399.589537 898.462576,390.596067 C898.462576,381.854625 905.423865,374.421969 914.664358,374.421969 L914.708529,374.421969 Z" id="Fill-43" fill="#000000"></path>
            <path d="M335.817268,218.358725 C316.916662,263.290705 266.12487,301.917528 201.944965,301.917528 C115.710671,301.917528 49.9582919,235.306597 49.9582919,150.960754 C49.9582919,67.7954696 114.138197,-0.000442156863 201.551846,-0.000442156863 C273.607373,-0.000442156863 318.886671,48.0885382 335.817268,85.1368618 L300.772301,85.1368618 C290.931088,67.7954696 257.856131,28.7751265 201.551846,28.7751265 C133.431922,28.7751265 82.2470123,82.7713225 82.2470123,150.562813 C82.2470123,219.543705 133.825041,273.146381 201.551846,273.146381 C262.57797,273.146381 293.687335,229.39496 300.772301,218.358725 L335.817268,218.358725 Z" id="Fill-44" fill="#45003B"></path>
            <polygon id="Fill-45" fill="#45003B" points="354.689164 5.12592451 388.15724 5.12592451 454.307155 252.256238 518.093941 5.12592451 542.507041 5.12592451 607.473183 252.256238 672.832444 5.12592451 705.911818 5.12592451 624.408197 296.794699 592.512595 296.794699 530.3027 59.9135814 468.088387 296.794699 435.406548 296.794699"></polygon>
            <path d="M759.035818,217.599666 C763.757657,266.082166 799.200159,276.32694 817.310112,276.32694 C847.628823,276.32694 875.584406,253.069489 875.584406,220.752244 C875.584406,179.759881 840.539439,170.695666 806.678245,159.65943 C783.051382,152.567234 732.259591,137.58696 732.259591,82.4057833 C731.473354,30.7751265 774.393941,1.99955784 818.887003,1.99955784 C855.111325,1.99955784 896.843723,22.1044304 901.574396,77.2856069 L869.285676,77.2856069 C865.738775,58.3657147 856.290681,29.5901461 817.70323,29.5901461 C788.568292,29.5901461 764.548311,49.301499 764.548311,79.6467245 C764.155192,115.12097 792.897012,123.791666 836.996955,138.77194 C864.55942,149.414656 907.868709,164.784028 907.868709,218.386705 C907.868709,266.082166 872.041922,303.917528 817.70323,303.917528 C768.881448,303.917528 728.323989,273.174362 726.358396,217.599666 L759.035818,217.599666 Z" id="Fill-46" fill="#45003B"></path>
        </g>
    </g>
</svg>