<?xml version="1.0" encoding="UTF-8"?> <svg xmlns="http://www.w3.org/2000/svg" xmlns:xlink="http://www.w3.org/1999/xlink" width="372px" height="380px" viewBox="0 0 372 380"> <!-- Generator: Sketch 47.1 (45422) - http://www.bohemiancoding.com/sketch --> <title>domespharma</title> <desc>Created with Sketch.</desc> <defs></defs> <g id="Page-1" stroke="none" stroke-width="1" fill="none" fill-rule="evenodd"> <g id="domespharma"> <path d="M19.9185,292.1366 C24.0785,292.1366 27.8405,291.4846 31.2035,290.1796 C34.5655,288.8746 37.4145,287.0996 39.7525,284.8516 C42.0885,282.6026 43.8985,279.9656 45.1815,276.9406 C46.4635,273.9146 47.1055,270.6536 47.1055,267.1546 L47.1055,266.9886 C47.1055,263.5456 46.4635,260.2986 45.1815,257.2456 C43.8985,254.1936 42.0885,251.5286 39.7525,249.2506 C37.4145,246.9746 34.5655,245.1706 31.2035,243.8376 C27.8405,242.5056 24.0785,241.8386 19.9185,241.8386 L4.4455,241.8386 L4.4455,292.1366 L19.9185,292.1366 Z M0.0005,237.9386 L19.9185,237.9386 C24.5915,237.9386 28.8805,238.6716 32.7845,240.1376 C36.6885,241.6046 40.0515,243.6376 42.8725,246.2386 C45.6935,248.8396 47.8735,251.8966 49.4125,255.4086 C50.9515,258.9236 51.7215,262.7276 51.7215,266.8226 L51.7215,266.9886 C51.7215,271.0836 50.9515,274.9016 49.4125,278.4426 C47.8735,281.9836 45.6935,285.0546 42.8725,287.6556 C40.0515,290.2566 36.6885,292.3026 32.7845,293.7966 C28.8805,295.2906 24.5915,296.0376 19.9185,296.0376 L0.0005,296.0376 L0.0005,237.9386 Z" id="Fill-1" fill="#3A3A3C"></path> <path d="M89.8491,222.4169 L93.2691,222.4169 L101.8181,232.5429 L97.8001,232.5429 L91.4731,226.8989 L85.1471,232.5429 L81.3001,232.5429 L89.8491,222.4169 Z M91.6451,293.1329 C95.3491,293.1329 98.7531,292.4559 101.8611,291.0999 C104.9661,289.7439 107.6451,287.8919 109.8971,285.5389 C112.1481,283.1879 113.9001,280.4349 115.1551,277.2799 C116.4081,274.1259 117.0351,270.7519 117.0351,267.1539 L117.0351,266.9879 C117.0351,263.3919 116.3941,260.0029 115.1121,256.8199 C113.8291,253.6399 112.0621,250.8729 109.8111,248.5209 C107.5591,246.1689 104.8661,244.3019 101.7321,242.9179 C98.5971,241.5349 95.1771,240.8429 91.4731,240.8429 C87.7681,240.8429 84.3631,241.5209 81.2571,242.8769 C78.1511,244.2329 75.4721,246.0859 73.2211,248.4379 C70.9691,250.7899 69.2171,253.5419 67.9631,256.6959 C66.7091,259.8499 66.0831,263.2259 66.0831,266.8219 L66.0831,266.9879 C66.0831,270.5859 66.7241,273.9749 68.0061,277.1549 C69.2881,280.3379 71.0551,283.1049 73.3071,285.4559 C75.5581,287.8089 78.2501,289.6759 81.3861,291.0579 C84.5191,292.4409 87.9391,293.1329 91.6451,293.1329 L91.6451,293.1329 Z M91.4731,297.0339 C86.9131,297.0339 82.7961,296.2169 79.1201,294.5859 C75.4441,292.9539 72.2941,290.7679 69.6731,288.0279 C67.0511,285.2899 65.0281,282.1229 63.6041,278.5249 C62.1781,274.9289 61.4661,271.1379 61.4661,267.1539 L61.4661,266.9879 C61.4661,263.0039 62.1931,259.1999 63.6471,255.5749 C65.1001,251.9519 67.1371,248.7569 69.7591,245.9889 C72.3801,243.2229 75.5431,241.0229 79.2481,239.3909 C82.9531,237.7589 87.0841,236.9419 91.6451,236.9419 C96.1461,236.9419 100.2491,237.7589 103.9551,239.3909 C107.6601,241.0229 110.8231,243.2089 113.4451,245.9469 C116.0651,248.6869 118.0891,251.8539 119.5141,255.4509 C120.9381,259.0489 121.6521,262.8379 121.6521,266.8219 C121.7071,266.8779 121.7071,266.9339 121.6521,266.9879 C121.6521,270.9719 120.9251,274.7769 119.4711,278.3999 C118.0181,282.0249 115.9801,285.2209 113.3591,287.9869 C110.7371,290.7549 107.5591,292.9539 103.8271,294.5859 C100.0931,296.2169 95.9751,297.0339 91.4731,297.0339 L91.4731,297.0339 Z" id="Fill-3" fill="#3A3A3C"></path> <polygon id="Fill-5" fill="#3A3A3C" points="134.0474 237.9384 138.2354 237.9384 162.2584 272.2994 186.2814 237.9384 190.4704 237.9384 190.4704 296.0384 186.0254 296.0384 186.0254 245.5744 162.3444 279.0234 162.0024 279.0234 138.3214 245.5744 138.3214 296.0384 134.0474 296.0384"></polygon> <polygon id="Fill-7" fill="#3A3A3C" points="205.5161 237.9384 248.0901 237.9384 248.0901 241.8384 209.9611 241.8384 209.9611 264.8304 244.2441 264.8304 244.2441 268.7314 209.9611 268.7314 209.9611 292.1364 248.5181 292.1364 248.5181 296.0384 205.5161 296.0384"></polygon> <path d="M280.3208,296.8681 C275.5328,296.8681 271.2168,296.0931 267.3688,294.5441 C263.5218,292.9961 259.8028,290.6721 256.2128,287.5721 L259.1188,284.3351 C260.7708,285.8291 262.4108,287.1151 264.0348,288.1941 C265.6588,289.2731 267.3258,290.1591 269.0358,290.8501 C270.7458,291.5431 272.5408,292.0681 274.4218,292.4281 C276.3018,292.7881 278.3538,292.9671 280.5768,292.9671 C282.7998,292.9671 284.8508,292.6771 286.7318,292.0961 C288.6128,291.5141 290.2078,290.7131 291.5198,289.6881 C292.8308,288.6651 293.8558,287.4471 294.5968,286.0361 C295.3378,284.6261 295.7088,283.0901 295.7088,281.4301 L295.7088,281.2641 C295.7088,279.7161 295.4658,278.3321 294.9818,277.1141 C294.4978,275.8971 293.6138,274.7901 292.3318,273.7941 C291.0498,272.7981 289.3248,271.8991 287.1598,271.0971 C284.9928,270.2951 282.2018,269.5611 278.7818,268.8971 C275.1908,268.1791 272.1138,267.3341 269.5488,266.3651 C266.9838,265.3981 264.8888,264.2641 263.2648,262.9631 C261.6408,261.6631 260.4578,260.1551 259.7168,258.4391 C258.9758,256.7241 258.6058,254.7601 258.6058,252.5461 L258.6058,252.3801 C258.6058,250.2221 259.0898,248.2171 260.0588,246.3621 C261.0278,244.5101 262.3678,242.8901 264.0778,241.5071 C265.7878,240.1251 267.8098,239.0461 270.1468,238.2701 C272.4838,237.4961 275.0488,237.1081 277.8418,237.1081 C282.1728,237.1081 285.9208,237.6891 289.0838,238.8511 C292.2468,240.0131 295.3378,241.7841 298.3588,244.1631 L295.5378,247.5661 C292.6868,245.1871 289.8238,243.4991 286.9458,242.5031 C284.0678,241.5071 280.9748,241.0091 277.6708,241.0091 C275.4478,241.0091 273.4388,241.3001 271.6428,241.8811 C269.8478,242.4621 268.3088,243.2501 267.0268,244.2461 C265.7448,245.2421 264.7608,246.4041 264.0778,247.7321 C263.3928,249.0601 263.0508,250.4711 263.0508,251.9651 L263.0508,252.1311 C263.0508,253.6801 263.2938,255.0771 263.7778,256.3221 C264.2618,257.5671 265.1458,258.7021 266.4278,259.7251 C267.7108,260.7501 269.4918,261.6761 271.7718,262.5061 C274.0498,263.3361 276.9578,264.1111 280.4918,264.8301 C287.4438,266.2141 292.4608,268.1641 295.5378,270.6811 C298.6158,273.2001 300.1538,276.5891 300.1538,280.8481 L300.1538,281.0141 C300.1538,283.3391 299.6548,285.4841 298.6578,287.4471 C297.6608,289.4121 296.2928,291.0871 294.5538,292.4691 C292.8158,293.8521 290.7358,294.9311 288.3138,295.7061 C285.8908,296.4801 283.2268,296.8681 280.3208,296.8681" id="Fill-9" fill="#3A3A3C"></path> <path d="M20.8589,353.4735 C23.6509,353.4735 26.1879,353.1405 28.4669,352.4725 C30.7469,351.8045 32.6999,350.8455 34.3239,349.5925 C35.9479,348.3395 37.2149,346.8235 38.1289,345.0415 C39.0399,343.2605 39.4959,341.2855 39.4959,339.1155 L39.4959,338.9485 C39.4959,336.6105 39.0539,334.5655 38.1709,332.8125 C37.2869,331.0585 36.0469,329.5985 34.4519,328.4285 C32.8559,327.2605 30.9469,326.3695 28.7239,325.7565 C26.5019,325.1455 24.0499,324.8385 21.3729,324.8385 L4.4449,324.8385 L4.4449,353.4735 L20.8589,353.4735 Z M-0.0001,320.9385 L21.7139,320.9385 C25.0189,320.9385 28.0259,321.3395 30.7329,322.1415 C33.4399,322.9445 35.7769,324.1065 37.7439,325.6275 C39.7099,327.1505 41.2339,329.0025 42.3169,331.1885 C43.3989,333.3745 43.9419,335.8775 43.9419,338.7005 L43.9419,338.8665 C43.9419,341.9105 43.3139,344.5925 42.0609,346.9165 C40.8059,349.2415 39.1109,351.1785 36.9739,352.7275 C34.8369,354.2765 32.3579,355.4385 29.5369,356.2125 C26.7149,356.9885 23.7369,357.3745 20.6029,357.3745 L4.4449,357.3745 L4.4449,379.0375 L-0.0001,379.0375 L-0.0001,320.9385 Z" id="Fill-11" fill="#3A3A3C"></path> <polygon id="Fill-14" fill="#3A3A3C" points="54.3716 320.9384 58.8166 320.9384 58.8166 347.9134 97.1156 347.9134 97.1156 320.9384 101.5616 320.9384 101.5616 379.0384 97.1156 379.0384 97.1156 351.8144 58.8166 351.8144 58.8166 379.0384 54.3716 379.0384"></polygon> <path d="M157.1294,358.8691 L141.4004,325.2541 L125.5834,358.8691 L157.1294,358.8691 Z M139.3484,320.5231 L143.6224,320.5231 L171.4914,379.0381 L166.6194,379.0381 L159.0104,362.7701 L123.7034,362.7701 L116.0944,379.0381 L111.4784,379.0381 L139.3484,320.5231 Z" id="Fill-17" fill="#3A3A3C"></path> <path d="M206.0298,351.0673 C208.5368,351.0673 210.8598,350.7623 212.9968,350.1513 C215.1338,349.5423 216.9718,348.6683 218.5108,347.5293 C220.0498,346.3903 221.2598,345.0033 222.1438,343.3653 C223.0268,341.7283 223.4698,339.8543 223.4698,337.7443 L223.4698,337.5783 C223.4698,333.6383 221.9728,330.5293 218.9808,328.2543 C215.9888,325.9773 211.7578,324.8383 206.2858,324.8383 L185.8538,324.8383 L185.8538,351.0673 L206.0298,351.0673 Z M181.4088,320.9383 L206.5428,320.9383 C210.2468,320.9383 213.5228,321.4503 216.3738,322.4733 C219.2228,323.4983 221.5588,324.8943 223.3838,326.6653 C224.8078,328.0483 225.9198,329.6673 226.7178,331.5203 C227.5148,333.3753 227.9158,335.3523 227.9158,337.4553 L227.9158,337.6213 C227.9158,340.0563 227.4718,342.2273 226.5898,344.1363 C225.7068,346.0463 224.4798,347.6923 222.9138,349.0753 C221.3448,350.4593 219.4938,351.5793 217.3568,352.4363 C215.2188,353.2953 212.8968,353.8883 210.3888,354.2203 L230.1378,379.0383 L224.4958,379.0383 L205.4308,354.9673 L205.2598,354.9673 L185.8538,354.9673 L185.8538,379.0383 L181.4088,379.0383 L181.4088,320.9383 Z" id="Fill-20" fill="#3A3A3C"></path> <polygon id="Fill-23" fill="#3A3A3C" points="240.481 320.9384 244.67 320.9384 268.693 355.2994 292.715 320.9384 296.905 320.9384 296.905 379.0384 292.46 379.0384 292.46 328.5744 268.779 362.0234 268.436 362.0234 244.755 328.5744 244.755 379.0384 240.481 379.0384"></polygon> <path d="M352.4722,358.8691 L336.7422,325.2541 L320.9262,358.8691 L352.4722,358.8691 Z M334.6902,320.5231 L338.9652,320.5231 L366.8342,379.0381 L361.9612,379.0381 L354.3532,362.7701 L319.0452,362.7701 L311.4372,379.0381 L306.8212,379.0381 L334.6902,320.5231 Z" id="Fill-26" fill="#3A3A3C"></path> <path d="M364.8843,38.2807 C353.1173,12.5447 330.8553,2.2817 304.4243,1.0727 C290.0343,0.4147 275.6163,0.3967 261.1923,0.5087 L218.4313,0.5087 L218.4313,39.6147 L221.4963,39.6147 C222.6153,39.8567 224.2413,39.8637 226.6133,39.8647 C250.4413,39.8757 274.2713,39.7737 298.0963,40.0127 C311.9593,40.1527 323.3823,48.5307 326.1603,59.9057 C331.0003,79.7167 318.4563,96.2287 297.9473,96.7717 C297.4963,96.7837 297.0453,96.7887 296.5953,96.7977 L296.5953,96.8017 L296.3753,96.8017 C286.7393,96.9977 277.0903,96.6837 267.4583,96.9857 C266.4423,97.0167 265.5863,96.9527 264.8533,96.8017 L261.4313,96.8017 L261.4313,93.3547 L261.4313,51.9477 L261.4313,44.6147 L218.5083,44.6147 L218.5083,54.6977 L218.5083,93.4447 L218.5083,94.9367 L193.0983,94.9367 L193.0983,94.9347 L191.9343,94.9347 L175.6073,94.9347 C175.5643,91.3507 175.3483,87.7447 174.9793,84.1177 C172.9783,64.4237 165.8273,47.0357 152.5703,32.3597 C132.5943,10.2477 106.9843,0.7537 77.7553,0.1697 C60.5983,-0.1733 43.4273,0.1097 26.2623,0.1107 C17.9483,0.1107 9.6343,0.1107 0.7083,0.1107 L0.7083,14.2267 C0.7083,57.3567 0.7043,100.4857 0.7153,143.6147 L0.6923,143.6147 L0.6923,189.8727 L41.5013,189.8727 L41.5013,185.3007 C41.5413,184.8147 41.5593,184.2867 41.5573,183.7127 C41.4423,150.3427 41.5303,116.9707 41.5743,83.5997 L41.5743,46.0897 C41.5603,44.6367 41.5523,43.1847 41.5273,41.7327 C41.5183,41.2197 41.5333,40.7547 41.5743,40.3287 L41.5743,36.7517 L44.5513,36.7517 C45.1723,36.6327 45.8963,36.5857 46.7483,36.6077 C55.8443,36.8447 64.9613,36.5027 74.0523,36.7517 L74.0963,36.7517 L74.0963,36.7537 C75.3103,36.7867 76.5233,36.8287 77.7353,36.8857 C95.7473,37.7407 111.1913,44.3127 121.9653,59.3757 C131.0833,72.1257 133.4833,86.6047 132.3573,102.0607 C130.4553,128.1517 110.9573,149.3437 84.9513,152.1227 C82.5403,152.3797 80.1203,152.5577 77.6963,152.6887 L48.5983,152.6887 L48.5983,189.8727 L77.7603,189.8727 L77.7603,189.6287 C89.1603,189.2647 100.4833,188.0057 111.5823,184.0117 C136.5853,175.0147 155.0963,159.5677 166.2383,136.6497 L187.0983,136.6497 L201.8793,136.6497 L218.5083,136.6497 L218.5083,187.1977 L218.4313,187.1977 L218.4313,192.9417 L262.4313,192.9417 L262.4313,187.1977 L262.4313,137.0317 L262.4313,135.5597 L292.4383,135.5597 C295.9933,135.4077 299.5473,135.1917 303.0983,134.8697 C320.0413,133.3347 335.7183,128.4027 349.1043,117.4597 C371.8113,98.8997 376.5893,63.8827 364.8843,38.2807" id="Fill-29" fill="#0183A2"></path> </g> </g> </svg> 