<?xml version="1.0" encoding="UTF-8"?> <svg xmlns="http://www.w3.org/2000/svg" xmlns:xlink="http://www.w3.org/1999/xlink" width="143px" height="51px" viewBox="0 0 143 51"> <!-- Generator: Sketch 47.1 (45422) - http://www.bohemiancoding.com/sketch --> <title>Enea</title> <desc>Created with Sketch.</desc> <defs></defs> <g id="Page-1" stroke="none" stroke-width="1" fill="none" fill-rule="evenodd"> <g id="Enea"> <path d="M29.001555,20.806855 C29.001555,20.806855 53.718355,20.806855 53.718355,20.806855 C53.757415,20.803805 53.795255,20.801975 53.833095,20.801975 C53.833095,20.801975 55.617765,20.801975 55.617765,20.801975 C56.538165,20.801975 57.153405,21.550875 56.983725,22.463965 C56.983725,22.463965 56.428305,25.485205 56.428305,25.485205 C56.258625,26.397675 55.367515,27.147185 54.448325,27.147185 C54.448325,27.147185 54.044275,27.147185 54.044275,27.147185 C54.044275,27.147185 54.041825,27.161225 54.041825,27.161225 C54.041825,27.161225 32.309655,27.161225 32.309655,27.161225 C32.309655,27.161225 31.372155,32.248505 31.372155,32.248505 C38.751305,32.248505 35.495695,32.245455 42.874845,32.245455 C43.795255,32.245455 44.409265,32.993735 44.240805,33.907435 C44.240805,33.907435 43.723225,36.715055 43.723225,36.715055 C43.554775,37.628755 42.663665,38.376435 41.744465,38.376435 C41.744465,38.376435 41.137775,38.376435 41.137775,38.376435 C41.137775,38.376435 41.136565,38.384975 41.136565,38.384975 C41.136565,38.384975 30.241795,38.384975 30.241795,38.384975 C30.241795,38.384975 29.259115,43.717625 29.259115,43.717625 C29.259115,43.717625 50.882655,43.717625 50.882655,43.717625 C50.882655,43.717625 50.882655,43.724935 50.882655,43.724935 C50.882655,43.724935 51.392905,43.724935 51.392905,43.724935 C52.313315,43.724935 52.927325,44.473855 52.758875,45.386925 C52.758875,45.386925 52.201015,48.411835 52.201015,48.411835 C52.032555,49.325525 51.142665,50.073825 50.222255,50.073825 C50.222255,50.073825 48.437595,50.073825 48.437595,50.073825 C48.408295,50.073825 48.377765,50.073215 48.347255,50.071375 C48.347255,50.071375 23.512055,50.071375 23.512055,50.071375 C23.482755,50.073215 23.451015,50.073825 23.420495,50.073825 C23.420495,50.073825 21.637055,50.073825 21.637055,50.073825 C20.716645,50.073825 20.102625,49.326135 20.271075,48.411835 C20.271075,48.411835 20.438315,47.504235 20.438315,47.504235 C20.438315,47.504235 20.597005,46.638765 20.597005,46.638765 C20.597005,46.638765 24.729095,24.229705 24.729095,24.229705 C24.729095,24.229705 24.898765,23.306855 24.898765,23.306855 C24.898765,23.306855 25.055015,22.457855 25.055015,22.457855 C25.223475,21.542935 26.113365,20.795865 27.033775,20.795865 C27.033775,20.795865 28.818445,20.795865 28.818445,20.795865 C28.880705,20.795865 28.941745,20.799525 29.001555,20.806855" id="path2810" fill="#CC0000"></path> <path d="M107.50742,20.566375 C89.792565,16.444065 71.401455,18.411225 62.298665,25.342985 C62.047205,25.483365 61.836025,25.236785 62.183925,24.869355 C66.969075,19.113735 84.423915,11.184055 100.34555,16.553925 C65.362625,0.45956503 25.476165,0.060385031 1.1634151,28.384365 C0.10140507,29.046605 -0.44669493,28.961155 0.45174507,27.214325 C23.364345,-9.821195 78.370445,-5.231965 107.93466,18.190275 C110.74595,20.242885 109.58505,21.126675 107.50742,20.566375 Z M132.0167,42.319305 C131.62728,44.429905 129.07357,46.193205 125.95346,46.193205 C123.87338,46.193205 122.71737,45.208715 122.97738,43.801235 C123.19833,42.606175 124.29941,42.013515 126.45517,41.586885 C128.56576,41.168785 130.59213,41.451385 132.30478,40.754365 C132.30478,40.754365 132.0167,42.319305 132.0167,42.319305 Z M140.42246,48.438685 C140.63852,49.323705 139.77305,50.076875 138.86728,50.076875 C138.86728,50.076875 138.38266,50.076875 138.38266,50.076875 C138.38266,50.076875 138.35581,50.097015 138.35581,50.097015 C138.35581,50.097015 134.5521,50.097015 134.5521,50.097015 C134.55087,50.089685 134.54843,50.082975 134.54598,50.076875 C134.54598,50.076875 133.24228,50.076875 133.24228,50.076875 C131.83115,50.076875 131.54672,48.629115 131.28671,47.563455 C131.27817,47.527435 131.27085,47.490815 131.26596,47.454805 C128.33261,49.277925 125.27231,50.454075 121.85067,50.454075 C116.3038,50.454075 113.4144,48.127415 114.0687,44.575775 C114.69126,41.199925 117.58432,39.195525 122.74301,38.357515 C129.48007,37.261325 132.96152,37.191125 133.24716,35.643885 C133.24716,35.643885 133.3375,35.151955 133.3375,35.151955 C133.55112,33.991065 132.42318,33.393525 129.99643,33.393525 C126.52353,33.393525 126.15732,35.643885 123.55112,35.643885 C123.53281,35.645115 123.51693,35.645115 123.49862,35.645115 C123.49862,35.645115 121.74692,35.645115 121.74692,35.645115 C121.74692,35.645115 121.74081,35.645115 121.74081,35.645115 C121.74081,35.645115 118.50228,35.645115 118.50228,35.645115 C117.59652,35.645115 117.00815,34.891935 117.55136,34.008155 C120.40781,29.349335 126.61263,28.927575 131.06698,28.927575 C136.01938,28.927575 139.33115,29.771705 140.9376,31.530125 C142.42318,33.146935 142.14608,35.187355 141.63461,37.963835 C141.63461,37.963835 140.2418,45.519985 140.2418,45.519985 C140.00742,46.790125 140.1478,47.317475 140.42246,48.438685 Z M105.53476,37.751435 C105.53476,37.751435 95.134365,37.751435 95.134365,37.751435 C95.974205,35.059785 98.144615,33.658415 101.08896,33.658415 C104.22861,33.658415 105.96811,35.130585 105.53476,37.751435 Z M105.6959,43.214075 C105.6959,43.214075 107.4647,43.214075 107.4647,43.214075 C107.4647,43.214075 107.4708,43.214075 107.4708,43.214075 C107.4708,43.214075 111.21347,43.214075 111.21347,43.214075 C112.12777,43.214075 112.60018,44.066125 111.85433,44.826625 C107.67953,49.088715 103.80502,50.438205 97.750325,50.438205 C89.117515,50.438205 84.408045,46.438565 85.603115,39.959075 C86.834805,33.273885 93.127525,29.209565 101.66391,29.209565 C109.45443,29.209565 114.06137,32.434665 114.11142,38.001675 C114.1395,38.146935 114.14926,38.300755 114.1334,38.460055 C114.1334,38.460055 113.9979,39.825415 113.9979,39.825415 C113.98447,39.959075 113.95395,40.088465 113.91122,40.212375 C113.91001,40.222135 113.90756,40.229465 113.90635,40.238615 C113.90146,40.265475 113.88803,40.292935 113.86972,40.319785 C113.59385,40.966765 112.93222,41.438565 112.21445,41.438565 C112.21445,41.438565 109.02475,41.438565 109.02475,41.438565 C109.02475,41.438565 109.01865,41.438565 109.01865,41.438565 C109.01865,41.438565 107.2938,41.438565 107.2938,41.438565 C107.23763,41.438565 107.18148,41.434905 107.12777,41.428805 C107.12777,41.428805 94.701015,41.428805 94.701015,41.428805 C93.831875,45.782435 99.194415,47.036105 103.54135,44.199185 C104.13095,43.650475 104.94027,43.214075 105.6959,43.214075 Z M60.570155,29.461025 C60.570155,29.461025 63.464445,29.461025 63.464445,29.461025 C63.464445,29.461025 63.464445,29.461635 63.464445,29.461635 C63.464445,29.461635 64.430015,29.461635 64.430015,29.461635 C65.310145,29.461635 65.897305,30.176975 65.737395,31.050985 C65.737395,31.050985 65.579915,31.905485 65.579915,31.905485 C65.579915,31.905485 65.588465,31.914635 65.588465,31.914635 C65.588465,31.914635 65.363855,33.128025 65.363855,33.128025 C75.067225,25.272185 85.794765,28.702365 83.840415,39.301725 C83.840415,39.301725 82.437825,46.908535 82.437825,46.908535 C82.435395,46.977515 82.426845,47.047085 82.413415,47.119115 C82.413415,47.119115 82.164395,48.473475 82.164395,48.473475 C82.002045,49.351775 81.145105,50.071375 80.260095,50.071375 C80.260095,50.071375 77.098475,50.071375 77.098475,50.071375 C77.098475,50.071375 77.092365,50.071375 77.092365,50.071375 C77.092365,50.071375 75.382165,50.071375 75.382165,50.071375 C74.497155,50.071375 73.906345,49.352385 74.067465,48.473475 C74.067465,48.473475 74.317715,47.119115 74.317715,47.119115 C74.323815,47.087375 74.329915,47.056855 74.337245,47.025115 C74.337245,47.025115 75.570155,40.344205 75.570155,40.344205 C77.253505,31.207855 66.230555,32.479215 64.178555,39.561125 C64.178555,39.561125 62.631915,47.953465 62.631915,47.953465 C62.631915,47.953465 62.620945,47.953465 62.620945,47.953465 C62.620945,47.953465 62.524505,48.482635 62.524505,48.482635 C62.363365,49.356055 61.511315,50.071375 60.631195,50.071375 C60.631195,50.071375 57.487875,50.071375 57.487875,50.071375 C57.487875,50.071375 57.480555,50.071375 57.480555,50.071375 C57.480555,50.071375 55.781345,50.071375 55.781345,50.071375 C54.902425,50.071375 54.312825,49.357265 54.473965,48.482635 C54.473965,48.482635 54.722995,47.135585 54.722995,47.135585 C54.724205,47.131315 54.724205,47.125215 54.725425,47.119715 C54.725425,47.119715 57.436605,32.413915 57.436605,32.413915 C57.437825,32.408415 57.437825,32.402925 57.439055,32.397425 C57.439055,32.397425 57.686855,31.050985 57.686855,31.050985 C57.847995,30.176975 58.700045,29.461635 59.580165,29.461635 C59.580165,29.461635 60.568925,29.461635 60.568925,29.461635 L60.570155,29.461025 Z" id="path2812" fill="#000099"></path> </g> </g> </svg> 