<?xml version="1.0" encoding="UTF-8" standalone="no"?>
<svg width="1696px" height="547px" viewBox="0 0 1696 547" version="1.1" xmlns="http://www.w3.org/2000/svg" xmlns:xlink="http://www.w3.org/1999/xlink">
    <!-- Generator: Sketch 3.8.2 (29753) - http://www.bohemiancoding.com/sketch -->
    <title>lengow</title>
    <desc>Created with Sketch.</desc>
    <defs></defs>
    <g id="Page-1" stroke="none" stroke-width="1" fill="none" fill-rule="evenodd">
        <g id="lengow" transform="translate(-1.000000, 0.000000)">
            <g id="Group-3" transform="translate(27.350932, 0.261000)" fill="#2D6091">
                <path d="M27.2819101,106.933227 C27.2819101,62.8242273 63.0216787,27.0672273 107.106787,27.0672273 C151.191896,27.0672273 186.931665,62.8242273 186.931665,106.933227 C186.931665,107.0545 186.923759,107.175773 186.923759,107.299682 L213.601443,107.299682 C213.601443,107.175773 213.611983,107.0545 213.611983,106.933227 C213.611983,48.0816818 165.927337,0.374045455 107.106787,0.374045455 C48.2862377,0.374045455 0.60159177,48.0816818 0.60159177,106.933227 C0.60159177,107.0545 0.60949705,107.175773 0.60949705,107.299682 L27.2898154,107.299682 C27.2898154,107.175773 27.2819101,107.0545 27.2819101,106.933227" id="Fill-1"></path>
            </g>
            <path d="M54.3606366,285.260555 L54.3606366,285.260555 L54.3606366,121.215464 L1,121.215464 L1,360.610464 C1,325.786736 23.2849829,296.183009 54.3606366,285.260555" id="Fill-58" fill="#37AADC"></path>
            <g id="Group-76" transform="translate(0.000000, 284.988273)" fill="#1898D5">
                <path d="M156.137685,102.097609 L80.5052405,102.097609 L80.5052405,102.081791 C66.038579,101.910427 54.3598461,90.1364273 54.3598461,75.6232455 L54.3598461,0.273336364 C23.2868275,11.1957909 0.999209472,40.7995182 0.999209472,75.6232455 C0.999209472,76.8517909 1.03873587,78.0697909 1.09407283,79.2877909 C1.1046132,79.5461545 1.11515357,79.8045182 1.13096413,80.0655182 C1.19157127,81.2281545 1.27852935,82.3828818 1.39447345,83.5323364 C1.41818929,83.7880636 1.4498104,84.0437909 1.47879643,84.2995182 C1.58420016,85.2881545 1.70804953,86.2741545 1.85034457,87.2522455 C1.88987096,87.4974273 1.92149208,87.7478818 1.95838339,87.9957 C2.12175916,89.0581545 2.31412096,90.1100636 2.52229332,91.1567 C2.59871102,91.5468818 2.67776382,91.9370636 2.7620868,92.3272455 C2.95971879,93.2499727 3.16789115,94.1621545 3.39450916,95.0743364 C3.51572345,95.5541545 3.64747811,96.0287 3.77659767,96.5058818 C3.95051382,97.1517909 4.13233525,97.7924273 4.32206196,98.4304273 C4.47226227,98.9313364 4.61719239,99.4322455 4.77793307,99.9278818 C5.04144239,100.7557 5.31812717,101.575609 5.60798742,102.390245 C5.81879488,102.972882 6.03750761,103.558155 6.25885543,104.138155 C6.40378556,104.512518 6.55135078,104.884245 6.70155109,105.255973 C7.12843618,106.326336 7.57903711,107.386155 8.05071879,108.435427 C8.15875761,108.6727 8.26416134,108.909973 8.37483525,109.144609 C9.01779798,110.531336 9.69501693,111.896973 10.4117623,113.238882 C10.4302079,113.270518 10.4460185,113.302155 10.4644641,113.331155 C10.9045247,114.1537 11.3630309,114.968336 11.8347126,115.7777 C11.874239,115.846245 11.9111303,115.914791 11.9532918,115.985973 C11.9638321,116.001791 11.9717374,116.017609 11.9796427,116.033427 C12.4355138,116.805882 12.9045604,117.570427 13.3841474,118.324427 C13.4763756,118.472064 13.571239,118.617064 13.6634672,118.762064 C14.1114331,119.458064 14.5646691,120.146155 15.0337157,120.826336 C15.1338492,120.971336 15.2339828,121.116336 15.3341163,121.256064 C15.7952576,121.920427 16.2669393,122.574245 16.7491613,123.222791 C16.8861862,123.4047 17.023211,123.586609 17.1602359,123.771155 C17.6134719,124.366973 18.0772483,124.960155 18.5436598,125.545427 C18.7228461,125.769518 18.9020325,125.993609 19.0838539,126.212427 C19.5239144,126.747609 19.9692452,127.277518 20.4198461,127.799518 C20.6464641,128.060518 20.8757172,128.321518 21.1049703,128.579882 C21.5239502,129.051791 21.9482002,129.518427 22.3777203,129.982427 C22.6544051,130.2777 22.9310899,130.575609 23.2130449,130.868245 C23.6083089,131.282155 24.0062079,131.690791 24.4146474,132.094155 C24.7413989,132.421064 25.0734207,132.750609 25.4080775,133.072245 C25.7769905,133.428155 26.1485387,133.781427 26.5227219,134.129427 C26.9074455,134.485336 27.2974393,134.838609 27.6874331,135.186609 C28.0273601,135.489791 28.3672871,135.790336 28.7124843,136.088245 C29.1525449,136.470518 29.5978756,136.844882 30.0484766,137.216609 C30.3541474,137.4697 30.6624533,137.720155 30.9733943,137.967973 C31.474062,138.3687 31.9773648,138.764155 32.4885728,139.1517 C32.7599874,139.359973 33.031402,139.565609 33.3054517,139.771245 C33.8640915,140.185155 34.4253663,140.591155 34.9945464,140.989245 C35.2343399,141.157973 35.4714983,141.3267 35.7139269,141.492791 C36.3252685,141.911973 36.9445154,142.323245 37.5690325,142.726609 C37.7745697,142.861064 37.9827421,142.992882 38.1935495,143.127336 C38.857593,143.546518 39.5295418,143.957791 40.2067607,144.361155 C40.3806769,144.463973 40.554593,144.566791 40.7285092,144.669609 C40.7364144,144.672245 40.7469548,144.677518 40.7548601,144.685427 C41.4637002,145.0967 42.1830806,145.500064 42.9077312,145.892882 C43.0552964,145.971973 43.2054967,146.0537 43.3583321,146.132791 C44.117239,146.541427 44.8840511,146.934245 45.6614036,147.313882 C45.785253,147.374518 45.9117374,147.437791 46.040857,147.501064 C46.8419253,147.888609 47.653534,148.265609 48.4677778,148.626791 C48.5758166,148.676882 48.6785852,148.7217 48.7866241,148.769155 C49.603503,149.1277 50.4282871,149.473064 51.2636116,149.805245 C51.4059067,149.863245 51.5508368,149.921245 51.698402,149.976609 C52.5363616,150.303518 53.3795915,150.619882 54.2280915,150.923064 C54.272888,150.938882 54.3176846,150.957336 54.3598461,150.973155 L54.3598461,150.967882 C57.3454067,152.019791 60.4126551,152.892427 63.5510511,153.588427 C63.6590899,153.614791 63.7723989,153.641155 63.8830728,153.664882 C64.7183974,153.849427 65.5642623,154.004973 66.4101272,154.163155 C66.7790402,154.229064 67.1505884,154.297609 67.5221365,154.360882 C68.2757731,154.490064 69.0320449,154.600791 69.7909517,154.708882 C70.2758089,154.774791 70.7633011,154.835427 71.2534284,154.893427 C71.9517281,154.977791 72.6500278,155.059518 73.3562328,155.125427 C73.9438585,155.180791 74.5367545,155.2177 75.1296505,155.259882 C75.7620728,155.307336 76.3944952,155.360064 77.0321877,155.3917 C78.1837234,155.444427 79.3431644,155.476064 80.5052405,155.481336 L80.5052405,155.6817 L187.329282,155.6817 L187.329282,102.097609 L156.137685,102.097609 Z" id="Fill-74"></path>
            </g>
            <path d="M266.934657,276.235491 L266.934657,285.257127 L266.934657,358.511127 L266.829253,358.511127 C266.88459,359.204491 266.934657,359.900491 266.934657,360.612309 C266.934657,375.233582 255.084643,387.086673 240.467781,387.086673 L214.006175,387.086673 L214.006175,435.962218 L214.006175,440.670764 L240.467781,440.670764 L240.467781,440.475673 L240.470416,440.475673 C253.002919,440.475673 264.850298,437.573036 275.398576,432.424218 C275.419657,432.411036 275.440737,432.403127 275.461818,432.392582 C276.339304,431.962855 277.208885,431.517309 278.06529,431.058582 C278.117992,431.029582 278.170694,431.000582 278.223396,430.974218 C279.04818,430.528673 279.862424,430.072582 280.668762,429.600673 C280.75572,429.547945 280.842678,429.500491 280.929636,429.447764 C281.696448,428.994309 282.450085,428.532945 283.198452,428.0584 C283.327571,427.976673 283.454056,427.897582 283.577905,427.813218 C284.281475,427.365036 284.971869,426.901036 285.656993,426.429127 C285.828275,426.310491 285.999556,426.194491 286.165566,426.075855 C286.800624,425.632945 287.427776,425.179491 288.049658,424.715491 C288.260466,424.559945 288.473908,424.399127 288.684716,424.240945 C289.251261,423.808582 289.81517,423.368309 290.36854,422.922764 C290.626779,422.719764 290.877113,422.514127 291.130082,422.305855 C291.63075,421.891945 292.123512,421.4754 292.616275,421.050945 C292.91404,420.792582 293.20917,420.534218 293.501666,420.275855 C293.936456,419.888309 294.365976,419.498127 294.792861,419.100036 C295.127518,418.786309 295.462175,418.472582 295.791562,418.153582 C296.16311,417.797673 296.526753,417.436491 296.893031,417.075309 C297.264579,416.700945 297.633492,416.326582 297.99977,415.944309 C298.308076,415.622673 298.613747,415.301036 298.919417,414.971491 C299.322587,414.536491 299.725756,414.096218 300.12102,413.650673 C300.371354,413.368582 300.619052,413.083855 300.864116,412.799127 C301.301542,412.298218 301.728427,411.7894 302.152677,411.275309 C302.347674,411.0354 302.540035,410.798127 302.735032,410.555582 C303.190903,409.983491 303.644139,409.408764 304.0842,408.828764 C304.2344,408.631036 304.381966,408.430673 304.529531,408.232945 C305.003848,407.600218 305.467624,406.956945 305.92086,406.305764 C306.028899,406.152855 306.134302,405.997309 306.242341,405.8444 C306.724563,405.143127 307.196245,404.433945 307.657386,403.714218 C307.731169,403.606127 307.797046,403.498036 307.865559,403.387309 C308.353051,402.620127 308.827368,401.847673 309.288509,401.064673 C309.33067,400.993491 309.370197,400.924945 309.409723,400.859036 C309.89458,400.031218 310.363627,399.192855 310.816863,398.351855 C310.832674,398.320218 310.848484,398.291218 310.864295,398.259582 C316.874942,387.044491 320.295293,374.231764 320.295293,360.612309 L320.295293,201.030582 C320.232051,235.793673 297.965514,265.326218 266.934657,276.235491" id="Fill-79" fill="#0F395C"></path>
            <path d="M266.934657,120.650755 L80.8232963,120.650755 L80.8232963,174.403573 L165.162088,174.403573 L266.934657,174.403573 L266.934657,276.235755 C297.965514,265.326482 320.232051,235.7913 320.295293,201.030845 L320.295293,200.7303 L320.295293,174.403573 L320.295293,120.650755 L266.934657,120.650755 Z" id="Fill-81" fill="#2D6091"></path>
            <path d="M187.329546,0.635309091 C158.949593,0.635309091 133.181016,11.7634 114.092402,29.8725818 C120.493043,28.2116727 127.20726,27.3284909 134.12965,27.3284909 C143.460515,27.3284909 152.406656,28.9472182 160.730916,31.8894 C169.05254,28.9472182 178.001316,27.3284909 187.329546,27.3284909 C231.414655,27.3284909 267.154423,63.0854909 267.154423,107.194491 C267.154423,107.315764 267.143883,107.437036 267.143883,107.560945 L293.826836,107.560945 C293.826836,107.437036 293.834742,107.315764 293.834742,107.194491 C293.834742,48.3429455 246.150096,0.635309091 187.329546,0.635309091" id="Fill-83" fill="#2D6091"></path>
            <path d="M80.8338366,107.561736 L107.514155,107.561736 C107.514155,107.437827 107.50625,107.316555 107.50625,107.195282 C107.50625,80.0591909 121.034818,56.0946455 141.709759,41.6658273 C139.224866,41.3811 136.695177,41.2202818 134.128596,41.2202818 C119.477478,41.2202818 105.946275,46.0079182 94.9974624,54.0962818 C85.9880789,69.7272818 80.8232963,87.8522818 80.8232963,107.195282 C80.8232963,107.316555 80.8338366,107.437827 80.8338366,107.561736" id="Fill-86" fill="#2D6091"></path>
            <path d="M1641.03561,317.1334 L1641.03561,351.187309 C1641.03561,375.399673 1623.51488,392.095764 1599.31418,392.095764 C1563.01841,392.095764 1558.84705,363.293491 1558.84705,351.187309 L1558.84705,344.775673 L1558.84705,307.257582 C1540.63329,313.215764 1522.2746,318.849673 1503.77624,324.167218 L1503.77624,351.187309 C1503.77624,353.117127 1503.65766,354.991582 1503.44422,356.821218 C1500.98831,377.9464 1484.70871,392.095764 1462.05745,392.095764 C1439.18484,392.095764 1429.20574,380.390309 1424.97378,368.769218 C1422.56267,362.159855 1422.00667,355.579491 1422.00667,351.187309 L1422.00667,345.368855 C1387.86376,353.251582 1353.29925,360.0244 1318.36582,365.692582 C1315.79133,370.764945 1312.61604,375.299491 1308.94009,379.188127 C1299.44848,389.222127 1286.67882,395.016855 1272.64431,395.016855 C1260.22512,395.016855 1248.79409,390.4744 1239.75045,382.473036 C1237.87426,380.814764 1236.11402,378.985127 1234.44864,377.034218 C1189.31213,381.935218 1143.61698,384.977582 1097.4317,386.055855 C1089.33142,391.212582 1079.93205,394.181127 1069.8818,394.181127 C1059.9554,394.181127 1050.6588,391.370764 1042.62176,386.4144 C1000.82918,385.992582 959.41606,383.975764 918.437726,380.416673 L918.437726,440.515218 L973.511174,440.515218 L973.511174,389.762582 C991.442983,422.862127 1024.58191,445.105127 1062.37179,445.105127 C1086.57248,445.105127 1108.68091,436.7584 1124.95525,420.8954 L1124.95525,430.497036 C1124.95525,468.898309 1107.42924,494.360309 1068.63277,494.360309 L1025.50156,494.360309 L1050.55339,544.453855 C1056.44546,545.268491 1062.48246,545.698218 1068.63277,545.698218 C1137.47194,545.698218 1180.02606,501.035582 1180.02606,429.661309 L1180.02606,392.032491 C1198.93022,424.652218 1233.32609,445.521673 1272.64431,445.521673 C1316.14443,445.521673 1353.83944,419.988491 1371.08876,381.249764 C1382.05602,420.515764 1414.29111,445.940855 1462.05745,445.940855 C1490.42686,445.940855 1514.20594,434.253855 1530.47764,415.469764 C1546.333,434.253855 1570.10944,445.940855 1599.31418,445.940855 C1657.72365,445.940855 1696.10642,404.199309 1696.10642,349.518491 L1696.10642,278.689945 L1696.10642,255.244764 C1677.92428,263.109036 1659.56295,270.6464 1641.03561,277.851582 L1641.03561,317.1334 Z" id="Fill-88" fill="#1898D5"></path>
            <path d="M781.176777,372.060718 L731.534257,372.060718 C722.356228,389.173355 704.416513,397.103536 686.057819,397.103536 C660.191745,397.103536 639.329712,380.823991 632.238676,354.526264 L738.775493,354.526264 C684.157917,343.469355 630.546947,329.636355 578.092782,313.188082 C576.941246,319.6999 576.335175,326.401536 576.335175,333.2429 C576.335175,352.548991 581.125774,370.684536 589.536992,386.521173 L579.918902,386.521173 L504.289093,386.521173 L504.289093,386.505355 C489.819796,386.333991 478.141063,374.559991 478.141063,360.044173 L478.141063,284.6969 L478.141063,278.1429 C460.196079,271.174991 442.4092,263.893355 424.783061,256.3059 L424.783061,360.044173 C424.783061,361.275355 424.819953,362.495991 424.87529,363.711355 C424.88583,363.969718 424.893735,364.230718 424.909546,364.489082 C424.975423,365.651718 425.059746,366.806445 425.173055,367.953264 C425.199406,368.211627 425.231027,368.467355 425.260013,368.723082 C425.365417,369.711718 425.489266,370.697718 425.634197,371.675809 C425.668453,371.923627 425.700074,372.174082 425.7396,372.4219 C425.902976,373.481718 426.097973,374.530991 426.30351,375.577627 C426.379928,375.970445 426.461616,376.360627 426.545939,376.750809 C426.738301,377.6709 426.949108,378.588355 427.178361,379.495264 C427.299575,379.977718 427.428695,380.452264 427.557815,380.929445 C427.731731,381.575355 427.913552,382.215991 428.103279,382.853991 C428.250844,383.3549 428.398409,383.855809 428.55915,384.351445 C428.822659,385.179264 429.101979,385.999173 429.391839,386.813809 C429.600012,387.399082 429.816089,387.981718 430.040072,388.561718 C430.185002,388.933445 430.332568,389.307809 430.480133,389.679536 C430.909653,390.7499 431.360254,391.809718 431.834571,392.856355 C431.939975,393.096264 432.048013,393.336173 432.156052,393.570809 C432.799015,394.957536 433.476234,396.320536 434.192979,397.662445 C434.211425,397.694082 434.227235,397.723082 434.243046,397.754718 C434.688377,398.5799 435.144248,399.3919 435.61593,400.201264 C435.655456,400.269809 435.694982,400.340991 435.734509,400.409536 C435.745049,400.425355 435.752954,400.438536 435.763495,400.456991 C436.219366,401.229445 436.683142,401.993991 437.165364,402.750627 C437.257593,402.895627 437.352456,403.040627 437.444684,403.185627 C437.89265,403.881627 438.348521,404.569718 438.814933,405.2499 C438.915066,405.392264 439.0152,405.537264 439.115333,405.682264 C439.576475,406.343991 440.048156,406.997809 440.530378,407.646355 C440.664768,407.828264 440.801793,408.010173 440.941453,408.192082 C441.394689,408.793173 441.85583,409.383718 442.324877,409.968991 C442.501428,410.193082 442.683249,410.414536 442.865071,410.638627 C443.305131,411.171173 443.750462,411.701082 444.201063,412.223082 C444.427681,412.486718 444.654299,412.745082 444.883552,413.006082 C445.305167,413.475355 445.729417,413.944627 446.158937,414.405991 C446.432987,414.701264 446.714942,414.999173 446.994262,415.291809 C447.392161,415.703082 447.787425,416.114355 448.193229,416.515082 C448.522616,416.844627 448.854638,417.171536 449.189294,417.495809 C449.558207,417.851718 449.929756,418.204991 450.306574,418.552991 C450.691298,418.911536 451.078656,419.262173 451.46865,419.612809 C451.805942,419.915991 452.148504,420.216536 452.496336,420.511809 C452.933762,420.894082 453.379093,421.268445 453.829693,421.640173 C454.135364,421.893264 454.44367,422.143718 454.754611,422.394173 C455.252644,422.7949 455.758582,423.187718 456.267155,423.5779 C456.541204,423.786173 456.812619,423.991809 457.086669,424.194809 C457.642673,424.608718 458.206583,425.012082 458.775763,425.412809 C459.015557,425.581536 459.252715,425.750264 459.495144,425.913718 C460.10912,426.335536 460.723097,426.746809 461.350249,427.150173 C461.558422,427.284627 461.763959,427.419082 461.974766,427.548264 C462.63881,427.970082 463.308124,428.383991 463.987978,428.782082 C464.161894,428.887536 464.33581,428.992991 464.509726,429.093173 C464.517631,429.098445 464.525537,429.101082 464.536077,429.106355 C465.247552,429.520264 465.964298,429.923627 466.686313,430.313809 C466.836513,430.395536 466.989349,430.474627 467.136914,430.558991 C467.898456,430.964991 468.665268,431.355173 469.44262,431.737445 C469.569105,431.800718 469.695589,431.861355 469.822074,431.921991 C470.623142,432.312173 471.434751,432.689173 472.25163,433.050355 C472.357034,433.097809 472.462437,433.1479 472.567841,433.192718 C473.38472,433.551264 474.212139,433.896627 475.042193,434.228809 C475.187124,434.286809 475.334689,434.342173 475.476984,434.400173 C476.317579,434.729718 477.160808,435.046082 478.009308,435.346627 C478.054105,435.362445 478.096266,435.3809 478.141063,435.394082 L478.141063,435.394082 C481.126624,436.443355 484.196507,437.318627 487.332268,438.011991 C487.442942,438.038355 487.553616,438.064718 487.66429,438.088445 C488.499614,438.270355 489.345479,438.431173 490.191344,438.584082 C490.560257,438.655264 490.931805,438.723809 491.303353,438.784445 C492.05699,438.910991 492.813262,439.024355 493.572169,439.132445 C494.059661,439.198355 494.544518,439.261627 495.03201,439.316991 C495.73031,439.401355 496.431245,439.483082 497.13745,439.548991 C497.725075,439.604355 498.317971,439.6439 498.910867,439.686082 C499.54329,439.7309 500.175712,439.783627 500.813405,439.815264 C501.96494,439.867991 503.121746,439.896991 504.289093,439.9049 L504.289093,440.102627 L611.110499,440.102627 L611.110499,415.020264 C630.863158,433.936173 657.409086,445.520355 686.476799,445.520355 C730.269412,445.520355 763.669218,425.581536 781.176777,394.237809 L781.176777,440.5139 L836.247589,440.5139 L836.247589,371.153809 C817.786127,368.591264 799.432703,365.696536 781.176777,362.511809 L781.176777,372.060718 Z" id="Fill-90" fill="#1898D5"></path>
            <path d="M1558.84784,225.550345 L1503.77703,225.550345 L1503.77703,324.166164 C1522.27275,318.851255 1540.63408,313.214709 1558.84784,307.259164 L1558.84784,225.550345 Z" id="Fill-92" fill="#37AADC"></path>
            <path d="M478.141063,120.650755 L424.780426,120.650755 L424.780426,256.304845 C442.4092,263.8923 460.196079,271.173936 478.141063,278.141845 L478.141063,120.650755 Z" id="Fill-94" fill="#37AADC"></path>
            <path d="M1641.03561,225.550345 L1641.03561,277.850527 C1659.56295,270.645345 1677.92428,263.110618 1696.10642,255.246345 L1696.10642,225.550345 L1641.03561,225.550345 Z" id="Fill-96" fill="#37AADC"></path>
            <path d="M647.525642,309.449455 L633.074791,309.449455 C633.680863,307.527545 634.368622,305.668909 635.114354,303.857727 C644.110562,282.073455 662.943573,268.541 686.05861,268.541 C712.343664,268.541 733.203062,284.404 739.877753,309.449455 L647.525642,309.449455 Z M1037.97003,383.204364 C1023.95134,372.392636 1014.81283,354.502273 1014.81283,333.656545 C1014.81283,298.176364 1039.42987,271.881273 1069.88365,271.881273 C1100.34005,271.881273 1124.95446,299.431273 1124.95446,333.656545 C1124.95446,354.808091 1115.07549,373.431364 1100.09762,384.256273 C1099.22541,384.886364 1098.33738,385.482182 1097.43091,386.054273 C1143.61619,384.978636 1189.31397,381.936273 1234.44785,377.035273 C1225.30935,366.292091 1219.66234,351.322818 1219.66234,333.656545 C1219.66234,296.510182 1243.44406,270.629 1272.64352,270.629 C1301.8509,270.629 1325.63261,296.510182 1325.63261,333.656545 C1325.63261,345.765364 1322.9738,356.603455 1318.36503,365.691 C1353.30109,360.022818 1387.86297,353.252636 1422.00588,345.369909 L1422.00588,225.549818 L1366.93243,225.549818 L1366.93243,276.632 C1348.22327,242.393545 1312.92356,220.124182 1272.64352,220.124182 C1227.18026,220.124182 1188.28102,248.504636 1172.33607,290.454455 C1156.77584,249.300818 1118.8305,220.124182 1069.88365,220.124182 C1022.94473,220.124182 986.208897,246.609091 969.370652,284.709818 C958.424475,245.599364 926.107692,220.124182 877.96981,220.124182 C831.183731,220.124182 797.272717,246.648636 785.6177,285.300364 C768.344664,243.287273 729.961897,220.124182 686.474955,220.124182 C642.002487,220.124182 603.393102,247.645182 586.062094,286.934909 C582.409855,295.213091 579.71152,304.013273 578.093573,313.187818 C630.547737,329.636091 684.158708,343.469091 738.776284,354.526 L770.06011,354.526 L781.177568,354.526 L781.177568,357.104364 L781.177568,362.511545 C799.430858,365.696273 817.786917,368.591 836.24838,371.153545 L836.24838,367.299182 L836.24838,314.875091 C836.24838,290.662727 853.77175,273.969273 877.96981,273.969273 C914.268218,273.969273 918.439571,302.771545 918.439571,314.875091 L918.439571,376.811182 L918.439571,380.417727 C959.41527,383.974182 1000.82839,385.991 1042.62361,386.412818 C1041.02147,385.424182 1039.46413,384.359091 1037.97003,383.204364 L1037.97003,383.204364 Z" id="Fill-98" fill="#37AADC"></path>
            <polygon id="Fill-100" fill="#2D6091" points="533.0651 493.215073 533.0651 502.642709 511.394094 502.642709 511.394094 514.970345 527.992546 514.970345 527.992546 524.034164 511.394094 524.034164 511.394094 536.617527 533.0651 536.617527 533.0651 546.045164 499.069764 546.045164 499.069764 493.215073"></polygon>
            <path d="M578.403723,532.374827 C578.693583,532.374827 578.983443,532.430191 579.273304,532.538282 C579.563164,532.646373 579.842484,532.836191 580.108628,533.099827 L584.965105,538.214373 C582.83595,540.9931 580.174506,543.089009 576.972867,544.504736 C573.771229,545.917827 569.9846,546.624373 565.610346,546.624373 C561.599734,546.624373 558.005467,545.941555 554.827544,544.575918 C551.649622,543.210282 548.956557,541.325282 546.745714,538.920918 C544.537506,536.513918 542.83787,533.661373 541.654714,530.363282 C540.468922,527.062555 539.878661,523.479736 539.878661,519.612191 C539.878661,515.673464 540.553245,512.0511 541.907683,508.753009 C543.259485,505.452282 545.151482,502.605009 547.581038,500.213827 C550.007959,497.820009 552.914467,495.958736 556.295291,494.627373 C559.678751,493.298645 563.412678,492.634282 567.494437,492.634282 C569.476027,492.634282 571.341673,492.810918 573.09401,493.158918 C574.846347,493.512191 576.48274,493.994645 578.005824,494.611555 C579.526273,495.225827 580.928142,495.964009 582.208798,496.820827 C583.489453,497.680282 584.625178,498.629373 585.615973,499.6681 L581.484147,505.217645 C581.218002,505.5551 580.904426,505.863555 580.543419,506.140373 C580.179776,506.419827 579.671203,506.556918 579.020335,506.556918 C578.585544,506.556918 578.17447,506.462009 577.787111,506.269555 C577.402388,506.074464 576.988678,505.839827 576.556523,505.560373 C576.119097,505.283555 575.642145,504.980373 575.123032,504.653464 C574.603919,504.329191 573.989942,504.026009 573.275832,503.749191 C572.561721,503.469736 571.729032,503.2351 570.775128,503.040009 C569.821225,502.847555 568.70131,502.752645 567.42329,502.752645 C565.199271,502.752645 563.170249,503.145464 561.333589,503.928464 C559.49693,504.716736 557.921144,505.839827 556.603597,507.300373 C555.286051,508.763555 554.260999,510.535191 553.523173,512.615282 C552.785347,514.692736 552.419069,517.025918 552.419069,519.612191 C552.419069,522.3171 552.785347,524.7241 553.523173,526.827918 C554.260999,528.931736 555.262335,530.700736 556.529815,532.140191 C557.79993,533.577009 559.280852,534.673736 560.972582,535.419827 C562.664311,536.171191 564.47462,536.545555 566.406144,536.545555 C567.518153,536.545555 568.532664,536.490191 569.452311,536.3821 C570.369324,536.274009 571.223094,536.084191 572.005717,535.817918 C572.79361,535.554282 573.541976,535.208918 574.253451,534.7871 C574.967561,534.362645 575.686942,533.838009 576.411593,533.210555 C576.701453,532.968009 577.015029,532.767645 577.352321,532.6121 C577.689613,532.453918 578.042715,532.374827 578.403723,532.374827" id="Fill-102" fill="#2D6091"></path>
            <path d="M633.022617,519.612455 C633.022617,517.002455 632.68269,514.648182 632.008106,512.557545 C631.330887,510.469545 630.358537,508.697909 629.091058,507.247909 C627.820943,505.797909 626.268873,504.685364 624.432213,503.910273 C622.595553,503.137818 620.505924,502.752909 618.163326,502.752909 C615.794377,502.752909 613.686303,503.137818 611.839103,503.910273 C609.989267,504.685364 608.431927,505.797909 607.164447,507.247909 C605.894332,508.697909 604.921983,510.469545 604.247399,512.557545 C603.567545,514.648182 603.230253,517.002455 603.230253,519.612455 C603.230253,522.246182 603.567545,524.608364 604.247399,526.699 C604.921983,528.792273 605.894332,530.561273 607.164447,532.013909 C608.431927,533.463909 609.989267,534.568545 611.839103,535.330455 C613.686303,536.092364 615.794377,536.472 618.163326,536.472 C620.505924,536.472 622.595553,536.092364 624.432213,535.330455 C626.268873,534.568545 627.820943,533.463909 629.091058,532.013909 C630.358537,530.561273 631.330887,528.792273 632.008106,526.699 C632.68269,524.608364 633.022617,522.246182 633.022617,519.612455 M645.56039,519.612455 C645.56039,523.429909 644.904252,526.986364 643.586705,530.273909 C642.269159,533.561455 640.416688,536.416636 638.024023,538.847364 C635.631359,541.278091 632.751202,543.181545 629.378283,544.557727 C626.007999,545.936545 622.271436,546.624636 618.163326,546.624636 C614.052581,546.624636 610.310749,545.936545 606.927289,544.557727 C603.543829,543.181545 600.650497,541.278091 598.247292,538.847364 C595.844087,536.416636 593.981076,533.561455 592.666165,530.273909 C591.348618,526.986364 590.689845,523.429909 590.689845,519.612455 C590.689845,515.792364 591.348618,512.238545 592.666165,508.951 C593.981076,505.663455 595.844087,502.810909 598.247292,500.393364 C600.650497,497.975818 603.543829,496.080273 606.927289,494.701455 C610.310749,493.322636 614.052581,492.634545 618.163326,492.634545 C622.271436,492.634545 626.007999,493.327909 629.378283,494.719909 C632.751202,496.109273 635.631359,498.012727 638.024023,500.430273 C640.416688,502.847818 642.269159,505.700364 643.586705,508.987909 C644.904252,512.275455 645.56039,515.816091 645.56039,519.612455" id="Fill-104" fill="#2D6091"></path>
            <path d="M682.72548,524.757845 C683.173446,525.749118 683.600331,526.764118 684.011406,527.808118 C684.425116,526.740391 684.857271,525.706936 685.318412,524.702482 C685.776918,523.698027 686.2486,522.725209 686.730822,521.781391 L700.285741,495.064482 C700.525535,494.605755 700.775869,494.249845 701.028838,493.996755 C701.281807,493.741027 701.566397,493.553845 701.879973,493.432573 C702.193549,493.3113 702.551921,493.250664 702.94982,493.250664 L704.343785,493.250664 L713.69573,493.250664 L713.69573,546.043845 L702.897119,546.043845 L702.897119,515.659755 C702.897119,514.186027 702.968266,512.591027 703.113196,510.872118 L689.123487,538.031936 C688.688696,538.878209 688.10107,539.518845 687.36588,539.951209 C686.628053,540.388845 685.790094,540.607664 684.84673,540.607664 L683.178716,540.607664 C682.237988,540.607664 681.397393,540.388845 680.662202,539.951209 C679.924376,539.518845 679.336751,538.878209 678.90196,538.031936 L664.841103,510.835209 C664.938602,511.681482 665.009749,512.522482 665.059816,513.355573 C665.107248,514.1913 665.130963,514.958482 665.130963,515.659755 L665.130963,546.043845 L654.329716,546.043845 L654.329716,493.250664 L663.679027,493.250664 L665.075626,493.250664 C665.473525,493.250664 665.831898,493.3113 666.145474,493.432573 C666.45905,493.553845 666.74364,493.741027 666.999244,493.996755 C667.252213,494.249845 667.499912,494.605755 667.739706,495.064482 L681.331516,521.889482 C681.813738,522.809573 682.277515,523.766573 682.72548,524.757845" id="Fill-106" fill="#2D6091"></path>
            <path d="M753.688539,524.757845 C754.136505,525.749118 754.56339,526.764118 754.974465,527.808118 C755.388175,526.740391 755.82033,525.706936 756.281471,524.702482 C756.739977,523.698027 757.211659,522.725209 757.693881,521.781391 L771.2488,495.064482 C771.488594,494.605755 771.738928,494.249845 771.991897,493.996755 C772.244866,493.741027 772.529456,493.553845 772.843032,493.432573 C773.156608,493.3113 773.51498,493.250664 773.91288,493.250664 L775.306844,493.250664 L784.658789,493.250664 L784.658789,546.043845 L773.860178,546.043845 L773.860178,515.659755 C773.860178,514.186027 773.931325,512.591027 774.076255,510.872118 L760.086546,538.031936 C759.651755,538.878209 759.06413,539.518845 758.328939,539.951209 C757.591112,540.388845 756.753153,540.607664 755.809789,540.607664 L754.144411,540.607664 C753.201047,540.607664 752.360452,540.388845 751.625261,539.951209 C750.887435,539.518845 750.29981,538.878209 749.865019,538.031936 L735.804162,510.835209 C735.901661,511.681482 735.972808,512.522482 736.022875,513.355573 C736.070307,514.1913 736.094022,514.958482 736.094022,515.659755 L736.094022,546.043845 L725.292775,546.043845 L725.292775,493.250664 L734.642086,493.250664 L736.038685,493.250664 C736.436584,493.250664 736.794957,493.3113 737.108533,493.432573 C737.422109,493.553845 737.706699,493.741027 737.962303,493.996755 C738.215272,494.249845 738.462971,494.605755 738.702765,495.064482 L752.294575,521.889482 C752.776797,522.809573 753.240574,523.766573 753.688539,524.757845" id="Fill-108" fill="#2D6091"></path>
            <polygon id="Fill-110" fill="#2D6091" points="830.251171 493.215073 830.251171 502.642709 808.580165 502.642709 808.580165 514.970345 825.178617 514.970345 825.178617 524.034164 808.580165 524.034164 808.580165 536.617527 830.251171 536.617527 830.251171 546.045164 796.255834 546.045164 796.255834 493.215073"></polygon>
            <path d="M852.358813,518.052518 L857.286437,518.052518 C858.954451,518.052518 860.374766,517.841609 861.547382,517.417155 C862.717364,516.995336 863.679173,516.407427 864.427539,515.6587 C865.175906,514.909973 865.718735,514.0347 866.058662,513.030245 C866.395954,512.028427 866.567235,510.947518 866.567235,509.784882 C866.567235,507.464882 865.810963,505.651064 864.301055,504.346064 C862.791146,503.041064 860.453819,502.387245 857.286437,502.387245 L852.358813,502.387245 L852.358813,518.052518 Z M852.358813,526.499427 L852.358813,546.045427 L840.108264,546.045427 L840.108264,493.215336 L857.286437,493.215336 C861.104687,493.215336 864.361662,493.608155 867.054727,494.393791 C869.747792,495.179427 871.948095,496.273518 873.650365,497.676064 C875.355271,499.075973 876.591129,500.734245 877.365847,502.642973 C878.137929,504.5517 878.525288,506.629155 878.525288,508.880609 C878.525288,510.596882 878.296035,512.215609 877.834893,513.736791 C877.379022,515.260609 876.696533,516.668427 875.790061,517.960245 C874.883589,519.2547 873.77158,520.409427 872.454033,521.424427 C871.136486,522.439427 869.621308,523.275155 867.905862,523.926336 C868.728011,524.337609 869.494823,524.846427 870.208934,525.450155 C870.920409,526.053882 871.542291,526.792064 872.07458,527.662064 L883.307982,546.045427 L872.21951,546.045427 C870.164137,546.045427 868.69112,545.272973 867.797823,543.725427 L859.028233,528.387064 C858.640875,527.709518 858.187639,527.224427 857.668525,526.937064 C857.146777,526.647064 856.416856,526.499427 855.476128,526.499427 L852.358813,526.499427 Z" id="Fill-112" fill="#2D6091"></path>
            <path d="M924.879212,532.374827 C925.169072,532.374827 925.458932,532.430191 925.748792,532.538282 C926.038653,532.646373 926.317973,532.836191 926.584117,533.099827 L931.440594,538.214373 C929.311438,540.9931 926.649994,543.089009 923.448356,544.504736 C920.246718,545.917827 916.460089,546.624373 912.085834,546.624373 C908.075223,546.624373 904.480955,545.941555 901.303033,544.575918 C898.125111,543.210282 895.432045,541.325282 893.221202,538.920918 C891.012994,536.513918 889.313359,533.661373 888.130202,530.363282 C886.94441,527.062555 886.35415,523.479736 886.35415,519.612191 C886.35415,515.673464 887.028733,512.0511 888.383171,508.753009 C889.734974,505.452282 891.626971,502.605009 894.056527,500.213827 C896.483448,497.820009 899.389955,495.958736 902.77078,494.627373 C906.15424,493.298645 909.888167,492.634282 913.969926,492.634282 C915.951516,492.634282 917.817162,492.810918 919.569499,493.158918 C921.321836,493.512191 922.958229,493.994645 924.481313,494.611555 C926.001761,495.225827 927.403631,495.964009 928.684286,496.820827 C929.964941,497.680282 931.100667,498.629373 932.091462,499.6681 L927.959636,505.217645 C927.693491,505.5551 927.379915,505.863555 927.018907,506.140373 C926.655264,506.419827 926.146691,506.556918 925.495823,506.556918 C925.061033,506.556918 924.649959,506.462009 924.2626,506.269555 C923.877876,506.074464 923.464167,505.839827 923.032011,505.560373 C922.594586,505.283555 922.117634,504.980373 921.598521,504.653464 C921.079407,504.329191 920.465431,504.026009 919.75132,503.749191 C919.03721,503.469736 918.204521,503.2351 917.250617,503.040009 C916.296713,502.847555 915.176799,502.752645 913.898778,502.752645 C911.67476,502.752645 909.645738,503.145464 907.809078,503.928464 C905.972418,504.716736 904.396632,505.839827 903.079086,507.300373 C901.761539,508.763555 900.736488,510.535191 899.998662,512.615282 C899.260836,514.692736 898.894558,517.025918 898.894558,519.612191 C898.894558,522.3171 899.260836,524.7241 899.998662,526.827918 C900.736488,528.931736 901.737823,530.700736 903.005303,532.140191 C904.275418,533.577009 905.756341,534.673736 907.44807,535.419827 C909.1398,536.171191 910.950109,536.545555 912.881632,536.545555 C913.993642,536.545555 915.008153,536.490191 915.9278,536.3821 C916.844813,536.274009 917.698583,536.084191 918.481205,535.817918 C919.269098,535.554282 920.017465,535.208918 920.72894,534.7871 C921.44305,534.362645 922.162431,533.838009 922.887081,533.210555 C923.176941,532.968009 923.490518,532.767645 923.827809,532.6121 C924.165101,532.453918 924.518204,532.374827 924.879212,532.374827" id="Fill-114" fill="#2D6091"></path>
            <polygon id="Fill-116" fill="#2D6091" points="973.915397 493.215073 973.915397 502.642709 952.244391 502.642709 952.244391 514.970345 968.842843 514.970345 968.842843 524.034164 952.244391 524.034164 952.244391 536.617527 973.915397 536.617527 973.915397 546.045164 939.92006 546.045164 939.92006 493.215073"></polygon>
            <path d="M1194.61683,525.848245 L1209.04133,525.848245 L1204.18749,511.379882 C1203.87128,510.462427 1203.50237,509.381518 1203.08075,508.134518 C1202.6565,506.890155 1202.24016,505.542973 1201.82908,504.090336 C1201.44173,505.5667 1201.04383,506.934973 1200.63275,508.189882 C1200.22431,509.447427 1199.83695,510.533609 1199.47595,511.4537 L1194.61683,525.848245 Z M1228.54102,546.045427 L1219.04678,546.045427 C1217.98484,546.045427 1217.10735,545.797609 1216.4196,545.301973 C1215.7292,544.806336 1215.25225,544.170973 1214.98874,543.398518 L1211.86879,534.187064 L1191.79201,534.187064 L1188.6747,543.398518 C1188.43227,544.076064 1187.96322,544.685064 1187.26229,545.228155 C1186.55872,545.773882 1185.70231,546.045427 1184.6878,546.045427 L1175.11978,546.045427 L1195.5602,493.215336 L1208.10061,493.215336 L1228.54102,546.045427 Z" id="Fill-118" fill="#2D6091"></path>
            <path d="M1255.86931,536.363118 C1257.51361,536.363118 1258.98136,536.091573 1260.27255,535.545845 C1261.56638,535.005391 1262.65731,534.222391 1263.55061,533.210027 C1264.44654,532.195027 1265.12639,530.955936 1265.60071,529.492755 C1266.06976,528.029573 1266.30428,526.368664 1266.30428,524.507391 L1266.30428,493.213755 L1278.55746,493.213755 L1278.55746,524.507391 C1278.55746,527.744845 1278.02781,530.718664 1276.97904,533.426209 C1275.92764,536.133755 1274.42564,538.466936 1272.46776,540.423118 C1270.50989,542.381936 1268.1304,543.905755 1265.3293,544.994573 C1262.52292,546.080755 1259.37135,546.623845 1255.86931,546.623845 C1252.34092,546.623845 1249.17354,546.080755 1246.37244,544.994573 C1243.57133,543.905755 1241.19184,542.381936 1239.23397,540.423118 C1237.27609,538.466936 1235.77673,536.133755 1234.7385,533.426209 C1233.69764,530.718664 1233.18116,527.744845 1233.18116,524.507391 L1233.18116,493.213755 L1245.42907,493.213755 L1245.42907,524.470482 C1245.42907,526.331755 1245.66623,527.992664 1246.13791,529.455845 C1246.60696,530.919027 1247.28945,532.163391 1248.18275,533.191573 C1249.07868,534.217118 1250.17224,535.005391 1251.46607,535.545845 C1252.75727,536.091573 1254.22765,536.363118 1255.86931,536.363118" id="Fill-120" fill="#2D6091"></path>
            <polygon id="Fill-122" fill="#2D6091" points="1327.77284 493.215073 1327.77284 502.932709 1312.91618 502.932709 1312.91618 546.045164 1300.66563 546.045164 1300.66563 502.932709 1285.80371 502.932709 1285.80371 493.215073"></polygon>
            <path d="M1373.15072,519.612455 C1373.15072,517.002455 1372.81079,514.648182 1372.13358,512.557545 C1371.45899,510.469545 1370.48664,508.697909 1369.21653,507.247909 C1367.94905,505.797909 1366.39698,504.685364 1364.56032,503.910273 C1362.72366,503.137818 1360.63403,502.752909 1358.2888,502.752909 C1355.91985,502.752909 1353.81441,503.137818 1351.96721,503.910273 C1350.11474,504.685364 1348.5574,505.797909 1347.29255,507.247909 C1346.0198,508.697909 1345.04745,510.469545 1344.3755,512.557545 C1343.69565,514.648182 1343.35836,517.002455 1343.35836,519.612455 C1343.35836,522.246182 1343.69565,524.608364 1344.3755,526.699 C1345.04745,528.792273 1346.0198,530.561273 1347.29255,532.013909 C1348.5574,533.463909 1350.11474,534.568545 1351.96721,535.330455 C1353.81441,536.092364 1355.91985,536.472 1358.2888,536.472 C1360.63403,536.472 1362.72366,536.092364 1364.56032,535.330455 C1366.39698,534.568545 1367.94905,533.463909 1369.21653,532.013909 C1370.48664,530.561273 1371.45899,528.792273 1372.13358,526.699 C1372.81079,524.608364 1373.15072,522.246182 1373.15072,519.612455 M1385.68849,519.612455 C1385.68849,523.429909 1385.03236,526.986364 1383.71217,530.273909 C1382.39726,533.561455 1380.54216,536.416636 1378.14949,538.847364 C1375.75946,541.278091 1372.87931,543.181545 1369.50639,544.557727 C1366.1361,545.936545 1362.39954,546.624636 1358.2888,546.624636 C1354.18069,546.624636 1350.43622,545.936545 1347.05276,544.557727 C1343.6693,543.181545 1340.7786,541.278091 1338.3754,538.847364 C1335.96956,536.416636 1334.10918,533.561455 1332.79163,530.273909 C1331.47672,526.986364 1330.81795,523.429909 1330.81795,519.612455 C1330.81795,515.792364 1331.47672,512.238545 1332.79163,508.951 C1334.10918,505.663455 1335.96956,502.810909 1338.3754,500.393364 C1340.7786,497.975818 1343.6693,496.080273 1347.05276,494.701455 C1350.43622,493.322636 1354.18069,492.634545 1358.2888,492.634545 C1362.39954,492.634545 1366.1361,493.327909 1369.50639,494.719909 C1372.87931,496.109273 1375.75946,498.012727 1378.14949,500.430273 C1380.54216,502.847818 1382.39726,505.700364 1383.71217,508.987909 C1385.03236,512.275455 1385.68849,515.816091 1385.68849,519.612455" id="Fill-124" fill="#2D6091"></path>
            <path d="M1422.85358,524.757845 C1423.30155,525.749118 1423.72844,526.764118 1424.14215,527.808118 C1424.55322,526.740391 1424.98801,525.706936 1425.44652,524.702482 C1425.90502,523.698027 1426.3767,522.725209 1426.85893,521.781391 L1440.41648,495.064482 C1440.65364,494.605755 1440.90397,494.249845 1441.15694,493.996755 C1441.40991,493.741027 1441.6945,493.553845 1442.01071,493.432573 C1442.32429,493.3113 1442.68003,493.250664 1443.08056,493.250664 L1444.47189,493.250664 L1453.82383,493.250664 L1453.82383,546.043845 L1443.02259,546.043845 L1443.02259,515.659755 C1443.02259,514.186027 1443.09901,512.591027 1443.2413,510.872118 L1429.25159,538.031936 C1428.81944,538.878209 1428.22917,539.518845 1427.49662,539.951209 C1426.75879,540.388845 1425.92083,540.607664 1424.97747,540.607664 L1423.30682,540.607664 C1422.36609,540.607664 1421.52813,540.388845 1420.79031,539.951209 C1420.05248,539.518845 1419.46749,538.878209 1419.03006,538.031936 L1404.97184,510.835209 C1405.06671,511.681482 1405.13785,512.522482 1405.18792,513.355573 C1405.23535,514.1913 1405.2617,514.958482 1405.2617,515.659755 L1405.2617,546.043845 L1394.46046,546.043845 L1394.46046,493.250664 L1403.80713,493.250664 L1405.20637,493.250664 C1405.60426,493.250664 1405.96264,493.3113 1406.27358,493.432573 C1406.58715,493.553845 1406.87174,493.741027 1407.12735,493.996755 C1407.38032,494.249845 1407.62802,494.605755 1407.87045,495.064482 L1421.45962,521.889482 C1421.94448,522.809573 1422.40562,523.766573 1422.85358,524.757845" id="Fill-126" fill="#2D6091"></path>
            <path d="M1480.64118,525.848245 L1495.06568,525.848245 L1490.21184,511.379882 C1489.89563,510.462427 1489.52671,509.381518 1489.1051,508.134518 C1488.68085,506.890155 1488.2645,505.542973 1487.85343,504.090336 C1487.46607,505.5667 1487.06817,506.934973 1486.6571,508.189882 C1486.24866,509.447427 1485.8613,510.533609 1485.50029,511.4537 L1480.64118,525.848245 Z M1514.56537,546.045427 L1505.07113,546.045427 C1504.00918,546.045427 1503.1317,545.797609 1502.44394,545.301973 C1501.75354,544.806336 1501.27659,544.170973 1501.01308,543.398518 L1497.89313,534.187064 L1477.81636,534.187064 L1474.69904,543.398518 C1474.45661,544.076064 1473.98757,544.685064 1473.28663,545.228155 C1472.58306,545.773882 1471.72666,546.045427 1470.71215,546.045427 L1461.14412,546.045427 L1481.58454,493.215336 L1494.12495,493.215336 L1514.56537,546.045427 Z" id="Fill-128" fill="#2D6091"></path>
            <polygon id="Fill-130" fill="#2D6091" points="1554.28834 493.215073 1554.28834 502.932709 1539.42642 502.932709 1539.42642 546.045164 1527.1785 546.045164 1527.1785 502.932709 1512.31921 502.932709 1512.31921 493.215073"></polygon>
            <polygon id="Fill-132" fill="#2D6091" points="1563.34674 546.044636 1575.66843 546.044636 1575.66843 493.214545 1563.34674 493.214545"></polygon>
            <path d="M1627.93208,519.612455 C1627.93208,517.002455 1627.59216,514.648182 1626.91757,512.557545 C1626.24035,510.469545 1625.268,508.697909 1624.00052,507.247909 C1622.73041,505.797909 1621.17834,504.685364 1619.34431,503.910273 C1617.50765,503.137818 1615.41802,502.752909 1613.07543,502.752909 C1610.70384,502.752909 1608.59577,503.137818 1606.74857,503.910273 C1604.90137,504.685364 1603.34403,505.797909 1602.07391,507.247909 C1600.80643,508.697909 1599.83408,510.469545 1599.15686,512.557545 C1598.47701,514.648182 1598.14235,517.002455 1598.14235,519.612455 C1598.14235,522.246182 1598.47701,524.608364 1599.15686,526.699 C1599.83408,528.792273 1600.80643,530.561273 1602.07391,532.013909 C1603.34403,533.463909 1604.90137,534.568545 1606.74857,535.330455 C1608.59577,536.092364 1610.70384,536.472 1613.07543,536.472 C1615.41802,536.472 1617.50765,536.092364 1619.34431,535.330455 C1621.17834,534.568545 1622.73041,533.463909 1624.00052,532.013909 C1625.268,530.561273 1626.24035,528.792273 1626.91757,526.699 C1627.59216,524.608364 1627.93208,522.246182 1627.93208,519.612455 M1640.47249,519.612455 C1640.47249,523.429909 1639.81372,526.986364 1638.49881,530.273909 C1637.17862,533.561455 1635.32615,536.416636 1632.93612,538.847364 C1630.54346,541.278091 1627.66067,543.181545 1624.28775,544.557727 C1620.9201,545.936545 1617.1809,546.624636 1613.07543,546.624636 C1608.96468,546.624636 1605.22021,545.936545 1601.83939,544.557727 C1598.45593,543.181545 1595.55996,541.278091 1593.15676,538.847364 C1590.75355,536.416636 1588.89054,533.561455 1587.57563,530.273909 C1586.25808,526.986364 1585.60195,523.429909 1585.60195,519.612455 C1585.60195,515.792364 1586.25808,512.238545 1587.57563,508.951 C1588.89054,505.663455 1590.75355,502.810909 1593.15676,500.393364 C1595.55996,497.975818 1598.45593,496.080273 1601.83939,494.701455 C1605.22021,493.322636 1608.96468,492.634545 1613.07543,492.634545 C1617.1809,492.634545 1620.9201,493.327909 1624.28775,494.719909 C1627.66067,496.109273 1630.54346,498.012727 1632.93612,500.430273 C1635.32615,502.847818 1637.17862,505.700364 1638.49881,508.987909 C1639.81372,512.275455 1640.47249,515.816091 1640.47249,519.612455" id="Fill-134" fill="#2D6091"></path>
            <path d="M1657.03616,493.287836 C1657.39717,493.335291 1657.72128,493.424927 1658.01114,493.559382 C1658.30364,493.6912 1658.58296,493.881018 1658.84647,494.120927 C1659.11261,494.363473 1659.41301,494.690382 1659.75294,495.099018 L1684.83376,526.827655 C1684.73626,525.812655 1684.66511,524.826655 1684.61768,523.872291 C1684.56761,522.917927 1684.54126,522.016291 1684.54126,521.170018 L1684.54126,493.214018 L1695.34251,493.214018 L1695.34251,546.044109 L1688.96558,546.044109 C1688.02222,546.044109 1687.22379,545.899109 1686.57292,545.611745 C1685.91942,545.319109 1685.29226,544.7892 1684.68619,544.014109 L1659.78983,512.5412 C1659.86098,513.461291 1659.92422,514.360291 1659.97165,515.240836 C1660.02172,516.126655 1660.0428,516.951836 1660.0428,517.726927 L1660.0428,546.044109 L1649.24155,546.044109 L1649.24155,493.214018 L1655.6949,493.214018 C1656.22455,493.214018 1656.66988,493.240382 1657.03616,493.287836" id="Fill-135" fill="#2D6091"></path>
        </g>
    </g>
</svg>