<?xml version="1.0" encoding="UTF-8" standalone="no"?>
<svg width="548px" height="140px" viewBox="0 0 548 140" version="1.1" xmlns="http://www.w3.org/2000/svg" xmlns:xlink="http://www.w3.org/1999/xlink">
    <!-- Generator: Sketch 3.8.2 (29753) - http://www.bohemiancoding.com/sketch -->
    <title>LOGO_Ercom_CMJN</title>
    <desc>Created with Sketch.</desc>
    <defs></defs>
    <g id="Page-1" stroke="none" stroke-width="1" fill="none" fill-rule="evenodd">
        <g id="LOGO_Ercom_CMJN">
            <g id="Calque_1">
                <polygon id="Shape" fill="#E8E8F1" points="59.1 0.1 78.5 33.7 97.9 0.1"></polygon>
                <polygon id="Shape" fill="#868DAD" points="97.9 0.1 78.5 33.7 117.3 33.7"></polygon>
                <polygon id="Shape" fill="#C8CBDC" points="136.6 0.1 117.3 33.7 156 33.7 136.7 0.1"></polygon>
                <polygon id="Shape" fill="#A4A8C2" points="39.7 33.7 20.3 67.3 0.9 33.7"></polygon>
                <polygon id="Shape" fill="#44547F" points="20.3 67.3 39.7 33.7 59.1 67.3"></polygon>
                <polygon id="Shape" fill="#0B305E" points="78.5 33.7 59.1 67.3 39.7 33.7"></polygon>
                <polygon id="Shape" fill="#A4A8C2" points="59.1 67.3 78.5 33.7 97.9 67.3"></polygon>
                <path d="M117.3,33.7 L97.9,67.3 L78.5,33.7 L117.3,33.7 Z M0.9,100.9 L20.3,67.3 L39.7,100.9 L0.9,100.9 Z" id="Shape" fill="#E8E8F1"></path>
                <polygon id="Shape" fill="#E30613" points="59.1 67.3 39.7 100.9 20.3 67.3"></polygon>
                <path d="M39.7,100.9 L59.1,67.3 L78.5,100.9 L39.7,100.9 Z M78.5,100.9 L97.9,67.3 L117.3,100.9 L78.5,100.9 Z" id="Shape" fill="#C8CBDC"></path>
                <polygon id="Shape" fill="#868DAD" points="117.3 100.9 97.9 134.4 78.5 100.9"></polygon>
                <path d="M294.2,98.5 L294.2,98.3 C294.2,75.9 311,57.5 334.9,57.5 C349.4,57.5 358.2,62.6 365.8,69.8 L356.9,80 C350.6,74.1 343.8,70.2 334.8,70.2 C319.8,70.2 308.8,82.6 308.8,98 L308.8,98.2 C308.8,113.6 319.7,126.1 334.8,126.1 C344.5,126.1 350.7,122.3 357.4,116 L366.3,125 C358.1,133.6 349.1,139 334.3,139 C311.3,139.1 294.2,121.2 294.2,98.5 L294.2,98.5 Z M374.6,98.5 L374.6,98.3 C374.6,76.1 391.7,57.5 415.9,57.5 C440.1,57.5 457,75.9 457,98.1 L457,98.3 C457,120.5 439.9,139.1 415.7,139.1 C391.5,139.1 374.6,120.7 374.6,98.5 L374.6,98.5 Z M442.5,98.5 L442.5,98.3 C442.5,83 431.4,70.3 415.7,70.3 C400,70.3 389.1,82.8 389.1,98.1 L389.1,98.3 C389.1,113.6 400.3,126.2 415.9,126.2 C431.6,126.3 442.5,113.9 442.5,98.5 L442.5,98.5 Z M156.7,125.4 L156.7,104.2 L196.3,104.2 L196.3,91.8 L156.7,91.8 L156.7,71.3 L201.3,71.3 L201.3,58.9 L137.7,58.9 L142.9,66.1 L142.9,137.8 L201.9,137.8 L201.9,125.4 L156.7,125.4 Z M265.6,107.9 C276.5,104.7 284.3,97 284.3,84 L284.3,83.8 C284.3,76.9 281.9,71.1 277.8,66.8 C272.7,61.8 265,58.9 255,58.9 L215,58.9 L219.9,65.9 L219.9,137.8 L233.8,137.8 L233.8,110.3 L251.2,110.3 L270.6,137.8 L287.1,137.8 L265.6,107.9 L265.6,107.9 Z M233.7,98 L233.7,71.5 L253.9,71.5 C264.2,71.5 270.2,76.1 270.2,84.6 L270.2,84.8 C270.2,92.8 263.9,98 254,98 L233.7,98 L233.7,98 Z M535.8,58.9 L508.7,97.6 L481.5,58.9 L465,58.9 L470.2,66.2 L470.2,137.8 L483.8,137.8 L483.8,85.9 L508.5,120.8 L508.9,120.8 L533.8,85.1 L533.8,137.8 L547.7,137.8 L547.7,58.9 L535.8,58.9 Z" id="Shape" fill="#0B305E"></path>
            </g>
        </g>
    </g>
</svg>