<?xml version="1.0" encoding="UTF-8" standalone="no"?>
<svg width="10198px" height="1727px" viewBox="0 0 10198 1727" version="1.1" xmlns="http://www.w3.org/2000/svg" xmlns:xlink="http://www.w3.org/1999/xlink">
    <!-- Generator: Sketch 3.8.3 (29802) - http://www.bohemiancoding.com/sketch -->
    <title>mobpartner</title>
    <desc>Created with Sketch.</desc>
    <defs></defs>
    <g id="Page-1" stroke="none" stroke-width="1" fill="none" fill-rule="evenodd">
        <g id="mobpartner" transform="translate(-1.000000, -1.000000)">
            <path d="M3590.02404,466.411047 C3539.86236,616.211186 3489.6613,765.991649 3439.54882,915.801625 C3410.49696,1002.66937 3380.79558,1089.33053 3353.13136,1176.63114 C3345.23855,1201.52077 3331.74597,1208.46625 3306.82751,1209.08604 C3190.73818,1211.95867 3191.86995,1212.29316 3156.22434,1105.36614 C3086.02554,894.719225 3014.46861,684.52485 2942.3212,470.769192 C2926.24033,488.477227 2933.27694,506.263964 2933.39504,521.955251 C2934.98935,735.012425 2936.54429,948.0696 2940.06752,1161.09726 C2940.658,1196.39528 2933.19821,1212.14559 2894.52145,1209.03685 C2853.79768,1205.76086 2812.51295,1206.60691 2771.64156,1208.87944 C2740.58205,1210.61089 2733.22067,1198.22511 2733.28956,1169.06588 C2734.08672,839.637399 2734.13593,510.208921 2733.04353,180.780443 C2732.93527,148.246847 2743.19987,137.769593 2775.16478,138.782886 C2837.41173,140.750446 2899.87518,141.744063 2962.01387,138.546779 C2996.72454,136.7563 3009.56759,149.397869 3019.98965,181.301846 C3094.70566,409.863389 3171.64584,637.696935 3248.14315,865.66821 C3252.20766,877.778539 3258.64394,889.101843 3267.96376,909.544786 C3303.72746,804.732894 3337.16859,708.273292 3369.55668,611.449692 C3418.86217,464.099165 3467.87241,316.640422 3515.81978,168.847195 C3522.42337,148.522305 3531.09366,138.891102 3553.227,139.176398 C3622.06769,140.081475 3690.95759,140.386447 3759.78844,139.028831 C3786.32089,138.507428 3792.81623,149.250302 3792.76702,173.903822 C3792.15685,506.608287 3792.06828,839.322589 3792.7867,1172.02705 C3792.84575,1199.29743 3785.34659,1212.0177 3756.82617,1208.57447 C3745.50855,1207.20702 3733.89568,1208.23015 3722.42059,1208.23015 C3590.79167,1208.28917 3591.58883,1208.30885 3593.24219,1074.45578 C3595.54508,887.636011 3596.53906,700.806404 3598.05464,513.976797 C3598.18258,498.482266 3598.07432,482.987736 3598.07432,467.493205 C3595.38761,467.129207 3592.71075,466.775046 3590.02404,466.411047" id="Fill-1" fill="#E85F3B"></path>
            <path d="M5428.80373,809.141211 C5429.532,675.78987 5332.33819,569.738415 5208.11986,568.33161 C5082.95675,566.914968 4984.97563,670.123298 4983.85371,804.566635 C4982.7121,940.229859 5074.51282,1042.30684 5198.00288,1042.68068 C5332.4366,1043.08403 5428.05578,946.329293 5428.80373,809.141211 M4975.44914,1149.19451 C4984.83785,1197.53745 4968.07792,1210.5135 4924.06712,1209.52972 C4798.94338,1206.7653 4798.90401,1208.88043 4798.89417,1084.51099 C4798.86464,786.219144 4799.56338,487.927294 4797.91003,189.645282 C4797.69352,149.152908 4808.33208,137.032742 4849.6365,138.055873 C4976.59075,141.213806 4976.65964,139.45284 4976.78757,266.812963 C4976.85646,329.076382 4976.79741,391.3398 4976.79741,464.847821 C5074.26678,386.7849 5182.52234,374.290898 5294.30112,392.294067 C5409.79012,410.887504 5494.25898,478.778142 5553.18937,577.766058 C5666.8577,768.668513 5632.05846,956.954114 5493.70786,1111.25996 C5365.91709,1253.77029 5205.22648,1263.82452 4975.44914,1149.19451" id="Fill-3" fill="#E85F3B"></path>
            <path d="M4293.96565,1042.81841 C4427.2184,1043.00533 4510.92947,949.634793 4511.62821,800.051086 C4512.27774,661.957927 4424.01009,565.104813 4296.60315,564.121033 C4166.30282,563.10774 4070.88047,664.663321 4072.17953,802.98275 C4073.53765,948.680527 4160.4275,1042.63149 4293.96565,1042.81841 M4699.79605,805.265119 C4697.79824,1046.74369 4512.52377,1238.86603 4281.01435,1232.99287 C4066.58961,1227.55257 3885.83235,1032.68548 3889.45399,798.191743 C3893.06579,564.071844 4070.83126,379.072067 4295.13677,380.636277 C4521.45978,382.210325 4701.72496,571.37149 4699.79605,805.265119" id="Fill-5" fill="#E85F3B"></path>
            <g id="Group-9" transform="translate(0.000000, 370.557934)" fill="#D4D4D6">
                <path d="M481.671404,689.090979 C332.022859,678.839994 182.000339,669.248142 50.8339695,584.210222 C-5.09478787,547.957939 -13.863488,498.414793 24.1046883,444.169179 C64.3954384,386.618065 120.078161,347.73909 181.51811,315.510467 C252.4255,278.313755 325.2126,245.544053 400.273067,217.722762 C400.952124,222.730201 401.641023,227.727802 402.320081,232.735241 C380.422934,243.674871 359.175321,256.247576 336.500702,265.24916 C266.400308,293.099964 197.638347,323.990648 136.966027,368.969057 C103.180452,394.006251 64.6414738,423.027752 75.0241659,472.52171 C84.5703377,518.021522 123.512814,537.716793 164.787706,554.008185 C248.32163,586.984481 337.652148,584.426654 423.931827,600.196643 C441.666055,603.433278 456.743102,598.927567 460.512364,577.746789 C475.422106,619.862399 507.416544,605.351649 536.448716,600.639344 C644.802688,616.64544 752.753161,599.321079 860.60522,593.929966 C896.447651,592.149325 936.157758,602.164202 970.002382,579.419215 C978.328218,580.589913 986.654055,581.770449 994.979891,582.941146 C1216.7168,556.034771 1436.32796,517.795253 1652.30763,460.086735 C1669.62852,454.272596 1686.95925,448.458458 1704.28998,442.64432 L1745.09249,432.767172 C1800.24377,413.071902 1856.48746,395.954134 1910.27079,373.06158 C1988.01796,339.96723 2066.89689,307.443473 2127.3527,244.766867 C2177.06169,193.236485 2169.82825,142.512802 2105.94763,111.622119 C2012.13927,66.2600359 1912.10129,47.6469235 1808.07754,49.8505901 C1811.23663,33.4509821 1814.39573,17.0513741 1817.55482,0.661603952 C1963.56204,12.2898803 2109.77594,22.1768665 2247.43764,79.9050606 C2275.34789,91.6120393 2299.0657,109.280723 2319.67362,129.221938 C2358.3307,166.615405 2353.71507,217.614546 2313.46369,265.367214 C2263.85312,324.226755 2199.21471,363.656646 2132.11595,396.544402 C2001.61879,460.499922 1865.75807,511.626954 1723.589,544.327792 C1702.07567,550.987981 1680.56233,557.658008 1659.049,564.337872 C1647.80027,561.268479 1638.90363,567.485967 1629.51492,571.794922 C1619.89002,573.083674 1610.11749,573.664104 1600.66973,575.759554 C1394.14765,621.46596 1187.16303,664.102974 974.736102,671.048458 C969.982699,673.98996 965.229296,676.931461 960.475893,679.863125 C822.282753,689.681246 683.912468,691.638968 545.433928,689.445139 C524.186314,689.327086 502.928859,689.209032 481.671404,689.090979" id="Fill-7"></path>
            </g>
            <path d="M6352.56612,1333.71519 C5166.70522,1333.68567 3980.85416,1333.79389 2794.99326,1332.74124 C2774.80852,1332.72157 2735.64954,1350.72474 2736.20065,1313.79365 C2736.64352,1284.0048 2773.83422,1298.32863 2793.8615,1298.32863 C5168.85065,1297.62031 7543.83979,1297.65966 9918.82894,1298.54506 C9939.98798,1298.54506 9979.40284,1282.84394 9979.84571,1315.30867 C9980.30825,1349.55404 9940.67688,1332.8593 9919.98038,1332.86914 C8730.84229,1333.85292 7541.7042,1333.7447 6352.56612,1333.71519" id="Fill-10" fill="#ABAAAC"></path>
            <path d="M7188.12384,804.717154 C7188.12384,789.980133 7189.58037,775.085708 7187.88765,760.545444 C7175.64493,655.408905 7131.94905,568.61002 7033.78094,519.873573 C6939.58876,473.094847 6843.75307,471.176476 6753.69429,531.344444 C6640.71485,606.8397 6589.22457,752.921151 6621.59299,896.739909 C6652.39661,1033.65253 6730.84253,1104.1797 6875.28496,1124.84891 C6993.08669,1141.70106 7083.54897,1089.79684 7149.08295,969.401879 C7177.19003,917.763282 7190.97785,863.350425 7188.12384,804.717154 M7199.43163,530.813203 C7199.43163,486.720196 7201.8723,454.275141 7198.80178,422.351489 C7195.11124,384.082457 7219.75415,389.975298 7242.23194,389.817893 C7265.02465,389.670326 7286.84307,384.56451 7286.6364,422.21376 C7285.26844,672.959535 7285.10114,923.724987 7286.77418,1174.47076 C7287.04974,1216.13383 7262.20017,1206.63052 7238.93506,1208.55873 C7211.87117,1210.81159 7195.06204,1206.59117 7198.75257,1172.67045 C7201.88214,1143.96375 7199.4021,1114.64712 7199.4021,1076.68306 C7107.15853,1197.26494 6989.66188,1238.59352 6850.42555,1220.12798 C6686.64473,1198.41596 6507.61957,1049.46187 6505.48398,839.601983 C6503.45665,640.278373 6576.52915,497.935285 6756.06607,412.326773 C6909.40515,339.202426 7092.24878,385.282669 7199.43163,530.813203" id="Fill-12" fill="#686A6B"></path>
            <path d="M9415.51441,741.017417 L9415.51441,740.830498 C9498.98928,740.830498 9582.474,741.283037 9665.92919,740.240231 C9675.98712,740.122177 9702.91323,750.884727 9691.61528,722.325602 C9651.8855,621.832503 9603.07208,527.468352 9491.36219,489.228834 C9357.06625,443.256808 9191.35651,542.244724 9147.46381,689.959249 C9135.69347,729.566221 9137.97668,744.283565 9184.78245,742.020872 C9261.5258,738.312022 9338.58407,741.017417 9415.51441,741.017417 M9775.02127,946.479812 C9731.63048,1153.48674 9490.17138,1277.87585 9290.52845,1196.21229 C9014.3882,1083.25471 8935.15498,714.061852 9143.49772,501.152244 C9247.91512,394.441658 9376.9459,352.867127 9520.96516,399.616339 C9671.48959,448.480678 9765.36684,553.656568 9786.87033,714.96693 C9802.70517,833.80752 9802.06548,833.955087 9684.55899,833.994438 C9518.93783,834.043627 9353.30683,835.470108 9187.72503,832.990983 C9143.66502,832.33185 9135.58522,839.670847 9142.96628,886.19379 C9174.53754,1085.21243 9414.87471,1201.18038 9613.13985,1037.263 C9625.61876,1026.95299 9640.89264,1015.25585 9645.59683,1001.12878 C9668.52733,932.175655 9719.94872,936.278016 9775.02127,946.479812" id="Fill-14" fill="#686A6B"></path>
            <path d="M5930.6824,440.063459 C5930.6824,502.248175 5930.64303,564.423054 5930.71192,626.60777 C5930.73161,642.613866 5926.9525,660.843304 5953.08146,660.154658 C6042.99262,657.773912 6133.58284,668.024896 6222.69684,652.68777 C6318.09951,636.268487 6375.39623,568.495902 6384.79478,469.665391 C6395.93526,352.526739 6356.46135,279.166285 6260.18279,240.395526 C6159.23941,199.73591 6053.21785,220.070637 5949.26299,216.243734 C5926.4998,215.407521 5930.82018,234.502686 5930.78081,248.610087 C5930.61351,312.427878 5930.71192,376.245668 5930.6824,440.063459 M5833.9905,657.036077 C5834.02003,491.682381 5835.57497,326.309009 5832.94731,160.994665 C5832.2781,118.593759 5845.88877,108.785475 5885.33316,110.821899 C5994.64175,116.478632 6104.72781,101.908855 6213.4656,124.584977 C6452.35609,174.403582 6559.54877,398.715197 6445.2309,616.11084 C6391.23106,718.797768 6297.02905,759.83122 6185.32899,763.677799 C6114.98257,766.097897 6044.43931,765.910979 5974.10272,763.559745 C5940.63207,762.438236 5929.15698,770.859391 5929.8262,806.423028 C5932.11925,927.526312 5928.88142,1048.74765 5931.71575,1169.83126 C5932.67037,1210.55974 5912.49547,1209.43823 5884.07346,1208.73975 C5855.44479,1208.03142 5830.6149,1213.0487 5832.77017,1167.77516 C5836.80515,1082.83562 5833.95114,997.56159 5833.95114,912.435131 C5833.96098,827.298833 5833.96098,742.172374 5833.9905,657.036077" id="Fill-16" fill="#686A6B"></path>
            <path d="M8389.77234,492.726171 C8522.95619,358.253321 8697.74955,344.362351 8836.21825,449.380837 C8905.77737,502.131105 8937.52577,575.403019 8939.70072,657.873273 C8944.26714,831.53007 8941.51154,1005.37378 8942.66299,1179.12896 C8942.98776,1228.56389 8906.74183,1203.47751 8886.28153,1207.48149 C8862.8688,1212.0659 8842.812,1211.39693 8843.28439,1174.68228 C8845.2822,1020.60269 8841.28658,866.414899 8845.20346,712.404183 C8847.8508,608.13337 8805.66066,535.353347 8712.9447,492.28347 C8623.25989,450.620399 8540.5428,471.387989 8464.08485,528.073377 C8407.45736,570.051257 8389.93964,629.756849 8389.78218,696.457114 C8389.39836,853.842194 8388.09929,1011.24695 8390.72695,1168.58284 C8391.38633,1208.02257 8374.49846,1210.88537 8344.49199,1208.59316 C8318.22525,1206.59609 8290.97438,1217.54556 8291.42708,1169.97981 C8293.82839,922.450992 8293.63156,674.882825 8291.47629,427.354009 C8291.10232,384.20543 8314.33789,389.084977 8340.75225,389.891677 C8365.44436,390.649187 8396.7499,381.017984 8390.22504,426.14396 C8387.49897,445.003017 8389.77234,464.599909 8389.77234,492.726171" id="Fill-18" fill="#686A6B"></path>
            <g id="Group-22" transform="translate(923.798150, 933.828364)" fill="#E85F3B">
                <path d="M36.6797111,116.607451 C41.4331142,113.66595 46.1865173,110.724448 50.9497618,107.773109 C63.7534418,158.801763 48.5779809,208.571179 41.8070879,258.212704 C35.7447767,302.66971 48.2433729,327.293716 91.4963887,344.362295 C255.542924,409.085163 418.565951,476.395371 581.333102,544.276172 C613.39643,557.645739 622.617835,544.994331 626.938216,516.90742 C653.047488,347.42185 679.43232,177.985468 705.718737,8.52941056 C715.097605,4.22045537 724.004085,-1.99703248 735.262663,1.06252246 C746.088219,17.3834281 744.129777,34.6290866 741.059256,52.9667406 C705.895883,263.043063 670.279805,473.060358 637.33075,683.490841 C630.481125,727.219849 613.199602,760.215821 576.776527,783.944588 C576.776527,783.944588 574.188235,784.495505 574.207918,784.495505 C568.854189,786.590956 563.480777,788.676569 558.107364,790.77202 C543.168098,793.861088 528.297721,795.110488 513.742269,789.079918 C501.725902,784.584045 489.67017,780.078334 477.614437,775.572623 C327.81827,698.798453 184.527278,610.504223 39.0022848,526.233652 C9.32057933,509.04702 -2.81388449,476.985639 1.26046103,441.048166 C3.27795096,423.271266 4.39003077,405.395989 5.9252914,387.560062 C13.1193652,336.069032 20.9924967,284.62719 18.2172179,232.339298 C35.0263535,195.457396 31.5621756,155.348696 36.6797111,116.607451" id="Fill-20"></path>
            </g>
            <g id="Group-25" transform="translate(969.974141, 0.753616)" fill="#E85F3B">
                <path d="M25.0077185,952.745464 C16.681882,951.574767 8.35604555,950.394231 0.0400504685,949.243209 C13.5916779,878.312691 4.97059903,805.857314 14.6250264,734.651338 L16.6129921,732.516536 C40.6358844,646.83916 36.3548692,557.787419 47.5445573,470.555671 C58.9802807,381.464579 65.6429181,291.773382 76.6751436,202.623263 C82.245384,157.605503 108.679423,131.210693 155.386775,121.313869 C329.668381,84.3631029 503.871255,46.8712577 677.247451,5.96569678 C738.82518,-8.55489193 785.965554,5.74926524 825.803599,52.2918839 C830.60621,79.3753397 839.315861,105.809501 834.050705,134.181708 C823.815634,189.381588 809.545583,243.341906 802.784531,299.8207 C786.605246,434.903494 757.563233,568.422078 740.065198,703.386818 C735.518465,738.517592 715.727381,775.310954 734.317812,812.448638 C716.987082,818.262776 699.656351,824.076914 682.335462,829.920566 C683.791991,813.727552 684.333269,797.357457 686.832988,781.292334 C714.310217,604.851441 742.151578,428.469574 769.766586,252.058194 C779.617842,189.076617 777.23622,185.436632 713.749256,193.100276 C523.367097,216.071532 333.171924,240.626674 142.799606,263.706146 C112.025504,267.444509 94.7046145,281.640451 91.3486923,312.462269 C86.5559235,356.437223 83.4361952,400.677797 76.6456193,444.357617 C56.8250109,571.825956 57.6221655,701.448772 32.0836954,828.769544 C24.4369165,866.891008 15.5698022,910.865962 25.0077185,952.745464" id="Fill-23"></path>
            </g>
            <path d="M8008.79938,858.928335 C8008.85843,962.176017 8006.90983,1065.47289 8009.84257,1168.63203 C8010.97433,1208.20949 7992.42326,1209.26213 7962.78093,1208.90797 C7934.27035,1208.57349 7914.79419,1210.24591 7915.23705,1169.54695 C7917.46121,964.724007 7915.14848,759.851879 7917.19549,555.028941 C7917.57931,517.212448 7906.79312,504.639744 7870.56687,509.922641 C7856.11968,512.037767 7840.68834,507.984595 7826.42813,510.650638 C7774.28832,520.399895 7764.37801,496.700641 7765.95264,449.144729 C7767.21234,410.885536 7776.0893,399.365475 7815.14987,400.241039 C7916.22119,402.503733 7916.26056,400.575525 7916.25072,298.783837 C7916.24088,254.533425 7918.73075,210.105932 7915.48309,166.101465 C7912.80622,129.918047 7926.83024,122.175701 7959.92691,123.592344 C7990.45498,124.900771 8012.51943,123.080778 8009.88193,166.25887 C8005.77806,233.195242 8009.71463,300.593991 8008.24826,367.746795 C8007.6873,393.13815 8015.32424,403.703944 8041.5024,401.687196 C8064.32464,399.92623 8087.37323,401.26417 8110.33325,401.254333 C8183.44512,401.214981 8194.77258,416.571783 8181.6835,490.207695 C8177.70757,512.539495 8164.12642,510.06037 8149.74811,510.168586 C8115.32285,510.414531 8080.77948,512.018092 8046.50184,509.725885 C8015.63916,507.659947 8007.61841,519.475142 8008.10064,549.204965 C8009.76384,652.423134 8008.74033,755.680653 8008.79938,858.928335" id="Fill-26" fill="#686A6B"></path>
            <path d="M986.589101,733.273103 L984.601136,735.398067 C970.468865,721.428395 971.492372,702.874309 969.032018,685.215463 C957.783282,604.309419 946.022792,523.472239 934.862628,442.556357 C931.211463,416.112358 922.619908,394.528231 891.609612,392.324564 C756.201593,382.683523 620.803415,372.865401 485.346189,363.942519 C453.735566,361.866744 442.122697,376.928411 447.466585,409.747303 C477.876555,596.773666 506.92841,784.026298 536.452653,971.200229 C507.410639,975.912533 475.426043,990.413447 460.506459,948.307674 C443.175728,832.959502 427.262161,717.365384 402.324018,603.296126 C401.635119,598.288687 400.956061,593.291086 400.267162,588.283647 C391.183537,526.807252 383.261198,465.124263 372.740726,403.883976 C357.427486,314.733857 443.274142,222.789804 534.110396,236.218398 C645.88918,252.755735 757.126686,272.972408 868.580702,291.742925 C910.249251,298.767112 936.328998,322.063016 943.513231,364.700029 C947.833612,390.386518 952.331138,416.033655 956.749933,441.710306 C958.108048,451.125078 959.466163,460.549688 960.824279,469.96446 C968.55963,535.366136 975.537193,600.86619 984.463356,666.100623 C987.543718,688.648854 989.994231,710.744547 986.589101,733.273103" id="Fill-28" fill="#686A6B"></path>
            <path d="M7503.2725,495.556505 C7549.44841,421.841891 7606.381,386.888197 7681.14622,381.064221 C7708.21011,378.949095 7721.94872,384.59599 7718.10073,414.532407 C7716.44737,427.410084 7716.29975,440.937055 7718.3074,453.726192 C7723.28716,485.423574 7711.58571,498.35044 7679.06968,505.256574 C7586.088,524.981357 7495.49778,607.441773 7501.69787,736.434971 C7508.5967,880.145513 7501.25501,1024.48567 7504.51252,1168.452 C7505.55571,1214.16824 7480.73566,1206.99649 7452.97303,1208.74762 C7421.78559,1210.72501 7406.56092,1205.76676 7406.83648,1167.77319 C7408.63746,922.261122 7408.96222,676.709704 7406.65933,431.207474 C7406.25584,387.803112 7427.19837,389.564078 7457.22452,389.249269 C7486.44368,388.954135 7509.88593,389.121377 7503.71536,429.239914 C7501.0877,446.298655 7503.2725,464.09523 7503.2725,495.556505" id="Fill-30" fill="#686A6B"></path>
            <path d="M9983.24591,481.345807 C10029.8942,418.698715 10087.4862,387.601438 10160.9031,381.019951 C10189.2267,378.481799 10200.377,386.893116 10197.2573,415.373539 C10195.663,429.943317 10195.2103,445.064011 10197.2672,459.505897 C10201.3317,487.946969 10190.2699,496.869851 10161.9955,503.775985 C10053.0215,530.397064 9976.27819,612.513158 9981.7205,737.679452 C9987.98948,881.527723 9981.49414,1025.87772 9984.25958,1169.94242 C9985.05673,1211.51696 9963.99611,1209.92323 9936.17443,1208.42789 C9911.44296,1207.10962 9885.38289,1217.03596 9885.76671,1172.20512 C9887.87277,923.29901 9887.80388,674.353551 9885.75686,425.447443 C9885.42226,384.837017 9907.14226,388.595055 9931.83437,390.149427 C9954.85343,391.605421 9988.76695,377.27175 9983.59036,423.981612 C9981.50398,442.889858 9983.24591,462.211292 9983.24591,481.345807" id="Fill-32" fill="#686A6B"></path>
            <path d="M942.020288,1166.16766 C944.795567,1218.45555 936.922436,1269.8974 929.728362,1321.38843 C865.021063,1362.66782 800.638531,1404.45879 735.547416,1445.09873 C657.505001,1493.8155 543.16745,1444.82327 527.824685,1355.1124 C511.025391,1256.86231 496.942327,1158.15969 481.678293,1059.64399 C502.925907,1059.77188 524.183362,1059.88994 545.440817,1060.00799 C556.512408,1127.56415 567.643047,1195.1203 578.645748,1262.69613 C584.36361,1297.79739 597.37396,1309.09118 635.204356,1292.42595 C736.374095,1247.85089 839.610531,1207.93895 942.020288,1166.16766" id="Fill-34" fill="#686A6B"></path>
            <path d="M1500.57566,1717.77295 C1536.99874,1694.04419 1554.28026,1661.04821 1561.12988,1617.3192 C1594.07894,1406.88872 1629.69502,1196.87143 1664.85839,986.795105 C1667.92891,968.457451 1669.88735,951.211792 1659.0618,934.890887 C1680.56529,928.22086 1702.06878,921.540996 1723.59195,914.880807 C1684.93488,1152.00123 1646.82892,1389.20036 1607.23691,1626.14371 C1597.50375,1684.36379 1555.80568,1710.07979 1500.57566,1717.77295" id="Fill-36" fill="#B64F31"></path>
            <path d="M1704.28998,813.199302 C1685.69955,776.061618 1705.49064,739.268256 1710.04721,704.14732 C1727.53541,569.172742 1756.58726,435.654158 1772.7567,300.571364 C1779.51776,244.102408 1793.78781,190.132253 1804.03272,134.932372 C1809.29788,106.560165 1800.58822,80.126004 1795.78561,53.0425482 C1842.21741,78.3158493 1856.54651,118.040875 1848.5848,168.449748 C1837.90687,235.976388 1827.86862,303.611244 1817.55482,371.206748 C1814.39573,387.616194 1811.23663,404.015802 1808.07754,420.41541 C1787.0858,548.060829 1766.09407,675.696411 1745.09249,803.331992 L1704.28998,813.199302 Z" id="Fill-38" fill="#B64F31"></path>
            <path d="M4376.40619,1487.17892 C4340.14058,1507.43494 4338.21166,1566.0387 4304.75085,1562.54628 C4282.1156,1560.17538 4264.03692,1514.15416 4236.17588,1477.44934 C4236.17588,1525.22168 4236.54985,1560.48035 4235.96921,1595.72918 C4235.77238,1607.67226 4241.12611,1626.08862 4221.60074,1625.85251 C4206.32687,1625.66559 4209.23009,1609.17744 4209.17104,1598.29684 C4208.89548,1549.14721 4209.0431,1499.99757 4209.23009,1450.8381 C4209.26945,1441.19706 4207.86213,1429.70651 4219.38642,1425.68285 C4230.58595,1421.78708 4237.48479,1430.2771 4243.43884,1438.39328 C4252.14849,1450.25767 4261.02545,1462.01384 4269.2824,1474.19303 C4307.06358,1529.94382 4306.22706,1529.4421 4347.28544,1472.50093 C4359.97103,1454.90111 4369.72387,1420.91152 4392.40833,1427.68976 C4417.24806,1435.1173 4401.56084,1468.01489 4402.93864,1489.37275 C4405.35963,1526.90395 4403.86374,1564.70076 4403.60786,1602.37953 C4403.53897,1611.7943 4405.15296,1624.68181 4392.22134,1625.89186 C4374.99887,1627.50526 4376.69159,1612.59116 4376.56365,1601.70072 C4376.15031,1564.65157 4376.40619,1527.59259 4376.40619,1487.17892" id="Fill-40" fill="#ABAAAC"></path>
            <path d="M8547.66897,1579.59617 C8547.66897,1527.40666 8547.41309,1490.53459 8547.83627,1453.67237 C8547.95437,1443.07706 8543.7324,1427.6022 8559.82312,1426.1954 C8576.72083,1424.71973 8574.66397,1440.31264 8574.7427,1451.03584 C8575.11667,1501.66114 8574.97889,1552.28645 8574.76238,1602.91175 C8574.72302,1612.40523 8575.95319,1623.77772 8563.13967,1626.36506 C8553.85922,1628.23424 8548.68264,1620.41319 8543.59462,1614.08749 C8507.84077,1569.61081 8472.14596,1525.0751 8427.99737,1470.03262 C8427.99737,1519.48723 8428.38119,1558.4941 8427.75134,1597.47145 C8427.56435,1609.25713 8432.24886,1627.48657 8411.62126,1625.69609 C8395.65849,1624.30896 8400.08712,1608.48978 8399.99855,1597.90431 C8399.60489,1550.54516 8399.51632,1503.17616 8400.06744,1455.82684 C8400.18554,1445.32008 8394.80228,1431.14381 8409.15106,1425.89043 C8424.82844,1420.15499 8432.80982,1433.31796 8440.72232,1443.28365 C8473.55328,1484.64175 8505.95122,1526.33434 8547.66897,1579.59617" id="Fill-42" fill="#ABAAAC"></path>
            <path d="M2925.47959,1558.30718 C2935.7245,1601.5443 2908.51299,1617.04867 2873.81217,1626.56182 C2825.24479,1639.86252 2778.91141,1620.90508 2751.78847,1576.90061 C2723.72076,1531.38113 2728.30686,1494.78452 2767.32806,1452.90502 C2800.21807,1417.607 2849.9369,1408.72347 2892.72736,1431.06511 C2902.25385,1436.0332 2918.876,1439.98799 2914.03403,1453.29853 C2906.64312,1473.58407 2892.25498,1458.67981 2882.0888,1453.83961 C2851.06866,1439.06324 2821.81997,1439.00421 2795.28752,1462.41817 C2767.49537,1486.9438 2763.61785,1519.18226 2772.13067,1552.57174 C2783.72386,1598.09123 2844.74063,1619.61633 2884.58852,1594.78573 C2898.4157,1586.17766 2899.20302,1574.66743 2898.80936,1561.229 C2898.14014,1538.55288 2881.19323,1542.74378 2867.02159,1541.01233 C2855.52682,1539.61536 2835.67669,1547.5643 2836.72972,1527.63293 C2837.61544,1510.91851 2856.4027,1514.08628 2869.00956,1514.09612 C2899.09476,1514.13547 2937.3385,1504.36654 2925.47959,1558.30718" id="Fill-44" fill="#ABAAAC"></path>
            <path d="M6972.4955,1547.037 C6972.54471,1543.76101 6973.17456,1540.3473 6972.45614,1537.23855 C6961.45343,1489.78102 6984.14774,1467.87224 7028.45378,1474.16843 C7067.46515,1479.71695 7104.45903,1478.80204 7143.49992,1474.33568 C7178.31884,1470.35137 7196.05307,1501.488 7196.33847,1532.86073 C7196.61403,1563.71206 7208.09896,1621.66653 7187.14659,1620.73194 C7149.00127,1619.03 7175.91753,1571.62165 7170.74095,1544.42998 C7166.47962,1522.04899 7165.68246,1500.86822 7136.93569,1499.70736 C7106.16159,1498.46779 7098.22941,1517.89744 7098.90847,1544.45949 C7099.41038,1564.0859 7099.16434,1583.74182 7098.9872,1603.3879 C7098.89863,1613.23554 7099.03641,1625.47375 7086.30162,1626.20175 C7069.16771,1627.17569 7071.35251,1612.43867 7071.11631,1601.51872 C7070.69313,1581.88248 7070.86044,1562.22656 7071.16552,1542.58048 C7071.53949,1518.26144 7064.21748,1499.67784 7036.0612,1499.96314 C7006.85188,1500.25827 6996.78411,1520.34705 6995.65235,1545.54165 C6994.91424,1561.72483 6998.61461,1578.07525 6998.55557,1594.34696 C6998.5162,1606.536 7001.40958,1624.94251 6983.0455,1624.24403 C6967.34844,1623.65376 6973.20408,1606.536 6972.67265,1596.13744 C6971.81644,1579.8067 6972.44629,1563.40709 6972.4955,1547.037" id="Fill-46" fill="#ABAAAC"></path>
            <path d="M3548.85642,1549.14425 C3548.23641,1516.2565 3530.93521,1495.24296 3498.72426,1496.88587 C3467.32031,1498.48944 3449.39909,1521.37215 3450.48165,1552.98099 C3451.55436,1584.39308 3470.40067,1606.82326 3502.08018,1605.59353 C3533.68096,1604.36381 3550.18501,1582.12055 3548.85642,1549.14425 M3449.98958,1489.33045 C3492.10099,1467.32329 3529.21296,1462.33553 3559.21943,1500.66359 C3583.06518,1531.13125 3584.876,1564.08787 3563.04774,1596.16892 C3543.76841,1624.50178 3516.56674,1636.76951 3482.13164,1627.28588 C3422.30568,1610.82724 3422.34504,1610.67968 3422.30568,1541.79542 C3422.28599,1507.42216 3422.13837,1473.04889 3422.32536,1438.67563 C3422.39425,1427.16541 3422.55171,1412.11358 3436.47731,1411.29704 C3453.40455,1410.30342 3449.3302,1426.71287 3449.80259,1437.21963 C3450.52101,1453.31427 3449.98958,1469.4581 3449.98958,1489.33045" id="Fill-48" fill="#ABAAAC"></path>
            <path d="M9161.2595,1574.2267 C9169.8609,1548.03849 9178.55087,1521.87978 9187.00464,1495.64238 C9190.085,1486.11939 9193.17521,1476.12419 9205.45729,1476.72429 C9215.49553,1477.21618 9217.32604,1486.9556 9220.08163,1494.27492 C9229.85416,1520.21719 9239.06572,1546.36606 9251.584,1580.97543 C9264.27943,1546.69071 9274.6818,1519.19406 9284.5921,1491.5105 C9288.24327,1481.30871 9293.92176,1472.11037 9305.31812,1476.58656 C9318.17101,1481.62352 9311.8233,1492.67136 9308.44769,1501.53522 C9295.09289,1536.65615 9281.58063,1571.7279 9268.11758,1606.80949 C9265.29309,1614.15832 9265.06674,1624.15352 9254.85135,1625.26519 C9242.37244,1626.63265 9238.90826,1616.50955 9235.41456,1607.26202 C9225.70108,1581.53618 9216.02697,1555.80051 9203.20361,1521.73222 C9191.67931,1555.14138 9183.57983,1580.52289 9174.00413,1605.34365 C9170.76631,1613.71562 9168.92596,1626.13092 9156.5061,1626.20962 C9144.97196,1626.27849 9140.66142,1616.30296 9137.23661,1606.93738 C9123.77355,1570.1145 9110.48764,1533.2326 9097.01475,1496.40973 C9094.19026,1488.68705 9089.99782,1479.91174 9100.60686,1475.92743 C9112.12132,1471.5988 9119.8173,1479.50839 9123.18307,1489.18878 C9133.16226,1517.8758 9142.01954,1546.96617 9151.31967,1575.88929 C9154.62639,1575.33837 9157.94294,1574.77762 9161.2595,1574.2267" id="Fill-50" fill="#ABAAAC"></path>
            <path d="M4894.66392,1552.46254 C4892.05595,1521.25705 4877.88431,1496.74126 4845.20098,1496.23953 C4812.99003,1495.7378 4793.93705,1520.6963 4792.54941,1550.02277 C4791.08304,1580.97248 4812.53732,1603.55022 4843.39016,1605.56697 C4876.95922,1607.77064 4891.18006,1583.43193 4894.66392,1552.46254 M4798.27711,1483.4504 C4859.51039,1465.34885 4890.62894,1473.62244 4911.16798,1515.70853 C4930.41778,1555.14826 4917.83061,1587.44575 4887.04667,1616.25082 C4851.6471,1649.37468 4812.557,1611.36143 4775.66154,1623.45209 C4767.99508,1625.97056 4767.96556,1607.98707 4767.90651,1598.71003 C4767.58174,1544.86776 4767.33571,1491.01566 4767.72936,1437.1734 C4767.80809,1426.82403 4764.23566,1410.4441 4781.0448,1411.3295 C4795.07865,1412.06734 4795.03929,1426.93225 4795.50183,1438.47199 C4796.09232,1453.1303 4796.66312,1467.77878 4797.2536,1482.4371 C4796.10216,1484.01115 4794.94087,1485.57536 4793.77959,1487.13957 C4795.27548,1485.90984 4796.77138,1484.68012 4798.27711,1483.4504" id="Fill-52" fill="#ABAAAC"></path>
            <path d="M5723.37006,1486.53061 C5720.39795,1513.19104 5720.92938,1535.78846 5758.95661,1531.67626 C5789.05165,1528.41995 5821.76452,1528.18384 5821.4988,1487.8292 C5821.2134,1446.59899 5785.80399,1449.20601 5757.44103,1445.17251 C5723.43895,1440.34215 5720.04366,1460.85396 5723.37006,1486.53061 M5694.63313,1526.10807 C5694.63313,1519.57577 5694.64297,1513.04347 5694.63313,1506.51118 C5694.44614,1415.50171 5697.65444,1412.42248 5786.4732,1423.74579 C5822.74866,1428.37939 5849.2319,1446.22515 5850.02906,1485.47797 C5850.85574,1526.52126 5825.60267,1550.95834 5786.51257,1551.50926 C5744.07639,1552.1192 5710.714,1554.15563 5722.35639,1610.58523 C5724.07864,1618.93752 5718.36078,1627.13241 5708.48,1626.63068 C5698.9043,1626.14863 5695.06615,1618.17017 5694.96773,1609.4047 C5694.68233,1581.64243 5694.86932,1553.88017 5694.86932,1526.10807 L5694.63313,1526.10807" id="Fill-54" fill="#ABAAAC"></path>
            <path d="M3737.04296,1551.48171 C3721.11956,1554.25597 3698.56303,1554.03954 3697.09666,1576.88291 C3695.54172,1601.23146 3716.88775,1603.6122 3735.77342,1602.67761 C3754.75751,1601.73318 3773.42667,1596.7651 3774.46986,1573.61676 C3775.63115,1547.6253 3753.79305,1554.46257 3737.04296,1551.48171 M3680.39578,1496.10475 C3710.14638,1469.70011 3738.3814,1467.53579 3766.20307,1477.9245 C3793.85745,1488.24435 3801.98646,1513.70457 3802.33091,1541.6144 C3802.40964,1548.13686 3802.96076,1554.70851 3802.2817,1561.16211 C3800.09691,1581.84116 3810.98151,1617.40479 3796.63273,1620.32662 C3768.38787,1626.07189 3737.4071,1637.58212 3707.34158,1627.48854 C3686.41873,1620.46435 3668.8026,1606.79965 3667.51337,1582.78559 C3666.08637,1556.39078 3682.16724,1539.27301 3706.52474,1533.60644 C3727.78219,1528.65802 3750.20093,1528.71705 3774.83399,1526.29695 C3754.72799,1481.42676 3715.31312,1511.3435 3680.39578,1496.10475" id="Fill-56" fill="#ABAAAC"></path>
            <path d="M9873.40687,1549.07637 C9910.15471,1528.09235 9924.98573,1480.82174 9973.32675,1472.44977 C9968.92764,1511.05329 9915.89226,1517.74299 9927.7118,1552.1556 C9936.58875,1577.98966 9961.91071,1598.17682 9982.89261,1624.64049 C9947.10923,1632.90424 9938.62593,1605.26987 9922.61395,1590.38528 C9913.94366,1582.32813 9912.20173,1562.74107 9894.97925,1569.0471 C9882.71685,1573.54297 9874.70594,1585.19093 9873.32814,1599.53444 C9872.23575,1610.82823 9872.4621,1626.33259 9857.4441,1624.81757 C9841.81593,1623.23369 9847.07125,1606.98165 9846.98268,1596.43553 C9846.5595,1545.7512 9846.51029,1495.05703 9846.93347,1444.3727 C9847.02204,1433.76755 9843.18389,1416.94492 9858.42824,1416.45303 C9877.81583,1415.82341 9872.85575,1434.54474 9873.13131,1446.31074 C9873.90879,1479.82812 9873.40687,1513.38484 9873.40687,1549.07637" id="Fill-58" fill="#ABAAAC"></path>
            <path d="M6012.30119,1541.75902 C6024.86867,1533.43624 6052.37542,1553.94805 6052.32622,1524.72979 C6052.29669,1506.31344 6032.5745,1494.88192 6012.92119,1495.32462 C5993.13011,1495.77716 5974.61841,1509.79602 5974.1165,1526.54978 C5973.3095,1553.2594 5998.95623,1534.60694 6012.30119,1541.75902 M5966.45004,1561.9265 C5995.41332,1622.97004 6035.79264,1597.20484 6072.82588,1589.60023 C6054.8653,1630.59433 6021.22735,1641.77007 5982.97377,1621.80918 C5948.10564,1603.61909 5933.8848,1573.299 5941.59062,1535.95472 C5949.21772,1499.00395 5972.8568,1475.17681 6012.67516,1472.71736 C6050.13158,1470.40548 6068.7417,1493.94732 6080.82695,1525.10363 C6089.98931,1548.71434 6085.62956,1563.0972 6056.2431,1562.12326 C6028.85444,1561.21818 6001.40674,1561.9265 5966.45004,1561.9265" id="Fill-60" fill="#ABAAAC"></path>
            <path d="M9533.71176,1552.16347 C9532.95397,1518.07551 9513.60575,1497.2784 9483.14657,1497.09148 C9453.11058,1496.90457 9432.40424,1515.51768 9432.45345,1550.13689 C9432.50266,1584.09696 9448.99687,1602.01159 9482.32974,1602.64121 C9516.16452,1603.28067 9532.48158,1584.38226 9533.71176,1552.16347 M9560.75597,1549.92046 C9560.52961,1597.10253 9525.83863,1631.72174 9480.23352,1630.28542 C9437.45289,1628.93764 9403.22445,1592.6952 9404.2578,1549.81224 C9405.30099,1506.66366 9439.80499,1473.03807 9483.58944,1472.50683 C9527.94469,1471.97559 9560.97248,1505.10929 9560.75597,1549.92046" id="Fill-62" fill="#ABAAAC"></path>
            <path d="M8749.10205,1542.28141 C8759.81935,1530.77118 8787.59183,1555.1886 8789.80614,1527.08201 C8791.51855,1505.34048 8769.08012,1495.55187 8748.78713,1495.62073 C8729.61605,1495.6896 8711.13388,1509.61008 8710.35641,1526.17693 C8709.15575,1551.72569 8733.98564,1535.55235 8749.10205,1542.28141 M8702.74899,1561.92749 C8726.17156,1608.70621 8754.51483,1611.77561 8789.3928,1591.98196 C8796.66561,1587.85008 8803.7219,1581.9474 8810.35502,1590.52596 C8816.27955,1598.17977 8812.52013,1606.07952 8805.54256,1611.55917 C8778.73455,1632.59239 8749.1611,1637.78674 8718.93812,1621.21005 C8687.02241,1603.69877 8673.4019,1573.57544 8679.78897,1539.04477 C8686.38272,1503.41227 8706.14428,1475.43357 8747.15345,1472.69867 C8783.31081,1470.27857 8805.07018,1490.06238 8817.03734,1522.08441 C8826.30795,1546.89533 8822.71583,1563.52121 8790.40647,1562.15376 C8763.47052,1561.02241 8736.43615,1561.92749 8702.74899,1561.92749" id="Fill-64" fill="#ABAAAC"></path>
            <path d="M8068.36257,1541.31829 C8081.73705,1533.84156 8108.71237,1553.6844 8110.47398,1525.60732 C8111.70416,1505.94157 8090.33845,1495.64139 8071.63976,1495.56269 C8050.06738,1495.47415 8029.97121,1510.22101 8030.53217,1530.03433 C8031.08329,1549.39512 8054.8011,1536.37971 8068.36257,1541.31829 M8022.59015,1561.95798 C8047.38067,1608.55963 8075.57633,1610.33043 8108.81078,1592.92737 C8117.34329,1588.46101 8125.70849,1579.90213 8132.71558,1593.33072 C8137.4493,1602.39133 8130.31427,1608.66785 8123.71068,1613.4982 C8096.08583,1633.71488 8065.67586,1638.15172 8036.811,1619.54845 C8007.30644,1600.53199 7992.83956,1571.22519 8001.46064,1535.55334 C8009.65853,1501.64245 8028.08166,1475.58213 8066.7781,1472.71933 C8100.26844,1470.25004 8122.56908,1486.91527 8135.9534,1516.60574 C8148.66851,1544.80087 8147.5958,1564.26987 8108.43681,1562.21377 C8082.68183,1560.86599 8056.80875,1561.95798 8022.59015,1561.95798" id="Fill-66" fill="#ABAAAC"></path>
            <path d="M6606.09571,1603.2364 C6639.4089,1602.53791 6657.90092,1586.87614 6659.11141,1552.81769 C6660.31206,1518.71988 6640.11748,1498.59175 6610.16021,1497.0964 C6579.63215,1495.58138 6558.2566,1514.99136 6557.39055,1548.69565 C6556.55403,1581.61292 6572.66443,1600.52117 6606.09571,1603.2364 M6607.11922,1472.67899 C6650.84462,1472.27564 6685.10258,1505.23226 6686.45086,1548.99078 C6687.8385,1593.89049 6651.45479,1631.05769 6606.84366,1630.32969 C6563.81699,1629.63121 6529.87396,1594.68735 6530.08063,1551.29283 C6530.2873,1507.39658 6563.91541,1473.0725 6607.11922,1472.67899" id="Fill-68" fill="#ABAAAC"></path>
            <path d="M7404.69007,1567.46715 C7398.09632,1547.57513 7379.63383,1553.07445 7364.77329,1552.35629 C7343.74219,1551.32333 7322.34695,1556.4193 7321.90409,1580.96461 C7321.55964,1599.93188 7341.19326,1607.11347 7357.91382,1605.93294 C7379.95859,1604.36873 7398.54902,1594.49158 7404.69007,1567.46715 M7407.50471,1531.68708 C7381.40528,1480.78632 7340.58309,1512.08035 7309.14962,1498.59273 C7327.01178,1467.47578 7355.30585,1470.78128 7380.89353,1475.03121 C7407.31772,1479.4287 7423.59542,1497.79587 7425.82942,1525.69586 C7426.86277,1538.66208 7427.66977,1551.91359 7426.2034,1564.77159 C7423.92019,1584.86038 7435.79878,1619.79439 7417.61184,1621.89968 C7390.33144,1625.05762 7361.6142,1638.64361 7332.5525,1626.90712 C7309.02168,1617.40381 7293.63955,1603.32592 7296.20816,1575.90798 C7298.72756,1548.94258 7315.16272,1534.72696 7340.58309,1532.09043 C7359.78369,1530.09336 7379.35827,1531.68708 7407.50471,1531.68708" id="Fill-70" fill="#ABAAAC"></path>
            <path d="M3293.81224,1551.27217 C3292.92651,1518.86647 3276.62913,1495.46235 3244.33945,1496.36742 C3214.25424,1497.20364 3193.29203,1516.67264 3193.17393,1550.90817 C3193.05584,1584.9863 3213.152,1605.11443 3243.7096,1605.57681 C3274.91672,1606.05886 3294.5405,1585.66511 3293.81224,1551.27217 M3322.11614,1552.68881 C3321.32883,1595.95544 3286.24419,1630.55498 3243.48324,1630.26968 C3200.06292,1629.98439 3165.9329,1595.75869 3165.60813,1552.17725 C3165.26368,1506.7463 3200.68293,1472.01887 3246.88837,1472.50093 C3288.72422,1472.93379 3322.9133,1509.38283 3322.11614,1552.68881" id="Fill-72" fill="#ABAAAC"></path>
            <path d="M7534.85753,1547.27409 C7534.84769,1545.64101 7534.84769,1544.00794 7534.84769,1542.37487 C7534.7788,1473.91363 7534.7788,1473.91363 7605.20396,1472.43797 C7646.92172,1471.5624 7668.70077,1495.8716 7670.34428,1546.18209 C7671.04302,1567.41206 7670.64937,1588.68138 7670.19666,1609.92118 C7670.00968,1618.64731 7665.98454,1626.88154 7656.26122,1626.36998 C7646.5379,1625.85841 7643.78231,1617.27002 7643.71342,1608.51438 C7643.54611,1587.26473 7642.84737,1565.98558 7643.74294,1544.77529 C7644.86486,1517.93778 7634.3936,1497.0423 7607.09351,1496.60943 C7578.7404,1496.15689 7563.98812,1516.49162 7563.04334,1544.96221 C7562.49222,1561.29295 7563.6043,1577.69256 7562.67921,1593.98395 C7562.00015,1605.88768 7568.82025,1624.56966 7550.0822,1625.79939 C7530.41906,1627.09798 7535.66453,1608.21924 7535.07404,1596.30567 C7534.25721,1579.9946 7534.86737,1563.62451 7534.85753,1547.27409" id="Fill-74" fill="#ABAAAC"></path>
            <path d="M5320.60624,1533.46182 C5343.61547,1545.17864 5363.3475,1539.03985 5382.32175,1540.15152 C5391.6022,1540.6926 5403.52015,1542.28633 5406.38401,1529.48735 C5408.80499,1518.63626 5401.2271,1510.48073 5393.1473,1504.93221 C5358.48584,1481.09523 5339.58049,1501.91201 5320.60624,1533.46182 M5321.6199,1561.9816 C5345.97741,1625.0222 5389.41741,1595.56784 5433.76282,1589.79305 C5409.89739,1630.32477 5380.03854,1636.82756 5347.99489,1626.48803 C5305.48983,1612.7643 5292.77472,1577.60402 5299.07322,1536.41316 C5304.85998,1498.57699 5326.64887,1473.29385 5367.45137,1472.86099 C5405.62622,1472.45764 5427.25765,1495.96014 5436.75461,1530.51048 C5443.05312,1553.41287 5432.02089,1563.33921 5408.1653,1562.25705 C5381.07189,1561.03717 5353.8899,1561.9816 5321.6199,1561.9816" id="Fill-76" fill="#ABAAAC"></path>
            <path d="M4640.66785,1547.21506 C4639.57545,1516.05876 4618.10148,1496.09787 4585.70355,1496.20608 C4554.70309,1496.3143 4534.64629,1518.88221 4534.31168,1550.40251 C4533.94755,1585.03155 4556.16946,1606.01558 4589.46297,1605.38596 C4620.20755,1604.80553 4639.76244,1585.22831 4640.66785,1547.21506 M4666.68855,1550.01883 C4665.72409,1593.22644 4625.82699,1632.41039 4584.98512,1630.26575 C4541.50576,1627.97354 4510.36752,1593.63963 4511.48944,1549.22197 C4512.6212,1504.37145 4545.27502,1471.97559 4588.72486,1472.57569 C4631.64327,1473.1758 4667.61364,1508.90668 4666.68855,1550.01883" id="Fill-78" fill="#ABAAAC"></path>
            <path d="M6449.321,1425.6917 C6450.33466,1444.08838 6436.73383,1440.01554 6426.00669,1440.91078 C6413.88206,1441.91423 6402.6038,1445.34762 6403.65683,1460.60605 C6404.60161,1474.30026 6416.29321,1472.75573 6425.6524,1473.70999 C6435.21825,1474.68393 6447.58891,1473.74934 6448.48448,1486.34172 C6449.39973,1499.30794 6437.17669,1500.85247 6427.63052,1500.55734 C6400.34028,1499.70145 6401.24569,1517.98992 6401.45236,1536.68173 C6401.72792,1561.09915 6401.64919,1585.51656 6401.42283,1609.93397 C6401.3441,1618.85685 6397.42722,1626.24504 6387.76295,1626.66806 C6380.97237,1626.9632 6373.52242,1621.759 6374.82149,1615.12833 C6386.02102,1557.93137 6347.13759,1499.8687 6378.61043,1442.84882 C6388.01883,1425.8196 6401.98379,1415.66699 6418.57642,1409.22323 C6432.96457,1403.63536 6443.37678,1411.62365 6449.321,1425.6917" id="Fill-80" fill="#ABAAAC"></path>
            <path d="M7903.4805,1507.21556 C7890.01744,1520.0834 7879.83158,1506.0547 7868.2876,1502.94596 C7844.66821,1496.59074 7821.85581,1496.69896 7806.63114,1519.08978 C7792.58744,1539.74916 7792.2922,1562.75977 7806.74924,1583.31092 C7823.64695,1607.3545 7847.83714,1605.98705 7873.00164,1598.39227 C7883.40401,1595.24417 7894.50513,1573.52232 7904.21861,1593.94558 C7910.89108,1607.98412 7893.34384,1615.33295 7882.31162,1621.4619 C7847.77809,1640.63577 7800.72629,1627.19734 7779.20312,1592.55845 C7757.64058,1557.83103 7769.94235,1507.35329 7805.46985,1484.8149 C7842.07992,1461.58786 7878.94585,1469.99918 7903.4805,1507.21556" id="Fill-82" fill="#ABAAAC"></path>
            <path d="M8932.68576,1430.98444 C8944.1018,1437.90041 8948.93394,1439.67121 8948.79616,1440.92061 C8944.81039,1479.20932 8989.94311,1465.85943 8995.5724,1481.65893 C9007.7856,1515.96333 8945.42055,1485.64324 8952.94924,1521.01012 C8959.20838,1550.38578 8926.02313,1598.88612 8989.58882,1603.25411 C8997.00925,1603.76567 9001.62487,1610.09138 8998.42641,1616.86962 C8996.05463,1621.88689 8989.93327,1627.72071 8984.81574,1628.4487 C8953.75623,1632.82652 8935.11659,1619.97836 8930.65843,1587.63168 C8926.21996,1555.36371 8939.61412,1522.01358 8915.16805,1489.96203 C8906.11395,1478.08781 8938.27569,1457.95968 8932.68576,1430.98444" id="Fill-84" fill="#ABAAAC"></path>
            <path d="M6787.15018,1549.11769 C6787.16002,1542.59523 6786.39239,1535.96456 6787.30764,1529.57983 C6789.74831,1512.45222 6783.86314,1478.83647 6793.3109,1480.98111 C6819.17414,1486.86411 6840.25445,1476.49507 6863.36209,1474.79313 C6866.3834,1474.5767 6871.33364,1479.8596 6872.79016,1483.59796 C6875.49655,1490.60247 6871.47142,1497.52828 6865.06465,1499.14168 C6814.76519,1511.84228 6812.90516,1550.11131 6813.98771,1591.40054 C6814.32232,1603.99292 6822.00847,1625.9804 6799.42242,1625.35078 C6781.97359,1624.86873 6788.07527,1605.16362 6787.35685,1593.12216 C6786.47112,1578.50319 6787.14034,1563.78585 6787.15018,1549.11769" id="Fill-86" fill="#ABAAAC"></path>
            <path d="M3939.80661,1519.744 C3939.80661,1547.54561 3939.93455,1575.35706 3939.73772,1603.15868 C3939.66883,1612.90794 3940.11169,1624.56573 3927.22928,1626.14961 C3913.4513,1627.84171 3912.16207,1616.54792 3912.12271,1606.56256 C3911.93572,1547.6735 3911.92588,1488.79429 3912.20144,1429.91507 C3912.24081,1422.1137 3912.1916,1411.80369 3923.13525,1411.38066 C3935.78147,1410.89861 3939.00945,1421.33651 3939.17676,1431.43993 C3939.67867,1460.86478 3939.3539,1490.30931 3939.3539,1519.744 L3939.80661,1519.744" id="Fill-88" fill="#ABAAAC"></path>
            <path d="M9681.52488,1477.25652 C9684.23127,1479.63727 9686.35702,1483.05098 9689.07325,1483.61174 C9698.99339,1485.68751 9708.5002,1514.00069 9701.48327,1522.42185 C9682.54839,1545.13732 9690.54946,1572.29948 9688.53197,1597.85807 C9687.70529,1608.25663 9693.08854,1624.83331 9676.32862,1624.53818 C9662.12746,1624.29224 9662.44238,1608.7977 9662.34397,1597.48424 C9662.05857,1566.42631 9661.76332,1535.33887 9662.54079,1504.29078 C9662.84588,1491.95419 9661.78301,1476.66625 9681.52488,1477.25652" id="Fill-90" fill="#ABAAAC"></path>
            <path d="M3037.2131,1520.95503 C3037.2131,1491.5892 3037.06548,1462.22338 3037.30168,1432.86739 C3037.38041,1424.279 3040.44109,1415.23806 3050.08567,1415.4053 C3059.36613,1415.57255 3063.11571,1424.4364 3063.15507,1433.04447 C3063.40111,1491.77612 3063.41095,1550.49793 3063.24365,1609.22958 C3063.21412,1617.82782 3059.93693,1626.53427 3050.16441,1626.40638 C3040.58871,1626.27849 3037.11469,1617.81798 3037.05564,1609.0525 C3036.85881,1579.68668 3036.97691,1550.32085 3036.97691,1520.95503 L3037.2131,1520.95503" id="Fill-92" fill="#ABAAAC"></path>
            <path d="M5191.58628,1522.3638 C5191.65517,1550.11623 5191.91105,1577.86865 5191.49771,1605.61124 C5191.37961,1613.2257 5192.72789,1623.64392 5181.75471,1624.913 C5169.04944,1626.37883 5164.72906,1616.29509 5164.63065,1606.23102 C5164.05985,1549.10294 5164.05985,1491.97485 5164.26652,1434.84676 C5164.29604,1424.75318 5166.98275,1414.38414 5180.18008,1415.56468 C5190.7104,1416.5091 5191.29104,1426.23869 5191.37961,1434.21714 C5191.72406,1463.5928 5191.51739,1492.9783 5191.58628,1522.3638" id="Fill-94" fill="#ABAAAC"></path>
            <path d="M6184.37536,1548.0621 C6184.35568,1535.00734 6183.22392,1521.82469 6184.64108,1508.92734 C6186.36333,1493.40329 6174.96697,1461.56818 6212.90562,1488.11056 C6227.58901,1498.38122 6256.07006,1452.24195 6269.12962,1484.8936 C6278.34119,1507.94356 6235.58024,1498.81408 6223.88864,1518.38146 C6210.98655,1539.95575 6213.84056,1562.11047 6211.92148,1584.54065 C6210.66178,1599.3367 6218.79079,1623.82297 6196.06696,1623.62622 C6176.24635,1623.44914 6186.35349,1600.26145 6184.73949,1587.18702 C6183.15503,1574.32901 6184.39504,1561.11685 6184.37536,1548.0621" id="Fill-96" fill="#ABAAAC"></path>
            <path d="M5053.58111,1548.50578 C5043.3362,1573.76924 5070.00643,1619.70192 5035.73863,1621.89575 C5011.73542,1623.43044 5024.8245,1574.47757 5025.78896,1549.4207 C5026.71405,1525.48534 5005.59438,1482.01211 5039.88186,1480.45774 C5064.90858,1479.32639 5044.3105,1524.98361 5053.58111,1548.50578" id="Fill-98" fill="#ABAAAC"></path>
            <path d="M960.824279,469.965444 C959.466163,460.540834 958.108048,451.126062 956.749933,441.71129 C958.373766,441.53421 960.06649,440.983293 961.621433,441.258751 C977.377537,444.003497 1005.27795,429.040207 1005.40589,454.657831 C1005.51414,478.898163 976.590224,465.587624 960.824279,469.965444" id="Fill-100" fill="#D4D4D6"></path>
        </g>
    </g>
</svg>