<?xml version="1.0" encoding="UTF-8" standalone="no"?>
<svg width="2060px" height="527px" viewBox="0 0 2060 527" version="1.1" xmlns="http://www.w3.org/2000/svg" xmlns:xlink="http://www.w3.org/1999/xlink">
    <!-- Generator: Sketch 3.8.3 (29802) - http://www.bohemiancoding.com/sketch -->
    <title>planteetjardin</title>
    <desc>Created with Sketch.</desc>
    <defs></defs>
    <g id="Page-1" stroke="none" stroke-width="1" fill="none" fill-rule="evenodd">
        <g id="planteetjardin">
            <path d="M193.47083,199.447773 L205.36478,199.447773 L205.36478,216.56137 C210.099566,210.058171 215.54734,205.180844 221.708266,201.929245 C227.869192,198.677645 234.743085,197.051869 242.330151,197.051869 C255.564732,197.051869 266.888116,201.815106 276.300642,211.341723 C285.713167,220.86834 290.419359,232.334336 290.419359,245.740054 C290.419359,259.431 285.755951,271.053869 276.428994,280.609009 C267.102036,290.164148 255.849959,294.941646 242.672423,294.941646 C235.256493,294.941646 228.439645,293.401438 222.221674,290.320975 C216.003702,287.240512 210.384794,282.64841 205.36478,276.544529 L205.36478,326.601802 L193.47083,326.601802 L193.47083,199.447773 Z M241.388903,208.603548 C231.006602,208.603548 222.264493,212.225889 215.162315,219.470682 C208.060136,226.715474 204.5091,235.728546 204.5091,246.510166 C204.5091,253.583821 206.092092,259.944312 209.258124,265.591827 C212.424155,271.239342 216.959213,275.717355 222.863434,279.026001 C228.767654,282.334646 234.999794,283.988944 241.560039,283.988944 C248.006193,283.988944 254.067198,282.320385 259.743236,278.983217 C265.419274,275.646049 269.940071,270.98264 273.305762,264.992851 C276.671453,259.003062 278.354273,252.728139 278.354273,246.167894 C278.354273,239.550603 276.685714,233.27568 273.348546,227.342937 C270.011378,221.410193 265.519103,216.803829 259.871588,213.523707 C254.224073,210.243584 248.063239,208.603548 241.388903,208.603548 L241.388903,208.603548 Z M311.041244,163.509218 L323.020763,163.509218 L323.020763,292.545743 L311.041244,292.545743 L311.041244,163.509218 Z M440.676745,199.447773 L440.676745,292.545743 L428.868363,292.545743 L428.868363,276.544529 C423.848349,282.64841 418.215179,287.240512 411.968685,290.320975 C405.722191,293.401438 398.891081,294.941646 391.475152,294.941646 C378.297616,294.941646 367.045539,290.164148 357.718581,280.609009 C348.391624,271.053869 343.728215,259.431 343.728215,245.740054 C343.728215,232.334336 348.434408,220.86834 357.846933,211.341723 C367.259459,201.815106 378.582843,197.051869 391.817424,197.051869 C399.461536,197.051869 406.378212,198.677645 412.567661,201.929245 C418.75711,205.180844 424.190623,210.058171 428.868363,216.56137 L428.868363,199.447773 L440.676745,199.447773 Z M392.758672,208.603548 C386.084336,208.603548 379.923502,210.243584 374.275987,213.523707 C368.628471,216.803829 364.136197,221.410193 360.799029,227.342937 C357.461861,233.27568 355.793302,239.550603 355.793302,246.167894 C355.793302,252.728139 357.476122,259.003062 360.841813,264.992851 C364.207504,270.98264 368.728301,275.646049 374.404339,278.983217 C380.080377,282.320385 386.169904,283.988944 392.673104,283.988944 C399.233349,283.988944 405.451227,282.334646 411.326925,279.026001 C417.202623,275.717355 421.72342,271.239342 424.889451,265.591827 C428.055483,259.944312 429.638474,253.583821 429.638474,246.510166 C429.638474,235.728546 426.087438,226.715474 418.98526,219.470682 C411.883082,212.225889 403.140973,208.603548 392.758672,208.603548 L392.758672,208.603548 Z M467.630661,199.447773 L479.610179,199.447773 L479.610179,216.13353 C484.40201,209.744422 489.707172,204.966924 495.525824,201.800893 C501.344477,198.634861 507.676444,197.051869 514.521918,197.051869 C521.481482,197.051869 527.656577,198.820257 533.047387,202.357084 C538.438197,205.893912 542.417069,210.657149 544.984121,216.646938 C547.551173,222.636727 548.83468,231.963545 548.83468,244.62767 L548.83468,292.545743 L536.94073,292.545743 L536.94073,248.135958 C536.94073,237.411383 536.484372,230.252266 535.571642,226.658393 C534.145502,220.497467 531.464399,215.862581 527.528252,212.753595 C523.592105,209.644609 518.458077,208.09014 512.126014,208.09014 C504.881221,208.09014 498.392381,210.486019 492.659297,215.277851 C486.926213,220.069682 483.146998,226.002336 481.321539,233.075992 C480.180626,237.696686 479.610179,246.13931 479.610179,258.404116 L479.610179,292.545743 L467.630661,292.545743 L467.630661,199.447773 Z M584.944371,164.878306 L597.009457,164.878306 L597.009457,199.447773 L616.00555,199.447773 L616.00555,209.715931 L597.009457,209.715931 L597.009457,292.545743 L584.944371,292.545743 L584.944371,209.715931 L568.600885,209.715931 L568.600885,199.447773 L584.944371,199.447773 L584.944371,164.878306 Z M712.269536,261.655699 L722.366558,266.960915 C719.057913,273.464114 715.235914,278.712232 710.900448,282.705424 C706.564982,286.698617 701.687655,289.73625 696.268322,291.818415 C690.848989,293.90058 684.716678,294.941646 677.871205,294.941646 C662.697073,294.941646 650.831764,289.964492 642.274922,280.010033 C633.718081,270.055574 629.439724,258.803496 629.439724,246.253462 C629.439724,234.445021 633.062066,223.920263 640.306859,214.678875 C649.491202,202.927479 661.784346,197.051869 677.186661,197.051869 C693.045341,197.051869 705.709276,203.070091 715.178847,215.106715 C721.910229,223.60651 725.332914,234.216835 725.447006,246.938006 L641.761514,246.938006 C641.989697,257.776672 645.440904,266.661392 652.115241,273.592434 C658.789577,280.523475 667.032544,283.988944 676.844389,283.988944 C681.579175,283.988944 686.185539,283.161795 690.663619,281.507472 C695.141699,279.85315 698.949437,277.656927 702.086945,274.918737 C705.224454,272.180548 708.618617,267.75958 712.269536,261.655699 L712.269536,261.655699 Z M712.269536,236.584279 C710.672259,230.195171 708.347685,225.089665 705.295745,221.26761 C702.243805,217.445554 698.207888,214.365137 693.187875,212.026267 C688.167861,209.687397 682.891221,208.51798 677.357797,208.51798 C668.230499,208.51798 660.386846,211.455784 653.826601,217.331482 C649.034769,221.609903 645.412427,228.027438 642.959466,236.584279 L712.269536,236.584279 Z M794.585939,209.630363 L786.88482,217.588186 C780.495712,211.370215 774.249312,208.261276 768.145431,208.261276 C764.26633,208.261276 760.943473,209.544783 758.176761,212.111835 C755.410049,214.678887 754.026713,217.673737 754.026713,221.096474 C754.026713,224.119891 755.167608,227.000651 757.449433,229.73884 C759.731257,232.534075 764.523017,235.814149 771.824855,239.579159 C780.72397,244.199853 786.770714,248.649344 789.965268,252.927765 C793.102776,257.263231 794.671507,262.140558 794.671507,267.559891 C794.671507,275.204002 791.990404,281.678582 786.628116,286.983824 C781.265829,292.289065 774.56307,294.941646 766.519639,294.941646 C761.157352,294.941646 756.037585,293.772229 751.160186,291.433359 C746.282786,289.094489 742.24687,285.87146 739.052316,281.764176 L746.582299,273.207378 C752.686179,280.109897 759.160758,283.561104 766.006232,283.561104 C770.798063,283.561104 774.876763,282.020896 778.242454,278.940433 C781.608145,275.85997 783.290965,272.237628 783.290965,268.073299 C783.290965,264.650562 782.178592,261.598668 779.953813,258.917524 C777.729035,256.293426 772.709096,252.98483 764.893848,248.991637 C756.508143,244.656171 750.803668,240.377814 747.78025,236.156439 C744.756833,231.935064 743.245147,227.114782 743.245147,221.69545 C743.245147,214.621794 745.655288,208.746184 750.475642,204.068444 C755.295996,199.390704 761.385523,197.051869 768.744407,197.051869 C777.301249,197.051869 785.915007,201.244659 794.585939,209.630363 L794.585939,209.630363 Z M808.020113,240.006999 L855.082506,240.006999 L855.082506,250.446293 L808.020113,250.446293 L808.020113,240.006999 Z M952.373307,261.655699 L962.47033,266.960915 C959.161684,273.464114 955.339686,278.712232 951.00422,282.705424 C946.668753,286.698617 941.791427,289.73625 936.372094,291.818415 C930.952761,293.90058 924.82045,294.941646 917.974977,294.941646 C902.800844,294.941646 890.935535,289.964492 882.378694,280.010033 C873.821852,270.055574 869.543496,258.803496 869.543496,246.253462 C869.543496,234.445021 873.165838,223.920263 880.41063,214.678875 C889.594973,202.927479 901.888118,197.051869 917.290433,197.051869 C933.149112,197.051869 945.813048,203.070091 955.282619,215.106715 C962.014001,223.60651 965.436686,234.216835 965.550777,246.938006 L881.865286,246.938006 C882.093468,257.776672 885.544676,266.661392 892.219012,273.592434 C898.893349,280.523475 907.136316,283.988944 916.948161,283.988944 C921.682946,283.988944 926.28931,283.161795 930.767391,281.507472 C935.245471,279.85315 939.053208,277.656927 942.190717,274.918737 C945.328225,272.180548 948.722388,267.75958 952.373307,261.655699 L952.373307,261.655699 Z M952.373307,236.584279 C950.77603,230.195171 948.451457,225.089665 945.399516,221.26761 C942.347576,217.445554 938.31166,214.365137 933.291646,212.026267 C928.271633,209.687397 922.994993,208.51798 917.461569,208.51798 C908.334271,208.51798 900.490617,211.455784 893.930372,217.331482 C889.138541,221.609903 885.516199,228.027438 883.063238,236.584279 L952.373307,236.584279 Z M998.323316,164.878306 L1010.3884,164.878306 L1010.3884,199.447773 L1029.3845,199.447773 L1029.3845,209.715931 L1010.3884,209.715931 L1010.3884,292.545743 L998.323316,292.545743 L998.323316,209.715931 L981.979831,209.715931 L981.979831,199.447773 L998.323316,199.447773 L998.323316,164.878306 Z M1039.48152,240.006999 L1086.54391,240.006999 L1086.54391,250.446293 L1039.48152,250.446293 L1039.48152,240.006999 Z M1109.90397,161.113315 C1112.64216,161.113315 1114.96673,162.083076 1116.87776,164.022626 C1118.78879,165.962177 1119.74429,168.301012 1119.74429,171.039201 C1119.74429,173.720345 1118.78879,176.030657 1116.87776,177.970208 C1114.96673,179.909759 1112.64216,180.87952 1109.90397,180.87952 C1107.16578,180.87952 1104.84121,179.909759 1102.93018,177.970208 C1101.01915,176.030657 1100.06365,173.720345 1100.06365,171.039201 C1100.06365,168.301012 1101.01915,165.962177 1102.93018,164.022626 C1104.84121,162.083076 1107.16578,161.113315 1109.90397,161.113315 L1109.90397,161.113315 Z M1103.99978,199.447773 L1116.15043,199.447773 L1116.15043,306.578893 C1116.15043,314.394141 1114.73858,320.084355 1111.91482,323.649706 C1109.09106,327.215057 1105.22628,328.997705 1100.32036,328.997705 C1096.27012,328.997705 1091.70654,328.027944 1086.62948,326.088394 L1086.62948,315.306827 C1089.82403,316.96115 1092.70479,317.788299 1095.27185,317.788299 C1098.52345,317.788299 1100.94785,316.447747 1102.54512,313.766604 C1103.5149,312.055235 1103.99978,308.489938 1103.99978,303.070605 L1103.99978,199.447773 Z M1233.80642,199.447773 L1233.80642,292.545743 L1221.99803,292.545743 L1221.99803,276.544529 C1216.97802,282.64841 1211.34485,287.240512 1205.09836,290.320975 C1198.85186,293.401438 1192.02075,294.941646 1184.60482,294.941646 C1171.42729,294.941646 1160.17521,290.164148 1150.84825,280.609009 C1141.5213,271.053869 1136.85789,259.431 1136.85789,245.740054 C1136.85789,232.334336 1141.56408,220.86834 1150.97661,211.341723 C1160.38913,201.815106 1171.71251,197.051869 1184.9471,197.051869 C1192.59121,197.051869 1199.50788,198.677645 1205.69733,201.929245 C1211.88678,205.180844 1217.32029,210.058171 1221.99803,216.56137 L1221.99803,199.447773 L1233.80642,199.447773 Z M1185.88834,208.603548 C1179.21401,208.603548 1173.05317,210.243584 1167.40566,213.523707 C1161.75814,216.803829 1157.26587,221.410193 1153.9287,227.342937 C1150.59153,233.27568 1148.92297,239.550603 1148.92297,246.167894 C1148.92297,252.728139 1150.60579,259.003062 1153.97148,264.992851 C1157.33718,270.98264 1161.85797,275.646049 1167.53401,278.983217 C1173.21005,282.320385 1179.29958,283.988944 1185.80278,283.988944 C1192.36302,283.988944 1198.5809,282.334646 1204.4566,279.026001 C1210.3323,275.717355 1214.85309,271.239342 1218.01912,265.591827 C1221.18515,259.944312 1222.76815,253.583821 1222.76815,246.510166 C1222.76815,235.728546 1219.21711,226.715474 1212.11493,219.470682 C1205.01275,212.225889 1196.27065,208.603548 1185.88834,208.603548 L1185.88834,208.603548 Z M1256.22523,199.447773 L1268.46145,199.447773 L1268.46145,213.053083 C1272.11237,207.690796 1275.96289,203.683402 1280.01313,201.030781 C1284.06337,198.37816 1288.28468,197.051869 1292.67719,197.051869 C1295.98584,197.051869 1299.52261,198.107197 1303.28762,200.217885 L1297.04116,210.314907 C1294.53115,209.231041 1292.4205,208.689116 1290.70913,208.689116 C1286.71594,208.689116 1282.86541,210.329152 1279.15745,213.609275 C1275.44949,216.889397 1272.62577,221.980642 1270.68622,228.88316 C1269.20303,234.188402 1268.46145,244.912816 1268.46145,261.056724 L1268.46145,292.545743 L1256.22523,292.545743 L1256.22523,199.447773 Z M1405.2269,163.509218 L1405.2269,292.545743 L1393.41852,292.545743 L1393.41852,276.544529 C1388.39851,282.64841 1382.76534,287.240512 1376.51884,290.320975 C1370.27235,293.401438 1363.44124,294.941646 1356.02531,294.941646 C1342.84778,294.941646 1331.5957,290.164148 1322.26874,280.609009 C1312.94178,271.053869 1308.27837,259.431 1308.27837,245.740054 C1308.27837,232.334336 1312.98457,220.86834 1322.39709,211.341723 C1331.80962,201.815106 1343.133,197.051869 1356.36758,197.051869 C1364.01169,197.051869 1370.92837,198.677645 1377.11782,201.929245 C1383.30727,205.180844 1388.74078,210.058171 1393.41852,216.56137 L1393.41852,163.509218 L1405.2269,163.509218 Z M1357.30883,208.603548 C1350.63449,208.603548 1344.47366,210.243584 1338.82615,213.523707 C1333.17863,216.803829 1328.68636,221.410193 1325.34919,227.342937 C1322.01202,233.27568 1320.34346,239.550603 1320.34346,246.167894 C1320.34346,252.728139 1322.02628,259.003062 1325.39197,264.992851 C1328.75766,270.98264 1333.27846,275.646049 1338.9545,278.983217 C1344.63054,282.320385 1350.72006,283.988944 1357.22326,283.988944 C1363.78351,283.988944 1370.00139,282.334646 1375.87708,279.026001 C1381.75278,275.717355 1386.27358,271.239342 1389.43961,265.591827 C1392.60564,259.944312 1394.18863,253.583821 1394.18863,246.510166 C1394.18863,235.728546 1390.6376,226.715474 1383.53542,219.470682 C1376.43324,212.225889 1367.69113,208.603548 1357.30883,208.603548 L1357.30883,208.603548 Z M1436.54479,161.113315 C1439.28298,161.113315 1441.62181,162.083076 1443.56136,164.022626 C1445.50091,165.962177 1446.47067,168.301012 1446.47067,171.039201 C1446.47067,173.720345 1445.50091,176.030657 1443.56136,177.970208 C1441.62181,179.909759 1439.28298,180.87952 1436.54479,180.87952 C1433.86364,180.87952 1431.55333,179.909759 1429.61378,177.970208 C1427.67423,176.030657 1426.70447,173.720345 1426.70447,171.039201 C1426.70447,168.301012 1427.67423,165.962177 1429.61378,164.022626 C1431.55333,162.083076 1433.86364,161.113315 1436.54479,161.113315 L1436.54479,161.113315 Z M1430.55503,199.447773 L1442.62011,199.447773 L1442.62011,292.545743 L1430.55503,292.545743 L1430.55503,199.447773 Z M1467.43483,199.447773 L1479.41435,199.447773 L1479.41435,216.13353 C1484.20618,209.744422 1489.51134,204.966924 1495.32999,201.800893 C1501.14865,198.634861 1507.48061,197.051869 1514.32609,197.051869 C1521.28565,197.051869 1527.46075,198.820257 1532.85156,202.357084 C1538.24237,205.893912 1542.22124,210.657149 1544.78829,216.646938 C1547.35534,222.636727 1548.63885,231.963545 1548.63885,244.62767 L1548.63885,292.545743 L1536.7449,292.545743 L1536.7449,248.135958 C1536.7449,237.411383 1536.28854,230.252266 1535.37581,226.658393 C1533.94967,220.497467 1531.26857,215.862581 1527.33242,212.753595 C1523.39627,209.644609 1518.26225,208.09014 1511.93018,208.09014 C1504.68539,208.09014 1498.19655,210.486019 1492.46347,215.277851 C1486.73038,220.069682 1482.95117,226.002336 1481.12571,233.075992 C1479.9848,237.696686 1479.41435,246.13931 1479.41435,258.404116 L1479.41435,292.545743 L1467.43483,292.545743 L1467.43483,199.447773 Z M1621.11493,209.630363 L1613.41382,217.588186 C1607.02471,211.370215 1600.77831,208.261276 1594.67443,208.261276 C1590.79533,208.261276 1587.47247,209.544783 1584.70576,212.111835 C1581.93904,214.678887 1580.55571,217.673737 1580.55571,221.096474 C1580.55571,224.119891 1581.6966,227.000651 1583.97843,229.73884 C1586.26025,232.534075 1591.05201,235.814149 1598.35385,239.579159 C1607.25297,244.199853 1613.29971,248.649344 1616.49426,252.927765 C1619.63177,257.263231 1621.2005,262.140558 1621.2005,267.559891 C1621.2005,275.204002 1618.5194,281.678582 1613.15711,286.983824 C1607.79482,292.289065 1601.09207,294.941646 1593.04864,294.941646 C1587.68635,294.941646 1582.56658,293.772229 1577.68918,291.433359 C1572.81178,289.094489 1568.77587,285.87146 1565.58131,281.764176 L1573.11129,273.207378 C1579.21517,280.109897 1585.68975,283.561104 1592.53523,283.561104 C1597.32706,283.561104 1601.40576,282.020896 1604.77145,278.940433 C1608.13714,275.85997 1609.81996,272.237628 1609.81996,268.073299 C1609.81996,264.650562 1608.70759,261.598668 1606.48281,258.917524 C1604.25803,256.293426 1599.23809,252.98483 1591.42284,248.991637 C1583.03714,244.656171 1577.33266,240.377814 1574.30925,236.156439 C1571.28583,231.935064 1569.77414,227.114782 1569.77414,221.69545 C1569.77414,214.621794 1572.18428,208.746184 1577.00464,204.068444 C1581.82499,199.390704 1587.91452,197.051869 1595.2734,197.051869 C1603.83024,197.051869 1612.444,201.244659 1621.11493,209.630363 L1621.11493,209.630363 Z" id="plantes-et-jardins" fill="#448C1A"></path>
            <g id="Group-6" transform="translate(0.000000, 0.348208)">
                <path d="M1656.94054,273.372577 C1659.84987,273.372577 1662.33132,274.399383 1664.38496,276.453025 C1666.4386,278.506667 1667.46541,281.016636 1667.46541,283.983008 C1667.46541,286.892334 1666.4386,289.388042 1664.38496,291.470207 C1662.33132,293.552371 1659.84987,294.593438 1656.94054,294.593438 C1654.03122,294.593438 1651.54977,293.552371 1649.49613,291.470207 C1647.44249,289.388042 1646.41568,286.892334 1646.41568,283.983008 C1646.41568,281.016636 1647.44249,278.506667 1649.49613,276.453025 C1651.54977,274.399383 1654.03122,273.372577 1656.94054,273.372577 L1656.94054,273.372577 Z M1782.63992,218.43793 L1773.14187,224.342121 C1764.9273,213.446409 1753.71801,207.998635 1739.51365,207.998635 C1728.16158,207.998635 1718.73493,211.649499 1711.23343,218.951338 C1703.73193,226.253176 1699.98124,235.123635 1699.98124,245.562982 C1699.98124,252.351409 1701.70685,258.740422 1705.1581,264.730211 C1708.60936,270.72 1713.34408,275.369147 1719.36239,278.677793 C1725.3807,281.986438 1732.12624,283.640736 1739.59922,283.640736 C1753.29017,283.640736 1764.47094,278.192962 1773.14187,267.29725 L1782.63992,273.543713 C1778.19036,280.21805 1772.21492,285.394861 1764.71342,289.074303 C1757.21193,292.753745 1748.66947,294.593438 1739.08581,294.593438 C1724.36804,294.593438 1712.16047,289.915768 1702.46271,280.560288 C1692.76496,271.204808 1687.91616,259.82438 1687.91616,246.418661 C1687.91616,237.405455 1690.18368,229.034137 1694.71881,221.304457 C1699.25394,213.574777 1705.48608,207.542294 1713.41542,203.206828 C1721.34476,198.871362 1730.21521,196.703661 1740.02706,196.703661 C1746.18799,196.703661 1752.1349,197.644899 1757.86798,199.527405 C1763.60107,201.40991 1768.46413,203.862834 1772.45733,206.886251 C1776.45052,209.909669 1779.84468,213.76019 1782.63992,218.43793 L1782.63992,218.43793 Z M1849.72522,196.703661 C1864.04367,196.703661 1875.90898,201.894734 1885.3215,212.277035 C1893.87834,221.746606 1898.1567,232.9559 1898.1567,245.905253 C1898.1567,258.911653 1893.6359,270.27782 1884.59417,280.004096 C1875.55244,289.730373 1863.92958,294.593438 1849.72522,294.593438 C1835.46382,294.593438 1823.81243,289.730373 1814.7707,280.004096 C1805.72897,270.27782 1801.20817,258.911653 1801.20817,245.905253 C1801.20817,233.012946 1805.48653,221.832174 1814.04337,212.362603 C1823.45589,201.923256 1835.34973,196.703661 1849.72522,196.703661 L1849.72522,196.703661 Z M1849.72522,208.426475 C1839.79928,208.426475 1831.27109,212.105862 1824.14039,219.464745 C1817.00969,226.823629 1813.44439,235.722611 1813.44439,246.161957 C1813.44439,252.893339 1815.07017,259.168262 1818.32177,264.986915 C1821.57337,270.805567 1825.96581,275.297841 1831.49924,278.463873 C1837.03266,281.629904 1843.10793,283.212896 1849.72522,283.212896 C1856.34251,283.212896 1862.41778,281.629904 1867.9512,278.463873 C1873.48462,275.297841 1877.87707,270.805567 1881.12867,264.986915 C1884.38027,259.168262 1886.00605,252.893339 1886.00605,246.161957 C1886.00605,235.722611 1882.42649,226.823629 1875.26726,219.464745 C1868.10804,212.105862 1859.59411,208.426475 1849.72522,208.426475 L1849.72522,208.426475 Z M1920.31881,199.099565 L1932.21276,199.099565 L1932.21276,215.186346 C1936.37709,209.253603 1940.65544,204.918201 1945.04796,202.180012 C1951.09479,198.529093 1957.45528,196.703661 1964.12962,196.703661 C1968.63622,196.703661 1972.91458,197.587855 1976.96482,199.356269 C1981.01505,201.124682 1984.32365,203.477779 1986.8907,206.415627 C1989.45775,209.353476 1991.6825,213.560527 1993.565,219.036906 C1997.5582,211.735067 2002.54961,206.187465 2008.5394,202.393932 C2014.52919,198.600399 2020.97525,196.703661 2027.87777,196.703661 C2034.32392,196.703661 2040.01414,198.329436 2044.94858,201.581036 C2049.88303,204.832636 2053.54815,209.367694 2055.94407,215.186346 C2058.33998,221.004998 2059.53792,229.732846 2059.53792,241.37015 L2059.53792,292.197534 L2047.3017,292.197534 L2047.3017,241.37015 C2047.3017,231.387168 2046.58864,224.527537 2045.1625,220.791049 C2043.73636,217.054562 2041.2977,214.045451 2037.84644,211.763627 C2034.39518,209.481802 2030.2737,208.340907 2025.48186,208.340907 C2019.66321,208.340907 2014.34379,210.05225 2009.52343,213.474986 C2004.70308,216.897723 2001.18057,221.461303 1998.95579,227.165864 C1996.73101,232.870425 1995.61864,242.396899 1995.61864,255.745572 L1995.61864,292.197534 L1983.72469,292.197534 L1983.72469,244.536166 C1983.72469,233.298181 1983.02589,225.668445 1981.62827,221.646729 C1980.23065,217.625014 1977.79199,214.401985 1974.31221,211.977547 C1970.83243,209.553108 1966.69668,208.340907 1961.90485,208.340907 C1956.37143,208.340907 1951.19461,210.009466 1946.37426,213.346634 C1941.55391,216.683803 1937.98861,221.176077 1935.67826,226.823592 C1933.36791,232.471108 1932.21276,241.113388 1932.21276,252.750692 L1932.21276,292.197534 L1920.31881,292.197534 L1920.31881,199.099565 Z" id=".com" fill="#8CBA0E"></path>
                <path d="M0.984626199,477.436 C-21.2982336,236.4125 342.140062,71.1134583 345.812814,69.472625 L348.858512,76.2820833 C345.238014,77.908 -13.3779273,241.029208 8.41971107,476.749833 L0.984626199,477.436 Z" id="Fill-2" fill="#D3BF6C"></path>
                <path d="M42.2239664,501.915742 C-23.2510631,268.8652 304.355498,40.7371583 307.669933,38.4623667 L311.895092,44.6080333 C308.625446,46.8529917 -14.6215871,271.982783 49.4127081,499.901992 L42.2239664,501.915742 Z" id="Fill-3" fill="#8CBA0E"></path>
                <path d="M83.623803,517.561087 C-19.8104701,298.673921 265.156327,19.1803375 268.045261,16.3834625 L273.240862,21.7385458 C270.389253,24.5055875 -10.7778871,300.307296 90.3721129,514.368921 L83.623803,517.561087 Z" id="Fill-4" fill="#60A037"></path>
                <path d="M131.391237,526.541667 C-10.3680616,330.238333 218.62658,3.39179167 220.955643,0.110125 L227.039573,4.4285 C224.74037,7.66541667 -1.19364465,330.201042 137.445307,522.171083 L131.391237,526.541667 Z" id="Fill-5" fill="#448C1A"></path>
            </g>
        </g>
    </g>
</svg>