<?xml version="1.0" encoding="UTF-8" standalone="no"?>
<svg width="434px" height="75px" viewBox="0 0 434 75" version="1.1" xmlns="http://www.w3.org/2000/svg" xmlns:xlink="http://www.w3.org/1999/xlink">
    <!-- Generator: Sketch 3.8.2 (29753) - http://www.bohemiancoding.com/sketch -->
    <title>qosmos-logo_no-tag-CMYK</title>
    <desc>Created with Sketch.</desc>
    <defs></defs>
    <g id="Page-1" stroke="none" stroke-width="1" fill="none" fill-rule="evenodd">
        <g id="qosmos-logo_no-tag-CMYK">
            <g id="Calque_1">
                <path d="M147.9,74.1 L146.5,73.7 C136.9,71.4 128.8,69 120.9,66.3 L120.4,66.1 C119.4,65.8 118.5,65.5 117.8,65.5 C103.9,65 89.9,54.9 89.9,33.7 C89.9,14.2 102,0.6 119.3,0.6 C136.1,0.6 147.8,13.7 147.8,32.4 C147.8,46 142.5,56.2 133,61.1 C133.6,61.1 134.1,61 134.4,61 C134.7,61 134.9,61 135,61.1 L136,61.3 C140.2,62.3 144.6,63.1 149.4,64 L151.3,64.3 L147.9,74.1 L147.9,74.1 Z M119,10.1 C106.7,10.1 101.2,21.8 101.2,33.4 C101.2,44.6 107.2,55.9 118.6,55.9 C127.4,55.9 136.2,48.7 136.2,32.7 C136.3,21.8 130.9,10.1 119,10.1 L119,10.1 Z" id="Shape" fill="#4C626C"></path>
                <path d="M183.1,65.5 C166.2,65.5 154.5,52.4 154.5,33.6 C154.5,14.2 166.5,0.6 183.8,0.6 C200.9,0.6 212.4,13.4 212.4,32.4 C212.4,55.2 197.7,65.5 183.1,65.5 L183.1,65.5 Z M183.4,10.1 C171.2,10.1 165.8,21.8 165.8,33.4 C165.8,44.6 171.8,56 183.2,56 C192,56 200.8,48.8 200.8,32.8 C200.9,21.8 195.4,10.1 183.4,10.1 L183.4,10.1 Z M233.5,65.5 C227.7,65.5 221,63.8 217.4,61.3 L216.4,60.6 L219.4,50.9 L221.2,52.1 C224.8,54.4 229.5,55.7 234.1,55.7 C240.9,55.7 245,52.5 245,47.1 C245,43.1 243.3,40 234.8,36.8 C223.5,32.7 218,26.6 218,18.3 C218,7.8 226.6,0.5 239,0.5 C246.7,0.5 251.3,2.7 252.9,3.7 L254,4.4 L250.8,13.9 L249.1,12.8 C248.1,12.2 244.4,10.2 238.7,10.2 C231.6,10.2 229.1,14.1 229.1,17.5 C229.1,21.9 231.7,24.3 239.9,27.5 C251.4,32 256.1,37.6 256.1,46.6 C256,55.3 250.1,65.5 233.5,65.5 L233.5,65.5 Z M327,64.5 L316.1,64.5 L314.6,36.7 C314.3,31.6 314,25.8 313.8,20.3 C312.4,24.7 310.8,29.3 309.1,34.1 L298.2,64.1 L290,64.1 L279.9,34.6 C278.3,29.7 276.9,25.3 275.7,21.3 C275.5,26.4 275.2,31.9 274.9,37.3 L273.2,64.4 L262.6,64.4 L267,1.4 L279.5,1.4 L290.1,31.4 C291.9,36.7 293.4,41.6 294.7,46.2 C296,41.9 297.6,37.2 299.6,31.4 L310.6,1.4 L323,1.4 L327,64.5 L327,64.5 Z M360.9,65.5 C344,65.5 332.3,52.4 332.3,33.6 C332.3,14.2 344.3,0.6 361.6,0.6 C378.7,0.6 390.2,13.4 390.2,32.4 C390.1,52.2 378.4,65.5 360.9,65.5 L360.9,65.5 Z M361.2,10.1 C349.1,10.1 343.6,21.8 343.6,33.4 C343.6,44.6 349.6,56 361,56 L361.1,56 C369.8,56 378.6,48.8 378.6,32.8 C378.6,21.8 373.2,10.1 361.2,10.1 L361.2,10.1 Z M410.9,65.5 C405.1,65.5 398.5,63.8 394.8,61.3 L393.8,60.6 L396.8,50.9 L398.6,52.1 C402.2,54.4 406.9,55.7 411.5,55.7 C418.3,55.7 422.4,52.5 422.4,47.1 C422.4,43.1 420.7,40 412.2,36.8 C400.9,32.7 395.4,26.6 395.4,18.3 C395.4,7.8 404,0.5 416.3,0.5 C424,0.5 428.6,2.7 430.2,3.7 L431.3,4.4 L428.1,13.9 L426.4,12.8 C425.4,12.2 421.7,10.2 416,10.2 C408.9,10.2 406.4,14.1 406.4,17.5 C406.4,21.9 409,24.3 417.2,27.5 C428.7,32 433.4,37.6 433.4,46.6 C433.4,55.3 427.5,65.5 410.9,65.5 L410.9,65.5 Z" id="Shape" fill="#7294AA"></path>
                <g id="Group">
                    <polygon id="Shape" fill="#4C626C" points="0.2 0.8 32.1 0.8 32.1 32.7 0.2 32.7"></polygon>
                    <polygon id="Shape" fill="#7294AA" points="39.7 19.8 39.7 39.7 39.8 40.4 39 40.3 19.1 40.3 19.1 63.4 63 63.4 63 19.8"></polygon>
                </g>
            </g>
        </g>
    </g>
</svg>