<?xml version="1.0" encoding="UTF-8" standalone="no"?>
<svg width="678px" height="157px" viewBox="0 0 678 157" version="1.1" xmlns="http://www.w3.org/2000/svg" xmlns:xlink="http://www.w3.org/1999/xlink">
    <!-- Generator: Sketch 3.8.2 (29753) - http://www.bohemiancoding.com/sketch -->
    <title>quelleenergie</title>
    <desc>Created with Sketch.</desc>
    <defs></defs>
    <g id="Page-1" stroke="none" stroke-width="1" fill="none" fill-rule="evenodd">
        <g id="quelleenergie" transform="translate(-1.000000, 0.000000)">
            <g id="Group-3" transform="translate(0.000000, 21.345331)" fill="#4569A1">
                <path d="M28.8233076,65.1429931 C28.5826017,62.0118897 28.3705513,58.8750621 28.1298454,55.7439586 C28.0897277,55.2173379 27.9579126,54.6964414 27.8203664,53.9179586 C27.0925176,54.3415448 26.5079462,54.6449241 25.9634924,55.0055448 C24.3645176,56.0587862 22.7827361,57.1406483 21.1894924,58.2110621 C19.1893412,59.5562345 17.2006521,59.3845103 16.1060134,57.7817517 C14.9483328,56.0874069 15.4641311,54.181269 17.5387866,52.7788552 C25.5164672,47.3867172 33.5056101,42.0117517 41.4947529,36.6253379 C53.4326185,28.5714759 65.3647529,20.5176138 77.3083496,12.4752 C78.5519966,11.6337517 79.7383328,10.4889241 81.4175429,10.8037517 C82.540837,11.0155448 83.7730218,11.2387862 84.6899966,11.851269 C97.1952403,20.1970621 109.654635,28.617269 122.125492,37.0203034 C129.828081,42.2120966 137.553593,47.3695448 145.210333,52.6243034 C146.144501,53.2654069 146.986971,54.3358207 147.388148,55.3890621 C147.852366,56.6083034 147.227677,57.7989241 146.092921,58.5602345 C144.855005,59.3902345 143.576971,59.3444414 142.356249,58.5487862 C140.419139,57.2837517 138.516417,55.9729241 136.596501,54.6907172 C136.206787,54.433131 135.782686,54.2213379 135.12361,53.849269 C134.917291,56.2018897 134.722434,58.2854759 134.561963,60.3690621 C133.828383,69.9627172 133.123459,79.5620966 132.384148,89.1557517 C131.553139,100.020166 130.693476,110.884579 129.856736,121.748993 C129.587375,125.172028 129.335207,128.600786 129.134618,132.029545 C129.071576,133.140028 128.704787,133.534993 127.524182,133.512097 C110.46845,133.162924 93.4127193,132.865269 76.3569882,132.556166 C75.8354588,132.544717 75.3081983,132.556166 74.7866689,132.556166 C74.7350891,132.430234 74.6892403,132.298579 74.6376605,132.172648 C93.1720134,116.362579 104.404955,96.8318207 105.253156,72.0920966 C105.768955,57.0147172 102.519425,42.7100966 96.2668034,29.0637517 C96.1235261,29.0809241 95.9859798,29.1038207 95.8427025,29.1267172 C95.8942824,29.5216828 95.9057445,29.9223724 96.0031731,30.3058897 C97.8371227,37.7816138 98.8801815,45.3489241 98.4675429,53.0650621 C98.2440303,57.1635448 97.4359462,61.1418207 95.6707697,64.8854069 C92.1862655,72.275269 86.0425345,75.9043724 78.2310555,77.0949931 C70.7519798,78.2340966 63.4391059,77.1236138 56.2007361,75.2460966 C55.1691395,74.9770621 54.149005,74.6908552 53.1174084,74.4103724 C53.0715597,74.5248552 53.0199798,74.6450621 52.9741311,74.7595448 C53.6446689,75.0686483 54.3094756,75.3777517 54.9800134,75.6925793 C61.0320471,78.5317517 66.5797445,82.0749931 71.2849714,86.9004414 C79.9675765,95.7957517 82.5580303,108.411752 77.6866017,119.865752 C76.0818958,123.643683 73.9212739,127.186924 72.0185513,130.838924 C71.3709378,132.09251 70.4253076,132.584786 68.9466857,132.613407 C58.0805345,132.790855 47.2201143,133.065614 36.3596941,133.317476 C33.9640975,133.374717 34.0214084,133.386166 33.8494756,131.073614 C33.0184672,119.963062 32.1588034,108.85251 31.3106017,97.7419586 C30.4795933,86.8775448 29.6485849,76.0074069 28.8233076,65.1429931 M28.6399126,133.626579 C23.9690723,133.798303 19.3096941,134.027269 14.6445849,134.284855 C10.0940975,134.542441 5.54934118,134.862993 0.998853782,135.160648 C1.00458487,135.229338 1.00458487,135.303752 1.01031597,135.378166 L160.546736,135.378166 C160.323224,135.183545 160.09398,135.1492 159.859005,135.137752 C151.319677,134.662648 142.78035,134.187545 134.241022,133.741062 C133.192232,133.689545 132.619123,133.534993 132.779593,132.235614 C133.622064,125.166303 134.384299,118.091269 135.180921,111.021959 C136.619425,98.2914759 138.052198,85.5609931 139.496434,72.8362345 C139.777257,70.3233379 140.086736,67.8161655 140.396215,65.2174069 C141.118333,65.3834069 141.588282,65.4864414 142.063963,65.5952 C146.855156,66.6656138 151.606232,64.2042345 153.480299,59.6764414 C155.211089,55.5035448 153.950249,50.7009931 150.236501,47.9476828 C144.081308,43.3855448 137.863072,38.9035448 131.656299,34.4043724 C128.595896,32.189131 125.501106,30.0139586 122.423509,27.8216138 L122.423509,27.8273379 C119.833055,25.8983034 117.254064,23.9463724 114.646417,22.0402345 C105.803341,15.5948552 96.9717277,9.13802759 88.0885345,2.74416552 C84.1054252,-0.117903448 78.5061479,0.0652689655 74.5746185,2.9674069 C70.4654252,5.99547586 66.3275765,8.97202759 62.206921,11.9886483 C57.1406353,15.6921655 52.0800807,19.4128552 47.0195261,23.1278207 C46.9507529,23.1449931 46.893442,23.1793379 46.8418622,23.2308552 C45.7586857,23.9921655 44.6697782,24.7477517 43.5980639,25.5262345 C33.3852571,32.9504414 23.1495261,40.3517517 12.9653748,47.8160276 C9.45221513,50.3918897 8.08821513,53.9809241 9.0911563,58.1938897 C10.0883664,62.4183034 12.9596437,64.9827172 17.2465008,65.6867862 C18.9371731,65.967269 20.7138118,65.7325793 22.6566521,65.7325793 C22.6910387,65.9272 22.8285849,66.4938897 22.897358,67.0663034 C23.2354924,70.0886483 23.5449714,73.1109931 23.888837,76.1390621 C25.9806857,94.6680966 28.0668034,113.202855 30.2045008,131.73189 C30.3649714,133.099959 30.0096437,133.575062 28.6399126,133.626579" id="Fill-1"></path>
            </g>
            <path d="M79.1824168,91.0556138 C85.0395933,91.2788552 89.5614252,87.1517517 90.3867025,80.815131 C91.2750218,74.0320276 85.9221815,67.7068552 79.3027697,67.6095448 C78.2539798,67.8213379 77.1593412,67.9243724 76.1564,68.2678207 C70.5513916,70.1682345 67.5253748,76.4418897 69.2160471,82.5609931 C70.5571227,87.4036138 74.6376605,90.8838897 79.1824168,91.0556138" id="Fill-4" fill="#4569A1"></path>
            <path d="M200.998506,102.42089 C203.359716,97.6927517 207.600724,95.4317172 212.959296,95.5175793 C218.208976,95.6034414 222.16343,98.0419241 224.633531,102.558269 C227.923178,108.568614 228.083649,114.905234 225.430153,121.155993 C223.109061,126.616821 218.833666,129.702131 212.775901,129.730752 C206.712405,129.765097 202.402624,126.7542 200.115918,121.236131 C199.015548,118.580131 198.631565,115.626476 197.806287,112.357993 C198.81496,109.118131 199.439649,105.540545 200.998506,102.42089 M203.176321,135.643786 C203.06743,136.073097 202.998657,136.336407 202.935615,136.599717 C202.614674,137.939166 200.797918,139.324407 203.153397,140.549372 C205.142086,141.585441 206.786909,142.398269 208.397346,139.696476 C209.709766,137.498407 211.497867,137.527028 213.50375,139.290062 C214.667161,140.308959 215.612792,141.579717 216.667313,142.724545 C218.524187,144.756614 220.203397,147.000476 222.283783,148.76351 C227.905985,153.531717 233.682926,152.123579 236.783447,145.41489 C237.345094,144.189924 238.2678,142.804683 236.244724,142.009028 C234.611363,141.373648 232.897766,139.553372 231.464993,142.461234 C230.479245,144.458959 228.708338,145.517924 226.782691,143.789234 C224.301128,141.562545 222.123313,138.992407 219.498472,136.233372 C226.335666,133.62889 231.201363,129.793717 233.866321,123.594476 C236.508355,117.452476 236.835027,111.104407 235.22459,104.693372 C232.874842,95.3229586 224.513178,88.7630966 214.667161,88.368131 C203.090355,87.9044759 194.384825,93.6343379 190.774237,104.092338 C186.556153,116.319097 190.47622,126.382131 203.176321,135.643786" id="Fill-6" fill="#4569A1"></path>
            <path d="M402.124318,136.20189 C406.1762,136.127476 410.228082,136.178993 414.279965,136.184717 C418.331847,136.184717 422.383729,136.075959 426.429881,136.219062 C429.559057,136.333545 429.41578,134.398786 429.421511,132.257959 C429.432973,130.08851 429.26104,128.537269 426.361108,128.651752 C421.306284,128.852097 416.228536,128.577338 411.173713,128.76051 C408.451444,128.857821 407.586049,127.850372 407.780906,125.251614 C407.964301,122.876097 407.90699,120.471959 407.80383,118.084993 C407.712133,116.024303 408.58899,115.348855 410.58341,115.400372 C414.818687,115.503407 419.059696,115.303062 423.289242,115.491959 C426.05736,115.61789 426.693511,114.450166 426.68778,111.920097 C426.68778,109.361407 426.229292,107.867407 423.2262,108.130717 C420.939494,108.331062 418.624133,108.165062 416.320234,108.165062 C407.477158,108.170786 407.528738,108.170786 407.792368,99.321269 C407.849679,97.3178207 408.508755,96.5221655 410.53183,96.5565103 C415.133897,96.6309241 419.741696,96.4878207 424.343763,96.585131 C427.404166,96.6538207 427.071763,94.6217517 427.129074,92.6640966 C427.186385,90.6434759 427.060301,89.0063724 424.320839,89.0349931 C416.858956,89.115131 409.402805,89.0922345 401.940923,89.0407172 C399.912116,89.0235448 399.189998,89.8993379 399.195729,91.8741655 C399.230116,105.669338 399.235847,119.46451 399.184267,133.259683 C399.172805,135.389062 400.009545,136.241959 402.124318,136.20189" id="Fill-8" fill="#AEC83A"></path>
            <path d="M548.235081,120.41071 C545.180408,120.450779 542.756156,117.663124 542.716039,114.068366 C542.67019,110.175952 544.899585,107.233745 547.959988,107.159331 C551.140745,107.084917 553.616576,110.067193 553.628039,113.988228 C553.639501,117.668848 551.369988,120.370641 548.235081,120.41071 M559.020997,99.4889862 C558.465081,99.191331 557.869047,98.9680897 557.089618,98.6189172 C556.195568,99.7637448 555.610997,100.897124 554.688291,101.572572 C553.937518,102.116366 552.670946,102.517055 551.834207,102.282366 C546.613182,100.82271 541.83345,101.446641 538.171282,105.562297 C534.560694,109.626434 534.726896,114.388917 536.572308,119.305952 C537.019333,120.496572 536.967753,122.133676 536.543652,123.358641 C534.428879,129.414779 536.778627,134.457745 542.870778,136.426848 C545.581585,137.302641 548.372627,137.97809 550.991736,139.059952 C551.868593,139.420572 552.928845,140.851607 552.825686,141.65871 C552.716795,142.523055 551.455955,143.644986 550.4874,143.914021 C548.934274,144.349055 547.174829,143.999883 545.575854,144.331883 C544.721921,144.509331 543.822139,145.28209 543.317803,146.037676 C542.847854,146.753193 542.922358,147.812159 542.658728,148.687952 C542.142929,150.388021 542.589955,151.412641 544.498408,151.395469 C546.785114,151.372572 549.111938,151.515676 551.358526,151.160779 C556.808795,150.284986 560.052593,147.010779 560.488156,142.316986 C560.940913,137.440021 558.562509,134.028434 553.117971,132.042159 C550.533249,131.097676 547.782324,130.565331 545.24345,129.523538 C544.40098,129.18009 543.971148,127.817745 543.357921,126.924779 C544.257703,126.632848 545.214795,125.980297 546.051534,126.111952 C550.831266,126.861814 554.860224,125.539538 557.897703,121.830297 C560.883602,118.184021 561.365013,113.902366 559.662879,109.614986 C558.88345,107.645883 558.871988,106.392297 560.264644,104.720848 C562.453921,102.087745 562.098593,101.15471 559.020997,99.4889862" id="Fill-10" fill="#AEC83A"></path>
            <path d="M459.04037,130.706717 C459.630672,137.22651 460.817008,137.901959 467.167059,136.476648 C468.829076,136.098855 469.16721,135.543614 468.80042,133.843545 C468.158538,130.826924 467.763092,127.730166 467.53958,124.650579 C467.22437,120.26589 467.70005,115.755269 466.874773,111.479338 C464.983513,101.67389 454.21479,97.9989931 446.334538,104.169614 C445.629613,104.724855 444.924689,105.280097 444.150992,105.892579 C443.950403,105.503338 443.784202,105.285821 443.726891,105.045407 C442.98758,101.948648 442.454588,101.759752 438.253697,102.028786 C435.445462,102.211959 435.972723,104.129545 435.972723,105.795269 C435.978454,114.066648 436.018571,122.338028 436.041496,130.609407 C436.058689,136.53389 436.098807,136.516717 442.064874,136.20189 C443.979059,136.098855 444.683983,135.263131 444.66679,133.471476 C444.638134,130.346097 444.655328,127.220717 444.66679,124.095338 C444.683983,121.250441 444.523513,118.388372 444.787143,115.560648 C445.182588,111.336234 448.328958,108.628717 452.334992,108.703131 C456.117513,108.777545 458.301059,111.078648 458.742353,115.554924 C458.868437,116.831407 458.839782,118.125062 458.856975,119.412993 C458.908555,123.179476 458.702235,126.968855 459.04037,130.706717" id="Fill-12" fill="#AEC83A"></path>
            <path d="M253.596753,136.746828 C258.680232,137.513862 263.030131,135.962621 266.789728,131.709586 C267.127862,132.917379 267.437341,133.604276 267.494652,134.308345 C267.678047,136.638069 268.967543,137.262 271.070854,136.804069 C271.878938,136.626621 272.698484,136.454897 273.51803,136.386207 C275.111274,136.254552 275.334787,135.384483 275.294669,133.942 C275.031039,125.040966 274.836182,116.139931 274.698635,107.233172 C274.6184,102.035655 274.675711,102.190207 269.414568,101.97269 C266.612064,101.858207 265.935795,102.951517 265.993106,105.481586 C266.113459,110.810759 266.101997,116.139931 265.96445,121.469103 C265.930064,122.963103 265.586198,124.617379 264.85835,125.90531 C263.253644,128.761655 260.015576,130.043862 257.092719,129.374138 C254.129745,128.69869 252.318719,126.517793 252.123862,122.579586 C251.877425,117.719793 252.014971,112.848552 251.957661,107.97731 C251.883156,101.497586 252.863173,102.024207 245.447139,102.098621 C244.747946,102.104345 243.464182,103.317862 243.464182,103.970414 C243.45845,111.400345 243.343829,118.858897 243.888282,126.260207 C244.312383,132.116 248.226719,135.939724 253.596753,136.746828" id="Fill-14" fill="#4569A1"></path>
            <path d="M297.261946,107.623559 C301.537341,107.177076 304.649324,109.094662 305.400097,112.855421 C305.526182,113.4908 304.735291,114.939007 304.334114,114.956179 C299.8524,115.105007 295.370686,115.05349 290.682652,115.05349 C290.888971,110.76611 293.525274,108.0128 297.261946,107.623559 M303.858434,136.656386 C304.500316,136.5648 305.388635,135.837834 305.57203,135.225352 C306.500467,132.157214 304.775408,129.919076 301.657694,129.890455 C300.740719,129.884731 299.812282,129.884731 298.901039,129.764524 C294.528215,129.174938 291.284417,126.289972 290.350249,121.807972 C291.674131,121.72211 292.745845,121.601903 293.823291,121.596179 C299.617425,121.567559 305.417291,121.567559 311.211425,121.550386 C312.575425,121.550386 313.836266,121.435903 313.916501,119.604179 C314.180131,113.662524 313.119879,108.138731 308.162484,104.246317 C303.291055,100.416869 297.749089,100.285214 292.212854,102.511903 C283.770955,105.917766 279.650299,116.71349 282.980064,126.387283 C286.051929,135.322662 295.187291,137.8928 303.858434,136.656386" id="Fill-16" fill="#4569A1"></path>
            <path d="M376.602617,107.57891 C380.906667,107.664772 383.663323,110.549738 383.405424,114.900083 L368.716634,114.900083 C368.619205,110.521117 371.983356,107.487324 376.602617,107.57891 M388.99897,121.551531 C390.25981,121.540083 391.686852,121.706083 391.881709,119.817117 C392.666869,112.209738 389.256869,103.411738 380.44818,101.545669 C373.759995,100.131807 367.054617,102.472979 363.438297,107.950979 C358.927928,114.797048 358.320432,122.129669 362.429625,129.302014 C366.17776,135.838979 372.648163,137.138359 379.617171,136.920841 C383.863911,136.789186 384.230701,136.308359 383.428348,132.169807 C383.118869,130.578497 382.459793,129.708428 380.683155,129.862979 C379.410852,129.971738 378.098432,129.937393 376.831861,129.771393 C372.430382,129.204703 369.089155,126.125117 368.475928,121.734703 C369.74823,121.677462 370.825676,121.5916 371.89739,121.585876 C377.599827,121.568703 383.296533,121.580152 388.99897,121.551531" id="Fill-18" fill="#4569A1"></path>
            <path d="M483.074852,114.856579 C483.923054,109.773545 487.212701,107.214855 492.009625,107.615545 C495.723373,107.930372 498.17055,110.695131 498.182012,114.856579 L483.074852,114.856579 Z M485.716886,121.59389 C488.662667,121.553821 491.608449,121.582441 494.55423,121.582441 L494.55423,121.548097 C497.780835,121.548097 501.00744,121.662579 504.216852,121.467959 C505.053592,121.416441 506.360281,120.552097 506.555138,119.825131 C508.520903,112.486786 502.761155,103.242303 495.368045,101.622372 C485.229743,99.407131 476.443978,105.5892 474.810617,116.092993 C473.051171,127.40389 479.280869,135.938579 489.992281,136.837269 C491.367743,136.957476 492.754667,136.928855 494.135861,136.905959 C498.548802,136.837269 498.806701,136.362166 498.044466,132.028993 C497.64902,129.767959 496.256365,129.813752 494.634466,129.888166 C490.187138,130.094234 486.427541,128.754786 483.940247,124.885269 C482.398583,122.486855 482.902919,121.628234 485.716886,121.59389 L485.716886,121.59389 Z" id="Fill-20" fill="#AEC83A"></path>
            <path d="M598.366092,107.578338 C602.274697,107.418062 605.163168,109.387166 605.891017,112.913234 C606.022832,113.537166 605.398143,114.922407 605.094395,114.928131 C600.463672,115.059786 595.827218,115.019717 590.978714,115.019717 C591.654983,110.240062 594.348597,107.744338 598.366092,107.578338 M583.276126,125.912752 C586.187521,135.225924 595.592244,137.927717 604.360815,136.61689 C605.054277,136.513855 606.040025,135.203028 606.085874,134.413097 C606.292193,130.663786 605.507034,129.942545 601.862059,129.896752 C601.128479,129.891028 600.389168,129.873855 599.661319,129.805166 C595.695403,129.433097 591.053218,126.15889 590.972983,121.802821 C592.187975,121.722683 593.259689,121.591028 594.331403,121.585303 C600.03384,121.556683 605.736277,121.568131 611.444445,121.556683 C612.877218,121.556683 614.327185,121.533786 614.424613,119.564683 C614.716899,113.70889 613.530563,108.288131 608.802412,104.395717 C604.206076,100.62351 598.841773,100.274338 593.408697,102.243441 C584.559891,105.448959 580.175605,115.975648 583.276126,125.912752" id="Fill-22" fill="#AEC83A"></path>
            <path d="M635.008978,108.837076 C637.318608,108.665352 637.754171,109.947559 637.725516,111.916662 C637.651012,116.87949 637.702592,121.848041 637.702592,126.810869 C637.702592,130.857834 637.714054,134.9048 637.696861,138.951766 C637.679667,144.223697 637.673936,144.10349 642.935079,144.212248 C645.45676,144.263766 646.304961,143.428041 646.282037,140.909421 C646.196071,131.441697 646.270575,121.968248 646.304961,112.500524 C646.316424,108.928662 646.345079,108.997352 650.035903,108.819903 C651.119079,108.762662 652.672205,108.539421 653.159348,107.818179 C655.107919,104.938938 653.457365,102.122662 649.978592,102.025352 C649.239281,102.008179 648.414003,102.145559 647.795045,101.853628 C647.176087,101.561697 646.333617,100.834731 646.327886,100.285214 C646.270575,96.1409379 647.617382,91.950869 653.319818,92.8552828 C655.365818,93.1758345 656.196827,92.5976966 656.345835,90.5541793 C656.609466,86.8563862 656.128054,85.808869 653.74965,85.5512828 C644.40797,84.5495586 638.785768,89.0888 637.874524,98.5393517 C637.673936,100.571421 637.490541,101.905145 634.923012,102.162731 C632.275247,102.420317 633.283919,104.996179 632.980171,106.627559 C632.716541,108.070041 633.461583,108.951559 635.008978,108.837076" id="Fill-24" fill="#4569A1"></path>
            <path d="M341.770756,121.98771 C341.78795,123.344331 342.154739,124.7124 342.464218,126.051848 C343.977227,132.491503 349.014857,136.578538 355.571227,136.504124 C356.339193,136.492676 357.433832,135.576814 357.777697,134.815503 C358.247647,133.779434 358.327882,132.462883 358.207529,131.306607 C358.138756,130.59109 357.479681,129.451986 356.929496,129.354676 C351.588118,128.398745 350.350202,124.649434 350.321546,120.024331 C350.264235,110.659641 350.212655,101.289228 350.184,91.9245379 C350.166807,85.9428138 350.189731,86.0115034 344.292437,86.160331 C342.286555,86.2118483 341.524319,86.9101931 341.558706,88.9308138 C341.644672,94.2542621 341.587361,99.5834345 341.587361,104.906883 C341.638941,104.906883 341.690521,104.906883 341.73637,104.912607 C341.73637,110.6024 341.690521,116.297917 341.770756,121.98771" id="Fill-26" fill="#4569A1"></path>
            <path d="M321.272358,122.101048 C321.610492,130.921945 326.539232,135.873324 334.327787,136.5316 C336.001266,136.674703 337.399652,136.520152 337.359534,134.453738 C337.319417,132.541876 339.250795,129.937393 335.663131,129.090221 C331.920728,128.214428 330.012274,125.735876 329.960694,121.975117 C329.868997,116.004841 329.932039,110.034566 329.932039,104.06429 L329.496476,104.06429 C329.496476,100.017324 329.496476,95.9760828 329.490745,91.9291172 C329.490745,85.7985655 329.496476,85.8443586 323.404324,86.1763586 C321.793887,86.2622207 321.048845,86.8117379 321.054576,88.4545655 C321.111887,99.6738759 320.842526,110.89891 321.272358,122.101048" id="Fill-28" fill="#4569A1"></path>
            <path d="M530.733471,109.396897 C531.461319,109.316759 532.332445,108.320759 532.664849,107.548 C533.002983,106.769517 532.756546,105.739172 532.739353,104.82331 C532.693504,101.262897 531.787992,100.369931 528.429571,101.612069 C525.879235,102.550828 523.655571,104.353931 521.380328,105.716276 C520.486277,102.007034 520.480546,102.150138 516.457319,101.978414 C513.964294,101.869655 513.362529,102.762621 513.408378,105.143862 C513.580311,113.684276 513.534462,122.230414 513.568849,130.770828 C513.591773,136.535034 513.586042,136.472069 519.511992,136.220207 C521.489218,136.134345 522.280109,135.424552 522.245723,133.403931 C522.154025,128.446828 522.171218,123.484 522.239992,118.526897 C522.314496,112.854276 525.076882,110.026552 530.733471,109.396897" id="Fill-30" fill="#AEC83A"></path>
            <path d="M663.523455,136.198455 C663.798548,136.198455 664.079371,136.169834 664.348733,136.192731 C666.870413,136.444593 667.741539,135.30549 667.672766,132.81549 C667.540951,127.949972 667.540951,123.067283 667.701422,118.201766 C667.879086,112.781007 670.715976,109.821628 675.977119,109.512524 C677.71364,109.415214 678.240901,108.688248 678.189321,107.148455 C678.166397,106.324179 678.206514,105.494179 678.195052,104.669903 C678.137741,101.344179 677.157724,100.422593 673.959775,101.578869 C671.472481,102.483283 669.277472,104.171903 666.996497,105.488455 C665.5408,101.819283 665.5408,101.887972 661.425876,101.996731 C659.534615,102.048248 658.864077,102.780938 658.898464,104.675628 C659.041741,113.771283 659.081859,122.866938 659.162094,131.968317 C659.196481,136.16411 659.253792,136.221352 663.523455,136.198455" id="Fill-32" fill="#4569A1"></path>
            <path d="M571.776689,136.197883 C571.960084,136.192159 572.143479,136.174986 572.326874,136.192159 C574.607849,136.403952 575.381546,135.327814 575.329966,133.106848 C575.221076,128.435952 575.301311,123.759331 575.301311,119.08271 L575.312773,119.08271 L575.312773,113.307055 L575.312773,107.256641 C575.301311,101.927469 575.301311,102.041952 570.05163,101.978986 C567.518487,101.944641 566.69321,102.854779 566.721866,105.333331 C566.830756,113.953883 566.779176,122.574434 566.779176,131.189262 C566.779176,136.260848 566.784908,136.278021 571.776689,136.197883" id="Fill-34" fill="#AEC83A"></path>
            <path d="M622.371346,136.874476 C625.575027,136.988959 627.79296,134.710752 627.798691,131.30489 C627.804422,127.921924 625.85585,125.838338 622.646439,125.798269 C619.500069,125.7582 617.35664,127.910476 617.310792,131.16751 C617.270674,134.435993 619.333867,136.765717 622.371346,136.874476" id="Fill-36" fill="#4569A1"></path>
            <g id="Group-40" transform="translate(109.890756, 0.448779)" fill="#AEC83A">
                <path d="M20.3579866,0.275358621 C20.3579866,0.275358621 2.97558319,18.9990138 1.11297815,28.3007379 C1.11297815,28.3007379 -5.21987899,7.96287586 20.3579866,0.275358621" id="Fill-38"></path>
            </g>
            <path d="M112.741975,30.4873655 C112.741975,30.4873655 121.682479,6.67495172 130.86942,1.71784828 C130.86942,1.71784828 129.253252,20.4415034 112.741975,30.4873655" id="Fill-41" fill="#AEC83A"></path>
            <path d="M122.675104,25.1547586 L127.391793,17.8393103 C127.391793,17.8393103 137.575945,14.4906897 146.017844,20.564 C146.017844,20.564 127.019272,22.5502759 122.675104,25.1547586" id="Fill-43" fill="#AEC83A"></path>
            <path d="M146.017844,21.8067103 C146.017844,21.8067103 129.99944,33.9590552 115.843642,31.8525724 C115.843642,31.8525724 123.792667,23.7929862 146.017844,21.8067103" id="Fill-45" fill="#AEC83A"></path>
        </g>
    </g>
</svg>