<?xml version="1.0" encoding="UTF-8" standalone="no"?>
<svg width="12965px" height="1962px" viewBox="0 0 12965 1962" version="1.1" xmlns="http://www.w3.org/2000/svg" xmlns:xlink="http://www.w3.org/1999/xlink">
    <!-- Generator: Sketch 3.8.3 (29802) - http://www.bohemiancoding.com/sketch -->
    <title>splendia</title>
    <desc>Created with Sketch.</desc>
    <defs></defs>
    <g id="Page-1" stroke="none" stroke-width="1" fill="none" fill-rule="evenodd">
        <g id="splendia">
            <g id="Group-3" transform="translate(2368.463973, 0.511985)" fill="#00B6D7">
                <path d="M6757.14137,655.433815 L6531.06196,655.433815 L6639.74152,363.333849 L6757.14137,655.433815 Z M7091.90034,1102.42095 L6644.12658,0.436856964 L6204.97343,1102.42095 L6370.21022,1102.42095 L6487.61006,792.646616 L6800.59326,792.646616 L6917.9931,1102.42095 L7091.90034,1102.42095 Z M5818.04229,1102.42095 L5974.5588,1102.42095 L5974.5588,49.1284824 L5818.04229,49.1284824 L5818.04229,1102.42095 Z M5396.3297,580.205751 C5396.3297,805.889942 5226.80751,965.208144 5000.72811,965.208144 L4835.49132,965.208144 L4835.49132,190.772321 L4939.83566,190.772321 C5244.19824,190.772321 5396.3297,363.333849 5396.3297,580.205751 L5396.3297,580.205751 Z M5561.56649,597.880114 C5561.56649,208.446684 5313.76113,53.5595199 4944.17088,53.5595199 L4683.35986,53.5595199 L4683.35986,1106.85198 L5018.11883,1106.85198 C5374.60375,1102.42095 5561.56649,845.719492 5561.56649,597.880114 L5561.56649,597.880114 Z M4326.82511,1133.38842 L4326.82511,49.1284824 L4170.30859,49.1284824 L4170.30859,743.954991 L3466.0092,22.5920444 L3466.0092,1102.42095 L3622.52571,1102.42095 L3622.52571,412.025474 L4326.82511,1133.38842 Z M3196.4779,1106.85198 L3196.4779,969.639181 L2722.59314,969.639181 L2722.59314,637.709665 L3144.30573,637.709665 L3144.30573,500.54665 L2722.59314,500.54665 L2722.59314,190.772321 L3161.69645,190.772321 L3161.69645,53.5595199 L2566.07663,53.5595199 L2566.07663,1106.85198 L3196.4779,1106.85198 Z M2331.27694,1102.42095 L2331.27694,965.208144 L1935.67535,965.208144 L1935.67535,49.1284824 L1779.15884,49.1284824 L1779.15884,1102.42095 L2331.27694,1102.42095 Z M1405.23336,367.764886 C1405.23336,504.977688 1305.27408,553.669313 1170.48351,553.669313 L1031.35772,553.669313 L1031.35772,190.772321 L1196.54468,190.772321 C1392.22769,190.772321 1405.23336,292.536823 1405.23336,367.764886 L1405.23336,367.764886 Z M1561.74988,367.764886 C1561.74988,164.186096 1427.00914,53.5595199 1196.54468,53.5595199 L874.841208,53.5595199 L874.841208,1106.85198 L1031.35772,1106.85198 L1031.35772,690.832328 L1213.9354,690.832328 C1483.51654,690.832328 1561.74988,496.115613 1561.74988,367.764886 L1561.74988,367.764886 Z M635.7063,819.183054 C635.7063,681.970253 548.752682,593.498864 457.463841,549.238276 L283.556604,460.7171 C248.775157,442.99295 170.541815,407.594437 170.541815,301.398898 C170.541815,208.446684 240.10471,168.617134 322.673275,168.617134 C392.236169,168.617134 466.184117,190.772321 513.971235,239.41416 L592.254406,119.925508 C492.245288,53.5595199 435.737893,35.8851569 322.673275,35.8851569 C144.430815,35.8851569 14.0253025,146.511733 14.0253025,310.260973 C14.0253025,447.423987 87.9234205,531.514126 200.988039,589.067826 L387.900946,686.40129 C427.017617,708.556478 479.189788,761.629354 479.189788,832.476167 C479.189788,925.378593 418.34717,974.070219 322.673275,974.070219 C244.439933,974.070219 183.597316,965.208144 87.9234205,889.98008 L0.96980223,1000.60666 C122.704868,1093.55887 213.993709,1111.28302 309.667605,1111.28302 C527.026735,1115.66427 635.7063,974.070219 635.7063,819.183054 L635.7063,819.183054 Z" id="Fill-1"></path>
            </g>
            <path d="M1804.25519,147.013761 L1804.25519,1797.74948 L1008.66695,523.203865 L1804.25519,147.013761 Z M1756.41824,116.046285 L960.830007,470.081202 L191.302943,116.046285 L1756.41824,116.046285 Z M65.2326542,1833.14799 L65.2326542,213.379749 L421.717574,987.865358 L65.2326542,1833.14799 Z M65.2326542,111.615248 L169.576996,160.306873 L904.322613,518.772827 L473.889745,930.311658 L104.349325,182.412274 L65.2326542,111.615248 Z M1795.58474,1877.40858 L1704.24607,1819.85488 L517.341639,979.003283 L956.494784,558.602378 L1747.74779,1793.31844 L1795.58474,1877.40858 Z M100.014102,1881.78983 L478.224968,1036.55698 L1704.24607,1881.78983 L100.014102,1881.78983 Z M0.00498301537,1948.20561 L1869.48286,1948.20561 L1869.48286,45.2492591 L0.00498301537,45.2492591 L0.00498301537,1948.20561 Z" id="Fill-4" fill="#00B6D7"></path>
            <g id="Group-8" transform="translate(2360.315057, 1465.599467)" fill="#565555">
                <path d="M10317.2783,354.250436 L10317.2783,473.739087 L10347.7245,473.739087 C10352.0598,469.30805 10356.395,460.445975 10365.1153,460.445975 C10378.1209,460.445975 10417.2874,482.601162 10456.4041,482.601162 C10539.0225,482.601162 10604.2003,416.185387 10604.2003,332.145035 C10604.2003,163.964758 10378.1209,212.656384 10378.1209,101.98002 C10378.1209,57.7194323 10412.9024,31.1829943 10452.0689,31.1829943 C10539.0225,31.1829943 10521.6318,124.135208 10552.0282,124.135208 L10573.8039,124.135208 L10573.8039,22.3209193 L10547.6929,22.3209193 C10543.3577,26.7519568 10539.0225,31.1829943 10534.6374,31.1829943 C10525.967,31.1829943 10504.2411,4.64655624 10452.0689,4.64655624 C10382.506,4.64655624 10325.9488,57.7194323 10325.9488,124.135208 C10325.9488,287.884447 10552.0282,234.761784 10552.0282,363.112511 C10552.0282,416.185387 10508.5763,451.633687 10456.4041,451.633687 C10352.0598,451.633687 10360.7302,349.819398 10339.0043,349.819398 L10317.2783,349.819398 L10317.2783,354.250436 Z M9912.95645,473.739087 L10234.6599,473.739087 L10234.6599,358.681473 L10221.6543,358.681473 C10182.4878,358.681473 10225.9895,442.771612 10117.3099,442.771612 L10012.9656,442.771612 L10012.9656,75.4435822 C10012.9656,22.3209193 10047.747,57.7194323 10047.747,26.7519568 L10047.747,13.5086312 L9912.95645,13.5086312 L9912.95645,31.1829943 C9912.95645,57.7194323 9947.7379,22.3209193 9947.7379,79.8746197 L9947.7379,416.185387 C9947.7379,469.30805 9912.95645,433.909537 9912.95645,464.877012 L9912.95645,473.739087 Z M9491.24386,473.739087 L9817.28255,473.739087 L9817.28255,354.250436 L9804.27688,354.250436 C9756.43994,354.250436 9817.28255,442.771612 9695.54749,442.771612 L9591.25298,442.771612 L9591.25298,252.485934 L9639.04009,252.485934 C9699.93254,252.485934 9665.15109,301.127773 9704.26776,301.127773 L9712.93821,301.127773 L9712.93821,181.639121 L9704.26776,181.639121 C9665.15109,181.639121 9708.60299,225.899709 9639.04009,225.899709 L9591.25298,225.899709 L9591.25298,53.3381817 L9682.54182,53.3381817 C9773.83066,53.3381817 9734.71399,128.566245 9778.16588,128.566245 L9791.22138,128.566245 L9791.22138,17.8898818 C9778.16588,26.7519568 9760.77516,26.7519568 9747.71966,26.7519568 L9491.24386,26.7519568 L9491.24386,31.1829943 C9491.24386,57.7194323 9526.02531,22.3209193 9526.02531,79.8746197 L9526.02531,416.185387 C9526.02531,469.30805 9491.24386,433.909537 9491.24386,464.877012 L9491.24386,473.739087 Z M9247.77373,48.9071442 L9282.55517,48.9071442 C9399.95502,48.9071442 9334.72734,124.135208 9386.89952,124.135208 L9399.95502,124.135208 L9399.95502,9.07759373 C9386.89952,17.8898818 9369.50879,17.8898818 9356.45329,17.8898818 L9073.86649,17.8898818 C9060.81099,17.8898818 9043.42027,13.5086312 9030.36477,9.07759373 L9030.36477,124.135208 L9043.42027,124.135208 C9095.59244,124.135208 9030.36477,48.9071442 9147.76461,48.9071442 L9182.54606,48.9071442 L9182.54606,416.185387 C9182.54606,469.30805 9143.42938,433.909537 9143.42938,464.877012 L9143.42938,473.739087 L9286.8904,473.739087 L9286.8904,460.445975 C9286.8904,433.909537 9247.77373,469.30805 9247.77373,411.804136 L9247.77373,48.9071442 Z M8743.44274,460.445975 C8630.42795,460.445975 8613.03723,327.713998 8613.03723,243.623859 C8613.03723,150.671646 8634.76318,31.1829943 8747.77796,31.1829943 C8860.84258,31.1829943 8878.23331,163.964758 8878.23331,248.054897 C8878.23331,340.957323 8856.50736,460.445975 8743.44274,460.445975 L8743.44274,460.445975 Z M8743.44274,482.601162 C8873.89808,482.601162 8956.46665,367.543548 8956.46665,243.623859 C8956.46665,119.70417 8882.56853,4.64655624 8752.16302,4.64655624 C8621.70768,4.64655624 8539.08928,119.70417 8539.08928,243.623859 C8539.08928,367.543548 8613.03723,482.601162 8743.44274,482.601162 L8743.44274,482.601162 Z M8139.15247,221.468672 L8139.15247,75.4435822 C8139.15247,22.3209193 8173.93391,57.7194323 8173.93391,26.7519568 L8173.93391,13.5086312 L8039.14335,13.5086312 L8039.14335,31.1829943 C8039.14335,57.7194323 8073.9248,22.3209193 8073.9248,79.8746197 L8073.9248,416.185387 C8073.9248,469.30805 8039.14335,433.909537 8039.14335,464.877012 L8039.14335,473.739087 L8173.93391,473.739087 L8173.93391,460.445975 C8173.93391,433.909537 8139.15247,469.30805 8139.15247,411.804136 L8139.15247,252.485934 L8339.12087,252.485934 L8339.12087,411.804136 C8339.12087,464.877012 8304.33943,429.478499 8304.33943,460.445975 L8304.33943,473.739087 L8439.12999,473.739087 L8439.12999,460.445975 C8439.12999,433.909537 8404.34854,469.30805 8404.34854,411.804136 L8404.34854,75.4435822 C8404.34854,22.3209193 8439.12999,57.7194323 8439.12999,26.7519568 L8439.12999,13.5086312 L8304.33943,13.5086312 L8304.33943,31.1829943 C8304.33943,57.7194323 8339.12087,22.3209193 8339.12087,79.8746197 L8339.12087,225.899709 L8139.15247,225.899709 L8139.15247,221.468672 Z M7465.24947,252.485934 L7486.97541,252.485934 C7530.47714,252.485934 7539.14759,265.72926 7573.92903,332.145035 L7656.54743,473.739087 L7752.17149,473.739087 L7752.17149,460.445975 C7752.17149,429.478499 7730.44555,464.877012 7695.6641,411.804136 L7621.76598,287.884447 C7608.71048,261.298222 7595.70481,248.054897 7565.25859,243.623859 C7630.48626,243.623859 7700.04915,203.794309 7700.04915,128.566245 C7700.04915,40.0450692 7613.09553,17.8898818 7565.25859,17.8898818 L7365.24035,17.8898818 L7365.24035,31.1829943 C7365.24035,57.7194323 7400.0218,22.3209193 7400.0218,79.8746197 L7400.0218,416.185387 C7400.0218,469.30805 7365.24035,433.909537 7365.24035,464.877012 L7365.24035,473.739087 L7500.03091,473.739087 L7500.03091,460.445975 C7500.03091,433.909537 7465.24947,469.30805 7465.24947,411.804136 L7465.24947,252.485934 Z M7465.24947,225.899709 L7465.24947,48.9071442 L7547.86786,48.9071442 C7586.98453,48.9071442 7630.48626,75.4435822 7630.48626,132.997283 C7630.48626,203.794309 7578.31409,225.899709 7530.47714,225.899709 L7465.24947,225.899709 Z M6943.52776,473.739087 L7269.61628,473.739087 L7269.61628,354.250436 L7256.56078,354.250436 C7208.72384,354.250436 7269.61628,442.771612 7147.88122,442.771612 L7043.53688,442.771612 L7043.53688,252.485934 L7091.37382,252.485934 C7152.21644,252.485934 7117.43499,301.127773 7156.55167,301.127773 L7165.27194,301.127773 L7165.27194,181.639121 L7156.55167,181.639121 C7117.43499,181.639121 7160.93672,225.899709 7091.37382,225.899709 L7043.53688,225.899709 L7043.53688,53.3381817 L7134.82572,53.3381817 C7226.11456,53.3381817 7186.99789,128.566245 7230.49961,128.566245 L7243.50528,128.566245 L7243.50528,17.8898818 C7230.49961,26.7519568 7213.10889,26.7519568 7200.05339,26.7519568 L6943.52776,26.7519568 L6943.52776,31.1829943 C6943.52776,57.7194323 6978.30921,22.3209193 6978.30921,79.8746197 L6978.30921,416.185387 C6978.30921,469.30805 6943.52776,433.909537 6943.52776,464.877012 L6943.52776,473.739087 Z M6700.05763,48.9071442 L6734.83907,48.9071442 C6852.23892,48.9071442 6787.01125,124.135208 6839.18342,124.135208 L6852.23892,124.135208 L6852.23892,9.07759373 C6839.18342,17.8898818 6821.79269,17.8898818 6808.78702,17.8898818 L6521.81517,17.8898818 C6508.75967,17.8898818 6491.36894,13.5086312 6478.36327,9.07759373 L6478.36327,124.135208 L6491.36894,124.135208 C6543.54111,124.135208 6478.36327,48.9071442 6595.71329,48.9071442 L6630.49473,48.9071442 L6630.49473,416.185387 C6630.49473,469.30805 6591.37806,433.909537 6591.37806,464.877012 L6591.37806,473.739087 L6734.83907,473.739087 L6734.83907,460.445975 C6734.83907,433.909537 6695.7224,469.30805 6695.7224,411.804136 L6695.7224,48.9071442 L6700.05763,48.9071442 Z M6369.68371,31.1829943 L6343.57271,31.1829943 C6343.57271,35.6140317 6339.23748,40.0450692 6334.90226,40.0450692 C6317.51154,40.0450692 6291.40054,4.64655624 6226.17286,4.64655624 C6095.76735,4.64655624 6034.8749,137.378533 6034.8749,243.623859 C6034.8749,363.112511 6104.4378,482.601162 6234.89314,482.601162 C6304.45604,482.601162 6347.90793,451.633687 6387.07443,394.079986 L6365.29865,376.355836 C6334.90226,411.804136 6308.79126,447.202649 6247.94864,447.202649 C6139.21925,447.202649 6108.82285,327.713998 6108.82285,239.192822 C6108.82285,159.533721 6130.5488,26.7519568 6234.89314,26.7519568 C6343.57271,26.7519568 6321.84676,141.809571 6360.96343,141.809571 L6378.35415,141.809571 L6378.35415,31.1829943 L6369.68371,31.1829943 Z M5839.24172,394.079986 C5843.57694,402.942061 5847.962,420.616424 5847.962,429.478499 C5847.962,456.014937 5813.18055,433.909537 5813.18055,460.445975 L5813.18055,473.739087 L5956.64156,473.739087 L5956.64156,460.445975 C5956.64156,429.478499 5934.91562,469.30805 5913.13984,407.373099 L5752.2881,13.5086312 L5747.95288,0.215518746 C5743.61766,0.215518746 5726.22693,13.5086312 5721.89171,13.5086312 C5717.50666,17.8898818 5695.78071,26.7519568 5695.78071,35.6140317 C5695.78071,40.0450692 5700.11593,57.7194323 5704.50099,62.1504698 L5713.17143,79.8746197 L5587.10114,389.648949 C5556.65492,460.445975 5530.59375,429.478499 5530.59375,456.014937 L5530.59375,473.739087 L5643.60854,473.739087 L5643.60854,460.445975 C5643.60854,433.909537 5613.16231,456.014937 5613.16231,425.047462 C5613.16231,416.185387 5621.88259,398.511024 5621.88259,389.648949 L5639.27331,345.388361 L5813.18055,345.388361 L5839.24172,394.079986 Z M5808.7955,314.420885 L5656.66404,314.420885 L5730.56216,124.135208 L5808.7955,314.420885 Z M5204.50522,252.485934 L5226.23117,252.485934 C5269.73289,252.485934 5278.40334,265.72926 5313.18479,332.145035 L5395.80318,473.739087 L5491.42725,473.739087 L5491.42725,460.445975 C5491.42725,429.478499 5469.7013,464.877012 5434.91985,411.804136 L5361.02174,287.884447 C5347.96624,261.298222 5334.91074,248.054897 5304.51434,243.623859 C5369.69218,243.623859 5439.25508,203.794309 5439.25508,128.566245 C5439.25508,40.0450692 5352.30146,17.8898818 5304.51434,17.8898818 L5104.4961,17.8898818 L5104.4961,31.1829943 C5104.4961,57.7194323 5139.27755,22.3209193 5139.27755,79.8746197 L5139.27755,416.185387 C5139.27755,469.30805 5104.4961,433.909537 5104.4961,464.877012 L5104.4961,473.739087 L5239.28667,473.739087 L5239.28667,460.445975 C5239.28667,433.909537 5204.50522,469.30805 5204.50522,411.804136 L5204.50522,252.485934 Z M5204.50522,225.899709 L5204.50522,48.9071442 L5287.12362,48.9071442 C5326.24029,48.9071442 5369.69218,75.4435822 5369.69218,132.997283 C5369.69218,203.794309 5317.52001,225.899709 5269.73289,225.899709 L5204.50522,225.899709 Z M4913.19814,394.079986 C4917.5832,402.942061 4921.91842,420.616424 4921.91842,429.478499 C4921.91842,456.014937 4887.13697,433.909537 4887.13697,460.445975 L4887.13697,473.739087 L5030.59799,473.739087 L5030.59799,460.445975 C5030.59799,429.478499 5008.87204,469.30805 4987.14609,407.373099 L4826.24453,13.5086312 L4821.9093,0.215518746 C4817.57408,0.215518746 4800.18336,13.5086312 4795.84813,13.5086312 C4791.46308,17.8898818 4769.73713,26.7519568 4769.73713,35.6140317 C4769.73713,40.0450692 4774.07236,57.7194323 4778.45741,62.1504698 L4787.12786,79.8746197 L4661.05757,389.648949 C4630.61134,460.445975 4604.55017,429.478499 4604.55017,456.014937 L4604.55017,473.739087 L4717.56496,473.739087 L4717.56496,460.445975 C4717.56496,433.909537 4687.11874,456.014937 4687.11874,425.047462 C4687.11874,416.185387 4695.83901,398.511024 4695.83901,389.648949 L4713.22974,345.388361 L4887.13697,345.388361 L4913.19814,394.079986 Z M4882.80175,314.420885 L4730.62046,314.420885 L4804.51858,124.135208 L4882.80175,314.420885 Z M4235.00975,221.468672 L4235.00975,75.4435822 C4235.00975,22.3209193 4269.7912,57.7194323 4269.7912,26.7519568 L4269.7912,13.5086312 L4135.00063,13.5086312 L4135.00063,31.1829943 C4135.00063,57.7194323 4169.78208,22.3209193 4169.78208,79.8746197 L4169.78208,416.185387 C4169.78208,469.30805 4135.00063,433.909537 4135.00063,464.877012 L4135.00063,473.739087 L4269.7912,473.739087 L4269.7912,460.445975 C4269.7912,433.909537 4235.00975,469.30805 4235.00975,411.804136 L4235.00975,252.485934 L4434.97816,252.485934 L4434.97816,411.804136 C4434.97816,464.877012 4400.19671,429.478499 4400.19671,460.445975 L4400.19671,473.739087 L4534.98728,473.739087 L4534.98728,460.445975 C4534.98728,433.909537 4500.20583,469.30805 4500.20583,411.804136 L4500.20583,75.4435822 C4500.20583,22.3209193 4534.98728,57.7194323 4534.98728,26.7519568 L4534.98728,13.5086312 L4400.19671,13.5086312 L4400.19671,31.1829943 C4400.19671,57.7194323 4434.97816,22.3209193 4434.97816,79.8746197 L4434.97816,225.899709 L4235.00975,225.899709 L4235.00975,221.468672 Z M4017.60079,31.1829943 L3991.53962,31.1829943 C3991.53962,35.6140317 3987.15457,40.0450692 3982.81934,40.0450692 C3965.42862,40.0450692 3939.36745,4.64655624 3874.13978,4.64655624 C3743.73427,4.64655624 3682.84182,137.378533 3682.84182,243.623859 C3682.84182,363.112511 3752.40471,482.601162 3882.81023,482.601162 C3952.37312,482.601162 3995.87484,451.633687 4034.99152,394.079986 L4013.26557,376.355836 C3982.81934,411.804136 3956.75817,447.202649 3895.86573,447.202649 C3787.18616,447.202649 3756.73994,327.713998 3756.73994,239.192822 C3756.73994,159.533721 3778.51571,26.7519568 3882.81023,26.7519568 C3991.53962,26.7519568 3969.76384,141.809571 4008.93034,141.809571 L4026.32107,141.809571 L4026.32107,31.1829943 L4017.60079,31.1829943 Z M3017.6591,332.145035 C3017.6591,283.45341 3043.7701,252.485934 3087.22199,239.192822 C3126.33866,301.127773 3165.50516,367.543548 3204.62183,420.616424 C3182.89589,442.771612 3152.44966,451.633687 3126.33866,451.633687 C3061.16082,451.633687 3017.6591,394.079986 3017.6591,332.145035 L3017.6591,332.145035 Z M3135.05894,177.208084 C3122.00344,150.671646 3108.94794,119.70417 3108.94794,88.7366947 C3108.94794,57.7194323 3130.72372,26.7519568 3161.12011,26.7519568 C3200.23678,26.7519568 3217.6275,57.7194323 3217.6275,93.1677322 C3217.6275,146.240608 3182.89589,168.395796 3139.39416,186.070159 L3135.05894,177.208084 Z M3391.53474,433.909537 C3382.86429,442.771612 3369.80879,451.633687 3356.75329,451.633687 C3326.3569,451.633687 3287.1904,411.804136 3269.79967,389.648949 C3282.85517,367.543548 3295.91068,345.388361 3317.63662,305.55881 C3343.74762,252.485934 3374.14402,283.45341 3374.14402,248.054897 L3374.14402,239.192822 L3243.7385,239.192822 L3243.7385,252.485934 C3243.7385,287.884447 3282.85517,256.867185 3282.85517,301.127773 C3282.85517,323.28296 3265.46445,354.250436 3252.40895,371.974586 C3156.78489,234.761784 3213.29228,318.851923 3152.44966,221.468672 C3204.62183,208.225346 3265.46445,168.395796 3265.46445,106.411058 C3265.46445,48.9071442 3217.6275,17.8898818 3165.50516,17.8898818 C3100.27749,17.8898818 3052.44054,62.1504698 3052.44054,128.566245 C3052.44054,163.964758 3065.49604,194.932234 3082.88677,225.899709 C3021.99432,248.054897 2956.81648,287.884447 2956.81648,358.681473 C2956.81648,447.202649 3030.7146,495.844488 3108.94794,495.844488 C3152.44966,495.844488 3195.90156,478.170125 3230.683,447.202649 C3256.794,478.170125 3295.91068,495.844488 3335.02735,495.844488 C3361.13835,495.844488 3391.53474,487.0322 3408.92546,464.877012 L3391.53474,433.909537 Z M2469.87622,243.623859 L2374.20232,84.3056572 C2369.8671,79.8746197 2361.19665,62.1504698 2361.19665,53.3381817 C2361.19665,31.1829943 2391.59305,48.9071442 2391.59305,26.7519568 L2391.59305,13.5086312 L2248.13203,13.5086312 L2248.13203,31.1829943 C2248.13203,57.7194323 2265.52276,22.3209193 2300.3042,79.8746197 L2422.03927,283.45341 L2422.03927,411.804136 C2422.03927,464.877012 2387.25782,429.478499 2387.25782,460.445975 L2387.25782,473.739087 L2522.04839,473.739087 L2522.04839,460.445975 C2522.04839,433.909537 2487.26694,469.30805 2487.26694,411.804136 L2487.26694,279.022372 L2604.61695,84.3056572 C2643.78345,17.8898818 2656.78912,53.3381817 2656.78912,26.7519568 L2656.78912,13.5086312 L2543.77433,13.5086312 L2543.77433,31.1829943 C2543.77433,48.9071442 2574.22056,40.0450692 2574.22056,57.7194323 C2574.22056,66.5815073 2561.16506,84.3056572 2556.82984,93.1677322 L2469.87622,243.623859 Z M1935.09901,252.485934 L1956.82495,252.485934 C2000.32668,252.485934 2008.99712,265.72926 2043.77857,332.145035 L2126.39697,473.739087 L2222.07086,473.739087 L2222.07086,460.445975 C2222.07086,429.478499 2200.29509,464.877012 2165.51364,411.804136 L2091.61552,287.884447 C2078.56002,261.298222 2065.55435,248.054897 2035.10813,243.623859 C2100.3358,243.623859 2169.89869,203.794309 2169.89869,128.566245 C2169.89869,40.0450692 2082.94507,17.8898818 2035.10813,17.8898818 L1835.13972,17.8898818 L1835.13972,31.1829943 C1835.13972,57.7194323 1869.92117,22.3209193 1869.92117,79.8746197 L1869.92117,416.185387 C1869.92117,469.30805 1835.13972,433.909537 1835.13972,464.877012 L1835.13972,473.739087 L1969.88045,473.739087 L1969.88045,460.445975 C1969.88045,433.909537 1935.09901,469.30805 1935.09901,411.804136 L1935.09901,252.485934 Z M1935.09901,225.899709 L1935.09901,48.9071442 L2017.7174,48.9071442 C2056.83407,48.9071442 2100.3358,75.4435822 2100.3358,132.997283 C2100.3358,203.794309 2048.16363,225.899709 2000.32668,225.899709 L1935.09901,225.899709 Z M1635.12148,17.8898818 L1635.12148,31.1829943 C1635.12148,66.5815073 1674.23815,17.8898818 1674.23815,110.842095 L1674.23815,327.713998 C1674.23815,363.112511 1665.56771,456.014937 1556.88814,456.014937 C1482.94019,456.014937 1448.15874,411.804136 1448.15874,340.957323 L1448.15874,75.4435822 C1448.15874,22.3209193 1482.94019,57.7194323 1482.94019,26.7519568 L1482.94019,13.5086312 L1348.19946,13.5086312 L1348.19946,31.1829943 C1348.19946,57.7194323 1382.9809,22.3209193 1382.9809,79.8746197 L1382.9809,336.526286 C1382.9809,438.340574 1443.82352,487.0322 1548.16786,487.0322 C1648.17698,487.0322 1713.40465,433.909537 1713.40465,332.145035 L1713.40465,110.842095 C1713.40465,17.8898818 1748.1861,66.5815073 1748.1861,31.1829943 L1748.1861,17.8898818 L1635.12148,17.8898818 Z M1052.55715,274.591335 L1143.846,411.804136 C1148.18122,416.185387 1156.9015,429.478499 1156.9015,433.909537 C1156.9015,456.014937 1122.12005,438.340574 1122.12005,460.445975 L1122.12005,473.739087 L1274.25151,473.739087 L1274.25151,460.445975 C1274.25151,438.340574 1256.86078,460.445975 1226.46439,416.185387 L1096.00905,217.037634 L1182.96267,88.7366947 C1226.46439,22.3209193 1248.19034,53.3381817 1248.19034,26.7519568 L1248.19034,13.5086312 L1126.45527,13.5086312 L1126.45527,31.1829943 C1126.45527,57.7194323 1156.9015,35.6140317 1156.9015,62.1504698 C1156.9015,75.4435822 1139.51077,101.98002 1130.7905,110.842095 L1074.2831,194.932234 L1000.38498,84.3056572 C996.04976,79.8746197 987.329483,66.5815073 987.329483,57.7194323 C987.329483,40.0450692 1013.44048,53.3381817 1013.44048,31.1829943 L1013.44048,17.8898818 L869.929641,17.8898818 L869.929641,31.1829943 C869.929641,57.7194323 887.320365,26.7519568 917.766589,71.0125447 L1030.83121,243.623859 L922.101812,411.804136 C882.985141,469.30805 869.929641,438.340574 869.929641,464.877012 L869.929641,473.739087 L991.664707,473.739087 L991.664707,460.445975 C991.664707,438.340574 956.883259,451.633687 956.883259,429.478499 C956.883259,420.616424 965.603536,407.373099 974.273983,398.511024 L1052.55715,274.591335 Z M691.687181,17.8898818 L691.687181,31.1829943 C691.687181,66.5815073 730.803852,17.8898818 730.803852,110.842095 L730.803852,327.713998 C730.803852,363.112511 722.133405,456.014937 613.45384,456.014937 C539.555722,456.014937 504.774274,411.804136 504.774274,340.957323 L504.774274,75.4435822 C504.774274,22.3209193 539.555722,57.7194323 539.555722,26.7519568 L539.555722,13.5086312 L404.765156,13.5086312 L404.765156,31.1829943 C404.765156,57.7194323 439.546603,22.3209193 439.546603,79.8746197 L439.546603,336.526286 C439.546603,438.340574 500.389221,487.0322 604.733563,487.0322 C704.742681,487.0322 769.970353,433.909537 769.970353,332.145035 L769.970353,110.842095 C769.970353,17.8898818 804.7518,66.5815073 804.7518,31.1829943 L804.7518,17.8898818 L691.687181,17.8898818 Z M0.443288583,473.739087 L322.146761,473.739087 L322.146761,358.681473 L309.091261,358.681473 C269.97459,358.681473 313.476314,442.771612 204.746919,442.771612 L100.402577,442.771612 L100.402577,75.4435822 C100.402577,22.3209193 135.184024,57.7194323 135.184024,26.7519568 L135.184024,13.5086312 L0.443288583,13.5086312 L0.443288583,31.1829943 C0.443288583,57.7194323 35.2247359,22.3209193 35.2247359,79.8746197 L35.2247359,416.185387 C35.2247359,469.30805 0.443288583,433.909537 0.443288583,464.877012 L0.443288583,473.739087 Z" id="Fill-6"></path>
            </g>
        </g>
    </g>
</svg>