<svg id="Layer_1" xmlns="http://www.w3.org/2000/svg" viewBox="0 0 150 43.8">
  <style>
    .st0{fill:#78A300;}
  </style>
  <path class="st0" d="M31.7 25c-1.4.8-3 1.2-4.5 1.2-1 0-2-.2-2.8-.5-1.5 1.4-3.1 2.3-4 2.8 1.2 1.9 3.1 3.3 5.4 3.9.7.2 1.4.3 2.2.3 1.6 0 3.1-.4 4.4-1.1.2-.7.3-1.5.3-2.3 0-1.5-.3-3-1-4.3zm-1.5-11.2c-.1 0-.2-.1-.3-.1.1 0 .2.1.3.1z"/>
  <path class="st0" d="M29.8 13.8c-.3 1.8-1 3.4-2.1 4.6.1.3.1.7.1 1 0 2.1-1.1 3.9-2.4 5.4.4 0 .8.1 1.2.1 1.9 0 3.9-.6 5.5-1.9 1.9-1.5 3-3.6 3.4-5.7-1.3-1.7-3.1-2.9-5.2-3.4-.2-.1-.3-.2-.5-.1zm-1.4-1.6c0-2.4-.9-4.6-2.4-6.2h-.1c-2.1 0-4 .8-5.7 2.3 1.6 1.7 2.2 3.9 2.2 6.1v.5c.4-.1.7-.1 1.1-.1h.1c1.4 0 2.8.7 3.6 2 .7-1.3 1.2-2.9 1.2-4.6zm-16.1-6H12c-1.5 1.6-2.3 3.7-2.3 6v.1h.3c2.5 0 4.7 1 6.3 2.5 1.3.1 2.7.8 3.4 2.2.4-.8 1-1.3 1.6-1.6v-.3c0-2.5-1-4.9-3-6.7-1.7-1.4-3.8-2.2-6-2.2zm2.8 8.8zm-.3 0c-1.3-.8-2.9-1.2-4.5-1.2-.5 0-1 0-1.6.1-2.4.4-4.4 1.7-5.6 3.5.4 2.1 1.5 4.2 3.3 5.6 1.3-1.8 3.2-3 5.2-3.3v-.3c0-2.5 1.5-4 3.2-4.4zM7 25c-.7 1.3-1 2.8-1 4.2 0 .8.1 1.7.3 2.4 1.3.7 2.8 1.1 4.3 1.1.7 0 1.4-.1 2.2-.3-.2-.8-.3-1.6-.3-2.4 0-1.9.6-3.7 1.7-5.3-1-1.1-1.9-2.4-2.3-3.9C9.8 21.5 8.1 23 7 25zm7.5 8.3l-.1.1h.1zm4.9 4.6c2-.9 3.7-2.5 4.6-4.6-2.3-.9-4-2.7-4.8-4.8-.7-.4-2.6-1.4-4.3-3-.6 1.3-1 2.7-1 4.1 0 1.2.2 2.4.8 3.6.9 2.3 2.7 3.9 4.7 4.7zm-4.8-4.6h-.1zM48.2 27l-7.8 9.2h6.7c.7 0 1.3.6 1.3 1.3 0 .7-.6 1.3-1.3 1.3h-9.8c-.7 0-1.3-.7-1.3-1.4 0-.3.1-.7.4-1l7.8-9.2h-6.8c-.7 0-1.3-.6-1.3-1.3 0-.7.6-1.3 1.3-1.3H47c.9 0 1.5.7 1.5 1.5 0 .4-.1.7-.3.9zm15.6 5.8H53.6c.2 2.2 1.9 3.8 4.3 3.8 1.7 0 3.1-.7 4.3-1.8.2-.2.5-.3.8-.3.4 0 .8.2 1 .5.2.2.3.5.3.8 0 .4-.2.8-.5 1.1-1.4 1.5-3.7 2.5-6 2.5-4.2 0-7.5-3.4-7.5-7.5 0-4.2 3.3-7.5 7.4-7.5 4.1 0 7.2 3.2 7.2 7.5.1.4-.5.9-1.1.9zm-6.1-5.9c-2.2 0-3.7 1.4-4 3.6h8.1c-.3-2-1.9-3.6-4.1-3.6zm39.6 12.3c-.9 0-1.6-.7-1.6-1.6v-.8c-.9 1.6-2.7 2.5-4.7 2.5-4.2 0-7.1-3.2-7.1-7.5s2.9-7.5 7.1-7.5c2.1 0 3.9 1 4.7 2.5v-8.5c0-.9.7-1.6 1.6-1.6.9 0 1.6.7 1.6 1.6v19.3c.1.9-.7 1.6-1.6 1.6zm-5.9-12.1c-2.6 0-4.3 2.1-4.3 4.7s1.7 4.7 4.3 4.7c2.6 0 4.3-2 4.3-4.7s-1.6-4.7-4.3-4.7zm23.9 5.7h-10.2c.2 2.2 1.9 3.8 4.3 3.8 1.7 0 3.1-.7 4.3-1.8.2-.2.5-.3.8-.3.4 0 .8.2 1.1.5.2.2.3.5.3.8 0 .4-.2.8-.5 1.1-1.4 1.5-3.7 2.5-6 2.5-4.2 0-7.5-3.4-7.5-7.5 0-4.2 3.3-7.5 7.4-7.5 4.1 0 7.2 3.2 7.2 7.5 0 .4-.6.9-1.2.9zm-6-5.9c-2.2 0-3.7 1.4-4 3.6h8.1c-.4-2-2-3.6-4.1-3.6zm15.2 12.4c-1.6 0-3.7-.5-5.3-1.4-.5-.3-.8-.8-.8-1.2 0-.2.1-.3.1-.5.2-.5.6-.8 1-.8.2 0 .5.1.7.2 1.2.7 2.6 1.2 4 1.2 1.6 0 3.4-.5 3.4-1.7 0-1-.9-1.3-4.2-2.5-2.8-1-4.2-2.2-4.2-4.2 0-2.4 2.4-4 5.6-4 2.2 0 3.6.5 4.9 1.1.6.3.9.7.9 1.2 0 .2 0 .3-.1.5-.2.5-.7.9-1.2.9-.2 0-.3 0-.5-.1-1.2-.6-2.4-.9-3.8-.9-1.7 0-2.8.4-2.8 1.4 0 1.1.9 1.3 3.3 2.1 3 1 5.1 2 5.1 4.5.1 2.2-2.1 4.2-6.1 4.2zm21-.2c-.4 0-.9-.2-1.2-.5l-5.4-6.2-1.6 1.3v3.8c0 .9-.7 1.6-1.6 1.6-.9 0-1.6-.7-1.6-1.6V18.3c0-.9.7-1.6 1.6-1.6.9 0 1.6.7 1.6 1.6V30l6.8-5.3c.3-.2.6-.3.9-.3.5 0 .9.2 1.2.6.2.3.4.6.4.9 0 .5-.2.9-.6 1.2l-4.6 3.6 5.3 6.1c.2.3.4.6.4 1-.2.7-.9 1.3-1.6 1.3zm-71-14.9c-3.7 0-6.8 2.9-6.8 6.8v6.7c0 .9.7 1.6 1.6 1.6.9 0 1.6-.7 1.6-1.6v-6.6c0-2.2 1.2-4 3.6-4 2.3 0 3.6 1.8 3.6 4v6.6c0 .9.7 1.6 1.6 1.6.9 0 1.6-.7 1.6-1.6V31c0-3.9-3-6.8-6.8-6.8zm68.8-5.9c0-.9.7-1.6 1.6-1.6.9 0 1.6.7 1.6 1.6 0 .9-.7 1.6-1.6 1.6-.9 0-1.6-.7-1.6-1.6zm2.8 0c0-.7-.5-1.2-1.2-1.2s-1.2.5-1.2 1.2.5 1.3 1.2 1.3c.7-.1 1.2-.6 1.2-1.3zm-1.8.7v-1.4c0-.1.1-.2.2-.2h.6c.4 0 .6.2.6.5 0 .2-.1.4-.3.5l.2.5v.1c0 .1-.1.2-.2.2s-.2-.1-.2-.1l-.3-.5h-.3v.4c0 .1-.1.2-.2.2s-.1-.1-.1-.2zm1-1.1c0-.1-.1-.2-.3-.2h-.3v.3h.3c.2.1.3.1.3-.1z"/>
</svg>
