<?xml version="1.0" encoding="UTF-8" standalone="no"?>
<svg width="261px" height="261px" viewBox="0 0 261 261" version="1.1" xmlns="http://www.w3.org/2000/svg" xmlns:xlink="http://www.w3.org/1999/xlink">
    <!-- Generator: Sketch 3.8.2 (29753) - http://www.bohemiancoding.com/sketch -->
    <title>socloz</title>
    <desc>Created with Sketch.</desc>
    <defs></defs>
    <g id="Page-1" stroke="none" stroke-width="1" fill="none" fill-rule="evenodd">
        <g id="socloz" transform="translate(0.000000, -1.000000)" fill="#38A8DF">
            <path d="M153.5195,150.1141 C152.7005,148.5201 151.4565,147.2791 149.9335,146.4841 C148.3795,145.7611 146.6275,145.5251 144.8545,145.8361 C143.0705,146.1481 141.3245,146.9931 139.7785,148.1251 C136.6485,150.4391 134.2465,153.7371 132.5035,157.3251 C130.7885,160.9041 129.6845,164.8251 129.8055,168.7031 C129.8735,170.6041 130.3055,172.4781 131.1475,174.0471 C131.5885,174.8171 132.0765,175.5511 132.7045,176.1301 C133.0035,176.4261 133.3265,176.6791 133.6665,176.9411 C133.8405,177.0711 133.9515,177.1211 134.1025,177.2291 C134.2615,177.3341 134.5245,177.4551 134.7625,177.5801 C134.7425,177.5691 134.7715,177.5831 134.7705,177.5841 C134.7725,177.5851 134.7735,177.5861 134.7755,177.5871 L134.7825,177.5891 L134.8255,177.5991 L134.8925,177.6361 L135.0455,177.6961 C135.1335,177.7231 135.2345,177.7771 135.3375,177.8151 C135.5345,177.8761 135.7195,177.9531 135.9315,178.0061 C136.3355,178.1171 136.7445,178.2221 137.1605,178.2551 C137.9955,178.3431 138.8645,178.3041 139.7315,178.1631 C141.4745,177.8181 143.1795,177.0031 144.7065,175.8651 C146.2555,174.7461 147.6215,173.3461 148.8325,171.8171 C149.4555,171.0541 149.9855,170.2341 150.5135,169.4071 C150.7715,169.0071 151.0465,168.5391 151.2475,168.1531 L151.5845,167.5441 L151.9925,166.7241 L151.9445,166.8071 C153.6825,163.2691 154.8315,159.3771 154.7755,155.5211 C154.7355,153.6021 154.3375,151.7221 153.5195,150.1141" id="Fill-1"></path>
            <path d="M113.3901,146.4003 C114.6131,144.9993 115.7391,143.6153 116.7741,142.0903 C117.7701,140.5623 118.7051,138.9913 119.5101,137.3743 C121.1111,134.2013 122.3171,130.7613 122.3891,127.6553 C122.4291,126.1263 122.1331,124.7513 121.5211,123.7883 C121.3821,123.5383 121.2161,123.3173 121.0301,123.1143 C120.8541,122.9033 120.6231,122.7103 120.5121,122.6223 L119.9901,122.2173 C120.0311,122.2483 119.8651,122.1193 120.0591,122.2793 L120.0451,122.2693 L120.0011,122.2483 L119.9331,122.2093 C119.8831,122.1773 119.8321,122.1593 119.7971,122.1323 C119.5961,122.0433 119.4191,121.9853 119.2391,121.9523 C118.5471,121.8023 117.4981,122.0033 116.2691,122.6413 C115.0671,123.2723 113.8071,124.2753 112.6341,125.4053 C110.2561,127.6873 108.1991,130.5793 106.3841,133.5653 C104.5771,136.5673 103.0051,139.7563 101.7011,143.0093 C101.0671,144.5543 100.3941,146.3213 99.8131,148.0093 C99.2501,149.7293 98.6401,151.4223 98.1381,153.1243 C97.2541,156.1443 96.4181,159.1473 95.9061,162.0843 C99.1881,159.5813 102.3921,156.9763 105.4631,154.2613 C108.2691,151.7823 110.9511,149.1663 113.3901,146.4003" id="Fill-3"></path>
            <g id="Group-7" transform="translate(0.000000, 0.785000)">
                <path d="M201.6338,144.9141 L169.8838,176.9871 C171.8868,175.9321 173.9208,174.9241 176.0328,174.0181 C178.8938,172.8381 181.8788,171.8051 185.1108,171.3081 C186.7308,171.0461 188.4248,170.9511 190.1828,171.1331 C191.9308,171.3211 193.7928,171.8331 195.4408,172.8911 C197.1178,173.9351 198.4478,175.4691 199.3288,177.1521 C200.1658,178.7591 200.6888,180.4441 201.0368,182.1091 C201.7798,185.4531 201.7138,188.8781 201.2188,192.1291 C200.2248,198.6941 197.6428,204.7651 194.1838,210.2661 C192.4368,213.0191 190.4048,215.6211 188.0678,218.0251 C185.7168,220.4171 183.0438,222.6221 179.7098,224.3401 C178.0268,225.1681 176.1518,225.8711 173.9848,226.2181 C172.8958,226.3851 171.7328,226.4441 170.5168,226.3421 C169.9008,226.3041 169.3378,226.2121 168.6378,226.0381 L168.0858,225.8931 L167.6248,225.7411 L166.8718,225.4611 C164.9578,224.6811 162.9858,223.4971 161.3478,221.7701 C159.7028,220.0701 158.5208,217.8541 157.9618,215.6751 C157.3938,213.4771 157.3418,211.3551 157.5498,209.3961 C157.7698,207.4471 158.2408,205.6401 158.8658,203.9521 C160.0888,200.5691 161.8658,197.6471 163.9118,195.0211 C167.9958,189.8161 173.2868,185.5791 179.3308,183.3621 C180.3088,183.0061 181.3968,183.5131 181.7528,184.4741 C182.0088,185.2061 181.8088,185.9831 181.2838,186.4881 L181.2738,186.4971 C177.0488,190.5201 173.6408,194.9801 171.0638,199.7481 C169.7988,202.1141 168.7908,204.5811 168.1758,206.9251 C167.8788,208.0961 167.7008,209.2271 167.6478,210.2661 C167.6238,211.3041 167.7118,212.2111 167.9358,212.9301 C168.1708,213.6381 168.4608,214.1321 168.8988,214.5971 C169.3228,215.0521 169.9528,215.4751 170.8038,215.8431 C170.8088,215.8451 170.8088,215.8451 170.8138,215.8471 L170.8598,215.8651 L171.1338,215.9481 C171.2588,216.0021 171.1978,215.9761 171.2068,215.9771 C171.2008,215.9741 171.1988,215.9721 171.1968,215.9721 C171.2158,215.9721 171.4118,216.0081 171.5328,216.0311 C171.8028,216.0631 172.1518,216.0851 172.5538,216.0441 C173.3648,215.9481 174.3608,215.6851 175.3888,215.2211 C177.4828,214.3561 179.6488,212.8791 181.6868,211.1881 C183.7128,209.4881 185.6308,207.5181 187.3838,205.4001 C190.8698,201.1491 193.7158,196.1931 195.0658,190.9441 C195.7038,188.3211 195.9508,185.6411 195.6128,183.0721 C195.4298,181.7791 195.1288,180.5501 194.6488,179.4591 C194.1968,178.4601 193.5508,177.6141 192.6958,176.9961 C191.0318,175.7181 188.3588,175.3941 185.6578,175.6431 C182.9298,175.8851 180.1278,176.6381 177.3908,177.5781 C171.9018,179.4891 166.5718,182.2461 161.6008,185.3311 L161.5838,185.3311 C160.9658,185.8041 160.0618,185.6801 159.5938,185.0491 C159.1888,184.5181 159.2268,183.8011 159.6338,183.2971 L159.7138,183.1871 L186.8818,149.8961 C183.4388,150.5651 179.9788,151.1131 176.4458,151.4011 C174.3968,151.5661 172.2038,151.5471 170.1338,151.3441 C168.0468,151.1321 166.0008,150.8351 163.9648,150.4691 C163.5828,150.3971 163.2028,150.3211 162.8228,150.2441 C163.2048,151.3221 163.5088,152.4201 163.7398,153.5261 C164.9878,159.3931 164.0508,165.4791 161.5128,170.6941 L161.4668,170.7931 L161.0408,171.6051 L160.4938,172.5921 C160.0928,173.2621 159.7358,173.8461 159.3018,174.4641 C158.4788,175.6601 157.5348,176.7941 156.5338,177.8601 C154.4918,179.9721 152.0968,181.7771 149.4118,183.1231 C144.1048,185.7971 137.3388,186.7741 131.2188,183.7181 L130.3828,183.2541 C130.0148,183.0421 129.5768,182.7871 129.2648,182.5711 C128.5928,182.1171 127.9548,181.6171 127.3858,181.0801 C126.2168,180.0041 125.1468,178.8051 124.3008,177.5101 C123.7828,176.7291 123.3298,175.9221 122.9248,175.0981 C121.9118,175.9371 120.8838,176.7611 119.8178,177.5571 C116.6418,179.9031 113.2078,182.0001 109.3048,183.6011 C107.3398,184.3881 105.2648,185.0421 102.9868,185.3891 C100.7318,185.7331 98.1678,185.6921 95.7588,185.1121 C93.2308,184.5201 90.6268,183.2301 88.5888,181.1891 C86.5388,179.1681 85.2048,176.6521 84.4308,174.2391 C84.2538,173.6821 84.1048,173.1301 83.9718,172.5821 C82.5268,174.0791 80.9938,175.4791 79.3438,176.7941 C76.8958,178.7371 74.2368,180.5011 71.3188,181.9601 C68.4198,183.4211 65.2228,184.5391 61.7668,185.1681 C58.3578,185.7881 54.4158,185.8461 50.6998,184.7701 C46.9648,183.7521 43.4388,181.6171 40.7608,178.7491 C38.0638,175.8851 36.2048,172.4121 34.9978,168.8651 C33.8008,165.3041 33.3068,161.6311 33.3338,158.0671 C33.3418,154.4991 33.8738,151.0161 34.7578,147.7271 C35.6198,144.4201 36.8938,141.2501 38.3268,138.3491 C39.8338,135.2451 41.6368,132.4641 43.7248,129.8051 C47.8698,124.5161 53.1418,120.0801 59.1968,117.1581 C62.2028,115.6821 65.4008,114.5681 68.7128,113.9201 C72.0428,113.2781 75.3428,113.0021 78.8938,113.5161 C82.6138,114.0711 86.2068,115.9771 88.4638,119.0641 C89.5678,120.6011 90.3488,122.3821 90.5478,124.2901 C90.7528,126.1561 90.3248,128.3061 88.8928,129.7361 C88.4498,130.1771 87.7108,130.1751 87.2568,129.7301 C86.9568,129.4181 86.8678,128.9941 86.9598,128.6021 L87.0148,128.3991 C87.5918,126.2651 86.1938,124.0001 84.4538,122.6601 C82.7008,121.2711 80.4548,120.6671 78.2458,120.6641 C75.8428,120.6691 73.1498,121.1161 70.6948,121.8931 C68.1968,122.6631 65.8048,123.7981 63.5838,125.1931 C59.1488,127.9971 55.3678,131.7921 52.5468,136.1831 C51.1388,138.3551 49.9298,140.7761 48.9558,143.1041 C47.9058,145.6311 47.1728,148.0971 46.6168,150.6031 C46.0918,153.1021 45.8418,155.5821 45.8858,157.9951 C45.9458,160.3941 46.3208,162.6961 47.0238,164.7971 C47.7278,166.9061 48.8388,168.7501 50.1458,170.3291 C51.4418,171.9091 52.9218,173.3021 54.7588,174.4371 C56.5988,175.5851 58.7068,176.4171 61.2638,176.6761 C63.7698,176.9381 66.4498,176.6521 69.1308,176.0451 C74.0508,174.8891 78.9658,172.5761 83.4528,169.6821 C83.0608,166.4851 83.2728,163.4381 83.6838,160.5601 C84.3858,156.3321 85.4368,152.3511 86.8468,148.5531 C87.5478,146.6461 88.2748,144.7681 89.1078,142.9541 C89.9368,141.1211 90.7468,139.3821 91.7438,137.4991 C93.7088,133.8851 95.9418,130.4511 98.5088,127.2331 C101.0748,124.0221 103.9288,121.0141 107.3628,118.3641 C109.0788,117.0541 110.9828,115.8481 113.2398,114.9411 C114.3838,114.4911 115.6208,114.1281 117.0118,113.9881 C118.3788,113.8451 119.9248,113.9521 121.3788,114.4711 C122.0948,114.7201 122.7848,115.0661 123.3968,115.4741 C123.5568,115.5801 123.7188,115.6771 123.8548,115.7901 L124.3738,116.1981 L124.9438,116.7241 C125.5238,117.2891 125.9448,117.7891 126.3188,118.3431 C126.7138,118.8971 127.0538,119.4921 127.3318,120.0941 C128.4528,122.5431 128.5758,125.0991 128.3028,127.3391 C127.7038,131.8521 125.8238,135.5831 123.7118,138.9861 C122.6338,140.6851 121.4588,142.2931 120.2268,143.8291 C119.0188,145.3871 117.7098,146.9231 116.3698,148.3261 C113.6718,151.1711 110.7738,153.7481 107.8308,156.2191 C103.7838,159.5771 99.5988,162.6961 95.2958,165.6611 C95.0998,167.7511 95.0678,169.7221 95.2888,171.3911 C95.7088,173.8911 96.2968,175.4721 98.5018,176.7591 C100.7708,178.0361 104.0148,178.1991 107.3708,177.4541 C110.7188,176.7591 114.0898,175.3031 117.3458,173.6161 C118.7228,172.8901 120.0898,172.0951 121.4368,171.2621 C121.2288,170.5471 121.0538,169.8261 120.9098,169.1031 C119.7378,163.2481 120.7088,157.1961 123.2548,152.0091 C125.7928,146.8441 129.9828,142.3661 135.3288,139.7241 C137.9798,138.3971 140.9108,137.5041 144.0038,137.2851 C147.0848,137.0651 150.3498,137.5851 153.2048,139.0011 C153.4108,139.0991 153.6088,139.2111 153.8098,139.3181 C153.8388,139.3291 153.8648,139.3341 153.8938,139.3481 C157.1328,140.9241 161.6328,144.9741 165.1328,146.3531 C166.8868,147.0561 168.6978,147.6201 170.5358,147.8681 C172.3658,148.1501 174.1548,148.0501 176.0008,147.7391 C179.7008,147.1061 183.2768,145.6281 186.6808,143.8901 C188.4018,143.0181 190.0708,142.1141 191.7428,141.1751 C193.4008,140.2721 195.0688,139.2001 196.6588,138.4471 L197.8628,138.1611 C200.0238,137.6471 202.1898,138.9901 202.7008,141.1511 C203.0228,142.5481 202.5838,143.9531 201.6338,144.9141 M77.6488,73.4861 C79.9648,69.6821 83.5478,66.7291 87.4158,65.4321 L87.4678,65.4121 C88.2578,65.1431 89.1268,65.5761 89.4028,66.3741 C89.5978,66.9771 89.4108,67.6081 88.9598,68.0081 C83.6098,72.7431 82.0388,79.7231 83.7438,85.0931 C85.5138,90.5201 90.3568,93.8371 96.1228,94.3701 C105.3228,95.2101 110.3238,91.7161 112.5688,90.1591 C116.9728,87.0211 119.7848,81.7681 119.2438,76.7051 C118.9898,74.1961 117.9528,71.7981 116.1478,69.7621 C115.2488,68.7591 114.1698,67.8231 112.9368,67.0191 C112.3348,66.6061 108.4348,64.6821 108.4348,64.6821 C104.5728,62.7561 100.5688,60.0361 97.8838,55.6391 C96.5728,53.4721 95.7018,50.8931 95.5438,48.2921 C95.3718,45.6851 95.8718,43.1351 96.7778,40.8861 C98.6378,36.3701 101.9718,32.9461 105.8878,30.7261 C109.7998,28.5131 114.5008,27.4901 118.9898,28.3091 C121.2058,28.6931 123.3858,29.5391 125.1828,30.6451 C127.0668,31.7761 128.8178,33.2671 130.0958,35.2831 C131.3798,37.2751 131.8998,39.7791 131.6128,41.9971 C131.3328,44.2491 130.5028,46.1491 129.2348,47.9531 C128.8258,48.5341 128.0188,48.6761 127.4518,48.2671 C126.9338,47.9011 126.7628,47.2301 127.0108,46.6771 L127.0708,46.5501 C127.7188,45.1191 128.1008,43.3361 128.0108,41.8281 C127.9368,40.2851 127.3688,38.9611 126.4258,37.9161 C125.4898,36.8651 124.2158,35.9291 122.7908,35.3161 C121.2688,34.6501 119.7278,34.4251 118.2078,34.3411 C115.2088,34.1711 112.1858,35.1321 109.7308,36.8961 C107.2818,38.6501 105.3578,41.1721 104.6228,43.7441 C103.8488,46.3461 104.2988,48.6741 105.7308,50.6281 C107.1518,52.6141 109.6858,54.2571 112.6308,55.4181 C112.6308,55.4181 120.8948,58.7491 124.0238,62.0201 C127.5228,65.3271 130.1188,69.9311 130.9798,74.8751 C131.8708,79.8211 131.1878,84.9411 129.2378,89.4391 C127.2488,93.9281 124.0788,97.8171 120.1848,100.6381 C116.3238,103.4971 111.8158,105.2571 107.3188,106.0971 C105.0578,106.5101 102.7898,106.6771 100.5668,106.6751 L98.9068,106.6291 L97.1588,106.5151 L95.6118,106.3561 C95.0538,106.2701 94.4808,106.1871 93.9068,106.0731 C89.3658,105.2481 84.6368,103.2451 81.0038,99.7361 C77.3238,96.2921 75.0868,91.4561 74.6468,86.7221 C74.1438,81.9691 75.3308,77.2931 77.6488,73.4861 M134.8178,81.3741 C135.0438,79.9281 135.3478,78.5061 135.7788,77.1171 C135.9978,76.4221 136.2468,75.7451 136.5208,75.0741 L136.9348,74.0731 L137.4358,72.9981 L137.8608,72.1871 L138.4088,71.2131 C138.8108,70.5411 139.1678,69.9621 139.6008,69.3531 C140.4258,68.1581 141.3688,67.0461 142.3678,65.9901 C144.4088,63.8971 146.7958,62.1171 149.4638,60.7951 C154.7198,58.1631 161.3858,57.1461 167.4488,60.1341 L167.9448,60.3921 C167.9758,60.4041 168.0058,60.4101 168.0378,60.4251 C171.2768,62.0001 175.7768,66.0431 179.2758,67.4321 C181.0298,68.1331 182.8438,68.6971 184.6818,68.9451 C186.5668,69.0681 187.1278,72.6221 184.2758,72.4141 C182.1908,72.2111 180.1468,71.9111 178.1098,71.5371 C177.7238,71.4661 177.3368,71.3891 176.9508,71.3121 C177.3348,72.3931 177.6398,73.4961 177.8698,74.6041 C179.1058,80.4671 178.1678,86.5501 175.6448,91.7731 L175.5938,91.8611 L175.1728,92.6751 L174.6108,93.6611 C174.2238,94.3401 173.8628,94.9211 173.4338,95.5341 C172.6108,96.7351 171.6678,97.8621 170.6658,98.9271 C168.6238,101.0451 166.2288,102.8511 163.5428,104.1951 C158.2358,106.8621 151.4678,107.8321 145.3478,104.7901 L144.5148,104.3261 C144.1298,104.1071 143.7058,103.8561 143.3958,103.6381 C142.7238,103.1811 142.0838,102.6911 141.5018,102.1511 C140.3338,101.0661 139.2798,99.8781 138.4308,98.5711 C136.7018,95.9761 135.6088,93.0931 135.0418,90.1701 C134.4598,87.2471 134.4098,84.2681 134.8178,81.3741 M130.3948,0.2151 C58.3798,0.2151 -0.0002,58.5961 -0.0002,130.6071 C-0.0002,202.6211 58.3798,261.0001 130.3948,261.0001 C202.4088,261.0001 260.7868,202.6211 260.7868,130.6071 C260.7868,58.5961 202.4088,0.2151 130.3948,0.2151" id="Fill-5"></path>
            </g>
            <path d="M146.835,97.1942 C147.134,97.4942 147.457,97.7532 147.797,98.0042 C147.974,98.1342 148.085,98.1842 148.219,98.2942 C148.415,98.4132 148.739,98.5622 149.001,98.7012 C148.948,98.6742 148.92,98.6592 148.903,98.6502 C148.902,98.6502 148.905,98.6512 148.902,98.6502 L148.903,98.6502 C148.868,98.6322 148.894,98.6452 148.906,98.6522 L148.916,98.6552 L148.955,98.6722 L149.027,98.7022 L149.18,98.7632 C149.267,98.7972 149.367,98.8492 149.469,98.8802 C149.663,98.9392 149.852,99.0252 150.063,99.0692 C150.467,99.1812 150.875,99.2862 151.291,99.3272 C152.128,99.4102 152.994,99.3742 153.865,99.2282 C155.605,98.8852 157.312,98.0682 158.839,96.9432 C160.385,95.8232 161.751,94.4242 162.964,92.8862 C163.572,92.1282 164.117,91.3022 164.646,90.4782 C164.902,90.0782 165.178,89.6112 165.38,89.2322 L165.716,88.6142 L166.123,87.7952 L166.073,87.8842 C167.813,84.3432 168.964,80.4492 168.909,76.5912 C168.866,74.6792 168.471,72.7932 167.653,71.1902 C167.232,70.4042 166.744,69.6722 166.125,69.0642 C165.826,68.7592 165.491,68.4922 165.145,68.2362 C164.97,68.0962 164.854,68.0422 164.72,67.9372 C164.551,67.8202 164.261,67.6752 164.024,67.5412 L163.982,67.5292 L163.912,67.5002 L163.775,67.4312 C163.669,67.3942 163.57,67.3412 163.479,67.3092 C163.268,67.2472 163.077,67.1592 162.863,67.1072 C162.455,66.9892 162.038,66.8902 161.617,66.8362 C160.756,66.7192 159.873,66.7722 158.99,66.9042 C157.205,67.2252 155.458,68.0602 153.911,69.2002 C152.351,70.3402 150.96,71.7642 149.761,73.3202 C149.138,74.0962 148.602,74.9282 148.076,75.7702 C147.805,76.1732 147.547,76.6472 147.328,77.0302 L146.994,77.6602 L146.602,78.4812 C144.966,81.8912 143.801,85.9392 143.935,89.7612 C144.004,91.6772 144.422,93.5522 145.277,95.1222 C145.707,95.8922 146.208,96.6182 146.835,97.1942" id="Fill-8"></path>
        </g>
    </g>
</svg>