<?xml version="1.0" encoding="UTF-8" standalone="no"?>
<svg width="500px" height="189px" viewBox="0 0 500 189" version="1.1" xmlns="http://www.w3.org/2000/svg" xmlns:xlink="http://www.w3.org/1999/xlink">
    <!-- Generator: Sketch 3.8.2 (29753) - http://www.bohemiancoding.com/sketch -->
    <title>drivy</title>
    <desc>Created with Sketch.</desc>
    <defs></defs>
    <g id="Page-1" stroke="none" stroke-width="1" fill="none" fill-rule="evenodd">
        <g id="drivy" fill="#3C465A">
            <polygon id="Fill-1" points="130.514 152.031 161.979 152.031 161.979 41.274 130.514 41.274"></polygon>
            <polygon id="Fill-5" points="217.037 151.736 248.502 151.736 248.502 40.979 217.037 40.979"></polygon>
            <polygon id="Fill-7" points="317.429 101.8144 292.111 40.9784 260.646 40.9784 306.74 151.7364 328.118 151.7364 374.212 40.9784 342.747 40.9784"></polygon>
            <path d="M232.7701,0.0002 C223.3861,0.0002 215.7791,7.6072 215.7781,16.9912 C215.7781,26.3752 223.3841,33.9822 232.7681,33.9822 C242.1521,33.9832 249.7601,26.3762 249.7601,16.9922 C249.7611,7.6082 242.1541,0.0002 232.7701,0.0002" id="Fill-8"></path>
            <path d="M189.0183,38.4777 C177.9013,37.0747 168.5523,46.4237 169.9543,57.5407 C170.9093,65.1117 177.0223,71.2247 184.5923,72.1797 C195.7093,73.5837 205.0593,64.2337 203.6563,53.1167 C202.7013,45.5467 196.5893,39.4337 189.0183,38.4777" id="Fill-9"></path>
            <path d="M468.5349,40.9789 L443.2169,101.8149 L417.8989,40.9789 L386.4339,40.9789 L425.0689,133.8129 C426.6139,137.5269 426.6139,141.7049 425.0689,145.4189 L407.2489,188.2359 L438.7149,188.2359 L453.9049,151.7359 L453.9059,151.7359 L499.9999,40.9789 L468.5349,40.9789 Z" id="Fill-10"></path>
            <path d="M84.3443,116.7821 C78.6033,123.7081 69.9843,128.1171 60.4323,128.1171 C43.3623,128.1181 29.2633,114.0391 29.2633,96.6711 L29.2633,96.6331 C29.2633,96.5901 29.2663,96.5481 29.2663,96.5051 C29.2663,96.4621 29.2633,96.4201 29.2633,96.3771 L29.2633,96.3381 C29.2633,78.9711 43.3623,64.8921 60.4323,64.8921 C66.1753,64.8921 71.3613,66.4921 75.7183,69.2681 C79.0113,71.1531 81.9273,73.6341 84.3443,76.5521 L84.3443,116.7821 Z M84.3443,45.4161 C77.5753,41.2771 69.2453,38.9231 59.3213,38.9231 C26.4053,38.9231 -0.1487,64.6351 0.0003,96.3561 C-0.1507,128.0791 26.4043,153.7921 59.3213,153.7921 C69.2453,153.7921 77.5753,151.4381 84.3443,147.2991 L84.3443,151.7361 L115.0773,151.7361 L115.0773,5.7381 L84.3443,5.7381 L84.3443,45.4161 Z" id="Fill-2"></path>
        </g>
    </g>
</svg>