<?xml version="1.0" encoding="utf-8"?>
<!-- Generator: Adobe Illustrator 19.2.0, SVG Export Plug-In . SVG Version: 6.00 Build 0)  -->
<!DOCTYPE svg PUBLIC "-//W3C//DTD SVG 1.1//EN" "http://www.w3.org/Graphics/SVG/1.1/DTD/svg11.dtd">
<svg version="1.1" id="US_UK_Download_on_the" xmlns="http://www.w3.org/2000/svg" xmlns:xlink="http://www.w3.org/1999/xlink"
	 x="0px" y="0px" viewBox="0 0 100 29.6" style="enable-background:new 0 0 100 29.6;" xml:space="preserve">
<style type="text/css">
	.st0{fill:#FFFFFF;}
</style>
<g>
	<path class="st0" d="M100,3.5c0-1.9-1.6-3.5-3.6-3.5H3.5C1.6,0,0,1.6,0,3.5v22.6c0,1.9,1.6,3.5,3.5,3.5h92.9c1.9,0,3.6-1.6,3.6-3.5
		V3.5z M96.4,29H3.5c-1.6,0-2.8-1.3-2.8-2.8V3.5c0-1.6,1.3-2.8,2.8-2.8h92.9c1.6,0,2.8,1.3,2.8,2.8v22.6h0C99.3,27.7,98,29,96.4,29z
		"/>
	<path class="st0" d="M23.5,21.2c0.9-1.3,1.3-2.6,1.3-2.7c0,0-2.5-1-2.5-3.8c0-2.4,2-3.5,2-3.6c-1.1-1.6-2.9-1.9-3.5-1.9
		c-1.5-0.2-2.9,0.9-3.6,0.9c-0.8,0-1.9-0.9-3.1-0.8c-1.6,0-3.1,0.9-3.9,2.4c-1.7,2.9-0.4,7.2,1.2,9.5c0.8,1.2,1.7,2.4,3,2.4
		c1.2,0,1.7-0.8,3.1-0.8c1.4,0,1.9,0.8,3.1,0.7C21.9,23.5,22.8,22.3,23.5,21.2z"/>
	<path class="st0" d="M19.9,7.6c0.6-0.8,1.1-1.9,1-3c-0.9,0-2.1,0.6-2.8,1.4c-0.6,0.7-1.1,1.8-1,2.9C18.2,9,19.3,8.4,19.9,7.6z"/>
	<path class="st0" d="M34.6,13.5l-3.2,9.9h1.6l0.9-2.9h3.2l0.9,2.9h1.7l-3.2-9.9H34.6z M34.2,19.2l0.8-2.6c0.2-0.8,0.4-1.4,0.5-1.9
		h0c0.2,1,0.4,1.6,0.5,1.9l0.8,2.6H34.2z"/>
	<path class="st0" d="M46.9,22.6c0.7-0.7,1-1.7,1-2.9c0-1.1-0.3-2-0.8-2.6c-0.6-0.7-1.3-1-2.1-1c-1.1,0-1.9,0.4-2.4,1.3h0l-0.1-1.1
		h-1.4c0,0.8,0.1,1.6,0.1,2.3v7.7h1.6v-3.7h0c0.4,0.7,1.1,1,2,1C45.6,23.5,46.3,23.2,46.9,22.6z M42.7,20.4v-1.2
		c0-0.1,0-0.3,0.1-0.5c0.1-0.4,0.3-0.8,0.6-1c0.3-0.3,0.7-0.4,1.1-0.4c0.6,0,1,0.2,1.4,0.7c0.3,0.4,0.5,1,0.5,1.7
		c0,0.8-0.2,1.4-0.5,1.8c-0.3,0.5-0.8,0.7-1.4,0.7c-0.5,0-0.9-0.2-1.2-0.5C42.8,21.4,42.7,20.9,42.7,20.4z"/>
	<path class="st0" d="M55.1,22.6c0.7-0.7,1-1.7,1-2.9c0-1.1-0.3-2-0.8-2.6c-0.6-0.7-1.3-1-2.1-1c-1.1,0-1.9,0.4-2.4,1.3h0l-0.1-1.1
		h-1.4c0,0.8,0.1,1.6,0.1,2.3v7.7h1.6v-3.7h0c0.4,0.7,1.1,1,2,1C53.8,23.5,54.5,23.2,55.1,22.6z M50.9,20.4v-1.2
		c0-0.1,0-0.3,0.1-0.5c0.1-0.4,0.3-0.8,0.6-1c0.3-0.3,0.7-0.4,1.1-0.4c0.6,0,1,0.2,1.4,0.7c0.3,0.4,0.5,1,0.5,1.7
		c0,0.8-0.2,1.4-0.5,1.8c-0.3,0.5-0.8,0.7-1.4,0.7c-0.5,0-0.9-0.2-1.2-0.5C51,21.4,50.9,20.9,50.9,20.4z"/>
	<path class="st0" d="M64.3,22.6c0.6-0.5,0.9-1.2,0.9-2c0-0.7-0.2-1.3-0.6-1.7c-0.4-0.5-1-0.9-1.9-1.2c-0.7-0.3-1.2-0.5-1.4-0.8
		c-0.3-0.3-0.5-0.6-0.5-1c0-0.4,0.1-0.6,0.4-0.9c0.3-0.3,0.7-0.4,1.3-0.4c0.7,0,1.3,0.2,1.9,0.5l0.4-1.3c-0.6-0.3-1.3-0.5-2.2-0.5
		c-1,0-1.8,0.3-2.4,0.8c-0.6,0.5-0.9,1.2-0.9,2c0,1.2,0.9,2.2,2.6,2.8c0.6,0.2,1.1,0.5,1.4,0.8c0.3,0.3,0.4,0.6,0.4,1
		c0,0.4-0.2,0.8-0.5,1.1c-0.3,0.3-0.8,0.4-1.4,0.4c-0.8,0-1.6-0.2-2.3-0.6l-0.4,1.3c0.6,0.4,1.5,0.6,2.6,0.6
		C62.8,23.5,63.7,23.2,64.3,22.6z"/>
	<path class="st0" d="M70.4,23.3l0-1.2c-0.2,0-0.4,0.1-0.7,0.1c-0.6,0-0.9-0.4-0.9-1.3v-3.5h1.7v-1.2h-1.7v-1.8l-1.6,0.5v1.3h-1v1.2
		h1V21c0,0.9,0.2,1.5,0.5,1.9c0.4,0.4,0.8,0.6,1.5,0.6C69.6,23.5,70.1,23.4,70.4,23.3z"/>
	<path class="st0" d="M77.4,22.4c0.6-0.7,0.9-1.6,0.9-2.7c0-1.1-0.3-1.9-0.9-2.6c-0.6-0.7-1.5-1-2.5-1c-1.1,0-1.9,0.4-2.6,1.1
		c-0.6,0.7-1,1.6-1,2.7c0,1.1,0.3,1.9,0.9,2.6c0.6,0.7,1.4,1,2.5,1C75.8,23.5,76.7,23.1,77.4,22.4z M73.4,21.5
		c-0.3-0.5-0.4-1-0.4-1.7c0-0.7,0.1-1.2,0.4-1.7c0.3-0.6,0.8-0.9,1.4-0.9c0.6,0,1.1,0.3,1.4,0.9c0.3,0.5,0.4,1,0.4,1.7
		c0,0.7-0.1,1.2-0.4,1.7c-0.3,0.6-0.8,0.9-1.4,0.9C74.2,22.3,73.7,22.1,73.4,21.5z"/>
	<path class="st0" d="M81.6,18.2c0.3-0.4,0.7-0.6,1.3-0.6c0.2,0,0.3,0,0.5,0v-1.5c-0.1,0-0.2,0-0.4,0c-0.4,0-0.8,0.1-1.1,0.4
		c-0.4,0.3-0.6,0.7-0.8,1.1h0L81,16.2h-1.4c0,0.7,0.1,1.4,0.1,2.2l0,4.9h1.6v-3.7C81.2,19,81.4,18.6,81.6,18.2z"/>
	<path class="st0" d="M90.1,23l-0.2-1.1c-0.6,0.2-1.2,0.3-1.9,0.3c-0.6,0-1.2-0.2-1.5-0.5c-0.4-0.4-0.7-0.9-0.7-1.6h4.7
		c0-0.2,0.1-0.4,0.1-0.7c0-0.9-0.2-1.6-0.6-2.2c-0.5-0.8-1.3-1.1-2.3-1.1c-1,0-1.9,0.4-2.5,1.1c-0.6,0.7-0.9,1.6-0.9,2.7
		c0,1.1,0.3,2,0.9,2.6c0.6,0.6,1.5,1,2.6,1C88.6,23.5,89.4,23.3,90.1,23z M86.2,17.8c0.3-0.4,0.7-0.6,1.3-0.6c0.6,0,1,0.2,1.3,0.7
		c0.2,0.3,0.3,0.7,0.3,1.2h-3.3C85.7,18.6,85.9,18.1,86.2,17.8z"/>
	<path class="st0" d="M33.5,10c0.9,0,1.6-0.2,2.1-0.6c0.5-0.4,0.8-1.1,0.8-2c0-0.8-0.2-1.4-0.7-1.8c-0.4-0.4-1.1-0.6-1.9-0.6
		c-0.5,0-0.9,0-1.3,0.1v4.8C32.7,10,33,10,33.5,10z M33.1,5.7c0.2,0,0.4-0.1,0.6-0.1c0.6,0,1,0.2,1.3,0.5c0.3,0.3,0.4,0.7,0.4,1.3
		c0,0.6-0.2,1.1-0.5,1.4c-0.3,0.3-0.8,0.5-1.4,0.5c-0.3,0-0.4,0-0.5,0V5.7z"/>
	<path class="st0" d="M38.9,10c0.5,0,1-0.2,1.3-0.5c0.3-0.3,0.5-0.8,0.5-1.3c0-0.5-0.1-0.9-0.4-1.3c-0.3-0.3-0.7-0.5-1.2-0.5
		c-0.5,0-1,0.2-1.3,0.5c-0.3,0.3-0.5,0.8-0.5,1.3c0,0.5,0.2,0.9,0.5,1.3C38,9.9,38.4,10,38.9,10z M38.3,7.4C38.4,7.1,38.7,7,39,7
		c0.3,0,0.5,0.1,0.7,0.4c0.1,0.2,0.2,0.5,0.2,0.8c0,0.3-0.1,0.6-0.2,0.8c-0.2,0.3-0.4,0.4-0.7,0.4c-0.3,0-0.5-0.1-0.7-0.4
		C38.1,8.8,38,8.5,38,8.2C38,7.9,38.1,7.6,38.3,7.4z"/>
	<path class="st0" d="M42.5,10h0.7l0.5-1.5c0.1-0.4,0.2-0.7,0.3-1.1h0c0.1,0.4,0.2,0.7,0.3,1.1l0.5,1.5h0.7l1.1-3.5h-0.8l-0.4,1.6
		c-0.1,0.4-0.2,0.8-0.2,1.1h0c-0.1-0.4-0.2-0.8-0.3-1.1l-0.5-1.6h-0.6l-0.5,1.7c-0.1,0.5-0.2,0.8-0.3,1.1h0
		c-0.1-0.4-0.1-0.7-0.2-1.1l-0.4-1.7h-0.8L42.5,10z"/>
	<path class="st0" d="M47.5,10h0.8V7.9c0-0.2,0.1-0.4,0.2-0.6C48.6,7.1,48.8,7,49,7c0.5,0,0.7,0.3,0.7,0.9v2h0.8V7.9
		c0-0.5-0.1-0.9-0.4-1.2c-0.2-0.2-0.5-0.3-0.8-0.3c-0.3,0-0.5,0.1-0.7,0.2c-0.2,0.1-0.3,0.3-0.4,0.4h0l0-0.5h-0.7c0,0.4,0,0.7,0,1
		V10z"/>
	<rect x="51.9" y="4.9" class="st0" width="0.8" height="5.1"/>
	<path class="st0" d="M55.5,10c0.5,0,1-0.2,1.3-0.5c0.3-0.3,0.5-0.8,0.5-1.3c0-0.5-0.1-0.9-0.4-1.3c-0.3-0.3-0.7-0.5-1.2-0.5
		c-0.5,0-1,0.2-1.3,0.5c-0.3,0.3-0.5,0.8-0.5,1.3c0,0.5,0.2,0.9,0.5,1.3C54.6,9.9,55,10,55.5,10z M54.8,7.4C55,7.1,55.2,7,55.5,7
		c0.3,0,0.5,0.1,0.7,0.4c0.1,0.2,0.2,0.5,0.2,0.8c0,0.3-0.1,0.6-0.2,0.8c-0.2,0.3-0.4,0.4-0.7,0.4c-0.3,0-0.5-0.1-0.7-0.4
		c-0.1-0.2-0.2-0.5-0.2-0.8C54.6,7.9,54.7,7.6,54.8,7.4z"/>
	<path class="st0" d="M58.7,8c-0.4,0.2-0.5,0.6-0.5,1c0,0.3,0.1,0.5,0.3,0.7c0.2,0.2,0.5,0.3,0.8,0.3c0.4,0,0.8-0.2,1-0.5h0l0.1,0.4
		H61c0-0.2-0.1-0.5-0.1-0.8V7.8c0-1-0.5-1.4-1.4-1.4c-0.5,0-0.9,0.1-1.2,0.3l0.2,0.5c0.3-0.2,0.6-0.3,0.9-0.3c0.5,0,0.7,0.2,0.7,0.7
		v0.1C59.5,7.7,59,7.8,58.7,8z M60.2,8.2v0.5c0,0.1,0,0.1,0,0.1c0,0.2-0.1,0.3-0.3,0.4c-0.1,0.1-0.3,0.2-0.5,0.2
		c-0.2,0-0.3,0-0.4-0.1c-0.1-0.1-0.1-0.2-0.1-0.4C58.9,8.4,59.3,8.2,60.2,8.2z"/>
	<path class="st0" d="M63.5,10c0.5,0,0.9-0.2,1.1-0.6h0l0,0.6h0.7c0-0.3,0-0.6,0-0.9V4.9h-0.8v2h0c-0.2-0.3-0.5-0.5-1-0.5
		c-0.4,0-0.8,0.2-1.1,0.5c-0.3,0.3-0.5,0.8-0.5,1.4c0,0.5,0.1,1,0.4,1.3C62.8,9.9,63.1,10,63.5,10z M63.1,7.3
		C63.3,7.1,63.5,7,63.8,7c0.2,0,0.4,0.1,0.5,0.2c0.1,0.1,0.2,0.3,0.3,0.5c0,0.1,0,0.1,0,0.2v0.6c0,0.2-0.1,0.5-0.2,0.6
		c-0.2,0.2-0.4,0.3-0.6,0.3c-0.3,0-0.5-0.1-0.7-0.3c-0.2-0.2-0.2-0.5-0.2-0.8C62.8,7.9,62.9,7.6,63.1,7.3z"/>
	<path class="st0" d="M70.3,10c0.5,0,1-0.2,1.3-0.5C71.9,9.2,72,8.7,72,8.2c0-0.5-0.1-0.9-0.4-1.3c-0.3-0.3-0.7-0.5-1.2-0.5
		c-0.5,0-1,0.2-1.3,0.5c-0.3,0.3-0.5,0.8-0.5,1.3c0,0.5,0.2,0.9,0.5,1.3C69.4,9.9,69.8,10,70.3,10z M69.6,7.4C69.8,7.1,70,7,70.3,7
		c0.3,0,0.5,0.1,0.7,0.4c0.1,0.2,0.2,0.5,0.2,0.8c0,0.3-0.1,0.6-0.2,0.8c-0.2,0.3-0.4,0.4-0.7,0.4c-0.3,0-0.5-0.1-0.7-0.4
		c-0.1-0.2-0.2-0.5-0.2-0.8C69.4,7.9,69.5,7.6,69.6,7.4z"/>
	<path class="st0" d="M73.2,10H74V7.9c0-0.2,0.1-0.4,0.2-0.6C74.3,7.1,74.5,7,74.7,7c0.5,0,0.7,0.3,0.7,0.9v2h0.8V7.9
		c0-0.5-0.1-0.9-0.4-1.2c-0.2-0.2-0.5-0.3-0.8-0.3c-0.3,0-0.5,0.1-0.7,0.2C74.1,6.7,74,6.8,73.9,7h0l0-0.5h-0.7c0,0.4,0,0.7,0,1V10z
		"/>
	<path class="st0" d="M79.8,8.8c0,0.4,0.1,0.8,0.3,0.9c0.2,0.2,0.4,0.3,0.7,0.3c0.2,0,0.4,0,0.6-0.1l0-0.6c-0.1,0-0.2,0-0.3,0
		c-0.3,0-0.5-0.2-0.5-0.6V7h0.9V6.5h-0.9V5.6l-0.8,0.2v0.6h-0.5V7h0.5V8.8z"/>
	<path class="st0" d="M82.5,10h0.8V7.9c0-0.1,0-0.2,0-0.3C83.5,7.2,83.7,7,84.1,7c0.5,0,0.7,0.3,0.7,0.9v2h0.8V7.9
		c0-0.5-0.1-0.9-0.4-1.2c-0.2-0.2-0.5-0.3-0.8-0.3c-0.5,0-0.8,0.2-1,0.6h0V4.9h-0.8V10z"/>
	<path class="st0" d="M88.4,10c0.5,0,0.8-0.1,1.2-0.2l-0.1-0.5c-0.3,0.1-0.6,0.2-0.9,0.2c-0.3,0-0.6-0.1-0.8-0.2
		c-0.2-0.2-0.3-0.4-0.3-0.8h2.3c0-0.1,0-0.2,0-0.4c0-0.4-0.1-0.8-0.3-1.1c-0.3-0.4-0.6-0.6-1.1-0.6c-0.5,0-0.9,0.2-1.2,0.6
		c-0.3,0.3-0.4,0.8-0.4,1.3c0,0.5,0.2,1,0.5,1.3C87.5,9.9,87.9,10,88.4,10z M87.7,7.2C87.8,7,88,6.9,88.3,6.9c0.3,0,0.5,0.1,0.6,0.3
		C89,7.4,89,7.6,89,7.8h-1.6C87.5,7.6,87.5,7.4,87.7,7.2z"/>
</g>
</svg>
