<?xml version="1.0" encoding="utf-8"?>
<!-- Generator: Adobe Illustrator 19.2.0, SVG Export Plug-In . SVG Version: 6.00 Build 0)  -->
<!DOCTYPE svg PUBLIC "-//W3C//DTD SVG 1.1//EN" "http://www.w3.org/Graphics/SVG/1.1/DTD/svg11.dtd">
<svg version="1.1" id="US_UK_Download_on_the" xmlns="http://www.w3.org/2000/svg" xmlns:xlink="http://www.w3.org/1999/xlink"
	 x="0px" y="0px" viewBox="0 0 99.6 29.6" style="enable-background:new 0 0 99.6 29.6;" xml:space="preserve">
<style type="text/css">
	.st0{display:none;}
	.st1{display:inline;fill:#FFFFFF;}
	.st2{display:none;fill:#FFFFFF;fill-opacity:0;}
	.st3{display:inline;}
	.st4{fill:#FFFFFF;}
	.st5{fill:#FFFFFF;stroke:#FFFFFF;stroke-width:0.2;stroke-miterlimit:10;}
	.st6{fill:url(#SVGID_1_);}
	.st7{fill:url(#SVGID_2_);}
	.st8{fill:url(#SVGID_3_);}
	.st9{fill:url(#SVGID_4_);}
	.st10{opacity:0.2;enable-background:new    ;}
	.st11{opacity:0.12;enable-background:new    ;}
	.st12{opacity:0.25;fill:#FFFFFF;enable-background:new    ;}
</style>
<g class="st0">
	<path class="st1" d="M100,3.5c0-1.9-1.6-3.5-3.6-3.5H3.5C1.6,0,0,1.6,0,3.5v22.6c0,1.9,1.6,3.5,3.5,3.5h92.9c1.9,0,3.6-1.6,3.6-3.5
		V3.5z M96.4,29H3.5c-1.6,0-2.8-1.3-2.8-2.8V3.5c0-1.6,1.3-2.8,2.8-2.8h92.9c1.6,0,2.8,1.3,2.8,2.8v22.6h0C99.3,27.7,98,29,96.4,29z
		"/>
	<path class="st1" d="M23.5,21.2c0.9-1.3,1.3-2.6,1.3-2.7c0,0-2.5-1-2.5-3.8c0-2.4,2-3.5,2-3.6c-1.1-1.6-2.9-1.9-3.5-1.9
		c-1.5-0.2-2.9,0.9-3.6,0.9c-0.8,0-1.9-0.9-3.1-0.8c-1.6,0-3.1,0.9-3.9,2.4c-1.7,2.9-0.4,7.2,1.2,9.5c0.8,1.2,1.7,2.4,3,2.4
		c1.2,0,1.7-0.8,3.1-0.8c1.4,0,1.9,0.8,3.1,0.7C21.9,23.5,22.8,22.3,23.5,21.2z"/>
	<path class="st1" d="M19.9,7.6c0.6-0.8,1.1-1.9,1-3c-0.9,0-2.1,0.6-2.8,1.4c-0.6,0.7-1.1,1.8-1,2.9C18.2,9,19.3,8.4,19.9,7.6z"/>
	<path class="st1" d="M34.6,13.5l-3.2,9.9h1.6l0.9-2.9h3.2l0.9,2.9h1.7l-3.2-9.9H34.6z M34.2,19.2l0.8-2.6c0.2-0.8,0.4-1.4,0.5-1.9
		h0c0.2,1,0.4,1.6,0.5,1.9l0.8,2.6H34.2z"/>
	<path class="st1" d="M46.9,22.6c0.7-0.7,1-1.7,1-2.9c0-1.1-0.3-2-0.8-2.6c-0.6-0.7-1.3-1-2.1-1c-1.1,0-1.9,0.4-2.4,1.3h0l-0.1-1.1
		h-1.4c0,0.8,0.1,1.6,0.1,2.3v7.7h1.6v-3.7h0c0.4,0.7,1.1,1,2,1C45.6,23.5,46.3,23.2,46.9,22.6z M42.7,20.4v-1.2
		c0-0.1,0-0.3,0.1-0.5c0.1-0.4,0.3-0.8,0.6-1c0.3-0.3,0.7-0.4,1.1-0.4c0.6,0,1,0.2,1.4,0.7c0.3,0.4,0.5,1,0.5,1.7
		c0,0.8-0.2,1.4-0.5,1.8c-0.3,0.5-0.8,0.7-1.4,0.7c-0.5,0-0.9-0.2-1.2-0.5C42.8,21.4,42.7,20.9,42.7,20.4z"/>
	<path class="st1" d="M55.1,22.6c0.7-0.7,1-1.7,1-2.9c0-1.1-0.3-2-0.8-2.6c-0.6-0.7-1.3-1-2.1-1c-1.1,0-1.9,0.4-2.4,1.3h0l-0.1-1.1
		h-1.4c0,0.8,0.1,1.6,0.1,2.3v7.7h1.6v-3.7h0c0.4,0.7,1.1,1,2,1C53.8,23.5,54.5,23.2,55.1,22.6z M50.9,20.4v-1.2
		c0-0.1,0-0.3,0.1-0.5c0.1-0.4,0.3-0.8,0.6-1c0.3-0.3,0.7-0.4,1.1-0.4c0.6,0,1,0.2,1.4,0.7c0.3,0.4,0.5,1,0.5,1.7
		c0,0.8-0.2,1.4-0.5,1.8c-0.3,0.5-0.8,0.7-1.4,0.7c-0.5,0-0.9-0.2-1.2-0.5C51,21.4,50.9,20.9,50.9,20.4z"/>
	<path class="st1" d="M64.3,22.6c0.6-0.5,0.9-1.2,0.9-2c0-0.7-0.2-1.3-0.6-1.7c-0.4-0.5-1-0.9-1.9-1.2c-0.7-0.3-1.2-0.5-1.4-0.8
		c-0.3-0.3-0.5-0.6-0.5-1c0-0.4,0.1-0.6,0.4-0.9c0.3-0.3,0.7-0.4,1.3-0.4c0.7,0,1.3,0.2,1.9,0.5l0.4-1.3c-0.6-0.3-1.3-0.5-2.2-0.5
		c-1,0-1.8,0.3-2.4,0.8c-0.6,0.5-0.9,1.2-0.9,2c0,1.2,0.9,2.2,2.6,2.8c0.6,0.2,1.1,0.5,1.4,0.8c0.3,0.3,0.4,0.6,0.4,1
		c0,0.4-0.2,0.8-0.5,1.1c-0.3,0.3-0.8,0.4-1.4,0.4c-0.8,0-1.6-0.2-2.3-0.6l-0.4,1.3c0.6,0.4,1.5,0.6,2.6,0.6
		C62.8,23.5,63.7,23.2,64.3,22.6z"/>
	<path class="st1" d="M70.4,23.3l0-1.2c-0.2,0-0.4,0.1-0.7,0.1c-0.6,0-0.9-0.4-0.9-1.3v-3.5h1.7v-1.2h-1.7v-1.8l-1.6,0.5v1.3h-1v1.2
		h1V21c0,0.9,0.2,1.5,0.5,1.9c0.4,0.4,0.8,0.6,1.5,0.6C69.6,23.5,70.1,23.4,70.4,23.3z"/>
	<path class="st1" d="M77.4,22.4c0.6-0.7,0.9-1.6,0.9-2.7c0-1.1-0.3-1.9-0.9-2.6c-0.6-0.7-1.5-1-2.5-1c-1.1,0-1.9,0.4-2.6,1.1
		c-0.6,0.7-1,1.6-1,2.7c0,1.1,0.3,1.9,0.9,2.6c0.6,0.7,1.4,1,2.5,1C75.8,23.5,76.7,23.1,77.4,22.4z M73.4,21.5
		c-0.3-0.5-0.4-1-0.4-1.7c0-0.7,0.1-1.2,0.4-1.7c0.3-0.6,0.8-0.9,1.4-0.9c0.6,0,1.1,0.3,1.4,0.9c0.3,0.5,0.4,1,0.4,1.7
		c0,0.7-0.1,1.2-0.4,1.7c-0.3,0.6-0.8,0.9-1.4,0.9C74.2,22.3,73.7,22.1,73.4,21.5z"/>
	<path class="st1" d="M81.6,18.2c0.3-0.4,0.7-0.6,1.3-0.6c0.2,0,0.3,0,0.5,0v-1.5c-0.1,0-0.2,0-0.4,0c-0.4,0-0.8,0.1-1.1,0.4
		c-0.4,0.3-0.6,0.7-0.8,1.1h0L81,16.2h-1.4c0,0.7,0.1,1.4,0.1,2.2l0,4.9h1.6v-3.7C81.2,19,81.4,18.6,81.6,18.2z"/>
	<path class="st1" d="M90.1,23l-0.2-1.1c-0.6,0.2-1.2,0.3-1.9,0.3c-0.6,0-1.2-0.2-1.5-0.5c-0.4-0.4-0.7-0.9-0.7-1.6h4.7
		c0-0.2,0.1-0.4,0.1-0.7c0-0.9-0.2-1.6-0.6-2.2c-0.5-0.8-1.3-1.1-2.3-1.1c-1,0-1.9,0.4-2.5,1.1c-0.6,0.7-0.9,1.6-0.9,2.7
		c0,1.1,0.3,2,0.9,2.6c0.6,0.6,1.5,1,2.6,1C88.6,23.5,89.4,23.3,90.1,23z M86.2,17.8c0.3-0.4,0.7-0.6,1.3-0.6c0.6,0,1,0.2,1.3,0.7
		c0.2,0.3,0.3,0.7,0.3,1.2h-3.3C85.7,18.6,85.9,18.1,86.2,17.8z"/>
	<path class="st1" d="M33.5,10c0.9,0,1.6-0.2,2.1-0.6c0.5-0.4,0.8-1.1,0.8-2c0-0.8-0.2-1.4-0.7-1.8c-0.4-0.4-1.1-0.6-1.9-0.6
		c-0.5,0-0.9,0-1.3,0.1v4.8C32.7,10,33,10,33.5,10z M33.1,5.7c0.2,0,0.4-0.1,0.6-0.1c0.6,0,1,0.2,1.3,0.5c0.3,0.3,0.4,0.7,0.4,1.3
		c0,0.6-0.2,1.1-0.5,1.4c-0.3,0.3-0.8,0.5-1.4,0.5c-0.3,0-0.4,0-0.5,0V5.7z"/>
	<path class="st1" d="M38.9,10c0.5,0,1-0.2,1.3-0.5c0.3-0.3,0.5-0.8,0.5-1.3c0-0.5-0.1-0.9-0.4-1.3c-0.3-0.3-0.7-0.5-1.2-0.5
		c-0.5,0-1,0.2-1.3,0.5c-0.3,0.3-0.5,0.8-0.5,1.3c0,0.5,0.2,0.9,0.5,1.3C38,9.9,38.4,10,38.9,10z M38.3,7.4C38.4,7.1,38.7,7,39,7
		c0.3,0,0.5,0.1,0.7,0.4c0.1,0.2,0.2,0.5,0.2,0.8c0,0.3-0.1,0.6-0.2,0.8c-0.2,0.3-0.4,0.4-0.7,0.4c-0.3,0-0.5-0.1-0.7-0.4
		C38.1,8.8,38,8.5,38,8.2C38,7.9,38.1,7.6,38.3,7.4z"/>
	<path class="st1" d="M42.5,10h0.7l0.5-1.5c0.1-0.4,0.2-0.7,0.3-1.1h0c0.1,0.4,0.2,0.7,0.3,1.1l0.5,1.5h0.7l1.1-3.5h-0.8l-0.4,1.6
		c-0.1,0.4-0.2,0.8-0.2,1.1h0c-0.1-0.4-0.2-0.8-0.3-1.1l-0.5-1.6h-0.6l-0.5,1.7c-0.1,0.5-0.2,0.8-0.3,1.1h0
		c-0.1-0.4-0.1-0.7-0.2-1.1l-0.4-1.7h-0.8L42.5,10z"/>
	<path class="st1" d="M47.5,10h0.8V7.9c0-0.2,0.1-0.4,0.2-0.6C48.6,7.1,48.8,7,49,7c0.5,0,0.7,0.3,0.7,0.9v2h0.8V7.9
		c0-0.5-0.1-0.9-0.4-1.2c-0.2-0.2-0.5-0.3-0.8-0.3c-0.3,0-0.5,0.1-0.7,0.2c-0.2,0.1-0.3,0.3-0.4,0.4h0l0-0.5h-0.7c0,0.4,0,0.7,0,1
		V10z"/>
	<rect x="51.9" y="4.9" class="st1" width="0.8" height="5.1"/>
	<path class="st1" d="M55.5,10c0.5,0,1-0.2,1.3-0.5c0.3-0.3,0.5-0.8,0.5-1.3c0-0.5-0.1-0.9-0.4-1.3c-0.3-0.3-0.7-0.5-1.2-0.5
		c-0.5,0-1,0.2-1.3,0.5c-0.3,0.3-0.5,0.8-0.5,1.3c0,0.5,0.2,0.9,0.5,1.3C54.6,9.9,55,10,55.5,10z M54.8,7.4C55,7.1,55.2,7,55.5,7
		c0.3,0,0.5,0.1,0.7,0.4c0.1,0.2,0.2,0.5,0.2,0.8c0,0.3-0.1,0.6-0.2,0.8c-0.2,0.3-0.4,0.4-0.7,0.4c-0.3,0-0.5-0.1-0.7-0.4
		c-0.1-0.2-0.2-0.5-0.2-0.8C54.6,7.9,54.7,7.6,54.8,7.4z"/>
	<path class="st1" d="M58.7,8c-0.4,0.2-0.5,0.6-0.5,1c0,0.3,0.1,0.5,0.3,0.7c0.2,0.2,0.5,0.3,0.8,0.3c0.4,0,0.8-0.2,1-0.5h0l0.1,0.4
		H61c0-0.2-0.1-0.5-0.1-0.8V7.8c0-1-0.5-1.4-1.4-1.4c-0.5,0-0.9,0.1-1.2,0.3l0.2,0.5c0.3-0.2,0.6-0.3,0.9-0.3c0.5,0,0.7,0.2,0.7,0.7
		v0.1C59.5,7.7,59,7.8,58.7,8z M60.2,8.2v0.5c0,0.1,0,0.1,0,0.1c0,0.2-0.1,0.3-0.3,0.4c-0.1,0.1-0.3,0.2-0.5,0.2
		c-0.2,0-0.3,0-0.4-0.1c-0.1-0.1-0.1-0.2-0.1-0.4C58.9,8.4,59.3,8.2,60.2,8.2z"/>
	<path class="st1" d="M63.5,10c0.5,0,0.9-0.2,1.1-0.6h0l0,0.6h0.7c0-0.3,0-0.6,0-0.9V4.9h-0.8v2h0c-0.2-0.3-0.5-0.5-1-0.5
		c-0.4,0-0.8,0.2-1.1,0.5c-0.3,0.3-0.5,0.8-0.5,1.4c0,0.5,0.1,1,0.4,1.3C62.8,9.9,63.1,10,63.5,10z M63.1,7.3
		C63.3,7.1,63.5,7,63.8,7c0.2,0,0.4,0.1,0.5,0.2c0.1,0.1,0.2,0.3,0.3,0.5c0,0.1,0,0.1,0,0.2v0.6c0,0.2-0.1,0.5-0.2,0.6
		c-0.2,0.2-0.4,0.3-0.6,0.3c-0.3,0-0.5-0.1-0.7-0.3c-0.2-0.2-0.2-0.5-0.2-0.8C62.8,7.9,62.9,7.6,63.1,7.3z"/>
	<path class="st1" d="M70.3,10c0.5,0,1-0.2,1.3-0.5C71.9,9.2,72,8.7,72,8.2c0-0.5-0.1-0.9-0.4-1.3c-0.3-0.3-0.7-0.5-1.2-0.5
		c-0.5,0-1,0.2-1.3,0.5c-0.3,0.3-0.5,0.8-0.5,1.3c0,0.5,0.2,0.9,0.5,1.3C69.4,9.9,69.8,10,70.3,10z M69.6,7.4C69.8,7.1,70,7,70.3,7
		c0.3,0,0.5,0.1,0.7,0.4c0.1,0.2,0.2,0.5,0.2,0.8c0,0.3-0.1,0.6-0.2,0.8c-0.2,0.3-0.4,0.4-0.7,0.4c-0.3,0-0.5-0.1-0.7-0.4
		c-0.1-0.2-0.2-0.5-0.2-0.8C69.4,7.9,69.5,7.6,69.6,7.4z"/>
	<path class="st1" d="M73.2,10H74V7.9c0-0.2,0.1-0.4,0.2-0.6C74.3,7.1,74.5,7,74.7,7c0.5,0,0.7,0.3,0.7,0.9v2h0.8V7.9
		c0-0.5-0.1-0.9-0.4-1.2c-0.2-0.2-0.5-0.3-0.8-0.3c-0.3,0-0.5,0.1-0.7,0.2C74.1,6.7,74,6.8,73.9,7h0l0-0.5h-0.7c0,0.4,0,0.7,0,1V10z
		"/>
	<path class="st1" d="M79.8,8.8c0,0.4,0.1,0.8,0.3,0.9c0.2,0.2,0.4,0.3,0.7,0.3c0.2,0,0.4,0,0.6-0.1l0-0.6c-0.1,0-0.2,0-0.3,0
		c-0.3,0-0.5-0.2-0.5-0.6V7h0.9V6.5h-0.9V5.6l-0.8,0.2v0.6h-0.5V7h0.5V8.8z"/>
	<path class="st1" d="M82.5,10h0.8V7.9c0-0.1,0-0.2,0-0.3C83.5,7.2,83.7,7,84.1,7c0.5,0,0.7,0.3,0.7,0.9v2h0.8V7.9
		c0-0.5-0.1-0.9-0.4-1.2c-0.2-0.2-0.5-0.3-0.8-0.3c-0.5,0-0.8,0.2-1,0.6h0V4.9h-0.8V10z"/>
	<path class="st1" d="M88.4,10c0.5,0,0.8-0.1,1.2-0.2l-0.1-0.5c-0.3,0.1-0.6,0.2-0.9,0.2c-0.3,0-0.6-0.1-0.8-0.2
		c-0.2-0.2-0.3-0.4-0.3-0.8h2.3c0-0.1,0-0.2,0-0.4c0-0.4-0.1-0.8-0.3-1.1c-0.3-0.4-0.6-0.6-1.1-0.6c-0.5,0-0.9,0.2-1.2,0.6
		c-0.3,0.3-0.4,0.8-0.4,1.3c0,0.5,0.2,1,0.5,1.3C87.5,9.9,87.9,10,88.4,10z M87.7,7.2C87.8,7,88,6.9,88.3,6.9c0.3,0,0.5,0.1,0.6,0.3
		C89,7.4,89,7.6,89,7.8h-1.6C87.5,7.6,87.5,7.4,87.7,7.2z"/>
</g>
<g>
	<rect x="-7.3" y="-7.3" class="st2" width="114.2" height="44.2"/>
	<g class="st0">
		<path class="st3" d="M95.9,29.6H3.8c-2,0-3.7-1.7-3.7-3.7V3.8c0-2,1.7-3.7,3.7-3.7h92.1c2,0,3.7,1.7,3.7,3.7v22.1
			C99.6,27.9,98,29.6,95.9,29.6z"/>
	</g>
	<g>
		<g>
			<path class="st4" d="M95.9,0.7c1.7,0,3.1,1.4,3.1,3.1v22.1c0,1.7-1.4,3.1-3.1,3.1H3.8c-1.7,0-3.1-1.4-3.1-3.1V3.8
				c0-1.7,1.4-3.1,3.1-3.1H95.9 M95.9,0.1H3.8c-2,0-3.7,1.7-3.7,3.7v22.1c0,2,1.7,3.7,3.7,3.7h92.1c2,0,3.7-1.7,3.7-3.7V3.8
				C99.6,1.8,98,0.1,95.9,0.1L95.9,0.1z"/>
		</g>
	</g>
	<g>
		<path class="st5" d="M35.1,7.7c0,0.6-0.2,1.1-0.5,1.5c-0.4,0.4-1,0.7-1.6,0.7c-0.6,0-1.2-0.2-1.6-0.7c-0.4-0.4-0.7-1-0.7-1.6
			c0-0.7,0.2-1.2,0.7-1.6c0.4-0.4,1-0.7,1.6-0.7c0.3,0,0.6,0.1,0.9,0.2c0.3,0.1,0.5,0.3,0.7,0.5l-0.4,0.4c-0.3-0.3-0.7-0.5-1.2-0.5
			c-0.5,0-0.9,0.2-1.2,0.5c-0.3,0.3-0.5,0.8-0.5,1.3s0.2,0.9,0.5,1.3c0.3,0.3,0.7,0.5,1.2,0.5c0.5,0,0.9-0.2,1.2-0.5
			c0.2-0.2,0.3-0.5,0.4-0.9h-1.6V7.3H35C35.1,7.4,35.1,7.6,35.1,7.7z"/>
		<path class="st5" d="M38.5,5.8h-2v1.4h1.8v0.5h-1.8v1.4h2v0.5h-2.6V5.3h2.6V5.8z"/>
		<path class="st5" d="M40.9,9.7h-0.6V5.8h-1.2V5.3h3v0.5h-1.2V9.7z"/>
		<path class="st5" d="M44.3,9.7V5.3h0.6v4.4H44.3z"/>
		<path class="st5" d="M47.4,9.7h-0.6V5.8h-1.2V5.3h3v0.5h-1.2V9.7z"/>
		<path class="st5" d="M54.4,9.1c-0.4,0.4-1,0.7-1.6,0.7c-0.6,0-1.2-0.2-1.6-0.7c-0.4-0.4-0.7-1-0.7-1.6s0.2-1.2,0.7-1.6
			c0.4-0.4,1-0.7,1.6-0.7c0.6,0,1.2,0.2,1.6,0.7c0.4,0.4,0.7,1,0.7,1.6C55,8.1,54.8,8.7,54.4,9.1z M51.5,8.7
			c0.3,0.3,0.7,0.5,1.2,0.5c0.5,0,0.9-0.2,1.2-0.5c0.3-0.3,0.5-0.8,0.5-1.3s-0.2-0.9-0.5-1.3c-0.3-0.3-0.7-0.5-1.2-0.5
			c-0.5,0-0.9,0.2-1.2,0.5c-0.3,0.3-0.5,0.8-0.5,1.3S51.2,8.4,51.5,8.7z"/>
		<path class="st5" d="M55.8,9.7V5.3h0.7l2.1,3.4h0l0-0.9V5.3h0.6v4.4h-0.6l-2.2-3.6h0l0,0.9v2.8H55.8z"/>
	</g>
	<path class="st4" d="M50.3,16.1c-1.7,0-3.1,1.3-3.1,3.1c0,1.8,1.4,3.1,3.1,3.1c1.7,0,3.1-1.3,3.1-3.1
		C53.5,17.5,52.1,16.1,50.3,16.1z M50.3,21.2c-0.9,0-1.8-0.8-1.8-1.9c0-1.1,0.8-1.9,1.8-1.9c0.9,0,1.8,0.8,1.8,1.9
		C52.1,20.4,51.3,21.2,50.3,21.2z M43.5,16.1c-1.7,0-3.1,1.3-3.1,3.1c0,1.8,1.4,3.1,3.1,3.1c1.7,0,3.1-1.3,3.1-3.1
		C46.6,17.5,45.2,16.1,43.5,16.1z M43.5,21.2c-0.9,0-1.8-0.8-1.8-1.9c0-1.1,0.8-1.9,1.8-1.9c0.9,0,1.8,0.8,1.8,1.9
		C45.2,20.4,44.4,21.2,43.5,21.2z M35.3,17.1v1.3h3.2c-0.1,0.7-0.3,1.3-0.7,1.7c-0.5,0.5-1.2,1-2.5,1c-2,0-3.5-1.6-3.5-3.5
		s1.5-3.5,3.5-3.5c1.1,0,1.8,0.4,2.4,0.9l0.9-0.9c-0.8-0.8-1.9-1.3-3.3-1.3c-2.7,0-4.9,2.2-4.9,4.9c0,2.7,2.3,4.9,4.9,4.9
		c1.4,0,2.5-0.5,3.4-1.4c0.9-0.9,1.2-2.1,1.2-3.1c0-0.3,0-0.6-0.1-0.8H35.3z M68.7,18.1c-0.3-0.7-1.1-2-2.7-2c-1.6,0-3,1.3-3,3.1
		c0,1.8,1.3,3.1,3.1,3.1c1.4,0,2.3-0.9,2.6-1.4l-1.1-0.7c-0.4,0.5-0.8,0.9-1.5,0.9c-0.7,0-1.2-0.3-1.5-0.9l4.2-1.7L68.7,18.1z
		 M64.4,19.2c0-1.2,0.9-1.8,1.6-1.8c0.5,0,1,0.3,1.2,0.7L64.4,19.2z M61,22.2h1.4V13H61V22.2z M58.8,16.8L58.8,16.8
		c-0.4-0.4-0.9-0.7-1.7-0.7c-1.6,0-3,1.4-3,3.1c0,1.8,1.4,3.1,3,3.1c0.7,0,1.3-0.3,1.7-0.7h0v0.5c0,1.2-0.6,1.8-1.7,1.8
		c-0.8,0-1.4-0.6-1.6-1.1l-1.2,0.5c0.3,0.8,1.3,1.9,2.8,1.9c1.6,0,3-0.9,3-3.3v-5.6h-1.3V16.8z M57.2,21.2c-0.9,0-1.7-0.8-1.7-1.9
		c0-1.1,0.8-1.9,1.7-1.9c0.9,0,1.7,0.8,1.7,1.9C58.9,20.4,58.1,21.2,57.2,21.2z M75.1,13h-3.3v9.2h1.4v-3.5h1.9c1.5,0,3-1.1,3-2.9
		S76.7,13,75.1,13z M75.2,17.4h-2v-3.2h2c1,0,1.6,0.9,1.6,1.6C76.8,16.6,76.2,17.4,75.2,17.4z M83.7,16.1c-1,0-2,0.4-2.5,1.4
		l1.2,0.5c0.3-0.5,0.7-0.7,1.3-0.7c0.7,0,1.4,0.4,1.4,1.2v0.1c-0.2-0.1-0.8-0.4-1.4-0.4c-1.3,0-2.7,0.7-2.7,2.1c0,1.2,1.1,2,2.3,2
		c0.9,0,1.4-0.4,1.8-0.9h0v0.7h1.3v-3.5C86.5,17,85.3,16.1,83.7,16.1z M83.5,21.2c-0.5,0-1.1-0.2-1.1-0.8c0-0.7,0.8-1,1.5-1
		c0.6,0,0.9,0.1,1.3,0.3C85,20.6,84.3,21.2,83.5,21.2z M91.3,16.3l-1.6,4h0l-1.6-4h-1.5l2.5,5.6L87.6,25h1.4l3.8-8.7H91.3z
		 M78.9,22.2h1.4V13h-1.4V22.2z"/>
	<g>
		
			<linearGradient id="SVGID_1_" gradientUnits="userSpaceOnUse" x1="16.1801" y1="35.4721" x2="3.811" y2="23.103" gradientTransform="matrix(1 0 0 -1 0 42)">
			<stop  offset="0" style="stop-color:#00A0FF"/>
			<stop  offset="6.574450e-03" style="stop-color:#00A1FF"/>
			<stop  offset="0.2601" style="stop-color:#00BEFF"/>
			<stop  offset="0.5122" style="stop-color:#00D2FF"/>
			<stop  offset="0.7604" style="stop-color:#00DFFF"/>
			<stop  offset="1" style="stop-color:#00E3FF"/>
		</linearGradient>
		<path class="st6" d="M7.8,5.7c-0.2,0.2-0.3,0.6-0.3,1V23c0,0.5,0.1,0.8,0.3,1l0.1,0.1L17,15v-0.1v-0.1L7.8,5.7L7.8,5.7z"/>
		
			<linearGradient id="SVGID_2_" gradientUnits="userSpaceOnUse" x1="25.05" y1="27.1498" x2="7.2162" y2="27.1498" gradientTransform="matrix(1 0 0 -1 0 42)">
			<stop  offset="0" style="stop-color:#FFE000"/>
			<stop  offset="0.4087" style="stop-color:#FFBD00"/>
			<stop  offset="0.7754" style="stop-color:#FFA500"/>
			<stop  offset="1" style="stop-color:#FF9C00"/>
		</linearGradient>
		<path class="st7" d="M20,18l-3-3v-0.1v-0.1l3-3l0.1,0l3.6,2c1,0.6,1,1.5,0,2.1L20,18L20,18z"/>
		
			<linearGradient id="SVGID_3_" gradientUnits="userSpaceOnUse" x1="18.4113" y1="25.4586" x2="1.6377" y2="8.685" gradientTransform="matrix(1 0 0 -1 0 42)">
			<stop  offset="0" style="stop-color:#FF3A44"/>
			<stop  offset="1" style="stop-color:#C31162"/>
		</linearGradient>
		<path class="st8" d="M20.1,18L17,14.8L7.8,24c0.3,0.4,0.9,0.4,1.5,0L20.1,18"/>
		
			<linearGradient id="SVGID_4_" gradientUnits="userSpaceOnUse" x1="5.4914" y1="41.7616" x2="12.9815" y2="34.2715" gradientTransform="matrix(1 0 0 -1 0 42)">
			<stop  offset="0" style="stop-color:#32A071"/>
			<stop  offset="6.850000e-02" style="stop-color:#2DA771"/>
			<stop  offset="0.4762" style="stop-color:#15CF74"/>
			<stop  offset="0.8009" style="stop-color:#06E775"/>
			<stop  offset="1" style="stop-color:#00F076"/>
		</linearGradient>
		<path class="st9" d="M20.1,11.7L9.3,5.6c-0.6-0.4-1.2-0.3-1.5,0l9.2,9.2L20.1,11.7z"/>
		<g>
			<path class="st10" d="M20,17.9L9.3,24c-0.6,0.3-1.1,0.3-1.5,0l0,0L7.8,24l0,0l0.1,0.1l0,0c0.3,0.3,0.9,0.3,1.5,0L20,17.9L20,17.9
				z"/>
			<path class="st11" d="M7.8,23.9c-0.2-0.2-0.3-0.6-0.3-1V23c0,0.5,0.1,0.8,0.3,1V23.9L7.8,23.9z"/>
		</g>
		<path class="st11" d="M23.7,15.8L20,17.9l0.1,0.1l3.6-2c0.5-0.3,0.8-0.7,0.8-1.1l0,0C24.4,15.2,24.2,15.5,23.7,15.8z"/>
		<path class="st12" d="M9.3,5.7l14.4,8.2c0.5,0.3,0.7,0.6,0.8,1l0,0c0-0.4-0.3-0.8-0.8-1.1L9.3,5.6C8.3,5,7.5,5.5,7.5,6.7v0.1
			C7.5,5.6,8.3,5.1,9.3,5.7z"/>
	</g>
</g>
</svg>
