<svg width="9" height="5" viewBox="0 0 9 5" fill="none" xmlns="http://www.w3.org/2000/svg">
<path fill-rule="evenodd" clip-rule="evenodd" d="M0.353447 0.353447C0.548709 0.158185 0.865292 0.158185 1.06055 0.353447L4.58955 3.88245C4.78482 4.07771 4.78482 4.39429 4.58955 4.58955C4.39429 4.78482 4.07771 4.78482 3.88245 4.58955L0.353447 1.06055C0.158185 0.865292 0.158185 0.548709 0.353447 0.353447Z" fill="white"/>
<path fill-rule="evenodd" clip-rule="evenodd" d="M8.11855 0.353447C8.31382 0.548709 8.31382 0.865292 8.11855 1.06055L4.58955 4.58955C4.39429 4.78482 4.07771 4.78482 3.88245 4.58955C3.68719 4.39429 3.68719 4.07771 3.88245 3.88245L7.41145 0.353447C7.60671 0.158185 7.92329 0.158185 8.11855 0.353447Z" fill="white"/>
</svg>
