<svg xmlns="http://www.w3.org/2000/svg" xmlns:xlink="http://www.w3.org/1999/xlink" width="85" height="85" viewBox="0 0 85 85">
  <defs>
    <clipPath id="clip-path">
      <rect id="Rectangle_322" data-name="Rectangle 322" width="85" height="85" fill="#fff"/>
    </clipPath>
    <clipPath id="clip-Plan_de_travail_16">
      <rect width="85" height="85"/>
    </clipPath>
  </defs>
  <g id="Plan_de_travail_16" data-name="Plan de travail – 16" clip-path="url(#clip-Plan_de_travail_16)">
    <g id="Groupe_de_masques_13" data-name="Groupe de masques 13" clip-path="url(#clip-path)">
      <g id="Groupe_14" data-name="Groupe 14" transform="translate(-68.849 -74.431)">
        <path id="Tracé_15" data-name="Tracé 15" d="M316.955,374.361a114.811,114.811,0,0,1-1.606-12.7c-4.862-2.359-9.527-4.6-13.956-6.692a49.088,49.088,0,0,0,1.732,31.125c4.07,10.287,2.847,31.281-2.847,51.857-2.306,8.334-7.084,16.943-12.571,24.806,1.816,2.634,4.065,5.829,6.737,9.484,8.261-11.336,16.095-25.466,20.07-40.465,6.713-25.31,6.1-37.656,2.441-57.413" transform="translate(-156.574 -286.691)" fill="#fff0a1"/>
        <path id="Tracé_16" data-name="Tracé 16" d="M380.1,384.871q-7.107-3.485-14.209-7c-5.323,5.284-10,9.549-12.9,12.12-11.817,17.161-15.238,18.444-13.258,7.623A232,232,0,0,0,347.982,369l-12.388-6.152c-2.648,13.539-5.39,26.076-7.049,33.124-3.014,12.806,5.277,32.836-35.072,74.365q2.057,2.647,4.3,5.463c.9.828,1.794,1.672,2.688,2.519,13.258-15.334,29.089-34.219,42.525-50.863C354.652,413,368.543,398.971,380.1,384.871" transform="translate(-146.808 -273.111)" fill="#fff0a1"/>
        <path id="Tracé_17" data-name="Tracé 17" d="M375.983,407.854c5.942-10.451,11.332-19.909,15.86-28.377-4.822-2.31-9.767-4.744-14.667-7.13-7.647,11.858-12.932,24.224-14.088,28.031-1.63,5.349-12.612,23.458-38.237,48.153-8.356,8.054-17.045,16.023-24.994,23.709q2.675,2.794,5.3,5.649a215.593,215.593,0,0,1,18.422-14.44c15.947-13.294,40.454-34.557,52.408-55.594" transform="translate(-135.996 -256.735)" fill="#fff0a1"/>
        <path id="Tracé_18" data-name="Tracé 18" d="M248.811,396.039c-.14.275-.288.567-.442.863,1.974,8.146,3.577,16.505,2.788,25.839-1.756,20.74,2.387,40.337,6.769,35.328,4.345-12.283,9.32-23.641,10.01-31.313.932-10.38-7.631-32.779-9.907-54.524-3.871,10.331-6.9,19.218-9.218,23.807" transform="translate(-223.199 -256.931)" fill="#fff0a1"/>
        <path id="Tracé_19" data-name="Tracé 19" d="M359.8,406.448c.488-.558.97-1.125,1.455-1.686-15.424,7.525-38.479,19-54.649,31.842,2.85,3.4,5.611,6.8,8.275,10.156a70.926,70.926,0,0,1,14.007-9.031c3.558-1.64,8.986-5.622,14.231-9.824A258.177,258.177,0,0,1,359.8,406.448" transform="translate(-124.572 -200.862)" fill="#fff0a1"/>
        <path id="Tracé_20" data-name="Tracé 20" d="M255.413,397.682a31.959,31.959,0,0,0-.611-9.146c-5.87,11.107-12.714,24.741-15.777,35.023,1.29,10.252,4.216,15.538,6.22,22.383a66.253,66.253,0,0,1,1.875,13.332,64.227,64.227,0,0,0,4.528,5.918c4.148,4.837,8.674,7.321,13.377,7.792q.368-4.469.558-9.347c.059-1.536.2-3.088.388-4.652-1.759-7.141-3.58-19.659-6.9-27.658a64.368,64.368,0,0,1-3.661-33.645" transform="translate(-239.025 -228.829)" fill="#fff0a1"/>
        <path id="Tracé_21" data-name="Tracé 21" d="M296.35,376.539c-5.7,17.7-6.917,28.4-5.288,55.973s-3.663,37.041-10.985,44.863a58.785,58.785,0,0,0-10.7,16.072c9.622-6.61,19.677-11.6,27.68-15.639,8.674-20.822,14.05-55.886,13.126-67.11-1.22-14.813-.407-26.751,1.627-33.337,1.018-3.3,2.753-11.564,4.334-20.906-6.537-2.884-12.14-5.169-16.566-6.692.272,8.31-.272,17.6-3.224,26.776" transform="translate(-187.626 -295.659)" fill="#fff0a1"/>
        <path id="Tracé_22" data-name="Tracé 22" d="M358.117,411.317c5.412-8.778,6.247-19.722,10.508-28.867-5.369-2.443-6.78-3.129-12.4-5.777-12.124,19.37-27.99,46.329-29.552,56.444,11.443-6.049,23.069-14.914,31.443-21.8" transform="translate(-90.576 -249.276)" fill="#fff0a1"/>
        <path id="Tracé_23" data-name="Tracé 23" d="M294.642,413.041c10.872-14,9.016-48.769,11.863-70.174a68.345,68.345,0,0,1,2.5-11.088c-.089-.607-.172-1.228-.251-1.882-8.795,6.365-24.879,22.826-24.879,22.826l-4.34-5.913-1.673,2.116L276.7,374.255s6.958-8.168,11.432-12.888l.073.024c16.27-15.228-8.138,22.225-18.306,46.917a80.158,80.158,0,0,0-5.482,28.129H264.4a94.079,94.079,0,0,0,.673,16.57c.013.087.032.155.046.24a133.915,133.915,0,0,0,5.592,24.2c4.881,15.23.814,30.867-2.44,35.393s-11.392,22.639-10.982,32.926a162.679,162.679,0,0,1-.873,18.845,81.57,81.57,0,0,0,11.37-14,72.592,72.592,0,0,1,10.7-12.627c-.092-7.318-1.175-18.33,5.245-25.55,7.321-8.228,5.43-30.281,4.614-46.742s-4.652-38.539,6.3-52.65" transform="translate(-209.575 -329.898)" fill="#fff0a1"/>
        <path id="Tracé_24" data-name="Tracé 24" d="M328.245,532.3c5.635-38.351,36.348-68.515,43.263-79.249,7.443-8.141,34.843-40.966,16.523-74.063-.789,11.7,2.67,33.356-19.491,57.961-43.557,42.54-50.337,82.879-50.337,82.879l9,17.989Z" transform="translate(-108.617 -237.077)" fill="#fff0a1"/>
      </g>
    </g>
  </g>
</svg>
