<svg xmlns="http://www.w3.org/2000/svg" xmlns:xlink="http://www.w3.org/1999/xlink" width="85" height="85" viewBox="0 0 85 85">
  <defs>
    <clipPath id="clip-path">
      <rect id="Rectangle_322" data-name="Rectangle 322" width="85" height="85" fill="#fff"/>
    </clipPath>
    <clipPath id="clip-Plan_de_travail_17">
      <rect width="85" height="85"/>
    </clipPath>
  </defs>
  <g id="Plan_de_travail_17" data-name="Plan de travail – 17" clip-path="url(#clip-Plan_de_travail_17)">
    <g id="Groupe_de_masques_12" data-name="Groupe de masques 12" clip-path="url(#clip-path)">
      <g id="Groupe_14" data-name="Groupe 14" transform="matrix(-0.259, 0.966, -0.966, -0.259, 248.83, -109.028)">
        <path id="Tracé_15" data-name="Tracé 15" d="M32.039,20.46a119.059,119.059,0,0,1-1.7-13.214c-5.083-2.463-9.96-4.8-14.59-6.988a50.881,50.881,0,0,0,1.872,32.374c4.272,10.707,3.037,32.537-2.869,53.925-2.391,8.663-7.365,17.607-13.08,25.773,1.9,2.743,4.257,6.07,7.056,9.877,8.606-11.772,16.759-26.451,20.881-42.042,6.96-26.309,6.3-39.15,2.433-59.7" transform="translate(138.295 72.543)" fill="#3aafa9"/>
        <path id="Tracé_16" data-name="Tracé 16" d="M91.977,23.728q-7.43-3.639-14.855-7.306C71.574,21.906,66.7,26.332,63.673,29,51.365,46.824,47.795,48.151,49.841,36.9A239.718,239.718,0,0,0,58.4,7.154L45.449.73c-2.738,14.075-5.577,27.107-7.3,34.435-3.122,13.312,5.578,34.16-36.481,77.267q2.153,2.758,4.5,5.691c.939.863,1.877,1.743,2.813,2.626C22.8,104.829,39.3,85.22,53.3,67.938c12.156-15.006,26.637-29.57,38.678-44.211" transform="translate(154.556 94.478)" fill="#3aafa9"/>
        <path id="Tracé_17" data-name="Tracé 17" d="M80.946,38.238c6.185-10.856,11.8-20.683,16.508-29.48C92.414,6.346,87.243,3.8,82.121,1.313,74.157,13.63,68.662,26.478,67.463,30.436c-1.691,5.56-13.125,24.371-39.84,50C18.912,88.8,9.852,97.066,1.565,105.043q2.8,2.912,5.543,5.885A223.8,223.8,0,0,1,26.32,95.948C42.948,82.155,68.5,60.091,80.946,38.238" transform="translate(172.661 120.915)" fill="#3aafa9"/>
        <path id="Tracé_18" data-name="Tracé 18" d="M.843,24.908c-.146.286-.3.589-.46.9,2.079,8.476,3.77,17.172,2.964,26.878C1.555,74.249,5.922,94.637,10.489,89.437,15,76.671,20.176,64.87,20.881,56.892,21.834,46.1,12.844,22.787,10.423.167,6.4,10.9,3.251,20.14.843,24.908" transform="translate(28.83 121.316)" fill="#3aafa9"/>
        <path id="Tracé_19" data-name="Tracé 19" d="M56.007,2.667c.508-.58,1.011-1.168,1.516-1.75C41.428,8.711,17.371,20.6.507,33.92,3.491,37.467,6.382,41.007,9.171,44.5a73.737,73.737,0,0,1,14.612-9.364c3.713-1.7,9.374-5.828,14.844-10.188A267.118,267.118,0,0,1,56.007,2.667" transform="translate(192.736 213.12)" fill="#3aafa9"/>
        <path id="Tracé_20" data-name="Tracé 20" d="M17.61,9.785c.344-2.274.02-5.54-.657-9.513C10.845,11.811,3.723,25.977.545,36.663,1.914,47.327,4.98,52.831,7.087,59.953A68.74,68.74,0,0,1,9.072,73.822a67.206,67.206,0,0,0,4.741,6.164c4.343,5.039,9.074,7.632,13.987,8.131q.375-4.647.564-9.72c.059-1.6.2-3.212.4-4.837-1.852-7.43-3.779-20.452-7.258-28.778-4.161-9.959-5.778-22.479-3.891-35" transform="translate(2.49 167.354)" fill="#3aafa9"/>
        <path id="Tracé_21" data-name="Tracé 21" d="M30.168,28.382C24.253,46.776,23,57.9,24.758,86.583S21.007,125.1,13.376,133.217A60.793,60.793,0,0,0,2.227,149.91c10.036-6.855,20.529-12.023,28.88-16.208,9.017-21.637,14.562-58.092,13.575-69.766-1.3-15.409-.479-27.822,1.632-34.667C47.37,25.841,49.166,17.248,50.8,7.536,43.964,4.523,38.107,2.135,33.482.542c.3,8.643-.249,18.3-3.314,27.84" transform="translate(86.197 57.454)" fill="#3aafa9"/>
        <path id="Tracé_22" data-name="Tracé 22" d="M33.678,36.54c5.634-9.118,6.485-20.5,10.917-30C38.982,3.988,37.507,3.272,31.633.507,19.008,20.627,2.491,48.631.88,59.148c11.939-6.268,24.064-15.464,32.8-22.607" transform="translate(248.731 134.027)" fill="#3aafa9"/>
        <path id="Tracé_23" data-name="Tracé 23" d="M43.262,87.375c11.327-14.543,9.318-50.7,12.249-72.956A70.637,70.637,0,0,1,58.1,2.894c-.094-.632-.183-1.278-.265-1.958C48.664,7.538,31.9,24.624,31.9,24.624l-4.544-6.158-1.743,2.2L24.44,47s7.251-8.481,11.914-13.38l.076.026c16.963-15.8-8.455,23.1-19.026,48.756-3.831,9.3-5.429,19.559-5.669,29.243H11.72a97.463,97.463,0,0,0,.737,17.234c.014.091.034.162.048.249a139.13,139.13,0,0,0,5.89,25.184c5.129,15.849.912,32.1-2.478,36.8s-11.852,23.521-11.4,34.22a168.368,168.368,0,0,1-.873,19.6,84.43,84.43,0,0,0,11.847-14.542,75.137,75.137,0,0,1,11.147-13.11c-.11-7.611-1.264-19.065,5.426-26.561,7.63-8.542,5.611-31.481,4.725-48.6s-4.937-40.09,6.477-54.743" transform="translate(48.397 0.767)" fill="#3aafa9"/>
        <path id="Tracé_24" data-name="Tracé 24" d="M12.709,160.52c5.808-39.873,37.826-71.181,45.027-82.329C65.493,69.74,94.045,35.658,74.844,1.2,74.043,13.364,77.7,35.9,54.6,61.439,9.195,105.591,2.195,147.53,2.195,147.53l9.439,18.727Z" transform="translate(223.766 139.918)" fill="#3aafa9"/>
      </g>
    </g>
  </g>
</svg>
