<svg xmlns="http://www.w3.org/2000/svg" width="135.543" height="90.362" viewBox="0 0 135.543 90.362">
  <g id="noun_Quotation_Marks_386236" data-name="noun_Quotation Marks_386236" opacity="0.131">
    <g id="Groupe_38" data-name="Groupe 38" transform="translate(0 0)">
      <path id="Tracé_110" data-name="Tracé 110" d="M114.09,1012.08V994.734a20.318,20.318,0,0,0-20.372-20.372H76.372A20.318,20.318,0,0,0,56,994.734v17.346a20.318,20.318,0,0,0,20.372,20.372H91.5a228.469,228.469,0,0,1-6.454,32.272c11.741,0,29.045-35.319,29.045-51.635Z" transform="translate(21.453 -974.362)" fill="#003240"/>
      <path id="Tracé_111" data-name="Tracé 111" d="M66.09,1012.08V994.734a20.318,20.318,0,0,0-20.372-20.372H28.372A20.318,20.318,0,0,0,8,994.734v17.346a20.318,20.318,0,0,0,20.372,20.372H43.5a228.467,228.467,0,0,1-6.454,32.272c11.741,0,29.045-35.319,29.045-51.635Z" transform="translate(-8 -974.362)" fill="#003240"/>
    </g>
  </g>
</svg>
