<svg xmlns="http://www.w3.org/2000/svg" xmlns:xlink="http://www.w3.org/1999/xlink" width="85" height="85" viewBox="0 0 85 85">
  <defs>
    <clipPath id="clip-path">
      <rect id="Rectangle_322" data-name="Rectangle 322" width="85" height="85" fill="#fff"/>
    </clipPath>
    <clipPath id="clip-Plan_de_travail_18">
      <rect width="85" height="85"/>
    </clipPath>
  </defs>
  <g id="Plan_de_travail_18" data-name="Plan de travail – 18" clip-path="url(#clip-Plan_de_travail_18)">
    <g id="Groupe_de_masques_11" data-name="Groupe de masques 11" clip-path="url(#clip-path)">
      <g id="Groupe_14" data-name="Groupe 14" transform="translate(-176.113 -138.397)">
        <path id="Tracé_15" data-name="Tracé 15" d="M316.859,374.358a115.125,115.125,0,0,1-1.6-12.7c-4.846-2.358-9.5-4.6-13.91-6.691a49.225,49.225,0,0,0,1.726,31.12c4.057,10.285,2.838,31.275-2.838,51.849-2.3,8.333-7.061,16.941-12.53,24.8,1.81,2.633,4.051,5.828,6.715,9.482,8.234-11.334,16.042-25.462,20-40.458,6.69-25.306,6.081-37.65,2.433-57.4" transform="translate(-157.005 -286.702)" fill="#092e3b"/>
        <path id="Tracé_16" data-name="Tracé 16" d="M379.814,384.867q-7.084-3.484-14.162-7c-5.305,5.283-9.969,9.547-12.858,12.118-11.778,17.159-15.188,18.441-13.215,7.622A232.507,232.507,0,0,0,347.8,369l-12.348-6.151c-2.639,13.537-5.372,26.071-7.026,33.119-3,12.8,5.259,32.83-34.956,74.353q2.05,2.647,4.285,5.463c.894.828,1.788,1.672,2.679,2.519,13.215-15.331,28.993-34.214,42.385-50.855,11.628-14.449,25.473-28.479,36.991-42.577" transform="translate(-147.291 -273.125)" fill="#092e3b"/>
        <path id="Tracé_17" data-name="Tracé 17" d="M375.732,407.848c5.923-10.449,11.295-19.906,15.808-28.373-4.806-2.309-9.735-4.744-14.619-7.129-7.622,11.857-12.89,24.22-14.041,28.027-1.624,5.348-12.57,23.455-38.111,48.145-8.328,8.052-16.989,16.02-24.912,23.705q2.666,2.794,5.278,5.648A215.016,215.016,0,0,1,323.5,463.433c15.894-13.292,40.32-34.552,52.236-55.585" transform="translate(-136.535 -256.753)" fill="#092e3b"/>
        <path id="Tracé_18" data-name="Tracé 18" d="M248.809,396.035c-.14.275-.287.566-.44.863,1.968,8.145,3.565,16.5,2.779,25.835-1.751,20.737,2.379,40.33,6.747,35.322,4.331-12.281,9.289-23.637,9.977-31.308.929-10.378-7.606-32.773-9.875-54.515-3.858,10.329-6.881,19.215-9.187,23.8" transform="translate(-223.282 -256.95)" fill="#092e3b"/>
        <path id="Tracé_19" data-name="Tracé 19" d="M359.622,406.448c.486-.558.966-1.125,1.45-1.686-15.373,7.524-38.352,19-54.469,31.836,2.841,3.4,5.592,6.8,8.248,10.155a70.667,70.667,0,0,1,13.961-9.03c3.547-1.639,8.957-5.621,14.184-9.822a258.023,258.023,0,0,1,16.627-21.453" transform="translate(-125.171 -200.896)" fill="#092e3b"/>
        <path id="Tracé_20" data-name="Tracé 20" d="M255.359,397.68a32.054,32.054,0,0,0-.609-9.144c-5.85,11.1-12.672,24.737-15.725,35.017,1.286,10.25,4.2,15.536,6.2,22.379a66.433,66.433,0,0,1,1.869,13.33,64.189,64.189,0,0,0,4.513,5.917c4.135,4.836,8.645,7.32,13.333,7.791q.367-4.469.556-9.346c.059-1.536.2-3.088.387-4.651-1.753-7.14-3.568-19.656-6.873-27.654a64.547,64.547,0,0,1-3.649-33.639" transform="translate(-239.025 -228.855)" fill="#092e3b"/>
        <path id="Tracé_21" data-name="Tracé 21" d="M296.261,376.534c-5.678,17.7-6.894,28.395-5.27,55.964s-3.651,37.035-10.949,44.856a58.791,58.791,0,0,0-10.669,16.069c9.59-6.609,19.613-11.6,27.589-15.636,8.645-20.818,14-55.877,13.083-67.1-1.216-14.811-.405-26.747,1.622-33.331,1.015-3.3,2.744-11.562,4.32-20.9-6.516-2.884-12.1-5.169-16.512-6.691.271,8.308-.271,17.594-3.214,26.771" transform="translate(-187.895 -295.668)" fill="#092e3b"/>
        <path id="Tracé_22" data-name="Tracé 22" d="M358.014,411.312c5.394-8.777,6.226-19.718,10.473-28.863-5.351-2.443-6.758-3.129-12.358-5.776-12.084,19.367-27.9,46.321-29.455,56.435,11.405-6.048,22.993-14.912,31.34-21.8" transform="translate(-91.354 -249.297)" fill="#092e3b"/>
        <path id="Tracé_23" data-name="Tracé 23" d="M294.516,413.028c10.836-14,8.986-48.761,11.824-70.162a68.518,68.518,0,0,1,2.494-11.086c-.089-.607-.172-1.228-.25-1.882-8.766,6.364-24.8,22.823-24.8,22.823l-4.325-5.912-1.667,2.116-1.165,25.323s6.935-8.167,11.394-12.886l.072.025c16.216-15.225-8.111,22.221-18.246,46.909a80.364,80.364,0,0,0-5.464,28.125h-.016a94.355,94.355,0,0,0,.671,16.568c.013.087.032.155.046.24a134.242,134.242,0,0,0,5.574,24.2c4.865,15.228.811,30.862-2.432,35.387s-11.354,22.635-10.946,32.92a163.13,163.13,0,0,1-.87,18.841,81.51,81.51,0,0,0,11.333-14,72.524,72.524,0,0,1,10.661-12.624c-.091-7.317-1.171-18.327,5.227-25.546,7.3-8.227,5.413-30.276,4.6-46.735s-4.637-38.533,6.282-52.641" transform="translate(-209.73 -329.898)" fill="#092e3b"/>
        <path id="Tracé_24" data-name="Tracé 24" d="M328.212,532.272c5.617-38.345,36.229-68.5,43.121-79.236,7.418-8.14,34.728-40.959,16.469-74.051-.787,11.7,2.661,33.35-19.427,57.952C324.961,479.47,318.2,519.8,318.2,519.8l8.973,17.986Z" transform="translate(-105.626 -245.314)" fill="#092e3b"/>
      </g>
    </g>
  </g>
</svg>
