<?xml version="1.0" standalone="no"?>
<!DOCTYPE svg PUBLIC "-//W3C//DTD SVG 20010904//EN"
 "http://www.w3.org/TR/2001/REC-SVG-20010904/DTD/svg10.dtd">
<svg version="1.0" xmlns="http://www.w3.org/2000/svg"
 width="310.000000pt" height="310.000000pt" viewBox="0 0 310.000000 310.000000"
 preserveAspectRatio="xMidYMid meet">
<metadata>
Created by potrace 1.11, written by Peter Selinger 2001-2013
</metadata>
<g transform="translate(0.000000,310.000000) scale(0.100000,-0.100000)"
fill="#000000" stroke="none">
<path d="M827 2278 c-28 -69 -140 -325 -162 -373 -7 -16 -100 -228 -205 -470
-105 -242 -207 -474 -226 -516 -19 -42 -34 -82 -34 -88 0 -7 31 -11 93 -11 87
0 95 2 124 28 17 15 43 54 57 87 14 33 50 119 80 190 l55 130 363 0 363 0 46
-109 c26 -60 56 -130 67 -155 11 -25 27 -62 36 -81 19 -43 35 -63 63 -78 26
-14 213 -16 213 -2 0 8 -61 149 -332 770 -28 63 -75 171 -105 240 -76 172 -75
169 -138 315 -85 200 -63 180 -207 183 l-124 3 -27 -63z m304 -527 c65 -156
117 -286 115 -288 -5 -5 -539 -4 -544 1 -4 4 57 157 173 436 31 74 61 149 67
165 6 17 16 36 22 44 12 15 -3 47 167 -358z"/>
<path d="M2260 1901 c-227 -26 -408 -180 -471 -402 -7 -26 -12 -98 -12 -174 1
-106 5 -141 22 -189 76 -212 229 -329 480 -367 128 -20 285 11 402 78 61 36
136 110 165 164 19 35 54 127 54 141 0 4 -17 8 -38 8 -36 0 -40 -2 -51 -39
-16 -54 -78 -143 -126 -182 -100 -80 -242 -114 -408 -98 -195 19 -351 154
-413 357 -18 60 -18 214 0 272 61 199 202 331 386 361 79 13 220 5 281 -16
127 -44 245 -142 270 -225 12 -38 14 -40 52 -40 38 0 39 1 33 28 -33 137 -167
258 -338 306 -66 18 -203 26 -288 17z"/>
</g>
</svg>
