<?xml version="1.0" encoding="utf-8"?>
<!-- Generator: Adobe Illustrator 19.2.1, SVG Export Plug-In . SVG Version: 6.00 Build 0)  -->
<!DOCTYPE svg PUBLIC "-//W3C//DTD SVG 1.1//EN" "http://www.w3.org/Graphics/SVG/1.1/DTD/svg11.dtd">
<svg version="1.1" xmlns="http://www.w3.org/2000/svg" xmlns:xlink="http://www.w3.org/1999/xlink" x="0px" y="0px"
	 viewBox="0 0 841.9 595.3" style="enable-background:new 0 0 841.9 595.3;" xml:space="preserve">
<style type="text/css">
	.st0{fill:#0087B4;}
	.st1{display:none;}
	.st2{display:inline;fill:#FFFFFF;}
</style>
<g id="Calque_1">
	<path class="st0" d="M582.2,256.7L582.2,256.7c-8.1,0-15.2,2.3-21,6.7c-4.8-5-20.1-5-20.1-5l-1.4,27l-5.5,104.3h20.3l3-56.8
		c4.8,3.7,11.2,5.8,18.3,5.8c17.4,0,36.8-13.1,38.3-42C615.4,273.5,601.9,256.7,582.2,256.7z M593.6,297.1c-0.6,11.7-5.9,24-19.2,24
		l0,0h0h0c-7.5,0-13.7-5.1-15.1-12.5c-0.2-1.1-0.3-2.6-0.2-4.3l0.6-12.4c0.1-0.9,0.3-2.2,0.6-3.4l0.3-1.2c2.4-7.7,9.3-13,16.8-13
		C589.4,274.3,594.2,285.8,593.6,297.1z"/>
	<path class="st0" d="M665.6,256.7L665.6,256.7c-8.1,0-15.2,2.3-21,6.7c-4.8-5-20.1-5-20.1-5l-1.4,27l-5.5,104.3H638l3-56.8
		c4.8,3.7,11.2,5.8,18.3,5.8c17.4,0,36.8-13.1,38.3-42C698.8,273.5,685.4,256.7,665.6,256.7z M677.1,297.1c-0.6,11.7-6,24-19.3,24
		c-7.5,0-13.7-5.1-15.1-12.5c-0.2-1.1-0.3-2.6-0.2-4.3l0.7-12.4c0-0.9,0.3-2.2,0.6-3.4l0.3-1.2c2.4-7.7,9.3-13,16.8-13
		C672.9,274.3,677.7,285.8,677.1,297.1z"/>
	<path class="st0" d="M446.1,321.7c-4.2,0-8.4-1.5-7.9-12.2l1-18.8c1.3-25.2-13.8-34.1-27.2-34.1c-1,0-2,0-3,0.1
		c-0.9,0.1-1.7,0.2-2.5,0.3h-0.1c-13.8,2.2-20.3,11.7-20.7,12.3l2.4-45.1c0.9-18-19.4-18.6-19.4-18.6l-4,75.6l-2.9,55.9h20.4
		l1.1-20.7c2.7-36.7,17.1-41.3,22-41.8h1.6c8.5,0,12.6,5.9,11.9,17.6l-1,19.3v0.7c-0.4,8.3,0.5,18.3,8.2,23.4
		c0.9,0.5,11.1,6.4,20.1-0.3c3.2-2.5,6.1-6.8,6.5-14.1C450.6,321.4,448.9,321.7,446.1,321.7"/>
	<path class="st0" d="M787.7,321.7c-4.2,0-8.4-1.5-7.9-12.2l1-18.8c1.3-25.2-13.8-34.1-27.2-34.1c-1,0-2,0-3,0.1
		c-0.9,0.1-1.7,0.2-2.5,0.3H748c-13.8,2.2-20.3,11.7-20.7,12.3l0.3-6.2c-5.7-4.9-20.2-4.7-20.2-4.7l-1.2,22.9l-2.9,55.9h20.4
		l1.1-20.7c2.7-36.7,17.1-41.3,22-41.8h1.7c8.5,0,12.5,5.9,11.9,17.6l-1,19.3v0.7c-0.4,8.3,0.5,18.3,8.2,23.4
		c0.9,0.5,11.1,6.4,20.1-0.3c3.2-2.5,6.1-6.8,6.5-14.1C792.1,321.4,790.5,321.7,787.7,321.7"/>
	<path class="st0" d="M508.6,258.4l-0.3,5c-5.3-4.4-12.2-6.7-20.3-6.7c-19.7,0-34.9,16.8-36.1,39.9c-1.5,28.9,16.5,42,33.9,42
		c7.1,0,13.7-2.1,18.9-5.8v0.1c4,3.5,15.2,4,18.9,4.1h1.2l2.7-51.7l1.1-21.9C523.9,258.4,508.6,258.4,508.6,258.4z M506.1,304.3
		c-0.1,1.7-0.3,3.2-0.7,4.3c-2.2,7.4-8.9,12.5-16.4,12.5c-13.3,0-17.3-12.3-16.7-23.9c0.6-11.4,6.6-22.8,18.6-22.8
		c7.5,0,13.8,5.3,15.5,13c0,0.4,0.1,0.8,0.1,1.2c0.2,1.2,0.3,2.5,0.3,3.4L506.1,304.3z"/>
	<path class="st0" d="M238,177.6H100c-28.1,0-51,23-51,51v138c0,28.1,23,51,51,51h138c28.1,0,51-23,51-51v-138
		C289,200.6,266,177.6,238,177.6z M108.9,316.5c0-3.3,0.6-6.6,1.6-9.7c11.6-35,26.7-68.1,44.7-99c2.2-3.7,8-2.6,8.4,1.5
		c1.5,15.1,3.8,30.1,6.7,44.8c16,3,32,5.8,48,8.4c4.3,0.7,6.7,3.6,6.7,3.6l-116,51.5C109,317.3,109,316.9,108.9,316.5z M227.5,288.4
		c-11.6,35-26.7,68.1-44.7,99c-2.2,3.7-8,2.6-8.4-1.5c-1.5-15.1-3.8-30.1-6.7-44.8c-16-3-32-5.8-48-8.4c-4.3-0.7-6.7-3.6-6.7-3.6
		l116-51.5c0,0.4,0,0.8,0.1,1.1C229.1,282,228.5,285.3,227.5,288.4z"/>
</g>
<g id="Calque_2" class="st1">
	<path id="Calque_3" class="st2" d="M109,317.6l116-51.5c0,0-2.4-2.9-6.7-3.6c-16-2.6-32-5.4-48-8.4c-2.9-14.7-5.2-29.7-6.7-44.8
		c-0.4-4.1-6.2-5.2-8.4-1.5c-18,30.9-33.1,64-44.7,99c-1,3.1-1.6,6.4-1.6,9.7C109,316.9,109,317.3,109,317.6 M229,277.6l-116,51.5
		c0,0,2.4,2.9,6.7,3.6c16,2.6,32,5.4,48,8.4c2.9,14.7,5.2,29.7,6.7,44.8c0.4,4.1,6.2,5.2,8.4,1.5c18-30.9,33.1-64,44.7-99
		c1-3.1,1.6-6.4,1.6-9.7C229,278.4,229,278,229,277.6"/>
</g>
</svg>
