<svg id="Calque_1" xmlns="http://www.w3.org/2000/svg" viewBox="0 0 828 203.6"><style>.st0{fill:#4D3423;}</style><path class="st0" d="M78.2 72.5c.2-.7.9-1.4 1.7-1.4h1.5c.6 0 1.4.5 1.6 1l19.4 47.4h.4l19.3-47.4c.2-.5.9-1 1.6-1h1.5c.7 0 1.5.6 1.7 1.4l11.4 62.3c.3 1.3-.4 2.1-1.7 2.1h-6c-.8 0-1.6-.7-1.8-1.3l-6.9-41.4h-.3l-16.7 42.6c-.2.6-.7 1-1.6 1h-1.7c-.7 0-1.4-.5-1.6-1L83.2 94.2h-.4l-6.7 41.4c-.1.6-.9 1.3-1.7 1.3h-6c-1.3 0-1.9-.8-1.8-2.1l11.6-62.3zM152.3 134.5l28.5-62.4c.3-.5 1.1-1 1.6-1h.9c.5 0 1.3.5 1.6 1l28.3 62.4c.6 1.2-.2 2.4-1.6 2.4h-5.8c-1.1 0-1.8-.6-2.1-1.4l-5.7-12.7h-30.3c-1.9 4.3-3.8 8.4-5.7 12.7-.3.6-1 1.4-2.1 1.4h-5.8c-1.6 0-2.4-1.2-1.8-2.4zm42-19.7l-11.4-25.4h-.5l-11.3 25.4h23.2zM231.6 73.8c0-.9.7-1.8 1.8-1.8h25.2c11.1 0 20.2 8.8 20.2 19.8 0 8.5-5.7 15.6-13.7 18.8l12.7 23.6c.7 1.2 0 2.7-1.6 2.7H269c-.7 0-1.3-.5-1.5-.8l-12.3-24.6h-14v23.6c0 .9-.8 1.8-1.8 1.8h-6c-1 0-1.8-.8-1.8-1.8V73.8zm26.3 29.7c6 0 11.3-5.1 11.3-11.5 0-6-5.3-11-11.3-11h-16.5v22.5h16.5zM325 71.1c9.4 0 16.1 3.2 22.4 8.6.8.7.8 1.9.1 2.6l-4.1 4.2c-.6.8-1.5.8-2.3 0-4.4-3.8-10.3-6.2-16-6.2-13.3 0-23.3 11.1-23.3 24.1 0 13 10.1 24 23.4 24 6.8 0 11.5-2.7 15.9-6.1.8-.7 1.7-.6 2.2-.1l4.3 4.2c.7.6.6 1.9-.1 2.5-6.3 6.1-14.3 9-22.5 9-18.5 0-33.5-14.7-33.5-33.3 0-18.6 14.9-33.5 33.5-33.5zM389 71.1c18.5 0 33.4 14.9 33.4 33.5 0 18.5-14.8 33.3-33.4 33.3-18.5 0-33.3-14.7-33.3-33.3.1-18.6 14.8-33.5 33.3-33.5zm0 57.5c13.3 0 24.1-10.8 24.1-24S402.3 80.4 389 80.4c-13.2 0-24 11-24 24.2s10.9 24 24 24zM447.4 74.4c-.5-1.2.2-2.4 1.6-2.4h6.6c.7 0 1.4.6 1.6 1l20.4 45.9h.5L498.5 73c.2-.5.7-1 1.6-1h6.6c1.4 0 2.1 1.2 1.6 2.4l-28.5 62.4c-.3.6-.8 1-1.6 1h-.9c-.7 0-1.3-.5-1.6-1l-28.3-62.4zM504.8 134.5l28.5-62.4c.3-.6 1.1-1 1.6-1h.9c.5 0 1.3.5 1.6 1l28.3 62.4c.6 1.2-.2 2.4-1.6 2.4h-5.8c-1.1 0-1.8-.6-2.1-1.4l-5.7-12.7H520c-1.9 4.3-3.8 8.4-5.7 12.7-.3.6-1 1.4-2.1 1.4h-5.8c-1.4 0-2.1-1.2-1.6-2.4zm42-19.7l-11.4-25.4h-.4l-11.3 25.4h23.1zM577.7 127.5c.8-1.2 1.6-2.6 2.4-3.8.8-1.2 2.1-1.6 3.2-.7.6.5 7.7 6.4 14.8 6.4 6.4 0 10.5-3.9 10.5-8.6 0-5.6-4.8-9.1-14-12.9-9.5-4-16.9-8.9-16.9-19.7 0-7.2 5.6-17.2 20.3-17.2 9.3 0 16.2 4.8 17.1 5.5.7.5 1.5 1.8.6 3.2-.7 1.1-1.6 2.4-2.3 3.5-.7 1.2-1.9 1.8-3.2.9-.7-.4-7.1-4.6-12.5-4.6-7.8 0-10.5 4.9-10.5 8.3 0 5.3 4.1 8.5 11.8 11.7 10.8 4.4 19.9 9.5 19.9 20.8 0 9.7-8.6 17.5-20.7 17.5-11.3 0-18.4-5.9-19.9-7.3-.9-.7-1.5-1.4-.6-3zM663.9 71.1c9.4 0 16.1 3.2 22.4 8.6.8.7.8 1.9.1 2.6l-4.1 4.2c-.6.8-1.5.8-2.3 0-4.4-3.8-10.3-6.2-16-6.2-13.3 0-23.3 11.1-23.3 24.1 0 13 10.1 24 23.4 24 6.8 0 11.5-2.7 15.9-6.1.8-.7 1.7-.6 2.2-.1l4.3 4.2c.7.6.6 1.9-.1 2.5-6.3 6.1-14.3 9-22.5 9-18.5 0-33.5-14.7-33.5-33.3.1-18.6 15-33.5 33.5-33.5zM728 71.1c18.5 0 33.4 14.9 33.4 33.5 0 18.5-14.8 33.3-33.4 33.3-18.5 0-33.3-14.7-33.3-33.3 0-18.6 14.8-33.5 33.3-33.5zm0 57.5c13.3 0 24.1-10.8 24.1-24S741.3 80.4 728 80.4c-13.2 0-24 11-24 24.2s10.8 24 24 24z"/></svg>