<?xml version="1.0" encoding="UTF-8"?> <svg xmlns="http://www.w3.org/2000/svg" viewBox="0 0 150 22"> <path class="mogul" fill="#351D38" d="M142.645 20.858V7.042h3.138v11.123H150v2.693h-7.355zm-9.963.31c-1.427 0-2.935-.206-4.237-1.574-1.345-1.409-1.508-3.045-1.508-4.369V7.042h3.136v8.101c0 .6.043 1.614.714 2.32.551.599 1.302.722 1.895.722.59 0 1.344-.123 1.894-.722.672-.706.713-1.72.713-2.32V7.042h3.136v8.183c0 1.324-.162 2.96-1.506 4.369-1.304 1.368-2.81 1.574-4.237 1.574zm-15.829 0c-1.63 0-3.381-.268-4.97-1.926-.794-.827-1.997-2.506-1.997-5.26 0-2.257.815-4.059 1.957-5.24 1.67-1.762 3.729-2.01 5.336-2.01 1.119 0 2.548.187 3.81 1.036.917.623 1.71 1.596 2.198 2.464l-2.831 1.556c-.264-.539-.671-1.098-1.201-1.492-.611-.457-1.305-.664-2.077-.664-1.242 0-2.159.414-2.812 1.118-.753.808-1.161 1.989-1.161 3.274 0 1.573.57 2.588 1.141 3.169.796.827 1.71 1.077 2.75 1.077 1.344 0 2.057-.476 2.363-.746.102-.084.712-.621.979-1.636h-3.282v-2.569h6.744v.145c0 1.679-.591 4.225-2.097 5.819-1.509 1.597-3.241 1.885-4.85 1.885zm-17.725.796c-4.458 0-8.072-3.675-8.072-8.207 0-4.534 3.614-8.208 8.072-8.208 4.458 0 8.073 3.674 8.073 8.208 0 4.532-3.615 8.207-8.073 8.207zm0-13.522c-2.883 0-5.228 2.384-5.228 5.315 0 2.93 2.345 5.315 5.228 5.315 2.882 0 5.228-2.385 5.228-5.315 0-2.931-2.346-5.315-5.228-5.315zm5.86-3.908a9.358 9.358 0 0 0-5.702-1.923 9.354 9.354 0 0 0-5.948 2.113 1.266 1.266 0 0 1-.802.285c-.377 0-.752-.169-1.008-.491a1.325 1.325 0 0 1 .205-1.84 12.036 12.036 0 0 1 7.553-2.684c2.631 0 5.138.845 7.242 2.442.57.433.687 1.252.261 1.832a1.272 1.272 0 0 1-1.801.266zm-20.601 8.08l-3.403 8.244h-1.099l-3.401-8.244-1.081 8.244h-3.135l2.177-13.816h2.608l3.383 8.265 3.38-8.265h2.607l2.179 13.816h-3.135l-1.08-8.244z"></path> <path class="chart" fill="#EF4F51" d="M99.128 16.782c-1.642 0-2.972-1.356-2.972-3.025 0-1.67 1.33-3.024 2.972-3.024.013 0 .025.005.039.005a1.475 1.475 0 0 0-.248.819c0 .806.642 1.46 1.435 1.46.575 0 1.067-.347 1.296-.843.282.461.452 1 .452 1.583 0 1.669-1.33 3.025-2.974 3.025zm-32.87 4.076h-3.137V9.736h-2.953V7.042h9.044v2.694h-2.954v11.122zm-11.937 0l-3.666-5.447v5.447h-3.137V7.042h4.766c1.731 0 2.812.58 3.463 1.202.572.56 1.182 1.553 1.182 3.086 0 .871-.185 1.949-1.059 2.818a4.246 4.246 0 0 1-1.894 1.055l4.175 5.655h-3.83zM53.118 9.964c-.509-.393-1.323-.436-1.729-.436h-.734v3.791h.712c.569 0 1.346-.062 1.874-.6.224-.228.51-.663.51-1.346 0-.788-.368-1.201-.633-1.409zm-13.441 8.285h-5.135l-1.039 2.609h-3.259l5.48-13.816h2.872l5.357 13.816h-3.259l-1.017-2.609zm-2.528-7.084l-1.691 4.639h3.362l-1.671-4.639zm-13.607 3.833h-5.416v5.86h-3.137V7.042h3.137v5.263h5.416V7.042h3.138v13.816h-3.138v-5.86zM7.45 21.168c-2.504 0-4.194-.867-5.335-2.008-1.223-1.201-2.118-3.024-2.118-5.24 0-2.174.895-3.997 2.118-5.198 1.201-1.182 2.954-1.99 5.073-1.99.895 0 1.934.187 3.257.766v3.687c-.693-.746-1.731-1.471-3.177-1.471-1.14 0-2.058.375-2.771 1.079-.754.745-1.282 1.864-1.282 3.189 0 1.429.569 2.443 1.18 3.045.286.29 1.263 1.158 2.934 1.158.813 0 1.914-.226 3.116-1.428v3.667c-1.202.622-2.178.744-2.995.744z"></path> </svg> 