<?xml version="1.0" encoding="UTF-8"?> <svg xmlns="http://www.w3.org/2000/svg" xmlns:xlink="http://www.w3.org/1999/xlink" width="539px" height="143px" viewBox="0 0 539 143"> <!-- Generator: Sketch 47.1 (45422) - http://www.bohemiancoding.com/sketch --> <title>aeschbach</title> <desc>Created with Sketch.</desc> <defs></defs> <g id="Page-1" stroke="none" stroke-width="1" fill="none" fill-rule="evenodd"> <g id="aeschbach"> <path d="M11.2108,12.2529 C12.0808,11.6809 13.2558,10.9069 14.5798,10.0369 L45.5478,10.0369 C46.5708,11.1719 47.6778,12.4009 48.8788,13.7339 L48.8788,53.9209 L11.2108,53.9209 L11.2108,12.2529 Z M238.8658,124.0369 L13.4708,124.0369 C12.7398,123.2429 11.9538,122.3899 11.1428,121.5089 L11.1428,64.2639 L49.1358,64.2639 L49.1358,113.1039 C52.3968,113.5159 55.5258,113.9119 58.5618,114.2949 C58.8158,113.5429 59.0008,113.2499 59.0008,112.9579 C59.0138,79.9729 58.9928,46.9879 59.0598,14.0029 C59.0648,11.8289 58.3358,9.9139 57.5038,8.1349 C55.0738,2.9289 50.7118,0.1599 45.0088,0.0819 C33.8498,-0.0711 22.6868,0.0369 12.0198,0.0369 C10.8798,0.5059 10.1308,0.7279 9.4678,1.1009 C6.4618,2.7929 3.7038,4.9669 2.1218,7.9699 C0.8448,10.3929 -0.0012,13.1699 -0.0002,16.0799 C0.0208,50.3989 0.0158,84.7159 0.0078,119.0339 C0.0078,121.9289 0.7058,124.8519 2.1288,127.1289 C5.2458,132.1119 9.8118,135.0659 16.0638,135.0639 C88.6968,135.0229 161.3308,135.0369 233.9648,135.0369 L239.0128,135.0369 C239.0128,132.9159 239.0328,131.1069 239.0078,129.2969 C238.9838,127.5329 238.9148,125.7709 238.8658,124.0369 L238.8658,124.0369 Z" id="Fill-1" fill="#B1B1B1"></path> <path d="M538.0228,46.3124 C538.0248,42.7344 536.8658,39.5014 534.9648,36.5964 C533.5458,34.4264 531.2008,32.7954 528.8698,32.2034 C526.3108,31.5524 523.6888,30.7324 520.8258,30.9414 C516.0228,31.2914 511.1738,31.0374 506.3448,31.0374 L497.8778,31.0374 L497.8778,1.1354 L487.1588,1.1354 L487.1588,113.1064 C490.3938,113.5164 493.5238,113.9124 496.2878,114.2624 L498.1038,112.4464 L498.1038,42.0374 C506.7518,42.0374 515.0678,42.0514 523.3828,42.0224 C524.7448,42.0174 526.0538,41.9474 526.9228,43.5504 L526.9228,121.2854 C525.9838,122.3904 525.2358,123.2714 524.5848,124.0374 C516.7118,124.0374 509.0518,124.0474 501.3918,124.0334 C496.5468,124.0234 491.6768,123.7334 487.1828,125.4664 L487.1828,135.0374 C499.4858,135.0374 511.6208,135.0404 523.7538,135.0304 C524.3978,135.0294 525.0758,135.0384 525.6768,134.8504 C533.9788,132.2624 537.8998,126.1064 537.9508,118.7504 C538.1178,94.6064 538.0038,70.4584 538.0228,46.3124" id="Fill-4" fill="#B1B1B1"></path> <path d="M348.9232,101.5243 C348.0552,103.1223 346.7492,103.0563 345.3882,103.0523 C336.7452,103.0223 328.1032,103.0373 319.2362,103.0373 L319.2362,42.1983 L347.6742,42.1983 L348.9232,43.4473 L348.9232,101.5243 Z M354.7322,34.4653 C351.6792,32.4353 348.1672,30.9333 344.1882,30.9973 C335.8902,31.1283 327.5882,31.0373 318.9422,31.0373 L318.9422,1.1723 L308.1272,1.1723 L308.1272,112.6513 L309.5132,114.0373 C316.3522,114.0373 323.1952,113.7753 330.0102,114.1103 C336.9302,114.4493 343.7032,113.0773 351.3112,112.9083 C353.7092,110.5093 356.5172,107.7033 359.0132,105.2083 C359.0132,84.2393 358.9862,63.9183 359.0362,43.5963 C359.0452,39.7973 357.6942,36.4363 354.7322,34.4653 L354.7322,34.4653 Z" id="Fill-7" fill="#B1B1B1"></path> <path d="M81.3607,42.1894 L108.6657,42.1894 C109.2047,42.7284 109.5567,43.0814 109.9147,43.4384 L109.9147,66.8854 L80.0397,66.8854 C79.9777,59.1654 80.0357,51.2834 80.0067,43.5434 C80.5027,43.0464 80.8557,42.6944 81.3607,42.1894 M77.3927,112.0514 C77.8177,112.2594 78.1407,112.6774 78.5457,113.0274 L111.5007,113.0274 C115.2357,110.6264 118.7207,107.9924 120.1857,103.1024 L81.6727,103.1024 C80.9517,102.4374 80.4647,101.9874 80.2027,101.7454 L80.2027,77.9814 L119.8797,77.9814 L119.8797,40.4304 C116.2317,34.1394 111.0407,30.6584 103.4097,30.9784 C96.7557,31.2584 90.0767,30.9214 83.4127,31.0664 C75.2477,31.2444 69.0997,36.9024 69.0457,45.6174 C68.9367,63.4494 69.0067,81.2834 69.0157,99.1164 C69.0197,105.2654 71.6067,109.2134 77.3927,112.0514" id="Fill-9" fill="#B1B1B1"></path> <path d="M409.8568,102.9491 L381.3908,102.9491 C380.8408,102.2541 380.0398,101.2381 379.0168,99.9431 L379.0168,80.8721 C379.5838,79.7741 380.0088,78.9501 380.4318,78.1311 L409.8568,78.1311 L409.8568,102.9491 Z M405.4298,31.0491 C397.9338,31.0001 390.4308,30.8401 382.9448,31.1031 C377.5578,31.2931 373.1578,33.6311 370.7698,38.8071 C370.3478,39.7221 370.1738,40.7531 369.7978,42.0271 L406.9968,42.0271 C408.3668,43.1281 409.2668,43.8501 409.7738,44.2581 L409.7738,67.0371 C400.8748,67.0371 392.2158,67.0481 383.5568,67.0321 C379.3528,67.0251 375.7108,68.3991 372.9858,71.6261 C371.4768,73.4121 370.3088,75.4851 369.0128,77.3891 C369.0128,85.3051 369.0038,93.1281 369.0218,100.9491 C369.0248,102.2181 369.4238,103.3491 369.8588,104.5881 C371.3048,108.7061 374.2408,111.0931 377.7888,113.0251 C380.8648,113.1211 383.9818,112.6361 386.8908,114.0371 L419.8898,114.0371 L419.8898,41.7061 C419.3678,40.6911 418.9448,39.8661 418.5188,39.0431 C415.7718,33.7321 411.3668,31.0881 405.4298,31.0491 L405.4298,31.0491 Z" id="Fill-11" fill="#B1B1B1"></path> <path d="M294.7982,35.2773 C291.7912,32.2653 288.1812,31.0403 284.0422,31.0383 C275.4212,31.0343 266.7992,31.0373 258.0132,31.0373 C258.0132,21.0643 258.0142,11.4223 258.0052,1.7793 C258.0052,1.6373 257.9142,1.4793 257.8242,1.3593 C257.7292,1.2323 257.5852,1.1423 257.6882,1.2313 L248.1302,1.2313 L248.1302,112.8863 C251.3522,113.3753 254.4732,113.8473 258.1882,114.4113 L258.1882,42.1383 L285.9402,42.1383 C287.3652,43.2053 288.2902,43.8963 289.0992,44.5023 L289.0992,112.7673 C290.7602,113.0513 292.3602,113.5593 293.9512,113.5333 C295.6512,113.5063 297.3422,112.9733 299.0132,112.6673 C299.0132,90.2063 299.0272,67.8753 299.0002,45.5443 C298.9962,41.5833 297.6682,38.1503 294.7982,35.2773" id="Fill-13" fill="#B1B1B1"></path> <path d="M132.8719,73.329 C134.6849,74.784 136.7789,75.889 138.7349,77.142 L166.2149,77.142 C168.2289,78.36 169.2329,78.967 169.9239,79.385 L169.9239,99.786 C168.8369,101.34 168.1699,102.292 167.4749,103.285 L129.8899,103.285 C130.3879,109.071 134.7569,110.908 138.8649,113.037 C148.6419,113.037 158.4719,113.048 168.3019,113.033 C174.0619,113.024 179.9419,107.223 179.9949,101.361 C180.0679,93.048 180.0129,84.732 180.0129,76.537 C179.6599,76.183 179.3399,75.989 179.2009,75.706 C176.0379,69.276 172.5079,67.04 165.4589,67.038 C157.4669,67.035 149.4739,67.037 141.5129,67.037 C141.0099,66.533 140.5389,66.062 140.0129,65.537 C140.0129,58.934 140.0409,52.277 139.9899,45.62 C139.9789,44.229 140.0129,42.973 141.6939,42.011 L178.8629,42.011 L178.8629,38.387 C178.4899,38.014 177.9719,37.581 177.5549,37.065 C173.8079,32.43 168.9359,30.749 163.0509,30.98 C156.7289,31.229 150.3909,31.03 144.0599,31.041 C142.3049,31.044 140.6629,31.484 138.9429,31.905 C132.6079,33.455 129.3359,39.384 129.0939,44.466 C128.7679,51.281 128.8309,58.132 129.0939,64.952 C129.2149,68.083 130.2559,71.227 132.8719,73.329" id="Fill-15" fill="#B1B1B1"></path> <path d="M226.4212,31.0536 C218.5952,30.9926 210.7652,30.9336 202.9412,31.0806 C199.0172,31.1556 195.5922,32.6586 192.8512,35.6576 C190.3852,38.3556 188.9502,41.2756 188.9682,45.0706 C189.0652,64.5546 189.0132,84.0386 189.0132,103.1556 C191.0092,107.3836 193.1862,111.0816 197.2212,112.6696 C201.1232,113.1446 204.7802,113.7636 208.4622,113.9886 C212.1112,114.2106 215.7952,114.1956 219.4472,113.9926 C223.1402,113.7876 226.8142,113.2246 230.9452,112.7696 C238.1162,108.3926 238.6232,107.7966 238.8002,103.1526 L201.7692,103.1526 C200.6772,102.1256 199.8302,101.3296 199.0132,100.5616 L199.0132,44.5296 C199.8322,43.7206 200.6612,42.9026 201.6712,41.9066 L239.0582,41.9066 C238.9842,40.9456 239.1182,40.0856 238.8322,39.4006 C237.0012,35.0176 231.2082,31.0896 226.4212,31.0536" id="Fill-17" fill="#B1B1B1"></path> <path d="M467.3392,31.0536 C460.3422,30.9886 453.3372,31.2216 446.3472,30.9806 C440.3722,30.7746 435.7872,33.0376 432.0052,37.4906 C430.6872,39.0426 429.9922,40.6416 429.9952,42.6776 C430.0242,63.3256 430.0132,83.9756 430.0132,104.4816 C432.2762,108.1756 434.7022,110.5976 438.5872,113.0746 C444.1062,112.5016 449.5132,114.2346 455.1092,114.1826 C457.1982,114.1626 459.2672,113.9896 461.3282,113.7776 C462.7032,113.6356 464.0742,113.4766 465.4462,113.3326 C466.8182,113.1906 468.1912,113.0636 469.5682,112.9866 C470.2562,112.9486 470.9462,112.9216 471.6372,112.9126 C472.1952,112.5946 472.7162,112.2896 473.2002,111.9936 C473.6852,111.6996 474.1332,111.4126 474.5482,111.1336 C475.1032,110.7606 475.5982,110.3996 476.0412,110.0396 C476.7052,109.5016 477.2532,108.9696 477.7042,108.4166 C478.9082,106.9426 479.4342,105.3186 479.6932,103.0256 L441.6772,103.0256 C439.9082,102.0746 439.9982,100.7546 440.0002,99.3976 C440.0192,80.7476 440.0132,62.0986 440.0132,43.5366 L441.6872,41.8636 L479.9132,41.8636 C479.9532,41.2126 480.1392,40.6756 479.9892,40.2606 C478.2112,35.3446 472.4482,31.1006 467.3392,31.0536" id="Fill-19" fill="#B1B1B1"></path> <path d="M259.4798,142.6786 C254.7218,142.6786 252.3428,140.0676 252.3428,134.8446 C252.3428,132.2466 252.9898,130.2626 254.2848,128.8906 C255.5788,127.5186 257.4338,126.8326 259.8488,126.8326 C261.6168,126.8326 263.2028,127.1796 264.6068,127.8716 L263.3758,131.0986 C262.7198,130.8336 262.1088,130.6176 261.5438,130.4496 C260.9788,130.2806 260.4138,130.1966 259.8488,130.1966 C257.6798,130.1966 256.5948,131.7366 256.5948,134.8176 C256.5948,137.8066 257.6798,139.3016 259.8488,139.3016 C260.6508,139.3016 261.3938,139.1946 262.0778,138.9806 C262.7608,138.7666 263.4448,138.4316 264.1278,137.9756 L264.1278,141.5436 C263.4538,141.9726 262.7718,142.2686 262.0838,142.4326 C261.3958,142.5966 260.5278,142.6786 259.4798,142.6786" id="Fill-22" fill="#000000"></path> <path d="M289.3382,142.4052 L285.1682,142.4052 L285.1682,133.4772 C285.1682,131.2712 284.3482,130.1692 282.7072,130.1692 C281.5402,130.1692 280.6972,130.5652 280.1782,131.3582 C279.6582,132.1512 279.3992,133.4362 279.3992,135.2142 L279.3992,142.4052 L275.2292,142.4052 L275.2292,121.1322 L279.3992,121.1322 L279.3992,125.4662 C279.3992,125.8022 279.3662,126.5952 279.3032,127.8442 L279.2072,129.0752 L279.4262,129.0752 C280.3562,127.5802 281.8322,126.8332 283.8562,126.8332 C285.6512,126.8332 287.0142,127.3162 287.9432,128.2822 C288.8732,129.2482 289.3382,130.6342 289.3382,132.4382 L289.3382,142.4052 Z" id="Fill-24" fill="#000000"></path> <path d="M309.6683,135.3232 L308.0553,135.3782 C306.8433,135.4142 305.9403,135.6332 305.3483,136.0342 C304.7553,136.4352 304.4593,137.0462 304.4593,137.8662 C304.4593,139.0422 305.1343,139.6302 306.4823,139.6302 C307.4483,139.6302 308.2213,139.3512 308.8003,138.7962 C309.3793,138.2402 309.6683,137.5022 309.6683,136.5812 L309.6683,135.3232 Z M310.8983,142.4052 L310.0923,140.3272 L309.9823,140.3272 C309.2803,141.2112 308.5593,141.8242 307.8153,142.1662 C307.0723,142.5082 306.1053,142.6782 304.9103,142.6782 C303.4423,142.6782 302.2873,142.2602 301.4443,141.4212 C300.6023,140.5822 300.1803,139.3882 300.1803,137.8392 C300.1803,136.2172 300.7473,135.0202 301.8823,134.2502 C303.0173,133.4792 304.7283,133.0532 307.0163,132.9712 L309.6683,132.8892 L309.6683,132.2192 C309.6683,130.6702 308.8753,129.8952 307.2893,129.8952 C306.0673,129.8952 304.6323,130.2642 302.9823,131.0032 L301.6023,128.1862 C303.3603,127.2652 305.3123,126.8052 307.4533,126.8052 C309.5043,126.8052 311.0763,127.2522 312.1703,128.1452 C313.2643,129.0392 313.8113,130.3962 313.8113,132.2192 L313.8113,142.4052 L310.8983,142.4052 Z" id="Fill-26" fill="#000000"></path> <path d="M336.4915,142.4052 L335.9305,140.4502 L335.7125,140.4502 C335.2655,141.1612 334.6325,141.7102 333.8115,142.0972 C332.9915,142.4852 332.0565,142.6782 331.0095,142.6782 C329.2135,142.6782 327.8595,142.1982 326.9485,141.2362 C326.0375,140.2742 325.5815,138.8912 325.5815,137.0872 L325.5815,127.1202 L329.7515,127.1202 L329.7515,136.0482 C329.7515,137.1502 329.9475,137.9772 330.3395,138.5292 C330.7305,139.0812 331.3555,139.3562 332.2125,139.3562 C333.3795,139.3562 334.2215,138.9672 334.7415,138.1872 C335.2615,137.4082 335.5205,136.1162 335.5205,134.3112 L335.5205,127.1202 L339.6905,127.1202 L339.6905,142.4052 L336.4915,142.4052 Z" id="Fill-28" fill="#000000"></path> <path d="M362.2903,137.8661 C362.2903,139.4331 361.7453,140.6281 360.6563,141.4481 C359.5673,142.2681 357.9373,142.6781 355.7693,142.6781 C354.6563,142.6781 353.7093,142.6031 352.9253,142.4531 C352.1413,142.3031 351.4073,142.0821 350.7243,141.7901 L350.7243,138.3451 C351.4983,138.7091 352.3713,139.0141 353.3423,139.2611 C354.3123,139.5071 355.1673,139.6301 355.9053,139.6301 C357.4183,139.6301 358.1753,139.1921 358.1753,138.3171 C358.1753,137.9891 358.0743,137.7221 357.8743,137.5171 C357.6743,137.3121 357.3273,137.0801 356.8353,136.8201 C356.3433,136.5601 355.6863,136.2581 354.8663,135.9111 C353.6903,135.4191 352.8273,134.9631 352.2753,134.5441 C351.7243,134.1251 351.3233,133.6431 351.0723,133.1011 C350.8213,132.5591 350.6963,131.8911 350.6963,131.0981 C350.6963,129.7401 351.2233,128.6901 352.2753,127.9471 C353.3283,127.2041 354.8203,126.8331 356.7533,126.8331 C358.5943,126.8331 360.3853,127.2341 362.1263,128.0361 L360.8683,131.0441 C360.1023,130.7161 359.3873,130.4471 358.7223,130.2371 C358.0573,130.0271 357.3773,129.9231 356.6853,129.9231 C355.4543,129.9231 354.8393,130.2561 354.8393,130.9211 C354.8393,131.2951 355.0373,131.6181 355.4343,131.8911 C355.8303,132.1651 356.6983,132.5701 358.0383,133.1081 C359.2323,133.5921 360.1073,134.0431 360.6633,134.4621 C361.2193,134.8811 361.6293,135.3641 361.8943,135.9111 C362.1583,136.4581 362.2903,137.1091 362.2903,137.8661" id="Fill-30" fill="#000000"></path> <path d="M383.7679,137.8661 C383.7679,139.4331 383.2229,140.6281 382.1339,141.4481 C381.0449,142.2681 379.4149,142.6781 377.2469,142.6781 C376.1339,142.6781 375.1869,142.6031 374.4029,142.4531 C373.6189,142.3031 372.8849,142.0821 372.2019,141.7901 L372.2019,138.3451 C372.9759,138.7091 373.8489,139.0141 374.8199,139.2611 C375.7899,139.5071 376.6449,139.6301 377.3829,139.6301 C378.8959,139.6301 379.6529,139.1921 379.6529,138.3171 C379.6529,137.9891 379.5519,137.7221 379.3519,137.5171 C379.1519,137.3121 378.8049,137.0801 378.3129,136.8201 C377.8209,136.5601 377.1639,136.2581 376.3439,135.9111 C375.1679,135.4191 374.3049,134.9631 373.7529,134.5441 C373.2019,134.1251 372.8009,133.6431 372.5499,133.1011 C372.2989,132.5591 372.1739,131.8911 372.1739,131.0981 C372.1739,129.7401 372.7009,128.6901 373.7529,127.9471 C374.8059,127.2041 376.2979,126.8331 378.2309,126.8331 C380.0719,126.8331 381.8629,127.2341 383.6039,128.0361 L382.3459,131.0441 C381.5799,130.7161 380.8649,130.4471 380.1999,130.2371 C379.5349,130.0271 378.8549,129.9231 378.1629,129.9231 C376.9319,129.9231 376.3169,130.2561 376.3169,130.9211 C376.3169,131.2951 376.5149,131.6181 376.9119,131.8911 C377.3079,132.1651 378.1759,132.5701 379.5159,133.1081 C380.7099,133.5921 381.5849,134.0431 382.1409,134.4621 C382.6969,134.8811 383.1069,135.3641 383.3719,135.9111 C383.6359,136.4581 383.7679,137.1091 383.7679,137.8661" id="Fill-32" fill="#000000"></path> <path d="M405.4105,142.4052 L404.8495,140.4502 L404.6315,140.4502 C404.1845,141.1612 403.5515,141.7102 402.7305,142.0972 C401.9105,142.4852 400.9755,142.6782 399.9285,142.6782 C398.1325,142.6782 396.7785,142.1982 395.8675,141.2362 C394.9565,140.2742 394.5005,138.8912 394.5005,137.0872 L394.5005,127.1202 L398.6705,127.1202 L398.6705,136.0482 C398.6705,137.1502 398.8665,137.9772 399.2585,138.5292 C399.6495,139.0812 400.2745,139.3562 401.1315,139.3562 C402.2985,139.3562 403.1405,138.9672 403.6605,138.1872 C404.1805,137.4082 404.4395,136.1162 404.4395,134.3112 L404.4395,127.1202 L408.6095,127.1202 L408.6095,142.4052 L405.4105,142.4052 Z" id="Fill-34" fill="#000000"></path> <path d="M429.0755,126.8329 C429.6405,126.8329 430.1095,126.8739 430.4835,126.9559 L430.1695,130.8659 C429.8325,130.7749 429.4225,130.7289 428.9385,130.7289 C427.6075,130.7289 426.5715,131.0709 425.8285,131.7549 C425.0855,132.4379 424.7145,133.3949 424.7145,134.6259 L424.7145,142.4049 L420.5445,142.4049 L420.5445,127.1199 L423.7025,127.1199 L424.3175,129.6899 L424.5225,129.6899 C424.9965,128.8339 425.6375,128.1439 426.4435,127.6189 C427.2505,127.0949 428.1275,126.8329 429.0755,126.8329" id="Fill-36" fill="#000000"></path> <path d="M447.1497,129.7997 C446.2657,129.7997 445.5727,130.0797 445.0717,130.6407 C444.5707,131.2007 444.2837,131.9957 444.2107,133.0267 L450.0617,133.0267 C450.0437,131.9957 449.7747,131.2007 449.2547,130.6407 C448.7357,130.0797 448.0337,129.7997 447.1497,129.7997 M447.7377,142.6787 C445.2767,142.6787 443.3537,141.9997 441.9677,140.6417 C440.5827,139.2827 439.8897,137.3607 439.8897,134.8717 C439.8897,132.3107 440.5307,130.3307 441.8107,128.9317 C443.0907,127.5317 444.8617,126.8327 447.1227,126.8327 C449.2827,126.8327 450.9637,127.4477 452.1677,128.6787 C453.3707,129.9087 453.9717,131.6097 453.9717,133.7787 L453.9717,135.8017 L444.1147,135.8017 C444.1607,136.9867 444.5107,137.9117 445.1677,138.5767 C445.8237,139.2417 446.7447,139.5747 447.9287,139.5747 C448.8497,139.5747 449.7197,139.4797 450.5407,139.2877 C451.3607,139.0967 452.2167,138.7907 453.1107,138.3717 L453.1107,141.5987 C452.3807,141.9627 451.6017,142.2347 450.7727,142.4117 C449.9437,142.5897 448.9317,142.6787 447.7377,142.6787" id="Fill-38" fill="#000000"></path> <path d="M475.5862,137.8661 C475.5862,139.4331 475.0412,140.6281 473.9522,141.4481 C472.8632,142.2681 471.2332,142.6781 469.0652,142.6781 C467.9522,142.6781 467.0052,142.6031 466.2212,142.4531 C465.4372,142.3031 464.7032,142.0821 464.0202,141.7901 L464.0202,138.3451 C464.7942,138.7091 465.6672,139.0141 466.6382,139.2611 C467.6082,139.5071 468.4632,139.6301 469.2012,139.6301 C470.7142,139.6301 471.4712,139.1921 471.4712,138.3171 C471.4712,137.9891 471.3702,137.7221 471.1702,137.5171 C470.9702,137.3121 470.6232,137.0801 470.1312,136.8201 C469.6392,136.5601 468.9822,136.2581 468.1622,135.9111 C466.9862,135.4191 466.1232,134.9631 465.5712,134.5441 C465.0202,134.1251 464.6192,133.6431 464.3682,133.1011 C464.1172,132.5591 463.9922,131.8911 463.9922,131.0981 C463.9922,129.7401 464.5192,128.6901 465.5712,127.9471 C466.6242,127.2041 468.1162,126.8331 470.0492,126.8331 C471.8902,126.8331 473.6812,127.2341 475.4222,128.0361 L474.1642,131.0441 C473.3982,130.7161 472.6832,130.4471 472.0182,130.2371 C471.3532,130.0271 470.6732,129.9231 469.9812,129.9231 C468.7502,129.9231 468.1352,130.2561 468.1352,130.9211 C468.1352,131.2951 468.3332,131.6181 468.7302,131.8911 C469.1262,132.1651 469.9942,132.5701 471.3342,133.1081 C472.5282,133.5921 473.4032,134.0431 473.9592,134.4621 C474.5152,134.8811 474.9252,135.3641 475.1902,135.9111 C475.4542,136.4581 475.5862,137.1091 475.5862,137.8661" id="Fill-40" fill="#000000"></path> </g> </g> </svg> 