<?xml version="1.0" encoding="UTF-8" standalone="no"?>
<svg width="719px" height="209px" viewBox="0 0 719 209" version="1.1" xmlns="http://www.w3.org/2000/svg" xmlns:xlink="http://www.w3.org/1999/xlink">
    <!-- Generator: Sketch 3.8.2 (29753) - http://www.bohemiancoding.com/sketch -->
    <title>eblink</title>
    <desc>Created with Sketch.</desc>
    <defs></defs>
    <g id="Page-1" stroke="none" stroke-width="1" fill="none" fill-rule="evenodd">
        <g id="eblink">
            <g id="Group-3" transform="translate(0.000000, 0.793425)" fill="#FDFDFD">
                <path d="M697.503019,80.8550382 C702.667509,74.6612224 707.985871,71.0598408 707.840393,67.6966829 C707.686521,64.1457487 702.317801,60.8246303 699.226381,57.4054197 C695.771264,60.5583803 690.368972,63.2489066 689.476517,67.0128408 C688.757517,70.0424855 693.496762,74.3697487 697.503019,80.8550382 L697.503019,80.8550382 Z M341.623198,66.5560118 L379.752579,66.5560118 L379.752579,34.1912224 L341.623198,34.1912224 L341.623198,66.5560118 Z M434.223124,207.511564 C434.223124,182.200999 434.382591,158.429078 434.15598,134.659959 C434.044074,122.827249 439.365233,115.103196 450.239758,111.140275 C482.345766,99.4448934 502.335085,113.065683 502.337883,146.554328 L502.337883,207.430288 L541.480019,207.430288 C541.480019,183.050196 541.558354,159.286683 541.457638,135.525972 C541.359719,112.41267 532.412786,99.0553276 510.907132,90.4652618 C489.415467,81.8808013 467.252361,81.9116303 444.871039,86.1912487 C441.723665,86.7910118 438.50635,88.1026434 435.431716,87.8279855 C422.411381,86.6761039 409.433011,85.047775 395.853144,83.5259461 L395.853144,207.511564 L434.223124,207.511564 Z M379.324537,207.856288 L379.324537,85.0309592 L340.761517,85.0309592 L340.761517,183.081025 C331.00326,183.081025 322.201805,182.534512 313.492673,183.209946 C301.029074,184.179657 297.557171,178.692104 297.67747,166.750091 C298.18105,115.913157 297.890093,65.0734197 297.890093,14.2336829 L297.890093,0.893156579 L258.566109,0.893156579 C258.566109,55.3987355 258.563311,109.010275 258.566109,162.619012 C258.566109,192.329709 271.096852,206.382104 301.171754,207.63488 C326.706046,208.69988 352.32147,207.856288 379.324537,207.856288 L379.324537,207.856288 Z M643.334622,136.33313 C667.609965,117.79092 687.686011,102.45492 710.836692,84.7703145 C698.070945,84.7703145 689.286276,85.5634592 680.703039,84.5937487 C665.813863,82.9149724 653.934976,87.5953671 642.612825,97.2700513 C628.308361,109.489525 612.786914,120.279657 595.323887,133.561328 L595.323887,0.792261842 L556.676937,0.792261842 L556.676937,207.225696 L595.852646,207.225696 C592.470268,183.944236 594.196428,163.269222 620.978478,155.037893 C634.894066,169.841393 649.145373,185.227841 663.712817,200.305999 C666.762272,203.464564 670.855256,207.427486 674.68526,207.682525 C688.259533,208.579367 701.926128,208.032854 715.559151,208.032854 C716.535537,206.424143 717.514719,204.815433 718.493902,203.209525 C693.826887,181.262117 669.162669,159.314709 643.334622,136.33313 L643.334622,136.33313 Z M118.098128,82.3796697 L35.505451,82.3796697 L35.505451,35.9428671 L99.9888401,35.9428671 L99.9888401,1.09494605 L0.000279766537,1.09494605 L0.000279766537,207.133209 L99.8825288,207.133209 L99.8825288,171.635078 L35.4942603,171.635078 L35.4942603,116.852038 L118.436646,116.852038 C133.31463,117.05663 148.212198,116.888472 163.067801,117.586328 C175.066988,118.152459 187.331953,118.466354 198.914288,121.249367 C212.611657,124.542459 215.24426,136.361157 214.930922,148.88892 C214.611988,161.61567 207.746517,169.513486 195.540303,170.463578 C180.933692,171.595841 166.176007,170.729828 151.524634,170.729828 C151.130163,163.978288 150.760871,157.677972 150.388782,151.315999 L118.688435,151.315999 L118.688435,207.576025 C143.181996,207.576025 166.956556,209.123078 190.456945,207.236907 C231.94912,203.904578 254.543066,175.967946 249.91293,136.781551 C247.873432,119.517341 238.509646,106.919512 223.972976,97.1215118 C244.871537,78.2990382 248.956128,56.0433408 238.948879,31.6968803 C229.06193,7.64749868 207.780089,1.06131447 184.260116,0.346643421 C162.466303,-0.317580263 140.63612,0.203709211 118.587719,0.203709211 L118.587719,56.9429855 L150.349614,56.9429855 C150.808432,50.1774329 151.239272,43.8715118 151.689696,37.2320776 C166.192793,37.2320776 180.220288,35.8615908 193.730214,37.9131171 C199.034587,38.7174724 205.936428,46.5171961 207.315677,52.2822092 C211.044965,67.8564329 203.955681,78.2177618 187.746007,79.7311829 C164.648482,81.8864066 141.327144,81.6145513 118.098128,82.3796697 L118.098128,82.3796697 Z" id="Fill-1"></path>
            </g>
            <g id="Group-6" transform="translate(117.501946, 0.793425)" fill="#060606">
                <path d="M0.59702179,82.3788289 C23.8232397,81.6137105 47.1473759,81.8855658 70.2449012,79.7303421 C86.4545743,78.2169211 93.5438584,67.8583947 89.8145704,52.2813684 C88.4353214,46.5163553 81.5306833,38.7194342 76.2291074,37.9122763 C62.7191813,35.8635526 48.6916872,37.2312368 34.1885899,37.2312368 C33.7353681,43.8706711 33.3073253,50.1765921 32.8457105,56.9421447 L1.08661323,56.9421447 L1.08661323,0.202868421 C23.1322163,0.202868421 44.9623992,-0.318421053 66.7590101,0.345802632 C90.2761852,1.06047368 111.558026,7.64665789 121.444975,31.6988421 C131.452224,56.0453026 127.367633,78.301 106.47187,97.1234737 C121.008539,106.921474 130.369528,119.5165 132.409026,136.780711 C137.039162,175.967105 114.445216,203.903737 72.9558389,207.236066 C49.4554498,209.125039 25.6780918,207.577987 1.18732918,207.577987 L1.18732918,151.317961 L32.8876755,151.317961 C33.259765,157.677132 33.6290568,163.98025 34.0235276,170.728987 C48.6721035,170.728987 63.432586,171.595 78.0363992,170.462737 C90.2454109,169.515447 97.1108817,161.617632 97.4270179,148.888079 C97.7403564,136.360316 95.110551,124.541618 81.4131813,121.248526 C69.8308467,118.465513 57.5658817,118.151618 45.5638973,117.585487 C30.7082942,116.887632 15.8135237,117.058592 0.938336965,116.854 C0.82643035,105.363211 0.71172607,93.8724211 0.59702179,82.3788289" id="Fill-4"></path>
            </g>
            <path d="M118.098967,83.1722539 C118.213672,94.6658461 118.328376,106.156636 118.440282,117.647425 L35.4923019,117.647425 L35.4923019,172.427662 L99.8833681,172.427662 L99.8833681,207.925793 L0.00111906615,207.925793 L0.00111906615,1.88753026 L99.9896794,1.88753026 L99.9896794,36.7354513 L35.5062903,36.7354513 L35.5062903,83.1722539 L118.098967,83.1722539 Z" id="Fill-7" fill="#83BD0C"></path>
            <g id="Group-11" transform="translate(556.000000, 0.793425)" fill="#090909">
                <path d="M87.3349019,136.33285 C113.162949,159.314429 137.827167,181.261837 162.494182,203.209245 C161.514999,204.815153 160.535816,206.423863 159.556633,208.032574 C145.926408,208.032574 132.259812,208.579087 118.68554,207.682245 C114.855536,207.427205 110.762552,203.464284 107.713096,200.305718 C93.1456529,185.227561 78.8943455,169.841113 64.978758,155.037613 C38.1967074,163.268942 36.4705479,183.943955 39.8529253,207.225416 L0.677217121,207.225416 L0.677217121,0.791981579 L39.3241665,0.791981579 L39.3241665,133.56385 C56.7871938,120.279376 72.3086412,109.492047 86.6131043,97.2697711 C97.935256,87.5950868 109.811346,82.9146921 124.703318,84.5934684 C133.286556,85.5631789 142.071225,84.7700342 154.836972,84.7700342 C131.686291,102.454639 111.610244,117.790639 87.3349019,136.33285" id="Fill-9"></path>
            </g>
            <path d="M379.323418,208.649153 C352.323149,208.649153 326.707725,209.495547 301.170635,208.430547 C271.09853,207.174968 258.567787,193.122574 258.564989,163.414679 C258.562192,109.803139 258.564989,56.1916 258.564989,1.68602105 L297.891772,1.68602105 L297.891772,15.0265474 C297.891772,65.8662842 298.182729,116.708824 297.676351,167.542955 C297.556052,179.487771 301.030752,184.972521 313.494351,184.002811 C322.200686,183.327376 331.004939,183.873889 340.760398,183.873889 L340.760398,85.8238237 L379.323418,85.8238237 L379.323418,208.649153 Z" id="Fill-12" fill="#070707"></path>
            <path d="M434.223684,208.306391 L395.853703,208.306391 L395.853703,84.3207724 L435.365131,84.163825 L435.432275,88.6228118 C438.506909,88.8946671 441.724225,87.5858382 444.871598,86.9832724 C467.252921,82.7064566 489.416026,82.672825 510.904894,91.2600882 C532.410547,99.8501539 541.360279,113.204693 541.458197,136.320799 C541.556116,160.081509 541.480579,183.84222 541.480579,208.225114 L502.338442,208.225114 C502.338442,188.012536 502.338442,167.679443 502.335645,147.349154 C502.332847,113.860509 482.346326,100.236917 450.23752,111.935101 C439.362995,115.898022 434.041835,123.619272 434.15654,135.454786 C434.383151,159.221101 434.223684,182.993022 434.223684,208.306391" id="Fill-14" fill="#060606"></path>
            <polygon id="Fill-16" fill="#090909" points="341.622918 67.3513987 379.7523 67.3513987 379.7523 34.9866092 341.622918 34.9866092"></polygon>
        </g>
    </g>
</svg>