<?xml version="1.0" encoding="UTF-8" standalone="no"?>
<svg width="644px" height="208px" viewBox="0 0 644 208" version="1.1" xmlns="http://www.w3.org/2000/svg" xmlns:xlink="http://www.w3.org/1999/xlink">
    <!-- Generator: Sketch 3.8.2 (29753) - http://www.bohemiancoding.com/sketch -->
    <title>lengow</title>
    <desc>Created with Sketch.</desc>
    <defs>
        <polygon id="path-1" points="81.0643 0.901 0.2283 0.901 0.2283 41.4585 81.0643 41.4585 81.0643 0.901"></polygon>
        <polygon id="path-3" points="8.13151629e-20 0.8623 8.13151629e-20 59.8103 70.7107 59.8103 70.7107 0.8623 0 0.8623"></polygon>
        <polygon id="path-5" points="69.1288 0.901 0.9178 0.901 0.9178 41.4586 69.1288 41.4586 69.1288 0.901"></polygon>
        <polygon id="path-7" points="0 208.099 643.282 208.099 643.282 1 0 1"></polygon>
    </defs>
    <g id="Page-1" stroke="none" stroke-width="1" fill="none" fill-rule="evenodd">
        <g id="lengow" transform="translate(0.000000, -1.000000)">
            <g id="Group-3" transform="translate(10.000000, 0.099000)">
                <mask id="mask-2" fill="white">
                    <use xlink:href="#path-1"></use>
                </mask>
                <g id="Clip-2"></g>
                <path d="M10.3533,41.3195 C10.3533,24.5885 23.9163,11.0255 40.6463,11.0255 C57.3763,11.0255 70.9393,24.5885 70.9393,41.3195 C70.9393,41.3655 70.9363,41.4115 70.9363,41.4585 L81.0603,41.4585 C81.0603,41.4115 81.0643,41.3655 81.0643,41.3195 C81.0643,18.9965 62.9683,0.9005 40.6463,0.9005 C18.3243,0.9005 0.2283,18.9965 0.2283,41.3195 C0.2283,41.3655 0.2313,41.4115 0.2313,41.4585 L10.3563,41.4585 C10.3563,41.4115 10.3533,41.3655 10.3533,41.3195" id="Fill-1" fill="#2D6091" mask="url(#mask-2)"></path>
            </g>
            <path d="M26.1055,167.5407 C25.8175,167.4997 25.5315,167.4567 25.2445,167.4087 C25.5315,167.4567 25.8175,167.5007 26.1055,167.5407" id="Fill-4" fill="#2D6091"></path>
            <path d="M0.6691,143.8783 C0.6371,143.7303 0.6071,143.5823 0.5781,143.4343 C0.6071,143.5823 0.6371,143.7303 0.6691,143.8783" id="Fill-6" fill="#2D6091"></path>
            <path d="M0.3633,142.2357 C0.3493,142.1417 0.3373,142.0467 0.3233,141.9527 C0.3373,142.0467 0.3493,142.1417 0.3633,142.2357" id="Fill-8" fill="#2D6091"></path>
            <path d="M2.6762,149.9883 C2.4972,149.5903 2.3252,149.1883 2.1632,148.7823 C2.3252,149.1883 2.4972,149.5903 2.6762,149.9883" id="Fill-10" fill="#2D6091"></path>
            <path d="M0.1813,140.8331 C0.1703,140.7361 0.1583,140.6391 0.1493,140.5421 C0.1583,140.6391 0.1703,140.7361 0.1813,140.8331" id="Fill-12" fill="#2D6091"></path>
            <path d="M0.0497,139.2276 C0.0437,139.1286 0.0397,139.0306 0.0357,138.9326 C0.0397,139.0306 0.0437,139.1286 0.0497,139.2276" id="Fill-14" fill="#2D6091"></path>
            <path d="M1.9958,148.3584 C1.9118,148.1384 1.8288,147.9164 1.7488,147.6954 C1.8288,147.9174 1.9118,148.1384 1.9958,148.3584" id="Fill-16" fill="#2D6091"></path>
            <path d="M24.8223,167.3334 C24.5013,167.2734 24.1813,167.2144 23.8643,167.1444 C24.1813,167.2134 24.5013,167.2734 24.8223,167.3334" id="Fill-18" fill="#2D6091"></path>
            <path d="M1.4336,146.761 C1.3726,146.573 1.3176,146.383 1.2606,146.193 C1.3176,146.383 1.3726,146.573 1.4336,146.761" id="Fill-20" fill="#2D6091"></path>
            <path d="M1.0533,145.4634 C1.0043,145.2824 0.9553,145.1024 0.9093,144.9194 C0.9553,145.1024 1.0043,145.2824 1.0533,145.4634" id="Fill-22" fill="#2D6091"></path>
            <path d="M3.5718,151.8104 C3.2998,151.3014 3.0428,150.7834 2.7978,150.2574 C3.1978,151.1194 3.6358,151.9584 4.1118,152.7734 C3.9328,152.4664 3.7588,152.1574 3.5918,151.8454 C3.5848,151.8344 3.5788,151.8224 3.5718,151.8104" id="Fill-24" fill="#2D6091"></path>
            <path d="M14.1143,163.1474 C14.0353,163.0964 13.9563,163.0464 13.8773,162.9954 C13.6413,162.8424 13.4053,162.6864 13.1733,162.5274 C13.0823,162.4644 12.9913,162.4004 12.9003,162.3364 C12.6843,162.1854 12.4713,162.0314 12.2603,161.8744 C12.1563,161.7964 12.0523,161.7184 11.9493,161.6394 C11.7553,161.4924 11.5643,161.3424 11.3753,161.1904 C11.2563,161.0964 11.1393,161.0014 11.0243,160.9054 C10.8523,160.7644 10.6843,160.6224 10.5173,160.4774 C10.3863,160.3644 10.2563,160.2504 10.1273,160.1354 C9.9793,160.0034 9.8323,159.8694 9.6863,159.7344 C9.5443,159.6024 9.4023,159.4684 9.2633,159.3334 C9.1353,159.2114 9.0093,159.0864 8.8853,158.9624 C8.7313,158.8094 8.5793,158.6544 8.4303,158.4974 C8.3233,158.3864 8.2173,158.2734 8.1123,158.1614 C7.9493,157.9854 7.7883,157.8084 7.6293,157.6294 C7.5423,157.5314 7.4563,157.4324 7.3693,157.3334 C7.1983,157.1354 7.0303,156.9344 6.8623,156.7314 C6.7943,156.6484 6.7263,156.5634 6.6583,156.4784 C6.4803,156.2564 6.3043,156.0314 6.1323,155.8054 C6.0803,155.7354 6.0283,155.6664 5.9763,155.5974 C5.7933,155.3514 5.6143,155.1034 5.4403,154.8514 C5.4013,154.7984 5.3633,154.7434 5.3263,154.6884 C5.1483,154.4304 4.9753,154.1694 4.8053,153.9054 C7.4003,157.9384 10.9233,161.3144 15.0773,163.7324 C15.0103,163.6934 14.9453,163.6544 14.8783,163.6154 C14.6223,163.4624 14.3673,163.3064 14.1143,163.1474" id="Fill-26" fill="#2D6091"></path>
            <path d="M4.1568,152.8527 C4.3328,153.1517 4.5148,153.4467 4.6998,153.7397 C4.5178,153.4537 4.3398,153.1637 4.1668,152.8697 C4.1638,152.8647 4.1598,152.8587 4.1568,152.8527" id="Fill-28" fill="#2D6091"></path>
            <path d="M18.0141,165.2334 C17.7041,165.0964 17.3961,164.9534 17.0931,164.8064 C17.0441,164.7824 16.9961,164.7584 16.9481,164.7354 C16.6541,164.5904 16.3621,164.4424 16.0751,164.2874 C16.0171,164.2574 15.9601,164.2264 15.9041,164.1964 C15.6291,164.0464 15.3561,163.8944 15.0871,163.7384 C16.3601,164.4784 17.6921,165.1284 19.0741,165.6804 C18.7581,165.5544 18.4451,165.4234 18.1351,165.2874 C18.0941,165.2694 18.0541,165.2524 18.0141,165.2334" id="Fill-30" fill="#2D6091"></path>
            <path d="M27.4584,167.6983 C27.1914,167.6733 26.9254,167.6423 26.6604,167.6103 C26.9254,167.6423 27.1914,167.6743 27.4584,167.6983" id="Fill-32" fill="#2D6091"></path>
            <path d="M28.8536,167.7994 C28.6116,167.7874 28.3716,167.7674 28.1316,167.7494 C28.3726,167.7674 28.6116,167.7874 28.8536,167.7994" id="Fill-34" fill="#2D6091"></path>
            <path d="M20.25,166.1232 C20.234,166.1172 20.216,166.1102 20.2,166.1042 C19.878,165.9892 19.558,165.8692 19.239,165.7452 C20.688,166.3132 22.19,166.7732 23.737,167.1152 C22.547,166.8512 21.383,166.5202 20.25,166.1212 L20.25,166.1232 Z" id="Fill-36" fill="#2D6091"></path>
            <path d="M15.0809,163.7345 C15.0839,163.7355 15.0839,163.7365 15.0869,163.7375 C15.0839,163.7355 15.0799,163.7335 15.0769,163.7315 L15.0809,163.7345 Z" id="Fill-38" fill="#2D6091"></path>
            <path d="M4.7083,153.7539 C4.7333,153.7939 4.7583,153.8339 4.7853,153.8729 C4.7913,153.8839 4.7993,153.8949 4.8063,153.9049 C4.7703,153.8509 4.7343,153.7949 4.7003,153.7399 C4.7023,153.7449 4.7053,153.7499 4.7083,153.7539" id="Fill-40" fill="#2D6091"></path>
            <path d="M4.1242,152.7957 C4.1352,152.8137 4.1462,152.8327 4.1572,152.8527 C4.1412,152.8257 4.1272,152.7997 4.1112,152.7727 C4.1162,152.7807 4.1202,152.7877 4.1242,152.7957" id="Fill-42" fill="#2D6091"></path>
            <path d="M19.0996,165.6911 C19.1336,165.7041 19.1676,165.7181 19.2016,165.7311 C19.2136,165.7361 19.2276,165.7401 19.2396,165.7461 C19.1836,165.7241 19.1286,165.7021 19.0746,165.6801 C19.0816,165.6831 19.0906,165.6881 19.0996,165.6911" id="Fill-44" fill="#2D6091"></path>
            <path d="M28.1319,167.7498 C27.9069,167.7338 27.6819,167.7198 27.4589,167.6988 C27.6819,167.7198 27.9069,167.7338 28.1319,167.7498" id="Fill-46" fill="#2D6091"></path>
            <path d="M26.6604,167.6104 C26.4744,167.5884 26.2904,167.5654 26.1054,167.5404 C26.2904,167.5664 26.4744,167.5884 26.6604,167.6104" id="Fill-48" fill="#2D6091"></path>
            <path d="M23.864,167.1447 C23.821,167.1357 23.779,167.1247 23.737,167.1147 C23.779,167.1247 23.821,167.1357 23.864,167.1447" id="Fill-50" fill="#2D6091"></path>
            <path d="M25.2449,167.4083 C25.1039,167.3843 24.9629,167.3583 24.8219,167.3333 C24.9629,167.3583 25.1039,167.3843 25.2449,167.4083" id="Fill-52" fill="#2D6091"></path>
            <path d="M0.3232,141.953 C0.2692,141.582 0.2222,141.209 0.1812,140.833 C0.2222,141.209 0.2692,141.582 0.3232,141.953" id="Fill-54" fill="#2D6091"></path>
            <path d="M0.1494,140.5421 C0.1054,140.1061 0.0734,139.6681 0.0494,139.2271 C0.0734,139.6681 0.1054,140.1061 0.1494,140.5421" id="Fill-56" fill="#2D6091"></path>
            <path d="M20.25,108.9609 L20.25,108.9609 L20.25,46.7369 L0,46.7369 L0,137.5419 C0,124.3329 8.457,113.1039 20.25,108.9609" id="Fill-58" fill="#37AADC"></path>
            <path d="M0.5776,143.434 C0.4996,143.037 0.4256,142.638 0.3636,142.236 C0.4266,142.638 0.4986,143.037 0.5776,143.434" id="Fill-60" fill="#2D6091"></path>
            <path d="M0.0353,138.9323 C0.0143,138.4703 0.0003,138.0083 0.0003,137.5423 C0.0003,138.0083 0.0143,138.4703 0.0353,138.9323" id="Fill-62" fill="#2D6091"></path>
            <path d="M2.7983,150.2575 C2.7573,150.1685 2.7163,150.0785 2.6763,149.9885 C2.7173,150.0785 2.7573,150.1685 2.7983,150.2575" id="Fill-64" fill="#2D6091"></path>
            <path d="M1.7489,147.6954 C1.6389,147.3864 1.5329,147.0754 1.4339,146.7614 C1.5339,147.0754 1.6389,147.3864 1.7489,147.6954" id="Fill-66" fill="#2D6091"></path>
            <path d="M2.1636,148.7822 C2.1066,148.6412 2.0506,148.5002 1.9956,148.3582 C2.0506,148.5002 2.1066,148.6412 2.1636,148.7822" id="Fill-68" fill="#2D6091"></path>
            <path d="M0.9091,144.9198 C0.8221,144.5748 0.7431,144.2278 0.6691,143.8778 C0.7431,144.2278 0.8221,144.5748 0.9091,144.9198" id="Fill-70" fill="#2D6091"></path>
            <path d="M1.2606,146.193 C1.1886,145.951 1.1196,145.708 1.0536,145.463 C1.1196,145.708 1.1886,145.952 1.2606,146.193" id="Fill-72" fill="#2D6091"></path>
            <g id="Group-76" transform="translate(0.000000, 108.099000)">
                <mask id="mask-4" fill="white">
                    <use xlink:href="#path-3"></use>
                </mask>
                <g id="Clip-75"></g>
                <path d="M58.8737,39.4853 L30.1717,39.4853 L30.1717,39.4793 C24.6817,39.4143 20.2497,34.9483 20.2497,29.4433 L20.2497,0.8623 C8.4577,5.0053 -0.0003,16.2343 -0.0003,29.4433 C-0.0003,29.9093 0.0147,30.3713 0.0357,30.8333 C0.0397,30.9313 0.0437,31.0293 0.0497,31.1283 C0.0727,31.5693 0.1057,32.0073 0.1497,32.4433 C0.1587,32.5403 0.1707,32.6373 0.1817,32.7343 C0.2217,33.1093 0.2687,33.4833 0.3227,33.8543 C0.3377,33.9473 0.3497,34.0423 0.3637,34.1363 C0.4257,34.5393 0.4987,34.9383 0.5777,35.3353 C0.6067,35.4833 0.6367,35.6313 0.6687,35.7793 C0.7437,36.1293 0.8227,36.4753 0.9087,36.8213 C0.9547,37.0033 1.0047,37.1833 1.0537,37.3643 C1.1197,37.6093 1.1887,37.8523 1.2607,38.0943 C1.3177,38.2843 1.3727,38.4743 1.4337,38.6623 C1.5337,38.9763 1.6387,39.2873 1.7487,39.5963 C1.8287,39.8173 1.9117,40.0393 1.9957,40.2593 C2.0507,40.4013 2.1067,40.5423 2.1637,40.6833 C2.3257,41.0893 2.4967,41.4913 2.6757,41.8893 C2.7167,41.9793 2.7567,42.0693 2.7987,42.1583 C3.0427,42.6843 3.2997,43.2023 3.5717,43.7113 C3.5787,43.7233 3.5847,43.7353 3.5917,43.7463 C3.7587,44.0583 3.9327,44.3673 4.1117,44.6743 C4.1267,44.7003 4.1407,44.7263 4.1567,44.7533 C4.1607,44.7593 4.1637,44.7653 4.1667,44.7713 C4.3397,45.0643 4.5177,45.3543 4.6997,45.6403 C4.7347,45.6963 4.7707,45.7513 4.8057,45.8063 C4.9757,46.0703 5.1477,46.3313 5.3257,46.5893 C5.3637,46.6443 5.4017,46.6993 5.4397,46.7523 C5.6147,47.0043 5.7937,47.2523 5.9767,47.4983 C6.0287,47.5673 6.0807,47.6363 6.1327,47.7063 C6.3047,47.9323 6.4807,48.1573 6.6577,48.3793 C6.7257,48.4643 6.7937,48.5493 6.8627,48.6323 C7.0297,48.8353 7.1987,49.0363 7.3697,49.2343 C7.4557,49.3333 7.5427,49.4323 7.6297,49.5303 C7.7887,49.7093 7.9497,49.8863 8.1127,50.0623 C8.2177,50.1743 8.3227,50.2873 8.4297,50.3983 C8.5797,50.5553 8.7307,50.7103 8.8857,50.8633 C9.0097,50.9873 9.1357,51.1123 9.2627,51.2343 C9.4027,51.3693 9.5437,51.5033 9.6857,51.6353 C9.8317,51.7703 9.9797,51.9043 10.1277,52.0363 C10.2567,52.1513 10.3857,52.2653 10.5167,52.3783 C10.6837,52.5233 10.8527,52.6653 11.0237,52.8063 C11.1397,52.9023 11.2567,52.9973 11.3747,53.0913 C11.5647,53.2433 11.7557,53.3933 11.9497,53.5403 C12.0527,53.6193 12.1557,53.6973 12.2597,53.7753 C12.4717,53.9323 12.6847,54.0863 12.9007,54.2373 C12.9917,54.3013 13.0817,54.3653 13.1737,54.4283 C13.4057,54.5873 13.6407,54.7433 13.8777,54.8963 C13.9557,54.9473 14.0347,54.9973 14.1147,55.0483 C14.3667,55.2073 14.6217,55.3633 14.8787,55.5163 C14.9447,55.5553 15.0107,55.5943 15.0767,55.6333 C15.0797,55.6343 15.0837,55.6363 15.0867,55.6393 C15.3557,55.7953 15.6287,55.9483 15.9037,56.0973 C15.9597,56.1273 16.0167,56.1583 16.0747,56.1883 C16.3627,56.3433 16.6537,56.4923 16.9487,56.6363 C16.9957,56.6593 17.0437,56.6833 17.0927,56.7073 C17.3967,56.8543 17.7047,56.9973 18.0137,57.1343 C18.0547,57.1533 18.0937,57.1703 18.1347,57.1883 C18.4447,57.3243 18.7577,57.4553 19.0747,57.5813 C19.1287,57.6033 19.1837,57.6253 19.2397,57.6463 C19.5577,57.7703 19.8777,57.8903 20.1997,58.0053 C20.2167,58.0113 20.2337,58.0183 20.2497,58.0243 L20.2497,58.0223 C21.3827,58.4213 22.5467,58.7523 23.7377,59.0163 C23.7787,59.0263 23.8217,59.0363 23.8637,59.0453 C24.1807,59.1153 24.5017,59.1743 24.8227,59.2343 C24.9627,59.2593 25.1037,59.2853 25.2447,59.3093 C25.5307,59.3583 25.8177,59.4003 26.1057,59.4413 C26.2897,59.4663 26.4747,59.4893 26.6607,59.5113 C26.9257,59.5433 27.1907,59.5743 27.4587,59.5993 C27.6817,59.6203 27.9067,59.6343 28.1317,59.6503 C28.3717,59.6683 28.6117,59.6883 28.8537,59.7003 C29.2907,59.7203 29.7307,59.7323 30.1717,59.7343 L30.1717,59.8103 L70.7107,59.8103 L70.7107,39.4853 L58.8737,39.4853 Z" id="Fill-74" fill="#1898D5" mask="url(#mask-4)"></path>
            </g>
            <path d="M121.1722,76.955 C121.1722,76.937 121.1712,76.918 121.1712,76.898 L121.1712,77.012 C121.1712,76.994 121.1722,76.975 121.1722,76.955" id="Fill-77" fill="#2D6091"></path>
            <path d="M100.9204,105.5376 L100.9204,108.9596 L100.9204,136.7456 L100.8804,136.7456 C100.9014,137.0086 100.9204,137.2726 100.9204,137.5426 C100.9204,143.0886 96.4234,147.5846 90.8764,147.5846 L80.8344,147.5846 L80.8344,166.1236 L80.8344,167.9096 L90.8764,167.9096 L90.8764,167.8356 L90.8774,167.8356 C95.6334,167.8356 100.1294,166.7346 104.1324,164.7816 C104.1404,164.7766 104.1484,164.7736 104.1564,164.7696 C104.4894,164.6066 104.8194,164.4376 105.1444,164.2636 C105.1644,164.2526 105.1844,164.2416 105.2044,164.2316 C105.5174,164.0626 105.8264,163.8896 106.1324,163.7106 C106.1654,163.6906 106.1984,163.6726 106.2314,163.6526 C106.5224,163.4806 106.8084,163.3056 107.0924,163.1256 C107.1414,163.0946 107.1894,163.0646 107.2364,163.0326 C107.5034,162.8626 107.7654,162.6866 108.0254,162.5076 C108.0904,162.4626 108.1554,162.4186 108.2184,162.3736 C108.4594,162.2056 108.6974,162.0336 108.9334,161.8576 C109.0134,161.7986 109.0944,161.7376 109.1744,161.6776 C109.3894,161.5136 109.6034,161.3466 109.8134,161.1776 C109.9114,161.1006 110.0064,161.0226 110.1024,160.9436 C110.2924,160.7866 110.4794,160.6286 110.6664,160.4676 C110.7794,160.3696 110.8914,160.2716 111.0024,160.1736 C111.1674,160.0266 111.3304,159.8786 111.4924,159.7276 C111.6194,159.6086 111.7464,159.4896 111.8714,159.3686 C112.0124,159.2336 112.1504,159.0966 112.2894,158.9596 C112.4304,158.8176 112.5704,158.6756 112.7094,158.5306 C112.8264,158.4086 112.9424,158.2866 113.0584,158.1616 C113.2114,157.9966 113.3644,157.8296 113.5144,157.6606 C113.6094,157.5536 113.7034,157.4456 113.7964,157.3376 C113.9624,157.1476 114.1244,156.9546 114.2854,156.7596 C114.3594,156.6686 114.4324,156.5786 114.5064,156.4866 C114.6794,156.2696 114.8514,156.0516 115.0184,155.8316 C115.0754,155.7566 115.1314,155.6806 115.1874,155.6056 C115.3674,155.3656 115.5434,155.1216 115.7154,154.8746 C115.7564,154.8166 115.7964,154.7576 115.8374,154.6996 C116.0204,154.4336 116.1994,154.1646 116.3744,153.8916 C116.4024,153.8506 116.4274,153.8096 116.4534,153.7676 C116.6384,153.4766 116.8184,153.1836 116.9934,152.8866 C117.0094,152.8596 117.0244,152.8336 117.0394,152.8086 C117.2234,152.4946 117.4014,152.1766 117.5734,151.8576 C117.5794,151.8456 117.5854,151.8346 117.5914,151.8226 C119.8724,147.5686 121.1704,142.7086 121.1704,137.5426 L121.1704,77.0116 C121.1464,90.1976 112.6964,101.3996 100.9204,105.5376" id="Fill-79" fill="#0F395C"></path>
            <path d="M100.9204,46.5227 L30.2924,46.5227 L30.2924,66.9117 L62.2984,66.9117 L100.9204,66.9117 L100.9204,105.5377 C112.6964,101.3997 121.1464,90.1967 121.1704,77.0117 L121.1704,76.8977 L121.1704,66.9117 L121.1704,46.5227 L100.9204,46.5227 Z" id="Fill-81" fill="#2D6091"></path>
            <g id="Group-85" transform="translate(42.000000, 0.099000)">
                <mask id="mask-6" fill="white">
                    <use xlink:href="#path-5"></use>
                </mask>
                <g id="Clip-84"></g>
                <path d="M28.7108,0.9006 C17.9408,0.9006 8.1618,5.1216 0.9178,11.9906 C3.3468,11.3606 5.8948,11.0256 8.5218,11.0256 C12.0628,11.0256 15.4578,11.6396 18.6168,12.7556 C21.7748,11.6396 25.1708,11.0256 28.7108,11.0256 C45.4408,11.0256 59.0038,24.5886 59.0038,41.3196 C59.0038,41.3656 58.9998,41.4116 58.9998,41.4586 L69.1258,41.4586 C69.1258,41.4116 69.1288,41.3656 69.1288,41.3196 C69.1288,18.9966 51.0328,0.9006 28.7108,0.9006" id="Fill-83" fill="#2D6091" mask="url(#mask-6)"></path>
            </g>
            <path d="M30.2964,41.5579 L40.4214,41.5579 C40.4214,41.5109 40.4184,41.4649 40.4184,41.4189 C40.4184,31.1259 45.5524,22.0359 53.3984,16.5629 C52.4554,16.4549 51.4954,16.3939 50.5214,16.3939 C44.9614,16.3939 39.8264,18.2099 35.6714,21.2779 C32.2524,27.2069 30.2924,34.0819 30.2924,41.4189 C30.2924,41.4649 30.2964,41.5109 30.2964,41.5579" id="Fill-86" fill="#2D6091"></path>
            <path d="M622.3824,121.0506 L622.3824,133.9676 C622.3824,143.1516 615.7334,149.4846 606.5494,149.4846 C592.7754,149.4846 591.1924,138.5596 591.1924,133.9676 L591.1924,131.5356 L591.1924,117.3046 C584.2804,119.5646 577.3134,121.7016 570.2934,123.7186 L570.2934,133.9676 C570.2934,134.6996 570.2484,135.4106 570.1674,136.1046 C569.2354,144.1176 563.0574,149.4846 554.4614,149.4846 C545.7814,149.4846 541.9944,145.0446 540.3884,140.6366 C539.4734,138.1296 539.2624,135.6336 539.2624,133.9676 L539.2624,131.7606 C526.3054,134.7506 513.1884,137.3196 499.9314,139.4696 C498.9544,141.3936 497.7494,143.1136 496.3544,144.5886 C492.7524,148.3946 487.9064,150.5926 482.5804,150.5926 C477.8674,150.5926 473.5294,148.8696 470.0974,145.8346 C469.3854,145.2056 468.7174,144.5116 468.0854,143.7716 C450.9564,145.6306 433.6154,146.7846 416.0884,147.1936 C413.0144,149.1496 409.4474,150.2756 405.6334,150.2756 C401.8664,150.2756 398.3384,149.2096 395.2884,147.3296 C379.4284,147.1696 363.7124,146.4046 348.1614,145.0546 L348.1614,167.8506 L369.0614,167.8506 L369.0614,148.5996 C375.8664,161.1546 388.4424,169.5916 402.7834,169.5916 C411.9674,169.5916 420.3574,166.4256 426.5334,160.4086 L426.5334,164.0506 C426.5334,178.6166 419.8824,188.2746 405.1594,188.2746 L388.7914,188.2746 L398.2984,207.2756 C400.5344,207.5846 402.8254,207.7476 405.1594,207.7476 C431.2834,207.7476 447.4324,190.8066 447.4324,163.7336 L447.4324,149.4606 C454.6064,161.8336 467.6594,169.7496 482.5804,169.7496 C499.0884,169.7496 513.3934,160.0646 519.9394,145.3706 C524.1014,160.2646 536.3344,169.9086 554.4614,169.9086 C565.2274,169.9086 574.2514,165.4756 580.4264,158.3506 C586.4434,165.4756 595.4664,169.9086 606.5494,169.9086 C628.7154,169.9086 643.2814,154.0756 643.2814,133.3346 L643.2814,106.4686 L643.2814,97.5756 C636.3814,100.5586 629.4134,103.4176 622.3824,106.1506 L622.3824,121.0506 Z" id="Fill-88" fill="#1898D5"></path>
            <path d="M296.0718,141.8851 L277.2328,141.8851 C273.7498,148.3761 266.9418,151.3841 259.9748,151.3841 C250.1588,151.3841 242.2418,145.2091 239.5508,135.2341 L279.9808,135.2341 C259.2538,131.0401 238.9088,125.7931 219.0028,119.5541 C218.5658,122.0241 218.3358,124.5661 218.3358,127.1611 C218.3358,134.4841 220.1538,141.3631 223.3458,147.3701 L219.6958,147.3701 L190.9948,147.3701 L190.9948,147.3641 C185.5038,147.2991 181.0718,142.8331 181.0718,137.3271 L181.0718,108.7471 L181.0718,106.2611 C174.2618,103.6181 167.5118,100.8561 160.8228,97.9781 L160.8228,137.3271 C160.8228,137.7941 160.8368,138.2571 160.8578,138.7181 C160.8618,138.8161 160.8648,138.9151 160.8708,139.0131 C160.8958,139.4541 160.9278,139.8921 160.9708,140.3271 C160.9808,140.4251 160.9928,140.5221 161.0038,140.6191 C161.0438,140.9941 161.0908,141.3681 161.1458,141.7391 C161.1588,141.8331 161.1708,141.9281 161.1858,142.0221 C161.2478,142.4241 161.3218,142.8221 161.3998,143.2191 C161.4288,143.3681 161.4598,143.5161 161.4918,143.6641 C161.5648,144.0131 161.6448,144.3611 161.7318,144.7051 C161.7778,144.8881 161.8268,145.0681 161.8758,145.2491 C161.9418,145.4941 162.0108,145.7371 162.0828,145.9791 C162.1388,146.1691 162.1948,146.3591 162.2558,146.5471 C162.3558,146.8611 162.4618,147.1721 162.5718,147.4811 C162.6508,147.7031 162.7328,147.9241 162.8178,148.1441 C162.8728,148.2851 162.9288,148.4271 162.9848,148.5681 C163.1478,148.9741 163.3188,149.3761 163.4988,149.7731 C163.5388,149.8641 163.5798,149.9551 163.6208,150.0441 C163.8648,150.5701 164.1218,151.0871 164.3938,151.5961 C164.4008,151.6081 164.4068,151.6191 164.4128,151.6311 C164.5818,151.9441 164.7548,152.2521 164.9338,152.5591 C164.9488,152.5851 164.9638,152.6121 164.9788,152.6381 C164.9828,152.6441 164.9858,152.6491 164.9898,152.6561 C165.1628,152.9491 165.3388,153.2391 165.5218,153.5261 C165.5568,153.5811 165.5928,153.6361 165.6278,153.6911 C165.7978,153.9551 165.9708,154.2161 166.1478,154.4741 C166.1858,154.5281 166.2238,154.5831 166.2618,154.6381 C166.4368,154.8891 166.6158,155.1371 166.7988,155.3831 C166.8498,155.4521 166.9018,155.5211 166.9548,155.5901 C167.1268,155.8181 167.3018,156.0421 167.4798,156.2641 C167.5468,156.3491 167.6158,156.4331 167.6848,156.5181 C167.8518,156.7201 168.0208,156.9211 168.1918,157.1191 C168.2778,157.2191 168.3638,157.3171 168.4508,157.4161 C168.6108,157.5941 168.7718,157.7721 168.9348,157.9471 C169.0388,158.0591 169.1458,158.1721 169.2518,158.2831 C169.4028,158.4391 169.5528,158.5951 169.7068,158.7471 C169.8318,158.8721 169.9578,158.9961 170.0848,159.1191 C170.2248,159.2541 170.3658,159.3881 170.5088,159.5201 C170.6548,159.6561 170.8018,159.7891 170.9498,159.9221 C171.0778,160.0371 171.2078,160.1511 171.3398,160.2631 C171.5058,160.4081 171.6748,160.5501 171.8458,160.6911 C171.9618,160.7871 172.0788,160.8821 172.1968,160.9771 C172.3858,161.1291 172.5778,161.2781 172.7708,161.4261 C172.8748,161.5051 172.9778,161.5831 173.0818,161.6601 C173.2928,161.8171 173.5068,161.9701 173.7228,162.1221 C173.8138,162.1861 173.9038,162.2501 173.9958,162.3121 C174.2288,162.4721 174.4618,162.6281 174.6998,162.7811 C174.7788,162.8321 174.8568,162.8831 174.9368,162.9321 C175.1888,163.0921 175.4428,163.2491 175.7008,163.4001 C175.7668,163.4401 175.8328,163.4801 175.8988,163.5181 C175.9018,163.5201 175.9048,163.5211 175.9088,163.5231 C176.1788,163.6801 176.4508,163.8331 176.7248,163.9811 C176.7818,164.0121 176.8398,164.0421 176.8958,164.0741 C177.1848,164.2281 177.4758,164.3761 177.7708,164.5211 C177.8188,164.5451 177.8668,164.5681 177.9148,164.5911 C178.2188,164.7391 178.5268,164.8821 178.8368,165.0191 C178.8768,165.0371 178.9168,165.0561 178.9568,165.0731 C179.2668,165.2091 179.5808,165.3401 179.8958,165.4661 C179.9508,165.4881 180.0068,165.5091 180.0608,165.5311 C180.3798,165.6561 180.6998,165.7761 181.0218,165.8901 C181.0388,165.8961 181.0548,165.9031 181.0718,165.9081 L181.0718,165.9081 C182.2048,166.3061 183.3698,166.6381 184.5598,166.9011 C184.6018,166.9111 184.6438,166.9211 184.6858,166.9301 C185.0028,166.9991 185.3238,167.0601 185.6448,167.1181 C185.7848,167.1451 185.9258,167.1711 186.0668,167.1941 C186.3528,167.2421 186.6398,167.2851 186.9278,167.3261 C187.1128,167.3511 187.2968,167.3751 187.4818,167.3961 C187.7468,167.4281 188.0128,167.4591 188.2808,167.4841 C188.5038,167.5051 188.7288,167.5201 188.9538,167.5361 C189.1938,167.5531 189.4338,167.5731 189.6758,167.5851 C190.1128,167.6051 190.5518,167.6161 190.9948,167.6191 L190.9948,167.6941 L231.5328,167.6941 L231.5328,158.1801 C239.0288,165.3551 249.1028,169.7491 260.1338,169.7491 C276.7528,169.7491 289.4278,162.1861 296.0718,150.2971 L296.0718,167.8501 L316.9708,167.8501 L316.9708,141.5411 C309.9648,140.5691 302.9998,139.4711 296.0718,138.2631 L296.0718,141.8851 Z" id="Fill-90" fill="#1898D5"></path>
            <path d="M591.1927,86.3122 L570.2937,86.3122 L570.2937,123.7182 C577.3127,121.7022 584.2807,119.5642 591.1927,117.3052 L591.1927,86.3122 Z" id="Fill-92" fill="#37AADC"></path>
            <path d="M181.0718,46.5227 L160.8218,46.5227 L160.8218,97.9777 C167.5118,100.8557 174.2618,103.6177 181.0718,106.2607 L181.0718,46.5227 Z" id="Fill-94" fill="#37AADC"></path>
            <path d="M622.3824,86.3122 L622.3824,106.1502 C629.4134,103.4172 636.3814,100.5592 643.2814,97.5762 L643.2814,86.3122 L622.3824,86.3122 Z" id="Fill-96" fill="#37AADC"></path>
            <path d="M245.3521,118.136 L239.8681,118.136 C240.0981,117.407 240.3591,116.702 240.6421,116.015 C244.0561,107.752 251.2031,102.619 259.9751,102.619 C269.9501,102.619 277.8661,108.636 280.3991,118.136 L245.3521,118.136 Z M393.5231,146.112 C388.2031,142.011 384.7351,135.225 384.7351,127.318 C384.7351,113.86 394.0771,103.886 405.6341,103.886 C417.1921,103.886 426.5331,114.336 426.5331,127.318 C426.5331,135.341 422.7841,142.405 417.1001,146.511 C416.7691,146.75 416.4321,146.976 416.0881,147.193 C433.6151,146.785 450.9571,145.631 468.0851,143.772 C464.6171,139.697 462.4741,134.019 462.4741,127.318 C462.4741,113.228 471.4991,103.411 482.5801,103.411 C493.6641,103.411 502.6891,113.228 502.6891,127.318 C502.6891,131.911 501.6801,136.022 499.9311,139.469 C513.1891,137.319 526.3051,134.751 539.2621,131.761 L539.2621,86.312 L518.3621,86.312 L518.3621,105.688 C511.2621,92.701 497.8661,84.254 482.5801,84.254 C465.3271,84.254 450.5651,95.019 444.5141,110.931 C438.6091,95.321 424.2091,84.254 405.6341,84.254 C387.8211,84.254 373.8801,94.3 367.4901,108.752 C363.3361,93.917 351.0721,84.254 332.8041,84.254 C315.0491,84.254 302.1801,94.315 297.7571,108.976 C291.2021,93.04 276.6361,84.254 260.1331,84.254 C243.2561,84.254 228.6041,94.693 222.0271,109.596 C220.6411,112.736 219.6171,116.074 219.0031,119.554 C238.9091,125.793 259.2541,131.04 279.9811,135.234 L291.8531,135.234 L296.0721,135.234 L296.0721,136.212 L296.0721,138.263 C302.9991,139.471 309.9651,140.569 316.9711,141.541 L316.9711,140.079 L316.9711,120.194 C316.9711,111.01 323.6211,104.678 332.8041,104.678 C346.5791,104.678 348.1621,115.603 348.1621,120.194 L348.1621,143.687 L348.1621,145.055 C363.7121,146.404 379.4281,147.169 395.2891,147.329 C394.6811,146.954 394.0901,146.55 393.5231,146.112 L393.5231,146.112 Z" id="Fill-98" fill="#37AADC"></path>
            <polygon id="Fill-100" fill="#2D6091" points="201.9151 187.8402 201.9151 191.4162 193.6911 191.4162 193.6911 196.0922 199.9901 196.0922 199.9901 199.5302 193.6911 199.5302 193.6911 204.3032 201.9151 204.3032 201.9151 207.8792 189.0141 207.8792 189.0141 187.8402"></polygon>
            <path d="M219.1208,202.6939 C219.2308,202.6939 219.3408,202.7149 219.4508,202.7559 C219.5608,202.7969 219.6668,202.8689 219.7678,202.9689 L221.6108,204.9089 C220.8028,205.9629 219.7928,206.7579 218.5778,207.2949 C217.3628,207.8309 215.9258,208.0989 214.2658,208.0989 C212.7438,208.0989 211.3798,207.8399 210.1738,207.3219 C208.9678,206.8039 207.9458,206.0889 207.1068,205.1769 C206.2688,204.2639 205.6238,203.1819 205.1748,201.9309 C204.7248,200.6789 204.5008,199.3199 204.5008,197.8529 C204.5008,196.3589 204.7568,194.9849 205.2708,193.7339 C205.7838,192.4819 206.5018,191.4019 207.4238,190.4949 C208.3448,189.5869 209.4478,188.8809 210.7308,188.3759 C212.0148,187.8719 213.4318,187.6199 214.9808,187.6199 C215.7328,187.6199 216.4408,187.6869 217.1058,187.8189 C217.7708,187.9529 218.3918,188.1359 218.9698,188.3699 C219.5468,188.6029 220.0788,188.8829 220.5648,189.2079 C221.0508,189.5339 221.4818,189.8939 221.8578,190.2879 L220.2898,192.3929 C220.1888,192.5209 220.0698,192.6379 219.9328,192.7429 C219.7948,192.8489 219.6018,192.9009 219.3548,192.9009 C219.1898,192.9009 219.0338,192.8649 218.8868,192.7919 C218.7408,192.7179 218.5838,192.6289 218.4198,192.5229 C218.2538,192.4179 218.0728,192.3029 217.8758,192.1789 C217.6788,192.0559 217.4458,191.9409 217.1748,191.8359 C216.9038,191.7299 216.5878,191.6409 216.2258,191.5669 C215.8638,191.4939 215.4388,191.4579 214.9538,191.4579 C214.1098,191.4579 213.3398,191.6069 212.6428,191.9039 C211.9458,192.2029 211.3478,192.6289 210.8478,193.1829 C210.3478,193.7379 209.9588,194.4099 209.6788,195.1989 C209.3988,195.9869 209.2598,196.8719 209.2598,197.8529 C209.2598,198.8789 209.3988,199.7919 209.6788,200.5899 C209.9588,201.3879 210.3388,202.0589 210.8198,202.6049 C211.3018,203.1499 211.8638,203.5659 212.5058,203.8489 C213.1478,204.1339 213.8348,204.2759 214.5678,204.2759 C214.9898,204.2759 215.3748,204.2549 215.7238,204.2139 C216.0718,204.1729 216.3958,204.1009 216.6928,203.9999 C216.9918,203.8999 217.2758,203.7689 217.5458,203.6089 C217.8168,203.4479 218.0898,203.2489 218.3648,203.0109 C218.4748,202.9189 218.5938,202.8429 218.7218,202.7839 C218.8498,202.7239 218.9838,202.6939 219.1208,202.6939" id="Fill-102" fill="#2D6091"></path>
            <path d="M239.8483,197.853 C239.8483,196.863 239.7193,195.97 239.4633,195.177 C239.2063,194.385 238.8373,193.713 238.3563,193.163 C237.8743,192.613 237.2853,192.191 236.5883,191.897 C235.8913,191.604 235.0983,191.458 234.2093,191.458 C233.3103,191.458 232.5103,191.604 231.8093,191.897 C231.1073,192.191 230.5163,192.613 230.0353,193.163 C229.5533,193.713 229.1843,194.385 228.9283,195.177 C228.6703,195.97 228.5423,196.863 228.5423,197.853 C228.5423,198.852 228.6703,199.748 228.9283,200.541 C229.1843,201.335 229.5533,202.006 230.0353,202.557 C230.5163,203.107 231.1073,203.526 231.8093,203.815 C232.5103,204.104 233.3103,204.248 234.2093,204.248 C235.0983,204.248 235.8913,204.104 236.5883,203.815 C237.2853,203.526 237.8743,203.107 238.3563,202.557 C238.8373,202.006 239.2063,201.335 239.4633,200.541 C239.7193,199.748 239.8483,198.852 239.8483,197.853 M244.6063,197.853 C244.6063,199.301 244.3573,200.65 243.8573,201.897 C243.3573,203.144 242.6543,204.227 241.7463,205.149 C240.8383,206.071 239.7453,206.793 238.4653,207.315 C237.1863,207.838 235.7683,208.099 234.2093,208.099 C232.6493,208.099 231.2293,207.838 229.9453,207.315 C228.6613,206.793 227.5633,206.071 226.6513,205.149 C225.7393,204.227 225.0323,203.144 224.5333,201.897 C224.0333,200.65 223.7833,199.301 223.7833,197.853 C223.7833,196.404 224.0333,195.056 224.5333,193.809 C225.0323,192.562 225.7393,191.48 226.6513,190.563 C227.5633,189.646 228.6613,188.927 229.9453,188.404 C231.2293,187.881 232.6493,187.62 234.2093,187.62 C235.7683,187.62 237.1863,187.883 238.4653,188.411 C239.7453,188.938 240.8383,189.66 241.7463,190.577 C242.6543,191.494 243.3573,192.576 243.8573,193.823 C244.3573,195.07 244.6063,196.413 244.6063,197.853" id="Fill-104" fill="#2D6091"></path>
            <path d="M258.7102,199.8047 C258.8802,200.1807 259.0422,200.5657 259.1982,200.9617 C259.3552,200.5567 259.5192,200.1647 259.6942,199.7837 C259.8682,199.4027 260.0472,199.0337 260.2302,198.6757 L265.3742,188.5417 C265.4652,188.3677 265.5602,188.2327 265.6562,188.1367 C265.7522,188.0397 265.8602,187.9687 265.9792,187.9227 C266.0982,187.8767 266.2342,187.8537 266.3852,187.8537 L266.9142,187.8537 L270.4632,187.8537 L270.4632,207.8787 L266.3652,207.8787 L266.3652,196.3537 C266.3652,195.7947 266.3922,195.1897 266.4472,194.5377 L261.1382,204.8397 C260.9732,205.1607 260.7502,205.4037 260.4712,205.5677 C260.1912,205.7337 259.8732,205.8167 259.5152,205.8167 L258.8822,205.8167 C258.5252,205.8167 258.2062,205.7337 257.9272,205.5677 C257.6472,205.4037 257.4242,205.1607 257.2592,204.8397 L251.9232,194.5237 C251.9602,194.8447 251.9872,195.1637 252.0062,195.4797 C252.0242,195.7967 252.0332,196.0877 252.0332,196.3537 L252.0332,207.8787 L247.9342,207.8787 L247.9342,187.8537 L251.4822,187.8537 L252.0122,187.8537 C252.1632,187.8537 252.2992,187.8767 252.4182,187.9227 C252.5372,187.9687 252.6452,188.0397 252.7422,188.1367 C252.8382,188.2327 252.9322,188.3677 253.0232,188.5417 L258.1812,198.7167 C258.3642,199.0657 258.5402,199.4287 258.7102,199.8047" id="Fill-106" fill="#2D6091"></path>
            <path d="M285.6402,199.8047 C285.8102,200.1807 285.9722,200.5657 286.1282,200.9617 C286.2852,200.5567 286.4492,200.1647 286.6242,199.7837 C286.7982,199.4027 286.9772,199.0337 287.1602,198.6757 L292.3042,188.5417 C292.3952,188.3677 292.4902,188.2327 292.5862,188.1367 C292.6822,188.0397 292.7902,187.9687 292.9092,187.9227 C293.0282,187.8767 293.1642,187.8537 293.3152,187.8537 L293.8442,187.8537 L297.3932,187.8537 L297.3932,207.8787 L293.2952,207.8787 L293.2952,196.3537 C293.2952,195.7947 293.3222,195.1897 293.3772,194.5377 L288.0682,204.8397 C287.9032,205.1607 287.6802,205.4037 287.4012,205.5677 C287.1212,205.7337 286.8032,205.8167 286.4452,205.8167 L285.8132,205.8167 C285.4552,205.8167 285.1362,205.7337 284.8572,205.5677 C284.5772,205.4037 284.3542,205.1607 284.1892,204.8397 L278.8532,194.5237 C278.8902,194.8447 278.9172,195.1637 278.9362,195.4797 C278.9542,195.7967 278.9632,196.0877 278.9632,196.3537 L278.9632,207.8787 L274.8642,207.8787 L274.8642,187.8537 L278.4122,187.8537 L278.9422,187.8537 C279.0932,187.8537 279.2292,187.8767 279.3482,187.9227 C279.4672,187.9687 279.5752,188.0397 279.6722,188.1367 C279.7682,188.2327 279.8622,188.3677 279.9532,188.5417 L285.1112,198.7167 C285.2942,199.0657 285.4702,199.4287 285.6402,199.8047" id="Fill-108" fill="#2D6091"></path>
            <polygon id="Fill-110" fill="#2D6091" points="314.6952 187.8402 314.6952 191.4162 306.4712 191.4162 306.4712 196.0922 312.7702 196.0922 312.7702 199.5302 306.4712 199.5302 306.4712 204.3032 314.6952 204.3032 314.6952 207.8792 301.7942 207.8792 301.7942 187.8402"></polygon>
            <path d="M323.0849,197.2613 L324.9549,197.2613 C325.5879,197.2613 326.1269,197.1813 326.5719,197.0203 C327.0159,196.8603 327.3809,196.6373 327.6649,196.3533 C327.9489,196.0693 328.1549,195.7373 328.2839,195.3563 C328.4119,194.9763 328.4769,194.5663 328.4769,194.1253 C328.4769,193.2453 328.1899,192.5573 327.6169,192.0623 C327.0439,191.5673 326.1569,191.3193 324.9549,191.3193 L323.0849,191.3193 L323.0849,197.2613 Z M323.0849,200.4653 L323.0849,207.8793 L318.4359,207.8793 L318.4359,187.8403 L324.9549,187.8403 C326.4039,187.8403 327.6399,187.9893 328.6619,188.2873 C329.6839,188.5853 330.5189,189.0003 331.1649,189.5323 C331.8119,190.0633 332.2809,190.6923 332.5749,191.4163 C332.8679,192.1403 333.0149,192.9283 333.0149,193.7823 C333.0149,194.4333 332.9279,195.0473 332.7529,195.6243 C332.5799,196.2023 332.3209,196.7363 331.9769,197.2263 C331.6329,197.7173 331.2109,198.1553 330.7109,198.5403 C330.2109,198.9253 329.6359,199.2423 328.9849,199.4893 C329.2969,199.6453 329.5879,199.8383 329.8589,200.0673 C330.1289,200.2963 330.3649,200.5763 330.5669,200.9063 L334.8299,207.8793 L330.6219,207.8793 C329.8419,207.8793 329.2829,207.5863 328.9439,206.9993 L325.6159,201.1813 C325.4689,200.9243 325.2969,200.7403 325.0999,200.6313 C324.9019,200.5213 324.6249,200.4653 324.2679,200.4653 L323.0849,200.4653 Z" id="Fill-112" fill="#2D6091"></path>
            <path d="M350.6059,202.6939 C350.7159,202.6939 350.8259,202.7149 350.9359,202.7559 C351.0459,202.7969 351.1519,202.8689 351.2529,202.9689 L353.0959,204.9089 C352.2879,205.9629 351.2779,206.7579 350.0629,207.2949 C348.8479,207.8309 347.4109,208.0989 345.7509,208.0989 C344.2289,208.0989 342.8649,207.8399 341.6589,207.3219 C340.4529,206.8039 339.4309,206.0889 338.5919,205.1769 C337.7539,204.2639 337.1089,203.1819 336.6599,201.9309 C336.2099,200.6789 335.9859,199.3199 335.9859,197.8529 C335.9859,196.3589 336.2419,194.9849 336.7559,193.7339 C337.2689,192.4819 337.9869,191.4019 338.9089,190.4949 C339.8299,189.5869 340.9329,188.8809 342.2159,188.3759 C343.4999,187.8719 344.9169,187.6199 346.4659,187.6199 C347.2179,187.6199 347.9259,187.6869 348.5909,187.8189 C349.2559,187.9529 349.8769,188.1359 350.4549,188.3699 C351.0319,188.6029 351.5639,188.8829 352.0499,189.2079 C352.5359,189.5339 352.9669,189.8939 353.3429,190.2879 L351.7749,192.3929 C351.6739,192.5209 351.5549,192.6379 351.4179,192.7429 C351.2799,192.8489 351.0869,192.9009 350.8399,192.9009 C350.6749,192.9009 350.5189,192.8649 350.3719,192.7919 C350.2259,192.7179 350.0689,192.6289 349.9049,192.5229 C349.7389,192.4179 349.5579,192.3029 349.3609,192.1789 C349.1639,192.0559 348.9309,191.9409 348.6599,191.8359 C348.3889,191.7299 348.0729,191.6409 347.7109,191.5669 C347.3489,191.4939 346.9239,191.4579 346.4389,191.4579 C345.5949,191.4579 344.8249,191.6069 344.1279,191.9039 C343.4309,192.2029 342.8329,192.6289 342.3329,193.1829 C341.8329,193.7379 341.4439,194.4099 341.1639,195.1989 C340.8839,195.9869 340.7449,196.8719 340.7449,197.8529 C340.7449,198.8789 340.8839,199.7919 341.1639,200.5899 C341.4439,201.3879 341.8239,202.0589 342.3049,202.6049 C342.7869,203.1499 343.3489,203.5659 343.9909,203.8489 C344.6329,204.1339 345.3199,204.2759 346.0529,204.2759 C346.4749,204.2759 346.8599,204.2549 347.2089,204.2139 C347.5569,204.1729 347.8809,204.1009 348.1779,203.9999 C348.4769,203.8999 348.7609,203.7689 349.0309,203.6089 C349.3019,203.4479 349.5749,203.2489 349.8499,203.0109 C349.9599,202.9189 350.0789,202.8429 350.2069,202.7839 C350.3349,202.7239 350.4689,202.6939 350.6059,202.6939" id="Fill-114" fill="#2D6091"></path>
            <polygon id="Fill-116" fill="#2D6091" points="369.2148 187.8402 369.2148 191.4162 360.9908 191.4162 360.9908 196.0922 367.2898 196.0922 367.2898 199.5302 360.9908 199.5302 360.9908 204.3032 369.2148 204.3032 369.2148 207.8792 356.3138 207.8792 356.3138 187.8402"></polygon>
            <path d="M452.9695,200.2183 L458.4435,200.2183 L456.6015,194.7303 C456.4815,194.3823 456.3415,193.9723 456.1815,193.4993 C456.0205,193.0273 455.8625,192.5163 455.7065,191.9653 C455.5595,192.5253 455.4085,193.0443 455.2525,193.5203 C455.0975,193.9973 454.9505,194.4093 454.8135,194.7583 L452.9695,200.2183 Z M465.8435,207.8793 L462.2405,207.8793 C461.8375,207.8793 461.5045,207.7853 461.2435,207.5973 C460.9815,207.4093 460.8005,207.1683 460.7005,206.8753 L459.5165,203.3813 L451.8975,203.3813 L450.7145,206.8753 C450.6225,207.1323 450.4445,207.3633 450.1785,207.5693 C449.9115,207.7763 449.5865,207.8793 449.2015,207.8793 L445.5705,207.8793 L453.3275,187.8403 L458.0865,187.8403 L465.8435,207.8793 Z" id="Fill-118" fill="#2D6091"></path>
            <path d="M476.2144,204.2067 C476.8384,204.2067 477.3954,204.1037 477.8854,203.8967 C478.3764,203.6917 478.7904,203.3947 479.1294,203.0107 C479.4694,202.6257 479.7274,202.1557 479.9074,201.6007 C480.0854,201.0457 480.1744,200.4157 480.1744,199.7097 L480.1744,187.8397 L484.8244,187.8397 L484.8244,199.7097 C484.8244,200.9377 484.6234,202.0657 484.2254,203.0927 C483.8264,204.1197 483.2564,205.0047 482.5134,205.7467 C481.7704,206.4897 480.8674,207.0677 479.8044,207.4807 C478.7394,207.8927 477.5434,208.0987 476.2144,208.0987 C474.8754,208.0987 473.6734,207.8927 472.6104,207.4807 C471.5474,207.0677 470.6444,206.4897 469.9014,205.7467 C469.1584,205.0047 468.5894,204.1197 468.1954,203.0927 C467.8004,202.0657 467.6044,200.9377 467.6044,199.7097 L467.6044,187.8397 L472.2524,187.8397 L472.2524,199.6957 C472.2524,200.4017 472.3424,201.0317 472.5214,201.5867 C472.6994,202.1417 472.9584,202.6137 473.2974,203.0037 C473.6374,203.3927 474.0524,203.6917 474.5434,203.8967 C475.0334,204.1037 475.5914,204.2067 476.2144,204.2067" id="Fill-120" fill="#2D6091"></path>
            <polygon id="Fill-122" fill="#2D6091" points="503.5013 187.8402 503.5013 191.5262 497.8633 191.5262 497.8633 207.8792 493.2143 207.8792 493.2143 191.5262 487.5743 191.5262 487.5743 187.8402"></polygon>
            <path d="M520.7219,197.853 C520.7219,196.863 520.5929,195.97 520.3359,195.177 C520.0799,194.385 519.7109,193.713 519.2289,193.163 C518.7479,192.613 518.1589,192.191 517.4619,191.897 C516.7649,191.604 515.9719,191.458 515.0819,191.458 C514.1829,191.458 513.3839,191.604 512.6829,191.897 C511.9799,192.191 511.3889,192.613 510.9089,193.163 C510.4259,193.713 510.0569,194.385 509.8019,195.177 C509.5439,195.97 509.4159,196.863 509.4159,197.853 C509.4159,198.852 509.5439,199.748 509.8019,200.541 C510.0569,201.335 510.4259,202.006 510.9089,202.557 C511.3889,203.107 511.9799,203.526 512.6829,203.815 C513.3839,204.104 514.1829,204.248 515.0819,204.248 C515.9719,204.248 516.7649,204.104 517.4619,203.815 C518.1589,203.526 518.7479,203.107 519.2289,202.557 C519.7109,202.006 520.0799,201.335 520.3359,200.541 C520.5929,199.748 520.7219,198.852 520.7219,197.853 M525.4799,197.853 C525.4799,199.301 525.2309,200.65 524.7299,201.897 C524.2309,203.144 523.5269,204.227 522.6189,205.149 C521.7119,206.071 520.6189,206.793 519.3389,207.315 C518.0599,207.838 516.6419,208.099 515.0819,208.099 C513.5229,208.099 512.1019,207.838 510.8179,207.315 C509.5339,206.793 508.4369,206.071 507.5249,205.149 C506.6119,204.227 505.9059,203.144 505.4059,201.897 C504.9069,200.65 504.6569,199.301 504.6569,197.853 C504.6569,196.404 504.9069,195.056 505.4059,193.809 C505.9059,192.562 506.6119,191.48 507.5249,190.563 C508.4369,189.646 509.5339,188.927 510.8179,188.404 C512.1019,187.881 513.5229,187.62 515.0819,187.62 C516.6419,187.62 518.0599,187.883 519.3389,188.411 C520.6189,188.938 521.7119,189.66 522.6189,190.577 C523.5269,191.494 524.2309,192.576 524.7299,193.823 C525.2309,195.07 525.4799,196.413 525.4799,197.853" id="Fill-124" fill="#2D6091"></path>
            <path d="M539.5838,199.8047 C539.7538,200.1807 539.9158,200.5657 540.0728,200.9617 C540.2288,200.5567 540.3938,200.1647 540.5678,199.7837 C540.7418,199.4027 540.9208,199.0337 541.1038,198.6757 L546.2488,188.5417 C546.3388,188.3677 546.4338,188.2327 546.5298,188.1367 C546.6258,188.0397 546.7338,187.9687 546.8538,187.9227 C546.9728,187.8767 547.1078,187.8537 547.2598,187.8537 L547.7878,187.8537 L551.3368,187.8537 L551.3368,207.8787 L547.2378,207.8787 L547.2378,196.3537 C547.2378,195.7947 547.2668,195.1897 547.3208,194.5377 L542.0118,204.8397 C541.8478,205.1607 541.6238,205.4037 541.3458,205.5677 C541.0658,205.7337 540.7478,205.8167 540.3898,205.8167 L539.7558,205.8167 C539.3988,205.8167 539.0808,205.7337 538.8008,205.5677 C538.5208,205.4037 538.2988,205.1607 538.1328,204.8397 L532.7978,194.5237 C532.8338,194.8447 532.8608,195.1637 532.8798,195.4797 C532.8978,195.7967 532.9078,196.0877 532.9078,196.3537 L532.9078,207.8787 L528.8088,207.8787 L528.8088,187.8537 L532.3558,187.8537 L532.8868,187.8537 C533.0378,187.8537 533.1738,187.8767 533.2918,187.9227 C533.4108,187.9687 533.5188,188.0397 533.6158,188.1367 C533.7118,188.2327 533.8058,188.3677 533.8978,188.5417 L539.0548,198.7167 C539.2388,199.0657 539.4138,199.4287 539.5838,199.8047" id="Fill-126" fill="#2D6091"></path>
            <path d="M561.5138,200.2183 L566.9878,200.2183 L565.1458,194.7303 C565.0258,194.3823 564.8858,193.9723 564.7258,193.4993 C564.5648,193.0273 564.4068,192.5163 564.2508,191.9653 C564.1038,192.5253 563.9528,193.0443 563.7968,193.5203 C563.6418,193.9973 563.4948,194.4093 563.3578,194.7583 L561.5138,200.2183 Z M574.3878,207.8793 L570.7848,207.8793 C570.3818,207.8793 570.0488,207.7853 569.7878,207.5973 C569.5258,207.4093 569.3448,207.1683 569.2448,206.8753 L568.0608,203.3813 L560.4418,203.3813 L559.2588,206.8753 C559.1668,207.1323 558.9888,207.3633 558.7228,207.5693 C558.4558,207.7763 558.1308,207.8793 557.7458,207.8793 L554.1148,207.8793 L561.8718,187.8403 L566.6308,187.8403 L574.3878,207.8793 Z" id="Fill-128" fill="#2D6091"></path>
            <polygon id="Fill-130" fill="#2D6091" points="589.4624 187.8402 589.4624 191.5262 583.8224 191.5262 583.8224 207.8792 579.1744 207.8792 579.1744 191.5262 573.5354 191.5262 573.5354 187.8402"></polygon>
            <mask id="mask-8" fill="white">
                <use xlink:href="#path-7"></use>
            </mask>
            <g id="Clip-133"></g>
            <polygon id="Fill-132" fill="#2D6091" mask="url(#mask-8)" points="592.9 207.879 597.576 207.879 597.576 187.84 592.9 187.84"></polygon>
            <path d="M617.4097,197.853 C617.4097,196.863 617.2807,195.97 617.0247,195.177 C616.7677,194.385 616.3987,193.713 615.9177,193.163 C615.4357,192.613 614.8467,192.191 614.1507,191.897 C613.4537,191.604 612.6607,191.458 611.7717,191.458 C610.8717,191.458 610.0717,191.604 609.3707,191.897 C608.6697,192.191 608.0787,192.613 607.5967,193.163 C607.1157,193.713 606.7467,194.385 606.4897,195.177 C606.2317,195.97 606.1047,196.863 606.1047,197.853 C606.1047,198.852 606.2317,199.748 606.4897,200.541 C606.7467,201.335 607.1157,202.006 607.5967,202.557 C608.0787,203.107 608.6697,203.526 609.3707,203.815 C610.0717,204.104 610.8717,204.248 611.7717,204.248 C612.6607,204.248 613.4537,204.104 614.1507,203.815 C614.8467,203.526 615.4357,203.107 615.9177,202.557 C616.3987,202.006 616.7677,201.335 617.0247,200.541 C617.2807,199.748 617.4097,198.852 617.4097,197.853 M622.1687,197.853 C622.1687,199.301 621.9187,200.65 621.4197,201.897 C620.9187,203.144 620.2157,204.227 619.3087,205.149 C618.4007,206.071 617.3067,206.793 616.0267,207.315 C614.7487,207.838 613.3297,208.099 611.7717,208.099 C610.2117,208.099 608.7907,207.838 607.5077,207.315 C606.2237,206.793 605.1247,206.071 604.2127,205.149 C603.3007,204.227 602.5937,203.144 602.0947,201.897 C601.5947,200.65 601.3457,199.301 601.3457,197.853 C601.3457,196.404 601.5947,195.056 602.0947,193.809 C602.5937,192.562 603.3007,191.48 604.2127,190.563 C605.1247,189.646 606.2237,188.927 607.5077,188.404 C608.7907,187.881 610.2117,187.62 611.7717,187.62 C613.3297,187.62 614.7487,187.883 616.0267,188.411 C617.3067,188.938 618.4007,189.66 619.3087,190.577 C620.2157,191.494 620.9187,192.576 621.4197,193.823 C621.9187,195.07 622.1687,196.413 622.1687,197.853" id="Fill-134" fill="#2D6091" mask="url(#mask-8)"></path>
            <path d="M628.4545,187.8678 C628.5915,187.8858 628.7145,187.9198 628.8245,187.9708 C628.9355,188.0208 629.0415,188.0928 629.1415,188.1838 C629.2425,188.2758 629.3565,188.3998 629.4855,188.5548 L639.0035,200.5898 C638.9665,200.2048 638.9395,199.8308 638.9215,199.4688 C638.9025,199.1068 638.8925,198.7648 638.8925,198.4438 L638.8925,187.8398 L642.9915,187.8398 L642.9915,207.8788 L640.5715,207.8788 C640.2135,207.8788 639.9105,207.8238 639.6635,207.7148 C639.4155,207.6038 639.1775,207.4028 638.9475,207.1088 L629.4995,195.1708 C629.5265,195.5198 629.5505,195.8608 629.5685,196.1948 C629.5875,196.5308 629.5955,196.8438 629.5955,197.1378 L629.5955,207.8788 L625.4965,207.8788 L625.4965,187.8398 L627.9455,187.8398 C628.1465,187.8398 628.3155,187.8498 628.4545,187.8678" id="Fill-135" fill="#2D6091" mask="url(#mask-8)"></path>
        </g>
    </g>
</svg>