<?xml version="1.0" encoding="UTF-8"?> <svg xmlns="http://www.w3.org/2000/svg" xmlns:xlink="http://www.w3.org/1999/xlink" width="466px" height="136px" viewBox="0 0 466 136"> <!-- Generator: Sketch 48.2 (47327) - http://www.bohemiancoding.com/sketch --> <title>logo_edr_blue</title> <desc>Created with Sketch.</desc> <defs></defs> <g id="Page-1" stroke="none" stroke-width="1" fill="none" fill-rule="evenodd"> <g id="logo_edr_blue" fill-rule="nonzero"> <g id="g10" transform="translate(233.000000, 67.966670) scale(-1, 1) rotate(-180.000000) translate(-233.000000, -67.966670) translate(0.000000, 0.466670)"> <g id="g12"> <g id="path14" transform="translate(127.000000, 34.000000)" fill="#1D2950"> <path d="M12.5,2.2 C19.1,2.2 21.3,5 21.3,12.9 C21.3,21.2 18.9,23.5 12.5,23.5 L9.5,23.5 L9.5,2.2 L12.5,2.2 Z M0.8,1.6 L4.7,2.4 L4.7,23.4 L0.8,24.2 L0.8,25.7 L13.1,25.7 C21.8,25.7 26.7,19.8 26.7,13 C26.7,6.2 21.8,0.3 13.1,0.3 L0.8,0.3 L0.8,1.6 Z" id="Shape"></path> </g> <g id="path16" transform="translate(156.000000, 34.000000)" fill="#1D2950"> <polyline id="Shape" points="0.9 1.6 4.8 2.3 4.8 23.3 0.9 24.1 0.9 25.6 22.5 25.6 23.5 17.5 22.5 17.1 18.6 23.3 9.7 24 9.7 14 14.8 14.3 16.4 18.2 17.6 18.2 17.6 8.4 16.4 8.4 14.8 12 9.7 12.3 9.7 1.8 20 2.3 24 9.8 25.2 9.4 23.9 0.1 0.9 0.1 0.9 1.6"></polyline> </g> <g id="path18" transform="translate(195.000000, 34.000000)" fill="#1D2950"> <path d="M9.7,15.8 L13,15.8 C18.9,15.8 20.4,17 20.4,22.3 C20.4,27.7 18.8,28.6 13.9,28.6 L9.7,28.6 L9.7,15.8 Z M21.4,1.2 C17.2,12.4 17.2,13.8 12.5,13.8 L9.8,13.8 L9.8,2.4 L14.1,1.5 L14.1,0.1 L0.4,0.1 L0.4,1.5 L4.6,2.4 L4.6,28.4 L0.4,29.3 L0.4,30.7 L14.5,30.7 C20.7,30.7 25.8,27.9 25.8,22.3 C25.8,17.5 21.8,15.3 16.5,14.6 L16.5,14.5 C19.5,14.1 21.3,13.1 23.4,9.3 L27.1,2.4 L30,1.5 L30,0.1 L23.5,0.1 C22.2,0.1 21.7,0.4 21.4,1.2 Z" id="Shape"></path> </g> <g id="path20" transform="translate(226.000000, 33.000000)" fill="#1D2950"> <path d="M20.5,13.7 C20.5,21.9 17.9,25 13,25 C8.1,25 5.6,21.9 5.6,13.7 C5.6,5.7 8.3,2.6 13,2.6 C17.6,2.6 20.5,5.7 20.5,13.7 M0.2,13.7 C0.2,20.4 5.6,27 13,27 C20.3,27 25.9,20.5 25.9,13.7 C25.9,7 20.5,0.7 13,0.7 C5.5,0.7 0.2,7 0.2,13.7" id="Shape"></path> </g> <g id="path22" transform="translate(255.000000, 34.000000)" fill="#1D2950"> <polyline id="Shape" points="5.4 1.6 9.8 2.4 9.8 23.9 5.3 23.4 1.6 15.4 0.4 15.7 1.1 25.6 23.4 25.6 24.1 15.7 22.9 15.4 19.2 23.4 14.7 23.9 14.7 2.4 19.1 1.6 19.1 0.1 5.4 0.1 5.4 1.6"></polyline> </g> <g id="path24" transform="translate(282.000000, 34.000000)" fill="#1D2950"> <polyline id="Shape" points="0.7 1.6 4.6 2.4 4.6 23.3 0.7 24 0.7 25.6 13 25.6 13 24 9.6 23.3 9.6 13.9 21 13.9 21 23.3 17.6 24 17.6 25.6 29.8 25.6 29.8 24 25.9 23.3 25.9 2.4 29.8 1.6 29.8 0.1 17.6 0.1 17.6 1.6 21 2.4 21 11.9 9.6 11.9 9.6 2.4 13 1.6 13 0.1 0.7 0.1 0.7 1.6"></polyline> </g> <g id="path26" transform="translate(315.000000, 33.000000)" fill="#1D2950"> <path d="M4,3.1 L3.1,1.1 L1.5,1.1 L0.6,10.6 L1.8,10.9 C4.9,4.7 7.2,2.6 11,2.6 C14.1,2.6 16.1,4.2 16.1,6.6 C16.1,9.3 14.9,10.4 9.6,12.2 C3.7,14.3 1.3,16.2 1.3,20.2 C1.3,24.1 4.3,27 9.3,27 C11.8,27 14,26.1 15.2,25.1 L16,26.6 L17.5,26.6 L18.2,18.7 L17.2,18.4 C14.4,23.5 12.4,25.1 9.2,25.1 C6.5,25.1 4.9,23.5 4.9,21.6 C4.9,19.2 5.7,18.5 11.2,16.7 C16.1,15.1 20,12.8 20,8.2 C20,3.9 16.6,0.7 11.4,0.7 C7.9,0.7 5.4,1.8 4,3.1" id="Shape"></path> </g> <g id="path28" transform="translate(337.000000, 33.000000)" fill="#1D2950"> <path d="M0.8,13.8 C0.8,20.7 6.2,26.8 13.1,26.8 C16.2,26.8 18.1,25.7 19.4,24.8 L20.2,26.6 L21.5,26.6 L22.6,17 L21.5,16.7 C18.2,23.1 16.4,24.9 13.1,24.9 C8.8,24.9 6.3,22.1 6.3,13.4 C6.3,5.6 8.9,2.8 13.9,2.8 C17.4,2.8 20.1,4.9 21.7,7.3 L23.1,6.5 C21,3 17.9,0.7 13.2,0.7 C6.2,0.8 0.8,6.6 0.8,13.8" id="Shape"></path> </g> <g id="path30" transform="translate(363.000000, 34.000000)" fill="#1D2950"> <polyline id="Shape" points="0.5 1.6 4.4 2.4 4.4 23.3 0.5 24 0.5 25.6 12.8 25.6 12.8 24 9.4 23.3 9.4 13.9 20.8 13.9 20.8 23.3 17.4 24 17.4 25.6 29.6 25.6 29.6 24 25.7 23.3 25.7 2.4 29.6 1.6 29.6 0.1 17.4 0.1 17.4 1.6 20.8 2.4 20.8 11.9 9.4 11.9 9.4 2.4 12.8 1.6 12.8 0.1 0.5 0.1 0.5 1.6"></polyline> </g> <g id="path32" transform="translate(396.000000, 34.000000)" fill="#1D2950"> <polyline id="Shape" points="0.6 1.6 4.8 2.4 4.8 23.3 0.6 24 0.6 25.6 13.9 25.6 13.9 24 9.7 23.3 9.7 2.4 13.9 1.6 13.9 0.1 0.6 0.1 0.6 1.6"></polyline> </g> <g id="path34" transform="translate(413.000000, 34.000000)" fill="#1D2950"> <polyline id="Shape" points="0.8 1.6 4.7 2.4 4.7 23.3 0.8 24 0.8 25.6 13.7 25.6 13.7 24 9.6 23.3 9.6 1.8 17.8 2.5 22.1 10.4 23.3 10.1 21.8 0.1 0.8 0.1 0.8 1.6"></polyline> </g> <g id="path36" transform="translate(439.000000, 34.000000)" fill="#1D2950"> <path d="M12.2,2.2 C18.8,2.2 21,5 21,12.9 C21,21.2 18.6,23.5 12.2,23.5 L9.2,23.5 L9.2,2.2 L12.2,2.2 Z M0.4,1.6 L4.3,2.4 L4.3,23.4 L0.4,24.2 L0.4,25.7 L12.7,25.7 C21.4,25.7 26.3,19.8 26.3,13 C26.3,6.2 21.4,0.3 12.7,0.3 L0.4,0.3 L0.4,1.6 Z" id="Shape"></path> </g> <g id="path38" transform="translate(127.000000, 80.000000)" fill="#1D2950"> <polyline id="Shape" points="0.7 1.5 4.9 2.3 4.9 28.3 0.7 29.2 0.7 30.6 24.7 30.6 25.8 22 24.8 21.8 20.4 28.4 10.1 29.2 10.1 16.4 15.7 16.8 17.5 21.3 18.6 21.3 18.6 10.4 17.5 10.4 15.7 14.6 10.1 14.9 10.1 1.6 22.1 2.3 26.8 10.3 27.9 10 26.6 0 0.7 0 0.7 1.5"></polyline> </g> <g id="path40" transform="translate(157.000000, 80.000000)" fill="#1D2950"> <path d="M12.3,2.1 C18.9,2.1 21.1,4.9 21.1,12.8 C21.1,21.1 18.7,23.4 12.3,23.4 L9.3,23.4 L9.3,2.1 L12.3,2.1 Z M0.5,1.5 L4.4,2.3 L4.4,23.3 L0.5,24.1 L0.5,25.6 L12.8,25.6 C21.5,25.6 26.4,19.7 26.4,12.9 C26.4,6.1 21.5,0.2 12.8,0.2 L0.5,0.2 L0.5,1.5 Z" id="Shape"></path> </g> <g id="path42" transform="translate(186.000000, 80.000000)" fill="#1D2950"> <polyline id="Shape" points="0.6 1.6 4.5 2.3 4.5 23.2 0.6 24 0.6 25.5 10.1 25.5 17.3 7.8 24.3 25.5 34.3 25.5 34.3 24 30.3 23.2 30.3 2.3 34.3 1.6 34.3 0 22.3 0 22.3 1.6 25.4 2.3 25.4 22.2 16.7 1.2 15.3 1.2 6.3 22.2 7.3 2.3 10.5 1.6 10.5 0 0.6 0 0.6 1.6"></polyline> </g> <g id="path44" transform="translate(223.000000, 79.000000)" fill="#1D2950"> <path d="M20.8,13.7 C20.8,22 18.2,25 13.3,25 C8.4,25 5.9,21.9 5.9,13.7 C5.9,5.7 8.6,2.6 13.3,2.6 C17.9,2.6 20.8,5.7 20.8,13.7 M0.5,13.7 C0.5,20.4 5.9,27 13.3,27 C20.6,27 26.2,20.5 26.2,13.7 C26.2,7 20.8,0.7 13.3,0.7 C5.8,0.6 0.5,6.9 0.5,13.7" id="Shape"></path> </g> <g id="path46" transform="translate(252.000000, 79.000000)" fill="#1D2950"> <polyline id="Shape" points="6.1 23.1 7.2 3.3 11.3 2.6 11.3 1 0.4 1 0.4 2.6 4.3 3.3 4.3 24.2 0.4 25 0.4 26.5 9.7 26.5 23 9.1 22.1 24.2 18.1 25 18.1 26.5 28.6 26.5 28.6 25 25 24.2 25 0.7 23.6 0.7 6.1 23.1"></polyline> </g> <g id="path48" transform="translate(284.000000, 80.000000)" fill="#1D2950"> <path d="M12.3,2.1 C18.9,2.1 21.1,4.9 21.1,12.8 C21.1,21.1 18.7,23.4 12.3,23.4 L9.3,23.4 L9.3,2.1 L12.3,2.1 Z M0.5,1.5 L4.4,2.3 L4.4,23.3 L0.5,24.1 L0.5,25.6 L12.8,25.6 C21.5,25.6 26.4,19.7 26.4,12.9 C26.4,6.1 21.5,0.2 12.8,0.2 L0.5,0.2 L0.5,1.5 Z" id="Shape"></path> </g> <g id="path50" fill="#FFFFFF"> <path d="M105.5,134.5 L0,134.5 L0,28.8 L0.5,28 L13.1,6.9 L14.1,5.3 L16,5.3 L28.3,5.3 L52,0.2 L52.7,0 L53.4,0.2 L77.1,5.3 L89.4,5.3 L91.3,5.3 L92.3,6.9 L105,28 L105.5,28.8 L105.5,29.7 L105.5,131 L105.5,134.5 Z M102.1,131.1 L102.1,29.7 L89.4,8.7 L76.7,8.7 L52.7,3.5 L28.7,8.7 L16,8.7 L3.4,29.7 L3.4,131 L102.1,131 L102.1,131.1 Z" id="Shape"></path> </g> <g id="path52" transform="translate(3.000000, 3.000000)" fill="#FFFFFF"> <polyline id="Shape" points="25.8 6.1 13.3 6.1 0.8 26.9 0.8 127.6 98.6 127.6 98.6 26.9 86.2 6.1 73.7 6.1 49.7 0.9 25.8 6.1"></polyline> </g> <g id="path54" transform="translate(3.000000, 3.000000)" fill="#100F0D"> <path d="M99.1,128.1 L0.4,128.1 L0.4,26.7 L13,5.7 L25.7,5.7 L49.7,0.5 L73.7,5.7 L86.4,5.7 L99,26.8 L99,128.1 L99.1,128.1 Z M98.2,127.2 L98.2,27 L85.9,6.5 L73.7,6.5 L73.6,6.5 L49.7,1.4 L25.9,6.5 L25.8,6.5 L25.7,6.5 L13.5,6.5 L1.3,27 L1.3,127.2 L98.2,127.2 Z" id="Shape"></path> </g> <g id="path56" transform="translate(52.000000, 12.000000)" fill="#FBC807"> <polyline id="Shape" points="0.7 43 12.1 43 12.1 57.8 46.4 57.8 46.4 19.4 35 0.3 23.6 0.3 0.7 5.3 0.7 43"></polyline> </g> <g id="path58" transform="translate(7.000000, 69.000000)" fill="#FBC807"> <polyline id="Shape" points="45.6 58.2 45.7 14.7 34.3 14.7 34.3 0.8 0 0.8 0 58.2 45.6 58.2"></polyline> </g> <g id="path60" transform="translate(19.000000, 112.000000)" fill="#E61B32"> <polyline id="Shape" points="7.2 4 3.1 1.2 0.5 2.9 2.8 0.3 8.4 2 9 3.1 7.2 4"></polyline> </g> <g id="path62" transform="translate(19.000000, 111.000000)" fill="#E61B32"> <path d="M2.7,0.9 L0.3,3.7 L0.7,4.2 L3.1,2.7 L7.2,5.4 L9.5,4.2 L8.6,2.7 L2.7,0.9 Z M2.3,2.4 L2.9,1.7 L8.1,3.3 L8.5,4 L7.2,4.7 L3,2 L2.3,2.4 Z" id="Shape"></path> </g> <g id="path64" transform="translate(10.000000, 75.000000)" fill="#100F0D"> <polyline id="Shape" points="24.6 32.8 22.2 35.9 23.9 39.5 22.2 41.3 17.4 39.2 16.2 38.3 17.2 36 14.7 32.8 11.1 33.3 4.3 44.8 4.2 46.4 3.1 44.3 7.6 32.9 1.2 35.1 0.4 36.4 0.1 34.7 6.9 28.3 1.2 27.2 0.3 27.9 0.7 26.4 7.1 25.5 1.9 21.7 0.7 21.6 1.9 20.7 10.2 24.7 2.4 12.3 0.7 11.6 3 10.8 12.2 23.6 4.3 4.5 1.8 0.9 6.2 3.8 14.6 22.9 19.7 15.3 24.7 22.9 33.2 3.8 37.6 0.9 35 4.5 27.1 23.6 36.4 10.8 38.7 11.6 37 12.3 29.2 24.7 37.5 20.7 38.7 21.6 37.5 21.7 32.3 25.5 38.7 26.4 39.1 27.9 38.2 27.2 32.4 28.3 39.2 34.7 39 36.4 38.2 35.1 31.7 32.6 36.3 44.3 35.2 46.4 35.1 44.8 28.3 33.3 24.6 32.8"></polyline> </g> <g id="path66" transform="translate(9.000000, 75.000000)" fill="#100F0D"> <path d="M38.4,0.7 L33.9,3.6 L33.9,3.7 L25.7,22.2 L20.7,14.7 L15.7,22.2 L7.5,3.6 L3,0.7 L2.5,1.2 L5.1,4.8 L11.9,21.2 L4.2,10.5 L0.8,11.7 L3.2,12.7 L10.3,24 L2.8,20.4 L0.9,22.1 L2.8,22.2 L7.3,25.4 L1.5,26.2 L0.7,28.9 L2.3,27.7 L7.3,28.6 L0.9,34.7 L1.3,37.5 L2.5,35.6 L8.1,33.6 L3.8,44.5 L5.5,47.8 L5.7,45 L12.4,33.7 L15.7,33.3 L17.9,36.2 L16.9,38.5 L18.3,39.6 L23.4,41.8 L25.3,39.7 L23.7,36.1 L25.8,33.3 L29.1,33.7 L35.8,45 L36,47.8 L37.7,44.5 L33.3,33.4 L39,35.6 L40.2,37.5 L40.6,34.7 L34.2,28.6 L39.2,27.7 L40.8,28.9 L40,26.2 L34.2,25.4 L38.7,22.2 L40.6,22.1 L38.7,20.4 L31.2,24 L38.3,12.7 L40.7,11.7 L37.3,10.5 L29.6,21.2 L36.4,4.8 L38.9,1.3 L38.4,0.7 Z M13,23.8 L13.6,23.5 L5.7,4.4 L4.1,2.2 L7,4.1 L15.6,23.7 L20.7,16 L25.8,23.7 L34.4,4 L37.3,2.2 L35.8,4.3 L27.9,23.5 L28.5,23.8 L37.6,11.2 L38.8,11.6 L37.8,12 L29.3,25.5 L38.5,21.1 L38.9,21.4 L38.5,21.4 L32.5,25.7 L39.5,26.7 L39.6,27 L39.4,26.9 L32.8,28.1 L39.9,34.9 L39.8,35.5 L39.4,34.9 L32.1,32.1 L37,44.3 L36.5,45.2 L36.4,44.6 L29.5,33 L25.5,32.5 L22.9,35.9 L24.5,39.5 L23.2,40.9 L18.6,38.9 L17.7,38.2 L18.7,36 L16,32.5 L12,33 L5.1,44.8 L5.1,45.3 L4.6,44.4 L9.3,32.4 L2.1,34.9 L1.7,35.5 L1.6,34.9 L8.7,28.1 L2.1,26.9 L1.9,27.1 L2,26.8 L9,25.8 L3,21.5 L2.6,21.5 L3,21.2 L12.2,25.6 L3.6,12 L2.6,11.6 L3.8,11.2 L13,23.8 Z" id="Shape"></path> </g> <g id="path68" transform="translate(23.000000, 95.000000)" fill="#E61B32"> <polyline id="Shape" points="6.7 12 3.8 8.2 1.5 11.4 0.5 10.1 6.7 0.1 12.9 10.1 11.9 11.4 9.6 8.2 6.7 12"></polyline> </g> <g id="path70" transform="translate(25.000000, 109.000000)" fill="#100F0D"> <path d="M14.3,7.5 L9.3,10.2 L6.5,10.2 L5.6,11.7 L2.8,11.7 L4.9,10.4 L3.6,10.1 C3.3,10 1.2,9.1 0.5,8.6 C0.5,8.6 3.2,7.6 -3.55271368e-15,4.3 L2.1,4 L3,1.6 L4.2,3.9 L5.4,0.5 L7.2,6 L9.3,2 L10.4,5.6 L10,7.4 L14.3,7.5" id="Shape"></path> </g> <g id="path72" transform="translate(24.000000, 108.000000)" fill="#100F0D"> <path d="M6.5,0.4 L5.2,4 L4,1.8 L2.9,4.7 L0.3,5 L0.8,5.5 C1.9,6.6 2.4,7.6 2.2,8.3 C2.1,9 1.4,9.2 1.4,9.2 L0.8,9.4 L1.3,9.8 C2,10.3 4.1,11.2 4.5,11.3 L5,11.4 L2.6,12.9 L6.8,12.9 L7.7,11.4 L10.4,11.3 L16.5,8 L11.3,7.9 L11.6,6.4 L10.2,2 L8.1,6 L6.5,0.4 Z M5.3,5.7 L6.4,2.5 L8.1,7.8 L10.2,3.8 L11,6.5 L10.5,8.6 L13.9,8.7 L10.1,10.7 L7.2,10.7 L6.3,12.2 L4.8,12.2 L6.6,11.1 L4.5,10.6 C4.3,10.5 2.9,9.9 2,9.4 C2.3,9.2 2.6,8.8 2.7,8.3 C2.9,7.5 2.5,6.5 1.5,5.4 L3.2,5.2 L3.9,3.3 L5.3,5.7 Z" id="Shape"></path> </g> <g id="path74" transform="translate(52.000000, 7.000000)" fill="#1D2950"> <polygon id="Shape" points="0.7 0.7 23.6 5.7 0.7 10.7"></polygon> </g> <g id="path76" transform="translate(29.000000, 7.000000)" fill="#FBC807"> <polygon id="Shape" points="23.7 0.7 0.9 5.7 23.7 10.7"></polygon> </g> <g id="path78" transform="translate(52.000000, 69.000000)" fill="#1D2950"> <polyline id="Shape" points="0.8 58.2 0.7 14.7 12.1 14.7 12.1 0.8 46.4 0.8 46.4 58.2 0.8 58.2"></polyline> </g> <g id="path80" transform="translate(7.000000, 12.000000)" fill="#1D2950"> <polyline id="Shape" points="45.7 43 34.3 43 34.3 57.8 0 57.8 0 19.4 11.5 0.3 22.9 0.3 45.7 5.3 45.7 43"></polyline> </g> <g id="path82" transform="translate(7.000000, 7.000000)" fill="#100F0D"> <path d="M91.4,120.2 L0,120.2 L0,24.4 L11.4,5.2 L22.8,5.2 L45.6,0.2 L68.5,5.2 L80,5.2 L91.4,24.4 L91.4,120.2 Z M90.6,119.4 L90.6,24.7 L79.5,6.1 L68.5,6.1 L68.4,6.1 L45.7,1.2 L23,6.1 L22.9,6.1 L22.8,6.1 L11.9,6.1 L0.9,24.7 L0.9,119.4 L90.6,119.4 Z" id="Shape"></path> </g> <g id="path94" transform="translate(8.000000, 66.000000)" fill="#FBC807"> <polygon id="Shape" points="0.2 7.4 9.2 3.8 0.2 0.2"></polygon> </g> <g id="path96" transform="translate(7.000000, 65.000000)" fill="#100F0D"> <path d="M0.8,8.9 L0.8,0.6 L1.8,1 L9.4,4.1 L11.1,4.8 L9.4,5.5 L1.8,8.6 L0.8,8.9 Z M1.6,7.8 L9.2,4.7 L1.6,1.6 L1.6,7.8 Z" id="Shape"></path> </g> <g id="path98" transform="translate(88.000000, 66.000000)" fill="#1D2950"> <polygon id="Shape" points="0.3 3.8 9.3 7.4 9.3 0.2"></polygon> </g> <g id="path100" transform="translate(87.000000, 65.000000)" fill="#100F0D"> <path d="M10.6,8.9 L9.6,8.5 L2,5.4 L0.3,4.7 L2,4 L9.6,0.9 L10.6,0.5 L10.6,1.6 L10.6,4.7 L10.6,7.8 L10.6,8.9 Z M9.9,7.8 L9.9,1.7 L2.3,4.8 L9.9,7.8 Z" id="Shape"></path> </g> <g id="path102" transform="translate(63.000000, 67.000000)" fill="#FBC807"> <polygon id="Shape" points="0.8 4.9 8.2 2.8 0.8 0.7"></polygon> </g> <g id="path104" transform="translate(63.000000, 67.000000)" fill="#100F0D"> <path d="M0.4,5.4 L0.4,0.2 L1.3,0.5 L7,2.1 L9.5,2.8 L7,3.5 L1.3,5.1 L0.4,5.4 Z M1.2,4.4 L6.9,2.8 L1.2,1.2 L1.2,4.4 Z" id="Shape"></path> </g> <g id="path106" transform="translate(34.000000, 67.000000)" fill="#1D2950"> <polygon id="Shape" points="0.6 2.8 8.1 4.9 8.1 0.7"></polygon> </g> <g id="path108" transform="translate(33.000000, 67.000000)" fill="#100F0D"> <path d="M9.4,5.4 L8.5,5.1 L2.8,3.5 L0.3,2.8 L2.8,2.1 L8.5,0.5 L9.4,0.2 L9.4,1.2 L9.4,2.8 L9.4,4.4 L9.4,5.4 Z M8.7,4.4 L8.7,1.1 L3,2.8 L8.7,4.4 Z" id="Shape"></path> </g> <g id="path110" transform="translate(49.000000, 117.000000)" fill="#1D2950"> <polygon id="Shape" points="0.2 9.1 7.3 9.1 3.7 0"></polygon> </g> <g id="path112" transform="translate(48.000000, 116.000000)" fill="#100F0D"> <path d="M8.9,10.4 L0.6,10.4 L1,9.4 L4,1.7 L4.7,0 L5.4,1.7 L8.5,9.4 L8.9,10.4 Z M7.8,9.7 L4.8,2 L1.8,9.7 L7.8,9.7 Z" id="Shape"></path> </g> <g id="path114" transform="translate(7.000000, 12.000000)" fill="#100F0D"> <path d="M91.4,115.2 L0,115.2 L0,19.4 L11.4,0.2 L22.8,0.2 L45.6,5.2 L68.5,0.2 L80,0.2 L91.4,19.4 L91.4,115.2 Z M89.7,113.5 L89.7,19.9 L79,2 L68.8,2 L46.1,6.9 L45.7,7 L45.3,6.9 L22.7,2 L12.4,2 L1.7,19.9 L1.7,113.5 L89.7,113.5 Z" id="Shape"></path> </g> <g id="path116" transform="translate(42.000000, 55.000000)" fill="#E61B32"> <polyline id="Shape" points="0.2 27.9 21.3 27.9 21.3 0.9 0.2 0.9 0.2 27.9"></polyline> </g> <g id="path118" transform="translate(41.000000, 55.000000)" fill="#100F0D"> <path d="M23.2,28.7 L0.3,28.7 L0.3,0 L23.1,0 L23.1,28.7 L23.2,28.7 Z M21.5,1.7 L2,1.7 L2,27 L21.5,27 L21.5,1.7 Z" id="Shape"></path> </g> <g id="path120" transform="translate(44.000000, 58.000000)" fill="#100F0D"> <path d="M2.3,3.2 L5.2,9.1 C5.2,9.1 5.2,9.1 5.2,9.1 C5.1,9.2 5,9.3 4.9,9.4 C4.9,9.4 4.9,9.4 4.9,9.4 C4.9,9.4 4.8,9.5 4.8,9.5 L0.5,0.8 L8,7 C7.8,7.1 7.6,7.2 7.4,7.3 L2.3,3.2" id="Shape"></path> </g> <g id="path122" transform="translate(44.000000, 58.000000)" fill="#100F0D"> <path d="M0.7,0.6 L0.2,1 L4.7,10.2 L5.4,9.3 L5.6,9.1 L5.5,8.9 L3.3,4.4 L7.3,7.7 L7.5,7.6 C7.7,7.5 7.9,7.4 8.1,7.3 L8.6,7.1 L0.7,0.6 Z M2,3.3 L1.4,2.2 L2.4,3 L2,3.3 Z" id="Shape"></path> </g> <g id="path124" transform="translate(53.000000, 71.000000)" fill="#100F0D"> <path d="M6.3,6.6 L3.4,0.7 C3.4,0.7 3.4,0.7 3.4,0.7 C3.5,0.6 3.6,0.5 3.7,0.4 C3.7,0.4 3.7,0.4 3.7,0.4 C3.7,0.4 3.8,0.3 3.8,0.3 L8.1,9 L0.6,2.8 C0.8,2.7 1,2.6 1.2,2.5 L6.3,6.6" id="Shape"></path> </g> <g id="path126" transform="translate(53.000000, 70.000000)" fill="#100F0D"> <path d="M3.8,0.5 L3.3,1.2 C3.3,1.3 3.2,1.3 3.2,1.4 L3,1.6 L3,1.8 L5.3,6.4 L1.3,3.1 L1.1,3.2 C0.9,3.3 0.7,3.4 0.5,3.5 L0,3.6 L7.9,10.1 L8.4,9.7 L3.8,0.5 Z M6.2,7.8 L6.6,7.5 L7.2,8.6 L6.2,7.8 Z" id="Shape"></path> </g> <g id="path128" transform="translate(48.000000, 64.000000)" fill="#100F0D"> <path d="M4.9,9.9 C3.6,9.9 2.3,9.3 1.4,8.2 C-0.1,6.3 0.2,3.4 2.1,1.9 C2.9,1.2 3.9,0.9 4.9,0.9 C6.2,0.9 7.5,1.5 8.4,2.6 C9.9,4.5 9.6,7.4 7.7,8.9 C6.8,9.6 5.8,9.9 4.9,9.9 M4.9,9.4 C5.8,9.4 6.6,9.1 7.3,8.5 C9,7.1 9.3,4.7 7.9,3 C7.2,2.1 6,1.5 4.9,1.5 C4,1.5 3.2,1.8 2.5,2.4 C0.8,3.8 0.5,6.2 1.9,7.9 C2.5,8.8 3.6,9.4 4.9,9.4" id="Shape"></path> </g> <g id="path130" transform="translate(48.000000, 65.000000)" fill="#100F0D"> <path d="M4.8,8.5 C2.6,8.5 0.8,6.7 0.8,4.4 C0.8,2.2 2.6,0.4 4.8,0.4 C7.1,0.4 8.8,2.2 8.8,4.4 C8.9,6.7 7.1,8.5 4.8,8.5 M4.8,7.7 C6.7,7.7 8.1,6.2 8.1,4.4 C8.1,2.6 6.6,1.1 4.8,1.1 C3,1.1 1.5,2.6 1.5,4.4 C1.5,6.2 3,7.7 4.8,7.7" id="Shape"></path> </g> <g id="path132" transform="translate(51.000000, 67.000000)" fill="#100F0D"> <path d="M3.7,2.4 C3.7,1.4 2.9,0.6 1.9,0.6 C0.9,0.6 0.1,1.4 0.1,2.4 C0.1,3.4 0.9,4.2 1.9,4.2 C2.8,4.2 3.7,3.4 3.7,2.4" id="Shape"></path> </g> <g id="path134" transform="translate(23.000000, 77.000000)" fill="#100F0D"> <polyline id="Shape" points="2.8 12.1 2.8 19 4.6 16.1 4.6 11.6 4.5 10.8 5.9 8 4.1 9.3 4.4 3.7 6.3 2.6 4.6 2.6 3.9 1.9 5.4 0.7 3.2 1 2.3 2.5 0.2 12.4 2.8 12.1"></polyline> </g> <g id="path136" transform="translate(22.000000, 77.000000)" fill="#100F0D"> <path d="M7.6,0.1 L4,0.7 L3,2.4 L0.8,12.7 L3.5,12.4 L3.5,20 L6,16.1 L6,11.4 L5.8,10.7 L7.2,8 L6.7,7.6 L5.4,8.5 L5.6,3.8 L8.5,2.1 L5.7,2.1 L5.4,1.8 L7.6,0.1 Z M4.4,1.3 L5.2,1.2 L4.4,1.9 L5.4,3 L5.9,3 L4.9,3.6 L4.6,10 L6,9 L5.1,10.7 L5.3,11.6 L5.3,16 L4.1,17.8 L4.1,11.7 L1.6,12 L3.6,2.6 L4.4,1.3 Z" id="Shape"></path> </g> <g id="path138" transform="translate(30.000000, 77.000000)" fill="#100F0D"> <polyline id="Shape" points="3.5 12.1 3.5 19 1.7 16.1 1.7 11.6 1.9 10.8 0.5 8 2.3 9.3 2 3.7 0.1 2.6 1.8 2.6 2.4 1.9 1 0.7 3.1 1 4 2.5 6.2 12.4 3.5 12.1"></polyline> </g> <g id="path140" transform="translate(28.000000, 77.000000)" fill="#100F0D"> <path d="M1.8,0.1 L4,1.9 L3.7,2.2 L0.9,2.2 L3.8,3.9 L4,8.6 L2.7,7.7 L2.2,8.1 L3.6,10.8 L3.4,11.4 L3.4,16.1 L5.9,20 L5.9,12.4 L8.6,12.7 L6.3,2.3 L5.3,0.7 L1.8,0.1 Z M3.9,2.9 L4.9,1.8 L4.1,1.1 L4.9,1.2 L5.7,2.5 L7.7,11.9 L5.1,11.7 L5.1,17.8 L4.1,16 L4.1,11.5 L4.3,10.7 L3.4,9 L4.7,9.9 L4.4,3.5 L3.4,2.9 L3.9,2.9 Z" id="Shape"></path> </g> <g id="path142" transform="translate(22.000000, 114.000000)" fill="#100F0D"> <polyline id="Shape" points="4.2 3.9 1.8 2.4 0.9 0.5 2.9 1.5 6.3 1.1 4.2 3.9"></polyline> </g> <g id="path144" transform="translate(22.000000, 113.000000)" fill="#100F0D"> <path d="M0.3,0.8 L1.6,3.6 L4.4,5.3 L7.1,1.6 L3,2.1 L0.3,0.8 Z M2,3.2 L1.6,2.3 L2.8,2.9 L5.6,2.6 L4.2,4.5 L2,3.2 Z" id="Shape"></path> </g> <g id="path146" transform="translate(63.000000, 25.000000)" fill="#E61B32"> <path d="M0.2,0.3 L0.4,2.7 L2.4,4.8 C1.6,5.2 7.10542736e-15,5.1 7.10542736e-15,5.1 L1.5,8 L5.2,9.6 L4.6,8 L5.6,6.6 L8.2,6.4 L8.8,6.7 L6.9,10.6 L16.3,15.1 L16.4,15.1 L17.6,13.7 L10.9,9.7 L12.7,8.2 L12.3,5.1 L11.9,3 L5.8,3 L4.1,3.3 L1.9,2.3 L0.2,0.3" id="Shape"></path> </g> <g id="path148" transform="translate(62.000000, 24.000000)" fill="#100F0D"> <path d="M0.8,0.2 L1.2,3.8 L2.9,5.6 C2.3,5.7 1.4,5.8 1.1,5.7 L0.5,5.7 L2.3,9.2 L6.9,11.2 L6,9.1 L6.8,8 L9.2,7.9 L9.4,8 L7.5,11.9 L17.6,16.7 L19.2,14.9 L12.6,10.9 L14.1,9.6 L13.7,6.4 L13.3,3.8 L6.9,3.8 L5.1,4 L3.1,3.1 L0.8,0.2 Z M1.8,3.5 L1.7,2.3 L2.8,3.5 L5.1,4.6 L6.9,4.3 L12.7,4.3 L13,6.3 L13.4,9.2 L11.4,10.8 L18.2,14.9 L17.4,15.8 L8.4,11.5 L10.3,7.6 L9.3,7.1 L6.4,7.3 L5.2,9 L5.6,10 L2.8,8.8 L1.6,6.5 C2.2,6.5 3.1,6.4 3.6,6.1 L4,5.9 L1.8,3.5 Z" id="Shape"></path> </g> <g id="path150" transform="translate(70.000000, 22.000000)" fill="#E61B32"> <path d="M4.3,2.2 L4.5,0.8 L7.9,1 L16.1,1 L16.6,7.3 L15.3,7.8 L15.8,6 L15.1,7 L14.7,5.2 L14.3,6 L14.1,4.8 L10.2,3.6 L6.4,4.1 C6.4,4.1 5.6,4.3 5.3,4.8 C5.3,4.8 1,2.1 0.2,0.9 L4.3,2.2" id="Shape"></path> </g> <g id="path152" transform="translate(69.000000, 22.000000)" fill="#100F0D"> <path d="M5.2,0.4 L5,1.7 L0.3,0.4 L0.8,1.2 C1.6,2.4 5.8,5 6,5.1 L6.3,5.3 L6.5,5 C6.7,4.7 7.2,4.5 7.4,4.5 L11.1,4 L14.8,5.1 L15.1,7.1 L15.6,6.1 L15.9,7.7 L16,7.6 L15.8,8.3 L17.9,7.5 L17.4,0.6 L8.9,0.6 L5.2,0.4 Z M5.6,2.6 L5.8,1.1 L8.9,1.3 L16.8,1.3 L17.2,7 L16.8,7.2 L17.1,6 L16.5,5.7 L16.2,6.1 L15.8,4.2 L15.4,5 L15.4,4.6 L11.2,3.3 L7.3,3.8 C7.2,3.8 6.6,4 6.2,4.4 C5.2,3.8 3.4,2.6 2.3,1.6 L5.6,2.6 Z" id="Shape"></path> </g> <g id="path154" transform="translate(77.000000, 44.000000)" fill="#FFFFFF"> <polygon id="Shape" points="0.4 0.2 2.7 0.8"></polygon> </g> <g id="path156" transform="translate(77.000000, 43.000000)" fill="#100F0D"> <polygon id="Shape" points="0.2 0.8 0 1.5 2.7 2.2 2.8 1.5"></polygon> </g> <g id="path158" transform="translate(84.000000, 33.000000)" fill="#E61B32"> <path d="M6.3,7.8 L5.4,11.8 C5.9,12 8.1,12.1 8.1,12.1 C7.5,12.9 6.4,13.8 6.4,13.8 L6.6,16.2 L3.1,12.9 L5.1,4.9 L2.8,3.2 L0.8,6.9 L0.2,5.9 L1.4,2.5 L1.2,2 L3.4,0.5 L4,2.3 L7.2,3.6 L6.5,6.3 L6.3,7.8" id="Shape"></path> </g> <g id="path160" transform="translate(83.000000, 32.000000)" fill="#100F0D"> <path d="M4.5,0.9 L1.8,2.8 L2.1,3.6 L0.9,7.1 L1.9,8.7 L3.9,4.8 L5.7,6.1 L3.8,14 L8,18.1 L7.7,15 C8,14.7 8.8,14.1 9.3,13.4 L9.7,12.9 L9.1,12.9 C8.4,12.9 7.3,12.8 6.8,12.7 L7.6,9 L7.9,7.4 L8.6,4.5 L5.3,3 L4.5,0.9 Z M2.6,3.1 L4.2,2 L4.7,3.5 L7.8,4.8 L7.2,7.2 L6.9,8.8 L6,13 L6.3,13.1 C6.7,13.3 7.7,13.3 8.4,13.4 C7.8,14 7.2,14.5 7.2,14.5 L7,14.7 L7.2,16.4 L4.5,13.8 L6.5,5.8 L3.7,3.8 L1.8,7.4 L1.6,7 L2.8,3.6 L2.6,3.1 Z" id="Shape"></path> </g> <g id="path162" transform="translate(62.000000, 38.000000)" fill="#E61B32"> <path d="M0.8,3.2 C0.8,3.2 3.1,4 3.7,3.7 L5.1,1.9 L6.6,7.10542736e-15 L6.9,1.5 L8.8,1.9 L14.4,3 L12.1,4.6 L12,5.3 L15.4,6.2 L9.2,5.4 L5,4.9 L3.6,6.4 L1.7,5.3 L0.8,3.2" id="Shape"></path> </g> <g id="path164" transform="translate(62.000000, 37.000000)" fill="#100F0D"> <path d="M6.9,0.2 L4.9,2.6 L3.6,4.4 C3.2,4.5 2,4.2 1,3.9 L0.3,3.6 L1.6,6.6 L3.8,7.8 L5.2,6.2 L9.2,6.7 L15.7,7.6 L15.9,7 L15.6,6.9 L12.4,6 L12.5,5.6 L15.3,3.6 L7.2,2 L6.9,0.2 Z M3.3,5.1 C3.5,5.1 3.8,5.1 3.9,5 L4,4.9 L5.4,3.1 L6.5,1.8 L6.7,2.8 L8.8,3.2 L13.6,4.1 L11.9,5.3 L11.6,6.4 L4.9,5.6 L3.6,7 L2,6.1 L1.4,4.7 C2,4.9 2.7,5.1 3.3,5.1 Z" id="Shape"></path> </g> <g id="path166" transform="translate(73.000000, 26.000000)" fill="#E61B32"> <polyline id="Shape" points="11.6 7.4 12.2 9 12.5 9.7 11.3 13.1 11.9 14 10.6 18 10.7 18.8 9.6 21.7 8.2 20.9 7.9 19.8 7.5 19.5 6.7 18.8 4.4 18.2 1 17.3 1.2 16.5 3.5 14.9 5.3 13.6 6.1 13 6.4 12.3 0.5 8.8 2.3 7.4 8.1 2.4 8.1 0 11.2 0 12.7 1.2 13.3 3 13.3 4.3 12.8 4.6 12.3 5.3 11.6 7.4"></polyline> </g> <g id="path168" transform="translate(72.000000, 25.000000)" fill="#100F0D"> <path d="M12.3,0.6 L8.8,0.6 L8.8,3.3 L0.9,9.9 L7,13.4 L6.8,13.8 L1.8,17.3 L1.5,18.5 L7.5,20.1 L8.2,20.7 L8.6,20.9 L8.9,22 L10.7,23.1 L12,19.8 L12,19.1 L13.3,15 L12.6,14 L13.8,10.6 L13,8.4 L13.6,6.5 L14.1,5.9 L14.7,5.5 L14.7,3.9 L13.9,2 L12.3,0.6 Z M9.5,1.3 L12.1,1.3 L13.4,2.4 L14,4 L14,5.1 L13.6,5.4 L13,6.2 L12.3,8.4 L13.1,10.7 L11.9,14.2 L12.5,15.2 L11.3,19 L11.4,19.8 L10.4,22.2 L9.5,21.6 L9.2,20.5 L8.6,20.2 L7.8,19.5 L2.4,18 L2.5,17.6 L7.4,14.2 L7.9,13 L2.1,9.7 L9.5,3.5 L9.5,1.3 Z" id="Shape"></path> </g> <g id="path170" transform="translate(63.000000, 42.000000)" fill="#E61B32"> <path d="M23.8,10.4 L27,10.5 L21.5,14.4 L21.4,15.3 L21.5,15.8 L21.6,16.4 L23,17 L22.5,17.3 L19.4,16.4 L21.1,13.7 L15.4,12 L13.7,13.9 C13.7,13.9 12.1,12.7 11.1,12.4 C11.1,12.4 11.5,11.8 12.4,11.2 L13.3,10.6 L12.4,8 L14.9,8.9 L14.9,7.4 L8.8,5.7 L8.1,8.4 L6.7,11.9 L3.1,12.2 L5.2,10.2 L2.4,10 L0.5,8.7 C0.5,8.7 2.9,8.6 4.5,8 L1.6,6.7 L0.5,4.7 L3.9,5.7 L6,5.7 L7.3,0.3 L16.7,2.8 L17.5,0.4 L19.2,5.3 L20.9,1.1 L22.7,8.3 L23.8,10.4" id="Shape"></path> </g> <g id="path172" transform="translate(62.000000, 41.000000)" fill="#100F0D"> <path d="M18.5,0.3 L17.5,3.4 L8.1,0.9 L6.8,6.4 L5,6.4 L0.8,5.2 L2.4,8 L4.6,9 C3.2,9.4 1.6,9.4 1.5,9.4 L0.5,9.4 L3.3,11.3 L5.5,11.4 L3.3,13.5 L8,13.1 L9.4,9.4 L10,7 L15.5,8.5 L15.5,9.3 L12.8,8.4 L13.7,11.4 L13.2,12 C12.2,12.6 11.8,13.3 11.8,13.3 L11.6,13.7 L12,13.8 C12.9,14 14.4,15.2 14.5,15.2 L14.7,15.4 L16.5,13.4 L21.6,15 L19.9,17.7 L23.5,18.8 L24.7,18.1 L22.9,17.3 L22.8,16.8 L22.8,16.3 L22.9,15.6 L29.1,11.2 L25.1,11 L24.1,9.2 L22.1,1 L20.3,5.3 L18.5,0.3 Z M4.9,7 L7.3,7 L8.6,1.7 L18,4.2 L18.6,2.4 L20.2,7.2 L21.9,3.2 L23.5,9.5 L24.7,11.6 L27.1,11.7 L22.3,15.1 L22.1,16.2 L22.1,16.8 L22.3,17.6 L20.9,17.2 L22.6,14.5 L16.3,12.5 L14.6,14.4 C14.2,14.1 13.3,13.5 12.6,13.2 C12.8,13 13.1,12.7 13.5,12.4 L14.6,11.6 L14,9.6 L16.3,10.4 L16.3,8.1 L9.6,6.3 L8.8,9.3 L7.5,12.6 L5.1,12.8 L7,10.9 L3.4,10.7 L2.4,10 C3.3,9.9 4.5,9.7 5.5,9.4 L6.3,9.1 L2.8,7.5 L2.1,6.3 L4.9,7 Z" id="Shape"></path> </g> <g id="path174" transform="translate(71.000000, 49.000000)" fill="#E61B32"> <path d="M14,6.9 L18.1,7.9 L13.6,9.5 L17.1,10.9 L10.9,12 C8,12.7 4.8,10.9 4.5,10.8 C4.2,10.7 1.8,9.6 1.8,9.6 L1.4,10 L0.5,8.3 L1.2,7.3 C1.4,7.1 2.1,6.6 2.1,6.6 L2.1,7.4 L3,7.9 C3.5,7.9 5.4,7.5 5.4,7.5 L5.6,6.9 L9.5,0.9 L10.9,4.5 L13.6,3 L14,6.9" id="Shape"></path> </g> <g id="path176" transform="translate(71.000000, 49.000000)" fill="#100F0D"> <path d="M9.7,0.2 L5.4,6.8 L5.3,7.2 C4.6,7.3 3.6,7.5 3.2,7.6 L2.5,7.2 L2.5,6 L2,6.3 C1.8,6.4 1.2,6.8 1,7.1 L0,8.3 L1.2,10.5 L1.8,10 C2.4,10.2 4.1,11 4.3,11.1 C4.3,11.1 4.4,11.1 4.4,11.2 C7.5,12.7 9.6,12.7 10.9,12.4 L18.2,11.1 L14.4,9.6 L19.2,7.9 L14.3,6.8 L14,2.6 L11.2,4 L9.7,0.2 Z M6,7.1 L9.6,1.7 L10.9,5.1 L13.5,3.7 L13.8,7.3 L17,8.1 L12.7,9.7 L16,11 L11,11.9 C9.8,12.2 7.8,12.2 4.9,10.8 C4.8,10.8 4.8,10.7 4.7,10.7 C4.4,10.6 2,9.5 2,9.5 L1.8,9.4 L1.5,9.6 L0.9,8.5 L1.5,7.7 C1.5,7.6 1.7,7.5 1.9,7.4 L1.9,7.8 L3.2,8.4 C3.7,8.4 5.5,8 5.7,8 L5.9,8 L6,7.1 Z" id="Shape"></path> </g> <g id="path178" transform="translate(74.000000, 81.000000)" fill="#FBC807"> <polyline id="Shape" points="2.3 7 1.8 7 0.8 4.4 0.8 0.1 2.1 3.2 3.3 0.1 3.3 4.4 2.3 7"></polyline> </g> <g id="path180" transform="translate(74.000000, 80.000000)" fill="#FBC807"> <path d="M1.1,0.9 L0.5,1 L0.5,5.5 L1.6,8.3 L2.5,8.3 L3.7,5.4 L3.7,1.1 L3,0.9 L2,3.3 L1.1,0.9 Z M1.1,5.3 L1.1,2.7 L2.1,5 L3.1,2.7 L3.1,5.3 L2.1,7.6 L1.1,5.3 Z" id="Shape"></path> </g> <g id="path182" transform="translate(74.000000, 111.000000)" fill="#FBC807"> <polygon id="Shape" points="3.3 0.9 2.1 8 0.8 0.9"></polygon> </g> <g id="path184" transform="translate(74.000000, 111.000000)" fill="#FBC807"> <path d="M3.7,0.5 L0.3,0.5 L1.7,8.1 L2.4,8.1 L3.7,0.5 Z M1.2,1.2 L3,1.2 L2.1,6.1 L1.2,1.2 Z" id="Shape"></path> </g> <g id="path186" transform="translate(66.000000, 82.000000)" fill="#FBC807"> <polyline id="Shape" points="4.4 7.4 4.2 7.5 2 5.7 0 1.9 2.6 4 2.3 0.7 4.3 4.5 4.6 7.3 4.4 7.4"></polyline> </g> <g id="path188" transform="translate(65.000000, 82.000000)" fill="#FBC807"> <path d="M3.5,0.5 L2.9,0.7 L3.2,3.3 L1.2,1.7 L0.7,2 L2.8,5.9 L5.1,7.8 L5.9,7.4 L5.6,4.3 L3.5,0.5 Z M4,4.8 L3.7,2.3 L4.9,4.6 L5.1,7.1 L3.2,5.5 L2,3.2 L4,4.8 Z" id="Shape"></path> </g> <g id="path190" transform="translate(80.000000, 109.000000)" fill="#FBC807"> <polygon id="Shape" points="2.8 0.9 5 7.8 0.5 2.1"></polygon> </g> <g id="path192" transform="translate(80.000000, 109.000000)" fill="#FBC807"> <path d="M3,0.4 L0,2 L4.8,8 L5.4,7.7 L3,0.4 Z M1,2.2 L2.6,1.4 L4.1,6.2 L1,2.2 Z" id="Shape"></path> </g> <g id="path194" transform="translate(59.000000, 88.000000)" fill="#FBC807"> <polyline id="Shape" points="7 5.3 6.9 5.5 4.1 4.9 0.5 2.5 3.9 3.2 2 0.4 5.6 2.8 7.1 5.1 7 5.3"></polyline> </g> <g id="path196" transform="translate(59.000000, 88.000000)" fill="#FBC807"> <path d="M2.2,0.1 L1.7,0.6 L3.1,2.8 L0.6,2.3 L0.3,2.9 L4,5.4 L7,6 L7.5,5.2 L5.8,2.6 L2.2,0.1 Z M4.6,3.7 L3.2,1.6 L5.4,3.1 L6.8,5.2 L4.4,4.7 L2.3,3.3 L4.6,3.7 Z" id="Shape"></path> </g> <g id="path198" transform="translate(86.000000, 88.000000)" fill="#FBC807"> <polyline id="Shape" points="6.6 2.5 3 4.9 0.2 5.5 0.1 5.3 0 5.1 1.5 2.8 5.1 0.4 3.2 3.2 6.6 2.5"></polyline> </g> <g id="path200" transform="translate(85.000000, 88.000000)" fill="#FBC807"> <path d="M5.9,0.1 L2.2,2.6 L0.5,5.1 L1,5.9 L4.1,5.2 L7.7,2.8 L7.4,2.2 L5,2.7 L6.4,0.5 L5.9,0.1 Z M2.8,3 L5,1.5 L3.6,3.6 L6.1,3.1 L4,4.5 L1.6,5 L2.8,3 Z" id="Shape"></path> </g> <g id="path202" transform="translate(60.000000, 105.000000)" fill="#FBC807"> <polygon id="Shape" points="6.9 2.7 0.3 5.7 5.5 0.6"></polygon> </g> <g id="path204" transform="translate(60.000000, 105.000000)" fill="#FBC807"> <path d="M5.5,0.1 L0,5.4 L0.4,5.9 L7.4,2.8 L5.5,0.1 Z M1.8,4.6 L5.4,1.1 L6.4,2.6 L1.8,4.6 Z" id="Shape"></path> </g> <g id="path206" transform="translate(81.000000, 82.000000)" fill="#FBC807"> <polyline id="Shape" points="5.1 1.9 3.1 5.7 1 7.5 0.8 7.4 0.5 7.3 0.8 4.5 2.9 0.7 2.5 4 5.1 1.9"></polyline> </g> <g id="path208" transform="translate(81.000000, 82.000000)" fill="#FBC807"> <path d="M2.6,0.5 L0.5,4.4 L0.2,7.4 L1,7.8 L3.4,5.8 L5.4,2 L4.9,1.6 L2.9,3.2 L3.1,0.6 L2.6,0.5 Z M1.1,4.6 L2.3,2.3 L2.1,4.8 L4,3.2 L2.8,5.5 L0.9,7.1 L1.1,4.6 Z" id="Shape"></path> </g> <g id="path210" transform="translate(67.000000, 109.000000)" fill="#FBC807"> <polygon id="Shape" points="4.6 2.1 0.1 7.8 2.3 0.9"></polygon> </g> <g id="path212" transform="translate(66.000000, 109.000000)" fill="#FBC807"> <path d="M3.1,0.4 L0.7,7.7 L1.3,8 L6.1,2 L3.1,0.4 Z M2,6.1 L3.5,1.3 L5.1,2.1 L2,6.1 Z" id="Shape"></path> </g> <g id="path214" transform="translate(85.000000, 105.000000)" fill="#FBC807"> <polygon id="Shape" points="1.6 0.6 6.8 5.7 0.2 2.7"></polygon> </g> <g id="path216" transform="translate(84.000000, 105.000000)" fill="#FBC807"> <path d="M2.6,0.1 L0.7,2.9 L7.7,6 L8.1,5.5 L2.6,0.1 Z M1.7,2.6 L2.7,1.1 L6.3,4.6 L1.7,2.6 Z" id="Shape"></path> </g> <g id="path226" transform="translate(77.000000, 103.000000)" fill="#FBC807"> <path d="M5.4,8.5 L5,8.7 L0.6,0.4 C0.7,0.3 0.9,0.3 1,0.2 L5.4,8.5" id="Shape"></path> </g> <g id="path228" transform="translate(77.000000, 102.000000)" fill="#FBC807"> <path d="M1.1,0.7 L0.8,0.9 C0.7,1 0.6,1 0.4,1.1 L0.1,1.2 L4.9,10.1 L5.9,9.5 L1.1,0.7 Z" id="Shape"></path> </g> <g id="path230" transform="translate(70.000000, 89.000000)" fill="#FBC807"> <path d="M0.2,0.5 L0.6,0.3 L4.5,7.6 C4.4,7.7 4.2,7.7 4.1,7.8 L0.2,0.5" id="Shape"></path> </g> <g id="path232" transform="translate(69.000000, 88.000000)" fill="#FBC807"> <path d="M1.7,0.8 L0.7,1.4 L4.9,9.3 L5.2,9.1 C5.3,9 5.4,9 5.6,8.9 L5.9,8.7 L1.7,0.8 Z" id="Shape"></path> </g> <g id="path234" transform="translate(65.000000, 93.000000)" fill="#FBC807"> <path d="M0.9,0.5 L1.2,0.1 L8.1,4.7 C8,4.8 7.9,5 7.8,5.1 L0.9,0.5" id="Shape"></path> </g> <g id="path236" transform="translate(65.000000, 92.000000)" fill="#FBC807"> <path d="M1.1,0.6 L0.5,1.6 L8,6.6 L8.2,6.3 C8.3,6.2 8.3,6.1 8.4,5.9 L8.6,5.6 L1.1,0.6 Z" id="Shape"></path> </g> <g id="path238" transform="translate(79.000000, 101.000000)" fill="#FBC807"> <path d="M8.1,6.2 L7.8,6.6 L0,1.3 C0.1,1.2 0.2,1 0.3,0.9 L8.1,6.2" id="Shape"></path> </g> <g id="path240" transform="translate(78.000000, 101.000000)" fill="#FBC807"> <path d="M1.2,0.5 L1,0.8 C0.9,0.9 0.9,1 0.8,1.1 L0.6,1.4 L9,7 L9.6,6.1 L1.2,0.5 Z" id="Shape"></path> </g> <g id="path242" transform="translate(65.000000, 101.000000)" fill="#FBC807"> <path d="M8,1.2 C8,1.2 8.1,1.3 8.1,1.3 L0.3,6.6 L0,6.2 L7.8,0.9 C7.9,1 7.9,1.1 8,1.2" id="Shape"></path> </g> <g id="path244" transform="translate(64.000000, 101.000000)" fill="#FBC807"> <path d="M8.9,0.5 L0.6,6.1 L1.2,7 L9.6,1.4 L9.4,1.1 C9.4,1.1 9.4,1.1 9.4,1.1 L9.3,1 C9.3,1 9.3,0.9 9.2,0.9 C9.2,0.9 9.1,0.8 9.1,0.8 L8.9,0.5 Z" id="Shape"></path> </g> <g id="path246" transform="translate(79.000000, 93.000000)" fill="#FBC807"> <path d="M0.1,4.7 L7,0.1 L7.3,0.5 L0.4,5.1 C0.3,5 0.2,4.9 0.1,4.7" id="Shape"></path> </g> <g id="path248" transform="translate(78.000000, 92.000000)" fill="#FBC807"> <path d="M8.1,0.6 L0.7,5.6 L0.9,6 C1,6.1 1,6.2 1.1,6.2 L1.3,6.6 L8.8,1.5 L8.1,0.6 Z" id="Shape"></path> </g> <g id="path250" transform="translate(69.000000, 103.000000)" fill="#FBC807"> <path d="M1.1,8.7 L0.7,8.5 L5.1,0.2 C5.2,0.3 5.4,0.4 5.5,0.4 L1.1,8.7" id="Shape"></path> </g> <g id="path252" transform="translate(69.000000, 102.000000)" fill="#FBC807"> <path d="M5,0.7 L0.2,9.6 L1.2,10.2 L6,1.3 L5.7,1.2 C5.6,1.1 5.5,1.1 5.3,1 L5,0.7 Z" id="Shape"></path> </g> <g id="path254" transform="translate(77.000000, 89.000000)" fill="#FBC807"> <path d="M0.9,7.7 C0.9,7.7 0.8,7.7 0.9,7.7 C0.8,7.6 0.8,7.6 0.7,7.6 C0.7,7.6 0.6,7.6 0.6,7.6 L4.5,0.3 L4.9,0.5 L1,7.8 C1,7.8 1,7.8 0.9,7.7 C1,7.7 0.9,7.7 0.9,7.7" id="Shape"></path> </g> <g id="path256" transform="translate(77.000000, 88.000000)" fill="#FBC807"> <path d="M4.4,0.8 L0.3,8.6 L0.3,8.8 L0.6,9 C0.6,9 0.7,9 0.7,9.1 L1.2,9.5 L1.4,9.1 L5.5,1.5 L4.4,0.8 Z" id="Shape"></path> </g> <g id="path258" transform="translate(64.000000, 98.000000)" fill="#FBC807"> <path d="M8.6,3.1 C8.6,3.2 8.7,3.4 8.7,3.5 C8.7,3.5 8.7,3.5 8.7,3.5 C8.7,3.6 8.7,3.6 8.7,3.7 L0.7,2 L8.7,0.3 C8.7,0.5 8.6,0.7 8.6,0.9" id="Shape"></path> </g> <g id="path260" transform="translate(64.000000, 97.000000)" fill="#FBC807"> <path d="M9.2,0.8 L0.7,2.6 L0.7,3.3 L9.1,5.1 L9.1,4.7 C9.1,4.6 9.1,4.5 9.1,4.5 C9.1,4.4 9.1,4.4 9.1,4.3 C9.1,4.2 9.1,4.2 9.1,4.1 L8.4,4.2 C8.4,4.2 8.4,4.3 8.4,4.3 L2.4,3 L8.4,1.7 C8.4,1.7 8.4,1.7 8.4,1.8 L9.1,1.9 C9.1,1.8 9.2,1.6 9.2,1.5 L9.2,0.8 Z" id="Shape"></path> </g> <g id="path262" transform="translate(79.000000, 98.000000)" fill="#FBC807"> <path d="M0.4,0.9 C0.4,0.8 0.4,0.8 0.4,0.9 C0.4,0.7 0.3,0.6 0.3,0.5 C0.3,0.4 0.3,0.4 0.3,0.3 L8.3,2 L0.3,3.7 C0.3,3.5 0.4,3.3 0.4,3.1" id="Shape"></path> </g> <g id="path264" transform="translate(78.000000, 97.000000)" fill="#FBC807"> <path d="M0.9,0.9 L1,1.4 C1,1.4 1,1.5 1,1.5 L1,1.6 C1,1.7 1,1.7 1,1.8 L1,1.9 L1.1,2 L1.3,1.8 L1.6,1.8 C1.6,1.8 1.6,1.7 1.6,1.7 L7.6,3 L1.6,4.3 C1.6,4.3 1.6,4.2 1.6,4.2 L0.9,4.1 C0.9,4.3 0.8,4.5 0.8,4.6 L0.7,5.1 L9.2,3.3 L9.2,2.6 L0.9,0.9 Z" id="Shape"></path> </g> <g id="path266" transform="translate(72.000000, 96.000000)" fill="#FBC807"> <path d="M4.1,7.7 C2,7.7 0.3,6 0.3,3.9 C0.3,1.8 2,0.2 4.1,0.2 C6.2,0.2 7.9,1.9 7.9,3.9 C7.8,6.1 6.1,7.7 4.1,7.7 M4.1,7 C5.8,7 7.2,5.6 7.2,4 C7.2,2.3 5.8,1 4.1,1 C2.4,1 1,2.4 1,4 C1,5.7 2.4,7 4.1,7" id="Shape"></path> </g> <g id="path268" transform="translate(74.000000, 98.000000)" fill="#FBC807"> <path d="M2.1,3.5 C1.3,3.5 0.5,2.8 0.5,2 C0.5,1.2 1.2,0.5 2.1,0.5 C3,0.5 3.6,1.2 3.6,2 C3.6,2.8 2.9,3.5 2.1,3.5" id="Shape"></path> </g> <g id="path270" transform="translate(74.000000, 98.000000)" fill="#FBC807"> <path d="M2.1,0.1 C1.1,0.1 0.2,1 0.2,2 C0.2,3 1,3.9 2.1,3.9 C3.1,3.9 4,3.1 4,2 C3.9,1 3.1,0.1 2.1,0.1 Z M2.1,3.2 C1.4,3.2 0.9,2.7 0.9,2 C0.9,1.4 1.5,0.8 2.1,0.8 C2.8,0.8 3.3,1.3 3.3,2 C3.3,2.7 2.7,3.2 2.1,3.2 Z" id="Shape"></path> </g> <g id="path272" transform="translate(28.000000, 22.000000)" fill="#FBC807"> <polyline id="Shape" points="1.9 7.1 1.4 7.1 0.4 4.5 0.4 0.2 1.6 3.3 2.9 0.2 2.9 4.5 1.9 7.1"></polyline> </g> <g id="path274" transform="translate(28.000000, 22.000000)" fill="#FBC807"> <path d="M2.6,0 L1.6,2.4 L0.6,0 L0,0.2 L0,4.7 L1.1,7.5 L2,7.5 L3.2,4.6 L3.2,0.3 L2.6,0 Z M1.6,4.2 L2.6,1.9 L2.6,4.5 L1.6,6.8 L0.7,4.5 L0.7,1.9 L1.6,4.2 Z" id="Shape"></path> </g> <g id="path276" transform="translate(28.000000, 53.000000)" fill="#FBC807"> <polygon id="Shape" points="2.9 0 1.6 7.1 0.4 0"></polygon> </g> <g id="path278" transform="translate(28.000000, 52.000000)" fill="#FBC807"> <path d="M3.3,0.7 L0,0.7 L1.4,8.3 L2.1,8.3 L3.3,0.7 Z M0.8,1.3 L2.6,1.3 L1.7,6.2 L0.8,1.3 Z" id="Shape"></path> </g> <g id="path280" transform="translate(19.000000, 23.000000)" fill="#FBC807"> <polyline id="Shape" points="5 7.5 4.7 7.6 2.6 5.8 0.6 2 3.2 4.2 2.8 0.8 4.9 4.6 5.2 7.4 5 7.5"></polyline> </g> <g id="path282" transform="translate(19.000000, 23.000000)" fill="#FBC807"> <path d="M3.1,0.6 L2.5,0.8 L2.8,3.4 L0.8,1.8 L0.3,2.2 L2.4,6.1 L4.7,8 L5.5,7.6 L5.2,4.5 L3.1,0.6 Z M3.6,4.9 L3.3,2.4 L4.5,4.7 L4.7,7.2 L2.8,5.6 L1.6,3.3 L3.6,4.9 Z" id="Shape"></path> </g> <g id="path284" transform="translate(34.000000, 51.000000)" fill="#FBC807"> <polygon id="Shape" points="2.4 0 4.6 6.9 0.1 1.2"></polygon> </g> <g id="path286" transform="translate(33.000000, 50.000000)" fill="#FBC807"> <path d="M3.6,0.5 L0.6,2.1 L5.4,8.1 L6,7.8 L3.6,0.5 Z M1.6,2.3 L3.2,1.5 L4.7,6.3 L1.6,2.3 Z" id="Shape"></path> </g> <g id="path288" transform="translate(13.000000, 29.000000)" fill="#FBC807"> <polyline id="Shape" points="6.6 5.4 6.5 5.6 3.7 5 0.1 2.6 3.5 3.3 1.6 0.5 5.2 2.9 6.7 5.2 6.6 5.4"></polyline> </g> <g id="path290" transform="translate(12.000000, 29.000000)" fill="#FBC807"> <path d="M2.8,0.2 L2.3,0.7 L3.7,2.8 L1.2,2.3 L0.9,2.9 L4.6,5.4 L7.6,6 L8.1,5.2 L6.4,2.6 L2.8,0.2 Z M5.2,3.8 L3.8,1.7 L6,3.2 L7.4,5.3 L4.9,4.8 L2.7,3.3 L5.2,3.8 Z" id="Shape"></path> </g> <g id="path292" transform="translate(39.000000, 29.000000)" fill="#FBC807"> <polyline id="Shape" points="7.2 2.6 3.6 5 0.8 5.6 0.7 5.4 0.6 5.2 2.1 2.9 5.7 0.5 3.8 3.3 7.2 2.6"></polyline> </g> <g id="path294" transform="translate(39.000000, 29.000000)" fill="#FBC807"> <path d="M5.5,0.2 L1.8,2.7 L0.1,5.2 L0.6,6 L3.7,5.3 L7.3,2.9 L7,2.3 L4.5,2.8 L5.9,0.7 L5.5,0.2 Z M2.3,3.1 L4.5,1.6 L3.1,3.7 L5.6,3.2 L3.4,4.7 L1,5.2 L2.3,3.1 Z" id="Shape"></path> </g> <g id="path296" transform="translate(13.000000, 46.000000)" fill="#FBC807"> <polygon id="Shape" points="7.5 2.8 0.9 5.8 6.1 0.7"></polygon> </g> <g id="path298" transform="translate(13.000000, 46.000000)" fill="#FBC807"> <path d="M6.1,0.2 L0.6,5.5 L1,6 L8,2.9 L6.1,0.2 Z M2.4,4.7 L6,1.2 L7,2.7 L2.4,4.7 Z" id="Shape"></path> </g> <g id="path300" transform="translate(35.000000, 23.000000)" fill="#FBC807"> <polyline id="Shape" points="4.7 2 2.7 5.8 0.5 7.6 0.3 7.5 0.1 7.4 0.4 4.6 2.4 0.8 2.1 4.2 4.7 2"></polyline> </g> <g id="path302" transform="translate(34.000000, 23.000000)" fill="#FBC807"> <path d="M3.2,0.6 L1.1,4.5 L0.8,7.5 L1.6,7.9 L4,5.9 L6,2.1 L5.5,1.7 L3.5,3.3 L3.7,0.7 L3.2,0.6 Z M1.7,4.7 L2.9,2.4 L2.7,4.9 L4.6,3.3 L3.4,5.6 L1.5,7.2 L1.7,4.7 Z" id="Shape"></path> </g> <g id="path304" transform="translate(20.000000, 51.000000)" fill="#FBC807"> <polygon id="Shape" points="5.2 1.2 0.7 6.9 2.9 0"></polygon> </g> <g id="path306" transform="translate(20.000000, 50.000000)" fill="#FBC807"> <path d="M2.7,0.5 L0.4,7.8 L1,8.1 L5.8,2.1 L2.7,0.5 Z M1.6,6.3 L3.1,1.5 L4.7,2.3 L1.6,6.3 Z" id="Shape"></path> </g> <g id="path308" transform="translate(38.000000, 46.000000)" fill="#FBC807"> <polygon id="Shape" points="2.2 0.7 7.4 5.8 0.8 2.8"></polygon> </g> <g id="path310" transform="translate(38.000000, 46.000000)" fill="#FBC807"> <path d="M2.2,0.2 L0.3,3 L7.3,6.1 L7.7,5.6 L2.2,0.2 Z M1.3,2.7 L2.3,1.2 L5.9,4.7 L1.3,2.7 Z" id="Shape"></path> </g> <g id="path320" transform="translate(31.000000, 44.000000)" fill="#FBC807"> <path d="M5,8.6 L4.6,8.8 L0.2,0.5 C0.3,0.4 0.5,0.4 0.6,0.3 L5,8.6" id="Shape"></path> </g> <g id="path322" transform="translate(30.000000, 43.000000)" fill="#FBC807"> <path d="M1.7,0.9 L1.4,1 C1.3,1.1 1.1,1.1 1,1.2 L0.7,1.3 L5.5,10.2 L6.5,9.6 L1.7,0.9 Z" id="Shape"></path> </g> <g id="path324" transform="translate(23.000000, 30.000000)" fill="#FBC807"> <path d="M0.7,0.6 L1.1,0.4 L5,7.7 C4.9,7.8 4.7,7.8 4.6,7.9 L0.7,0.6" id="Shape"></path> </g> <g id="path326" transform="translate(23.000000, 29.000000)" fill="#FBC807"> <path d="M1.3,0.9 L0.3,1.5 L4.5,9.4 L4.8,9.2 C4.9,9.1 5,9.1 5.2,9 L5.5,8.9 L1.3,0.9 Z" id="Shape"></path> </g> <g id="path328" transform="translate(19.000000, 34.000000)" fill="#FBC807"> <path d="M0.5,0.6 L0.8,0.2 L7.7,4.8 C7.6,4.9 7.5,5.1 7.4,5.2 L0.5,0.6" id="Shape"></path> </g> <g id="path330" transform="translate(19.000000, 33.000000)" fill="#FBC807"> <path d="M0.6,0.7 L0,1.7 L7.5,6.7 L7.7,6.4 C7.8,6.3 7.8,6.2 7.9,6.1 L8.1,5.8 L0.6,0.7 Z" id="Shape"></path> </g> <g id="path332" transform="translate(32.000000, 43.000000)" fill="#FBC807"> <path d="M8.7,5.3 L8.4,5.7 L0.6,0.4 C0.7,0.3 0.8,0.1 0.9,0 L8.7,5.3" id="Shape"></path> </g> <g id="path334" transform="translate(32.000000, 42.000000)" fill="#FBC807"> <path d="M0.8,0.6 L0.6,0.9 C0.5,1 0.5,1.1 0.4,1.2 L0.2,1.5 L8.6,7.2 L9.2,6.3 L0.8,0.6 Z" id="Shape"></path> </g> <g id="path336" transform="translate(18.000000, 43.000000)" fill="#FBC807"> <path d="M8.6,0.3 C8.6,0.3 8.7,0.4 8.7,0.4 L0.9,5.7 L0.6,5.3 L8.4,0 C8.5,0.1 8.5,0.2 8.6,0.3" id="Shape"></path> </g> <g id="path338" transform="translate(18.000000, 42.000000)" fill="#FBC807"> <path d="M8.5,0.6 L0.2,6.2 L0.8,7.1 L9.2,1.5 L9,1.2 C9,1.2 9,1.2 9,1.2 L8.9,1.1 C8.9,1.1 8.9,1 8.8,1 C8.8,1 8.7,0.9 8.7,0.9 L8.5,0.6 Z" id="Shape"></path> </g> <g id="path340" transform="translate(32.000000, 34.000000)" fill="#FBC807"> <path d="M0.7,4.8 L7.6,0.2 L7.9,0.6 L1,5.2 C0.9,5.1 0.8,5 0.7,4.8" id="Shape"></path> </g> <g id="path342" transform="translate(32.000000, 33.000000)" fill="#FBC807"> <path d="M7.6,0.7 L0.2,5.7 L0.5,6.1 C0.6,6.2 0.6,6.3 0.6,6.3 L0.8,6.7 L8.3,1.6 L7.6,0.7 Z" id="Shape"></path> </g> <g id="path344" transform="translate(23.000000, 44.000000)" fill="#FBC807"> <path d="M0.7,8.9 L0.3,8.7 L4.7,0.4 C4.8,0.5 5,0.6 5.1,0.6 L0.7,8.9" id="Shape"></path> </g> <g id="path346" transform="translate(22.000000, 43.000000)" fill="#FBC807"> <path d="M5.6,0.8 L0.8,9.7 L1.8,10.3 L6.6,1.4 L6.3,1.2 C6.2,1.1 6,1.1 5.9,1 L5.6,0.8 Z" id="Shape"></path> </g> <g id="path348" transform="translate(31.000000, 30.000000)" fill="#FBC807"> <path d="M0.5,7.8 C0.5,7.8 0.4,7.8 0.5,7.8 C0.4,7.7 0.4,7.7 0.3,7.7 C0.3,7.7 0.2,7.7 0.2,7.7 L4.1,0.4 L4.5,0.6 L0.6,7.9 C0.6,7.9 0.6,7.9 0.5,7.8 C0.5,7.9 0.5,7.8 0.5,7.8" id="Shape"></path> </g> <g id="path350" transform="translate(30.000000, 29.000000)" fill="#FBC807"> <path d="M5,0.9 L0.9,8.7 L0.9,8.9 L1.3,9.1 C1.3,9.1 1.4,9.1 1.4,9.1 L1.8,9.5 L2,9.1 L6.1,1.5 L5,0.9 Z" id="Shape"></path> </g> <g id="path352" transform="translate(18.000000, 39.000000)" fill="#FBC807"> <path d="M8.2,3.2 C8.2,3.4 8.3,3.5 8.3,3.6 C8.3,3.6 8.3,3.6 8.3,3.7 C8.3,3.7 8.3,3.8 8.3,3.8 L0.3,2.1 L8.3,0.4 C8.3,0.6 8.2,0.8 8.2,1" id="Shape"></path> </g> <g id="path354" transform="translate(18.000000, 39.000000)" fill="#FBC807"> <path d="M8.7,0 L8.2,0 L0.2,1.7 L0.2,2.4 L8.6,4.2 L8.6,3.8 C8.6,3.7 8.6,3.6 8.6,3.6 L8.6,3.4 C8.6,3.3 8.6,3.3 8.6,3.2 L7.9,3.3 C7.9,3.3 7.9,3.4 7.9,3.4 L1.9,2.1 L7.9,0.8 C7.9,0.8 7.9,0.8 7.9,0.9 L8.6,1 C8.6,0.8 8.7,0.7 8.7,0.5 L8.7,0 Z" id="Shape"></path> </g> <g id="path356" transform="translate(32.000000, 39.000000)" fill="#FBC807"> <path d="M1,1 C1,1 1,0.9 1,1 C1,0.8 0.9,0.7 0.9,0.6 C0.9,0.5 0.9,0.5 0.9,0.5 L8.9,2.2 L0.9,3.9 C0.9,3.7 1,3.5 1,3.3" id="Shape"></path> </g> <g id="path358" transform="translate(32.000000, 39.000000)" fill="#FBC807"> <path d="M0.4,0 L0.5,0.5 C0.5,0.6 0.5,0.6 0.5,0.7 L0.5,0.8 C0.5,0.9 0.5,1 0.5,1 L0.5,1.1 L0.6,1.2 L1,1 L1.3,1 C1.3,1 1.3,0.9 1.3,0.9 L7.3,2.2 L1.3,3.5 C1.3,3.5 1.3,3.4 1.3,3.4 L0.6,3.3 C0.6,3.5 0.5,3.7 0.5,3.8 L0.4,4.3 L8.9,2.5 L8.9,1.8 L0.4,0 Z" id="Shape"></path> </g> <g id="path360" transform="translate(25.000000, 37.000000)" fill="#FBC807"> <path d="M4.6,7.9 C2.5,7.9 0.8,6.2 0.8,4.1 C0.8,2 2.5,0.4 4.6,0.4 C6.7,0.4 8.4,2.1 8.4,4.1 C8.4,6.2 6.7,7.9 4.6,7.9 M4.6,7.1 C6.3,7.1 7.7,5.7 7.7,4.1 C7.7,2.4 6.3,1.1 4.6,1.1 C2.9,1.1 1.5,2.5 1.5,4.1 C1.6,5.8 3,7.1 4.6,7.1" id="Shape"></path> </g> <g id="path362" transform="translate(28.000000, 39.000000)" fill="#FBC807"> <path d="M1.6,3.6 C0.8,3.6 0.1,2.9 0.1,2.1 C0.1,1.3 0.8,0.6 1.6,0.6 C2.5,0.6 3.1,1.3 3.1,2.1 C3.2,2.9 2.5,3.6 1.6,3.6" id="Shape"></path> </g> <g id="path364" transform="translate(27.000000, 39.000000)" fill="#FBC807"> <path d="M2.6,0.2 C1.6,0.2 0.7,1 0.7,2.1 C0.7,3.1 1.5,4 2.6,4 C3.6,4 4.5,3.2 4.5,2.1 C4.5,1.1 3.7,0.2 2.6,0.2 Z M2.6,3.3 C1.9,3.3 1.4,2.8 1.4,2.1 C1.4,1.5 2,0.9 2.6,0.9 C3.3,0.9 3.8,1.4 3.8,2.1 C3.8,2.8 3.3,3.3 2.6,3.3 Z" id="Shape"></path> </g> </g> </g> </g> </g> </svg> 