<?xml version="1.0" encoding="UTF-8" standalone="no"?>
<svg width="872px" height="271px" viewBox="0 0 872 271" version="1.1" xmlns="http://www.w3.org/2000/svg" xmlns:xlink="http://www.w3.org/1999/xlink">
    <!-- Generator: Sketch 3.8.2 (29753) - http://www.bohemiancoding.com/sketch -->
    <title>MakemeReach perionlogo_FAX</title>
    <desc>Created with Sketch.</desc>
    <defs></defs>
    <g id="Page-1" stroke="none" stroke-width="1" fill="none" fill-rule="evenodd">
        <g id="MakemeReach-perionlogo_FAX" fill="#000000">
            <path d="M379.1,236.8 L379.1,159.2 L363.3,158.4 L363.3,128.6 L417.9,127.3 L417.9,155 C420.6,147.1 424.6,140.7 429.7,135.8 C436.1,129.7 443.8,126.7 452.9,126.7 C457.4,126.7 462,127.4 466.7,128.8 L464.8,164 C459.4,162.9 454.9,162.4 451.2,162.4 C441.5,162.4 433.5,166.4 427.4,174.4 C424,178.7 421.5,184.7 419.8,192.2 L419.8,236.7 L438.2,237.6 L438.2,267.4 L363.4,267.4 L363.4,237.6 L379.1,236.8 L379.1,236.8 Z M498.4,236.8 L498.4,159.3 L482.6,158.3 L482.6,128.5 L539.3,127.2 L539.3,236.8 L555.1,237.7 L555.1,267.5 L482.6,267.5 L482.6,237.7 L498.4,236.8 Z M632,155 C620.9,155 612.8,160.5 607.9,171.6 C604.8,178.6 603.3,187.4 603.3,198 C603.3,209.7 605.2,219.3 609,226.6 C614,236.2 621.8,241 632.4,241 C643.9,241 652.1,235.5 657,224.5 C660.1,217.5 661.6,208.7 661.6,198 C661.6,186.3 659.7,176.8 655.9,169.5 C653.3,164.4 649.9,160.6 646,158.2 C642.5,156.1 637.9,155 632,155 L632,155 Z M633.4,125.2 C657,125.2 674.8,132.1 686.8,145.9 C698.3,159.1 704,176.5 704,198 C704,221.7 697.2,240.2 683.6,253.5 C671.8,265.1 654.7,270.9 632.5,270.9 C608.5,270.9 590.4,264 578.3,250.2 C566.8,237 561,219.6 561,198 C561,174.3 567.8,155.8 581.4,142.5 C593.3,131 610.6,125.2 633.4,125.2 L633.4,125.2 Z M305.2,184.7 C304.9,177.9 303.5,172 300.8,167 C296.2,158.3 288.4,154 277.3,154 C266.4,154 258.5,158.3 253.3,166.8 C250.3,171.8 248.6,177.8 248.1,184.7 L305.2,184.7 L305.2,184.7 Z M248.4,211.6 C250,231.6 262.1,241.5 284.7,241.5 C299.3,241.5 313.9,237 328.7,227.9 L342.7,256.9 C325.1,266.2 305.5,270.8 283.9,270.8 C257.1,270.8 237.1,264.2 223.8,250.9 C211.5,238.8 205.4,221.4 205.4,198.7 C205.4,177 211.4,159.3 223.5,145.7 C235.8,132 253.6,125.2 277,125.2 C298.8,125.2 315.6,130.8 327.2,141.9 C337.7,152 343.8,166.5 345.5,185.5 C346.1,191.6 346.4,200.3 346.4,211.6 L248.4,211.6 L248.4,211.6 Z M726.1,237.2 L726.1,160.6 L710.5,159.8 L710.5,130.4 L763.2,129.1 L763.2,149.6 C768.3,144.1 773,139.9 777.3,136.9 C786.9,130.4 798.1,127.1 810.9,127.1 C830,127.1 843.1,134.1 850.4,148.1 C854.1,155.1 855.9,166.6 855.9,182.6 L855.9,237.1 L871.5,238 L871.5,267.4 L800,267.4 L800,238 L815.6,237.1 L815.6,182.6 C815.6,174.2 814.3,168.1 811.7,164.3 C808.4,159.4 803.4,157 796.8,157 C786.1,157 776,164.2 766.6,178.6 L766.6,237.1 L782.2,238 L782.2,267.4 L710.7,267.4 L710.7,238 L726.1,237.2 L726.1,237.2 Z M495.1,69 C490.9,73.3 488.9,78.9 488.9,85.6 C488.9,92.1 491,97.6 495.1,102 C499.6,106.9 505.5,109.3 512.7,109.3 C519.8,109.3 525.6,106.9 530.2,102 C534.3,97.6 536.4,92.1 536.4,85.6 C536.4,79 534.3,73.4 530.2,69 C525.6,64.1 519.9,61.7 513,61.7 C505.7,61.8 499.7,64.2 495.1,69 L495.1,69 Z M222.4,88.3 C222.4,75.5 220.3,63.7 216.1,52.9 C211.9,42.1 205.4,32.9 196.7,25.1 C188,17.4 176.9,11.2 163.4,6.9 C150,2.6 134,0.3 115.6,0.3 L0.8,0.3 L13.9,40.2 L36.2,40.2 L36,230.3 L9.8,232 L9.8,267.5 L116,267.5 L116,232 L85,230.3 L85,40.2 L115.6,40.2 C125,40.2 133.2,41.3 140.2,43.5 C147.2,45.7 152.9,48.9 157.5,53.1 C162.1,57.3 165.5,62.4 167.8,68.3 C170.1,74.3 171.2,80.9 171.2,88.3 C171.2,96 170.1,103 167.8,109.3 C165.5,115.6 162.1,120.9 157.5,125.3 C152.9,129.7 147.2,132.9 140.2,135.3 C133.5,137.5 114,140.2 114,140.2 L126.7,180 C126.7,180 151.3,175.8 162.4,172.1 C175.7,167.7 186.8,161.5 195.7,153.5 C204.6,145.5 211.2,136 215.7,124.9 C220.2,113.8 222.4,101.6 222.4,88.3 L222.4,88.3 Z" id="Shape"></path>
        </g>
    </g>
</svg>