<?xml version="1.0" encoding="UTF-8" standalone="no"?>
<svg width="18165px" height="1940px" viewBox="0 0 18165 1940" version="1.1" xmlns="http://www.w3.org/2000/svg" xmlns:xlink="http://www.w3.org/1999/xlink">
    <!-- Generator: Sketch 3.8.3 (29802) - http://www.bohemiancoding.com/sketch -->
    <title>monshowroom</title>
    <desc>Created with Sketch.</desc>
    <defs></defs>
    <g id="Page-1" stroke="none" stroke-width="1" fill="none" fill-rule="evenodd">
        <g id="monshowroom" transform="translate(0.000000, -1.000000)">
            <g id="Group-3" transform="translate(0.000000, 0.709799)" fill="#1D1C1B">
                <path d="M0,1837.92432 C144.019103,1835.66935 167.162514,1816.36122 175.746154,1671.69119 C207.346352,1139.81564 237.114247,607.827346 267.572779,75.8813317 C268.897676,52.8525115 270.222573,29.8236914 285.007857,0.382317266 C621.306135,555.99136 957.618507,1111.6145 1301.47152,1679.68222 C1619.334,1122.4947 1931.3472,575.53908 2243.37449,28.5834612 C2251.2534,30.5001806 2259.13231,32.4169 2267.01121,34.3336194 C2271.01409,59.9838353 2277.5822,85.5072094 2278.6393,111.270173 C2299.9645,634.280893 2320.66954,1157.3198 2341.48733,1680.34461 C2342.13568,1696.76357 2342.45986,1713.19662 2343.36192,1729.60148 C2347.13928,1798.06783 2375.90646,1839.2773 2451.91889,1838.48806 C2467.74718,1838.31894 2483.80098,1859.71291 2499.74203,1871.18504 C2484.548,1881.24781 2469.50901,1899.76671 2454.11765,1900.06267 C2327.36449,1902.43038 2200.51267,1902.93775 2073.80179,1899.68214 C2056.18348,1899.21706 2039.17125,1875.11713 2027.06394,1855.45666 C2153.43655,1823.11202 2160.6671,1817.75648 2156.7206,1698.38432 C2143.54211,1299.57984 2128.13666,900.845828 2113.36547,502.083627 C2113.22452,498.123346 2110.13779,494.275814 2103.93615,480.111821 C2088.09377,505.917065 2074.76023,526.183555 2062.87844,547.253375 C1820.85926,976.457591 1579.00921,1405.77455 1337.08869,1835.04924 C1285.06535,1927.34773 1217.28419,1926.84037 1161.4271,1833.97813 C901.39496,1401.63106 641.348723,969.312173 381.119255,537.091943 C371.971829,521.899123 360.766585,507.960627 339.554141,477.899137 C329.561036,646.359044 320.033055,797.117483 311.815876,947.932296 C298.538718,1191.69391 286.304565,1435.4978 273.238827,1679.25941 C267.502306,1786.31383 281.174113,1805.18506 380.668227,1839.22092 C395.256186,1844.21003 403.642501,1867.3516 414.904124,1882.09343 C411.295894,1890.8596 407.687665,1899.62577 404.079435,1908.39194 L0,1908.39194 L0,1837.92432 Z" id="Fill-1"></path>
            </g>
            <g id="Group-6" transform="translate(16427.263770, 559.450806)" fill="#1D1C1B">
                <path d="M903.188611,1173.83421 C1122.8255,788.799101 1335.20364,416.490447 1559.12529,23.971677 C1571.74,63.715418 1582.36737,82.6571158 1583.19895,102.007526 C1598.68897,463.140015 1613.6011,824.314785 1626.93464,1185.53184 C1629.02065,1242.01868 1632.44565,1290.23263 1707.17547,1289.75345 C1717.26723,1289.68299 1727.47176,1307.86363 1737.6199,1317.58817 C1725.85087,1325.86107 1714.23688,1341.03979 1702.29872,1341.30757 C1613.12189,1343.33704 1523.86049,1343.33704 1434.68365,1341.25119 C1423.49251,1340.98342 1412.68191,1324.76177 1401.70218,1315.92513 C1409.90527,1307.04621 1418.00969,1290.61316 1426.31143,1290.5145 C1489.17356,1289.79573 1490.30113,1246.7823 1488.76482,1202.66956 C1479.3214,933.032238 1469.34239,663.409008 1447.63664,387.31685 C1436.47368,404.99013 1424.53551,422.240605 1414.26051,440.407159 C1256.06219,720.262288 1098.13167,1000.27245 940.017923,1280.16986 C891.405486,1366.21083 846.232142,1366.52089 794.547072,1280.88863 C627.243611,1003.62671 460.20795,726.209756 292.989058,448.891461 C281.163649,429.301461 268.647602,410.120173 248.35131,377.860094 C243.108102,411.459058 238.330016,430.739001 237.315202,450.202159 C224.615925,693.991958 212.099878,937.79585 200.4577,1181.62793 C198.089799,1231.34989 193.466755,1284.2147 267.111286,1289.58433 C275.694926,1290.20445 289.888235,1307.79317 289.155314,1316.47478 C288.394203,1325.55101 272.91828,1340.40558 263.573529,1340.64517 C183.811922,1342.60417 103.965746,1342.64645 24.204139,1340.63108 C15.4513632,1340.41968 0.412374864,1323.50745 0.539226687,1314.51578 C0.651983863,1305.82007 16.4802725,1290.13398 25.6699823,1289.93667 C111.294963,1288.10451 118.314097,1231.80088 121.78138,1164.81435 C140.245368,808.515943 161.11954,452.330281 181.514494,96.1305259 C182.938054,71.1427058 187.251016,46.3240079 192.705644,0.703266906 C434.006001,399.141317 665.397821,781.216785 903.188611,1173.83421" id="Fill-4"></path>
            </g>
            <path d="M6768.41299,402.806911 C6757.0668,385.161817 6744.15611,368.320055 6734.61403,349.744788 C6676.52999,236.742904 6585.43629,164.118968 6463.94043,130.449537 C6318.11721,90.0434 6171.2228,86.7314216 6027.27417,136.481565 C5864.12863,192.855666 5777.46065,347.081112 5808.25745,516.38663 C5821.35138,588.376357 5863.29705,641.494853 5925.67995,675.220659 C6047.28857,740.966954 6172.09667,800.822155 6293.56434,866.80804 C6414.94744,932.723458 6537.64134,997.370458 6653.11878,1072.77082 C6930.88199,1254.1263 6870.41595,1709.10757 6594.90789,1855.34199 C6419.81009,1948.30288 6232.29491,1953.02421 6045.69587,1926.85254 C5934.26359,1911.22282 5827.48255,1861.21899 5719.17928,1824.94226 C5676.66983,1810.6937 5657.95213,1780.36444 5660.79925,1732.93972 C5664.43567,1672.23891 5661.68722,1611.17167 5675.79596,1543.77643 C5688.48114,1563.04228 5701.46231,1582.139 5713.80922,1601.61626 C5880.49252,1864.54506 6269.06784,1946.68213 6534.62508,1782.54893 C6689.73667,1686.68477 6775.43213,1361.09616 6541.30595,1232.25315 C6405.75773,1157.64203 6268.68728,1085.79323 6133.12497,1011.19621 C6048.92355,964.856695 5962.93211,920.617119 5883.52286,866.906695 C5613.61037,684.310983 5618.61397,300.628853 5890.8098,118.131796 C6127.37435,-40.4908302 6530.48126,-26.1577151 6753.1344,151.618012 C6773.20517,167.64235 6788.03274,199.944709 6790.66844,226.17276 C6796.3063,282.50458 6792.40208,339.808853 6792.40208,396.718508 C6784.39632,398.747976 6776.40466,400.777443 6768.41299,402.806911" id="Fill-7" fill="#1D1C1B"></path>
            <path d="M11127.9282,946.635176 C11134.3131,946.719737 11140.712,946.804299 11147.0969,946.88886 C11171.9035,868.52886 11199.0921,790.803068 11219.487,711.315586 C11223.5604,695.432183 11203.701,657.71791 11191.4669,656.111248 C11142.3752,649.656414 11091.9305,653.447572 11023.9238,653.447572 C11062.6136,762.489176 11095.2709,854.562176 11127.9282,946.635176 M10197.1882,587.729464 L10564.9739,587.729464 C10548.751,610.828752 10539.7727,635.844759 10529.3708,636.450781 C10449.3696,641.158018 10474.0775,690.273953 10488.6655,730.976054 C10574.1777,969.494874 10661.2403,1207.44995 10747.7815,1445.60234 C10783.7792,1544.65164 10819.7487,1643.71503 10861.9622,1759.91614 C10877.1562,1720.21468 10887.2762,1695.5792 10896.0853,1670.47863 C10949.6168,1517.71891 11003.9799,1365.24106 11055.1152,1211.67801 C11064.0794,1184.77347 11068.2092,1149.93428 11058.9913,1124.36862 C11012.042,994.229011 10960.5261,865.710155 10909.3625,737.120831 C10891.7583,692.867162 10871.0392,650.967112 10812.3631,648.359809 C10801.1297,647.852442 10790.6856,629.798637 10779.8891,619.848608 C10793.2085,610.786471 10806.4434,593.958802 10819.8474,593.83196 C11007.729,592.084363 11195.6389,592.084363 11383.5205,593.620558 C11398.038,593.733306 11412.4568,608.517414 11426.9179,616.494349 C11414.4865,626.994025 11401.914,637.352766 11389.6517,648.035658 C11359.7851,674.066399 11316.5709,694.572478 11302.7864,727.396299 C11258.3882,833.168205 11224.1523,943.25273 11187.915,1052.32252 C11182.559,1068.43142 11182.7987,1089.65627 11188.4506,1105.6947 C11264.0402,1320.16997 11341.0533,1534.13787 11422.5345,1761.70602 C11435.0505,1736.15446 11443.761,1722.1314 11449.1029,1706.93858 C11555.7007,1403.73048 11662.073,1100.466 11767.952,797.018313 C11777.9733,768.281615 11784.7951,738.403342 11792.4344,708.8915 C11800.8489,676.335457 11793.3647,655.575694 11755.4501,648.077939 C11739.9178,645.019644 11727.4017,626.768529 11713.5185,615.437335 C11730.4462,607.728176 11747.1201,594.156112 11764.372,593.395061 C11825.3172,590.703198 11886.5444,590.548169 11947.4614,593.662838 C11963.4448,594.480263 11978.6529,610.546881 11994.2275,619.623112 C11981.2322,629.234896 11969.1813,645.329701 11955.0866,647.373263 C11887.6156,657.182356 11872.4074,712.006169 11854.775,762.009996 C11736.1968,1098.35197 11619.1407,1435.22951 11501.5632,1771.92382 C11492.2748,1798.49012 11487.7786,1828.57979 11471.9926,1850.50932 C11457.2214,1871.02949 11432.4712,1889.30879 11408.3976,1897.04614 C11371.8783,1908.77195 11349.5665,1888.92827 11335.8242,1851.48177 C11274.3998,1684.13526 11210.4101,1517.733 11147.1251,1351.06297 C11138.0481,1327.18854 11127.7309,1303.7792 11111.7475,1265.0361 C11069.1676,1386.59275 11031.394,1494.16863 10993.8317,1601.81497 C10965.2478,1683.75473 10935.057,1765.21531 10909.3484,1848.05705 C10897.7626,1885.36261 10880.1866,1899.94941 10839.9886,1900.00578 C10800.0021,1900.04806 10782.8208,1884.77068 10769.4308,1848.804 C10642.5085,1508.03666 10513.9936,1167.86124 10385.5772,827.643543 C10371.5108,790.352076 10361.1371,749.607694 10338.332,718.263694 C10315.7805,687.243845 10279.3177,666.469989 10249.6203,640.439248 C10235.8075,628.347004 10223.5874,614.436694 10197.1882,587.729464" id="Fill-9" fill="#1D1C1B"></path>
            <path d="M8291.34101,1218.37948 C8270.59369,1216.74463 8257.09102,1214.75745 8243.58835,1214.74335 C7947.88265,1214.57423 7652.17696,1214.61651 7352.56705,1214.61651 C7349.49442,1234.07967 7344.99822,1249.45571 7344.94184,1264.85993 C7344.43444,1431.58633 7345.3224,1598.31273 7344.12436,1765.02504 C7343.80018,1809.9552 7350.69246,1843.73738 7405.26693,1848.30368 C7416.23257,1849.21976 7425.78874,1866.89304 7436.00736,1876.84307 C7424.15376,1885.21463 7412.49749,1900.5061 7400.41838,1900.84435 C7322.99648,1903.00065 7245.43364,1902.93019 7167.99765,1900.75978 C7156.0031,1900.42154 7144.4173,1885.4965 7132.64827,1877.30816 C7142.45815,1867.2031 7151.2673,1849.74122 7162.23294,1848.24731 C7209.04126,1841.91932 7217.06111,1811.33637 7217.04702,1772.79058 C7217.01883,1427.59786 7217.13159,1082.40515 7217.11749,737.226532 C7217.11749,694.156719 7208.63251,658.21823 7156.36956,649.127906 C7144.71329,647.098439 7135.87595,628.875511 7125.74189,618.122151 C7139.62512,609.609662 7153.28283,594.205439 7167.43386,593.740353 C7242.50195,591.273986 7317.73918,591.288079 7392.80727,593.669885 C7407.36704,594.134971 7421.47578,608.876799 7435.78184,617.03695 C7423.64635,628.59364 7411.18669,639.82618 7399.43175,651.763396 C7381.60202,669.859482 7349.63536,688.011942 7349.05748,706.897266 C7344.7868,849.382806 7346.73186,992.051561 7346.73186,1139.70942 L8290.19935,1139.70942 C8290.19935,992.911266 8292.49677,850.20023 8287.56365,707.728784 C8286.87301,687.814633 8250.2974,669.535331 8231.11459,649.733928 C8220.98053,639.262439 8212.55194,627.127914 8203.34813,615.754439 C8215.66685,608.129842 8227.83053,594.261813 8240.34658,593.923568 C8317.79667,591.80954 8395.34541,591.767259 8472.7814,593.655791 C8485.6921,593.965849 8498.27862,607.115108 8511.02018,614.330993 C8499.96998,626.564173 8490.28696,647.493058 8477.61587,649.480245 C8430.46927,656.907532 8423.36557,688.589777 8423.33738,726.120835 C8423.04139,1078.36031 8422.22391,1430.59978 8425.1274,1782.79698 C8425.29654,1803.68358 8455.06443,1825.2044 8472.90826,1844.72393 C8483.83161,1856.66114 8498.30681,1865.37094 8511.17522,1875.51828 C8495.30465,1884.3972 8479.71597,1900.2947 8463.50713,1900.943 C8393.16074,1903.7758 8322.60294,1903.43755 8252.22837,1901.12622 C8237.06253,1900.61885 8222.31953,1887.15953 8207.3933,1879.67587 C8218.78177,1868.48561 8231.04411,1858.02822 8241.37549,1845.92188 C8258.68372,1825.64129 8288.71941,1804.59966 8289.15634,1783.37481 C8292.93371,1598.04496 8291.34101,1412.61645 8291.34101,1218.37948" id="Fill-11" fill="#1D1C1B"></path>
            <path d="M12442.3527,901.893871 L12442.0849,901.893871 C12442.0849,965.117425 12439.0827,1028.58057 12443.9031,1091.43769 C12445.383,1110.66126 12466.6519,1142.3576 12481.8177,1144.21794 C12564.7929,1154.40756 12649.9105,1168.44471 12732.0118,1159.73491 C12860.2731,1146.12057 12957.061,1029.51074 12951.4231,916.734353 C12943.953,767.469828 12859.4133,676.228346 12711.6591,665.813231 C12637.1689,660.57044 12561.8048,662.57172 12487.2441,667.518547 C12471.3595,668.575562 12445.7636,695.663317 12444.3964,712.378238 C12439.2941,775.19308 12442.3527,838.670317 12442.3527,901.893871 M12730.3063,1250.35628 C12848.2503,1416.75853 12967.3219,1593.84368 13097.6551,1762.19084 C13130.1856,1804.20363 13199.0802,1818.07166 13262.1115,1850.44449 C13248.5806,1861.16966 13229.2991,1885.91789 13204.4362,1894.48676 C13117.3171,1924.53415 13022.7139,1890.39963 12957.9772,1802.73791 C12832.5066,1632.85455 12707.7267,1462.29471 12588.8102,1287.83096 C12553.2353,1235.62855 12513.5025,1208.90722 12448.2161,1204.55232 C12446.116,1222.4511 12442.3386,1239.81432 12442.2963,1257.19164 C12441.8453,1423.87576 12442.6064,1590.57398 12441.6902,1757.2581 C12441.4224,1805.45796 12442.9729,1847.73853 12508.6962,1847.41438 C12519.7041,1847.35801 12530.8107,1864.83398 12541.875,1874.22027 C12528.7247,1883.47971 12515.814,1900.34966 12502.3818,1900.77247 C12422.6343,1903.3093 12342.7458,1903.05562 12262.9701,1901.01206 C12250.5386,1900.68791 12238.4736,1886.32661 12226.2254,1878.46242 C12235.8802,1868.10368 12244.7316,1849.81028 12255.3167,1848.73917 C12307.2273,1843.51048 12312.2873,1808.82631 12312.2873,1768.54702 C12312.245,1425.77839 12312.2873,1082.99567 12312.4,740.227044 C12312.4141,694.747238 12305.4091,655.97595 12248.5372,648.083576 C12238.1635,646.646037 12230.3974,626.337267 12221.4191,614.738296 C12233.9915,607.381476 12246.6062,593.541634 12259.1223,593.626195 C12430.4004,594.866425 12602.2565,590.356497 12772.7453,603.336634 C12891.2813,612.35649 12991.5506,672.423094 13053.9476,780.435871 C13129.2976,910.899634 13107.916,1043.13918 12983.7845,1127.78489 C12908.519,1179.12761 12818.4402,1208.75219 12730.3063,1250.35628" id="Fill-13" fill="#1D1C1B"></path>
            <path d="M14594.205,1285.33218 C14598.1092,1015.22977 14437.1624,770.002435 14204.2766,668.07806 C14001.5815,579.373413 13772.022,634.521377 13632.5554,805.433557 C13444.2509,1036.15866 13447.7041,1423.46282 13631.752,1657.063 C13865.8218,1954.14042 14289.8875,1889.40886 14454.823,1688.39291 C14557.1925,1563.63702 14586.6644,1417.27577 14594.205,1285.33218 M14022.9912,1921.92262 C13641.5478,1920.52736 13346.4905,1622.95667 13347.8295,1241.00805 C13349.1684,863.893499 13650.7234,570.156247 14034.8589,571.777003 C14421.0241,573.411852 14741.5645,881.820463 14738.7174,1249.02726 C14735.8421,1621.56141 14414.8365,1923.36016 14022.9912,1921.92262" id="Fill-15" fill="#E61063"></path>
            <path d="M3836.11894,1287.6858 C3836.79548,1015.32843 3687.81506,785.660341 3462.25842,676.195931 C3244.5666,570.56496 2989.56625,637.227334 2851.29776,835.903758 C2693.29677,1062.90817 2692.97259,1398.55956 2850.53665,1625.11298 C3036.34638,1892.31213 3416.83138,1942.96425 3653.63554,1730.78623 C3796.01966,1603.21164 3828.29641,1432.28537 3836.11894,1287.6858 M3270.50075,1921.82397 C2891.00238,1923.78297 2586.79761,1623.66135 2586.52982,1247.02598 C2586.27611,877.211881 2887.09816,573.989686 3256.44839,571.762909 C3654.97453,569.36701 3978.29164,868.868514 3981.08238,1243.00933 C3983.84493,1612.90799 3662.58564,1919.7945 3270.50075,1921.82397" id="Fill-17" fill="#E61063"></path>
            <path d="M16184.0713,1292.84685 C16189.2863,1017.09294 16027.1979,770.907239 15793.4946,667.700354 C15592.223,578.826584 15361.1272,634.86244 15222.168,806.239706 C15024.8148,1049.63489 15033.483,1443.81669 15241.3368,1678.24839 C15451.4738,1915.2592 15833.8334,1922.57374 16040.165,1692.53922 C16149.9341,1570.15105 16175.8259,1418.60338 16184.0713,1292.84685 M15617.4947,1922.02409 C15235.8539,1922.89789 14937.0615,1625.7782 14937.4844,1245.83085 C14937.8931,870.153843 15235.5439,573.189174 15612.9844,571.878476 C16009.7769,570.497311 16325.5393,870.759865 16327.5971,1251.42598 C16329.5704,1616.42009 16006.9157,1921.12211 15617.4947,1922.02409" id="Fill-19" fill="#E61063"></path>
            <path d="M8862.56746,1241.28005 C8873.02569,1393.71562 8921.10253,1525.84242 9008.13697,1644.60855 C9246.92848,1970.45086 9736.8866,1904.02807 9891.02566,1614.29338 C10029.0545,1354.81749 10026.7289,1045.63373 9785.62589,804.268022 C9501.506,519.832497 9077.39807,587.974691 8937.95972,943.864389 C8900.93309,1038.34738 8887.06395,1141.89251 8862.56746,1241.28005 M10120.0637,1248.70734 C10119.669,1623.20049 9802.7086,1922.8993 9408.05849,1921.91276 C9027.88357,1920.9544 8730.50062,1622.3126 8730.61337,1241.56192 C8730.72613,874.326936 9035.41011,571.73895 9405.11271,571.724857 C9806.1477,571.710763 10120.4583,869.323735 10120.0637,1248.70734" id="Fill-21" fill="#E61063"></path>
            <path d="M5287.05855,1910.17003 C5131.77782,1716.35587 4976.55347,1522.51353 4821.21637,1328.75574 C4666.16116,1135.32211 4511.02138,941.973038 4346.72008,737.12365 C4342.91452,760.096096 4340.40567,768.157592 4340.41977,776.219088 C4340.5889,1097.84743 4340.82851,1419.47576 4341.51915,1741.1041 C4341.63191,1795.82926 4337.37532,1854.48651 4421.32304,1849.79337 C4429.38518,1849.34238 4445.6645,1866.86063 4445.08662,1875.14762 C4444.43826,1884.5621 4429.3288,1900.43141 4420.19547,1900.64281 C4342.78767,1902.46087 4265.2812,1902.20719 4187.8875,1899.89585 C4179.23338,1899.62807 4167.39388,1883.78695 4164.20849,1873.03359 C4162.50304,1867.29753 4175.99162,1849.97658 4182.8698,1849.83565 C4265.06978,1848.14443 4267.16989,1788.68384 4267.3954,1731.49232 C4268.7203,1395.78455 4268.43841,1060.07678 4269.34046,724.369009 C4269.4955,670.263966 4240.89747,650.547124 4190.94604,646.248599 C4177.06281,645.05065 4164.51857,628.307542 4151.36827,618.695758 C4165.13874,610.000053 4178.54275,594.595829 4192.75015,593.792499 C4246.5917,590.762391 4301.75815,586.069247 4354.26071,594.8777 C4384.02861,599.880901 4415.96708,624.727786 4436.06604,649.447829 C4683.22977,953.670664 4928.34978,1259.54244 5174.17452,1564.85048 C5188.35373,1582.46738 5203.99879,1598.90043 5227.00125,1625.01574 C5229.2564,1598.28032 5231.6243,1583.17206 5231.63839,1568.07789 C5231.878,1293.39509 5231.0887,1018.71228 5232.49817,744.043571 C5232.76596,690.10765 5223.32255,651.871916 5158.92411,648.390815 C5146.21074,647.700232 5134.55446,627.41965 5122.40488,616.158923 C5134.66722,608.35111 5146.74633,594.11665 5159.2201,593.750218 C5234.28819,591.622096 5309.48313,591.636189 5384.55122,593.623376 C5397.37735,593.961621 5409.85111,607.223628 5422.49401,614.509981 C5410.9364,625.601585 5400.09761,645.318427 5387.69432,646.361347 C5309.66636,652.872556 5303.12644,704.666261 5303.26739,766.07175 C5304.05669,1120.56619 5303.66204,1475.07472 5303.66204,1829.56916 L5303.66204,1905.63192 C5298.13694,1907.13992 5292.59774,1908.66202 5287.05855,1910.17003" id="Fill-23" fill="#1D1C1B"></path>
        </g>
    </g>
</svg>