<?xml version="1.0" encoding="UTF-8" standalone="no"?>
<svg width="3311px" height="923px" viewBox="0 0 3311 923" version="1.1" xmlns="http://www.w3.org/2000/svg" xmlns:xlink="http://www.w3.org/1999/xlink">
    <!-- Generator: Sketch 3.8.3 (29802) - http://www.bohemiancoding.com/sketch -->
    <title>ooreka</title>
    <desc>Created with Sketch.</desc>
    <defs></defs>
    <g id="Page-1" stroke="none" stroke-width="1" fill="none" fill-rule="evenodd">
        <g id="ooreka" transform="translate(0.000000, -1.000000)">
            <g id="Group-39" transform="translate(0.000000, 0.982184)">
                <path d="M795.020156,364.654709 C794.829545,362.848252 794.620781,361.050874 794.421093,359.253495 C794.248636,357.75568 794.067101,356.294175 793.912797,354.814515 L751.896696,361.404903 C746.550512,460.287961 664.687644,538.818883 564.462586,538.818883 C520.240844,538.818883 479.613479,523.495777 447.536378,497.860437 C440.964838,511.585874 424.000463,538.410388 401.090841,551.663786 C378.208449,538.419466 361.216844,511.613107 354.663458,497.88767 C322.586356,523.495777 281.958992,538.818883 237.737249,538.818883 C137.512192,538.818883 55.6674767,460.287961 50.3031397,361.404903 L8.30519178,354.814515 C7.92396986,358.100631 7.52459452,361.359515 7.19783288,364.654709 L7.17967945,364.654709 C2.47794247,409.652718 0,455.295243 0,501.536893 C0,656.411019 87.8444219,790.724223 216.361592,857.544951 C217.478027,855.593252 218.68523,853.659709 220.055814,851.871408 C224.067721,848.90301 229.041759,847.123786 234.433326,847.123786 C239.815816,847.123786 244.771701,848.90301 248.801762,851.871408 C253.095047,857.572184 256.090362,864.244272 257.533559,871.506408 C258.976756,864.244272 261.953918,857.581262 266.256279,851.871408 C270.277263,848.90301 275.242225,847.123786 280.651945,847.123786 C286.025359,847.123786 291.008474,848.90301 295.038534,851.871408 C299.313666,857.544951 302.299904,864.217039 303.752178,871.424709 C305.213529,864.217039 308.19069,857.544951 312.447668,851.871408 C316.495882,848.90301 321.488074,847.123786 326.870564,847.123786 C332.253055,847.123786 337.227093,848.90301 341.229923,851.871408 C346.303805,858.543495 349.662189,866.559078 350.706011,875.300874 C350.923852,877.189029 351.032773,879.09534 351.032773,881.037961 C351.032773,887.39233 349.752956,893.438058 347.520085,899.00267 C365.056293,901.335631 382.90111,902.670049 401.072688,902.670049 C419.289649,902.670049 437.207079,901.344709 454.797748,898.966359 C452.573953,893.410825 451.28506,887.39233 451.28506,881.037961 C451.28506,879.09534 451.421211,877.189029 451.629975,875.300874 C452.63749,866.568155 456.023104,858.543495 461.08791,851.871408 C465.108893,848.90301 470.082932,847.123786 475.474499,847.123786 C480.856989,847.123786 485.831027,848.90301 489.842934,851.871408 C494.136219,857.544951 497.113381,864.217039 498.574732,871.424709 C500.008852,864.217039 503.013244,857.544951 507.315605,851.871408 C511.300282,848.90301 516.319704,847.123786 521.702195,847.123786 C527.066532,847.123786 532.049647,848.90301 536.07063,851.871408 C540.372992,857.572184 543.368307,864.280583 544.802427,871.551796 C546.245625,864.271505 549.21371,857.572184 553.552378,851.871408 C557.537055,848.90301 562.538323,847.123786 567.884507,847.123786 C573.330534,847.123786 578.286419,848.90301 582.307403,851.871408 C583.641679,853.659709 584.857959,855.520631 585.947164,857.47233 C714.355414,790.624369 802.118145,656.429175 802.172605,501.636748 L802.172605,501.527816 L802.172605,501.427961 C802.190759,455.222621 799.721893,409.60733 795.020156,364.654709" id="Fill-3" fill="#E83B3B"></path>
                <path d="M401.099918,443.53966 C389.200348,464.509078 373.379638,482.945825 354.654381,497.88767 C361.207767,511.613107 378.208449,538.410388 401.081764,551.663786 C423.991386,538.419466 440.955762,511.585874 447.527301,497.860437 C428.811121,482.918592 412.999488,464.509078 401.099918,443.53966" id="Fill-5" fill="#FAC800"></path>
                <path d="M237.592022,212.730825 C313.99071,212.730825 375.921118,274.667767 375.921118,351.065437 C375.921118,427.481262 313.99071,489.418204 237.592022,489.418204 C161.193334,489.418204 99.262926,427.481262 99.262926,351.065437 C99.262926,274.667767 161.193334,212.730825 237.592022,212.730825 M564.50797,212.730825 C640.888504,212.730825 702.837066,274.667767 702.837066,351.065437 C702.837066,427.481262 640.888504,489.418204 564.50797,489.418204 C488.109282,489.418204 426.169797,427.481262 426.169797,351.065437 C426.178874,274.667767 488.109282,212.730825 564.50797,212.730825 M8.29611507,354.814515 L50.294063,361.404903 C55.6674767,460.287961 137.512192,538.818883 237.728173,538.818883 C281.949915,538.818883 322.577279,523.495777 354.654381,497.88767 C373.379638,482.945825 389.200348,464.509078 401.099918,443.53966 C412.999488,464.509078 428.811121,482.918592 447.536378,497.860437 C479.613479,523.495777 520.240844,538.818883 564.462586,538.818883 C664.687644,538.818883 746.550512,460.287961 751.896696,361.404903 L793.912797,354.814515 C794.067101,356.294175 794.239559,357.75568 794.421093,359.253495 C794.620781,361.050874 794.829545,362.848252 795.020156,364.654709 L795.047386,364.654709 L802.190759,353.498252 L795.818907,312.893835 L788.693688,314.028544 L749.618441,320.165049 C734.87786,231.185728 657.616885,163.321068 564.462586,163.321068 C494.417597,163.321068 433.358553,201.719612 401.099918,258.609369 C368.841282,201.719612 307.782238,163.321068 237.728173,163.321068 C144.592027,163.321068 67.3219753,231.185728 52.5813945,320.165049 L13.5061479,314.028544 L6.37185205,312.893835 L0,353.498252 L7.15244932,364.654709 L7.17967945,364.654709 L7.18875616,364.654709 C7.51551781,361.350437 7.92396986,358.100631 8.29611507,354.814515" id="Fill-7" fill="#4B4182"></path>
                <path d="M286.107049,370.065 C313.781945,370.065 336.237732,347.597767 336.237732,319.919951 C336.237732,314.74568 335.448058,309.771117 334.013937,305.087039 C330.074644,313.801602 321.379153,319.919951 311.167852,319.919951 C297.325866,319.919951 286.107049,308.672718 286.107049,294.847427 C286.107049,284.644126 292.2066,275.920485 300.938397,272.00801 C296.245737,270.555583 291.271699,269.765825 286.107049,269.765825 C258.44123,269.765825 235.976367,292.205825 235.976367,319.919951 C235.96729,347.597767 258.44123,370.065 286.107049,370.065" id="Fill-13" fill="#1D1D1B"></path>
                <path d="M613.004844,370.065 C640.661586,370.065 663.135526,347.597767 663.135526,319.919951 C663.135526,314.74568 662.345852,309.771117 660.902655,305.087039 C656.990592,313.801602 648.276948,319.919951 638.065647,319.919951 C624.214584,319.919951 612.995767,308.672718 612.995767,294.847427 C612.995767,284.644126 619.086241,275.920485 627.818038,272.00801 C623.125378,270.555583 618.160416,269.765825 612.995767,269.765825 C585.320871,269.765825 562.865085,292.205825 562.865085,319.919951 C562.874162,347.597767 585.329948,370.065 613.004844,370.065" id="Fill-15" fill="#1D1D1B"></path>
                <path d="M497.521833,881.037961 C497.521833,879.09534 497.66706,877.189029 497.884901,875.300874 C498.048282,873.975534 498.338737,872.70466 498.592885,871.424709 C497.131534,864.217039 494.154373,857.544951 489.861088,851.871408 C485.849181,848.90301 480.875142,847.123786 475.492652,847.123786 C470.092008,847.123786 465.127047,848.90301 461.106063,851.871408 C456.050334,858.543495 452.664721,866.559078 451.648129,875.300874 C451.439364,877.189029 451.303214,879.09534 451.303214,881.037961 C451.303214,887.39233 452.601184,893.410825 454.815901,898.966359 C458.855038,909.060728 466.161792,917.530194 475.492652,922.913252 C487.256071,916.086845 495.788181,904.412961 498.592885,890.651214 C497.957515,887.528495 497.521833,884.351311 497.521833,881.037961" id="Fill-17" fill="#FAC800"></path>
                <path d="M544.103521,875.300874 C544.275978,874.03 544.566433,872.813592 544.820581,871.560874 C543.377384,864.280583 540.391145,857.581262 536.088784,851.880485 C532.076877,848.912087 527.093762,847.132864 521.720348,847.132864 C516.337858,847.132864 511.318436,848.912087 507.333759,851.880485 C503.031397,857.554029 500.027005,864.226117 498.592885,871.433786 C498.338737,872.713738 498.039205,873.984612 497.884901,875.309951 C497.66706,877.198107 497.521833,879.104417 497.521833,881.047039 C497.521833,884.360388 497.957515,887.537573 498.592885,890.660291 C501.388512,904.422039 509.920622,916.095922 521.720348,922.92233 C533.465614,916.095922 542.0068,904.449272 544.820581,890.687524 C544.176134,887.555728 543.740452,884.360388 543.740452,881.047039 C543.749529,879.09534 543.903833,877.189029 544.103521,875.300874" id="Fill-19" fill="#FAC800"></path>
                <path d="M567.90266,847.123786 C562.556477,847.123786 557.555208,848.90301 553.570532,851.871408 C549.231863,857.572184 546.263778,864.280583 544.820581,871.551796 C544.566433,872.804515 544.266901,874.020922 544.103521,875.291796 C543.903833,877.179951 543.740452,879.086262 543.740452,881.028883 C543.740452,884.342233 544.167058,887.537573 544.820581,890.669369 C547.616208,904.431117 556.166471,916.077767 567.90266,922.904175 C582.37094,914.534563 592.110252,898.911893 592.110252,881.028883 C592.110252,879.086262 591.983178,877.179951 591.774414,875.291796 C591.021047,868.882961 588.978786,862.855388 585.965318,857.47233 C584.876112,855.520631 583.659833,853.659709 582.325556,851.871408 C578.304573,848.90301 573.348688,847.123786 567.90266,847.123786" id="Fill-21" fill="#FAC800"></path>
                <path d="M302.699279,881.037961 C302.699279,879.09534 302.8082,877.189029 303.053271,875.300874 C303.216652,873.975534 303.516184,872.70466 303.770332,871.424709 C302.318058,864.217039 299.331819,857.544951 295.056688,851.871408 C291.017551,848.90301 286.043512,847.123786 280.670099,847.123786 C275.260378,847.123786 270.295416,848.90301 266.274433,851.871408 C261.972071,857.572184 258.99491,864.244272 257.551712,871.506408 C257.814937,872.777282 258.123545,874.002767 258.268773,875.300874 C258.477537,877.189029 258.604611,879.09534 258.604611,881.037961 C258.604611,884.315 258.168929,887.483107 257.551712,890.569515 C260.311033,904.37665 268.852219,916.086845 280.679175,922.913252 C292.442595,916.086845 300.965627,904.449272 303.761255,890.70568 C303.761255,890.660291 303.761255,890.651214 303.770332,890.605825 C303.134962,887.492184 302.699279,884.324078 302.699279,881.037961" id="Fill-23" fill="#FAC800"></path>
                <path d="M350.724164,875.300874 C349.680342,866.568155 346.321959,858.543495 341.248077,851.871408 C337.254323,848.90301 332.271208,847.123786 326.888718,847.123786 C321.506227,847.123786 316.514036,848.90301 312.465822,851.871408 C308.208844,857.544951 305.231682,864.217039 303.770332,871.424709 C303.52526,872.70466 303.216652,873.975534 303.053271,875.300874 C302.8082,877.189029 302.699279,879.09534 302.699279,881.037961 C302.699279,884.324078 303.134962,887.492184 303.761255,890.596748 C303.761255,890.642136 303.770332,890.678447 303.770332,890.723835 C306.584112,904.449272 315.098068,916.114078 326.879641,922.913252 C336.174195,917.530194 343.480948,909.106117 347.520085,899.00267 C349.762033,893.438058 351.032773,887.39233 351.032773,881.037961 C351.050926,879.09534 350.942005,877.189029 350.724164,875.300874" id="Fill-25" fill="#FAC800"></path>
                <path d="M258.259696,875.300874 C258.105392,874.002767 257.80586,872.777282 257.542636,871.506408 C256.099438,864.244272 253.104123,857.581262 248.810838,851.871408 C244.771701,848.90301 239.824893,847.123786 234.442403,847.123786 C229.050836,847.123786 224.076797,848.90301 220.06489,851.871408 C218.703384,853.659709 217.487104,855.584175 216.370668,857.544951 C213.366277,862.918932 211.34217,868.901117 210.606956,875.300874 C210.398192,877.189029 210.252964,879.09534 210.252964,881.037961 C210.252964,898.920971 219.9832,914.543641 234.442403,922.913252 C246.233052,916.086845 254.765162,904.37665 257.542636,890.569515 C258.159852,887.483107 258.595534,884.315 258.595534,881.037961 C258.595534,879.09534 258.46846,877.189029 258.259696,875.300874" id="Fill-27" fill="#FAC800"></path>
                <path d="M2230.98328,404.26966 C2242.01148,353.843204 2278.26387,323.124369 2329.46561,323.124369 C2370.43788,323.124369 2403.53158,356.221553 2405.11093,404.26966 L2230.98328,404.26966 Z M2329.46561,245.900631 C2208.9541,245.900631 2125.43019,332.574223 2125.43019,456.275631 C2125.43019,570.518107 2208.14627,666.641553 2341.28348,666.641553 C2441.33608,666.641553 2502.78543,605.966408 2502.78543,605.966408 L2461.03255,536.631165 C2461.03255,536.631165 2412.97136,581.547476 2348.3724,581.547476 C2287.72181,581.547476 2235.71224,544.510583 2227.84273,473.595825 L2505.16353,473.595825 C2505.16353,473.595825 2507.52347,448.387136 2507.52347,436.56801 C2507.52347,330.204951 2444.49478,245.900631 2329.46561,245.900631 L2329.46561,245.900631 Z" id="Fill-29" fill="#4B4182"></path>
                <path d="M1577.65968,581.547476 C1512.27104,581.547476 1457.91061,531.111942 1457.91061,456.275631 C1457.91061,382.210922 1512.27104,330.994709 1577.65968,330.994709 C1642.25864,330.994709 1696.61907,382.22 1696.61907,456.275631 C1696.62815,531.121019 1642.26772,581.547476 1577.65968,581.547476 M1238.0091,581.547476 C1173.40106,581.547476 1119.04971,531.111942 1119.04971,456.275631 C1119.04971,382.210922 1173.40106,330.994709 1238.0091,330.994709 C1303.39774,330.994709 1357.74909,382.22 1357.74909,456.275631 C1357.74909,531.121019 1303.39774,581.547476 1238.0091,581.547476 M1580.66407,245.900631 C1509.69325,245.900631 1447.40885,276.038495 1407.83439,325.566262 C1368.25992,276.029417 1305.9846,245.900631 1235.00471,245.900631 C1114.55674,245.900631 1018.19836,333.354903 1018.19836,456.275631 C1018.19836,579.977039 1114.55674,666.641553 1235.00471,666.641553 C1305.9846,666.641553 1368.25085,636.776019 1407.83439,587.311796 C1447.40885,636.776019 1509.68418,666.641553 1580.66407,666.641553 C1701.12112,666.641553 1797.47042,579.977039 1797.47042,456.275631 C1797.46134,333.354903 1701.11204,245.900631 1580.66407,245.900631" id="Fill-31" fill="#4B4182"></path>
                <path d="M1961.94045,352.971748 L1960.37925,352.971748 C1960.37925,352.971748 1961.94045,342.786602 1961.94045,327.908301 L1961.94045,304.415291 C1961.94045,270.737136 1943.93225,255.849757 1908.68738,255.849757 L1817.84764,255.849757 L1817.84764,328.471117 L1849.17137,328.471117 C1860.12696,328.471117 1866.39897,333.954029 1866.39897,345.700534 L1866.39897,657.454951 L1965.07191,657.454951 L1965.07191,497.088835 C1965.07191,473.595825 1968.21245,451.664175 1973.68571,432.083641 C1991.69391,372.552282 2040.25432,344.874466 2082.53365,344.874466 C2096.64793,344.874466 2106.82293,346.435825 2106.82293,346.435825 L2106.82293,251.937282 C2106.82293,251.937282 2097.42853,250.375922 2088.81473,250.375922 C2027.72846,250.366845 1979.95772,295.791505 1961.94045,352.971748" id="Fill-33" fill="#4B4182"></path>
                <path d="M3213.18339,581.674563 C3195.1752,586.376796 3166.73786,591.079029 3143.24733,591.079029 C3086.07312,591.079029 3068.64583,568.375777 3068.64583,535.251359 C3068.64583,510.605485 3088.65998,477.953107 3177.93852,477.953107 L3213.18339,477.953107 L3213.18339,581.674563 Z M3139.19004,246.118495 C3062.70966,246.118495 3005.11792,281.78466 2995.13353,288.021019 L2995.13353,374.885243 L3073.23864,374.885243 L3080.59986,331.312427 C3094.42369,326.056456 3120.77339,323.106214 3132.7728,323.106214 C3185.63557,323.106214 3213.18339,361.096262 3213.18339,390.24466 L3213.18339,416.878544 L3155.17413,416.878544 C3019.45005,416.878544 2968.50246,474.049709 2968.50246,542.586117 C2968.50246,593.793252 3000.67941,665.95165 3141.16876,665.95165 C3217.91236,665.95165 3266.29124,652.634709 3310.16807,640.107524 L3310.16807,414.908689 C3310.16807,325.620728 3274.32413,246.118495 3139.19004,246.118495 L3139.19004,246.118495 Z" id="Fill-35" fill="#4B4182"></path>
                <path d="M2883.0906,570.00068 L2829.76491,471.244709 C2815.56893,445.246262 2801.38203,439.727039 2801.38203,439.727039 L2801.38203,438.147524 C2801.38203,438.147524 2814.00774,431.847621 2831.32611,406.638932 L2932.95805,255.359563 L2821.87725,255.359563 L2739.94177,382.210922 C2731.27351,394.819806 2714.73574,397.18 2702.12818,397.18 L2672.18411,397.18 L2672.18411,143.477282 C2672.18411,106.449466 2655.64634,97.7802913 2618.63151,97.7802913 L2523.30787,97.7802913 L2523.30787,170.810146 L2554.81314,170.810146 C2565.84135,170.810146 2572.14966,176.329369 2572.14966,188.148495 L2572.14966,657.182621 L2672.18411,657.182621 L2672.18411,481.48432 L2694.25867,481.48432 C2706.84807,481.48432 2723.404,482.274078 2731.27351,496.453398 L2798.25057,622.524078 C2814.00774,651.672476 2827.39589,657.191699 2861.27018,657.191699 L2935.20908,657.191699 L2935.20908,584.969757 L2916.16614,584.969757 C2897.26842,584.969757 2889.38076,581.819806 2883.0906,570.00068" id="Fill-37" fill="#4B4182"></path>
                <path d="M701.938471,0.0954854369 C618.15134,63.0672816 513.986989,100.385583 401.081764,100.385583 L401.081764,100.385583 C288.194693,100.385583 184.057573,63.0672816 100.215981,0.0954854369 L100.215981,0.0954854369 C58.7989425,99.1147087 29.345011,204.361214 13.5152247,314.028544 L13.5152247,314.028544 L52.5904712,320.165049 C67.3219753,231.185728 144.601104,163.321068 237.737249,163.321068 L237.737249,163.321068 C307.782238,163.321068 368.850359,201.719612 401.108995,258.609369 L401.108995,258.609369 C433.358553,201.719612 494.426674,163.321068 564.471663,163.321068 L564.471663,163.321068 C657.625962,163.321068 734.886937,231.185728 749.627518,320.165049 L749.627518,320.165049 L788.702764,314.028544 C772.845748,204.361214 743.38274,99.1147087 701.938471,0.0954854369 L701.938471,0.0954854369 Z" id="Fill-1" fill="#FA6414"></path>
            </g>
        </g>
    </g>
</svg>