<?xml version="1.0" encoding="UTF-8" standalone="no"?>
<svg width="642px" height="145px" viewBox="0 0 642 145" version="1.1" xmlns="http://www.w3.org/2000/svg" xmlns:xlink="http://www.w3.org/1999/xlink">
    <!-- Generator: Sketch 3.8.2 (29753) - http://www.bohemiancoding.com/sketch -->
    <title>smallable</title>
    <desc>Created with Sketch.</desc>
    <defs></defs>
    <g id="Page-1" stroke="none" stroke-width="1" fill="none" fill-rule="evenodd">
        <path d="M325.146414,74.3747612 L325.146414,88.7919193 C325.146414,105.059609 313.375693,121.532693 290.882952,121.532693 C275.533616,121.532693 266.367858,114.324114 266.367858,102.247275 C266.367858,83.8663861 279.086556,81.381895 292.109398,80.4082431 C294.645238,80.2265474 297.220576,80.1001504 299.758391,79.9757284 C310.460662,79.4503908 320.611922,78.9507277 325.146414,74.3747612 M546.884281,96.1466449 C546.884281,108.089187 541.476859,122.030381 526.251945,122.030381 C511.410172,122.030381 504.651882,108.612549 504.651882,96.1466449 C504.651882,80.0488016 512.928911,70.0496138 526.251945,70.0496138 C540.505182,70.0476388 546.884281,83.1573779 546.884281,96.1466449 M475.793867,92.7793497 L475.793867,101.40002 C475.793867,111.650027 468.373968,122.030381 454.189854,122.030381 C440.317783,122.030381 438.820768,113.601281 438.820768,109.981192 C438.820768,99.5850383 445.010272,97.0472235 454.99761,96.3145159 C456.617071,96.1960187 458.258257,96.1150456 459.879694,96.0340726 C466.430614,95.7101802 472.657641,95.3981376 475.793867,92.7793497 M610.282252,89.9709663 C612.476425,89.3073821 614.658748,88.9637402 616.760099,88.9637402 C626.046328,88.9637402 633.853318,95.6292072 637.275912,106.406527 L612.04391,114.019971 C612.022186,114.027871 609.95046,114.811927 603.468664,115.495261 C601.312015,115.716456 598.809749,116.303017 597.249536,116.954751 C596.856521,117.120647 596.542503,117.250994 596.297609,117.359617 C593.803243,104.228153 599.350886,93.2829628 610.282252,89.9709663 M364.799524,113.466984 C364.732375,114.227341 364.388734,116.496562 362.64485,118.811207 C359.739694,122.666316 354.571241,124.62152 347.283664,124.62152 C340.055336,124.59782 334.799985,123.158079 331.817806,120.448444 C330.474838,118.937604 329.823103,117.077199 329.917901,114.861301 L329.917901,59.8647803 C329.469587,43.2415995 319.344002,34.4570079 300.63527,34.4570079 C281.016086,34.4570079 267.876722,45.1237299 267.153889,61.6382883 C267.120315,62.4776433 267.211163,63.7514881 267.270412,64.4762959 L267.319786,65.021383 L267.319786,65.0332327 L267.406683,65.9259116 L267.410633,65.9259116 C267.477782,66.875864 267.495556,68.5052004 267.120315,70.2569839 C265.852395,72.8007235 263.707596,75.7947525 260.150706,77.6867577 C251.928976,82.0296797 250.26409,89.5345017 250.293714,99.4685161 C250.285814,110.528254 246.162112,118.801333 238.682965,122.757164 C237.369621,123.454322 236.297221,123.882887 235.410467,124.151481 C234.932529,124.268003 234.557287,124.313427 234.282769,124.313427 C233.864079,124.313427 233.559936,124.224554 233.40194,124.060633 C233.283443,123.938186 233.255793,123.77624 233.249868,123.701191 L233.249868,123.630093 L233.249868,122.855911 L233.249868,66.7711915 C233.249868,45.0249822 224.054487,34.4570079 205.14036,34.4570079 C192.48091,34.4570079 181.658167,41.9717046 177.629263,53.3494098 C174.252093,41.4720415 164.920439,34.4451581 152.338012,34.4451581 C152.057569,34.4451581 151.773176,34.449108 151.504582,34.4570079 C139.400094,34.4570079 128.658324,42.6668882 124.309477,54.8227249 L124.309477,37.0915954 L124.20283,36.47541 C123.876962,34.7651005 122.451046,30.5821497 116.403739,28.4393256 C115.092371,27.9080632 113.579556,27.5723211 111.817898,27.5624464 C108.484177,27.5624464 104.715967,28.759268 100.608064,31.1252619 C97.7779562,32.764473 95.1650932,33.5979032 92.8385983,33.5979032 C90.0440396,33.5939533 87.6523713,32.3971317 85.7287669,30.0528623 C84.9229861,29.0456362 84.4015984,28.1193832 84.1093054,27.5209723 C83.7814631,26.8573881 83.6333416,26.4505477 83.6274168,26.4268483 L83.3252489,25.7948633 C76.0988953,8.4547745 62.491468,0 41.7268105,0 C31.9389426,0 0,2.2810709 0,31.6407246 C0,54.5482064 19.2794928,58.9681516 37.9250256,63.2439252 L40.8874554,63.925284 C43.052004,64.4565464 45.2856761,64.9522597 47.5450225,65.4538978 C64.6698414,69.2576576 82.3812213,73.1897893 82.3812213,94.0038207 C82.3812213,113.609181 63.1471525,122.383898 44.0829296,122.383898 C25.1036297,122.383898 12.2644591,116.508412 5.91893463,104.925312 L5.59701727,104.336776 L1.20274648,106.453925 L1.56218795,107.10566 C8.79644139,120.223299 23.4999677,127.155385 44.0829296,127.155385 C65.5210462,127.155385 87.1527082,116.958701 87.1527082,94.1795915 C87.1527082,70.3735061 70.9185932,66.3367018 50.3672305,61.2294729 C48.8030676,60.8384322 47.2132303,60.4454165 45.5937687,60.0306764 C43.6918888,59.5784121 41.786059,59.1458974 39.892079,58.7153576 C21.0549757,54.4455088 4.78333656,50.7523464 4.78333656,31.6407246 C4.78333656,6.7089159 33.0646659,4.77148684 41.7307604,4.77148684 C61.3301956,4.77148684 74.129867,11.8951429 80.8624824,26.5137462 L81.2278487,27.2879279 C81.553716,28.1904815 84.6425427,36.1021438 92.8405733,36.1574425 C95.5976079,36.1574425 98.6410107,35.21144 101.891784,33.3470842 C105.586921,31.2062349 108.914717,30.1200107 111.817898,30.1200107 C114.337938,30.1239606 116.457063,30.949491 118.141698,32.5650027 L118.141698,32.5669777 C119.364194,33.5347047 119.56564,36.2087913 119.53799,37.1587438 L119.53799,124.305527 L124.313427,124.305527 L124.313427,74.676929 C124.313427,57.4948365 133.844551,39.2344196 151.508532,39.2344196 C158.539365,39.2344196 163.749292,41.0454516 167.434554,44.7662634 C171.972997,49.3501297 174.123721,56.9872735 174.011148,68.1141597 L174.011148,124.305527 L178.782635,124.305527 L178.782635,68.7955185 C178.932732,54.5600561 187.247284,39.2344196 205.14431,39.2344196 C221.500872,39.2344196 228.480357,47.4699743 228.480357,66.7711915 L228.480357,121.821036 C228.458632,122.302925 228.444807,123.590594 228.794374,124.560296 L228.786474,124.560296 L228.827948,124.710392 C228.95237,125.188331 230.101793,127.119835 233.062248,127.119835 L233.109647,127.119835 C234.948328,127.119835 237.225449,126.412802 239.879786,125.014535 C248.261487,120.592615 252.867078,111.51573 252.847329,99.472466 C252.888803,88.2488072 255.035577,83.3252489 261.359377,79.950054 C269.290789,75.7039047 271.242043,67.1602573 271.664682,64.4427217 L271.753555,63.9608332 C271.75948,63.8956597 271.769355,63.8364111 271.77528,63.7732126 L271.856253,63.04248 C273.343393,47.693144 283.516376,39.2344196 300.637245,39.2344196 C322.237308,39.2344196 325.148389,50.9458918 325.148389,62.3966703 C325.148389,73.8652233 316.942459,74.3056378 297.117879,75.3681626 C295.494467,75.4550606 293.796008,75.5459084 292.0146,75.646631 C276.975332,76.7091558 261.602296,80.6946113 261.602296,102.247275 C261.602296,117.322093 272.673884,126.318004 291.218694,126.318004 C308.201316,126.318004 320.611922,116.954751 325.152339,106.908165 L325.152339,115.185193 C325.152339,119.192373 327.466984,122.322674 331.85138,124.238379 C335.354947,125.766992 339.348302,126.187657 341.813044,126.29233 C343.412756,126.485875 345.178364,126.594498 347.141468,126.594498 L347.323163,126.594498 C347.483134,126.594498 347.625331,126.588573 347.785302,126.584623 L348.630582,126.566848 C349.398839,126.541174 350.147346,126.4997 350.85043,126.430577 C358.440175,125.768967 363.778473,123.626143 366.725103,120.029754 C367.252416,119.391844 367.627657,118.753934 367.945624,118.135773 C368.259642,118.917855 368.678332,119.729561 369.258968,120.533367 C372.213498,124.623495 377.82829,126.697195 385.937448,126.697195 L386.020396,126.697195 C392.911007,126.697195 397.384276,124.982936 400.265733,122.917135 C403.141265,121.070554 405.112268,118.872431 406.352538,117.140397 C406.634957,118.072575 407.033897,119.109425 407.594784,120.156151 C408.896278,122.612992 412.107552,126.734719 418.954715,126.734719 L418.996189,126.734719 C419.256882,126.734719 419.519551,126.72287 419.788145,126.709045 L420.068588,126.69522 C423.497107,126.5076 426.163294,124.119882 427.76893,119.800659 C429.360743,115.625608 429.601687,110.743524 429.603662,108.203734 C429.635261,100.811484 431.017728,97.6258848 435.092057,95.5857582 C440.606126,92.854398 441.889846,88.2646068 442.184114,86.2422548 L442.203863,86.2422548 L442.223613,85.9657613 C442.257187,85.7109924 442.265087,85.5213969 442.272987,85.3989498 C443.072843,75.4945597 449.50724,70.0436889 460.416881,70.0436889 C473.97296,70.0436889 475.799791,77.378665 475.799791,84.5595947 C475.799791,91.6398018 470.980906,91.8985206 458.106186,92.5838294 L454.904787,92.7615752 C445.193942,93.4310843 435.269803,96.0024733 435.269803,109.977242 C435.269803,119.74536 442.427033,125.577397 454.418948,125.577397 C464.797327,125.577397 472.533219,120.140351 475.799791,114.041696 L475.799791,118.246371 C475.882739,122.51227 482.463283,124.917763 482.743727,125.018485 L482.753602,124.994786 C484.602158,125.784767 487.106398,126.331829 490.562566,126.331829 L490.625765,126.331829 C492.158328,126.327879 493.485497,126.173833 494.660594,125.913139 C502.390561,124.710392 504.10482,119.903356 504.476111,118.009376 L504.634108,111.55128 C508.414168,120.282548 516.436428,125.577397 526.25787,125.577397 C533.182056,125.577397 539.000268,122.844062 543.204943,118.0864 C543.834953,119.261497 544.808605,120.61039 546.159473,121.931633 C548.432644,124.141606 552.483273,126.766319 558.874221,126.766319 L558.919645,126.766319 C559.865648,126.766319 560.726727,126.693245 561.536458,126.588573 C566.252646,126.152108 569.015606,124.313427 570.644942,122.372048 C571.188054,123.529371 571.978036,124.682743 573.131408,125.603071 C574.691621,126.847292 576.66065,127.469402 579.008869,127.469402 C580.300488,127.469402 581.706655,127.281782 583.225394,126.904565 L583.219469,126.878891 C583.420914,126.833467 583.620384,126.807793 583.82183,126.754469 C586.399144,126.06126 590.740091,123.547145 593.740044,121.680814 C593.779544,121.821036 593.813118,121.957308 593.858542,122.097529 C598.254787,136.583811 606.756961,144.558672 617.794974,144.558672 C620.461161,144.558672 623.287319,144.092583 626.196425,143.16633 C633.440553,140.985982 638.940798,136.42384 641.695857,130.323209 L642,129.637901 L638.644555,128.362081 L638.372011,128.964442 C636.033666,134.121044 631.396476,137.885305 624.958129,139.836559 C622.475613,140.592966 620.091845,140.972157 617.866072,140.972157 C606.083502,140.972157 600.223816,130.372583 597.387783,121.489244 L596.905894,119.869782 L597.553679,119.575514 C597.571454,119.567614 598.98552,118.854656 600.804452,118.522864 C603.19612,118.094299 604.159897,118.031101 605.180948,117.963952 C606.095351,117.906679 607.045304,117.841505 609.024207,117.525513 C611.810866,117.073249 639.825577,109.319582 641.018448,108.99174 L641.682033,108.80017 L641.512187,108.130661 C637.901972,94.1124431 628.461696,85.4028997 616.868721,85.4028997 C614.348681,85.4028997 611.714093,85.811715 609.041982,86.6214458 C597.887446,90.0104654 589.237151,102.109028 593.062636,119.085726 C591.919138,119.806584 590.753915,120.519542 589.649916,121.157452 C586.792159,122.810488 584.42419,123.95201 583.16812,124.289727 C581.917975,124.60967 580.768552,124.771616 579.753426,124.771616 C576.929243,124.761741 575.055013,123.604419 573.866091,121.133752 C573.403952,120.1601 573.166957,119.150899 573.058335,118.483365 C573.005011,118.147623 572.975387,117.87903 572.959587,117.673634 L572.959587,117.24507 C572.959587,117.223345 572.963537,117.191746 572.963537,117.191746 L572.959587,116.449163 L572.959587,46.3264764 L569.398747,46.3264764 L569.398747,116.39979 L569.359248,117.130522 C569.343448,117.286544 569.299999,117.608461 569.177552,118.046901 C567.966906,122.111354 564.496913,124.177155 558.868296,124.19098 C554.440451,124.19098 550.763089,122.814437 547.923106,120.087027 C546.169348,118.430041 545.239145,116.563711 544.962651,115.850753 C548.452393,110.816597 550.439196,104.074107 550.439196,96.142695 C550.439196,81.8618087 542.871176,66.4887732 526.251945,66.4887732 C516.096736,66.4887732 508.254197,71.5486032 504.651882,80.2048229 L504.651882,46.3264764 L501.098941,46.3264764 L501.075242,117.22927 L501.071292,117.270744 C501.008094,118.499165 500.194413,124.629419 490.617865,124.635344 C485.194644,124.627444 482.39021,123.312126 480.93467,121.86646 C480.217762,121.064629 479.571952,120.008029 479.396181,118.710485 C479.390256,118.647286 479.382356,118.582113 479.380382,118.524839 L479.358657,117.823731 L479.346807,117.823731 L479.346807,82.944083 C479.058464,72.1825632 472.509519,66.4927231 460.408981,66.4927231 C447.715957,66.4927231 439.693698,73.2984117 438.76547,84.7274657 L438.692396,85.4581984 C438.692396,85.4641232 438.694371,85.4818978 438.694371,85.5075722 L438.654872,86.2442297 L438.674622,86.2442297 C438.601549,87.4252517 438.279631,89.6786733 436.932713,91.1776627 C436.105208,92.009118 435.111806,92.7161512 433.948559,93.2888877 C428.173796,96.1288703 427.008574,101.305223 427.038198,108.199784 C427.038198,112.204989 426.433862,116.101572 425.379237,118.890206 C424.075768,122.30095 422.292385,124.023109 419.930341,124.155431 C419.608424,124.17123 419.292431,124.177155 418.988289,124.177155 C414.744114,124.165305 411.750085,122.453021 409.834381,118.937604 C409.23992,117.83953 408.787656,116.589385 408.483513,115.214818 C408.347241,114.574933 408.284043,114.102919 408.258368,113.84025 L408.258368,112.7797 L408.274168,112.068717 L408.258368,6.03545687 L403.482931,6.03545687 L403.482931,112.471608 L403.461207,113.089768 C403.461207,113.095693 403.439482,113.715828 403.159039,114.69343 C401.908894,118.985003 397.911589,124.113957 385.959172,124.147531 C378.707144,124.147531 373.781611,122.423397 371.326744,119.028452 C369.713207,116.792805 369.632234,114.509759 369.592735,113.40971 C369.588785,113.386011 369.588785,113.376136 369.588785,113.354412 L369.588785,6.03545687 L364.817298,6.03545687 L364.817298,112.487407" id="smallable" fill="#000000"></path>
    </g>
</svg>