<?xml version="1.0" encoding="UTF-8"?> <svg xmlns="http://www.w3.org/2000/svg" xmlns:xlink="http://www.w3.org/1999/xlink" width="546px" height="96px" viewBox="0 0 546 96"> <!-- Generator: Sketch 41.2 (35397) - http://www.bohemiancoding.com/sketch --> <title>sqreen-logo-color</title> <desc>Created with Sketch.</desc> <defs></defs> <g id="Logo" stroke="none" stroke-width="1" fill="none" fill-rule="evenodd"> <g id="sqreen-logo-color" transform="translate(-117.000000, -87.000000)"> <g transform="translate(117.000000, 87.000000)"> <g id="logo-copy" transform="translate(0.000000, 0.569231)"> <path d="M183.641459,47.7438695 C183.641459,47.7438695 183.641459,49.3794563 182.826482,50.4698475 C181.739846,51.8328365 162.723719,76.3666387 153.758973,88.0883442 C144.794227,100.082647 126.593077,93.5403002 126.593077,93.5403002 C126.593077,93.5403002 132.569574,89.9965288 136.3728,85.3623662 C146.424181,72.5502695 165.711968,47.4712717 165.711968,47.4712717 C165.711968,47.4712717 146.424181,22.9374695 136.3728,9.85277496 C132.841233,5.21861233 126.593077,1.6748409 126.593077,1.6748409 C126.593077,1.6748409 144.794227,-4.59490855 153.758973,7.12679694 C162.723719,19.1211002 181.739846,43.6549024 182.554823,45.0178914 C183.641459,46.1082827 183.641459,47.7438695 183.641459,47.7438695" id="Fill-1" fill="#5074FB"></path> <path d="M0,47.7438695 C0,47.7438695 0,49.3794563 0.81497689,50.4698475 C1.62995378,51.5602387 20.9177402,76.3666387 29.610827,88.0883442 C38.3039138,99.8100497 56.7767233,93.5403002 56.7767233,93.5403002 C56.7767233,93.5403002 50.8002261,89.9965288 46.9970006,85.3623662 C36.945619,72.5502695 17.6578326,47.7438695 17.6578326,47.7438695 C17.6578326,47.7438695 36.945619,22.9374695 46.9970006,9.85277496 C50.5285672,5.21861233 56.7767233,1.6748409 56.7767233,1.6748409 C56.7767233,1.6748409 38.5755728,-4.59490855 29.610827,7.12679694 C20.6460812,18.8485024 1.90161274,43.6549024 1.08663585,45.0178914 C0.271658963,46.3808805 0,47.7438695 0,47.7438695" id="Fill-4" fill="#5074FB"></path> <path d="M91.8207296,16.66772 C75.2495328,16.66772 61.3949257,30.5702079 61.3949257,47.7438695 C61.3949257,64.917531 74.9778738,78.8200189 91.8207296,78.8200189 C108.663585,78.8200189 122.246533,64.917531 122.246533,47.7438695 C122.246533,30.5702079 108.391926,16.66772 91.8207296,16.66772" id="Fill-6" fill="#3E3E3E"></path> </g> <path d="M240.756981,76.3041509 C255.32,76.3041509 263.470943,69.0226415 263.470943,59.4588679 C263.470943,38.2664151 232.388679,44.7871698 232.388679,36.9622642 C232.388679,34.0279245 235.649057,31.7456604 240.648302,31.7456604 C247.060377,31.7456604 253.037736,34.4626415 256.189434,37.8316981 L261.732075,28.3766038 C256.515472,24.2467925 249.451321,21.2037736 240.539623,21.2037736 C226.737358,21.2037736 219.021132,28.92 219.021132,37.7230189 C219.021132,58.3720755 250.212075,51.3079245 250.212075,60.0022642 C250.212075,63.2626415 247.386415,65.6535849 241.409057,65.6535849 C234.888302,65.6535849 227.063396,62.0671698 223.259623,58.4807547 L217.282264,68.1532075 C222.824906,73.2611321 231.627925,76.3041509 240.756981,76.3041509 Z M297.704906,64.0233962 C289.88,64.0233962 284.446038,57.8286792 284.446038,48.6996226 C284.446038,39.6792453 289.88,33.4845283 297.704906,33.4845283 C302.160755,33.4845283 307.268679,36.0928302 309.550943,39.4618868 L309.550943,58.0460377 C307.268679,61.3064151 302.160755,64.0233962 297.704906,64.0233962 Z M293.357736,76.3041509 C299.552453,76.3041509 305.312453,73.6958491 309.550943,68.2618868 L309.550943,94.9969811 L323.461887,94.9969811 L323.461887,22.5079245 L309.550943,22.5079245 L309.550943,29.1373585 C305.529811,24.029434 299.769811,21.2037736 293.357736,21.2037736 C279.881509,21.2037736 270.100377,31.2022642 270.100377,48.6996226 C270.100377,66.1969811 279.881509,76.3041509 293.357736,76.3041509 Z M350.849057,75 L350.849057,40.3313208 C353.131321,36.9622642 359.217358,34.3539623 363.781887,34.3539623 C365.303396,34.3539623 366.607547,34.4626415 367.58566,34.68 L367.58566,21.2037736 C361.064906,21.2037736 354.544151,25.0075472 350.849057,29.6807547 L350.849057,22.5079245 L337.046792,22.5079245 L337.046792,75 L350.849057,75 Z M400.841509,76.3041509 C408.992453,76.3041509 417.252075,73.8045283 422.468679,69.0226415 L416.382642,60.1109434 C413.013585,63.3713208 406.818868,65.3275472 402.363019,65.3275472 C393.451321,65.3275472 388.126038,59.7849057 387.256604,53.1554717 L426.272453,53.1554717 L426.272453,50.1124528 C426.272453,32.9411321 415.621887,21.2037736 399.972075,21.2037736 C383.996226,21.2037736 372.802264,33.4845283 372.802264,48.6996226 C372.802264,65.5449057 384.86566,76.3041509 400.841509,76.3041509 Z M412.904906,43.8090566 L387.039245,43.8090566 C387.691321,38.5924528 391.386415,32.1803774 399.972075,32.1803774 C409.101132,32.1803774 412.578868,38.8098113 412.904906,43.8090566 Z M460.941132,76.3041509 C469.092075,76.3041509 477.351698,73.8045283 482.568302,69.0226415 L476.482264,60.1109434 C473.113208,63.3713208 466.918491,65.3275472 462.462642,65.3275472 C453.550943,65.3275472 448.22566,59.7849057 447.356226,53.1554717 L486.372075,53.1554717 L486.372075,50.1124528 C486.372075,32.9411321 475.721509,21.2037736 460.071698,21.2037736 C444.095849,21.2037736 432.901887,33.4845283 432.901887,48.6996226 C432.901887,65.5449057 444.965283,76.3041509 460.941132,76.3041509 Z M473.004528,43.8090566 L447.138868,43.8090566 C447.790943,38.5924528 451.486038,32.1803774 460.071698,32.1803774 C469.200755,32.1803774 472.678491,38.8098113 473.004528,43.8090566 Z M545.602264,75 L545.602264,37.9403774 C545.602264,27.7245283 540.059623,21.2037736 528.539623,21.2037736 C519.953962,21.2037736 513.541887,25.3335849 510.17283,29.354717 L510.17283,22.5079245 L496.370566,22.5079245 L496.370566,75 L510.17283,75 L510.17283,39.6792453 C512.455094,36.5275472 516.693585,33.4845283 522.127547,33.4845283 C527.996226,33.4845283 531.8,35.9841509 531.8,43.2656604 L531.8,75 L545.602264,75 Z" id="sqreen" fill="#444444"></path> </g> </g> </g> </svg> 