<?xml version="1.0" encoding="UTF-8"?> <svg xmlns="http://www.w3.org/2000/svg" xmlns:xlink="http://www.w3.org/1999/xlink" width="708px" height="193px" viewBox="0 0 708 193"> <!-- Generator: Sketch 49 (51002) - http://www.bohemiancoding.com/sketch --> <title>sqreen</title> <desc>Created with Sketch.</desc> <defs></defs> <g id="Page-1" stroke="none" stroke-width="1" fill="none" fill-rule="evenodd"> <g id="sqreen" transform="translate(0.000000, -1.000000)"> <path d="M128.0411,81.8996 C126.5521,77.7306 124.4751,73.8426 121.9111,70.3316 C113.5861,58.9306 100.1301,51.5176 84.9371,51.5176 C69.7441,51.5176 56.2881,58.9306 47.9631,70.3316 C45.3991,73.8426 43.3221,77.7306 41.8331,81.8996 C40.1121,86.7166 39.1681,91.9046 39.1681,97.3146 C39.1681,120.3846 56.2201,139.4626 78.3981,142.6386 C80.5351,142.9436 82.7161,143.1106 84.9371,143.1106 C87.1581,143.1106 89.3391,142.9436 91.4761,142.6386 C113.6541,139.4626 130.7061,120.3846 130.7061,97.3146 C130.7061,91.9046 129.7621,86.7166 128.0411,81.8996" id="Fill-1" fill="#B0ACFF"></path> <path d="M243.0992,79.8952 C243.0992,75.8422 247.1552,73.1992 253.5032,73.1992 C261.1792,73.1992 268.8582,75.2422 276.9992,79.8402 C277.0852,79.8882 277.1772,79.9412 277.2742,79.9972 C277.3652,80.0492 277.4592,80.0972 277.5552,80.1402 C279.0692,80.8122 280.8422,80.1302 281.5152,78.6162 L286.9392,66.4102 C287.5462,65.0422 287.0542,63.4372 285.7842,62.6452 C285.4882,62.4612 285.2242,62.3022 284.9902,62.1672 C276.3542,57.2022 263.2262,53.8142 253.5032,53.8142 C234.2822,53.8142 221.9372,65.7972 221.9372,79.8952 C221.9372,111.0862 267.7872,101.0412 267.7872,114.7882 C267.7872,119.8982 264.6142,122.5412 254.5612,122.5412 C248.1182,122.5412 240.8952,120.9862 233.9292,118.1322 C233.6802,118.0312 233.3922,117.9092 233.0672,117.7672 C231.5562,117.1112 229.7982,117.7952 229.1292,119.3002 L223.7332,131.4452 C223.1542,132.7472 223.5712,134.2752 224.7292,135.1042 C224.9792,135.2822 225.2022,135.4232 225.3982,135.5282 C233.4192,139.7932 245.0572,141.9262 254.5612,141.9262 C275.7242,141.9262 288.9502,129.7662 288.9502,114.7882 C288.9502,81.8332 243.0992,92.0552 243.0992,79.8952" id="Fill-3" fill="#1E0936"></path> <path d="M360.1949,112.6726 C354.3759,119.5456 347.3209,122.1896 339.7379,122.1896 C326.5119,122.1896 316.6369,111.7916 316.6369,97.8696 C316.6369,83.9486 326.5119,73.5516 339.7379,73.5516 C347.3209,73.5516 354.3759,77.0756 360.1949,83.0676 L360.1949,112.6726 Z M377.6519,56.4576 L363.1949,56.4576 C361.5389,56.4576 360.1949,57.8006 360.1949,59.4576 L360.1949,59.9826 C354.7279,56.4576 346.9689,53.8146 339.0329,53.8146 C314.3439,53.8146 295.6509,73.3756 295.6509,97.8696 C295.6509,122.3646 314.3439,141.9266 339.0329,141.9266 C346.9689,141.9266 354.7279,139.2826 360.1949,135.7586 L360.1949,176.8146 C360.1949,178.4716 361.5389,179.8146 363.1949,179.8146 L377.6519,179.8146 C379.3079,179.8146 380.6519,178.4716 380.6519,176.8146 L380.6519,59.4576 C380.6519,57.8006 379.3079,56.4576 377.6519,56.4576 Z" id="Fill-5" fill="#1E0936"></path> <path d="M450.1451,59.3825 C450.6521,58.2405 450.1361,56.9045 448.9961,56.3985 C448.9781,56.3905 448.9601,56.3835 448.9431,56.3765 C444.3561,54.4765 439.7681,53.8145 435.1801,53.8145 C427.2451,53.8145 419.3091,56.4575 413.1371,59.9825 L413.1371,58.9115 C413.1371,57.5565 412.0401,56.4575 410.6861,56.4575 L395.1301,56.4575 C393.7771,56.4575 392.6801,57.5565 392.6801,58.9115 L392.6801,139.4715 C392.6801,140.8265 393.7771,141.9265 395.1301,141.9265 L410.6861,141.9265 C412.0401,141.9265 413.1371,140.8265 413.1371,139.4715 L413.1371,82.3625 C417.8981,76.8995 426.0101,73.5515 434.1231,73.5515 C436.0011,73.5515 438.3931,73.7115 440.9291,74.2365 C440.9391,74.2375 440.9491,74.2395 440.9581,74.2425 C442.3421,74.5315 443.7421,73.8155 444.3151,72.5225 L450.1451,59.3825 Z" id="Fill-7" fill="#1E0936"></path> <path d="M467.7496,87.4729 C470.3946,79.1899 477.2716,72.3179 488.9106,72.3179 C497.9046,72.3179 505.4876,79.1899 506.3696,87.4729 L467.7496,87.4729 Z M488.9106,53.8139 C462.9876,53.8139 446.2346,73.1989 446.2346,97.1649 C446.2346,122.0129 466.1616,141.9269 493.1436,141.9269 C504.5266,141.9269 515.7656,137.7019 523.6766,132.9619 C523.8436,132.8609 524.0366,132.7429 524.2556,132.6069 C525.1036,132.0799 525.4336,131.0089 525.0266,130.0969 L519.7836,118.2969 C519.7496,118.2199 519.7126,118.1449 519.6706,118.0719 C518.9716,116.8409 517.4056,116.4089 516.1746,117.1079 C508.7606,121.3179 500.7316,123.4229 493.1436,123.4229 C479.5646,123.4229 469.5126,115.8459 467.0436,102.9799 L523.6176,103.0149 C525.1256,103.0159 526.3996,101.8979 526.5946,100.4019 C526.5976,100.3769 526.6016,100.3509 526.6036,100.3269 C526.8276,98.5599 527.0026,96.4489 527.0026,94.6979 C527.0026,73.9039 512.3656,53.8139 488.9106,53.8139 Z" id="Fill-9" fill="#1E0936"></path> <path d="M557.1051,87.4729 C559.7511,79.1899 566.6281,72.3179 578.2671,72.3179 C587.2611,72.3179 594.8441,79.1899 595.7261,87.4729 L557.1051,87.4729 Z M578.2671,53.8139 C552.3441,53.8139 535.5911,73.1989 535.5911,97.1649 C535.5911,122.0129 555.5181,141.9269 582.5001,141.9269 C593.8831,141.9269 605.1221,137.7019 613.0331,132.9619 C613.2001,132.8609 613.3931,132.7429 613.6121,132.6069 C614.4591,132.0799 614.7891,131.0089 614.3831,130.0969 L609.1401,118.2969 C609.1061,118.2199 609.0681,118.1449 609.0271,118.0719 C608.3281,116.8409 606.7621,116.4089 605.5311,117.1079 C598.1171,121.3179 590.0881,123.4229 582.5001,123.4229 C568.9201,123.4229 558.8691,115.8459 556.4001,102.9799 L612.9741,103.0149 C614.4821,103.0159 615.7561,101.8979 615.9511,100.4019 C615.9541,100.3769 615.9571,100.3509 615.9601,100.3269 C616.1841,98.5599 616.3591,96.4489 616.3591,94.6979 C616.3591,73.9039 601.7221,53.8139 578.2671,53.8139 Z" id="Fill-11" fill="#1E0936"></path> <path d="M668.2584,53.8142 C660.3224,53.8142 652.3874,56.4582 646.2144,59.9822 L646.2144,59.4582 C646.2144,57.8002 644.8714,56.4582 643.2144,56.4582 L628.7584,56.4582 C627.1014,56.4582 625.7584,57.8002 625.7584,59.4582 L625.7584,138.9262 C625.7584,140.5832 627.1014,141.9262 628.7584,141.9262 L643.2144,141.9262 C644.8714,141.9262 646.2144,140.5832 646.2144,138.9262 L646.2144,82.3622 C650.9764,76.8992 659.0884,73.5512 667.2004,73.5512 C680.4264,73.5512 687.4804,80.7762 687.4804,94.8742 L687.4804,138.9262 C687.4804,140.5832 688.8234,141.9262 690.4804,141.9262 L704.9374,141.9262 C706.5944,141.9262 707.9374,140.5832 707.9374,138.9262 L707.9374,92.5832 C707.9374,68.7932 694.7104,53.8142 668.2584,53.8142" id="Fill-13" fill="#1E0936"></path> <path d="M156.7975,129.9949 L133.5855,116.5859 C131.9605,120.6869 129.8335,124.5349 127.2785,128.0519 L151.3645,141.9659 L91.4755,176.5629 L91.4755,142.6389 L91.4755,103.0229 L128.0415,81.8999 L156.7975,65.2869 L156.7975,129.9949 Z M78.3985,176.5629 L18.5095,141.9659 L42.5955,128.0519 C40.0415,124.5349 37.9135,120.6869 36.2895,116.5859 L13.0765,129.9949 L13.0765,65.2869 L41.8335,81.8999 L78.3985,103.0229 L78.3985,142.6389 L78.3985,176.5629 Z M78.3985,18.0649 L78.3985,45.3799 C80.5405,45.1129 82.7225,44.9749 84.9375,44.9749 C87.1515,44.9749 89.3335,45.1129 91.4755,45.3799 L91.4755,18.0649 L151.9305,52.9899 L121.9115,70.3319 L84.9375,91.6919 L47.9635,70.3319 L17.9435,52.9899 L78.3985,18.0649 Z M163.9895,44.8469 L90.8215,2.5779 C87.1805,0.4739 82.6935,0.4739 79.0525,2.5779 L5.8845,44.8469 C2.2435,46.9509 0.0005,50.8379 0.0005,55.0459 L0.0005,139.5829 C0.0005,143.7899 2.2435,147.6779 5.8845,149.7809 L79.0525,192.0509 C82.6935,194.1539 87.1805,194.1539 90.8215,192.0509 L163.9895,149.7809 C167.6305,147.6779 169.8745,143.7899 169.8745,139.5829 L169.8745,55.0459 C169.8745,50.8379 167.6305,46.9509 163.9895,44.8469 Z" id="Fill-16" fill="#4842B7"></path> <g id="Group-15" transform="translate(625.000000, 53.628000)"></g> <g id="Group-18" transform="translate(0.000000, 0.628000)"></g> </g> </g> </svg> 