<?xml version="1.0" encoding="UTF-8" standalone="no"?>
<svg width="259px" height="31px" viewBox="0 0 259 31" version="1.1" xmlns="http://www.w3.org/2000/svg" xmlns:xlink="http://www.w3.org/1999/xlink">
    <!-- Generator: Sketch 3.8.2 (29753) - http://www.bohemiancoding.com/sketch -->
    <title>Birchbox Logo</title>
    <desc>Created with Sketch.</desc>
    <defs></defs>
    <g id="Page-1" stroke="none" stroke-width="1" fill="none" fill-rule="evenodd">
        <g id="Birchbox-Logo" fill="#231F20">
            <g id="Layer_1">
                <rect id="Rectangle-path" transform="translate(249.181460, 15.410920) rotate(-45.000000) translate(-249.181460, -15.410920) " x="242.681522" y="8.91098234" width="12.9998753" height="12.9998753"></rect>
                <path d="M21.8,15.2 C23.4,13.7 24.4,11.6 24.4,9.3 C24.4,4.9 20.8,1.3 16.4,1.3 L3.9,1.3 L0.2,1.3 L0.2,5 L0.2,25.6 L0.2,29.3 L3.9,29.3 L16.9,29.3 C21.3,29.3 24.9,25.7 24.9,21.3 C24.9,19 23.7,16.7 21.8,15.2 L21.8,15.2 Z M3.9,5.1 L16.5,5.1 C18.8,5.1 20.7,7 20.7,9.3 C20.7,11.6 18.8,13.5 16.5,13.5 L3.9,13.5 L3.9,5.1 L3.9,5.1 Z M17,25.7 L4,25.7 L4,17.2 L16.6,17.2 L17,17.2 C19.3,17.2 21.2,19.1 21.2,21.4 C21.2,23.8 19.3,25.7 17,25.7 L17,25.7 Z M164.6,15.2 C166.2,13.7 167.3,11.6 167.3,9.3 C167.3,4.9 163.7,1.3 159.3,1.3 L146.7,1.3 L143,1.3 L143,5 L143,25.6 L143,29.3 L146.7,29.3 L159.7,29.3 C164.1,29.3 167.7,25.7 167.7,21.3 C167.7,19 166.4,16.7 164.6,15.2 L164.6,15.2 Z M146.7,5.1 L159.3,5.1 C161.6,5.1 163.5,7 163.5,9.3 C163.5,11.6 161.6,13.5 159.3,13.5 L146.7,13.5 L146.7,5.1 L146.7,5.1 Z M159.7,25.7 L146.7,25.7 L146.7,17.2 L159.3,17.2 L159.7,17.2 C162,17.2 163.9,19.1 163.9,21.4 C163.9,23.8 162,25.7 159.7,25.7 L159.7,25.7 Z M33.1,1.4 L36.8,1.4 L36.8,29.5 L33.1,29.5 L33.1,1.4 L33.1,1.4 Z M189.1,0.7 C181,0.7 174.4,7.3 174.4,15.4 C174.4,23.5 181,30.1 189.1,30.1 C197.2,30.1 203.8,23.5 203.8,15.4 C203.8,7.3 197.2,0.7 189.1,0.7 L189.1,0.7 Z M189.1,26.4 C183,26.4 178.1,21.5 178.1,15.4 C178.1,9.3 183,4.4 189.1,4.4 C195.2,4.4 200.1,9.3 200.1,15.4 C200.1,21.5 195.2,26.4 189.1,26.4 L189.1,26.4 Z M77.8,15.4 C77.8,21.5 82.7,26.4 88.8,26.4 C92.4,26.4 95.8,24.6 97.9,21.6 L99,20.1 L102.1,22.2 L101,23.7 C98.3,27.7 93.7,30.1 88.9,30.1 C80.8,30.1 74.2,23.5 74.2,15.4 C74.2,7.3 80.8,0.7 88.9,0.7 C93.8,0.7 98.3,3.1 101,7.1 L102.1,8.6 L99,10.7 L97.9,9.2 C95.8,6.2 92.5,4.4 88.8,4.4 C82.7,4.4 77.8,9.4 77.8,15.4 L77.8,15.4 Z M130,1.4 L133.7,1.4 L133.7,29.5 L130,29.5 L130,17.8 L113,17.8 L113,29.4 L109.3,29.4 L109.3,1.4 L113,1.4 L113,14.1 L130,14.1 L130,1.4 L130,1.4 Z M60.7,17.3 C65.1,17.3 68.7,13.7 68.7,9.3 C68.7,4.9 65.1,1.3 60.7,1.3 L49.6,1.3 L45.9,1.3 L45.9,5 L45.9,29.4 L49.6,29.4 L49.6,17.3 L54.3,17.3 L64,29.5 L68.8,29.5 L59.1,17.3 L60.7,17.3 L60.7,17.3 Z M49.6,13.6 L49.6,5.1 L60.7,5.1 C63,5.1 64.9,7 64.9,9.3 C64.9,11.6 63,13.5 60.7,13.5 L49.6,13.5 L49.6,13.6 Z M222.9,15 L234.7,29.4 L229.9,29.4 L220.5,18 L211.1,29.5 L206.3,29.5 L218.1,15 L206.9,1.4 L211.7,1.4 L220.5,12.1 L229.3,1.4 L234.1,1.4 L222.9,15 L222.9,15 Z" id="Shape"></path>
            </g>
        </g>
    </g>
</svg>