<?xml version="1.0" encoding="UTF-8" standalone="no"?>
<svg width="803px" height="380px" viewBox="0 0 803 380" version="1.1" xmlns="http://www.w3.org/2000/svg" xmlns:xlink="http://www.w3.org/1999/xlink">
    <!-- Generator: Sketch 3.8.2 (29753) - http://www.bohemiancoding.com/sketch -->
    <title>Dataiku_logo</title>
    <desc>Created with Sketch.</desc>
    <defs></defs>
    <g id="Page-1" stroke="none" stroke-width="1" fill="none" fill-rule="evenodd">
        <g id="Dataiku_logo">
            <g id="Calque_1">
                <path d="M239.2,109.3 C235.1,109.3 231.7,112.6 231.7,116.8 C231.7,120.9 235,124.3 239.2,124.3 C243.3,124.3 246.7,121 246.7,116.8 C246.6,112.6 243.3,109.3 239.2,109.3" id="Shape" fill="#00ACAB"></path>
                <path d="M175.5,20.1 C78.7,20.1 0.3,98.5 0.3,195.3 C0.3,292.1 78.7,370.5 175.5,370.5 C272.3,370.5 350.7,292.1 350.7,195.3 C350.7,98.5 272.2,20.1 175.5,20.1 L175.5,20.1 Z M274.1,251.2 L187.3,251.2 L187.3,237.2 L274.1,237.2 L274.1,251.2 L274.1,251.2 Z M260.4,118.1 C260.4,118.1 254.1,127.3 257.4,149 C263.5,189.7 242.2,226 204.2,226 L176.2,226 L176.2,237.2 L153.8,237.2 C148.3,237.2 137.3,236.3 132.3,241.1 C82.5,288.8 71.9,302.5 68.4,304.4 C66.2,305.6 65.6,303 65.6,303 L209.8,125.2 C209.8,93.2 244.8,84.6 258.8,108.4 L277.4,101.9 L260.4,118.1 L260.4,118.1 Z" id="Shape" fill="#00ACAB"></path>
                <path d="M518.1,165.9 L499.6,165.9 L499.6,150.6 L499.1,150.6 C496.6,159.9 485.7,169.1 472.2,169.1 C442.8,169.1 431.7,142.9 431.7,103.8 C431.7,77.9 435.9,38.5 470.8,38.5 C481.9,38.5 493.7,45.2 498.1,55.9 L498.6,55.9 L498.6,0.6 L518,0.6 L518,165.9 L518.1,165.9 Z M474.8,152.5 C496.3,152.5 499.8,132.1 499.8,103.9 C499.8,79.8 495.6,55.3 474.8,55.3 C456.7,55.3 452.1,74.3 452.1,103.9 C452.1,133.5 456.7,152.5 474.8,152.5 L474.8,152.5 Z M542.8,79.4 C542.8,51.2 554.8,38.7 584.5,38.7 C622.2,38.7 622.2,61.4 622.2,74.4 L622.2,143.6 C622.2,148.7 622.2,153.6 628.2,153.6 C630.7,153.6 631.9,153.1 632.8,152.4 L632.8,166.3 C631.4,166.5 626.3,167.5 621.5,167.5 C614.1,167.5 604.8,167.5 603.9,151.5 L603.4,151.5 C597.1,162.6 585.1,169.3 573.5,169.3 C550.3,169.3 539.7,155.4 539.7,133.2 C539.7,115.8 547.1,103.8 563.1,98.9 L589.3,91 C603.4,86.6 603.4,82.7 603.4,72.2 C603.4,60.6 596.5,53.9 583.5,53.9 C562.2,53.9 562.2,73.8 562.2,78.2 L562.2,79.4 L542.8,79.4 L542.8,79.4 Z M602.8,98.3 C595.6,105.9 578.5,107.6 569.7,112.9 C563.4,116.8 560.2,121.7 560.2,132.6 C560.2,145.1 564.6,153.9 577.8,153.9 C590.5,153.9 602.8,143 602.8,130.3 L602.8,98.3 L602.8,98.3 Z M659,5.7 L678.4,5.7 L678.4,41.8 L700,41.8 L700,57.1 L678.5,57.1 L678.5,136.7 C678.5,146.7 681,150.6 691.2,150.6 C695.4,150.6 697.7,150.1 699.8,149.9 L699.8,165.9 C697.3,166.4 692.2,167.3 684.1,167.3 C664,167.3 659.1,159 659.1,142.8 L659.1,57.1 L641,57.1 L641,41.8 L659,41.8 L659,5.7 L659,5.7 Z M712.5,79.4 C712.5,51.2 724.5,38.7 754.2,38.7 C791.9,38.7 791.9,61.4 791.9,74.4 L791.9,143.6 C791.9,148.7 791.9,153.6 797.9,153.6 C800.4,153.6 801.6,153.1 802.5,152.4 L802.5,166.3 C801.1,166.5 796,167.5 791.2,167.5 C783.8,167.5 774.5,167.5 773.6,151.5 L773.1,151.5 C766.8,162.6 754.8,169.3 743.2,169.3 C720,169.3 709.4,155.4 709.4,133.2 C709.4,115.8 716.8,103.8 732.8,98.9 L759,91 C773.1,86.6 773.1,82.7 773.1,72.2 C773.1,60.6 766.2,53.9 753.2,53.9 C731.9,53.9 731.9,73.8 731.9,78.2 L731.9,79.4 L712.5,79.4 L712.5,79.4 Z M772.5,98.3 C765.3,105.9 748.2,107.6 739.4,112.9 C733.1,116.8 729.9,121.7 729.9,132.6 C729.9,145.1 734.3,153.9 747.5,153.9 C760.2,153.9 772.5,143 772.5,130.3 L772.5,98.3 L772.5,98.3 Z" id="Shape" fill="#494444"></path>
                <path d="M447.9,210.6 L467.3,210.6 L467.3,232.8 L447.9,232.8 L447.9,210.6 L447.9,210.6 Z M447.9,251.8 L467.3,251.8 L467.3,375.9 L447.9,375.9 L447.9,251.8 L447.9,251.8 Z M588.9,375.9 L566.2,375.9 L531.7,314.6 L515.7,334 L515.7,375.9 L496.3,375.9 L496.3,210.6 L515.7,210.6 L515.7,309 L516.2,309 L559.7,251.8 L582.4,251.8 L544.7,298.6 L588.9,375.9 L588.9,375.9 Z M683.1,375.9 L664.6,375.9 L664.6,361.3 L664.1,361.3 C659,372.6 646,379.1 634,379.1 C601.4,379.1 601.4,354.3 601.4,339.7 L601.4,251.7 L620.8,251.7 L620.8,337.4 C620.8,346.9 621.5,362.4 639.1,362.4 C649.5,362.4 663.6,355.5 663.6,337.4 L663.6,251.7 L683,251.7 L683,375.9 L683.1,375.9 Z" id="Shape" fill="#494444"></path>
            </g>
        </g>
    </g>
</svg>