<?xml version="1.0" encoding="UTF-8" standalone="no"?>
<svg width="527px" height="108px" viewBox="0 0 527 108" version="1.1" xmlns="http://www.w3.org/2000/svg" xmlns:xlink="http://www.w3.org/1999/xlink">
    <!-- Generator: Sketch 3.8.2 (29753) - http://www.bohemiancoding.com/sketch -->
    <title>groupemnh</title>
    <desc>Created with Sketch.</desc>
    <defs>
        <polygon id="path-1" points="0.838599197 38 39.4868034 38 39.4868034 0.529505013 0.838599197 0.529505013 0.838599197 38"></polygon>
    </defs>
    <g id="Page-1" stroke="none" stroke-width="1" fill="none" fill-rule="evenodd">
        <g id="groupemnh">
            <path d="M309.12,107.76 C306.419,107.08 305.376,104.969 304.541,102.599 C299.767,89.054 294.969,75.517 290.151,61.988 C289.631,60.527 288.979,59.107 288.299,57.71 C286.915,54.866 284.478,53.934 281.343,54.074 C280.842,56.813 280.347,59.549 279.841,62.282 C277.128,76.922 274.408,91.561 271.714,106.204 C271.599,106.826 271.426,107.094 270.749,107.091 C263.99,107.065 257.231,107.069 250.472,107.061 C250.398,107.061 250.323,107.017 250.114,106.952 C254.681,82.715 259.251,58.464 263.826,34.181 C264.138,34.156 264.372,34.118 264.605,34.12 C270.601,34.184 276.599,34.182 282.592,34.355 C284.773,34.417 286.938,34.938 289.119,35.165 C289.79,35.236 290.57,35.2 291.165,34.923 C316.715,23.036 343.303,14.312 370.89,8.598 C384.274,5.826 397.749,3.604 411.363,2.409 C421.824,1.49 432.32,0.95 442.799,0.232 C443.044,0.215 443.28,0.08 443.52,0 L474.72,0 C475.042,0.08 475.362,0.216 475.688,0.231 C480.432,0.45 485.181,0.58 489.92,0.877 C496.852,1.311 503.78,1.817 510.703,2.378 C515.834,2.795 520.955,3.348 526.08,3.84 L526.08,4.8 C525.726,6.326 525.371,7.852 525.015,9.383 C524.576,9.383 524.182,9.398 523.789,9.381 C512.492,8.909 501.2,8.293 489.899,8.007 C481.668,7.798 473.423,7.875 465.191,8.094 C455.568,8.349 445.935,8.652 436.341,9.382 C424.755,10.263 413.18,11.417 401.644,12.815 C388.521,14.404 375.522,16.816 362.604,19.653 C333.224,26.105 304.814,35.443 277.519,48.119 C275.542,49.038 273.583,49.996 271.574,50.955 C271.972,51.935 272.312,52.776 272.669,53.654 C273.024,53.501 273.276,53.394 273.526,53.283 C282.177,49.463 290.83,45.651 299.471,41.811 C300.322,41.433 300.945,41.392 301.461,42.296 C302.96,44.923 304.878,47.385 305.932,50.176 C308.494,56.963 310.662,63.898 312.986,70.774 C313.395,71.984 313.757,73.212 314.207,74.406 C314.347,74.778 314.719,75.343 314.961,75.331 C315.346,75.312 315.732,74.908 316.076,74.618 C316.25,74.472 316.334,74.219 316.458,74.014 C318.471,70.703 320.386,67.328 322.517,64.096 C326.298,58.362 329.968,52.53 334.125,47.075 C339.821,39.602 347.549,35.226 356.982,34.593 C363.386,34.164 369.839,34.287 376.264,34.417 C382.341,34.539 387.259,37.236 391.326,41.75 C399.164,50.449 407.108,59.054 415.023,67.684 C418.612,71.596 422.237,75.475 425.995,79.53 C428.99,64.334 431.949,49.327 434.902,34.346 L455.474,34.346 C453.83,43.283 452.2,52.145 450.561,61.056 C450.893,61.104 451.084,61.156 451.274,61.156 C465.394,61.16 479.513,61.156 493.632,61.175 C494.354,61.176 494.558,60.917 494.685,60.238 C495.685,54.861 496.734,49.494 497.768,44.123 C498.394,40.872 499.02,37.621 499.649,34.352 L520.673,34.352 C516.209,58.645 511.761,82.847 507.319,107.02 L486.221,107.02 C488.025,97.244 489.815,87.542 491.627,77.722 L490.125,77.722 C481.206,77.722 472.286,77.705 463.367,77.735 C461.331,77.742 459.291,77.838 457.263,78.014 C450.824,78.574 447.622,81.183 445.971,87.401 C444.948,91.256 444.143,95.169 443.28,99.065 C442.695,101.707 442.178,104.364 441.617,107.079 C438.387,107.079 435.23,107.05 432.075,107.086 C428.575,107.127 425.375,106.171 422.421,104.333 C419.011,102.211 416.381,99.251 413.78,96.26 C402.239,82.988 390.694,69.719 379.153,56.447 C378.883,56.138 378.636,55.809 378.192,55.258 C374.858,72.784 371.603,89.901 368.354,106.981 L347.285,106.981 C350.725,89.062 354.145,71.247 357.582,53.34 C354.85,53.42 352.47,54.057 350.353,55.565 C347.96,57.271 346.24,59.575 344.692,62.013 C337.881,72.737 331.101,83.479 324.288,94.202 C321.932,97.909 319.526,101.585 317.116,105.257 C316.231,106.606 314.908,107.294 313.326,107.522 C313.117,107.552 312.922,107.678 312.72,107.76 L309.12,107.76 Z" id="Fill-1" fill="#0069B4"></path>
            <g id="Group-5" transform="translate(77.000000, 69.760000)">
                <mask id="mask-2" fill="white">
                    <use xlink:href="#path-1"></use>
                </mask>
                <g id="Clip-4"></g>
                <path d="M20.0868,7.9622 C13.8788,7.9602 9.2638,12.7222 9.2018,19.1942 C9.1408,25.5102 14.0098,30.5812 20.1488,30.5952 C26.3198,30.6092 30.9958,25.7512 30.9998,19.3212 C31.0038,12.8602 26.2998,7.9642 20.0868,7.9622 L20.0868,7.9622 Z M17.0798,38.0002 C16.2968,37.7732 15.5178,37.5262 14.7288,37.3212 C6.0518,35.0662 0.3878,27.3022 0.8668,18.3102 C1.3468,9.2932 8.0028,1.9792 16.8788,0.7822 C24.3018,-0.2188 30.7798,1.6862 35.4838,7.7152 C44.3318,19.0562 37.7168,35.3812 23.4378,37.7542 C23.2308,37.7892 23.0388,37.9162 22.8398,38.0002 L17.0798,38.0002 Z" id="Fill-3" fill="#0069B4" mask="url(#mask-2)"></path>
            </g>
            <path d="M0,86.4 C0.572,84.591 0.929,82.675 1.755,80.99 C5.19,73.984 10.968,70.518 18.708,70.291 C23.068,70.162 27.206,71.001 30.902,73.478 C33.053,74.92 33.641,77.301 32.319,79.273 C31.057,81.158 28.593,81.525 26.512,80.101 C23.031,77.72 19.242,76.909 15.255,78.366 C9.735,80.381 7.016,86.966 8.985,93.051 C10.764,98.55 16.153,101.455 22.196,100.173 C26.476,99.265 26.745,98.939 26.742,94.681 C26.741,94.215 26.742,93.748 26.742,93.161 C24.924,93.161 23.254,93.17 21.584,93.158 C19.425,93.143 18.004,91.868 17.906,89.88 C17.811,87.965 19.2,86.32 21.265,86.246 C24.379,86.134 27.503,86.124 30.616,86.251 C33.075,86.351 34.51,88.043 34.521,90.521 C34.534,93.359 34.528,96.198 34.523,99.036 C34.519,101.289 33.633,103.026 31.639,104.195 C28.676,105.932 25.54,107.138 22.116,107.552 C21.939,107.574 21.772,107.689 21.6,107.76 L16.08,107.76 C15.915,107.678 15.758,107.551 15.583,107.52 C7.367,106.023 2.206,101.298 0.312,93.103 C0.255,92.858 0.106,92.634 0,92.4 L0,86.4" id="Fill-6" fill="#006BB5"></path>
            <path d="M135.84,107.76 C135.091,107.565 134.344,107.365 133.593,107.177 C127.664,105.692 123.933,101.573 123.147,95.477 C122.903,93.583 122.868,91.654 122.854,89.74 C122.816,84.662 122.82,79.583 122.853,74.505 C122.867,72.426 124.342,70.848 126.359,70.597 C128.3,70.355 130.154,71.552 130.672,73.441 C130.817,73.969 130.831,74.545 130.832,75.1 C130.843,80.578 130.811,86.057 130.852,91.535 C130.87,94.015 131.28,96.435 133.175,98.258 C135.522,100.516 138.361,100.717 141.335,99.904 C144.102,99.148 145.527,97.12 146.109,94.442 C146.311,93.513 146.383,92.541 146.387,91.588 C146.412,85.989 146.394,80.391 146.402,74.793 C146.406,72.386 147.964,70.687 150.234,70.575 C152.423,70.466 154.356,72.003 154.362,74.329 C154.381,81.318 154.586,88.339 154.004,95.287 C153.415,102.315 148.614,106.614 141.624,107.521 C141.37,107.554 141.128,107.678 140.88,107.76 L135.84,107.76 Z" id="Fill-8" fill="#0069B4"></path>
            <path d="M50.1944,88.3186 C53.4484,88.3186 56.6434,88.4786 59.8134,88.2686 C62.4014,88.0966 64.0734,86.1076 64.1804,83.6726 C64.3064,80.8176 63.0234,78.7636 60.1984,78.4696 C56.9054,78.1266 53.5504,78.3896 50.1944,78.3896 L50.1944,88.3186 Z M50.1244,95.5606 C50.1244,98.2296 50.1304,100.7066 50.1224,103.1836 C50.1154,105.6796 48.4094,107.4946 46.0974,107.4806 C43.7784,107.4676 42.1054,105.6736 42.1034,103.1646 C42.0984,93.8486 42.0974,84.5326 42.1044,75.2176 C42.1064,72.4866 43.6894,70.8936 46.4224,70.9076 C51.3374,70.9316 56.2604,70.8386 61.1664,71.0776 C66.6644,71.3446 70.9694,74.7956 71.9584,79.5396 C73.2134,85.5576 71.6354,91.1146 65.1844,94.0226 C66.7934,95.9856 68.3804,97.9186 69.9634,99.8536 C70.3424,100.3176 70.7384,100.7716 71.0784,101.2636 C72.2684,102.9916 72.2254,104.8856 70.9914,106.2216 C69.7644,107.5506 67.6014,107.8856 65.9244,106.9046 C65.2854,106.5306 64.6934,106.0006 64.2264,105.4226 C61.8424,102.4696 59.4874,99.4916 57.1664,96.4876 C56.6564,95.8256 56.1394,95.5036 55.2764,95.5406 C53.6094,95.6096 51.9374,95.5606 50.1244,95.5606 L50.1244,95.5606 Z" id="Fill-10" fill="#006BB5"></path>
            <path d="M205.0125,92.4406 L205.0125,100.0396 L206.3425,100.0396 C211.2625,100.0396 216.1815,100.0366 221.1005,100.0406 C223.2965,100.0426 224.7935,101.3516 224.9005,103.3466 C225.0135,105.4196 223.6645,106.9036 221.4395,107.1406 C221.0825,107.1786 220.7215,107.1766 220.3615,107.1766 C214.2025,107.1786 208.0435,107.1816 201.8835,107.1766 C198.4405,107.1746 197.0005,105.7286 196.9995,102.2936 C196.9985,93.4146 196.9985,84.5356 196.9995,75.6566 C197.0005,72.3406 198.4325,70.9016 201.7285,70.9016 C208.0875,70.9006 214.4465,70.8946 220.8055,70.9056 C223.0295,70.9086 224.5825,72.3166 224.6415,74.3296 C224.7055,76.5206 223.2135,78.0206 220.8615,78.0326 C216.0625,78.0576 211.2625,78.0406 206.4635,78.0406 L205.0575,78.0406 L205.0575,85.3016 L209.8585,85.3016 C212.6975,85.3016 215.5375,85.2896 218.3775,85.3056 C220.7165,85.3186 222.3305,86.7866 222.3545,88.8846 C222.3795,90.9896 220.7825,92.4336 218.3975,92.4386 C214.3585,92.4456 210.3185,92.4406 206.2795,92.4406 L205.0125,92.4406" id="Fill-12" fill="#006BB5"></path>
            <path d="M170.5868,89.0093 C173.2468,89.0093 175.8058,89.1903 178.3268,88.9603 C181.0698,88.7103 182.8038,86.6603 183.0578,83.9153 C183.2818,81.5073 181.8748,79.2733 179.5058,78.5833 C176.5898,77.7353 173.5978,78.2793 170.5868,78.1153 L170.5868,89.0093 Z M170.5378,96.2403 C170.5378,98.6333 170.5638,100.7883 170.5308,102.9433 C170.4978,105.1603 169.5528,106.6443 167.8868,107.2203 C165.1568,108.1633 162.5018,106.3123 162.4848,103.4123 C162.4598,99.2143 162.4788,95.0153 162.4788,90.8173 C162.4788,85.6183 162.4748,80.4203 162.4798,75.2223 C162.4828,72.4923 164.0578,70.8943 166.7958,70.9083 C171.1108,70.9293 175.4438,70.7653 179.7388,71.0843 C189.4748,71.8093 194.6358,82.7653 189.0718,90.7183 C186.4028,94.5333 182.4248,95.9413 177.9898,96.2143 C175.5688,96.3633 173.1318,96.2403 170.5378,96.2403 L170.5378,96.2403 Z" id="Fill-14" fill="#006BB5"></path>
        </g>
    </g>
</svg>