<?xml version="1.0" encoding="UTF-8" standalone="no"?>
<svg width="339px" height="104px" viewBox="0 0 339 104" version="1.1" xmlns="http://www.w3.org/2000/svg" xmlns:xlink="http://www.w3.org/1999/xlink">
    <!-- Generator: Sketch 3.8.2 (29753) - http://www.bohemiancoding.com/sketch -->
    <title>keldoc</title>
    <desc>Created with Sketch.</desc>
    <defs></defs>
    <g id="Page-1" stroke="none" stroke-width="1" fill="none" fill-rule="evenodd">
        <g id="keldoc">
            <path d="M11.2,75.3 C11.2,78.6 9.5,80.4 6.3,80.4 L4.7,80.4 C1.7,80.4 0,78.7 0,75.3 L0,35.9 C0,32.5 1.7,30.8 4.7,30.8 L6.3,30.8 C9.5,30.8 11.2,32.5 11.2,35.9 L11.2,53.3 L27.2,34.4 C29.3,31.6 31.3,30.8 33.3,30.8 C37.5,30.8 39.8,34.7 39.5,35.3 L23,55.1 L40.1,75.9 C40.5,76.5 37.8,80.3 33.5,80.3 C31.3,80.3 29.3,79.4 27.4,76.8 L11.2,57.4 L11.2,75.3 Z" id="Fill-1" fill="#6E6E6F"></path>
            <path d="M70.2,58.3 C70,53.2 66.7,49.8 61.6,49.8 C56.6,49.8 52.8,53.3 52.2,58.3 L70.2,58.3 Z M62.8,73.2 C68.4,73.2 71.5,70.7 73.2,67.8 C73.3,67.6 78.3,68.3 78.3,72.6 C78.3,76.5 72.6,81 62.4,81 C50.4,81 42.5,73.5 42.5,61.9 C42.5,50.6 50.6,42.3 61.8,42.3 C72.7,42.3 80.2,49.9 80.2,60.7 L80.2,61.5 C80.1,63.4 79.6,64.4 77.6,64.4 L52.2,64.4 C52.9,70 57.1,73.2 62.8,73.2 L62.8,73.2 Z" id="Fill-3" fill="#6E6E6F"></path>
            <path d="M86.3,75.3 L86.3,28.7 C86.3,28.3 88.2,27.5 90.3,27.5 C93.5,27.5 96.9,29.2 96.9,36 L96.9,75.2 C96.9,79.1 94.9,80.3 92.2,80.3 L91.1,80.3 C88.4,80.3 86.3,79.2 86.3,75.3" id="Fill-5" fill="#6E6E6F"></path>
            <path d="M120.8,76.7 C135.4,76.7 143.7,68.8 143.7,55.6 C143.7,42.5 135.3,34.5 121,34.5 L111,34.5 L111,76.7 L120.8,76.7 M107.2,77.8 L107.2,33.4 C107.2,32.1 108.1,31.1 109.4,31.1 L121,31.1 C137.8,31.1 147.7,40.2 147.7,55.4 C147.7,70.7 137.6,79.9 120.7,79.9 L109.5,79.9 C108.1,80 107.2,79 107.2,77.8" id="Fill-7" fill="#6E6E6F"></path>
            <path d="M186.5,62.3 C186.5,53.5 180.4,46.7 171.9,46.7 C163.4,46.7 157.2,53.3 157.2,62.1 C157.2,70.9 163.4,77.6 171.9,77.6 C180.4,77.6 186.5,71 186.5,62.3 M153.7,62.1 C153.7,51.4 161.3,43.5 172,43.5 C182.6,43.5 190.2,51.5 190.2,62.2 C190.2,72.8 182.6,80.7 172,80.7 C161.2,80.8 153.7,72.8 153.7,62.1" id="Fill-9" fill="#6E6E6F"></path>
            <path d="M195.8,62.1 C195.8,51.4 203.4,43.5 214,43.5 C220,43.5 224,45.7 226.4,48.1 C228.3,50.1 229.1,52.1 229.1,53.2 C229.1,54.9 226.9,55.2 226.8,55 C225.1,50.7 221.4,46.7 214,46.7 C205.5,46.7 199.4,53.3 199.4,62.1 C199.4,70.9 205.4,77.6 214,77.6 C221.4,77.6 225.1,73.6 226.8,69.3 C227,69.1 229.1,69.5 229.1,71.1 C229.1,72.2 228.3,74.2 226.2,76.2 C223.9,78.6 219.9,80.7 214,80.7 C203.3,80.8 195.8,72.8 195.8,62.1" id="Fill-11" fill="#6E6E6F"></path>
            <path d="M289.8957,70.7992 C289.2317,71.3202 288.7997,72.0752 288.7997,72.9002 C288.7997,73.9512 289.4097,74.8212 290.3057,75.3002 C290.7737,75.5502 291.3167,75.7002 291.8997,75.7002 C292.7387,75.7002 293.5027,75.3812 294.0637,74.8812 C294.6387,74.3662 294.9997,73.6602 294.9997,72.9002 C294.9997,72.0922 294.6417,71.3872 294.0687,70.8862 C293.5077,70.3952 292.7417,70.1002 291.8997,70.1002 C291.1347,70.1002 290.4387,70.3722 289.8957,70.7992" id="Fill-13" fill="#D68C29"></path>
            <path d="M329.6,33.9 L312.3,33.9 C312.6,34.8 312.8,35.7 312.8,36.6 C313.6,44.4 308,48.5 303.9,51.4 L303.7,51.5 C298.8,55.1 294.2,58.5 295,66.6 L295,66.9 C297.5,67.9 299.3,70.2 299.3,72.8 C299.3,76.4 296.1,79.3 292.1,79.3 C288.1,79.3 284.9,76.4 284.9,72.8 C284.9,70.2 286.6,67.9 289.1,66.9 L289.1,66.8 C288.3,55.7 294.5,51.2 299.1,47.9 C303.5,44.7 306.7,42.1 306.2,37.4 L306.2,37.2 C309.7,32 311.9,25.4 311.9,19.9 C311.9,13.462 308.872,7.76 304.187,4.124 C300.867,1.547 296.72,1.42108547e-14 292.2,1.42108547e-14 C288.214,1.42108547e-14 284.516,1.2 281.419,3.247 C276.048,6.799 272.5,12.922 272.5,19.9 C272.5,25.5 274.8,32.2 278.4,37.4 C277.8,39.1 277.5,40.7 277.4,41.8 L277.4,42 L277.3,42.1 C277,42.6 276.3,42.6 276.1,42.6 C274.5,42.6 272.1,41.8 271.9,39.5 C271.8,38.3 272.1,36.1 273.2,33.8 L252.6,33.8 C248,33.8 244.2,37.2 244.2,41.4 L244,66.4 C244,66.466 244.009,66.53 244.011,66.596 C244.055,68.152 244.618,69.59 245.551,70.778 C247.079,72.725 249.587,74 252.4,74 L270,74 L270,95.6 C270,95.81 270.016,96.017 270.035,96.222 C270.389,100.13 274.03,103.2 278.4,103.2 L306,103.2 C310.6,103.2 314.4,99.8 314.4,95.6 L314.4,94.965 L314.4,74 L329.6,74 C332.321,74 334.755,72.804 336.296,70.963 C337.359,69.691 338,68.115 338,66.4 L338,66.355 L338.2,41.4 C337.9,37.3 334.2,33.9 329.6,33.9" id="Fill-15" fill="#D68C29"></path>
        </g>
    </g>
</svg>