<?xml version="1.0" encoding="UTF-8"?> <svg xmlns="http://www.w3.org/2000/svg" width="160" height="24" viewBox="0 0 160 24" fill="none"> <path fill-rule="evenodd" clip-rule="evenodd" d="M57.9988 10.3582C57.5658 7.28824 55.6768 6.22624 53.5908 6.22624C51.0708 6.22624 49.3398 7.68324 48.7888 10.3582H57.9988ZM63.3518 18.3082C60.9118 21.5782 57.7628 23.3082 53.7478 23.3082C48.5918 23.3082 43.6318 20.0432 43.6318 12.8002C43.6318 6.18724 47.8838 2.44824 53.4338 2.44824C58.6278 2.44824 60.7938 5.55824 61.1878 6.14824C62.8008 8.43324 63.1558 11.8562 63.1948 13.8232H48.6318C49.1818 16.9332 51.1118 18.7032 54.2198 18.7032C57.4488 18.7032 58.7478 16.8152 59.3398 15.9892L63.3518 18.3092V18.3082Z" fill="#FF4C4C"></path> <path fill-rule="evenodd" clip-rule="evenodd" d="M85.6779 3.03809H90.5959L84.6929 22.7181H80.0109L76.4669 10.1631L72.6889 22.7181H68.0449L62.3369 3.03809H67.2569L70.6819 16.5001L74.3419 3.04009H78.5539L82.1739 16.5001L85.6779 3.03809Z" fill="#FF4C4C"></path> <path fill-rule="evenodd" clip-rule="evenodd" d="M25.1382 3.03824H29.9022V5.36324C30.3052 4.75347 30.8265 4.2308 31.4352 3.82624C32.6162 2.96124 34.4262 2.44824 35.9612 2.44824C38.2052 2.44824 40.1352 3.47224 41.1192 4.80924C42.3372 6.46224 42.3372 8.58724 42.3372 11.1492V22.7192H37.6542V12.6822C37.6542 11.2242 37.6542 10.2412 37.4972 9.69024C37.0642 7.96024 35.8042 7.05124 34.2692 7.05124C32.7352 7.05124 31.3182 7.95924 30.6482 9.25824C29.9022 10.7112 29.9022 12.7182 29.9022 14.1752V22.7172H25.1382V3.03824V3.03824Z" fill="#FF4C4C"></path> <path fill-rule="evenodd" clip-rule="evenodd" d="M93.0772 16.8942C94.2582 18.3502 96.0272 19.4122 98.7472 19.4122C101.46 19.4122 102.645 18.0752 102.645 17.0922C102.645 15.8302 101.228 15.5162 100.595 15.3992C99.9252 15.2392 96.6992 14.6492 95.9902 14.4542C91.3042 13.3502 90.4402 10.6342 90.4402 8.86424C90.4402 5.51724 93.4702 2.44824 98.8602 2.44824C101.855 2.44824 104.02 3.39224 105.358 4.33724C106.116 4.82087 106.794 5.41897 107.368 6.11024L104.021 9.21824C103.469 8.15624 102.131 6.22624 98.6672 6.22624C96.4242 6.22624 95.4002 7.21124 95.4002 8.23324C95.4002 9.64924 96.8552 10.0442 99.3732 10.4782C103.469 11.2252 104.611 11.4232 105.867 12.4052C107.09 13.3502 107.876 14.9252 107.876 16.5792C107.876 19.6492 105.122 23.3092 99.0212 23.3092C95.5132 23.3092 92.0532 22.2072 89.5742 19.8052L93.0772 16.8952V16.8942Z" fill="#FF4C4C"></path> <path fill-rule="evenodd" clip-rule="evenodd" d="M128.65 13.9683C128.344 11.7933 127.006 11.0393 125.526 11.0393C123.741 11.0393 122.516 12.0723 122.125 13.9693H128.65V13.9683ZM132.442 19.6013C130.714 21.9143 128.482 23.1403 125.639 23.1403C121.986 23.1403 118.474 20.8293 118.474 15.6973C118.474 11.0123 121.484 8.36426 125.417 8.36426C129.095 8.36426 130.629 10.5673 130.909 10.9843C132.051 12.6013 132.303 15.0283 132.332 16.4223H122.016C122.404 18.6243 123.771 19.8793 125.973 19.8793C128.26 19.8793 129.181 18.5413 129.599 17.9553L132.442 19.6013V19.6013Z" fill="#FF4C4C"></path> <path fill-rule="evenodd" clip-rule="evenodd" d="M134.903 18.5983C135.741 19.6313 136.996 20.3813 138.919 20.3813C140.842 20.3813 141.679 19.4343 141.679 18.7363C141.679 17.8463 140.676 17.6203 140.229 17.5363C139.757 17.4263 137.469 17.0083 136.969 16.8703C133.649 16.0883 133.036 14.1633 133.036 12.9103C133.036 10.5403 135.184 8.36426 139.003 8.36426C141.123 8.36426 142.656 9.03226 143.603 9.70226C144.303 10.1493 144.747 10.6223 145.026 10.9573L142.656 13.1593C142.266 12.4053 141.319 11.0393 138.862 11.0393C137.272 11.0393 136.551 11.7393 136.551 12.4623C136.551 13.4663 137.581 13.7453 139.367 14.0523C142.266 14.5813 143.074 14.7223 143.966 15.4183C144.831 16.0883 145.387 17.2033 145.387 18.3723C145.387 20.5483 143.437 23.1403 139.115 23.1403C136.632 23.1403 134.181 22.3613 132.424 20.6623L134.903 18.5983Z" fill="#FF4C4C"></path> <path fill-rule="evenodd" clip-rule="evenodd" d="M149.524 3.03809V14.1081L155.387 8.36409H159.65L153.902 14.1091L159.759 22.7231H155.686L151.476 16.4791L149.524 18.4011V22.7231H146.207V3.03809H149.524Z" fill="#FF4C4C"></path> <path fill-rule="evenodd" clip-rule="evenodd" d="M0 8.36375H2.493V9.83175C3.33 8.78475 4.816 8.34375 5.8 8.34375C6.785 8.34375 8.02 8.72075 8.712 9.95675C9.131 9.37075 10.22 8.34375 12.064 8.34375C13.109 8.34375 14.115 8.63675 14.827 9.41175C15.666 10.3337 15.645 11.4458 15.645 12.5328V19.1287H13.151V13.3498C13.151 12.3648 13.298 10.7098 11.393 10.7098C11.0372 10.7096 10.6873 10.7998 10.3759 10.9719C10.0646 11.144 9.80206 11.3924 9.613 11.6938C9.131 12.4668 9.068 13.3058 9.068 14.2078V19.1278H6.577V13.2838C6.577 12.5318 6.577 12.2578 6.493 11.9438C6.303 11.2538 5.76 10.7087 4.879 10.7087C4.125 10.7087 3.393 11.1487 2.954 11.9237C2.514 12.7387 2.493 13.7238 2.493 14.7498V19.1278H0V8.36375Z" fill="#FF4C4C"></path> <path fill-rule="evenodd" clip-rule="evenodd" d="M23.74 8.34375H22.556L20.566 16.1588L18.243 8.34375H15.54L19.329 19.0268C19.329 19.2358 19.036 19.6958 18.742 19.8838C18.345 20.1538 17.8 20.1537 17.612 20.1537C17.362 20.1537 17.172 20.1358 16.942 20.0958V22.2927C17.235 22.3347 17.633 22.4207 18.449 22.4207C20.397 22.4207 21.172 21.6448 21.886 19.4438L22.471 17.4748L23.739 13.1237V8.34375H23.74Z" fill="#FF4C4C"></path> <path fill-rule="evenodd" clip-rule="evenodd" d="M114.383 3.03779V9.92579C113.325 8.75579 112.013 8.36379 110.646 8.36379C108.602 8.36379 106.999 9.29979 105.914 10.7668C106.187 10.9248 106.45 11.0978 106.718 11.3018C107.392 11.8288 107.923 12.5028 108.348 13.2448C108.88 12.1928 109.801 11.4588 111.15 11.4588C112.264 11.4588 113.1 11.9888 113.602 12.7408C114.215 13.6608 114.328 14.9438 114.355 15.8368C114.383 18.8488 112.82 20.1288 111.093 20.1288C109.983 20.1288 109.268 19.6308 108.78 18.9808C108.359 20.0862 107.695 21.0825 106.836 21.8958C107.886 22.7096 109.178 23.1477 110.506 23.1398C111.958 23.1398 113.352 22.6398 114.383 21.3848V22.7228H117.702V0.00878906L114.382 3.03879L114.383 3.03779Z" fill="#FF4C4C"></path> <path fill-rule="evenodd" clip-rule="evenodd" d="M156.428 3.32527V5.51327H156.093V3.32527H155.35V3.03027H157.169V3.32427L156.428 3.32527Z" fill="#FF4C4C"></path> <path fill-rule="evenodd" clip-rule="evenodd" d="M159.662 3.0332V5.5132H159.332L159.38 3.4352L158.599 5.5132H158.343L157.573 3.4682L157.607 5.5132H157.284V3.0332H157.711L158.471 5.0682L159.235 3.0332H159.662Z" fill="#FF4C4C"></path> <path fill-rule="evenodd" clip-rule="evenodd" d="M57.9988 10.3582C57.5658 7.28824 55.6768 6.22624 53.5908 6.22624C51.0708 6.22624 49.3398 7.68324 48.7888 10.3582H57.9988ZM63.3518 18.3082C60.9118 21.5782 57.7628 23.3082 53.7478 23.3082C48.5918 23.3082 43.6318 20.0432 43.6318 12.8002C43.6318 6.18724 47.8838 2.44824 53.4338 2.44824C58.6278 2.44824 60.7938 5.55824 61.1878 6.14824C62.8008 8.43324 63.1558 11.8562 63.1948 13.8232H48.6318C49.1818 16.9332 51.1118 18.7032 54.2198 18.7032C57.4488 18.7032 58.7478 16.8152 59.3398 15.9892L63.3518 18.3092V18.3082Z" fill="#FF4C4C"></path> <path fill-rule="evenodd" clip-rule="evenodd" d="M85.6779 3.03809H90.5959L84.6929 22.7181H80.0109L76.4669 10.1631L72.6889 22.7181H68.0449L62.3369 3.03809H67.2569L70.6819 16.5001L74.3419 3.04009H78.5539L82.1739 16.5001L85.6779 3.03809Z" fill="#FF4C4C"></path> <path fill-rule="evenodd" clip-rule="evenodd" d="M25.1382 3.03824H29.9022V5.36324C30.3052 4.75347 30.8265 4.2308 31.4352 3.82624C32.6162 2.96124 34.4262 2.44824 35.9612 2.44824C38.2052 2.44824 40.1352 3.47224 41.1192 4.80924C42.3372 6.46224 42.3372 8.58724 42.3372 11.1492V22.7192H37.6542V12.6822C37.6542 11.2242 37.6542 10.2412 37.4972 9.69024C37.0642 7.96024 35.8042 7.05124 34.2692 7.05124C32.7352 7.05124 31.3182 7.95924 30.6482 9.25824C29.9022 10.7112 29.9022 12.7182 29.9022 14.1752V22.7172H25.1382V3.03824V3.03824Z" fill="#FF4C4C"></path> <path fill-rule="evenodd" clip-rule="evenodd" d="M93.0772 16.8942C94.2582 18.3502 96.0272 19.4122 98.7472 19.4122C101.46 19.4122 102.645 18.0752 102.645 17.0922C102.645 15.8302 101.228 15.5162 100.595 15.3992C99.9252 15.2392 96.6992 14.6492 95.9902 14.4542C91.3042 13.3502 90.4402 10.6342 90.4402 8.86424C90.4402 5.51724 93.4702 2.44824 98.8602 2.44824C101.855 2.44824 104.02 3.39224 105.358 4.33724C106.116 4.82087 106.794 5.41897 107.368 6.11024L104.021 9.21824C103.469 8.15624 102.131 6.22624 98.6672 6.22624C96.4242 6.22624 95.4002 7.21124 95.4002 8.23324C95.4002 9.64924 96.8552 10.0442 99.3732 10.4782C103.469 11.2252 104.611 11.4232 105.867 12.4052C107.09 13.3502 107.876 14.9252 107.876 16.5792C107.876 19.6492 105.122 23.3092 99.0212 23.3092C95.5132 23.3092 92.0532 22.2072 89.5742 19.8052L93.0772 16.8952V16.8942Z" fill="#FF4C4C"></path> <path fill-rule="evenodd" clip-rule="evenodd" d="M128.65 13.9683C128.344 11.7933 127.006 11.0393 125.526 11.0393C123.741 11.0393 122.516 12.0723 122.125 13.9693H128.65V13.9683ZM132.442 19.6013C130.714 21.9143 128.482 23.1403 125.639 23.1403C121.986 23.1403 118.474 20.8293 118.474 15.6973C118.474 11.0123 121.484 8.36426 125.417 8.36426C129.095 8.36426 130.629 10.5673 130.909 10.9843C132.051 12.6013 132.303 15.0283 132.332 16.4223H122.016C122.404 18.6243 123.771 19.8793 125.973 19.8793C128.26 19.8793 129.181 18.5413 129.599 17.9553L132.442 19.6013V19.6013Z" fill="#FF4C4C"></path> <path fill-rule="evenodd" clip-rule="evenodd" d="M134.903 18.5983C135.741 19.6313 136.996 20.3813 138.919 20.3813C140.842 20.3813 141.679 19.4343 141.679 18.7363C141.679 17.8463 140.676 17.6203 140.229 17.5363C139.757 17.4263 137.469 17.0083 136.969 16.8703C133.649 16.0883 133.036 14.1633 133.036 12.9103C133.036 10.5403 135.184 8.36426 139.003 8.36426C141.123 8.36426 142.656 9.03226 143.603 9.70226C144.303 10.1493 144.747 10.6223 145.026 10.9573L142.656 13.1593C142.266 12.4053 141.319 11.0393 138.862 11.0393C137.272 11.0393 136.551 11.7393 136.551 12.4623C136.551 13.4663 137.581 13.7453 139.367 14.0523C142.266 14.5813 143.074 14.7223 143.966 15.4183C144.831 16.0883 145.387 17.2033 145.387 18.3723C145.387 20.5483 143.437 23.1403 139.115 23.1403C136.632 23.1403 134.181 22.3613 132.424 20.6623L134.903 18.5983Z" fill="#FF4C4C"></path> <path fill-rule="evenodd" clip-rule="evenodd" d="M149.524 3.03809V14.1081L155.387 8.36409H159.65L153.902 14.1091L159.759 22.7231H155.686L151.476 16.4791L149.524 18.4011V22.7231H146.207V3.03809H149.524Z" fill="#FF4C4C"></path> <path fill-rule="evenodd" clip-rule="evenodd" d="M0 8.36375H2.493V9.83175C3.33 8.78475 4.816 8.34375 5.8 8.34375C6.785 8.34375 8.02 8.72075 8.712 9.95675C9.131 9.37075 10.22 8.34375 12.064 8.34375C13.109 8.34375 14.115 8.63675 14.827 9.41175C15.666 10.3337 15.645 11.4458 15.645 12.5328V19.1287H13.151V13.3498C13.151 12.3648 13.298 10.7098 11.393 10.7098C11.0372 10.7096 10.6873 10.7998 10.3759 10.9719C10.0646 11.144 9.80206 11.3924 9.613 11.6938C9.131 12.4668 9.068 13.3058 9.068 14.2078V19.1278H6.577V13.2838C6.577 12.5318 6.577 12.2578 6.493 11.9438C6.303 11.2538 5.76 10.7087 4.879 10.7087C4.125 10.7087 3.393 11.1487 2.954 11.9237C2.514 12.7387 2.493 13.7238 2.493 14.7498V19.1278H0V8.36375Z" fill="#FF4C4C"></path> <path fill-rule="evenodd" clip-rule="evenodd" d="M23.74 8.34375H22.556L20.566 16.1588L18.243 8.34375H15.54L19.329 19.0268C19.329 19.2358 19.036 19.6958 18.742 19.8838C18.345 20.1538 17.8 20.1537 17.612 20.1537C17.362 20.1537 17.172 20.1358 16.942 20.0958V22.2927C17.235 22.3347 17.633 22.4207 18.449 22.4207C20.397 22.4207 21.172 21.6448 21.886 19.4438L22.471 17.4748L23.739 13.1237V8.34375H23.74Z" fill="#FF4C4C"></path> <path fill-rule="evenodd" clip-rule="evenodd" d="M114.383 3.03779V9.92579C113.325 8.75579 112.013 8.36379 110.646 8.36379C108.602 8.36379 106.999 9.29979 105.914 10.7668C106.187 10.9248 106.45 11.0978 106.718 11.3018C107.392 11.8288 107.923 12.5028 108.348 13.2448C108.88 12.1928 109.801 11.4588 111.15 11.4588C112.264 11.4588 113.1 11.9888 113.602 12.7408C114.215 13.6608 114.328 14.9438 114.355 15.8368C114.383 18.8488 112.82 20.1288 111.093 20.1288C109.983 20.1288 109.268 19.6308 108.78 18.9808C108.359 20.0862 107.695 21.0825 106.836 21.8958C107.886 22.7096 109.178 23.1477 110.506 23.1398C111.958 23.1398 113.352 22.6398 114.383 21.3848V22.7228H117.702V0.00878906L114.382 3.03879L114.383 3.03779Z" fill="#FF4C4C"></path> </svg> 