<?xml version="1.0" encoding="UTF-8"?> <svg xmlns="http://www.w3.org/2000/svg" xmlns:xlink="http://www.w3.org/1999/xlink" width="5246px" height="1212px" viewBox="0 0 5246 1212"> <!-- Generator: Sketch 46.2 (44496) - http://www.bohemiancoding.com/sketch --> <title>meero</title> <desc>Created with Sketch.</desc> <defs></defs> <g id="Page-1" stroke="none" stroke-width="1" fill="none" fill-rule="evenodd"> <g id="meero" fill-rule="nonzero"> <path d="M1434.869,137.187417 C1392.7579,93.5699551 1341.96839,59.0767974 1285.71004,35.8877064 C1225.71306,11.5253442 1161.38987,-0.668452611 1096.54876,0.0282561615 C1012.6877,0.0282561615 937.716037,18.928905 873.725404,56.2123767 C840.044646,75.7967352 809.251782,99.8867647 782.21684,127.801821 C755.457679,100.094365 724.999743,76.1389588 691.688724,56.6007462 C628.286361,19.187818 553.576154,0.22244091 469.453638,0.22244091 C404.625708,-0.537613757 340.302665,11.5901243 280.292361,35.8877064 C224.005164,59.0590212 173.190786,93.5539457 131.068037,137.187417 C89.4122237,180.649531 56.611023,231.658976 34.4611382,287.421684 C11.2178269,346.201855 -0.473815348,408.837604 0.0146999041,471.961923 L0.0146999041,1212 L311.862816,1212 L311.862816,465.877468 C311.862816,414.547966 326.046644,374.222267 355.264021,342.893794 C383.370223,312.471517 419.646833,298.29603 469.453638,298.29603 C519.260442,298.29603 555.537052,312.471517 583.643254,342.893794 C612.860631,374.545908 627.044459,414.871607 627.044459,465.877468 L627.044459,1212 L938.957938,1212 L938.957938,465.877468 C938.957938,414.547966 953.141766,374.222267 982.359144,342.893794 C1010.46535,312.471517 1046.74196,298.29603 1096.54876,298.29603 C1146.35556,298.29603 1182.63217,312.471517 1210.73838,342.893794 C1239.95575,374.545908 1254.13958,414.871607 1254.13958,465.877468 L1254.13958,1212 L1565.9877,1212 L1565.9877,471.961923 C1566.43424,408.856279 1554.72097,346.245514 1531.4759,287.486412 C1509.31005,231.712492 1476.51118,180.684695 1434.869,137.187417 Z" id="Shape" fill="#000000"></path> <path d="M2298.02197,787.970413 C2276.44751,828.304017 2244.55285,862.319068 2205.5302,886.611123 C2162.65063,913.213047 2108.52824,926.740546 2044.60107,926.740546 C2008.05663,926.77508 1971.7991,920.352988 1937.53286,907.776157 C1903.14123,895.181517 1871.33925,876.519703 1843.66842,852.695288 C1814.79107,827.576087 1790.74154,797.490716 1772.68181,763.892759 C1764.60107,749.073062 1757.88489,733.562719 1752.61469,717.549748 L2644,717.549748 L2644,652.048174 C2644,551.789342 2627.20114,460.527267 2593.99562,380.721496 C2562.814,304.108549 2516.70444,234.324157 2458.29745,175.349466 C2346.11712,63.3300467 2193.46069,0.224004155 2034.14263,0.00977774088 C1952.27065,-0.461362394 1871.21138,16.0988473 1796.21328,48.6181593 C1651.03981,110.997203 1535.77053,226.435644 1474.42038,370.883315 C1375.55132,598.661111 1427.83388,863.165383 1606.13127,1037.22591 C1723.3409,1150.38548 1880.90521,1213.18454 2044.60107,1211.98307 C2183.04457,1211.98307 2303.25118,1178.19669 2401.82191,1111.59479 C2500.39264,1044.99289 2571.77145,949.782602 2613.86664,827.711486 L2298.02197,787.970413 Z M1789.74213,419.038622 C1809.14058,391.205707 1832.70188,366.456625 1859.61753,345.640613 C1884.90159,326.128423 1913.22714,310.825502 1943.48109,300.3332 C2002.4431,279.619694 2066.84354,279.848505 2125.65392,300.980449 C2155.65551,311.940271 2183.60117,327.777785 2208.34091,347.841259 C2234.40266,369.041653 2257.02128,394.08006 2275.40561,422.080691 C2278.15094,426.395683 2280.78734,430.581225 2283.3148,434.637317 L1780.00271,434.637317 C1783.05309,429.329877 1786.29956,424.130312 1789.74213,419.038622 Z" id="Shape" fill="#000000"></path> <path d="M3328.82172,787.970413 C3307.25107,828.304017 3275.36205,862.319068 3236.3463,886.611123 C3193.47431,913.213047 3139.36148,926.740546 3075.44562,926.740546 C3038.90764,926.77508 3002.65652,920.352988 2968.39634,907.776157 C2934.03388,895.174509 2902.2602,876.513011 2874.61385,852.695288 C2845.7416,827.576087 2821.69633,797.490716 2803.63978,763.892759 C2795.56047,749.073062 2788.84548,733.562719 2783.57621,717.549748 L3675,717.549748 L3675,652.048174 C3675,551.789342 3658.20411,460.527267 3625.00446,380.721496 C3593.82835,304.108549 3547.72694,234.324157 3489.33028,175.349466 C3377.12189,63.2823396 3224.41226,0.172322298 3065.05438,0.00977774088 C2983.19688,-0.461362394 2902.15194,16.0988473 2827.1671,48.6181593 C2682.01929,110.997203 2566.77039,226.435644 2505.43108,370.883315 C2406.56306,598.648126 2458.81005,863.150519 2637.05333,1037.22591 C2754.24225,1150.38548 2911.7787,1213.18454 3075.44562,1211.98307 C3213.86465,1211.98307 3334.05001,1178.19669 3432.60331,1111.59479 C3531.15662,1044.99289 3602.5228,949.782602 3644.61055,827.711486 L3328.82172,787.970413 Z M2820.63173,419.038622 C2840.02049,391.086111 2863.60117,366.226306 2890.56014,345.316989 C2915.83972,325.804799 2944.16027,310.501878 2974.40887,300.009576 C3033.36046,279.29607 3097.74951,279.524881 3156.54949,300.656825 C3186.54487,311.721984 3214.46437,327.669368 3239.15651,347.841259 C3265.21366,369.041653 3287.82827,394.08006 3306.20935,422.080691 C3308.95421,426.395683 3311.59014,430.581225 3314.11714,434.637317 L2810.89404,434.637317 C2813.94388,429.329877 2817.18977,424.130312 2820.63173,419.038622 L2820.63173,419.038622 Z" id="Shape" fill="#000000"></path> <path d="M3907.826,17.7178685 C3838.3398,34.8852886 3773.55834,67.0612392 3718.13353,111.935184 C3661.97333,158.451951 3617.446,217.185011 3588.03065,283.545296 C3556.82951,352.008153 3541,431.406949 3541,519.606263 L3541,1212 L3858.89843,1212 L3858.89843,515.335423 C3858.89843,435.224821 3879.63378,379.833322 3922.34729,346.054861 C3967.67725,310.20569 4031.6494,296.422525 4116.35691,304.252398 L4194,311.370465 L4194,11.8939959 L4131.46689,4.77592946 C4056.7502,-4.56572307 3980.93211,-0.178184582 3907.826,17.7178685 Z" id="Shape" fill="#000000"></path> <path d="M4814.23077,301.835113 L4814.23077,301.835113 L4990.76923,606 L5166,304.164887 C5058.03232,116.691461 4857.0204,0.674824364 4639,0 L4814.16538,301.640965 L4814.23077,301.835113 Z" id="Shape" fill="#FAB233"></path> <path d="M4867,393 C4850.78231,364.854626 4638.70983,0 4638.70983,0 L4637.20577,0 C4419.63158,0.0961480415 4218.64686,115.064883 4110,301.576062 L4717.24793,301.576062 C4750.72961,301.576062 4828.67916,326.809845 4867,393 Z" id="Shape" fill="#E8A235"></path> <path d="M4284.34762,606.327385 L4284.34762,606.327385 L4461,302 L4110.24688,302 C4001.02989,489.42389 4000.55661,720.138791 4109.00377,908 L4284.28219,606.197884 L4284.34762,606.327385 Z" id="Shape" fill="#E9504C"></path> <path d="M4332.65302,689.233813 C4316.70115,664.371017 4298.1996,581.49503 4336.90249,515 C4305.19489,568.998885 4109,907.495495 4109,907.495495 L4109.71914,908.790432 C4217.83085,1095.73918 4418.46707,1211.33301 4636,1212 L4332.65302,689.233813 Z" id="Shape" fill="#CC3E44"></path> <path d="M4813.83948,910 L4461,910 L4636.11293,1211.99957 C4853.94721,1212.25718 5055.29352,1097.06872 5164,910 L4813.83948,910 L4813.83948,910 Z" id="Shape" fill="#8EB8B6"></path> <path d="M5165.05803,304 L4861.85594,825.932131 C4844.60107,854.062533 4781.59464,910 4708,910 C4770.61427,910 5163.48941,910 5163.48941,910 L5164.27372,908.512645 C5272.96145,721.429557 5273.25995,491.358562 5165.05803,304 Z" id="Shape" fill="#77A1A5"></path> </g> </g> </svg> 