<?xml version="1.0" encoding="UTF-8" standalone="no"?>
<svg width="453px" height="188px" viewBox="0 0 453 188" version="1.1" xmlns="http://www.w3.org/2000/svg" xmlns:xlink="http://www.w3.org/1999/xlink">
    <!-- Generator: Sketch 3.8.2 (29753) - http://www.bohemiancoding.com/sketch -->
    <title>Stripe Logo</title>
    <desc>Created with Sketch.</desc>
    <defs></defs>
    <g id="Page-1" stroke="none" stroke-width="1" fill="none" fill-rule="evenodd">
        <g id="Stripe-Logo" fill="#000000">
            <path d="M396.7,87.5 C397.6,72.7 401.6,65.8 409.2,65.8 C416.7,65.8 420.5,72.9 421.1,87.5 L396.7,87.5 L396.7,87.5 Z M452.2,96.3 C452.2,79.8 448.6,66.7 441.5,57.5 C434.3,48.2 423.5,43.4 409.8,43.4 C381.7,43.4 364.2,64.2 364.2,97.5 C364.2,116.2 368.9,130.2 378.1,139.1 C386.4,147.1 398.2,151.1 413.6,151.1 C427.7,151.1 440.8,147.8 449.1,142.3 L445.5,119.6 C437.4,124 427.9,126.4 417.2,126.4 C410.8,126.4 406.4,125.1 403.2,122.3 C399.7,119.4 397.7,114.6 397.1,107.8 L451.9,107.8 C451.9,106.2 452.2,98.7 452.2,96.3 L452.2,96.3 Z M319.9,118.7 C317.2,123.8 313.1,126.4 308.3,126.4 C305,126.4 302,125.7 299.4,124.4 L299.4,75.1 C305,69.2 310.1,68.6 311.9,68.6 C320.3,68.6 324.4,77.7 324.4,95.4 C324.4,105.5 323,113.4 319.9,118.7 L319.9,118.7 Z M347.4,54.7 C341.5,47.1 333.4,43.4 323,43.4 C313.4,43.4 305,47.4 297.1,55.8 L295.4,45.4 L266.3,45.4 L266.3,187.5 L299.4,182 L299.4,148.7 C304.5,150.3 309.7,151.1 314.3,151.1 C322.6,151.1 334.6,149 343.9,138.8 C352.8,129.1 357.4,114 357.4,94.1 C357.4,76.6 354,63.3 347.4,54.7 L347.4,54.7 Z M220.1,45.4 L253.3,45.4 L253.3,149.1 L220.1,149.1 L220.1,45.4 L220.1,45.4 Z M236.8,35.1 C246.4,35.1 254.1,27.2 254.1,17.6 C254.1,7.9 246.4,0.1 236.8,0.1 C227.1,0.1 219.3,7.8 219.3,17.6 C219.3,27.3 227,35.1 236.8,35.1 L236.8,35.1 Z M205.8,44 C196.5,44 189,48.9 186.1,57.7 L184.1,45.4 L155.2,45.4 L155.2,149.1 L188.3,149.1 L188.3,81.8 C192.4,76.7 198.3,74.9 206.3,74.9 C208,74.9 209.9,74.9 212.2,75.3 L212.2,44.8 C209.8,44.2 207.8,44 205.8,44 L205.8,44 Z M142.4,69.9 L146.4,45.4 L125.3,45.4 L125.3,15.6 L96.9,20.3 L92.8,45.4 L82.8,47 L79.1,69.9 L92.8,69.9 L92.8,118 C92.8,130.5 96,139.2 102.5,144.5 C108,148.9 115.8,151 126.9,151 C135.4,151 140.6,149.5 144.2,148.6 L144.2,122.6 C142.2,123.1 137.7,124.1 134.6,124.1 C128.1,124.1 125.3,120.8 125.3,113.2 L125.3,69.9 L142.4,69.9 L142.4,69.9 Z M47.7,84.5 C38,80.9 32.6,78.1 32.6,73.7 C32.6,70 35.7,67.8 41.1,67.8 C51.1,67.8 61.4,71.7 68.4,75.1 L72.4,50.4 C66.8,47.7 55.3,43.3 39.5,43.3 C28.3,43.3 19,46.2 12.3,51.7 C5.4,57.4 1.8,65.7 1.8,75.7 C1.8,93.8 12.9,101.6 30.9,108.1 C42.5,112.2 46.4,115.2 46.4,119.7 C46.4,124.1 42.7,126.6 35.9,126.6 C27.5,126.6 13.6,122.5 4.6,117.1 L0.6,142 C8.3,146.4 22.7,150.9 37.7,150.9 C49.6,150.9 59.4,148.1 66.1,142.8 C73.6,136.9 77.4,128.3 77.4,117.1 C77.3,98.7 66,91 47.7,84.5 L47.7,84.5 Z" id="Shape"></path>
        </g>
    </g>
</svg>