<svg xmlns="http://www.w3.org/2000/svg" width="95" height="69" viewBox="0 0 95 69">
  <defs>
    <style>
      .cls-1 {
        fill: #fff0a1;
        fill-rule: evenodd;
      }
    </style>
  </defs>
  <path id="logo-alven.svg" class="cls-1" d="M2842.8,229.053a4.473,4.473,0,1,0-.03-8.946,4.473,4.473,0,0,0,.03,8.946m-0.63-13.928c2.69,0,4.39.807,5.38,2.491v-1.859h5.02V233.4h-5.02v-1.894c-0.85,1.684-2.66,2.49-5.52,2.49-5.35,0-9.03-3.858-9.03-9.437,0-5.542,3.79-9.437,9.17-9.437m16.46-5.227h5.34v23.5h-5.34V209.9Zm9.06,5.859h5.52l3.43,11.016,3.43-11.016h5.53l-6.41,17.646h-5.13Zm33.62,6.946a3.9,3.9,0,0,0-4.03-3.052,3.839,3.839,0,0,0-4,3.052h8.03Zm-4.07-7.543a9.3,9.3,0,0,1,9.38,9.648,6.193,6.193,0,0,1-.14,1.439h-13.31a3.734,3.734,0,0,0,3.89,3.3,4.023,4.023,0,0,0,3.26-1.4l0.25-.246h5.45c-1.66,3.824-4.89,6.1-8.71,6.1a9.421,9.421,0,0,1-.07-18.84m14.27,0.6h5.02v1.859a5.339,5.339,0,0,1,4.89-2.456,6.9,6.9,0,0,1,4.81,1.789c1.34,1.263,1.77,2.632,1.77,5.439V233.4h-5.34V223.79a4.3,4.3,0,0,0-.54-2.6,2.675,2.675,0,0,0-2.26-1.087,3.019,3.019,0,0,0-2.51,1.228,3.236,3.236,0,0,0-.5,2.21V233.4h-5.34V215.757Zm-28.78-38.56a17.685,17.685,0,0,1-.23-1.767q-1.035-.494-1.98-0.931a6.7,6.7,0,0,0,.25,4.33c0.58,1.431.4,4.352-.4,7.215a11.816,11.816,0,0,1-1.79,3.451c0.26,0.367.58,0.811,0.96,1.32a17.491,17.491,0,0,0,2.85-5.63,15.022,15.022,0,0,0,.34-7.988m10.35,3.352c-0.67-.324-1.35-0.649-2.02-0.974-0.75.736-1.42,1.329-1.83,1.686-1.68,2.388-2.16,2.566-1.88,1.061a31.032,31.032,0,0,0,1.17-3.982c-0.59-.289-1.18-0.575-1.76-0.856-0.37,1.884-.76,3.628-1,4.609-0.42,1.781.75,4.568-4.97,10.345,0.19,0.246.39,0.5,0.61,0.76,0.12,0.116.25,0.234,0.38,0.351,1.88-2.133,4.13-4.76,6.03-7.076,1.66-2.011,3.63-3.962,5.27-5.924m0.95,5.475c0.84-1.454,1.61-2.769,2.25-3.947-0.68-.322-1.39-0.661-2.08-0.993a19.131,19.131,0,0,0-2,3.9c-0.23.744-1.79,3.264-5.43,6.7-1.18,1.12-2.42,2.229-3.54,3.3,0.25,0.259.5,0.522,0.75,0.786a30.192,30.192,0,0,1,2.61-2.009c2.27-1.85,5.74-4.808,7.44-7.735m-30.42-1.671c-0.02.039-.05,0.079-0.07,0.12a10.819,10.819,0,0,1,.4,3.595c-0.25,2.885.34,5.612,0.96,4.915a23.365,23.365,0,0,0,1.42-4.356c0.13-1.444-1.08-4.561-1.41-7.586-0.55,1.437-.98,2.674-1.3,3.312m29.74,9.249,0.21-.234a45.3,45.3,0,0,0-7.76,4.43c0.41,0.473.8,0.946,1.18,1.412a10.217,10.217,0,0,1,1.99-1.257,12.5,12.5,0,0,0,2.02-1.366,36.589,36.589,0,0,1,2.36-2.985m-31.05-5.111a4.7,4.7,0,0,0-.09-1.272,31.272,31.272,0,0,0-2.24,4.873,15.363,15.363,0,0,0,.88,3.113,8.649,8.649,0,0,1,.27,1.855,10.159,10.159,0,0,0,.64.824,2.9,2.9,0,0,0,1.9,1.084c0.04-.415.06-0.849,0.08-1.3,0.01-.214.03-0.43,0.05-0.648a27.109,27.109,0,0,0-.97-3.848,8.716,8.716,0,0,1-.52-4.681m13.1-12.238c-0.81,2.462-.98,3.951-0.75,7.787s-0.52,5.153-1.56,6.241a8.219,8.219,0,0,0-1.52,2.236,33.388,33.388,0,0,1,3.93-2.176,27.927,27.927,0,0,0,1.86-9.336,13.837,13.837,0,0,1,.23-4.638,26.392,26.392,0,0,0,.62-2.909c-0.93-.4-1.72-0.719-2.35-0.931a10.709,10.709,0,0,1-.46,3.726m22.54,11.291c0.77-1.222.89-2.744,1.49-4.016-0.76-.34-0.96-0.436-1.76-0.8-1.72,2.7-3.97,6.446-4.19,7.853a28.729,28.729,0,0,0,4.46-3.033m-25.9-10.977c1.55-1.948,1.28-6.785,1.69-9.763a9.706,9.706,0,0,1,.35-1.542c-0.01-.085-0.02-0.171-0.03-0.262a39.79,39.79,0,0,0-3.53,3.176l-0.62-.823-0.24.294-0.16,3.524s0.98-1.136,1.62-1.793a0.018,0.018,0,0,1,.01,0c2.31-2.119-1.16,3.092-2.6,6.528a11.129,11.129,0,0,0-.78,3.913h0a12.957,12.957,0,0,0,.1,2.306v0.033a18.383,18.383,0,0,0,.8,3.368,6.447,6.447,0,0,1-.35,4.924,10.449,10.449,0,0,0-1.56,4.58,21.39,21.39,0,0,1-.12,2.622,11.564,11.564,0,0,0,1.61-1.949,10.572,10.572,0,0,1,1.52-1.756c-0.01-1.018-.17-2.55.74-3.555,1.04-1.144.77-4.212,0.66-6.5s-0.66-5.362.89-7.325m19.62,28.363c0.8-5.336,5.16-9.533,6.14-11.026,1.06-1.133,4.95-5.7,2.35-10.3-0.11,1.628.38,4.64-2.77,8.064-6.18,5.918-7.14,11.53-7.14,11.53l1.28,2.5Z" transform="translate(-2833 -165)"/>
</svg>
