<?xml version="1.0" encoding="UTF-8" standalone="no"?>
<svg width="1175px" height="181px" viewBox="0 0 1175 181" version="1.1" xmlns="http://www.w3.org/2000/svg" xmlns:xlink="http://www.w3.org/1999/xlink">
    <!-- Generator: Sketch 3.8.2 (29753) - http://www.bohemiancoding.com/sketch -->
    <title>deepomatic</title>
    <desc>Created with Sketch.</desc>
    <defs></defs>
    <g id="Page-1" stroke="none" stroke-width="1" fill="none" fill-rule="evenodd">
        <g id="deepomatic">
            <path d="M92.3118,36 C84.7568,36 78.6318,29.875 78.6318,22.32 C78.6318,14.765 84.7568,8.64 92.3118,8.64 C99.8668,8.64 105.9918,14.765 105.9918,22.32 C105.9918,29.875 99.8668,36 92.3118,36 M112.9518,13.92 C108.3418,2.4 96.8418,0 92.5518,0 C55.3548,0.733 26.3708,25.256 18.4258,37.175 C17.6158,39.284 17.7198,40.965 18.8718,42 C19.6798,43.547 23.2988,45.45 26.7918,40.56 C31.2518,33.455 56.1708,13.491 72.8718,11.76 C71.1398,14.728 70.2318,20.385 70.2318,20.88 C65.6548,22.24 28.1608,41.278 38.5518,49.44 C40.4058,50.847 43.7228,50.54 45.7518,46.32 C50.9128,38.162 70.3188,30 71.4318,30 C71.6788,32.35 75.7518,36.582 75.7518,37.2 C73.5248,37.818 48.4808,48.522 57.5118,55.2 C58.7148,55.902 61.9868,56.876 64.2318,53.52 C77.9188,43.047 86.3118,43.68 86.3118,43.68 C86.3118,43.68 97.2658,48.177 108.1518,38.16 C116.6878,29.503 115.3018,18.99 112.9518,13.92" id="Fill-1" fill="#333333"></path>
            <path d="M94.4717,171.84 C86.9257,171.84 80.6457,165.97 80.6457,157.191 C80.6457,149.633 86.6857,144.48 94.2317,144.48 C101.7777,144.48 107.4317,150.362 107.4317,157.92 C107.4317,165.478 102.0177,171.84 94.4717,171.84 M165.2717,132 C163.0697,129.057 158.9637,134.525 154.9517,138.72 C150.4967,145.828 130.0907,164.807 114.6317,167.76 C115.8377,163.919 116.3117,157.455 116.3117,156.96 C128.2097,152.634 160.7037,129.738 148.2317,123.84 C146.3797,122.432 143.7327,123.635 138.3917,131.52 C131.3177,139.681 119.3847,146.925 113.9117,148.32 C113.6647,145.969 110.8337,143.41 108.3917,141.84 C118.5087,136.607 135.9357,125.503 128.3117,119.52 C127.1097,118.818 125.0967,116.275 119.1917,125.04 C104.8237,135.343 96.8717,136.8 96.8717,136.8 C96.8717,136.8 89.5697,133.455 78.8717,142.08 C70.3467,150.74 71.2437,161.488 73.5917,166.56 C78.1957,178.085 89.7077,180.48 93.9917,180.48 C129.7467,178.526 155.8967,154.005 163.8317,142.08 C170.5707,134.564 166.4227,133.035 165.2717,132" id="Fill-3" fill="#333333"></path>
            <path d="M158.3027,103.3242 C150.7447,103.3242 144.6177,97.1922 144.6177,89.6272 C144.6177,82.0622 150.7447,75.9302 158.3027,75.9302 C165.8607,75.9302 171.9887,82.0622 171.9887,89.6272 C171.9887,97.1922 165.8607,103.3242 158.3027,103.3242 M143.6717,14.8802 C132.5177,6.3492 131.2667,11.0862 130.2317,12.2402 C128.4637,16.4672 132.0847,18.4732 138.6317,22.0802 C145.7397,26.5452 167.1347,53.4422 168.8667,70.1632 C165.8977,68.4292 160.2377,67.5202 159.7437,67.5202 C155.6097,56.1122 132.2107,19.9692 124.4717,31.4402 C123.6297,35.0742 126.2617,36.8462 129.2717,39.1202 C140.2607,47.0352 150.7397,66.8522 150.3917,69.3602 C148.0407,69.6082 143.8107,74.1602 143.1917,74.1602 C142.5727,71.9302 128.7527,43.7582 122.0717,52.8002 C119.2507,56.7872 123.5987,59.7332 126.1517,62.8802 C136.6287,76.5842 136.7117,86.4002 136.7117,86.4002 C136.7117,86.4002 134.6307,96.2332 142.4567,105.4872 C151.1167,114.0332 161.6337,112.6462 166.7057,110.2932 C178.2307,105.6772 180.6317,94.1622 180.6317,89.8672 C179.8977,52.6242 155.5967,22.8352 143.6717,14.8802" id="Fill-5" fill="#333333"></path>
            <g id="Group-9" transform="translate(0.000000, 60.480000)"></g>
            <g id="Group-29" transform="translate(0.000000, 21.480000)" fill="#000000">
                <path d="M22.4977,75.6456 C14.9337,75.6456 8.8017,69.5106 8.8017,61.9426 C8.8017,54.3746 14.9337,48.2396 22.4977,48.2396 C30.0617,48.2396 36.1937,54.3746 36.1937,61.9426 C36.1937,69.5106 30.0617,75.6456 22.4977,75.6456 M53.4317,92.9996 C42.9467,79.2906 44.1047,65.1716 44.1047,65.1716 C44.1047,65.1716 46.1877,55.3336 38.3557,46.0756 C29.6897,37.5256 19.1637,38.9136 14.0877,41.2676 C2.5547,45.8856 0.1517,57.4056 0.1517,61.7026 C-2.1493,101.7186 22.2627,129.9176 36.3917,140.2796 C53.1107,152.7746 53.8677,150.2566 56.0717,148.1996 C60.8207,142.3036 48.9807,139.7246 40.2317,132.3596 C32.9767,127.0416 12.0597,103.0286 9.9917,80.2796 C12.9627,82.0146 19.5767,83.6396 20.0717,83.6396 C22.5737,106.4186 55.3677,138.5846 60.8717,128.2796 C63.7007,122.4256 55.4457,120.6766 51.0317,116.9996 C40.8517,108.7316 28.8307,92.1956 28.7117,82.6796 C31.0637,82.4326 36.7327,78.1196 37.3517,78.1196 C39.8397,92.2626 59.3367,116.9516 65.6717,108.8396 C69.7357,103.7426 57.1397,99.6956 53.4317,92.9996" id="Fill-7"></path>
                <path d="M265.2958,96.2067 C265.2958,96.6817 265.3288,96.9857 265.3978,97.1207 C265.3978,97.2577 265.4308,97.3587 265.4988,97.4257 C266.2418,98.6447 267.2208,99.8487 268.4368,101.0317 C269.6528,102.2177 270.8348,103.1837 271.9848,103.9277 C272.5248,104.1987 272.9298,104.3337 273.1998,104.3337 L286.9818,104.3337 C287.5208,104.3337 288.3658,103.9957 289.5158,103.3177 C290.6638,102.6417 291.8628,101.8287 293.1128,100.8797 C294.3628,99.9327 295.5788,98.9337 296.7608,97.8827 C297.9418,96.8337 298.8708,95.9357 299.5478,95.1897 L299.5478,62.0727 C298.8708,61.3277 297.9598,60.4307 296.8118,59.3797 C295.6618,58.3317 294.4628,57.3487 293.2128,56.4347 C291.9628,55.5197 290.7638,54.7417 289.6158,54.0977 C288.4678,53.4547 287.5888,53.1327 286.9818,53.1327 L273.1998,53.1327 C272.5238,53.1327 272.1178,53.2007 271.9848,53.3357 C270.8348,54.0817 269.6528,55.0807 268.4368,56.3327 C267.2208,57.5867 266.2418,58.8217 265.4988,60.0407 C265.4308,60.1087 265.3978,60.2107 265.3978,60.3457 C265.3288,60.4817 265.2958,60.7187 265.2958,61.0567 L265.2958,96.2067 L265.2958,96.2067 Z M244.8668,96.6127 L244.8668,60.6497 C244.8668,58.4147 245.1368,56.2147 245.6798,54.0467 C246.2208,51.8797 247.1698,49.8817 248.5248,48.0527 C248.9318,47.5117 249.5068,46.7827 250.2538,45.8687 C250.9978,44.9547 251.8288,44.0237 252.7438,43.0747 C253.6578,42.1277 254.6068,41.1957 255.5888,40.2817 C256.5708,39.3667 257.4698,38.6407 258.2828,38.0977 C260.3158,36.6747 262.6178,35.6077 265.1938,34.8967 C267.7688,34.1857 270.3428,33.8307 272.9188,33.8307 L287.5548,33.8307 C289.7218,33.8307 291.8228,34.3047 293.8558,35.2527 C295.8888,36.2017 297.7848,37.2847 299.5478,38.5037 L299.5478,1.1187 L319.9768,1.1187 L319.9768,104.5367 L321.6028,122.6197 L301.5898,122.6197 L300.7738,118.1497 C298.9438,119.5717 296.8938,120.8427 294.6228,121.9597 C292.3518,123.0767 289.9988,123.6357 287.5588,123.6357 L272.9218,123.6357 C270.3458,123.6357 267.7538,123.2447 265.1448,122.4677 C262.5358,121.6887 260.2488,120.5877 258.2838,119.1657 C257.5378,118.6247 256.6738,117.9137 255.6928,117.0317 C254.7098,116.1527 253.7598,115.2387 252.8448,114.2897 C251.9308,113.3417 251.0828,112.4097 250.3038,111.4957 C249.5248,110.5817 248.9318,109.8187 248.5248,109.2097 C247.1698,107.2467 246.2208,105.2147 245.6798,103.1147 C245.1368,101.0167 244.8668,98.8477 244.8668,96.6127 L244.8668,96.6127 Z" id="Fill-10"></path>
                <path d="M365.9164,70.4025 L400.5744,70.4025 L400.5744,60.8535 L400.5744,60.3455 C400.5744,60.0065 400.5064,59.7705 400.3714,59.6345 C399.7634,58.6185 398.8014,57.5005 397.4824,56.2815 C396.1654,55.0625 394.8984,54.0815 393.6844,53.3355 C393.4124,53.2005 393.0074,53.1325 392.4674,53.1325 L374.0234,53.1325 C373.4834,53.1325 372.8574,53.3355 372.1474,53.7415 C371.4374,54.1485 370.7124,54.6565 369.9694,55.2655 C369.2264,55.8755 368.5174,56.5705 367.8414,57.3485 C367.1644,58.1275 366.5914,58.8895 366.1194,59.6345 C365.9824,59.9055 365.9164,60.1765 365.9164,60.4465 L365.9164,60.8535 L365.9164,70.4025 Z M345.4874,97.0195 L345.4874,60.4465 C345.4874,58.2125 345.7914,56.0455 346.4034,53.9445 C347.0134,51.8465 347.9984,49.8815 349.3544,48.0525 C349.7604,47.5115 350.3724,46.8005 351.1874,45.9195 L353.6294,43.1765 C354.5794,42.2295 355.5444,41.3145 356.5294,40.4335 C357.5134,39.5545 358.3794,38.8435 359.1254,38.3005 C361.1604,36.8785 363.5004,35.7775 366.1464,34.9985 C368.7924,34.2205 371.4044,33.8305 373.9834,33.8305 L392.7104,33.8305 C395.2884,33.8305 397.9004,34.2205 400.5464,34.9985 C403.1914,35.7775 405.5344,36.8785 407.5704,38.3005 C408.3164,38.8435 409.1804,39.5545 410.1654,40.4335 C411.1484,41.3145 412.0984,42.2115 413.0144,43.1255 C413.9294,44.0405 414.7774,44.9385 415.5584,45.8185 C416.3384,46.6985 416.9324,47.4435 417.3404,48.0525 C418.7654,50.0185 419.7314,52.0655 420.2404,54.1995 C420.7484,56.3325 421.0044,58.4155 421.0044,60.4465 L421.0044,88.4855 L365.9164,88.4855 L365.9164,96.8165 C365.9164,97.1555 365.9494,97.3925 366.0184,97.5275 C366.0184,97.6635 366.0514,97.7655 366.1194,97.8315 C366.5914,98.5775 367.1644,99.3395 367.8414,100.1175 C368.5174,100.8975 369.2274,101.5905 369.9704,102.1995 C370.7134,102.8105 371.4394,103.3185 372.1494,103.7245 C372.8594,104.1305 373.4854,104.3335 374.0254,104.3335 L393.6904,104.3335 C394.1624,104.3335 394.7704,104.1305 395.5134,103.7245 C396.2564,103.3185 396.9994,102.8265 397.7434,102.2505 C398.4864,101.6765 399.1634,101.0825 399.7714,100.4735 L401.1904,99.0515 C401.3924,98.8475 401.5274,98.6795 401.5964,98.5425 C401.6624,98.4075 401.7304,98.3065 401.8004,98.2375 L420.8004,103.9275 C420.2574,105.1465 419.4424,106.5185 418.3584,108.0415 C417.2714,109.5655 416.0684,111.0385 414.7454,112.4605 C413.4204,113.8835 412.1314,115.1885 410.8764,116.3715 C409.6224,117.5575 408.5864,118.4215 407.7734,118.9625 C405.8044,120.3185 403.4804,121.4355 400.8024,122.3155 C398.1214,123.1945 395.5594,123.6355 393.1174,123.6355 L373.9834,123.6355 C371.4044,123.6355 368.7924,123.2795 366.1464,122.5695 C363.5004,121.8585 361.1604,120.7905 359.1254,119.3685 C358.3794,118.8275 357.5134,118.1165 356.5294,117.2355 C355.5444,116.3565 354.5794,115.4425 353.6294,114.4925 L351.1874,111.7495 C350.3724,110.8705 349.7604,110.1585 349.3544,109.6155 C347.9984,107.7875 347.0134,105.7905 346.4034,103.6225 C345.7914,101.4555 345.4874,99.2545 345.4874,97.0195 L345.4874,97.0195 Z" id="Fill-12"></path>
                <path d="M464.0956,70.4025 L498.7536,70.4025 L498.7536,60.8535 L498.7536,60.3455 C498.7536,60.0065 498.6856,59.7705 498.5506,59.6345 C497.9426,58.6185 496.9806,57.5005 495.6616,56.2815 C494.3446,55.0625 493.0776,54.0815 491.8636,53.3355 C491.5916,53.2005 491.1866,53.1325 490.6466,53.1325 L472.2026,53.1325 C471.6626,53.1325 471.0366,53.3355 470.3266,53.7415 C469.6166,54.1485 468.8916,54.6565 468.1486,55.2655 C467.4056,55.8755 466.6966,56.5705 466.0206,57.3485 C465.3436,58.1275 464.7706,58.8895 464.2986,59.6345 C464.1616,59.9055 464.0956,60.1765 464.0956,60.4465 L464.0956,60.8535 L464.0956,70.4025 Z M443.6666,97.0195 L443.6666,60.4465 C443.6666,58.2125 443.9706,56.0455 444.5826,53.9445 C445.1926,51.8465 446.1776,49.8815 447.5336,48.0525 C447.9396,47.5115 448.5516,46.8005 449.3666,45.9195 L451.8086,43.1765 C452.7586,42.2295 453.7236,41.3145 454.7086,40.4335 C455.6926,39.5545 456.5586,38.8435 457.3046,38.3005 C459.3396,36.8785 461.6796,35.7775 464.3256,34.9985 C466.9716,34.2205 469.5836,33.8305 472.1626,33.8305 L490.8896,33.8305 C493.4676,33.8305 496.0796,34.2205 498.7256,34.9985 C501.3706,35.7775 503.7136,36.8785 505.7496,38.3005 C506.4956,38.8435 507.3596,39.5545 508.3446,40.4335 C509.3276,41.3145 510.2776,42.2115 511.1936,43.1255 C512.1086,44.0405 512.9566,44.9385 513.7376,45.8185 C514.5176,46.6985 515.1116,47.4435 515.5196,48.0525 C516.9446,50.0185 517.9106,52.0655 518.4196,54.1995 C518.9276,56.3325 519.1836,58.4155 519.1836,60.4465 L519.1836,88.4855 L464.0956,88.4855 L464.0956,96.8165 C464.0956,97.1555 464.1286,97.3925 464.1976,97.5275 C464.1976,97.6635 464.2306,97.7655 464.2986,97.8315 C464.7706,98.5775 465.3436,99.3395 466.0206,100.1175 C466.6966,100.8975 467.4066,101.5905 468.1496,102.1995 C468.8926,102.8105 469.6186,103.3185 470.3286,103.7245 C471.0386,104.1305 471.6646,104.3335 472.2046,104.3335 L491.8696,104.3335 C492.3416,104.3335 492.9496,104.1305 493.6926,103.7245 C494.4356,103.3185 495.1786,102.8265 495.9226,102.2505 C496.6656,101.6765 497.3426,101.0825 497.9506,100.4735 L499.3696,99.0515 C499.5716,98.8475 499.7066,98.6795 499.7756,98.5425 C499.8416,98.4075 499.9096,98.3065 499.9796,98.2375 L518.9796,103.9275 C518.4366,105.1465 517.6216,106.5185 516.5376,108.0415 C515.4506,109.5655 514.2476,111.0385 512.9246,112.4605 C511.5996,113.8835 510.3106,115.1885 509.0556,116.3715 C507.8016,117.5575 506.7656,118.4215 505.9526,118.9625 C503.9836,120.3185 501.6596,121.4355 498.9816,122.3155 C496.3006,123.1945 493.7386,123.6355 491.2966,123.6355 L472.1626,123.6355 C469.5836,123.6355 466.9716,123.2795 464.3256,122.5695 C461.6796,121.8585 459.3396,120.7905 457.3046,119.3685 C456.5586,118.8275 455.6926,118.1165 454.7086,117.2355 C453.7236,116.3565 452.7586,115.4425 451.8086,114.4925 L449.3666,111.7495 C448.5516,110.8705 447.9396,110.1585 447.5336,109.6155 C446.1776,107.7875 445.1926,105.7905 444.5826,103.6225 C443.9706,101.4555 443.6666,99.2545 443.6666,97.0195 L443.6666,97.0195 Z" id="Fill-14"></path>
                <path d="M563.6982,95.3942 C564.3732,96.1392 565.2842,97.0372 566.4342,98.0852 C567.5822,99.1362 568.7812,100.1182 570.0312,101.0322 C571.2812,101.9462 572.4802,102.7252 573.6282,103.3692 C574.7772,104.0132 575.6552,104.3332 576.2642,104.3332 L590.2492,104.3332 C590.7892,104.3332 591.1942,104.2672 591.4642,104.1302 C592.6132,103.3862 593.7942,102.3872 595.0102,101.1332 C596.2272,99.8812 597.2072,98.6442 597.9502,97.4252 C597.9502,97.3592 597.9832,97.2572 598.0522,97.1212 C598.0522,96.9862 598.0682,96.8672 598.1022,96.7652 C598.1362,96.6642 598.1532,96.5462 598.1532,96.4102 L598.1532,61.2592 C598.1532,61.0562 598.1362,60.8882 598.1022,60.7512 C598.0682,60.6172 598.0522,60.4812 598.0522,60.3452 C597.9832,60.2102 597.9502,60.1092 597.9502,60.0402 C597.2072,58.8212 596.2272,57.6202 595.0102,56.4342 C593.7942,55.2502 592.6132,54.2852 591.4642,53.5392 C590.9242,53.2692 590.5192,53.1322 590.2492,53.1322 L576.2642,53.1322 C575.7232,53.1322 574.8782,53.4722 573.7302,54.1482 C572.5822,54.8262 571.3832,55.6392 570.1332,56.5862 C568.8832,57.5362 567.6672,58.5342 566.4852,59.5832 C565.3022,60.6342 564.3732,61.5312 563.6982,62.2752 L563.6982,95.3942 Z M541.4392,34.8462 L561.6562,34.8462 L562.4722,39.3162 C564.2982,37.8942 566.3442,36.6242 568.6102,35.5062 C570.8762,34.3892 573.2262,33.8302 575.6632,33.8302 L590.4762,33.8302 C593.0462,33.8302 595.6352,34.2212 598.2392,34.9982 C600.8442,35.7782 603.1262,36.8782 605.0872,38.3002 C605.8302,38.8432 606.6922,39.5542 607.6742,40.4342 C608.6552,41.3142 609.6012,42.2292 610.5152,43.1762 C611.4282,44.1252 612.2742,45.0562 613.0522,45.9702 C613.8312,46.8852 614.4222,47.6462 614.8282,48.2562 C616.1812,50.2212 617.1282,52.2532 617.6702,54.3522 C618.2102,56.4522 618.4812,58.6182 618.4812,60.8532 L618.4812,96.8162 C618.4812,99.0512 618.2102,101.2522 617.6702,103.4192 C617.1282,105.5872 616.1812,107.5842 614.8282,109.4132 C614.4222,109.9562 613.8312,110.6832 613.0522,111.5972 C612.2742,112.5112 611.4472,113.4432 610.5672,114.3912 L607.7282,117.1332 C606.7802,118.0832 605.9002,118.8282 605.0902,119.3692 C603.0602,120.7902 600.7602,121.8582 598.1902,122.5692 C595.6202,123.2802 593.0512,123.6352 590.4812,123.6352 L575.6692,123.6352 C573.5052,123.6352 571.4082,123.1612 569.3792,122.2132 C567.3492,121.2662 565.4562,120.1812 563.6982,118.9622 L563.6982,155.7382 L543.2692,155.7382 L543.2692,52.9292 L541.4392,34.8462 Z" id="Fill-16"></path>
                <path d="M662.0829,98.0349 C662.0829,98.4409 662.3179,98.9159 662.7909,99.4579 C663.2649,100.0009 663.8379,100.5589 664.5149,101.1339 C665.1899,101.7099 665.9169,102.2679 666.6929,102.8099 C667.4699,103.3519 668.1619,103.7929 668.7709,104.1309 C668.8389,104.1989 668.9379,104.2319 669.0749,104.2319 C669.2099,104.3009 669.5139,104.3339 669.9869,104.3339 L688.6339,104.3339 C688.9039,104.3339 689.3099,104.1989 689.8499,103.9279 C690.3219,103.6579 690.9129,103.2849 691.6229,102.8099 C692.3309,102.3369 693.0409,101.8109 693.7509,101.2349 C694.4589,100.6609 695.0849,100.0849 695.6249,99.5089 C696.1649,98.9329 696.4699,98.4409 696.5379,98.0349 L696.5379,61.0559 L696.5379,60.6499 C696.5379,60.5149 696.4699,60.2439 696.3349,59.8379 C695.7269,58.8219 694.7649,57.6709 693.4459,56.3839 C692.1279,55.0979 690.8619,54.0819 689.6469,53.3359 C689.3779,53.2009 689.0389,53.1329 688.6339,53.1329 L669.9869,53.1329 C669.5799,53.1329 669.2429,53.2009 668.9739,53.3359 C667.7569,54.0819 666.5239,55.0469 665.2749,56.2309 C664.0249,57.4169 663.0289,58.6179 662.2859,59.8379 C662.1489,60.1089 662.0829,60.3799 662.0829,60.6499 L662.0829,61.0559 L662.0829,98.0349 Z M641.6529,97.0189 L641.6529,60.4469 C641.6529,58.4149 641.8729,56.3329 642.3139,54.1999 C642.7559,52.0659 643.6879,50.0179 645.1139,48.0529 C645.5209,47.4439 646.1309,46.6989 646.9449,45.8179 C647.7599,45.0049 648.6429,44.1259 649.5929,43.1769 L652.4409,40.4339 C653.3919,39.5549 654.2719,38.8439 655.0869,38.3009 C657.1229,36.8779 659.4299,35.7779 662.0079,34.9989 C664.5869,34.2209 667.1649,33.8299 669.7439,33.8299 L688.8769,33.8299 C691.4549,33.8299 694.0669,34.2209 696.7129,34.9989 C699.3579,35.7779 701.7009,36.8779 703.7369,38.3009 C704.4829,38.8439 705.3479,39.5549 706.3319,40.4339 C707.3149,41.3149 708.2649,42.2119 709.1809,43.1259 C710.0979,44.0399 710.9449,44.9389 711.7269,45.8179 C712.5069,46.6989 713.1009,47.4439 713.5069,48.0529 C714.9319,50.0179 715.8629,52.0659 716.3049,54.1999 C716.7469,56.3329 716.9679,58.4149 716.9679,60.4469 L716.9679,97.0189 C716.9679,99.0519 716.7469,101.1339 716.3049,103.2669 C715.8629,105.3999 714.9319,107.4499 713.5069,109.4129 C713.1009,110.0229 712.5069,110.7849 711.7269,111.6989 C710.9449,112.6129 710.0979,113.5449 709.1809,114.4929 C708.2649,115.4419 707.3149,116.3559 706.3319,117.2359 C705.3479,118.1169 704.4829,118.8279 703.7369,119.3689 C701.7009,120.7909 699.3579,121.8579 696.7129,122.5689 C694.0669,123.2799 691.4549,123.6359 688.8769,123.6359 L669.7439,123.6359 C667.1649,123.6359 664.5869,123.2799 662.0079,122.5689 C659.4299,121.8579 657.1229,120.7909 655.0869,119.3689 C654.3409,118.8279 653.4759,118.1169 652.4919,117.2359 C651.5079,116.3559 650.5419,115.4419 649.5929,114.4929 C648.6429,113.5449 647.7599,112.6129 646.9449,111.6989 C646.1309,110.7849 645.5209,110.0229 645.1139,109.4129 C643.6879,107.4499 642.7559,105.3999 642.3139,103.2669 C641.8729,101.1339 641.6529,99.0519 641.6529,97.0189 L641.6529,97.0189 Z" id="Fill-18"></path>
                <path d="M739.0214,34.8464 L759.0314,34.8464 L760.0534,39.5194 C761.8814,38.1654 763.8794,36.8784 766.0454,35.6584 C768.2114,34.4404 770.4814,33.8304 772.8504,33.8304 L783.0064,33.8304 C785.5794,33.8304 788.1854,34.2214 790.8264,34.9984 C793.4654,35.7784 795.8014,36.8784 797.8344,38.3004 C798.6464,38.9094 799.5774,39.6894 800.6264,40.6374 C801.6764,41.5864 802.7094,42.5674 803.7244,43.5834 L808.2004,40.1294 C809.0824,39.4524 810.1154,38.7424 811.3014,37.9954 C812.4884,37.2514 813.7434,36.5734 815.0654,35.9644 C816.3864,35.3544 817.7274,34.8464 819.0834,34.4404 C820.4394,34.0334 821.6924,33.8304 822.8454,33.8304 L833.0174,33.8304 C835.5934,33.8304 838.2024,34.2214 840.8484,34.9984 C843.4924,35.7784 845.8324,36.8784 847.8664,38.3004 C848.6124,38.8434 849.4764,39.5544 850.4594,40.4334 C851.4424,41.3144 852.3924,42.2114 853.3064,43.1254 C854.2214,44.0404 855.0694,44.9384 855.8494,45.8184 C856.6284,46.6994 857.2224,47.4434 857.6294,48.0534 C859.0524,50.0184 860.0194,52.0654 860.5284,54.1994 C861.0364,56.3324 861.2924,58.4154 861.2924,60.4474 L861.2924,122.6194 L840.8624,122.6194 L840.8624,60.8534 L840.8624,60.4474 C840.8624,60.3124 840.7934,60.0404 840.6594,59.6344 C840.0504,58.4834 839.1394,57.3324 837.9244,56.1804 C836.7084,55.0294 835.5264,54.0814 834.3794,53.3354 C834.1764,53.2004 833.9414,53.1324 833.6714,53.1324 L832.7594,53.1324 L823.4414,53.1324 C822.4274,53.1324 821.3654,53.4214 820.2504,53.9954 C819.1354,54.5724 818.0384,55.3014 816.9594,56.1804 C816.0134,56.9924 815.0684,57.8734 814.1244,58.8214 L811.6924,61.2594 L811.6924,122.6194 L811.4874,122.6194 L791.4674,122.6194 L791.2634,122.6194 L791.2634,60.8534 L791.2634,60.2434 C791.2634,59.9734 791.1954,59.7704 791.0594,59.6344 C790.4524,58.4834 789.4714,57.3324 788.1224,56.1804 C786.7724,55.0294 785.5224,54.0814 784.3754,53.3354 C784.1724,53.2004 783.9354,53.1324 783.6664,53.1324 L782.7534,53.1324 L773.4354,53.1324 C772.0854,53.1324 770.8354,53.4374 769.6874,54.0464 C768.5394,54.6564 767.4584,55.3854 766.4464,56.2314 C765.4324,57.0784 764.5214,57.9924 763.7114,58.9734 C762.9014,59.9564 762.1584,60.7864 761.4834,61.4624 L761.4834,122.6194 L741.0534,122.6194 L741.0534,52.9294 L739.0214,34.8464 Z" id="Fill-20"></path>
                <path d="M901.9443,97.0192 C901.9443,97.2222 901.9773,97.3592 902.0463,97.4252 C902.0463,97.4942 902.0793,97.5622 902.1473,97.6282 C902.8903,98.8472 903.8203,100.0512 904.9343,101.2352 C906.0493,102.4202 907.2143,103.3182 908.4303,103.9272 C908.9693,104.1992 909.3773,104.3332 909.6463,104.3332 L925.4583,104.3332 C925.9983,104.3332 926.8583,103.9962 928.0423,103.3182 C929.2223,102.6412 930.4393,101.8442 931.6893,100.9302 C932.9393,100.0162 934.1043,99.1192 935.1863,98.2382 C936.2663,97.3592 937.0093,96.6812 937.4163,96.2072 L937.4163,85.6412 L909.6463,85.6412 C909.3083,85.6412 909.0723,85.6592 908.9363,85.6922 C908.8013,85.7272 908.5653,85.8442 908.2283,86.0472 C907.0793,86.7932 905.9643,87.7582 904.8833,88.9432 C903.8023,90.1282 902.8903,91.3302 902.1473,92.5492 C902.0793,92.6182 902.0463,92.6862 902.0463,92.7522 C901.9773,92.8212 901.9443,92.9562 901.9443,93.1592 L901.9443,97.0192 Z M881.5153,97.2222 L881.5153,93.5652 C881.5153,91.3302 881.7853,89.1642 882.3283,87.0632 C882.8703,84.9642 883.8183,82.9992 885.1733,81.1712 C885.5813,80.6292 886.1553,79.9522 886.9023,79.1392 C887.6463,78.3272 888.4773,77.4812 889.3923,76.5992 C890.3063,75.7202 891.2373,74.8732 892.1873,74.0602 C893.1353,73.2472 893.9813,72.5712 894.7283,72.0282 C896.7603,70.6062 899.0633,69.5062 901.6393,68.7262 C904.2143,67.9492 906.7883,67.5582 909.3643,67.5582 L937.4163,67.5582 L937.4163,60.6502 L937.4163,60.2442 C937.4163,59.9742 937.3473,59.7702 937.2133,59.6342 C936.6043,58.6182 935.6753,57.5362 934.4253,56.3832 C933.1753,55.2322 931.9433,54.2852 930.7273,53.5392 C930.1873,53.2692 929.7803,53.1322 929.5103,53.1322 L911.6733,53.1322 C911.0643,53.1322 910.3553,53.3862 909.5453,53.8942 C908.7333,54.4022 907.9393,54.9962 907.1633,55.6722 C906.3863,56.3502 905.6603,57.0432 904.9843,57.7542 C904.3073,58.4662 903.8363,59.0242 903.5653,59.4312 L884.3753,53.7422 C884.8503,52.5232 885.6653,51.1512 886.8183,49.6272 C887.9703,48.1032 889.2083,46.6302 890.5313,45.2082 C891.8533,43.7862 893.1593,42.4832 894.4483,41.2972 C895.7383,40.1132 896.7893,39.2492 897.6043,38.7062 C899.5703,37.3522 901.8933,36.2022 904.5743,35.2522 C907.2543,34.3052 909.8153,33.8302 912.2573,33.8302 L929.7593,33.8302 C932.3373,33.8302 934.9503,34.2212 937.5953,34.9982 C940.2413,35.7782 942.5813,36.8782 944.6163,38.3002 C945.3633,38.8432 946.2443,39.5192 947.2623,40.3322 C948.2123,41.1442 949.1613,42.0262 950.1113,42.9732 L952.5533,45.6152 C953.3673,46.4272 953.9783,47.1732 954.3843,47.8502 C955.8093,49.8152 956.7413,51.8972 957.1823,54.0972 C957.6253,56.2992 957.8453,58.4152 957.8453,60.4472 L957.8453,104.7402 L959.8783,122.6202 L939.6633,122.6202 L938.6423,118.5562 C936.8123,119.9122 934.8463,121.0962 932.7453,122.1122 C930.6443,123.1272 928.4083,123.6352 926.0373,123.6352 L909.3673,123.6352 C906.7913,123.6352 904.2163,123.2452 901.6413,122.4672 C899.0653,121.6892 896.7623,120.5872 894.7293,119.1652 C893.9833,118.6242 893.1363,117.9302 892.1883,117.0822 C891.2393,116.2372 890.3063,115.3562 889.3923,114.4422 C888.4773,113.5282 887.6463,112.6302 886.9023,111.7492 C886.1553,110.8712 885.5813,110.1592 885.1733,109.6162 C883.8183,107.7882 882.8703,105.8242 882.3283,103.7242 C881.7853,101.6252 881.5153,99.4572 881.5153,97.2222 L881.5153,97.2222 Z" id="Fill-22"></path>
                <path d="M975.5283,54.1481 L975.5283,34.8461 L989.0463,34.8461 L989.0463,1.1181 L1009.4753,1.1181 L1009.4753,34.8461 L1034.5803,34.8461 L1034.5803,54.1481 L1009.4753,54.1481 L1009.4753,95.3941 L1009.4753,95.9021 C1009.4753,96.1051 1009.5423,96.3431 1009.6783,96.6131 C1009.9483,97.1561 1010.3903,97.8161 1011.0003,98.5931 C1011.6093,99.3741 1012.2863,100.1181 1013.0333,100.8291 C1013.7773,101.5401 1014.5403,102.1331 1015.3193,102.6071 C1016.0973,103.0821 1016.8603,103.3181 1017.6063,103.3181 L1034.4783,103.3181 L1034.4783,122.6201 L1017.4033,122.6201 C1014.8273,122.6201 1012.2503,122.2641 1009.6693,121.5531 C1007.0873,120.8421 1004.7763,119.7751 1002.7343,118.3531 C1001.9163,117.8121 1001.0133,117.0831 1000.0263,116.1691 C999.0383,115.2541 998.0863,114.3241 997.1663,113.3751 C996.2473,112.4271 995.4133,111.4961 994.6633,110.5821 C993.9143,109.6671 993.3363,108.9401 992.9273,108.3971 C991.5653,106.4331 990.5793,104.3691 989.9663,102.2001 C989.3523,100.0341 989.0463,97.8321 989.0463,95.5971 L989.0463,54.1481 L975.5283,54.1481 Z" id="Fill-24"></path>
                <path d="M1055.516,122.619 L1075.945,122.619 L1075.945,34.846 L1055.516,34.846 L1055.516,122.619 Z M1054.702,22.452 L1076.555,22.452 L1076.555,0.712 L1054.702,0.712 L1054.702,22.452 Z" id="Fill-26"></path>
                <path d="M1099.4208,97.0192 L1099.4208,60.4472 C1099.4208,58.4152 1099.6758,56.3322 1100.1868,54.1992 C1100.6978,52.0652 1101.6678,50.0182 1103.0998,48.0532 C1103.5058,47.4432 1104.1018,46.6812 1104.8858,45.7672 C1105.6688,44.8522 1106.5208,43.9222 1107.4398,42.9732 C1108.3578,42.0262 1109.3118,41.1112 1110.2998,40.2302 C1111.2868,39.3512 1112.1538,38.6402 1112.9038,38.0972 C1114.9458,36.6752 1117.2938,35.6082 1119.9418,34.8972 C1122.5918,34.1862 1125.2018,33.8302 1127.7778,33.8302 L1147.0898,33.8302 C1149.5278,33.8302 1152.0858,34.2712 1154.7628,35.1512 C1157.4398,36.0322 1159.7588,37.1492 1161.7258,38.5032 C1162.7408,39.2492 1163.8928,40.1802 1165.1808,41.2972 C1166.4678,42.4152 1167.7218,43.6512 1168.9418,45.0052 C1170.1608,46.3612 1171.2948,47.7832 1172.3468,49.2722 C1173.3968,50.7622 1174.1918,52.1852 1174.7348,53.5392 L1155.8298,59.2272 C1155.6928,59.0242 1155.5248,58.8212 1155.3218,58.6182 C1155.2538,58.5512 1155.2208,58.4832 1155.2208,58.4152 L1153.7978,56.9932 C1153.1878,56.3832 1152.5098,55.7912 1151.7648,55.2152 C1151.0188,54.6402 1150.2738,54.1482 1149.5278,53.7422 C1148.7818,53.3352 1148.1728,53.1322 1147.6988,53.1322 L1127.9818,53.1322 C1127.7098,53.1322 1127.4388,53.2012 1127.1678,53.3352 C1126.9648,53.4042 1126.8278,53.4722 1126.7618,53.5392 C1125.5418,54.2852 1124.3388,55.1482 1123.1528,56.1292 C1121.9678,57.1122 1121.0018,58.2122 1120.2568,59.4312 C1119.9848,59.8372 1119.8508,60.1092 1119.8508,60.2442 C1119.7818,60.3802 1119.7818,60.5152 1119.8508,60.6502 L1119.8508,96.8162 C1119.7818,96.9532 1119.7818,97.0872 1119.8508,97.2222 C1119.8508,97.3592 1119.9848,97.6282 1120.2568,98.0352 C1121.0018,99.2542 1121.9678,100.3562 1123.1528,101.3362 C1124.3388,102.3192 1125.5418,103.1832 1126.7618,103.9272 C1126.8278,103.9962 1126.9648,104.0642 1127.1678,104.1302 C1127.4388,104.2672 1127.7098,104.3332 1127.9818,104.3332 L1147.9018,104.3332 C1148.3758,104.3332 1148.9848,104.1302 1149.7328,103.7242 C1150.4768,103.3182 1151.2218,102.8272 1151.9678,102.2502 C1152.7128,101.6762 1153.3908,101.0822 1154.0008,100.4732 L1155.4238,99.0512 C1155.4238,98.9842 1155.4568,98.9152 1155.5248,98.8472 C1155.7288,98.6442 1155.8978,98.4412 1156.0328,98.2382 L1174.9388,103.9272 C1174.3958,105.1462 1173.5818,106.5182 1172.4988,108.0412 C1171.4138,109.5652 1170.2118,111.0392 1168.8908,112.4602 C1167.5688,113.8832 1166.2808,115.1882 1165.0278,116.3722 C1163.7748,117.5572 1162.7408,118.4212 1161.9288,118.9622 C1159.9628,120.3182 1157.6428,121.4352 1154.9668,122.3152 C1152.2888,123.1942 1149.7328,123.6352 1147.2928,123.6352 L1127.7778,123.6352 C1125.2018,123.6352 1122.5918,123.2802 1119.9418,122.5692 C1117.2938,121.8582 1114.9458,120.7902 1112.9038,119.3692 C1112.1538,118.8282 1111.2868,118.1172 1110.2998,117.2362 C1109.3118,116.3562 1108.3578,115.4422 1107.4398,114.4932 C1106.5208,113.5442 1105.6688,112.6132 1104.8858,111.6992 C1104.1018,110.7852 1103.5058,110.0232 1103.0998,109.4132 C1101.6678,107.4502 1100.6978,105.4002 1100.1868,103.2672 C1099.6758,101.1332 1099.4208,99.0512 1099.4208,97.0192" id="Fill-28"></path>
            </g>
        </g>
    </g>
</svg>