<?xml version="1.0" encoding="UTF-8"?> <svg xmlns="http://www.w3.org/2000/svg" xmlns:xlink="http://www.w3.org/1999/xlink" width="344px" height="72px" viewBox="0 0 344 72"> <!-- Generator: Sketch 49 (51002) - http://www.bohemiancoding.com/sketch --> <title>lengow.svg</title> <desc>Created with Sketch.</desc> <defs></defs> <g id="Page-1" stroke="none" stroke-width="1" fill="none" fill-rule="evenodd"> <g id="lengow.svg" transform="translate(4.000000, 4.000000)" fill="#1D2C4F" fill-rule="nonzero"> <path d="M309.1569,36.279 C310.7759,31.661 312.3409,27.308 313.8099,22.924 C314.1359,21.954 314.5859,21.595 315.5829,21.69 C316.7269,21.799 318.1509,21.389 318.9579,21.936 C319.7099,22.446 319.8269,23.91 320.1969,24.963 C321.3619,28.275 322.5119,31.592 323.6739,34.906 C323.8009,35.269 323.9579,35.622 324.2259,36.292 C324.9219,34.327 325.5149,32.665 326.0979,31 C327.9059,25.841 329.7269,20.686 331.4939,15.512 C331.7599,14.736 332.1039,14.464 332.9299,14.485 C335.2009,14.547 337.4729,14.507 339.9169,14.507 C339.0339,17.022 338.2019,19.384 337.3739,21.749 C334.1699,30.9 330.9529,40.048 327.7879,49.213 C327.5009,50.044 327.1389,50.331 326.2829,50.286 C324.9679,50.216 323.6409,50.208 322.3269,50.287 C321.3429,50.345 320.8649,50.05 320.5429,49.055 C319.4739,45.754 318.2809,42.492 317.1309,39.217 C317.0129,38.886 316.8579,38.569 316.6219,38.013 C315.5579,41.031 314.5719,43.828 313.5879,46.625 C313.2689,47.528 312.9119,48.421 312.6549,49.341 C312.4659,50.019 312.1599,50.312 311.4129,50.285 C309.8549,50.225 308.2929,50.308 306.7359,50.235 C306.3749,50.218 305.8189,49.887 305.7089,49.575 C301.6199,37.986 297.5719,26.382 293.5219,14.778 C293.5109,14.747 293.5389,14.701 293.5869,14.516 C296.0439,14.516 298.5429,14.484 301.0389,14.563 C301.3099,14.571 301.6669,15.181 301.8059,15.576 C304.1379,22.158 306.4399,28.751 308.7519,35.34 C308.8289,35.558 308.9349,35.766 309.1569,36.279" id="Fill-1"></path> <path d="M172.0759,27.7428 L172.0759,38.9588 L172.0759,50.1798 L165.0779,50.1798 L165.0779,14.5068 C166.7989,14.5068 168.5469,14.6058 170.2769,14.4738 C171.6289,14.3718 172.4359,14.8608 173.2449,15.9178 C178.3259,22.5518 183.4779,29.1308 188.6079,35.7268 C188.9719,36.1948 189.3469,36.6548 189.9599,37.4228 L189.9599,14.5798 L197.0979,14.5798 L197.0979,50.2468 C194.7989,50.2468 192.4969,50.2808 190.1979,50.2088 C189.8799,50.1978 189.5319,49.7008 189.2739,49.3698 C183.8639,42.4338 178.4659,35.4888 173.0629,28.5478 C172.8299,28.2478 172.5759,27.9648 172.3329,27.6728 C172.2469,27.6958 172.1609,27.7198 172.0759,27.7428" id="Fill-3"></path> <path d="M268.6657,43.7868 C262.3457,43.7068 257.3857,38.5968 257.4157,32.1858 C257.4357,26.1068 262.5747,21.0568 268.7347,21.0568 C274.9947,21.0668 280.0857,26.1768 280.0647,32.4358 C280.0457,38.6858 274.8357,43.8568 268.6657,43.7868 M268.7957,13.7168 C258.5247,13.7068 250.0557,21.9758 250.0347,32.0368 C250.0247,42.6968 258.1147,51.0068 268.6547,51.1468 C278.7347,51.2868 287.3947,42.7968 287.4157,32.7658 C287.4257,22.0668 279.2847,13.7258 268.7957,13.7168" id="Fill-5"></path> <path d="M232.9645,35.9616 L229.3715,35.9616 C230.1845,33.6276 230.9145,31.4826 231.6935,29.3556 C231.7765,29.1316 232.1475,28.8716 232.3885,28.8676 C234.9005,28.8326 237.4115,28.8466 240.0905,28.8466 L240.0905,30.1286 C240.0905,34.5666 240.1165,39.0066 240.0595,43.4446 C240.0515,44.0506 239.7825,44.8096 239.3655,45.2286 C234.0275,50.5906 227.6195,52.4466 220.3815,50.2556 C213.0425,48.0336 208.5225,42.9046 207.3535,35.3156 C205.7355,24.8206 212.3945,15.8176 222.8195,13.9246 C227.1835,13.1316 232.6515,14.3186 236.0455,16.8446 C235.2995,18.9796 234.5415,21.1466 233.7355,23.4536 C233.2795,23.1956 232.9155,22.9896 232.5515,22.7816 C225.4855,18.7506 217.0395,21.8966 214.8595,29.3726 C213.5415,33.8866 215.3255,38.8976 219.2345,41.6586 C223.1055,44.3946 228.3885,44.4506 232.1535,41.7276 C232.5585,41.4346 232.8905,40.7916 232.9285,40.2876 C233.0335,38.9046 232.9645,37.5096 232.9645,35.9616" id="Fill-7"></path> <path d="M129.1823,14.5514 L154.1713,14.5514 C153.3663,16.8514 152.6193,19.0724 151.7803,21.2594 C151.6873,21.4994 151.0683,21.6524 150.6923,21.6544 C146.3743,21.6814 142.0553,21.6714 137.7373,21.6714 L136.3393,21.6714 L136.3393,28.7904 L150.6123,28.7904 C150.0993,30.2564 149.6753,31.5164 149.2163,32.7624 C148.8343,33.7994 148.6833,35.1894 147.9293,35.7434 C147.2193,36.2684 145.8563,35.9274 144.7803,35.9334 C142.3013,35.9464 139.8223,35.9614 137.3433,35.9244 C136.5363,35.9124 136.2043,36.1364 136.2283,37.0024 C136.2843,38.9904 136.2453,40.9814 136.2453,43.0984 L154.1763,43.0984 C153.5783,44.8444 153.0493,46.4104 152.5073,47.9724 C151.7113,50.2684 151.7083,50.2674 149.2343,50.2674 L130.6403,50.2674 L129.1823,50.2674 L129.1823,14.5514 Z" id="Fill-9"></path> <path d="M118.3493,43.1022 C117.5083,45.5122 116.7953,47.6622 115.9763,49.7712 C115.8703,50.0452 115.2143,50.2452 114.8133,50.2462 C108.6193,50.2762 102.4253,50.2672 96.2313,50.2672 L93.4053,50.2672 L93.4053,14.5812 L100.4303,14.5812 L100.4303,43.1022 L118.3493,43.1022 Z" id="Fill-11"></path> <path d="M54.7939087,59.9997 L60.7541,43.7877137 L60.7541,3.9997 L4.0001,3.9997 L4.0001,59.9997 L54.7939087,59.9997 Z M-3.9999,67.9997 L-3.9999,-4.0003 L68.7541,-4.0003 L68.7541,45.2116863 L60.3762913,67.9997 L-3.9999,67.9997 Z" id="Stroke-13"></path> <path d="M44.3488,42.1022 C43.5088,44.5122 42.7958,46.6622 41.9758,48.7712 C41.8698,49.0452 41.2148,49.2452 40.8128,49.2462 C34.6188,49.2762 28.4248,49.2672 22.2308,49.2672 L19.4048,49.2672 L19.4048,13.5812 L26.4308,13.5812 L26.4308,42.1022 L44.3488,42.1022 Z" id="Fill-15"></path> </g> </g> </svg> 