<?xml version="1.0" encoding="UTF-8" standalone="no"?>
<svg width="1787px" height="1424px" viewBox="0 0 1787 1424" version="1.1" xmlns="http://www.w3.org/2000/svg" xmlns:xlink="http://www.w3.org/1999/xlink">
    <!-- Generator: Sketch 3.8.2 (29753) - http://www.bohemiancoding.com/sketch -->
    <title>trytheworld</title>
    <desc>Created with Sketch.</desc>
    <defs></defs>
    <g id="Page-1" stroke="none" stroke-width="1" fill="none" fill-rule="evenodd">
        <g id="trytheworld" fill="#00DFC2">
            <path d="M955.768,1001.9622 L944.223,1001.9622 L998.083,832.2742 C1036.316,822.8632 1072.52,808.2992 1105.862,789.2712 L955.768,1001.9622 Z M916.208,1001.9622 L942.025,842.0912 C956.027,840.5992 969.833,838.4362 983.383,835.6182 L930.594,1001.9622 L916.208,1001.9622 Z M904.418,1001.9622 L891.173,1001.9622 L865.564,843.3162 C875.952,844.0702 886.423,844.4842 897.002,844.4842 C908.128,844.4842 919.14,844.0482 930.041,843.2002 L904.418,1001.9622 Z M865.344,1001.9622 L812.681,836.0432 C826.092,838.7722 839.758,840.8532 853.595,842.2722 L879.37,1001.9622 L865.344,1001.9622 Z M837.982,1001.9622 L687.701,789.0392 C721.781,808.5302 758.834,823.3792 798.009,832.7832 L851.718,1001.9622 L837.982,1001.9622 Z M594.114,422.2412 C594.114,211.3022 712.811,37.7402 865.089,16.2612 C812.989,62.3452 748.034,205.9502 757.085,458.7872 C766.531,723.5602 844.031,809.9692 864.242,828.1002 C712.36,806.0772 594.114,632.7822 594.114,422.2412 L594.114,422.2412 Z M1199.881,422.2412 C1199.881,632.9242 1081.476,806.2982 929.461,828.1402 C961.223,804.2052 1051.485,691.5112 1036.998,365.4832 C1026.524,129.5512 965.522,45.6232 926.914,15.9872 C1080.136,36.2432 1199.881,210.4022 1199.881,422.2412 L1199.881,422.2412 Z M1319.22,422.2412 C1319.22,189.0372 1130.189,0.0042 897.002,0.0042 C896.334,0.0042 895.666,0.0272 894.997,0.0272 C894.905,0.0142 894.829,0.0042 894.829,0.0042 C894.788,0.0142 894.738,0.0272 894.715,0.0272 C662.568,1.2642 474.771,189.8082 474.771,422.2412 C474.771,567.2342 547.871,695.1532 659.206,771.1802 L827.943,1010.3022 L827.943,1046.8542 L862.414,1046.8542 C862.414,1046.8542 864.934,1033.4412 872.113,1033.4412 C879.325,1033.4412 887.482,1038.6902 892.726,1046.8542 L902.067,1046.8542 C902.067,1046.8542 910.829,1033.4412 918.99,1033.4412 C927.146,1033.4412 930.054,1046.8542 930.054,1046.8542 L968.931,1046.8542 L968.931,1005.8482 L1134.291,771.5102 C1245.913,695.5252 1319.22,567.4372 1319.22,422.2412 L1319.22,422.2412 Z" id="Fill-1"></path>
            <path d="M918.9897,1075.14 C910.8287,1075.14 902.0667,1060.585 902.0667,1060.585 L892.7267,1060.585 C887.4817,1069.45 879.3247,1075.14 872.1127,1075.14 C864.9337,1075.14 862.4137,1060.585 862.4137,1060.585 L827.9437,1060.585 L827.9437,1126.745 L968.9307,1126.745 L968.9307,1060.585 L930.0547,1060.585 C930.0547,1060.585 927.1457,1075.14 918.9897,1075.14" id="Fill-3"></path>
            <polygon id="Fill-5" points="0 1266.3617 129.919 1266.3617 129.919 1286.1777 75.703 1286.1777 75.703 1422.1087 53.326 1422.1087 53.326 1286.1777 0 1286.1777"></polygon>
            <path d="M185.1328,1285.5101 L178.4528,1285.5101 L178.4528,1334.6061 L186.9138,1334.6061 C198.1948,1334.6061 205.9318,1333.6421 210.1258,1331.7111 C214.3178,1329.7821 217.5848,1326.8681 219.9228,1322.9721 C222.2608,1319.0751 223.4298,1314.6411 223.4298,1309.6681 C223.4298,1304.7701 222.1298,1300.3361 219.5328,1296.3651 C216.9338,1292.3951 213.2798,1289.5931 208.5668,1287.9591 C203.8538,1286.3271 196.0428,1285.5101 185.1328,1285.5101 L185.1328,1285.5101 Z M156.1878,1422.1091 L156.1878,1266.5841 L195.1528,1266.5841 C210.8858,1266.5841 223.3738,1270.4811 232.6138,1278.2741 C241.8538,1286.0671 246.4738,1296.6071 246.4738,1309.8911 C246.4738,1318.9471 244.2098,1326.7761 239.6828,1333.3811 C235.1548,1339.9881 228.6618,1344.9221 220.2008,1348.1881 C225.1718,1351.4541 230.0338,1355.9081 234.7848,1361.5461 C239.5338,1367.1881 246.2128,1377.0211 254.8238,1391.0481 C260.2408,1399.8811 264.5828,1406.5231 267.8488,1410.9761 L276.0878,1422.1091 L249.5908,1422.1091 L242.8088,1411.8621 C242.5868,1411.4911 242.1408,1410.8601 241.4748,1409.9671 L237.1388,1403.8401 L230.2448,1392.4801 L222.7958,1380.3381 C218.2008,1373.9521 213.9888,1368.8691 210.1628,1365.0921 C206.3358,1361.3141 202.8788,1358.5891 199.7968,1356.9231 C196.7128,1355.2571 191.5308,1354.4221 184.2498,1354.4221 L178.4528,1354.4221 L178.4528,1422.1091 L156.1878,1422.1091 Z" id="Fill-7"></path>
            <polygon id="Fill-9" points="377.6508 1266.5843 404.6788 1266.5843 347.2338 1339.8383 347.2338 1422.1083 324.4118 1422.1083 324.4118 1339.8383 266.9668 1266.5843 293.8458 1266.5843 335.4668 1320.2023"></polygon>
            <polygon id="Fill-11" points="457.101 1266.3617 587.02 1266.3617 587.02 1286.1777 532.804 1286.1777 532.804 1422.1087 510.427 1422.1087 510.427 1286.1777 457.101 1286.1777"></polygon>
            <polygon id="Fill-13" points="717.7182 1266.5843 739.9842 1266.5843 739.9842 1422.1083 717.7182 1422.1083 717.7182 1354.4223 630.3262 1354.4223 630.3262 1422.1083 608.0612 1422.1083 608.0612 1266.5843 630.3262 1266.5843 630.3262 1333.8263 717.7182 1333.8263"></polygon>
            <polygon id="Fill-15" points="774.2724 1266.5843 862.4434 1266.5843 862.4434 1286.4003 796.5374 1286.4003 796.5374 1333.8263 860.2174 1333.8263 860.2174 1353.7543 796.5374 1353.7543 796.5374 1402.0693 864.5594 1402.0693 864.5594 1421.8863 774.2724 1421.8863"></polygon>
            <polygon id="Fill-17" points="1157.7084 1266.5843 1179.9124 1266.5843 1117.0354 1422.7763 1112.1444 1422.7763 1061.2934 1296.3093 1009.9154 1422.7763 1005.1364 1422.7763 942.4514 1266.5843 964.8864 1266.5843 1007.7444 1373.7923 1050.8914 1266.5843 1071.9384 1266.5843 1115.2874 1373.7923"></polygon>
            <g id="Group-21" transform="translate(1190.000000, 1263.890000)">
                <path d="M84.3735,21.6201 C66.5765,21.6201 51.9515,27.1861 40.4955,38.3191 C29.0385,49.4521 23.3105,63.6651 23.3105,80.9581 C23.3105,97.7311 29.0565,111.6841 40.5515,122.8161 C52.0435,133.9491 66.4295,139.5161 83.7055,139.5161 C101.0555,139.5161 115.5335,133.8381 127.1395,122.4821 C138.7435,111.1271 144.5465,96.9881 144.5465,80.0671 C144.5465,63.5911 138.7435,49.7301 127.1395,38.4861 C115.5335,27.2421 101.2775,21.6201 84.3735,21.6201 M83.4825,0.4681 C107.5125,0.4681 127.5195,8.0761 143.5045,23.2901 C159.4865,38.5061 167.4795,57.5791 167.4795,80.5131 C167.4795,103.4451 159.4135,122.4271 143.2815,137.4561 C127.1495,152.4851 106.8105,160.0001 82.2605,160.0001 C58.8225,160.0001 39.2965,152.4851 23.6855,137.4561 C8.0705,122.4271 0.2665,103.5961 0.2665,80.9581 C0.2665,57.7281 8.1265,38.5061 23.8525,23.2901 C39.5745,8.0761 59.4515,0.4681 83.4825,0.4681" id="Fill-19"></path>
            </g>
            <path d="M1414.4799,1285.5101 L1407.7999,1285.5101 L1407.7999,1334.6061 L1416.2609,1334.6061 C1427.5419,1334.6061 1435.2789,1333.6421 1439.4719,1331.7111 C1443.6649,1329.7821 1446.9309,1326.8681 1449.2689,1322.9721 C1451.6069,1319.0751 1452.7759,1314.6411 1452.7759,1309.6681 C1452.7759,1304.7701 1451.4769,1300.3361 1448.8789,1296.3651 C1446.2809,1292.3951 1442.6259,1289.5931 1437.9139,1287.9591 C1433.1999,1286.3271 1425.3899,1285.5101 1414.4799,1285.5101 L1414.4799,1285.5101 Z M1385.5349,1422.1091 L1385.5349,1266.5841 L1424.4999,1266.5841 C1440.2329,1266.5841 1452.7199,1270.4811 1461.9609,1278.2741 C1471.2009,1286.0671 1475.8209,1296.6071 1475.8209,1309.8911 C1475.8209,1318.9471 1473.5559,1326.7761 1469.0299,1333.3811 C1464.5029,1339.9881 1458.0079,1344.9221 1449.5469,1348.1881 C1454.5189,1351.4541 1459.3809,1355.9081 1464.1309,1361.5461 C1468.8799,1367.1881 1475.5599,1377.0211 1484.1709,1391.0481 C1489.5879,1399.8811 1493.9289,1406.5231 1497.1959,1410.9761 L1505.4339,1422.1091 L1478.9379,1422.1091 L1472.1559,1411.8621 C1471.9329,1411.4911 1471.4879,1410.8601 1470.8219,1409.9671 L1466.4849,1403.8401 L1459.5909,1392.4801 L1452.1429,1380.3381 C1447.5469,1373.9521 1443.3369,1368.8691 1439.5089,1365.0921 C1435.6819,1361.3141 1432.2259,1358.5891 1429.1429,1356.9231 C1426.0589,1355.2571 1420.8779,1354.4221 1413.5959,1354.4221 L1407.7999,1354.4221 L1407.7999,1422.1091 L1385.5349,1422.1091 Z" id="Fill-22"></path>
            <polygon id="Fill-24" points="1527.1392 1266.5843 1549.4052 1266.5843 1549.4052 1401.8473 1619.4292 1401.8473 1619.4292 1422.1083 1527.1392 1422.1083"></polygon>
            <g id="Group-28" transform="translate(1643.000000, 1265.890000)">
                <path d="M50.7905,20.5107 L22.9595,20.5107 L22.9595,136.1797 L51.4585,136.1797 C62.5915,136.1797 71.2365,135.4197 77.3975,133.8977 C83.5585,132.3767 88.6975,130.4467 92.8165,128.1087 C96.9365,125.7707 100.7015,122.8957 104.1165,119.4807 C115.1005,108.3477 120.5935,94.2837 120.5935,77.2877 C120.5935,60.5887 114.9515,46.9697 103.6715,36.4307 C99.5145,32.4977 94.7465,29.2697 89.3655,26.7447 C83.9835,24.2227 78.8825,22.5527 74.0585,21.7357 C69.2325,20.9197 61.4785,20.5107 50.7905,20.5107 L50.7905,20.5107 Z M0.6935,155.9957 L0.6935,0.6947 L53.1285,0.6947 C74.2805,0.6947 91.0165,3.8677 103.3375,10.2127 C115.6565,16.5587 125.4535,25.8927 132.7285,38.2117 C140.0005,50.5317 143.6385,63.9667 143.6385,78.5127 C143.6385,88.9047 141.6345,98.8487 137.6265,108.3477 C133.6185,117.8487 127.9025,126.1987 120.4815,133.3967 C112.9115,140.8197 104.1165,146.4217 94.0975,150.2067 C88.2335,152.5087 82.8535,154.0477 77.9545,154.8267 C73.0565,155.6067 63.7045,155.9957 49.8995,155.9957 L0.6935,155.9957 Z" id="Fill-26"></path>
            </g>
        </g>
    </g>
</svg>