<?xml version="1.0" encoding="UTF-8"?> <svg xmlns="http://www.w3.org/2000/svg" xmlns:xlink="http://www.w3.org/1999/xlink" width="443px" height="115px" viewBox="0 0 443 115"> <!-- Generator: Sketch 48.2 (47327) - http://www.bohemiancoding.com/sketch --> <title>wynd</title> <desc>Created with Sketch.</desc> <defs></defs> <g id="Page-1" stroke="none" stroke-width="1" fill="none" fill-rule="evenodd"> <g id="wynd"> <path d="M271.278,84.2489 C268.339,85.0209 265.58,85.9899 262.739,86.4449 C255.35,87.6269 248.125,87.0089 241.459,83.3119 C233.777,79.0509 229.956,72.3169 229.841,63.6249 C229.695,52.5009 229.805,41.3739 229.808,30.2479 C229.808,29.9609 229.85,29.6759 229.883,29.2589 L242.212,29.2589 C242.238,29.8629 242.295,30.5329 242.295,31.2019 C242.3,40.8049 242.257,50.4089 242.332,60.0119 C242.347,61.9799 242.611,63.9939 243.093,65.9019 C244.447,71.2729 247.927,74.4279 253.451,75.2319 C258.568,75.9779 263.426,75.5379 267.336,71.6969 C270.122,68.9599 271.13,65.4009 271.167,61.6219 C271.266,51.4919 271.245,41.3619 271.271,31.2309 C271.273,30.6009 271.272,29.9699 271.272,29.2349 L283.685,29.2349 C283.716,29.9219 283.772,30.5989 283.773,31.2749 C283.778,39.2979 283.781,47.3199 283.773,55.3429 C283.762,67.2839 283.727,79.2239 283.728,91.1649 C283.729,102.3509 276.467,110.5189 266.423,113.0559 C257.317,115.3559 248.462,114.9219 240.18,109.9729 C239.293,109.4419 238.486,108.7739 237.536,108.0939 C240.403,104.9969 243.137,102.0439 245.848,99.1179 C252.038,103.8339 258.726,104.4649 265.236,100.7139 C271.525,97.0899 271.33,90.5049 271.278,84.2489" id="Fill-1" fill="#3D4F6C"></path> <path d="M155.8244,70.0472 C159.7694,58.6012 163.6064,47.4482 167.4604,36.3012 C168.6814,32.7682 170.1854,31.8372 174.4404,31.8782 C178.3354,31.9152 180.1034,33.0932 181.2234,36.4502 C184.7924,47.1442 188.3494,57.8422 191.9164,68.5362 C192.0784,69.0222 192.2954,69.4882 192.6344,70.3282 C193.7194,67.4542 194.7664,64.9322 195.6304,62.3492 C199.0584,52.1012 202.4484,41.8392 205.7974,31.5652 C206.1774,30.3972 206.6344,29.8692 207.9654,29.9012 C211.9334,30.0002 215.9064,29.9372 220.1574,29.9372 C219.3474,32.4852 218.7484,34.8452 217.8594,37.0912 C211.9374,52.0402 205.9474,66.9612 200.0034,81.9012 C199.5954,82.9262 198.9874,83.2762 197.8884,83.2532 C194.6094,83.1832 191.3264,83.1632 188.0494,83.2582 C186.7274,83.2972 186.0834,82.8932 185.6514,81.6152 C182.2034,71.4312 178.6884,61.2692 175.1944,51.1002 C174.9304,50.3312 174.6724,49.5592 174.2544,48.3272 C173.7104,49.8042 173.2784,50.8852 172.9104,51.9872 C169.6234,61.8572 166.3284,71.7242 163.0914,81.6102 C162.7024,82.7952 162.1764,83.2902 160.8734,83.2532 C157.5954,83.1592 154.3044,83.0772 151.0364,83.2792 C149.1414,83.3962 148.3204,82.6212 147.6774,81.0282 C144.1074,72.1922 140.3424,63.4312 136.9114,54.5422 C133.9874,46.9652 131.4204,39.2502 128.7094,31.5912 C128.5594,31.1702 128.5324,30.7062 128.3874,29.9422 C129.8754,29.9422 131.1894,29.9412 132.5034,29.9422 C135.2564,29.9432 138.0114,30.0052 140.7614,29.9172 C141.9794,29.8782 142.4714,30.3212 142.8414,31.4592 C146.5254,42.7912 150.2624,54.1072 154.0134,65.4182 C154.5174,66.9372 155.1774,68.4042 155.8244,70.0472" id="Fill-4" fill="#3D4F6C"></path> <path d="M392.8146,71.4398 C382.2446,74.2598 372.3246,67.3898 371.1846,56.5398 C370.4846,49.8798 371.8346,43.8898 377.0046,39.3198 C385.9146,31.4498 399.9646,35.1598 403.9146,46.3998 C404.7346,48.7398 405.0146,51.2598 405.5446,53.6998 C405.2046,62.6698 400.4946,69.3998 392.8146,71.4398 M417.6346,8.2198 C417.6346,5.9998 417.5946,3.7698 417.6446,1.5498 C417.6646,0.5398 417.3846,-0.0002 416.2946,-0.0002 C412.6746,0.0198 409.0546,0.0098 405.1846,0.0098 L405.1846,32.2298 C403.7446,30.9298 402.6346,29.8198 401.4246,28.8498 C391.2446,20.6798 374.2046,22.6998 365.3546,32.9798 C359.4646,39.7998 357.2946,47.8398 358.0646,56.6298 C358.8846,66.1398 363.1746,73.8198 371.3946,78.9798 C378.7646,83.6098 386.8246,84.4598 395.2146,82.7898 C403.0946,81.2098 409.1946,77.0498 413.2046,69.9998 C416.3246,64.5198 417.6046,58.5598 417.6246,52.3298 C417.6646,37.6298 417.6346,22.9198 417.6346,8.2198" id="Fill-6" fill="#3D4F6C"></path> <path d="M306.5466,84.1176 L294.1176,84.1176 C294.0796,83.6306 294.0086,83.1316 294.0086,82.6336 C294.0016,71.9186 293.9866,61.2036 294.0076,50.4896 C294.0316,38.1486 302.0636,28.9346 314.2976,26.9956 C321.2076,25.8996 327.9606,26.1856 334.4066,29.0506 C343.1196,32.9226 347.7206,39.8346 347.9506,49.2636 C348.2276,60.6156 348.0156,71.9796 348.0106,83.3386 C348.0106,83.5606 347.9516,83.7826 347.9056,84.1056 L335.4766,84.1056 L335.4766,82.1486 C335.4766,72.4876 335.5156,62.8266 335.4436,53.1666 C335.4286,51.2546 335.1866,49.2946 334.7016,47.4476 C333.1906,41.6806 329.2446,38.6206 323.4156,37.9806 C316.8036,37.2536 310.5416,39.0386 308.1106,45.1446 C307.1606,47.5296 306.6566,50.2386 306.6116,52.8116 C306.4426,62.5286 306.5456,72.2496 306.5466,81.9686 C306.5466,82.6106 306.5466,83.2526 306.5466,84.1176" id="Fill-9" fill="#3D4F6C"></path> <polygon id="Fill-11" fill="#3D4F6C" points="429.5959 12.496 429.5959 4.92 426.7659 4.92 426.7659 3.906 433.5749 3.906 433.5749 4.92 430.7329 4.92 430.7329 12.496"></polygon> <path d="M434.7053,12.496 L434.7053,3.906 L436.4163,3.906 L438.4493,9.988 C438.6373,10.555 438.7733,10.978 438.8593,11.26 C438.9573,10.947 439.1093,10.488 439.3163,9.883 L441.3733,3.906 L442.9023,3.906 L442.9023,12.496 L441.8073,12.496 L441.8073,5.307 L439.3103,12.496 L438.2853,12.496 L435.8013,5.184 L435.8013,12.496 L434.7053,12.496 Z" id="Fill-13" fill="#3D4F6C"></path> <path d="M60.3747,83.2699 L8.5947,83.2699 C1.3547,83.2699 -2.6253,74.8599 1.9547,69.2599 L28.5847,36.7499 C28.7747,36.8599 28.9547,36.9699 29.1347,37.0899 C32.8347,39.4499 34.5447,42.6999 36.9047,47.1899 L37.2347,47.8199 C48.1947,68.6099 53.9547,79.5299 60.3747,83.2699" id="Fill-15" fill="#68B4E4"></path> <path d="M71.2746,66.8998 C69.7346,69.3198 67.1546,73.3498 65.9246,73.7698 C62.6046,72.3498 55.0046,57.9398 46.9646,42.6898 L46.6446,42.0698 C44.0546,37.1498 41.3746,32.0698 35.6046,28.1698 L44.1146,17.7898 C49.7346,10.9198 60.4246,11.5098 65.2546,18.9598 L86.8346,52.2098 C79.3146,54.3398 74.8946,61.2398 71.2746,66.8998" id="Fill-17" fill="#667CB5"></path> <path d="M93.5495,83.2699 L71.4845,83.2699 C75.2945,81.0499 78.0345,76.7599 80.5445,72.8299 C83.5945,68.0499 86.7545,63.1199 90.7245,62.6199 C90.9775,62.5879 91.2355,62.5729 91.4975,62.5749 C92.8115,62.5819 94.0265,63.2869 94.7405,64.3889 L99.6745,71.9999 C102.8225,76.8559 99.3375,83.2699 93.5495,83.2699" id="Fill-19" fill="#4D5B92"></path> </g> </g> </svg> 