<?xml version="1.0" encoding="UTF-8" standalone="no"?>
<svg width="343px" height="112px" viewBox="0 0 343 112" version="1.1" xmlns="http://www.w3.org/2000/svg" xmlns:xlink="http://www.w3.org/1999/xlink">
    <!-- Generator: Sketch 3.8.2 (29753) - http://www.bohemiancoding.com/sketch -->
    <title>wynd</title>
    <desc>Created with Sketch.</desc>
    <defs></defs>
    <g id="Page-1" stroke="none" stroke-width="1" fill="none" fill-rule="evenodd">
        <g id="wynd">
            <g id="Calque_1">
                <path d="M25.9,42 C25.4,43.7 24.7,45.9 24.9,47.6 C25,48.7 25.2,49.8 25.3,50.9 L25.3,51 C25.3,51.2 25.5,51.3 25.7,51.3 C26.2,51.2 26.8,51.1 27.3,51 C27.5,51 27.7,50.7 27.7,50.5 C27.3,47.7 27,45 26.6,42.2 C26.6,41.7 26,41.5 25.9,42 L25.9,42 Z" id="XMLID_47_" fill="#2AABE3"></path>
                <path d="M41.4,18.5 C40.9,19 40.4,19.4 39.9,19.9 C39.8,20 39.7,20.2 39.7,20.3 C40.9,29.3 42.1,38.2 43.3,47.2 C43.3,47.4 43.5,47.6 43.7,47.6 C44.3,47.5 44.8,47.4 45.4,47.2 C45.4,47.2 45.5,47.2 45.5,47.1 C45.6,47 45.8,46.9 45.7,46.6 C44.5,37.3 43.2,28 42,18.7 C42,18.4 41.6,18.2 41.4,18.5 L41.4,18.5 Z" id="XMLID_46_" fill="#2AABE3"></path>
                <path d="M34.3,49 C34.3,49.2 34.5,49.4 34.7,49.4 C35.3,49.3 35.8,49.2 36.4,49.1 C36.4,49.1 36.5,49.1 36.5,49 C36.6,48.9 36.8,48.8 36.7,48.5 C35.8,41.5 34.8,34.5 33.9,27.5 C33.9,27.1 33.4,27 33.2,27.3 C32.1,28.8 31.6,29.1 31.8,30.8 C32.1,33.1 32.4,35.3 32.7,37.6 C33.3,41.4 33.8,45.2 34.3,49 L34.3,49 Z" id="XMLID_45_" fill="#2AABE3"></path>
                <path d="M29.4,33.3 C28.8,34.4 27.9,35.6 28,36.9 C28.2,38.4 28.4,40 28.6,41.5 C29,44.3 29.4,47.1 29.7,49.9 C29.7,50.1 29.9,50.3 30.1,50.3 C30.7,50.2 31.2,50.1 31.8,50 C31.8,50 31.9,50 31.9,49.9 C32,49.8 32.2,49.7 32.1,49.4 L30,33.5 C30.1,33.2 29.6,32.9 29.4,33.3 L29.4,33.3 Z" id="XMLID_44_" fill="#2AABE3"></path>
                <path d="M38.8,48.1 C38.8,48.3 39,48.5 39.2,48.5 C39.8,48.4 40.3,48.3 40.9,48.1 L41,48.1 C41.1,48 41.3,47.9 41.2,47.6 C40.1,39.3 39,31 37.9,22.8 C37.9,22.5 37.5,22.2 37.3,22.5 C35.6,24.4 35.6,24.2 35.9,26.4 C36.3,29.1 36.6,31.8 37,34.5 C37.6,39 38.2,43.5 38.8,48.1 L38.8,48.1 Z" id="XMLID_43_" fill="#2AABE3"></path>
                <path d="M54.1,9.6 C53.6,9.9 53,10.2 52.5,10.5 C52.3,10.6 52.2,10.8 52.2,11 C53.7,22.1 55.2,33.3 56.7,44.4 C56.7,44.6 56.9,44.8 57.1,44.8 C57.6,44.7 58.2,44.6 58.7,44.5 C58.7,44.5 58.8,44.5 58.8,44.4 C58.9,44.3 59.1,44.2 59,43.9 L54.5,10 C54.6,9.6 54.4,9.4 54.1,9.6 L54.1,9.6 Z" id="XMLID_42_" fill="#2AABE3"></path>
                <path d="M49.9,12.1 C49.3,12.5 48.8,12.8 48.3,13.2 C48.2,13.3 48.1,13.5 48.1,13.6 C49.5,24.2 50.9,34.7 52.3,45.3 C52.3,45.5 52.5,45.7 52.7,45.7 C53.3,45.6 53.8,45.5 54.3,45.3 L54.4,45.3 C54.6,45.2 54.7,45.1 54.6,44.8 C53.2,34 51.7,23.2 50.3,12.4 C50.4,12.2 50.1,11.9 49.9,12.1 L49.9,12.1 Z" id="XMLID_41_" fill="#2AABE3"></path>
                <path d="M84.2,39.1 C84.8,39 85.3,38.9 85.9,38.7 C85.9,38.7 86,38.7 86,38.6 C86.1,38.5 86.3,38.4 86.2,38.1 C84.6,25.9 82.9,13.6 81.3,1.4 C81.3,1.1 81.1,1 80.9,1 C80.3,1.1 79.8,1.1 79.2,1.2 C79,1.2 78.8,1.5 78.8,1.7 C80.4,14 82.1,26.3 83.7,38.6 C83.8,39 84,39.2 84.2,39.1 L84.2,39.1 Z" id="XMLID_40_" fill="#2AABE3"></path>
                <path d="M88.7,38.2 C89.3,38.1 89.8,38 90.4,37.8 C90.4,37.8 90.5,37.8 90.5,37.7 C90.6,37.6 90.8,37.5 90.7,37.2 C89.1,25.1 87.5,13.1 85.9,1 C85.9,0.7 85.7,0.6 85.5,0.6 C84.9,0.6 84.4,0.7 83.8,0.7 C83.6,0.7 83.4,1 83.4,1.2 C85,13.3 86.7,25.5 88.3,37.6 C88.3,38 88.5,38.2 88.7,38.2 L88.7,38.2 Z" id="XMLID_39_" fill="#2AABE3"></path>
                <path d="M110,9.4 L109.4,4.6 C109.4,4.4 109.3,4.3 109.2,4.2 L107.4,3.6 C107.1,3.5 106.8,3.7 106.8,4.1 C107.2,6.9 107.5,9.7 107.9,12.5 C108.6,11.9 109.4,11.3 110.2,10.7 C110.2,10.3 110.1,9.8 110,9.4 L110,9.4 Z" id="XMLID_38_" fill="#2AABE3"></path>
                <path d="M98.3,25.4 C98.1,23.9 97.9,22.3 97.7,20.8 C96.8,14.3 96,7.8 95.1,1.3 C95.1,1.1 95,1 94.8,0.9 C94.2,0.8 93.7,0.8 93.1,0.8 C92.9,0.8 92.6,1 92.6,1.3 C93.9,10.8 95.1,20.4 96.4,29.9 C96.8,28.7 97.3,27.5 97.9,26.3 C98,26 98.2,25.7 98.3,25.4 L98.3,25.4 Z" id="XMLID_37_" fill="#2AABE3"></path>
                <path d="M105.8,12 L104.6,3 C104.6,2.9 104.5,2.7 104.4,2.7 C104.4,2.7 104.3,2.6 104.2,2.6 C103.6,2.4 103,2.3 102.4,2.2 C102.2,2.1 101.9,2.4 102,2.7 C102.6,7.3 103.2,12 103.9,16.6 C104.6,15.8 105.3,15 106.1,14.2 C106,13.5 105.9,12.8 105.8,12 L105.8,12 Z" id="XMLID_36_" fill="#2AABE3"></path>
                <path d="M90.5,1.1 C90.5,0.9 90.3,0.7 90.2,0.7 L88.5,0.7 C88.3,0.7 88,0.9 88,1.2 L92.8,36.9 C92.8,37.1 93,37.3 93.2,37.3 C93.5,37.2 93.8,37.2 94.1,37.1 C94.4,36.2 94.7,35.3 95,34.3 C93.4,23.2 91.9,12.2 90.5,1.1 L90.5,1.1 Z" id="XMLID_35_" fill="#2AABE3"></path>
                <path d="M101.5,14.7 C100.9,10.5 100.4,6.3 99.8,2 C99.8,1.9 99.8,1.9 99.7,1.8 C99.7,1.7 99.6,1.6 99.4,1.6 C98.8,1.5 98.3,1.4 97.7,1.3 C97.5,1.3 97.2,1.5 97.3,1.8 C98.2,8.6 99.1,15.4 100,22.1 C100.7,21 101.3,19.9 102.1,18.9 L101.5,14.7 L101.5,14.7 Z" id="XMLID_34_" fill="#2AABE3"></path>
                <path d="M112.7,8.5 C113.1,8 113.5,7.4 113.9,6.9 C114.1,6.7 114,6.3 113.7,6.2 C113.2,6 112.7,5.7 112.2,5.5 C112.1,5.4 112,5.5 111.9,5.5 C111.8,5.6 111.7,5.7 111.7,6 C111.8,6.8 111.9,7.5 112,8.3 C112.1,8.7 112.5,8.8 112.7,8.5 L112.7,8.5 Z" id="XMLID_33_" fill="#2AABE3"></path>
                <path d="M79.7,40 C80.3,39.9 80.8,39.8 81.4,39.7 C81.4,39.7 81.5,39.7 81.5,39.6 C81.6,39.5 81.8,39.4 81.7,39.1 C80.1,26.8 78.4,14.4 76.8,2.1 C76.8,1.9 76.6,1.7 76.4,1.7 C75.8,1.8 75.3,1.9 74.7,2 C74.5,2 74.3,2.3 74.3,2.5 C75.9,14.8 77.6,27.2 79.3,39.5 C79.3,39.9 79.5,40.1 79.7,40 L79.7,40 Z" id="XMLID_32_" fill="#2AABE3"></path>
                <path d="M67.3,4 C66.8,4.2 66.2,4.4 65.7,4.5 C65.5,4.5 65.4,4.8 65.4,5 C67,17.2 68.7,29.3 70.3,41.5 C70.3,41.7 70.5,41.9 70.7,41.9 C71.2,41.8 71.8,41.7 72.3,41.6 C72.3,41.6 72.4,41.6 72.4,41.5 C72.5,41.4 72.7,41.3 72.6,41 C71,28.8 69.3,16.6 67.7,4.3 C67.8,4.1 67.5,4 67.3,4 L67.3,4 Z" id="XMLID_31_" fill="#2AABE3"></path>
                <path d="M58.5,7.4 C58,7.6 57.4,7.9 56.9,8.2 C56.7,8.3 56.6,8.5 56.6,8.7 C58.2,20.3 59.7,31.9 61.3,43.4 C61.3,43.6 61.5,43.8 61.7,43.8 C62.2,43.7 62.8,43.6 63.3,43.4 L63.4,43.4 C63.6,43.3 63.7,43.2 63.6,42.9 C62,31.2 60.5,19.5 58.9,7.7 C59,7.5 58.7,7.3 58.5,7.4 L58.5,7.4 Z" id="XMLID_30_" fill="#2AABE3"></path>
                <path d="M62.9,5.6 C62.4,5.8 61.8,6 61.3,6.2 C61.1,6.3 61,6.5 61,6.7 C62.6,18.6 64.2,30.5 65.8,42.5 C65.8,42.7 66,42.9 66.2,42.9 C66.7,42.8 67.3,42.7 67.8,42.5 L67.9,42.5 C68,42.4 68.2,42.3 68.1,42 C66.5,30 64.9,18 63.3,5.9 C63.3,5.6 63.1,5.5 62.9,5.6 L62.9,5.6 Z" id="XMLID_29_" fill="#2AABE3"></path>
                <path d="M75.2,41 C75.7,40.9 76.3,40.8 76.8,40.6 L76.9,40.6 C77,40.5 77.2,40.4 77.1,40.1 C75.5,27.8 73.8,15.5 72.2,3.1 C72.2,2.9 72,2.6 71.8,2.7 C71.2,2.8 70.7,3 70.2,3.1 C70,3.2 69.8,3.4 69.8,3.6 C71.4,15.9 73.1,28.2 74.7,40.5 C74.8,40.8 75,41 75.2,41 L75.2,41 Z" id="XMLID_28_" fill="#2AABE3"></path>
                <path d="M45.5,15.1 L44,16.3 C43.9,16.4 43.8,16.6 43.8,16.7 C45.1,26.5 46.4,36.4 47.7,46.2 C47.7,46.4 47.9,46.6 48.1,46.6 C48.6,46.5 49.2,46.4 49.8,46.3 C49.8,46.3 49.9,46.3 49.9,46.2 C50,46.1 50.2,46 50.1,45.7 C48.7,35.6 47.4,25.5 46,15.3 C46.1,15 45.8,14.9 45.5,15.1 L45.5,15.1 Z" id="XMLID_27_" fill="#2AABE3"></path>
                <path d="M47.9,93 C48.5,92.8 49,92.6 49.6,92.5 C49.8,92.5 49.9,92.2 49.9,92 L44.8,53.6 C44.8,53.4 44.6,53.2 44.4,53.2 C43.8,53.3 43.3,53.4 42.7,53.5 C42.7,53.5 42.6,53.5 42.6,53.6 C42.5,53.7 42.3,53.8 42.4,54.1 C44.1,67 45.8,79.8 47.6,92.7 C47.5,92.8 47.7,93 47.9,93 L47.9,93 Z" id="XMLID_26_" fill="#231F20"></path>
                <path d="M52.5,91.4 C53,91.2 53.6,91 54.1,90.8 C54.3,90.7 54.4,90.5 54.4,90.3 C52.7,77.7 51,65.2 49.4,52.6 C49.4,52.4 49.2,52.2 49,52.2 C48.4,52.3 47.9,52.4 47.3,52.5 C47.3,52.5 47.2,52.5 47.2,52.6 C47.1,52.7 46.9,52.8 47,53.1 C48.7,65.8 50.4,78.4 52.1,91.1 C52,91.4 52.2,91.5 52.5,91.4 L52.5,91.4 Z" id="XMLID_25_" fill="#231F20"></path>
                <path d="M74,78.7 C74.5,78.3 75,77.8 75.5,77.3 C75.6,77.2 75.7,77 75.7,76.9 C74.4,67.2 73.1,57.6 71.8,47.9 C71.8,47.7 71.6,47.5 71.4,47.5 C70.9,47.6 70.3,47.7 69.8,47.8 C69.7,47.8 69.7,47.8 69.7,47.9 C69.6,48 69.4,48.1 69.5,48.4 C70.8,58.4 72.2,68.4 73.5,78.4 C73.4,78.8 73.7,79 74,78.7 L74,78.7 Z" id="XMLID_24_" fill="#231F20"></path>
                <path d="M5.2,86.8 C5.4,88.5 5.7,90.3 5.9,92 C5.9,92.1 6,92.3 6.1,92.4 C6.7,92.6 7.3,92.8 7.9,93.1 C8.2,93.2 8.5,93 8.5,92.6 C8.1,89.4 7.6,86.2 7.2,83 C6.5,83.7 5.7,84.4 5,85.1 C5,85.6 5.1,86.2 5.2,86.8 L5.2,86.8 Z" id="XMLID_23_" fill="#231F20"></path>
                <path d="M16.5,67.8 C17.7,77 19,86.2 20.2,95.4 C20.2,95.6 20.4,95.8 20.5,95.8 C21.1,95.8 21.6,95.9 22.2,95.9 C22.4,95.9 22.7,95.7 22.7,95.4 C21.2,84.5 19.8,73.6 18.3,62.6 C17.8,64.3 17.2,66 16.5,67.8 L16.5,67.8 Z" id="XMLID_22_" fill="#231F20"></path>
                <path d="M61.2,87.5 C61.7,87.2 62.3,86.9 62.8,86.6 C63,86.5 63.1,86.3 63.1,86.1 C61.5,74.3 59.9,62.5 58.4,50.7 C58.4,50.5 58.2,50.3 58,50.3 C57.5,50.4 56.9,50.5 56.4,50.6 C56.4,50.6 56.3,50.6 56.3,50.7 C56.2,50.8 56,50.9 56.1,51.2 C57.7,63.2 59.3,75.2 60.9,87.1 C60.7,87.4 60.9,87.6 61.2,87.5 L61.2,87.5 Z" id="XMLID_21_" fill="#231F20"></path>
                <path d="M69.8,82.1 L71.3,80.9 C71.4,80.8 71.5,80.6 71.5,80.5 C70.1,70 68.7,59.4 67.3,48.9 C67.3,48.7 67.1,48.5 66.9,48.5 C66.4,48.6 65.8,48.7 65.3,48.8 C65.3,48.8 65.2,48.8 65.2,48.9 C65,49 64.9,49.1 65,49.4 C66.4,60.2 67.9,71 69.3,81.9 C69.2,82.2 69.5,82.3 69.8,82.1 L69.8,82.1 Z" id="XMLID_20_" fill="#231F20"></path>
                <path d="M56.8,89.6 C57.3,89.4 57.9,89.1 58.4,88.9 C58.6,88.8 58.7,88.6 58.7,88.4 C57.1,76.2 55.4,63.9 53.8,51.7 C53.8,51.5 53.6,51.3 53.4,51.3 C52.8,51.4 52.3,51.5 51.7,51.6 C51.7,51.6 51.6,51.6 51.6,51.7 C51.5,51.8 51.3,51.9 51.4,52.2 C53.1,64.6 54.7,77 56.4,89.3 C56.3,89.6 56.6,89.8 56.8,89.6 L56.8,89.6 Z" id="XMLID_19_" fill="#231F20"></path>
                <path d="M65.5,85 C66,84.7 66.5,84.3 67.1,84 C67.2,83.9 67.4,83.7 67.4,83.5 C65.9,72.3 64.4,61 62.9,49.8 C62.9,49.6 62.7,49.4 62.5,49.4 C62,49.5 61.4,49.6 60.9,49.7 C60.9,49.7 60.8,49.7 60.8,49.8 C60.7,49.9 60.5,50 60.6,50.3 C62.1,61.8 63.7,73.2 65.2,84.7 C65,84.9 65.2,85.2 65.5,85 L65.5,85 Z" id="XMLID_18_" fill="#231F20"></path>
                <path d="M1.6,87.9 C1.4,88.2 1,88.5 0.9,88.8 C0.8,89.1 0.9,89.5 1,89.8 L1,90 L1.1,90.1 L1.2,90.2 L3,91.1 C3.3,91.2 3.6,91 3.6,90.6 C3.5,89.5 3.3,88.3 3.1,87.2 C3.1,86.9 2.9,86.8 2.7,86.8 C2.6,86.9 2.4,87 2.3,87.1 C2,87.4 1.8,87.7 1.6,87.9 L1.6,87.9 Z" id="XMLID_17_" fill="#231F20"></path>
                <path d="M78,74.8 C79.8,72.9 79.7,73.1 79.4,70.7 C79,67.7 78.6,64.7 78.2,61.6 C77.5,56.7 76.9,51.8 76.2,46.9 L76.2,46.8 C76.2,46.6 76,46.5 75.8,46.5 C75.3,46.6 74.7,46.7 74.1,46.8 C73.9,46.8 73.7,47.1 73.8,47.3 L77.4,74.3 C77.5,74.8 77.8,75.1 78,74.8 L78,74.8 Z" id="XMLID_16_" fill="#231F20"></path>
                <path d="M89.6,56 C90,54.8 90.9,52.5 90.7,51.3 L90.4,49.5 C90.2,47.7 89.9,46 89.7,44.3 L89.7,44.2 C89.7,44 89.5,43.9 89.3,43.9 C88.7,44 88.2,44.1 87.6,44.2 C87.4,44.2 87.2,44.5 87.2,44.7 C87.7,48.4 88.2,52.2 88.7,55.9 C88.8,56.3 89.4,56.4 89.6,56 L89.6,56 Z" id="XMLID_15_" fill="#231F20"></path>
                <path d="M30.9,55.9 C30.3,56 29.8,56.1 29.3,56.2 C29.2,56.2 29.2,56.2 29.2,56.3 C29,56.4 28.9,56.5 29,56.8 C30.7,69.6 32.4,82.5 34.2,95.3 C34.2,95.6 34.4,95.7 34.6,95.7 C35.2,95.6 35.7,95.6 36.3,95.5 C36.5,95.5 36.7,95.2 36.7,95 C35,82.1 33.3,69.2 31.5,56.3 C31.3,56.1 31.1,55.9 30.9,55.9 L30.9,55.9 Z" id="XMLID_14_" fill="#231F20"></path>
                <path d="M21.9,57.8 C21.4,57.9 20.8,58 20.3,58.1 C20.3,58.1 20.2,58.1 20.2,58.2 C20,58.3 19.9,58.4 20,58.7 C21.7,71.1 23.3,83.4 25,95.8 C25,96 25.2,96.2 25.3,96.2 L27,96.2 C27.2,96.2 27.5,96 27.4,95.7 C25.7,83.2 24.1,70.8 22.4,58.3 C22.3,58 22.1,57.8 21.9,57.8 L21.9,57.8 Z" id="XMLID_13_" fill="#231F20"></path>
                <path d="M13.7,81.6 L15.5,94.8 C15.5,94.9 15.5,94.9 15.6,95 C15.6,95.1 15.7,95.2 15.9,95.2 C16.5,95.3 17.1,95.4 17.6,95.5 C17.8,95.5 18.1,95.3 18.1,95 C17.1,87.2 16,79.5 15,71.7 C14.4,73.1 13.7,74.3 13,75.5 C13.2,77.5 13.4,79.5 13.7,81.6 L13.7,81.6 Z" id="XMLID_12_" fill="#231F20"></path>
                <path d="M26.4,56.9 C25.9,57 25.3,57.1 24.7,57.2 C24.7,57.2 24.6,57.2 24.6,57.3 C24.4,57.4 24.3,57.5 24.4,57.8 C26.1,70.4 27.8,83.1 29.5,95.8 C29.5,96.1 29.7,96.2 29.9,96.2 C30.5,96.2 31,96.1 31.6,96.1 C31.8,96.1 32,95.8 32,95.6 C30.3,82.9 28.6,70.1 26.9,57.4 C26.8,57 26.6,56.8 26.4,56.9 L26.4,56.9 Z" id="XMLID_11_" fill="#231F20"></path>
                <path d="M41,94.3 C39.3,81.3 37.5,68.4 35.8,55.4 C35.8,55.2 35.6,55 35.4,55 C34.8,55.1 34.3,55.2 33.7,55.3 C33.7,55.3 33.6,55.3 33.6,55.4 C33.5,55.5 33.3,55.6 33.4,55.9 C35.1,68.8 36.9,81.8 38.6,94.7 C38.6,94.9 38.8,95.1 39,95.1 C39.6,95 40.1,94.9 40.7,94.8 C40.9,94.8 41,94.5 41,94.3 L41,94.3 Z" id="XMLID_10_" fill="#231F20"></path>
                <path d="M82.1,70.1 C83.5,68.3 83.7,68.2 83.4,66.2 C83.1,63.7 82.7,61.2 82.4,58.8 C81.8,54.6 81.3,50.4 80.7,46.2 C80.7,46 80.5,45.8 80.3,45.8 C79.8,45.9 79.2,46 78.6,46.1 C78.6,46.1 78.5,46.1 78.5,46.2 C78.4,46.3 78.2,46.4 78.3,46.7 C79.3,54.5 80.4,62.2 81.4,70 C81.5,70.3 81.9,70.4 82.1,70.1 L82.1,70.1 Z" id="XMLID_9_" fill="#231F20"></path>
                <path d="M43.5,94.2 C44,94.1 44.6,93.9 45.1,93.8 C45.3,93.8 45.5,93.5 45.5,93.3 C43.8,80.4 42,67.5 40.3,54.5 C40.3,54.3 40.1,54.1 39.9,54.1 C39.3,54.2 38.8,54.3 38.2,54.4 C38.2,54.4 38.1,54.4 38.1,54.5 C38,54.6 37.8,54.7 37.9,55 C39.6,68 41.4,80.9 43.1,93.8 C43.1,94 43.3,94.2 43.5,94.2 L43.5,94.2 Z" id="XMLID_8_" fill="#231F20"></path>
                <path d="M86,64.2 C86.7,62.9 87.5,62 87.3,60.5 C87.1,58.7 86.8,56.9 86.6,55.1 C86.2,51.8 85.7,48.5 85.3,45.2 C85.3,45 85.1,44.8 84.9,44.8 C84.3,44.9 83.8,45 83.2,45.2 C83.2,45.2 83.1,45.2 83.1,45.3 C83,45.4 82.8,45.5 82.9,45.8 C83.7,51.9 84.5,58.1 85.4,64.2 C85.3,64.4 85.8,64.6 86,64.2 L86,64.2 Z" id="XMLID_7_" fill="#231F20"></path>
                <path d="M9.5,84.6 L10.7,93.6 C10.7,93.8 10.8,93.9 10.9,93.9 L11,94 C11.6,94.2 12.2,94.3 12.8,94.5 C13,94.6 13.3,94.3 13.2,94 C12.5,88.7 11.8,83.5 11.1,78.2 C10.4,79.2 9.7,80.1 9,80.9 C9.2,82.2 9.3,83.4 9.5,84.6 L9.5,84.6 Z" id="XMLID_6_" fill="#231F20"></path>
                <path d="M195.5,29.7 C195.2,30.9 194.9,32.4 194.6,34.1 C194.2,35.8 193.8,37.7 193.3,39.7 C192.8,41.7 192.4,43.6 191.9,45.4 C191.5,47.2 191.1,48.9 190.8,50.3 C190.5,51.7 190.3,52.7 190.1,53.3 C188.7,59.8 187.2,66.3 185.8,72.7 C184.4,79.1 182.9,85.6 181.6,92.1 C181.3,92.4 181.1,92.6 180.7,92.8 C180.4,93 180.1,93.2 179.7,93.3 L177,93.3 L175.6,92.5 L155.7,36.2 C152.4,45.6 149.2,54.9 145.9,64.1 C142.7,73.3 139.4,82.6 136.1,92 C136,92.3 135.8,92.5 135.5,92.7 C135.2,92.9 134.9,93.1 134.6,93.2 L131.8,93.2 C131.5,93.1 131.1,92.9 130.8,92.6 C130.4,92.3 130.1,92.1 129.9,91.8 C127.8,82.5 125.8,73.2 123.7,64 C121.6,54.8 119.6,45.5 117.7,36.2 C117.4,34.7 117,33.2 116.5,31.7 C116,30.2 115.8,28.6 115.8,27.1 C115.8,26.2 116.1,25.6 116.6,25.4 C117.1,25.1 117.8,25 118.5,25 L120.5,25 C121,25.3 121.6,25.7 122.1,26.3 L133.9,80.6 C137.2,71.5 140.4,62.5 143.6,53.4 C146.8,44.4 149.9,35.3 153.2,26.2 L154.5,25.4 L157.7,25.4 L159,26.2 L178.2,80.5 C180.1,71.4 182,62.4 183.9,53.3 C185.8,44.3 187.7,35.2 189.7,26.1 C190.3,25.5 190.8,25.1 191.3,24.8 L194,24.8 C194.6,24.8 195.1,25.1 195.4,25.6 C195.7,26.1 195.9,26.6 195.9,27.1 C195.8,27.7 195.7,28.5 195.5,29.7 L195.5,29.7 Z M245,51.4 C244.3,53.1 243.3,55.3 242.1,58 C240.9,60.7 239.5,63.7 237.9,67.1 C236.3,70.5 234.7,74 233.1,77.6 C231.5,81.2 229.8,84.8 228.1,88.4 C226.4,92 224.9,95.3 223.5,98.4 C222.1,101.4 220.9,104.1 219.8,106.4 C218.8,108.7 218,110.3 217.6,111.4 L216.4,112 L213.3,112 C212.8,112 212.4,111.9 212,111.6 C211.6,111.3 211.4,111 211.4,110.4 C211.4,109.9 211.8,108.9 212.6,107.1 C213.4,105.3 214.3,103.5 215.3,101.4 C216.3,99.3 217.3,97.4 218.2,95.5 C219.1,93.6 219.7,92.3 220,91.5 C219.7,90.7 219,89.1 218,86.8 C217,84.4 215.8,81.7 214.5,78.5 C213.2,75.4 211.8,72.1 210.4,68.6 C209,65.2 207.6,62 206.4,59 C205.2,56.1 204.2,53.6 203.4,51.7 C202.6,49.7 202.2,48.7 202.2,48.5 C202.2,47.8 202.5,47.3 203,47.1 C203.5,46.9 204.1,46.8 204.7,46.8 L207,46.9 L208.3,47.6 L223.7,84.2 C226.6,78.1 229.4,72.1 232,65.9 C234.6,59.8 237.2,53.7 239.9,47.5 L241.2,46.8 L244.4,46.8 C244.8,46.8 245.3,46.9 245.7,47.2 C246.1,47.5 246.3,47.8 246.3,48.4 C246.1,48.7 245.7,49.7 245,51.4 L245,51.4 Z M293.2,92.3 L292.6,92.9 L291.8,93.3 L289.4,93.3 C289,93.2 288.6,92.9 288.2,92.6 C287.8,92.2 287.6,91.9 287.4,91.5 L287.4,63 C287.4,59.3 286.2,56.5 283.8,54.7 C281.4,52.9 278.5,52 275,52 C273.7,52 272.3,52.3 270.7,52.8 C269.1,53.3 267.6,54 266.2,54.9 C264.8,55.8 263.6,56.9 262.6,58.1 C261.6,59.3 261.1,60.7 261.1,62.2 L261.1,91.6 C261,92 260.7,92.4 260.3,92.7 C259.9,93.1 259.5,93.3 259.1,93.4 L256.7,93.4 L256,93 L255.4,92.4 C255.4,92.4 255,91.9 254.9,91.6 L254.9,48.7 C255.1,48.1 255.4,47.5 256,47.2 L256.8,46.9 L258.8,46.9 L259.6,47.2 L260.8,48.4 L261,52.4 C262.8,50.3 264.9,48.8 267.4,47.9 C269.9,47 272.5,46.5 275.2,46.5 C277.9,46.5 280.4,46.8 282.7,47.5 C285,48.1 287,49.1 288.6,50.5 C290.2,51.9 291.5,53.6 292.4,55.7 C293.3,57.8 293.8,60.3 293.8,63.2 L293.8,91.7 C293.5,91.8 293.4,92.1 293.2,92.3 L293.2,92.3 Z M341.8,92.7 C341.4,93 341.1,93.2 340.8,93.3 L338.7,93.3 L337.9,92.9 L337.3,92.3 C337.3,92.3 336.9,91.8 336.8,91.5 L336.7,86.8 C335,89 332.8,90.7 330.4,92 C327.9,93.3 325.3,93.9 322.4,93.9 C318.8,93.9 315.7,93.3 313.2,92.2 C310.7,91 308.6,89.4 307,87.4 C305.4,85.3 304.2,82.9 303.5,80.1 C302.8,77.3 302.4,74.2 302.4,70.8 C302.4,62.7 304.3,56.7 308.1,52.6 C311.9,48.5 317.9,46.5 326.1,46.5 C327.8,46.5 329.6,46.5 331.3,46.6 C333,46.7 334.8,46.8 336.5,46.9 L336.5,21.9 C336.6,21.6 336.9,21.2 337.3,20.8 C337.7,20.4 338,20.2 338.4,20 L340.8,20 L341.6,20.4 L342.2,21 C342.4,21.2 342.6,21.5 342.7,21.8 L342.7,91.8 C342.4,92.2 342.2,92.4 341.8,92.7 L341.8,92.7 Z M331.4,52.1 C329.6,52 327.9,52 326.1,52 C319.9,52 315.4,53.6 312.6,56.9 C309.8,60.2 308.4,64.8 308.4,70.7 C308.4,73 308.6,75.2 309.1,77.4 C309.6,79.5 310.4,81.4 311.5,83 C312.6,84.6 314,85.9 315.8,86.9 C317.6,87.9 319.8,88.3 322.5,88.3 C325.4,88.3 327.8,87.7 329.6,86.4 C331.4,85.1 332.9,83.5 333.9,81.4 C334.9,79.3 335.7,77 336.1,74.4 C336.5,71.8 336.8,69.2 336.8,66.6 C336.9,64 336.8,61.5 336.7,59 C336.6,56.6 336.5,54.5 336.5,52.7 C334.9,52.5 333.1,52.2 331.4,52.1 L331.4,52.1 Z" id="Shape" fill="#231F20"></path>
            </g>
        </g>
    </g>
</svg>