<?xml version="1.0" encoding="UTF-8" standalone="no"?>
<svg width="263px" height="61px" viewBox="0 0 263 61" version="1.1" xmlns="http://www.w3.org/2000/svg" xmlns:xlink="http://www.w3.org/1999/xlink">
    <!-- Generator: Sketch 3.8.2 (29753) - http://www.bohemiancoding.com/sketch -->
    <title>wisembly-logo-baseline-RGB</title>
    <desc>Created with Sketch.</desc>
    <defs></defs>
    <g id="Page-1" stroke="none" stroke-width="1" fill="none" fill-rule="evenodd">
        <g id="wisembly-logo-baseline-RGB">
            <g id="Calque_1">
                <g id="Calque_1_1_">
                    <path d="M262.6,20.6 L257.1,20.6 L251.5,36.7 L245.3,20.6 L239.2,20.6 L248.7,43.3 C247.9,45.1 247.1,45.6 245.8,45.6 C244.8,45.6 243.8,45.3 242.9,44.8 L242.6,44.7 L240.6,49 L240.8,49.1 C242.4,50 244,50.5 246.2,50.5 C249.9,50.5 252.1,48.7 253.8,44 L262.9,20.6 L262.6,20.6 L262.6,20.6 Z M215.9,20.6 C212.5,20.6 210.2,21.7 208.6,23.8 L208.6,12.1 L202.9,12.1 L202.9,43.8 L208.6,43.8 L208.6,40.6 C210.2,42.5 212.5,43.8 215.9,43.8 C221.4,43.8 226.4,40.1 226.4,32.5 C226.4,24.9 221.3,20.6 215.9,20.6 L215.9,20.6 Z M214.7,25.6 C218,25.6 220.8,28.3 220.8,32.5 C220.8,36.8 218,38.8 214.7,38.8 C211.4,38.8 208.4,36.3 208.4,32.1 C208.4,27.8 211.4,25.6 214.7,25.6 L214.7,25.6 Z M190.9,20.6 C187.6,20.6 185.2,22.1 183.3,24.3 C182,22 179.7,20.5 176.6,20.6 C173.4,20.6 171.5,22.2 170,23.9 L170,20.6 L164.3,20.6 L164.3,43.8 L170,43.8 L170,31.1 C170,27.7 171.8,25.8 174.5,25.8 C177.2,25.8 178.7,27.6 178.8,31 L178.8,43.8 L184.5,43.8 L184.5,31.1 C184.5,27.6 186.4,25.8 189,25.8 C191.7,25.8 193.2,27.5 193.3,31 L193.3,43.8 L199,43.8 L199,29.4 C199,26.6 198.2,24.4 196.8,22.9 C195.5,21.4 193.4,20.6 190.9,20.6 L190.9,20.6 Z M230.2,12.1 L235.9,12.1 L235.9,43.7 L230.2,43.7 L230.2,12.1 Z M93.3,35.3 L88.5,20.6 L83.7,20.6 L78.9,35.3 L74.6,20.6 L68.8,20.6 L76.2,43.7 L81.2,43.7 L86,29 L90.9,43.7 L95.8,43.7 L103.4,20.6 L97.6,20.6 L93.3,35.3 Z M107.6,43.7 L113.3,43.7 L113.3,20.6 L107.6,20.6 L107.6,43.7 Z M128.4,29.8 C125.7,29 123.5,28.5 123.5,27.2 L123.5,27.1 C123.5,26 124.4,25.1 126.4,25.1 C128.2,25.1 130.5,25.9 132.6,27.2 L132.8,27.3 L135.1,23.2 L134.9,23.1 C132.5,21.5 129.4,20.5 126.5,20.5 C121.9,20.5 118.3,23.2 118.2,27.6 L118.2,27.7 C118.2,32.2 122.1,33.3 125.4,34.2 C128.1,35 130.3,35.4 130.2,36.9 L130.2,37 C130.2,38.3 129.1,39.1 127,39.1 C124.8,39.1 122.2,38.2 119.8,36.4 L119.6,36.2 L117,40.1 L117.2,40.3 C120.1,42.5 123.6,43.7 126.9,43.7 C131.6,43.7 135.5,41.3 135.5,36.4 L135.5,36.3 C135.5,32.1 131.6,30.8 128.4,29.8 L128.4,29.8 Z M160.6,32.7 C160.5,26.2 156.8,20.5 149.6,20.5 C143,20.5 138.4,25.6 138.4,32.2 C138.4,39.3 143.5,43.7 150.2,43.7 C154.4,43.7 157.4,42 159.6,39.4 L156.2,36.4 C154.4,38.1 152.8,39 150.3,39 C147.2,39 144.9,38 144.2,34.6 L160.7,34.6 C160.6,33.4 160.6,33.1 160.6,32.7 L160.6,32.7 Z M144,30.7 C144.6,27.5 146.6,25.3 149.5,25.3 C152.6,25.3 154.4,27.6 154.9,30.7 L144,30.7 L144,30.7 Z M107.6,12.1 L113.3,12.1 L113.3,17.8 L107.6,17.8 L107.6,12.1 Z" id="Shape" fill="#07698D"></path>
                    <g id="Group">
                        <polygon id="Shape" fill="#07698D" points="35.4 0.8 4.8 10.7 12.3 24.8 35.4 0.8"></polygon>
                        <polygon id="Shape" fill="#F2BC33" points="38.2 4.8 27.2 16.3 57.2 30.8"></polygon>
                        <polygon id="Shape" fill="#F7896C" points="39.9 27.8 35.3 60.8 54.2 34.8"></polygon>
                        <polygon id="Shape" fill="#FFFFFF" points="39.9 27.8 35.3 60.8 54.2 34.8 39.9 27.8 54.2 34.8 35.3 60.7 39.9 27.8"></polygon>
                        <polygon id="Shape" fill="#E25C5B" points="32.8 43.4 0 49.3 30.6 59.2"></polygon>
                        <polygon id="Shape" fill="#47B589" points="15.8 41.5 0.1 12.2 0.1 44.4"></polygon>
                    </g>
                </g>
            </g>
        </g>
    </g>
</svg>