<?xml version="1.0" encoding="UTF-8" standalone="no"?>
<svg width="350px" height="91px" viewBox="0 0 350 91" version="1.1" xmlns="http://www.w3.org/2000/svg" xmlns:xlink="http://www.w3.org/1999/xlink">
    <!-- Generator: Sketch 3.8.2 (29753) - http://www.bohemiancoding.com/sketch -->
    <title>madkudu</title>
    <desc>Created with Sketch.</desc>
    <defs></defs>
    <g id="Page-1" stroke="none" stroke-width="1" fill="none" fill-rule="evenodd">
        <g id="madkudu" transform="translate(0.000000, -1.000000)">
            <g id="Group-3" transform="translate(0.000000, 0.819400)" fill="#000000">
                <path d="M33.954,57.3974 C36.542,50.9074 38.488,43.0094 37.048,36.0264 C35.172,22.8674 18.94,9.6064 12.086,7.4824 C6.221,5.9504 9.475,3.4094 12.651,2.0494 C22.042,-3.2276 -6.402,3.5634 1.358,11.3244 C6.507,13.1404 16.95,17.4234 21.888,23.8044 C29.28,32.7064 30.421,47.7234 21.138,55.7754 C16.983,58.9194 11.073,63.9844 17.252,68.5754 C24.838,71.4404 33.78,70.3994 40.645,75.3214 C45.766,79.0884 50.452,84.2864 52.237,90.4834 C62.353,90.5684 66.144,90.3104 66.177,90.3374 C58.111,74.7724 50.853,62.7414 33.954,57.3974" id="Fill-1"></path>
            </g>
            <path d="M123.5301,3.3687 C126.7051,4.7287 129.9601,7.2687 124.0941,8.8007 C117.2411,10.9247 101.0081,24.1867 99.1321,37.3457 C97.6921,44.3277 99.6381,52.2257 102.2261,58.7167 C85.3271,64.0597 78.0691,76.0917 70.0041,91.6557 C70.0361,91.6297 73.8271,91.8877 83.9431,91.8017 C85.7291,85.6047 90.4141,80.4067 95.5351,76.6397 C102.4001,71.7187 111.3421,72.7587 118.9281,69.8937 C125.1081,65.3027 119.1981,60.2377 115.0431,57.0947 C105.7601,49.0417 106.9001,34.0257 114.2921,25.1227 C119.2301,18.7417 129.6731,14.4587 134.8221,12.6427 C142.5831,4.8827 114.1381,-1.9083 123.5301,3.3687" id="Fill-4" fill="#000000"></path>
            <path d="M176.485,46.2937 C176.277,43.3337 176.037,40.4857 175.765,37.7497 C175.493,35.0137 175.197,32.5417 174.877,30.3337 L168.061,30.3337 C167.485,31.3897 166.821,32.6937 166.069,34.2457 C165.317,35.7977 164.533,37.4777 163.717,39.2857 C162.901,41.0937 162.093,42.9417 161.293,44.8297 C160.493,46.7177 159.741,48.4937 159.037,50.1577 C158.333,48.4937 157.581,46.7177 156.781,44.8297 C155.981,42.9417 155.173,41.0937 154.357,39.2857 C153.541,37.4777 152.757,35.7977 152.005,34.2457 C151.253,32.6937 150.589,31.3897 150.013,30.3337 L142.861,30.3337 C142.541,32.5417 142.245,35.0137 141.973,37.7497 C141.701,40.4857 141.461,43.3337 141.253,46.2937 C141.045,49.2537 140.853,52.2217 140.677,55.1977 C140.501,58.1737 140.349,60.9737 140.221,63.5977 L147.517,63.5977 C147.613,60.3657 147.741,56.8457 147.901,53.0377 C148.061,49.2297 148.301,45.3897 148.621,41.5177 C149.197,42.8617 149.837,44.3497 150.541,45.9817 C151.245,47.6137 151.941,49.2457 152.629,50.8777 C153.317,52.5097 153.981,54.0697 154.621,55.5577 C155.261,57.0457 155.805,58.3177 156.253,59.3737 L161.485,59.3737 C161.933,58.3177 162.477,57.0457 163.117,55.5577 C163.757,54.0697 164.421,52.5097 165.109,50.8777 C165.797,49.2457 166.493,47.6137 167.197,45.9817 C167.901,44.3497 168.541,42.8617 169.117,41.5177 C169.437,45.3897 169.677,49.2297 169.837,53.0377 C169.997,56.8457 170.125,60.3657 170.221,63.5977 L177.517,63.5977 C177.389,60.9737 177.237,58.1737 177.061,55.1977 C176.885,52.2217 176.693,49.2537 176.485,46.2937" id="Fill-6" fill="#000000"></path>
            <path d="M196.9571,58.4138 C196.5731,58.4778 196.0611,58.5258 195.4211,58.5578 C194.7811,58.5898 194.1091,58.6058 193.4051,58.6058 C192.0931,58.6058 191.0611,58.3898 190.3091,57.9578 C189.5571,57.5258 189.1811,56.7498 189.1811,55.6298 C189.1811,55.0538 189.3091,54.5738 189.5651,54.1898 C189.8211,53.8058 190.1731,53.5018 190.6211,53.2778 C191.0691,53.0538 191.5891,52.9018 192.1811,52.8218 C192.7731,52.7418 193.4051,52.7018 194.0771,52.7018 C194.5571,52.7018 195.0851,52.7338 195.6611,52.7978 C196.2371,52.8618 196.6691,52.9258 196.9571,52.9898 L196.9571,58.4138 Z M201.4931,40.4618 C200.6451,39.5658 199.5171,38.8778 198.1091,38.3978 C196.7011,37.9178 194.9411,37.6778 192.8291,37.6778 C191.9971,37.6778 191.1731,37.7178 190.3571,37.7978 C189.5411,37.8778 188.7651,37.9738 188.0291,38.0858 C187.2931,38.1978 186.6131,38.3258 185.9891,38.4698 C185.3651,38.6138 184.8451,38.7498 184.4291,38.8778 L185.3411,44.6378 C186.2051,44.3178 187.2291,44.0698 188.4131,43.8938 C189.5971,43.7178 190.7971,43.6298 192.0131,43.6298 C193.8371,43.6298 195.1171,43.9978 195.8531,44.7338 C196.5891,45.4698 196.9571,46.4458 196.9571,47.6618 L196.9571,48.3338 C196.5091,48.2058 195.9251,48.1018 195.2051,48.0218 C194.4851,47.9418 193.6611,47.9018 192.7331,47.9018 C191.3571,47.9018 190.0291,48.0378 188.7491,48.3098 C187.4691,48.5818 186.3331,49.0218 185.3411,49.6298 C184.3491,50.2378 183.5571,51.0538 182.9651,52.0778 C182.3731,53.1018 182.0771,54.3498 182.0771,55.8218 C182.0771,57.3578 182.3331,58.6538 182.8451,59.7098 C183.3571,60.7658 184.0931,61.6218 185.0531,62.2778 C186.0131,62.9338 187.1571,63.4058 188.4851,63.6938 C189.8131,63.9818 191.2931,64.1258 192.9251,64.1258 C195.5171,64.1258 197.7251,63.9738 199.5491,63.6698 C201.3731,63.3658 202.7971,63.1018 203.8211,62.8778 L203.8211,47.9978 C203.8211,46.4298 203.6451,45.0058 203.2931,43.7258 C202.9411,42.4458 202.3411,41.3578 201.4931,40.4618 L201.4931,40.4618 Z" id="Fill-8" fill="#000000"></path>
            <path d="M225.4211,57.8858 C225.0691,57.9498 224.6211,58.0058 224.0771,58.0538 C223.5331,58.1018 222.9411,58.1258 222.3011,58.1258 C220.3491,58.1258 218.8771,57.4538 217.8851,56.1098 C216.8931,54.7658 216.3971,52.9898 216.3971,50.7818 C216.3971,46.1738 218.0931,43.8698 221.4851,43.8698 C222.2211,43.8698 222.9491,43.9658 223.6691,44.1578 C224.3891,44.3498 224.9731,44.5898 225.4211,44.8778 L225.4211,57.8858 Z M225.4211,38.9258 C224.6211,38.5738 223.8291,38.3018 223.0451,38.1098 C222.2611,37.9178 221.3731,37.8218 220.3811,37.8218 C218.5891,37.8218 216.9971,38.1258 215.6051,38.7338 C214.2131,39.3418 213.0371,40.2218 212.0771,41.3738 C211.1171,42.5258 210.3811,43.9258 209.8691,45.5738 C209.3571,47.2218 209.1011,49.0698 209.1011,51.1178 C209.1011,53.1338 209.3971,54.9498 209.9891,56.5658 C210.5811,58.1818 211.4371,59.5578 212.5571,60.6938 C213.6771,61.8298 215.0531,62.7018 216.6851,63.3098 C218.3171,63.9178 220.1731,64.2218 222.2531,64.2218 C223.1171,64.2218 224.0211,64.1818 224.9651,64.1018 C225.9091,64.0218 226.8371,63.9178 227.7491,63.7898 C228.6611,63.6618 229.5331,63.5098 230.3651,63.3338 C231.1971,63.1578 231.9331,62.9738 232.5731,62.7818 L232.5731,26.3498 L225.4211,27.5018 L225.4211,38.9258 Z" id="Fill-10" fill="#000000"></path>
            <path d="M253.4531,45.6458 C255.9811,43.1178 258.3891,40.6058 260.6771,38.1098 C262.9651,35.6138 265.2451,33.0218 267.5171,30.3338 L258.6371,30.3338 C256.9411,32.2218 255.1091,34.2778 253.1411,36.5018 C251.1731,38.7258 249.2131,40.8618 247.2611,42.9098 L247.2611,30.3338 L239.7731,30.3338 L239.7731,63.5978 L247.2611,63.5978 L247.2611,49.5338 C248.4131,50.4298 249.5651,51.4618 250.7171,52.6298 C251.8691,53.7978 252.9811,55.0138 254.0531,56.2778 C255.1251,57.5418 256.1171,58.8058 257.0291,60.0698 C257.9411,61.3338 258.7331,62.5098 259.4051,63.5978 L268.2851,63.5978 C266.0131,59.9178 263.6371,56.5578 261.1571,53.5178 C258.6771,50.4778 256.1091,47.8538 253.4531,45.6458" id="Fill-12" fill="#000000"></path>
            <path d="M284.8931,57.8377 C284.4451,57.9017 283.9331,57.9577 283.3571,58.0057 C282.7811,58.0537 282.2371,58.0777 281.7251,58.0777 C280.0611,58.0777 278.9251,57.5657 278.3171,56.5417 C277.7091,55.5177 277.4051,53.8537 277.4051,51.5497 L277.4051,38.3497 L270.2531,38.3497 L270.2531,52.4137 C270.2531,54.1417 270.4291,55.7257 270.7811,57.1657 C271.1331,58.6057 271.7251,59.8457 272.5571,60.8857 C273.3891,61.9257 274.5171,62.7337 275.9411,63.3097 C277.3651,63.8857 279.1491,64.1737 281.2931,64.1737 C283.4051,64.1737 285.4211,64.0217 287.3411,63.7177 C289.2611,63.4137 290.8291,63.0857 292.0451,62.7337 L292.0451,38.3497 L284.8931,38.3497 L284.8931,57.8377 Z" id="Fill-14" fill="#000000"></path>
            <path d="M313.8851,57.8858 C313.5331,57.9498 313.0851,58.0058 312.5411,58.0538 C311.9971,58.1018 311.4051,58.1258 310.7651,58.1258 C308.8131,58.1258 307.3411,57.4538 306.3491,56.1098 C305.3571,54.7658 304.8611,52.9898 304.8611,50.7818 C304.8611,46.1738 306.5571,43.8698 309.9491,43.8698 C310.6851,43.8698 311.4131,43.9658 312.1331,44.1578 C312.8531,44.3498 313.4371,44.5898 313.8851,44.8778 L313.8851,57.8858 Z M313.8851,38.9258 C313.0851,38.5738 312.2931,38.3018 311.5091,38.1098 C310.7251,37.9178 309.8371,37.8218 308.8451,37.8218 C307.0531,37.8218 305.4611,38.1258 304.0691,38.7338 C302.6771,39.3418 301.5011,40.2218 300.5411,41.3738 C299.5811,42.5258 298.8451,43.9258 298.3331,45.5738 C297.8211,47.2218 297.5651,49.0698 297.5651,51.1178 C297.5651,53.1338 297.8611,54.9498 298.4531,56.5658 C299.0451,58.1818 299.9011,59.5578 301.0211,60.6938 C302.1411,61.8298 303.5171,62.7018 305.1491,63.3098 C306.7811,63.9178 308.6371,64.2218 310.7171,64.2218 C311.5811,64.2218 312.4851,64.1818 313.4291,64.1018 C314.3731,64.0218 315.3011,63.9178 316.2131,63.7898 C317.1251,63.6618 317.9971,63.5098 318.8291,63.3338 C319.6611,63.1578 320.3971,62.9738 321.0371,62.7818 L321.0371,26.3498 L313.8851,27.5018 L313.8851,38.9258 Z" id="Fill-16" fill="#000000"></path>
            <path d="M342.1571,38.3498 L342.1571,57.8378 C341.7091,57.9018 341.1971,57.9578 340.6211,58.0058 C340.0451,58.0538 339.5011,58.0778 338.9891,58.0778 C337.3251,58.0778 336.1891,57.5658 335.5811,56.5418 C334.9731,55.5178 334.6691,53.8538 334.6691,51.5498 L334.6691,38.3498 L327.5171,38.3498 L327.5171,52.4138 C327.5171,54.1418 327.6931,55.7258 328.0451,57.1658 C328.3971,58.6058 328.9891,59.8458 329.8211,60.8858 C330.6531,61.9258 331.7811,62.7338 333.2051,63.3098 C334.6291,63.8858 336.4131,64.1738 338.5571,64.1738 C340.6691,64.1738 342.6851,64.0218 344.6051,63.7178 C346.5251,63.4138 348.0931,63.0858 349.3091,62.7338 L349.3091,38.3498 L342.1571,38.3498 Z" id="Fill-18" fill="#000000"></path>
            <g id="Group-20" transform="translate(327.000000, 37.819400)"></g>
        </g>
    </g>
</svg>