<?xml version="1.0" encoding="UTF-8" standalone="no"?>
<svg width="142px" height="28px" viewBox="0 0 142 28" version="1.1" xmlns="http://www.w3.org/2000/svg" xmlns:xlink="http://www.w3.org/1999/xlink">
    <!-- Generator: Sketch 3.8.2 (29753) - http://www.bohemiancoding.com/sketch -->
    <title>Group 2</title>
    <desc>Created with Sketch.</desc>
    <defs>
        <linearGradient x1="91.3548505%" y1="25.2265959%" x2="0%" y2="100%" id="linearGradient-1">
            <stop stop-color="#FFD427" offset="0%"></stop>
            <stop stop-color="#FC9301" offset="100%"></stop>
        </linearGradient>
    </defs>
    <g id="Logos" stroke="none" stroke-width="1" fill="none" fill-rule="evenodd">
        <g transform="translate(-179.000000, -526.000000)" id="Group-Copy-3">
            <g transform="translate(0.000000, 290.000000)">
                <g id="Group-2" transform="translate(179.000000, 236.000000)">
                    <path d="M8.324,27.324 C9.656,27.324 10.7,27.036 11.672,26.532 L11.672,24.156 C10.7,24.624 9.908,24.804 8.972,24.804 C7.1,24.804 5.84,23.976 5.84,21.708 L5.84,10.836 L11.744,10.836 L11.744,8.388 L5.84,8.388 L5.84,2.772 L3.068,2.772 L3.068,8.388 L0.476,8.388 L0.476,10.836 L3.068,10.836 L3.068,22.068 C3.068,25.848 5.336,27.324 8.324,27.324 L8.324,27.324 Z M22.184,27.396 C25.46,27.396 27.62,25.884 28.916,24.192 L28.916,27 L31.58,27 L31.58,15.624 C31.58,13.248 30.932,11.448 29.672,10.188 C28.304,8.82 26.288,8.136 23.66,8.136 C20.96,8.136 18.944,8.748 16.892,9.684 L17.72,11.952 C19.448,11.16 21.176,10.584 23.372,10.584 C26.864,10.584 28.916,12.312 28.916,15.66 L28.916,16.308 C27.26,15.84 25.568,15.516 23.192,15.516 C18.476,15.516 15.236,17.604 15.236,21.528 L15.236,21.6 C15.236,25.416 18.728,27.396 22.184,27.396 L22.184,27.396 Z M22.724,25.2 C20.204,25.2 18.044,23.832 18.044,21.492 L18.044,21.42 C18.044,19.08 19.988,17.568 23.48,17.568 C25.748,17.568 27.584,17.964 28.952,18.36 L28.952,20.16 C28.952,23.112 26.144,25.2 22.724,25.2 L22.724,25.2 Z M37.736,27 L40.508,27 L40.508,0.72 L37.736,0.72 L37.736,27 Z M55.088,27.432 C58.616,27.432 60.884,26.028 62.756,23.94 L61.028,22.392 C59.516,23.976 57.716,25.02 55.16,25.02 C51.848,25.02 49.004,22.752 48.608,18.72 L63.368,18.72 C63.404,18.396 63.404,18.18 63.404,17.82 C63.404,12.384 60.236,7.992 54.728,7.992 C49.58,7.992 45.8,12.312 45.8,17.676 L45.8,17.748 C45.8,23.508 49.976,27.432 55.088,27.432 L55.088,27.432 Z M48.608,16.668 C48.968,13.032 51.416,10.332 54.656,10.332 C58.364,10.332 60.308,13.284 60.596,16.668 L48.608,16.668 Z M68.264,27 L71.036,27 L71.036,16.344 C71.036,12.852 73.412,10.512 76.616,10.512 C79.892,10.512 81.764,12.672 81.764,16.128 L81.764,27 L84.536,27 L84.536,15.444 C84.536,11.016 81.908,7.992 77.408,7.992 C74.204,7.992 72.26,9.612 71.036,11.628 L71.036,8.388 L68.264,8.388 L68.264,27 Z M96.668,27.324 C98,27.324 99.044,27.036 100.016,26.532 L100.016,24.156 C99.044,24.624 98.252,24.804 97.316,24.804 C95.444,24.804 94.184,23.976 94.184,21.708 L94.184,10.836 L100.088,10.836 L100.088,8.388 L94.184,8.388 L94.184,2.772 L91.412,2.772 L91.412,8.388 L88.82,8.388 L88.82,10.836 L91.412,10.836 L91.412,22.068 C91.412,25.848 93.68,27.324 96.668,27.324 L96.668,27.324 Z M104.66,27 L107.972,27 L107.972,23.22 L104.66,23.22 L104.66,27 Z" id="talent.io" fill="#575786"></path>
                    <path d="M131.768,27.432 C137.384,27.432 141.524,22.968 141.524,17.712 L141.524,17.64 C141.524,12.384 137.42,7.992 131.84,7.992 C126.224,7.992 122.12,12.456 122.12,17.712 L122.12,17.784 C122.12,23.04 126.188,27.432 131.768,27.432 Z M131.84,24.948 C127.916,24.948 124.964,21.708 124.964,17.712 L124.964,17.64 C124.964,13.716 127.736,10.44 131.768,10.44 C135.692,10.44 138.68,13.716 138.68,17.712 L138.68,17.784 C138.68,21.708 135.872,24.948 131.84,24.948 Z M114.056,27 L116.828,27 L116.828,8.388 L114.056,8.388 L114.056,27 Z M113.876,4.32 L117.044,4.32 L117.044,1.26 L113.876,1.26 L113.876,4.32 Z" id="Combined-Shape" fill="url(#linearGradient-1)"></path>
                </g>
            </g>
        </g>
    </g>
</svg>