<?xml version="1.0" encoding="UTF-8" standalone="no"?>
<svg width="174px" height="35px" viewBox="0 0 174 35" version="1.1" xmlns="http://www.w3.org/2000/svg" xmlns:xlink="http://www.w3.org/1999/xlink">
    <!-- Generator: Sketch 3.8.2 (29753) - http://www.bohemiancoding.com/sketch -->
    <title>platformsh-logos</title>
    <desc>Created with Sketch.</desc>
    <defs></defs>
    <g id="Page-1" stroke="none" stroke-width="1" fill="none" fill-rule="evenodd">
        <g id="platformsh-logos">
            <g id="Layer_1">
                <rect id="Rectangle-path" fill="#27AAE2" x="144.8" y="0.5" width="28.6" height="11.4"></rect>
                <rect id="Rectangle-path" fill="#27AAE2" x="144.8" y="25.2" width="28.6" height="3.9"></rect>
                <rect id="Rectangle-path" fill="#27AAE2" x="144.8" y="15.5" width="28.6" height="5.8"></rect>
                <path d="M0.8,14.3 L4.4,14.3 L4.4,16.4 C4.9,15.7 5.5,15 6.3,14.6 C7.1,14.1 8,13.9 9,13.9 C10.7,13.9 12.3,14.6 13.3,15.9 C14.6,17.5 15.2,19.5 15.1,21.5 C15.2,23.6 14.6,25.6 13.3,27.2 C12.2,28.5 10.6,29.2 9,29.2 C8.2,29.2 7.5,29 6.8,28.7 C6,28.3 5.3,27.7 4.7,27.1 L4.7,34.5 L0.8,34.5 L0.8,14.3 L0.8,14.3 L0.8,14.3 Z M4.6,21.4 C4.5,22.7 4.9,24 5.6,25 C6.2,25.7 7.1,26.2 8,26.2 C8.9,26.2 9.7,25.8 10.2,25.1 C10.9,24.1 11.2,22.8 11.1,21.6 C11.2,20.4 10.9,19.2 10.2,18.2 C9.7,17.5 8.8,17.1 7.9,17.1 C7,17.1 6.1,17.5 5.5,18.2 C4.9,19.1 4.5,20.2 4.6,21.4 L4.6,21.4 L4.6,21.4 Z" id="Shape" fill="#252626"></path>
                <polygon id="Shape" fill="#252626" points="16.8 29 16.8 8.8 20.7 8.8 20.7 29"></polygon>
                <path d="M26.3,18.8 L22.8,18.2 C23.1,17 23.8,15.8 24.8,15.1 C26.1,14.3 27.6,14 29.1,14.1 C30.4,14 31.7,14.2 33,14.7 C33.7,15 34.4,15.6 34.8,16.3 C35.2,17.4 35.4,18.6 35.3,19.8 L35.3,24.3 C35.3,25.3 35.3,26.2 35.5,27.2 C35.6,27.9 35.9,28.6 36.2,29.2 L32.4,29.2 C32.3,28.9 32.2,28.6 32,28.1 C31.9,27.9 31.9,27.7 31.9,27.6 C31.3,28.2 30.6,28.7 29.8,29.1 C29,29.4 28.2,29.6 27.4,29.6 C26.1,29.7 24.8,29.2 23.8,28.4 C22.9,27.6 22.5,26.5 22.5,25.3 C22.5,24.5 22.7,23.8 23.1,23.1 C23.5,22.5 24.1,21.9 24.8,21.6 C25.8,21.2 26.8,20.9 27.9,20.7 C29.2,20.5 30.4,20.1 31.7,19.7 L31.7,19 C31.8,18.4 31.6,17.8 31.2,17.4 C30.6,17 29.8,16.8 29.1,16.9 C28.5,16.9 28,17 27.5,17.3 C26.8,17.7 26.4,18.2 26.3,18.8 L26.3,18.8 Z M31.4,21.9 C30.9,22.1 30.1,22.3 29,22.5 C28.3,22.6 27.6,22.8 26.9,23.2 C26.4,23.5 26.1,24 26.1,24.6 C26.1,25.1 26.3,25.6 26.7,26 C27.1,26.4 27.7,26.6 28.2,26.6 C28.9,26.6 29.6,26.4 30.2,25.9 C30.6,25.6 31,25.1 31.1,24.6 C31.2,24 31.3,23.3 31.2,22.7 L31.4,21.9 L31.4,21.9 L31.4,21.9 Z" id="Shape" fill="#252626"></path>
                <path d="M44.6,14.3 L44.6,17.4 L42,17.4 L42,23.3 C42,24 42,24.7 42.1,25.4 C42.2,25.6 42.3,25.8 42.5,25.9 C42.7,26 42.9,26.1 43.1,26.1 C43.6,26.1 44.2,25.9 44.7,25.7 L45,28.7 C44,29.1 43,29.3 41.9,29.3 C41.3,29.3 40.6,29.2 40,28.9 C39.5,28.7 39.1,28.4 38.8,28 C38.5,27.5 38.3,27 38.3,26.5 C38.2,25.6 38.2,24.7 38.2,23.8 L38.2,17.4 L36.4,17.4 L36.4,14.3 L38.2,14.3 L38.2,11.4 L42.1,9.1 L42.1,14.3 L44.6,14.3 L44.6,14.3 L44.6,14.3 Z" id="Shape" fill="#252626"></path>
                <path d="M45.7,14.3 L47.8,14.3 L47.8,13.2 C47.8,12.3 47.9,11.3 48.2,10.4 C48.5,9.8 49,9.2 49.7,8.9 C50.5,8.5 51.4,8.3 52.4,8.3 C53.5,8.3 54.6,8.5 55.6,8.8 L55.1,11.5 C54.5,11.4 53.9,11.3 53.3,11.3 C52.9,11.3 52.4,11.4 52.1,11.7 C51.8,12.1 51.7,12.7 51.7,13.2 L51.7,14.2 L54.6,14.2 L54.6,17.2 L51.7,17.2 L51.7,29 L47.8,29 L47.8,17.4 L45.7,17.4 L45.7,14.3 L45.7,14.3 L45.7,14.3 Z" id="Shape" fill="#252626"></path>
                <path d="M55.4,21.4 C55.4,20.1 55.8,18.8 56.4,17.7 C57,16.5 57.9,15.6 59.1,14.9 C60.3,14.2 61.6,13.9 63,13.9 C65,13.8 67,14.6 68.4,16.1 C69.8,17.6 70.6,19.5 70.5,21.6 C70.6,23.7 69.8,25.6 68.4,27.1 C67,28.6 65,29.3 63,29.3 C61.7,29.3 60.4,29 59.2,28.4 C58,27.8 57,26.9 56.4,25.7 C55.7,24.4 55.3,22.9 55.4,21.4 L55.4,21.4 Z M59.4,21.6 C59.3,22.8 59.7,24 60.4,24.9 C61.6,26.3 63.7,26.5 65.2,25.2 C65.3,25.1 65.4,25 65.5,24.9 C66.2,23.9 66.6,22.7 66.5,21.5 C66.6,20.3 66.2,19.1 65.5,18.2 C64.3,16.8 62.1,16.7 60.7,17.9 C60.6,18 60.5,18.1 60.4,18.2 C59.6,19.3 59.2,20.4 59.4,21.6 L59.4,21.6 L59.4,21.6 Z" id="Shape" fill="#252626"></path>
                <path d="M75.8,29 L71.9,29 L71.9,14.3 L75.5,14.3 L75.5,16.4 C75.9,15.6 76.5,15 77.2,14.5 C77.7,14.2 78.3,14 78.9,14 C79.8,14 80.7,14.3 81.4,14.7 L80.2,18.1 C79.7,17.7 79,17.5 78.4,17.5 C77.9,17.5 77.4,17.6 77,18 C76.5,18.4 76.2,19 76.1,19.6 C75.8,21.2 75.7,22.9 75.8,24.5 L75.8,29 L75.8,29 L75.8,29 Z" id="Shape" fill="#252626"></path>
                <path d="M82.5,14.3 L86.1,14.3 L86.1,16.3 C87.2,14.9 88.9,14 90.7,14 C91.5,14 92.4,14.2 93.1,14.6 C93.8,15 94.4,15.6 94.8,16.4 C95.4,15.7 96.1,15.1 96.9,14.6 C97.6,14.2 98.5,14 99.3,14 C100.3,14 101.2,14.2 102,14.6 C102.8,15 103.3,15.7 103.7,16.5 C104,17.5 104.2,18.5 104.1,19.5 L104.1,28.9 L100.2,28.9 L100.2,20.5 C100.3,19.5 100.1,18.6 99.8,17.7 C99.4,17.1 98.8,16.8 98.1,16.9 C97.6,16.9 97,17.1 96.6,17.4 C96.1,17.8 95.8,18.3 95.6,18.9 C95.4,19.9 95.2,20.9 95.3,21.9 L95.3,28.9 L91.4,28.9 L91.4,20.9 C91.4,20 91.4,19.1 91.2,18.1 C91.1,17.7 90.9,17.4 90.6,17.2 C90.2,17 89.8,16.9 89.4,16.9 C88.8,16.9 88.3,17.1 87.8,17.4 C87.3,17.7 87,18.2 86.8,18.8 C86.6,19.8 86.4,20.8 86.5,21.8 L86.5,29 L82.6,29 L82.5,14.3 L82.5,14.3 L82.5,14.3 Z" id="Shape" fill="#252626"></path>
                <polygon id="Shape" fill="#252626" points="106 29 106 25.1 109.9 25.1 109.9 29"></polygon>
                <path d="M111.3,24.8 L115.2,24.2 C115.3,24.9 115.7,25.5 116.2,25.9 C116.8,26.3 117.6,26.5 118.3,26.5 C119.1,26.6 119.9,26.4 120.6,26 C120.9,25.8 121.1,25.4 121.1,25 C121.1,24.7 121,24.5 120.8,24.3 C120.4,24 120,23.9 119.5,23.8 C116.4,23.1 114.4,22.5 113.6,21.9 C112.5,21.2 111.8,19.9 111.9,18.6 C111.9,17.4 112.4,16.2 113.4,15.4 C114.7,14.4 116.4,14 118.1,14.1 C119.7,14 121.2,14.3 122.6,15.1 C123.6,15.8 124.3,16.8 124.6,18 L120.9,18.7 C120.8,18.2 120.5,17.7 120,17.4 C119.4,17.1 118.8,16.9 118.1,16.9 C117.3,16.8 116.6,17 115.9,17.3 C115.6,17.5 115.5,17.8 115.5,18.1 C115.5,18.4 115.7,18.6 115.9,18.8 C117.1,19.3 118.3,19.7 119.5,19.9 C121,20.2 122.5,20.7 123.8,21.6 C124.6,22.3 125.1,23.4 125,24.5 C125,25.8 124.4,27.1 123.3,28 C121.9,29.1 120.1,29.6 118.3,29.5 C116.6,29.6 115,29.2 113.6,28.3 C112.4,27.3 111.6,26.1 111.3,24.8 L111.3,24.8 Z" id="Shape" fill="#252626"></path>
                <path d="M130.4,8.8 L130.4,16.2 C132,14.1 134.9,13.4 137.3,14.5 C137.9,14.8 138.5,15.2 138.9,15.8 C139.3,16.3 139.5,16.9 139.6,17.5 C139.8,18.5 139.8,19.4 139.8,20.4 L139.8,29 L136,29 L136,21.3 C136,20.3 136,19.3 135.8,18.4 C135.7,18 135.4,17.6 135,17.4 C134.6,17.1 134.1,17 133.6,17 C133,17 132.4,17.2 131.9,17.5 C131.4,17.8 131,18.3 130.8,18.9 C130.5,19.8 130.4,20.7 130.5,21.7 L130.5,29 L126.6,29 L126.6,8.8 L130.4,8.8 L130.4,8.8 L130.4,8.8 Z" id="Shape" fill="#252626"></path>
            </g>
        </g>
    </g>
</svg>