<?xml version="1.0" encoding="UTF-8" standalone="no"?>
<svg width="2319px" height="486px" viewBox="0 0 2319 486" version="1.1" xmlns="http://www.w3.org/2000/svg" xmlns:xlink="http://www.w3.org/1999/xlink">
    <!-- Generator: Sketch 3.8.3 (29802) - http://www.bohemiancoding.com/sketch -->
    <title>aquiline</title>
    <desc>Created with Sketch.</desc>
    <defs></defs>
    <g id="Page-1" stroke="none" stroke-width="1" fill="none" fill-rule="evenodd">
        <g id="aquiline">
            <g id="Group-37" transform="translate(0.000000, 0.701385)">
                <path d="M165.19912,159.978127 C167.02299,159.978127 167.02299,158.88754 166.659161,157.428704 L132.015088,59.0493 C130.191218,53.5822038 128.367348,53.5822038 126.543479,59.0493 L94.4509328,157.428704 C93.7232749,159.251069 94.4509328,159.978127 95.5471446,159.978127 L165.19912,159.978127 L165.19912,159.978127 Z M91.5355764,173.098213 C89.7117067,173.098213 88.6154949,174.1888 87.8878371,176.011165 L66.0061263,240.506848 C62.7269409,249.613954 60.9030713,258.357531 60.9030713,264.919935 C60.9030713,272.204675 67.8299959,275.485877 74.0292627,275.485877 L77.3131731,275.485877 C80.9561874,275.485877 82.0523992,276.212935 82.0523992,277.671771 C82.0523992,279.857665 78.7684888,280.584723 75.4893035,280.584723 C66.7385092,280.584723 52.1475519,279.494137 48.1407088,279.494137 C44.1244155,279.494137 24.0665743,280.584723 6.92881466,280.584723 C2.18958859,280.584723 0.00189002037,279.857665 0.00189002037,277.671771 C0.00189002037,276.212935 1.82575967,275.485877 5.10494501,275.485877 C7.66119756,275.485877 10.9403829,275.122348 13.8604644,274.758819 C30.6343951,272.572925 37.9251487,258.725781 44.4929695,240.506848 L127.271136,14.2313865 C131.646534,2.20660769 133.106574,0.0207134615 135.294273,0.0207134615 C137.481971,0.0207134615 138.942012,1.83835769 143.317409,13.1360788 C148.789018,26.9832231 206.04246,177.470002 228.288,232.853858 C241.414191,265.283463 251.988855,271.114088 259.648163,273.299983 C265.119772,275.122348 270.95521,275.485877 273.870566,275.485877 C276.058265,275.485877 277.882134,275.849406 277.882134,277.671771 C277.882134,279.857665 274.598224,280.584723 270.591381,280.584723 C265.119772,280.584723 238.498835,280.584723 213.337939,279.857665 C206.406289,279.494137 202.394721,279.494137 202.394721,277.308242 C202.394721,275.849406 203.490933,275.122348 204.946248,274.758819 C207.133947,274.02704 209.321646,270.75056 207.133947,264.919935 L173.222257,175.284108 C172.489874,173.825271 171.762216,173.098213 169.938346,173.098213 L91.5355764,173.098213 L91.5355764,173.098213 Z" id="Fill-1" fill="#085387"></path>
                <path d="M614.115813,179.291423 C614.115813,223.745808 622.502778,242.691798 636.361352,255.080106 C652.039071,268.92725 669.545385,271.844923 684.500171,271.844923 C703.4618,271.844923 720.59956,266.741356 734.458134,250.708317 C749.044367,233.948221 752.323552,206.253933 752.323552,174.556106 L752.323552,135.927625 C752.323552,88.1967596 752.323552,79.8167115 751.595894,69.9778269 C750.868236,59.4118846 749.772024,53.9447885 738.105874,52.1224231 C735.549621,51.7588942 731.174224,51.3953654 727.895039,51.3953654 C725.70734,51.3953654 724.247299,50.3047788 724.247299,49.2094712 C724.247299,47.0235769 726.071169,46.2965192 729.350354,46.2965192 C745.032798,46.2965192 763.26677,47.3871058 764.726811,47.3871058 C766.55068,47.3871058 782.228399,46.2965192 792.439234,46.2965192 C796.086974,46.2965192 797.547014,47.0235769 797.547014,48.8459423 C797.547014,50.3047788 796.086974,51.3953654 793.899275,51.3953654 C791.711576,51.3953654 790.983919,51.3953654 787.336179,51.7588942 C777.125344,52.8542019 775.665303,59.4118846 774.937646,69.9778269 C774.569092,79.8167115 774.569092,88.1967596 774.569092,135.927625 L774.569092,168.361952 C774.569092,201.155087 770.926077,240.505904 745.032798,262.733096 C721.327218,282.774394 697.990191,284.59676 678.296179,284.59676 C668.085344,284.59676 633.8051,284.59676 610.104244,262.733096 C594.4218,248.158894 583.114754,226.295231 583.114754,181.113788 L583.114754,135.927625 C583.114754,87.8332308 583.114754,79.4531827 582.023267,69.6142981 C581.659438,59.7754135 579.835568,53.5812596 568.533246,52.1224231 C566.345548,51.7588942 561.965426,51.3953654 559.050069,51.3953654 C556.498542,51.3953654 555.038501,50.3047788 555.038501,49.2094712 C555.038501,47.0235769 556.498542,46.2965192 560.505385,46.2965192 C576.187829,46.2965192 595.881841,47.3871058 598.433369,47.3871058 C601.35345,47.3871058 622.866607,46.2965192 632.713613,46.2965192 C636.725181,46.2965192 637.821393,47.0235769 637.821393,48.8459423 C637.821393,50.6683077 635.265141,51.3953654 633.441271,51.3953654 C631.253572,51.3953654 628.338216,51.7588942 625.422859,52.1224231 C616.66734,53.2177308 615.207299,59.4118846 614.479642,69.6142981 C614.115813,79.4531827 614.115813,87.8332308 614.115813,135.927625 L614.115813,179.291423 Z" id="Fill-3" fill="#085387"></path>
                <path d="M851.886517,135.929513 C851.886517,87.8303981 851.886517,79.0868212 851.158859,69.2479365 C850.426477,59.4090519 848.238778,53.9466769 840.57947,52.4878404 C836.931731,51.7607827 834.380204,51.7607827 832.192505,51.3972538 C829.640978,51.033725 828.180937,50.3019462 828.180937,48.8431096 C828.180937,47.0207442 829.640978,46.2936865 833.652546,46.2936865 C844.954868,46.2936865 865.745092,47.3889942 866.836578,47.3889942 C868.296619,47.3889942 889.445947,46.2936865 899.656782,46.2936865 C903.304521,46.2936865 905.128391,47.0207442 905.128391,48.8431096 C905.128391,50.3019462 904.036904,51.033725 901.116823,51.3972538 C898.929124,51.7607827 897.105255,51.7607827 894.553727,52.1243115 C883.979063,53.5831481 882.882851,59.0455231 882.155193,69.6161865 C881.422811,79.4550712 881.791365,87.8303981 881.791365,135.929513 L881.791365,190.586312 C881.791365,218.644129 881.422811,244.147802 883.24668,257.267888 C884.706721,267.833831 886.166762,271.84209 895.645214,274.027985 C900.389165,275.118571 908.043747,275.486821 909.503788,275.486821 C912.787699,275.85035 913.515356,276.577408 913.515356,278.036244 C913.515356,279.495081 912.055316,280.585667 908.407576,280.585667 C889.809776,280.585667 868.660448,279.495081 866.836578,279.495081 C865.745092,279.495081 844.22721,280.585667 834.016375,280.585667 C830.732464,280.585667 828.180937,279.85861 828.180937,278.036244 C828.180937,276.577408 829.640978,275.486821 832.920163,275.486821 C834.748758,275.486821 838.755601,275.118571 841.675682,274.391513 C847.874949,272.937398 848.966436,265.647937 850.062648,256.90436 C851.886517,243.784273 851.886517,217.91235 851.886517,190.586312 L851.886517,135.929513 Z" id="Fill-5" fill="#085387"></path>
                <path d="M1009.06392,191.31573 C1009.06392,233.21597 1010.52396,254.352576 1016.72323,260.183201 C1022.55394,265.282047 1029.84942,267.467941 1055.01504,267.467941 C1071.05659,267.467941 1085.64282,267.467941 1093.66596,257.265528 C1097.31369,251.803153 1099.86995,244.513691 1100.5976,239.046595 C1100.96143,236.133643 1101.69382,234.674807 1103.51296,234.674807 C1104.973,234.674807 1105.70066,235.770114 1105.70066,239.414845 C1105.70066,243.054855 1103.51296,263.823211 1101.32526,272.20798 C1099.13756,279.49272 1099.50612,281.315086 1081.9998,281.315086 C1057.20274,281.315086 1029.84942,279.49272 993.381475,279.49272 C981.34677,279.49272 974.056016,280.588028 961.293654,280.588028 C957.645914,280.588028 955.458216,279.856249 955.458216,277.675076 C955.458216,276.579768 956.549703,275.484461 959.465059,275.484461 C962.385141,275.484461 965.300497,275.484461 968.220578,274.757403 C974.419845,273.662095 976.607544,266.377355 977.699031,257.629057 C979.891454,243.786634 979.159071,218.646489 979.159071,190.588672 L979.159071,135.931874 C979.159071,87.8327587 979.159071,79.8162394 978.431413,69.9773548 C977.699031,59.7749413 976.243715,53.2172587 963.845181,51.7584221 C961.657483,51.3948933 957.645914,51.3948933 954.725833,51.3948933 C952.174305,51.3948933 950.714265,50.3043067 950.714265,48.8454702 C950.714265,47.0231048 952.538134,46.2960471 956.185874,46.2960471 C971.499764,46.2960471 993.381475,47.3866337 994.109132,47.3866337 C999.216912,47.3866337 1021.46245,46.2960471 1031.67329,46.2960471 C1035.32103,46.2960471 1036.41251,47.3866337 1036.41251,48.8454702 C1036.41251,50.3043067 1034.58864,51.3948933 1032.40095,51.3948933 C1029.84942,51.3948933 1026.20168,51.7584221 1022.55394,52.1266721 C1012.3431,53.5807875 1010.15541,59.4114125 1009.42775,69.9773548 C1008.70009,79.8162394 1009.06392,87.8327587 1009.06392,135.931874 L1009.06392,191.31573 Z" id="Fill-7" fill="#085387"></path>
                <path d="M1154.56666,135.929513 C1154.56666,87.8303981 1154.56666,79.0868212 1153.83901,69.2479365 C1153.10662,59.4090519 1150.92365,53.9466769 1143.25962,52.4878404 C1139.6166,51.7607827 1137.06035,51.7607827 1134.87265,51.3972538 C1132.32112,51.033725 1130.86108,50.3019462 1130.86108,48.8431096 C1130.86108,47.0207442 1132.32112,46.2936865 1136.33269,46.2936865 C1147.63501,46.2936865 1168.42524,47.3889942 1169.51673,47.3889942 C1170.97677,47.3889942 1192.12609,46.2936865 1202.33693,46.2936865 C1205.98467,46.2936865 1207.80854,47.0207442 1207.80854,48.8431096 C1207.80854,50.3019462 1206.71233,51.033725 1203.79697,51.3972538 C1201.60927,51.7607827 1199.7854,51.7607827 1197.23387,52.1243115 C1186.65921,53.5831481 1185.563,59.0455231 1184.83062,69.6161865 C1184.10296,79.4550712 1184.46679,87.8303981 1184.46679,135.929513 L1184.46679,190.586312 C1184.46679,218.644129 1184.10296,244.147802 1185.93155,257.267888 C1187.38687,267.833831 1188.84691,271.84209 1198.33009,274.027985 C1203.06931,275.118571 1210.72862,275.486821 1212.18393,275.486821 C1215.46785,275.85035 1216.1955,276.577408 1216.1955,278.036244 C1216.1955,279.495081 1214.73546,280.585667 1211.09245,280.585667 C1192.48992,280.585667 1171.34059,279.495081 1169.51673,279.495081 C1168.42524,279.495081 1146.90736,280.585667 1136.69652,280.585667 C1133.41261,280.585667 1130.86108,279.85861 1130.86108,278.036244 C1130.86108,276.577408 1132.32112,275.486821 1135.60031,275.486821 C1137.42418,275.486821 1141.44047,275.118571 1144.35583,274.391513 C1150.5551,272.937398 1151.65131,265.647937 1152.74279,256.90436 C1154.56666,243.784273 1154.56666,217.91235 1154.56666,190.586312 L1154.56666,135.929513 Z" id="Fill-9" fill="#085387"></path>
                <path d="M1271.99599,56.8619894 C1271.99599,45.5642683 1273.08748,41.9195375 1276.00756,41.9195375 C1278.56381,41.9195375 1284.75835,49.208999 1287.30988,51.7584221 C1290.59852,55.4031529 1341.28414,107.142278 1392.33831,159.249653 C1420.78312,186.943941 1457.25106,224.472393 1466.73424,233.21597 L1462.71795,81.6386048 C1462.35412,61.9655567 1460.16642,55.4031529 1450.31941,52.8537298 C1444.12487,51.7584221 1438.65326,51.3948933 1436.09701,51.3948933 C1432.454,51.3948933 1431.72634,49.9407779 1431.72634,48.4819413 C1431.72634,46.659576 1434.64169,46.2960471 1438.28471,46.2960471 C1453.97188,46.2960471 1469.28577,47.3866337 1472.56495,47.3866337 C1476.21269,47.3866337 1487.51501,46.2960471 1501.74214,46.2960471 C1505.75371,46.2960471 1506.8452,46.659576 1506.8452,48.4819413 C1506.8452,49.9407779 1505.75371,51.0313644 1503.56601,51.3948933 C1501.37831,51.7584221 1498.45823,51.7584221 1494.44666,52.490201 C1486.0597,54.3078452 1483.50817,57.952576 1483.50817,79.8162394 L1482.77579,262.732624 C1482.77579,280.951557 1482.04813,282.773922 1479.4966,282.773922 C1476.94508,282.773922 1473.29734,280.224499 1455.42719,263.459682 C1453.97188,262.732624 1403.27681,212.452336 1371.55281,181.476845 C1333.62483,142.126028 1297.15689,104.229326 1288.04226,94.7539702 L1292.78149,237.228951 C1293.51387,262.369095 1295.70157,271.844451 1304.8162,274.030345 C1310.65163,275.484461 1316.8509,275.484461 1319.76626,275.484461 C1322.68634,275.484461 1324.14165,276.579768 1324.14165,278.038605 C1324.14165,279.856249 1322.31778,280.588028 1318.31094,280.588028 C1298.61693,280.588028 1285.48601,279.49272 1282.93448,279.49272 C1280.38296,279.49272 1266.89294,280.588028 1251.21049,280.588028 C1247.92658,280.588028 1245.73888,280.224499 1245.73888,278.038605 C1245.73888,276.579768 1247.19892,275.484461 1250.84194,275.484461 C1253.39347,275.484461 1257.40976,275.484461 1262.14899,274.030345 C1270.17212,271.476201 1271.99599,261.642038 1271.99599,235.038336 C1271.99599,61.2337779 1272.35982,117.349412 1271.99599,56.8619894" id="Fill-11" fill="#085387"></path>
                <path d="M1572.12934,135.929513 C1572.12934,88.1986481 1572.12934,79.4550712 1571.40168,69.6161865 C1570.6693,59.4090519 1568.11304,54.3102058 1557.5431,52.1243115 C1555.35068,51.7607827 1551.70767,51.3972538 1548.79231,51.3972538 C1546.24078,51.3972538 1544.04836,50.3019462 1544.04836,49.2113596 C1544.04836,47.0207442 1545.87223,46.2936865 1549.51997,46.2936865 C1556.81545,46.2936865 1566.65773,47.0207442 1587.0794,47.3889942 C1588.90327,47.3889942 1653.81602,47.3889942 1661.10677,47.0207442 C1668.40225,46.6572154 1672.41382,46.2936865 1675.3339,45.2031 C1677.5216,44.4713212 1677.88543,44.1077923 1679.34074,44.1077923 C1680.07312,44.1077923 1680.80078,44.8395712 1680.80078,46.6572154 C1680.80078,48.8431096 1678.61308,53.9466769 1677.88543,63.0537827 C1677.5216,69.2479365 1677.15777,75.0785615 1676.78921,82.0044942 C1676.78921,85.280975 1676.06156,87.4668692 1674.23769,87.4668692 C1672.41382,87.4668692 1671.68143,86.0127538 1671.68143,83.4586096 C1671.3176,77.9962346 1670.22612,74.3515038 1669.12991,71.8020808 C1666.94221,64.5126192 1663.66302,61.9631962 1645.42905,60.8726096 C1640.68982,60.5043596 1604.58571,60.1408308 1603.85805,60.1408308 C1602.75712,60.1408308 1602.02946,60.8726096 1602.02946,63.0537827 L1602.02946,145.768398 C1602.02946,147.954292 1602.39329,149.413129 1604.22188,149.413129 C1608.59728,149.413129 1645.79288,149.0496 1653.45219,148.317821 C1661.83915,147.954292 1667.31076,146.858985 1670.22612,142.855446 C1671.68143,140.664831 1672.77765,139.937773 1674.23769,139.937773 C1674.97007,139.937773 1675.69773,140.301302 1675.69773,142.123667 C1675.69773,143.946033 1674.23769,150.871965 1673.1462,161.437908 C1672.04526,171.6356 1672.04526,178.925062 1671.68143,183.6651 C1671.3176,186.578052 1670.58995,187.668638 1669.12991,187.668638 C1667.31076,187.668638 1666.94221,185.487465 1666.94221,182.933321 C1666.94221,180.747427 1666.57838,177.102696 1665.85072,174.189744 C1664.39068,169.454427 1662.20298,164.35086 1648.34441,163.260273 C1639.95744,162.528494 1610.42115,161.801437 1604.58571,161.801437 C1602.39329,161.801437 1602.02946,162.892023 1602.02946,164.35086 L1602.02946,190.94984 C1602.02946,202.247562 1601.66563,234.308917 1602.02946,240.503071 C1602.75712,253.986687 1604.58571,260.912619 1612.24029,264.1891 C1617.7119,266.743244 1626.46742,267.470302 1638.86596,267.470302 C1645.79288,267.470302 1657.46376,267.833831 1666.57838,265.284408 C1677.5216,262.003206 1680.07312,254.718465 1682.98848,241.23485 C1683.71614,237.590119 1684.81235,236.136004 1686.27239,236.136004 C1688.46009,236.136004 1688.46009,239.412485 1688.46009,241.598379 C1688.46009,244.147802 1685.54473,267.106773 1684.44852,273.300927 C1682.98848,280.585667 1680.43695,281.312725 1668.40225,281.312725 C1644.33284,281.312725 1634.122,280.585667 1621.35964,280.585667 C1608.59728,280.222138 1591.82335,279.495081 1578.3286,279.495081 C1569.94164,279.495081 1563.00999,280.585667 1554.25919,280.585667 C1550.97528,280.585667 1549.15614,279.85861 1549.15614,278.036244 C1549.15614,276.577408 1550.61145,275.486821 1552.43532,275.486821 C1554.62302,275.486821 1557.17927,275.118571 1559.7308,274.391513 C1566.2939,272.937398 1570.6693,268.19736 1571.40168,245.606638 C1571.76551,233.218331 1572.12934,218.275879 1572.12934,190.586312 L1572.12934,135.929513 Z" id="Fill-13" fill="#085387"></path>
                <path d="M640.613426,402.471696 C646.600065,408.250388 649.921776,414.808071 650.583283,422.154187 L639.13921,422.154187 C637.863446,416.578504 635.326094,412.159504 631.522428,408.897187 C627.718762,405.634869 622.379454,404.006071 615.504505,404.006071 C607.122265,404.006071 600.355992,407.004004 595.200961,412.999869 C590.045931,418.995735 587.466053,428.187821 587.466053,440.576129 C587.466053,450.721888 589.795503,458.95086 594.449678,465.263042 C599.103853,471.575225 606.049678,474.728956 615.282428,474.728956 C623.778069,474.728956 630.251389,471.409985 634.692937,464.767321 C637.050737,461.273667 638.803731,456.675263 639.966094,450.976831 L651.410167,450.976831 C650.399006,460.093379 647.05367,467.736927 641.378884,473.902754 C634.579536,481.329129 625.403487,485.044677 613.855462,485.044677 C603.904505,485.044677 595.550615,481.999533 588.784342,475.904523 C579.882346,467.845513 575.436073,455.395831 575.436073,438.569638 C575.436073,425.794196 578.776684,415.313235 585.462631,407.136196 C592.687234,398.250985 602.661817,393.808379 615.367479,393.808379 C626.21147,393.808379 634.626786,396.697725 640.613426,402.471696" id="Fill-15" fill="#90979D"></path>
                <path d="M728.594346,447.26506 L715.255527,409.014271 L701.392228,447.26506 L728.594346,447.26506 Z M709.127136,396.168012 L722.380904,396.168012 L753.830843,482.744531 L740.97398,482.744531 L731.925507,456.811233 L697.928766,456.811233 L688.53064,482.744531 L676.50066,482.744531 L709.127136,396.168012 Z" id="Fill-17" fill="#90979D"></path>
                <path d="M828.342061,408.071457 C825.766908,406.853399 822.23257,406.24437 817.743772,406.24437 L794.553222,406.24437 L794.553222,436.242582 L817.743772,436.242582 C822.974403,436.242582 827.217499,435.123668 830.477784,432.885841 C833.738069,430.643293 835.368212,426.696409 835.368212,421.040466 C835.368212,414.67163 833.029312,410.351774 828.342061,408.071457 L828.342061,408.071457 Z M782.81147,396.169428 L821.589963,396.169428 C829.253996,396.169428 835.443813,398.336437 840.154688,402.679899 C844.870289,407.018639 847.22809,413.11837 847.22809,420.979091 C847.22809,427.739784 845.120717,433.622341 840.920147,438.631486 C836.710126,443.64063 830.274607,446.142841 821.608864,446.142841 L794.553222,446.142841 L794.553222,482.745947 L782.81147,482.745947 L782.81147,396.169428 Z" id="Fill-19" fill="#90979D"></path>
                <polygon id="Fill-21" fill="#90979D" points="882.200081 482.743587 894.055234 482.743587 894.055234 396.167067 882.200081 396.167067"></polygon>
                <polygon id="Fill-23" fill="#90979D" points="993.379585 396.167067 993.379585 406.482788 964.17877 406.482788 964.17877 482.743587 952.323617 482.743587 952.323617 406.482788 923.127527 406.482788 923.127527 396.167067"></polygon>
                <path d="M1057.29251,447.26506 L1043.95369,409.014271 L1030.0904,447.26506 L1057.29251,447.26506 Z M1037.8253,396.168012 L1051.07907,396.168012 L1082.52901,482.744531 L1069.67215,482.744531 L1060.62367,456.811233 L1026.62693,456.811233 L1017.22881,482.744531 L1005.19883,482.744531 L1037.8253,396.168012 Z" id="Fill-24" fill="#90979D"></path>
                <polygon id="Fill-25" fill="#90979D" points="1110.38933 396.167067 1122.12635 396.167067 1122.12635 472.432587 1165.60155 472.432587 1165.60155 482.743587 1110.38933 482.743587"></polygon>
                <path d="M1287.91563,408.071457 C1285.34048,406.853399 1281.80614,406.24437 1277.31734,406.24437 L1254.12679,406.24437 L1254.12679,436.242582 L1277.31734,436.242582 C1282.54325,436.242582 1286.79107,435.123668 1290.05136,432.885841 C1293.31637,430.643293 1294.94178,426.696409 1294.94178,421.040466 C1294.94178,414.67163 1292.60288,410.351774 1287.91563,408.071457 L1287.91563,408.071457 Z M1242.38504,396.169428 L1281.15881,396.169428 C1288.82757,396.169428 1295.01738,398.336437 1299.72826,402.679899 C1304.44386,407.018639 1306.79694,413.11837 1306.79694,420.979091 C1306.79694,427.739784 1304.69429,433.622341 1300.49372,438.631486 C1296.2837,443.64063 1289.84818,446.142841 1281.17771,446.142841 L1254.12679,446.142841 L1254.12679,482.745947 L1242.38504,482.745947 L1242.38504,396.169428 Z" id="Fill-26" fill="#90979D"></path>
                <path d="M1374.96005,447.26506 L1361.61651,409.014271 L1347.75321,447.26506 L1374.96005,447.26506 Z M1355.49756,396.168012 L1368.75133,396.168012 L1400.20127,482.744531 L1387.33496,482.744531 L1378.29121,456.811233 L1344.29447,456.811233 L1334.89634,482.744531 L1322.86636,482.744531 L1355.49756,396.168012 Z" id="Fill-27" fill="#90979D"></path>
                <path d="M1467.59656,435.831369 C1472.95477,435.831369 1477.18369,434.73134 1480.30222,432.531283 C1483.42076,430.331225 1484.98002,426.365456 1484.98002,420.624533 C1484.98002,414.458706 1482.80178,410.252158 1478.44055,408.00961 C1476.10638,406.834042 1472.99257,406.243898 1469.08968,406.243898 L1441.21188,406.243898 L1441.21188,435.831369 L1467.59656,435.831369 Z M1429.47485,396.168956 L1468.86288,396.168956 C1475.35037,396.168956 1480.6944,397.12735 1484.90442,399.053581 C1492.89448,402.750244 1496.89188,409.56759 1496.89188,419.505619 C1496.89188,424.694167 1495.82402,428.938485 1493.68357,432.23385 C1491.53367,435.538658 1488.53799,438.191946 1484.68235,440.193715 C1488.06548,441.567571 1490.61229,443.375773 1492.32275,445.6136 C1494.03322,447.856148 1494.98768,451.486715 1495.18613,456.519465 L1495.59721,468.128783 C1495.71534,471.428869 1495.98939,473.88859 1496.4241,475.493783 C1497.12813,478.246215 1498.38972,480.016648 1500.19469,480.80036 L1500.19469,482.745475 L1485.80691,482.745475 C1485.41473,481.999533 1485.09815,481.036417 1484.8619,479.856129 C1484.62565,478.680562 1484.43192,476.400244 1484.27127,473.019898 L1483.56251,458.58261 C1483.29318,452.921946 1481.25196,449.13086 1477.42939,447.204629 C1475.25114,446.14709 1471.83021,445.6136 1467.17131,445.6136 L1441.21188,445.6136 L1441.21188,482.745475 L1429.47485,482.745475 L1429.47485,396.168956 Z" id="Fill-28" fill="#90979D"></path>
                <polygon id="Fill-29" fill="#90979D" points="1593.44735 396.167067 1593.44735 406.482788 1564.24653 406.482788 1564.24653 482.743587 1552.39611 482.743587 1552.39611 406.482788 1523.19529 406.482788 1523.19529 396.167067"></polygon>
                <polygon id="Fill-30" fill="#90979D" points="1621.51604 396.167067 1635.34626 396.167067 1678.55686 466.120404 1678.55686 396.167067 1689.76468 396.167067 1689.76468 482.743587 1676.57706 482.743587 1632.72386 412.875231 1632.72386 482.743587 1621.51604 482.743587"></polygon>
                <polygon id="Fill-31" fill="#90979D" points="1727.15164 396.167067 1790.03262 396.167067 1790.03262 406.7755 1738.59571 406.7755 1738.59571 433.058163 1786.13445 433.058163 1786.13445 443.081173 1738.59571 443.081173 1738.59571 472.432587 1790.9162 472.432587 1790.9162 482.743587 1727.15164 482.743587"></polygon>
                <path d="M1863.42116,435.831369 C1868.77937,435.831369 1873.00829,434.73134 1876.12683,432.531283 C1879.24536,430.331225 1880.80463,426.365456 1880.80463,420.624533 C1880.80463,414.458706 1878.62638,410.252158 1874.26516,408.00961 C1871.93098,406.834042 1868.81717,406.243898 1864.91428,406.243898 L1837.03648,406.243898 L1837.03648,435.831369 L1863.42116,435.831369 Z M1825.29945,396.168956 L1864.68748,396.168956 C1871.17497,396.168956 1876.51901,397.12735 1880.72903,399.053581 C1888.71909,402.750244 1892.71648,409.56759 1892.71648,419.505619 C1892.71648,424.694167 1891.64862,428.938485 1889.50817,432.23385 C1887.35827,435.538658 1884.36259,438.191946 1880.50695,440.193715 C1883.89009,441.567571 1886.43689,443.375773 1888.14736,445.6136 C1889.85782,447.856148 1890.81229,451.486715 1891.01074,456.519465 L1891.42182,468.128783 C1891.53994,471.428869 1891.814,473.88859 1892.2487,475.493783 C1892.95273,478.246215 1894.21432,480.016648 1896.01929,480.80036 L1896.01929,482.745475 L1881.63151,482.745475 C1881.23933,481.999533 1880.92275,481.036417 1880.6865,479.856129 C1880.45025,478.680562 1880.25652,476.400244 1880.09587,473.019898 L1879.38711,458.58261 C1879.11778,452.921946 1877.07656,449.13086 1873.254,447.204629 C1871.07575,446.14709 1867.65481,445.6136 1862.99591,445.6136 L1837.03648,445.6136 L1837.03648,482.745475 L1825.29945,482.745475 L1825.29945,396.168956 Z" id="Fill-32" fill="#90979D"></path>
                <path d="M1936.0641,454.808047 C1936.33343,459.722768 1937.44854,463.707422 1939.41416,466.771451 C1943.16585,472.512374 1949.7762,475.378114 1959.2452,475.378114 C1963.48829,475.378114 1967.35338,474.750201 1970.83575,473.494374 C1977.5784,471.053538 1980.95208,466.695913 1980.95208,460.407336 C1980.95208,455.690903 1979.52512,452.334163 1976.66646,450.327672 C1973.77,448.363672 1969.23868,446.654614 1963.06776,445.200499 L1951.69929,442.551932 C1944.26679,440.823989 1939.0078,438.916643 1935.92707,436.834614 C1930.59249,433.218211 1927.92284,427.817211 1927.92284,420.626893 C1927.92284,412.846432 1930.54524,406.458711 1935.78532,401.473172 C1941.03013,396.482912 1948.45318,393.985422 1958.05921,393.985422 C1966.89978,393.985422 1974.40789,396.176038 1980.58825,400.557268 C1986.76862,404.938499 1989.8588,411.93997 1989.8588,421.566403 L1978.83053,421.566403 C1978.26353,416.934951 1977.05864,413.375201 1975.21114,410.901316 C1971.78076,406.383172 1965.95477,404.121739 1957.73791,404.121739 C1951.09921,404.121739 1946.33163,405.575855 1943.43045,408.484086 C1940.51982,411.392316 1939.07396,414.772663 1939.07396,418.620403 C1939.07396,422.86472 1940.78442,425.971239 1944.21954,427.935239 C1946.46393,429.191066 1951.54809,430.763211 1959.47673,432.646951 L1971.24683,435.418268 C1976.92634,436.754355 1981.30646,438.581441 1984.39664,440.899528 C1989.7265,444.945557 1992.39615,450.823393 1992.39615,458.523595 C1992.39615,468.107538 1988.98939,474.967374 1982.18532,479.093663 C1975.37652,483.219951 1967.46679,485.278374 1958.45611,485.278374 C1947.9476,485.278374 1939.72129,482.530663 1933.77717,477.030518 C1927.83306,471.568143 1924.9177,464.160653 1925.03583,454.808047 L1936.0641,454.808047 Z" id="Fill-33" fill="#90979D"></path>
                <polygon id="Fill-34" fill="#90979D" points="2077.08655 396.167067 2088.82358 396.167067 2088.82358 472.432587 2132.29877 472.432587 2132.29877 482.743587 2077.08655 482.743587"></polygon>
                <polygon id="Fill-35" fill="#90979D" points="2161.54684 396.167067 2173.28386 396.167067 2173.28386 472.432587 2216.75905 472.432587 2216.75905 482.743587 2161.54684 482.743587"></polygon>
                <path d="M2307.29434,402.471696 C2313.28098,408.250388 2316.60269,414.808071 2317.25947,422.154187 L2305.82012,422.154187 C2304.54436,416.578504 2302.00701,412.159504 2298.20334,408.897187 C2294.39967,405.634869 2289.06037,404.006071 2282.18542,404.006071 C2273.80318,404.006071 2267.03218,407.004004 2261.88187,412.999869 C2256.72684,418.995735 2254.14697,428.187821 2254.14697,440.576129 C2254.14697,450.721888 2256.47642,458.95086 2261.13059,465.263042 C2265.78477,471.575225 2272.73059,474.728956 2281.96334,474.728956 C2290.45898,474.728956 2296.9323,471.409985 2301.37385,464.767321 C2303.72692,461.273667 2305.48464,456.675263 2306.64228,450.976831 L2318.08635,450.976831 C2317.07519,460.093379 2313.73458,467.736927 2308.0598,473.902754 C2301.26045,481.329129 2292.0844,485.044677 2280.5411,485.044677 C2270.58542,485.044677 2262.23153,481.999533 2255.46525,475.904523 C2246.56326,467.845513 2242.11226,455.395831 2242.11226,438.569638 C2242.11226,425.794196 2245.4576,415.313235 2252.14354,407.136196 C2259.36815,398.250985 2269.34273,393.808379 2282.04839,393.808379 C2292.89238,393.808379 2301.3077,396.697725 2307.29434,402.471696" id="Fill-36" fill="#90979D"></path>
            </g>
            <g id="Group-42" transform="translate(271.327902, 42.191769)">
                <path d="M156.399772,228.124737 C148.556187,230.065132 141.326859,230.716651 135.652073,230.716651 C78.0348024,230.716651 34.6352098,182.617536 34.6352098,112.291228 C34.6352098,43.064949 75.4785499,11.7259298 125.805067,11.7259298 C176.859242,11.7259298 221.350322,53.2673625 221.350322,125.411314 C221.350322,154.569161 215.292807,175.809632 206.211259,191.257247 L215.543234,206.884266 C234.141035,189.283805 255.630566,158.70017 255.630566,116.667737 C255.630566,44.1555356 200.928652,0.432929808 128.356595,0.432929808 C38.2829491,0.432929808 0.718794297,72.5768817 0.718794297,121.039526 C0.718794297,177.155161 37.5552912,243.104959 127.628937,243.104959 C139.53134,243.104959 152.98356,240.980439 163.699976,237.963622 L156.399772,228.124737 Z" id="Fill-38" fill="#085387"></path>
                <polygon id="Fill-40" fill="#929A9F" points="245.056847 311.504091 127.719658 136.032966 137.543039 129.480005 254.880228 304.946409"></polygon>
            </g>
        </g>
    </g>
</svg>