<?xml version="1.0" encoding="UTF-8" standalone="no"?>
<svg width="4880px" height="1136px" viewBox="0 0 4880 1136" version="1.1" xmlns="http://www.w3.org/2000/svg" xmlns:xlink="http://www.w3.org/1999/xlink">
    <!-- Generator: Sketch 3.8.3 (29802) - http://www.bohemiancoding.com/sketch -->
    <title>eboutic</title>
    <desc>Created with Sketch.</desc>
    <defs></defs>
    <g id="Page-1" stroke="none" stroke-width="1" fill="none" fill-rule="evenodd">
        <g id="eboutic">
            <path d="M287.651967,650.786976 L287.651967,597.314524 C287.651967,559.462476 285.634069,535.022571 281.584731,523.99481 C277.535393,512.967048 269.274202,507.453167 256.787615,507.453167 C241.362211,507.453167 231.800898,512.140643 228.130762,521.515595 C224.460626,530.890548 222.63233,556.156857 222.63233,597.314524 L222.63233,650.786976 L287.651967,650.786976 L287.651967,650.786976 Z M510.826014,769.857 L222.63233,769.857 L222.63233,928.066095 C222.63233,961.149381 225.015886,982.459786 229.796543,992.010857 C234.563657,1001.57548 243.745767,1006.34424 257.342875,1006.34424 C274.230917,1006.34424 285.539269,1000.00395 291.240845,987.323381 C296.928878,974.64281 299.772895,950.108071 299.772895,913.732714 L299.772895,817.260119 L510.826014,817.260119 L510.826014,871.288024 C510.826014,916.482881 507.981997,951.218976 502.293964,975.469214 C496.592388,999.719452 483.279681,1025.6225 462.342302,1053.20545 C441.404922,1080.77486 414.860767,1101.43498 382.709837,1115.22645 C350.558906,1128.99083 310.241584,1135.88657 261.74433,1135.88657 C214.723255,1135.88657 173.214155,1129.08567 137.21703,1115.48386 C101.206363,1101.8956 73.1995706,1083.24052 53.1831108,1059.53219 C33.153108,1035.8374 19.2851413,1009.75824 11.5656676,981.254048 C3.84619391,952.7905 0,911.348333 0,856.941095 L0,643.620286 C0,579.675524 8.62685042,529.237738 25.8940942,492.293381 C43.161338,455.362571 71.4525319,427.075143 110.754133,407.404 C150.069277,387.746405 195.248512,377.910833 246.318925,377.910833 C308.778947,377.910833 360.296277,389.765 400.898,413.473333 C441.48618,437.168119 469.953432,468.598595 486.313299,507.737667 C502.64608,546.876738 510.826014,601.920714 510.826014,672.828952 L510.826014,769.857 L510.826014,769.857 Z" id="Fill-1" fill="#8B8685"></path>
            <path d="M879.632672,598.964624 C879.632672,561.126124 877.235572,536.401719 872.468459,524.818505 C867.687802,513.248838 858.31609,507.464005 844.366866,507.464005 C830.769758,507.464005 821.953306,512.517267 817.903968,522.62379 C813.868173,532.730314 811.850276,558.172743 811.850276,598.964624 L811.850276,914.285457 C811.850276,953.600648 814.139032,978.785671 818.730088,989.799886 C823.321143,1000.8412 832.421996,1006.34153 846.019104,1006.34153 C859.968329,1006.34153 869.069182,1000.65153 873.294578,989.244433 C877.506431,977.864433 879.632672,950.484695 879.632672,907.118767 L879.632672,598.964624 Z M811.850276,230.171338 L811.850276,441.446457 C830.214498,420.081862 850.70496,404.16341 873.294578,393.664005 C895.884196,383.1646 920.410453,377.921671 946.859808,377.921671 C977.344957,377.921671 1003.79431,382.690433 1026.20787,392.241505 C1048.62143,401.806124 1065.69907,415.218267 1077.45434,432.491481 C1089.22315,449.764695 1096.29257,466.658576 1098.67612,483.200219 C1101.05968,499.741862 1102.25146,535.019862 1102.25146,589.047767 L1102.25146,918.701981 C1102.25146,972.3641 1098.67612,1012.31603 1091.51191,1038.59841 C1084.3477,1064.86724 1067.54091,1087.65434 1041.09156,1106.94615 C1014.6422,1126.23796 983.222592,1135.88386 946.859808,1135.88386 C920.776112,1135.88386 896.439456,1130.16677 873.849838,1118.77322 C851.246678,1107.35258 830.580157,1090.22839 811.850276,1067.40065 L797.521849,1122.66139 L589.217946,1122.66139 L589.217946,230.171338 L811.850276,230.171338 Z" id="Fill-3" fill="#8B8685"></path>
            <path d="M1462.23625,592.906129 C1462.23625,555.419867 1460.21835,531.806367 1456.18256,522.065629 C1452.13322,512.338438 1443.49282,507.461295 1430.27492,507.461295 C1417.04347,507.461295 1408.24056,512.338438 1403.82556,522.065629 C1399.41057,531.806367 1397.20307,555.419867 1397.20307,592.906129 L1397.20307,923.102248 C1397.20307,957.648676 1399.41057,980.151271 1403.82556,990.637129 C1408.24056,1001.09589 1416.85387,1006.33882 1429.7332,1006.33882 C1442.95111,1006.33882 1451.67276,1001.5836 1455.89815,992.005438 C1460.12355,982.454367 1462.23625,961.889081 1462.23625,930.268938 L1462.23625,592.906129 Z M1684.85503,648.03139 L1684.85503,827.171557 C1684.85503,892.98589 1681.55056,941.201867 1674.94161,971.887224 C1668.33265,1002.58613 1654.19383,1031.23934 1632.51159,1057.88751 C1610.84289,1084.53568 1583.01215,1104.19327 1549.03293,1116.8603 C1515.04016,1129.55441 1476.02296,1135.8947 1431.92716,1135.8947 C1382.69858,1135.8947 1340.99988,1130.4621 1306.83105,1119.62401 C1272.67577,1108.79946 1246.13161,1092.44749 1227.21213,1070.55453 C1208.27911,1048.70222 1194.7768,1022.24372 1186.70521,991.179033 C1178.62008,960.141438 1174.58428,913.537629 1174.58428,851.435343 L1174.58428,664.017581 C1174.58428,596.022081 1181.92455,542.928962 1196.61864,504.697581 C1211.31272,466.479748 1237.76208,435.79439 1275.98025,412.64151 C1314.17133,389.488629 1363.04778,377.918962 1422.55544,377.918962 C1472.51534,377.918962 1515.41936,385.356605 1551.22688,400.245438 C1587.06149,415.120724 1614.68908,434.520914 1634.16382,458.391819 C1653.63857,482.289819 1666.95127,506.905843 1674.12903,532.266986 C1681.29324,557.628129 1684.85503,596.211748 1684.85503,648.03139 L1684.85503,648.03139 Z" id="Fill-5" fill="#8B8685"></path>
            <path d="M2273.52991,391.146857 L2273.52991,1122.6641 L2047.03784,1122.6641 L2050.89758,1061.87593 C2035.47218,1086.55969 2016.45789,1105.06574 1993.86828,1117.39407 C1971.27866,1129.7224 1945.27622,1135.88657 1915.88805,1135.88657 C1882.45054,1135.88657 1854.7146,1130.02045 1832.6667,1118.23402 C1810.63235,1106.48824 1794.38082,1090.88138 1783.91213,1071.38636 C1773.4299,1051.91843 1766.91575,1031.61055 1764.34259,1010.47626 C1761.76943,989.355524 1760.48285,947.357905 1760.48285,884.5105 L1760.48285,391.146857 L1983.11518,391.146857 L1983.11518,888.940571 C1983.11518,945.90831 1984.86222,979.696071 1988.34276,990.358048 C1991.83683,1001.02002 2001.2898,1006.34424 2016.72875,1006.34424 C2033.26468,1006.34424 2043.08331,1000.83036 2046.21172,989.802595 C2049.3266,978.774833 2050.89758,943.307167 2050.89758,883.399595 L2050.89758,391.146857 L2273.52991,391.146857 Z" id="Fill-7" fill="#8B8685"></path>
            <path d="M2593.82577,293.574195 L2593.82577,408.783148 L2653.90224,408.783148 L2653.90224,524.547552 L2593.82577,524.547552 L2593.82577,915.938267 C2593.82577,964.086505 2596.31767,990.91079 2601.27438,996.411124 C2606.2311,1001.93855 2626.88408,1004.70227 2663.2604,1004.70227 L2663.2604,1122.66139 L2573.43011,1122.66139 C2522.7389,1122.66139 2486.55217,1120.54796 2464.88347,1116.3211 C2443.20123,1112.09424 2424.10569,1102.36705 2407.56977,1087.09889 C2391.03384,1071.85781 2380.75475,1054.39493 2376.70542,1034.73734 C2372.65608,1015.0662 2370.65172,968.855267 2370.65172,896.091005 L2370.65172,524.547552 L2322.69619,524.547552 L2322.69619,408.783148 L2370.65172,408.783148 L2370.65172,293.574195 L2593.82577,293.574195 Z" id="Fill-9" fill="#8B8685"></path>
            <polygon id="Fill-11" fill="#8B8685" points="2708.57371 1122.65868 2937.815 1122.65868 2937.815 391.141438 2708.57371 391.141438"></polygon>
            <path d="M3515.47269,667.324555 L3305.51655,667.324555 L3305.51655,582.977079 C3305.51655,553.578745 3303.11945,533.63665 3298.36588,523.16434 C3293.57168,512.692031 3284.76877,507.46265 3271.91653,507.46265 C3259.03719,507.46265 3250.42389,512.055293 3246.00889,521.240579 C3241.59389,530.439412 3239.38639,551.004698 3239.38639,582.977079 L3239.38639,928.075579 C3239.38639,954.154745 3242.69087,973.744602 3249.31337,986.777412 C3255.92232,999.823769 3265.65969,1006.34017 3278.52548,1006.34017 C3293.57168,1006.34017 3303.76951,999.539269 3309.10543,985.93746 C3314.4278,972.362745 3317.09576,946.622269 3317.09576,908.783769 L3317.09576,821.672579 L3515.47269,821.672579 C3515.10703,880.10346 3512.99434,923.930007 3509.1346,953.152221 C3505.2884,982.360888 3492.97788,1012.31467 3472.2301,1043.00003 C3451.45523,1073.69894 3424.35582,1096.85182 3390.94539,1112.45867 C3357.50788,1128.07908 3316.17484,1135.88251 3266.94627,1135.88251 C3204.13413,1135.88251 3154.33675,1125.13925 3117.60831,1103.63917 C3080.86632,1082.15265 3054.87743,1052.0092 3039.62808,1013.23591 C3024.37874,974.462626 3016.76761,919.445745 3016.76761,848.131079 L3016.76761,640.310602 C3016.76761,578.208317 3023.0109,531.347102 3035.51103,499.740507 C3047.98408,468.133912 3074.62303,439.927769 3115.40081,415.122079 C3156.19214,390.316388 3205.78637,377.920317 3264.18351,377.920317 C3322.22854,377.920317 3371.83631,390.235102 3412.97975,414.851126 C3454.12319,439.480698 3481.49347,470.53184 3495.09057,508.004555 C3508.67414,545.490817 3515.47269,598.611031 3515.47269,667.324555" id="Fill-13" fill="#8B8685"></path>
            <polygon id="Fill-14" fill="#8B8685" points="3567.41256 1122.65868 3735.4804 1122.65868 3735.4804 940.741248 3567.41256 940.741248"></polygon>
            <path d="M4293.28009,667.324555 L4083.32395,667.324555 L4083.32395,582.977079 C4083.32395,553.578745 4080.92685,533.63665 4076.17328,523.16434 C4071.37908,512.692031 4062.57617,507.46265 4049.72392,507.46265 C4036.84459,507.46265 4028.23128,512.055293 4023.81629,521.240579 C4019.40129,530.439412 4017.19379,551.004698 4017.19379,582.977079 L4017.19379,928.075579 C4017.19379,954.154745 4020.49827,973.744602 4027.12076,986.777412 C4033.72972,999.823769 4043.46709,1006.34017 4056.33288,1006.34017 C4071.37908,1006.34017 4081.57691,999.539269 4086.91283,985.93746 C4092.2352,972.362745 4094.90316,946.622269 4094.90316,908.783769 L4094.90316,821.672579 L4293.28009,821.672579 C4292.91443,880.10346 4290.80173,923.930007 4286.942,953.152221 C4283.0958,982.360888 4270.78527,1012.31467 4250.03749,1043.00003 C4229.26263,1073.69894 4202.16321,1096.85182 4168.75279,1112.45867 C4135.31528,1128.07908 4093.98224,1135.88251 4044.75367,1135.88251 C3981.94153,1135.88251 3932.14415,1125.13925 3895.41571,1103.63917 C3858.67372,1082.15265 3832.68483,1052.0092 3817.43548,1013.23591 C3802.18613,974.462626 3794.575,919.445745 3794.575,848.131079 L3794.575,640.310602 C3794.575,578.208317 3800.8183,531.347102 3813.31843,499.740507 C3825.79147,468.133912 3852.43043,439.927769 3893.20821,415.122079 C3933.99953,390.316388 3983.59377,377.920317 4041.99091,377.920317 C4100.03593,377.920317 4149.64371,390.235102 4190.78715,414.851126 C4231.93059,439.480698 4259.30086,470.53184 4272.89797,508.004555 C4286.48154,545.490817 4293.28009,598.611031 4293.28009,667.324555" id="Fill-15" fill="#8B8685"></path>
            <path d="M4587.67915,230.175402 L4587.67915,430.964664 C4606.77469,413.285021 4627.45475,400.021902 4649.67871,391.175307 C4671.90267,382.34226 4695.69761,377.912188 4721.04998,377.912188 C4759.98593,377.912188 4793.13903,387.842593 4820.50931,407.689855 C4847.87958,427.523569 4864.59157,450.405498 4870.6588,476.308545 C4876.72604,502.22514 4879.74611,549.546974 4879.74611,618.260498 L4879.74611,1122.6519 L4657.11378,1122.6519 L4657.11378,607.788188 C4657.11378,565.167379 4655.00108,537.774093 4650.77569,525.648974 C4646.56383,513.523855 4637.08378,507.454521 4622.38969,507.454521 C4608.80613,507.454521 4599.62402,513.713521 4594.84336,526.204426 C4590.07625,538.695331 4587.67915,563.501021 4587.67915,600.621498 L4587.67915,1122.6519 L4365.06036,1122.6519 L4365.06036,230.175402 L4587.67915,230.175402 Z" id="Fill-16" fill="#8B8685"></path>
            <path d="M2941.60837,201.236333 L2857.47965,201.236333 L2857.47965,287.00631 L2784.04985,287.00631 L2784.04985,201.236333 L2698.8377,201.236333 L2698.8377,127.79469 L2784.04985,127.79469 L2784.04985,44.1923333 L2857.47965,44.1923333 L2857.47965,127.79469 L2941.60837,127.79469 L2941.60837,201.236333 Z M2656.46185,331.185095 L2987.53247,331.185095 L2987.53247,0 L2656.46185,0 L2656.46185,331.185095 Z" id="Fill-17" fill="#E30E13"></path>
        </g>
    </g>
</svg>