<?xml version="1.0" encoding="UTF-8" standalone="no"?>
<svg width="1419px" height="390px" viewBox="0 0 1419 390" version="1.1" xmlns="http://www.w3.org/2000/svg" xmlns:xlink="http://www.w3.org/1999/xlink">
    <!-- Generator: Sketch 3.8.3 (29802) - http://www.bohemiancoding.com/sketch -->
    <title>lagardere</title>
    <desc>Created with Sketch.</desc>
    <defs></defs>
    <g id="Page-1" stroke="none" stroke-width="1" fill="none" fill-rule="evenodd">
        <g id="lagardere" transform="translate(0.000000, -1.000000)">
            <g id="Group-3" transform="translate(1000.433628, 0.665314)" fill="#DE006E">
                <path d="M0.498958407,0.6204 C0.498958407,0.6204 34.3438168,58.5244 81.6410469,73.3524 L47.1606929,0.6204 L0.498958407,0.6204 Z" id="Fill-1"></path>
            </g>
            <path d="M246.367792,278.102286 L214.454588,278.102286 C189.594757,277.058857 176.664624,268.573143 182.132403,242.870857 C190.16104,205.112571 219.601473,195.489143 265.092889,190.083429 L246.367792,278.102286 Z M237.14996,92.9565714 C216.663093,94.8108571 199.303367,99.8771429 186.801093,104.616571 L182.006562,127.100571 L258.907819,127.100571 C258.907819,127.100571 278.627058,127.119429 274.619031,146.272 L269.849668,167.731429 C205.287093,173.885143 149.086633,189.7 137.440075,244.404571 C129.140881,283.451429 151.0875,306.432 204.657889,307.576 L284.050792,307.588571 L309.470615,188.122286 C331.34173,89.908 248.148438,92.24 237.14996,92.9565714 L237.14996,92.9565714 Z" id="Fill-4" fill="#002C59"></path>
            <path d="M800.207849,93.3004 C800.207849,93.3004 703.76353,79.9495429 677.110468,207.794686 L655.805636,307.586686 L699.831008,307.586686 L733.185088,145.258114 C736.771548,129.625543 748.61945,127.362686 752.155574,127.098686 L792.990884,127.098686 L800.207849,93.3004 Z" id="Fill-6" fill="#002C59"></path>
            <path d="M1270.1197,93.3004 C1270.1197,93.3004 1173.67538,79.9495429 1147.02232,207.794686 L1125.73008,307.586686 L1169.74915,307.586686 L1203.09694,145.258114 C1206.68969,129.625543 1218.53131,127.362686 1222.06743,127.098686 L1262.90903,127.098686 L1270.1197,93.3004 Z" id="Fill-8" fill="#002C59"></path>
            <path d="M1018.38921,155.028 C1030.35037,132.682286 1047.7038,119.985143 1066.59878,119.985143 C1086.26769,119.985143 1097.45493,132.298857 1097.45493,156.574286 C1097.45493,163.513714 1096.49854,172.439429 1094.56688,180.912571 L1005.27661,193.176 C1008.35971,178.153143 1012.99064,165.437143 1018.38921,155.028 L1018.38921,155.028 Z M1100.99734,263.381143 C1089.14315,268.975429 1069.36728,275.242286 1048.09391,275.242286 C1010.29136,275.242286 1001.03578,248.653714 1004.11887,217.061714 L1134.86737,198.952571 C1137.95047,185.476 1139.49831,173.143429 1139.49831,161.967429 C1139.49831,116.892571 1114.03444,92.8308571 1071.61354,92.8308571 C1036.90667,92.8308571 1007.58578,109.186286 987.53936,138.075429 C970.185927,163.124 959.00498,199.732 959.00498,230.557143 C959.00498,281.025143 989.854829,307.582286 1038.45451,307.582286 C1059.558,307.582286 1078.56624,303.892571 1093.47836,298.750857 L1100.99734,263.381143 Z" id="Fill-10" fill="#002C59"></path>
            <path d="M1297.06975,155.028 C1309.01832,132.682286 1326.37805,119.985143 1345.27303,119.985143 C1364.94194,119.985143 1376.12288,132.298857 1376.12288,156.574286 C1376.12288,163.513714 1375.35525,171.603429 1373.42989,180.070286 L1283.95086,193.176 C1287.04025,178.153143 1291.66489,165.437143 1297.06975,155.028 L1297.06975,155.028 Z M1379.67159,263.381143 C1367.8174,268.975429 1348.04153,275.242286 1326.76816,275.242286 C1288.95932,275.242286 1279.71002,248.653714 1282.79941,217.061714 L1413.54162,198.952571 C1416.62471,185.476 1418.16626,173.143429 1418.16626,161.967429 C1418.16626,116.892571 1392.71498,92.8308571 1350.28149,92.8308571 C1315.57463,92.8308571 1286.26632,109.186286 1266.21361,138.075429 C1248.86017,163.124 1237.67923,199.732 1237.67923,230.557143 C1237.67923,281.025143 1268.52908,307.582286 1317.12876,307.582286 C1338.22595,307.582286 1357.24678,303.892571 1372.14632,298.750857 L1379.67159,263.381143 Z" id="Fill-12" fill="#002C59"></path>
            <g id="Group-16" transform="translate(772.628319, 0.665314)" fill="#002C59">
                <path d="M110.445007,277.436971 L83.7164407,277.436971 C57.7743788,276.569543 46.7318566,258.454114 46.7318566,231.029543 C46.7318566,206.3644 54.8485823,173.615829 67.5584938,152.8164 C79.9097593,132.387829 97.6532991,119.319829 122.35583,119.319829 L143.99414,119.319829 L110.445007,277.436971 Z M169.237786,0.6204 L149.795396,92.1655429 L115.950538,92.1655429 L115.937954,92.1844 C81.5393965,92.4044 51.9857062,107.930114 31.3037858,135.467829 C12.4088035,160.522686 0.0701221239,198.6644 0.0701221239,230.633543 C0.0701221239,279.190686 30.9199717,306.910686 80.2998655,306.910686 L151.123016,306.910686 L215.89952,0.6204 L169.237786,0.6204 Z" id="Fill-14"></path>
            </g>
            <g id="Group-19" transform="translate(0.000000, 38.379600)" fill="#002C59">
                <path d="M50.4910673,236.457257 C46.539669,236.237257 35.2454655,234.408114 37.9825009,218.693829 L84.4428903,0.284114286 L35.0692885,0.284114286 L2.65901416,152.863543 C2.21857168,154.654971 -20.1810743,269.199543 73.2241912,269.199543 L120.659846,269.199543 L127.644005,236.457257 L50.4910673,236.457257 Z" id="Fill-17"></path>
            </g>
            <path d="M426.870558,273.609257 C419.540336,277.468686 409.517124,280.177829 398.719991,280.177829 C372.507372,280.177829 360.936319,265.029257 360.936319,238.0824 C360.936319,213.806971 369.417982,178.192114 380.995327,157.002971 C394.095345,133.123543 411.448779,120.0304 434.578301,120.0304 C446.520584,120.0304 453.460699,121.9664 457.701531,124.260686 L426.870558,273.609257 Z M440.744496,92.8321143 C399.122681,92.8321143 367.492619,109.269257 346.28846,138.133257 C327.789876,163.169257 315.067381,203.416686 315.067381,234.996114 C315.067381,279.674971 341.28,307.577257 382.536876,307.577257 C399.122681,307.577257 412.222699,304.635543 421.094469,300.3864 L418.772708,311.065829 C412.984035,336.8624 394.869265,356.894971 361.332717,356.894971 C342.39369,356.894971 324.58723,352.224686 314.004027,346.7184 L306.692681,381.094971 C321.529301,386.726971 341.688982,390.328686 362.792469,390.378971 C386.198841,389.844686 449.295372,380.434971 467.328345,297.589257 L506.678735,106.956114 C493.956239,99.2309714 470.040212,92.8321143 440.744496,92.8321143 L440.744496,92.8321143 Z" id="Fill-20" fill="#002C59"></path>
            <path d="M599.81533,278.102286 L571.633304,278.102286 L567.902127,278.102286 C543.042295,277.058857 530.112162,268.573143 535.579941,242.870857 C543.602286,205.112571 573.049012,195.489143 618.546719,190.083429 L599.81533,278.102286 Z M590.591206,92.9565714 C570.110631,94.8108571 552.750905,99.8771429 540.248631,104.616571 L535.466684,127.100571 L612.361649,127.100571 C612.361649,127.100571 632.074596,127.119429 628.066569,146.272 L623.297206,167.731429 C558.734631,173.885143 502.534171,189.7 490.893905,244.404571 C482.588419,283.451429 504.528746,306.432 558.105427,307.576 L637.504622,307.588571 L662.924445,188.122286 C684.789268,89.908 601.589684,92.24 590.591206,92.9565714 L590.591206,92.9565714 Z" id="Fill-22" fill="#002C59"></path>
        </g>
    </g>
</svg>