<?xml version="1.0" encoding="UTF-8" standalone="no"?>
<svg width="8236px" height="3420px" viewBox="0 0 8236 3420" version="1.1" xmlns="http://www.w3.org/2000/svg" xmlns:xlink="http://www.w3.org/1999/xlink">
    <!-- Generator: Sketch 3.8.3 (29802) - http://www.bohemiancoding.com/sketch -->
    <title>liligo</title>
    <desc>Created with Sketch.</desc>
    <defs></defs>
    <g id="Page-1" stroke="none" stroke-width="1" fill="none" fill-rule="evenodd">
        <g id="liligo" fill="#B2CB0E">
            <g id="Group-3" transform="translate(4036.976351, 775.063295)">
                <path d="M1242.50337,1242.84268 C1244.5135,1236.73439 1245.5659,1235.01939 1245.57147,1233.30995 C1245.75522,1084.83995 1246.95796,936.364386 1245.61601,787.905523 C1244.60259,675.695523 1155.68889,623.538364 1076.07971,625.993932 C936.088508,630.309273 795.869007,627.168818 655.744166,627.263477 C646.033149,627.269045 636.322133,628.232341 627.028735,628.727909 C626.015315,634.652455 625.152237,637.33075 625.152237,640.009045 C625.068714,791.268705 623.8437,942.5395 625.503036,1093.77689 C626.432933,1178.8587 694.755278,1242.59211 780.444973,1242.77586 C903.865084,1243.03757 1027.2852,1242.84268 1150.70531,1242.84268 L1242.50337,1242.84268 M623.665516,2644.46541 L623.665516,2617.42075 C623.671084,2470.8328 623.604266,2324.24484 623.693357,2177.65689 C623.74904,2089.59052 692.138203,2021.51393 780.745658,2021.32461 C885.578974,2021.10189 990.434562,2022.10973 1095.25117,2020.67314 C1176.67559,2019.56507 1243.28849,1951.39382 1242.147,1868.91234 C1232.58632,1868.91234 1222.90315,1868.90677 1213.22554,1868.90677 L637.073846,1868.90677 C328.342599,1868.90677 80.4945243,1670.44007 14.8672095,1368.90632 C6.45916216,1330.27984 2.22172905,1289.9662 2.13263716,1250.42098 C1.23058176,844.990523 1.84865676,439.5545 0.980010811,34.1184773 C0.918760135,7.11836364 8.4080473,0.486659091 34.9462946,0.542340909 C442.241015,1.38870455 849.541303,1.01563636 1256.83602,1.17154545 C1550.59426,1.28290909 1817.79755,232.646432 1859.72086,523.957 C1865.6399,565.072455 1868.91959,606.939614 1868.97528,648.461545 C1869.61562,1102.1403 1869.43744,1555.81905 1869.33721,2009.50336 C1869.29823,2178.932 1814.69047,2328.23723 1697.35645,2451.06018 C1578.85867,2575.097 1432.85376,2642.85064 1259.83731,2644.10348 C1049.26305,2645.62359 838.660956,2644.46541 623.665516,2644.46541" id="Fill-1"></path>
            </g>
            <path d="M6681.9331,1402.25995 L6681.9331,1495.73302 C6681.93867,1615.38211 6682.11685,1735.03677 6681.89969,1854.68586 C6681.7048,1961.07155 6765.40663,2021.20234 6846.174,2018.99177 C6987.05612,2015.14416 7128.11643,2017.91155 7269.10435,2017.90598 L7299.40116,2017.90598 C7300.40344,2011.2687 7301.39459,2007.76075 7301.39459,2004.2528 C7301.43914,1853.06552 7302.8312,1701.86155 7300.81549,1550.70211 C7299.66287,1464.21711 7232.83281,1402.47155 7146.11299,1402.32677 C7005.12507,1402.08734 6864.14272,1402.25995 6723.1548,1402.25995 L6681.9331,1402.25995 Z M8235.47296,776.195864 L8235.47296,870.944045 C8235.47853,992.491886 8235.47296,1114.03973 8235.47853,1235.59314 C8235.4841,1335.32484 8171.81681,1400.22757 8071.08728,1402.10961 C8023.86858,1402.98939 7976.61647,1402.25995 7924.94874,1402.25995 L7924.94874,1436.12564 C7924.95988,1630.97859 7925.11022,1825.83155 7924.9376,2020.6845 C7924.67033,2333.01495 7696.16076,2595.61598 7386.89496,2638.60791 C7361.28105,2642.17155 7335.19383,2643.69166 7309.3182,2643.74177 C7103.33218,2644.14825 6897.34059,2644.00348 6691.35456,2643.95893 C6388.61475,2643.89768 6140.66644,2447.3353 6073.32968,2152.21609 C6064.33697,2112.81564 6059.62623,2071.60552 6059.36452,2031.19166 C6058.01144,1821.50507 6058.67406,1611.80177 6058.76315,1402.10405 C6058.89122,1088.29245 6287.40079,825.134614 6597.85262,781.613705 C6620.7381,778.400864 6644.01893,776.446432 6667.116,776.435295 C7181.15394,776.140182 7695.19746,776.201432 8209.24097,776.195864 L8235.47296,776.195864 Z" id="Fill-4"></path>
            <g id="Group-8" transform="translate(0.000000, 154.426932)">
                <path d="M0.0300685135,0.833693182 L362.639637,0.833693182 C394.189303,0.833693182 425.738969,0.722329545 457.283067,0.861534091 C557.171783,1.30698864 622.899326,66.7386932 623.161033,166.24767 C623.372627,246.969602 623.200011,327.697102 623.205579,408.419034 C623.205579,838.950852 624.486275,1269.48824 622.136477,1700.00335 C621.668744,1786.44938 690.920985,1868.42972 785.737031,1864.32597 C877.423725,1860.36142 969.422239,1863.9529 1061.27598,1863.10653 C1081.5945,1862.92278 1090.54823,1866.23028 1090.42017,1890.06767 C1089.3789,2081.20108 1089.52368,2272.34563 1090.29766,2463.4846 C1090.38676,2484.52119 1084.14476,2490.09494 1063.50885,2489.98358 C910.415566,2489.18176 757.305581,2490.56824 604.212302,2489.32653 C322.771015,2487.04358 62.6561003,2267.9746 11.78463,1990.35619 C4.48466311,1950.51028 0.564619865,1909.46165 0.514505676,1868.95869 C-0.18152473,1258.42426 0.0300685135,647.88983 0.0300685135,37.3498295 L0.0300685135,0.833693182" id="Fill-6"></path>
            </g>
            <path d="M2019.9877,155.26508 L2047.84562,155.26508 C2189.81912,155.26508 2331.79819,155.098034 2473.77169,155.32633 C2579.15069,155.498943 2643.39708,220.073148 2643.40265,325.189284 C2643.40265,835.552125 2643.36367,1345.92053 2643.43049,1856.28337 C2643.43606,1934.54974 2684.6689,1992.48667 2755.59718,2012.74372 C2769.5679,2016.73053 2784.79148,2017.62144 2799.4471,2017.68826 C2891.31197,2018.11701 2983.18242,2017.90542 3075.0473,2017.90542 L3106.7139,2017.90542 L3106.7139,2643.96951 L3076.64538,2643.96951 C2928.17374,2643.96951 2779.70211,2644.05303 2631.23047,2643.95281 C2335.27277,2643.75235 2067.27323,2409.86087 2026.92573,2115.9611 C2022.65489,2084.86281 2020.3218,2053.23553 2020.30509,2021.85326 C2019.91532,1412.20417 2019.99884,802.549511 2019.9877,192.894852 L2019.9877,155.26508" id="Fill-9"></path>
            <path d="M1865.41049,2643.97007 L1784.48721,2643.97007 C1658.33866,2643.97564 1532.19567,2644.04802 1406.04712,2643.9645 C1309.12628,2643.89768 1242.25725,2576.712 1242.25168,2479.5528 C1242.23498,2183.67075 1242.24611,1887.78314 1242.23498,1591.89552 C1242.22941,1469.12268 1208.0738,1425.96927 1087.87214,1398.46245 L1087.87214,776.63575 C1151.46147,776.63575 1214.39933,773.606659 1276.95854,777.237114 C1430.70887,786.157341 1564.40239,844.37825 1675.24384,951.582455 C1778.50135,1051.4478 1840.99374,1173.06802 1859.51372,1315.96427 C1864.02399,1350.73757 1865.13764,1386.14564 1865.17105,1421.26973 C1865.54969,1816.39905 1865.41049,2211.53393 1865.41049,2606.66882 L1865.41049,2643.97007" id="Fill-11"></path>
            <path d="M3108.72849,778.74442 C3289.79662,766.80067 3464.7731,776.377943 3617.57126,887.179193 C3790.11998,1012.29624 3884.05068,1181.39635 3885.43717,1395.06976 C3888.06538,1799.46453 3886.18888,2203.88715 3886.18888,2608.29863 L3886.18888,2642.23113 C3875.26956,2642.85476 3865.56411,2643.89044 3855.85309,2643.89601 C3712.08105,2644.00181 3568.30901,2644.11874 3424.53697,2643.91272 C3329.31444,2643.77351 3263.03008,2576.50988 3263.02451,2480.57567 C3263.01337,2180.97408 3263.03008,1881.37806 3263.01894,1581.78203 C3263.01337,1471.63783 3218.0331,1418.06078 3108.72849,1399.60783 L3108.72849,778.74442 Z" id="Fill-13"></path>
            <path d="M3420.38529,0.644465909 C3473.25019,0.644465909 3526.11509,0.499693182 3578.97999,0.677875 C3659.40213,0.950715909 3729.11097,67.8746932 3729.99075,148.27367 C3731.17678,256.769693 3730.97633,365.299125 3730.06314,473.800716 C3729.39495,553.520375 3661.71295,621.958898 3580.07694,623.339807 C3473.45065,625.143898 3366.75197,625.038102 3260.12011,623.401057 C3172.86574,622.064693 3107.37763,552.82992 3107.17161,465.114352 C3106.92103,362.169807 3106.87649,259.225261 3107.18274,156.280716 C3107.45002,67.8858295 3175.6777,0.705715909 3264.57471,0.650034091 C3316.50971,0.616625 3368.45028,0.644465909 3420.38529,0.644465909" id="Fill-15"></path>
            <g id="Group-19" transform="translate(1085.807432, 0.517841)">
                <path d="M312.222535,0.123840909 C366.011765,0.123840909 419.800995,-0.0710454545 473.590224,0.168386364 C555.265216,0.52475 623.437218,69.00225 623.632107,151.166341 C623.888246,256.889409 623.826995,362.612477 623.659948,468.335545 C623.52631,552.14225 557.815472,621.399295 473.228289,622.835886 C366.607567,624.645545 259.914458,624.534182 153.288168,622.886 C68.2555257,621.566341 1.14148986,551.696795 0.662620946,466.631682 C0.0779554054,362.768386 0.0278412162,258.893955 0.651484459,155.030659 C1.17489932,67.9888409 69.9259986,0.229636364 156.417521,0.134977273 C208.352526,0.0792954545 260.28753,0.123840909 312.222535,0.123840909" id="Fill-17"></path>
            </g>
            <path d="M7469.55219,3390.24619 L7469.55219,2932.31335 L7626.23699,2932.31335 L7626.23699,2988.8304 C7667.2471,2942.25256 7711.41998,2916.91733 7769.44664,2917.84165 C7826.83852,2918.75483 7875.56622,2933.53278 7907.8676,2987.91165 C7938.55419,2955.36562 7971.24534,2926.27744 8015.21776,2922.94767 C8053.32125,2920.06335 8093.55737,2919.54551 8130.17971,2928.67733 C8198.25148,2945.64915 8221.20935,3001.55926 8229.22205,3065.13119 C8231.07071,3079.80335 8231.09855,3094.75949 8231.12639,3109.58756 C8231.2823,3202.33676 8231.20435,3295.08597 8231.20435,3389.75619 L8069.99257,3389.75619 C8069.99257,3349.58176 8070.07052,3309.93074 8069.9703,3270.27972 C8069.83666,3217.38756 8070.85565,3164.45642 8068.96801,3111.62551 C8067.26413,3063.93403 8039.85167,3041.42744 7992.71092,3045.08017 C7957.63656,3047.80301 7936.56076,3070.49335 7934.67312,3113.90847 C7931.85559,3178.69983 7931.62172,3243.60812 7930.5916,3308.47744 C7930.16841,3335.18801 7930.51921,3361.91528 7930.51921,3391.67722 L7851.19959,3391.67722 L7769.2963,3391.67722 L7769.2963,3360.8796 C7769.30186,3286.63903 7769.36868,3212.39847 7769.24618,3138.15233 C7769.22391,3126.10835 7769.14595,3113.97528 7767.75389,3102.0371 C7763.80601,3068.21597 7746.70593,3048.0146 7720.64656,3045.1971 C7679.61974,3040.75369 7651.48341,3055.25324 7641.42716,3089.95415 C7635.58607,3110.09983 7633.214,3131.83244 7632.90775,3152.90244 C7631.89433,3222.48801 7632.53467,3292.10142 7632.54024,3361.70369 C7632.54581,3370.77983 7632.54024,3379.85597 7632.54024,3390.24619 L7469.55219,3390.24619 Z" id="Fill-20"></path>
            <path d="M7032.11936,3159.6238 C7039.17989,3187.83777 7042.64891,3213.85789 7052.28753,3237.33891 C7066.18587,3271.21573 7093.93799,3287.67527 7131.41784,3287.56391 C7168.75291,3287.45811 7195.65866,3270.90391 7211.1161,3237.59505 C7235.14864,3185.77755 7233.97931,3133.3197 7209.30643,3082.10357 C7194.31115,3050.983 7167.81745,3035.83198 7133.27763,3034.94107 C7098.51509,3034.04459 7070.37876,3047.97618 7056.20201,3079.34175 C7044.67018,3104.87186 7039.72001,3133.37539 7032.11936,3159.6238 M6875.49581,3162.83107 C6875.10603,3023.41493 6979.64423,2922.15198 7119.50737,2917.4747 C7273.0127,2912.33527 7388.65954,3017.65186 7389.02704,3160.70959 C7389.38898,3301.7405 7281.50984,3405.43118 7132.8099,3406.78425 C6985.00645,3408.12618 6875.89673,3304.6805 6875.49581,3162.83107" id="Fill-22"></path>
            <path d="M6666.93058,3209.58876 L6821.1041,3209.58876 C6814.5113,3268.96785 6789.77716,3316.6816 6744.12314,3353.15319 C6646.15546,3431.40842 6474.05777,3422.26547 6385.92362,3333.19126 C6315.90296,3262.41967 6306.33671,3176.32444 6332.35155,3085.53524 C6357.45876,2997.92547 6418.45329,2942.73365 6507.31689,2925.28297 C6603.93704,2906.31217 6696.30863,2916.49081 6770.03774,2991.85615 C6798.76987,3021.22274 6812.57912,3057.8391 6816.04256,3100.35774 L6663.85134,3100.35774 C6642.71986,3048.39547 6615.16262,3030.0149 6566.20106,3035.47728 C6522.52376,3040.34387 6492.34945,3069.20376 6486.81461,3121.55024 C6483.20639,3155.64422 6484.49823,3192.01558 6492.58888,3225.16853 C6503.41912,3269.52467 6535.13026,3288.31728 6579.32541,3287.43751 C6623.55953,3286.55217 6646.56751,3268.36649 6661.2287,3222.91899 C6662.63746,3218.53683 6664.84249,3214.41637 6666.93058,3209.58876" id="Fill-24"></path>
            <polygon id="Fill-26" points="6056.01578 3390.18773 6229.8285 3390.18773 6229.8285 3227.31284 6056.01578 3227.31284"></polygon>
        </g>
    </g>
</svg>