<?xml version="1.0" encoding="UTF-8" standalone="no"?>
<svg width="1607px" height="534px" viewBox="0 0 1607 534" version="1.1" xmlns="http://www.w3.org/2000/svg" xmlns:xlink="http://www.w3.org/1999/xlink">
    <!-- Generator: Sketch 3.8.3 (29802) - http://www.bohemiancoding.com/sketch -->
    <title>maus</title>
    <desc>Created with Sketch.</desc>
    <defs></defs>
    <g id="Page-1" stroke="none" stroke-width="1" fill="none" fill-rule="evenodd">
        <g id="maus" fill="#000000">
            <path d="M274.7479,189.575265 C274.7479,138.466294 275.172567,84.8108529 276.8549,51.8536471 L276.446567,51.8536471 C261.648567,106.782324 233.326567,194.227471 198.242567,303.627765 L134.836567,303.627765 C107.788567,207.727029 76.0855667,108.463647 60.4382333,52.2780588 L60.0299,52.2780588 C62.1369,86.5085 65.0932333,144.375412 65.0932333,195.059971 L65.0932333,303.627765 L0.0049,303.627765 L0.0049,6.24570588 L104.407567,6.24570588 C133.987233,98.3267353 161.4599,179.013941 170.345233,219.986 L170.7699,219.986 C183.444567,172.680412 210.492567,94.5233529 239.239233,6.24570588 L344.491233,6.24570588 L344.491233,303.627765 L274.7479,303.627765 L274.7479,189.575265 L274.7479,189.575265 Z" id="Fill-1"></path>
            <path d="M680.920333,178.170015 C653.023,110.149868 639.499,75.10325 632.312333,52.7073676 L631.887667,52.7073676 C625.550333,74.6788382 609.478333,119.878691 587.085333,178.170015 L680.920333,178.170015 Z M568.481667,236.036926 L542.707667,303.632662 L468.309333,303.632662 L587.934667,6.23427941 L680.920333,6.23427941 L806.866667,303.632662 L728.679,303.632662 L700.781667,236.036926 L568.481667,236.036926 Z" id="Fill-3"></path>
            <path d="M989.889833,6.23754412 L989.889833,174.369897 C989.889833,237.737838 1023.2915,253.783868 1059.63317,253.783868 C1098.5065,253.783868 1124.73783,236.889015 1124.73783,174.369897 L1124.73783,6.23754412 L1197.01283,6.23754412 L1197.01283,176.475632 C1197.01283,266.875338 1146.2815,309.969456 1057.9345,309.969456 C972.1355,309.969456 917.5985,270.678721 917.5985,178.173279 L917.5985,6.23754412 L989.889833,6.23754412 Z" id="Fill-5"></path>
            <g id="Group-9" transform="translate(1321.666667, 0.111426)">
                <path d="M72.7279667,214.380074 C81.1886333,240.154926 101.474633,257.049779 150.915633,257.049779 C197.432967,257.049779 210.5323,242.685074 210.5323,223.684485 C210.5323,202.98625 196.991967,191.576103 134.4353,181.014779 C30.8656333,163.271103 12.2783,129.905809 12.2783,89.76625 C12.2783,30.2016912 69.3469667,0.215367647 139.939633,0.215367647 C241.810633,0.215367647 269.707967,52.5975735 273.088967,87.2361029 L200.813967,87.2361029 C196.5673,72.4469853 186.4243,52.5975735 137.391633,52.5975735 C103.156967,52.5975735 85.8436333,63.5833088 85.8436333,83.0083088 C85.8436333,99.9031618 98.0936333,108.783162 153.8883,118.495662 C266.751633,138.769485 284.489633,172.983603 284.489633,216.077721 C284.489633,267.627426 243.9013,309.431985 144.153633,309.431985 C51.1679667,309.431985 9.32196667,268.035515 0.0283,214.380074 L72.7279667,214.380074 Z" id="Fill-7"></path>
            </g>
            <polygon id="Fill-10" points="280.3143 450.273456 347.819967 450.273456 347.819967 466.090956 300.2083 466.090956 300.2083 484.699779 344.5533 484.699779 344.5533 500.647868 300.2083 500.647868 300.2083 532.168603 280.3143 532.168603"></polygon>
            <path d="M404.800433,485.630221 L425.282433,485.630221 C434.935433,485.630221 439.1331,482.136985 439.1331,475.281103 C439.1331,468.768015 434.8211,465.160515 425.396767,465.160515 L404.800433,465.160515 L404.800433,485.630221 Z M404.800433,500.647868 L404.800433,532.168603 L385.118767,532.168603 L385.118767,450.273456 L429.708767,450.273456 C448.671767,450.273456 459.500767,459.577868 459.500767,473.665074 C459.500767,484.242721 453.326767,490.396691 445.192767,492.959485 C448.557433,494.363309 457.279433,497.611691 457.279433,512.270221 L457.279433,516.351103 C457.279433,522.031691 457.279433,528.31625 458.3411,532.168603 L437.973433,532.168603 C436.568767,528.561103 436.454433,523.664044 436.454433,515.061544 L436.454433,512.270221 C436.454433,504.010515 433.432767,500.647868 421.4441,500.647868 L404.800433,500.647868 Z" id="Fill-12"></path>
            <path d="M526.2551,426.426412 L544.989433,442.586706 L527.5291,442.586706 L502.0491,426.426412 L526.2551,426.426412 Z M565.242767,497.613324 L519.4931,497.613324 L519.4931,516.222147 L570.371433,516.222147 L568.035767,532.170235 L499.5991,532.170235 L499.5991,450.275088 L567.692767,450.275088 L567.692767,466.223176 L519.4931,466.223176 L519.4931,481.681559 L565.242767,481.681559 L565.242767,497.613324 Z" id="Fill-14"></path>
            <path d="M628.044433,485.630221 L648.526433,485.630221 C658.179433,485.630221 662.3771,482.136985 662.3771,475.281103 C662.3771,468.768015 658.0651,465.160515 648.640767,465.160515 L628.044433,465.160515 L628.044433,485.630221 Z M628.044433,500.647868 L628.044433,532.168603 L608.362767,532.168603 L608.362767,450.273456 L652.952767,450.273456 C671.915767,450.273456 682.744767,459.577868 682.744767,473.665074 C682.744767,484.242721 676.570767,490.396691 668.436767,492.959485 C671.801433,494.363309 680.523433,497.611691 680.523433,512.270221 L680.523433,516.351103 C680.523433,522.031691 680.523433,528.31625 681.5851,532.168603 L661.217433,532.168603 C659.812767,528.561103 659.698433,523.664044 659.698433,515.061544 L659.698433,512.270221 C659.698433,504.010515 656.676767,500.647868 644.6881,500.647868 L628.044433,500.647868 Z" id="Fill-16"></path>
            <polygon id="Fill-18" points="788.481867 497.618221 742.748533 497.618221 742.748533 516.227044 793.610533 516.227044 791.274867 532.158809 722.8382 532.158809 722.8382 450.279985 790.931867 450.279985 790.931867 466.21175 742.748533 466.21175 742.748533 481.670132 788.481867 481.670132"></polygon>
            <g id="Group-22" transform="translate(824.666667, 447.846721)">
                <path d="M20.4559333,59.7663971 C22.7916,66.8671324 28.3612667,71.5193382 41.9832667,71.5193382 C54.7886,71.5193382 58.3819333,67.5690441 58.3819333,62.3291912 C58.3819333,56.6322794 54.6742667,53.4818382 37.4426,50.5925735 C8.9246,45.6955147 3.79593333,36.5053676 3.79593333,25.4543382 C3.79593333,9.06551471 19.5086,0.805808824 38.9616,0.805808824 C67.0059333,0.805808824 74.6826,15.2194853 75.6136,24.7524265 L55.7196,24.7524265 C54.5599333,20.6878676 51.7506,15.2194853 38.2592667,15.2194853 C28.8349333,15.2194853 24.0656,18.2393382 24.0656,23.5934559 C24.0656,28.2456618 27.4302667,30.6941912 42.7999333,33.37125 C73.8822667,38.9538971 78.7496,48.3725735 78.7496,60.2397794 C78.7496,74.4249265 67.5939333,85.9493382 40.1212667,85.9493382 C14.5106,85.9493382 2.9956,74.5391912 0.431266667,59.7663971 L20.4559333,59.7663971 Z" id="Fill-20"></path>
            </g>
            <g id="Group-25" transform="translate(991.000000, 447.846721)">
                <path d="M20.1362333,59.7663971 C22.4719,66.8671324 28.0415667,71.5193382 41.6635667,71.5193382 C54.4689,71.5193382 58.0622333,67.5690441 58.0622333,62.3291912 C58.0622333,56.6322794 54.3545667,53.4818382 37.1229,50.5925735 C8.6049,45.6955147 3.47623333,36.5053676 3.47623333,25.4543382 C3.47623333,9.06551471 19.1889,0.805808824 38.6419,0.805808824 C66.6862333,0.805808824 74.3629,15.2194853 75.2939,24.7524265 L55.3999,24.7524265 C54.2402333,20.6878676 51.4309,15.2194853 37.9395667,15.2194853 C28.5152333,15.2194853 23.7459,18.2393382 23.7459,23.5934559 C23.7459,28.2456618 27.1105667,30.6941912 42.4802333,33.37125 C73.5625667,38.9538971 78.4299,48.3725735 78.4299,60.2397794 C78.4299,74.4249265 67.2742333,85.9493382 39.8015667,85.9493382 C14.1909,85.9493382 2.6759,74.5391912 0.111566667,59.7663971 L20.1362333,59.7663971 Z" id="Fill-23"></path>
            </g>
            <polygon id="Fill-26" points="1107.67767 532.155544 1129.548 532.155544 1129.548 507.849809 1107.67767 507.849809"></polygon>
            <path d="M1222.28867,497.618221 C1214.59567,478.895132 1210.888,469.231603 1208.91167,463.077632 L1208.79733,463.077632 C1207.03333,469.117338 1202.62333,481.572191 1196.44933,497.618221 L1222.28867,497.618221 Z M1191.32067,513.549985 L1184.232,532.158809 L1163.75,532.158809 L1196.69433,450.279985 L1222.28867,450.279985 L1256.96433,532.158809 L1235.45333,532.158809 L1227.76033,513.549985 L1191.32067,513.549985 Z" id="Fill-28"></path>
            <polygon id="Fill-29" points="1291.36233 532.155544 1313.23267 532.155544 1313.23267 507.849809 1291.36233 507.849809"></polygon>
        </g>
    </g>
</svg>