<?xml version="1.0" encoding="UTF-8" standalone="no"?>
<svg width="2344px" height="1963px" viewBox="0 0 2344 1963" version="1.1" xmlns="http://www.w3.org/2000/svg" xmlns:xlink="http://www.w3.org/1999/xlink">
    <!-- Generator: Sketch 3.8.3 (29802) - http://www.bohemiancoding.com/sketch -->
    <title>meiosys</title>
    <desc>Created with Sketch.</desc>
    <defs></defs>
    <g id="Page-1" stroke="none" stroke-width="1" fill="none" fill-rule="evenodd">
        <g id="meiosys">
            <path d="M1403.9959,1962.9464 L1396.43818,1950.55712 C1699.38509,1765.50133 1887.58818,1421.14029 1887.58818,1051.88464 C1887.58818,479.874221 1447.05022,14.5073529 905.534784,14.5073529 L905.534784,0 C1455.04312,0 1902.09435,471.880669 1902.09435,1051.88464 C1902.09435,1426.15984 1711.23664,1775.25027 1403.9959,1962.9464" id="Fill-18" fill="#ECC370"></path>
            <path d="M1697.92287,578.486501 C1697.92287,538.823399 1730.06855,506.675104 1769.72843,506.675104 C1809.3738,506.675104 1841.51948,538.823399 1841.51948,578.486501 C1841.51948,618.149604 1809.3738,650.297899 1769.72843,650.297899 C1730.06855,650.297899 1697.92287,618.149604 1697.92287,578.486501" id="Fill-19" fill="#B9181D"></path>
            <path d="M1647.56904,518.579838 C1609.31627,505.102507 1583.62583,468.790603 1583.62583,428.213537 C1583.62583,375.406772 1626.59312,332.435993 1679.38108,332.435993 C1732.18355,332.435993 1775.15083,375.406772 1775.15083,428.213537 C1775.15083,433.000963 1774.80269,437.773882 1774.10639,442.430743 L1759.75978,440.298162 C1760.34003,436.352162 1760.64466,432.290103 1760.64466,428.213537 C1760.64466,383.414831 1724.19065,346.943346 1679.38108,346.943346 C1634.57151,346.943346 1598.13201,383.414831 1598.13201,428.213537 C1598.13201,462.653993 1619.93478,493.46761 1652.38509,504.899404 L1647.56904,518.579838 Z" id="Fill-20" fill="#ECC370"></path>
            <path d="M1769.72407,448.613776 C1698.1071,448.613776 1639.86481,506.875306 1639.86481,578.4836 C1639.86481,650.091894 1698.1071,708.353424 1769.72407,708.353424 C1841.34105,708.353424 1899.58333,650.091894 1899.58333,578.4836 C1899.58333,506.875306 1841.34105,448.613776 1769.72407,448.613776 M1769.72407,722.860776 C1690.1287,722.860776 1625.35864,658.099953 1625.35864,578.4836 C1625.35864,498.867247 1690.1287,434.106424 1769.72407,434.106424 C1849.31944,434.106424 1914.08951,498.867247 1914.08951,578.4836 C1914.08951,658.099953 1849.31944,722.860776 1769.72407,722.860776" id="Fill-21" fill="#B9181D"></path>
            <path d="M503.664475,1003.47796 C501.212932,937.092308 498.746883,856.750587 498.746883,776.423374 L497.107685,776.423374 C479.076512,846.914602 456.127747,925.616992 434.818179,990.377815 L367.61108,1205.95708 L270.057068,1205.95708 L211.060463,992.829558 C193.014784,927.241815 174.983611,848.553933 161.057685,776.423374 L159.418488,776.423374 C156.952438,851.005676 153.674043,936.265389 150.395648,1005.11729 L139.748117,1214.96615 L24.1774383,1214.96615 L59.4129321,662.482624 L225.798735,662.482624 L279.906759,846.914602 C297.937932,910.848507 314.329907,979.700404 326.616636,1044.46123 L329.895031,1044.46123 C344.662315,980.527323 363.505833,907.584352 382.363858,846.087683 L440.548117,662.482624 L604.482377,662.482624 L633.987932,1214.96615 L512.687315,1214.96615 L503.664475,1003.47796 L503.664475,1003.47796 Z" id="Fill-1" fill="#ECC370"></path>
            <polygon id="Fill-3" fill="#ECC370" points="912.996759 1070.24805 787.068673 1070.24805 787.068673 1151.50373 927.720525 1151.50373 927.720525 1214.9734 709.895833 1214.9734 709.895833 872.701422 920.6125 872.701422 920.6125 936.185599 787.068673 936.185599 787.068673 1007.27163 912.996759 1007.27163"></polygon>
            <polygon id="Fill-5" fill="#ECC370" points="980.994444 1214.96179 1058.18179 1214.96179 1058.18179 872.689816 980.994444 872.689816"></polygon>
            <path d="M1191.19904,1044.35097 C1191.19904,1111.8827 1222.67744,1159.10413 1274.46448,1159.10413 C1326.77373,1159.10413 1356.72898,1109.34391 1356.72898,1042.8277 C1356.72898,980.866795 1327.78917,928.045523 1274.46448,928.045523 C1221.67651,928.045523 1191.19904,977.820251 1191.19904,1044.35097 M1438.48577,1040.28891 C1438.48577,1153.01104 1370.95954,1220.55728 1270.40275,1220.55728 C1169.36725,1220.55728 1109.44225,1143.87141 1109.44225,1045.85974 C1109.44225,943.292751 1175.45985,866.606883 1276.00213,866.606883 C1381.09935,866.606883 1438.48577,945.32378 1438.48577,1040.28891" id="Fill-7" fill="#ECC370"></path>
            <path d="M1491.76259,1135.24824 C1512.07123,1145.89664 1544.57957,1156.57405 1577.58111,1156.57405 C1613.12123,1156.57405 1631.90673,1141.84909 1631.90673,1119.49326 C1631.90673,1098.16745 1615.65981,1085.98127 1574.52031,1071.76407 C1517.65611,1051.45377 1480.08512,1019.97282 1480.08512,970.198087 C1480.08512,911.805992 1529.33358,867.631102 1609.56722,867.631102 C1648.66136,867.631102 1676.58574,875.247462 1696.90889,884.894852 L1679.63204,946.855757 C1666.43142,940.254911 1641.55333,930.593014 1608.55179,930.593014 C1575.02802,930.593014 1558.78111,946.347999 1558.78111,963.597242 C1558.78111,985.445315 1577.58111,995.092705 1622.26012,1011.8487 C1682.67833,1034.19002 1710.61722,1065.67098 1710.61722,1113.90793 C1710.61722,1171.28451 1666.93914,1220.04372 1573.01167,1220.04372 C1533.90302,1220.04372 1495.3166,1209.38082 1476.0234,1198.71791 L1491.76259,1135.24824 Z" id="Fill-8" fill="#ECC370"></path>
            <path d="M1861.9108,1214.9676 L1861.9108,1050.80239 L1735.2284,814.071406 L1839.29568,814.071406 L1879.73889,910.429244 C1892.24321,939.574516 1901.16451,960.987369 1910.66605,987.158634 L1911.85556,987.158634 C1920.79136,962.176972 1930.30741,938.979715 1942.18796,910.429244 L1982.63117,814.071406 L2084.34846,814.071406 L1952.29877,1047.82838 L1952.29877,1214.9676 L1861.9108,1214.9676 Z" id="Fill-9" fill="#ECC370"></path>
            <path d="M2124.55231,1135.24824 C2144.86096,1145.89664 2177.36929,1156.57405 2210.35633,1156.57405 C2245.91096,1156.57405 2264.69645,1141.84909 2264.69645,1119.49326 C2264.69645,1098.16745 2248.44954,1085.98127 2207.31003,1071.76407 C2150.44583,1051.45377 2112.86034,1019.97282 2112.86034,970.198087 C2112.86034,911.805992 2162.1233,867.631102 2242.35694,867.631102 C2281.45108,867.631102 2309.37546,875.247462 2329.69861,884.894852 L2312.42176,946.855757 C2299.22114,940.254911 2274.34306,930.593014 2241.34151,930.593014 C2207.81775,930.593014 2191.57083,946.347999 2191.57083,963.597242 C2191.57083,985.445315 2210.35633,995.092705 2255.04985,1011.8487 C2315.46806,1034.19002 2343.40694,1065.67098 2343.40694,1113.90793 C2343.40694,1171.28451 2299.72886,1220.04372 2205.80139,1220.04372 C2166.69275,1220.04372 2128.10633,1209.38082 2108.81312,1198.71791 L2124.55231,1135.24824 Z" id="Fill-10" fill="#ECC370"></path>
            <path d="M479.489938,979.294198 C477.038395,912.908551 474.572346,832.56683 474.572346,752.239617 L472.933148,752.239617 C454.901975,822.730845 431.95321,901.433235 410.643642,966.194058 L343.436543,1181.77332 L245.882531,1181.77332 L186.885926,968.645801 C168.840247,903.058058 150.809074,824.370176 136.883148,752.239617 L135.243951,752.239617 C132.777901,826.821918 129.499506,912.081632 126.221111,980.933529 L115.57358,1190.78239 L0.00290123457,1190.78239 L35.2383951,638.298867 L201.624198,638.298867 L255.732222,822.730845 C273.763395,886.664749 290.15537,955.516646 302.442099,1020.27747 L305.720494,1020.27747 C320.487778,956.343565 339.331296,883.400595 358.189321,821.903926 L416.37358,638.298867 L580.30784,638.298867 L609.813395,1190.78239 L488.512778,1190.78239 L479.489938,979.294198 Z" id="Fill-11" fill="#BE1E29"></path>
            <polygon id="Fill-12" fill="#BE1E29" points="888.822222 1046.06429 762.894136 1046.06429 762.894136 1127.31997 903.545988 1127.31997 903.545988 1190.78964 685.721296 1190.78964 685.721296 848.517665 896.437963 848.517665 896.437963 912.001841 762.894136 912.001841 762.894136 983.087871 888.822222 983.087871"></polygon>
            <polygon id="Fill-13" fill="#BE1E29" points="956.82716 1190.77804 1034.01451 1190.77804 1034.01451 848.506059 956.82716 848.506059"></polygon>
            <path d="M1167.02451,1020.16721 C1167.02451,1087.69894 1198.5029,1134.92038 1250.28994,1134.92038 C1302.58469,1134.92038 1332.55444,1085.16016 1332.55444,1018.64394 C1332.55444,956.683037 1303.61463,903.861765 1250.28994,903.861765 C1197.50198,903.861765 1167.02451,953.636493 1167.02451,1020.16721 M1414.29673,1016.10516 C1414.29673,1128.82729 1346.77049,1196.37352 1246.22821,1196.37352 C1145.19272,1196.37352 1085.26772,1119.68766 1085.26772,1021.67598 C1085.26772,919.108993 1151.28531,842.423126 1251.82759,842.423126 C1356.91031,842.423126 1414.29673,921.140023 1414.29673,1016.10516" id="Fill-14" fill="#BE1E29"></path>
            <path d="M1467.5808,1111.06448 C1487.88944,1121.71288 1520.39778,1132.39029 1553.39932,1132.39029 C1588.93944,1132.39029 1607.72494,1117.66533 1607.72494,1095.3095 C1607.72494,1073.98369 1591.47802,1061.79751 1550.33852,1047.58031 C1493.47432,1027.27001 1455.90333,995.789058 1455.90333,946.01433 C1455.90333,887.622235 1505.15179,843.447345 1585.38543,843.447345 C1624.47957,843.447345 1652.40395,851.063705 1672.7271,860.711095 L1655.45025,922.671999 C1642.24963,916.071154 1617.37154,906.409257 1584.37,906.409257 C1550.84623,906.409257 1534.59932,922.164242 1534.59932,939.413485 C1534.59932,961.261558 1553.39932,970.908948 1598.07833,987.66494 C1658.49654,1010.00626 1686.43543,1041.48722 1686.43543,1089.72417 C1686.43543,1147.10075 1642.75735,1195.85996 1548.82988,1195.85996 C1509.72123,1195.85996 1471.13481,1185.19706 1451.8416,1174.53415 L1467.5808,1111.06448 Z" id="Fill-15" fill="#BE1E29"></path>
            <path d="M1837.72901,1190.78384 L1837.72901,1026.61863 L1711.0466,789.887649 L1815.11389,789.887649 L1855.5571,886.245487 C1868.06142,915.390759 1876.98272,936.803612 1886.48426,962.974876 L1887.67377,962.974876 C1896.60957,937.993215 1906.12562,914.795957 1918.00617,886.245487 L1958.44938,789.887649 L2060.16667,789.887649 L1928.11698,1023.64463 L1928.11698,1190.78384 L1837.72901,1190.78384 Z" id="Fill-16" fill="#BE1E29"></path>
            <path d="M2100.37052,1111.06448 C2120.67917,1121.71288 2153.1875,1132.39029 2186.17454,1132.39029 C2221.72917,1132.39029 2240.51466,1117.66533 2240.51466,1095.3095 C2240.51466,1073.98369 2224.26775,1061.79751 2183.12824,1047.58031 C2126.26404,1027.27001 2088.67855,995.789058 2088.67855,946.01433 C2088.67855,887.622235 2137.94151,843.447345 2218.17515,843.447345 C2257.26929,843.447345 2285.19367,851.063705 2305.51682,860.711095 L2288.23997,922.671999 C2275.03935,916.071154 2250.16127,906.409257 2217.15972,906.409257 C2183.63596,906.409257 2167.38904,922.164242 2167.38904,939.413485 C2167.38904,961.261558 2186.17454,970.908948 2230.86806,987.66494 C2291.28627,1010.00626 2319.22515,1041.48722 2319.22515,1089.72417 C2319.22515,1147.10075 2275.54707,1195.85996 2181.6196,1195.85996 C2142.51096,1195.85996 2103.92454,1185.19706 2084.63133,1174.53415 L2100.37052,1111.06448 Z" id="Fill-17" fill="#BE1E29"></path>
        </g>
    </g>
</svg>