<?xml version="1.0" encoding="UTF-8" standalone="no"?>
<svg width="1037px" height="176px" viewBox="0 0 1037 176" version="1.1" xmlns="http://www.w3.org/2000/svg" xmlns:xlink="http://www.w3.org/1999/xlink">
    <!-- Generator: Sketch 3.8.3 (29802) - http://www.bohemiancoding.com/sketch -->
    <title>mobpartner</title>
    <desc>Created with Sketch.</desc>
    <defs>
        <polygon id="path-1" points="0.817118743 81 76.3124277 81 76.3124277 0.382417435 0.817118743 0.382417435 0.817118743 81"></polygon>
        <polygon id="path-3" points="85.374166 0.566 0.4629 0.566 0.4629 97.3569 85.374166 97.3569 85.374166 0.566"></polygon>
        <polygon id="path-5" points="0.4769 1 2.1129 1 2.1129 0.1002 0.4769 0.1002 0.4769 1"></polygon>
    </defs>
    <g id="Page-1" stroke="none" stroke-width="1" fill="none" fill-rule="evenodd">
        <g id="mobpartner" transform="translate(0.000000, -1.000000)">
            <path d="M364.6858,48.279 C359.5888,63.506 354.4878,78.731 349.3958,93.959 C346.4438,102.789 343.4258,111.598 340.6148,120.472 C339.8128,123.002 338.4418,123.708 335.9098,123.771 C324.1138,124.063 324.2288,124.097 320.6068,113.228 C313.4738,91.816 306.2028,70.45 298.8718,48.722 C297.2378,50.522 297.9528,52.33 297.9648,53.925 C298.1268,75.582 298.2848,97.239 298.6428,118.893 C298.7028,122.481 297.9448,124.082 294.0148,123.766 C289.8768,123.433 285.6818,123.519 281.5288,123.75 C278.3728,123.926 277.6248,122.667 277.6318,119.703 C277.7128,86.217 277.7178,52.731 277.6068,19.245 C277.5958,15.938 278.6388,14.873 281.8868,14.976 C288.2118,15.176 294.5588,15.277 300.8728,14.952 C304.3998,14.77 305.7048,16.055 306.7638,19.298 C314.3558,42.531 322.1738,65.69 329.9468,88.863 C330.3598,90.094 331.0138,91.245 331.9608,93.323 C335.5948,82.669 338.9928,72.864 342.2838,63.022 C347.2938,48.044 352.2738,33.055 357.1458,18.032 C357.8168,15.966 358.6978,14.987 360.9468,15.016 C367.9418,15.108 374.9418,15.139 381.9358,15.001 C384.6318,14.948 385.2918,16.04 385.2868,18.546 C385.2248,52.365 385.2158,86.185 385.2888,120.004 C385.2948,122.776 384.5328,124.069 381.6348,123.719 C380.4848,123.58 379.3048,123.684 378.1388,123.684 C364.7638,123.69 364.8448,123.692 365.0128,110.086 C365.2468,91.096 365.3478,72.105 365.5018,53.114 C365.5148,51.539 365.5038,49.964 365.5038,48.389 C365.2308,48.352 364.9588,48.316 364.6858,48.279" id="Fill-1" fill="#E85F3B"></path>
            <path d="M551.5268,83.1171 C551.6008,69.5621 541.7248,58.7821 529.1028,58.6391 C516.3848,58.4951 506.4288,68.9861 506.3148,82.6521 C506.1988,96.4421 515.5268,106.8181 528.0748,106.8561 C541.7348,106.8971 551.4508,97.0621 551.5268,83.1171 M505.4608,117.6831 C506.4148,122.5971 504.7118,123.9161 500.2398,123.8161 C487.5258,123.5351 487.5218,123.7501 487.5208,111.1081 C487.5178,80.7871 487.5888,50.4661 487.4208,20.1461 C487.3988,16.0301 488.4798,14.7981 492.6768,14.9021 C505.5768,15.2231 505.5838,15.0441 505.5968,27.9901 C505.6038,34.3191 505.5978,40.6481 505.5978,48.1201 C515.5018,40.1851 526.5018,38.9151 537.8598,40.7451 C549.5948,42.6351 558.1778,49.5361 564.1658,59.5981 C575.7158,79.0031 572.1798,98.1421 558.1218,113.8271 C545.1368,128.3131 528.8088,129.3351 505.4608,117.6831" id="Fill-3" fill="#E85F3B"></path>
            <path d="M436.2143,106.8701 C449.7543,106.8891 458.2603,97.3981 458.3313,82.1931 C458.3973,68.1561 449.4283,58.3111 436.4823,58.2111 C423.2423,58.1081 413.5463,68.4311 413.6783,82.4911 C413.8163,97.3011 422.6453,106.8511 436.2143,106.8701 M477.4513,82.7231 C477.2483,107.2691 458.4223,126.7981 434.8983,126.2011 C413.1103,125.6481 394.7433,105.8401 395.1113,82.0041 C395.4783,58.2061 413.5413,39.4011 436.3333,39.5601 C459.3303,39.7201 477.6473,58.9481 477.4513,82.7231" id="Fill-5" fill="#E85F3B"></path>
            <g id="Group-9" transform="translate(0.000000, 38.434000)" fill="#D4D4D6">
                <path d="M48.8417,70.1469 C33.6357,69.1049 18.3917,68.1299 5.0637,59.4859 C-0.6193,55.8009 -1.5103,50.7649 2.3477,45.2509 C6.4417,39.4009 12.0997,35.4489 18.3427,32.1729 C25.5477,28.3919 32.9437,25.0609 40.5707,22.2329 C40.6397,22.7419 40.7097,23.2499 40.7787,23.7589 C38.5537,24.8709 36.3947,26.1489 34.0907,27.0639 C26.9677,29.8949 19.9807,33.0349 13.8157,37.6069 C10.3827,40.1519 6.4667,43.1019 7.5217,48.1329 C8.4917,52.7579 12.4487,54.7599 16.6427,56.4159 C25.1307,59.7679 34.2077,59.5079 42.9747,61.1109 C44.7767,61.4399 46.3087,60.9819 46.6917,58.8289 C48.2067,63.1099 51.4577,61.6349 54.4077,61.1559 C65.4177,62.7829 76.3867,61.0219 87.3457,60.4739 C90.9877,60.2929 95.0227,61.3109 98.4617,58.9989 C99.3077,59.1179 100.1537,59.2379 100.9997,59.3569 C123.5307,56.6219 145.8457,52.7349 167.7917,46.8689 C169.5517,46.2779 171.3127,45.6869 173.0737,45.0959 L177.2197,44.0919 C182.8237,42.0899 188.5387,40.3499 194.0037,38.0229 C201.9037,34.6589 209.9187,31.3529 216.0617,24.9819 C221.1127,19.7439 220.3777,14.5879 213.8867,11.4479 C204.3547,6.8369 194.1897,4.9449 183.6197,5.1689 C183.9407,3.5019 184.2617,1.8349 184.5827,0.1689 C199.4187,1.3509 214.2757,2.3559 228.2637,8.2239 C231.0997,9.4139 233.5097,11.2099 235.6037,13.2369 C239.5317,17.0379 239.0627,22.2219 234.9727,27.0759 C229.9317,33.0589 223.3637,37.0669 216.5457,40.4099 C203.2857,46.9109 189.4807,52.1079 175.0347,55.4319 C172.8487,56.1089 170.6627,56.7869 168.4767,57.4659 C167.3337,57.1539 166.4297,57.7859 165.4757,58.2239 C164.4977,58.3549 163.5047,58.4139 162.5447,58.6269 C141.5597,63.2729 120.5277,67.6069 98.9427,68.3129 C98.4597,68.6119 97.9767,68.9109 97.4937,69.2089 C83.4517,70.2069 69.3917,70.4059 55.3207,70.1829 C53.1617,70.1709 51.0017,70.1589 48.8417,70.1469" id="Fill-7"></path>
            </g>
            <path d="M645.3916,136.4394 C524.8946,136.4364 404.3986,136.4474 283.9016,136.3404 C281.8506,136.3384 277.8716,138.1684 277.9276,134.4144 C277.9726,131.3864 281.7516,132.8424 283.7866,132.8424 C525.1126,132.7704 766.4386,132.7744 1007.7646,132.8644 C1009.9146,132.8644 1013.9196,131.2684 1013.9646,134.5684 C1014.0116,138.0494 1009.9846,136.3524 1007.8816,136.3534 C887.0516,136.4534 766.2216,136.4424 645.3916,136.4394" id="Fill-10" fill="#ABAAAC"></path>
            <path d="M730.2938,82.6674 C730.2938,81.1694 730.4418,79.6554 730.2698,78.1774 C729.0258,67.4904 724.5858,58.6674 714.6108,53.7134 C705.0398,48.9584 695.3018,48.7634 686.1508,54.8794 C674.6708,62.5534 669.4388,77.4024 672.7278,92.0214 C675.8578,105.9384 683.8288,113.1074 698.5058,115.2084 C710.4758,116.9214 719.6678,111.6454 726.3268,99.4074 C729.1828,94.1584 730.5838,88.6274 730.2938,82.6674 M731.4428,54.8254 C731.4428,50.3434 731.6908,47.0454 731.3788,43.8004 C731.0038,39.9104 733.5078,40.5094 735.7918,40.4934 C738.1078,40.4784 740.3248,39.9594 740.3038,43.7864 C740.1648,69.2744 740.1478,94.7644 740.3178,120.2524 C740.3458,124.4874 737.8208,123.5214 735.4568,123.7174 C732.7068,123.9464 730.9988,123.5174 731.3738,120.0694 C731.6918,117.1514 731.4398,114.1714 731.4398,110.3124 C722.0668,122.5694 710.1278,126.7704 695.9798,124.8934 C679.3378,122.6864 661.1468,107.5454 660.9298,86.2134 C660.7238,65.9524 668.1488,51.4834 686.3918,42.7814 C701.9728,35.3484 720.5518,40.0324 731.4428,54.8254" id="Fill-12" fill="#686A6B"></path>
            <path d="M956.6221,76.1924 L956.6221,76.1734 C965.1041,76.1734 973.5871,76.2194 982.0671,76.1134 C983.0891,76.1014 985.8251,77.1954 984.6771,74.2924 C980.6401,64.0774 975.6801,54.4854 964.3291,50.5984 C950.6831,45.9254 933.8451,55.9874 929.3851,71.0024 C928.1891,75.0284 928.4211,76.5244 933.1771,76.2944 C940.9751,75.9174 948.8051,76.1924 956.6221,76.1924 M993.1521,97.0774 C988.7431,118.1194 964.2081,130.7634 943.9221,122.4624 C915.8631,110.9804 907.8121,73.4524 928.9821,51.8104 C939.5921,40.9634 952.7031,36.7374 967.3371,41.4894 C982.6321,46.4564 992.1711,57.1474 994.3561,73.5444 C995.9651,85.6244 995.9001,85.6394 983.9601,85.6434 C967.1311,85.6484 950.3011,85.7934 933.4761,85.5414 C928.9991,85.4744 928.1781,86.2204 928.9281,90.9494 C932.1361,111.1794 956.5571,122.9674 976.7031,106.3054 C977.9711,105.2574 979.5231,104.0684 980.0011,102.6324 C982.3311,95.6234 987.5561,96.0404 993.1521,97.0774" id="Fill-14" fill="#686A6B"></path>
            <path d="M602.5234,45.6008 C602.5234,51.9218 602.5194,58.2418 602.5264,64.5628 C602.5284,66.1898 602.1444,68.0428 604.7994,67.9728 C613.9354,67.7308 623.1404,68.7728 632.1954,67.2138 C641.8894,65.5448 647.7114,58.6558 648.6664,48.6098 C649.7984,36.7028 645.7874,29.2458 636.0044,25.3048 C625.7474,21.1718 614.9744,23.2388 604.4114,22.8498 C602.0984,22.7648 602.5374,24.7058 602.5334,26.1398 C602.5164,32.6268 602.5264,39.1138 602.5234,45.6008 M592.6984,67.6558 C592.7014,50.8478 592.8594,34.0378 592.5924,17.2338 C592.5244,12.9238 593.9074,11.9268 597.9154,12.1338 C609.0224,12.7088 620.2084,11.2278 631.2574,13.5328 C655.5314,18.5968 666.4234,41.3978 654.8074,63.4958 C649.3204,73.9338 639.7484,78.1048 628.3984,78.4958 C621.2504,78.7418 614.0824,78.7228 606.9354,78.4838 C603.5344,78.3698 602.3684,79.2258 602.4364,82.8408 C602.6694,95.1508 602.3404,107.4728 602.6284,119.7808 C602.7254,123.9208 600.6754,123.8068 597.7874,123.7358 C594.8784,123.6638 592.3554,124.1738 592.5744,119.5718 C592.9844,110.9378 592.6944,102.2698 592.6944,93.6168 C592.6954,84.9628 592.6954,76.3098 592.6984,67.6558" id="Fill-16" fill="#686A6B"></path>
            <path d="M852.395,50.9539 C865.928,37.2849 883.689,35.8729 897.759,46.5479 C904.827,51.9099 908.053,59.3579 908.274,67.7409 C908.738,85.3929 908.458,103.0639 908.575,120.7259 C908.608,125.7509 904.925,123.2009 902.846,123.6079 C900.467,124.0739 898.429,124.0059 898.477,120.2739 C898.68,104.6119 898.274,88.9389 898.672,73.2839 C898.941,62.6849 894.654,55.2869 885.233,50.9089 C876.12,46.6739 867.715,48.7849 859.946,54.5469 C854.192,58.8139 852.412,64.8829 852.396,71.6629 C852.357,87.6609 852.225,103.6609 852.492,119.6539 C852.559,123.6629 850.843,123.9539 847.794,123.7209 C845.125,123.5179 842.356,124.6309 842.402,119.7959 C842.646,94.6349 842.626,69.4699 842.407,44.3089 C842.369,39.9229 844.73,40.4189 847.414,40.5009 C849.923,40.5779 853.104,39.5989 852.441,44.1859 C852.164,46.1029 852.395,48.0949 852.395,50.9539" id="Fill-18" fill="#686A6B"></path>
            <g id="Group-22" transform="translate(93.000000, 95.434000)">
                <mask id="mask-2" fill="white">
                    <use xlink:href="#path-1"></use>
                </mask>
                <g id="Clip-21"></g>
                <path d="M4.4939,12.2104 C4.9769,11.9114 5.4599,11.6124 5.9439,11.3124 C7.2449,16.4994 5.7029,21.5584 5.0149,26.6044 C4.3989,31.1234 5.6689,33.6264 10.0639,35.3614 C26.7329,41.9404 43.2979,48.7824 59.8369,55.6824 C63.0949,57.0414 64.0319,55.7554 64.4709,52.9004 C67.1239,35.6724 69.8049,18.4494 72.4759,1.2244 C73.4289,0.7864 74.3339,0.1544 75.4779,0.4654 C76.5779,2.1244 76.3789,3.8774 76.0669,5.7414 C72.4939,27.0954 68.8749,48.4434 65.5269,69.8334 C64.8309,74.2784 63.0749,77.6324 59.3739,80.0444 C59.3739,80.0444 59.1109,80.1004 59.1129,80.1004 C58.5689,80.3134 58.0229,80.5254 57.4769,80.7384 C55.9589,81.0524 54.4479,81.1794 52.9689,80.5664 C51.7479,80.1094 50.5229,79.6514 49.2979,79.1934 C34.0769,71.3894 19.5169,62.4144 4.7299,53.8484 C1.7139,52.1014 0.4809,48.8424 0.8949,45.1894 C1.0999,43.3824 1.2129,41.5654 1.3689,39.7524 C2.0999,34.5184 2.8999,29.2894 2.6179,23.9744 C4.3259,20.2254 3.9739,16.1484 4.4939,12.2104" id="Fill-20" fill="#E85F3B" mask="url(#mask-2)"></path>
            </g>
            <g id="Group-25" transform="translate(98.000000, 0.434000)">
                <mask id="mask-4" fill="white">
                    <use xlink:href="#path-3"></use>
                </mask>
                <g id="Clip-24"></g>
                <path d="M2.9999,97.3569 C2.1539,97.2379 1.3079,97.1179 0.4629,97.0009 C1.8399,89.7909 0.9639,82.4259 1.9449,75.1879 L2.1469,74.9709 C4.5879,66.2619 4.1529,57.2099 5.2899,48.3429 C6.4519,39.2869 7.1289,30.1699 8.2499,21.1079 C8.8159,16.5319 11.5019,13.8489 16.2479,12.8429 C33.9569,9.0869 51.6579,5.2759 69.2749,1.1179 C75.5319,-0.3581 80.3219,1.0959 84.3699,5.8269 C84.8579,8.5799 85.7429,11.2669 85.2079,14.1509 C84.1679,19.7619 82.7179,25.2469 82.0309,30.9879 C80.3869,44.7189 77.4359,58.2909 75.6579,72.0099 C75.1959,75.5809 73.1849,79.3209 75.0739,83.0959 C73.3129,83.6869 71.5519,84.2779 69.7919,84.8719 C69.9399,83.2259 69.9949,81.5619 70.2489,79.9289 C73.0409,61.9939 75.8699,44.0649 78.6759,26.1329 C79.6769,19.7309 79.4349,19.3609 72.9839,20.1399 C53.6389,22.4749 34.3129,24.9709 14.9689,27.3169 C11.8419,27.6969 10.0819,29.1399 9.7409,32.2729 C9.2539,36.7429 8.9369,41.2399 8.2469,45.6799 C6.2329,58.6369 6.3139,71.8129 3.7189,84.7549 C2.9419,88.6299 2.0409,93.0999 2.9999,97.3569" id="Fill-23" fill="#E85F3B" mask="url(#mask-4)"></path>
            </g>
            <path d="M813.6838,88.1779 C813.6898,98.6729 813.4918,109.1729 813.7898,119.6589 C813.9048,123.6819 812.0198,123.7889 809.0078,123.7529 C806.1108,123.7189 804.1318,123.8889 804.1768,119.7519 C804.4028,98.9319 804.1678,78.1069 804.3758,57.2869 C804.4148,53.4429 803.3188,52.1649 799.6378,52.7019 C798.1698,52.9169 796.6018,52.5049 795.1528,52.7759 C789.8548,53.7669 788.8478,51.3579 789.0078,46.5239 C789.1358,42.6349 790.0378,41.4639 794.0068,41.5529 C804.2768,41.7829 804.2808,41.5869 804.2798,31.2399 C804.2788,26.7419 804.5318,22.2259 804.2018,17.7529 C803.9298,14.0749 805.3548,13.2879 808.7178,13.4319 C811.8198,13.5649 814.0618,13.3799 813.7938,17.7689 C813.3768,24.5729 813.7768,31.4239 813.6278,38.2499 C813.5708,40.8309 814.3468,41.9049 817.0068,41.6999 C819.3258,41.5209 821.6678,41.6569 824.0008,41.6559 C831.4298,41.6519 832.5808,43.2129 831.2508,50.6979 C830.8468,52.9679 829.4668,52.7159 828.0058,52.7269 C824.5078,52.7519 820.9978,52.9149 817.5148,52.6819 C814.3788,52.4719 813.5638,53.6729 813.6128,56.6949 C813.7818,67.1869 813.6778,77.6829 813.6838,88.1779" id="Fill-26" fill="#686A6B"></path>
            <path d="M100.1471,75.4052 L99.9451,75.6212 C98.5091,74.2012 98.6131,72.3152 98.3631,70.5202 C97.2201,62.2962 96.0251,54.0792 94.8911,45.8542 C94.5201,43.1662 93.6471,40.9722 90.4961,40.7482 C76.7371,39.7682 62.9791,38.7702 49.2151,37.8632 C46.0031,37.6522 44.8231,39.1832 45.3661,42.5192 C48.4561,61.5302 51.4081,80.5642 54.4081,99.5902 C51.4571,100.0692 48.2071,101.5432 46.6911,97.2632 C44.9301,85.5382 43.3131,73.7882 40.7791,62.1932 C40.7091,61.6842 40.6401,61.1762 40.5701,60.6672 C39.6471,54.4182 38.8421,48.1482 37.7731,41.9232 C36.2171,32.8612 44.9401,23.5152 54.1701,24.8802 C65.5281,26.5612 76.8311,28.6162 88.1561,30.5242 C92.3901,31.2382 95.0401,33.6062 95.7701,37.9402 C96.2091,40.5512 96.6661,43.1582 97.1151,45.7682 C97.2531,46.7252 97.3911,47.6832 97.5291,48.6402 C98.3151,55.2882 99.0241,61.9462 99.9311,68.5772 C100.2441,70.8692 100.4931,73.1152 100.1471,75.4052" id="Fill-28" fill="#686A6B"></path>
            <path d="M762.3165,51.2416 C767.0085,43.7486 772.7935,40.1956 780.3905,39.6036 C783.1405,39.3886 784.5365,39.9626 784.1455,43.0056 C783.9775,44.3146 783.9625,45.6896 784.1665,46.9896 C784.6725,50.2116 783.4835,51.5256 780.1795,52.2276 C770.7315,54.2326 761.5265,62.6146 762.1565,75.7266 C762.8575,90.3346 762.1115,105.0066 762.4425,119.6406 C762.5485,124.2876 760.0265,123.5586 757.2055,123.7366 C754.0365,123.9376 752.4895,123.4336 752.5175,119.5716 C752.7005,94.6156 752.7335,69.6556 752.4995,44.7006 C752.4585,40.2886 754.5865,40.4676 757.6375,40.4356 C760.6065,40.4056 762.9885,40.4226 762.3615,44.5006 C762.0945,46.2346 762.3165,48.0436 762.3165,51.2416" id="Fill-30" fill="#686A6B"></path>
            <path d="M1014.3101,49.7971 C1019.0501,43.4291 1024.9021,40.2681 1032.3621,39.5991 C1035.2401,39.3411 1036.3731,40.1961 1036.0561,43.0911 C1035.8941,44.5721 1035.8481,46.1091 1036.0571,47.5771 C1036.4701,50.4681 1035.3461,51.3751 1032.4731,52.0771 C1021.4001,54.7831 1013.6021,63.1301 1014.1551,75.8531 C1014.7921,90.4751 1014.1321,105.1481 1014.4131,119.7921 C1014.4941,124.0181 1012.3541,123.8561 1009.5271,123.7041 C1007.0141,123.5701 1004.3661,124.5791 1004.4051,120.0221 C1004.6191,94.7211 1004.6121,69.4161 1004.4041,44.1151 C1004.3701,39.9871 1006.5771,40.3691 1009.0861,40.5271 C1011.4251,40.6751 1014.8711,39.2181 1014.3451,43.9661 C1014.1331,45.8881 1014.3101,47.8521 1014.3101,49.7971" id="Fill-32" fill="#686A6B"></path>
            <path d="M95.6184,119.4084 C95.9004,124.7234 95.1004,129.9524 94.3694,135.1864 C87.7944,139.3824 81.2524,143.6304 74.6384,147.7614 C66.7084,152.7134 55.0904,147.7334 53.5314,138.6144 C51.8244,128.6274 50.3934,118.5944 48.8424,108.5804 C51.0014,108.5934 53.1614,108.6054 55.3214,108.6174 C56.4464,115.4844 57.5774,122.3514 58.6954,129.2204 C59.2764,132.7884 60.5984,133.9364 64.4424,132.2424 C74.7224,127.7114 85.2124,123.6544 95.6184,119.4084" id="Fill-34" fill="#686A6B"></path>
            <path d="M152.374,175.4784 C156.075,173.0664 157.831,169.7124 158.527,165.2674 C161.875,143.8774 165.494,122.5294 169.067,101.1754 C169.379,99.3114 169.578,97.5584 168.478,95.8994 C170.663,95.2214 172.848,94.5424 175.035,93.8654 C171.107,117.9684 167.235,142.0794 163.212,166.1644 C162.223,172.0824 157.986,174.6964 152.374,175.4784" id="Fill-36" fill="#B64F31"></path>
            <path d="M173.0737,83.5296 C171.1847,79.7546 173.1957,76.0146 173.6587,72.4446 C175.4357,58.7246 178.3877,45.1526 180.0307,31.4216 C180.7177,25.6816 182.1677,20.1956 183.2087,14.5846 C183.7437,11.7006 182.8587,9.0136 182.3707,6.2606 C187.0887,8.8296 188.5447,12.8676 187.7357,17.9916 C186.6507,24.8556 185.6307,31.7306 184.5827,38.6016 C184.2617,40.2696 183.9407,41.9366 183.6197,43.6036 C181.4867,56.5786 179.3537,69.5526 177.2197,82.5266 L173.0737,83.5296 Z" id="Fill-38" fill="#B64F31"></path>
            <path d="M444.5912,152.0388 C440.9062,154.0978 440.7102,160.0548 437.3102,159.6998 C435.0102,159.4588 433.1732,154.7808 430.3422,151.0498 C430.3422,155.9058 430.3802,159.4898 430.3212,163.0728 C430.3012,164.2868 430.8452,166.1588 428.8612,166.1348 C427.3092,166.1158 427.6042,164.4398 427.5982,163.3338 C427.5702,158.3378 427.5852,153.3418 427.6042,148.3448 C427.6082,147.3648 427.4652,146.1968 428.6362,145.7878 C429.7742,145.3918 430.4752,146.2548 431.0802,147.0798 C431.9652,148.2858 432.8672,149.4808 433.7062,150.7188 C437.5452,156.3858 437.4602,156.3348 441.6322,150.5468 C442.9212,148.7578 443.9122,145.3028 446.2172,145.9918 C448.7412,146.7468 447.1472,150.0908 447.2872,152.2618 C447.5332,156.0768 447.3812,159.9188 447.3552,163.7488 C447.3482,164.7058 447.5122,166.0158 446.1982,166.1388 C444.4482,166.3028 444.6202,164.7868 444.6072,163.6798 C444.5652,159.9138 444.5912,156.1468 444.5912,152.0388" id="Fill-40" fill="#ABAAAC"></path>
            <path d="M868.4391,161.4329 C868.4391,156.1279 868.4131,152.3799 868.4561,148.6329 C868.4681,147.5559 868.0391,145.9829 869.6741,145.8399 C871.3911,145.6899 871.1821,147.2749 871.1901,148.3649 C871.2281,153.5109 871.2141,158.6569 871.1921,163.8029 C871.1881,164.7679 871.3131,165.9239 870.0111,166.1869 C869.0681,166.3769 868.5421,165.5819 868.0251,164.9389 C864.3921,160.4179 860.7651,155.8909 856.2791,150.2959 C856.2791,155.3229 856.3181,159.2879 856.2541,163.2499 C856.2351,164.4479 856.7111,166.3009 854.6151,166.1189 C852.9931,165.9779 853.4431,164.3699 853.4341,163.2939 C853.3941,158.4799 853.3851,153.6649 853.4411,148.8519 C853.4531,147.7839 852.9061,146.3429 854.3641,145.8089 C855.9571,145.2259 856.7681,146.5639 857.5721,147.5769 C860.9081,151.7809 864.2001,156.0189 868.4391,161.4329" id="Fill-42" fill="#ABAAAC"></path>
            <path d="M297.1605,159.2689 C298.2015,163.6639 295.4365,165.2399 291.9105,166.2069 C286.9755,167.5589 282.2675,165.6319 279.5115,161.1589 C276.6595,156.5319 277.1255,152.8119 281.0905,148.5549 C284.4325,144.9669 289.4845,144.0639 293.8325,146.3349 C294.8005,146.8399 296.4895,147.2419 295.9975,148.5949 C295.2465,150.6569 293.7845,149.1419 292.7515,148.6499 C289.5995,147.1479 286.6275,147.1419 283.9315,149.5219 C281.1075,152.0149 280.7135,155.2919 281.5785,158.6859 C282.7565,163.3129 288.9565,165.5009 293.0055,162.9769 C294.4105,162.1019 294.4905,160.9319 294.4505,159.5659 C294.3825,157.2609 292.6605,157.6869 291.2205,157.5109 C290.0525,157.3689 288.0355,158.1769 288.1425,156.1509 C288.2325,154.4519 290.1415,154.7739 291.4225,154.7749 C294.4795,154.7789 298.3655,153.7859 297.1605,159.2689" id="Fill-44" fill="#ABAAAC"></path>
            <path d="M708.3835,158.1233 C708.3885,157.7903 708.4525,157.4433 708.3795,157.1273 C707.2615,152.3033 709.5675,150.0763 714.0695,150.7163 C718.0335,151.2803 721.7925,151.1873 725.7595,150.7333 C729.2975,150.3283 731.0995,153.4933 731.1285,156.6823 C731.1565,159.8183 732.3235,165.7093 730.1945,165.6143 C726.3185,165.4413 729.0535,160.6223 728.5275,157.8583 C728.0945,155.5833 728.0135,153.4303 725.0925,153.3123 C721.9655,153.1863 721.1595,155.1613 721.2285,157.8613 C721.2795,159.8563 721.2545,161.8543 721.2365,163.8513 C721.2275,164.8523 721.2415,166.0963 719.9475,166.1703 C718.2065,166.2693 718.4285,164.7713 718.4045,163.6613 C718.3615,161.6653 718.3785,159.6673 718.4095,157.6703 C718.4475,155.1983 717.7035,153.3093 714.8425,153.3383 C711.8745,153.3683 710.8515,155.4103 710.7365,157.9713 C710.6615,159.6163 711.0375,161.2783 711.0315,162.9323 C711.0275,164.1713 711.3215,166.0423 709.4555,165.9713 C707.8605,165.9113 708.4555,164.1713 708.4015,163.1143 C708.3145,161.4543 708.3785,159.7873 708.3835,158.1233" id="Fill-46" fill="#ABAAAC"></path>
            <path d="M360.5027,158.3375 C360.4397,154.9945 358.6817,152.8585 355.4087,153.0255 C352.2177,153.1885 350.3967,155.5145 350.5067,158.7275 C350.6157,161.9205 352.5307,164.2005 355.7497,164.0755 C358.9607,163.9505 360.6377,161.6895 360.5027,158.3375 M350.4567,152.2575 C354.7357,150.0205 358.5067,149.5135 361.5557,153.4095 C363.9787,156.5065 364.1627,159.8565 361.9447,163.1175 C359.9857,165.9975 357.2217,167.2445 353.7227,166.2805 C347.6437,164.6075 347.6477,164.5925 347.6437,157.5905 C347.6417,154.0965 347.6267,150.6025 347.6457,147.1085 C347.6527,145.9385 347.6687,144.4085 349.0837,144.3255 C350.8037,144.2245 350.3897,145.8925 350.4377,146.9605 C350.5107,148.5965 350.4567,150.2375 350.4567,152.2575" id="Fill-48" fill="#ABAAAC"></path>
            <path d="M930.7869,160.8871 C931.6609,158.2251 932.5439,155.5661 933.4029,152.8991 C933.7159,151.9311 934.0299,150.9151 935.2779,150.9761 C936.2979,151.0261 936.4839,152.0161 936.7639,152.7601 C937.7569,155.3971 938.6929,158.0551 939.9649,161.5731 C941.2549,158.0881 942.3119,155.2931 943.3189,152.4791 C943.6899,151.4421 944.2669,150.5071 945.4249,150.9621 C946.7309,151.4741 946.0859,152.5971 945.7429,153.4981 C944.3859,157.0681 943.0129,160.6331 941.6449,164.1991 C941.3579,164.9461 941.3349,165.9621 940.2969,166.0751 C939.0289,166.2141 938.6769,165.1851 938.3219,164.2451 C937.3349,161.6301 936.3519,159.0141 935.0489,155.5511 C933.8779,158.9471 933.0549,161.5271 932.0819,164.0501 C931.7529,164.9011 931.5659,166.1631 930.3039,166.1711 C929.1319,166.1781 928.6939,165.1641 928.3459,164.2121 C926.9779,160.4691 925.6279,156.7201 924.2589,152.9771 C923.9719,152.1921 923.5459,151.3001 924.6239,150.8951 C925.7939,150.4551 926.5759,151.2591 926.9179,152.2431 C927.9319,155.1591 928.8319,158.1161 929.7769,161.0561 C930.1129,161.0001 930.4499,160.9431 930.7869,160.8871" id="Fill-50" fill="#ABAAAC"></path>
            <path d="M497.2521,158.6748 C496.9871,155.5028 495.5471,153.0108 492.2261,152.9598 C488.9531,152.9088 487.0171,155.4458 486.8761,158.4268 C486.7271,161.5728 488.9071,163.8678 492.0421,164.0728 C495.4531,164.2968 496.8981,161.8228 497.2521,158.6748 M487.4581,151.6598 C493.6801,149.8198 496.8421,150.6608 498.9291,154.9388 C500.8851,158.9478 499.6061,162.2308 496.4781,165.1588 C492.8811,168.5258 488.9091,164.6618 485.1601,165.8908 C484.3811,166.1468 484.3781,164.3188 484.3721,163.3758 C484.3391,157.9028 484.3141,152.4288 484.3541,146.9558 C484.3621,145.9038 483.9991,144.2388 485.7071,144.3288 C487.1331,144.4038 487.1291,145.9148 487.1761,147.0878 C487.2361,148.5778 487.2941,150.0668 487.3541,151.5568 C487.2371,151.7168 487.1191,151.8758 487.0011,152.0348 C487.1531,151.9098 487.3051,151.7848 487.4581,151.6598" id="Fill-52" fill="#ABAAAC"></path>
            <path d="M581.4581,151.9729 C581.1561,154.6829 581.2101,156.9799 585.0741,156.5619 C588.1321,156.2309 591.4561,156.2069 591.4291,152.1049 C591.4001,147.9139 587.8021,148.1789 584.9201,147.7689 C581.4651,147.2779 581.1201,149.3629 581.4581,151.9729 M578.5381,155.9959 C578.5381,155.3319 578.5391,154.6679 578.5381,154.0039 C578.5191,144.7529 578.8451,144.4399 587.8701,145.5909 C591.5561,146.0619 594.2471,147.8759 594.3281,151.8659 C594.4121,156.0379 591.8461,158.5219 587.8741,158.5779 C583.5621,158.6399 580.1721,158.8469 581.3551,164.5829 C581.5301,165.4319 580.9491,166.2649 579.9451,166.2139 C578.9721,166.1649 578.5821,165.3539 578.5721,164.4629 C578.5431,161.6409 578.5621,158.8189 578.5621,155.9959 L578.5381,155.9959" id="Fill-54" fill="#ABAAAC"></path>
            <path d="M379.6246,158.5751 C378.0066,158.8571 375.7146,158.8351 375.5656,161.1571 C375.4076,163.6321 377.5766,163.8741 379.4956,163.7791 C381.4246,163.6831 383.3216,163.1781 383.4276,160.8251 C383.5456,158.1831 381.3266,158.8781 379.6246,158.5751 M373.8686,152.9461 C376.8916,150.2621 379.7606,150.0421 382.5876,151.0981 C385.3976,152.1471 386.2236,154.7351 386.2586,157.5721 C386.2666,158.2351 386.3226,158.9031 386.2536,159.5591 C386.0316,161.6611 387.1376,165.2761 385.6796,165.5731 C382.8096,166.1571 379.6616,167.3271 376.6066,166.3011 C374.4806,165.5871 372.6906,164.1981 372.5596,161.7571 C372.4146,159.0741 374.0486,157.3341 376.5236,156.7581 C378.6836,156.2551 380.9616,156.2611 383.4646,156.0151 C381.4216,151.4541 377.4166,154.4951 373.8686,152.9461" id="Fill-56" fill="#ABAAAC"></path>
            <path d="M1003.1492,158.3306 C1006.8832,156.1976 1008.3902,151.3926 1013.3022,150.5416 C1012.8552,154.4656 1007.4662,155.1456 1008.6672,158.6436 C1009.5692,161.2696 1012.1422,163.3216 1014.2742,166.0116 C1010.6382,166.8516 1009.7762,164.0426 1008.1492,162.5296 C1007.2682,161.7106 1007.0912,159.7196 1005.3412,160.3606 C1004.0952,160.8176 1003.2812,162.0016 1003.1412,163.4596 C1003.0302,164.6076 1003.0532,166.1836 1001.5272,166.0296 C999.9392,165.8686 1000.4732,164.2166 1000.4642,163.1446 C1000.4212,157.9926 1000.4162,152.8396 1000.4592,147.6876 C1000.4682,146.6096 1000.0782,144.8996 1001.6272,144.8496 C1003.5972,144.7856 1003.0932,146.6886 1003.1212,147.8846 C1003.2002,151.2916 1003.1492,154.7026 1003.1492,158.3306" id="Fill-58" fill="#ABAAAC"></path>
            <path d="M610.8168,157.5868 C612.0938,156.7408 614.8888,158.8258 614.8838,155.8558 C614.8808,153.9838 612.8768,152.8218 610.8798,152.8668 C608.8688,152.9128 606.9878,154.3378 606.9368,156.0408 C606.8548,158.7558 609.4608,156.8598 610.8168,157.5868 M606.1578,159.6368 C609.1008,165.8418 613.2038,163.2228 616.9668,162.4498 C615.1418,166.6168 611.7238,167.7528 607.8368,165.7238 C604.2938,163.8748 602.8488,160.7928 603.6318,156.9968 C604.4068,153.2408 606.8088,150.8188 610.8548,150.5688 C614.6608,150.3338 616.5518,152.7268 617.7798,155.8938 C618.7108,158.2938 618.2678,159.7558 615.2818,159.6568 C612.4988,159.5648 609.7098,159.6368 606.1578,159.6368" id="Fill-60" fill="#ABAAAC"></path>
            <path d="M968.6323,158.6444 C968.5553,155.1794 966.5893,153.0654 963.4943,153.0464 C960.4423,153.0274 958.3383,154.9194 958.3433,158.4384 C958.3483,161.8904 960.0243,163.7114 963.4113,163.7754 C966.8493,163.8404 968.5073,161.9194 968.6323,158.6444 M971.3803,158.4164 C971.3573,163.2124 967.8323,166.7314 963.1983,166.5854 C958.8513,166.4484 955.3733,162.7644 955.4783,158.4054 C955.5843,154.0194 959.0903,150.6014 963.5393,150.5474 C968.0463,150.4934 971.4023,153.8614 971.3803,158.4164" id="Fill-62" fill="#ABAAAC"></path>
            <path d="M888.907,157.6399 C889.996,156.4699 892.818,158.9519 893.043,156.0949 C893.217,153.8849 890.937,152.8899 888.875,152.8969 C886.927,152.9039 885.049,154.3189 884.97,156.0029 C884.848,158.5999 887.371,156.9559 888.907,157.6399 M884.197,159.6369 C886.577,164.3919 889.457,164.7039 893.001,162.6919 C893.74,162.2719 894.457,161.6719 895.131,162.5439 C895.733,163.3219 895.351,164.1249 894.642,164.6819 C891.918,166.8199 888.913,167.3479 885.842,165.6629 C882.599,163.8829 881.215,160.8209 881.864,157.3109 C882.534,153.6889 884.542,150.8449 888.709,150.5669 C892.383,150.3209 894.594,152.3319 895.81,155.5869 C896.752,158.1089 896.387,159.7989 893.104,159.6599 C890.367,159.5449 887.62,159.6369 884.197,159.6369" id="Fill-64" fill="#ABAAAC"></path>
            <path d="M819.7361,157.542 C821.0951,156.782 823.8361,158.799 824.0151,155.945 C824.1401,153.946 821.9691,152.899 820.0691,152.891 C817.8771,152.882 815.8351,154.381 815.8921,156.395 C815.9481,158.363 818.3581,157.04 819.7361,157.542 M815.0851,159.64 C817.6041,164.377 820.4691,164.557 823.8461,162.788 C824.7131,162.334 825.5631,161.464 826.2751,162.829 C826.7561,163.75 826.0311,164.388 825.3601,164.879 C822.5531,166.934 819.4631,167.385 816.5301,165.494 C813.5321,163.561 812.0621,160.582 812.9381,156.956 C813.7711,153.509 815.6431,150.86 819.5751,150.569 C822.9781,150.318 825.2441,152.012 826.6041,155.03 C827.8961,157.896 827.7871,159.875 823.8081,159.666 C821.1911,159.529 818.5621,159.64 815.0851,159.64" id="Fill-66" fill="#ABAAAC"></path>
            <path d="M671.1531,163.8359 C674.5381,163.7649 676.4171,162.1729 676.5401,158.7109 C676.6621,155.2449 674.6101,153.1989 671.5661,153.0469 C668.4641,152.8929 666.2921,154.8659 666.2041,158.2919 C666.1191,161.6379 667.7561,163.5599 671.1531,163.8359 M671.2571,150.5649 C675.7001,150.5239 679.1811,153.8739 679.3181,158.3219 C679.4591,162.8859 675.7621,166.6639 671.2291,166.5899 C666.8571,166.5189 663.4081,162.9669 663.4291,158.5559 C663.4501,154.0939 666.8671,150.6049 671.2571,150.5649" id="Fill-68" fill="#ABAAAC"></path>
            <path d="M752.2994,160.2 C751.6294,158.178 749.7534,158.737 748.2434,158.664 C746.1064,158.559 743.9324,159.077 743.8874,161.572 C743.8524,163.5 745.8474,164.23 747.5464,164.11 C749.7864,163.951 751.6754,162.947 752.2994,160.2 M752.5854,156.563 C749.9334,151.389 745.7854,154.57 742.5914,153.199 C744.4064,150.036 747.2814,150.372 749.8814,150.804 C752.5664,151.251 754.2204,153.118 754.4474,155.954 C754.5524,157.272 754.6344,158.619 754.4854,159.926 C754.2534,161.968 755.4604,165.519 753.6124,165.733 C750.8404,166.054 747.9224,167.435 744.9694,166.242 C742.5784,165.276 741.0154,163.845 741.2764,161.058 C741.5324,158.317 743.2024,156.872 745.7854,156.604 C747.7364,156.401 749.7254,156.563 752.5854,156.563" id="Fill-70" fill="#ABAAAC"></path>
            <path d="M334.5873,158.5538 C334.4973,155.2598 332.8413,152.8808 329.5603,152.9728 C326.5033,153.0578 324.3733,155.0368 324.3613,158.5168 C324.3493,161.9808 326.3913,164.0268 329.4963,164.0738 C332.6673,164.1228 334.6613,162.0498 334.5873,158.5538 M337.4633,158.6978 C337.3833,163.0958 333.8183,166.6128 329.4733,166.5838 C325.0613,166.5548 321.5933,163.0758 321.5603,158.6458 C321.5253,154.0278 325.1243,150.4978 329.8193,150.5468 C334.0703,150.5908 337.5443,154.2958 337.4633,158.6978" id="Fill-72" fill="#ABAAAC"></path>
            <path d="M765.5259,158.1474 C765.5249,157.9814 765.5249,157.8154 765.5249,157.6494 C765.5179,150.6904 765.5179,150.6904 772.6739,150.5404 C776.9129,150.4514 779.1259,152.9224 779.2929,158.0364 C779.3639,160.1944 779.3239,162.3564 779.2779,164.5154 C779.2589,165.4024 778.8499,166.2394 777.8619,166.1874 C776.8739,166.1354 776.5939,165.2624 776.5869,164.3724 C776.5699,162.2124 776.4989,160.0494 776.5899,157.8934 C776.7039,155.1654 775.6399,153.0414 772.8659,152.9974 C769.9849,152.9514 768.4859,155.0184 768.3899,157.9124 C768.3339,159.5724 768.4469,161.2394 768.3529,162.8954 C768.2839,164.1054 768.9769,166.0044 767.0729,166.1294 C765.0749,166.2614 765.6079,164.3424 765.5479,163.1314 C765.4649,161.4734 765.5269,159.8094 765.5259,158.1474" id="Fill-74" fill="#ABAAAC"></path>
            <path d="M540.5327,156.7434 C542.8707,157.9344 544.8757,157.3104 546.8037,157.4234 C547.7467,157.4784 548.9577,157.6404 549.2487,156.3394 C549.4947,155.2364 548.7247,154.4074 547.9037,153.8434 C544.3817,151.4204 542.4607,153.5364 540.5327,156.7434 M540.6357,159.6424 C543.1107,166.0504 547.5247,163.0564 552.0307,162.4694 C549.6057,166.5894 546.5717,167.2504 543.3157,166.1994 C538.9967,164.8044 537.7047,161.2304 538.3447,157.0434 C538.9327,153.1974 541.1467,150.6274 545.2927,150.5834 C549.1717,150.5424 551.3697,152.9314 552.3347,156.4434 C552.9747,158.7714 551.8537,159.7804 549.4297,159.6704 C546.6767,159.5464 543.9147,159.6424 540.6357,159.6424" id="Fill-76" fill="#ABAAAC"></path>
            <path d="M471.4432,158.1414 C471.3322,154.9744 469.1502,152.9454 465.8582,152.9564 C462.7082,152.9674 460.6702,155.2614 460.6362,158.4654 C460.5992,161.9854 462.8572,164.1184 466.2402,164.0544 C469.3642,163.9954 471.3512,162.0054 471.4432,158.1414 M474.0872,158.4264 C473.9892,162.8184 469.9352,166.8014 465.7852,166.5834 C461.3672,166.3504 458.2032,162.8604 458.3172,158.3454 C458.4322,153.7864 461.7502,150.4934 466.1652,150.5544 C470.5262,150.6154 474.1812,154.2474 474.0872,158.4264" id="Fill-78" fill="#ABAAAC"></path>
            <path d="M655.223,145.7887 C655.326,147.6587 653.944,147.2447 652.854,147.3357 C651.622,147.4377 650.476,147.7867 650.583,149.3377 C650.679,150.7297 651.867,150.5727 652.818,150.6697 C653.79,150.7687 655.047,150.6737 655.138,151.9537 C655.231,153.2717 653.989,153.4287 653.019,153.3987 C650.246,153.3117 650.338,155.1707 650.359,157.0707 C650.387,159.5527 650.379,162.0347 650.356,164.5167 C650.348,165.4237 649.95,166.1747 648.968,166.2177 C648.278,166.2477 647.521,165.7187 647.653,165.0447 C648.791,159.2307 644.84,153.3287 648.038,147.5327 C648.994,145.8017 650.413,144.7697 652.099,144.1147 C653.561,143.5467 654.619,144.3587 655.223,145.7887" id="Fill-80" fill="#ABAAAC"></path>
            <path d="M802.9822,154.0755 C801.6142,155.3835 800.5792,153.9575 799.4062,153.6415 C797.0062,152.9955 794.6882,153.0065 793.1412,155.2825 C791.7142,157.3825 791.6842,159.7215 793.1532,161.8105 C794.8702,164.2545 797.3282,164.1155 799.8852,163.3435 C800.9422,163.0235 802.0702,160.8155 803.0572,162.8915 C803.7352,164.3185 801.9522,165.0655 800.8312,165.6885 C797.3222,167.6375 792.5412,166.2715 790.3542,162.7505 C788.1632,159.2205 789.4132,154.0895 793.0232,151.7985 C796.7432,149.4375 800.4892,150.2925 802.9822,154.0755" id="Fill-82" fill="#ABAAAC"></path>
            <path d="M907.5612,146.3267 C908.7212,147.0297 909.2122,147.2097 909.1982,147.3367 C908.7932,151.2287 913.3792,149.8717 913.9512,151.4777 C915.1922,154.9647 908.8552,151.8827 909.6202,155.4777 C910.2562,158.4637 906.8842,163.3937 913.3432,163.8377 C914.0972,163.8897 914.5662,164.5327 914.2412,165.2217 C914.0002,165.7317 913.3782,166.3247 912.8582,166.3987 C909.7022,166.8437 907.8082,165.5377 907.3552,162.2497 C906.9042,158.9697 908.2652,155.5797 905.7812,152.3217 C904.8612,151.1147 908.1292,149.0687 907.5612,146.3267" id="Fill-84" fill="#ABAAAC"></path>
            <path d="M689.5503,158.3348 C689.5513,157.6718 689.4733,156.9978 689.5663,156.3488 C689.8143,154.6078 689.2163,151.1908 690.1763,151.4088 C692.8043,152.0068 694.9463,150.9528 697.2943,150.7798 C697.6013,150.7578 698.1043,151.2948 698.2523,151.6748 C698.5273,152.3868 698.1183,153.0908 697.4673,153.2548 C692.3563,154.5458 692.1673,158.4358 692.2773,162.6328 C692.3113,163.9128 693.0923,166.1478 690.7973,166.0838 C689.0243,166.0348 689.6443,164.0318 689.5713,162.8078 C689.4813,161.3218 689.5493,159.8258 689.5503,158.3348" id="Fill-86" fill="#ABAAAC"></path>
            <path d="M400.2277,155.349 C400.2277,158.175 400.2407,161.002 400.2207,163.828 C400.2137,164.819 400.2587,166.004 398.9497,166.165 C397.5497,166.337 397.4187,165.189 397.4147,164.174 C397.3957,158.188 397.3947,152.203 397.4227,146.218 C397.4267,145.425 397.4217,144.377 398.5337,144.334 C399.8187,144.285 400.1467,145.346 400.1637,146.373 C400.2147,149.364 400.1817,152.357 400.1817,155.349 L400.2277,155.349" id="Fill-88" fill="#ABAAAC"></path>
            <path d="M983.6518,151.0302 C983.9268,151.2722 984.1428,151.6192 984.4188,151.6762 C985.4268,151.8872 986.3928,154.7652 985.6798,155.6212 C983.7558,157.9302 984.5688,160.6912 984.3638,163.2892 C984.2798,164.3462 984.8268,166.0312 983.1238,166.0012 C981.6808,165.9762 981.7128,164.4012 981.7028,163.2512 C981.6738,160.0942 981.6438,156.9342 981.7228,153.7782 C981.7538,152.5242 981.6458,150.9702 983.6518,151.0302" id="Fill-90" fill="#ABAAAC"></path>
            <path d="M308.5139,155.4721 C308.5139,152.4871 308.4989,149.5021 308.5229,146.5181 C308.5309,145.6451 308.8419,144.7261 309.8219,144.7431 C310.7649,144.7601 311.1459,145.6611 311.1499,146.5361 C311.1749,152.5061 311.1759,158.4751 311.1589,164.4451 C311.1559,165.3191 310.8229,166.2041 309.8299,166.1911 C308.8569,166.1781 308.5039,165.3181 308.4979,164.4271 C308.4779,161.4421 308.4899,158.4571 308.4899,155.4721 L308.5139,155.4721" id="Fill-92" fill="#ABAAAC"></path>
            <path d="M527.4228,155.6153 C527.4298,158.4363 527.4558,161.2573 527.4138,164.0773 C527.4018,164.8513 527.5388,165.9103 526.4238,166.0393 C525.1328,166.1883 524.6938,165.1633 524.6838,164.1403 C524.6258,158.3333 524.6258,152.5263 524.6468,146.7193 C524.6498,145.6933 524.9228,144.6393 526.2638,144.7593 C527.3338,144.8553 527.3928,145.8443 527.4018,146.6553 C527.4368,149.6413 527.4158,152.6283 527.4228,155.6153" id="Fill-94" fill="#ABAAAC"></path>
            <path d="M628.3015,158.2275 C628.2995,156.9005 628.1845,155.5605 628.3285,154.2495 C628.5035,152.6715 627.3455,149.4355 631.2005,152.1335 C632.6925,153.1775 635.5865,148.4875 636.9135,151.8065 C637.8495,154.1495 633.5045,153.2215 632.3165,155.2105 C631.0055,157.4035 631.2955,159.6555 631.1005,161.9355 C630.9725,163.4395 631.7985,165.9285 629.4895,165.9085 C627.4755,165.8905 628.5025,163.5335 628.3385,162.2045 C628.1775,160.8975 628.3035,159.5545 628.3015,158.2275" id="Fill-96" fill="#ABAAAC"></path>
            <path d="M513.3999,158.2726 C512.3589,160.8406 515.0689,165.5096 511.5869,165.7326 C509.1479,165.8886 510.4779,160.9126 510.5759,158.3656 C510.6699,155.9326 508.5239,151.5136 512.0079,151.3556 C514.5509,151.2406 512.4579,155.8816 513.3999,158.2726" id="Fill-98" fill="#ABAAAC"></path>
            <path d="M97.5291,48.6403 C97.3911,47.6823 97.2531,46.7253 97.1151,45.7683 C97.2801,45.7503 97.4521,45.6943 97.6101,45.7223 C99.2111,46.0013 102.0461,44.4803 102.0591,47.0843 C102.0701,49.5483 99.1311,48.1953 97.5291,48.6403" id="Fill-100" fill="#D4D4D6"></path>
            <path d="M142.2982,174.6275 C143.5232,175.0855 144.7472,175.5435 145.9692,176.0005 C144.4692,176.2765 143.2342,175.8515 142.2982,174.6275" id="Fill-102" fill="#B64F31"></path>
            <g id="Group-106" transform="translate(150.000000, 175.434000)">
                <mask id="mask-6" fill="white">
                    <use xlink:href="#path-5"></use>
                </mask>
                <g id="Clip-105"></g>
                <path d="M0.4769,0.7382 C1.0229,0.5252 1.5689,0.3132 2.1129,0.1002 C1.6789,0.6002 1.2189,1.0302 0.4769,0.7382" id="Fill-104" fill="#B64F31" mask="url(#mask-6)"></path>
            </g>
        </g>
    </g>
</svg>