<?xml version="1.0" encoding="UTF-8" standalone="no"?>
<svg width="2458px" height="925px" viewBox="0 0 2458 925" version="1.1" xmlns="http://www.w3.org/2000/svg" xmlns:xlink="http://www.w3.org/1999/xlink">
    <!-- Generator: Sketch 3.8.3 (29802) - http://www.bohemiancoding.com/sketch -->
    <title>neufcegetel</title>
    <desc>Created with Sketch.</desc>
    <defs></defs>
    <g id="Page-1" stroke="none" stroke-width="1" fill="none" fill-rule="evenodd">
        <g id="neufcegetel" fill="#6F164F">
            <path d="M291.032377,102.206342 C277.005351,89.5856438 253.16199,83.2817534 220.212686,83.9793151 L109.404346,83.9793151 L109.404346,384.150425 L0.00387486911,384.150425 L0.00387486911,8.22928767 L232.121451,8.22928767 L298.743367,11.7429315 C316.981084,14.5331781 333.10054,18.7573014 346.417173,24.3636301 C359.759639,30.6675205 370.970927,38.3923699 381.484739,47.5123425 C394.827205,59.4225616 405.341016,74.8593425 411.644137,92.3888082 C417.97309,110.628753 421.460472,132.369425 421.460472,156.91326 L421.460472,384.150425 L312.072917,384.150425 L312.072917,162.519589 C312.783309,134.475027 305.75688,114.142397 291.032377,102.206342 L291.032377,102.206342 Z" id="Fill-1"></path>
            <path d="M1439.01272,8.22541233 L1439.01272,384.159467 L1206.89515,384.159467 L1140.97071,379.948262 C1122.0226,377.842659 1105.90314,373.644371 1092.57359,368.025125 C1079.26988,361.708316 1068.03276,353.996385 1057.50603,344.876412 C1044.20231,332.953275 1033.6885,317.529412 1027.35955,299.999947 C1021.05643,281.760001 1017.54321,260.01933 1017.54321,234.765015 L1017.54321,8.22541233 L1126.9566,8.22541233 L1126.9566,229.856248 C1126.24621,257.913727 1133.25972,278.246358 1147.98422,290.169495 C1162.02416,302.803111 1185.85461,309.107001 1218.81683,308.40944 L1329.61225,308.40944 L1329.61225,8.22541233 L1439.01272,8.22541233" id="Fill-3"></path>
            <path d="M1887.11938,238.2722 L1625.56571,238.2722 L1625.56571,384.153008 L1507.03347,384.153008 L1507.03347,154.112679 C1507.74386,118.343268 1513.34951,90.285789 1525.27119,69.9531589 C1537.19287,49.607611 1552.62776,35.5788712 1572.97082,26.4718164 C1592.59058,17.338926 1615.03899,12.4430767 1639.57982,10.3245562 L1715.3206,8.21895342 L1932.70076,8.21895342 L1932.70076,83.9818986 L1804.37801,83.9818986 L1733.53248,84.6665425 L1676.73982,90.9833507 C1660.63328,94.4969945 1648.00121,101.511364 1638.86943,111.328899 C1629.76349,121.843995 1625.56571,136.583214 1625.56571,155.507803 L1625.56571,171.642145 L1887.11938,171.642145 L1887.11938,238.2722" id="Fill-5"></path>
            <g id="Group-9" transform="translate(480.900524, 0.827062)">
                <path d="M471.419599,97.8798466 C470.037563,82.4559836 466.511432,68.414326 460.208312,55.7936274 C453.892275,42.4624493 443.365547,31.9473534 429.351437,23.5378603 C416.021887,15.1154493 396.389217,9.50912055 371.84838,5.99547671 C282.196825,-2.05231781 177.911181,-1.70353699 88.5308665,5.99547671 C80.8069607,7.40351781 72.411411,9.50912055 63.9900288,11.6147233 C55.5815628,14.4049699 47.8705733,17.9315315 40.1466675,22.1298192 C32.4485942,26.3410247 25.4221649,31.9473534 20.5139974,38.2641616 C14.210877,46.6865726 9.98726963,55.0960658 6.4869712,64.2160384 C3.68414921,72.6255315 2.28919634,81.7455041 1.57880366,90.8654767 C0.868410995,99.9854493 0.170934555,110.500545 0.868410995,121.726121 C0.868410995,139.255586 1.57880366,153.284326 2.28919634,164.509901 C2.97375654,175.024997 5.07910209,184.14497 7.19736387,191.15934 C9.28979319,198.17371 12.8030079,203.780038 17.013699,207.991244 C23.3168194,215.703175 31.7252853,221.322422 40.844144,225.52071 C49.9759188,230.429477 61.1872068,233.245559 74.5167565,235.338244 C168.998982,242.598052 266.891092,236.578353 362.729521,238.141408 L362.729521,262.698162 C362.729521,273.910819 359.926699,283.030792 354.321055,289.3476 C348.702495,295.664408 339.596552,300.560258 327.674872,303.37634 L296.107605,307.587545 L230.893558,310.39071 L169.890202,308.982668 L136.927982,304.073901 C127.796207,301.270737 121.493086,297.770011 117.992788,293.558805 C114.479573,290.045162 112.387144,285.136395 112.387144,280.227627 L3.68414921,280.227627 L3.68414921,294.256367 C2.97375654,307.587545 5.77657853,320.208244 11.3951387,332.131381 C17.013699,344.054518 26.830034,354.582532 41.5545366,363.702504 C55.5815628,372.111997 75.214233,378.415888 101.150024,381.929532 L139.730804,385.430258 L216.156139,388.24634 L293.304783,386.140737 L334.688385,381.929532 C375.361594,377.020764 406.218469,366.492751 427.956484,348.963285 C448.984107,331.420901 462.313657,308.982668 468.616777,280.938107 C470.735039,271.120573 472.129992,258.486956 472.840385,242.352614 L474.235338,189.751299 L473.524945,137.149984 L471.419599,97.8798466 Z M362.729521,146.269956 L362.729521,171.524271 L178.996144,171.524271 L133.414767,168.010627 C122.900955,165.207463 115.874526,160.298696 112.387144,153.981888 C108.873929,146.980436 107.478976,137.149984 107.478976,124.529285 L107.478976,123.831723 C107.478976,111.908586 109.571406,102.788614 114.479573,97.1693671 C119.400657,90.8654767 127.796207,86.6542712 139.730804,84.5486685 L169.179809,82.4559836 C183.904312,81.7455041 206.35272,81.0479425 235.104249,81.0479425 L301.028688,82.4559836 L329.069825,84.5486685 C340.991505,86.6542712 349.412887,90.1549973 355.018531,95.7742438 C359.926699,101.380573 362.032045,109.802984 362.729521,121.028559 L362.729521,146.269956 L362.729521,146.269956 Z" id="Fill-7"></path>
            </g>
            <path d="M741.939271,594.572478 L648.671172,594.572478 C612.919046,594.572478 588.378208,600.876368 575.048659,613.497067 C561.706193,625.420204 554.705596,647.160875 554.705596,677.323958 C554.705596,694.866341 557.508418,709.579725 562.429502,721.515779 C568.035146,732.728437 576.443612,741.84841 588.378208,748.862779 C593.983852,752.376423 600.299889,754.482026 608.010879,756.574711 L648.671172,757.969834 L741.939271,757.969834 L741.939271,819.716958 L626.23568,819.716958 C600.299889,819.716958 578.548957,816.900875 561.706193,811.992108 C544.889261,806.372862 530.164758,797.252889 517.545601,785.34267 C504.216051,772.011492 493.70224,756.574711 485.978334,737.637204 C478.280261,718.699697 474.75413,698.367067 474.75413,677.323958 C474.75413,654.885725 478.280261,633.842615 485.978334,614.905108 C493.70224,595.954684 504.216051,579.833259 517.545601,566.514999 C530.164758,554.578944 544.889261,545.471889 561.706193,539.86556 C579.246434,534.956793 600.299889,532.153629 626.23568,532.153629 L741.939271,532.153629 L741.939271,594.572478" id="Fill-10"></path>
            <g id="Group-14" transform="translate(1124.712042, 531.457199)">
                <path d="M289.754679,277.722703 C289.754679,317.703319 280.63582,346.45836 263.108495,365.395867 C245.568254,384.320456 217.527118,393.453347 180.367124,393.453347 L31.6883958,393.453347 L31.6883958,333.837662 L167.747966,333.837662 C181.762076,333.837662 192.973364,330.324018 200.69727,324.020127 C208.395343,316.99284 212.618951,306.490662 212.618951,293.159484 L212.618951,288.250716 L150.892286,288.250716 C119.350851,288.250716 96.2049665,286.132196 81.4804639,281.223429 C67.4663539,276.327579 54.8471969,268.60273 42.8996838,256.679593 C29.5830503,243.361333 19.0692387,227.22699 11.345333,208.289484 C3.63434346,188.654415 0.121128796,167.624223 0.121128796,145.173073 C0.121128796,123.432401 3.63434346,102.389292 11.345333,82.7413055 C19.0692387,63.7908808 29.5830503,47.682374 42.8996838,34.3511959 C54.8471969,22.4280589 69.5587832,13.3080863 86.3886314,8.39931918 C102.521003,3.49055205 124.259019,0.700305479 150.892286,0.700305479 L289.754679,0.700305479 L289.754679,277.722703 Z M133.377877,64.5013603 C125.653972,65.9223192 119.350851,68.0150041 113.732291,71.5157301 C101.823527,78.5301 93.3892283,87.6629904 87.7835843,99.5732096 C82.8754168,111.496347 80.085511,126.235566 80.085511,145.173073 C80.085511,176.033716 87.0861079,197.774388 100.402741,210.395086 C113.732291,222.318223 138.273129,228.622114 173.340694,228.622114 L212.618951,228.622114 L212.618951,62.4086753 L173.340694,62.4086753 L133.377877,64.5013603 L133.377877,64.5013603 Z" id="Fill-12"></path>
            </g>
            <path d="M1918.69181,532.152337 L1999.31492,532.152337 L1999.31492,588.95194 L1918.69181,588.95194 L1918.69181,706.077707 C1918.69181,727.818378 1922.19211,742.544679 1929.9031,750.269529 C1936.9037,758.679022 1949.53577,762.890227 1967.77349,762.890227 L1999.31492,762.890227 L1999.31492,819.715666 L1929.9031,819.715666 C1901.84905,819.715666 1880.12395,811.990816 1864.67614,796.554036 C1849.96455,781.117255 1842.95104,758.679022 1842.95104,729.936899 L1842.95104,588.95194 L1788.2508,588.95194 L1788.2508,532.152337 L1842.95104,532.152337 L1842.95104,425.541666 L1918.69181,425.541666 L1918.69181,532.152337" id="Fill-15"></path>
            <polygon id="Fill-17" points="2378.00717 819.719541 2457.94572 819.719541 2457.94572 425.545541 2378.00717 425.545541"></polygon>
            <path d="M1079.94927,736.946101 L998.615768,736.946101 C996.523338,741.854868 993.7076,745.355595 990.194385,748.869238 C981.773003,755.87069 964.943155,759.384334 940.402317,760.081896 L920.072171,760.081896 C894.123464,759.384334 877.293616,755.87069 869.582626,748.869238 C860.463768,741.144389 855.5556,727.115649 854.845207,706.783019 L1086.96278,706.783019 L1088.37065,675.909458 C1088.37065,628.940307 1076.46189,593.157978 1051.89522,568.614142 C1027.35438,544.070307 991.615171,531.449608 943.915532,531.449608 L915.86148,531.449608 C868.174757,531.449608 832.409715,544.070307 807.868877,568.614142 C783.32804,593.157978 770.708883,628.940307 770.708883,675.909458 C770.708883,722.904444 782.617647,758.686773 807.158485,783.230608 C831.712239,807.774444 867.464364,819.710499 914.45361,819.710499 L944.600092,819.710499 C991.615171,819.710499 1027.35438,807.774444 1051.89522,783.230608 C1064.52729,771.307471 1073.64615,755.87069 1079.94927,736.946101 M1004.91889,647.167334 L854.845207,647.167334 C855.5556,626.137142 861.17416,611.397923 870.280103,603.685992 C879.398961,595.961142 898.334155,591.775773 926.388207,591.775773 L936.204542,591.775773 C962.140333,591.775773 979.667658,595.961142 988.799432,603.685992 C998.615768,611.397923 1004.23433,626.137142 1004.91889,647.167334" id="Fill-19"></path>
            <path d="M1767.92195,736.946101 L1685.85222,736.946101 L1677.44375,748.869238 C1669.73276,755.87069 1652.91583,759.384334 1628.33625,760.081896 L1607.32154,760.081896 C1582.07031,759.384334 1565.25338,755.87069 1556.81908,748.869238 C1547.71314,741.144389 1543.48953,727.115649 1542.80497,706.783019 L1774.21215,706.783019 C1775.63294,696.965485 1776.3175,686.450389 1776.3175,675.909458 C1776.3175,628.940307 1764.40873,593.157978 1739.85498,568.614142 C1715.32706,544.070307 1678.85162,531.449608 1631.15198,531.449608 L1603.12376,531.449608 C1555.43704,531.449608 1519.65908,544.070307 1495.11825,568.614142 C1470.56449,593.157978 1457.93242,628.940307 1457.93242,675.909458 C1457.93242,722.904444 1469.87993,758.686773 1494.40785,783.230608 C1518.96161,807.774444 1554.72665,819.710499 1601.70298,819.710499 L1631.86238,819.710499 C1679.5491,819.710499 1715.32706,807.774444 1739.85498,783.230608 C1751.77666,771.307471 1761.59299,755.87069 1767.92195,736.946101 M1692.18117,647.167334 L1542.80497,647.167334 C1543.48953,626.137142 1548.41061,611.397923 1557.52947,603.685992 C1567.35872,595.961142 1586.281,591.775773 1613.62466,591.775773 L1623.44099,591.775773 C1649.3897,591.775773 1667.62742,595.961142 1676.73336,603.685992 C1685.85222,611.397923 1691.47078,626.137142 1692.18117,647.167334" id="Fill-20"></path>
            <path d="M2323.31985,736.946101 L2241.96052,736.946101 C2239.85517,741.854868 2237.05235,745.355595 2233.56497,748.869238 C2225.13067,755.87069 2208.31374,759.384334 2183.7729,760.081896 L2162.71945,760.081896 C2137.46821,759.384334 2120.65128,755.87069 2112.2299,748.869238 C2103.12396,741.144389 2098.92618,727.115649 2098.20287,706.783019 L2329.61006,706.783019 C2331.74124,696.965485 2332.4258,686.450389 2332.4258,675.909458 C2332.4258,628.940307 2319.80664,593.157978 2295.2658,568.614142 C2270.72496,544.070307 2234.26245,531.449608 2187.26028,531.449608 L2159.20623,531.449608 C2110.83495,531.449608 2075.05699,544.070307 2050.52907,568.614142 C2025.98823,593.157978 2014.05363,628.940307 2014.05363,675.909458 C2014.05363,722.904444 2025.98823,758.686773 2050.52907,783.230608 C2075.05699,807.774444 2110.12455,819.710499 2157.1138,819.710499 L2187.26028,819.710499 C2234.94701,819.710499 2270.72496,807.774444 2295.2658,783.230608 C2307.88496,771.307471 2317.00382,755.87069 2323.31985,736.946101 M2247.57908,647.167334 L2098.20287,647.167334 C2098.92618,626.137142 2104.51891,611.397923 2113.65069,603.685992 C2122.75663,595.961142 2141.67891,591.775773 2169.73296,591.775773 L2179.54929,591.775773 C2205.51092,591.775773 2223.02532,595.961142 2232.14418,603.685992 C2241.27596,611.397923 2246.86869,626.137142 2247.57908,647.167334" id="Fill-21"></path>
        </g>
    </g>
</svg>