<?xml version="1.0" encoding="UTF-8" standalone="no"?>
<svg width="1833px" height="365px" viewBox="0 0 1833 365" version="1.1" xmlns="http://www.w3.org/2000/svg" xmlns:xlink="http://www.w3.org/1999/xlink">
    <!-- Generator: Sketch 3.8.3 (29802) - http://www.bohemiancoding.com/sketch -->
    <title>onmobile</title>
    <desc>Created with Sketch.</desc>
    <defs></defs>
    <g id="Page-1" stroke="none" stroke-width="1" fill="none" fill-rule="evenodd">
        <g id="onmobile" transform="translate(-1.000000, 0.000000)">
            <path d="M838.755997,130.940653 L838.755997,130.940653 C845.359449,130.940653 850.754858,136.402326 850.754858,143.079688 L850.754858,150.697486 C886.741247,115.281986 936.474844,126.931688 958.877136,163.985944 C997.628768,106.634549 1075.20339,128.21109 1091.32591,194.457139 L1091.32591,298.055632 C1091.32591,309.751208 1068.53368,310.627931 1068.65091,298.055632 L1069.35688,218.465056 C1070.10362,134.019375 985.963775,137.286694 969.063935,190.889083 C970.649171,199.217944 971.097726,208.201799 970.167483,217.718313 L970.167483,299.003715 C970.167483,309.328139 950.632379,309.746111 950.632379,298.552611 L950.632379,213.230208 C950.632379,146.706361 879.617879,132.327097 850.754858,186.036528 L850.754858,293.554785 C850.754858,300.229597 845.359449,305.693819 838.755997,305.693819 C832.157643,305.693819 826.754588,300.229597 826.754588,293.554785 L826.754588,143.079688 C826.754588,136.402326 832.157643,130.940653 838.755997,130.940653" id="Fill-1" fill="#575756"></path>
            <path d="M654.65478,130.316243 L654.65478,130.316243 C661.329592,130.316243 666.793815,135.770271 666.793815,142.445083 L666.793815,150.065431 C717.39394,100.821167 794.874266,142.575063 787.536815,217.083708 L787.536815,298.369111 C787.536815,308.693535 767.779981,309.111507 767.779981,297.920556 L767.779981,212.598153 C767.779981,146.074306 695.975412,131.700139 666.793815,185.412118 L666.793815,292.922729 C666.793815,299.597542 661.329592,305.059215 654.65478,305.059215 C647.987613,305.059215 642.523391,299.597542 642.523391,292.922729 L642.523391,142.445083 C642.523391,135.770271 647.987613,130.316243 654.65478,130.316243" id="Fill-3" fill="#575756"></path>
            <path d="M1206.8649,129.532035 C1253.0024,129.532035 1290.40327,168.915723 1290.40327,217.504994 C1290.40327,266.086619 1253.0024,305.470306 1206.8649,305.470306 C1160.72739,305.470306 1123.33417,266.086619 1123.33417,217.504994 C1123.33417,168.915723 1160.72739,129.532035 1206.8649,129.532035 M1206.8649,152.03882 C1241.19724,152.03882 1269.03317,181.342751 1269.03317,217.504994 C1269.03317,253.659591 1241.19724,282.963522 1206.8649,282.963522 C1172.53001,282.963522 1144.69663,253.659591 1144.69663,217.504994 C1144.69663,181.342751 1172.53001,152.03882 1206.8649,152.03882" id="Fill-5" fill="#575756"></path>
            <path d="M527.180388,129.628883 C573.317895,129.628883 610.721312,169.015119 610.721312,217.594195 C610.721312,266.186015 573.317895,305.569702 527.180388,305.569702 C481.04543,305.569702 443.649659,266.186015 443.649659,217.594195 C443.649659,169.015119 481.04543,129.628883 527.180388,129.628883 M527.180388,152.138216 C561.512728,152.138216 589.34611,181.442147 589.34611,217.594195 C589.34611,253.751341 561.512728,283.062917 527.180388,283.062917 C492.848048,283.062917 465.014666,253.751341 465.014666,217.594195 C465.014666,181.442147 492.848048,152.138216 527.180388,152.138216" id="Fill-7" fill="#575756"></path>
            <path d="M1336.0912,57.9295708 L1336.0912,57.9295708 C1342.75837,57.9295708 1348.22259,63.3937931 1348.22259,70.0686056 L1348.22259,160.077904 C1363.55249,141.829849 1386.14338,130.292286 1411.3415,130.292286 C1457.52998,130.292286 1494.96398,169.046467 1494.96398,216.843119 C1494.96398,264.644869 1457.52998,303.396501 1411.3415,303.396501 C1386.14338,303.396501 1363.55249,291.864036 1348.22259,273.615981 L1348.22259,293.354974 C1348.22259,300.029786 1342.75837,305.486363 1336.0912,305.486363 C1329.41639,305.486363 1323.95217,300.029786 1323.95217,293.354974 L1323.95217,70.0686056 C1323.95217,63.3937931 1329.41639,57.9295708 1336.0912,57.9295708 M1411.3415,152.663994 C1445.58973,152.663994 1473.3543,181.876175 1473.3543,217.910987 C1473.3543,253.940703 1445.58973,283.155432 1411.3415,283.155432 C1377.09836,283.155432 1349.33379,253.940703 1349.33379,217.910987 C1349.33379,181.876175 1377.09836,152.663994 1411.3415,152.663994" id="Fill-9" fill="#575756"></path>
            <path d="M1613.30185,58.2741431 L1613.30185,58.2741431 C1619.97666,58.2741431 1625.43834,63.7307194 1625.43834,70.4055319 L1625.43834,293.6919 C1625.43834,300.366712 1619.97666,305.830935 1613.30185,305.830935 C1606.62704,305.830935 1601.16282,300.366712 1601.16282,293.6919 L1601.16282,70.4055319 C1601.16282,63.7307194 1606.62704,58.2741431 1613.30185,58.2741431" id="Fill-11" fill="#575756"></path>
            <path d="M1543.72885,131.085669 L1543.72885,131.085669 C1550.40366,131.085669 1555.85769,136.547342 1555.85769,143.217058 L1555.85769,293.692155 C1555.85769,300.366967 1550.40366,305.828641 1543.72885,305.828641 C1537.05403,305.828641 1531.58981,300.366967 1531.58981,293.692155 L1531.58981,143.217058 C1531.58981,136.539697 1537.05403,131.085669 1543.72885,131.085669 M1543.72885,77.1468632 C1551.46898,77.1468632 1557.74621,83.4240924 1557.74621,91.1744188 C1557.74621,98.9170993 1551.46898,105.194328 1543.72885,105.194328 C1535.97852,105.194328 1529.70129,98.9170993 1529.70129,91.1744188 C1529.70129,83.4240924 1535.97852,77.1468632 1543.72885,77.1468632" id="Fill-13" fill="#575756"></path>
            <g id="Group-17" transform="translate(1663.694444, 128.522965)" fill="#575756">
                <path d="M24.6364792,73.0947514 C37.3667917,10.7073 128.647847,5.17426528 144.566472,73.0947514 L24.6364792,73.0947514 Z M153.975944,94.9847722 C184.689257,94.9847722 162.404201,51.9208903 155.018326,39.7614667 C145.741382,24.4748972 129.341069,10.5773208 107.344007,4.36125833 C5.84047222,-24.3335542 -45.7536111,129.26614 53.4587222,170.525606 C96.7213958,188.521349 144.125563,162.630008 155.082042,138.859113 C161.876639,124.123043 147.369944,110.314668 134.310861,128.381772 C99.6624931,176.285467 27.9343819,153.289349 22.8600972,94.9924181 L153.975944,94.9847722 Z" id="Fill-15"></path>
            </g>
            <path id="Fill-18" fill="#ED731A"></path>
            <path id="Fill-20" fill="#ED731A"></path>
            <g id="Group-24" transform="translate(0.000000, 0.092410)" fill="#ED731A">
                <path d="M176.290414,292.219672 C120.631296,292.219672 75.5157819,248.490603 75.5157819,194.5467 C75.5157819,140.592603 120.631296,96.8635333 176.290414,96.8635333 C189.713949,96.8635333 202.515622,99.4299847 214.229039,104.048068 L237.926025,117.290651 C261.724956,135.156415 277.065046,163.104485 277.065046,194.5467 C277.065046,248.490603 231.944435,292.219672 176.290414,292.219672 M283.428928,60.1176583 L327.1529,24.6409917 L356.964004,0.457220833 L356.964004,0.457220833 L254.283011,24.6409917 L207.549129,24.6409917 L176.320997,24.6409917 L176.290414,24.6409917 L176.259831,24.6409917 C79.4610319,24.6588319 0.999490278,100.714485 0.999490278,194.5467 C0.999490278,288.378915 79.4763236,364.452408 176.290414,364.452408 C273.086664,364.452408 351.5584,288.394207 351.573692,194.577283 L351.573692,194.516117 C351.571143,174.096644 347.845074,154.520763 341.030087,136.384846 C329.586824,105.936589 309.391629,79.5890472 283.428928,60.1176583" id="Fill-22"></path>
            </g>
        </g>
    </g>
</svg>