<?xml version="1.0" encoding="UTF-8" standalone="no"?>
<svg width="365px" height="102px" viewBox="0 0 365 102" version="1.1" xmlns="http://www.w3.org/2000/svg" xmlns:xlink="http://www.w3.org/1999/xlink">
    <!-- Generator: Sketch 3.8.2 (29753) - http://www.bohemiancoding.com/sketch -->
    <title>ooreka</title>
    <desc>Created with Sketch.</desc>
    <defs></defs>
    <g id="Page-1" stroke="none" stroke-width="1" fill="none" fill-rule="evenodd">
        <g id="ooreka" transform="translate(0.000000, -1.000000)">
            <g id="Group-39" transform="translate(0.000000, 0.659000)">
                <path d="M87.589,40.501 C87.568,40.302 87.545,40.104 87.523,39.906 C87.504,39.741 87.484,39.58 87.467,39.417 L82.838,40.143 C82.249,51.036 73.23,59.687 62.188,59.687 C57.316,59.687 52.84,57.999 49.306,55.175 C48.582,56.687 46.713,59.642 44.189,61.102 C41.668,59.643 39.796,56.69 39.074,55.178 C35.54,57.999 31.064,59.687 26.192,59.687 C15.15,59.687 6.133,51.036 5.542,40.143 L0.915,39.417 C0.873,39.779 0.829,40.138 0.793,40.501 L0.791,40.501 C0.273,45.458 0,50.486 0,55.58 C0,72.641 9.678,87.437 23.837,94.798 C23.96,94.583 24.093,94.37 24.244,94.173 C24.686,93.846 25.234,93.65 25.828,93.65 C26.421,93.65 26.967,93.846 27.411,94.173 C27.884,94.801 28.214,95.536 28.373,96.336 C28.532,95.536 28.86,94.802 29.334,94.173 C29.777,93.846 30.324,93.65 30.92,93.65 C31.512,93.65 32.061,93.846 32.505,94.173 C32.976,94.798 33.305,95.533 33.465,96.327 C33.626,95.533 33.954,94.798 34.423,94.173 C34.869,93.846 35.419,93.65 36.012,93.65 C36.605,93.65 37.153,93.846 37.594,94.173 C38.153,94.908 38.523,95.791 38.638,96.754 C38.662,96.962 38.674,97.172 38.674,97.386 C38.674,98.086 38.533,98.752 38.287,99.365 C40.219,99.622 42.185,99.769 44.187,99.769 C46.194,99.769 48.168,99.623 50.106,99.361 C49.861,98.749 49.719,98.086 49.719,97.386 C49.719,97.172 49.734,96.962 49.757,96.754 C49.868,95.792 50.241,94.908 50.799,94.173 C51.242,93.846 51.79,93.65 52.384,93.65 C52.977,93.65 53.525,93.846 53.967,94.173 C54.44,94.798 54.768,95.533 54.929,96.327 C55.087,95.533 55.418,94.798 55.892,94.173 C56.331,93.846 56.884,93.65 57.477,93.65 C58.068,93.65 58.617,93.846 59.06,94.173 C59.534,94.801 59.864,95.54 60.022,96.341 C60.181,95.539 60.508,94.801 60.986,94.173 C61.425,93.846 61.976,93.65 62.565,93.65 C63.165,93.65 63.711,93.846 64.154,94.173 C64.301,94.37 64.435,94.575 64.555,94.79 C78.702,87.426 88.371,72.643 88.377,55.591 L88.377,55.579 L88.377,55.568 C88.379,50.478 88.107,45.453 87.589,40.501" id="Fill-3" fill="#E83B3B"></path>
                <path d="M44.19,49.191 C42.879,51.501 41.136,53.532 39.073,55.178 C39.795,56.69 41.668,59.642 44.188,61.102 C46.712,59.643 48.581,56.687 49.305,55.175 C47.243,53.529 45.501,51.501 44.19,49.191" id="Fill-5" fill="#FAC800"></path>
                <path d="M26.176,23.765 C34.593,23.765 41.416,30.588 41.416,39.004 C41.416,47.422 34.593,54.245 26.176,54.245 C17.759,54.245 10.936,47.422 10.936,39.004 C10.936,30.588 17.759,23.765 26.176,23.765 M62.193,23.765 C70.608,23.765 77.433,30.588 77.433,39.004 C77.433,47.422 70.608,54.245 62.193,54.245 C53.776,54.245 46.952,47.422 46.952,39.004 C46.953,30.588 53.776,23.765 62.193,23.765 M0.914,39.417 L5.541,40.143 C6.133,51.036 15.15,59.687 26.191,59.687 C31.063,59.687 35.539,57.999 39.073,55.178 C41.136,53.532 42.879,51.501 44.19,49.191 C45.501,51.501 47.243,53.529 49.306,55.175 C52.84,57.999 57.316,59.687 62.188,59.687 C73.23,59.687 82.249,51.036 82.838,40.143 L87.467,39.417 C87.484,39.58 87.503,39.741 87.523,39.906 C87.545,40.104 87.568,40.302 87.589,40.501 L87.592,40.501 L88.379,39.272 L87.677,34.799 L86.892,34.924 L82.587,35.6 C80.963,25.798 72.451,18.322 62.188,18.322 C54.471,18.322 47.744,22.552 44.19,28.819 C40.636,22.552 33.909,18.322 26.191,18.322 C15.93,18.322 7.417,25.798 5.793,35.6 L1.488,34.924 L0.702,34.799 L0,39.272 L0.788,40.501 L0.791,40.501 L0.792,40.501 C0.828,40.137 0.873,39.779 0.914,39.417" id="Fill-7" fill="#4B4182"></path>
                <path d="M26.176,54.245 C34.593,54.245 41.416,47.422 41.416,39.004 C41.416,30.588 34.593,23.765 26.176,23.765 C17.759,23.765 10.936,30.588 10.936,39.004 C10.936,47.422 17.759,54.245 26.176,54.245" id="Fill-9" fill="#FFFFFF"></path>
                <path d="M62.193,54.245 C70.608,54.245 77.433,47.422 77.433,39.004 C77.433,30.588 70.608,23.765 62.193,23.765 C53.776,23.765 46.952,30.588 46.952,39.004 C46.953,47.422 53.776,54.245 62.193,54.245" id="Fill-11" fill="#FFFFFF"></path>
                <path d="M31.521,41.097 C34.57,41.097 37.044,38.622 37.044,35.573 C37.044,35.003 36.957,34.455 36.799,33.939 C36.365,34.899 35.407,35.573 34.282,35.573 C32.757,35.573 31.521,34.334 31.521,32.811 C31.521,31.687 32.193,30.726 33.155,30.295 C32.638,30.135 32.09,30.048 31.521,30.048 C28.473,30.048 25.998,32.52 25.998,35.573 C25.997,38.622 28.473,41.097 31.521,41.097" id="Fill-13" fill="#1D1D1B"></path>
                <path d="M67.536,41.097 C70.583,41.097 73.059,38.622 73.059,35.573 C73.059,35.003 72.972,34.455 72.813,33.939 C72.382,34.899 71.422,35.573 70.297,35.573 C68.771,35.573 67.535,34.334 67.535,32.811 C67.535,31.687 68.206,30.726 69.168,30.295 C68.651,30.135 68.104,30.048 67.535,30.048 C64.486,30.048 62.012,32.52 62.012,35.573 C62.013,38.622 64.487,41.097 67.536,41.097" id="Fill-15" fill="#1D1D1B"></path>
                <path d="M54.813,97.386 C54.813,97.172 54.829,96.962 54.853,96.754 C54.871,96.608 54.903,96.468 54.931,96.327 C54.77,95.533 54.442,94.798 53.969,94.173 C53.527,93.846 52.979,93.65 52.386,93.65 C51.791,93.65 51.244,93.846 50.801,94.173 C50.244,94.908 49.871,95.791 49.759,96.754 C49.736,96.962 49.721,97.172 49.721,97.386 C49.721,98.086 49.864,98.749 50.108,99.361 C50.553,100.473 51.358,101.406 52.386,101.999 C53.682,101.247 54.622,99.961 54.931,98.445 C54.861,98.101 54.813,97.751 54.813,97.386" id="Fill-17" fill="#FAC800"></path>
                <path d="M59.945,96.754 C59.964,96.614 59.996,96.48 60.024,96.342 C59.865,95.54 59.536,94.802 59.062,94.174 C58.62,93.847 58.071,93.651 57.479,93.651 C56.886,93.651 56.333,93.847 55.894,94.174 C55.42,94.799 55.089,95.534 54.931,96.328 C54.903,96.469 54.87,96.609 54.853,96.755 C54.829,96.963 54.813,97.173 54.813,97.387 C54.813,97.752 54.861,98.102 54.931,98.446 C55.239,99.962 56.179,101.248 57.479,102 C58.773,101.248 59.714,99.965 60.024,98.449 C59.953,98.104 59.905,97.752 59.905,97.387 C59.906,97.172 59.923,96.962 59.945,96.754" id="Fill-19" fill="#FAC800"></path>
                <path d="M62.567,93.65 C61.978,93.65 61.427,93.846 60.988,94.173 C60.51,94.801 60.183,95.54 60.024,96.341 C59.996,96.479 59.963,96.613 59.945,96.753 C59.923,96.961 59.905,97.171 59.905,97.385 C59.905,97.75 59.952,98.102 60.024,98.447 C60.332,99.963 61.274,101.246 62.567,101.998 C64.161,101.076 65.234,99.355 65.234,97.385 C65.234,97.171 65.22,96.961 65.197,96.753 C65.114,96.047 64.889,95.383 64.557,94.79 C64.437,94.575 64.303,94.37 64.156,94.173 C63.713,93.846 63.167,93.65 62.567,93.65" id="Fill-21" fill="#FAC800"></path>
                <path d="M33.349,97.386 C33.349,97.172 33.361,96.962 33.388,96.754 C33.406,96.608 33.439,96.468 33.467,96.327 C33.307,95.533 32.978,94.798 32.507,94.173 C32.062,93.846 31.514,93.65 30.922,93.65 C30.326,93.65 29.779,93.846 29.336,94.173 C28.862,94.801 28.534,95.536 28.375,96.336 C28.404,96.476 28.438,96.611 28.454,96.754 C28.477,96.962 28.491,97.172 28.491,97.386 C28.491,97.747 28.443,98.096 28.375,98.436 C28.679,99.957 29.62,101.247 30.923,101.999 C32.219,101.247 33.158,99.965 33.466,98.451 C33.466,98.446 33.466,98.445 33.467,98.44 C33.397,98.097 33.349,97.748 33.349,97.386" id="Fill-23" fill="#FAC800"></path>
                <path d="M38.64,96.754 C38.525,95.792 38.155,94.908 37.596,94.173 C37.156,93.846 36.607,93.65 36.014,93.65 C35.421,93.65 34.871,93.846 34.425,94.173 C33.956,94.798 33.628,95.533 33.467,96.327 C33.44,96.468 33.406,96.608 33.388,96.754 C33.361,96.962 33.349,97.172 33.349,97.386 C33.349,97.748 33.397,98.097 33.466,98.439 C33.466,98.444 33.467,98.448 33.467,98.453 C33.777,99.965 34.715,101.25 36.013,101.999 C37.037,101.406 37.842,100.478 38.287,99.365 C38.534,98.752 38.674,98.086 38.674,97.386 C38.676,97.172 38.664,96.962 38.64,96.754" id="Fill-25" fill="#FAC800"></path>
                <path d="M28.453,96.754 C28.436,96.611 28.403,96.476 28.374,96.336 C28.215,95.536 27.885,94.802 27.412,94.173 C26.967,93.846 26.422,93.65 25.829,93.65 C25.235,93.65 24.687,93.846 24.245,94.173 C24.095,94.37 23.961,94.582 23.838,94.798 C23.507,95.39 23.284,96.049 23.203,96.754 C23.18,96.962 23.164,97.172 23.164,97.386 C23.164,99.356 24.236,101.077 25.829,101.999 C27.128,101.247 28.068,99.957 28.374,98.436 C28.442,98.096 28.49,97.747 28.49,97.386 C28.49,97.172 28.476,96.962 28.453,96.754" id="Fill-27" fill="#FAC800"></path>
                <path d="M245.792,44.865 C247.007,39.31 251.001,35.926 256.642,35.926 C261.156,35.926 264.802,39.572 264.976,44.865 L245.792,44.865 Z M256.642,27.419 C243.365,27.419 234.163,36.967 234.163,50.594 C234.163,63.179 243.276,73.768 257.944,73.768 C268.967,73.768 275.737,67.084 275.737,67.084 L271.137,59.446 C271.137,59.446 265.842,64.394 258.725,64.394 C252.043,64.394 246.313,60.314 245.446,52.502 L275.999,52.502 C275.999,52.502 276.259,49.725 276.259,48.423 C276.259,36.706 269.315,27.419 256.642,27.419 L256.642,27.419 Z" id="Fill-29" fill="#4B4182"></path>
                <path d="M173.814,64.394 C166.61,64.394 160.621,58.838 160.621,50.594 C160.621,42.435 166.61,36.793 173.814,36.793 C180.931,36.793 186.92,42.436 186.92,50.594 C186.921,58.839 180.932,64.394 173.814,64.394 M136.394,64.394 C129.276,64.394 123.288,58.838 123.288,50.594 C123.288,42.435 129.276,36.793 136.394,36.793 C143.598,36.793 149.586,42.436 149.586,50.594 C149.586,58.839 143.598,64.394 136.394,64.394 M174.145,27.419 C166.326,27.419 159.464,30.739 155.104,36.195 C150.744,30.738 143.883,27.419 136.063,27.419 C122.793,27.419 112.177,37.053 112.177,50.594 C112.177,64.221 122.793,73.768 136.063,73.768 C143.883,73.768 150.743,70.478 155.104,65.029 C159.464,70.478 166.325,73.768 174.145,73.768 C187.416,73.768 198.031,64.221 198.031,50.594 C198.03,37.053 187.415,27.419 174.145,27.419" id="Fill-31" fill="#4B4182"></path>
                <path d="M216.151,39.214 L215.979,39.214 C215.979,39.214 216.151,38.092 216.151,36.453 L216.151,33.865 C216.151,30.155 214.167,28.515 210.284,28.515 L200.276,28.515 L200.276,36.515 L203.727,36.515 C204.934,36.515 205.625,37.119 205.625,38.413 L205.625,72.756 L216.496,72.756 L216.496,55.09 C216.496,52.502 216.842,50.086 217.445,47.929 C219.429,41.371 224.779,38.322 229.437,38.322 C230.992,38.322 232.113,38.494 232.113,38.494 L232.113,28.084 C232.113,28.084 231.078,27.912 230.129,27.912 C223.399,27.911 218.136,32.915 216.151,39.214" id="Fill-33" fill="#4B4182"></path>
                <path d="M354.003,64.408 C352.019,64.926 348.886,65.444 346.298,65.444 C339.999,65.444 338.079,62.943 338.079,59.294 C338.079,56.579 340.284,52.982 350.12,52.982 L354.003,52.982 L354.003,64.408 Z M345.851,27.443 C337.425,27.443 331.08,31.372 329.98,32.059 L329.98,41.628 L338.585,41.628 L339.396,36.828 C340.919,36.249 343.822,35.924 345.144,35.924 C350.968,35.924 354.003,40.109 354.003,43.32 L354.003,46.254 L347.612,46.254 C332.659,46.254 327.046,52.552 327.046,60.102 C327.046,65.743 330.591,73.692 346.069,73.692 C354.524,73.692 359.854,72.225 364.688,70.845 L364.688,46.037 C364.688,36.201 360.739,27.443 345.851,27.443 L345.851,27.443 Z" id="Fill-35" fill="#4B4182"></path>
                <path d="M317.636,63.122 L311.761,52.243 C310.197,49.379 308.634,48.771 308.634,48.771 L308.634,48.597 C308.634,48.597 310.025,47.903 311.933,45.126 L323.13,28.461 L310.892,28.461 L301.865,42.435 C300.91,43.824 299.088,44.084 297.699,44.084 L294.4,44.084 L294.4,16.136 C294.4,12.057 292.578,11.102 288.5,11.102 L277.998,11.102 L277.998,19.147 L281.469,19.147 C282.684,19.147 283.379,19.755 283.379,21.057 L283.379,72.726 L294.4,72.726 L294.4,53.371 L296.832,53.371 C298.219,53.371 300.043,53.458 300.91,55.02 L308.289,68.908 C310.025,72.119 311.5,72.727 315.232,72.727 L323.378,72.727 L323.378,64.771 L321.28,64.771 C319.198,64.771 318.329,64.424 317.636,63.122" id="Fill-37" fill="#4B4182"></path>
                <path d="M77.334,0.341 C68.103,7.278 56.627,11.389 44.188,11.389 L44.188,11.389 C31.751,11.389 20.278,7.278 11.041,0.341 L11.041,0.341 C6.478,11.249 3.233,22.843 1.489,34.924 L1.489,34.924 L5.794,35.6 C7.417,25.798 15.931,18.322 26.192,18.322 L26.192,18.322 C33.909,18.322 40.637,22.552 44.191,28.819 L44.191,28.819 C47.744,22.552 54.472,18.322 62.189,18.322 L62.189,18.322 C72.452,18.322 80.964,25.798 82.588,35.6 L82.588,35.6 L86.893,34.924 C85.146,22.843 81.9,11.249 77.334,0.341 L77.334,0.341 Z" id="Fill-1" fill="#FA6414"></path>
            </g>
        </g>
    </g>
</svg>