<?xml version="1.0" encoding="UTF-8" standalone="no"?>
<svg width="2060px" height="527px" viewBox="0 0 2060 527" version="1.1" xmlns="http://www.w3.org/2000/svg" xmlns:xlink="http://www.w3.org/1999/xlink">
    <!-- Generator: Sketch 3.8.3 (29802) - http://www.bohemiancoding.com/sketch -->
    <title>planteetjardin</title>
    <desc>Created with Sketch.</desc>
    <defs></defs>
    <g id="Page-1" stroke="none" stroke-width="1" fill="none" fill-rule="evenodd">
        <g id="planteetjardin">
            <text id="plantes-et-jardins" font-family="CenturyGothic, Century Gothic" font-size="175.243237" font-weight="normal" fill="#448C1A">
                <tspan x="179.951088" y="292.545743">plantes-et-ja</tspan>
                <tspan x="1247.41173" y="292.545743" letter-spacing="-0.14332743">r</tspan>
                <tspan x="1298.95146" y="292.545743">dins</tspan>
            </text>
            <g id="Group-6" transform="translate(0.000000, 0.348208)">
                <text id=".com" font-family="CenturyGothic, Century Gothic" font-size="175.243237" font-weight="normal" fill="#8CBA0E">
                    <tspan x="1630.41447" y="292.197534">.com</tspan>
                </text>
                <path d="M0.984626199,477.436 C-21.2982336,236.4125 342.140062,71.1134583 345.812814,69.472625 L348.858512,76.2820833 C345.238014,77.908 -13.3779273,241.029208 8.41971107,476.749833 L0.984626199,477.436 Z" id="Fill-2" fill="#D3BF6C"></path>
                <path d="M42.2239664,501.915742 C-23.2510631,268.8652 304.355498,40.7371583 307.669933,38.4623667 L311.895092,44.6080333 C308.625446,46.8529917 -14.6215871,271.982783 49.4127081,499.901992 L42.2239664,501.915742 Z" id="Fill-3" fill="#8CBA0E"></path>
                <path d="M83.623803,517.561087 C-19.8104701,298.673921 265.156327,19.1803375 268.045261,16.3834625 L273.240862,21.7385458 C270.389253,24.5055875 -10.7778871,300.307296 90.3721129,514.368921 L83.623803,517.561087 Z" id="Fill-4" fill="#60A037"></path>
                <path d="M131.391237,526.541667 C-10.3680616,330.238333 218.62658,3.39179167 220.955643,0.110125 L227.039573,4.4285 C224.74037,7.66541667 -1.19364465,330.201042 137.445307,522.171083 L131.391237,526.541667 Z" id="Fill-5" fill="#448C1A"></path>
            </g>
        </g>
    </g>
</svg>