<?xml version="1.0" encoding="UTF-8" standalone="no"?>
<svg width="1026px" height="348px" viewBox="0 0 1026 348" version="1.1" xmlns="http://www.w3.org/2000/svg" xmlns:xlink="http://www.w3.org/1999/xlink">
    <!-- Generator: Sketch 3.8.3 (29802) - http://www.bohemiancoding.com/sketch -->
    <title>ptc</title>
    <desc>Created with Sketch.</desc>
    <defs></defs>
    <g id="Page-1" stroke="none" stroke-width="1" fill="none" fill-rule="evenodd">
        <g id="ptc" fill="#4A4949">
            <g id="Group-3" transform="translate(0.000000, 0.147148)">
                <path d="M543.833497,333.112003 C510.087645,330.755494 489.699495,328.518859 491.854549,252.45962 L491.854549,52.4917243 C491.854549,28.9144983 505.101619,25.8493678 526.27935,25.8493678 L612.228446,25.8493678 L612.228446,0.370850435 L309.114401,0.370850435 L309.114401,25.8493678 L395.662124,25.8493678 C416.659509,25.8493678 430.300611,29.1026548 430.300611,52.560007 L430.300611,252.98312 C430.300611,354.589159 499.183554,348.034029 543.833497,346.622855 L543.833497,333.112003 Z M903.936765,278.335694 C879.423397,306.064503 844.465137,325.792107 807.007802,323.468981 C720.854112,318.045824 706.600744,243.296094 706.600744,171.045507 C706.600744,105.944868 715.337657,17.0211852 800.774511,16.2731113 C835.4327,15.8967983 889.359078,25.721907 894.310248,76.9763504 L907.575503,76.9763504 L907.575503,0.370850435 L802.291536,0.370850435 C697.985072,0.370850435 637.435917,53.3763635 637.435917,183.064763 C637.435917,279.728659 703.04839,346.704794 785.228413,347.475629 C836.60722,347.930846 884.089651,327.20935 915.569817,288.066724 L903.936765,278.335694 Z M167.896186,238.355468 C234.164874,238.355468 284.517681,184.812798 284.517681,120.763711 C284.517681,52.4416504 249.676115,0.370850435 164.862136,0.370850435 L0.00045465288,0.370850435 L0.00045465288,15.1244461 C30.995657,15.1244461 37.7715004,23.6051461 37.7715004,47.763533 L37.7715004,346.622855 L99.3693882,346.622855 L99.3693882,105.620146 C99.3693882,84.0276678 98.473722,59.400407 108.215418,39.1811678 C117.66462,19.4641852 135.821941,14.468933 157.72257,16.6782548 C209.299908,21.84042 221.122399,70.9295461 221.122399,118.677298 C221.122399,166.003216 214.311698,219.460911 157.72257,219.460911 C144.746777,219.460911 133.280431,217.039155 123.452351,210.96959 L115.627775,222.081446 C130.781356,233.222133 144.981681,238.355468 167.896186,238.355468 L167.896186,238.355468 Z" id="Fill-1"></path>
            </g>
            <g id="Group-6" transform="translate(949.709010, 0.147148)">
                <path d="M65.0483332,11.9622026 C57.5420142,4.50574174 48.5550422,0.821515652 37.9722387,0.821515652 C27.5682653,0.821515652 18.5343126,4.50574174 11.1643894,11.9622026 C3.75354742,19.3458287 0.0693435746,28.3955504 0.0693435746,38.8503765 C0.0693435746,49.3977635 3.75354742,58.3898243 11.0749743,65.8978765 C18.4676301,73.310333 27.442478,77.0461504 37.9722387,77.0461504 C48.5550422,77.0461504 57.5420142,73.310333 65.0483332,65.8978765 C72.4637217,58.3898243 76.1812668,49.3977635 76.1812668,38.8503765 C76.1812668,28.3151287 72.4637217,19.2942374 65.0483332,11.9622026 M61.4323273,62.227307 C55.0111131,68.6792548 47.2759521,71.8839852 38.0374056,71.8839852 C28.9003982,71.8839852 21.134927,68.6792548 14.7485696,62.227307 C8.37130517,55.7920504 5.21146765,48.0260417 5.21146765,38.8852765 C5.21146765,29.8006548 8.37130517,22.0680287 14.8137365,15.6737417 C21.2485903,9.21420696 28.9822357,5.9776113 38.0374056,5.9776113 C47.1638044,5.9776113 54.8959344,9.21420696 61.4323273,15.6737417 C67.8186848,22.0680287 71.0027705,29.8006548 71.0027705,38.8852765 C71.0027705,48.0260417 67.8186848,55.7920504 61.4323273,62.227307" id="Fill-4"></path>
            </g>
            <path d="M1003.05503,58.355037 C1002.98684,57.19575 1002.98684,56.0531543 1002.98684,55.0091891 L1002.98684,51.8393587 C1002.98684,49.5496152 1002.20029,47.2097978 1000.56657,44.8502543 C998.948002,42.4982978 996.483783,41.0127717 993.108744,40.4255413 C995.754823,40.0644022 997.944735,39.3284674 999.563299,38.3360935 C1002.34729,36.4287326 1003.83097,33.5274804 1003.83097,29.5640543 C1003.83097,24.0422674 1001.56074,20.2518239 996.941467,18.3277717 C994.352977,17.2367674 990.232306,16.71175 984.759801,16.71175 L973.35256,16.71175 L973.35256,61.1986283 L981.018008,61.1986283 L981.018008,43.6166152 L983.013934,43.6166152 C987.222504,43.6166152 990.120159,44.135563 991.796312,45.0672413 C994.636377,46.7409239 996.029131,50.1550543 996.029131,55.3627413 L996.029131,58.8466717 L996.177651,60.2623978 C996.177651,60.4111022 996.289798,60.6569196 996.289798,60.798037 C996.371636,60.9179109 996.371636,61.0908935 996.439834,61.1986283 L1003.83097,61.1986283 L1003.52333,60.6903022 C1003.32934,60.2623978 1003.23689,59.5143239 1003.05503,58.355037 M991.602327,37.2101891 C989.915565,37.7807283 987.313435,38.078137 983.936879,38.078137 L981.018008,38.078137 L981.018008,22.2107761 L983.515568,22.2107761 C987.95298,22.2107761 991.170407,22.8146978 993.175426,23.9057022 C995.207724,25.0027761 996.177651,27.069463 996.177651,30.2210848 C996.177651,33.7050152 994.636377,35.9598587 991.602327,37.2101891" id="Fill-7"></path>
        </g>
    </g>
</svg>