<?xml version="1.0" encoding="UTF-8" standalone="no"?>
<svg width="2324px" height="797px" viewBox="0 0 2324 797" version="1.1" xmlns="http://www.w3.org/2000/svg" xmlns:xlink="http://www.w3.org/1999/xlink">
    <!-- Generator: Sketch 3.8.3 (29802) - http://www.bohemiancoding.com/sketch -->
    <title>seloger</title>
    <desc>Created with Sketch.</desc>
    <defs></defs>
    <g id="Page-1" stroke="none" stroke-width="1" fill="none" fill-rule="evenodd">
        <g id="seloger" fill="#E00135">
            <path d="M1845.71181,305.403609 C1842.90277,301.92969 1838.29251,300.242766 1831.62371,300.242766 C1807.92196,300.242766 1795.96387,315.571614 1785.71766,360.332278 L1845.50095,360.332278 C1850.09692,337.880466 1853.24548,314.710282 1845.71181,305.403609" id="Fill-1"></path>
            <path d="M1519.28421,314.76961 C1492.04078,314.76961 1479.91472,346.72109 1468.18178,401.91066 C1458.59315,447.039444 1457.62464,471.24966 1465.04395,480.416947 C1466.85231,482.650691 1470.31537,485.617104 1479.47871,485.617104 C1501.08261,485.617104 1514.9813,471.857238 1530.96711,396.656893 C1537.58588,365.505987 1543.05029,332.053431 1533.40448,320.141319 C1530.43818,316.477978 1525.94943,314.76961 1519.28421,314.76961" id="Fill-3"></path>
            <g id="Group-7">
                <path d="M2185.27258,333.836495 L2180.10123,332.825056 C2171.54544,331.156002 2164.34414,330.505535 2154.40885,330.505535 C2113.75278,330.505535 2090.16539,348.51845 2082.28863,385.573589 L2041.89345,575.620562 L1932.88757,575.620562 L2004.76119,237.470975 L2110.13962,237.470975 L2103.51371,268.625455 C2120.29649,249.465289 2147.1325,229.000616 2185.20111,229.000616 C2190.23666,229.000616 2195.44375,229.000616 2201.77661,230.322993 L2207.04446,231.423782 L2185.27258,333.836495 Z M1926.77987,459.519464 C1907.35601,542.182302 1854.22722,584.094495 1768.8659,584.094495 C1724.63598,584.094495 1694.42268,573.336782 1676.50342,551.203056 C1646.96558,514.730477 1656.89015,453.361477 1669.58803,393.629365 C1685.88119,316.981553 1720.20798,229.000616 1842.06542,229.000616 C1886.69561,229.000616 1916.71234,239.27584 1933.83464,260.415997 C1961.88218,295.051544 1952.05053,354.855136 1937.41563,423.700926 L1936.5186,427.946827 L1771.29612,427.946827 L1767.951,443.672387 C1762.87256,467.582387 1758.15866,496.410199 1766.90028,507.203652 C1770.02025,511.056414 1774.92714,512.850558 1782.3393,512.850558 C1803.33565,512.850558 1814.25732,498.729719 1825.60786,456.89258 L1826.68001,452.932598 L1928.32734,452.932598 L1926.77987,459.519464 Z M1434.11445,686.986123 C1386.23564,686.986123 1353.32766,676.324908 1336.30186,655.299118 C1323.20014,639.119661 1319.50121,617.057414 1325.31228,589.727105 L1326.21289,585.47763 L1426.76305,585.47763 L1426.69515,590.906522 C1426.59865,598.958724 1427.97816,604.040939 1431.0338,606.885836 C1435.23664,610.327589 1441.57664,612.107437 1450.17532,612.107437 C1477.5617,612.107437 1488.31183,596.292526 1501.42427,535.606159 C1482.30777,556.960755 1455.86845,567.754208 1422.54234,567.754208 C1398.74052,567.754208 1380.48532,560.113015 1368.27706,545.034347 C1347.21281,519.019266 1344.30727,471.871177 1359.39962,400.895289 C1376.41113,320.862908 1407.29631,229.000616 1495.89553,229.000616 C1529.30742,229.000616 1551.49386,241.849114 1562.09746,267.267338 L1568.43031,237.470975 L1670.17056,237.470975 L1601.64206,559.877132 C1583.21174,646.59645 1529.9793,686.986123 1434.11445,686.986123 L1434.11445,686.986123 Z M1153.99639,584.094495 C1107.51137,584.094495 1076.15445,573.27245 1058.12797,551.013634 C1032.70005,519.608975 1036.56695,470.466598 1050.19403,406.342051 C1069.77513,314.233154 1104.76666,229.000616 1227.19233,229.000616 C1273.67378,229.000616 1305.0307,239.819087 1323.05361,262.081477 C1348.4851,293.482562 1344.6182,342.628513 1330.98755,406.75306 C1311.41002,498.861957 1276.41849,584.094495 1153.99639,584.094495 L1153.99639,584.094495 Z M1008.83748,575.620562 L749.136803,575.620562 L843.268337,132.767334 L955.905246,132.767334 L881.547803,482.589576 L1028.61157,482.589576 L1008.83748,575.620562 Z M578.910937,507.203652 C582.030904,511.056414 586.937795,512.850558 594.349952,512.850558 C615.346298,512.850558 626.264398,498.729719 637.618507,456.89258 L638.694235,452.932598 L740.337994,452.932598 L738.794092,459.519464 C719.373812,542.182302 666.245015,584.094495 580.8837,584.094495 C536.650206,584.094495 506.43691,573.336782 488.514072,551.203056 C458.979807,514.730477 468.904378,453.361477 481.59868,393.629365 C497.895418,316.981553 532.22221,229.000616 654.079643,229.000616 C698.713407,229.000616 728.730141,239.27584 745.848864,260.415997 C773.896409,295.051544 764.068332,354.85871 749.433432,423.700926 L748.532823,427.946827 L583.310341,427.946827 L579.968795,443.672387 C574.886786,467.585961 570.172883,496.410199 578.910937,507.203652 L578.910937,507.203652 Z M448.304729,442.460804 C428.044595,537.768423 368.475727,584.094495 266.188677,584.094495 C211.523126,584.094495 175.337934,572.221697 155.560269,547.800616 C139.531569,528.000706 135.185772,500.159316 142.647963,465.048428 L149.466861,432.961136 L258.472743,432.961136 L253.88035,454.562338 C249.445207,475.427298 250.345817,489.344419 256.632212,497.107127 C261.253195,502.811217 269.094214,505.588208 280.59485,505.588208 C316.837224,505.588208 328.534423,476.013432 332.283387,458.390083 C339.538295,424.254894 315.636412,412.478594 276.04177,396.088271 C228.409549,376.37771 169.130163,351.845836 189.57971,255.637571 C200.00462,206.584544 236.461424,124.293401 363.454474,124.293401 C413.138083,124.293401 448.201087,136.484284 467.667827,160.522948 C484.85088,181.745307 489.539766,211.441598 481.59868,248.789804 L478.510877,263.325226 L369.504995,263.325226 L370.880926,256.849154 C375.20528,236.520293 375.684175,222.706818 372.346203,214.615302 C370.119697,208.693199 365.738161,202.803262 349.65228,202.803262 C325.964827,202.803262 310.332824,217.449477 304.443126,245.15863 C297.388354,278.339562 321.568997,290.366042 361.599647,307.242428 C408.803007,327.14241 467.54989,351.910168 448.304729,442.460804 L448.304729,442.460804 Z M0.998570462,797.000715 L2323.99857,797.000715 L2323.99857,0.000714798207 L0.998570462,0.000714798207 L0.998570462,797.000715 Z" id="Fill-5"></path>
            </g>
            <path d="M657.727468,305.403609 C654.914851,301.92969 650.304589,300.242766 643.635792,300.242766 C619.937618,300.242766 607.979529,315.571614 597.733312,360.332278 L657.513037,360.332278 C662.109003,337.880466 665.261135,314.710282 657.727468,305.403609" id="Fill-8"></path>
            <path d="M1214.1603,303.874656 C1189.35066,303.874656 1175.42696,329.986235 1158.98369,407.359566 C1150.43505,447.577687 1143.15155,490.487024 1153.95887,503.832306 C1155.83156,506.144678 1159.34465,509.218311 1168.23281,509.218311 C1193.63213,509.218311 1204.72892,487.938768 1222.20146,405.7334 C1233.09454,354.489517 1237.99786,320.440104 1228.79163,309.071239 C1226.98326,306.841069 1223.50234,303.874656 1214.1603,303.874656" id="Fill-10"></path>
        </g>
    </g>
</svg>