<?xml version="1.0" encoding="UTF-8" standalone="no"?>
<svg width="2520px" height="639px" viewBox="0 0 2520 639" version="1.1" xmlns="http://www.w3.org/2000/svg" xmlns:xlink="http://www.w3.org/1999/xlink">
    <!-- Generator: Sketch 3.8.3 (29802) - http://www.bohemiancoding.com/sketch -->
    <title>voxmobili</title>
    <desc>Created with Sketch.</desc>
    <defs></defs>
    <g id="Page-1" stroke="none" stroke-width="1" fill="none" fill-rule="evenodd">
        <g id="voxmobili" fill="#1D1C1B">
            <path d="M1698.47687,421.612632 L1652.62634,421.612632 C1652.62634,376.146232 1652.74868,332.470152 1652.58771,288.787632 C1652.45894,255.164392 1636.41351,232.012592 1613.62668,231.935312 C1591.17467,231.858032 1573.3779,255.840592 1573.0302,288.291752 C1572.56661,332.038672 1572.9143,375.785592 1572.9143,421.470952 L1523.16189,421.470952 C1523.16189,376.294352 1523.29066,332.618272 1523.12325,288.942192 C1522.99448,255.447752 1506.88466,232.128512 1484.14291,231.909552 C1461.3754,231.684152 1443.36614,255.145072 1442.88967,287.879592 C1442.25223,331.684472 1442.73514,375.502232 1442.73514,421.380792 L1396.72365,421.380792 L1396.72365,186.816672 C1412.97512,190.191232 1428.42174,193.391912 1453.08869,198.505272 C1474.89039,184.820272 1506.38888,181.902952 1538.40247,205.505552 C1543.45691,209.227872 1556.17349,207.115552 1562.87625,203.335272 C1631.314,164.740352 1701.74132,204.030792 1702.42383,282.193072 C1702.80372,326.126752 1702.07614,370.073312 1701.69625,414.013432 C1701.68338,415.926112 1700.13163,417.832352 1698.47687,421.612632 L1698.47687,421.612632 Z" id="Fill-1"></path>
            <path d="M2128.04943,308.10248 C2128.04943,298.4618 2128.5259,288.78892 2127.95929,279.18044 C2126.30452,251.26948 2105.87429,229.34772 2081.54216,232.23928 C2055.22044,235.36912 2038.58908,250.355 2038.01603,278.852 C2037.82287,288.48624 2037.93233,298.13336 2037.93233,307.77404 C2037.93233,359.26184 2052.06544,381.29308 2084.41385,380.23692 C2115.41012,379.22584 2128.10094,358.27008 2128.04943,308.10248 M1989.96989,421.69764 L1989.96989,97.84292 L2036.49004,97.84292 L2036.49004,203.29148 C2044.42262,200.93444 2049.1358,200.07148 2053.39183,198.191 C2110.96736,172.72724 2169.76626,205.09468 2176.32093,267.3244 C2178.88356,291.68692 2178.54231,316.6226 2176.84891,341.10748 C2173.0114,396.61384 2126.92265,432.78088 2072.21881,422.48976 C2053.0377,418.87692 2035.67232,408.11568 2016.08556,422.80532 C2011.03113,426.59204 1999.95643,422.35452 1989.96989,421.69764" id="Fill-3"></path>
            <path d="M162.381411,191.722664 C99.0818092,190.936984 44.7900541,243.319944 43.1159724,306.792584 C41.435452,370.555024 96.5835643,426.344744 161.203115,426.261024 C224.457646,426.177304 278.414585,372.648024 278.839544,309.555344 C279.264503,246.720264 225.681013,192.508344 162.381411,191.722664 M8.0568398,309.239784 C7.89587041,223.909784 74.8076255,156.218944 159.979748,155.549184 C245.132554,154.872984 313.126023,221.952024 313.705513,307.191864 C314.304319,394.840264 247.444074,462.492464 160.430462,462.299264 C75.1166867,462.106064 8.21780918,394.911104 8.0568398,309.239784" id="Fill-5"></path>
            <path d="M1799.72725,305.345516 C1799.72725,317.066316 1799.1864,328.812876 1799.83671,340.495036 C1801.37558,368.309396 1816.9381,383.527116 1844.23207,385.053396 C1868.77024,386.431556 1888.06725,367.716916 1889.43871,341.222756 C1890.6492,317.851996 1890.68784,294.313796 1889.40652,270.949476 C1887.96423,244.770876 1868.02978,226.397556 1843.45298,227.981796 C1817.5691,229.643316 1802.36071,244.088236 1799.97193,270.208876 C1798.90309,281.826636 1799.79164,293.631156 1799.72725,305.345516 M1939.04304,307.097196 C1939.06879,315.681716 1939.15894,324.266236 1939.05592,332.844316 C1938.29614,394.603916 1903.14687,430.455396 1844.03247,429.817836 C1785.31084,429.186716 1750.46418,392.890876 1749.8525,331.498356 C1749.64646,311.122196 1749.0219,290.694516 1750.0521,270.363436 C1752.84009,215.378716 1788.18253,183.629516 1845.26227,183.861356 C1901.99433,184.093196 1936.62206,216.441316 1938.94646,271.696516 C1939.44224,283.481716 1939.01728,295.299116 1939.04304,307.097196" id="Fill-7"></path>
            <path d="M1086.45966,305.525192 C1086.45966,293.727112 1087.17437,281.877512 1086.31157,270.143832 C1084.48296,245.201712 1070.40136,230.344632 1045.75372,228.322472 C1019.28392,226.139312 1000.93985,240.590672 997.829918,265.745312 C994.443122,293.160392 994.591214,321.715352 998.267755,349.085352 C1001.44207,372.720152 1019.53503,386.456672 1044.38227,384.943272 C1068.9977,383.442752 1083.58797,368.759552 1086.1506,344.107232 C1087.47055,331.375352 1086.3824,318.392312 1086.45966,305.525192 M1136.50183,309.189552 C1136.50183,317.767632 1136.59841,326.352152 1136.48895,334.930232 C1135.72917,393.347472 1100.00041,429.379272 1042.37337,429.888032 C983.973673,430.403232 949.043316,395.498432 948.483143,335.838272 C948.277102,313.311152 947.910092,290.771152 948.60548,268.263352 C950.189418,216.743352 984.038061,185.180912 1038.30406,183.886472 C1094.34716,182.546952 1131.66631,212.840712 1136.05755,264.161072 C1137.33243,279.063232 1136.25715,294.171472 1136.25715,309.189552 L1136.50183,309.189552" id="Fill-9"></path>
            <path d="M609.542137,333.094832 C607.5268,433.848632 564.966494,539.316512 478.107412,625.754192 C470.194157,633.630312 449.635147,641.255272 444.426178,637.101472 C427.608096,623.699832 442.005198,612.062752 452.71932,600.844272 C607.146912,439.238912 614.693157,212.209592 472.70528,37.872352 C465.899494,29.513232 467.457678,14.340592 465.120402,2.342872 C476.678004,6.264832 492.240524,6.696312 499.175086,14.649712 C573.1373,99.509592 610.070116,198.672712 609.542137,333.094832" id="Fill-11"></path>
            <path d="M1360.34071,193.149768 C1340.2968,224.197008 1323.36282,253.782368 1303.01629,280.798168 C1288.81235,299.654488 1290.31258,313.764528 1303.44125,331.880248 C1323.22117,359.179408 1340.5801,388.236688 1362.44619,421.905008 C1333.71637,420.797328 1310.25991,434.965328 1294.60081,405.933808 C1283.51324,385.377328 1270.01112,366.128168 1256.61203,344.734488 C1236.51661,372.188208 1220.01403,399.564648 1198.22522,421.756888 C1191.05886,429.053408 1170.2101,422.903208 1148.17018,422.903208 C1171.04714,387.586248 1189.70028,356.873888 1210.41382,327.616968 C1221.31467,312.225368 1222.13239,300.742848 1210.65205,284.932648 C1190.04153,256.532248 1172.0194,226.251368 1152.75458,196.511448 C1187.8781,180.495168 1201.01964,184.120888 1219.56332,213.339168 C1229.85892,229.555088 1240.19959,245.745248 1250.59178,261.903208 C1251.11976,262.721088 1252.30449,263.120368 1256.85671,266.185808 C1266.71447,250.813528 1278.6584,236.188288 1286.19821,219.566648 C1300.48585,188.062168 1323.38857,181.802488 1360.34071,193.149768" id="Fill-13"></path>
            <path d="M928.710951,193.758348 C899.337257,267.805468 871.444482,339.521308 841.819676,410.522308 C839.044563,417.174828 825.375043,422.539348 816.734206,422.584428 C808.003227,422.629508 794.024645,417.471068 791.294604,410.882948 C761.534584,339.089828 733.52591,266.568988 704.892676,193.861388 C750.504961,182.230748 753.556941,183.769908 767.12988,221.173428 C782.434849,263.368308 797.900788,305.498788 813.39892,347.622828 C813.675788,348.376308 815.163145,348.678988 818.897635,350.746228 C834.910869,306.818988 850.769573,263.310348 866.634716,219.801708 C879.576655,184.323748 882.165043,183.087268 928.710951,193.758348" id="Fill-15"></path>
            <path d="M535.108604,300.140064 C532.391441,384.446104 516.217237,445.052944 481.647451,499.683464 C476.187369,508.313064 462.524288,511.758464 452.660084,517.599544 C452.009767,505.691984 446.626951,491.279264 451.404522,482.250384 C539.313124,316.272264 503.178716,146.449464 355.659931,32.661104 C347.03841,26.008584 344.771961,11.132184 339.550114,0.087584 C351.577747,1.066464 366.689553,-2.314536 375.162982,3.681104 C483.978288,80.690624 534.220053,187.961704 535.108604,300.140064" id="Fill-17"></path>
            <path d="M177.412089,2.905084 C329.985313,15.823724 459.533477,146.510644 461.162487,291.797044 C461.317017,305.514244 466.950946,326.231724 443.809987,324.666804 C437.255313,324.222444 427.944844,305.153604 426.75367,293.896484 C411.995997,154.798924 311.254915,53.265884 177.276874,44.082444 C162.905528,43.097124 142.262813,47.025524 146.241977,24.376044 C147.774405,15.662724 166.511242,9.969764 177.412089,2.905084" id="Fill-19"></path>
            <polygon id="Fill-21" points="2339.76088 421.730484 2383.70552 421.730484 2383.70552 96.420324 2339.76088 96.420324"></polygon>
            <path d="M181.63335,82.407528 C217.928728,82.961368 269.548391,100.948288 311.767442,140.979328 C318.792146,147.638288 318.380064,162.141168 321.39985,173.018328 C310.325156,171.124968 296.597687,172.786488 288.581411,166.797288 C200.975432,101.321808 120.857748,101.508568 32.7366663,167.331808 C24.9264316,173.172888 11.0573092,170.893128 0.00193163265,172.387208 C3.49818673,161.413448 3.84588061,147.387128 11.0251153,139.994008 C45.7172378,104.252008 104.632034,82.671568 181.63335,82.407528" id="Fill-23"></path>
            <polygon id="Fill-24" points="2453.86886 422.046044 2498.2127 422.046044 2498.2127 191.075444 2453.86886 191.075444"></polygon>
            <polygon id="Fill-25" points="2226.67022 422.413124 2270.69857 422.413124 2270.69857 190.515164 2226.67022 190.515164"></polygon>
            <path d="M2519.1252,116.936232 C2499.6801,132.289192 2488.3221,148.015672 2479.0567,146.869352 C2467.33813,145.420352 2457.3194,130.228392 2446.57308,120.967672 C2455.48435,110.766712 2463.64871,93.288552 2473.50004,92.283912 C2484.85804,91.124712 2497.69696,104.513472 2519.1252,116.936232" id="Fill-26"></path>
            <path d="M2290.38642,120.51172 C2269.89823,133.84896 2257.90279,147.72072 2246.68645,147.1218 C2236.93814,146.59372 2219.23795,127.7696 2220.82832,120.47952 C2223.37164,108.84244 2237.86532,94.23652 2249.45512,91.98252 C2258.2698,90.26948 2270.43265,105.8092 2290.38642,120.51172" id="Fill-27"></path>
        </g>
    </g>
</svg>