<?xml version="1.0" encoding="UTF-8" standalone="no"?>
<svg width="2085px" height="1198px" viewBox="0 0 2085 1198" version="1.1" xmlns="http://www.w3.org/2000/svg" xmlns:xlink="http://www.w3.org/1999/xlink">
    <!-- Generator: Sketch 3.8.3 (29802) - http://www.bohemiancoding.com/sketch -->
    <title>webhelp</title>
    <desc>Created with Sketch.</desc>
    <defs></defs>
    <g id="Page-1" stroke="none" stroke-width="1" fill="none" fill-rule="evenodd">
        <g id="webhelp" fill="#195E91">
            <path d="M1414.57958,496.99416 C1380.0463,496.99416 1365.46376,528.069932 1362.77842,551.474518 L1461.39369,551.474518 C1461.77731,530.371287 1452.56794,496.99416 1414.57958,496.99416" id="Fill-1"></path>
            <path d="M998.657457,499.296512 C976.018891,499.296512 954.531185,515.408491 947.623532,540.730874 C946.472672,544.952516 945.705432,549.555227 945.705432,554.925057 L945.705432,587.921115 C945.705432,592.140267 946.086561,596.359419 947.239912,600.197502 C953.377833,623.599598 973.331059,639.714067 997.890217,639.714067 C1033.57436,639.714067 1054.29482,610.939652 1054.29482,568.354612 C1054.29482,531.139402 1035.10884,499.296512 998.657457,499.296512" id="Fill-3"></path>
            <path d="M791.076401,496.99416 C756.543122,496.99416 741.960577,528.069932 739.275237,551.474518 L837.888014,551.474518 C838.274125,530.371287 829.064753,496.99416 791.076401,496.99416" id="Fill-5"></path>
            <path d="M1713.09803,499.679573 C1690.07584,499.679573 1668.20451,515.794043 1662.0641,541.113935 C1660.91324,545.335578 1659.76238,550.321848 1659.76238,554.541 L1659.76238,586.769939 C1659.76238,591.75621 1660.14351,596.358921 1661.29437,600.580563 C1667.43478,623.985149 1687.77163,640.094638 1711.94468,640.094638 C1747.63131,640.094638 1768.35177,610.939153 1768.35177,568.354114 C1768.35177,531.522463 1748.78217,499.679573 1713.09803,499.679573" id="Fill-7"></path>
            <g id="Group-11">
                <path d="M1717.70072,666.568445 C1693.14405,666.568445 1671.65635,655.828786 1660.52887,637.41047 L1659.76163,637.41047 L1659.76163,738.31146 L1626.37922,738.31146 L1626.37922,537.276599 C1626.37922,513.490944 1625.60948,494.308 1624.84473,476.659294 L1654.77208,476.659294 L1656.69267,508.504674 L1657.45742,508.504674 C1670.88911,485.867206 1693.14405,472.823701 1723.45751,472.823701 C1768.73465,472.823701 1802.50318,510.80603 1802.50318,566.818133 C1802.50318,633.574878 1761.44586,666.568445 1717.70072,666.568445 L1717.70072,666.568445 Z M1535.82744,662.349294 L1569.59348,662.349294 L1569.59348,389.954978 L1535.82744,389.954978 L1535.82744,662.349294 Z M1492.85701,575.642487 L1362.39629,575.642487 C1363.16353,621.296 1391.94251,640.095385 1426.09217,640.095385 C1450.26771,640.095385 1465.22889,635.876233 1477.50972,630.506404 L1483.65013,654.675618 C1471.75542,660.047938 1451.03246,666.568445 1421.48873,666.568445 C1364.31439,666.568445 1330.16473,628.586117 1330.16473,572.574013 C1330.16473,516.559418 1363.16353,472.823701 1417.26891,472.823701 C1478.27696,472.823701 1494.00787,525.767331 1494.00787,559.914067 C1494.00787,566.818133 1493.62674,571.806894 1492.85701,575.642487 L1492.85701,575.642487 Z M1288.73128,662.349294 L1254.96524,662.349294 L1254.96524,555.692425 C1254.96524,525.767331 1243.83527,500.830998 1211.98733,500.830998 C1190.11601,500.830998 1173.23423,516.175859 1166.71269,534.208125 C1164.7921,539.196886 1164.40848,544.183156 1164.40848,550.322595 L1164.40848,662.349294 L1130.64244,662.349294 L1130.64244,389.954978 L1164.40848,389.954978 L1164.40848,506.200828 L1165.17572,506.200828 C1170.54889,496.611847 1178.98853,487.787493 1189.34877,482.031614 C1199.32538,476.278225 1211.22258,472.823701 1223.88454,472.823701 C1248.82482,472.823701 1288.73128,488.171052 1288.73128,551.856832 L1288.73128,662.349294 Z M1004.79762,666.568445 C977.936742,666.568445 956.449036,656.209855 942.252602,632.040641 L941.482871,632.040641 L939.564771,662.349294 L910.785792,662.349294 C911.553032,649.689348 912.320272,630.889963 912.320272,614.391934 L912.320272,389.954978 L945.705183,389.954978 L945.705183,506.586878 L946.472423,506.586878 C958.367136,485.867206 979.854842,472.823701 1009.78468,472.823701 C1056.21516,472.823701 1088.44672,511.189589 1088.44672,567.201693 C1088.44672,633.574878 1046.23855,666.568445 1004.79762,666.568445 L1004.79762,666.568445 Z M869.354824,575.642487 L738.891616,575.642487 C739.658857,621.296 768.437835,640.095385 802.587495,640.095385 C826.763032,640.095385 841.726706,635.876233 854.005039,630.506404 L860.145452,654.675618 C848.250738,660.047938 827.527781,666.568445 797.984054,666.568445 C740.809717,666.568445 706.660057,628.586117 706.660057,572.574013 C706.660057,516.559418 739.658857,472.823701 793.761742,472.823701 C854.77228,472.823701 870.505685,525.767331 870.505685,559.914067 C870.505685,566.818133 870.122065,571.806894 869.354824,575.642487 L869.354824,575.642487 Z M630.309699,662.349294 L599.61262,662.349294 L571.217262,573.724691 C564.69572,553.00751 559.322548,534.591684 554.719108,512.723826 L553.951867,512.723826 C549.345935,534.975244 543.591634,554.158188 537.067602,574.10825 L507.137763,662.349294 L476.440685,662.349294 L420.417208,476.659294 L454.952978,476.659294 L479.893265,571.039776 C484.882817,591.756957 489.869878,610.939901 493.322459,630.120354 L494.47581,630.120354 C498.695631,611.320969 504.836043,591.373398 510.973964,571.423335 L541.287423,476.659294 L569.682781,476.659294 L598.46176,569.505539 C605.366921,591.756957 610.740093,611.320969 614.959914,630.120354 L616.110774,630.120354 C619.182226,611.320969 624.169287,591.756957 630.309699,569.889098 L656.784466,476.659294 L690.169376,476.659294 L630.309699,662.349294 Z M1935.53714,331.255468 L-0.000498207885,-0.000249064447 L468.314914,1197.99975 L2084.9995,652.548607 L1935.53714,331.255468 Z" id="Fill-9"></path>
            </g>
        </g>
    </g>
</svg>