<?xml version="1.0" encoding="UTF-8" standalone="no"?>
<svg width="1846px" height="315px" viewBox="0 0 1846 315" version="1.1" xmlns="http://www.w3.org/2000/svg" xmlns:xlink="http://www.w3.org/1999/xlink">
    <!-- Generator: Sketch 3.8.3 (29802) - http://www.bohemiancoding.com/sketch -->
    <title>autodesk</title>
    <desc>Created with Sketch.</desc>
    <defs></defs>
    <g id="Page-1" stroke="none" stroke-width="1" fill="none" fill-rule="evenodd">
        <g id="autodesk">
            <path d="M1151.26314,81.9073043 L1151.26314,207.09013 C1167.64468,207.09013 1183.42912,209.021217 1198.55721,206.688391 C1229.54722,201.922304 1250.4412,175.288826 1249.87145,144.514696 C1249.27435,112.434913 1229.36945,89.1431739 1196.91632,84.399913 C1182.54487,82.3044783 1167.81333,82.7244783 1151.26314,81.9073043 M1118.17644,235.243826 L1118.17644,52.7264348 C1159.85958,55.209913 1202.17172,44.7053478 1240.81009,68.8964348 C1272.66613,88.8464348 1287.83524,125.281435 1280.25524,165.441652 C1273.91959,198.996 1241.73537,231.673826 1207.23113,234.714261 C1177.93214,237.298174 1148.22294,235.243826 1118.17644,235.243826" id="Fill-1" fill="#000000"></path>
            <path d="M921.786198,143.205848 C920.67404,179.622587 947.507131,209.643457 982.439833,211.040413 C1016.94408,212.432804 1045.86019,183.98237 1047.24583,147.291717 C1048.60868,111.294978 1021.11923,80.6212826 986.542055,79.5438913 C951.705072,78.4573696 922.88924,106.779978 921.786198,143.205848 M889.506267,143.621283 C891.493566,90.7788913 935.674499,47.9982391 986.309596,49.8791087 C1038.87729,51.837587 1082.44745,96.4488913 1079.68073,146.9265 C1076.49011,205.19237 1033.66291,241.011065 982.945773,240.312587 C929.735393,239.573022 887.610129,194.199326 889.506267,143.621283" id="Fill-3" fill="#000000"></path>
            <polygon id="Fill-5" fill="#000000" points="1446.87155 206.927152 1446.87155 236.121717 1316.44824 236.121717 1316.44824 52.7780217 1446.85788 52.7780217 1446.85788 80.9545435 1349.63066 80.9545435 1349.63066 128.747804 1411.27794 128.747804 1411.27794 157.700413 1349.23411 157.700413 1349.23411 206.927152"></polygon>
            <path d="M1714.93172,138.823239 C1740.04188,111.463891 1769.54141,79.3567174 1796.6571,49.8197609 L1754.5364,49.8197609 L1674.74362,132.851935 L1674.74362,49.9430217 L1643.44822,49.9430217 L1643.44822,233.492152 L1675.35895,233.492152 L1675.35895,141.443674 C1675.35895,141.443674 1732.73081,200.06563 1762.54485,233.592587 L1805.72301,233.592587 C1776.39213,202.950848 1740.01909,165.086935 1714.93172,138.823239" id="Fill-7" fill="#000000"></path>
            <path d="M397.880459,161.586783 L427.954306,88.3926522 L459.163101,161.586783 L397.880459,161.586783 Z M444.413333,49.8211304 L413.468903,50.1498261 L332.491037,234.776348 L367.806612,234.776348 L385.956666,190.598739 L471.53358,190.598739 L490.371896,234.776348 L525.3912,234.776348 L444.413333,49.8211304 Z" id="Fill-9" fill="#000000"></path>
            <polygon id="Fill-11" fill="#000000" points="734.123661 78.1738696 792.717069 78.1738696 792.717069 234.11713 823.005143 234.11713 823.005143 78.5025652 871.388575 78.5025652 883.804634 49.8193043 734.123661 49.8193043"></polygon>
            <path d="M1547.03232,128.007783 C1504.15954,115.873435 1509.11412,97.5258261 1511.36122,92.3625652 C1513.60833,87.1993043 1520.84191,78.1053913 1548.28122,78.1053913 C1575.72509,78.1053913 1594.93716,89.4134348 1594.93716,89.4134348 L1606.91109,65.0808261 C1606.15902,63.8482174 1584.20757,50.5771304 1547.7844,49.8375652 C1511.36122,49.1025652 1479.17701,69.9975652 1479.17701,99.0003913 C1479.17701,128.007783 1496.7482,141.781043 1531.32081,151.851913 C1570.47424,163.260391 1582.46185,173.235391 1582.46185,187.739087 C1582.46185,202.242783 1574.43517,212.811261 1545.98854,212.811261 C1521.68971,212.811261 1492.31324,193.632783 1485.04319,188.10887 L1473.55241,212.642348 C1482.96929,218.878435 1517.57837,238.623 1548.03509,238.623 C1582.46185,238.623 1611.40075,221.663217 1612.39896,186.511043 C1613.39716,151.35887 1586.01255,139.041913 1547.03232,128.007783" id="Fill-13" fill="#000000"></path>
            <path d="M664.386795,159.455739 C664.386795,184.852043 643.830104,205.441174 618.473812,205.441174 C593.112963,205.441174 572.56083,184.852043 572.56083,159.455739 L572.56083,49.8174783 L538.503269,49.8174783 L538.503269,156.739435 C538.503269,200.976391 574.306553,236.831609 618.473812,236.831609 C662.636514,236.831609 698.444356,200.976391 698.444356,156.739435 L698.444356,49.8174783 L664.386795,49.8174783 L664.386795,159.455739 Z" id="Fill-15" fill="#000000"></path>
            <path d="M1832.25163,221.567804 L1833.5142,221.567804 C1834.99556,221.567804 1836.18976,221.074761 1836.18976,219.878674 C1836.18976,218.814978 1835.4149,218.111935 1833.72843,218.111935 C1833.02194,218.111935 1832.52967,218.184978 1832.25163,218.253457 L1832.25163,221.567804 Z M1832.1787,228.123457 L1829.49858,228.123457 L1829.49858,216.559761 C1830.5606,216.349761 1832.0374,216.208239 1833.9381,216.208239 C1836.12139,216.208239 1837.10137,216.559761 1837.94916,217.05737 C1838.58273,217.550413 1839.07499,218.463457 1839.07499,219.591065 C1839.07499,220.864761 1838.09046,221.846283 1836.68659,222.270848 L1836.68659,222.416935 C1837.80786,222.836935 1838.44143,223.686065 1838.79695,225.233674 C1839.14792,226.991283 1839.35759,227.698891 1839.64019,228.123457 L1836.75496,228.123457 C1836.39943,227.698891 1836.18976,226.644326 1835.8388,225.302152 C1835.62457,224.033022 1834.92263,223.4715 1833.44583,223.4715 L1832.1787,223.4715 L1832.1787,228.123457 Z M1825.06818,222.060848 C1825.06818,227.205848 1828.86958,231.296283 1834.07484,231.296283 C1839.14792,231.296283 1842.87639,227.205848 1842.87639,222.133891 C1842.87639,216.984326 1839.14792,212.825413 1834.00647,212.825413 C1828.86958,212.825413 1825.06818,216.984326 1825.06818,222.060848 L1825.06818,222.060848 Z M1845.82999,222.060848 C1845.82999,228.6165 1840.69765,233.7615 1834.00647,233.7615 C1827.39278,233.7615 1822.11003,228.6165 1822.11003,222.060848 C1822.11003,215.646717 1827.39278,210.497152 1834.00647,210.497152 C1840.69765,210.497152 1845.82999,215.646717 1845.82999,222.060848 L1845.82999,222.060848 Z" id="Fill-17" fill="#000000"></path>
            <path d="M98.4442173,1.06871739 C90.5132543,1.53436957 87.2542667,6.06306522 86.8394864,6.69763043 C86.8030222,6.75241304 86.7847901,6.77980435 86.7847901,6.77523913 L1.54061235,209.731109 C1.49047407,209.927413 1.4038716,210.1785 1.28536296,210.50263 C-0.615333333,215.606543 -0.246133333,219.902413 1.34005926,223.371978 L2.29268642,225.138717 C5.97557037,231.009587 13.2273877,234.027196 17.5529531,234.036326 L79.2549333,234.036326 L143.969768,81.489587 C127.583669,42.6304565 115.254212,13.5682826 113.481141,9.82023913 C109.985136,2.47480435 102.906523,0.803934783 98.4442173,1.06871739" id="Fill-19" fill="#9CC152"></path>
            <path d="M17.5547763,234.037696 C13.2246528,234.028565 5.97739358,231.010957 2.29450963,225.140087 L26.356322,269.737696 L45.8509936,305.871391 C50.1583269,313.609435 60.9790775,314.472261 60.9790775,314.472261 C72.1827022,315.230087 92.9125985,304.812261 96.9965886,302.452043 C100.93928,300.174 195.340529,241.835087 207.966258,234.037696 L79.2521985,234.037696 L17.5547763,234.037696 Z" id="Fill-21" fill="#36C9C1"></path>
            <path d="M2.29359802,225.138717 L1.34097086,223.371978 C1.6235684,223.988283 1.94263012,224.577196 2.29359802,225.138717" id="Fill-23" fill="#000000"></path>
            <path id="Fill-25" fill="#000000"></path>
            <path id="Fill-27" fill="#000000"></path>
            <path id="Fill-29" fill="#000000"></path>
            <path d="M201.229041,7.94576087 C201.229041,7.94576087 198.849753,0.0844565217 188.115604,0.130108696 C188.115604,0.130108696 173.215422,0.075326087 155.534844,0.0388043478 C130.611565,-0.0114130435 100.145728,-0.0433695652 98.0991748,0.13923913 C92.7480538,0.59576087 88.3860242,4.18402174 86.8362958,6.69945652 C87.2556341,6.0648913 90.5100637,1.53619565 98.4455847,1.07054348 C102.903333,0.80576087 109.986503,2.47206522 113.482508,9.82206522 C115.25558,13.5655435 127.580479,42.6277174 143.966577,81.491413 C179.728839,166.281196 234.835358,297.73663 241.986898,314.801413 L330.503738,314.801413 L201.229041,7.94576087 Z" id="Fill-31" fill="#1F6DB6"></path>
        </g>
    </g>
</svg>