<?xml version="1.0" encoding="UTF-8" standalone="no"?>
<svg width="953px" height="168px" viewBox="0 0 953 168" version="1.1" xmlns="http://www.w3.org/2000/svg" xmlns:xlink="http://www.w3.org/1999/xlink">
    <!-- Generator: Sketch 3.8.2 (29753) - http://www.bohemiancoding.com/sketch -->
    <title>bisam</title>
    <desc>Created with Sketch.</desc>
    <defs>
        <polygon id="path-1" points="0 0.130133333 0 162.3508 131.300717 162.3508 131.300717 0.130133333"></polygon>
    </defs>
    <g id="Page-1" stroke="none" stroke-width="1" fill="none" fill-rule="evenodd">
        <g id="bisam">
            <g id="Group-3" transform="translate(0.000000, 2.517600)">
                <mask id="mask-2" fill="white">
                    <use xlink:href="#path-1"></use>
                </mask>
                <g id="Clip-2"></g>
                <path d="M112.710194,116.928133 C112.710194,135.0048 97.3700708,145.8948 72.7346862,145.8948 L18.1250246,145.8948 L18.1250246,88.6581333 L69.4842862,88.6581333 C97.8407169,88.6581333 112.710194,98.8514667 112.710194,116.466133 L112.710194,116.928133 Z M18.1250246,16.5861333 L67.6237631,16.5861333 C90.8619169,16.5861333 103.650255,27.0141333 103.650255,43.0008 L103.650255,43.4628 C103.650255,62.4708 88.3101323,72.4368 66.2338862,72.4368 L18.1250246,72.4368 L18.1250246,16.5861333 Z M96.4434862,78.4574667 C109.224471,72.8988 122.233425,62.0088 122.233425,40.9181333 L122.233425,40.4561333 C122.233425,30.0281333 118.519732,21.4481333 111.783609,14.4961333 C102.480994,5.46146667 87.84684,0.130133333 69.2489631,0.130133333 L-0.00220615385,0.130133333 L-0.00220615385,162.3508 L72.2713938,162.3508 C107.82724,162.3508 131.300717,145.8948 131.300717,118.0868 L131.300717,117.6248 C131.300717,95.3754667 115.732625,84.2508 96.4434862,78.4574667 L96.4434862,78.4574667 Z" id="Fill-1" fill="#1D1C1B" mask="url(#mask-2)"></path>
            </g>
            <polygon id="Fill-4" fill="#1D1C1B" points="227.476523 164.866933 245.839077 164.866933 245.839077 2.64626667 227.476523 2.64626667"></polygon>
            <path d="M409.883529,74.9522 C374.09236,67.3035333 365.731037,58.7308667 365.731037,43.4335333 L365.731037,42.9715333 C365.731037,28.3708667 379.210637,16.7842 400.352945,16.7842 C417.082945,16.7842 432.195098,22.1155333 447.292545,34.3988667 L457.985037,20.2602 C441.483006,7.05286667 424.525037,0.335533333 400.823591,0.335533333 C369.908022,0.335533333 347.368483,19.1015333 347.368483,44.5922 L347.368483,45.0542 C347.368483,71.7108667 364.561775,83.7595333 401.978145,91.8702 C436.144114,99.0568667 444.277468,107.629533 444.277468,122.6922 L444.277468,123.1542 C444.277468,139.140867 429.863929,150.727533 408.023006,150.727533 C385.483468,150.727533 369.21676,143.0862 352.251437,127.788867 L340.860329,141.230867 C360.384791,158.610867 381.534452,167.183533 407.324391,167.183533 C439.629837,167.183533 462.867991,149.106867 462.867991,121.298867 L462.867991,120.836867 C462.867991,96.0428667 446.137991,82.8355333 409.883529,74.9522" id="Fill-6" fill="#1D1C1B"></path>
            <path d="M619.257825,105.309267 L611.73484,121.9926" id="Fill-7" fill="#1D1C1B"></path>
            <polyline id="Fill-8" fill="#1D1C1B" points="667.540972 121.995533 686.594788 164.8662 706.347218 164.8662 632.213095 1.48686667 615.019803 1.48686667 540.88568 164.8662 559.711526 164.8662 579.000665 121.995533 611.732634 121.995533 619.255618 105.3122 586.20008 105.3122 623.38848 22.8122 660.341557 105.3122"></polyline>
            <polygon id="Fill-9" fill="#1D1C1B" points="933.593566 2.64993333 874.32892 91.1706 815.071628 2.64993333 796.481105 2.64993333 796.481105 164.8706 814.373012 164.8706 814.373012 33.6992667 873.637658 120.371933 874.564243 120.371933 933.821535 33.4719333 933.821535 164.8706 952.176735 164.8706 952.176735 2.64993333"></polygon>
        </g>
    </g>
</svg>