<?xml version="1.0" encoding="UTF-8" standalone="no"?>
<svg width="1753px" height="394px" viewBox="0 0 1753 394" version="1.1" xmlns="http://www.w3.org/2000/svg" xmlns:xlink="http://www.w3.org/1999/xlink">
    <!-- Generator: Sketch 3.8.3 (29802) - http://www.bohemiancoding.com/sketch -->
    <title>boursier</title>
    <desc>Created with Sketch.</desc>
    <defs>
        <polygon id="path-1" points="0 393.034483 1752.34953 393.034483 1752.34953 0.646 0 0.646"></polygon>
        <polygon id="path-3" points="0 393.034483 1752.34953 393.034483 1752.34953 0.646 0 0.646"></polygon>
    </defs>
    <g id="Page-1" stroke="none" stroke-width="1" fill="none" fill-rule="evenodd">
        <g id="boursier">
            <polygon id="Fill-1" fill="#0C71B4" points="1138.21528 362.011262 1727.36806 362.011262 1727.36806 31.1491931 1138.21528 31.1491931"></polygon>
            <g id="Group-8" transform="translate(0.000000, 0.321607)">
                <path d="M1090.0177,275.200917 C1090.0177,251.169883 1109.51203,231.694297 1133.5662,231.694297 C1157.62037,231.694297 1177.1147,251.169883 1177.1147,275.200917 C1177.1147,299.231952 1157.62037,318.707538 1133.5662,318.707538 C1109.51203,318.707538 1090.0177,299.231952 1090.0177,275.200917 L1090.0177,275.200917 Z" id="Fill-2" fill="#252F61"></path>
                <path d="M1133.5669,256.07291 C1145.58701,256.07291 1156.51248,259.332772 1164.77456,264.640497 C1160.3472,251.594083 1148.1249,242.141876 1133.5669,242.141876 C1119.0089,242.141876 1106.78659,251.594083 1102.35923,264.640497 C1110.62131,259.332772 1121.54679,256.07291 1133.5669,256.07291" id="Fill-4" fill="#269DD4"></path>
                <mask id="mask-2" fill="white">
                    <use xlink:href="#path-1"></use>
                </mask>
                <g id="Clip-7"></g>
                <path d="M0,393.034483 L1752.34953,393.034483 L1752.34953,0.646 L0,0.646 L0,393.034483 Z M13.9444444,379.103448 L1738.40508,379.103448 L1738.40508,14.5770345 L13.9444444,14.5770345 L13.9444444,379.103448 Z" id="Fill-6" fill="#929A9F" mask="url(#mask-2)"></path>
            </g>
            <g id="Group-26" transform="translate(0.000000, 0.321607)">
                <path d="M138.668436,281.977669 C160.756436,281.977669 173.146075,270.609945 173.146075,250.549255 C173.146075,228.141186 157.744436,213.430014 133.648436,213.430014 L121.265769,213.430014 L121.265769,281.977669 L138.668436,281.977669 L138.668436,281.977669 Z M133.648436,181.667255 C154.732436,181.667255 168.453769,169.296497 168.453769,150.231876 C168.453769,141.873255 165.441769,134.524634 160.087103,129.502497 C154.397769,124.487324 147.369769,122.481255 134.317769,122.481255 L121.265769,122.481255 L121.265769,181.667255 L133.648436,181.667255 L133.648436,181.667255 Z M86.7951028,90.7184966 L138.333769,90.7184966 C180.174075,90.7184966 203.600742,111.113531 203.600742,147.222772 C203.600742,173.642979 191.887408,189.357186 166.787408,197.047117 C196.907408,205.740083 208.955408,221.119945 208.955408,250.549255 C208.955408,290.001945 184.190075,313.747393 142.684436,313.747393 L86.7951028,313.747393 L86.7951028,90.7184966 L86.7951028,90.7184966 Z" id="Fill-9" fill="#1D1C1B"></path>
                <path d="M257.812558,242.187152 C257.812558,259.907428 258.816558,265.59129 262.163225,272.619497 C266.179225,279.968117 274.545892,284.65591 284.251225,284.65591 C293.963531,284.65591 302.323225,279.968117 306.339225,272.619497 C310.027531,265.59129 310.689892,260.241772 310.689892,242.187152 L310.689892,162.271772 C310.689892,144.217152 310.027531,138.867634 306.339225,131.846393 C302.323225,124.490807 293.963531,119.809979 284.251225,119.809979 C274.545892,119.809979 266.179225,124.490807 262.163225,131.846393 C258.816558,138.53329 257.812558,144.551497 257.812558,162.271772 L257.812558,242.187152 Z M345.167531,242.855841 C345.167531,267.931703 341.486197,282.977221 332.450197,295.68929 C322.410197,309.731772 305.676864,317.087359 284.251225,317.087359 C262.832558,317.087359 246.099225,309.731772 236.059225,295.68929 C227.016253,282.977221 223.341892,267.931703 223.341892,242.855841 L223.341892,161.603083 C223.341892,136.527221 227.016253,121.474738 236.059225,108.769634 C246.099225,94.7271517 262.832558,87.3715655 284.251225,87.3715655 C305.676864,87.3715655 322.410197,94.7271517 332.450197,108.769634 C341.486197,121.474738 345.167531,136.527221 345.167531,161.603083 L345.167531,242.855841 Z" id="Fill-11" fill="#1D1C1B"></path>
                <path d="M480.725658,90.7178 L480.725658,241.855593 C480.725658,269.940559 477.378992,284.317386 468.008325,297.02249 C458.302992,310.068903 441.904325,317.090145 421.817353,317.090145 C401.402686,317.090145 385.004019,310.068903 375.298686,297.02249 C365.928019,284.317386 362.581353,269.940559 362.581353,241.855593 L362.581353,90.7178 L397.052019,90.7178 L397.052019,247.539455 C397.052019,273.952697 404.080019,284.651731 421.482686,284.651731 C439.220019,284.651731 446.254992,273.952697 446.254992,247.539455 L446.254992,90.7178 L480.725658,90.7178 Z" id="Fill-13" fill="#1D1C1B"></path>
                <path d="M547.339664,190.360917 C562.064997,190.360917 568.758331,188.689193 574.112997,183.339676 C579.802331,177.655814 582.486636,168.621538 582.486636,156.257745 C582.486636,144.214366 579.802331,135.187055 574.112997,129.503193 C568.758331,124.153676 562.064997,122.481952 547.339664,122.481952 L534.622331,122.481952 L534.622331,190.360917 L547.339664,190.360917 Z M534.622331,313.741124 L500.144692,313.741124 L500.144692,90.7191931 L554.032997,90.7191931 C574.447664,90.7191931 587.506636,94.731331 598.215969,104.092986 C611.602636,115.46071 618.295969,132.512297 618.295969,154.579055 C618.295969,182.670986 608.255969,202.062986 588.168997,212.427676 L620.973303,313.741124 L584.822331,313.741124 L555.371664,222.123676 L534.622331,222.123676 L534.622331,313.741124 Z" id="Fill-15" fill="#1D1C1B"></path>
                <path d="M716.702611,152.91151 C711.347944,130.844752 701.307944,119.811372 687.251944,119.811372 C674.534611,119.811372 664.829278,129.507372 664.829278,142.546821 C664.829278,150.236752 668.175944,158.595372 674.199944,164.947924 C679.889278,171.300476 679.889278,171.300476 703.650611,189.355097 C722.391944,204.066269 729.419944,210.418821 736.782611,219.453097 C745.825583,230.486476 751.18025,245.197648 751.18025,260.243166 C751.18025,294.018959 726.407944,317.088752 689.929278,317.088752 C651.770306,317.088752 629.347639,296.693717 622.319639,254.224959 L655.451639,244.528959 C659.802306,271.276545 671.522611,284.657303 689.929278,284.657303 C704.989278,284.657303 715.363944,274.285648 715.363944,259.240131 C715.363944,245.197648 708.335944,236.170338 682.231944,215.768338 C651.100972,191.368131 649.762306,190.023786 641.395639,179.324752 C633.363639,168.960062 629.012972,155.920614 629.012972,142.212476 C629.012972,110.108407 653.108972,87.3729586 687.251944,87.3729586 C719.045278,87.3729586 740.470917,106.430614 749.834611,143.21551 L716.702611,152.91151 Z" id="Fill-17" fill="#1D1C1B"></path>
                <mask id="mask-4" fill="white">
                    <use xlink:href="#path-3"></use>
                </mask>
                <g id="Clip-20"></g>
                <polygon id="Fill-19" fill="#1D1C1B" mask="url(#mask-4)" points="760.892556 313.746 795.363222 313.746 795.363222 90.7171034 760.892556 90.7171034"></polygon>
                <polygon id="Fill-21" fill="#1D1C1B" mask="url(#mask-4)" points="916.186953 122.481255 849.581314 122.481255 849.581314 181.33291 898.784286 181.33291 898.784286 213.095669 849.581314 213.095669 849.581314 281.977669 916.186953 281.977669 916.186953 313.740428 815.110647 313.740428 815.110647 90.7184966 916.186953 90.7184966"></polygon>
                <path d="M972.754683,190.360917 C987.480017,190.360917 994.17335,188.689193 999.528017,183.339676 C1005.21735,177.655814 1007.90166,168.621538 1007.90166,156.257745 C1007.90166,144.214366 1005.21735,135.187055 999.528017,129.503193 C994.17335,124.153676 987.480017,122.481952 972.754683,122.481952 L960.03735,122.481952 L960.03735,190.360917 L972.754683,190.360917 Z M960.03735,313.741124 L925.559711,313.741124 L925.559711,90.7191931 L979.448017,90.7191931 C999.862683,90.7191931 1012.92166,94.731331 1023.63099,104.092986 C1037.01766,115.46071 1043.71099,132.512297 1043.71099,154.579055 C1043.71099,182.670986 1033.67099,202.062986 1013.58402,212.427676 L1046.38832,313.741124 L1010.23735,313.741124 L980.786683,222.123676 L960.03735,222.123676 L960.03735,313.741124 Z" id="Fill-22" fill="#1D1C1B" mask="url(#mask-4)"></path>
                <path d="M1328.18811,163.27411 L1328.18811,157.590248 C1328.18811,133.183076 1319.15211,119.809283 1302.08411,119.809283 C1292.71345,119.809283 1285.34381,123.821421 1281.66945,130.842662 C1277.31878,138.198248 1276.31478,144.885145 1276.31478,162.939766 L1276.31478,237.171283 C1276.31478,254.222869 1277.31878,262.9228 1279.98914,270.271421 C1283.33581,279.305697 1292.04411,284.655214 1302.41878,284.655214 C1315.13611,284.655214 1323.50278,276.965283 1326.84945,261.578455 C1328.18811,256.228938 1328.52278,250.879421 1328.85745,235.499559 L1363.66975,235.499559 L1363.66975,242.855145 C1363.66975,291.676455 1342.57878,317.086662 1302.41878,317.086662 C1279.98914,317.086662 1262.25181,308.393697 1252.54648,292.345145 C1244.17981,278.637007 1241.83714,265.590593 1241.83714,232.490455 L1241.83714,169.961007 C1241.83714,134.520455 1244.51448,122.149697 1254.88914,108.107214 C1264.59448,94.7264552 1281.33478,87.370869 1302.08411,87.370869 C1340.90545,87.370869 1362.65878,112.781076 1362.65878,158.258938 L1362.65878,163.27411 L1328.18811,163.27411 Z" id="Fill-23" fill="#FEFEFE" mask="url(#mask-4)"></path>
                <path d="M1411.83386,242.187152 C1411.83386,259.907428 1412.84484,265.59129 1416.1915,272.619497 C1420.2075,279.968117 1428.5672,284.65591 1438.2795,284.65591 C1447.99181,284.65591 1456.3515,279.968117 1460.3675,272.619497 C1464.04884,265.59129 1464.71817,260.241772 1464.71817,242.187152 L1464.71817,162.271772 C1464.71817,144.217152 1464.04884,138.867634 1460.3675,131.846393 C1456.3515,124.490807 1447.99181,119.809979 1438.2795,119.809979 C1428.5672,119.809979 1420.2075,124.490807 1416.1915,131.846393 C1412.84484,138.53329 1411.83386,144.551497 1411.83386,162.271772 L1411.83386,242.187152 Z M1499.18884,242.855841 C1499.18884,267.931703 1495.51447,282.977221 1486.4715,295.68929 C1476.43847,309.731772 1459.69817,317.087359 1438.2795,317.087359 C1416.86084,317.087359 1400.12053,309.731772 1390.0875,295.68929 C1381.04453,282.977221 1377.37017,267.931703 1377.37017,242.855841 L1377.37017,161.603083 C1377.37017,136.527221 1381.04453,121.474738 1390.0875,108.769634 C1400.12053,94.7271517 1416.86084,87.3715655 1438.2795,87.3715655 C1459.69817,87.3715655 1476.43847,94.7271517 1486.4715,108.769634 C1495.51447,121.474738 1499.18884,136.527221 1499.18884,161.603083 L1499.18884,242.855841 Z" id="Fill-24" fill="#FEFEFE" mask="url(#mask-4)"></path>
                <polygon id="Fill-25" fill="#FEFEFE" mask="url(#mask-4)" points="1678.92994 313.74391 1646.1326 313.74391 1646.1326 149.566669 1607.31127 313.74391 1587.89363 313.74391 1549.40696 149.566669 1549.40696 313.74391 1516.60963 313.74391 1516.60963 90.7150138 1567.1443 90.7150138 1597.93363 230.819428 1629.0646 90.7150138 1678.92994 90.7150138"></polygon>
            </g>
        </g>
    </g>
</svg>