<?xml version="1.0" encoding="UTF-8" standalone="no"?>
<svg width="1781px" height="1104px" viewBox="0 0 1781 1104" version="1.1" xmlns="http://www.w3.org/2000/svg" xmlns:xlink="http://www.w3.org/1999/xlink">
    <!-- Generator: Sketch 3.8.3 (29802) - http://www.bohemiancoding.com/sketch -->
    <title>buongiorno</title>
    <desc>Created with Sketch.</desc>
    <defs>
        <polygon id="path-1" points="1.64566401e-19 0.977214286 1.64566401e-19 184.820071 148.456143 184.820071 148.456143 0.977214286 0 0.977214286"></polygon>
        <polygon id="path-3" points="0.477214286 186.285714 149.615786 186.285714 149.615786 0.976 0.477214286 0.976"></polygon>
        <polygon id="path-5" points="0.7895 187.285714 159.618071 187.285714 159.618071 0.509142857 0.7895 0.509142857 0.7895 187.285714"></polygon>
        <polygon id="path-7" points="0 1103.89743 1780.47071 1103.89743 1780.47071 0.00242857143 0 0.00242857143"></polygon>
    </defs>
    <g id="Page-1" stroke="none" stroke-width="1" fill="none" fill-rule="evenodd">
        <g id="buongiorno">
            <g id="Group-3" transform="translate(0.000000, 917.611714)">
                <mask id="mask-2" fill="white">
                    <use xlink:href="#path-1"></use>
                </mask>
                <g id="Clip-2"></g>
                <path d="M46.1768571,144.615071 L81.039,144.615071 C96.0475714,144.615071 102.276857,140.935786 102.276857,125.987929 C102.276857,110.785071 96.9704286,108.575071 81.9618571,108.575071 L46.1768571,108.575071 L46.1768571,144.615071 Z M46.1768571,74.5265 L79.424,74.5265 C95.5861429,74.5265 99.5082857,71.5757857 99.5082857,56.8707857 C99.5082857,45.8329286 97.8932857,41.6800714 84.9611429,41.1822143 L46.1768571,41.1822143 L46.1768571,74.5265 Z M-0.00242857143,0.977214286 L90.9597143,0.977214286 C125.360429,0.977214286 145.675429,7.85007143 145.675429,48.0429286 C145.675429,71.3329286 141.304,86.5236429 118.439,90.4457857 L118.439,92.4007857 C144.072571,94.1250714 148.456143,110.542214 148.456143,133.589357 C148.456143,178.687929 128.602571,184.820071 91.8947143,184.820071 L-0.00242857143,184.820071 L-0.00242857143,0.977214286 Z" id="Fill-1" fill="#133478" mask="url(#mask-2)"></path>
            </g>
            <g id="Group-6" transform="translate(182.142857, 917.611714)">
                <mask id="mask-4" fill="white">
                    <use xlink:href="#path-3"></use>
                </mask>
                <g id="Clip-5"></g>
                <path d="M149.615786,0.976 L149.615786,123.546 C149.615786,172.566714 127.9165,186.288143 77.1229286,186.288143 C7.86007143,186.288143 0.477214286,167.661 0.477214286,123.546 L0.477214286,0.976 L46.6443571,0.976 L46.6443571,122.562429 C46.6443571,143.399571 57.7307857,143.630286 77.1229286,143.630286 C96.7457857,143.630286 103.448643,141.918143 103.448643,120.352429 L103.448643,0.976 L149.615786,0.976 Z" id="Fill-4" fill="#133478" mask="url(#mask-4)"></path>
            </g>
            <path d="M477.906429,1031.09979 L477.906429,989.6805 C477.906429,962.468357 469.357857,959.772643 445.351429,959.772643 C421.345,959.772643 413.488571,962.468357 412.796429,989.6805 L412.796429,1031.09979 C413.488571,1058.55479 421.345,1061.23836 445.351429,1061.23836 C469.357857,1061.23836 477.906429,1058.55479 477.906429,1031.09979 M365.245,1036.49121 L365.245,984.531929 C365.245,927.909786 398.48,917.114786 445.351429,917.114786 C492.222857,917.114786 525.47,927.909786 525.47,984.531929 L525.47,1036.49121 C525.47,1093.11336 492.222857,1103.89621 445.351429,1103.89621 C398.48,1103.89621 365.245,1093.11336 365.245,1036.49121" id="Fill-7" fill="#133478"></path>
            <polygon id="Fill-9" fill="#133478" points="604.884286 1102.42693 558.705 1102.42693 558.705 918.584071 636.747143 918.584071 686.375 1059.76907 688.232857 1059.76907 685.452143 918.584071 731.631429 918.584071 731.631429 1102.42693 652.909286 1102.42693 603.961429 961.241929 602.115714 961.241929"></polygon>
            <g id="Group-13" transform="translate(763.857143, 916.611714)">
                <mask id="mask-6" fill="white">
                    <use xlink:href="#path-5"></use>
                </mask>
                <g id="Clip-12"></g>
                <path d="M112.758786,59.0862857 C111.835929,40.4712857 96.8273571,40.702 82.9723571,40.702 C49.7373571,40.702 48.8023571,51.497 48.3409286,81.1498571 L48.3409286,111.045571 C48.3409286,143.661286 58.9659286,147.085571 82.9723571,147.085571 C106.517357,147.085571 112.758786,141.451286 112.758786,115.963429 L80.9080714,115.963429 L80.9080714,81.8905714 L159.618071,81.8905714 L159.618071,113.984143 C159.618071,176.009857 144.852357,187.290571 82.9723571,187.290571 C28.4995,187.290571 0.7895,177.479143 0.7895,117.930571 L0.7895,70.3791429 C0.7895,9.592 32.1909286,0.509142857 82.9723571,0.509142857 C127.767357,0.509142857 159.618071,0.752 159.618071,59.0862857 L112.758786,59.0862857 Z" id="Fill-11" fill="#133478" mask="url(#mask-6)"></path>
            </g>
            <mask id="mask-8" fill="white">
                <use xlink:href="#path-7"></use>
            </mask>
            <g id="Clip-15"></g>
            <polygon id="Fill-14" fill="#133478" mask="url(#mask-8)" points="958.095714 1102.42814 1004.275 1102.42814 1004.275 918.585286 958.095714 918.585286"></polygon>
            <path d="M1150.41793,1031.09979 L1150.41793,989.6805 C1150.41793,962.468357 1141.8815,959.772643 1117.87507,959.772643 C1093.88079,959.772643 1086.02436,962.468357 1085.32007,989.6805 L1085.32007,1031.09979 C1086.02436,1058.55479 1093.88079,1061.23836 1117.87507,1061.23836 C1141.8815,1061.23836 1150.41793,1058.55479 1150.41793,1031.09979 M1037.76864,1036.49121 L1037.76864,984.531929 C1037.76864,927.909786 1071.01579,917.114786 1117.87507,917.114786 C1164.7465,917.114786 1197.99364,927.909786 1197.99364,984.531929 L1197.99364,1036.49121 C1197.99364,1093.11336 1164.7465,1103.89621 1117.87507,1103.89621 C1071.01579,1103.89621 1037.76864,1093.11336 1037.76864,1036.49121" id="Fill-16" fill="#133478" mask="url(#mask-8)"></path>
            <path d="M1312.25914,1010.99971 C1332.137,1010.99971 1331.42057,1003.16757 1331.42057,982.318286 C1331.42057,965.901143 1327.51057,961.238286 1312.25914,961.238286 L1276.49843,961.238286 L1276.49843,1010.99971 L1312.25914,1010.99971 Z M1230.31914,918.592571 L1319.42343,918.592571 C1359.36129,919.321143 1378.99629,928.404 1378.99629,974.231143 C1378.99629,1004.86757 1378.99629,1022.77829 1346.19843,1030.86543 L1346.19843,1032.80829 C1365.14129,1033.549 1377.38129,1044.58686 1377.38129,1065.41186 L1377.38129,1102.42329 L1331.21414,1102.42329 L1331.21414,1076.68043 C1331.66343,1062.959 1326.11414,1053.65757 1312.25914,1053.65757 L1276.49843,1053.65757 L1276.49843,1102.42329 L1230.31914,1102.42329 L1230.31914,918.592571 Z" id="Fill-17" fill="#133478" mask="url(#mask-8)"></path>
            <polygon id="Fill-18" fill="#133478" mask="url(#mask-8)" points="1460.25021 1102.42693 1414.09521 1102.42693 1414.09521 918.584071 1492.12521 918.584071 1541.76521 1059.76907 1543.61093 1059.76907 1540.84236 918.584071 1587.0095 918.584071 1587.0095 1102.42693 1508.27521 1102.42693 1459.35164 961.241929 1457.49379 961.241929"></polygon>
            <path d="M1732.91929,1031.09979 L1732.91929,989.6805 C1732.91929,962.468357 1724.38286,959.772643 1700.35214,959.772643 C1676.35786,959.772643 1668.50143,962.468357 1667.82143,989.6805 L1667.82143,1031.09979 C1668.50143,1058.55479 1676.35786,1061.23836 1700.35214,1061.23836 C1724.38286,1061.23836 1732.91929,1058.55479 1732.91929,1031.09979 M1620.24571,1036.49121 L1620.24571,984.531929 C1620.24571,927.909786 1653.49286,917.114786 1700.35214,917.114786 C1747.24786,917.114786 1780.47071,927.909786 1780.47071,984.531929 L1780.47071,1036.49121 C1780.47071,1093.11336 1747.24786,1103.89621 1700.35214,1103.89621 C1653.49286,1103.89621 1620.24571,1093.11336 1620.24571,1036.49121" id="Fill-19" fill="#133478" mask="url(#mask-8)"></path>
            <path d="M509.419571,762.332214 L100.278143,762.332214 L100.278143,103.727929 L505.315286,103.727929 C658.485286,103.727929 748.949571,128.317214 748.949571,272.3315 C748.949571,355.752929 729.411714,410.2015 627.642429,424.250786 L627.642429,431.269357 C741.748857,437.425786 761.286714,496.257929 761.286714,578.805071 C761.286714,740.377929 672.874571,762.332214 509.419571,762.332214 M743.679571,0.00364285714 L119.099571,0.00364285714 C71.3052857,0.00364285714 0.196714286,31.6722143 0.196714286,118.894357 L0.196714286,743.4865 C0.196714286,791.292929 31.8652857,862.389357 119.099571,862.389357 L743.679571,862.389357 C791.486,862.389357 862.582429,830.732929 862.582429,743.4865 L862.582429,118.894357 C862.582429,71.1000714 830.913857,0.00364285714 743.679571,0.00364285714" id="Fill-20" fill="#E42313" mask="url(#mask-8)"></path>
            <path d="M465.217143,489.229643 L305.878571,489.229643 L305.878571,618.308214 L461.100714,618.308214 C527.922857,618.308214 555.681429,605.145357 555.681429,551.583214 C555.681429,497.134643 532.039286,489.229643 465.217143,489.229643" id="Fill-21" fill="#E42313" mask="url(#mask-8)"></path>
            <path d="M543.3455,303.945429 C543.3455,264.432571 536.144786,249.496857 478.587643,247.748286 L305.879786,247.748286 L305.879786,367.173286 L453.913357,367.173286 C525.871929,367.173286 543.3455,356.633286 543.3455,303.945429" id="Fill-22" fill="#E42313" mask="url(#mask-8)"></path>
            <path d="M1237.24421,568.455714 L1070.77779,568.455714 L1028.01064,105.897857 L1278.86993,105.897857 L1237.24421,568.455714 Z M1047.66993,764.611429 L1255.73779,764.611429 L1255.73779,627.749286 L1047.66993,627.749286 L1047.66993,764.611429 Z M1658.73493,0.473571429 L1034.82279,0.473571429 C987.0285,0.473571429 915.932071,32.1421429 915.932071,119.376429 L915.932071,742.912143 C915.932071,790.706429 947.5885,861.815 1034.82279,861.815 L1658.73493,861.815 C1706.51707,861.815 1777.62564,830.146429 1777.62564,742.912143 L1777.62564,119.376429 C1777.62564,71.57 1745.95707,0.473571429 1658.73493,0.473571429 L1658.73493,0.473571429 Z" id="Fill-23" fill="#133478" mask="url(#mask-8)"></path>
        </g>
    </g>
</svg>