<?xml version="1.0" encoding="UTF-8" standalone="no"?>
<svg width="244px" height="72px" viewBox="0 0 244 72" version="1.1" xmlns="http://www.w3.org/2000/svg" xmlns:xlink="http://www.w3.org/1999/xlink">
    <!-- Generator: Sketch 3.8.3 (29802) - http://www.bohemiancoding.com/sketch -->
    <title>certinergy</title>
    <desc>Created with Sketch.</desc>
    <defs>
        <polygon id="path-1" points="6.77626358e-20 0.7308 6.77626358e-20 49.5698 32.0947 49.5698 32.0947 0.7308 0 0.7308"></polygon>
    </defs>
    <g id="Page-1" stroke="none" stroke-width="1" fill="none" fill-rule="evenodd">
        <g id="certinergy">
            <g id="Group-3" transform="translate(0.000000, 13.446700)">
                <mask id="mask-2" fill="white">
                    <use xlink:href="#path-1"></use>
                </mask>
                <g id="Clip-2"></g>
                <path d="M32.0947,7.0708 L30.4227,13.7588 L30.0977,13.6198 C29.4167,10.0908 28.0147,7.3148 25.8937,5.2938 C23.7727,3.2738 21.2107,2.2628 18.2077,2.2628 C14.2427,2.2628 11.0697,4.3538 8.6857,8.5338 C6.3007,12.7138 5.1097,18.2418 5.1097,25.1148 C5.1097,31.9428 6.3867,37.4708 8.9407,41.6968 C11.4957,45.9238 14.8467,48.0368 18.9967,48.0368 C22.4027,48.0368 25.3907,46.4348 27.9607,43.2298 C29.1377,41.7438 30.0817,39.8158 30.7947,37.4468 L31.1197,37.3078 L32.0947,43.2998 C28.4097,47.4798 23.9967,49.5698 18.8577,49.5698 C13.8717,49.5698 9.5837,47.5728 5.9917,43.5778 C4.1337,41.5348 2.6707,38.8638 1.6027,35.5658 C0.5337,32.2688 -0.0003,28.8078 -0.0003,25.1848 C-0.0003,18.7298 1.5167,13.2018 4.5517,8.6038 C7.9887,3.3558 12.6027,0.7308 18.3927,0.7308 C24.1207,0.7308 28.6887,2.8448 32.0947,7.0708" id="Fill-1" fill="#95C11E" mask="url(#mask-2)"></path>
            </g>
            <path d="M38.272,45.0644 L54.714,45.0644 C54.714,42.6804 54.001,40.7614 52.578,39.3054 C51.153,37.8504 49.264,37.1224 46.911,37.1224 C42.235,37.1224 39.355,39.7694 38.272,45.0644 M59.498,46.0404 L38.04,46.0404 C37.884,46.8144 37.807,47.7584 37.807,48.8734 C37.807,51.6914 38.365,54.1994 39.48,56.3974 C41.089,59.5874 43.861,61.1814 47.793,61.1814 C50.518,61.1814 52.848,60.3774 54.784,58.7664 C56.719,57.1564 58.12,54.8494 58.987,51.8454 L59.87,52.6354 C59.126,55.6704 57.594,58.0694 55.272,59.8354 C52.949,61.5994 50.193,62.4824 47.004,62.4824 C43.04,62.4824 39.765,61.2284 37.18,58.7204 C34.595,56.2114 33.302,53.0384 33.302,49.1984 C33.302,45.5754 34.618,42.4944 37.25,39.9554 C39.881,37.4174 43.086,36.1474 46.864,36.1474 C50.053,36.1474 52.863,37.0994 55.294,39.0034 C57.725,40.9074 59.126,43.2534 59.498,46.0404" id="Fill-4" fill="#95C11E"></path>
            <path d="M62.7026,38.562 L62.7026,38.283 C64.9946,37.912 67.0226,37.401 68.7876,36.75 L68.5556,43.253 C69.5456,41.117 70.8546,39.414 72.4796,38.144 C74.1056,36.875 75.8156,36.24 77.6126,36.24 C77.8286,36.24 78.0606,36.256 78.3086,36.286 L76.5906,41.163 C75.8156,40.296 74.9946,39.863 74.1286,39.863 C72.5186,39.863 71.2176,40.769 70.2266,42.58 C69.2356,44.391 68.7406,46.753 68.7406,49.663 L68.7406,53.518 C68.7406,56.615 68.9566,58.767 69.3906,59.974 C69.7316,60.873 70.4596,61.414 71.5746,61.6 L71.5746,61.925 C70.1806,61.802 68.5086,61.739 66.5576,61.739 C64.7926,61.739 63.2906,61.802 62.0526,61.925 L62.0526,61.6 C63.2606,61.445 64.0796,60.795 64.5146,59.649 C64.9476,58.504 65.1646,56.46 65.1646,53.518 L65.1646,52.032 C65.1646,45.777 65.0556,41.922 64.8396,40.466 C64.6836,39.352 63.9726,38.717 62.7026,38.562" id="Fill-6" fill="#95C11E"></path>
            <path d="M87.6904,30.5732 L87.5974,37.8192 L92.5214,37.8192 L92.1034,39.1192 L87.5514,39.1192 L87.4584,45.1572 C87.3654,51.3812 87.5744,55.5852 88.0854,57.7682 C88.5964,59.9512 89.6254,61.1982 91.1734,61.5072 L91.1734,61.8322 L85.8784,61.8322 C85.0734,61.5532 84.5324,61.0112 84.2534,60.2062 C83.8814,59.1542 83.6954,57.6212 83.6954,55.6082 C83.6954,54.4632 83.7734,50.3752 83.9284,43.3462 L84.0214,39.1192 L80.1194,39.1192 L80.3984,38.2372 C82.2254,37.4932 83.6104,36.5882 84.5554,35.5202 C85.4994,34.4512 86.3904,32.8022 87.2264,30.5732 L87.6904,30.5732 Z" id="Fill-8" fill="#95C11E"></path>
            <path d="M98.0942,28.3901 C98.7442,28.3901 99.3022,28.6221 99.7662,29.0871 C100.2302,29.5511 100.4632,30.1241 100.4632,30.8061 C100.4632,31.4251 100.2302,31.9671 99.7662,32.4311 C99.3022,32.8951 98.7442,33.1281 98.0942,33.1281 C97.4442,33.1281 96.8862,32.8951 96.4222,32.4311 C95.9572,31.9671 95.7252,31.4091 95.7252,30.7591 C95.7252,30.1091 95.9572,29.5511 96.4222,29.0871 C96.8862,28.6221 97.4442,28.3901 98.0942,28.3901 M94.2852,38.5621 L94.2852,38.2831 C97.2272,37.7571 99.2242,37.2461 100.2772,36.7501 L100.2772,53.5181 C100.2772,56.7071 100.4782,58.8441 100.8812,59.9281 C101.2212,60.8561 101.8862,61.4141 102.8782,61.5991 L102.8782,61.9251 C101.2672,61.8021 99.5952,61.7391 97.8622,61.7391 C96.3752,61.7391 95.0592,61.8021 93.9142,61.9251 L93.9142,61.5991 C94.9042,61.4141 95.6162,60.7021 96.0502,59.4631 C96.4842,58.2251 96.7002,56.2431 96.7002,53.5181 L96.7002,52.0321 C96.7002,45.8071 96.5922,41.9531 96.3752,40.4661 C96.2202,39.3511 95.5232,38.7171 94.2852,38.5621" id="Fill-10" fill="#95C11E"></path>
            <path d="M136.2261,63.8383 L110.0301,17.7633 L110.0301,34.8553 C110.0301,45.5573 110.2631,52.4933 110.7271,55.6643 C111.1911,58.8353 112.2441,60.7673 113.8851,61.4603 L113.8851,61.9803 C111.5321,61.7833 109.9061,61.6833 109.0091,61.6833 C107.7691,61.6833 106.3611,61.7833 104.7821,61.9803 L104.7821,61.4603 C106.0201,61.0143 106.9021,60.0983 107.4291,58.7113 C108.2031,56.6793 108.6671,52.8153 108.8231,47.1173 C108.8531,46.0773 108.8691,41.9893 108.8691,34.8553 L108.8691,23.4113 C108.8691,19.5963 108.6671,17.0323 108.2661,15.7193 C107.8631,14.4073 106.9801,13.3783 105.6181,12.6353 L105.6181,12.1153 C106.8261,12.3143 108.1101,12.4123 109.4731,12.4123 C110.8041,12.4123 112.0741,12.3143 113.2821,12.1153 L135.0651,50.9823 L135.0651,35.5243 C135.0651,28.5393 134.9101,23.2883 134.6011,19.7693 C134.3531,17.0943 133.7341,15.1623 132.7431,13.9733 C132.4331,13.5773 131.8911,13.1313 131.1181,12.6353 L131.1181,12.1153 C132.3251,12.3143 133.6251,12.4123 135.0191,12.4123 C136.6281,12.4123 138.2541,12.3143 139.8961,12.1153 L139.8961,12.6353 C138.6251,13.3783 137.7891,14.2463 137.3871,15.2363 C136.8921,16.4253 136.5671,18.6543 136.4131,21.9243 C136.2881,24.5013 136.2261,29.6293 136.2261,37.3083 L136.2261,63.8383 Z" id="Fill-12" fill="#525B53"></path>
            <path d="M145.1431,45.0644 L161.5851,45.0644 C161.5851,42.6804 160.8721,40.7614 159.4491,39.3054 C158.0251,37.8504 156.1351,37.1224 153.7831,37.1224 C149.1071,37.1224 146.2271,39.7694 145.1431,45.0644 M166.3701,46.0404 L144.9121,46.0404 C144.7551,46.8144 144.6791,47.7584 144.6791,48.8734 C144.6791,51.6914 145.2361,54.1994 146.3511,56.3974 C147.9601,59.5874 150.7321,61.1814 154.6641,61.1814 C157.3891,61.1814 159.7201,60.3774 161.6561,58.7664 C163.5901,57.1564 164.9921,54.8494 165.8591,51.8454 L166.7421,52.6354 C165.9981,55.6704 164.4651,58.0694 162.1431,59.8354 C159.8211,61.5994 157.0641,62.4824 153.8751,62.4824 C149.9121,62.4824 146.6371,61.2284 144.0521,58.7204 C141.4661,56.2114 140.1731,53.0384 140.1731,49.1984 C140.1731,45.5754 141.4901,42.4944 144.1221,39.9554 C146.7531,37.4174 149.9571,36.1474 153.7361,36.1474 C156.9251,36.1474 159.7351,37.0994 162.1661,39.0034 C164.5971,40.9074 165.9981,43.2534 166.3701,46.0404" id="Fill-14" fill="#525B53"></path>
            <path d="M166.7876,38.562 L166.7876,38.283 C169.0786,37.912 171.1066,37.401 172.8726,36.75 L172.6406,43.253 C173.6306,41.117 174.9386,39.414 176.5646,38.144 C178.1906,36.875 179.9006,36.24 181.6976,36.24 C181.9136,36.24 182.1456,36.256 182.3936,36.286 L180.6756,41.163 C179.9006,40.296 179.0806,39.863 178.2136,39.863 C176.6026,39.863 175.3036,40.769 174.3116,42.58 C173.3206,44.391 172.8256,46.753 172.8256,49.663 L172.8256,53.518 C172.8256,56.615 173.0426,58.767 173.4756,59.974 C173.8166,60.873 174.5446,61.414 175.6586,61.6 L175.6586,61.925 C174.2666,61.802 172.5936,61.739 170.6426,61.739 C168.8776,61.739 167.3756,61.802 166.1376,61.925 L166.1376,61.6 C167.3456,61.445 168.1656,60.795 168.5996,59.649 C169.0326,58.504 169.2496,56.46 169.2496,53.518 L169.2496,52.032 C169.2496,45.777 169.1416,41.922 168.9246,40.466 C168.7686,39.352 168.0576,38.717 166.7876,38.562" id="Fill-16" fill="#525B53"></path>
            <path d="M213.6978,46.9223 C212.7378,45.0343 211.5148,42.8353 210.0288,40.3273 C209.0368,38.6543 207.8758,37.5403 206.5448,36.9833 L206.5448,36.6573 C206.7848,36.6733 206.9988,36.6853 207.2248,36.6993 C206.2768,35.7613 205.1888,35.2643 203.9438,35.2643 C202.3018,35.2643 201.0028,35.8533 200.0428,37.0293 C204.4698,38.9493 206.6838,41.6583 206.6838,45.1573 C206.6838,47.5113 205.6708,49.5233 203.6418,51.1953 C202.8628,51.8383 202.0008,52.3703 201.0588,52.7983 C205.1638,55.1253 209.9038,56.4613 214.9598,56.4613 C216.0998,56.4613 217.2228,56.3853 218.3278,56.2543 C217.9468,55.4053 217.5028,54.4783 216.9958,53.4713 L213.6978,46.9223 Z" id="Fill-18" fill="#95C11E"></path>
            <path d="M199.4142,51.7926 C199.7822,51.5556 200.1262,51.2906 200.4372,50.9866 C201.8462,49.6096 202.5502,47.6816 202.5502,45.2036 C202.5502,42.6346 201.8542,40.6526 200.4602,39.2586 C199.0672,37.8656 197.0542,37.1686 194.4222,37.1686 C192.0852,37.1686 190.2252,37.7606 188.8322,38.9276 C190.9962,44.2076 194.7122,48.6836 199.4142,51.7926" id="Fill-20" fill="#95C11E"></path>
            <path d="M214.9594,0 C199.3684,0 186.7294,12.639 186.7294,28.23 C186.7294,31.37 187.2494,34.385 188.1944,37.206 C189.9124,36.502 191.8634,36.147 194.0514,36.147 C195.7234,36.147 197.3024,36.332 198.7884,36.704 C201.1724,33.917 204.1764,32.524 207.7994,32.524 C207.8924,32.524 208.3404,32.555 209.1464,32.617 L207.6754,36.727 C208.9994,36.804 210.0834,36.844 210.9104,36.844 C211.6224,36.844 213.2644,36.782 215.8344,36.658 L215.8344,36.983 L215.5094,37.122 C214.4874,37.556 213.9764,38.144 213.9764,38.887 C213.9764,39.476 214.5954,40.977 215.8344,43.393 L222.0794,55.554 C222.7184,55.388 223.3454,55.194 223.9654,54.985 L226.6104,49.663 C228.6534,45.576 229.8454,43.114 230.1864,42.278 C230.5274,41.442 230.6974,40.622 230.6974,39.816 C230.6974,38.33 229.7684,37.386 227.9104,36.983 L227.9104,36.658 C229.4274,36.782 230.7434,36.844 231.8594,36.844 C232.4784,36.844 233.9484,36.782 236.2714,36.658 L236.2714,36.983 C235.1254,37.51 234.0884,38.438 233.1584,39.769 C232.1984,41.194 230.5424,44.306 228.1894,49.105 L225.5834,54.386 C235.9074,50.188 243.1894,40.062 243.1894,28.23 L214.9594,28.23 L214.9594,0 Z" id="Fill-22" fill="#95C11E"></path>
            <path d="M214.9594,0 C230.5504,0 243.1894,12.639 243.1894,28.23 L243.1894,0 L214.9594,0 Z" id="Fill-24" fill="#95C11E"></path>
            <path d="M192.936,60.0204 C197.736,60.0204 201.158,60.5784 203.201,61.6924 C204.78,62.5594 205.57,63.6734 205.57,65.0374 C205.57,66.6774 204.563,67.9934 202.55,68.9844 C200.538,69.9754 197.874,70.4714 194.562,70.4714 C191.249,70.4714 188.67,69.9984 186.829,69.0544 C184.986,68.1094 184.065,66.7864 184.065,65.0834 C184.065,63.4114 184.87,62.1254 186.48,61.2284 C187.935,60.4234 190.087,60.0204 192.936,60.0204 M194.469,53.0534 C189.05,53.0534 186.34,50.3754 186.34,45.0184 C186.34,42.5414 187.052,40.6134 188.477,39.2354 C188.59,39.1264 188.713,39.0284 188.833,38.9274 C188.601,38.3634 188.39,37.7884 188.195,37.2064 C187.578,37.4584 186.99,37.7544 186.434,38.0974 C183.554,39.8944 182.114,42.2474 182.114,45.1574 C182.114,47.6034 183.244,49.6164 185.504,51.1954 C186.557,51.9384 187.935,52.6824 189.638,53.4254 C186.356,54.0134 184.715,55.1594 184.715,56.8624 C184.715,58.0084 185.845,58.8594 188.106,59.4164 C185.66,59.9434 183.941,60.5004 182.95,61.0884 C181.185,62.1104 180.302,63.4114 180.302,64.9904 C180.302,66.8484 181.611,68.3884 184.227,69.6114 C186.843,70.8344 190.149,71.4464 194.144,71.4464 C197.829,71.4464 201.111,70.8734 203.991,69.7284 C207.334,68.3964 209.007,66.3674 209.007,63.6434 C209.007,61.3214 207.614,59.7114 204.827,58.8124 C202.659,58.1324 198.696,57.5284 192.936,57.0014 C190.119,56.7534 188.709,56.1654 188.709,55.2364 C188.709,54.4624 189.638,54.0754 191.497,54.0754 C194.004,54.0754 195.475,54.0604 195.909,54.0284 C197.834,53.8954 199.55,53.4834 201.059,52.7984 C200.499,52.4804 199.95,52.1464 199.414,51.7924 C198.116,52.6294 196.471,53.0534 194.469,53.0534" id="Fill-26" fill="#525B53"></path>
            <path d="M222.894,57.141 L222.079,55.554 C220.859,55.871 219.606,56.102 218.328,56.254 C219.483,58.824 220.061,60.668 220.061,61.786 C220.061,63.148 219.403,64.503 218.087,65.849 C216.771,67.197 215.447,67.87 214.116,67.87 C213.001,67.87 212.134,67.452 211.515,66.616 L211.19,66.523 L209.749,71.075 C209.935,71.105 210.136,71.121 210.354,71.121 C211.097,71.121 212.056,70.966 213.233,70.657 C215.277,70.13 216.926,69.147 218.18,67.707 C219.434,66.267 221.037,63.581 222.987,59.649 L225.583,54.386 C225.052,54.602 224.512,54.801 223.965,54.985 L222.894,57.141 Z" id="Fill-28" fill="#525B53"></path>
            <path d="M207.5669,37.0292 L207.6749,36.7272 C207.5309,36.7192 207.3749,36.7092 207.2249,36.6992 C207.3379,36.8122 207.4579,36.9032 207.5669,37.0292" id="Fill-30" fill="#525B53"></path>
        </g>
    </g>
</svg>