<?xml version="1.0" encoding="UTF-8" standalone="no"?>
<svg width="5096px" height="1623px" viewBox="0 0 5096 1623" version="1.1" xmlns="http://www.w3.org/2000/svg" xmlns:xlink="http://www.w3.org/1999/xlink">
    <!-- Generator: Sketch 3.8.3 (29802) - http://www.bohemiancoding.com/sketch -->
    <title>cheetamobile</title>
    <desc>Created with Sketch.</desc>
    <defs></defs>
    <g id="Page-1" stroke="none" stroke-width="1" fill="none" fill-rule="evenodd">
        <g id="cheetamobile">
            <path d="M2514.86223,1250.10191 C2522.97502,1251.07507 2526.11939,1246.24352 2530.88975,1241.25549 C2587.11201,1182.47743 2665.09063,1176.11035 2729.72153,1217.06355 C2765.1508,1239.51213 2781.0145,1275.5482 2787.23724,1316.04905 C2788.34487,1323.24746 2789.25933,1330.56324 2789.274,1337.82767 C2789.41581,1421.69504 2789.56741,1505.56485 2789.24221,1589.43222 C2789.15419,1612.35515 2788.42555,1612.61433 2766.36112,1612.52875 C2750.91797,1612.46763 2735.42836,1612.18155 2720.05367,1610.89297 C2700.39764,1609.24252 2696.52707,1605.0247 2694.88887,1585.8868 C2694.05509,1576.18215 2693.48539,1566.42126 2693.46338,1556.68482 C2693.33379,1498.87258 2693.30201,1441.06033 2693.46338,1383.24808 C2693.50739,1367.00764 2692.1846,1351.02639 2688.85929,1335.08425 C2682.15731,1302.98237 2654.71614,1279.28189 2621.81998,1278.58503 C2595.12211,1278.01776 2569.58565,1282.96912 2549.44549,1301.8405 C2533.0072,1317.23982 2518.28534,1334.35316 2517.39044,1358.89231 C2517.00657,1369.42342 2515.81092,1379.94229 2515.78891,1390.4685 C2515.64465,1453.98031 2515.7938,1517.49211 2515.6691,1581.00391 C2515.65443,1588.26834 2514.01134,1595.53522 2514.07247,1602.79231 C2514.14093,1610.58244 2509.88648,1612.65834 2503.41434,1612.51653 C2483.08836,1612.07396 2462.70125,1612.29891 2442.46085,1610.70714 C2427.29155,1609.51637 2422.91729,1603.68478 2421.07125,1587.01889 C2420.00031,1577.3607 2419.02472,1567.6267 2419.01738,1557.92694 C2418.89024,1403.21732 2418.92691,1248.51014 2418.92936,1093.80052 C2418.92936,1088.91519 2419.05406,1084.02741 2418.95381,1079.14452 C2418.78999,1071.21991 2423.25227,1066.51062 2430.40169,1065.79175 C2457.78419,1063.03611 2492.45303,1066.07539 2509.14318,1100.1896 C2512.89149,1107.84769 2514.27296,1115.33952 2514.59571,1123.56732 C2516.12878,1162.60355 2517.00657,1201.62755 2514.2045,1240.65155 C2513.97711,1243.80086 2514.6275,1247.01373 2514.86223,1250.10191" id="Fill-1" fill="#424141"></path>
            <path d="M439.332192,1335.17301 C439.332192,1252.91697 439.285735,1170.66338 439.363978,1088.40734 C439.383539,1066.20571 439.55714,1066.20571 462.230403,1066.19838 C464.673042,1066.19593 467.118126,1066.21305 469.560765,1066.20571 C510.93892,1066.05901 534.67335,1086.15294 533.426357,1132.66877 C532.575468,1164.40878 533.257646,1196.19035 533.269872,1227.95237 C533.272317,1232.83526 533.445918,1237.72059 533.404351,1242.60593 C533.372565,1246.36407 535.85188,1248.77006 538.438779,1250.40095 C543.394964,1253.52825 545.932961,1248.83608 547.974606,1245.88727 C562.344365,1225.11604 583.078676,1213.26702 605.33383,1202.85329 C653.942099,1180.10885 733.991702,1192.28795 771.166758,1236.02124 C792.964681,1261.66803 803.539669,1291.55953 807.133943,1324.19201 C810.975169,1359.05687 809.070449,1394.1369 809.195148,1429.12402 C809.380975,1482.06071 809.366304,1534.99741 809.182923,1587.9341 C809.10468,1610.95728 808.828386,1611.22624 786.869087,1612.21651 C773.051918,1612.84002 759.173621,1612.97694 745.351562,1612.50504 C722.504698,1611.72749 715.665798,1604.97409 713.587476,1581.79931 C712.937084,1574.52021 713.198708,1567.15308 713.196263,1559.82508 C713.171812,1496.30105 713.012882,1432.77702 713.274506,1369.25544 C713.362529,1347.7849 708.729095,1327.86701 696.745738,1309.97612 C683.781903,1290.62305 666.475599,1279.02833 642.16413,1279.36575 C625.114559,1279.60293 608.463538,1280.64455 592.335764,1287.17544 C550.527274,1304.11274 536.895931,1338.7771 534.401946,1379.76453 C532.873768,1404.9223 533.382346,1430.21454 533.304103,1455.44566 C533.159843,1501.05435 533.421467,1546.66059 533.186739,1592.26684 C533.088935,1611.06242 532.717283,1611.44386 514.344922,1612.2214 C498.896882,1612.87669 483.370599,1613.21167 467.944564,1612.40723 C446.870386,1611.30449 439.395764,1602.97888 439.371313,1581.93868 C439.275955,1499.68264 439.332192,1417.42905 439.332192,1335.17301" id="Fill-3" fill="#424141"></path>
            <g id="Group-7" transform="translate(848.444125, 1191.038938)" fill="#424141">
                <path d="M101.138696,184.717563 L200.861445,184.717563 C234.192829,184.715118 267.529103,184.353242 300.848262,184.915617 C311.484377,185.094111 315.340274,180.52175 315.863522,170.914902 C317.042053,149.280544 307.904774,131.357867 294.525275,115.687139 C269.184425,86.0059152 236.408075,77.0250159 198.237869,81.3895423 C145.416721,87.4289708 108.097405,126.993341 101.138696,184.717563 L101.138696,184.717563 Z M251.949028,248.659708 C209.585504,248.659708 167.214645,248.231813 124.860901,248.82842 C101.461447,249.156066 98.4295433,254.867849 105.850373,277.064583 C122.848597,327.915593 169.041122,351.882589 215.86937,352.239575 C251.545589,352.510983 282.58104,342.390661 309.208004,318.254953 C316.416111,311.724057 323.435947,303.354435 336.333765,309.371858 C353.004347,317.149762 369.168797,325.01569 372.706833,345.016712 C374.838947,357.063783 366.985337,366.927368 359.970391,375.539055 C337.991532,402.52332 307.36441,416.40178 274.947488,424.485323 C229.43714,435.833091 183.450002,433.498008 138.228174,420.619599 C90.9280258,407.147028 52.6477918,379.575936 29.2703443,337.111663 C5.54324978,294.01655 -2.44728451,245.921181 1.87562388,196.138685 C5.01755674,159.975467 15.01795,127.506814 36.3366368,96.9746911 C56.2860766,68.4011032 79.8004488,45.265446 108.351694,26.1813408 C124.252075,15.5548806 142.401933,9.7012806 160.22415,6.19009865 C216.492866,-4.89359759 271.470578,-0.531516391 321.741504,30.2304475 C354.586316,50.3292746 377.929533,79.1106971 392.497343,114.618625 C406.940454,149.816023 411.79639,186.348454 405.473403,224.181684 C402.223887,243.637446 398.509804,248.036204 379.037156,248.236703 C336.678522,248.667043 294.312552,248.368739 251.949028,248.368739 L251.949028,248.659708 Z" id="Fill-5"></path>
            </g>
            <path d="M2173.2104,1423.601 C2147.68373,1422.73054 2123.78548,1421.64247 2102.1636,1436.91464 C2080.40724,1452.28217 2068.90068,1476.00466 2073.79329,1501.11352 C2077.67853,1521.06075 2100.34201,1542.16941 2123.2011,1545.62925 C2140.02328,1548.17705 2157.19266,1549.87396 2174.13465,1547.34816 C2225.07797,1539.75364 2263.68829,1507.78623 2260.1796,1455.05493 C2259.21623,1440.56519 2253.26734,1434.67736 2241.18129,1431.53295 C2218.47624,1425.62311 2195.61471,1420.9505 2173.2104,1423.601 M2254.76862,1568.35168 C2228.21746,1597.42896 2196.80057,1613.17549 2160.45929,1618.1464 C2109.76781,1625.08074 2060.94438,1619.70638 2019.4513,1586.86363 C1985.07342,1559.65441 1973.10718,1509.94771 1981.36667,1463.64706 C1992.4967,1401.25756 2051.29607,1366.31445 2112.07842,1361.19928 C2154.37837,1357.63675 2196.53895,1358.17712 2237.922,1370.0457 C2256.04496,1375.24401 2259.89352,1371.55189 2258.33111,1352.96414 C2255.40679,1318.17263 2225.79193,1288.57698 2188.00072,1282.88721 C2142.98917,1276.11424 2098.99233,1281.30766 2057.31587,1298.75843 C2043.43757,1304.56802 2037.82122,1300.46268 2032.02637,1290.34725 C2028.40275,1284.02418 2024.23633,1277.55197 2022.63969,1270.61274 C2017.5148,1248.35977 2011.02065,1235.37133 2040.65262,1221.2019 C2097.42503,1194.05137 2157.39316,1188.97776 2218.76232,1197.89509 C2255.65619,1203.25477 2289.18807,1217.11367 2313.87119,1246.61885 C2337.48337,1274.84523 2350.90932,1308.20635 2351.58172,1344.56762 C2353.11479,1427.64766 2352.40083,1510.77172 2352.30302,1593.87866 C2352.28346,1610.97488 2351.6942,1611.02868 2334.37322,1612.23412 C2329.50261,1612.57154 2324.60511,1612.57643 2319.71983,1612.60577 C2282.48365,1612.83562 2272.09938,1606.15312 2254.76862,1568.35168" id="Fill-8" fill="#424141"></path>
            <path d="M1499.31569,1375.74599 L1499.31569,1375.45746 C1530.17265,1375.45746 1561.0345,1375.1396 1591.88167,1375.62373 C1603.11195,1375.80223 1607.24414,1372.79963 1607.00941,1360.48115 C1606.3199,1323.97072 1586.21397,1297.61241 1556.9023,1283.65815 C1490.70166,1252.14065 1416.06302,1278.37915 1393.68562,1359.91388 C1390.32363,1372.16145 1393.12325,1375.50148 1406.74236,1375.64329 C1437.59688,1375.96849 1468.45628,1375.74599 1499.31569,1375.74599 M1538.79646,1439.5781 C1498.89758,1439.58055 1458.99625,1439.49986 1419.09737,1439.60989 C1392.10854,1439.68569 1391.96183,1440.92047 1397.95718,1466.86801 C1405.6054,1499.9675 1426.97543,1518.83399 1456.89837,1532.05471 C1499.89762,1551.05568 1540.68162,1544.46366 1580.74921,1524.80495 C1589.27277,1520.62381 1596.61291,1513.40584 1603.43225,1506.53263 C1613.8532,1496.03087 1623.99296,1496.38541 1636.2355,1503.34175 C1663.03606,1518.57236 1677.87528,1545.0676 1646.23834,1573.2842 C1613.26638,1602.69158 1574.8321,1618.32074 1529.76432,1620.52867 C1492.30563,1622.36251 1455.92523,1620.5898 1420.38593,1608.76524 C1359.60359,1588.54415 1320.47491,1544.84999 1302.42041,1485.83719 C1285.61535,1430.91262 1284.24366,1373.03436 1308.84609,1319.29322 C1342.16281,1246.512 1398.27993,1201.24073 1479.97018,1193.11562 C1525.13088,1188.62395 1568.72673,1194.84676 1608.6305,1218.58392 C1630.30128,1231.47455 1648.33622,1248.19668 1662.84535,1268.74296 C1694.43828,1313.47141 1702.96428,1363.68425 1697.19144,1416.98526 C1695.57524,1431.89556 1684.18115,1439.28713 1663.37837,1439.46807 C1621.85351,1439.82995 1580.32376,1439.57566 1538.79646,1439.5781" id="Fill-10" fill="#424141"></path>
            <path d="M2919.47594,1262.72138 C2936.0096,1240.53687 2951.22535,1219.91724 2974.04532,1207.50096 C2998.09028,1194.41716 3023.40423,1187.64175 3051.11437,1189.28487 C3077.57507,1190.85218 3102.67385,1195.75219 3124.59648,1211.67232 C3145.83692,1227.09609 3159.46582,1248.81603 3172.53235,1272.92973 C3181.15616,1262.84853 3189.62104,1255.27601 3195.2325,1245.98214 C3217.88376,1208.46189 3252.94382,1193.88657 3294.34887,1190.52698 C3319.56502,1188.48042 3344.10144,1189.76411 3368.9166,1197.58847 C3405.08917,1208.99492 3427.66952,1232.85922 3443.17624,1265.90736 C3457.00808,1295.3832 3458.89324,1326.74177 3459.00327,1358.35708 C3459.27467,1434.95024 3459.19888,1511.54339 3459.03261,1588.13655 C3458.98126,1611.8297 3457.18413,1613.16228 3433.69665,1611.39447 C3402.78101,1609.06672 3402.72477,1609.06672 3402.70521,1578.75221 C3402.66609,1516.01062 3402.4876,1453.26902 3402.79812,1390.52987 C3402.92038,1366.06652 3401.51935,1341.65451 3396.70009,1317.83178 C3391.13263,1290.31693 3380.62366,1263.00502 3353.11157,1251.49098 C3325.33053,1239.86447 3295.36847,1238.70304 3264.99564,1246.63988 C3219.62466,1258.49378 3187.21263,1320.88573 3187.88258,1364.79506 C3188.97309,1436.48332 3188.17599,1508.19848 3188.17355,1579.90386 C3188.17355,1585.60831 3188.01951,1591.3152 3188.17599,1597.01476 C3188.47918,1608.052 3184.47658,1614.05719 3172.23894,1612.16957 C3165.02349,1611.05459 3157.66868,1610.74651 3150.36032,1610.39197 C3137.65322,1609.77091 3132.23981,1601.71915 3130.95125,1590.5401 C3129.83629,1580.86723 3129.79961,1571.03788 3129.78739,1561.27454 C3129.69692,1494.45939 3129.42552,1427.64179 3129.90231,1360.83153 C3130.0808,1335.9574 3123.34459,1313.29854 3114.04594,1290.56144 C3094.81535,1243.53458 3036.91332,1234.12823 3000.95347,1247.47121 C2947.40369,1267.34509 2920.97967,1308.36186 2915.62249,1363.85369 C2912.40965,1397.14146 2914.62489,1430.58816 2914.54909,1463.9615 C2914.44885,1507.95886 2914.93542,1551.96111 2914.63712,1595.95602 C2914.52709,1612.05954 2913.67131,1612.52655 2898.04233,1611.92995 C2862.4248,1610.56557 2856.05535,1611.91527 2855.97222,1570.71268 C2855.73994,1455.00994 2855.82307,1339.30476 2855.95266,1223.59958 C2855.97711,1201.40284 2858.60802,1198.38802 2875.40575,1197.67894 C2899.55829,1196.65688 2913.64197,1205.73069 2914.7936,1223.73406 C2915.54669,1235.46816 2912.14558,1247.59347 2919.47594,1262.72138" id="Fill-12" fill="#424141"></path>
            <path d="M4204.29468,1570.68309 C4261.71992,1572.69542 4322.65631,1532.84253 4340.57877,1476.36531 C4350.56449,1444.89182 4355.02433,1413.9587 4349.82608,1381.25043 C4343.28792,1340.11874 4328.14796,1304.75752 4295.21513,1276.78787 C4237.45736,1227.73402 4137.82508,1230.33806 4080.8155,1308.73572 C4046.6479,1355.721 4042.63062,1411.67496 4061.23771,1465.67528 C4082.09672,1526.20649 4133.92272,1570.26498 4204.29468,1570.68309 M4054.16164,1535.07736 C4054.16164,1556.96846 4053.71663,1577.11863 4054.32057,1597.23702 C4054.70934,1610.13254 4049.74337,1614.8834 4036.9947,1612.84662 C4031.46148,1611.96393 4025.62995,1613.12047 4019.94024,1613.02022 C4008.59994,1612.82461 4000.84903,1606.69227 3999.79031,1595.87509 C3998.60933,1583.82557 3995.64589,1572.12815 3995.67768,1559.75099 C3996.10068,1402.59626 3995.95642,1245.44153 3995.96864,1088.28679 C3995.96864,1083.40146 3995.98087,1078.51368 3996.19359,1073.63568 C3997.06648,1053.62487 4002.29652,1049.65646 4021.39262,1054.38775 C4041.12445,1059.27553 4053.6824,1075.68468 4054.1323,1099.62234 C4054.74357,1132.18146 4054.30101,1164.76258 4054.30345,1197.33149 C4054.3059,1225.45028 4054.30345,1253.56664 4054.30345,1281.90549 C4064.25494,1281.97396 4065.74156,1275.33058 4068.34313,1271.13233 C4085.63965,1243.22381 4112.49401,1225.88307 4139.49018,1210.09498 C4167.39592,1193.7714 4199.79084,1190.94974 4231.50113,1194.56117 C4313.07647,1203.84527 4368.68257,1248.3292 4397.07488,1324.83189 C4416.19544,1376.34553 4417.12701,1430.22359 4400.52734,1482.18713 C4383.95945,1534.06019 4350.61828,1573.57077 4301.23492,1600.1467 C4255.96664,1624.50981 4208.39509,1625.4365 4161.93849,1614.02761 C4124.2842,1604.77775 4091.59832,1581.50761 4068.61453,1547.87508 C4065.6193,1543.49099 4064.39187,1537.1068 4054.16164,1535.07736" id="Fill-14" fill="#424141"></path>
            <path d="M234.321685,1191.88451 C277.8833,1191.84539 317.982676,1203.38143 354.678496,1226.38505 C370.177883,1236.10193 383.476695,1247.66976 381.72846,1268.99114 C379.914207,1291.09496 364.192318,1302.80461 348.912988,1315.03261 C345.013079,1318.15258 341.269656,1316.45078 337.74629,1314.1646 C331.609129,1310.17418 325.623564,1305.94658 319.425276,1302.0564 C266.96111,1269.12318 212.973657,1267.97397 159.333405,1297.53783 C134.327532,1311.32093 119.295156,1334.86981 110.964755,1362.44335 C94.4090918,1417.25789 107.663892,1476.06285 156.039877,1509.39218 C202.696969,1541.53808 277.567884,1541.90485 315.351766,1510.05481 C322.134429,1504.33814 330.193426,1493.81926 337.460215,1497.17885 C349.377554,1502.68769 363.502804,1508.44837 370.270796,1520.79619 C387.176107,1551.63395 388.161475,1559.76151 360.483125,1580.74058 C333.288902,1601.35288 302.652,1614.31197 267.508809,1619.19975 C225.519382,1625.03868 185.021457,1621.85026 145.653161,1609.05254 C84.0101498,1589.01484 37.0669834,1550.0104 13.1418371,1488.8239 C-1.38685161,1451.66796 -3.3355835,1412.14516 4.67206638,1372.23114 C20.0100779,1295.7798 64.0460395,1242.95069 134.679624,1211.99312 C150.100769,1205.23483 166.409478,1199.62085 183.525066,1197.69899 C200.459717,1195.79669 217.389478,1193.82593 234.321685,1191.88451" id="Fill-16" fill="#424141"></path>
            <g id="Group-20" transform="translate(4707.786571, 1193.484051)" fill="#424141">
                <path d="M195.14121,192.592294 C234.947176,192.592294 274.755588,192.768342 314.561554,192.499379 C329.068237,192.401575 331.997448,189.658158 329.549919,177.906946 C320.287941,133.467021 305.473177,92.3671206 263.405508,67.1824589 C222.592167,42.750892 180.421805,41.3767386 138.659771,61.7396379 C90.9488483,85.0073311 70.3930277,128.373851 60.6395879,177.924062 C58.2874172,189.883109 60.8914316,192.330666 75.7208656,192.448032 C115.524387,192.763451 155.335244,192.555617 195.14121,192.592294 M60.4708771,234.543094 C62.8157126,307.121376 108.203806,360.605773 169.3578,375.090621 C224.083668,388.052164 275.613812,377.354796 318.691301,338.022712 C319.292792,337.472561 319.833155,336.858838 320.427311,336.301352 C336.885171,320.85313 338.594284,320.452131 347.64354,329.922053 C362.573222,345.546324 365.218803,364.393253 352.228072,374.907238 C319.908953,401.0675 284.597051,421.484191 242.17729,426.393978 C197.933496,431.516489 155.225215,428.117782 114.45833,407.659524 C85.5280973,393.142889 62.187326,373.283683 43.2134747,347.138092 C0.937973525,288.885725 -8.21397564,223.787042 7.45412221,155.922937 C15.750292,119.979779 31.4892973,85.112471 59.475728,58.5414304 C106.927472,13.4926725 162.998137,-7.46194406 228.374791,3.41880782 C305.781258,16.3045522 353.367481,62.6932319 376.106762,137.283842 C383.31976,160.945199 386.180508,184.785048 387.334587,208.881635 C388.625592,235.843894 390.530312,234.543094 363.262736,234.543094 C273.633294,234.540648 184.003853,234.543094 94.376856,234.543094 L60.4708771,234.543094" id="Fill-18"></path>
            </g>
            <path d="M3575.53328,1407.96475 C3570.13453,1435.57496 3580.0469,1463.31966 3593.75405,1489.14983 C3609.45148,1518.72591 3632.83138,1541.29186 3663.36069,1557.02861 C3689.97299,1570.74324 3717.82249,1572.88272 3746.0461,1570.05861 C3802.8185,1564.37617 3843.3311,1534.69006 3868.23917,1483.05416 C3883.31067,1451.81296 3884.59922,1418.90663 3882.5478,1385.48438 C3880.71399,1355.6051 3868.73796,1328.75043 3850.74948,1305.82261 C3822.94399,1270.38559 3786.56358,1247.52623 3740.40284,1244.23511 C3690.70651,1240.68969 3646.84904,1255.00827 3614.28053,1293.68996 C3587.61199,1325.36395 3571.88766,1362.2607 3575.53328,1407.96475 M3942.44257,1405.68101 C3943.96586,1522.1075 3858.93073,1620.53796 3729.09433,1622.71412 C3615.08251,1624.62619 3518.16672,1537.9445 3514.84141,1411.9185 C3511.7386,1294.30857 3606.57118,1198.69977 3718.24549,1193.9098 C3842.16724,1188.59657 3943.52575,1283.3398 3942.44257,1405.68101" id="Fill-21" fill="#424141"></path>
            <path d="M1980.82656,1204.34383 C1967.51063,1227.41591 1951.06744,1244.27496 1934.47999,1260.92129 C1921.45014,1273.99286 1905.69891,1281.80255 1886.84242,1282.30869 C1880.34339,1282.4823 1873.8468,1282.7806 1867.34532,1282.90041 C1845.06082,1283.31608 1844.9239,1283.29652 1844.82854,1306.64979 C1844.69895,1339.20647 1844.69651,1371.76559 1844.8261,1404.32471 C1844.93613,1431.98872 1844.68673,1459.67717 1845.73322,1487.31184 C1846.97777,1520.1277 1859.81446,1532.82761 1892.25583,1533.34109 C1911.65024,1533.64917 1931.10088,1532.14054 1949.59061,1520.64851 C1955.9136,1541.70337 1955.29499,1561.75085 1954.30962,1581.59783 C1953.76926,1592.47125 1948.54656,1601.33723 1937.16714,1605.94627 C1885.15042,1627.01336 1833.97481,1628.00607 1786.29812,1595.88463 C1764.58822,1581.25552 1756.08911,1556.33004 1751.45568,1531.1576 C1749.56074,1520.87101 1749.91038,1510.10029 1749.89571,1499.54963 C1749.73434,1376.64114 1749.69522,1253.73266 1749.63409,1130.82662 C1749.62675,1113.78418 1749.65609,1113.36607 1766.93061,1113.52745 C1779.89689,1113.64726 1792.94631,1114.29521 1805.783,1116.02146 C1821.90099,1118.18783 1840.89196,1140.26476 1843.7307,1158.67645 C1843.97765,1160.27067 1843.57666,1161.97491 1843.89452,1163.54712 C1846.13177,1174.64304 1839.75744,1189.2208 1847.38854,1196.38009 C1856.78745,1205.19962 1872.13768,1199.11618 1884.85701,1199.51717 C1906.81142,1200.20914 1928.80495,1199.64676 1950.78136,1199.73723 C1960.30497,1199.77636 1969.92393,1199.54896 1980.82656,1204.34383" id="Fill-23" fill="#424141"></path>
            <path d="M4596.79154,1329.70085 L4596.79154,1092.73519 C4596.79154,1089.4783 4596.77442,1086.22141 4596.78909,1082.96452 C4596.83555,1071.61675 4595.32204,1059.22981 4609.11965,1054.20999 C4620.52352,1050.06063 4639.12327,1058.92417 4646.12599,1071.47249 C4652.515,1082.92295 4655.55668,1094.96268 4655.49556,1108.58441 C4655.00654,1216.88579 4655.22415,1325.19206 4655.22415,1433.49588 C4655.22415,1484.7968 4655.29506,1536.09771 4655.19481,1587.39862 C4655.14346,1613.6738 4653.8818,1614.65429 4627.08124,1611.78373 C4624.6606,1611.52455 4622.26442,1611.02085 4619.84623,1610.71766 C4602.37122,1608.53906 4598.80384,1605.70762 4597.9774,1588.59428 C4596.91624,1566.65917 4596.882,1544.66294 4596.83799,1522.6936 C4596.7084,1458.36268 4596.79154,1394.03176 4596.79154,1329.70085" id="Fill-25" fill="#424141"></path>
            <path d="M4470.15453,1399.434 C4470.1423,1336.83666 4470.56286,1274.23444 4469.72175,1211.64689 C4469.58238,1201.3603 4472.0837,1198.57287 4481.27721,1199.05456 C4485.31649,1199.26728 4489.40956,1198.4335 4493.45129,1198.62177 C4516.34705,1199.6854 4525.39386,1208.43157 4525.4232,1231.23224 C4525.57724,1350.74691 4525.55279,1470.26402 4525.32051,1589.77869 C4525.2765,1612.50601 4524.71413,1612.50601 4507.62055,1612.63805 C4478.03748,1612.86545 4470.36236,1608.03146 4470.26945,1587.23822 C4469.98582,1524.63844 4470.16675,1462.03622 4470.15453,1399.434" id="Fill-27" fill="#424141"></path>
            <path d="M4530.25322,1083.20756 C4529.80333,1101.7464 4515.94704,1115.28255 4497.70671,1115.00136 C4480.01164,1114.72995 4465.57831,1100.20598 4465.43405,1082.53271 C4465.30446,1066.42431 4481.41023,1051.20837 4498.49158,1051.29884 C4516.49474,1051.3942 4530.67867,1065.64431 4530.25322,1083.20756" id="Fill-29" fill="#424141"></path>
            <path d="M1435.91735,42.9722259 C1437.93699,48.6302168 1440.10333,54.4055732 1430.41836,54.3444454 C1426.3693,54.3199943 1422.32024,54.0412514 1418.27362,53.8774289 C1423.60635,49.3515251 1428.85106,44.688695 1435.91735,42.9722259" id="Fill-31" fill="#424141"></path>
            <path d="M3511.74251,299.901498 C3510.83783,293.282578 3513.10442,289.676037 3520.35898,290.820349 C3521.46416,295.651892 3518.1853,302.32216 3526.01691,304.327152 L3526.17339,304.601005 C3523.98993,294.967261 3516.83562,300.598355 3511.74251,299.901498" id="Fill-33" fill="#424141"></path>
            <path d="M3526.01617,304.326663 L3526.85973,304.896375 C3526.85973,304.896375 3526.15799,304.566285 3526.16532,304.5834 C3526.17266,304.600516 3526.01617,304.326663 3526.01617,304.326663" id="Fill-35" fill="#424141"></path>
            <path d="M2527.13484,523.146653 C2524.65063,522.5476 2523.22515,520.968057 2524.14939,518.522944 C2524.48681,517.628033 2526.5309,516.706226 2527.60429,516.894499 C2529.99069,517.312614 2531.44552,519.293155 2531.00785,521.660024 C2530.87582,522.373997 2528.48452,522.667411 2527.13484,523.146653" id="Fill-37" fill="#424141"></path>
            <path d="M2847.65135,631.80233 C2955.45021,501.636751 3046.85234,391.91965 3137.23487,281.371211 C3149.47007,266.404676 3174.68133,252.284149 3162.49014,229.405229 C3151.05937,207.946919 3125.14637,218.991494 3105.44633,218.150375 C3047.75947,215.693037 3007.49383,246.86578 2972.89589,288.554952 C2893.07368,384.740799 2811.86511,479.814119 2733.79847,577.403461 C2701.63828,617.606005 2665.53417,635.553133 2613.40987,632.77304 C2540.91313,628.909762 2468.05696,631.80233 2370.99691,631.80233 C2487.32178,489.477205 2591.91514,361.504892 2701.9268,226.906324 C2604.53421,203.900258 2539.81284,232.332029 2485.63956,298.332958 C2353.47544,459.353416 2216.272,616.368778 2088.07136,780.443181 C2034.35776,849.185082 1976.96675,881.898246 1889.99267,872.372086 C1831.67986,865.985452 1772.1005,871.156865 1694.51554,871.156865 C1787.06686,758.087515 1866.64211,659.938243 1947.23453,562.630089 C2075.14176,408.191876 2205.19333,255.499473 2331.32053,99.6284232 C2382.91181,35.8721074 2444.60861,3.67486226 2526.19861,3.72865474 C3096.66604,4.10520211 3667.1359,3.6455209 4237.60577,4.10764722 C4254.24701,4.12231789 4277.03031,-6.13493023 4286.97202,14.5213826 C4296.79636,34.9356292 4274.18423,45.7039059 4265.07629,60.2156502 C4184.23937,188.99485 4071.68971,246.01488 3916.62982,231.872348 C3805.54477,221.739801 3692.73593,231.940811 3580.79999,229.070249 C3523.70239,227.603181 3482.08462,245.276456 3446.89008,291.454856 C3390.10056,365.964778 3325.03199,434.239662 3269.421,509.549136 C3203.59689,598.685722 3123.16586,646.140471 3009.43278,632.682571 C2964.19628,627.327774 2917.79837,631.80233 2847.65135,631.80233" id="Fill-39" fill="#ED6F33"></path>
            <g id="Group-43" transform="translate(1163.859952, 0.269014)" fill="#ED6F33">
                <path d="M1087.56893,3.03101293 C1025.43201,77.6216235 978.449726,132.829825 932.895368,189.19212 C908.994672,218.760869 878.577828,224.590017 842.864932,224.316165 C702.407086,223.23787 561.937014,223.631533 421.474277,224.100995 C398.267985,224.176793 372.780431,221.871052 352.400656,230.377599 C320.932426,243.51519 290.290634,267.880739 293.065804,305.117362 C296.298205,348.452096 338.082244,342.434673 366.694617,342.904135 C488.919472,344.906682 611.195675,343.512968 733.444981,344.363867 C749.885725,344.478787 772.918416,335.412309 780.234107,359.247269 C785.297876,375.744445 769.023397,386.686324 759.944801,398.84587 C756.839544,403.005007 753.660935,407.247278 749.856384,410.734008 C693.964211,461.93467 670.687012,561.859094 584.500248,563.744276 C420.39844,567.336147 249.044513,600.156896 96.9676276,504.858625 C-4.72830331,441.131651 -27.5727225,328.206562 36.0459164,217.826835 C104.244197,99.4980475 210.908539,27.0053438 343.141123,13.2564746 C582.984296,-11.6812307 824.245618,7.54958135 1087.56893,3.03101293" id="Fill-41"></path>
            </g>
        </g>
    </g>
</svg>