<?xml version="1.0" encoding="UTF-8" standalone="no"?>
<svg width="1745px" height="549px" viewBox="0 0 1745 549" version="1.1" xmlns="http://www.w3.org/2000/svg" xmlns:xlink="http://www.w3.org/1999/xlink">
    <!-- Generator: Sketch 3.8.3 (29802) - http://www.bohemiancoding.com/sketch -->
    <title>dioranews</title>
    <desc>Created with Sketch.</desc>
    <defs></defs>
    <g id="Page-1" stroke="none" stroke-width="1" fill="none" fill-rule="evenodd">
        <g id="dioranews" transform="translate(0.000000, -1.000000)">
            <path d="M477.907636,314.635812 C477.907636,337.976172 494.728901,357.055465 520.089401,357.055465 C532.133985,357.055465 542.936632,352.287479 550.718947,344.500012 C558.501262,336.719892 563.020737,325.927639 562.513674,313.879105 C562.513674,301.830572 557.744342,291.537892 550.211884,284.264692 C542.679426,276.734359 532.133985,272.216159 520.331909,272.216159 C493.472266,272.216159 477.907636,292.794172 477.907636,314.386025 L477.907636,314.635812 L477.907636,314.635812 Z M593.393077,383.657745 L562.01396,383.657745 L562.01396,363.829092 C555.987993,374.121772 542.936632,387.926159 514.813006,387.926159 C472.381384,387.926159 445.014678,354.792692 445.014678,314.635812 C445.014678,269.953385 476.900859,241.595252 514.313292,241.595252 C540.67322,241.595252 555.488279,255.649425 560.507468,263.679332 L560.507468,243.600892 L560.507468,197.919319 L593.393077,197.919319 L593.393077,383.657745 L593.393077,383.657745 Z" id="Fill-1" fill="#D47E1A"></path>
            <path d="M630.551244,383.657011 L663.444202,383.657011 L663.444202,245.862931 L630.551244,245.862931 L630.551244,383.657011 Z M630.551244,227.283211 L663.444202,227.283211 L663.444202,197.918584 L630.551244,197.918584 L630.551244,227.283211 Z" id="Fill-3" fill="#D47E1A"></path>
            <path d="M725.701253,314.887068 C725.701253,338.984135 744.029009,356.807148 766.626383,356.807148 C789.223757,356.807148 807.301656,338.984135 807.301656,314.637281 C807.301656,290.290428 789.223757,272.467415 766.626383,272.467415 C744.029009,272.467415 725.701253,290.290428 725.701253,314.637281 L725.701253,314.887068 Z M692.808295,314.387495 C692.808295,279.241041 718.668509,241.846508 766.626383,241.846508 C814.576908,241.846508 840.437123,279.241041 840.437123,314.637281 C840.437123,350.275961 814.576908,387.677841 766.626383,387.677841 C718.668509,387.677841 692.808295,350.275961 692.808295,314.637281 L692.808295,314.387495 Z" id="Fill-5" fill="#D47E1A"></path>
            <path d="M869.8093,245.861461 L900.93856,245.861461 L900.93856,263.934261 C906.971875,251.635941 918.266888,241.850181 939.107913,241.593048 L939.107913,274.726515 L937.601421,274.726515 C914.496984,274.726515 902.702258,285.518768 902.702258,309.366048 L902.702258,383.655541 L869.8093,383.655541 L869.8093,245.861461 Z" id="Fill-6" fill="#D47E1A"></path>
            <path d="M981.023653,315.385907 C981.023653,332.452213 993.332792,357.305987 1022.95556,357.305987 C1041.28332,357.305987 1053.33525,347.762667 1059.60372,335.21456 C1062.87391,329.190293 1064.38041,322.666453 1064.88012,315.88548 C1065.12998,309.36164 1063.87334,302.588013 1061.11022,296.563747 C1055.34146,283.50872 1042.53995,272.216893 1022.7057,272.216893 C996.088569,272.216893 981.023653,293.8014 981.023653,315.13612 L981.023653,315.385907 Z M1097.52322,383.65848 L1064.63026,383.65848 L1064.63026,363.829827 C1055.84852,379.88964 1037.51341,387.926893 1018.18623,387.926893 C973.998258,387.926893 948.130695,353.537147 948.130695,314.636547 C948.130695,271.2104 979.517162,241.595987 1018.18623,241.595987 C1043.29687,241.595987 1058.61164,254.9008 1064.63026,265.94284 L1064.63026,245.8644 L1097.52322,245.8644 L1097.52322,383.65848 Z" id="Fill-7" fill="#D47E1A"></path>
            <path d="M1136.18641,248.623808 L1153.76459,248.623808 C1153.76459,256.154141 1153.76459,263.684475 1153.50739,272.720875 C1161.2897,255.147648 1179.61746,244.355395 1203.72132,244.854968 C1245.65323,245.361888 1260.46094,273.977155 1260.46094,306.853488 L1260.46094,383.655541 L1242.13319,383.655541 L1242.13319,310.614981 C1242.13319,281.507488 1229.08182,261.671488 1198.70214,262.178408 C1170.83572,262.428195 1154.76402,279.244715 1154.76402,307.360408 L1154.76402,383.655541 L1136.18641,383.655541 L1136.18641,248.623808 Z" id="Fill-8" fill="#426F90"></path>
            <path d="M1413.60867,306.604436 C1412.35204,283.014289 1389.50481,259.916369 1361.63839,260.673076 C1332.51533,260.673076 1310.91739,282.007796 1309.16104,306.604436 L1413.60867,306.604436 Z M1308.91118,321.415316 C1309.91796,355.298143 1338.78381,371.615089 1361.63839,371.357956 C1382.47941,371.357956 1399.30068,361.065276 1408.08242,343.492049 L1427.41696,343.492049 C1421.13378,358.060489 1411.60247,369.102529 1400.05025,376.375729 C1388.74789,383.656276 1375.44667,387.425116 1361.63839,387.425116 C1314.68729,387.425116 1290.34092,350.023236 1290.34092,316.390196 C1290.34092,276.732889 1320.97046,244.855703 1361.38853,244.855703 C1380.46586,244.855703 1398.04404,251.636676 1410.84555,263.934996 C1426.41018,278.995663 1433.94998,299.823463 1431.93643,321.415316 L1308.91118,321.415316 Z" id="Fill-9" fill="#426F90"></path>
            <polygon id="Fill-10" fill="#426F90" points="1443.48424 248.623808 1463.06863 248.623808 1500.22386 359.808261 1532.60975 260.672341 1547.92452 260.672341 1580.56028 359.808261 1617.473 248.623808 1636.80753 248.623808 1590.10629 383.655541 1571.77853 383.655541 1539.89235 285.268981 1508.51323 383.655541 1490.43534 383.655541"></polygon>
            <path d="M1722.15505,282.508839 C1722.15505,268.197532 1712.61639,260.167625 1699.05797,260.167625 C1684.24291,260.167625 1675.20396,270.210519 1675.71102,282.009265 C1676.21074,294.807159 1685.99926,300.074719 1702.32081,304.850052 C1721.65534,310.117612 1743.24594,315.634959 1744.25271,344.500012 C1745.25949,369.353785 1725.16804,387.426585 1699.56503,387.426585 C1677.71723,387.426585 1653.61336,373.622199 1653.3635,345.256719 L1671.69126,345.256719 C1672.44083,363.829092 1686.24911,372.116132 1699.80754,372.116132 C1715.37952,372.116132 1726.17482,360.567172 1725.92496,346.762785 C1725.41789,331.452332 1715.37952,325.178279 1692.02522,318.397305 C1672.69804,312.630172 1657.63312,304.850052 1657.12606,283.507985 C1657.12606,259.168479 1676.46059,244.857172 1699.31517,244.857172 C1718.13529,244.857172 1739.22618,255.149852 1740.48281,282.508839 L1722.15505,282.508839 Z" id="Fill-11" fill="#426F90"></path>
            <path d="M349.255458,483.568739 C308.227446,507.247045 227.589727,444.411005 169.145202,343.210672 C168.763068,342.542125 168.402979,341.880925 168.020845,341.219725 C208.078824,372.016952 253.148643,381.956992 286.857311,362.503019 C313.672862,347.030939 327.944114,315.998619 329.355072,278.751019 C377.849404,372.487139 387.402765,461.550779 349.255458,483.568739 M144.953152,246.058352 C109.532227,184.721032 111.494341,117.285979 149.333,95.4443387 C187.179009,73.6026987 246.571521,105.619472 281.999795,166.964139 C317.420719,228.301459 315.465954,295.736512 277.619946,317.578152 C239.773937,339.419792 180.381425,307.403019 144.953152,246.058352 M343.280933,277.186179 C338.291139,267.091859 333.058837,257.335485 327.672211,247.887672 L327.672211,247.895019 C323.924353,220.807859 314.275458,192.023619 298.284601,164.334032 C252.457862,84.9753387 173.040034,45.0462053 120.893379,75.138152 C113.008181,79.6930853 106.335526,85.717352 100.618206,92.7187253 C101.624984,95.238632 102.602366,97.8026187 103.543005,100.425379 C118.174345,141.162645 118.674059,178.255965 104.667362,183.281085 C97.494992,185.859765 87.8975382,179.475512 78.2780382,167.191885 C78.7189626,200.384125 138.273147,343.607392 152.154916,371.671659 C212.157374,492.979819 303.590391,570.163899 356.361689,544.068539 C409.140337,517.980525 403.283391,398.486992 343.280933,277.186179" id="Fill-12" fill="#426F90"></path>
            <path d="M97.1525408,102.719743 C108.094814,133.186369 108.4696,160.934729 97.9976458,164.696223 C87.5183433,168.457716 70.1532718,146.807089 59.2109987,116.333116 C48.2687256,85.8664893 47.8939399,58.1181293 58.3732424,54.356636 C68.8451962,50.6024893 86.2102676,72.253116 97.1525408,102.719743" id="Fill-13" fill="#D47E1A"></path>
            <path d="M1.23311849,89.554516 C0.858332773,86.7407427 -7.60741513,20.3783027 25.6309336,0.997796 L33.038463,13.692836 C12.447295,25.6972893 13.6157445,71.1217293 15.7983202,87.6076493 L1.23311849,89.554516 Z" id="Fill-14" fill="#426F90"></path>
        </g>
    </g>
</svg>