<?xml version="1.0" encoding="UTF-8" standalone="no"?>
<svg width="1791px" height="817px" viewBox="0 0 1791 817" version="1.1" xmlns="http://www.w3.org/2000/svg" xmlns:xlink="http://www.w3.org/1999/xlink">
    <!-- Generator: Sketch 3.8.3 (29802) - http://www.bohemiancoding.com/sketch -->
    <title>eaccess</title>
    <desc>Created with Sketch.</desc>
    <defs></defs>
    <g id="Page-1" stroke="none" stroke-width="1" fill="none" fill-rule="evenodd">
        <g id="eaccess" transform="translate(-1.000000, 0.000000)">
            <path d="M204.481166,752.810897 C214.067729,752.810897 218.865724,754.997563 218.865724,759.342621 C218.865724,763.131586 217.112429,766.034575 213.596413,768.00446 C210.080397,769.993195 205.367239,771.001701 199.466366,771.001701 C197.439708,771.001701 195.205671,770.964 192.783108,770.841471 L196.685603,753.121931 C199.918829,752.905149 202.511066,752.810897 204.481166,752.810897 M231.41215,768.635954 C233.825287,765.874345 235.022429,762.877103 235.022429,759.719632 C235.022429,747.796644 223.757982,741.858713 201.200808,741.858713 C195.799529,741.858713 189.625292,742.254575 182.678097,743.046299 L166.078355,815.573885 C174.213266,815.950897 180.981361,816.148828 186.401492,816.148828 C202.859839,816.148828 214.784129,814.075264 222.117803,809.890437 C229.479755,805.72446 233.174871,799.437793 233.174871,791.086989 C233.174871,787.599632 232.12855,784.338483 230.035908,781.265839 C227.962118,778.202621 225.379308,776.129057 222.259197,775.045149 C225.926034,773.565379 228.989587,771.435264 231.41215,768.635954 M196.921261,779.984 C210.202939,779.984 216.810787,784.008598 216.810787,792.095494 C216.810787,796.355724 214.444782,799.588598 209.750476,801.841241 C205.037318,804.131586 198.542587,805.234345 190.294561,805.234345 C188.560118,805.234345 186.740839,805.158943 184.84615,805.017563 L190.671613,780.172506 C192.783108,780.040552 194.87575,779.984 196.921261,779.984" id="Fill-1" fill="#4F4C4C"></path>
            <path d="M320.56813,762.438828 L315.91153,775.068713 C312.225841,772.872621 308.983188,771.788713 306.183572,771.788713 C302.196241,771.788713 298.529404,773.19308 295.192488,775.97354 C291.874425,778.772851 289.781783,781.968023 288.895709,785.559057 L281.910809,815.569172 L266.366814,815.569172 L278.752993,762.476529 L294.287562,762.476529 L293.260093,767.09492 C298.727356,763.343655 304.826183,761.496299 311.452883,761.496299 C313.149619,761.496299 316.184893,761.807333 320.56813,762.438828" id="Fill-4" fill="#4F4C4C"></path>
            <path d="M367.451797,777.84823 C371.278881,773.135586 376.350239,770.760414 382.665871,770.760414 C390.791355,770.760414 394.882376,774.351448 394.882376,781.495816 C394.882376,788.00869 392.987686,793.692138 389.236013,798.489609 C385.465486,803.239954 380.375276,805.624552 373.927676,805.624552 C365.792765,805.624552 361.711171,801.845011 361.711171,794.285931 C361.711171,788.00869 363.643565,782.542023 367.451797,777.84823 M352.614776,810.365471 C357.290228,813.956506 363.822665,815.74731 372.212086,815.74731 C383.636781,815.74731 392.987686,812.420184 400.208244,805.803632 C407.428802,799.139954 411.039081,790.930529 411.039081,781.14708 C411.039081,774.615356 408.748486,769.544552 404.091886,766.010069 C399.472992,762.437885 392.883997,760.684782 384.343755,760.684782 C373.154718,760.684782 363.898076,763.993057 356.583255,770.590759 C349.27786,777.179034 345.611023,785.303632 345.611023,794.851448 C345.611023,801.599954 347.958176,806.755586 352.614776,810.365471" id="Fill-6" fill="#4F4C4C"></path>
            <path d="M487.425231,771.79154 C484.842421,785.524184 481.863705,794.638437 478.526789,799.040046 C475.208726,803.441655 471.325084,805.628322 466.847584,805.628322 C459.843831,805.628322 456.327815,802.744184 456.327815,797.041885 C456.327815,790.142575 458.382752,784.044414 462.520905,778.737977 C466.668484,773.43154 472.192305,770.764184 479.139499,770.764184 C481.741163,770.764184 484.484221,771.103494 487.425231,771.79154 M480.496889,760.679126 C468.874242,760.679126 459.268826,764.25131 451.652363,771.45223 C444.035899,778.634299 440.208815,787.258437 440.208815,797.343494 C440.208815,803.140046 442.197768,807.664184 446.128542,810.878207 C450.087594,814.11108 455.639694,815.73223 462.841399,815.73223 C470.712373,815.73223 477.301368,813.639816 482.589531,809.436138 C484.012905,812.989471 486.143252,814.742575 489.046557,814.742575 L498.689678,814.742575 C497.294584,812.037517 496.597036,807.05154 496.597036,799.765793 C496.597036,798.286023 496.757284,796.928782 497.011794,795.722345 L504.731947,763.167402 C499.735999,761.489701 491.667073,760.679126 480.496889,760.679126" id="Fill-8" fill="#4F4C4C"></path>
            <path d="M587.390367,775.579563 L584.411652,788.266 C581.725152,799.793126 575.861983,805.514276 566.888131,805.514276 C558.545841,805.514276 554.360557,801.508529 554.360557,793.431057 C554.360557,786.94646 556.472052,781.621172 560.713894,777.436345 C564.936883,773.232667 570.639804,771.102552 577.784952,771.102552 C582.196467,771.102552 585.401415,772.620023 587.390367,775.579563 L587.390367,775.579563 Z M595.930609,739.923701 L590.227688,763.995885 C588.992841,763.18531 586.994462,762.384161 584.213699,761.70554 C581.470641,761.017494 578.963241,760.687609 576.738631,760.687609 C565.012294,760.687609 555.604831,763.920483 548.535094,770.414506 C541.493636,776.899103 537.958767,785.249908 537.958767,795.372667 C537.958767,801.640483 540.155099,806.617034 544.491204,810.24577 C548.893294,813.912207 554.973267,815.750138 562.740552,815.750138 C570.658657,815.750138 576.342725,813.761402 579.773904,809.793356 L578.586188,814.741632 L594.017067,814.741632 L610.946731,739.923701 L595.930609,739.923701 Z" id="Fill-10" fill="#4F4C4C"></path>
            <path d="M694.577004,784.516621 C694.577004,790.398 692.522067,795.308575 688.478178,799.23892 C684.160925,803.395471 678.373167,805.487885 671.133757,805.487885 C666.458304,805.487885 663.357046,804.187195 661.782852,801.604667 L667.777988,775.402368 C670.822688,772.555931 674.414115,771.123287 678.589973,771.123287 C689.232283,771.123287 694.577004,775.581448 694.577004,784.516621 M699.52582,806.373862 C707.208267,800.124897 711.054204,792.603517 711.054204,783.762598 C711.054204,776.995241 708.763609,771.472023 704.248404,767.334322 C699.431557,762.876161 692.89912,760.680069 684.594536,760.680069 C679.051862,760.680069 674.366983,761.650874 670.521046,763.65846 L675.733799,739.925586 L660.595136,739.925586 L648.84052,792.942828 C647.398294,799.352023 644.692941,806.656621 640.705609,814.724667 L652.054894,814.724667 L657.022562,810.73777 C660.104967,814.074322 664.940667,815.733172 671.510809,815.733172 C682.501894,815.733172 691.815094,812.632253 699.52582,806.373862" id="Fill-12" fill="#4F4C4C"></path>
            <path d="M790.240913,771.79154 C787.639249,785.524184 784.679386,794.638437 781.323618,799.040046 C778.024407,803.441655 774.121913,805.628322 769.663265,805.628322 C762.631234,805.628322 759.124644,802.744184 759.124644,797.041885 C759.124644,790.142575 761.179581,784.044414 765.336586,778.737977 C769.44646,773.43154 774.989134,770.764184 781.955181,770.764184 C784.537992,770.764184 787.299902,771.103494 790.240913,771.79154 M783.293718,760.679126 C771.689923,760.679126 762.065655,764.25131 754.449192,771.45223 C746.832728,778.634299 743.024497,787.258437 743.024497,797.343494 C743.024497,803.140046 744.994597,807.664184 748.925371,810.878207 C752.884423,814.11108 758.455376,815.73223 765.638228,815.73223 C773.528055,815.73223 780.098197,813.639816 785.38636,809.436138 C786.790881,812.989471 788.940081,814.742575 791.815107,814.742575 L801.486507,814.742575 C800.110265,812.037517 799.412718,807.05154 799.412718,799.765793 C799.412718,798.286023 799.554113,796.928782 799.827476,795.722345 L807.509923,763.167402 C802.551681,761.489701 794.463902,760.679126 783.293718,760.679126" id="Fill-14" fill="#4F4C4C"></path>
            <path d="M905.083603,782.426092 L897.589682,814.745402 L881.564945,814.745402 L888.804356,783.811609 C889.379361,781.323333 889.652724,779.24977 889.652724,777.59092 C889.652724,773.18931 886.419498,770.983793 879.943619,770.983793 C874.400945,770.983793 869.423851,772.878276 865.002908,776.582414 L856.151598,814.745402 L840.579324,814.745402 L849.930229,774.951839 C850.128182,774.254368 850.203593,773.274138 850.203593,772.067701 C850.203593,769.127011 849.572029,766.007241 848.412593,762.632989 L863.588961,760.427471 L865.002908,766.365402 C870.451319,762.576437 877.304251,760.681954 885.505145,760.681954 C899.145024,760.681954 905.969677,765.79046 905.969677,775.96977 C905.969677,777.826552 905.677461,779.937816 905.083603,782.426092" id="Fill-16" fill="#4F4C4C"></path>
            <path d="M987.565752,775.579563 L984.587036,788.266 C981.900536,799.793126 976.037367,805.514276 967.044662,805.514276 C958.721225,805.514276 954.554794,801.508529 954.554794,793.431057 C954.554794,786.94646 956.666288,781.621172 960.889278,777.436345 C965.112267,773.232667 970.815188,771.102552 977.960336,771.102552 C982.371852,771.102552 985.576799,772.620023 987.565752,775.579563 L987.565752,775.579563 Z M996.105994,739.923701 L990.403073,763.995885 C989.168225,763.18531 987.169846,762.384161 984.389083,761.70554 C981.627173,761.017494 979.119773,760.687609 976.914015,760.687609 C965.168825,760.687609 955.799067,763.920483 948.710478,770.414506 C941.650167,776.899103 938.134152,785.249908 938.134152,795.372667 C938.134152,801.640483 940.302204,806.617034 944.704294,810.24577 C949.068678,813.912207 955.148652,815.750138 962.897083,815.750138 C970.834041,815.750138 976.518109,813.761402 979.930436,809.793356 L978.761573,814.741632 L994.192452,814.741632 L1011.08441,739.923701 L996.105994,739.923701 Z" id="Fill-18" fill="#4F4C4C"></path>
            <path d="M1144.6751,764.826253 L1137.47339,776.212 C1132.52458,772.715218 1127.96224,770.980966 1123.86179,770.980966 C1121.28841,770.980966 1119.0638,771.47108 1117.18796,772.385333 C1115.31213,773.327862 1114.36949,774.590851 1114.36949,776.212 C1114.36949,778.144184 1116.5941,780.000966 1121.09046,781.829471 C1125.57738,783.667402 1129.00856,785.109471 1131.39342,786.193379 C1133.80656,787.239586 1135.7578,788.700506 1137.27544,790.519586 C1138.83078,792.366943 1139.60374,794.459356 1139.60374,796.87223 C1139.60374,802.687632 1136.86068,807.343724 1131.37457,810.699126 C1125.9073,814.054529 1118.90355,815.73223 1110.40102,815.73223 C1103.11447,815.73223 1096.03531,814.11108 1089.08812,810.840506 L1097.26073,799.567862 C1102.42635,803.460506 1107.46,805.430391 1112.42767,805.430391 C1115.58549,805.430391 1118.17773,804.798897 1120.22324,803.535908 C1122.27817,802.29177 1123.28679,800.576368 1123.28679,798.446253 C1123.28679,796.655448 1121.37325,794.958897 1117.44247,793.337747 C1113.57768,791.716598 1110.16536,790.236828 1107.18664,788.898437 C1104.20793,787.578897 1101.95504,785.920046 1100.39969,783.987862 C1098.85378,782.074529 1098.07139,779.916138 1098.07139,777.588092 C1098.07139,772.404184 1100.6542,768.323034 1105.78212,765.259816 C1110.94774,762.224874 1117.24452,760.679126 1124.71016,760.679126 C1129.83808,760.679126 1136.46478,762.064644 1144.6751,764.826253" id="Fill-20" fill="#4F4C4C"></path>
            <path d="M1746.6745,764.826253 L1739.49165,776.212 C1734.51456,772.715218 1729.9805,770.980966 1725.8612,770.980966 C1723.30667,770.980966 1721.08206,771.47108 1719.18737,772.385333 C1717.29268,773.327862 1716.3689,774.590851 1716.3689,776.212 C1716.3689,778.144184 1718.59351,780.000966 1723.11814,781.829471 C1727.57679,783.667402 1731.00797,785.109471 1733.41168,786.193379 C1735.80596,787.239586 1737.79491,788.700506 1739.2937,790.519586 C1740.83019,792.366943 1741.58429,794.459356 1741.58429,796.87223 C1741.58429,802.687632 1738.84123,807.343724 1733.37397,810.699126 C1727.90671,814.054529 1720.92181,815.73223 1712.40042,815.73223 C1705.14216,815.73223 1698.03471,814.11108 1691.08752,810.840506 L1699.27899,799.567862 C1704.44461,803.460506 1709.49711,805.430391 1714.45536,805.430391 C1717.58489,805.430391 1720.17713,804.798897 1722.22264,803.535908 C1724.25872,802.29177 1725.30505,800.576368 1725.30505,798.446253 C1725.30505,796.655448 1723.33495,794.958897 1719.46073,793.337747 C1715.59594,791.716598 1712.14591,790.236828 1709.18605,788.898437 C1706.22618,787.578897 1703.95444,785.920046 1702.3991,783.987862 C1700.85318,782.074529 1700.08965,779.916138 1700.08965,777.588092 C1700.08965,772.404184 1702.65361,768.323034 1707.78152,765.259816 C1712.92829,762.224874 1719.26278,760.679126 1726.74727,760.679126 C1731.83748,760.679126 1738.50189,762.064644 1746.6745,764.826253" id="Fill-22" fill="#4F4C4C"></path>
            <path d="M1203.02494,774.257195 C1206.22046,772.070529 1209.37827,770.977195 1212.47953,770.977195 C1220.3128,770.977195 1224.253,772.400414 1224.253,775.303402 C1224.253,777.885931 1222.30175,779.855816 1218.41811,781.222483 C1214.52504,782.579724 1209.79303,783.277195 1204.1938,783.277195 C1201.00771,783.277195 1198.11383,782.956736 1195.44618,782.325241 C1197.26546,779.092368 1199.79171,776.38731 1203.02494,774.257195 M1206.02251,793.531908 C1215.4771,793.531908 1223.45176,791.835356 1229.91822,788.442253 C1236.37524,785.030299 1239.62732,780.336506 1239.62732,774.332598 C1239.62732,769.940414 1237.44042,766.585011 1233.11374,764.190989 C1228.77763,761.862943 1223.09356,760.684782 1216.12752,760.684782 C1204.28806,760.684782 1194.68265,763.700874 1187.3584,769.761333 C1180.0153,775.831218 1176.34846,783.390299 1176.34846,792.551678 C1176.34846,799.724322 1178.89357,805.38892 1184.00263,809.536046 C1189.05514,813.673747 1195.66298,815.72846 1203.87331,815.72846 C1211.41436,815.72846 1217.84311,814.804782 1223.07471,812.910299 L1224.84686,799.865701 C1222.91446,801.28892 1220.27509,802.570759 1216.88162,803.711218 C1213.507,804.879954 1210.4623,805.40777 1207.89834,805.40777 C1203.02494,805.40777 1199.23556,804.42754 1196.45479,802.46708 C1193.71174,800.459494 1192.32607,797.641333 1192.32607,793.92777 C1192.32607,793.296276 1192.3732,792.570529 1192.46746,791.703402 C1196.88841,792.919264 1201.40361,793.531908 1206.02251,793.531908" id="Fill-24" fill="#4F4C4C"></path>
            <path d="M1321.67586,761.610345 L1317.03811,774.25908 C1313.37127,772.091264 1310.10977,770.97908 1307.31015,770.97908 C1303.30397,770.97908 1299.61828,772.383448 1296.28136,775.145057 C1292.98215,777.963218 1290.87066,781.186667 1290.02229,784.730575 L1283.01854,814.74069 L1267.47454,814.74069 L1279.86072,761.648046 L1295.41414,761.648046 L1294.34897,766.285287 C1299.83509,762.534023 1305.90563,760.686667 1312.56061,760.686667 C1314.25735,760.686667 1317.29262,760.997701 1321.67586,761.610345" id="Fill-26" fill="#4F4C4C"></path>
            <polygon id="Fill-28" fill="#4F4C4C" points="1418.79896 761.649931 1376.06005 815.73223 1370.47024 815.73223 1350.1471 761.649931 1366.31323 761.649931 1377.45514 793.827862 1400.82298 761.649931"></polygon>
            <path d="M1460.55377,744.622207 C1460.55377,742.388414 1461.52468,740.559908 1463.47593,739.117839 C1465.44603,737.600368 1467.81203,736.865195 1470.65878,736.865195 C1473.42069,736.865195 1475.76784,737.600368 1477.7568,739.117839 C1479.73632,740.559908 1480.73551,742.388414 1480.73551,744.622207 C1480.73551,746.790023 1479.73632,748.627954 1477.7568,750.088874 C1475.76784,751.587494 1473.42069,752.379218 1470.65878,752.379218 C1467.85916,752.379218 1465.50259,751.625195 1463.51363,750.126575 C1461.52468,748.665655 1460.55377,746.827724 1460.55377,744.622207 L1460.55377,744.622207 Z M1477.53999,761.653701 L1465.11611,814.765195 L1449.38359,814.765195 L1459.43204,771.61623 L1450.92007,771.61623 L1453.55002,761.653701 L1477.53999,761.653701 Z" id="Fill-30" fill="#4F4C4C"></path>
            <path d="M1569.61436,763.958184 L1566.45654,774.787839 C1562.12044,772.224161 1557.7372,770.980023 1553.29741,770.980023 C1546.20882,770.980023 1540.50589,773.091287 1536.18864,777.332667 C1531.86196,781.592897 1529.71276,786.908759 1529.71276,793.299103 C1529.71276,796.588529 1530.91933,799.397264 1533.37017,801.763011 C1535.81159,804.109908 1538.9317,805.269218 1542.77764,805.269218 C1548.32031,805.269218 1554.81504,803.403011 1562.30896,799.632897 L1560.44255,812.554966 C1554.12692,814.68508 1547.59448,815.750138 1540.93951,815.750138 C1532.52181,815.750138 1525.88568,813.874506 1521.01227,810.151517 C1516.10116,806.419103 1513.65032,801.329448 1513.65032,794.816575 C1513.65032,784.948299 1517.22289,776.786 1524.38689,770.310828 C1531.51319,763.939333 1540.9018,760.687609 1552.46789,760.687609 C1559.05688,760.687609 1564.79751,761.752667 1569.61436,763.958184" id="Fill-32" fill="#4F4C4C"></path>
            <path d="M1629.38474,774.257195 C1632.61797,772.070529 1635.75693,770.977195 1638.85819,770.977195 C1646.71031,770.977195 1650.64108,772.400414 1650.64108,775.303402 C1650.64108,777.885931 1648.68041,779.855816 1644.81562,781.222483 C1640.93198,782.579724 1636.15284,783.277195 1630.57246,783.277195 C1627.43349,783.277195 1624.49248,782.956736 1621.82484,782.325241 C1623.62526,779.092368 1626.15151,776.38731 1629.38474,774.257195 M1632.42001,793.531908 C1641.87461,793.531908 1649.84927,791.835356 1656.27802,788.442253 C1662.77275,785.030299 1666.00598,780.336506 1666.00598,774.332598 C1666.00598,769.940414 1663.83793,766.585011 1659.49239,764.190989 C1655.17514,761.862943 1649.49107,760.684782 1642.50617,760.684782 C1630.66672,760.684782 1621.0613,763.700874 1613.73706,769.761333 C1606.39396,775.831218 1602.74597,783.390299 1602.74597,792.551678 C1602.74597,799.724322 1605.27223,805.38892 1610.36244,809.536046 C1615.43379,813.673747 1622.06049,815.72846 1630.23311,815.72846 C1637.83072,815.72846 1644.18406,814.804782 1649.47222,812.910299 L1651.24437,799.865701 C1649.31197,801.28892 1646.6349,802.570759 1643.26028,803.711218 C1639.8668,804.879954 1636.85981,805.40777 1634.277,805.40777 C1629.38474,805.40777 1625.59536,804.42754 1622.8523,802.46708 C1620.09039,800.459494 1618.733,797.641333 1618.733,793.92777 C1618.733,793.296276 1618.77071,792.570529 1618.86497,791.703402 C1623.26706,792.919264 1627.78227,793.531908 1632.42001,793.531908" id="Fill-34" fill="#4F4C4C"></path>
            <polygon id="Fill-36" fill="#4F4C4C" points="187.923842 713.409425 1751.91931 713.409425 1751.91931 706.877701 187.923842 706.877701"></polygon>
            <path d="M644.791917,536.980299 L560.558359,536.980299 L649.703028,432.095701 L650.673938,433.104207 L644.791917,536.980299 Z M644.791917,556.688575 L641.323033,609.328805 C638.382023,652.675701 617.681833,652.675701 599.489044,652.675701 L597.019349,661.535471 L738.348102,661.535471 L740.789517,652.675701 C721.116796,652.675701 711.747038,641.846046 711.747038,618.188575 C711.747038,587.707195 719.618012,424.734552 723.586491,328.210184 L712.727375,328.210184 L485.23267,599.008115 C469.999744,617.69846 445.312223,650.234552 419.719775,652.675701 L417.278359,661.535471 L513.766128,661.535471 L516.254675,652.675701 C504.452928,652.675701 488.173681,648.735931 488.173681,635.436851 C488.173681,625.09731 498.043033,611.81708 504.452928,604.43708 L543.836075,556.688575 L644.791917,556.688575 Z" id="Fill-38" fill="#4F4C4C"></path>
            <path d="M952.481004,609.844368 C926.869704,642.832874 888.466894,668.422529 845.605436,668.422529 C801.311178,668.422529 773.230183,641.353103 773.230183,597.035402 C773.230183,522.66046 842.174257,439.001609 919.488899,439.001609 C945.081346,439.001609 974.642273,449.850115 974.642273,479.86023 C974.642273,498.069885 961.813057,519.22023 941.650167,519.22023 C928.349636,519.22023 915.539273,509.889195 915.539273,495.628736 C915.539273,473.451034 937.210373,471.990115 937.210373,460.642069 C937.210373,452.30069 927.831188,449.850115 920.968831,449.850115 C869.727378,449.850115 835.783215,530.549425 835.783215,584.744828 C835.783215,609.844368 850.50712,635.434023 878.107373,635.434023 C901.748573,635.434023 929.339399,621.173563 945.081346,603.454023 L952.481004,609.844368 Z" id="Fill-39" fill="#4F4C4C"></path>
            <path d="M1166.46026,609.844368 C1140.84896,642.832874 1102.42729,668.422529 1059.56584,668.422529 C1015.27158,668.422529 987.228289,641.353103 987.228289,597.035402 C987.228289,522.66046 1056.15351,439.001609 1133.4493,439.001609 C1159.0606,439.001609 1188.60267,449.850115 1188.60267,479.86023 C1188.60267,498.069885 1175.79231,519.22023 1155.61057,519.22023 C1142.31004,519.22023 1129.49967,509.889195 1129.49967,495.628736 C1129.49967,473.451034 1151.22733,471.990115 1151.22733,460.642069 C1151.22733,452.30069 1141.81044,449.850115 1134.92923,449.850115 C1083.72548,449.850115 1049.72476,530.549425 1049.72476,584.744828 C1049.72476,609.844368 1064.52408,635.434023 1092.10548,635.434023 C1115.72783,635.434023 1143.27152,621.173563 1159.0606,603.454023 L1166.46026,609.844368 Z" id="Fill-40" fill="#4F4C4C"></path>
            <path d="M1269.64165,559.098621 C1275.09006,532.50046 1309.5244,454.741839 1339.05704,454.741839 C1348.41737,454.741839 1351.86741,461.141609 1351.86741,469.991954 C1351.86741,512.829885 1311.4945,559.098621 1269.64165,559.098621 L1269.64165,559.098621 Z M1376.48894,600.004368 C1356.3072,619.194253 1332.68485,636.894943 1303.60467,636.894943 C1278.99256,636.894943 1265.18301,620.165057 1265.18301,596.074023 C1265.18301,587.685517 1266.19162,579.325287 1267.17196,571.445747 C1372.5676,565.017701 1407.02078,503.988966 1407.02078,472.461379 C1407.02078,448.841609 1387.32921,438.982759 1366.1577,438.982759 C1280.94381,438.982759 1201.18775,520.247586 1201.18775,604.914943 C1201.18775,620.165057 1208.07838,668.422529 1272.56381,668.422529 C1320.8454,668.422529 1354.80842,642.832874 1383.86975,606.394713 L1376.48894,600.004368 Z" id="Fill-41" fill="#4F4C4C"></path>
            <path d="M1589.66319,512.829885 L1580.7836,512.829885 C1581.27377,485.76046 1559.09365,450.802069 1529.57985,450.802069 C1516.26047,450.802069 1503.9874,459.181149 1503.9874,473.922299 C1503.9874,507.448046 1575.37289,539.428046 1575.37289,594.575402 C1575.37289,636.423678 1539.93937,668.422529 1498.53899,668.422529 C1487.20856,668.422529 1476.86789,666.961609 1467.55469,664.002069 C1459.1747,661.542069 1450.80413,659.072644 1442.41471,659.072644 C1434.03472,659.072644 1430.60354,661.542069 1426.18259,668.422529 L1416.80341,668.422529 L1428.64286,588.175632 L1437.52245,588.175632 C1442.89545,614.283678 1459.64602,656.603218 1495.14552,656.603218 C1511.34936,656.603218 1526.16753,645.321149 1526.16753,628.091724 C1526.16753,584.725977 1450.80413,553.217241 1450.80413,499.530805 C1450.80413,459.181149 1484.786,438.982759 1521.6806,438.982759 C1536.0086,438.982759 1545.84025,440.971494 1559.09365,443.931034 C1564.56091,445.410805 1571.45155,446.871724 1576.32495,446.871724 C1582.24468,446.871724 1588.67343,444.383448 1591.59558,438.982759 L1600.51288,438.982759 L1589.66319,512.829885 Z" id="Fill-42" fill="#4F4C4C"></path>
            <path d="M1781.20593,512.829885 L1772.34519,512.829885 C1772.83536,485.76046 1750.68352,450.802069 1721.12259,450.802069 C1707.82206,450.802069 1695.54899,459.181149 1695.54899,473.922299 C1695.54899,507.448046 1766.91563,539.428046 1766.91563,594.575402 C1766.91563,636.423678 1731.46326,668.422529 1690.10058,668.422529 C1678.7513,668.422529 1668.43891,666.961609 1659.07858,664.002069 C1650.71744,661.542069 1642.34687,659.072644 1633.98573,659.072644 C1625.57745,659.072644 1622.16513,661.542069 1617.74418,668.422529 L1608.34615,668.422529 L1620.20445,588.175632 L1629.06519,588.175632 C1634.43819,614.283678 1651.2076,656.603218 1686.68826,656.603218 C1702.89209,656.603218 1717.71026,645.321149 1717.71026,628.091724 C1717.71026,584.725977 1642.34687,553.217241 1642.34687,499.530805 C1642.34687,459.181149 1676.32874,438.982759 1713.25162,438.982759 C1727.55134,438.982759 1737.40184,440.971494 1750.68352,443.931034 C1756.10365,445.410805 1762.99428,446.871724 1767.90539,446.871724 C1773.80627,446.871724 1780.21616,444.383448 1783.15717,438.982759 L1791.99906,438.982759 L1781.20593,512.829885 Z" id="Fill-43" fill="#4F4C4C"></path>
            <path d="M384.382403,46.5232184 C425.245482,46.5232184 425.245482,81.7643678 425.245482,94.431954 C425.245482,167.741839 387.182018,300.233103 202.548771,349.517931 C225.105945,246.631494 297.009882,46.5232184 384.382403,46.5232184 L384.382403,46.5232184 Z M486.224318,451.018851 C450.979324,503.14069 354.783771,579.25931 278.675697,579.25931 C250.453308,579.25931 184.214587,574.99908 184.214587,463.686437 C184.214587,436.928046 187.061334,419.962529 192.660566,394.646207 C464.732318,352.345517 554.913882,204.387356 554.913882,126.864368 C554.913882,25.3728736 459.067103,0 409.739192,0 C179.991597,0 0.995286842,260.750575 0.995286842,452.432644 C0.995286842,610.277931 119.399239,670.43954 212.418124,669.468736 C336.317618,668.130345 428.836908,546.864598 472.527882,474.968506 L486.224318,451.018851 Z" id="Fill-44" fill="#DB1E26"></path>
        </g>
    </g>
</svg>