<?xml version="1.0" encoding="UTF-8" standalone="no"?>
<svg width="4622px" height="2804px" viewBox="0 0 4622 2804" version="1.1" xmlns="http://www.w3.org/2000/svg" xmlns:xlink="http://www.w3.org/1999/xlink">
    <!-- Generator: Sketch 3.8.3 (29802) - http://www.bohemiancoding.com/sketch -->
    <title>emos</title>
    <desc>Created with Sketch.</desc>
    <defs></defs>
    <g id="Page-1" stroke="none" stroke-width="1" fill="none" fill-rule="evenodd">
        <g id="emos">
            <g id="Group-3" transform="translate(0.000000, 0.195006)" fill="#666666">
                <path d="M564.327118,1445.67467 C862.081437,1411.45509 1104.53558,1353.18455 1291.63058,1270.65671 C1539.09593,1160.01046 1724.68758,1027.73014 1848.40551,873.815723 C1972.15293,719.90131 2034.02663,573.591248 2034.02663,434.826589 C2034.02663,350.32398 2007.31983,281.943774 1954.05362,229.597547 C1900.72844,177.339743 1824.73491,151.196104 1726.19094,151.196104 C1520.99662,151.196104 1303.18584,260.280218 1072.84704,478.595815 C842.449284,696.911413 672.981946,1019.21208 564.327118,1445.67467 M543.191603,1593.51739 C529.130736,1694.17188 522.085564,1777.55446 522.085564,1843.9599 C522.085564,2023.0453 585.462634,2175.42705 712.216775,2301.10516 C838.970915,2426.84221 992.844545,2489.71073 1173.9261,2489.71073 C1318.80903,2489.71073 1458.09119,2460.03019 1591.89051,2400.69857 C1725.68982,2341.36695 1924.34009,2210.11822 2187.90026,2006.86395 L2251.30681,2094.43188 C1774.47542,2567.169 1319.78179,2803.52283 887.225921,2803.52283 C593.480571,2803.52283 372.191424,2711.0327 223.329004,2525.90508 C74.407628,2340.89536 0.0058955414,2136.66844 0.0058955414,1913.34223 C0.0058955414,1613.64829 92.5069401,1306.88054 277.62694,993.068444 C462.717462,679.256352 695.090227,435.357125 974.774711,261.252867 C1254.37076,87.3254546 1542.13214,0.288062887 1837.85249,0.288062887 C2051.09423,0.288062887 2209.06526,43.5562278 2311.64768,130.033609 C2414.25958,216.569939 2465.58026,319.169723 2465.58026,437.803486 C2465.58026,604.833929 2399.16699,764.731609 2266.3994,917.584949 C2091.36077,1116.7423 1833.81405,1277.76 1493.81818,1400.43173 C1268.46111,1482.90062 951.605233,1547.24286 543.191603,1593.51739" id="Fill-1"></path>
            </g>
            <path d="M3272.70052,1640.51158 C3232.7877,1640.51158 3203.81112,1655.86765 3185.68233,1686.63874 C3167.55354,1717.40983 3158.4744,1754.51789 3158.4744,1797.99237 C3158.4744,1839.75735 3167.55354,1874.50746 3185.68233,1902.36061 C3203.81112,1930.18428 3232.58136,1944.12559 3271.99305,1944.12559 C3315.23685,1944.12559 3344.9209,1927.56107 3360.98625,1894.49099 C3377.08108,1861.39143 3385.09901,1824.57812 3385.09901,1784.05106 C3385.09901,1747.44407 3379.29191,1717.64563 3367.70717,1694.71468 C3349.34256,1658.57928 3317.65402,1640.51158 3272.70052,1640.51158" id="Fill-4" fill="#006699"></path>
            <path d="M3949.01934,1963.891 C3922.16515,1989.32726 3881.25009,2002.03065 3826.30365,2002.03065 C3767.14189,2002.03065 3725.25407,1988.79672 3700.6107,1962.24045 C3675.99682,1935.74312 3662.82028,1902.9383 3661.0811,1863.79653 L3724.5466,1863.79653 C3726.52161,1885.81378 3732.15185,1902.67303 3741.37837,1914.40378 C3758.32805,1935.68417 3787.77628,1946.29489 3829.69358,1946.29489 C3854.6612,1946.29489 3876.59261,1940.98953 3895.57626,1930.34933 C3914.53042,1919.70914 3924.02224,1903.26252 3924.02224,1881.00948 C3924.02224,1864.15022 3916.44647,1851.35841 3901.29493,1842.54561 C3891.59677,1837.15183 3872.46574,1830.93277 3843.90184,1823.82948 L3790.60614,1810.6545 C3756.55939,1802.34277 3731.47386,1793.02891 3715.32008,1782.74241 C3686.52036,1764.93997 3672.07628,1740.24057 3672.07628,1708.70315 C3672.07628,1671.53615 3685.63603,1641.50191 3712.785,1618.48254 C3739.90449,1595.52212 3776.39789,1584.02717 3822.23572,1584.02717 C3882.1639,1584.02717 3925.4077,1601.38749 3951.93763,1636.10813 C3968.53358,1658.0959 3976.581,1681.82265 3976.07988,1707.22944 L3913.764,1707.22944 C3912.49646,1692.4039 3907.10204,1678.9047 3897.61022,1666.76132 C3882.07547,1649.48943 3855.16232,1640.85348 3816.90026,1640.85348 C3791.37256,1640.85348 3772.03519,1645.59883 3758.91761,1655.08953 C3745.74107,1664.63918 3739.19702,1677.13625 3739.19702,1692.75759 C3739.19702,1709.79369 3747.83399,1723.44026 3765.10793,1733.66782 C3775.07139,1739.76898 3789.75129,1745.13329 3809.1771,1749.76075 L3853.65896,1760.40094 C3901.94344,1771.89589 3934.33944,1783.00767 3950.81748,1793.79524 C3976.46309,1810.6545 3989.28589,1837.15183 3989.28589,1873.34618 C3989.28589,1908.30261 3975.87353,1938.48422 3949.01934,1963.891 L3949.01934,1963.891 Z M3408.16237,1939.01476 C3377.56451,1980.30815 3330.13488,2000.94011 3265.78505,2000.94011 C3212.13562,2000.94011 3169.54033,1982.69556 3137.96971,1946.14752 C3106.42856,1909.65843 3090.65799,1860.61331 3090.65799,1799.07113 C3090.65799,1733.13728 3107.25394,1680.64368 3140.50479,1641.53138 C3173.78512,1602.47803 3218.47333,1582.93662 3274.53993,1582.93662 C3324.76994,1582.93662 3367.27679,1599.76641 3401.97205,1633.48492 C3436.69679,1667.20344 3454.05916,1716.77909 3454.05916,1782.24134 C3454.05916,1845.46356 3438.73075,1897.75084 3408.16237,1939.01476 L3408.16237,1939.01476 Z M2870.01735,1986.9988 L2801.45221,1986.9988 L2801.45221,1714.18535 C2801.45221,1688.07119 2794.90816,1670.06244 2781.82005,1660.30647 C2768.76143,1650.52102 2752.81399,1645.6283 2733.97774,1645.6283 C2708.06683,1645.6283 2685.75221,1654.3232 2667.03386,1671.68352 C2648.37447,1689.04384 2639.00056,1717.98753 2639.00056,1758.57354 L2639.00056,1986.9988 L2571.9093,1986.9988 L2571.9093,1730.72039 C2571.9093,1704.07569 2568.69623,1684.6227 2562.35852,1672.3909 C2552.3361,1654.05793 2533.61776,1644.92092 2506.23297,1644.92092 C2481.29483,1644.92092 2458.597,1654.55899 2438.2279,1673.86461 C2417.79985,1693.17023 2407.60056,1728.12666 2407.60056,1778.73391 L2407.60056,1986.9988 L2341.59998,1986.9988 L2341.59998,1594.31367 L2406.86362,1594.31367 L2406.86362,1650.04944 C2422.51628,1630.71434 2436.66558,1616.68461 2449.39995,1607.87182 C2471.1545,1592.95786 2495.85682,1585.50088 2523.50691,1585.50088 C2554.75328,1585.50088 2579.98619,1593.19365 2599.02879,1608.5792 C2609.78816,1617.39199 2619.57475,1630.36065 2628.32963,1647.48518 C2643.00953,1626.44058 2660.28347,1610.84871 2680.09249,1600.73905 C2699.84255,1590.57045 2722.1277,1585.50088 2746.83002,1585.50088 C2799.62459,1585.50088 2835.55791,1604.5707 2854.60051,1642.71035 C2864.91771,1663.25389 2870.01735,1690.84177 2870.01735,1725.56241 L2870.01735,1986.9988 Z M1924.72624,2301.04668 L4356.63707,2301.04668 L4356.63707,1313.66009 L1924.72624,1313.66009 L1924.72624,2301.04668 Z" id="Fill-6" fill="#006699"></path>
            <polygon id="Fill-8" fill="#FFCC33" points="4200.27847 1460.1971 4591.62451 1460.1971 4591.62451 1068.89726 4200.27847 1068.89726"></polygon>
            <path d="M4170.80076,1489.67133 L4621.10222,1489.67133 L4621.10222,1039.42304 L4170.80076,1039.42304 L4170.80076,1489.67133 Z M4229.75618,1430.72287 L4562.1468,1430.72287 L4562.1468,1098.37149 L4229.75618,1098.37149 L4229.75618,1430.72287 Z" id="Fill-10" fill="#006699"></path>
        </g>
    </g>
</svg>