<?xml version="1.0" encoding="UTF-8" standalone="no"?>
<svg width="10161px" height="5644px" viewBox="0 0 10161 5644" version="1.1" xmlns="http://www.w3.org/2000/svg" xmlns:xlink="http://www.w3.org/1999/xlink">
    <!-- Generator: Sketch 3.8.3 (29802) - http://www.bohemiancoding.com/sketch -->
    <title>entropySoft</title>
    <desc>Created with Sketch.</desc>
    <defs></defs>
    <g id="Page-1" stroke="none" stroke-width="1" fill="none" fill-rule="evenodd">
        <g id="entropySoft">
            <path d="M3411.13642,2645.81486 C3383.15259,2784.8792 3354.71766,2923.83828 3327.33531,3063.00788 C3300.28378,3200.50835 3275.18706,3338.39979 3246.85738,3475.61455 C3242.93273,3494.62161 3228.27167,3514.3655 3213.02417,3527.13211 C3200.82918,3537.35743 3180.22852,3537.6281 3163.28184,3542.06409 C2977.83074,3590.64939 2792.34956,3639.17454 2588.59845,3692.49658 C2699.55634,3131.03633 2807.38654,2585.42533 2916.94599,2031.03259 C2807.7775,2031.03259 2708.86423,2027.94995 2610.20659,2031.604 C2314.95545,2042.52103 2019.79452,2055.49817 1724.66367,2069.13694 C1673.58304,2071.49778 1646.95255,2061.99425 1647.35855,2001.00323 C1648.98254,1760.49771 1646.99766,1519.96211 1643.40382,1279.47163 C1642.5016,1218.90165 1675.44763,1215.95435 1720.16761,1218.97684 C1982.4577,1236.67566 2244.76281,1254.35945 2507.12808,1271.0207 C2709.51082,1283.8625 2911.96875,1295.32087 3114.42668,1306.97473 C3138.96704,1308.38823 3163.6728,1307.17021 3210.36263,1307.17021 C3179.71726,1275.03565 3162.93599,1256.37444 3145.05701,1238.85606 C2899.56324,998.275353 2794.95096,712.477682 2877.87991,372.54597 C2927.09596,170.836512 3063.54153,45.0650867 3264.99199,9.05091117 C3459.78105,-25.7903601 3630.69139,40.1779856 3746.19045,203.707906 C3934.21288,469.897023 3977.45924,759.213406 3840.57759,1061.92796 C3809.28563,1131.11428 3753.54354,1189.41363 3707.87622,1251.86327 C3690.80925,1275.20105 3670.38903,1296.08777 3634.88671,1337.41009 C4070.0269,1365.01845 4482.13044,1391.1682 4912.56406,1418.46078 C4893.87309,1386.68711 4885.1366,1370.95816 4875.58812,1355.75552 C4726.28592,1117.8364 4657.68721,866.594294 4762.93105,592.706113 C4818.2521,448.769709 4970.93762,375.959422 5097.84975,443.657049 C5162.49374,478.137427 5221.16804,549.413916 5251.61793,617.818294 C5361.68864,865.015385 5364.38026,1112.55833 5212.46163,1348.74817 C5197.80057,1371.52958 5184.3124,1395.04781 5161.63663,1432.49052 C5469.03766,1451.90359 5763.70236,1470.48961 6051.69065,1488.66963 C6017.76721,1353.49993 5973.49834,1230.2698 5959.55906,1103.68636 C5949.5745,1012.98177 5972.49086,915.87131 5995.28693,825.287012 C6011.28628,761.649438 6058.05129,708.026661 6132.89035,704.628246 C6211.17288,701.079459 6248.81045,759.228443 6273.71169,820.580358 C6353.54303,1017.16212 6357.46768,1214.81152 6270.37348,1411.21284 C6262.28358,1429.46804 6253.68243,1447.57287 6246.75038,1466.27919 C6244.37454,1472.67001 6246.37446,1480.66982 6246.37446,1498.90999 C6352.92651,1505.46622 6458.89213,1516.41333 6564.88781,1516.89452 C6631.05054,1517.19526 6660.58317,1534.32267 6654.05712,1605.4939 C6648.13255,1670.12393 6649.44076,1735.88176 6653.41053,1800.76742 C6656.91414,1857.99913 6638.79458,1883.69777 6578.34591,1882.34442 C6510.89001,1880.84069 6443.22359,1889.63747 6375.73761,1888.66005 C6322.46159,1887.89316 6306.65772,1905.42657 6312.95821,1959.96662 C6337.87449,2176.11182 6359.36234,2392.67807 6380.12841,2609.27438 C6390.78963,2720.51984 6388.92505,2720.8657 6281.93692,2744.88016 C6265.17068,2748.63947 6247.87815,2750.11312 6224.60091,2753.55665 C6202.34617,2606.2519 6180.51247,2461.77416 6158.67878,2317.28137 C6152.48354,2317.35656 6146.2883,2317.41671 6140.09307,2317.4919 C6126.3643,2433.08311 6112.47013,2548.64426 6098.96692,2664.26555 C6081.41876,2814.50255 6044.59319,2845.56948 5866.55532,2846.21608 C5902.14786,2536.40395 5937.57499,2228.09554 5974.61108,1905.86265 C5742.54533,1913.89253 5521.60695,1921.51641 5289.6615,1929.53126 C5304.503,2053.6937 5316.92355,2167.13459 5331.84023,2280.24467 C5358.96695,2486.05929 5389.16121,2691.48294 5413.40082,2897.61335 C5416.12252,2920.62032 5394.1986,2961.94263 5374.19941,2969.41614 C5306.74351,2994.67869 5235.00207,3008.49791 5152.64451,3029.86582 C5115.53324,2833.7051 5079.15878,2641.49918 5042.79936,2449.29325 L5026.95038,2447.6993 C5012.3194,2533.66717 4996.65086,2619.4997 4983.29802,2705.67809 C4966.4566,2814.38226 4950.60762,2923.25183 4936.15708,3032.30185 C4930.26258,3076.7068 4914.11287,3102.54077 4864.91186,3113.12699 C4768.22406,3133.92348 4673.41589,3163.50172 4562.02193,3193.7416 C4586.26154,3028.75307 4607.70428,2881.31299 4629.6282,2733.94809 C4664.58918,2498.9462 4697.94121,2263.67363 4736.30055,2029.22812 C4746.54074,1966.583 4729.02265,1948.59847 4668.16798,1951.32021 C4415.56172,1962.62821 4162.8502,1971.99641 3910.1086,1980.08644 C3860.03545,1981.69542 3853.20866,2002.67236 3860.84744,2046.79161 C3928.67927,2438.63185 3994.03,2830.89314 4062.43323,3222.61309 C4072.19223,3278.52152 4058.08754,3304.83668 4001.39812,3317.46796 C3894.1694,3341.34709 3787.49704,3368.60959 3682.20809,3399.93215 C3629.00725,3415.75132 3610.39147,3398.18783 3599.18892,3348.76044 C3551.13072,3136.58507 3500.75683,2924.95104 3450.83405,2713.22678 C3445.33051,2689.85892 3437.22558,2667.12262 3430.32361,2644.08558 L3411.13642,2645.81486 Z" id="Fill-1" fill="#EB6619"></path>
            <path d="M5088.48021,4668.79802 C5088.48021,4728.88681 5091.26205,4789.141 5087.72836,4849.01927 C5083.87889,4914.34101 5121.33601,4941.81404 5173.98049,4928.0249 C5214.18938,4917.49883 5275.13427,4882.19141 5278.42737,4852.50791 C5293.19368,4720.05995 5296.20108,4585.46167 5291.6148,4452.05133 C5289.58481,4393.15048 5236.27871,4375.28625 5178.65699,4383.00035 C5120.52402,4390.7746 5087.72836,4419.67616 5088.20954,4481.02808 C5088.70576,4543.61305 5088.32984,4606.21305 5088.48021,4668.79802 M5088.3148,5170.92134 C5088.3148,5278.28719 5086.5254,5378.22465 5089.15687,5478.02677 C5090.28465,5520.64229 5075.92433,5540.8373 5033.89596,5550.7318 C4942.1403,5572.32526 4851.48233,5598.50509 4740.26881,5628.17355 L4740.26881,4170.68964 C4815.9349,4157.41176 4905.84102,4137.99869 4996.76965,4128.54027 C5016.61847,4126.46514 5040.16638,4159.90794 5065.36837,4179.62176 C5117.1407,4162.79509 5181.15313,4127.29218 5247.10533,4123.20206 C5499.24545,4107.56333 5651.35956,4238.02638 5668.59195,4494.15558 C5677.02769,4619.61123 5667.64462,4750.46524 5640.59309,4873.21418 C5585.09158,5125.01266 5390.81377,5237.73177 5137.30529,5183.01127 C5122.97505,5179.9136 5108.79517,5176.00392 5088.3148,5170.92134" id="Fill-3" fill="#666766"></path>
            <path d="M0,3787.84617 L800.132862,3787.84617 C789.952825,3885.19723 780.705081,3973.48083 770.855858,4067.62895 L354.436709,4067.62895 L354.436709,4311.83363 L689.265192,4311.83363 L689.265192,4585.4361 L354.135969,4585.4361 L354.135969,4879.53433 C460.537655,4879.53433 566.954379,4879.30877 673.371102,4879.59448 C847.288839,4880.03056 825.019068,4864.49709 826.688173,5031.68106 C827.109209,5073.71013 826.748321,5115.7392 826.748321,5163.43731 L0,5163.43731 L0,3787.84617 Z" id="Fill-5" fill="#666766"></path>
            <path d="M5706.13478,4154.33966 C5810.61173,4147.13682 5902.80347,4142.32491 5994.63432,4133.79879 C6041.77526,4129.42296 6059.02268,4148.91121 6071.03723,4193.15076 C6129.89198,4409.68693 6192.67138,4625.17049 6258.69877,4857.37546 C6269.60058,4809.58713 6275.29959,4774.71578 6285.53978,4741.22786 C6341.77809,4557.44279 6398.16678,4373.67275 6457.65308,4190.94028 C6463.36713,4173.40687 6490.34348,4151.79836 6508.25252,4151.06154 C6603.00055,4147.09171 6698.0042,4149.19692 6804.34574,4149.19692 C6796.75207,4179.48191 6793.32363,4202.8197 6785.14351,4224.36806 C6655.70517,4565.27719 6529.74037,4907.61486 6393.24968,5245.68195 C6352.98064,5345.40889 6291.35909,5440.05324 6223.51223,5524.12642 C6152.47752,5612.15439 6039.26408,5628.46978 5932.02033,5643.46191 C5918.60734,5645.34156 5896.27742,5634.71024 5889.37545,5623.13157 C5853.75283,5563.41871 5821.79925,5501.51042 5787.60515,5438.59463 C5859.24133,5408.39986 5931.97522,5390.49052 5988.79997,5350.14562 C6044.03081,5310.92851 6082.93148,5248.70444 6124.13281,5185.89391 C6031.05389,5185.18716 6025.26465,5125.09837 6006.55865,5066.9945 C5915.52476,4784.05391 5820.00985,4502.55689 5726.19411,4220.51852 C5720.13421,4202.30843 5715.03667,4183.78256 5706.13478,4154.33966" id="Fill-7" fill="#666766"></path>
            <path d="M1352.75098,4202.85128 C1445.19835,4144.88274 1552.50225,4113.99626 1671.14404,4119.93597 C1818.92751,4127.34932 1907.90133,4192.06958 1914.20183,4339.61492 C1925.50964,4604.2552 1920.48728,4869.60223 1921.70528,5134.66356 C1921.75039,5143.86635 1915.52508,5153.08417 1911.19443,5165.129 L1583.82429,5165.129 C1581.80933,5132.18242 1578.5012,5102.88988 1578.44105,5073.56728 C1578.02001,4883.3613 1578.57638,4693.14029 1578.17038,4502.93432 C1578.05009,4451.11601 1577.38846,4399.19244 1503.04562,4399.04207 C1428.37197,4398.87666 1372.75017,4443.80792 1372.56972,4510.04693 C1371.95321,4725.03427 1372.32913,4940.03664 1372.32913,5162.09147 L1024.22299,5162.09147 L1024.22299,4171.37835 C1101.16723,4157.51402 1195.29874,4137.09345 1290.51291,4126.88317 C1305.85063,4125.22907 1326.07538,4169.00246 1352.75098,4202.85128" id="Fill-9" fill="#666766"></path>
            <path d="M4212.35796,4658.19526 C4205.1402,4586.1218 4200.44867,4526.57436 4192.91514,4467.40284 C4185.15605,4406.487 4165.87864,4354.20254 4089.7464,4354.53336 C4015.20808,4354.87922 3995.41941,4412.9079 3992.74283,4465.854 C3986.00626,4599.7305 3987.32952,4734.23856 3991.60002,4868.31054 C3993.23905,4920.11381 4028.33537,4955.75205 4083.73161,4960.18804 C4138.61659,4964.59395 4168.66049,4930.4895 4178.0586,4882.47561 C4193.29106,4804.688 4202.32829,4725.69741 4212.35796,4658.19526 M4109.08396,4121.00512 C4366.08103,4121.69683 4527.03688,4257.61839 4561.95276,4514.51449 C4593.24472,4744.76462 4568.0277,4963.33082 4361.16393,5112.01899 C4206.19279,5223.41482 4032.66602,5226.30197 3862.79323,5149.20607 C3704.72447,5077.47846 3631.344,4939.70732 3620.26174,4772.13239 C3614.09658,4678.7662 3612.24703,4580.91892 3633.08829,4490.78574 C3689.01083,4248.82161 3862.47745,4120.35851 4109.08396,4121.00512" id="Fill-11" fill="#666766"></path>
            <path d="M2188.78614,4371.11943 C2155.49426,4366.68345 2133.70568,4363.7963 2106.45867,4360.15729 L2106.45867,4154.5983 C2187.26741,4161.51542 2188.75607,4110.91513 2190.33495,4049.65344 C2195.37234,3854.12429 2157.74981,3897.28115 2355.77183,3864.86087 C2411.72444,3855.68816 2467.91764,3848.09436 2530.47149,3838.81638 L2530.47149,4144.3429 C2591.73216,4147.36539 2647.9404,4150.13224 2711.51676,4153.27502 C2699.65258,4216.70207 2691.0815,4275.42247 2676.14978,4332.47374 C2672.73638,4345.46591 2648.33136,4358.29267 2631.79068,4361.34523 C2600.66412,4367.08945 2568.21432,4365.63084 2530.69705,4367.45034 C2530.69705,4540.55898 2528.87757,4707.83317 2531.70452,4875.01714 C2532.68193,4932.73005 2565.32722,4967.94725 2628.64795,4964.00749 C2658.2708,4962.17295 2687.93877,4960.96997 2716.2083,4959.54144 C2719.44125,4962.2331 2722.47872,4963.46615 2722.97494,4965.36084 C2775.96526,5168.55899 2788.02492,5152.84508 2596.52895,5189.40059 C2518.06598,5204.37768 2431.37778,5194.90422 2351.59155,5179.83691 C2240.85921,5158.90508 2191.28228,5090.32026 2189.91392,4977.15004 C2187.86889,4806.79321 2188.99666,4636.40631 2188.78614,4466.01941 C2188.75607,4436.38103 2188.78614,4406.75767 2188.78614,4371.11943" id="Fill-13" fill="#666766"></path>
            <path d="M6878.30815,5067.42757 C6897.97652,5033.06749 6918.35163,4997.4894 6942.23036,4955.80619 C7076.78127,5047.11227 7219.76794,5079.68292 7374.27293,5068.66063 C7553.51376,5055.87898 7669.34363,4898.93537 7617.90212,4733.22505 C7589.78296,4642.62571 7514.14694,4600.28086 7434.15019,4569.18386 C7348.15369,4535.75609 7258.42802,4512.0123 7170.79249,4482.65962 C6999.5363,4425.27753 6913.58491,4318.09213 6913.43454,4163.65973 C6913.25409,3994.71641 7013.79136,3853.23107 7177.75461,3802.46537 C7387.85133,3737.42934 7580.53522,3783.75905 7767.33965,3903.63588 C7742.76922,3940.97334 7721.22122,3973.72443 7695.65835,4012.59568 C7580.35477,3938.82301 7460.9461,3890.02719 7321.26757,3901.83141 C7176.19076,3914.08676 7081.47281,4004.94173 7085.80346,4140.41217 C7088.4199,4222.56058 7132.38803,4279.68703 7203.30244,4309.00964 C7316.26025,4355.71529 7432.82694,4393.75949 7548.13052,4434.69084 C7666.57683,4476.74998 7749.9569,4554.73308 7787.80498,4675.19636 C7834.8557,4824.96721 7779.9256,4982.90328 7657.72005,5085.42714 C7441.09728,5267.16715 7036.9032,5201.16873 6878.30815,5067.42757" id="Fill-15" fill="#666766"></path>
            <path d="M2918.982,4170.77535 C2994.66313,4157.12154 3082.20844,4135.03185 3170.76123,4129.57333 C3194.1287,4128.14479 3220.65394,4178.09849 3249.35954,4208.27821 C3287.19259,4185.00058 3334.79967,4141.72342 3390.30117,4125.57343 C3444.1035,4109.91967 3505.99571,4122.17501 3576.78983,4122.17501 C3545.76853,4230.81903 3521.37855,4316.24556 3495.75553,4405.98777 C3467.53111,4399.76235 3444.05838,4393.22116 3420.14958,4389.522 C3333.25086,4376.10878 3267.70466,4430.3932 3267.35881,4518.09035 C3266.5017,4730.53639 3267.0731,4942.9674 3267.0731,5162.28545 L2918.982,5162.28545 L2918.982,4170.77535 Z" id="Fill-17" fill="#666766"></path>
            <path d="M8175.64334,4660.49897 C8187.05641,4730.2567 8195.07112,4812.58555 8214.76957,4891.99719 C8245.03901,5014.0093 8320.34422,5069.91774 8440.91074,5071.79739 C8567.80783,5073.76727 8643.29349,5021.24221 8677.65299,4896.47828 C8718.40321,4748.58709 8713.6816,4598.62075 8672.87123,4451.70697 C8640.82742,4336.38643 8543.37274,4265.12497 8435.97861,4267.26026 C8312.87084,4269.69629 8228.21263,4339.78484 8200.33406,4469.04491 C8187.76314,4527.28411 8184.6956,4587.58342 8175.64334,4660.49897 M8444.0234,4151.18785 C8636.72232,4152.15024 8786.15985,4260.95966 8838.27803,4447.1958 C8886.42645,4619.25184 8894.95242,4793.53338 8818.57959,4960.31134 C8740.13165,5131.66062 8599.32535,5211.40308 8406.08509,5196.08013 C8230.61854,5182.15566 8112.48801,5084.11289 8058.43006,4919.96644 C8002.26693,4749.45925 8002.74812,4574.54614 8066.59514,4405.07651 C8129.46476,4238.19329 8265.36901,4150.30066 8444.0234,4151.18785" id="Fill-19" fill="#666766"></path>
            <path d="M9182.71816,4299.71663 C9142.77993,4295.7468 9115.83366,4293.08521 9083.77481,4289.89731 L9083.77481,4183.74948 C9173.33508,4198.42582 9188.52243,4150.036 9182.74823,4075.15057 C9178.76343,4023.5879 9179.33484,3968.44636 9193.3493,3919.31972 C9247.97866,3727.73032 9484.61565,3662.3785 9674.24703,3788.7063 C9658.77398,3817.8635 9642.90996,3847.74248 9626.48958,3878.70415 C9579.79975,3866.14806 9537.65109,3849.35147 9494.1491,3844.29896 C9411.06977,3834.67513 9353.25257,3874.86965 9344.17024,3954.77752 C9336.11041,4025.7683 9342.48609,4098.39814 9342.48609,4178.53156 L9596.4908,4178.53156 C9580.62678,4288.54396 9574.82251,4293.82203 9477.74375,4293.89722 C9435.44472,4293.92729 9393.16072,4293.89722 9342.51617,4293.89722 C9339.98995,4329.23472 9335.91493,4360.30164 9335.82471,4391.38361 C9335.26834,4609.04757 9335.53901,4826.71153 9335.50893,5044.37549 C9335.4939,5177.25953 9335.46382,5177.25953 9182.71816,5163.25987 L9182.71816,4299.71663 Z" id="Fill-21" fill="#666766"></path>
            <path d="M9770.01457,4298.07005 C9724.61792,4295.3032 9687.89761,4293.06265 9644.74147,4290.43114 L9644.74147,4185.11035 C9685.49169,4182.59913 9722.0917,4180.34355 9763.93962,4177.77218 C9770.33034,4120.36002 9783.72829,4063.75987 9781.02164,4007.94166 C9777.7135,3939.7478 9806.46421,3913.31234 9869.36391,3909.44777 C9890.92694,3908.10946 9912.14412,3901.01189 9938.23329,3895.56841 C9933.67708,3989.37067 9929.34643,4078.18058 9924.54963,4176.9752 L10160.3746,4176.9752 C10144.7662,4290.97248 10141.6686,4293.81451 10042.4696,4293.91977 C10022.4554,4293.93481 10002.1856,4296.02499 9982.48712,4293.54384 C9928.86525,4286.79213 9913.87337,4310.83666 9914.50493,4362.08356 C9916.8507,4552.15419 9914.26434,4742.26994 9916.09885,4932.35562 C9917.36195,5061.88635 9950.44332,5091.47963 10078.5584,5087.1038 C10150.0893,5084.66776 10150.0893,5084.66776 10158.2394,5167.32744 C10064.0778,5211.92788 9965.51037,5215.01051 9870.22101,5176.16933 C9787.00636,5142.24533 9771.23256,5061.99161 9770.58597,4981.75293 C9768.96198,4781.6675 9770.0296,4581.55199 9770.01457,4381.45151 L9770.01457,4298.07005" id="Fill-23" fill="#666766"></path>
        </g>
    </g>
</svg>