<?xml version="1.0" encoding="UTF-8" standalone="no"?>
<svg width="703px" height="1118px" viewBox="0 0 703 1118" version="1.1" xmlns="http://www.w3.org/2000/svg" xmlns:xlink="http://www.w3.org/1999/xlink">
    <!-- Generator: Sketch 3.8.3 (29802) - http://www.bohemiancoding.com/sketch -->
    <title>filao</title>
    <desc>Created with Sketch.</desc>
    <defs></defs>
    <g id="Page-1" stroke="none" stroke-width="1" fill="none" fill-rule="evenodd">
        <g id="filao">
            <g id="Group-13" transform="translate(13.000000, 847.406527)">
                <path d="M30.062631,150.908306 L30.062631,65.1152318 L50.2782262,65.1152318 C50.1047738,62.2409234 50.2838214,59.0310925 49.8529881,58.9472119 C43.1498929,57.6330826 36.362869,56.7215801 29.7269167,55.7373811 C24.1484643,23.0966448 27.2650119,11.0178388 55.8287024,16.0394905 L55.8287024,0.622236816 C33.3917976,-1.8382607 20.1590595,15.547391 13.0642976,56.6488836 C0.189654762,57.7281473 0.189654762,57.7281473 0.301559524,64.8468139 C4.68263095,65.1655602 9.10846429,65.4843065 13.8364405,65.8254209 L13.8364405,150.908306 L30.062631,150.908306 L30.062631,150.908306 Z" id="Fill-1" fill="#FEFEFE"></path>
                <path d="M642.058024,103.511855 C639.51219,93.3399343 638.577786,84.6331284 635.187071,77.0167701 C626.161952,56.7512179 600.379095,54.4864418 587.207905,72.2579443 C575.877548,87.535397 574.870405,117.173208 585.132071,133.255914 C596.686238,151.368531 621.047905,151.882999 631.746,133.227954 C637.039095,123.995497 638.947071,112.822601 642.058024,103.511855 L642.058024,103.511855 Z M659.610286,105.88288 C658.838143,108.952909 657.970881,112.000571 657.305048,115.092969 C652.565881,137.237447 634.767429,152.313586 611.944452,153.471138 C587.638738,154.701387 569.1185,143.433427 562.695167,122.474462 C556.691476,102.902322 558.526714,84.0739244 573.001595,68.5224617 C587.006476,53.4798746 605.29731,50.9466806 624.309929,55.224591 C642.242667,59.2620438 653.103024,71.3576259 657.344214,89.2912975 C657.982071,91.9922527 658.849333,94.6372876 659.610286,97.3102826 L659.610286,105.88288 Z" id="Fill-3" fill="#1D1C1B"></path>
                <path d="M474.193048,101.67487 C465.240667,103.900501 457.334595,105.812979 449.462095,107.848482 C447.061738,108.469198 444.700548,109.29682 442.41769,110.258651 C433.767452,113.899069 431.72519,121.023327 432.609238,129.506452 C433.442929,137.503069 437.913524,142.681298 445.68531,144.392462 C460.495905,147.647029 474.137095,136.496501 474.187452,121.392402 C474.209833,115.364183 474.193048,109.330372 474.193048,101.67487 L474.193048,101.67487 Z M439.860667,155.190691 C439.278762,154.793656 438.747214,154.206492 438.103762,154.021954 C421.217333,149.168064 414.251262,141.439865 414.889119,128.181138 C415.571738,114.027686 424.5465,104.895885 441.018881,101.669278 C447.296738,100.433437 453.6865,99.6673274 459.852452,98.0344517 C465.609952,96.5078249 473.583167,97.3578149 474.176262,88.3937751 C474.830905,78.5182328 472.094833,69.9791881 462.560548,65.0973373 C453.328405,60.3720637 440.285905,62.5641433 431.741976,70.1693174 C429.912333,71.796601 428.228167,73.5860537 426.454476,75.3251781 C422.828762,66.5624517 422.9015,64.9631284 430.31519,61.5799443 C437.01269,58.5266905 444.152214,55.3504119 451.3365,54.6178547 C478.719595,51.8330189 491.985905,65.4943721 490.245786,92.9456955 C489.484833,105.024501 489.4065,117.16482 489.384119,129.271586 C489.367333,137.592541 490.173048,145.773696 502.337095,145.53883 C491.370429,155.40878 481.030429,153.501895 474.058762,142.535904 C464.653167,146.824999 455.471381,151.007845 446.29519,155.190691 L439.860667,155.190691 Z" id="Fill-5" fill="#1D1C1B"></path>
                <path d="M30.062631,150.908306 L13.8364405,150.908306 L13.8364405,65.8254209 C9.10846429,65.4843065 4.68263095,65.1655602 0.301559524,64.8468139 C0.189654762,57.7281473 0.189654762,57.7281473 13.0642976,56.6488836 C20.1590595,15.547391 33.3917976,-1.8382607 55.8287024,0.622236816 L55.8287024,16.0394905 C27.2650119,11.0178388 24.1484643,23.0966448 29.7269167,55.7373811 C36.362869,56.7215801 43.1498929,57.6330826 49.8529881,58.9472119 C50.2838214,59.0310925 50.1047738,62.2409234 50.2782262,65.1152318 L30.062631,65.1152318 L30.062631,150.908306 Z" id="Fill-7" fill="#1D1C1B"></path>
                <polygon id="Fill-9" fill="#1D1C1B" points="299.1975 151.034687 316.10631 151.034687 316.10631 1.46439801 299.1975 1.46439801"></polygon>
                <polygon id="Fill-11" fill="#1D1C1B" points="165.225119 150.855741 182.542381 150.855741 182.542381 56.1601393 165.225119 56.1601393"></polygon>
                <path d="M184.590798,23.9438388 C180.629369,26.3931522 176.270679,31.2190826 172.818417,30.6431025 C169.097583,30.0223861 166.227226,24.3352816 162.981988,20.8570328 C166.479012,17.6360179 169.769012,12.2061473 173.540202,11.8426647 C177.014845,11.5071423 181.01544,16.6182667 184.786631,19.335998 C184.719488,20.8682169 184.65794,22.4060279 184.590798,23.9438388" id="Fill-12" fill="#1D1C1B"></path>
            </g>
            <g id="Group-39" transform="translate(0.000000, 0.406527)">
                <path d="M377.483298,280.587164 C372.60425,122.813353 209.335202,0.185512438 209.335202,0.185512438 C-236.415036,283.511801 168.316512,570.573572 168.316512,570.573572 C170.291631,569.38806 172.126869,568.202547 174.074012,567.017035 C183.658655,458.016995 231.229369,339.096677 377.483298,280.587164 L377.483298,280.587164 Z" id="Fill-14" fill="#F39500"></path>
                <path d="M667.466024,246.170396 C542.876857,237.994834 448.541143,252.159471 377.481619,280.589401 C380.251262,370.078814 331.975548,470.858555 174.072333,567.019272 C163.419,688.148446 199.659357,797.008685 199.659357,797.008685 C853.138405,857.827709 667.466024,246.170396 667.466024,246.170396" id="Fill-16" fill="#F39500"></path>
                <path d="M377.483298,280.587164 C231.229369,339.096677 183.658655,458.016995 174.074012,567.017035 C331.977226,470.86191 380.247345,370.076577 377.483298,280.587164" id="Fill-18" fill="#DC0C14"></path>
                <path d="M216.86919,1077.50987 C216.86919,1073.95893 216.734905,1071.17409 216.589429,1068.38926 L221.955262,1068.38926 L222.235024,1073.89182 L222.442048,1073.89182 C224.327643,1070.68759 227.460976,1067.69584 233.100976,1067.69584 C237.633119,1067.69584 241.113357,1070.48068 242.57931,1074.44544 L242.71919,1074.44544 C243.7655,1072.49941 245.158714,1071.1014 246.551929,1070.06128 C248.57181,1068.52906 250.731571,1067.69584 253.932048,1067.69584 C258.46419,1067.69584 265.077762,1070.62048 265.077762,1082.31344 L265.077762,1102.09248 L259.090857,1102.09248 L259.090857,1083.07955 C259.090857,1076.53686 256.651333,1072.7119 251.772286,1072.7119 C248.224905,1072.7119 245.572762,1075.28424 244.45931,1078.20888 C244.179548,1079.1092 243.972524,1080.1605 243.972524,1081.27332 L243.972524,1102.09248 L237.980024,1102.09248 L237.980024,1081.89403 C237.980024,1076.53686 235.613238,1072.7119 230.94681,1072.7119 C227.181214,1072.7119 224.327643,1075.76516 223.348476,1078.83519 C223.001571,1079.6684 222.86169,1080.78122 222.86169,1081.82693 L222.86169,1102.09248 L216.86919,1102.09248 L216.86919,1077.50987 Z" id="Fill-20" fill="#1D1C1B"></path>
                <path d="M282.315012,1085.30853 C282.315012,1092.69003 286.494655,1098.2597 292.487155,1098.2597 C298.339774,1098.2597 302.72644,1092.76272 302.72644,1085.17432 C302.72644,1079.45926 299.872869,1072.29026 292.627036,1072.29026 C285.448345,1072.29026 282.315012,1078.97275 282.315012,1085.30853 M308.998702,1084.96183 C308.998702,1097.42648 300.286917,1102.85635 292.207393,1102.85635 C283.148702,1102.85635 276.04275,1096.16827 276.04275,1085.52103 C276.04275,1074.30899 283.495607,1067.6992 292.766917,1067.6992 C302.446679,1067.6992 308.998702,1074.7228 308.998702,1084.96183" id="Fill-22" fill="#1D1C1B"></path>
                <path d="M326.293024,1088.57932 C326.293024,1089.35102 326.365762,1090.11154 326.572786,1090.80495 C327.686238,1095.0549 331.306357,1097.98513 335.765762,1097.98513 C342.250643,1097.98513 346.005048,1092.76216 346.005048,1085.02837 C346.005048,1078.27878 342.52481,1072.49661 335.905643,1072.49661 C331.793143,1072.49661 327.893262,1075.42125 326.639929,1080.0179 C326.432905,1080.77842 326.293024,1081.62282 326.293024,1082.59583 L326.293024,1088.57932 Z M320.233381,1052.65605 L326.293024,1052.65605 L326.293024,1073.82192 L326.432905,1073.82192 C328.592667,1070.05848 332.492548,1067.69864 337.925524,1067.69864 C346.357548,1067.69864 352.210167,1074.65514 352.210167,1084.82147 C352.210167,1096.86672 344.54469,1102.8558 337.019095,1102.8558 C332.145643,1102.8558 328.245762,1100.97687 325.666357,1096.59271 L325.526476,1096.59271 L325.179571,1102.08969 L319.953619,1102.08969 C320.0935,1099.79136 320.233381,1096.38021 320.233381,1093.38288 L320.233381,1052.65605 Z" id="Fill-24" fill="#1D1C1B"></path>
                <path d="M363.371548,1102.08577 L369.503929,1102.08577 L369.503929,1068.38814 L363.371548,1068.38814 L363.371548,1102.08577 Z M370.197738,1058.92082 C370.197738,1061.01224 368.731786,1062.68426 366.297857,1062.68426 C364.065357,1062.68426 362.599405,1061.01224 362.599405,1058.92082 C362.599405,1056.82939 364.138095,1055.09027 366.437738,1055.09027 C368.664643,1055.09027 370.197738,1056.76229 370.197738,1058.92082 L370.197738,1058.92082 Z" id="Fill-26" fill="#1D1C1B"></path>
                <polygon id="Fill-28" fill="#1D1C1B" points="383.1675 1102.09136 389.299881 1102.09136 389.299881 1052.65773 383.1675 1052.65773"></polygon>
                <path d="M424.488333,1081.96617 C424.561071,1078.13562 422.888095,1072.07944 415.983571,1072.07944 C409.716905,1072.07944 407.070357,1077.72181 406.583571,1081.96617 L424.488333,1081.96617 Z M406.510833,1086.35033 C406.650714,1094.64333 411.876667,1098.04888 418.07619,1098.04888 C422.468452,1098.04888 425.187738,1097.28277 427.414643,1096.30975 L428.53369,1100.6995 C426.368333,1101.67252 422.608333,1102.85244 417.2425,1102.85244 C406.863333,1102.85244 400.66381,1095.96305 400.66381,1085.79672 C400.66381,1075.63039 406.650714,1067.69529 416.475952,1067.69529 C427.554524,1067.69529 430.41369,1077.30241 430.41369,1083.49839 C430.41369,1084.75101 430.340952,1085.65692 430.201071,1086.35033 L406.510833,1086.35033 Z" id="Fill-29" fill="#1D1C1B"></path>
                <polygon id="Fill-30" fill="#1D1C1B" points="459.76631 1102.09136 465.89869 1102.09136 465.89869 1052.65773 459.76631 1052.65773"></polygon>
                <path d="M479.696548,1102.08577 L485.828929,1102.08577 L485.828929,1068.38814 L479.696548,1068.38814 L479.696548,1102.08577 Z M486.522738,1058.92082 C486.522738,1061.01224 485.062381,1062.68426 482.622857,1062.68426 C480.390357,1062.68426 478.93,1061.01224 478.93,1058.92082 C478.93,1056.82939 480.463095,1055.09027 482.762738,1055.09027 C484.989643,1055.09027 486.522738,1056.76229 486.522738,1058.92082 L486.522738,1058.92082 Z" id="Fill-31" fill="#1D1C1B"></path>
                <path d="M500.111333,1102.08969 L500.111333,1073.05581 L495.444905,1073.05581 L495.444905,1068.39205 L500.111333,1068.39205 L500.111333,1066.79273 C500.111333,1062.05627 501.224786,1057.73363 504.011214,1055.02149 C506.310857,1052.79585 509.377048,1051.88435 512.236214,1051.88435 C514.463119,1051.88435 516.275976,1052.37086 517.462167,1052.86296 L516.622881,1057.59942 C515.716452,1057.18001 514.535857,1056.82772 512.723,1056.82772 C507.497048,1056.82772 506.176571,1061.35727 506.176571,1066.58023 L506.176571,1068.39205 L514.328833,1068.39205 L514.328833,1073.05581 L506.176571,1073.05581 L506.176571,1102.08969 L500.111333,1102.08969 Z" id="Fill-32" fill="#1D1C1B"></path>
                <path d="M543.807905,1081.96617 C543.880643,1078.13562 542.207667,1072.07944 535.308738,1072.07944 C529.036476,1072.07944 526.395524,1077.72181 525.903143,1081.96617 L543.807905,1081.96617 Z M525.836,1086.35033 C525.970286,1094.64333 531.196238,1098.04888 537.395762,1098.04888 C541.788024,1098.04888 544.501714,1097.28277 546.728619,1096.30975 L547.847667,1100.6995 C545.687905,1101.67252 541.927905,1102.85244 536.562071,1102.85244 C526.182905,1102.85244 519.977786,1095.96305 519.977786,1085.79672 C519.977786,1075.63039 525.970286,1067.69529 535.795524,1067.69529 C546.874095,1067.69529 549.733262,1077.30241 549.733262,1083.49839 C549.733262,1084.75101 549.660524,1085.65692 549.520643,1086.35033 L525.836,1086.35033 Z" id="Fill-33" fill="#1D1C1B"></path>
                <path d="M559.987095,1095.89147 C561.867095,1097.00428 565.067571,1098.26249 568.139357,1098.26249 C572.526024,1098.26249 574.613048,1096.10397 574.613048,1093.24643 C574.613048,1090.3218 572.872929,1088.78958 568.413524,1087.12315 C562.281143,1084.89193 559.427571,1081.62058 559.427571,1077.58313 C559.427571,1072.15326 563.886976,1067.6964 571.060071,1067.6964 C574.478762,1067.6964 577.472214,1068.59672 579.285071,1069.78223 L577.824714,1074.23909 C576.498643,1073.40588 574.059119,1072.22036 570.925786,1072.22036 C567.300071,1072.22036 565.352929,1074.31179 565.352929,1076.81702 C565.352929,1079.60186 567.300071,1080.85447 571.692333,1082.5936 C577.472214,1084.75213 580.538405,1087.67676 580.538405,1092.69282 C580.538405,1098.6763 575.871976,1102.85356 567.999476,1102.85356 C564.301024,1102.85356 560.893524,1101.88054 558.521143,1100.48813 L559.987095,1095.89147 Z" id="Fill-34" fill="#1D1C1B"></path>
                <path d="M599.290286,1060.31323 L599.290286,1068.38814 L608.069214,1068.38814 L608.069214,1073.0519 L599.290286,1073.0519 L599.290286,1091.22603 C599.290286,1095.40328 600.476476,1097.77431 603.889571,1097.77431 C605.562548,1097.77431 606.536119,1097.63451 607.442548,1097.35491 L607.72231,1102.01867 C606.536119,1102.43807 604.656119,1102.85188 602.289333,1102.85188 C599.430167,1102.85188 597.130524,1101.88446 595.670167,1100.27395 C593.99719,1098.40062 593.303381,1095.40328 593.303381,1091.43294 L593.303381,1073.0519 L588.071833,1073.0519 L588.071833,1068.38814 L593.303381,1068.38814 L593.303381,1062.12505 L599.290286,1060.31323 Z" id="Fill-35" fill="#1D1C1B"></path>
                <path d="M621.321536,1068.39038 L628.640107,1088.30922 C629.468202,1090.53485 630.307488,1093.17989 630.867012,1095.19861 L631.001298,1095.19861 C631.63356,1093.17989 632.327369,1090.60196 633.16106,1088.16383 L639.852964,1068.39038 L646.33225,1068.39038 L637.133679,1092.41378 C632.747012,1103.96693 629.75356,1109.81621 625.568321,1113.50695 C622.507726,1116.08488 619.575821,1117.1306 618.048321,1117.4102 L616.515226,1112.32144 C618.048321,1111.84053 620.062607,1110.86192 621.88106,1109.3297 C623.54844,1108.00998 625.568321,1105.63895 627.034274,1102.50741 C627.30844,1101.8811 627.52106,1101.389 627.52106,1101.04789 C627.52106,1100.69559 627.381179,1100.20908 627.034274,1099.44857 L614.635226,1068.39038 L621.321536,1068.39038 Z" id="Fill-36" fill="#1D1C1B"></path>
                <polygon id="Fill-37" fill="#1D1C1B" points="655.40381 1102.09136 661.53619 1102.09136 661.53619 1052.65773 655.40381 1052.65773"></polygon>
                <path d="M696.720726,1081.96617 C696.793464,1078.13562 695.120488,1072.07944 688.215964,1072.07944 C681.949298,1072.07944 679.30275,1077.72181 678.815964,1081.96617 L696.720726,1081.96617 Z M678.743226,1086.35033 C678.883107,1094.64333 684.10906,1098.04888 690.308583,1098.04888 C694.700845,1098.04888 697.420131,1097.28277 699.647036,1096.30975 L700.766083,1100.6995 C698.600726,1101.67252 694.840726,1102.85244 689.474893,1102.85244 C679.095726,1102.85244 672.896202,1095.96305 672.896202,1085.79672 C672.896202,1075.63039 678.883107,1067.69529 688.708345,1067.69529 C699.786917,1067.69529 702.646083,1077.30241 702.646083,1083.49839 C702.646083,1084.75101 702.573345,1085.65692 702.433464,1086.35033 L678.743226,1086.35033 Z" id="Fill-38" fill="#1D1C1B"></path>
            </g>
        </g>
    </g>
</svg>