<?xml version="1.0" encoding="UTF-8" standalone="no"?>
<svg width="3638px" height="982px" viewBox="0 0 3638 982" version="1.1" xmlns="http://www.w3.org/2000/svg" xmlns:xlink="http://www.w3.org/1999/xlink">
    <!-- Generator: Sketch 3.8.3 (29802) - http://www.bohemiancoding.com/sketch -->
    <title>gammvert</title>
    <desc>Created with Sketch.</desc>
    <defs></defs>
    <g id="Page-1" stroke="none" stroke-width="1" fill="none" fill-rule="evenodd">
        <g id="gammvert">
            <g id="Group-3" transform="translate(2862.377500, 0.000000)" fill="#005234">
                <path d="M426.409288,462.283774 C439.533373,449.57233 453.271371,443.666691 468.207635,440.129672 C477.03888,438.036103 485.80646,435.649297 494.680906,433.758038 C571.583678,417.382279 607.818158,345.509881 610.089635,296.980441 C610.819508,281.338908 606.865457,277.099487 590.985587,278.999839 C527.072748,286.653529 477.386763,316.436316 446.686591,374.194737 C432.552961,400.788297 424.096885,429.100357 426.409288,462.283774 L426.409288,462.283774 Z M346.355098,457.987524 C339.260998,448.822191 334.115502,440.520654 330.902693,431.243936 C327.560281,421.596695 324.372483,411.885806 321.484821,402.093084 C318.383426,391.572955 315.070572,381.050552 312.953711,370.3122 C303.23343,320.993978 236.314693,275.665131 192.042507,271.134746 C181.685576,270.075459 174.652867,273.826154 171.169482,284.22126 C167.26318,295.875691 165.294112,307.655144 166.08083,319.927871 C169.802958,378.150015 212.278882,431.280306 272.003473,452.238732 C295.57544,460.512992 319.520301,464.618297 346.355098,457.987524 L346.355098,457.987524 Z M386.950631,408.185121 C390.027015,407.639566 390.825101,405.38233 391.936965,403.53426 C406.773183,378.888788 419.906363,353.45226 430.627095,326.660936 C455.808876,263.731103 439.740285,209.59608 396.052452,161.51445 C376.132128,139.589936 372.232647,140.105941 356.38461,165.053742 C320.466181,221.596029 313.301595,280.315992 344.872613,341.388663 C357.030355,364.906654 374.924767,384.778515 386.950631,408.185121 L386.950631,408.185121 Z M383.255787,63.9600241 C370.816101,65.0806861 358.308202,65.708075 345.957192,67.4606722 C333.613003,69.2087231 321.282457,71.4955102 309.19975,74.5506213 C150.628425,114.664867 47.5934434,267.77958 70.7220284,429.998251 C84.6896746,527.955024 134.837231,603.446274 217.560803,657.006191 C260.641545,684.899992 316.143782,673.693371 347.298705,632.581214 C376.800611,593.651279 371.593723,537.133996 335.402445,503.457306 C325.993667,494.70114 317.728586,494.08739 310.598106,501.616056 C303.438067,509.176547 304.411232,517.009816 313.6563,526.225158 C339.61343,552.10495 342.253253,589.289107 320.070548,616.589617 C298.447186,643.199089 260.812076,648.984251 231.123722,628.580473 C138.902696,565.20283 92.8183309,477.511594 99.9738221,365.424931 C111.463081,185.439334 283.110742,61.2822556 458.155386,104.410695 C602.543058,139.983191 697.422098,280.666056 675.002923,427.552344 C661.694665,514.738941 617.001835,582.433293 542.891227,630.2967 C513.957758,648.984251 476.231698,641.678353 455.449623,614.468769 C434.556135,587.115978 438.155481,551.157047 464.394556,525.095404 C472.584603,516.96208 473.428165,508.269561 466.70696,501.259172 C460.022135,494.287427 452.052641,494.303339 443.639766,501.859283 C419.854067,523.224603 407.905511,550.193232 411.072845,581.865006 C418.803595,659.22251 500.845042,698.09107 565.0421,653.21458 C676.40128,575.370621 724.090912,467.646131 704.757216,332.780251 C682.679103,178.774464 538.696158,59.6092185 383.255787,63.9600241 L383.255787,63.9600241 Z M775.623182,436.444899 C770.359451,449.395024 769.895606,463.402163 766.773747,476.834195 C729.75255,636.063677 593.45488,756.52007 430.847648,773.448205 C217.403915,795.668228 30.3334071,647.106631 3.03703837,433.703482 C-23.3202716,227.656242 124.991893,33.5430287 331.148258,3.97619074 C337.573876,3.05329259 344.624775,4.23078333 350.431932,0.00045462963 L425.465682,0.00045462963 C426.359266,2.27360278 428.423831,1.86216296 430.215546,2.0622 C600.56717,21.1520981 736.016731,145.238709 769.688695,312.769728 C771.578181,322.176015 771.037028,332.132404 775.623182,340.972677 L775.623182,436.444899 Z" id="Fill-1"></path>
            </g>
            <path d="M0,320.513889 C4.36332625,312.394204 3.974515,303.174315 5.76623,294.493162 C26.1640412,195.668046 105.590676,129.83313 206.463321,128.121449 C247.156625,127.432685 286.606187,132.263125 323.006651,151.994051 C358.674967,171.329449 361.373909,205.017505 329.955231,231.595153 C324.74607,236.000514 322.060771,233.020417 318.34319,230.583602 C285.694414,209.193278 249.914684,198.745889 210.838016,200.521218 C163.123372,202.689801 127.739275,224.602949 110.99538,269.786315 C89.00367,329.126847 89.0650612,389.474384 114.035384,448.08069 C131.627387,489.36788 164.662701,509.821667 209.910326,509.803481 C223.566469,509.798935 237.138482,509.301116 250.583166,506.457407 C262.015581,504.036505 268.752702,497.778528 269.5758,485.799037 C271.215174,461.967352 270.533049,438.106116 269.969159,414.278977 C269.755426,405.202296 264.232487,399.858125 254.248451,400.310481 C242.147554,400.856037 230.014824,401.692556 217.927569,400.20137 C194.191892,397.273556 186.276969,388.305986 186.220125,364.65388 C186.117806,323.821319 187.059139,329.495097 222.418225,329.390532 C262.947819,329.270056 303.477412,329.890625 344.004732,329.704227 C355.073347,329.651944 361.021477,332.898 360.898695,345.009333 C360.332531,401.031069 362.497141,457.07781 359.698155,513.081361 C358.861415,529.850375 352.149305,543.150565 335.49636,549.435819 C275.61488,572.040005 213.741595,583.692162 150.760994,568.898514 C71.2297662,550.215509 27.1963237,494.614306 6.58478,418.05013 C3.97224125,408.348333 4.28601875,398.014602 0,388.708333 L0,320.513889 Z" id="Fill-4" fill="#005234"></path>
            <path d="M2047.52142,934.660781 C2048.47413,940.514137 2049.22219,945.344577 2050.05438,950.159105 C2051.50503,958.56066 2054.84972,957.919632 2060.118,952.670933 C2070.08839,942.741822 2079.02423,931.996651 2086.3639,920.046711 C2098.54665,900.213494 2108.61481,879.605132 2107.71896,855.3711 C2107.50977,849.756424 2105.95225,847.235503 2100.44978,850.874813 C2069.94287,871.04673 2052.80107,899.48154 2047.52142,934.660781 L2047.52142,934.660781 Z M2168.76232,783.939693 C2168.62135,803.211443 2181.74543,812.413146 2199.61256,804.848109 C2218.95763,796.655683 2229.26454,781.136901 2232.38867,760.710392 C2234.54191,746.65097 2228.7916,740.111123 2214.47152,739.747419 C2191.10874,739.149581 2168.93513,760.589915 2168.76232,783.939693 L2168.76232,783.939693 Z M2039.5542,981.999091 C2025.46832,969.98323 2022.95128,953.837058 2024.16319,936.79754 C2026.75527,900.386253 2042.31908,870.755767 2071.93923,849.010831 C2081.07515,842.302771 2090.39298,835.7311 2100.19057,830.073234 C2106.50705,826.424831 2107.80308,822.462734 2106.81173,815.459165 C2102.55982,785.458156 2098.39885,755.525341 2088.19199,726.735919 C2085.31342,718.613961 2084.69951,709.862341 2086.03193,700.940234 C2087.30068,692.450026 2091.43663,693.231989 2096.72992,696.432581 C2105.13825,701.515341 2108.4079,710.026007 2110.80216,718.943568 C2117.10727,742.436554 2119.43104,766.568294 2122.39601,790.609109 C2125.27458,813.942975 2132.72111,818.396072 2155.09026,810.842401 C2137.26634,776.051869 2173.67135,727.331484 2206.66346,720.587054 C2211.91582,719.511855 2217.50015,718.754896 2222.19317,721.723628 C2229.96485,726.640447 2237.06805,729.268206 2246.4268,724.505961 C2251.4677,721.94185 2255.48087,726.735919 2256.24713,732.441521 C2257.168,739.306429 2255.78556,746.005396 2254.35991,752.686179 C2252.22486,762.681211 2249.87608,772.644419 2248.19578,782.716739 C2247.06345,789.49754 2246.47455,797.110313 2254.12344,800.613234 C2262.23391,804.327558 2270.50809,803.418299 2277.37709,797.053484 C2284.3052,790.634114 2287.54075,782.050706 2290.06688,773.28772 C2294.36427,758.387234 2298.02728,743.302623 2302.452,728.440781 C2305.71028,717.500119 2310.15319,706.986808 2319.30504,699.396767 C2328.48416,691.779447 2339.05938,689.260799 2350.03477,694.011679 C2359.95059,698.305656 2360.2007,708.018818 2360.53722,717.340998 C2360.99652,729.945605 2358.27938,742.197873 2356.98335,754.609262 C2356.1557,762.508452 2355.14161,770.4281 2355.02565,778.352294 C2354.90287,786.681109 2354.85512,795.753244 2363.63861,800.329091 C2372.8564,805.134526 2382.15831,803.125063 2390.56209,797.692239 C2399.21143,792.100294 2405.77802,786.10373 2406.15092,773.69916 C2406.7239,754.595623 2415.04583,737.785693 2429.64103,724.856026 C2447.43312,709.09629 2466.24613,709.941901 2482.8968,726.847304 C2484.74763,728.724924 2486.5348,730.663919 2488.9427,733.19848 C2494.57705,725.867577 2496.33239,717.422831 2498.52883,709.34179 C2502.69434,694.004859 2506.18455,678.486077 2510.12041,663.083225 C2513.02854,651.690206 2516.64835,640.494952 2522.14855,630.065748 C2525.3318,624.032813 2527.52597,614.433308 2536.95066,618.306753 C2544.92243,621.586906 2539.75419,629.774785 2538.79694,635.36673 C2531.12531,680.195484 2520.69107,724.374119 2505.29324,767.247966 C2502.75346,774.322003 2499.55884,781.318753 2495.58433,787.676748 C2491.48248,794.237054 2486.72352,793.395989 2484.75673,785.865049 C2482.66033,777.838563 2481.65988,769.534753 2480.02733,761.38097 C2476.62807,744.380095 2469.02238,735.021544 2458.21524,734.344146 C2446.56,733.612193 2434.24537,742.927554 2428.97255,757.45297 C2426.67378,763.785961 2425.24814,770.609952 2424.58876,777.324831 C2423.15629,791.932081 2429.22721,800.886012 2443.113,806.193813 C2482.31927,821.180679 2540.31808,795.857808 2555.82506,756.798304 C2559.16974,748.374017 2561.73681,739.640581 2564.60855,731.029896 C2567.78726,721.489494 2572.87364,713.197049 2580.51116,706.570822 C2584.67895,702.954244 2589.55387,701.876771 2593.93311,705.363781 C2597.95537,708.564373 2595.97721,712.7356 2594.03997,716.674966 C2586.67757,731.661831 2580.09279,747.014674 2577.11873,763.51773 C2575.11328,774.631151 2572.24153,787.378966 2584.1719,794.405267 C2595.95675,801.342915 2607.8098,796.341989 2617.95982,788.779225 C2628.50775,780.920952 2634.97884,769.61204 2641.44539,758.459975 C2651.68181,740.799887 2660.0151,721.957762 2673.38248,706.252581 C2676.27014,702.858771 2678.39383,696.921308 2684.86264,699.546794 C2690.46516,701.819943 2692.26597,706.75722 2692.81622,712.305975 C2694.00085,724.23773 2690.38331,735.517091 2688.2619,747.032859 C2686.05864,758.973706 2681.02001,770.855452 2686.14504,785.389961 C2700.91305,766.261419 2714.46914,748.321734 2728.45043,730.718475 C2738.57317,717.97066 2748.93919,705.336503 2762.40207,695.818831 C2767.6999,692.07041 2773.59119,688.044665 2780.2078,691.315725 C2787.25643,694.800461 2787.88853,702.108632 2787.67707,709.08947 C2787.09499,728.16573 2779.68257,746.04404 2777.71123,764.906623 C2776.24693,778.89785 2775.36926,792.84816 2778.32969,806.734822 C2781.65846,822.349077 2788.53655,827.690975 2804.66653,827.147693 C2817.38816,826.720341 2829.0002,821.86035 2840.72821,817.60047 C2849.98237,814.238484 2859.12967,810.501429 2868.9409,809.098896 C2871.27604,808.767017 2874.37971,806.548424 2876.09639,809.714919 C2877.51521,812.335859 2875.26192,814.77722 2874.06593,817.048095 C2871.35562,822.18541 2867.16282,826.117956 2862.40614,829.223077 C2844.22296,841.09573 2824.10937,847.499188 2802.48373,848.010646 C2779.94177,848.544836 2765.75812,836.967693 2760.52395,814.281674 C2755.05785,790.586378 2758.06375,766.83198 2761.27656,743.154869 C2762.08374,737.201494 2763.09556,731.277669 2764.18241,724.251369 C2756.04011,725.788017 2752.13381,731.448156 2748.31846,736.480906 C2733.46632,756.082262 2719.15989,776.097331 2704.30321,795.691869 C2700.2241,801.07241 2695.27642,805.936947 2690.11955,810.326396 C2680.86994,818.198308 2671.9773,815.688753 2667.70947,804.125248 C2664.50576,795.446369 2664.74223,786.283308 2665.06965,777.161165 C2665.26747,771.669239 2665.10603,766.165947 2665.10603,758.494072 C2655.3471,771.275984 2647.10248,782.332577 2638.56682,793.161855 C2632.67099,800.642785 2625.67921,807.030331 2617.37092,811.828947 C2595.49745,824.467651 2575.26335,820.285058 2561.20248,799.490299 C2556.70727,792.841341 2554.18341,791.211494 2548.92877,798.721975 C2543.41493,806.598433 2535.07254,811.6721 2526.45503,815.654656 C2499.48608,828.1206 2471.34388,831.439396 2442.21941,825.13823 C2434.39544,823.444734 2425.85523,821.398901 2420.92347,815.263674 C2413.63838,806.205179 2408.09952,807.380396 2400.10502,813.992984 C2393.41792,819.521281 2385.0437,822.585484 2376.08512,823.362901 C2354.06385,825.279165 2340.69648,814.974984 2336.94706,793.22323 C2333.0635,770.6736 2338.45456,748.792276 2341.30811,726.695003 C2341.82198,722.732906 2345.99659,717.218248 2340.13031,714.542753 C2334.25039,711.862711 2329.0185,715.126952 2325.17131,719.807364 C2316.18545,730.732114 2313.38874,744.200517 2310.45333,757.491614 C2308.49335,766.354619 2307.56112,775.440392 2305.68073,784.323855 C2302.52931,799.208429 2294.34836,810.687827 2280.83319,817.868702 C2264.12112,826.749892 2247.17259,823.281068 2235.05123,808.607896 C2232.54328,805.57097 2231.25861,802.056683 2226.65654,806.341568 C2208.14595,823.572031 2185.19699,828.704799 2160.86104,830.368744 C2152.22079,830.959762 2142.63011,831.059781 2135.37912,834.940044 C2127.38462,839.218109 2131.80934,849.833711 2130.16996,857.535137 C2122.40283,894.055535 2107.63483,927.273049 2084.74499,956.821702 C2075.8137,968.348836 2064.38355,976.541262 2050.92295,981.999091 L2039.5542,981.999091 Z" id="Fill-6" fill="#743E18"></path>
            <path d="M1329.38204,286.029777 C1347.15595,273.029643 1365.18906,261.311564 1385.4459,253.357819 C1409.58857,243.876518 1434.14735,242.569457 1458.92213,249.745786 C1488.32626,258.260999 1505.92964,277.64868 1510.00647,308.356638 C1515.11559,346.822851 1512.32797,385.507286 1512.80773,424.100795 C1513.20336,455.906684 1511.24794,487.762582 1513.90822,519.504823 C1515.09057,533.596069 1515.227,548.623851 1529.29242,557.971036 C1532.71214,560.244184 1530.48841,562.599166 1527.74854,563.797115 C1504.1743,574.121754 1480.05663,579.652323 1455.33642,568.395694 C1438.98134,560.94886 1433.65394,545.725587 1432.19874,529.292999 C1428.74492,490.363064 1431.03686,451.321744 1430.71171,412.328161 C1430.48434,385.129944 1432.31471,357.881717 1427.915,330.788064 C1426.00505,319.022249 1419.07466,313.225721 1408.11291,310.970758 C1381.88975,305.578851 1359.53879,319.115448 1352.16502,344.963416 C1348.39059,358.193138 1347.59478,371.793383 1347.62434,385.457277 C1347.73803,438.489823 1347.9222,491.522369 1348.01315,544.554916 C1348.0518,567.302309 1345.6871,569.686842 1322.71541,570.230124 C1311.35575,570.496082 1299.98928,570.577916 1288.6228,570.614286 C1272.00624,570.666569 1268.48192,567.286397 1268.56378,550.84699 C1268.86164,491.004092 1269.24363,431.161194 1269.65063,371.318295 C1269.72112,361.073217 1269.47328,350.839504 1267.53604,340.77855 C1263.48649,319.763295 1255.57384,310.568411 1239.74854,307.851999 C1221.61311,304.735513 1202.67505,313.723541 1193.65281,330.122031 C1184.9921,345.863582 1183.1299,363.264531 1183.13217,380.731402 C1183.13672,436.773596 1183.65968,492.813518 1183.91207,548.855712 C1183.99165,566.899962 1180.78566,569.977805 1162.77756,569.948254 C1148.75762,569.925522 1134.73767,570.034633 1120.71773,569.950527 C1104.09889,569.852781 1100.85198,566.697652 1100.91792,550.108217 C1101.17258,486.855596 1101.51137,423.602976 1101.89108,360.352629 C1101.95702,349.298309 1100.79059,338.421295 1097.98478,327.744319 C1096.28856,321.281758 1093.04165,316.098981 1086.49552,313.189351 C1064.19003,303.276152 1034.76543,314.491865 1025.26116,336.909652 C1018.61499,352.587555 1017.81008,369.25655 1017.83282,385.957369 C1017.90103,439.367258 1018.12841,492.777147 1018.23982,546.187036 C1018.28302,566.593087 1015.34534,569.636832 994.749709,570.1983 C982.255452,570.536999 969.749827,570.60974 957.24875,570.589281 C942.685381,570.562004 938.867755,566.972703 938.951884,552.581402 C939.249745,501.453754 939.802266,450.330652 940.147876,399.203004 C940.272932,380.658661 941.207444,362.068856 938.610821,343.604073 C935.645851,322.520624 926.52584,311.03668 910.64597,308.038397 C892.151287,304.542295 872.979027,313.603064 863.747602,330.578934 C854.959559,346.741018 853.622594,364.560226 853.62032,382.406712 C853.62032,438.073837 854.018226,493.740962 854.18421,549.405814 C854.236506,566.790851 850.903189,570.025541 833.679532,570.011902 C818.522715,569.998263 803.363624,570.159656 788.211354,569.932342 C774.307372,569.720939 771.199156,566.872684 771.256,553.306536 C771.526576,489.685666 772.226891,426.064795 772.331484,362.443925 C772.358769,345.054342 771.387877,327.614749 769.85537,310.288814 C768.841277,298.811689 764.969081,287.95968 754.900916,280.792444 C750.858189,277.914638 750.160147,275.573295 754.186959,272.043096 C775.071352,253.728342 798.943454,247.438541 825.921497,254.346638 C833.017871,256.162883 839.845942,260.165897 843.067846,266.655735 C847.565324,275.718777 851.503459,272.331786 857.296974,268.453795 C879.802551,253.394189 904.106665,243.742402 931.866879,245.472268 C958.656201,247.143031 981.348226,256.52886 995.675125,280.506027 C999.254007,286.493499 1001.60506,284.781819 1005.75693,281.69261 C1021.30256,270.124559 1037.93732,260.390939 1056.025,253.275985 C1079.73339,243.951531 1103.90562,242.912703 1128.45076,249.375263 C1143.53027,253.346453 1156.65208,260.854661 1166.02447,273.372888 C1170.06038,278.762522 1172.64109,278.678416 1177.50464,275.075476 C1191.24491,264.894045 1206.02201,256.29018 1222.28387,250.92555 C1251.41061,241.316953 1279.6665,242.846781 1306.19434,259.602156 C1316.34209,266.012434 1322.8632,275.714231 1329.38204,286.029777" id="Fill-8" fill="#005234"></path>
            <path d="M601.096508,466.482961 C602.276584,458.197336 600.810016,451.091475 600.509881,443.937877 C600.130164,434.831646 595.891894,430.421738 586.865107,429.026025 C578.063421,427.662137 569.534584,428.71915 560.907977,429.70115 C519.316542,434.429299 506.322061,461.16834 513.116026,497.597813 C516.790406,517.299188 528.775342,526.273576 550.978511,528.849053 C569.182153,530.963081 583.995634,523.209373 592.281179,507.201863 C599.070597,494.088072 600.248399,479.760419 601.096508,466.482961 L601.096508,466.482961 Z M683.560873,413.111715 C683.560873,439.230188 683.476744,465.34866 683.615443,491.464859 C683.654097,498.679831 685.031989,505.767507 687.317108,512.648326 C690.811862,523.168456 700.527596,533.759053 714.135989,528.071637 C716.446119,527.105549 718.517506,526.630461 720.104583,528.953618 C721.414263,530.867609 720.004538,532.479271 719.099586,534.104572 C713.010483,545.067965 706.271088,555.617646 696.900964,564.073757 C675.182104,583.677387 650.173128,583.263674 629.634344,561.293697 C621.633018,552.737567 616.758098,553.271757 607.679014,558.909164 C568.129407,583.468257 525.796729,590.18541 481.645052,573.355021 C446.788464,560.066197 426.679419,533.906808 422.734463,496.64991 C418.489372,456.558396 430.840382,423.338609 466.224479,401.114039 C493.020623,384.281377 523.243308,379.38047 554.075358,377.332363 C566.912951,376.479933 579.850588,375.968475 592.679086,376.586771 C600.662222,376.96866 602.669943,373.97947 602.349344,366.966808 C602.074221,360.922507 602.613099,354.839563 602.315238,348.797535 C601.244302,327.2049 590.584962,313.641025 569.329947,310.072183 C534.625701,304.243831 501.508532,309.031081 471.326774,328.552877 C466.176731,331.885313 461.292716,338.138743 454.137224,333.922053 C447.738892,330.1509 448.070859,322.931382 447.736618,316.602938 C446.015389,283.799137 454.610164,268.553132 484.962453,256.648655 C530.110033,238.938558 576.817406,237.115493 623.095039,250.8544 C662.762882,262.631581 683.706393,294.555674 684.465826,339.27759 C684.881922,363.882146 684.538586,388.50034 684.538586,413.113988 L683.560873,413.111715 Z" id="Fill-10" fill="#005234"></path>
            <path d="M2068.91923,357.722596 C2068.00291,383.113661 2072.42081,392.963212 2085.19473,397.24355 C2108.16188,404.938156 2131.27682,404.356231 2151.30629,389.735342 C2170.16704,375.969156 2172.31574,354.635661 2170.38078,333.306712 C2168.5254,312.83474 2155.96293,298.318416 2138.26633,293.640277 C2117.37284,288.1188 2099.06916,294.476795 2086.1247,311.689073 C2074.06473,327.726133 2069.26939,346.095444 2068.91923,357.722596 M2114.56704,451.917309 C2103.37336,450.732999 2090.1265,449.78055 2077.04334,447.77336 C2069.75597,446.654971 2069.17616,449.153161 2069.74915,455.399772 C2075.2539,515.458619 2121.20866,527.767717 2164.34397,517.002087 C2182.27022,512.526258 2198.18419,503.733721 2212.39058,492.152031 C2217.4565,488.023994 2220.19864,488.715031 2224.4119,492.986277 C2244.57097,513.428698 2241.79472,541.329319 2217.11316,558.061962 C2189.68719,576.651768 2158.57092,582.164152 2126.18362,581.32536 C2081.92963,580.17742 2043.47824,565.802031 2014.2651,530.791004 C1996.08874,509.007425 1986.34345,483.714106 1981.80732,456.181735 C1974.52223,411.97355 1977.17342,368.467768 1993.99007,326.630476 C2017.06409,269.226666 2071.69775,235.806842 2133.7393,239.730295 C2155.49681,241.10555 2176.81776,244.033365 2196.03777,254.949022 C2234.49143,276.784883 2251.82195,310.395652 2248.83197,354.153754 C2245.87155,397.464045 2221.26503,424.839569 2182.31342,440.762971 C2161.27441,449.364564 2139.00985,451.160351 2114.56704,451.917309" id="Fill-12" fill="#005234"></path>
            <path d="M1826.89923,457.253525 C1844.53217,398.172131 1867.99727,344.164404 1876.30782,285.696761 C1877.49472,277.35658 1877.57203,269.041404 1875.96903,260.848978 C1874.70938,254.413696 1877.20141,251.417687 1882.89715,248.828571 C1897.0899,242.375103 1911.50092,239.456381 1927.01699,242.702437 C1946.82136,246.848659 1956.31199,259.116839 1953.81541,279.375136 C1950.91865,302.874941 1942.25567,324.838099 1933.31528,346.47165 C1904.57053,416.034529 1877.24461,486.113413 1854.066,557.747131 C1850.98279,567.273895 1845.18018,571.067779 1835.57359,570.676798 C1825.36445,570.260812 1815.0871,569.528858 1804.93254,570.258538 C1793.38643,571.085964 1788.11588,565.787256 1784.38238,555.492168 C1770.33743,516.757724 1755.66037,478.250594 1741.12884,439.693455 C1724.3281,395.11702 1707.69107,350.476937 1690.41966,306.084626 C1684.98768,292.118404 1679.83308,277.545251 1666.34065,268.464025 C1662.30475,265.747613 1663.18696,263.076663 1667.19103,260.878529 C1683.57568,251.883682 1700.46054,244.064052 1719.61234,244.352742 C1736.67456,244.609608 1749.94871,252.495159 1759.46208,266.75689 C1767.95227,279.481974 1773.31149,293.59595 1778.31602,307.903145 C1792.93168,349.676788 1806.52643,391.775492 1818.9161,434.265177 C1820.89199,441.041432 1823.53181,447.626742 1826.89923,457.253525" id="Fill-14" fill="#005234"></path>
            <path d="M2544.27236,401.830308 C2544.27464,374.570716 2543.96768,347.306577 2544.45199,320.056077 C2544.6066,311.443119 2541.44154,308.190244 2533.29697,308.840364 C2532.91953,308.869915 2532.49434,308.979026 2532.16919,308.854003 C2524.32248,305.835262 2511.5099,318.283021 2508.16521,301.650396 C2503.31076,277.523202 2510.76183,259.372114 2526.71901,252.939105 C2532.57619,250.577304 2541.70302,253.93929 2543.94494,245.376341 C2545.53429,239.309308 2544.83853,232.594429 2544.84307,226.170512 C2544.87491,178.791285 2574.32224,150.458767 2621.71401,151.711271 C2630.93634,151.954498 2634.45611,154.311753 2632.6894,164.272688 C2628.45341,188.165748 2628.39656,212.463429 2626.97547,236.63154 C2626.38657,246.626572 2630.2474,251.23879 2640.27918,251.604767 C2658.91938,252.288984 2677.42771,251.568396 2695.37442,246.183308 C2702.13882,244.153387 2704.09652,245.574105 2703.81685,252.550396 C2702.58221,283.458392 2689.0443,309.531401 2649.6675,307.812901 C2627.97137,306.867271 2627.98502,307.62423 2627.91908,328.930447 C2627.78265,372.086165 2627.57119,415.239609 2627.43022,458.393054 C2627.39384,469.376906 2627.76219,480.32666 2630.26104,491.112748 C2635.84764,515.235396 2651.41828,525.055396 2675.63599,519.549831 C2678.5805,518.879253 2681.51364,518.088197 2684.36719,517.101651 C2699.23297,511.950697 2701.12018,512.946336 2705.33344,528.426475 C2710.09013,545.909257 2702.72773,564.305845 2685.24259,570.452438 C2647.86896,583.595781 2610.74772,581.913651 2575.84111,561.759919 C2561.99397,553.765257 2555.4433,539.712656 2551.10043,524.905369 C2545.1955,504.767549 2543.81534,484.084174 2544.19051,463.162119 C2544.55885,442.724244 2544.27236,422.275003 2544.27236,401.830308" id="Fill-16" fill="#005234"></path>
            <path d="M1356.60929,758.369731 C1346.35468,744.076175 1317.64631,744.271666 1307.86691,758.13105 C1304.59499,762.766 1304.46766,765.652898 1311.28208,765.696088 C1326.74813,765.789287 1341.78444,763.5025 1356.60929,758.369731 M1219.9319,851.436962 C1198.31764,862.734509 1178.6065,873.038689 1168.62246,894.742708 C1165.99628,900.452856 1161.11681,908.556629 1165.13908,912.489175 C1170.1004,917.34462 1178.84524,914.089472 1185.24812,910.754763 C1208.54042,898.616152 1214.52265,876.348393 1219.9319,851.436962 M1184.29542,769.476333 C1181.7329,778.603023 1187.84929,782.065027 1196.77831,783.690328 C1212.0238,786.463569 1227.37844,779.332703 1236.14374,765.075518 C1245.06821,750.561467 1245.01137,732.02849 1236.59167,720.149018 C1233.31292,715.523162 1229.56806,715.479972 1224.82501,716.43924 C1200.55728,721.35606 1185.12307,740.934685 1184.29542,769.476333 M1251.47564,807.935726 C1258.55155,804.7465 1262.25549,798.952245 1266.79162,794.10362 C1270.40233,790.243814 1273.84706,786.138509 1277.92617,782.833351 C1283.24902,778.521189 1288.26264,777.764231 1290.28855,786.356731 C1290.54321,787.443296 1291.13666,788.459393 1291.64143,789.473217 C1298.35127,802.887064 1306.56405,814.580138 1323.77634,813.934564 C1339.21965,813.357185 1353.83986,800.28431 1359.14452,782.490106 C1345.26328,781.014833 1332.30518,785.542944 1319.09696,787.559226 C1306.26164,789.520953 1293.17849,779.589569 1288.25354,763.563875 C1283.93797,749.529458 1288.09211,739.861759 1300.99791,733.696981 C1312.52128,728.189143 1324.82681,726.218324 1337.4052,726.159222 C1350.11091,726.097847 1360.69522,730.762347 1365.5997,743.255569 C1370.11537,754.755425 1377.4573,754.018925 1386.21579,749.365791 C1392.6596,745.940157 1397.73461,740.925592 1402.32076,735.244995 C1408.47808,727.611763 1414.15108,719.260217 1423.43253,714.998064 C1426.87499,713.418226 1431.10871,709.410666 1434.66031,713.311388 C1438.60299,717.639463 1440.0923,723.570106 1436.78854,729.116588 C1434.90587,732.276263 1432.10916,735.09724 1429.19649,737.402213 C1414.37164,749.136203 1410.7541,765.680175 1410.44714,783.01293 C1410.16292,799.120458 1420.24018,805.462541 1434.36699,798.040713 C1453.56199,787.957027 1469.27133,774.259037 1475.94479,752.307245 C1479.66464,740.070888 1482.50683,727.227601 1491.4745,717.337134 C1494.34624,714.170638 1497.32031,709.178805 1502.49991,711.236004 C1507.78865,713.336393 1509.92598,718.419152 1510.19428,724.158851 C1510.46713,730.003115 1508.93462,735.442759 1506.5722,740.648268 C1500.63089,753.739328 1494.36216,766.684907 1488.60503,779.855527 C1486.14938,785.472476 1484.34402,791.839564 1490.09433,796.604083 C1495.5718,801.139013 1502.02015,801.066273 1508.24568,797.833856 C1519.16877,792.166898 1528.44795,784.610953 1535.33059,774.21812 C1548.60701,754.1735 1555.93531,731.307902 1566.24449,709.858476 C1568.43411,705.300814 1565.08033,703.864185 1562.92254,701.536481 C1558.59787,696.860615 1555.46237,691.400513 1557.57696,685.0948 C1559.5915,679.091416 1565.84431,680.668981 1570.3236,680.678074 C1575.93522,680.687166 1578.50455,677.734347 1580.64643,673.488106 C1584.73918,665.377513 1588.58409,657.130532 1593.00653,649.204064 C1596.49674,642.946088 1600.29163,636.763125 1604.72089,631.152995 C1608.06785,626.915847 1612.27884,619.50993 1617.51756,622.026305 C1624.38883,625.329189 1624.84585,633.903504 1623.25877,641.327606 C1620.59394,653.791277 1611.46483,663.08618 1605.23021,675.72943 C1618.47026,674.235972 1630.34378,673.222148 1642.10361,671.44 C1648.78162,670.428449 1652.049,672.472009 1653.08355,679.132333 C1654.07491,685.519879 1653.59742,690.325314 1645.62793,691.257305 C1634.73439,692.534814 1623.9318,694.903435 1613.0178,695.562648 C1603.56355,696.133208 1597.8428,699.572481 1592.238,707.805824 C1579.41633,726.636583 1570.01664,746.124282 1567.59283,769.119449 C1565.18947,791.948675 1575.4691,802.232398 1597.76094,797.590629 C1611.57625,794.715097 1621.30562,786.00212 1629.78671,775.477444 C1634.75258,769.312666 1639.59339,763.045597 1644.57745,756.714879 C1657.37412,774.722759 1641.46696,799.054537 1622.59029,809.845171 C1591.90376,827.387055 1568.12034,820.199361 1549.68022,787.22962 C1539.68937,798.379412 1528.37746,807.72887 1514.89185,814.27099 C1498.10021,822.420226 1484.65552,819.424217 1474.71469,803.766773 C1470.44004,797.038254 1467.46825,796.856402 1462.12948,801.759583 C1457.40235,806.101296 1452.4092,810.215694 1447.17503,813.927745 C1426.87044,828.334958 1406.7432,822.067888 1398.56907,798.552171 C1396.35899,792.191902 1396.09978,785.181513 1394.37173,778.618935 C1393.59638,775.6843 1396.59318,769.376314 1390.2517,770.521981 C1384.97887,771.47443 1376.50006,771.63355 1377.43002,780.203319 C1380.08576,804.639662 1364.30139,815.846282 1345.9454,824.795666 C1322.82364,836.068208 1301.72551,831.70149 1284.12669,813.023032 C1282.59191,811.395458 1281.56645,809.292796 1280.11352,807.124213 C1269.42917,819.381027 1259.42922,829.798865 1246.30286,836.272791 C1241.57118,838.607314 1241.41202,842.528495 1240.54117,846.490592 C1236.38703,865.348629 1232.38751,884.256675 1223.81547,901.766736 C1217.18294,915.310152 1208.37443,926.864564 1194.36359,933.66355 C1181.76019,939.778319 1169.41827,940.394342 1158.18595,931.088074 C1146.51024,921.413555 1143.15874,908.62255 1147.14007,894.228976 C1153.09275,872.715902 1166.60565,856.840236 1185.60283,845.631342 C1194.06345,840.641782 1202.94927,836.340986 1211.79188,832.037916 C1229.52486,823.411319 1230.64354,821.949685 1233.14921,800.773037 C1228.36297,799.138643 1224.63629,802.643838 1220.60266,803.759953 C1188.01982,812.766166 1164.86623,795.310662 1166.51015,761.577143 C1167.77435,735.606425 1179.0658,714.134268 1201.03932,699.440638 C1218.54264,687.733925 1235.15239,691.193657 1247.57616,708.064963 C1250.2751,711.73155 1251.40288,717.239388 1258.547,715.048074 C1263.68795,713.472782 1264.27003,718.412333 1265.16816,722.126657 C1268.12176,734.340282 1266.07084,746.215208 1262.75571,757.976476 C1259.26778,770.351495 1255.50927,782.6515 1252.0509,795.035611 C1250.96859,798.909055 1250.15459,802.939347 1251.47564,807.935726" id="Fill-18" fill="#743E18"></path>
            <path d="M2293.28856,269.831096 C2336.74674,232.869707 2375.712,238.020661 2394.31127,282.933522 C2401.91242,274.07279 2408.92466,265.375725 2417.4012,258.081193 C2429.85908,247.361026 2444.12231,241.100776 2460.42283,239.459563 C2481.49822,237.336443 2493.63095,247.836114 2494.98155,268.890013 C2496.27077,288.971003 2487.3554,305.49679 2477.08259,321.57704 C2474.16765,326.141522 2470.33183,326.562054 2467.03944,322.161239 C2457.13953,308.926971 2443.81308,308.965614 2430.1956,313.355063 C2415.56401,318.071846 2405.78916,327.905485 2403.21073,343.903901 C2401.8192,352.537318 2401.10751,361.154823 2401.11206,369.879165 C2401.14617,428.164957 2401.14389,486.448475 2401.1257,544.734267 C2401.11661,567.27935 2398.38129,569.927568 2375.55056,569.90711 C2363.43602,569.898017 2351.32148,569.927568 2339.20694,569.934388 C2319.29571,569.94348 2316.82187,567.456656 2316.74457,547.943952 C2316.45353,476.426165 2316.1784,404.908378 2315.74412,333.390591 C2315.66908,320.899642 2314.34803,308.447337 2311.60816,296.242804 C2309.17298,285.390795 2305.81692,274.902489 2293.28856,269.831096" id="Fill-20" fill="#005234"></path>
            <path d="M986.232469,780.755921 C999.6817,767.364806 1013.04908,754.01688 1014.1905,733.583551 C1014.33147,731.06263 1014.46335,727.284657 1013.01724,726.200366 C1010.20234,724.088611 1007.28739,727.064162 1005.09777,728.834944 C988.619906,742.151046 984.38391,760.238486 986.232469,780.755921 M896.626255,724.281829 C919.145475,704.068995 948.667845,640.993681 939.954835,620.849042 C926.798917,636.958843 901.951377,696.008412 896.626255,724.281829 M870.098414,772.431653 C861.683265,776.316463 854.316315,780.012602 846.708347,783.122269 C841.817511,785.118093 836.606076,786.277398 831.167266,784.988523 C827.083611,784.017889 824.270982,781.646995 823.409231,777.616704 C822.522469,773.481847 826.574291,772.740801 828.91398,771.445106 C840.494189,765.037102 852.242655,758.933699 863.977479,752.809838 C869.686865,749.827468 872.490399,745.622144 873.900124,738.91863 C884.209306,689.925468 901.567114,643.848755 931.980794,603.391264 C937.221787,596.419519 943.449589,591.561801 952.276286,590.161542 C960.743731,588.818111 964.715972,591.307208 964.911515,600.704403 C965.782361,642.512144 951.796525,679.325778 928.349615,713.145676 C920.139104,724.988778 910.923595,736.020366 901.248789,746.674611 C888.88641,760.288495 886.526257,778.414579 895.157412,794.490282 C902.210585,807.626806 919.111369,815.205481 936.157672,812.825495 C938.78158,812.459519 941.389571,811.950333 943.979372,811.391139 C960.51863,807.822296 962.339904,805.971954 963.15618,789.321144 C964.133892,769.412912 967.760524,750.261639 977.887806,732.792495 C986.466665,717.994301 998.779021,708.22431 1015.72528,704.357685 C1021.01402,703.152917 1024.29959,704.653194 1027.2009,708.899435 C1034.72928,719.931023 1036.47552,731.858231 1033.25362,744.656056 C1027.66247,766.857894 1013.44471,783.47688 997.835415,799.168421 C991.073282,805.965134 991.741765,809.847671 1000.80266,812.975523 C1009.57706,816.003356 1018.01267,813.416514 1026.27321,810.440963 C1034.45188,807.494963 1042.38727,803.753361 1051.09573,802.573597 C1053.08072,802.303093 1056.0275,801.273356 1056.90971,804.046597 C1057.36446,805.476407 1056.35037,807.699546 1055.39994,809.179366 C1053.78785,811.693468 1051.98932,814.230301 1049.76786,816.189755 C1030.8389,832.861023 997.933186,835.468324 976.698635,821.515741 C972.762774,818.928898 970.288934,819.299421 966.773716,821.206593 C957.671895,826.141597 947.831105,828.794361 937.56285,829.803639 C898.749937,833.622528 873.295306,812.377685 870.098414,772.431653" id="Fill-22" fill="#743E18"></path>
            <path d="M1804.62171,738.942952 C1804.61489,724.656216 1798.00283,720.705485 1785.861,727.245332 C1767.52094,737.119888 1752.47098,767.916499 1756.06124,788.463485 C1757.33226,795.739832 1760.22447,802.261494 1766.32949,806.866892 C1775.91562,814.095503 1792.93464,810.413003 1794.87642,800.054267 C1798.70769,779.627758 1801.48394,759.005758 1804.62171,738.942952 M1815.12417,717.879962 C1825.31966,699.485647 1831.55656,680.384383 1840.13542,662.353772 C1845.32411,651.442661 1851.39503,640.938443 1857.31587,630.388763 C1858.85747,627.640526 1860.1285,623.689795 1864.73057,624.837735 C1868.41859,625.75836 1870.41267,628.588429 1871.35628,631.982239 C1872.9047,637.54236 1872.49997,642.547832 1869.81467,648.255707 C1850.01941,690.338499 1829.5693,732.203068 1818.28013,777.681943 C1817.20692,782.003198 1816.35654,786.381281 1815.1128,792.057332 C1821.85674,790.052415 1824.61252,785.53567 1827.2569,781.421272 C1840.33323,761.067503 1852.99575,740.445503 1866.19486,720.173568 C1868.51409,716.613818 1870.09207,709.367022 1876.41992,712.322114 C1882.22025,715.031707 1882.51584,721.237401 1880.95832,727.274883 C1878.57316,736.524323 1873.97109,744.821313 1870.08752,753.431999 C1866.02206,762.449577 1862.44545,771.649008 1862.73649,781.741786 C1862.98206,790.218355 1866.14484,797.533346 1874.24167,801.16129 C1881.83144,804.559647 1888.20931,800.654378 1893.93234,795.951235 C1903.80724,787.833823 1910.13281,777.004545 1915.84674,765.88885 C1925.50563,747.105827 1934.77799,728.12504 1944.4437,708.766911 C1954.20036,715.618179 1956.78789,723.967452 1953.83656,734.085235 C1950.55781,745.332772 1946.82431,756.448466 1943.5683,767.70055 C1941.10583,776.211216 1941.7584,784.853725 1942.73384,793.598526 C1943.95029,804.516457 1949.71425,807.798883 1959.81425,805.553013 C1965.13255,804.368702 1970.73734,803.095739 1972.32897,810.690327 C1973.77962,817.614337 1969.58455,821.153628 1963.88426,823.567712 C1951.31724,828.884605 1938.58197,823.960966 1932.43148,811.55867 C1929.0686,804.773323 1928.66387,797.212832 1926.93582,788.07023 C1921.49474,793.916767 1917.43609,798.624457 1913.00683,802.950258 C1906.77448,809.040022 1900.1374,814.631966 1892.25431,818.616795 C1873.03885,828.329957 1857.83656,824.11554 1846.82934,805.766688 C1844.69883,802.211485 1842.89575,798.458517 1840.78116,794.49642 C1832.43195,798.642642 1828.28008,806.644124 1822.52977,812.977114 C1809.45798,827.377508 1780.87012,833.853707 1761.9889,826.406874 C1746.05219,820.123892 1735.22686,800.102003 1736.51153,778.318425 C1737.85305,755.582397 1746.57742,735.69235 1761.77517,718.905151 C1780.54043,698.176313 1794.77865,697.871712 1815.12417,717.879962" id="Fill-24" fill="#743E18"></path>
            <path d="M1503.715,675.9081 C1503.73319,682.65253 1499.0811,682.459313 1495.05202,681.502317 C1486.54592,679.483762 1481.8006,672.764336 1478.66965,665.406155 C1475.6683,658.345757 1472.63966,659.37322 1468.29225,663.692201 C1463.49009,668.463539 1459.64746,674.241882 1453.572,677.685701 C1449.49743,679.99522 1445.38649,682.111521 1441.09138,678.342641 C1437.12369,674.860178 1437.15552,670.550289 1438.77898,665.899428 C1442.9172,654.031322 1461.91211,639.526363 1474.34498,638.883063 C1481.01616,638.535271 1486.81195,640.840243 1488.98793,647.25734 C1492.05067,656.277192 1495.16343,665.026539 1502.06199,671.957368 C1503.03288,672.932549 1503.22615,674.6806 1503.715,675.9081" id="Fill-26" fill="#743E18"></path>
            <path d="M2619.64763,669.302558 C2619.35432,679.931799 2610.78,690.065494 2603.80641,689.463109 C2595.20254,688.722063 2590.54818,682.614114 2590.98246,674.949058 C2591.57591,664.526674 2600.31621,663.665151 2608.65632,663.578771 C2614.25657,663.519669 2619.50893,663.894739 2619.64763,669.302558" id="Fill-28" fill="#743E18"></path>
            <path d="M2091.8002,676.346362 C2092.34136,683.245367 2085.90664,687.602992 2078.89895,688.314487 C2073.01903,688.912325 2070.48607,682.522506 2070.82259,676.86464 C2071.20003,670.479367 2071.78211,663.482617 2081.01353,663.748575 C2087.63469,663.93952 2091.55464,667.1242 2091.8002,676.346362" id="Fill-30" fill="#743E18"></path>
            <path d="M3250.59234,349.558357 C3211.72031,303.163404 3209.02364,252.604043 3230.49693,198.982751 C3232.36368,194.320524 3233.26863,187.460163 3239.81476,187.587459 C3245.77653,187.701117 3247.93432,193.829524 3250.16487,198.537214 C3271.00379,242.515811 3281.15381,287.12407 3257.81831,333.659959 C3255.63324,338.022131 3254.34402,342.829839 3252.55458,347.396594 C3252.29992,348.048987 3251.56323,348.514982 3250.59234,349.558357" id="Fill-32" fill="#005234"></path>
            <path d="M3166.41425,430.496752 C3154.47251,429.073762 3144.11785,423.390891 3133.96329,417.662558 C3105.76879,401.75734 3082.89259,380.026044 3065.85765,352.493674 C3059.00684,341.421169 3055.01641,329.071155 3056.126,315.786877 C3056.83996,307.24666 3060.1801,302.875396 3070.32784,306.282845 C3110.24353,319.68078 3136.78501,345.778794 3147.79905,386.609081 C3151.9873,402.13241 3158.59709,416.255479 3167.50792,429.46247 C3167.13957,429.805715 3166.77577,430.148961 3166.41425,430.496752" id="Fill-34" fill="#005234"></path>
            <path d="M3167.50837,429.463606 C3167.95858,430.009162 3168.41105,430.554718 3168.86126,431.098 C3168.04953,430.89569 3167.23552,430.691106 3166.41697,430.493343 C3166.77623,430.150097 3167.14003,429.804579 3167.50837,429.463606" id="Fill-36" fill="#005234"></path>
            <path d="M3322.86689,417.335906 C3328.35345,395.675078 3337.05509,377.294402 3349.96772,361.534666 C3368.90805,338.421295 3392.20717,320.329309 3419.85142,308.399828 C3425.14244,306.115314 3431.21563,301.687221 3436.7704,306.81999 C3442.60484,312.209624 3439.15101,319.099536 3436.99777,324.914249 C3427.24338,351.235031 3411.10885,372.768564 3387.13898,387.796346 C3367.58018,400.057707 3345.75218,407.46817 3322.86689,417.335906" id="Fill-38" fill="#005234"></path>
        </g>
    </g>
</svg>