<?xml version="1.0" encoding="UTF-8" standalone="no"?>
<svg width="4961px" height="1950px" viewBox="0 0 4961 1950" version="1.1" xmlns="http://www.w3.org/2000/svg" xmlns:xlink="http://www.w3.org/1999/xlink">
    <!-- Generator: Sketch 3.8.3 (29802) - http://www.bohemiancoding.com/sketch -->
    <title>geopost</title>
    <desc>Created with Sketch.</desc>
    <defs></defs>
    <g id="Page-1" stroke="none" stroke-width="1" fill="none" fill-rule="evenodd">
        <g id="geopost">
            <g id="Group-9" transform="translate(420.166667, 760.946072)">
                <path d="M564.861918,408.818812 C569.902551,399.5235 565.729568,387.749437 554.078268,388.431094 C510.613134,389.133406 466.817468,387.047125 423.600234,389.484562 C403.355068,393.016781 404.491276,418.0315 397.859951,433.027937 C379.577326,491.856937 361.294701,550.706594 343.012076,609.535594 C305.496543,618.686312 264.324484,613.398312 228.854126,598.277937 C194.334051,582.496562 171.547909,547.442906 167.994676,510.013781 C161.260059,443.893125 182.600118,378.144281 211.563101,319.480531 C256.309051,232.269844 338.921726,159.993625 437.978434,145.492937 C493.631984,136.982562 551.392684,146.112625 601.799018,171.168656 C613.615584,175.630406 631.464384,181.600062 637.765176,165.880656 C649.292526,133.677562 658.258243,100.297062 668.463459,67.5569062 C665.715901,48.4911875 642.371984,44.483875 627.270743,38.9273437 C555.131843,22.3816875 479.295101,21.7413437 406.598426,35.395125 C312.603009,53.9444375 223.544934,98.8098125 155.372434,166.521 C69.8469342,250.612594 18.4490008,365.833156 2.83130083,483.986906 C-4.9362325,545.811062 3.26512583,614.679 47.0607925,662.271 C91.2283092,710.255469 157.975384,727.751312 220.756059,733.803594 C283.288834,738.079437 346.978476,736.199719 408.168459,721.678375 C435.292851,714.49 467.375243,705.793719 481.402251,678.857969 C509.105076,588.817375 537.055801,498.83875 564.861918,408.818812" id="Fill-1" fill="#264591"></path>
                <path d="M997.775885,243.106113 C1015.37679,242.89955 1038.63807,246.906863 1043.59607,266.840144 C1048.67802,303.690894 1024.94159,338.930456 992.962493,355.476113 C946.501902,381.110519 892.542335,388.629394 840.256093,391.521269 C840.235435,385.427675 847.796385,374.231988 850.523285,366.134738 C873.102843,319.451613 905.453793,273.119644 954.558652,251.926331 C968.048543,245.87405 983.067152,243.601863 997.775885,243.106113 M1068.77858,600.190706 C1073.57131,589.986519 1061.65145,580.939081 1052.70639,587.239237 C1018.43422,599.591675 984.100068,613.245456 947.534818,617.211456 C908.655835,621.384019 865.066752,622.045019 831.86881,598.269675 C803.690843,578.253769 798.588235,539.771175 805.012977,508.105144 C804.868368,497.05405 808.710818,488.233831 821.167793,492.034581 C895.930302,489.493862 971.56046,475.468269 1039.00992,442.108425 C1092.88685,415.42055 1141.26867,373.240487 1165.25299,317.138112 C1181.44913,280.555894 1193.10043,238.189925 1181.18057,198.674519 C1170.14902,163.641519 1133.23258,146.042394 1099.22896,141.2708 C1058.5527,134.3303 1016.36839,135.941487 976.539118,146.951269 C897.520993,168.185894 828.997302,218.793706 775.740118,279.832925 C705.770343,359.917206 661.830068,462.103675 650.612593,567.739737 C647.162652,609.692581 650.571277,656.561612 680.587835,689.012581 C709.53016,719.934987 753.346485,730.366394 794.146693,734.02255 C825.836577,736.811144 857.89831,736.356706 889.608852,734.02255 C927.083068,731.254612 964.722552,725.5948 1000.46147,713.985987 C1020.14886,706.4258 1043.12093,695.1888 1046.44692,671.909206 C1053.88392,648.009925 1061.32092,624.089987 1068.77858,600.190706" id="Fill-3" fill="#264591"></path>
                <path d="M3262.11721,321.765113 C3246.14832,312.015363 3240.11608,289.417425 3251.08566,273.8013 C3263.93514,249.0138 3294.67474,242.114613 3320.41503,239.470613 C3355.9267,235.277394 3392.42998,242.383144 3423.23155,260.725894 C3437.58909,267.067363 3450.68648,280.638519 3467.15117,279.316519 C3483.94639,272.190113 3483.32664,250.686956 3489.66875,236.021019 C3495.16387,215.158206 3504.27419,194.935738 3507.45558,173.680456 C3504.43946,154.077675 3482.62426,146.434863 3466.55208,139.78355 C3428.70601,128.835738 3389.33123,123.630363 3349.93578,125.386144 C3303.14466,127.017988 3256.31222,140.010769 3215.96649,163.806769 C3153.20648,200.512925 3109.14225,266.303081 3097.90412,337.980269 C3090.79765,373.075238 3093.75179,413.148363 3118.66574,440.951675 C3140.58423,465.8218 3170.45618,481.644488 3196.23778,502.094175 C3217.63982,519.259519 3243.75195,532.272956 3259.67953,555.118769 C3271.53741,579.286581 3250.89973,606.036425 3227.57648,612.914956 C3192.99443,626.300206 3154.05347,624.565081 3118.58311,615.744863 C3087.09981,607.213831 3058.96316,590.0898 3031.85943,572.614613 C3018.82402,565.405581 3005.52005,579.741019 3004.30121,592.361988 C2995.41813,622.850613 2984.63448,652.926113 2976.94958,683.662613 C2974.51189,705.620206 2998.64083,716.444081 3016.01448,722.000612 C3061.50413,736.315394 3109.98924,736.418675 3157.23485,735.261925 C3214.27251,731.2133 3271.08293,713.283675 3317.29562,679.014956 C3349.9771,654.186144 3376.7503,621.776488 3393.21499,584.058175 C3408.83269,547.062831 3418.79001,505.440488 3410.73326,465.388019 C3403.62679,429.446144 3375.015,403.543206 3346.29992,383.424019 C3318.22524,362.87105 3290.17123,342.318081 3262.11721,321.765113 L3262.11721,321.765113 Z" id="Fill-5" fill="#F3CA09"></path>
                <path d="M3847.33061,135.908438 L4059.11984,135.908438 C4007.72191,175.27925 3955.18777,213.1215 3901.53807,249.331906 L3812.56263,249.331906 C3783.16582,344.412625 3752.4882,439.162844 3723.89707,534.450125 C3718.69117,557.99825 3713.32,589.870844 3736.49865,605.714188 C3761.08207,620.648656 3792.02825,617.880719 3819.56581,614.761625 C3844.06659,611.270719 3867.16261,602.512469 3890.46521,594.68375 C3903.91378,592.432219 3904.88472,610.031344 3899.57553,618.521063 C3891.62207,640.933094 3886.18893,664.667125 3876.72742,686.294219 C3858.77532,708.664938 3828.5935,715.522813 3802.08886,722.731844 C3751.35199,735.042969 3698.1981,739.298156 3646.32502,733.121938 C3608.02447,729.155938 3565.34436,709.656438 3554.10622,669.686594 C3539.56276,618.913531 3563.19589,568.553594 3576.83039,520.403875 C3604.63651,430.032781 3632.44262,339.682344 3660.24874,249.331906 C3638.53683,248.629594 3616.57702,250.819156 3595.00972,248.133844 C3582.55275,240.738906 3593.48101,224.172594 3595.62947,213.637906 C3603.72754,191.267188 3608.83015,167.409219 3618.53957,145.968031 C3630.10823,130.021406 3652.25397,137.684875 3669.04919,135.908438 C3678.22149,133.347063 3695.73976,142.167281 3697.18584,129.071219 C3709.95269,90.6505938 3720.38515,51.1351875 3734.59808,13.3549063 C3745.25778,-4.9671875 3768.82894,2.28315625 3786.22326,0.87853125 C3817.27273,1.6428125 3848.73537,-0.629375 3879.51629,2.03528125 C3891.5601,10.3390938 3880.1567,25.9552188 3878.29745,36.8410625 C3867.96828,69.8704063 3857.65977,102.879094 3847.33061,135.908438 L3847.33061,135.908438 Z" id="Fill-7" fill="#F3CA09"></path>
            </g>
            <g id="Group-12" transform="translate(2231.100000, 0.664822)" fill="#F3CA09">
                <path d="M3.26195083,1461.43764 C57.1802008,1291.82917 107.049417,1120.09311 163.467326,951.827297 C437.727359,678.586422 782.700867,489.333859 1132.63238,330.652547 C1493.94663,173.747672 1872.73783,43.2208281 2266.65093,3.58148437 C2401.23997,-2.40882813 2552.02514,-9.98967188 2665.97651,74.1019219 C2760.32312,160.176516 2735.96694,307.125078 2678.55743,407.101328 C2609.14543,534.095953 2505.99838,639.814641 2393.76165,729.751953 C2475.81655,628.143859 2560.49506,514.513828 2573.73705,380.620016 C2581.5459,276.161359 2474.26718,213.655547 2384.79593,195.725922 C2164.43349,153.463234 1939.31963,200.435547 1723.83256,248.461328 C1293.18894,356.348922 875.043618,517.570953 485.592717,730.950016 C560.685759,730.227047 661.890934,755.716859 672.178784,844.146266 C689.944951,997.973359 570.663734,1146.88427 420.312384,1174.9148 C378.768476,1180.69855 326.978034,1195.81892 290.598709,1169.8127 C283.120392,1140.35689 273.514267,1105.24127 277.645934,1075.57889 C329.333084,1075.06248 390.192534,1083.46958 435.930084,1048.70511 C489.166609,1009.23102 520.815176,932.100578 497.099409,868.851141 C460.389551,826.505828 397.443609,842.142609 348.152826,838.631047 C281.447068,1050.04777 218.769684,1263.50945 149.564267,1473.66614 C119.134542,1493.33089 75.6074342,1475.97964 40.6122175,1481.82536 C26.1927008,1480.70992 -8.1621075,1488.80717 3.26195083,1461.43764 L3.26195083,1461.43764 Z" id="Fill-10"></path>
            </g>
            <path d="M1810.80208,1240.75215 C1801.46451,1284.72931 1782.50016,1347.64825 1826.87426,1378.65328 C1892.21657,1406.76643 1955.05922,1348.24728 1980.90279,1292.41343 C2015.0097,1222.49203 2041.63829,1144.82453 2040.95657,1066.39275 C2042.7745,1023.30381 1995.46692,999.115341 1957.93073,1013.26487 C1878.97458,1040.24193 1847.53259,1127.78312 1822.35009,1199.85278 C1818.34237,1213.44459 1813.94214,1226.93312 1810.80208,1240.75215 L1810.80208,1240.75215 Z M1738.6012,1484.88837 C1663.88001,1464.41803 1630.2689,1381.31793 1639.70976,1309.68206 C1656.98013,1152.50865 1742.13378,988.002278 1894.0345,924.422341 C1977.3289,891.145122 2087.60309,881.725872 2158.5438,946.214684 C2223.90677,1015.28918 2202.44276,1121.06984 2176.33063,1202.724 C2161.82848,1254.38528 2110.16199,1282.95287 2073.63805,1318.7295 C1878.60273,1478.58822 1642.08547,1575.50734 1410.25765,1668.729 C1084.57903,1790.89006 749.12901,1895.34872 403.06061,1939.09865 C291.319685,1948.88972 171.749252,1963.45237 65.79266,1917.98797 C-9.71354833,1886.3839 -13.845215,1786.42831 21.852385,1723.28215 C75.70866,1620.0009 168.485235,1543.36622 262.62526,1477.92722 C203.232552,1541.4865 136.526793,1614.23781 132.643027,1705.76565 C136.898643,1777.38087 218.457743,1798.65681 277.313335,1806.03109 C469.890318,1823.85743 662.425985,1787.41981 850.829985,1751.04415 C1153.02009,1686.576 1452.85514,1603.33131 1738.6012,1484.88837 L1738.6012,1484.88837 Z" id="Fill-13" fill="#264591"></path>
            <path d="M2997.05729,1235.23487 C3012.48906,1175.53831 3033.23003,1115.94502 3068.28722,1064.71752 C3091.81706,1031.13046 3126.75031,999.980837 3169.94688,999.381806 C3193.74528,998.059806 3220.14663,1009.7719 3227.2531,1034.14627 C3236.71461,1061.68106 3232.31439,1091.96312 3227.29441,1120.01431 C3214.3623,1181.67321 3196.53416,1243.33212 3165.09217,1298.2984 C3143.44224,1335.83081 3111.60775,1372.82615 3067.1097,1381.5844 C3040.25386,1387.18224 3005.75445,1381.83227 2992.88431,1354.40077 C2978.01031,1320.46256 2986.89339,1282.16587 2993.66932,1247.29812 C2994.80553,1243.27015 2995.94174,1239.26284 2997.05729,1235.23487 L2997.05729,1235.23487 Z M3003.29611,1496.63971 C3100.24566,1497.54859 3194.5303,1452.80715 3260.74026,1382.96837 C3328.16906,1313.19156 3369.21716,1221.53977 3388.75995,1127.30596 C3399.23372,1071.28621 3402.22918,1008.42924 3371.13839,958.089962 C3342.11343,909.589087 3283.62969,888.561025 3229.4842,886.66065 C3165.0302,882.36415 3099.93579,898.207494 3043.99302,930.369275 C2971.1724,971.661119 2914.81646,1038.13293 2878.56109,1112.99118 C2850.77563,1169.89915 2830.75771,1231.22756 2823.1761,1294.22912 C2817.06123,1347.10912 2823.79585,1406.57846 2862.03442,1446.71356 C2897.60807,1485.23746 2952.70385,1497.46596 3003.29611,1496.63971 L3003.29611,1496.63971 Z" id="Fill-15" fill="#F3CA09"></path>
        </g>
    </g>
</svg>