<?xml version="1.0" encoding="UTF-8" standalone="no"?>
<svg width="1181px" height="801px" viewBox="0 0 1181 801" version="1.1" xmlns="http://www.w3.org/2000/svg" xmlns:xlink="http://www.w3.org/1999/xlink">
    <!-- Generator: Sketch 3.8.3 (29802) - http://www.bohemiancoding.com/sketch -->
    <title>gltrade</title>
    <desc>Created with Sketch.</desc>
    <defs></defs>
    <g id="Page-1" stroke="none" stroke-width="1" fill="none" fill-rule="evenodd">
        <g id="gltrade" transform="translate(0.000000, -1.000000)">
            <polygon id="Fill-1" fill="#006AAB" points="374.99806 662.417371 374.99806 678.960871 433.862772 678.960871 433.862772 800.540465 457.355666 800.540465 457.355666 678.960871 516.226687 678.960871 516.226687 662.417371"></polygon>
            <polygon id="Fill-2" fill="#006AAB" points="1051.84889 662.417371 1051.84889 800.540465 1180.2397 800.540465 1180.2397 783.996965 1075.34809 783.996965 1075.34809 737.827738 1170.55614 737.827738 1170.55614 721.284238 1075.34809 721.284238 1075.34809 678.960871 1178.54271 678.960871 1178.54271 662.417371"></polygon>
            <g id="Group-20" transform="translate(0.000000, 0.768789)">
                <path d="M676.573256,782.84359 L675.122299,757.832895 C674.157097,738.590988 664.221193,735.129715 654.297905,731.863887 C665.432427,726.675129 678.516278,719.159941 678.516278,698.770582 C678.516278,669.542051 649.926107,661.648582 621.342246,661.648582 L540.915044,661.648582 L540.915044,799.765371 L564.414246,799.765371 L564.414246,770.562059 L564.344852,770.562059 L564.344852,707.534098 L564.414246,707.534098 L564.414246,677.618355 L623.039235,677.618355 C634.66582,677.618355 654.297905,679.339535 654.297905,700.706121 C654.297905,721.09548 636.123086,724.550449 618.919778,724.550449 L601.703852,724.550449 L601.703852,740.520223 L621.342246,740.520223 C649.440352,740.520223 652.348576,753.797895 652.348576,765.140027 C652.348576,770.33509 653.080363,791.30448 656.468033,799.765371 L685.291618,799.765371 L685.291618,796.688684 C678.030522,793.416551 676.825597,790.529004 676.573256,782.84359" id="Fill-3" fill="#006AAB"></path>
                <polygon id="Fill-5" fill="#006AAB" points="789.951071 661.647321 763.303922 661.647321 697.897284 799.770415 722.115656 799.770415 740.290476 759.565423 783.907518 759.565423 777.03755 743.015618 747.55788 743.015618 775.409954 682.23843 775.902018 682.23843 792.234752 720.89247 792.297837 720.778985 827.265912 799.770415 852.94155 799.770415"></polygon>
                <path d="M946.228651,661.647321 L875.724736,661.647321 L875.724736,759.514985 L899.223938,759.514985 L899.223938,677.617095 L943.068087,677.617095 C975.045928,677.617095 995.151151,695.125212 995.151151,729.933391 C995.151151,764.760485 975.29196,783.800641 944.771385,783.800641 L875.724736,783.92043 L875.724736,799.770415 L945.250832,799.770415 C1002.42486,799.770415 1019.38214,759.754563 1019.38214,728.779634 C1019.38214,688.971837 991.523757,661.647321 946.228651,661.647321" id="Fill-7" fill="#006AAB"></path>
                <g id="Group-11" transform="translate(0.000000, 654.382812)" fill="#00904A">
                    <path d="M115.536587,140.362766 C107.247204,143.855563 96.5101191,146.314391 82.0510128,146.314391 C39.0458957,146.314391 0.00252340425,122.457454 0.00252340425,73.974407 C0.00252340425,36.2534617 27.1038851,0.663500781 87.2807681,0.846336719 C141.981864,0.846336719 163.613747,28.3662977 165.600928,47.4127586 L128.305013,47.4127586 C128.305013,42.0285555 115.624906,24.7032742 89.2742574,24.7032742 C62.6649596,24.7032742 38.0491511,38.9392586 38.0491511,74.358993 C38.0491511,112.061024 64.6521404,121.871118 90.0186617,121.871118 C94.6869596,121.871118 105.562832,121.064118 115.492428,115.219673 L115.536587,140.362766 Z" id="Fill-9"></path>
                </g>
                <polygon id="Fill-12" fill="#00904A" points="238.722874 772.026007 327.489928 772.026007 327.489928 797.036702 201.42696 797.036702 201.42696 658.88839 238.722874 658.88839"></polygon>
                <polygon id="Fill-14" fill="#00904A" points="91.7579181 745.858402 91.7579181 722.581495 166.349748 722.581495 166.349748 797.039855 140.718269 797.039855 140.718269 745.662956"></polygon>
                <path d="M845.465334,464.218554 C782.216206,529.497288 693.512238,572.066538 591.699185,572.066538 C398.059451,572.066538 289.370121,401.020366 289.370121,247.438179 C289.370121,154.273812 325.429568,65.2327102 387.139419,0.540311719 L449.454887,65.3083664 C396.715738,118.923429 363.703302,194.321187 363.703302,272.114726 C363.703302,435.885288 501.714589,542.100359 641.662589,542.100359 C723.143313,542.100359 793.5526,511.863077 842.279536,460.372695 L845.465334,464.218554 Z" id="Fill-16" fill="#006AAB"></path>
                <path d="M813.443334,422.240053 C855.653579,380.061694 881.758196,321.793772 881.758196,257.435522 C881.758196,128.706413 777.346036,24.3575297 648.545174,24.3575297 C584.621036,24.3575297 526.084366,50.6796 483.949823,92.3157563 L531.10594,138.819131 L465.522664,204.368967 L453.650047,248.684616 L499.247962,239.328459 L626.061643,112.597936 L664.158738,105.732131 L659.78694,148.181592 L487.381653,321.106561 L474.890802,365.434819 L521.731494,356.066053 L732.246494,146.3091 L772.84176,138.194967 L767.227185,181.268592 L556.718494,391.649709 L544.845877,435.347498 L591.699185,425.985038 L764.098164,253.690538 L804.706047,246.194264 L799.703398,288.643725 L672.908643,415.992108 L662.285111,459.696202 L707.889334,450.333741 L774.721696,383.535577 L813.443334,422.240053 Z" id="Fill-18" fill="#00904A"></path>
            </g>
        </g>
    </g>
</svg>