<?xml version="1.0" encoding="UTF-8" standalone="no"?>
<svg width="1020px" height="340px" viewBox="0 0 1020 340" version="1.1" xmlns="http://www.w3.org/2000/svg" xmlns:xlink="http://www.w3.org/1999/xlink">
    <!-- Generator: Sketch 3.8.3 (29802) - http://www.bohemiancoding.com/sketch -->
    <title>groupecasino</title>
    <desc>Created with Sketch.</desc>
    <defs></defs>
    <g id="Page-1" stroke="none" stroke-width="1" fill="none" fill-rule="evenodd">
        <g id="groupecasino" fill="#006B37">
            <path d="M336.5066,9.9345 C333.0136,8.6815 328.8286,7.0615 324.4536,7.0615 C313.6456,7.0615 306.5806,14.6825 306.5806,24.9275 C306.5806,34.6735 313.2406,41.9215 323.7296,41.9215 C325.8226,41.9215 327.8836,41.1085 329.8826,40.5145 L329.8826,28.4875 L321.1386,28.4875 L321.1386,21.7745 L338.6926,21.7745 L338.6926,46.1665 C334.1996,47.6695 329.0086,49.2315 323.4826,49.2315 C306.7136,49.2315 296.9636,39.5465 296.9636,24.8045 C296.9636,9.8135 306.8306,0.0035 324.0746,0.0035 C328.3856,0.0035 332.9436,1.5355 337.5056,2.5025 L336.5066,9.9345 Z" id="Fill-1"></path>
            <path d="M359.6873,21.8003 L364.4643,21.8003 C370.6133,21.8003 373.9253,19.1783 373.9253,14.6793 C373.9253,9.7473 370.6803,7.5583 363.8083,7.5583 L359.6843,7.5583 L359.6843,21.8003 L359.6873,21.8003 Z M365.9663,1.0013 C377.4933,1.0013 383.2413,5.0293 383.2413,13.1823 C383.2413,19.1783 379.8033,23.3023 373.4323,24.7383 C376.9913,25.8583 377.9903,28.2683 379.4583,31.8593 L385.9873,48.2553 L376.1773,48.2553 L370.8663,33.9843 C369.3013,29.6703 367.1243,28.4843 362.6233,28.4843 L359.6873,28.4843 L359.6873,48.2553 L350.5013,48.2553 L350.5013,1.0013 L365.9663,1.0013 Z" id="Fill-3"></path>
            <path d="M400.8518,24.5196 C400.8518,35.4236 406.1688,42.0476 413.7208,42.0476 C421.2838,42.0476 426.6868,35.3006 426.6868,24.5196 C426.6868,13.6826 421.2838,6.9986 413.7208,6.9986 C406.1688,6.9986 400.8518,13.6826 400.8518,24.5196 M436.1518,24.6116 C436.1518,40.1036 427.5318,49.2266 413.7208,49.2266 C399.9188,49.2266 391.4228,40.1036 391.4228,24.6116 C391.4228,9.1836 399.9188,0.000599999999 413.7208,0.000599999999 C427.5318,0.000599999999 436.1518,9.2496 436.1518,24.6116" id="Fill-5"></path>
            <path d="M455.0183,1.001 L455.0183,28.736 C455.0183,37.733 457.8903,42.013 464.5103,42.013 C471.1643,42.013 474.5683,37.421 474.5683,28.361 L474.5683,1.001 L483.3803,1.001 L483.3803,28.487 C483.3803,42.266 477.0043,49.227 464.4133,49.227 C452.0793,49.227 445.6803,42.355 445.6803,28.858 L445.6803,1.001 L455.0183,1.001 Z" id="Fill-7"></path>
            <path d="M504.7464,23.6182 L508.5544,23.6182 C514.6794,23.6182 517.9234,20.7772 517.9234,15.7472 C517.9234,10.5592 514.8024,7.6842 509.1104,7.6842 L504.7464,7.6842 L504.7464,23.6182 Z M509.4284,1.0012 C521.5494,1.0012 527.4794,5.6222 527.4794,15.7442 C527.4794,24.7702 521.1704,30.2972 509.7704,30.2972 L504.7434,30.2972 L504.7434,48.2552 L495.4044,48.2552 L495.4044,1.0012 L509.4284,1.0012 Z" id="Fill-9"></path>
            <polygon id="Fill-11" points="564.5296 1.001 564.5296 7.808 544.9756 7.808 544.9756 20.303 563.5326 20.303 563.5326 27.297 544.9756 27.297 544.9756 41.105 565.2136 41.105 565.2136 48.255 535.6316 48.255 535.6316 1.001"></polygon>
            <g id="Group-15" transform="translate(0.000000, 247.174000)">
                <path d="M6.1639,91.9202 C0.3559,91.2952 -3.8271,87.7992 5.4139,82.9872 C5.4139,82.9872 361.9339,22.2322 556.8439,11.0832 C751.7539,-0.0038 897.7129,-5.9078 1019.9999,12.5852 L974.0859,47.4402 C974.0859,47.4402 874.6919,38.6342 796.2309,35.5712 C758.3749,34.0752 622.0599,29.6402 462.6999,41.4772 C324.9829,51.7202 109.4919,72.7082 17.2899,90.4212 C17.2859,90.4212 11.1009,92.4182 6.1639,91.9202" id="Fill-13"></path>
            </g>
            <path d="M238.6795,67.8422 L239.3025,70.0932 C239.8945,71.6542 240.2705,72.2212 242.5545,72.0952 C265.2645,71.2802 282.1635,54.7302 282.1635,45.5442 C282.1635,34.7992 271.3865,21.2402 226.6245,21.2402 C95.0635,21.2402 10.3545,85.3992 4.3875,154.9292 C-3.4525,246.7932 123.7355,292.9272 231.6245,262.6272 C256.2995,255.6602 270.1675,246.4172 270.5115,242.3242 C270.8505,238.3882 270.7235,235.6402 270.1005,232.7662 C262.6705,236.3892 255.1095,239.4532 247.4875,242.0762 C159.7805,271.9352 54.7655,235.2662 62.0125,150.5552 C67.1975,89.5832 140.7915,38.0462 219.0695,38.7352 C223.7545,38.7682 228.0635,39.0172 231.8055,39.7322 C243.0255,41.6682 247.2395,46.7272 247.1825,52.5382 C247.0535,57.6022 243.6485,63.2532 238.6795,67.8422" id="Fill-16"></path>
            <path d="M252.1116,196.5942 C243.3706,196.1892 238.3666,189.9702 238.6756,181.3502 C240.2396,143.8062 292.2796,95.9842 345.2586,103.9802 C320.3916,166.7382 278.3446,197.7812 252.1116,196.5942 M393.7306,97.8312 C396.2336,92.4912 395.4216,88.3342 390.3596,87.0242 C382.8626,85.0882 371.3666,83.5262 361.8096,83.0892 C260.2346,78.4962 189.3946,142.6232 187.4266,190.6002 C186.5846,210.7182 197.3886,223.8972 223.1316,223.8972 C251.4246,223.8972 285.5356,207.1562 308.2756,188.6642 C313.9576,184.0422 314.7136,186.0382 313.8406,189.6622 C309.4946,206.7192 311.0296,221.4582 326.2036,222.2072 C343.2276,222.9602 364.8156,213.4612 371.9926,209.6522 C372.6156,209.2792 373.4986,207.0932 372.8686,202.6582 C363.5026,202.0972 360.0646,193.0372 362.3796,182.5412 C367.3716,159.9882 385.1776,116.3522 393.7306,97.8312" id="Fill-18"></path>
            <path d="M522.387,110.7632 C523.135,112.1362 523.608,112.2332 525.389,111.4802 C533.288,108.0792 542.165,100.7062 542.414,94.3332 C542.725,86.3382 532.666,80.7452 504.241,79.4952 C458.706,77.4662 420.936,93.6462 420.936,120.9482 C420.936,153.9932 482.438,158.1152 482.438,185.1962 C482.438,198.4412 469.762,209.6522 443.143,209.7162 C425.062,209.8422 409.282,203.2182 409.282,188.7872 C409.282,179.5372 416.722,168.5442 444.171,161.3602 C440.333,156.3022 438.334,155.7382 433.152,156.5532 C401.478,161.8612 383.416,175.4792 382.704,191.9722 C381.985,210.1492 396.104,224.9562 447.451,224.9562 C505.297,224.9562 530.539,197.0942 530.539,172.4792 C530.539,144.9902 492.4,130.8112 475.567,118.1932 C470.256,114.1952 468.01,110.0122 468.01,106.3212 C467.944,98.9852 475.662,91.7382 496.499,91.5772 C506.556,91.4852 516.142,93.8292 520.415,97.9832 C523.977,101.2632 524.139,105.7582 521.983,109.9782 L522.387,110.7632 Z" id="Fill-20"></path>
            <path d="M952.971,132.7168 C946.153,168.7028 920.428,195.9078 896.745,194.7248 C881.752,194.0348 877.195,177.4198 880.629,159.1748 C886.246,129.5648 910.547,97.7048 935.57,98.8908 C948.969,99.5808 956.779,112.6958 952.971,132.7168 M944.407,75.7188 C893.964,73.4058 854.736,114.0088 848.144,155.3658 C812.036,197.4428 795.92,192.1908 799.232,176.9818 C803.256,158.7128 826.029,111.9868 826.78,94.2118 C827.22,84.4048 821.344,77.2508 808.974,76.7208 C788.429,75.7818 754.622,98.6468 723.698,126.9458 C718.323,131.8818 714.335,129.4738 716.329,124.2598 C721.173,110.7668 723.64,103.8318 728.295,90.7738 C729.137,87.8358 729.014,86.3668 727.168,84.8358 C720.509,78.9638 714.578,75.9668 709.048,75.8418 C703.081,75.6528 698.588,78.4678 694.558,83.5858 C667.793,109.8858 614.128,189.5998 595.823,188.7868 C592.638,188.6608 589.64,187.4078 589.824,182.4448 C590.258,171.4178 622.995,93.7028 623.342,84.6468 C623.559,79.8358 619.81,78.6488 617.618,78.5248 C609.47,78.2118 572.202,92.2028 567.835,96.5178 C566.524,97.8308 566.019,100.5168 565.326,103.7658 C569.266,103.6388 573.362,106.0748 571.271,113.8838 C566.395,131.8788 541.997,189.2868 541.525,201.6868 C541.094,212.7748 547.122,218.9588 558.582,219.4588 C590.573,220.8348 623.051,195.1548 664.782,142.4968 C654.073,166.4558 646.73,186.5398 646.102,201.4378 C645.577,215.8978 664.659,218.0228 676.087,216.4288 C680.089,215.8948 680.406,215.8388 681.711,211.3358 C685.557,197.9668 699.763,171.4858 729.538,142.0638 C743.777,127.9428 761.182,113.9798 769.36,114.3248 C775.42,114.6348 776.298,120.4438 775.508,123.9758 C772.542,138.0618 762.234,162.2088 755.367,183.2278 C748.935,203.0948 757.676,215.4318 773.044,216.1468 C793.877,217.0888 820.467,204.0938 847.73,175.7318 C850.725,198.3438 866.31,217.1528 894.365,218.4308 C945.46,220.6788 992.627,180.6978 994.786,126.8798 C996.004,96.9858 973.52,76.9998 944.407,75.7188" id="Fill-22"></path>
            <path d="M585.0198,72.6562 C581.2678,71.6542 580.0838,70.9052 581.2678,64.8492 C582.8608,56.6632 585.0198,47.1692 587.1408,39.3572 C590.3878,27.5532 596.8278,20.9292 614.9378,18.9902 C629.6808,17.3042 648.1158,16.0552 659.9188,10.8702 C647.2418,53.9142 605.7208,42.3552 587.1078,73.1572 L585.0198,72.6562 Z" id="Fill-24"></path>
        </g>
    </g>
</svg>