<?xml version="1.0" encoding="UTF-8" standalone="no"?>
<svg width="3086px" height="1210px" viewBox="0 0 3086 1210" version="1.1" xmlns="http://www.w3.org/2000/svg" xmlns:xlink="http://www.w3.org/1999/xlink">
    <!-- Generator: Sketch 3.8.3 (29802) - http://www.bohemiancoding.com/sketch -->
    <title>hi-media</title>
    <desc>Created with Sketch.</desc>
    <defs></defs>
    <g id="Page-1" stroke="none" stroke-width="1" fill="none" fill-rule="evenodd">
        <g id="hi-media" transform="translate(0.000000, -1.000000)">
            <g id="Group-3" transform="translate(0.000000, 0.842534)" fill="#D92822">
                <path d="M171.026881,827.696881 L-0.000245274027,827.696881 L-0.000245274027,0.933779757 L170.865,0.933779757 L170.865,310.778881 C171.904962,311.132177 172.944924,311.483019 173.987339,311.833861 C176.268387,308.806314 178.534719,305.761594 180.837842,302.748768 C227.842157,241.272889 290.048555,211.122549 367.390814,212.484209 C401.905775,213.090209 435.910566,217.251245 468.45843,229.54544 C530.206166,252.867853 563.205334,300.113772 575.334134,362.65199 C580.982795,391.776792 584.252298,421.809367 584.495119,451.464112 C585.493385,573.2971 584.914538,695.142355 584.892463,816.985156 C584.89001,820.213885 584.607945,823.445067 584.411726,827.606104 L413.350261,827.606104 L413.350261,812.541974 C413.350261,703.376104 414.122875,594.200419 412.8033,485.051723 C412.474633,458.054055 408.165169,430.327715 400.691669,404.375213 C389.867726,366.803213 361.347262,346.800306 322.652832,343.93714 C303.698055,342.533772 284.161979,343.397383 265.381346,346.356233 C227.744047,352.288654 201.762169,374.215059 187.27138,409.61331 C175.623316,438.073229 171.519882,468.022387 171.384981,498.373909 C170.916508,603.040168 171.095558,707.708881 171.026881,812.377594 C171.024428,817.247674 171.026881,822.120209 171.026881,827.696881" id="Fill-1"></path>
            </g>
            <path d="M976.605631,832.42125 L976.605631,438.948149 L1082.78476,438.948149 L1082.78476,487.725015 C1083.54511,488.554279 1084.30546,489.385995 1085.06581,490.217712 C1117.08142,449.910125 1157.3824,427.556821 1209.09107,427.689307 C1260.27731,427.819339 1303.31064,442.505639 1330.08475,491.150019 C1333.01332,488.404619 1335.52493,486.513015 1337.46995,484.157712 C1376.91737,436.354862 1428.32926,421.636667 1487.92594,429.760011 C1517.20185,433.749307 1544.38312,442.765704 1566.55098,463.502189 C1595.59388,490.671598 1604.61997,526.062489 1604.97071,563.651663 C1605.77521,650.32193 1604.96826,737.009372 1605.1007,823.686999 C1605.11297,832.009072 1602.92022,835.235347 1594.07318,835.083234 C1563.42619,834.555744 1532.75958,834.46742 1502.11259,834.886959 C1493.035,835.012084 1491.25922,831.371177 1491.32299,823.277274 C1491.8724,753.381185 1492.4071,683.480189 1492.20107,613.5841 C1492.14711,595.69606 1490.74905,577.58721 1487.62671,559.993582 C1483.59686,537.277169 1470.05037,521.979963 1446.68557,516.300246 C1390.39027,502.619857 1350.44004,533.108772 1348.50483,593.335849 C1347.01111,639.902165 1347.87202,686.544538 1347.69542,733.152562 C1347.58505,762.588951 1346.9596,792.037606 1347.67335,821.454368 C1347.9456,832.673955 1344.17819,835.193639 1333.67801,834.933574 C1304.67436,834.217169 1275.63391,834.204902 1246.62535,834.76674 C1236.48573,834.963015 1233.39037,831.947736 1233.43942,821.682538 C1233.81715,743.184683 1233.63319,664.681922 1233.61602,586.181615 C1233.61602,584.137898 1233.53508,582.094181 1233.4615,580.052918 C1232.06098,541.106991 1216.98889,520.763056 1185.10082,514.766845 C1147.35315,507.66904 1110.54732,525.265121 1098.61229,558.690805 C1093.11079,574.095963 1090.60164,591.301947 1090.38335,607.73755 C1089.44395,678.460449 1089.5764,749.202975 1090.05713,819.933234 C1090.13807,831.920748 1086.56934,835.20836 1074.91637,834.783914 C1045.12293,833.69704 1015.2878,833.836886 985.469834,833.414894 C982.720313,833.375639 979.980602,832.813801 976.605631,832.42125" id="Fill-4" fill="#909193"></path>
            <path d="M2188.70106,634.297524 C2190.7442,663.535184 2195.65458,691.072609 2209.87312,716.242463 C2229.22279,750.492504 2259.05301,766.380989 2298.21837,763.890747 C2336.36093,761.466747 2362.60771,741.69201 2375.70043,706.144099 C2392.03814,661.783427 2392.51152,616.411937 2377.17453,571.825548 C2363.04675,530.754941 2332.54692,510.761848 2289.39831,511.031726 C2245.93576,511.306512 2214.92086,532.388933 2201.51173,573.682803 C2195.17139,593.214649 2192.84619,614.051726 2188.70106,634.297524 M2383.80184,485.079224 L2383.80184,289.508058 L2495.66887,289.508058 L2495.66887,834.594018 L2388.9207,834.594018 L2388.9207,785.635597 C2380.22083,795.353678 2374.10861,803.351896 2366.83623,810.09886 C2342.04884,833.102326 2311.73787,843.389605 2278.65531,845.200245 C2180.05761,850.597815 2110.37035,799.473006 2086.45613,703.069937 C2068.10963,629.113402 2075.26183,558.395411 2120.98826,495.015662 C2170.18533,426.824714 2277.09046,407.015629 2346.41717,453.005386 C2359.49273,461.680755 2370.47855,473.511249 2383.80184,485.079224" id="Fill-6" fill="#909193"></path>
            <g id="Group-10" transform="translate(2685.750596, 427.741320)" fill="#909193">
                <path d="M275.22125,220.012594 C250.249901,224.951371 228.1409,229.733128 205.877377,233.621832 C180.636227,238.030666 154.624916,239.836399 132.81515,255.297986 C114.90524,267.996998 112.020818,286.736383 114.829205,306.670594 C117.284398,324.08512 128.179471,335.262998 144.671696,340.52563 C169.012691,348.290772 193.687258,348.214715 218.224471,341.524181 C247.412081,333.565217 265.851782,314.17567 270.776885,284.746642 C274.43392,262.896294 273.9679,240.358982 275.22125,220.012594 M277.870209,371.941946 C252.614343,394.503792 224.547636,408.007533 193.066715,413.621006 C145.60619,422.085379 98.6730052,422.858213 54.7076359,398.78014 C12.844265,375.852731 -3.84172708,332.750674 0.867534234,288.900318 C7.0778726,231.065347 38.303709,199.344804 101.400452,187.212537 C140.205256,179.749168 179.664942,175.762326 218.751811,169.702326 C228.756538,168.151751 238.75636,165.443152 248.238654,161.885662 C262.866797,156.394861 273.756964,146.922124 274.12978,129.733314 C274.551652,110.302059 270.546327,91.7270551 250.980818,83.4638648 C220.056668,70.4066502 188.063124,69.9355895 157.048224,83.7852656 C140.14639,91.332051 132.044989,106.327484 128.022495,124.031517 C127.144414,127.900594 123.090035,134.002302 120.399379,134.053824 C85.3570783,134.733428 50.2976089,134.505257 14.0534659,134.505257 C13.9553563,110.517962 21.1664127,90.1102372 33.0327701,71.2211927 C49.6206526,44.8197109 74.0057963,27.724132 102.943226,18.1581644 C173.72931,-5.24030526 245.194803,-5.16670202 315.980888,17.7165449 C351.81297,29.3016947 377.802206,52.5308769 385.523433,91.5283263 C387.093186,99.4627555 387.188843,107.775015 387.208465,115.915533 C387.348271,169.057071 387.100545,222.19861 387.33846,275.340148 C387.53468,319.310723 384.44668,363.602699 399.923471,408.10567 L364.738912,408.10567 C342.671607,408.10567 320.584681,407.585541 298.544357,408.341201 C288.757923,408.677322 284.340538,405.230237 282.967004,395.914521 C281.902514,388.679322 279.959944,381.574156 277.870209,371.941946" id="Fill-8"></path>
            </g>
            <path d="M1752.50156,593.752444 L1933.62417,593.752444 C1926.82763,538.172185 1892.46964,507.150873 1841.84508,509.977237 C1789.20437,512.914006 1752.23176,547.23765 1752.50156,593.752444 M2047.13208,663.628905 L1752.6242,663.628905 C1751.52292,721.397634 1784.14927,757.4485 1832.43882,762.392185 C1867.98884,766.030638 1899.85975,759.531472 1926.5799,734.501464 C1928.36549,732.828217 1930.75692,731.216306 1931.48783,729.098986 C1937.66138,711.233027 1951.86765,711.942071 1966.93729,712.391051 C1990.57925,713.097642 2014.25555,712.577513 2040.02404,712.577513 C2038.32429,717.899027 2037.29659,721.964379 2035.75137,725.823642 C2005.51153,801.352832 1948.62268,839.660865 1868.48184,844.891602 C1832.26222,847.256719 1796.63862,843.826808 1762.36894,830.840743 C1707.38341,810.003666 1669.44442,771.877189 1650.99491,716.223326 C1629.87927,652.527083 1632.04749,589.235658 1665.39495,529.967877 C1701.82059,465.233828 1760.04129,433.45931 1833.06672,428.893456 C1894.15713,425.073448 1949.05436,440.773019 1992.09504,487.00812 C2025.68532,523.090881 2042.34924,566.862727 2046.90398,615.345181 C2048.37072,630.968695 2047.13208,646.84982 2047.13208,663.628905" id="Fill-11" fill="#909193"></path>
            <path d="M810.445477,720.109332 L810.445477,828.62504 L640.352845,828.62504 L640.352845,230.166919 L810.082472,230.166919 L810.082472,516.993834 C790.826008,516.993834 771.397852,516.974206 751.967244,517.001194 C736.581204,517.020822 735.050694,518.419283 735.035978,533.728757 C734.974659,590.548004 734.967301,647.364798 735.045789,704.181591 C735.065411,718.534223 736.797045,720.070077 751.51594,720.099518 C770.68901,720.138773 789.864534,720.109332 810.445477,720.109332" id="Fill-13" fill="#D92822"></path>
            <path d="M2649.88368,835.453949 C2613.95594,835.453949 2579.25948,835.650224 2544.57773,835.022143 C2542.19367,834.980435 2538.02401,828.822297 2537.91609,825.404653 C2537.27593,805.394386 2537.58252,785.354678 2537.60214,765.32233 C2537.71006,661.897512 2537.83024,558.472694 2537.94552,455.05033 C2537.95043,450.656216 2537.94552,446.262103 2537.94552,440.952856 L2649.88368,440.952856 L2649.88368,835.453949 Z" id="Fill-15" fill="#909193"></path>
            <polygon id="Fill-17" fill="#D92822" points="640.260867 135.66404 810.206335 135.66404 810.206335 1.4534413 640.260867 1.4534413"></polygon>
            <path d="M215.458026,1013.56618 C216.463649,1013.27668 217.471725,1012.98717 218.477349,1012.69521 C213.294709,993.16091 210.18954,972.753185 202.45605,954.286133 C189.851417,924.192222 165.753244,906.883194 132.783509,903.823752 C97.3291488,900.533687 66.3461338,910.087388 47.060237,941.741687 C20.0874523,986.009129 19.4595508,1032.67604 43.3565992,1078.18246 C70.4201353,1129.72191 145.444555,1138.97629 185.860809,1096.90222 C208.168482,1073.68285 214.305238,1044.43047 215.458026,1013.56618 M240.292021,1006.39232 C237.942296,1056.97246 226.968736,1097.27024 188.526938,1124.13787 C115.393581,1175.24796 15.8711917,1128.76997 4.6253776,1038.90287 C1.00513296,1009.98661 2.87657379,981.87508 13.5092029,954.536384 C32.4860543,905.74725 73.8269916,879.986117 129.656266,882.309526 C178.294105,884.333615 218.300752,915.516853 231.918366,963.373679 C236.460841,979.338222 238.33964,996.063331 240.292021,1006.39232" id="Fill-19" fill="#939496"></path>
            <path d="M2220.61735,1041.7864 C2224.0193,1057.03208 2225.32661,1069.82678 2229.7955,1081.39721 C2237.91898,1102.43301 2253.97461,1115.21299 2276.83661,1117.17084 C2297.45434,1118.93731 2314.56711,1111.31202 2326.43837,1093.976 C2344.6745,1067.34144 2344.59601,1022.22757 2326.65421,994.999274 C2304.50597,961.387128 2254.21989,962.248286 2235.14738,997.688245 C2227.65916,1011.60416 2224.97096,1028.10356 2220.61735,1041.7864 M2207.16407,1157.07606 C2219.28306,1154.52203 2228.36801,1152.63778 2234.051,1167.46638 C2241.1615,1186.01685 2267.58732,1195.19763 2293.5692,1190.98752 C2321.47403,1186.46583 2336.50442,1169.65731 2339.25394,1138.7145 C2340.18843,1128.22359 2339.40356,1117.57811 2339.40356,1106.51309 C2337.89022,1106.92281 2336.33763,1106.85657 2335.85689,1107.54108 C2317.66492,1133.44942 2292.4532,1140.47853 2262.61807,1134.68841 C2234.46061,1129.22214 2215.25811,1112.46759 2206.62446,1085.51899 C2195.16035,1049.738 2196.30578,1014.69305 2218.45648,982.40576 C2242.64786,947.144901 2306.55401,937.223185 2335.29767,979.562221 C2335.87652,980.418472 2337.06119,980.862545 2339.06263,982.275727 C2339.3496,977.827638 2339.71996,974.383006 2339.76656,970.935921 C2339.96523,956.566116 2342.21685,954.269695 2356.03068,956.914504 C2358.73606,957.432181 2362.73648,961.782132 2362.72666,964.353338 C2362.48875,1025.19132 2362.75855,1086.05875 2360.67863,1146.84521 C2359.87167,1170.46694 2349.79827,1193.13674 2325.76387,1201.75323 C2293.57656,1213.28931 2260.28061,1215.04597 2229.42268,1195.95084 C2215.5181,1187.34416 2208.41251,1174.00235 2207.16407,1157.07606" id="Fill-20" fill="#939496"></path>
            <path d="M1211.08711,1138.24737 L1189.46866,1138.24737 L1189.46866,957.772228 L1208.34985,957.772228 C1208.86247,966.170357 1209.34566,974.109693 1209.82885,982.049029 C1225.02849,963.157531 1243.29895,951.957572 1266.91884,951.76375 C1290.43326,951.572381 1310.40837,958.866462 1320.78347,983.415596 C1322.74811,981.862568 1324.15353,981.138802 1325.02425,980.002859 C1344.18997,955.041547 1370.61088,946.08894 1400.92921,954.359491 C1423.04802,960.392503 1437.38429,975.699523 1438.20105,1000.52344 C1439.67515,1045.43859 1438.77744,1090.4298 1438.81669,1135.39156 C1438.81669,1136.08589 1438.11275,1136.78266 1437.33523,1138.22774 L1416.89655,1138.22774 L1416.89655,1125.01351 C1416.89655,1089.03134 1416.95786,1053.04917 1416.87447,1017.067 C1416.8058,987.52511 1406.09713,973.989474 1380.64259,970.910406 C1354.84958,967.792082 1334.70277,981.131442 1328.89468,1007.08885 C1326.07648,1019.68973 1325.72329,1032.98492 1325.49518,1045.98816 C1325.01199,1073.37593 1325.04633,1100.78332 1325.51725,1128.16863 C1325.66932,1137.00593 1322.43416,1139.33915 1314.08749,1139.22629 C1306.13815,1139.11834 1302.25547,1137.63646 1302.3732,1128.4336 C1302.8245,1092.86607 1302.5547,1057.28871 1302.55225,1021.71627 C1302.55225,1019.26283 1302.57432,1016.80693 1302.52036,1014.35594 C1301.9734,988.746924 1293.40843,975.949774 1274.05141,971.798551 C1251.26054,966.911296 1227.29237,977.620568 1219.33813,998.705442 C1214.54302,1011.42163 1211.90633,1025.56817 1211.44521,1039.17986 C1210.33657,1071.80573 1211.08711,1104.49538 1211.08711,1138.24737" id="Fill-21" fill="#929395"></path>
            <path d="M1803.35398,1048.10229 C1798.45831,1031.55383 1795.52238,1014.95875 1788.6915,1000.16205 C1779.30241,979.830382 1760.7646,971.21635 1738.79786,970.76001 C1717.46638,970.31839 1700.3904,979.089443 1690.36114,998.086439 C1673.22385,1030.54301 1673.04725,1063.83131 1689.79456,1096.49152 C1699.82627,1116.05771 1717.14752,1125.15016 1738.94257,1124.73799 C1760.94365,1124.32335 1779.29751,1115.3364 1788.79697,1095.19119 C1795.57634,1080.81648 1798.42643,1064.58697 1803.35398,1048.10229 M1799.7926,987.077848 L1799.7926,888.442147 C1804.0849,888.042236 1807.58251,887.872949 1811.03106,887.36754 C1820.73901,885.939637 1823.6406,889.968188 1823.54739,899.683815 C1823.09609,946.672123 1823.34382,993.665338 1823.34382,1040.65855 L1823.34382,1121.56814 C1823.34382,1140.35414 1823.34382,1140.35414 1802.76042,1137.90806 L1802.76042,1109.41379 C1799.03471,1112.47814 1797.10931,1113.59446 1795.79954,1115.20882 C1762.84698,1155.78383 1700.75095,1153.23716 1671.77183,1110.06886 C1649.64566,1077.10933 1650.45261,1018.46472 1671.75466,985.056212 C1697.22146,945.111734 1767.23983,936.767581 1799.7926,987.077848" id="Fill-22" fill="#939496"></path>
            <path d="M2976.26591,970.570604 C2956.40607,971.392507 2937.05885,977.072223 2926.88243,997.028515 C2909.82363,1030.47383 2909.28157,1065.16058 2928.00334,1097.92874 C2949.13124,1134.90701 3005.09296,1134.12191 3025.28392,1096.63332 C3042.4531,1064.75331 3041.7369,1031.33744 3025.51938,999.008442 C3015.8654,979.763649 2998.863,971.029398 2976.26591,970.570604 M2915.22947,1110.35788 L2915.22947,1204.57738 L2891.87447,1204.57738 L2891.87447,1190.3695 C2891.87447,1118.02488 2891.87202,1045.68271 2891.87693,973.338086 C2891.87693,954.964264 2892.15409,954.750815 2912.60013,957.942742 L2912.60013,985.750045 C2922.80843,976.92747 2931.27039,966.699074 2942.08942,960.788734 C2982.7951,938.545835 3032.49253,956.242507 3050.52998,999.059964 C3063.77723,1030.51063 3063.80666,1062.76111 3051.40315,1094.58225 C3039.96112,1123.93277 3017.87174,1140.7462 2986.73175,1143.61182 C2957.40924,1146.3106 2933.02655,1136.31528 2915.22947,1110.35788" id="Fill-23" fill="#939496"></path>
            <path d="M2043.58591,1044.36104 C2024.38831,1047.52598 2005.12204,1050.34498 1986.0201,1054.01043 C1977.29815,1055.68613 1968.41187,1058.01199 1960.44047,1061.80746 C1938.67976,1072.16344 1934.98838,1099.14148 1954.10259,1113.84986 C1961.93664,1119.87551 1973.21434,1124.04145 1983.07681,1124.3604 C2027.6897,1125.79321 2054.10817,1090.08828 2043.58591,1044.36104 M1928.59654,1011.86521 C1927.19848,988.214036 1940.58308,967.168417 1962.73378,958.591186 C1985.56879,949.751437 2008.97529,949.049753 2032.3867,956.088676 C2053.43857,962.416101 2065.89849,977.124482 2066.86487,998.849704 C2068.34878,1032.27784 2067.99313,1065.7894 2068.3267,1099.2666 C2068.5033,1116.95591 2069.28082,1117.9054 2087.37714,1119.28178 C2086.97489,1125.94778 2093.79841,1134.54709 2082.00563,1137.92057 C2063.24708,1143.2887 2052.19748,1135.10647 2043.40441,1109.42385 C2042.65878,1111.36943 2042.25407,1113.54809 2041.116,1115.22869 C2020.81712,1145.21956 1981.63705,1149.54743 1952.02021,1139.03198 C1932.08189,1131.9538 1920.58099,1115.344 1919.95309,1094.22478 C1919.18783,1068.52989 1927.22791,1052.11391 1949.7318,1045.02347 C1970.91122,1038.35011 1993.42983,1035.51638 2015.55354,1032.37843 C2037.53255,1029.26256 2044.29966,1025.11134 2045.19,1010.31464 C2046.42128,989.902004 2037.24067,975.652417 2017.75365,973.329008 C2003.51549,971.631227 1987.90135,971.766166 1974.51429,976.086676 C1965.62311,978.954749 1957.05323,989.482466 1952.81735,998.653429 C1945.52045,1014.45359 1946.98719,1015.13074 1928.59654,1011.86521" id="Fill-24" fill="#939496"></path>
            <path d="M1609.7224,1034.04457 C1612.36646,1000.87649 1585.97742,971.003391 1554.64857,970.679537 C1523.00086,970.348322 1494.19588,1001.4187 1496.61428,1034.04457 L1609.7224,1034.04457 Z M1634.19094,1053.79967 L1497.35501,1053.79967 C1490.90921,1079.3768 1509.86153,1112.86382 1534.77892,1121.53183 C1563.06147,1131.36767 1593.70356,1119.9788 1604.66485,1092.9566 C1610.48275,1078.61623 1618.35114,1075.8831 1631.3384,1079.61233 C1631.21331,1107.81709 1605.69255,1136.18133 1575.23933,1141.97145 C1515.70151,1153.28917 1474.95659,1119.64513 1471.78765,1055.61031 C1470.2694,1024.93003 1476.34239,995.967156 1498.9591,973.120711 C1534.46742,937.248946 1597.75058,946.910598 1621.19387,991.5068 C1631.1152,1010.38112 1634.64715,1030.58767 1634.19094,1053.79967 L1634.19094,1053.79967 Z" id="Fill-25" fill="#949597"></path>
            <path d="M924.584972,1033.93661 L1037.72988,1033.93661 C1039.29963,998.607059 1012.77815,969.757043 980.289156,970.677083 C949.308594,971.555415 921.913938,1002.22589 924.584972,1033.93661 M1063.92269,1054.09654 L924.710062,1054.09654 C919.574024,1082.31602 938.619552,1114.13961 964.375778,1122.07895 C992.638704,1130.79112 1020.64164,1118.73981 1033.07458,1092.51498 C1040.66091,1076.50873 1040.66091,1076.50873 1059.61323,1079.77426 C1053.76344,1123.10203 1016.20954,1149.95985 970.978554,1143.60544 C935.389293,1138.60778 913.334253,1118.49937 904.21987,1084.23461 C897.021077,1057.1707 897.452759,1030.11415 907.224477,1003.5581 C919.512705,970.159407 946.873023,951.243375 982.371533,951.542695 C1017.22742,951.837108 1043.74891,970.738419 1054.5336,1005.15284 C1059.20362,1020.05259 1060.56735,1035.98769 1063.92269,1054.09654" id="Fill-26" fill="#949597"></path>
            <polygon id="Fill-27" fill="#D92822" points="784.692931 667.970024 921.617156 667.970024 921.617156 576.346259 784.692931 576.346259"></polygon>
            <path d="M2519.89385,1045.49625 C2524.01445,1061.54911 2526.05758,1075.85758 2531.37512,1088.81911 C2540.52139,1111.11354 2558.43866,1123.55494 2582.60796,1124.58783 C2606.05125,1125.59129 2624.99377,1116.03023 2636.46278,1095.00669 C2653.34744,1064.05653 2653.89686,1032.24276 2636.86012,1001.37356 C2614.23359,960.374102 2557.72491,959.768102 2535.02235,1000.64489 C2527.35753,1014.44304 2524.62763,1030.98414 2519.89385,1045.49625 M2498.9082,1048.01839 C2501.38302,1012.97834 2510.06326,981.544847 2542.08869,962.869252 C2594.88883,932.081017 2660.14889,964.250539 2669.71703,1025.16458 C2674.72308,1057.03724 2671.23773,1087.53351 2650.65188,1113.3707 C2627.57895,1142.32867 2596.29916,1149.74297 2561.48742,1140.66278 C2525.15497,1131.18269 2508.24824,1104.00592 2501.35849,1069.18422 C2499.9408,1062.02017 2499.64647,1054.63286 2498.9082,1048.01839" id="Fill-28" fill="#939496"></path>
            <path d="M2850.9456,957.69936 L2850.9456,1137.96596 L2830.50936,1137.96596 L2830.50936,1108.29159 C2817.26457,1125.82143 2804.16693,1137.86046 2785.90138,1141.68783 C2746.71395,1149.90195 2704.00438,1138.50817 2703.19252,1076.63974 C2702.74612,1042.743 2703.10422,1008.83398 2703.10913,974.929879 C2703.11403,954.453457 2703.41327,954.225287 2726.50091,958.126259 L2726.50091,985.548372 C2726.50337,1013.73351 2726.48374,1041.91864 2726.50827,1070.10377 C2726.5377,1106.00989 2737.6805,1120.80414 2767.40772,1124.48675 C2794.43201,1127.83325 2817.70115,1110.4727 2824.55902,1080.38615 C2827.15892,1068.98746 2827.56608,1056.94842 2827.80644,1045.17926 C2828.28228,1021.90347 2827.94625,998.612947 2827.94625,975.329789 C2827.9487,954.828834 2827.9487,954.828834 2850.9456,957.69936" id="Fill-29" fill="#949597"></path>
            <path d="M293.98226,1138.27313 L271.838921,1138.27313 L271.838921,1124.85035 C271.838921,1074.58179 271.836468,1024.31324 271.838921,974.044677 C271.841374,954.878394 272.130797,954.64777 293.261155,957.940288 C293.734533,965.09207 294.227534,972.518636 294.887321,982.455074 C300.327499,976.591349 303.776052,972.278199 307.818168,968.617665 C329.662273,948.835568 370.110413,945.601932 395.042518,961.561568 C409.180112,970.614766 417.124538,984.425187 417.732818,1000.38728 C419.395776,1044.0389 419.545393,1087.75432 419.790667,1131.4452 C419.805383,1133.94771 415.71176,1137.88794 412.851865,1138.66813 C408.36335,1139.89486 403.293536,1138.99444 396.783963,1138.99444 L396.783963,1124.85526 C396.78151,1094.20196 396.786416,1063.55112 396.776605,1032.90028 C396.776605,1028.40558 396.801132,1023.90596 396.658873,1019.41371 C395.807773,992.732539 384.068958,975.793981 364.106105,972.361616 C335.328103,967.415479 310.133555,978.718483 301.306143,1002.84562 C296.778384,1015.22078 294.789212,1029.01894 294.296211,1042.27243 C293.263607,1070.0233 293.98226,1097.84042 293.98226,1125.63055 L293.98226,1138.27313" id="Fill-30" fill="#949597"></path>
            <path d="M2537.93105,378.097898 C2537.93105,349.772918 2537.74219,322.883202 2538.24991,296.005752 C2538.29406,293.569485 2542.77767,289.165558 2545.24512,289.133663 C2579.82631,288.677323 2614.41731,288.82453 2650.02374,288.82453 L2650.02374,378.097898 L2537.93105,378.097898 Z" id="Fill-31" fill="#929395"></path>
            <path d="M742.576928,1138.29938 L720.956022,1138.29938 L720.956022,957.372807 L742.098643,957.372807 L742.098643,984.321406 C748.637649,977.13037 752.454113,972.059107 757.119225,967.952046 C778.234866,949.367228 816.865525,946.158127 841.238405,960.415074 C857.632521,970.003123 865.719206,985.540767 866.204848,1003.06079 C867.45084,1047.84591 866.621814,1092.68746 866.621814,1138.24541 L845.891253,1138.24541 C845.653338,1133.79732 845.275616,1129.51606 845.219203,1125.2299 C844.736013,1087.67017 844.848839,1050.09326 843.637185,1012.55806 C843.028905,993.725447 835.189948,978.295755 815.116721,972.866289 C792.679053,966.801382 768.912,974.240216 756.486418,990.648832 C746.157929,1004.28997 742.635793,1019.9969 742.599002,1036.69992 C742.52542,1070.15996 742.576928,1103.61999 742.576928,1138.29938" id="Fill-32" fill="#929395"></path>
            <path d="M591.37015,1137.95247 L591.37015,888.349162 C594.215329,887.986053 596.550338,887.748069 598.863272,887.382506 C610.22927,885.586587 614.381759,889.50964 614.28365,901.828368 C613.712161,974.536101 614.001585,1047.24874 614.001585,1119.96138 C614.004037,1140.6169 614.004037,1140.6169 591.37015,1137.95247" id="Fill-33" fill="#949597"></path>
            <path d="M2493.56417,951.554226 L2493.56417,975.509627 C2492.01894,976.174509 2490.95691,976.966971 2489.83355,977.067562 C2448.91449,980.735457 2427.39169,1003.97691 2427.1783,1045.13584 C2427.01887,1075.72044 2427.14642,1106.30749 2427.14642,1138.23167 C2422.55489,1138.52117 2418.64277,1138.61931 2414.76498,1139.04376 C2407.08055,1139.88038 2403.84784,1137.17178 2403.89199,1128.84971 C2404.1765,1074.95742 2403.98028,1021.06267 2404.07839,967.17038 C2404.10047,955.729983 2406.50415,954.738793 2424.76726,958.23004 L2424.76726,993.046825 C2434.93387,982.953368 2443.23884,971.402566 2454.42089,964.552558 C2465.25464,957.915999 2479.04885,956.115173 2493.56417,951.554226" id="Fill-34" fill="#939496"></path>
            <path d="M1887.14572,954.948807 L1887.14572,1139.02315 C1882.29665,1139.02315 1877.94795,1138.76554 1873.63848,1139.08203 C1866.7144,1139.58744 1864.33524,1136.55499 1864.35486,1129.75405 C1864.51674,1075.03494 1864.00412,1020.30848 1864.7007,965.599196 C1864.92144,948.204297 1878.69603,960.603989 1887.14572,954.948807" id="Fill-35" fill="#949597"></path>
            <path d="M677.991126,1138.97948 C672.501893,1138.97948 668.089413,1138.71205 663.723536,1139.04081 C657.140381,1139.53641 655.317995,1136.39355 655.359691,1130.29429 C655.737413,1074.84897 655.93118,1019.4012 656.223056,963.955881 C656.235319,962.002942 656.733226,960.052456 657.069251,957.630909 L677.991126,957.630909 L677.991126,1138.97948 Z" id="Fill-36" fill="#929395"></path>
            <polygon id="Fill-37" fill="#929395" points="461.264788 1050.92768 547.669922 1050.92768 547.669922 1032.5514 461.264788 1032.5514"></polygon>
            <path d="M678.239343,886.566246 L678.239343,923.861007 C670.559813,922.852643 658.001783,923.2501 657.405767,920.769671 C655.043778,910.941185 655.124719,899.920327 657.346901,890.025598 C657.89141,887.608959 670.005494,887.792967 678.239343,886.566246" id="Fill-38" fill="#949597"></path>
        </g>
    </g>
</svg>