<?xml version="1.0" encoding="UTF-8" standalone="no"?>
<svg width="728px" height="291px" viewBox="0 0 728 291" version="1.1" xmlns="http://www.w3.org/2000/svg" xmlns:xlink="http://www.w3.org/1999/xlink">
    <!-- Generator: Sketch 3.8.3 (29802) - http://www.bohemiancoding.com/sketch -->
    <title>ibm</title>
    <desc>Created with Sketch.</desc>
    <defs></defs>
    <g id="Page-1" stroke="none" stroke-width="1" fill="none" fill-rule="evenodd">
        <g id="ibm" fill="#0077BE">
            <polygon id="Fill-1" points="0 19.944 141.622 19.944 141.622 0 0 0"></polygon>
            <polygon id="Fill-2" points="161.9262 -0.0001 161.9262 19.9439 364.8222 19.9439 361.6542 16.9199 357.5502 13.9679 353.3022 11.0159 348.6222 8.5679 344.0142 6.3359 339.4062 4.4639 334.3662 2.8069 329.3262 1.7279 324.3582 0.7919 319.3902 -0.0001"></polygon>
            <polygon id="Fill-3" points="404.7102 -0.0001 404.7102 19.9439 526.8942 19.9439 519.8382 -0.0001"></polygon>
            <polygon id="Fill-4" points="613.4382 -0.0001 606.3822 19.9439 727.4862 19.9439 727.4862 -0.0001"></polygon>
            <polygon id="Fill-5" points="0 58.464 141.622 58.464 141.622 38.808 0 38.808"></polygon>
            <polygon id="Fill-6" points="40.462 97.344 101.014 97.344 101.014 77.256 40.462 77.256"></polygon>
            <polygon id="Fill-7" points="40.462 135.936 101.014 135.936 101.014 115.848 40.462 115.848"></polygon>
            <polygon id="Fill-8" points="379.15 38.808 380.23 40.68 382.462 45.36 384.334 50.544 386.71 58.464 161.926 58.464 161.926 38.808"></polygon>
            <polygon id="Fill-9" points="202.39 97.344 262.87 97.344 262.87 77.256 202.39 77.256"></polygon>
            <polygon id="Fill-10" points="388.582 77.256 388.438 80.424 387.862 85.608 387.07 90.648 385.846 95.616 385.27 97.344 323.782 97.344 323.782 77.256"></polygon>
            <polygon id="Fill-11" points="376.702 115.848 374.83 118.656 371.662 122.76 368.35 126.648 364.822 130.32 360.934 133.704 357.55 135.936 202.39 135.936 202.39 115.848"></polygon>
            <polygon id="Fill-12" points="404.71 38.808 533.374 38.808 540.431 58.464 404.71 58.464"></polygon>
            <polygon id="Fill-13" points="599.8302 38.8079 592.9902 58.4639 727.4862 58.4639 727.4862 38.8079"></polygon>
            <polygon id="Fill-14" points="445.246 77.256 546.766 77.256 553.822 97.344 445.246 97.344"></polygon>
            <polygon id="Fill-15" points="688.03 77.256 688.03 97.344 579.383 97.344 586.294 77.256"></polygon>
            <polygon id="Fill-16" points="512.278 135.936 621.215 135.936 627.334 118.08 627.334 135.936 688.03 135.936 688.03 115.848 572.974 115.848 566.638 133.704 560.302 115.848 445.246 115.848 445.246 135.936 505.942 135.936 505.942 117.936"></polygon>
            <polygon id="Fill-17" points="0 290.807 141.622 290.807 141.622 270.576 0 270.576"></polygon>
            <polygon id="Fill-18" points="0 251.928 141.622 251.928 141.622 231.696 0 231.696"></polygon>
            <polygon id="Fill-19" points="40.462 174.528 101.014 174.528 101.014 154.656 40.462 154.656"></polygon>
            <polygon id="Fill-20" points="40.462 213.336 101.014 213.336 101.014 193.248 40.462 193.248"></polygon>
            <polygon id="Fill-21" points="357.55 154.656 360.934 157.104 364.822 160.416 368.35 164.16 371.662 168.048 374.83 172.152 376.702 174.528 202.39 174.528 202.39 154.656"></polygon>
            <polygon id="Fill-22" points="202.39 213.336 262.87 213.336 262.87 193.248 202.39 193.248"></polygon>
            <polygon id="Fill-23" points="385.27 193.248 385.846 195.192 387.07 200.16 387.862 205.128 388.438 210.312 388.582 213.336 323.782 213.336 323.782 193.248"></polygon>
            <polygon id="Fill-24" points="386.71 231.696 385.846 235.8 384.334 240.624 382.462 245.448 380.23 250.128 379.15 251.928 161.926 251.928 161.926 231.696"></polygon>
            <polygon id="Fill-25" points="161.9262 270.5759 161.9262 290.8069 313.4142 290.8069 318.5982 290.5919 323.7822 290.0159 328.6072 289.0799 333.6462 287.9999 338.6862 286.2719 343.2942 284.4719 347.9742 282.2399 352.5832 279.7909 356.8302 276.9839 360.9342 273.8159 364.8222 270.5759"></polygon>
            <polygon id="Fill-26" points="445.246 174.528 505.942 174.528 505.942 154.656 445.246 154.656"></polygon>
            <polygon id="Fill-27" points="607.678 174.528 525.383 174.528 518.542 154.656 614.662 154.656"></polygon>
            <polygon id="Fill-28" points="627.334 174.528 688.03 174.528 688.03 154.656 627.334 154.656"></polygon>
            <polygon id="Fill-29" points="445.246 213.336 505.942 213.336 505.942 193.248 445.246 193.248"></polygon>
            <polygon id="Fill-30" points="601.558 193.248 594.646 213.336 538.63 213.336 531.718 193.248"></polygon>
            <polygon id="Fill-31" points="627.334 213.336 688.03 213.336 688.03 193.248 627.334 193.248"></polygon>
            <polygon id="Fill-32" points="404.71 251.928 505.942 251.928 505.942 231.696 404.71 231.696"></polygon>
            <polygon id="Fill-33" points="588.311 231.696 581.47 251.928 551.806 251.928 544.894 231.696"></polygon>
            <polygon id="Fill-34" points="627.334 251.928 727.486 251.928 727.486 231.696 627.334 231.696"></polygon>
            <polygon id="Fill-35" points="404.71 290.807 505.942 290.807 505.942 270.576 404.71 270.576"></polygon>
            <polygon id="Fill-36" points="627.334 290.807 727.486 290.807 727.486 270.576 627.334 270.576"></polygon>
            <polygon id="Fill-37" points="558.2871 270.5759 565.1261 290.8069 568.0781 290.8069 574.9901 270.5759"></polygon>
        </g>
    </g>
</svg>