<?xml version="1.0" encoding="UTF-8" standalone="no"?>
<svg width="265px" height="36px" viewBox="0 0 265 36" version="1.1" xmlns="http://www.w3.org/2000/svg" xmlns:xlink="http://www.w3.org/1999/xlink">
    <!-- Generator: Sketch 3.8.3 (29802) - http://www.bohemiancoding.com/sketch -->
    <title>kolalach</title>
    <desc>Created with Sketch.</desc>
    <defs></defs>
    <g id="Page-1" stroke="none" stroke-width="1" fill="none" fill-rule="evenodd">
        <g id="kolalach" transform="translate(0.000000, -1.000000)">
            <polygon id="Fill-1" fill="#000000" points="14.9373 1.507 3.1973 15.47 3.1973 1.507 0.0003 1.507 0.0003 30.368 3.1973 30.368 3.1973 16.678 15.6393 30.368 19.6573 30.368 6.3563 15.898 18.4483 1.507"></polygon>
            <g id="Group-18" transform="translate(30.000000, 0.569200)">
                <g id="Group-4" fill="#000000">
                    <path d="M3.9302,15.3683 C3.9302,22.1553 9.0392,27.4583 15.7862,27.4583 C22.6122,27.4583 27.6042,21.9593 27.6042,15.3683 C27.6042,8.7773 22.6122,3.2783 15.7472,3.2783 C8.9612,3.2783 3.9302,8.6603 3.9302,15.3293 L3.9302,15.3683 Z M0.6932,15.4463 C0.6932,6.5543 7.5962,0.4303 15.7472,0.4303 C24.2112,0.4303 30.8022,6.9053 30.8022,15.3683 C30.8022,23.8313 24.2502,30.3063 15.7472,30.3063 C7.2062,30.3063 0.6932,23.7143 0.6932,15.4853 L0.6932,15.4463 Z" id="Fill-2"></path>
                </g>
                <path d="M55.5273,4.565 L49.7943,19.035 L61.2993,19.035 L55.5273,4.565 Z M45.5043,29.799 L42.0323,29.799 L54.0843,0.938 L57.2043,0.938 L69.1383,29.799 L65.6283,29.799 L62.2743,21.687 L48.8193,21.687 L45.5043,29.799 Z" id="Fill-5" fill="#000000"></path>
                <polygon id="Fill-7" fill="#000000" points="83.2949 0.9381 86.5319 0.9381 86.5319 26.9521 97.5299 26.9521 97.5299 29.7991 83.2949 29.7991"></polygon>
                <path d="M122.4116,4.565 L116.6786,19.035 L128.1836,19.035 L122.4116,4.565 Z M112.3886,29.799 L108.9176,29.799 L120.9686,0.938 L124.0886,0.938 L136.0226,29.799 L132.5136,29.799 L129.1586,21.687 L115.7036,21.687 L112.3886,29.799 Z" id="Fill-9" fill="#000000"></path>
                <g id="Group-13" transform="translate(171.000000, 0.000000)" fill="#000000">
                    <path d="M28.3198,22.0377 C26.4478,26.4837 21.4168,30.3057 15.0588,30.3057 C6.5178,30.3057 0.0058,23.7147 0.0058,15.3687 C0.0058,7.1397 6.3618,0.4307 15.0198,0.4307 C22.1578,0.4307 26.6428,5.1887 28.3198,8.8547 L24.8488,8.8547 C23.8738,7.1397 20.5968,3.2777 15.0198,3.2777 C8.2728,3.2777 3.2028,8.6207 3.2028,15.3297 C3.2028,22.1547 8.3118,27.4587 15.0198,27.4587 C21.0658,27.4587 24.1468,23.1297 24.8488,22.0377 L28.3198,22.0377 Z" id="Fill-11"></path>
                </g>
                <polygon id="Fill-14" fill="#000000" points="214.4888 29.7989 214.4888 0.9379 217.6868 0.9379 217.6868 13.7689 231.6108 13.7689 231.6108 0.9379 234.8478 0.9379 234.8478 29.7989 231.6108 29.7989 231.6108 16.6159 217.6868 16.6159 217.6868 29.7989"></polygon>
                <path d="M157.9952,26.7648 C157.9952,26.7648 156.3542,29.9398 153.5362,27.1568 C150.7182,24.3748 155.2132,22.7338 156.1762,23.1258 C157.1392,23.5188 158.6372,24.3388 157.9952,26.7648 M160.7132,26.0608 C160.5342,25.3828 165.5642,23.4558 164.7442,22.2078 C163.9232,20.9588 159.3222,23.6708 158.7152,23.0278 C158.1092,22.3858 163.5312,16.4648 162.2112,15.5018 C160.8912,14.5378 156.2542,20.8168 156.2542,20.8168 C156.2892,10.0788 154.0022,20.6058 153.8992,20.6378 C151.9732,21.2448 151.7592,14.8598 148.7982,15.4008 C148.1212,20.6868 152.5082,21.9938 151.7592,22.7788 C151.0102,23.5628 147.2652,19.7108 146.2302,21.2798 C145.1962,22.8498 150.6532,24.5618 150.6532,25.4538 C150.6532,26.3458 143.5552,27.3798 144.0542,28.8068 C144.5532,30.2338 150.9032,28.2008 151.0812,28.8068 C151.2602,29.4138 148.7982,30.2698 148.8632,30.9118 C148.9272,31.5538 150.8322,29.9838 151.2242,31.0188 C151.6162,32.0528 147.8002,34.2648 149.1552,35.4418 C150.5112,36.6188 152.5442,30.4838 153.8992,30.5908 C155.2552,30.6978 155.3262,36.4048 156.8962,35.9768 C158.4652,35.5488 156.2892,30.6268 157.3602,29.6628 C158.4302,28.6998 165.3862,32.8028 166.5992,31.2328 C167.8122,29.6628 160.8912,26.7378 160.7132,26.0608" id="Fill-16" fill="#F11B19"></path>
            </g>
        </g>
    </g>
</svg>