<?xml version="1.0" encoding="UTF-8" standalone="no"?>
<svg width="2636px" height="581px" viewBox="0 0 2636 581" version="1.1" xmlns="http://www.w3.org/2000/svg" xmlns:xlink="http://www.w3.org/1999/xlink">
    <!-- Generator: Sketch 3.8.3 (29802) - http://www.bohemiancoding.com/sketch -->
    <title>mandriva</title>
    <desc>Created with Sketch.</desc>
    <defs></defs>
    <g id="Page-1" stroke="none" stroke-width="1" fill="none" fill-rule="evenodd">
        <g id="mandriva">
            <path d="M738.494805,259.753677 C739.138892,259.739246 739.739654,259.719043 740.323087,259.693068 C744.958777,259.493924 747.751744,258.873404 749.305639,256.247018 C750.293431,254.581716 753.141275,249.349147 755.648303,244.70535 C757.961815,240.42232 759.9865,236.644365 759.9865,236.644365 C759.9865,236.644365 765.069873,227.463558 768.310524,221.483479 C769.384964,219.500701 770.257225,217.867147 770.670249,217.038825 C771.828449,214.715484 771.282564,212.429662 769.647798,209.335721 C769.122131,208.340003 768.486709,207.260588 767.753086,206.065726 L767.744421,206.065726 C765.104533,206.126335 762.998976,206.259098 761.303556,206.657385 C759.304866,207.124939 757.880943,207.967692 756.933587,209.566612 C756.575441,210.172701 755.968902,211.252117 755.223725,212.60283 C752.026399,218.389538 746.249838,229.169266 746.249838,229.169266 C746.249838,229.169266 744.606407,232.139102 742.593275,235.792954 C739.889845,240.708048 736.52211,246.867068 735.571866,248.771919 C734.789142,250.344865 734.789142,251.900494 735.369686,253.695672 C735.927124,255.412924 737.016006,257.349523 738.491917,259.747904 C738.491917,259.750791 738.494805,259.750791 738.494805,259.753677" id="Fill-1" fill="#DF9908"></path>
            <path d="M806.536337,267.894031 C805.381025,265.925684 804.370127,264.323877 803.359229,263.079951 C801.773563,261.126036 800.190785,260.075481 798.050569,260.017758 C797.484466,260.003328 796.551552,260.000442 795.422234,260.003328 C792.519512,260.011986 788.163986,260.06105 784.224371,260.115887 C779.432714,260.182268 775.296696,260.254422 775.296696,260.254422 C775.296696,260.254422 774.392665,260.257308 772.98896,260.26308 C770.38662,260.274625 765.979104,260.297714 761.834422,260.335234 C757.776388,260.369867 754.001405,260.421818 752.528382,260.488199 C751.430836,260.54015 750.492144,260.877828 749.622772,261.437739 C748.733182,262.009194 747.91291,262.820199 747.098415,263.905387 C746.179942,265.131996 745.25858,266.673194 744.213023,268.53764 C744.213023,268.540526 744.210135,268.540526 744.210135,268.543412 C745.564738,270.849437 746.722939,272.641729 747.910022,273.94915 C749.328167,275.507664 750.789637,276.364848 752.695902,276.413912 C753.443967,276.431229 754.795682,276.434115 756.465108,276.425456 C759.621999,276.40814 763.942866,276.353303 767.674525,276.298466 C771.957844,276.237857 775.452664,276.177249 775.452664,276.177249 C775.452664,276.177249 776.83615,276.171476 778.90127,276.162818 C781.835763,276.148387 786.162407,276.125298 790.061586,276.084892 C793.66616,276.050258 796.886592,276.00408 798.220978,275.943471 C801.712909,275.784734 803.668275,273.011154 806.539226,267.896917 L806.536337,267.894031" id="Fill-3" fill="#DF9908"></path>
            <path d="M772.392819,315.043434 C771.139306,313.026023 769.631623,310.62187 768.181707,308.321617 C766.518057,305.675028 764.949721,303.198721 763.950376,301.62289 C763.280295,300.566563 762.861494,299.905637 762.861494,299.905637 C762.861494,299.905637 761.538662,297.755464 759.759481,294.88087 C758.491526,292.834598 756.995397,290.424672 755.568586,288.13885 C753.878942,285.431652 752.301941,282.926484 751.337255,281.437236 C751.114858,281.093786 750.915566,280.790741 750.765376,280.568508 C749.384778,278.530895 747.279221,277.823791 744.125219,277.650622 C742.787945,277.578469 741.280263,277.5929 739.524188,277.659281 L739.518412,277.659281 C737.880757,280.721474 736.78321,283.065018 736.505935,285.105518 C736.312421,286.51684 736.500159,287.786741 737.216452,289.030667 C737.646806,289.778177 738.519067,291.201043 739.587731,292.926954 C740.823915,294.921276 742.331597,297.322543 743.795955,299.651657 C745.43361,302.249182 746.987505,304.7024 748.030174,306.350385 C748.81001,307.57988 749.312571,308.370682 749.312571,308.370682 C749.312571,308.370682 750.545866,310.373662 752.223957,313.086632 C753.477471,315.109815 754.970712,317.516855 756.411964,319.831538 C758.066949,322.486786 759.623732,324.963093 760.640406,326.538924 C760.943676,327.009365 761.218063,327.430741 761.408689,327.713583 C762.719968,329.644409 764.683999,330.380375 767.569391,330.599721 C769.019308,330.709395 770.680069,330.69785 772.6441,330.62281 C772.6441,330.619924 772.646988,330.619924 772.646988,330.617038 C774.44061,327.27489 775.593034,324.787038 775.725895,322.622434 C775.80099,321.427573 775.578593,320.327954 774.957612,319.245652 C774.498376,318.45485 773.553908,316.913652 772.392819,315.043434" id="Fill-5" fill="#DF9908"></path>
            <path d="M729.048973,277.966366 C729.048973,277.96348 729.046085,277.96348 729.046085,277.960594 C725.770775,278.035633 723.312848,278.223232 721.461461,278.901475 C725.8632,274.679054 726.359984,270.592282 726.100039,268.130405 C725.874753,265.977346 724.83786,262.727554 721.117755,259.792351 C722.925819,260.156004 725.190231,260.158891 728.058293,260.052103 L728.06407,260.052103 C730.836819,254.865712 732.119215,251.719821 730.366029,248.677831 C730.273604,248.519094 730.14652,248.305519 730.019435,248.091945 C729.173169,246.674851 727.59328,244.126391 725.84587,241.332608 C724.430613,239.078534 722.920042,236.683039 721.620316,234.625222 C719.716939,231.609207 718.269911,229.332044 718.269911,229.332044 C718.269911,229.332044 717.937758,228.795222 717.39765,227.917836 C716.470512,226.414158 714.907952,223.8859 713.218308,221.164272 C711.800163,218.87845 710.301145,216.47141 709.018749,214.43091 C707.759458,212.430816 706.713901,210.788603 706.173792,209.989143 C705.65679,209.22143 705.030033,208.649975 704.293522,208.214168 C702.234178,206.999103 699.262137,206.912519 694.932605,207.074143 L694.932605,207.074143 C694.929717,207.077029 694.929717,207.077029 694.929717,207.079915 C692.154079,212.26342 690.865906,215.409311 692.619093,218.451301 C692.737512,218.653331 692.887703,218.904425 693.060999,219.198811 C693.947702,220.676514 695.524703,223.21343 697.240341,225.952376 C698.661375,228.217995 700.171946,230.616376 701.463007,232.659762 C703.317283,235.594965 704.715211,237.799975 704.715211,237.799975 C704.715211,237.799975 705.082022,238.394519 705.685673,239.370034 C706.641694,240.919891 708.195589,243.43949 709.862127,246.123599 C711.288937,248.420965 712.790843,250.830891 714.064574,252.854074 C715.277652,254.7849 716.285662,256.363618 716.811329,257.142876 C716.831547,257.171737 716.854653,257.19194 716.874871,257.220801 C715.228551,256.447316 713.296292,255.737326 711.026104,255.131237 L547.37036,211.818955 C535.768137,208.753876 524.405642,196.132792 522.557143,184.259217 L496.530848,17.0623213 C494.589924,4.5739995 488.59963,1.4944896 485.200124,0.770068812 C481.794842,0.0427618812 475.053595,0.423732178 468.165047,11.0793559 L376.375496,153.221683 C369.842205,163.300079 354.31481,170.200836 342.481525,168.287326 L175.336739,141.388514 C162.810267,139.356673 158.021498,144.101485 156.285641,147.111727 C154.549785,150.119084 152.831258,156.630212 160.849124,166.437311 L267.755935,297.615198 C275.329006,306.940311 277.113963,323.829995 271.649337,334.497163 L194.370507,485.041039 C188.608387,496.325841 191.649746,502.331896 193.9777,504.909217 C196.302766,507.477881 201.958019,511.108643 213.74798,506.548544 L371.656045,445.46342 C382.853909,441.154415 399.490404,444.666846 407.958842,453.134777 L527.325694,573.108673 C533.191791,579.016599 538.075873,580.612633 541.637123,580.612633 C543.505841,580.612633 545.013523,580.17394 546.105293,579.686183 C549.279513,578.277747 554.495748,574.023579 553.788119,561.382292 L544.453197,392.424851 C543.79178,380.432945 552.277548,365.739613 562.984404,360.336762 L714.093457,283.949331 C715.670458,283.149871 717.030838,282.330207 718.235251,281.504772 C716.30588,284.780539 707.597715,301.052589 707.597715,301.052589 C707.597715,301.052589 706.875645,302.357123 705.821422,304.273519 C703.115104,309.185727 698.135708,318.253975 696.942848,320.646584 C696.347863,321.835673 696.212113,323.016103 696.428734,324.297549 C696.77244,326.323618 698.017289,328.606554 699.860012,331.605252 L699.865788,331.605252 C699.92933,331.602366 699.984208,331.59948 700.044861,331.59948 C705.682785,331.463831 708.934988,331.01648 710.665068,328.10148 C711.886811,326.026346 715.999722,318.415599 718.743589,313.312905 C720.228165,310.550871 721.319935,308.513257 721.319935,308.513257 C721.319935,308.513257 728.745704,295.084054 731.345156,290.151643 C731.602213,289.661 731.830387,289.225193 731.980578,288.925034 C733.254309,286.362143 732.442703,283.842544 730.394912,280.240643 C729.987664,279.521995 729.548646,278.780257 729.048973,277.966366" id="Fill-7" fill="#DF9908"></path>
            <path d="M83.0209432,139.654522 C36.0863867,192.491062 8.89033855,255.70327 2.52168028,326.070215 C-3.70256396,394.844012 7.3508851,483.823666 56.9195532,536.022369 C148.189214,632.136557 317.783262,525.233983 397.782852,467.144671 C413.653953,455.626092 424.649636,437.454963 440.419647,426.005651 C356.009653,487.295691 196.19821,586.907879 99.5534601,494.880463 C49.4822312,447.207225 42.1748818,358.495983 44.5779311,293.996557 C47.2986912,220.980136 77.4696682,152.760478 125.657738,98.5155025 C112.608488,113.200176 96.1135182,124.915012 83.0209432,139.654522" id="Fill-9" fill="#136699"></path>
            <path d="M1243.21603,499.140692 L1243.27091,499.140692 L1243.27091,499.019474 L1243.21603,499.019474 C1243.27091,485.552751 1247.62354,476.530682 1254.99732,470.91137 C1262.75813,465.078484 1274.0051,462.633925 1287.10922,462.633925 C1293.37391,462.633925 1305.06278,464.022157 1314.93203,465.825994 C1316.4686,466.146355 1318.21889,466.452286 1320.18292,466.879435 L1320.18292,466.879435 L1320.18292,528.198336 C1315.45481,529.479781 1310.68626,530.426435 1306.117,531.280732 C1305.0079,531.494306 1303.83237,531.601093 1302.67128,531.803123 C1295.60366,532.870994 1289.39385,533.191355 1284.87947,533.191355 L1284.8246,533.191355 L1284.78416,533.191355 C1274.75316,533.191355 1264.08097,530.533222 1256.06599,524.700336 L1256.11798,524.700336 C1248.46403,519.187811 1243.27091,510.806464 1243.21603,499.140692 M1276.28973,349.286603 C1255.89269,349.286603 1236.09642,353.572519 1221.70989,357.988311 C1218.69164,358.883014 1216.14129,359.737311 1213.96352,360.484821 C1211.58647,361.365093 1209.44914,362.16744 1207.65841,362.860113 L1207.69884,362.91495 L1207.65841,362.91495 L1203.34332,364.66395 L1203.34332,369.226935 L1203.34332,400.527108 L1203.34332,412.034143 L1213.42919,406.573568 C1220.60079,402.703256 1233.38432,397.87186 1246.39602,394.37386 C1249.21499,393.62635 1251.7509,392.985628 1253.98354,392.466123 C1261.5826,390.757529 1268.80908,389.704088 1274.53943,389.704088 L1274.53943,389.756039 L1274.57986,389.756039 C1317.43039,389.756039 1318.96696,406.628405 1319.7699,425.194935 C1316.09601,424.554212 1312.06108,423.913489 1307.65356,423.379553 C1306.54446,423.21793 1304.90103,423.059192 1302.6164,422.860049 C1295.60366,422.112539 1287.75042,421.644984 1279.25599,421.644984 L1279.25599,421.590148 L1279.14912,421.590148 L1279.04226,421.590148 L1279.04226,421.644984 C1259.29797,421.644984 1234.88045,424.98136 1215.19104,436.219984 C1194.74202,448.006974 1179.46013,467.840519 1179.46013,500.728068 L1179.40814,500.728068 L1179.40814,500.834855 L1179.46013,500.834855 C1179.46013,528.198336 1191.66889,546.764865 1209.9286,558.445068 C1227.49512,569.576905 1250.58981,574.13989 1273.41878,574.13989 L1273.41878,574.246677 L1273.41878,574.246677 C1299.42485,574.246677 1327.30253,570.004053 1351.23771,563.530445 C1355.85896,562.260544 1360.42822,560.872311 1364.82419,559.498509 C1369.28369,558.01792 1373.49191,556.534445 1377.31311,554.932638 L1381.72063,553.345261 L1381.72063,548.565816 L1381.72063,456.388321 C1381.72063,423.873083 1377.67414,397.459143 1362.28539,378.679039 C1346.77821,359.737311 1320.44865,349.286603 1276.28973,349.286603" id="Fill-11" fill="#136699"></path>
            <polygon id="Fill-13" fill="#136699" points="1067.13635 292.372238 1062.88769 292.372238 1061.03052 296.24255 972.43252 479.186218 878.941772 296.083812 877.044172 292.372238 872.850389 292.372238 819.861996 292.372238 813.022549 292.372238 813.022549 299.218159 813.022549 561.086174 813.022549 567.986931 819.861996 567.986931 856.340978 567.986931 863.191979 567.986931 863.191979 561.086174 863.191979 405.093268 944.245792 564.171456 946.157833 567.986931 950.351616 567.986931 977.105758 567.986931 981.394854 567.986931 983.263572 564.064669 1060.28246 404.772906 1060.28246 561.086174 1060.28246 561.086174 1060.28246 567.986931 1067.13635 567.986931 1117.88054 567.986931 1124.73443 567.986931 1124.73443 561.086174 1124.73443 299.218159 1124.73443 292.372238 1117.88054 292.372238"></polygon>
            <polygon id="Fill-15" fill="#136699" points="2124.25564 331.680869 2124.25564 331.614488 2124.25564 331.614488"></polygon>
            <path d="M2124.25477,331.614488 L2124.25477,331.614488 C2132.7492,331.614488 2140.28472,328.116488 2145.70603,322.497176 L2145.70603,322.552012 C2151.10422,316.984651 2154.41708,309.295978 2154.41708,300.914631 L2154.41708,300.84825 C2154.41708,292.787265 2151.10422,285.257329 2145.70603,279.799641 C2140.28472,274.272686 2132.7492,270.722735 2124.25477,270.722735 L2124.13635,270.722735 C2115.74878,270.774686 2108.10639,274.23228 2102.60422,279.678423 C2096.9663,285.150542 2093.4657,292.746859 2093.4657,300.914631 L2093.4657,300.969468 C2093.4657,309.336384 2096.9663,317.025057 2102.49735,322.603963 C2108.10639,328.171324 2115.74589,331.614488 2124.25477,331.614488" id="Fill-17" fill="#136699"></path>
            <polygon id="Fill-19" fill="#136699" points="2368.64517 355.012413 2368.64517 355.012413 2364.07591 355.012413 2362.39204 359.257923 2309.40365 490.118334 2255.89537 359.257923 2254.10463 355.012413 2249.52382 355.012413 2200.57902 355.012413 2190.50759 355.012413 2194.22192 364.354844 2274.5941 563.636943 2276.28952 567.986354 2280.96564 567.986354 2323.09699 567.986354 2327.6778 567.986354 2329.36167 563.74373 2410.37505 364.39525 2414.08649 355.012413 2404.01505 355.012413"></polygon>
            <path d="M2496.2624,499.020051 C2496.2624,485.553329 2500.72479,476.528373 2508.05813,470.909061 C2515.79295,465.076175 2527.05146,462.634502 2540.20758,462.634502 C2546.4867,462.634502 2558.16113,464.022735 2568.03327,465.823685 C2569.5294,466.144047 2571.33169,466.452863 2573.24084,466.880012 L2573.24084,466.880012 L2573.24084,528.198913 C2568.55317,529.480358 2563.78461,530.427012 2559.2298,531.281309 C2558.05427,531.494883 2556.89318,531.60167 2555.71765,531.800814 C2548.7049,532.868685 2542.45178,533.189047 2537.97783,533.189047 L2537.8854,533.189047 C2528.12013,533.189047 2517.49992,530.533799 2509.31165,524.700913 C2501.67214,519.188388 2496.2624,510.807042 2496.2624,499.141269 L2496.38081,499.141269 L2496.38081,499.020051 L2496.2624,499.020051 Z M2615.58303,378.610349 C2599.99499,359.737888 2573.547,349.28718 2529.38808,349.28718 C2508.89862,349.28718 2489.46338,353.57021 2475.23571,357.988888 C2472.2579,358.883591 2469.7191,359.737888 2467.59621,360.485398 C2465.27115,361.325264 2463.25513,362.11318 2461.34309,362.86069 L2461.34309,362.912641 L2456.97601,364.661641 L2456.97601,369.227512 L2456.97601,400.527685 L2456.97601,412.245408 L2467.1803,406.519309 C2473.96776,402.637452 2486.60399,397.872438 2499.56081,394.374438 C2502.31045,393.626928 2504.86369,392.986205 2507.09345,392.4667 C2514.74739,390.758106 2521.94787,389.701779 2527.67822,389.701779 L2527.67822,389.756616 C2570.46232,389.756616 2572.49278,406.628982 2573.02711,425.126245 C2569.41965,424.554789 2565.38472,423.914066 2560.91078,423.380131 C2559.74969,423.218507 2558.05138,423.059769 2555.82163,422.85774 C2548.82332,422.11023 2540.75347,421.642675 2532.3659,421.642675 L2532.3659,421.590725 L2532.24748,421.590725 L2532.15506,421.590725 L2532.15506,421.642675 C2512.39922,421.642675 2487.99325,424.981938 2468.23741,436.220561 C2447.85482,448.004665 2432.57292,467.841096 2432.57292,500.728646 L2432.4545,500.728646 L2432.4545,500.835433 L2432.57292,500.835433 C2432.57292,528.198913 2444.88855,546.765443 2463.25513,558.442759 C2480.87364,569.574596 2504.0232,574.140467 2526.51713,574.140467 L2526.51713,574.247254 L2526.51713,574.247254 C2552.96512,574.247254 2580.56263,570.001745 2604.67111,563.528136 C2609.22593,562.261121 2613.79519,560.872888 2618.36445,559.499086 C2622.61022,558.122398 2626.85888,556.535022 2630.87937,554.933215 L2630.87937,555.040002 L2630.99779,554.933215 L2635.33887,553.345839 L2635.33887,548.566393 L2635.33887,456.388898 C2635.33887,423.87366 2631.19997,397.390452 2615.58303,378.610349 L2615.58303,378.610349 Z" id="Fill-21" fill="#136699"></path>
            <polygon id="Fill-23" fill="#136699" points="2100.265 355.012413 2093.46599 355.012413 2093.46599 361.858334 2093.46599 561.085597 2093.46599 567.986354 2100.265 567.986354 2148.13825 567.986354 2155.02968 567.986354 2155.02968 561.085597 2155.02968 361.858334 2155.02968 355.012413 2148.13825 355.012413"></polygon>
            <path d="M1554.39387,349.286603 C1533.20833,349.286603 1514.20056,354.905915 1498.97355,361.861509 L1498.97355,361.806672 C1497.06439,362.660969 1495.20723,363.555672 1493.40494,364.450375 L1493.40494,361.858623 L1493.40494,355.012702 L1486.55105,355.012702 L1438.6778,355.012702 L1431.82391,355.012702 L1431.82391,361.858623 L1431.82391,561.085885 L1431.82391,567.986643 L1438.6778,567.986643 L1486.55105,567.986643 L1493.40494,567.986643 L1493.40494,561.085885 L1493.40494,404.400306 C1500.66897,400.154796 1508.04275,396.645251 1515.6447,394.160286 C1524.17957,391.346301 1533.20833,389.756039 1542.98516,389.756039 C1553.59382,389.756039 1562.2471,391.8254 1567.97745,397.190732 C1573.82911,402.703256 1577.16796,411.979306 1577.16796,426.73036 L1577.16796,561.085885 L1577.16796,561.085885 L1577.16796,567.986643 L1584.00741,567.986643 L1631.8951,567.986643 L1638.7461,567.986643 L1638.7461,561.085885 L1638.7461,426.73036 C1638.7461,403.759583 1634.71406,384.604281 1621.80922,370.76236 C1609.06613,357.082063 1588.10877,349.286603 1554.39387,349.286603" id="Fill-25" fill="#136699"></path>
            <path d="M2002.20557,362.019958 C2001.6308,362.395156 2001.09647,362.660681 2000.56214,363.021448 L2000.56214,361.86122 L2000.56214,355.012413 L1993.72269,355.012413 L1945.83789,355.012413 L1938.99844,355.012413 L1938.99844,361.86122 L1938.99844,561.085597 L1938.99844,567.986354 L1945.83789,567.986354 L1993.72269,567.986354 L2000.56214,567.986354 L2000.56214,561.085597 L2000.56214,413.580824 C2003.22225,408.951458 2006.98856,405.612196 2011.39608,403.184953 C2012.29145,402.702968 2013.30523,402.169032 2014.42877,401.741884 C2021.16135,398.818225 2029.01459,397.657998 2036.97469,397.657998 L2036.97469,397.712834 L2037.02668,397.712834 L2037.02957,397.712834 C2039.9554,397.712834 2042.70504,397.712834 2044.20117,397.764785 C2046.1652,397.819621 2048.2361,397.978359 2050.46585,398.24677 L2058.11979,399.193423 L2058.11979,391.4528 L2058.11979,356.120691 L2058.11979,349.165097 L2051.09549,349.341151 C2030.33742,349.753869 2014.36234,354.853676 2002.20557,362.019958" id="Fill-27" fill="#136699"></path>
            <path d="M1741.82796,461.472831 L1741.82796,461.366044 C1741.82796,429.226004 1751.98026,411.300198 1763.86843,401.420945 C1775.54286,391.717747 1788.96758,389.703222 1795.99188,389.703222 L1795.99188,389.755173 C1802.72446,389.755173 1808.98914,390.395896 1814.82636,391.559009 C1819.11545,392.465257 1823.2688,393.628371 1827.30373,395.054123 L1827.30373,395.054123 L1827.30373,528.304257 C1823.36123,529.571272 1819.18188,530.639143 1814.88124,531.386653 C1808.98914,532.549767 1802.67247,533.19049 1795.99188,533.19049 L1795.92545,533.19049 C1788.92715,533.19049 1775.54286,531.173079 1763.86843,521.510287 C1751.98026,511.766683 1741.82796,493.719658 1741.82796,461.579618 L1741.82796,461.472831 Z M1834.14029,273.59098 L1827.30084,273.59098 L1827.30084,280.425356 L1827.30084,353.689985 C1824.10929,352.783737 1820.82243,351.981391 1817.43159,351.355099 C1810.63257,350.073653 1803.51296,349.285737 1795.99188,349.285737 L1795.92545,349.285737 L1795.92545,349.340574 C1756.31846,349.340574 1726.86667,362.541772 1707.26968,383.174777 C1687.63515,403.865504 1678.08361,431.881252 1678.01718,461.472831 C1678.08361,491.078841 1687.63515,519.189831 1707.26968,540.091247 C1726.86667,560.874331 1756.28091,574.14191 1795.92545,574.14191 L1795.92545,574.248698 L1795.99188,574.248698 L1795.99188,574.248698 C1820.0888,574.248698 1845.45657,569.056534 1864.9438,562.675282 C1868.92674,561.408267 1872.53131,560.031579 1875.71131,558.764564 C1878.94329,557.589905 1882.08286,556.10643 1885.00868,554.721084 L1885.06067,554.721084 L1888.87898,552.81046 L1888.87898,548.567836 L1888.87898,280.425356 L1888.87898,273.59098 L1882.02798,273.59098 L1834.14029,273.59098 Z" id="Fill-29" fill="#136699"></path>
        </g>
    </g>
</svg>