<?xml version="1.0" encoding="UTF-8" standalone="no"?>
<svg width="14103px" height="3652px" viewBox="0 0 14103 3652" version="1.1" xmlns="http://www.w3.org/2000/svg" xmlns:xlink="http://www.w3.org/1999/xlink">
    <!-- Generator: Sketch 3.8.3 (29802) - http://www.bohemiancoding.com/sketch -->
    <title>metaboli</title>
    <desc>Created with Sketch.</desc>
    <defs></defs>
    <g id="Page-1" stroke="none" stroke-width="1" fill="none" fill-rule="evenodd">
        <g id="metaboli" transform="translate(0.000000, -1.000000)">
            <path d="M2108.04871,531.131157 C2108.04871,531.131157 683.251219,707.149729 1005.25598,1332.6199 C1327.31328,1958.03753 1651.78772,1307.08407 1770.01728,1772.92904 C1888.24683,2238.77401 1245.76116,1902.02684 1239.82341,2510.36804 C1233.88566,3118.70924 1959.65748,3152.80956 2699.03884,3234.35607 C3438.36765,3315.90259 3711.03128,3184.54544 3692.90274,2843.01687 C3674.82676,2501.4883 2827.83023,2356.62764 2817.84641,1916.73884 C2807.81003,1476.90259 3483.97799,1534.9099 3316.45984,744.087357 C3228.18178,327.369957 2108.04871,531.131157 2108.04871,531.131157 L2108.04871,531.131157 Z" id="Fill-1" fill="#27B80B"></path>
            <path d="M2071.68655,720.900194 C2071.68655,720.900194 1066.73535,627.21628 1293.89373,1227.83368 C1520.99957,1828.45108 1746.68665,1026.85725 1833.28323,1808.32717 C1883.41256,2260.61608 1463.51373,1932.32831 1459.31001,2516.49979 C1455.10629,3100.67128 1967.01399,3028.31977 2488.48514,3106.66117 C3009.95629,3184.95002 3359.91577,3163.93288 3347.14698,2835.96037 C3334.37819,2507.98785 2737.02994,2368.85437 2729.93616,1946.46234 C2722.89494,1524.07031 3199.75414,1579.76574 3081.62968,820.31128 C3019.36211,420.14488 2071.68655,720.900194 2071.68655,720.900194" id="Fill-3" fill="#A2E706"></path>
            <path d="M2179.92177,815.27242 C2179.92177,815.27242 1201.97945,729.627563 1495.08365,1189.85045 C1692.34309,1499.64313 2038.0463,1280.80213 2052.60168,1818.94608 C2063.3737,2217.48365 1681.20324,1971.89833 1678.99629,2489.28785 C1676.73679,3006.72991 2124.01233,2887.51016 2402.50861,2956.86673 C2681.00489,3026.22331 3051.98296,2998.74339 3045.20446,2708.23393 C3038.37342,2417.72448 2535.24099,2315.37099 2531.45764,1941.26585 C2527.6743,1567.16071 2940.00643,1669.04131 2876.89813,996.387649 C2843.68876,641.986077 2179.92177,815.27242 2179.92177,815.27242" id="Fill-5" fill="#FEFEFE"></path>
            <path d="M4474.69961,1074.38227 C4567.70686,821.020609 4729.44489,647.944437 5017.71481,671.641266 C5135.10362,681.309151 5247.97344,745.989409 5360.94835,784.976209 C5484.74783,748.40638 5621.42119,681.256609 5761.72026,672.63958 C5998.4421,658.137751 6220.55602,855.226009 6233.69264,1091.87904 C6250.66515,1398.15135 6237.79126,1706.05249 6237.79126,2021.15201 L6005.1155,2021.15201 C6005.1155,1744.61895 6006.00879,1471.55372 6004.74768,1198.54104 C6004.11712,1063.87369 5965.39037,947.38618 5821.46559,904.35358 C5640.96848,850.339523 5492.41961,959.471037 5487.63788,1153.72198 C5481.75268,1394.47335 5485.74621,1635.43489 5485.48348,1876.34389 C5485.43093,1923.26467 5485.43093,1970.23798 5485.43093,2022.83338 L5238.14725,2022.83338 C5238.14725,1795.42789 5238.51507,1570.49192 5237.93706,1345.50341 C5237.77942,1273.25698 5239.77619,1200.64275 5232.8926,1128.92175 C5218.54742,979.279694 5131.63556,897.943351 4990.81102,894.948409 C4842.62998,891.795837 4738.2727,971.923694 4729.18216,1124.66578 C4716.25572,1340.72201 4721.82565,1557.88164 4719.93398,1774.62092 C4719.25087,1854.90641 4719.82888,1935.24444 4719.82888,2029.19107 L4474.69961,2029.19107 L4474.69961,1074.38227 Z" id="Fill-7" fill="#000000"></path>
            <path d="M10695.923,2058.13693 C10238.1381,1885.90144 10119.4882,1709.98795 10119.2255,1202.21378 C10119.0678,817.81024 10119.2255,433.406697 10119.2255,38.9149257 L10354.5286,38.9149257 C10357.0508,88.2526686 10361.8851,139.009069 10361.9902,189.765469 C10362.6733,536.44324 10356.6304,883.331183 10365.5633,1229.79878 C10368.5585,1346.91681 10389.1567,1471.65355 10436.1858,1577.6325 C10517.2124,1760.21893 10716.9416,1848.17567 10903.5866,1812.34144 C11101.0562,1774.35295 11250.4984,1624.65835 11275.7733,1439.49733 C11303.9382,1233.26661 11210.8258,1052.72935 11027.4912,961.777669 C10866.8041,882.017611 10703.3846,883.909154 10540.7007,956.575926 C10477.6449,738.785783 10513.324,682.985269 10727.083,668.378354 C11003.8978,649.462926 11250.0255,721.709354 11405.4579,964.825154 C11563.1499,1211.51387 11559.5242,1474.43833 11418.9624,1732.37121 C11306.9859,1937.91887 11106.416,2004.54321 10898.4896,2058.13693 L10695.923,2058.13693 Z" id="Fill-9" fill="#000000"></path>
            <path d="M9075.51074,2058.13693 C9035.52288,2043.6351 8996.00794,2027.71461 8955.54716,2014.78907 C8629.65396,1911.06947 8427.98061,1597.17844 8475.48262,1266.42115 C8525.40177,918.850154 8804.47606,661.390154 9151.07257,643.210326 C9499.56074,624.977954 9792.87513,833.520554 9847.31327,1183.40344 C9889.71827,1456.20595 9879.94463,1737.10007 9893.76435,2022.19761 L9636.39175,2022.19761 C9636.39175,1852.32655 9640.49037,1684.6623 9634.92045,1517.3133 C9631.39983,1412.28013 9627.87922,1303.46387 9598.92612,1203.79007 C9537.60439,992.988126 9355.32069,866.097126 9158.21888,876.868411 C8955.28442,888.007497 8771.26669,1047.73778 8730.64827,1248.13624 C8687.98054,1458.99073 8781.88108,1662.48921 8967.63284,1761.58504 C9113.23911,1839.24338 9234.35872,1840.34678 9468.1905,1766.26135 C9534.81942,1952.31561 9525.99162,1965.87167 9278.07738,2058.13693 L9075.51074,2058.13693 Z" id="Fill-11" fill="#000000"></path>
            <path d="M7021.05943,2058.13693 C6948.17748,2034.86044 6872.72075,2017.57384 6802.88649,1987.25661 C6536.21317,1871.39961 6379.36196,1576.1613 6420.13802,1275.6687 C6463.69904,955.052183 6692.59146,711.936383 6990.79267,669.481754 C7320.41666,622.613526 7597.80947,773.464069 7733.58954,1085.25338 C7497.70845,1272.83138 7258.30674,1463.2467 7011.44343,1659.54681 C6962.52267,1601.9073 6919.85493,1551.67633 6872.03765,1495.35038 C7060.62692,1342.6083 7242.70043,1195.1205 7424.87904,1047.58015 C7258.46438,852.278354 6994.31328,849.125783 6797.99967,1031.39695 C6599.6893,1215.45458 6592.70062,1493.56393 6781.50008,1685.87078 C6992.36906,1900.66598 7248.63819,1872.66064 7515.20642,1595.02418 C7570.95822,1629.59738 7629.91536,1666.11467 7697.33248,1707.8337 C7595.76016,1932.29678 7399.60419,2001.39064 7194.67296,2058.13693 L7021.05943,2058.13693 Z" id="Fill-13" fill="#000000"></path>
            <path d="M11905.4744,1348.36174 C11904.7387,1597.78268 12102.944,1811.47448 12340.8744,1817.72708 C12581.0118,1824.08477 12795.559,1605.71665 12797.9761,1352.56517 C12800.3407,1102.30354 12589.4192,876.316711 12351.5939,874.26754 C12112.3498,872.218369 11906.2626,1091.26954 11905.4744,1348.36174 L11905.4744,1348.36174 Z M12258.4815,2058.11065 C12000.3733,1985.86423 11793.8131,1853.61385 11698.9667,1586.53851 C11567.4955,1216.42663 11749.6741,819.728054 12111.5091,692.469254 C12473.2915,565.262997 12870.3852,746.010426 13000.1749,1096.99671 C13135.1143,1462.01194 12945.8944,1872.21403 12580.9067,2005.41017 C12531.4604,2023.48491 12481.6989,2040.56134 12432.0951,2058.11065 L12258.4815,2058.11065 Z" id="Fill-15" fill="#000000"></path>
            <path d="M8323.17668,2058.13693 C8008.89625,1938.39175 7920.19782,1806.66681 7920.09272,1458.72801 C7919.98763,1074.00921 7920.09272,689.290411 7920.09272,294.378297 L8161.96412,294.378297 L8161.96412,681.35644 C8263.11607,686.925983 8343.30198,691.339583 8431.58005,696.226069 L8431.58005,900.985583 C8344.40546,905.399183 8264.167,909.497526 8175.41601,913.963669 C8175.41601,1163.91004 8164.48635,1408.49704 8179.72482,1651.45521 C8188.23735,1787.12087 8309.67224,1827.15853 8469.4135,1836.45861 C8435.31085,1922.05093 8408.19687,1990.09393 8381.03034,2058.13693 L8323.17668,2058.13693 Z" id="Fill-17" fill="#000000"></path>
            <path d="M14023.5489,206.363757 C14006.051,234.264014 13991.7583,264.949043 13970.477,289.644186 C13895.4932,376.444986 13807.3202,384.484043 13718.6218,315.2851 C13633.1287,248.608214 13631.7099,123.818929 13714.313,52.7809857 C13801.0146,-21.7773286 13888.0316,-15.4196429 13965.958,69.2269 C13987.975,93.0813571 14004.5271,121.927386 14023.5489,148.514071 L14023.5489,206.363757 Z" id="Fill-19" fill="#000000"></path>
            <polygon id="Fill-21" fill="#000000" points="13226.1037 2019.57572 13446.2734 2019.57572 13446.2734 33.6658943 13226.1037 33.6658943"></polygon>
            <polygon id="Fill-23" fill="#000000" points="13720.7762 2025.04018 13945.7802 2025.04018 13945.7802 697.439809 13720.7762 697.439809"></polygon>
            <path d="M6447.07859,2405.63437 L6549.01874,2405.63437 L6549.01874,2850.77745 C6549.01874,2928.17308 6540.24348,2989.70077 6522.74551,3035.20288 C6505.19499,3080.81008 6473.61456,3117.85279 6427.89913,3146.38357 C6382.1837,3174.96688 6322.17564,3189.20599 6247.87493,3189.20599 C6175.67608,3189.20599 6116.6664,3176.80588 6070.74079,3151.90057 C6024.86772,3126.99525 5992.07872,3091.05594 5972.47889,3043.87245 C5952.82651,2996.79405 5943.05287,2932.37651 5943.05287,2850.77745 L5943.05287,2405.63437 L6044.99302,2405.63437 L6044.99302,2850.25202 C6044.99302,2917.13908 6051.1935,2966.47682 6063.64701,2998.16017 C6076.10053,3029.89605 6097.48694,3054.32848 6127.7537,3071.50999 C6158.07302,3088.63897 6195.11828,3097.25599 6238.94203,3097.25599 C6313.92584,3097.25599 6367.3656,3080.28465 6399.20876,3046.23688 C6431.10447,3012.29419 6447.07859,2946.93088 6447.07859,2850.25202 L6447.07859,2405.63437 Z" id="Fill-24" fill="#727272"></path>
            <path d="M6706.68442,3176.07553 L6706.68442,2617.96531 L6791.86225,2617.96531 L6791.86225,2697.30502 C6832.84849,2636.04005 6892.01581,2605.35502 6969.46931,2605.35502 C7003.15159,2605.35502 7034.04892,2611.39745 7062.26637,2623.42976 C7090.43128,2635.56716 7111.55496,2651.43511 7125.58487,2671.03359 C7139.56223,2690.68462 7149.38842,2713.96111 7155.01089,2740.91559 C7158.47896,2758.46491 7160.21299,2789.09739 7160.21299,2832.91813 L7160.21299,3176.07553 L7065.68189,3176.07553 L7065.68189,2836.59613 C7065.68189,2798.08222 7062.00364,2769.23619 7054.64713,2750.16313 C7047.23808,2731.03753 7034.20656,2715.80011 7015.44747,2704.39831 C6996.74093,2693.04905 6974.72396,2687.32188 6949.50165,2687.32188 C6909.19851,2687.32188 6874.41275,2700.08979 6845.19691,2725.67816 C6815.92853,2751.26653 6801.32061,2799.81613 6801.32061,2871.27442 L6801.32061,3176.07553 L6706.68442,3176.07553 Z" id="Fill-25" fill="#727272"></path>
            <polygon id="Fill-26" fill="#727272" points="7303.17091 3176.04401 7397.8071 3176.04401 7397.8071 2405.60809 7303.17091 2405.60809"></polygon>
            <path d="M7544.98976,3176.04401 L7639.62595,3176.04401 L7639.62595,2617.93378 L7544.98976,2617.93378 L7544.98976,3176.04401 Z M7544.98976,2514.37181 L7639.62595,2514.37181 L7639.62595,2405.60809 L7544.98976,2405.60809 L7544.98976,2514.37181 Z" id="Fill-27" fill="#727272"></path>
            <path d="M7783.60327,3176.07553 L7783.60327,2617.96531 L7868.20309,2617.96531 L7868.20309,2696.25416 C7885.70106,2668.93188 7909.03169,2646.96896 7938.08989,2630.26033 C7967.20063,2613.65679 8000.30491,2605.35502 8037.45526,2605.35502 C8078.75678,2605.35502 8112.7018,2613.91951 8139.18522,2631.10102 C8165.6161,2648.22999 8184.27009,2672.24208 8195.09467,2703.08473 C8239.28625,2637.93159 8296.71954,2605.35502 8367.49963,2605.35502 C8422.88361,2605.35502 8465.44625,2620.69753 8495.24009,2651.33002 C8524.98139,2682.01505 8539.90459,2729.19853 8539.90459,2792.93302 L8539.90459,3176.07553 L8445.84641,3176.07553 L8445.84641,2824.51128 C8445.84641,2786.68042 8442.74617,2759.41068 8436.65078,2742.75459 C8430.50284,2726.15105 8419.36299,2712.75262 8403.23123,2702.55931 C8387.09946,2692.41853 8368.18273,2687.32188 8346.48104,2687.32188 C8307.22883,2687.32188 8274.65002,2700.35251 8248.74461,2726.46631 C8222.78665,2752.58011 8209.80768,2794.35168 8209.80768,2851.83356 L8209.80768,3176.07553 L8115.27658,3176.07553 L8115.27658,2813.47728 C8115.27658,2771.44299 8107.4997,2739.86473 8092.10359,2718.84759 C8076.65493,2697.83045 8051.48517,2687.32188 8016.43667,2687.32188 C7989.79561,2687.32188 7965.15132,2694.31008 7942.55634,2708.33902 C7920.0139,2722.36796 7903.56686,2742.85968 7893.42539,2769.86671 C7883.23138,2796.82119 7878.18691,2835.70291 7878.18691,2886.51185 L7878.18691,3176.07553 L7783.60327,3176.07553 Z" id="Fill-28" fill="#727272"></path>
            <path d="M8680.72913,3176.04401 L8775.36532,3176.04401 L8775.36532,2617.93378 L8680.72913,2617.93378 L8680.72913,3176.04401 Z M8680.72913,2514.37181 L8775.36532,2514.37181 L8775.36532,2405.60809 L8680.72913,2405.60809 L8680.72913,2514.37181 Z" id="Fill-29" fill="#727272"></path>
            <path d="M9125.89755,3091.46052 L9139.55963,3175.0562 C9112.91857,3180.62575 9089.11502,3183.41052 9068.04389,3183.41052 C9033.73105,3183.41052 9007.08999,3177.94606 8988.17326,3167.12223 C8969.30908,3156.24586 8955.96227,3142.00675 8948.23794,3124.2998 C8940.56616,3106.59286 8936.67772,3069.39252 8936.67772,3012.64623 L8936.67772,2691.55683 L8867.31638,2691.55683 L8867.31638,2617.94429 L8936.67772,2617.94429 L8936.67772,2479.70403 L9030.7359,2422.95775 L9030.7359,2617.94429 L9125.89755,2617.94429 L9125.89755,2691.55683 L9030.7359,2691.55683 L9030.7359,3017.90052 C9030.7359,3044.855 9032.41738,3062.19415 9035.72781,3069.91795 C9039.09079,3077.5892 9044.50307,3083.78926 9052.06976,3088.30795 C9059.58391,3092.82663 9070.35593,3095.13852 9084.38584,3095.13852 C9094.89514,3095.13852 9108.71486,3093.93003 9125.89755,3091.46052" id="Fill-30" fill="#727272"></path>
            <path d="M9289.90033,2843.42145 L9601.55344,2843.42145 C9597.34972,2796.44814 9585.42167,2761.29697 9565.82184,2737.75777 C9535.66017,2701.34557 9496.61814,2683.11319 9448.64322,2683.11319 C9405.13474,2683.11319 9368.61494,2697.66757 9339.03128,2726.72377 C9309.39507,2755.83251 9293.05312,2794.71422 9289.90033,2843.42145 M9600.50251,2996.32117 L9698.23894,3008.45857 C9682.84283,3065.57265 9654.31009,3109.81374 9612.5882,3141.39199 C9570.91885,3172.91771 9517.63673,3188.68057 9452.84693,3188.68057 C9371.18972,3188.68057 9306.39993,3163.56508 9258.58264,3113.28157 C9210.76535,3062.99805 9186.85671,2992.48554 9186.85671,2901.74402 C9186.85671,2807.84994 9211.02809,2734.97299 9259.42338,2683.11319 C9307.76613,2631.25339 9370.45407,2605.34977 9447.53974,2605.34977 C9522.20827,2605.34977 9583.16217,2630.72797 9630.454,2681.53691 C9677.74582,2732.34585 9701.39173,2803.80414 9701.39173,2895.96431 C9701.39173,2901.53385 9701.23409,2909.99325 9700.86626,2921.18488 L9284.59314,2921.18488 C9288.11375,2982.50239 9305.45409,3029.42317 9336.66669,3061.99974 C9367.82675,3094.57631 9406.76368,3110.91714 9453.31985,3110.91714 C9488.05307,3110.91714 9517.63673,3101.77468 9542.17593,3083.54231 C9566.71513,3065.36248 9586.15732,3036.30628 9600.50251,2996.32117" id="Fill-31" fill="#727272"></path>
            <path d="M9880.12329,2897.55636 C9880.12329,2969.01464 9895.15158,3022.45073 9925.31325,3057.86461 C9955.47492,3093.22596 9990.99633,3110.9329 10032.0351,3110.9329 C10073.3367,3110.9329 10108.4902,3094.0141 10137.3908,3060.22904 C10166.2914,3026.39144 10180.7416,2974.79436 10180.7416,2905.38524 C10180.7416,2829.04047 10166.0286,2772.97724 10136.6026,2737.2481 C10107.124,2701.51896 10070.9195,2683.65439 10027.8314,2683.65439 C9985.74169,2683.65439 9950.64065,2700.8359 9922.42319,2735.14639 C9894.25829,2769.45687 9880.12329,2823.62856 9880.12329,2897.55636 L9880.12329,2897.55636 Z M10179.1652,3176.08604 L10179.1652,3105.67861 C10143.8015,3161.00624 10091.7279,3188.69633 10023.1022,3188.69633 C9978.54282,3188.69633 9937.66167,3176.45384 9900.35368,3151.91633 C9863.04568,3127.37881 9834.14513,3093.12087 9813.59946,3049.19504 C9793.15888,3005.21667 9782.85977,2954.67044 9782.85977,2897.55636 C9782.85977,2841.80839 9792.1605,2791.3147 9810.76195,2745.91767 C9829.31085,2700.57319 9857.16048,2665.78981 9894.31083,2641.6201 C9931.46119,2617.45039 9972.9729,2605.31299 10018.8985,2605.31299 C10052.4757,2605.31299 10082.4797,2612.40627 10108.753,2626.64539 C10135.0262,2640.77941 10156.4126,2659.32704 10172.8597,2682.02556 L10172.8597,2405.65013 L10266.9178,2405.65013 L10266.9178,3176.08604 L10179.1652,3176.08604 Z" id="Fill-32" fill="#727272"></path>
            <path d="M10775.7253,2887.03728 C10775.7253,2960.28202 10790.2281,3013.66556 10819.3389,3047.34553 C10848.4496,3080.92042 10884.8643,3097.78668 10928.6355,3097.78668 C10972.0914,3097.78668 11008.5587,3081.02551 11037.9847,3047.60825 C11067.4107,3014.13845 11082.1238,2961.64813 11082.1238,2890.18985 C11082.1238,2821.88413 11066.9904,2770.33959 11036.6711,2735.66131 C11006.3517,2700.98302 10969.8319,2683.64388 10927.1117,2683.64388 C10885.0219,2683.64388 10849.2903,2700.72031 10819.8643,2734.87316 C10790.4383,2769.02602 10775.7253,2819.78242 10775.7253,2887.03728 M10697.4311,3222.31325 L10789.3874,3236.02693 C10793.2233,3264.40008 10803.8902,3284.99688 10821.4407,3297.97496 C10844.8764,3315.52428 10876.9823,3324.24639 10917.6008,3324.24639 C10961.4245,3324.24639 10995.2644,3315.52428 11019.068,3297.97496 C11042.8715,3280.47819 11059.0033,3255.94068 11067.4107,3224.41496 C11072.3501,3205.18428 11074.5571,3164.67373 11074.2418,3102.98842 C11032.9403,3151.69565 10981.3922,3176.07553 10919.7026,3176.07553 C10842.9848,3176.07553 10783.5547,3148.43799 10741.5701,3093.05782 C10699.5329,3037.67765 10678.4618,2971.31602 10678.4618,2893.86785 C10678.4618,2840.58939 10688.1303,2791.46182 10707.3623,2746.43259 C10726.6469,2701.45591 10754.6016,2666.67253 10791.2265,2642.13502 C10827.7988,2617.59751 10870.8869,2605.35502 10920.2281,2605.35502 C10986.1214,2605.35502 11040.4019,2631.99425 11083.1747,2685.22016 L11083.1747,2617.96531 L11170.4544,2617.96531 L11170.4544,3100.41382 C11170.4544,3187.26716 11161.574,3248.89993 11143.8659,3285.10196 C11126.2102,3321.40908 11098.1504,3350.04493 11059.7915,3371.06208 C11021.4326,3392.07922 10974.1933,3402.58779 10918.1262,3402.58779 C10851.5498,3402.58779 10797.7948,3387.56053 10756.8086,3357.66365 C10715.7698,3327.71422 10695.9598,3282.57991 10697.4311,3222.31325" id="Fill-33" fill="#727272"></path>
            <path d="M11669.6826,2895.96431 C11635.3698,2909.99325 11583.8217,2921.86794 11515.196,2931.69345 C11476.259,2937.31554 11448.7772,2943.62068 11432.6455,2950.60888 C11416.5663,2957.64962 11404.0602,2967.84294 11395.2849,2981.34645 C11386.5622,2994.84997 11382.1483,3009.82468 11382.1483,3026.27059 C11382.1483,3051.54371 11391.7118,3072.50831 11410.8387,3089.37457 C11429.9656,3106.18828 11457.8678,3114.59514 11494.6503,3114.59514 C11531.065,3114.59514 11563.4862,3106.60862 11591.9138,3090.68814 C11620.2889,3074.71511 11641.0973,3052.90982 11654.4441,3025.21974 C11664.5856,3003.88734 11669.6826,2972.36162 11669.6826,2930.64259 L11669.6826,2895.96431 Z M11677.5646,3107.23914 C11642.5161,3137.03094 11608.7812,3157.99554 11576.4126,3170.29057 C11543.9389,3182.53305 11509.2057,3188.68057 11472.0553,3188.68057 C11410.7336,3188.68057 11363.5994,3173.70585 11330.7053,3143.75642 C11297.7587,3113.80699 11281.2591,3075.50325 11281.2591,3028.89774 C11281.2591,3001.62799 11287.5121,2976.61759 11299.9656,2954.02417 C11312.3666,2931.43074 11328.656,2913.30345 11348.8339,2899.64231 C11368.9592,2885.98117 11391.6592,2875.63022 11416.829,2868.58948 C11435.4304,2863.75554 11463.4377,2859.02668 11500.9559,2854.45545 C11577.3585,2845.31299 11633.5832,2834.48917 11669.6826,2821.87888 C11670.0504,2808.90079 11670.2081,2800.70411 11670.2081,2797.13119 C11670.2081,2758.61728 11661.2752,2731.45262 11643.4094,2715.68977 C11619.238,2694.30482 11583.2962,2683.63862 11535.6366,2683.63862 C11491.1822,2683.63862 11458.3407,2691.41497 11437.1119,2707.02019 C11415.9357,2722.62542 11400.2243,2750.21042 11390.0828,2789.77519 L11297.5485,2777.16491 C11305.9559,2737.60014 11319.8282,2705.65408 11339.1128,2681.27419 C11358.3448,2656.89431 11386.1944,2638.18905 11422.6616,2625.05334 C11459.0764,2611.91762 11501.3237,2605.34977 11549.2986,2605.34977 C11596.9583,2605.34977 11635.7376,2610.91931 11665.4789,2622.16348 C11695.2202,2633.35511 11717.1321,2647.48914 11731.162,2664.46048 C11745.1919,2681.43182 11754.9655,2702.92185 11760.588,2728.82548 C11763.7408,2744.95614 11765.3172,2774.06488 11765.3172,2816.04662 L11765.3172,2942.20202 C11765.3172,3030.15877 11767.3139,3085.74911 11771.4126,3109.07814 C11775.4061,3132.35462 11783.3932,3154.73788 11795.3212,3176.07028 L11696.4813,3176.07028 C11686.6551,3156.47179 11680.3495,3133.51057 11677.5646,3107.23914 L11677.5646,3107.23914 Z" id="Fill-34" fill="#727272"></path>
            <path d="M11911.9901,3176.07553 L11911.9901,2617.96531 L11996.5899,2617.96531 L11996.5899,2696.25416 C12014.0879,2668.93188 12037.4185,2646.96896 12066.4767,2630.26033 C12095.5875,2613.65679 12128.6918,2605.35502 12165.8421,2605.35502 C12207.1436,2605.35502 12241.0887,2613.91951 12267.5721,2631.10102 C12294.003,2648.22999 12312.6569,2672.24208 12323.4815,2703.08473 C12367.6731,2637.93159 12425.1064,2605.35502 12495.8865,2605.35502 C12551.2705,2605.35502 12593.8331,2620.69753 12623.6269,2651.33002 C12653.3682,2682.01505 12668.2914,2729.19853 12668.2914,2792.93302 L12668.2914,3176.07553 L12574.2333,3176.07553 L12574.2333,2824.51128 C12574.2333,2786.68042 12571.133,2759.41068 12565.0376,2742.75459 C12558.8897,2726.15105 12547.7498,2712.75262 12531.6181,2702.55931 C12515.4863,2692.41853 12496.5696,2687.32188 12474.8679,2687.32188 C12435.6157,2687.32188 12403.0369,2700.35251 12377.1315,2726.46631 C12351.1735,2752.58011 12338.1945,2794.35168 12338.1945,2851.83356 L12338.1945,3176.07553 L12243.6634,3176.07553 L12243.6634,2813.47728 C12243.6634,2771.44299 12235.8866,2739.86473 12220.4904,2718.84759 C12205.0418,2697.83045 12179.872,2687.32188 12144.8235,2687.32188 C12118.1825,2687.32188 12093.5382,2694.31008 12070.9432,2708.33902 C12048.4008,2722.36796 12031.9537,2742.85968 12021.8122,2769.86671 C12011.6182,2796.82119 12006.5738,2835.70291 12006.5738,2886.51185 L12006.5738,3176.07553 L11911.9901,3176.07553 Z" id="Fill-35" fill="#727272"></path>
            <path d="M12809.1475,3176.04401 L12903.7837,3176.04401 L12903.7837,2617.93378 L12809.1475,2617.93378 L12809.1475,3176.04401 Z M12809.1475,2514.37181 L12903.7837,2514.37181 L12903.7837,2405.60809 L12809.1475,2405.60809 L12809.1475,2514.37181 Z" id="Fill-36" fill="#727272"></path>
            <path d="M13047.7926,3176.07553 L13047.7926,2617.96531 L13132.9178,2617.96531 L13132.9178,2697.30502 C13173.9041,2636.04005 13233.1239,2605.35502 13310.5774,2605.35502 C13344.2072,2605.35502 13375.1045,2611.39745 13403.3745,2623.42976 C13431.5394,2635.56716 13452.6631,2651.43511 13466.693,2671.03359 C13480.6704,2690.68462 13490.4965,2713.96111 13496.0665,2740.91559 C13499.5871,2758.46491 13501.3737,2789.09739 13501.3737,2832.91813 L13501.3737,3176.07553 L13406.7375,3176.07553 L13406.7375,2836.59613 C13406.7375,2798.08222 13403.0592,2769.23619 13395.7027,2750.16313 C13388.3462,2731.03753 13375.2621,2715.80011 13356.5556,2704.39831 C13337.8491,2693.04905 13315.8321,2687.32188 13290.6098,2687.32188 C13250.3066,2687.32188 13215.5209,2700.08979 13186.305,2725.67816 C13156.9841,2751.26653 13142.3762,2799.81613 13142.3762,2871.27442 L13142.3762,3176.07553 L13047.7926,3176.07553 Z" id="Fill-37" fill="#727272"></path>
            <path d="M13707.3979,2887.03728 C13707.3979,2960.28202 13721.9007,3013.66556 13751.0114,3047.34553 C13780.1222,3080.92042 13816.5369,3097.78668 13860.3081,3097.78668 C13903.764,3097.78668 13940.2313,3081.02551 13969.6573,3047.60825 C13999.0833,3014.13845 14013.7963,2961.64813 14013.7963,2890.18985 C14013.7963,2821.88413 13998.6629,2770.33959 13968.3436,2735.66131 C13938.0243,2700.98302 13901.5045,2683.64388 13858.7842,2683.64388 C13816.6945,2683.64388 13780.9629,2700.72031 13751.5369,2734.87316 C13722.1109,2769.02602 13707.3979,2819.78242 13707.3979,2887.03728 M13629.1036,3222.31325 L13721.0599,3236.02693 C13724.8958,3264.40008 13735.5628,3284.99688 13753.1133,3297.97496 C13776.549,3315.52428 13808.6549,3324.24639 13849.2733,3324.24639 C13893.0971,3324.24639 13926.937,3315.52428 13950.7406,3297.97496 C13974.5441,3280.47819 13990.6759,3255.94068 13999.0833,3224.41496 C14004.0227,3205.18428 14006.2296,3164.67373 14005.9143,3102.98842 C13964.6128,3151.69565 13913.0647,3176.07553 13851.3752,3176.07553 C13774.6573,3176.07553 13715.2273,3148.43799 13673.2427,3093.05782 C13631.2055,3037.67765 13610.1343,2971.31602 13610.1343,2893.86785 C13610.1343,2840.58939 13619.8029,2791.46182 13639.0349,2746.43259 C13658.3195,2701.45591 13686.2742,2666.67253 13722.8991,2642.13502 C13759.4714,2617.59751 13802.5595,2605.35502 13851.9006,2605.35502 C13917.7939,2605.35502 13972.0744,2631.99425 14014.8472,2685.22016 L14014.8472,2617.96531 L14102.1269,2617.96531 L14102.1269,3100.41382 C14102.1269,3187.26716 14093.2466,3248.89993 14075.5384,3285.10196 C14057.8828,3321.40908 14029.823,3350.04493 13991.4641,3371.06208 C13953.1051,3392.07922 13905.8659,3402.58779 13849.7988,3402.58779 C13783.2224,3402.58779 13729.4674,3387.56053 13688.4811,3357.66365 C13647.4423,3327.71422 13627.6323,3282.57991 13629.1036,3222.31325" id="Fill-38" fill="#727272"></path>
            <path d="M2553.49563,1930.55761 C2553.49563,1930.55761 2588.54413,1230.0037 3096.45829,1230.0037 C3604.425,1230.0037 3867.15734,1772.92904 3884.65532,1930.55761 C3902.20584,2088.18619 3516.83004,2491.03227 3061.46234,2508.52904 C2606.0421,2526.02581 2513.56032,2159.53939 2553.49563,1930.55761" id="Fill-39" fill="#27B80B"></path>
            <path d="M2716.57885,1915.5251 C2716.57885,1915.5251 2742.95718,1387.62702 3125.7582,1387.62702 C3508.50668,1387.62702 3706.50177,1796.7257 3719.69093,1915.5251 C3732.8801,2034.3245 3442.50831,2337.86459 3099.32733,2351.05285 C2756.19889,2364.2411 2686.46972,2088.07585 2716.57885,1915.5251" id="Fill-40" fill="#A2E706"></path>
            <path d="M2843.41552,1903.83432 C2843.41552,1903.83432 2863.12044,1510.23577 3148.50031,1510.23577 C3433.88018,1510.23577 3581.48321,1815.24706 3591.36195,1903.83432 C3601.18814,1992.42157 3384.69669,2218.72366 3128.79539,2228.54917 C2872.94663,2238.42723 2820.97817,2032.45923 2843.41552,1903.83432" id="Fill-41" fill="#FEFEFE"></path>
            <path d="M473.333333,2158.72497 C473.333333,2158.72497 884.92982,2342.62497 1060.11975,2027.36783 C1235.25712,1712.11069 1156.43742,1650.79317 1060.11975,1510.71391 C963.749522,1370.58211 578.42627,1169.18534 350.742422,1554.48211 C123.006028,1939.77889 473.333333,2158.72497 473.333333,2158.72497" id="Fill-42" fill="#27B80B"></path>
            <path d="M546.58311,2043.27255 C546.58311,2043.27255 835.431046,2172.31781 958.337236,1951.11238 C1081.24343,1729.90695 1025.91199,1686.87435 958.337236,1588.56667 C890.709931,1490.25898 620.305805,1348.91869 460.564541,1619.30424 C300.77073,1889.63724 546.58311,2043.27255 546.58311,2043.27255" id="Fill-43" fill="#A2E706"></path>
            <path d="M616.753664,1932.66984 C616.753664,1932.66984 787.950058,2009.17224 860.779463,1878.02527 C933.661414,1746.93084 900.872418,1721.39501 860.779463,1663.12498 C820.739054,1604.85495 660.472325,1521.10164 565.783589,1681.35735 C471.042307,1841.61307 616.753664,1932.66984 616.753664,1932.66984" id="Fill-44" fill="#FEFEFE"></path>
            <path d="M406.56779,2960.00354 C54.0335335,2580.95937 577.553998,1856.60354 1031.18766,1869.73926 C1484.87387,1882.87497 998.819035,2329.48926 1406.05417,2618.47497 C1813.2893,2907.46069 2181.11457,2973.13926 1918.38223,3196.4464 C1655.64989,3419.75354 944.065615,3537.97497 406.56779,2960.00354" id="Fill-45" fill="#27B80B"></path>
            <path d="M539.746814,2911.93208 C291.044379,2622.31585 660.393506,2068.88194 980.454045,2078.91763 C1300.51458,2088.95331 957.596331,2430.16663 1244.92042,2651.00425 C1532.24451,2871.78934 1791.71897,2921.96777 1606.38758,3092.57443 C1421.00364,3263.18108 918.974677,3353.50225 539.746814,2911.93208" id="Fill-46" fill="#A2E706"></path>
            <path d="M636.794887,2878.0577 C458.662359,2661.26587 723.181281,2246.96545 952.441522,2254.47907 C1181.70176,2261.9927 936.047024,2517.45607 1141.87154,2682.70336 C1347.64351,2848.00319 1533.50037,2885.57133 1400.76799,3013.30302 C1267.98307,3141.0347 908.407582,3208.65736 636.794887,2878.0577" id="Fill-47" fill="#FEFEFE"></path>
            <path d="M290.849957,674.389257 C290.849957,674.389257 -12.7109907,621.8464 0.425626394,884.560686 C13.5622435,1147.27497 366.0965,1173.5464 406.557281,1147.27497 C447.070608,1121.00354 657.046296,1121.00354 578.331686,845.153543 C499.617076,569.303543 290.849957,674.389257 290.849957,674.389257" id="Fill-48" fill="#27B80B"></path>
            <path d="M293.335405,755.573226 C293.335405,755.573226 96.6014275,721.525454 105.113955,891.764311 C113.626483,1062.00317 342.098528,1079.02705 368.319216,1062.00317 C394.539903,1044.97928 530.635257,1044.97928 479.612636,866.228483 C428.590015,687.477683 293.335405,755.573226 293.335405,755.573226" id="Fill-49" fill="#FEFEFE"></path>
            <path d="M3852.89623,1118.18725 C3852.89623,1235.93579 3757.47184,1331.35362 3639.71521,1331.35362 C3521.95857,1331.35362 3426.53419,1235.93579 3426.53419,1118.18725 C3426.53419,1000.4387 3521.95857,905.020874 3639.71521,905.020874 C3757.47184,905.020874 3852.89623,1000.4387 3852.89623,1118.18725" id="Fill-50" fill="#27B80B"></path>
            <path d="M3790.45526,1118.18725 C3790.45526,1201.41513 3722.9856,1268.9327 3639.69944,1268.9327 C3556.46584,1268.9327 3488.94363,1201.41513 3488.94363,1118.18725 C3488.94363,1034.95936 3556.46584,967.441789 3639.69944,967.441789 C3722.9856,967.441789 3790.45526,1034.95936 3790.45526,1118.18725" id="Fill-51" fill="#FEFEFE"></path>
            <path d="M2597.76603,3516.33257 C2597.76603,3591.41631 2536.86467,3652.31348 2461.77577,3652.31348 C2386.68687,3652.31348 2325.83806,3591.41631 2325.83806,3516.33257 C2325.83806,3441.24883 2386.68687,3380.35165 2461.77577,3380.35165 C2536.86467,3380.35165 2597.76603,3441.24883 2597.76603,3516.33257" id="Fill-52" fill="#27B80B"></path>
            <path d="M2557.94106,3516.33257 C2557.94106,3569.4534 2514.90551,3612.486 2461.78103,3612.486 C2408.70909,3612.486 2365.67354,3569.4534 2365.67354,3516.33257 C2365.67354,3463.21174 2408.70909,3420.17914 2461.78103,3420.17914 C2514.90551,3420.17914 2557.94106,3463.21174 2557.94106,3516.33257" id="Fill-53" fill="#FEFEFE"></path>
        </g>
    </g>
</svg>