<?xml version="1.0" encoding="UTF-8" standalone="no"?>
<svg width="391px" height="65px" viewBox="0 0 391 65" version="1.1" xmlns="http://www.w3.org/2000/svg" xmlns:xlink="http://www.w3.org/1999/xlink">
    <!-- Generator: Sketch 3.8.3 (29802) - http://www.bohemiancoding.com/sketch -->
    <title>netbooster</title>
    <desc>Created with Sketch.</desc>
    <defs>
        <polygon id="path-1" points="269.528 64.9572 269.528 0.0292 0.3194 0.0292 0.3194 64.9572"></polygon>
    </defs>
    <g id="Page-1" stroke="none" stroke-width="1" fill="none" fill-rule="evenodd">
        <g id="netbooster" transform="translate(0.000000, -1.000000)">
            <polygon id="Fill-1" fill="#E44792" points="41.5521 1.2148 41.5521 52.2168 10.0731 1.2148 0.0001 1.2148 0.0001 64.3378 8.1651 64.3378 8.1651 13.3968 40.1101 64.3378 49.7161 64.3378 49.7161 1.2148"></polygon>
            <g id="Group-9" transform="translate(51.000000, 0.970700)">
                <path d="M9.4453,36.6826 C9.5873,32.7296 10.8513,29.4716 13.2373,26.9076 C15.6233,24.3436 18.5773,23.0616 22.0993,23.0616 C27.0133,23.0616 30.5223,24.9236 32.6243,28.6476 C33.7603,30.6526 34.4843,33.3306 34.7973,36.6826 L9.4453,36.6826 Z M42.0633,32.6866 C41.5503,29.5926 40.5263,26.8856 38.9883,24.5656 C37.3933,22.1306 35.0733,20.1466 32.0273,18.6136 C28.9803,17.0816 25.8353,16.3146 22.5893,16.3146 C16.1543,16.3146 10.9443,18.6216 6.9593,23.2336 C2.9723,27.8456 0.9803,33.8466 0.9803,41.2376 C0.9803,48.7436 2.9583,54.5796 6.9153,58.7476 C10.8723,62.9156 15.6973,64.9996 21.3913,64.9996 C23.7223,64.9996 25.8123,64.7706 27.6603,64.3126 C31.1003,63.5096 33.9863,61.9636 36.3173,59.6716 C37.7103,58.3546 38.9723,56.6576 40.1043,54.5796 C41.2353,52.5036 41.9013,50.6206 42.1023,48.9296 L34.4963,48.9296 C33.9393,50.9726 32.9923,52.7716 31.6563,54.3256 C29.2693,57.0016 26.0713,58.3396 22.0633,58.3396 C17.7723,58.3396 14.6033,56.9246 12.5563,54.0956 C10.5093,51.2666 9.4153,47.5096 9.2733,42.8276 L42.7473,42.8276 C42.7473,38.1866 42.5183,34.8076 42.0633,32.6866 L42.0633,32.6866 Z" id="Fill-2" fill="#E44792"></path>
                <path d="M53.9912,4.4985 L46.1702,4.4985 L46.1702,17.3465 L39.9402,17.3465 L39.9402,23.6635 L46.1702,23.6635 L46.1702,54.1285 C46.1702,57.0795 46.8152,59.4785 48.1042,61.3265 C49.3932,63.1735 51.8432,64.0975 55.4522,64.0975 C56.5692,64.0975 57.6072,64.0405 58.5672,63.9255 C59.5272,63.8105 60.4502,63.6245 61.3392,63.3675 L61.3392,57.2225 C60.7652,57.2985 60.2642,57.3475 59.8352,57.3665 C59.4052,57.3845 59.0042,57.3945 58.6322,57.3945 C57.2282,57.3945 56.2252,57.2375 55.6242,56.9215 C54.5352,56.3775 53.9912,55.3035 53.9912,53.6995 L53.9912,23.6635 L61.3392,23.6635 L61.3392,17.3465 L53.9912,17.3465 L53.9912,4.4985 Z" id="Fill-4" fill="#E44792"></path>
                <g id="Group-8" transform="translate(70.000000, 0.000000)">
                    <mask id="mask-2" fill="white">
                        <use xlink:href="#path-1"></use>
                    </mask>
                    <g id="Clip-7"></g>
                    <path d="M232.2744,49.6602 C231.5454,51.0352 230.7054,52.1092 229.7534,52.8832 C228.0104,54.3152 225.7444,55.0312 222.9544,55.0312 C220.3234,55.0312 218.0724,54.4442 216.2024,53.2692 C213.1274,51.3792 211.4944,48.0842 211.3034,43.3862 L242.3284,43.3862 L242.3284,49.6602 L232.2744,49.6602 Z M214.8674,28.0582 C216.5974,26.2742 219.0344,25.3822 222.1774,25.3822 C225.0674,25.3822 227.4884,26.2232 229.4404,27.9072 C231.3934,29.5902 232.4804,32.0562 232.7034,35.3072 L211.6044,35.3072 C212.0494,32.2582 213.1364,29.8422 214.8674,28.0582 L214.8674,28.0582 Z M201.5494,54.7302 C199.0574,54.7302 197.5674,54.4942 197.0814,54.0212 C196.5924,53.5492 196.3504,52.3522 196.3504,50.4332 L196.3504,25.6822 L202.4384,25.6822 C200.1354,29.5932 198.9714,34.5062 198.9714,40.4432 C198.9714,46.3192 200.0964,51.0592 202.2904,54.7172 C202.0404,54.7222 201.7834,54.7302 201.5494,54.7302 L201.5494,54.7302 Z M155.7334,44.3742 C163.1264,46.1222 167.3974,47.3532 168.5454,48.0702 C169.6924,48.7862 170.2674,49.8322 170.2674,51.2072 C170.2674,52.6392 169.5544,53.7142 168.1294,54.4302 C166.7054,55.1462 164.7834,55.5042 162.3654,55.5042 C158.2494,55.5042 155.4294,54.6872 153.9034,53.0552 C153.0404,52.1382 152.4794,50.5912 152.2194,48.4142 L141.9614,48.4142 C142.7114,45.7992 143.1094,43.0062 143.1094,40.0132 C143.1094,39.2502 143.0764,38.5012 143.0264,37.7612 C143.4414,38.3742 143.9264,38.9332 144.4844,39.4332 C146.6614,41.4102 150.4114,43.0572 155.7334,44.3742 L155.7334,44.3742 Z M127.3824,50.8692 C125.4634,53.4152 122.7134,54.6872 119.1324,54.6872 C115.5514,54.6872 112.7944,53.4152 110.8604,50.8692 C108.9274,48.3232 107.9604,44.7042 107.9604,40.0132 C107.9604,35.3222 108.9274,31.7102 110.8604,29.1792 C112.7944,26.6482 115.5514,25.3822 119.1324,25.3822 C122.7134,25.3822 125.4634,26.6482 127.3824,29.1792 C129.3014,31.7102 130.2614,35.3222 130.2614,40.0132 C130.2614,44.7042 129.3014,48.3232 127.3824,50.8692 L127.3824,50.8692 Z M82.7794,50.8692 C80.8594,53.4152 78.1094,54.6872 74.5294,54.6872 C70.9474,54.6872 68.1914,53.4152 66.2574,50.8692 C64.3234,48.3232 63.3574,44.7042 63.3574,40.0132 C63.3574,35.3222 64.3234,31.7102 66.2574,29.1792 C68.1914,26.6482 70.9474,25.3822 74.5294,25.3822 C78.1094,25.3822 80.8594,26.6482 82.7794,29.1792 C84.6984,31.7102 85.6584,35.3222 85.6584,40.0132 C85.6584,44.7042 84.6984,48.3232 82.7794,50.8692 L82.7794,50.8692 Z M34.7444,51.2502 C33.2144,51.9952 31.0764,52.3672 28.3304,52.3672 L12.9534,52.3672 L12.9534,35.4792 L28.5424,35.4792 C31.2614,35.5092 33.3704,35.8662 34.8724,36.5542 C37.5614,37.7862 38.9074,40.0492 38.9074,43.3432 C38.9074,47.2392 37.5194,49.8752 34.7444,51.2502 L34.7444,51.2502 Z M12.9534,11.0302 L26.7314,11.0302 C29.7644,11.0302 32.2594,11.3592 34.2154,12.0182 C36.4834,12.9632 37.6184,14.9112 37.6184,17.8622 C37.6184,20.5262 36.7594,22.3812 35.0454,23.4272 C33.3294,24.4732 31.0974,24.9952 28.3474,24.9952 L12.9534,24.9952 L12.9534,11.0302 Z M268.4754,15.4342 C268.3174,15.4202 268.1244,15.4122 267.8954,15.4122 C264.2284,15.4122 261.2494,16.3732 258.9584,18.2912 C257.5534,19.4382 255.9074,21.5722 254.0154,24.6942 L254.0154,16.5302 L242.3284,16.5302 L242.3284,26.1072 C242.0024,25.5252 241.6594,24.9552 241.2814,24.4082 C239.1534,21.2522 236.4554,18.9422 233.1874,17.4782 C229.9204,16.0152 226.2494,15.2842 222.1724,15.2842 C215.3084,15.2842 209.7244,17.4492 205.4234,21.7782 C204.9024,22.3032 204.4144,22.8592 203.9564,23.4402 L203.9564,16.9592 L196.3504,16.9592 L196.3504,3.8972 L184.2324,3.8972 L184.2324,16.9592 L177.7014,16.9592 L177.7014,21.0552 C176.9184,20.1442 176.0274,19.3492 175.0024,18.7002 C171.3124,16.3652 166.5394,15.1982 160.6834,15.1982 C154.5114,15.1982 149.7244,16.7522 146.3224,19.8602 C143.2764,22.6432 141.6044,25.9182 141.2864,29.6762 C140.3084,27.0902 138.9544,24.6762 137.1804,22.4532 C133.2264,17.5022 127.2254,15.0262 119.1754,15.0262 C111.1254,15.0262 105.1244,17.5022 101.1714,22.4532 C99.2834,24.8182 97.8604,27.3942 96.8734,30.1702 C95.8874,27.3942 94.4644,24.8182 92.5764,22.4532 C88.6234,17.5022 82.6214,15.0262 74.5724,15.0262 C66.5224,15.0262 60.5214,17.5022 56.5674,22.4532 C53.2504,26.6082 51.3444,31.4062 50.8104,36.8292 C50.5174,36.1792 50.1844,35.5552 49.8034,34.9642 C48.1584,32.4142 45.7194,30.5532 42.4864,29.3782 C44.6144,28.2892 46.2244,27.0862 47.3174,25.7682 C49.2734,23.4202 50.2514,20.3112 50.2514,16.4442 C50.2514,12.6912 49.2814,9.4692 47.3434,6.7762 C44.1244,2.3932 38.6514,0.1442 30.9284,0.0292 L0.3194,0.0292 L0.3194,63.3672 L28.8584,63.3672 C32.0764,63.3672 35.0604,63.0812 37.8084,62.5082 C40.5574,61.9352 42.9424,60.8752 44.9654,59.3282 C46.7594,57.9812 48.2544,56.3202 49.4504,54.3442 C50.5844,52.5472 51.3694,50.6072 51.8194,48.5292 C52.7944,51.8712 54.3624,54.9152 56.5674,57.6382 C60.5214,62.5172 66.5224,64.9572 74.5724,64.9572 C82.6214,64.9572 88.6234,62.5172 92.5764,57.6382 C94.4644,55.3072 95.8874,52.7432 96.8734,49.9602 C97.8604,52.7432 99.2834,55.3072 101.1714,57.6382 C105.1244,62.5172 111.1254,64.9572 119.1754,64.9572 C127.2254,64.9572 133.2264,62.5172 137.1804,57.6382 C138.4404,56.0822 139.4764,54.4142 140.3344,52.6572 C141.0894,55.6032 142.6554,58.1562 145.0754,60.2952 C148.5924,63.4022 154.0384,64.9572 161.4164,64.9572 C168.6494,64.9572 173.9944,63.4882 177.4534,60.5532 C180.9124,57.6162 182.6424,53.8282 182.6424,49.1872 C182.6424,45.6632 181.4394,42.7272 179.0334,40.3782 C176.5974,38.0582 172.9414,36.3252 168.0624,35.1792 C160.7434,33.5752 156.4824,32.4432 155.2754,31.7842 C154.0684,31.1542 153.4654,30.1372 153.4654,28.7332 C153.4654,27.6162 154.0334,26.6422 155.1684,25.8112 C156.3024,24.9812 158.2054,24.5652 160.8774,24.5652 C164.1224,24.5652 166.4204,25.3962 167.7714,27.0572 C168.4894,27.9742 168.9344,29.2212 169.1074,30.7962 L181.3534,30.7962 C181.1724,28.8992 180.8024,27.2072 180.2774,25.6822 L184.2324,25.6822 L184.2324,54.5152 C184.2324,57.4372 184.9204,59.6002 186.2954,61.0042 C188.4154,63.2102 192.3684,64.2122 198.1554,64.0122 L203.9564,63.7972 L203.9564,57.0432 C204.6184,57.8192 205.3234,58.5532 206.1194,59.1942 C210.8834,63.0362 216.3824,64.9572 222.6164,64.9572 C230.1694,64.9572 236.0424,62.6802 240.2374,58.1252 C241.0444,57.2672 241.7324,56.4142 242.3284,55.5642 L242.3284,63.3672 L254.6614,63.3672 L254.6614,40.9802 C254.6614,37.2272 255.1334,34.4482 256.0794,32.6432 C257.7684,29.4352 261.0774,27.8312 266.0044,27.8312 C266.3774,27.8312 266.8644,27.8462 267.4654,27.8742 C268.0674,27.9032 268.7544,27.9602 269.5284,28.0462 L269.5284,15.4982 C268.9834,15.4712 268.6324,15.4492 268.4754,15.4342 L268.4754,15.4342 Z" id="Fill-6" fill="#E44792" mask="url(#mask-2)"></path>
                </g>
            </g>
        </g>
    </g>
</svg>