<?xml version="1.0" encoding="UTF-8" standalone="no"?>
<svg width="1970px" height="666px" viewBox="0 0 1970 666" version="1.1" xmlns="http://www.w3.org/2000/svg" xmlns:xlink="http://www.w3.org/1999/xlink">
    <!-- Generator: Sketch 3.8.3 (29802) - http://www.bohemiancoding.com/sketch -->
    <title>netia</title>
    <desc>Created with Sketch.</desc>
    <defs></defs>
    <g id="Page-1" stroke="none" stroke-width="1" fill="none" fill-rule="evenodd">
        <g id="netia" transform="translate(0.000000, -1.000000)">
            <polygon id="Fill-1" fill="#5CBFC5" points="1637.13483 334.28932 1803.5122 500.61612 1969.89417 334.28932 1803.5122 167.97172"></polygon>
            <polygon id="Fill-2" fill="#CAD400" points="1638.36892 0.99862 1471.99155 167.32542 1638.36892 333.65222 1804.74169 167.32542"></polygon>
            <polygon id="Fill-3" fill="#CAD400" points="1471.99385 500.61796 1638.37123 666.94476 1804.73939 500.61796 1638.37123 334.30036"></polygon>
            <polygon id="Fill-4" fill="#5E5E5D" points="276.371043 136.861 276.371043 445.015 8.7444979 136.861 0.00184055944 136.861 0.00184055944 538.855 41.5478685 538.855 41.5478685 234.4592 306.98875 538.855 316.007491 538.855 316.007491 136.861"></polygon>
            <polygon id="Fill-5" fill="#5E5E5D" points="363.533036 136.85962 593.97568 136.85962 593.97568 176.21262 403.71705 176.21262 403.71705 302.19742 592.337582 302.19742 592.337582 341.55042 403.71705 341.55042 403.71705 499.50522 592.337582 499.50522 592.337582 538.85822 363.533036 538.85822"></polygon>
            <polygon id="Fill-6" fill="#5E5E5D" points="626.302345 176.21124 626.302345 136.85824 846.635716 136.85824 846.635716 176.21124 756.972863 176.21124 756.972863 538.85684 715.965199 538.85684 715.965199 176.21124"></polygon>
            <polygon id="Fill-7" fill="#5E5E5D" points="880.440811 538.8596 920.624825 538.8596 920.624825 136.861 880.440811 136.861"></polygon>
            <path d="M1144.35955,222.27426 L1075.45361,367.78606 L1212.92959,367.78606 L1144.35955,222.27426 Z M1149.43489,136.86146 L1336.96029,538.85546 L1293.5599,538.85546 L1230.31368,406.58706 L1057.08022,406.58706 L994.43678,538.85546 L949.605354,538.85546 L1139.5925,136.86146 L1149.43489,136.86146 Z" id="Fill-8" fill="#5E5E5D"></path>
        </g>
    </g>
</svg>