<?xml version="1.0" encoding="UTF-8" standalone="no"?>
<svg width="1298px" height="291px" viewBox="0 0 1298 291" version="1.1" xmlns="http://www.w3.org/2000/svg" xmlns:xlink="http://www.w3.org/1999/xlink">
    <!-- Generator: Sketch 3.8.3 (29802) - http://www.bohemiancoding.com/sketch -->
    <title>osiatis</title>
    <desc>Created with Sketch.</desc>
    <defs></defs>
    <g id="Page-1" stroke="none" stroke-width="1" fill="none" fill-rule="evenodd">
        <g id="osiatis" transform="translate(0.000000, -1.000000)" fill="#6F2967">
            <g id="Group-3" transform="translate(0.000000, 73.710233)">
                <path d="M111.975792,194.144224 C117.244677,194.144224 122.52713,194.437709 127.773401,194.099073 C163.439004,191.787315 186.133652,178.585012 192.478928,151.620527 C201.524224,113.164982 206.114711,73.8199515 175.880809,41.3063455 C169.282266,34.2130424 157.735945,28.7903455 148.052955,28.0498606 C124.232168,26.2302545 99.7963003,25.1240424 76.34637,28.6413455 C63.7146139,30.5377091 48.0843422,39.8118303 41.6260007,50.4766182 C19.9896523,86.2050121 20.6770948,125.730648 37.6279798,162.642012 C51.6300983,193.128315 83.1981819,192.861921 111.975792,194.144224 M-0.000452264808,81.3196182 C26.71483,11.0999818 50.9245652,-4.01674545 128.895018,0.85510303 C191.619624,4.77425455 217.113792,27.9821333 222.95253,90.1693152 C224.892746,110.817103 223.544997,132.404042 219.72336,152.817042 C213.658489,185.181648 193.650293,208.077982 160.006314,211.915861 C130.491513,215.284164 100.10384,216.011103 70.5845164,213.071739 C32.4405024,209.279012 10.4875686,185.186164 4.28249547,147.168588 C3.86641185,144.617527 1.47393101,142.391558 -0.000452264808,140.016588 L-0.000452264808,81.3196182" id="Fill-1"></path>
            </g>
            <path d="M1298,240.818182 C1287.99138,278.704818 1259.48513,290.755758 1224.57481,290.010758 C1190.2253,289.274788 1155.92101,285.513667 1121.64386,282.547212 C1104.96886,281.106879 1099.3065,272.338455 1106.14475,258.066061 C1141.56613,261.425333 1176.22318,265.479939 1210.9933,267.602061 C1223.44415,268.360606 1236.59601,265.872758 1248.68052,262.328364 C1265.33744,257.44297 1271.47919,244.060061 1270.83698,227.295303 C1270.2219,211.054303 1260.41227,202.660636 1245.64583,200.24503 C1215.28529,195.282879 1184.60364,192.144848 1154.36974,186.546061 C1117.65941,179.746242 1107.14877,166.507818 1107.8724,132.386818 C1108.53723,101.020061 1123.59312,84.3591515 1157.09238,78.4172121 C1200.5505,70.7098485 1243.40711,72.4210909 1286.86072,86.0839394 C1285.70292,93.9538485 1284.75769,100.419545 1284.27829,103.670455 C1244.66893,102.586818 1206.09075,99.7919394 1167.7206,101.552848 C1156.46373,102.072091 1140.55305,113.179364 1135.95804,123.505515 C1126.40169,144.988606 1138.22841,159.951818 1163.73162,163.744545 C1188.22629,167.383758 1212.8521,170.472121 1237.52767,172.481364 C1265.92538,174.793121 1287.32655,186.112606 1298,213.727273 L1298,240.818182 Z" id="Fill-4"></path>
            <g id="Group-8" transform="translate(506.536585, 0.710233)">
                <path d="M31.6585366,0.804918182 C32.3640697,10.2867364 33.0741254,19.7685545 33.90177,30.9254939 L3.21108014,30.9254939 C2.14825784,20.9515242 1.0718676,10.8782212 0,0.804918182 L31.6585366,0.804918182 Z" id="Fill-6"></path>
            </g>
            <g id="Group-11" transform="translate(1017.595819, 0.710233)">
                <path d="M31.6585366,0.804918182 C32.3640697,10.2912515 33.0741254,19.7821 33.90177,30.9254939 L3.21108014,30.9254939 C2.14825784,20.9515242 1.0718676,10.8782212 -6.82121026e-13,0.804918182 L31.6585366,0.804918182 Z" id="Fill-9"></path>
            </g>
            <g id="Group-14" transform="translate(591.944251, 78.467809)">
                <path d="M175.139377,112.443952 C136.298875,112.443952 98.1322481,111.405467 60.0605965,112.886436 C41.2825617,113.617891 27.7281854,123.510588 26.755816,145.296194 C25.7834467,166.986982 33.3046105,181.494164 55.7414676,186.673042 C86.4683387,193.76183 115.417809,187.968891 143.494408,175.525133 C178.888652,159.834982 178.856994,159.654376 175.139377,112.443952 M174.94038,90.0713758 C181.443948,45.0553152 166.731774,23.6715576 120.962576,21.4997697 C89.1774049,19.9917091 57.1163526,24.2856182 21.7085408,26.1729515 C16.2994537,16.1086788 15.4718091,4.41895152 36.1945826,3.46173939 C74.1576906,1.70986061 112.374067,-1.56362424 150.111043,1.10031515 C180.313286,3.23146667 197.761663,21.9512848 199.489314,53.4399515 C202.234562,103.44977 200.221983,153.721467 200.221983,204.3318 C185.903279,207.785891 185.903279,207.785891 174.78661,183.715618 C140.093377,205.0768 102.573489,215.244921 61.5349798,212.197194 C23.5266453,209.370709 1.98979512,190.488345 0.569683624,156.570527 C-1.19414913,114.516406 14.6532098,93.4577394 56.1620739,90.6357697 C94.9302132,87.9989212 134.014938,90.0713758 174.94038,90.0713758" id="Fill-12"></path>
            </g>
            <path d="M450.73751,86.0478182 C449.082221,94.8297879 447.874674,101.241303 447.472158,103.367939 C407.044207,102.410727 368.389134,100.667879 329.756674,101.006515 C315.279677,101.132939 301.594144,106.903303 297.930799,124.300182 C292.9785,147.801545 302.091636,160.281424 328.431538,163.938697 C353.753845,167.451485 379.248012,169.713576 404.583886,173.154121 C443.062576,178.378152 458.891845,193.707091 460.244116,226.044606 C461.695886,260.838364 446.137977,284.231364 408.229141,287.057848 C366.81073,290.141697 324.686785,284.357788 282.906562,281.842848 C265.467231,280.790818 264.363705,270.117 269.401935,258.070576 C304.909245,261.429848 339.625092,265.303848 374.440437,267.665273 C385.453085,268.410273 396.895385,265.854697 407.867329,263.515848 C425.962444,259.664424 434.098688,247.333545 434.166528,229.272939 C434.243413,210.702121 423.194583,202.303939 406.392946,199.752879 C376.66558,195.242242 346.721127,191.959727 317.17919,186.491879 C281.662834,179.917818 270.767775,166.521364 271.111496,134.003242 C271.446172,101.873424 286.000054,84.6887576 318.9385,78.6384545 C362.491601,70.6421212 405.565301,72.4210909 450.73751,86.0478182" id="Fill-15"></path>
            <path d="M906.785514,20.7844636 L906.785514,78.9260697 L975.145339,78.9260697 L975.145339,101.632767 L908.766433,101.632767 C908.766433,149.949403 907.500092,196.238736 910.04182,242.320373 C910.453381,249.788433 926.857026,259.107706 937.494294,262.525676 C948.362217,266.015888 961.229151,263.297767 974.978001,263.297767 C975.733284,270.5491 976.384545,276.802585 976.958921,282.288494 C946.933061,303.852858 884.751172,278.554464 882.367737,243.783282 C879.798872,206.366221 880.771242,168.700827 880.25566,131.148312 C880.133548,122.343767 880.237569,113.539221 880.237569,102.404858 L833.925653,102.404858 C829.999994,82.0731303 829.999994,82.0731303 882.064719,77.1606455 C882.064719,63.8590091 882.720503,49.9794333 881.897381,36.1811303 C880.902399,19.5518273 887.351695,14.0884939 906.785514,20.7844636" id="Fill-17"></path>
            <polygon id="Fill-19" points="512.596934 284.819688 536.68908 284.819688 536.68908 80.3600818 512.596934 80.3600818"></polygon>
            <path d="M1023.85335,80.1474182 L1047.57464,80.1474182 L1047.57464,284.823752 C1039.94041,285.248176 1032.71774,285.650024 1023.85335,286.142176 L1023.85335,80.1474182 Z" id="Fill-21"></path>
        </g>
    </g>
</svg>