<?xml version="1.0" encoding="UTF-8" standalone="no"?>
<svg width="2638px" height="2638px" viewBox="0 0 2638 2638" version="1.1" xmlns="http://www.w3.org/2000/svg" xmlns:xlink="http://www.w3.org/1999/xlink">
    <!-- Generator: Sketch 3.8.3 (29802) - http://www.bohemiancoding.com/sketch -->
    <title>pagesjaunes</title>
    <desc>Created with Sketch.</desc>
    <defs></defs>
    <g id="Page-1" stroke="none" stroke-width="1" fill="none" fill-rule="evenodd">
        <g id="pagesjaunes" transform="translate(-1.000000, -1.000000)">
            <g id="Group-3" transform="translate(0.000000, 0.221677)" fill="#FFEB00">
                <path d="M1315.54819,1679.40678 C1248.94002,1698.95981 1183.8327,1707.59216 1121.02628,1707.59216 C815.782257,1707.59216 564.085243,1503.91321 449.691604,1361.15066 C415.680506,1318.72685 422.576994,1256.80582 465.084665,1222.86553 C507.586135,1188.90043 569.611116,1195.7964 603.609811,1238.23261 C615.405783,1252.94235 896.524506,1597.36839 1259.92975,1490.6236 C1562.6062,1401.75747 1562.6062,954.189652 1562.6062,713.74257 C1562.6062,659.405859 1606.73256,615.357278 1661.16644,615.357278 C1715.59412,615.357278 1759.72668,659.405859 1759.72668,713.74257 C1759.72668,984.855601 1759.72668,1548.99123 1315.54819,1679.40678 L1315.54819,1679.40678 Z M446.702299,702.809493 C446.702299,695.349203 447.607773,688.112163 449.18305,681.129381 C459.087449,637.235835 498.301923,604.4242 545.262543,604.4242 C553.721905,604.4242 561.883576,605.602467 569.716548,607.59932 C612.298642,618.470383 643.822787,656.912894 643.822787,702.809493 L643.822787,801.194786 C643.822787,855.531498 599.696426,899.58628 545.262543,899.58628 C490.828661,899.58628 446.702299,855.531498 446.702299,801.194786 L446.702299,702.809493 Z M2230.61667,1905.21234 L2230.61667,604.461409 L2230.61667,130.084922 C2230.61667,59.0788328 2172.51748,0.977867916 2101.50598,0.977867916 L130.115036,0.977867916 C59.1035338,0.977867916 0.998139437,59.0788328 0.998139437,130.084922 L0.998139437,1905.21234 C0.998139437,1976.21843 59.1035338,2034.31939 130.115036,2034.31939 L408.399501,2034.31939 L2101.50598,2034.31939 C2172.51748,2034.31939 2230.61667,1976.21843 2230.61667,1905.21234 L2230.61667,1905.21234 Z" id="Fill-1"></path>
            </g>
            <path d="M1014.75649,2286.53331 C983.623059,2286.25425 960.570679,2308.50489 960.6389,2338.75534 C960.70712,2368.51589 984.633965,2391.44868 1015.10999,2390.95257 C1047.10548,2390.43785 1073.02313,2366.84771 1072.69443,2338.54449 C1072.36573,2309.76377 1046.80159,2286.81857 1014.75649,2286.53331" id="Fill-4" fill="#1D1C1B"></path>
            <path d="M1798.21244,2350.73336 C1786.31724,2348.46984 1774.45304,2346.02029 1767.07901,2346.28695 C1749.71995,2346.21253 1737.36581,2346.90089 1726.4133,2354.04491 C1708.86818,2365.4927 1707.83247,2389.17587 1725.25355,2400.68567 C1743.27,2412.59237 1762.47722,2410.71955 1781.31232,2401.87634 C1799.13032,2393.49825 1805.88416,2378.88774 1805.59267,2359.80601 C1805.49964,2353.88987 1803.35379,2351.71318 1798.21244,2350.73336" id="Fill-6" fill="#1D1C1B"></path>
            <path d="M872.593319,2351.11226 C848.833925,2346.02091 824.90708,2341.18381 801.246915,2350.94482 C790.126948,2355.53386 783.65839,2364.55691 783.540554,2376.81709 C783.435122,2388.62456 789.469549,2397.08328 799.882502,2402.63354 C807.312352,2406.59623 815.201141,2408.12798 823.530263,2407.94194 C826.476155,2407.7869 829.434451,2407.7497 832.367939,2407.45823 C860.263986,2404.6614 876.971845,2385.75331 875.880315,2358.3369 C875.762479,2355.39123 876.345455,2351.91844 872.593319,2351.11226" id="Fill-8" fill="#1D1C1B"></path>
            <path d="M675.775483,2272.86355 C652.772717,2268.26831 629.273802,2271.40622 605.998154,2270.80469 C600.738962,2270.66825 601.774675,2274.66196 601.762271,2277.76886 C601.718858,2290.52515 601.743666,2303.28765 601.743666,2316.04394 C601.743666,2329.1289 601.830492,2342.21387 601.694051,2355.29883 C601.650638,2359.06929 602.12198,2361.63047 606.847811,2361.50024 C628.176069,2360.92971 649.622163,2363.19942 670.826384,2360.09872 C696.167257,2356.39028 712.751079,2338.67286 713.259633,2316.14936 C713.755783,2294.14057 700.384534,2277.78127 675.775483,2272.86355" id="Fill-10" fill="#1D1C1B"></path>
            <path d="M1233.74418,2293.62586 C1204.82482,2274.92242 1164.41958,2290.02284 1156.58041,2332.6761 C1155.68114,2337.55041 1158.32934,2337.97831 1162.18071,2337.9473 C1176.98459,2337.82327 1191.78847,2337.89149 1206.59235,2337.89149 C1221.40244,2337.89149 1236.20632,2337.89769 1251.01641,2337.89149 C1254.27239,2337.89149 1257.96871,2338.62325 1256.87098,2333.0854 C1253.72042,2317.25321 1247.95268,2302.81634 1233.74418,2293.62586" id="Fill-12" fill="#1D1C1B"></path>
            <path d="M2326.29366,2299.38324 C2311.37194,2285.64093 2293.51053,2282.69526 2275.07235,2290.18656 C2255.87754,2297.98793 2246.37626,2314.12398 2242.67994,2333.92507 C2241.65043,2339.46292 2245.59483,2338.51411 2248.74538,2338.51411 C2263.22056,2338.53271 2277.70195,2338.52031 2292.17713,2338.52031 C2306.98101,2338.52031 2321.7849,2338.51411 2336.58878,2338.52651 C2340.25409,2338.53271 2344.10545,2339.20867 2342.82787,2333.14369 C2340.16106,2320.46182 2336.03061,2308.35047 2326.29366,2299.38324" id="Fill-14" fill="#1D1C1B"></path>
            <g id="Group-18" transform="translate(408.122066, 603.959382)" fill="#1D1C1B">
                <path d="M2089.65042,1810.68132 C2071.16262,1823.97093 2050.66541,1824.95075 2029.46119,1820.83302 C2016.57989,1818.32765 2004.41801,1813.44094 1993.08718,1806.68141 C1986.63102,1802.83034 1981.17957,1797.85681 1985.84339,1790.15466 C1990.42657,1782.58895 1997.32926,1784.51139 2003.79782,1788.70354 C2015.50077,1796.28165 2028.33865,1800.79628 2042.16264,1802.81793 C2051.56469,1804.19465 2060.61943,1803.20862 2069.14081,1799.33274 C2077.42032,1795.56229 2082.76013,1789.15004 2083.13225,1779.63088 C2083.48575,1770.57063 2077.98469,1765.32424 2070.67887,1761.31813 C2059.05035,1754.94309 2045.96439,1752.84081 2033.59164,1748.66106 C2028.64255,1746.99288 2023.58181,1745.55416 2018.81877,1743.46428 C1998.0921,1734.36062 1990.22811,1722.68338 1991.822,1703.89312 C1993.37867,1685.54316 2005.80723,1671.46597 2025.29973,1666.16377 C2032.30786,1664.25994 2039.45862,1663.28632 2044.98449,1663.75142 C2062.8521,1663.62739 2077.79243,1668.22884 2092.32963,1674.62249 C2099.66025,1677.84722 2104.13801,1683.16802 2100.37967,1690.76474 C2096.75777,1698.0886 2089.96051,1697.10258 2083.36792,1693.74142 C2069.75479,1686.79584 2055.5587,1682.30603 2039.92376,1683.5215 C2034.52813,1683.9432 2029.55422,1685.38813 2025.07026,1688.07954 C2011.10364,1696.46384 2010.83695,1711.91154 2024.56791,1720.48808 C2034.67697,1726.80731 2046.3241,1729.33128 2057.57431,1732.74826 C2067.91904,1735.89857 2077.98469,1739.52639 2087.49217,1744.8534 C2113.94938,1759.68096 2108.67158,1797.00722 2089.65042,1810.68132 M1944.6195,1752.06563 C1927.17982,1752.25788 1909.73394,1752.12145 1892.29426,1752.12145 C1875.50578,1752.12145 1858.71729,1752.44392 1841.94121,1751.96641 C1834.92069,1751.76797 1833.6431,1753.70901 1835.26799,1760.2887 C1844.66384,1798.21649 1886.1482,1815.12152 1921.21982,1794.98556 C1925.4619,1792.54841 1929.4125,1789.55933 1933.25146,1786.51444 C1938.97579,1781.97501 1945.04743,1781.0386 1949.72365,1786.88652 C1954.1828,1792.45539 1951.49739,1797.56534 1946.35603,1802.12338 C1920.64925,1824.95695 1882.35885,1830.24675 1851.68436,1814.90447 C1822.20064,1800.15753 1806.58431,1769.49778 1810.5287,1732.72965 C1813.74748,1702.76446 1828.66299,1679.9619 1856.96836,1668.69394 C1884.01475,1657.9283 1910.70143,1660.60731 1933.46233,1680.31538 C1951.34854,1695.80028 1958.61094,1716.48197 1958.92103,1739.74344 C1959.04507,1749.31221 1952.61993,1751.97881 1944.6195,1752.06563 M1778.84331,1805.87523 C1778.77509,1816.25638 1774.37175,1821.29812 1766.35272,1821.25471 C1758.17865,1821.2175 1754.86064,1816.67807 1754.68079,1805.54035 C1754.24046,1778.05572 1756.09482,1750.51528 1753.78772,1723.08647 C1751.67908,1698.05139 1734.36964,1683.01299 1709.97145,1683.85018 C1684.94687,1684.70597 1665.2125,1702.65904 1664.59851,1726.50964 C1663.91631,1753.01445 1664.40005,1779.55026 1664.35664,1806.07367 C1664.34424,1813.06265 1662.83718,1819.32607 1654.80575,1821.11828 C1646.68749,1822.92909 1640.4608,1817.6703 1640.24994,1808.4054 C1639.93364,1794.32821 1640.16311,1780.24482 1640.15691,1766.16143 C1640.15691,1738.00085 1640.14451,1709.84027 1640.16932,1681.67969 C1640.18172,1670.56677 1644.30597,1664.47699 1651.74822,1664.37156 C1659.606,1664.26614 1664.17679,1670.66599 1664.35664,1682.03937 C1664.39385,1684.25327 1664.36284,1686.46717 1664.36284,1690.73994 C1686.91287,1663.62739 1717.85404,1655.54076 1746.02297,1668.42108 C1770.80567,1679.75105 1778.27894,1701.42496 1778.78129,1726.2988 C1779.31465,1752.816 1779.01076,1779.35182 1778.84331,1805.87523 M1596.38406,1800.76527 C1596.38406,1804.35588 1596.24141,1807.9713 1595.83209,1811.53711 C1595.13748,1817.57728 1591.50318,1820.89503 1585.45015,1821.2113 C1579.09942,1821.54618 1574.43561,1818.85477 1573.17663,1812.41151 C1572.24015,1807.64263 1572.20294,1802.70631 1571.58275,1795.74213 C1557.79597,1814.40216 1540.54235,1823.33218 1518.67453,1823.25156 C1483.15017,1823.12133 1459.53342,1801.14976 1458.63415,1765.82655 C1457.88992,1736.69855 1458.55972,1707.53334 1458.41088,1678.39294 C1458.36747,1670.14507 1461.94595,1664.48939 1470.18825,1664.64443 C1478.17626,1664.79946 1481.88499,1670.23189 1481.95321,1678.54798 C1482.19508,1706.68995 1480.55158,1734.87534 1482.79046,1762.97391 C1484.79367,1788.15161 1501.29687,1802.42104 1526.68735,1801.91873 C1551.56309,1801.42262 1571.47111,1783.28351 1572.02308,1759.45771 C1572.61226,1734.249 1572.17193,1709.02788 1572.22774,1683.81297 C1572.23395,1680.8797 1572.27736,1677.90923 1572.77351,1675.03798 C1573.92706,1668.30325 1578.30558,1664.26614 1584.9726,1664.58861 C1591.55279,1664.90488 1595.73906,1669.03502 1596.11118,1676.0178 C1596.31584,1679.93709 1596.39026,1683.86258 1596.39026,1687.78807 C1596.41507,1725.443 1596.42127,1763.10413 1596.38406,1800.76527 M1419.8352,1807.88448 C1419.8538,1816.10134 1416.34974,1821.2051 1407.72293,1821.16789 C1399.32559,1821.13068 1396.52234,1815.63624 1396.44792,1808.13254 C1396.42311,1805.52795 1396.44172,1802.91716 1396.44172,1798.37773 C1375.5848,1819.56793 1352.27194,1826.70575 1325.10151,1821.57718 C1297.23027,1816.30599 1280.8015,1799.04128 1280.73948,1774.78758 C1280.67746,1749.95095 1297.36672,1732.10951 1325.30618,1726.96235 C1348.99735,1722.60276 1372.31021,1725.26936 1395.46182,1730.80722 C1399.05891,1706.54112 1385.35896,1688.56324 1361.66779,1685.57417 C1344.66224,1683.42848 1328.27687,1685.67339 1312.44968,1691.8872 C1305.29892,1694.69643 1298.60089,1695.92431 1295.14024,1687.44699 C1291.49974,1678.54177 1298.27839,1675.19922 1304.98882,1672.70005 C1327.25356,1664.41497 1350.10128,1661.61194 1373.63121,1666.03354 C1401.91797,1671.34194 1419.12818,1691.8934 1419.68635,1722.38571 C1420.21351,1750.88117 1419.76698,1779.38282 1419.8352,1807.88448 M1249.40139,1749.78352 C1229.92129,1810.1666 1171.1461,1838.15354 1108.85443,1816.56025 C1083.18486,1807.66123 1061.45968,1792.84607 1044.57817,1771.41402 C1038.86624,1764.16458 1039.09571,1756.96474 1045.40302,1752.64236 C1052.2809,1747.9293 1058.2285,1749.83933 1063.41948,1755.99732 C1082.43443,1778.58284 1105.97056,1793.70807 1135.67135,1797.84441 C1182.08621,1804.30627 1216.77951,1780.82775 1228.14135,1735.6071 C1231.42835,1722.53454 1232.65632,1709.22013 1232.55089,1695.75067 C1232.45166,1683.30445 1232.47026,1670.85203 1232.55089,1658.40581 C1232.6005,1650.4122 1236.2162,1644.85574 1244.68176,1644.81853 C1253.12872,1644.78753 1256.82504,1650.04632 1256.75062,1658.26318 C1256.65759,1668.42108 1256.72581,1678.57898 1256.72581,1691.82518 C1257.51965,1709.46818 1255.80793,1729.94522 1249.40139,1749.78352 M1000.64407,1809.96195 C988.327138,1819.4315 974.149645,1822.32135 959.010861,1822.1105 C938.526058,1821.76323 919.790185,1815.66724 902.455936,1805.00083 C896.632372,1801.42262 892.390288,1796.71575 896.55795,1789.78258 C900.806236,1782.71298 906.679415,1783.2463 913.365039,1787.36403 C930.717893,1798.06146 949.205692,1804.77138 970.161837,1801.71408 C974.478344,1801.08154 978.472354,1799.70483 982.12526,1797.56534 C997.816011,1788.40587 997.722983,1769.46058 981.858579,1760.70419 C970.589767,1754.47798 957.832504,1752.3571 945.73264,1748.42541 C938.606682,1746.10608 931.493128,1743.5511 924.726879,1740.36358 C911.324621,1734.03815 902.790837,1723.92986 902.431128,1708.48836 C902.046612,1692.42672 908.856274,1679.94949 922.599635,1671.67682 C942.011513,1659.98097 962.862227,1661.70496 983.632316,1666.77771 C991.167598,1668.61953 998.429997,1671.93728 1005.46293,1675.30464 C1011.26168,1678.07667 1015.04483,1682.90756 1011.62139,1689.61748 C1008.12973,1696.46384 1002.29377,1697.03436 995.750785,1693.77243 C980.314311,1686.07648 964.449908,1680.25336 946.731142,1683.62693 C943.568185,1684.22846 940.324602,1685.12767 937.490344,1686.6036 C930.364386,1690.31204 925.942447,1695.89331 925.700574,1704.40784 C925.464903,1712.53168 930.451213,1716.99669 936.553861,1720.53149 C945.087645,1725.46781 954.588922,1728.0662 963.99717,1730.79481 C975.303194,1734.08156 986.627823,1737.3435 996.860922,1743.32785 C1022.11497,1758.112 1023.97553,1792.01509 1000.64407,1809.96195 M861.095612,1750.70132 C843.333433,1750.65171 825.577457,1750.68272 807.815278,1750.68272 C790.388001,1750.68892 772.942119,1751.06101 755.533447,1750.50908 C748.022973,1750.27343 747.626053,1753.05166 749.058687,1759.04842 C758.901067,1800.19474 805.043039,1816.01452 841.218593,1790.50814 C843.891602,1788.62292 846.390959,1786.48963 848.995748,1784.49898 C854.428593,1780.34404 859.836631,1781.09441 863.737612,1786.12995 C867.390518,1790.83682 866.267978,1795.82275 861.802626,1800.10172 C843.922612,1817.2486 822.240846,1823.92132 797.941889,1822.82987 C761.48725,1821.1989 731.9291,1795.48787 725.007804,1759.8422 C717.652377,1722.00122 735.222297,1684.00521 767.868983,1669.26447 C816.733579,1647.20607 872.606297,1677.42552 872.866776,1739.48298 C872.897785,1747.12932 868.71772,1750.71993 861.095612,1750.70132 M686.81664,1802.25981 C685.805734,1836.44195 661.978119,1860.73286 625.864584,1865.95444 C596.8584,1870.15279 569.073987,1865.43972 543.348598,1850.66798 C537.010278,1847.03395 531.999161,1842.47592 536.216438,1835.12725 C540.377898,1827.86541 546.46194,1828.08866 553.823569,1832.50406 C575.344086,1845.40918 598.756175,1850.66798 623.631908,1845.35337 C648.768119,1839.97675 662.31302,1823.30117 663.441762,1797.65216 C663.727048,1791.27712 663.485175,1784.87107 663.485175,1777.93169 C619.786743,1815.0285 576.354992,1816.89512 545.860358,1783.55017 C520.153574,1755.433 521.623419,1709.90228 549.097738,1683.19283 C580.671499,1652.50207 626.422753,1655.39813 663.441762,1691.21124 C663.441762,1685.98346 663.429358,1681.53705 663.441762,1677.09685 C663.472771,1669.34509 667.206302,1664.27854 675.082687,1664.16692 C682.779217,1664.06149 687.281781,1668.58232 687.275579,1676.51391 C687.269377,1718.42921 688.057015,1760.37552 686.81664,1802.25981 M489.907015,1807.9465 C489.950429,1815.87189 486.638626,1820.85782 478.6258,1820.7524 C470.674992,1820.65317 467.040692,1815.74166 467.698091,1807.73565 C467.933762,1804.8768 467.735302,1801.98695 467.735302,1797.21186 C456.342452,1808.36199 444.968208,1816.70288 430.598457,1820.03924 C412.098255,1824.32441 394.05079,1823.51822 377.045241,1814.76804 C359.469119,1805.71399 350.333753,1791.25231 351.412879,1771.11015 C352.454795,1751.76797 362.867748,1738.93106 380.084161,1731.33434 C400.364302,1722.38571 421.804194,1723.96707 443.082837,1725.82129 C451.095663,1726.51584 458.984452,1728.68013 466.966269,1730.18087 C469.298175,1694.24373 444.304607,1681.80371 412.724645,1684.20366 C401.920973,1685.02224 391.371579,1687.60203 381.374152,1691.95541 C374.700931,1694.86387 368.573476,1694.31195 365.733015,1687.23614 C362.960776,1680.32778 366.557865,1675.61471 373.516372,1672.86749 C397.660283,1663.32973 422.523612,1660.71894 447.802466,1666.35601 C473.3418,1672.0427 489.423269,1692.3337 489.75817,1718.62146 C490.130283,1748.3944 489.751969,1778.17355 489.907015,1807.9465 M323.777311,1738.82563 C312.043358,1764.22039 289.332081,1774.16744 263.122945,1778.05572 C242.842804,1781.0634 222.426222,1779.45104 202.077861,1779.44484 C195.125555,1779.44484 192.855668,1781.31146 193.494462,1788.17642 C194.096044,1794.66309 193.75494,1801.25518 193.581288,1807.79766 C193.364222,1815.97732 188.222865,1821.50277 180.985274,1820.82061 C173.257734,1820.09505 169.505598,1815.39438 169.518001,1807.61162 C169.561415,1782.73778 169.536607,1757.86395 169.530405,1732.99011 C169.524203,1708.11628 169.598626,1683.24244 169.48079,1658.3686 C169.443579,1650.06492 173.263936,1644.70691 181.518635,1644.81853 C211.064382,1645.23403 240.703156,1642.60463 270.155875,1646.36888 C317.184715,1652.38425 343.164382,1696.88553 323.777311,1738.82563 M2034.00717,0.720603279 L1822.49833,0.720603279 L1822.49833,1301.47774 C1822.49833,1372.48383 1764.39293,1430.57859 1693.38143,1430.57859 L0.281156338,1430.57859 L0.281156338,1838.18455 C0.281156338,1945.91536 88.4284474,2034.06213 196.173673,2034.06213 L2034.00717,2034.06213 C2141.74619,2034.06213 2229.89969,1945.91536 2229.89969,1838.18455 L2229.89969,196.598186 C2229.89969,88.8673761 2141.74619,0.720603279 2034.00717,0.720603279" id="Fill-16"></path>
            </g>
            <path d="M1661.16458,615.578334 C1606.7307,615.578334 1562.60434,659.626915 1562.60434,713.963627 C1562.60434,954.410709 1562.60434,1401.97852 1259.92788,1490.85086 C896.528847,1597.58944 615.403922,1253.1634 603.60795,1238.45367 C569.609255,1196.01745 507.584274,1189.12149 465.082805,1223.08659 C422.581335,1257.03308 415.678645,1318.94791 449.689744,1361.37172 C564.083382,1504.13427 815.780396,1707.81322 1121.02442,1707.81322 C1183.83704,1707.81322 1248.93816,1699.18086 1315.54633,1679.62783 C1759.72482,1549.21228 1759.72482,985.076658 1759.72482,713.963627 C1759.72482,659.626915 1715.59846,615.578334 1661.16458,615.578334" id="Fill-19" fill="#1D1C1B"></path>
            <path d="M545.263163,899.806096 C599.697046,899.806096 643.823408,855.757516 643.823408,801.420804 L643.823408,703.02931 C643.823408,657.138911 612.299262,618.696401 569.717168,607.819136 C561.884196,605.822284 553.722525,604.644017 545.263163,604.644017 C498.302544,604.644017 459.088069,637.461853 449.18367,681.349197 C447.608393,688.338181 446.702919,695.575221 446.702919,703.02931 L446.702919,801.420804 C446.702919,855.757516 490.829281,899.806096 545.263163,899.806096" id="Fill-21" fill="#1D1C1B"></path>
        </g>
    </g>
</svg>