<?xml version="1.0" encoding="UTF-8" standalone="no"?>
<svg width="1180px" height="332px" viewBox="0 0 1180 332" version="1.1" xmlns="http://www.w3.org/2000/svg" xmlns:xlink="http://www.w3.org/1999/xlink">
    <!-- Generator: Sketch 3.8.3 (29802) - http://www.bohemiancoding.com/sketch -->
    <title>planet-clefs</title>
    <desc>Created with Sketch.</desc>
    <defs></defs>
    <g id="Page-1" stroke="none" stroke-width="1" fill="none" fill-rule="evenodd">
        <g id="planet-clefs" transform="translate(-1.000000, 0.000000)">
            <path d="M464.975212,237.450929 L491.25948,237.450929 C496.682058,237.450929 500.882016,235.976795 503.863419,233.032588 C506.844821,230.08838 508.912305,225.235515 510.073996,218.478051 C511.231625,211.724649 510.833563,206.855539 508.867625,203.866661 C506.905748,200.881844 503.213522,199.387405 497.790944,199.387405 L485.536326,199.387405 C480.426511,199.387405 476.608367,200.565088 474.081893,202.924515 C471.55948,205.27988 469.82913,209.170295 468.898965,214.591698 L464.975212,237.450929 Z M501.154161,187.366917 C509.40379,187.366917 515.504697,189.945637 519.452821,195.086832 C523.400944,200.232088 524.481398,208.029161 522.686058,218.478051 C520.878532,229.008161 517.121315,236.825539 511.414408,241.930185 C505.703439,247.034832 498.725171,249.589185 490.47148,249.589185 L462.89148,249.589185 L458.602161,274.572307 L446.111955,274.572307 L456.506243,213.998795 C458.057872,204.967185 461.132697,198.270637 465.730718,193.909149 C470.328738,189.547661 476.401212,187.366917 483.944078,187.366917 L501.154161,187.366917 Z" id="Fill-1" fill="#E84C0F"></path>
            <polygon id="Fill-3" fill="#E84C0F" points="560.119713 160.384171 544.806518 249.587561 532.316311 249.587561 547.625445 160.384171"></polygon>
            <path d="M610.655291,237.450929 C612.933992,237.450929 614.258157,236.391015 614.619662,234.271185 L616.622157,222.604002 L587.275249,222.604002 C583.972961,222.604002 581.543971,223.249698 579.984219,224.54921 C578.428528,225.844661 577.453682,227.63149 577.063744,229.909698 C576.669744,232.187905 577.023126,234.015344 578.123889,235.387954 C579.224652,236.764624 581.34494,237.450929 584.488816,237.450929 L610.655291,237.450929 Z M613.238631,187.366917 C617.08927,187.366917 620.302198,187.8786 622.877414,188.901966 C625.452631,189.921271 627.467311,191.354795 628.917394,193.202539 C630.367476,195.050283 631.269208,197.226966 631.626652,199.74071 C631.975971,202.258515 631.90692,204.967185 631.407311,207.874844 L626.39092,237.097624 C626.000981,239.375832 625.493249,241.300734 624.871786,242.868271 C624.250322,244.443929 623.381085,245.719076 622.272198,246.701832 C621.155188,247.684588 619.717291,248.411502 617.946322,248.882576 C616.175353,249.349588 613.994136,249.589185 611.402672,249.589185 L582.287291,249.589185 C574.902837,249.589185 569.866136,247.89982 567.185311,244.521088 C564.504487,241.146417 563.671806,236.508783 564.683208,230.616307 C565.170631,227.789868 565.970816,225.276124 567.095951,223.075076 C568.221085,220.878088 569.740219,219.010039 571.653353,217.47499 C573.566487,215.944002 575.926425,214.76632 578.741291,213.941941 C581.552095,213.117563 584.886878,212.703344 588.737518,212.703344 L618.324074,212.703344 L619.132384,207.992612 C619.550755,205.556027 619.173002,203.513356 618.003188,201.8646 C616.829311,200.215844 614.518115,199.387405 611.057414,199.387405 L573.81426,199.387405 L575.877682,187.366917 L613.238631,187.366917 Z" id="Fill-5" fill="#E84C0F"></path>
            <path d="M687.024676,187.368541 C697.634243,187.368541 705.103996,189.748273 709.433934,194.499615 C713.763872,199.250956 715.189584,205.951566 713.707006,214.589261 L707.699522,249.59081 L695.083398,249.59081 L701.090882,214.589261 C701.93981,209.642993 701.115254,205.870346 698.617212,203.275383 C696.115109,200.68448 691.561769,199.389029 684.961254,199.389029 L664.570738,199.389029 C663.551212,199.389029 662.937872,199.977871 662.734779,201.155554 L654.424223,249.59081 L641.925893,249.59081 L650.947274,197.033663 C651.580924,193.342237 652.685748,190.808188 654.261748,189.431517 C655.829625,188.058907 658.189563,187.368541 661.329377,187.368541 L687.024676,187.368541 Z" id="Fill-7" fill="#E84C0F"></path>
            <path d="M742.107501,214.590073 L771.340676,214.590073 C774.716078,214.590073 777.210058,213.924073 778.814491,212.588012 C780.418924,211.251951 781.41814,209.444817 781.808078,207.16661 C782.210202,204.811244 781.828388,202.92289 780.658573,201.509671 C779.484697,200.096451 777.364408,199.389841 774.301769,199.389841 L754.264635,199.389841 C750.803934,199.389841 748.208408,200.21422 746.473996,201.862976 C744.735522,203.511732 743.65913,205.558463 743.240759,207.990988 L742.107501,214.590073 Z M776.482986,187.369354 C783.867439,187.369354 788.924449,189.038415 791.654016,192.376537 C794.379522,195.71872 795.224388,200.409146 794.184553,206.46 C793.201584,212.194098 790.833522,216.612439 787.076305,219.715024 C783.323151,222.821671 777.636553,224.372963 770.012449,224.372963 L740.429955,224.372963 L739.658202,228.848159 C739.227645,231.365963 739.597274,233.424878 740.779274,235.037085 C741.953151,236.649293 744.27247,237.449305 747.729109,237.449305 L785.804944,237.449305 L783.721212,249.587561 L745.645377,249.587561 C741.717563,249.587561 738.488388,249.079939 735.949728,248.056573 C733.41513,247.037268 731.420759,245.603744 729.970676,243.756 C728.520594,241.908256 727.6148,239.747817 727.253295,237.274683 C726.89179,234.801549 726.968965,232.072573 727.480759,229.083695 L731.120181,207.87322 C731.61979,204.969622 732.476841,202.25689 733.695398,199.743146 C734.913955,197.229402 736.563068,195.048659 738.6468,193.200915 C740.734594,191.357232 743.220449,189.923707 746.104367,188.900341 C748.992346,187.881037 752.396181,187.369354 756.328058,187.369354 L776.482986,187.369354 Z" id="Fill-9" fill="#E84C0F"></path>
            <path d="M815.023903,187.368541 L817.550377,172.639383 L830.166501,172.639383 L827.635965,187.368541 L844.846047,187.368541 L842.782625,199.389029 L825.572542,199.389029 L820.515532,228.847346 C819.910315,232.384456 820.141841,234.821041 821.206047,236.157102 C822.274315,237.493163 824.29712,238.159163 827.286645,238.159163 L835.889656,238.159163 L833.927779,249.59081 L822.733305,249.59081 C819.508192,249.59081 816.798934,249.237505 814.60147,248.526834 C812.408068,247.820224 810.702089,246.642541 809.495718,244.993785 C808.285285,243.345029 807.562274,241.14398 807.326687,238.3947 C807.095161,235.64542 807.322625,232.226078 808.025326,228.140737 L812.96048,199.389029 L804.475264,199.389029 L806.538687,187.368541 L815.023903,187.368541 Z" id="Fill-11" fill="#E84C0F"></path>
            <polygon id="Fill-13" fill="#E84C0F" points="890.286027 206.223245 888.222604 218.243733 846.145841 218.243733 848.209264 206.223245"></polygon>
            <path d="M962.003369,187.368541 L959.939946,199.389029 L929.057658,199.389029 C923.639142,199.389029 919.43106,200.883468 916.445596,203.868285 C913.45607,206.853102 911.384524,211.722212 910.222833,218.479676 C909.061142,225.237139 909.467328,230.085944 911.437328,233.034212 C913.407328,235.97842 917.107678,237.452554 922.526194,237.452554 L953.408482,237.452554 L951.324751,249.59081 L919.264524,249.59081 C910.933658,249.59081 904.792132,247.036456 900.835885,241.927749 C896.879637,236.823102 895.807307,229.005724 897.614833,218.479676 C899.418297,207.953627 903.175513,200.136249 908.886482,195.027541 C914.59339,189.922895 921.616338,187.368541 929.943142,187.368541 L962.003369,187.368541 Z" id="Fill-15" fill="#E84C0F"></path>
            <polygon id="Fill-17" fill="#E84C0F" points="993.976266 160.384171 978.66307 249.587561 966.168802 249.587561 981.481998 160.384171"></polygon>
            <path d="M1013.43255,214.590073 L1042.66573,214.590073 C1046.04113,214.590073 1048.53511,213.924073 1050.13954,212.588012 C1051.74398,211.251951 1052.74319,209.444817 1053.13313,207.16661 C1053.53526,204.811244 1053.15344,202.92289 1051.98363,201.509671 C1050.80975,200.096451 1048.68946,199.389841 1045.62682,199.389841 L1025.58969,199.389841 C1022.12899,199.389841 1019.53346,200.21422 1017.79905,201.862976 C1016.06058,203.511732 1014.98418,205.558463 1014.56581,207.990988 L1013.43255,214.590073 Z M1047.80804,187.369354 C1055.19249,187.369354 1060.2495,189.038415 1062.97907,192.376537 C1065.70458,195.71872 1066.54944,200.409146 1065.50961,206.46 C1064.52664,212.194098 1062.15858,216.612439 1058.40136,219.715024 C1054.6482,222.821671 1048.96161,224.372963 1041.3375,224.372963 L1011.75501,224.372963 L1010.98326,228.848159 C1010.5527,231.365963 1010.92233,233.424878 1012.10433,235.037085 C1013.2782,236.649293 1015.59752,237.449305 1019.05416,237.449305 L1057.13,237.449305 L1055.04627,249.587561 L1016.97043,249.587561 C1013.04262,249.587561 1009.81344,249.079939 1007.27478,248.056573 C1004.74018,247.037268 1002.74581,245.603744 1001.29573,243.756 C999.845647,241.908256 998.939854,239.747817 998.578348,237.274683 C998.216843,234.801549 998.294019,232.072573 998.805812,229.083695 L1002.44524,207.87322 C1002.94484,204.969622 1003.80189,202.25689 1005.02045,199.743146 C1006.23901,197.229402 1007.88812,195.048659 1009.97185,193.200915 C1012.05965,191.357232 1014.5455,189.923707 1017.42942,188.900341 C1020.3174,187.881037 1023.72124,187.369354 1027.65311,187.369354 L1047.80804,187.369354 Z" id="Fill-19" fill="#E84C0F"></path>
            <path d="M1086.34896,187.368541 L1087.29943,181.829371 C1088.00213,177.74809 1088.94448,174.328749 1090.11836,171.579468 C1091.30036,168.830188 1092.77887,166.629139 1094.55391,164.980383 C1096.32894,163.331627 1098.43704,162.149883 1100.87415,161.443273 C1103.31533,160.736663 1106.14644,160.383359 1109.36749,160.383359 L1120.56603,160.383359 L1118.60415,171.815005 L1109.99708,171.815005 C1107.01162,171.815005 1104.75729,172.481005 1103.23003,173.817066 C1101.70683,175.153127 1100.64263,177.589712 1100.03335,181.122761 L1098.96102,187.368541 L1116.1711,187.368541 L1114.10768,199.389029 L1096.8976,199.389029 L1088.2824,249.59081 L1075.67034,249.59081 L1084.28553,199.389029 L1075.80032,199.389029 L1077.86374,187.368541 L1086.34896,187.368541 Z" id="Fill-21" fill="#E84C0F"></path>
            <path d="M1180.16848,187.368541 L1178.10506,199.389029 L1143.68895,199.389029 C1140.78067,199.389029 1138.59539,199.977871 1137.14124,201.155554 C1135.67898,202.337298 1134.74475,204.103822 1134.34262,206.459188 C1133.96487,208.660237 1134.28576,210.329298 1135.30935,211.466371 C1136.32887,212.607505 1138.57102,213.176041 1142.03172,213.176041 L1156.64221,213.176041 C1160.96403,213.176041 1164.44098,213.647115 1167.069,214.589261 C1169.69295,215.535468 1171.6792,216.79031 1173.01961,218.361907 C1174.36003,219.933505 1175.16427,221.777188 1175.42829,223.901078 C1175.69638,226.020907 1175.61514,228.299115 1175.19677,230.7357 C1174.72559,233.48498 1173.92135,236.019029 1172.7759,238.333785 C1171.6264,240.652602 1170.09102,242.63842 1168.15757,244.287176 C1166.22413,245.935932 1163.88044,247.231383 1161.1265,248.17759 C1158.37256,249.119737 1155.18401,249.59081 1151.57302,249.59081 L1115.39001,249.59081 L1117.47374,237.452554 L1153.65675,237.452554 C1156.56098,237.452554 1158.73813,236.920566 1160.17603,235.860651 C1161.61392,234.800737 1162.54409,233.054517 1162.96246,230.617932 C1163.39302,228.104188 1163.0112,226.317359 1161.82108,225.257444 C1160.62689,224.193468 1158.45786,223.66148 1155.31805,223.66148 L1140.58164,223.66148 C1136.25982,223.66148 1132.80724,223.174163 1130.22796,222.191407 C1127.64462,221.208651 1125.69087,219.87259 1124.37483,218.183224 C1123.05473,216.493859 1122.26673,214.552712 1122.01489,212.351663 C1121.76306,210.150615 1121.84023,207.872407 1122.24642,205.517041 C1123.20502,199.941322 1125.53246,195.52298 1129.23687,192.257956 C1132.93722,189.001054 1138.40448,187.368541 1145.63458,187.368541 L1180.16848,187.368541 Z" id="Fill-23" fill="#E84C0F"></path>
            <g id="Group-27" transform="translate(427.494845, 321.674315)" fill="#636363">
                <polygon id="Fill-25" points="10.5169567 0.0804378049 8.78254433 10.1841451 0.313575258 10.1841451 2.04798763 0.0804378049"></polygon>
            </g>
            <path d="M487.284142,292.6404 L485.984348,300.21818 L466.519936,300.21818 C463.099854,300.21818 460.451524,301.160327 458.570885,303.040559 C456.686184,304.924851 455.378266,307.990888 454.647132,312.24679 C453.915998,316.510815 454.171895,319.564668 455.414823,321.420534 C456.653689,323.2764 458.985194,324.206363 462.401214,324.206363 L481.865627,324.206363 L480.553647,331.857241 L460.345915,331.857241 C455.093936,331.857241 451.222988,330.249095 448.73307,327.028741 C446.239091,323.812449 445.560761,318.886485 446.702142,312.24679 C447.839462,305.615217 450.207524,300.689254 453.806328,297.4689 C457.40107,294.252607 461.828493,292.6404 467.07641,292.6404 L487.284142,292.6404 Z" id="Fill-28" fill="#636363"></path>
            <g id="Group-32" transform="translate(490.422680, 292.247485)" fill="#636363">
                <path d="M20.8174742,7.97110122 C17.4014536,7.97110122 14.7490619,8.90918659 12.8684227,10.7894183 C10.9837216,12.677772 9.67580412,15.7438085 8.9446701,19.999711 C8.21353608,24.2637354 8.46943299,27.317589 9.71236082,29.1734549 C10.9512268,31.0293207 13.282732,31.9592841 16.6987526,31.9592841 L23.4617423,31.9592841 C26.8777629,31.9592841 29.5260928,31.0293207 31.4026701,29.1734549 C33.2833093,27.317589 34.5871649,24.2637354 35.318299,19.999711 C36.049433,15.7438085 35.7975979,12.677772 34.558732,10.7894183 C33.319866,8.90918659 30.9964845,7.97110122 27.5804639,7.97110122 L20.8174742,7.97110122 Z M29.6195155,0.393320732 C34.8227526,0.393320732 38.6774536,2.01365 41.1917423,5.26243049 C43.7060309,8.49902805 44.3965464,13.4168695 43.2673505,19.999711 C42.1259691,26.6394061 39.7457216,31.5653695 36.1225464,34.7816622 C32.4993711,38.0020159 28.0922577,39.6101622 22.8890206,39.6101622 L14.6434536,39.6101622 C9.39553608,39.6101622 5.52052577,38.0020159 3.03060825,34.7816622 C0.536628866,31.5653695 -0.141701031,26.6394061 0.999680412,19.999711 C2.137,13.3681378 4.50506186,8.44217439 8.10386598,5.22182073 C11.7026701,2.00552805 16.1260309,0.393320732 21.3780103,0.393320732 L29.6195155,0.393320732 Z" id="Fill-30"></path>
            </g>
            <path d="M592.325355,292.6404 C599.011169,292.6404 603.731045,294.1389 606.484984,297.1359 C609.238922,300.1329 610.148777,304.352254 609.214551,309.802083 L605.428901,331.857241 L597.479849,331.857241 L601.265499,309.802083 C601.801664,306.679193 601.281746,304.303522 599.705746,302.666949 C598.125685,301.034437 595.258014,300.21818 591.098674,300.21818 L581.886386,300.21818 L576.455685,331.857241 L568.506633,331.857241 L573.937334,300.21818 L554.030179,300.21818 C553.384344,300.21818 552.998468,300.59179 552.872551,301.330888 L547.632757,331.857241 L539.756819,331.857241 L545.443416,298.735924 C545.841478,296.404924 546.536056,294.8049 547.527148,293.943973 C548.518241,293.074924 550.00488,292.6404 551.987066,292.6404 L592.325355,292.6404 Z" id="Fill-33" fill="#636363"></path>
            <path d="M231.708934,235.004191 C200.993181,243.170813 170.090584,248.157691 141.133614,249.77396 C158.806748,258.574094 178.717965,263.548789 199.803058,263.548789 C244.231635,263.548789 283.497594,241.550484 307.373181,207.872813 C284.240913,218.618155 258.663408,227.83657 231.708934,235.004191" id="Fill-35" fill="#D0D0D2"></path>
            <path d="M128.43341,211.270226 C156.212441,211.270226 187.492792,206.855945 218.903122,198.502518 C261.21141,187.253616 299.136957,170.173152 325.681184,150.408384 C327.452153,149.088567 329.137823,147.76875 330.774751,146.448933 C331.306854,141.628555 331.607431,136.73914 331.607431,131.776628 C331.607431,58.9958232 272.596792,0.00203048781 199.804276,0.00203048781 C127.011761,0.00203048781 68.0011216,58.9958232 68.0011216,131.776628 C68.0011216,160.33747 77.1199876,186.758177 92.5672247,208.342262 C103.046812,210.242799 115.094276,211.270226 128.43341,211.270226" id="Fill-37" fill="#D0D0D2"></path>
            <path d="M185.919229,58.0512402 C187.141847,54.42885 191.50428,52.6257768 195.667682,54.0308744 C199.831085,55.431911 202.215394,59.5091305 200.992775,63.1315207 C199.774219,66.753911 195.407724,68.5569841 191.244322,67.1518866 C187.08092,65.75085 184.69661,61.6736305 185.919229,58.0512402 L185.919229,58.0512402 Z M199.802652,116.163801 L248.821126,237.875301 L267.753435,231.816326 L254.552404,201.359009 L254.552404,195.267545 L247.444157,188.160838 L249.982816,180.546509 L243.382301,168.871204 L246.428693,157.195899 L229.165806,121.15474 L249.982816,107.95657 L236.781786,52.1181549 L225.103951,43.4885817 L150.544528,43.4885817 L177.377146,105.633691 L199.802652,116.163801 Z" id="Fill-39" fill="#ED6F04"></path>
            <polygon id="Fill-41" fill="#E9570D" points="140.82207 55.1630744 170.778256 113.539599 193.118462 121.153928 242.368462 239.937465 248.818689 237.874489 199.804276 116.162989 177.378771 105.63694 150.546153 43.4877695 148.945781 43.4877695"></polygon>
            <g id="Group-45" transform="translate(0.000000, 35.406022)" fill="#EE7701">
                <path d="M121.17528,210.936007 C55.3529093,210.931946 10.9649505,191.796629 2.43911546,159.74741 C-4.64476082,133.119593 14.636868,101.192202 55.3366619,72.1399829 L62.0630948,67.3399098 L61.7584557,75.5958732 C61.2954041,87.9209341 61.2832186,98.7515561 61.721899,107.787227 L61.8031361,109.496898 L60.6414454,110.747678 C51.7825381,120.278788 41.9853423,134.520629 45.6410124,148.25891 C50.8361258,167.788141 82.5592186,179.926398 128.421631,179.926398 L128.433816,179.926398 C156.562167,179.922337 188.208085,175.463385 219.947425,167.024678 C262.743136,155.641763 301.156105,138.325763 328.106518,118.256422 C353.663713,99.2307512 365.97926,79.5147146 361.893033,64.1601659 C358.452641,51.2178366 344.345816,43.8755927 333.118847,39.997361 L331.46161,39.4247634 L330.742662,37.824739 C325.632847,26.4824341 320.518971,16.179739 315.54726,7.20092195 L311.8266,0.480007317 L319.475074,1.19067805 C370.378249,5.90547073 403.69359,24.1108244 410.879012,51.1366171 C417.455157,75.8557756 401.886064,104.570934 367.039404,131.998763 C333.118847,158.695617 284.689342,181.307129 230.666662,195.674861 C193.118868,205.656739 155.262373,210.936007 121.187466,210.936007 L121.17528,210.936007 Z" id="Fill-43"></path>
            </g>
        </g>
    </g>
</svg>