<?xml version="1.0" encoding="UTF-8" standalone="no"?>
<svg width="1715px" height="300px" viewBox="0 0 1715 300" version="1.1" xmlns="http://www.w3.org/2000/svg" xmlns:xlink="http://www.w3.org/1999/xlink">
    <!-- Generator: Sketch 3.8.3 (29802) - http://www.bohemiancoding.com/sketch -->
    <title>polyplan</title>
    <desc>Created with Sketch.</desc>
    <defs></defs>
    <g id="Page-1" stroke="none" stroke-width="1" fill="none" fill-rule="evenodd">
        <g id="polyplan" fill="#01347D">
            <path d="M525.121335,29.043625 L463.445135,29.043625 L463.445135,67.2131042 L525.121335,67.2131042 C533.342283,67.2131042 537.45912,63.3497708 537.45912,55.6294583 L537.45912,40.633625 C537.45912,32.9069583 533.342283,29.043625 525.121335,29.043625 L525.121335,29.043625 Z M436.67615,148.324042 L436.67615,4.1670625 L536.670113,4.1670625 C545.76915,4.1670625 552.373905,6.32747917 556.484379,10.6419583 C560.594853,14.9627917 562.656453,22.1175833 562.656453,32.1126875 L562.656453,64.1440417 C562.656453,82.7808125 553.996461,92.0896667 536.670113,92.0896667 L463.445135,92.0896667 L463.445135,148.324042 L436.67615,148.324042 L436.67615,148.324042 Z" id="Fill-1"></path>
            <path d="M626.172822,120.722812 L715.407015,120.722812 L715.407015,30.7541667 L626.172822,30.7541667 L626.172822,120.722812 Z M598.875711,38.2457292 C598.875711,24.6160417 600.886407,15.5295833 604.920526,10.9863542 C608.948281,6.443125 616.577474,4.16833333 627.801741,4.16833333 L713.778096,4.16833333 C724.996,4.16833333 732.625193,6.443125 736.652948,10.9863542 C740.687067,15.5295833 742.704126,24.6160417 742.704126,38.2457292 L742.704126,114.241562 C742.704126,127.648854 740.636163,136.684479 736.519326,141.335729 C732.402489,145.999687 724.8242,148.325312 713.778096,148.325312 L627.801741,148.325312 C616.577474,148.325312 608.948281,145.999687 604.920526,141.335729 C600.886407,136.684479 598.875711,127.648854 598.875711,114.241562 L598.875711,38.2457292 Z" id="Fill-3"></path>
            <polygon id="Fill-5" points="789.156301 148.324042 789.156301 4.1670625 816.453412 4.1670625 816.453412 121.401438 903.587827 121.401438 903.587827 148.324042"></polygon>
            <polygon id="Fill-6" points="976.031433 148.324042 976.031433 83.5750833 915.398759 4.1670625 951.883988 4.1670625 991.518884 58.0122708 1031.66918 4.1670625 1063.42673 4.1670625 1003.0613 82.8888333 1003.0613 148.324042"></polygon>
            <path d="M1178.11723,29.043625 L1116.44103,29.043625 L1116.44103,67.2131042 L1178.11723,67.2131042 C1186.33818,67.2131042 1190.44865,63.3497708 1190.44865,55.6294583 L1190.44865,40.633625 C1190.44865,32.9069583 1186.33818,29.043625 1178.11723,29.043625 L1178.11723,29.043625 Z M1089.66568,148.324042 L1089.66568,4.1670625 L1189.65964,4.1670625 C1198.75868,4.1670625 1205.36343,6.32747917 1209.48027,10.6419583 C1213.58438,14.9627917 1215.64598,22.1175833 1215.64598,32.1126875 L1215.64598,64.1440417 C1215.64598,82.7808125 1206.98599,92.0896667 1189.65964,92.0896667 L1116.44103,92.0896667 L1116.44103,148.324042 L1089.66568,148.324042 Z" id="Fill-7"></path>
            <polygon id="Fill-8" points="1254.49187 148.324042 1254.49187 4.1670625 1281.78898 4.1670625 1281.78898 121.401438 1368.9234 121.401438 1368.9234 148.324042"></polygon>
            <path d="M1435.06576,90.3886563 L1485.98219,90.3886563 L1459.99585,30.4116771 L1435.06576,90.3886563 Z M1382.57132,148.325948 L1448.45344,4.16896875 L1474.43341,4.16896875 L1541.35906,148.325948 L1510.91864,148.325948 L1497.00284,116.631365 L1423.51698,116.631365 L1409.60755,148.325948 L1382.57132,148.325948 Z" id="Fill-9"></path>
            <polygon id="Fill-10" points="1568.91132 148.324042 1568.91132 4.1670625 1587.54844 4.1670625 1681.7712 99.9307083 1681.7712 4.1670625 1706.17952 4.1670625 1706.17952 148.324042 1687.54877 148.324042 1593.58689 51.19425 1593.58689 148.324042"></polygon>
            <polygon id="Fill-11" points="1025.7669 264.689167 1070.68941 264.689167 1070.68941 219.390312 1025.7669 219.390312"></polygon>
            <path d="M1676.35504,261.426937 C1676.35504,268.175062 1675.33697,272.718292 1673.30718,275.062979 C1671.28376,277.414021 1667.45962,278.583187 1661.82204,278.583187 L1625.48315,278.583187 C1619.84557,278.583187 1615.98961,277.414021 1613.92165,275.062979 C1611.84733,272.718292 1610.81653,268.175062 1610.81653,261.426937 L1610.81653,259.368187 L1622.96978,256.451625 L1622.96978,265.02975 L1664.0618,265.02975 L1664.0618,248.388187 L1627.8629,248.388187 C1622.3144,248.388187 1618.47753,247.219021 1616.36503,244.874333 C1614.25253,242.523292 1613.19627,237.986417 1613.19627,231.231937 L1613.19627,223.1685 C1613.19627,216.426729 1614.25253,211.870792 1616.36503,209.526104 C1618.47753,207.187771 1622.3144,206.01225 1627.8629,206.01225 L1661.02667,206.01225 C1666.39701,206.01225 1670.18297,207.105167 1672.39092,209.271937 C1674.5925,211.451417 1675.6933,215.61975 1675.6933,221.802354 L1675.6933,223.511625 L1663.93454,226.777667 L1663.93454,219.051 L1625.48315,219.051 L1625.48315,234.320062 L1661.82204,234.320062 C1667.45962,234.320062 1671.28376,235.495583 1673.30718,237.833917 C1675.33697,240.178604 1676.35504,244.734542 1676.35504,251.476312 L1676.35504,261.426937 Z M1571.44887,278.583187 L1510.79711,278.583187 L1510.79711,206.01225 L1570.78076,206.01225 L1570.78076,218.885792 L1524.54111,218.885792 L1524.54111,234.663187 L1551.49462,234.663187 L1551.49462,247.193604 L1524.54111,247.193604 L1524.54111,265.02975 L1571.44887,265.02975 L1571.44887,278.583187 Z M1451.20796,278.583187 L1464.81834,278.583187 L1464.81834,206.01225 L1451.20796,206.01225 L1451.20796,278.583187 Z M1406.81993,224.197875 L1393.47044,227.114437 L1393.47044,219.394125 L1351.06129,219.394125 L1351.06129,264.692979 L1393.47044,264.692979 L1393.47044,249.246 L1371.27642,249.246 L1371.27642,236.385167 L1406.81993,236.385167 L1406.81993,261.426937 C1406.81993,268.175062 1405.80186,272.718292 1403.77844,275.062979 C1401.74865,277.414021 1397.91815,278.583187 1392.28056,278.583187 L1351.8503,278.583187 C1346.21271,278.583187 1342.38221,277.414021 1340.35242,275.062979 C1338.329,272.718292 1337.31729,268.175062 1337.31729,261.426937 L1337.31729,223.1685 C1337.31729,216.426729 1338.35445,211.870792 1340.42241,209.526104 C1342.49038,207.187771 1346.30179,206.01225 1351.8503,206.01225 L1392.28056,206.01225 C1397.73998,206.01225 1401.53231,207.130583 1403.64481,209.360896 C1405.76368,211.584854 1406.81993,215.905687 1406.81993,222.310687 L1406.81993,224.197875 Z M1294.10641,261.426937 C1294.10641,268.175062 1293.06924,272.718292 1290.99492,275.062979 C1288.92059,277.414021 1285.10918,278.583187 1279.54795,278.583187 L1236.26071,278.583187 C1230.6104,278.583187 1226.77353,277.414021 1224.74375,275.062979 C1222.71396,272.718292 1221.70225,268.175062 1221.70225,261.426937 L1221.70225,223.1685 C1221.70225,216.306 1222.71396,211.737354 1224.74375,209.4435 C1226.77353,207.156 1230.6104,206.01225 1236.26071,206.01225 L1279.54795,206.01225 C1285.1919,206.01225 1289.03513,207.156 1291.05855,209.4435 C1293.0947,211.737354 1294.10641,216.306 1294.10641,223.1685 L1294.10641,261.426937 Z M1186.55961,278.583187 L1128.9557,278.583187 L1128.9557,206.01225 L1142.69334,206.01225 L1142.69334,265.02975 L1186.55961,265.02975 L1186.55961,278.583187 Z M1084.42769,261.426937 C1084.42769,268.175062 1083.39053,272.718292 1081.3162,275.062979 C1079.24187,277.414021 1075.43046,278.583187 1069.86923,278.583187 L1026.58199,278.583187 C1020.93168,278.583187 1017.09481,277.414021 1015.06503,275.062979 C1013.03524,272.718292 1012.02353,268.175062 1012.02353,261.426937 L1012.02353,223.1685 C1012.02353,216.306 1013.03524,211.737354 1015.06503,209.4435 C1017.09481,207.156 1020.93168,206.01225 1026.58199,206.01225 L1069.86923,206.01225 C1075.51318,206.01225 1079.35641,207.156 1081.37983,209.4435 C1083.40961,211.737354 1084.42769,216.306 1084.42769,223.1685 L1084.42769,261.426937 Z M967.234636,278.583187 L957.849266,278.583187 L910.546999,229.694229 L910.546999,278.583187 L898.132859,278.583187 L898.132859,206.01225 L907.505503,206.01225 L954.941392,254.221312 L954.941392,206.01225 L967.234636,206.01225 L967.234636,278.583187 Z M852.020466,278.583187 L838.410088,278.583187 L838.410088,248.051417 L795.867318,248.051417 L795.867318,278.583187 L782.123318,278.583187 L782.123318,206.01225 L795.867318,206.01225 L795.867318,233.633812 L838.410088,233.633812 L838.410088,206.01225 L852.020466,206.01225 L852.020466,278.583187 Z M738.651555,230.202562 L724.913918,232.776 L724.913918,219.394125 L688.314155,219.394125 L688.314155,264.692979 L724.913918,264.692979 L724.913918,249.246 L738.651555,252.848812 L738.651555,261.426937 C738.651555,268.175062 737.614392,272.718292 735.546429,275.062979 C733.478466,277.414021 729.62251,278.583187 723.984925,278.583187 L689.103162,278.583187 C683.465577,278.583187 679.635073,277.388604 677.611651,274.980375 C675.581866,272.584854 674.570155,268.067042 674.570155,261.426937 L674.570155,223.1685 C674.570155,216.426729 675.581866,211.870792 677.611651,209.526104 C679.635073,207.187771 683.465577,206.01225 689.103162,206.01225 L723.984925,206.01225 C729.62251,206.01225 733.478466,207.187771 735.546429,209.526104 C737.614392,211.870792 738.651555,216.426729 738.651555,223.1685 L738.651555,230.202562 Z M635.068881,278.583187 L574.423481,278.583187 L574.423481,206.01225 L634.407133,206.01225 L634.407133,218.885792 L588.161118,218.885792 L588.161118,234.663187 L615.114629,234.663187 L615.114629,247.193604 L588.161118,247.193604 L588.161118,265.02975 L635.068881,265.02975 L635.068881,278.583187 Z M535.704851,219.051 L508.617718,219.051 L508.617718,278.583187 L495.013703,278.583187 L495.013703,219.051 L468.060192,219.051 L468.060192,206.01225 L535.704851,206.01225 L535.704851,219.051 Z M432.682118,299.437563 L1714.81915,299.437563 L1714.81915,183.474021 L432.682118,183.474021 L432.682118,299.437563 Z" id="Fill-12"></path>
            <polygon id="Fill-13" points="1235.44561 264.689167 1280.36813 264.689167 1280.36813 219.390312 1235.44561 219.390312"></polygon>
            <path d="M108.17037,76.25 L270.425926,76.25 L270.425926,25.4166667 C270.425926,11.4375 258.972593,0 244.974074,0 L25.4518519,0 C11.4533333,0 0,11.4375 0,25.4166667 L0,196.979167 C0,210.958333 11.4533333,222.395833 25.4518519,222.395833 L82.7185185,222.395833 L82.7185185,101.666667 C82.7185185,87.6875 94.1718519,76.25 108.17037,76.25" id="Fill-14"></path>
            <path d="M327.692593,76.25 L270.425926,76.25 L270.425926,196.979167 C270.425926,210.958333 258.972593,222.395833 244.974074,222.395833 L82.7185185,222.395833 L82.7185185,273.229167 C82.7185185,287.208333 94.1718519,298.645833 108.17037,298.645833 L327.692593,298.645833 C341.691111,298.645833 353.144444,287.208333 353.144444,273.229167 L353.144444,101.666667 C353.144444,87.6875 341.691111,76.25 327.692593,76.25" id="Fill-15"></path>
        </g>
    </g>
</svg>