<?xml version="1.0" encoding="UTF-8" standalone="no"?>
<svg width="1979px" height="1348px" viewBox="0 0 1979 1348" version="1.1" xmlns="http://www.w3.org/2000/svg" xmlns:xlink="http://www.w3.org/1999/xlink">
    <!-- Generator: Sketch 3.8.3 (29802) - http://www.bohemiancoding.com/sketch -->
    <title>prowebce</title>
    <desc>Created with Sketch.</desc>
    <defs></defs>
    <g id="Page-1" stroke="none" stroke-width="1" fill="none" fill-rule="evenodd">
        <g id="prowebce" transform="translate(0.000000, -1.000000)">
            <path d="M0,873.82091 C2.43794319,871.393942 1.66328405,868.029142 2.39020078,865.137107 C9.77641401,835.767098 28.0525175,815.330364 55.787779,804.861755 C98.5172381,788.732273 142.258528,787.81446 184.975667,804.66618 C234.31052,824.131203 254.70577,880.719905 229.56092,927.077151 C227.869914,930.195558 225.585979,932.992115 223.577718,935.939588 C221.684962,932.925897 218.634068,933.917628 215.988214,933.888369 C207.126606,933.785192 198.263458,933.83447 189.401851,933.85603 C186.334016,933.863729 183.187637,934.147081 181.649099,930.579007 C185.309864,924.118898 189.147738,917.698829 190.589251,910.302428 C193.410673,895.826857 193.623204,881.180352 191.453234,866.677062 C187.467513,840.042011 171.393721,824.326777 145.554295,818.208539 C128.020509,814.055282 110.378918,814.138439 93.0006794,818.724424 C73.8451914,823.778554 58.0809549,834.504336 52.404228,853.960119 C45.0349556,879.21383 43.578042,904.952627 57.7128763,929.11913 C38.4742241,929.166869 19.2371121,929.213067 0,929.259266 L0,873.82091 Z" id="Fill-1" fill="#0078BD"></path>
            <g id="Group-5" transform="translate(0.000000, 928.719312)" fill="#2A9AD6">
                <path d="M181.648945,1.85938721 C183.187483,5.42900137 186.333862,5.14564977 189.401697,5.13795 C198.263304,5.11639064 207.126452,5.0671121 215.98806,5.16874909 C218.635454,5.19800822 221.684808,4.20627763 223.577564,7.21996826 C211.486413,25.3575505 193.997289,36.3035459 173.568156,41.7611441 C133.288961,52.520805 93.1083308,52.35295 53.9533923,36.3081658 C47.8439036,33.8042 47.9286079,36.231168 47.9440086,40.8818301 C48.0425736,71.8703313 47.7992413,102.863452 48.1149573,133.850413 C48.1811806,140.333621 46.2037207,142.04913 39.9032623,141.888975 C26.6139308,141.550185 13.3014981,142.05683 -0.000154007782,142.215445 L-0.000154007782,0.539646347 C19.2369581,0.493447717 38.4740701,0.447249087 57.7111822,0.401050457 C90.8628974,36.1341509 147.235906,36.7978712 181.648945,1.85938721" id="Fill-3"></path>
            </g>
            <path d="M1979,829.162234 C1976.31102,830.441936 1973.4434,829.861373 1970.66202,829.864453 C1934.24996,829.906032 1897.83944,829.872153 1861.42738,829.899872 C1839.7477,829.916812 1830.66278,838.183287 1829.99439,859.64101 C1829.3953,878.853481 1829.84038,898.09521 1829.44766,917.31846 C1829.3414,922.509646 1831.61763,923.04247 1835.86363,923.023991 C1866.63284,922.896175 1897.40668,923.147187 1928.17281,922.800697 C1934.62266,922.72832 1936.30596,924.542386 1936.24744,930.888538 C1936.19046,937.085314 1934.79823,939.190432 1928.19745,939.110354 C1898.20136,938.746925 1868.19294,939.196591 1838.19839,938.771564 C1831.11403,938.669927 1828.35421,940.701127 1829.33986,947.613982 C1814.47657,947.634001 1799.61174,947.652481 1784.74844,947.6725 C1784.57134,903.81922 1784.43735,859.965941 1784.14781,816.112661 C1784.12009,811.903966 1785.24127,810.277774 1789.7306,810.293174 C1852.81988,810.514927 1915.91071,810.579605 1979,810.682782 L1979,829.162234 Z" id="Fill-6" fill="#0078BD"></path>
            <path d="M1784.74798,947.672038 C1799.61127,947.653559 1814.4761,947.633539 1829.3394,947.61352 C1829.44258,962.224607 1829.58427,976.837233 1829.64279,991.44832 C1829.77062,1023.7042 1849.36503,1046.04278 1881.38017,1049.4122 C1913.84655,1052.82782 1946.46231,1050.09132 1978.99954,1050.9152 L1978.99954,1070.9346 C1950.31867,1070.94076 1921.63164,1071.27493 1892.95693,1070.85915 C1864.06969,1070.43874 1836.31749,1065.37383 1813.16396,1046.29841 C1795.67021,1031.88598 1786.52677,1012.94454 1784.86503,990.42579 C1783.81624,976.188912 1782.79362,961.928935 1784.74798,947.672038" id="Fill-8" fill="#2A9AD6"></path>
            <g id="Group-12" transform="translate(1362.968872, 1272.129129)" fill="#2A9AD6">
                <path d="M85.7205775,1.98350753 C81.4838234,18.2947039 67.6862662,29.4054744 49.474846,31.2503397 C39.9725658,32.2143511 30.5026273,31.9002005 21.3607254,29.2052804 C16.446337,27.7561833 15.0525666,28.6601365 15.1603721,33.7820247 C15.456067,47.8495075 15.3482616,61.9246902 15.4006242,75.9983329 L-0.000154007782,75.9983329 C0.147693463,57.6667164 0.264739377,39.3351 0.474189961,21.0050235 C0.506531595,18.257745 -0.249646615,15.38881 1.29967167,12.7785874 C5.81826,12.7770475 10.3368483,12.7755075 14.8554367,12.7724276 C35.0982195,25.50785 59.5007526,20.144189 70.5800725,0.523630822 C75.420537,3.15079292 80.6383207,1.866471 85.7205775,1.98350753" id="Fill-10"></path>
            </g>
            <path d="M698.485509,652.967896 C695.457716,651.086072 692.021802,649.656995 690.678854,645.911826 C691.407311,645.851767 692.135768,645.790169 692.862685,645.728571 C692.7672,645.455999 692.673255,645.183427 692.57931,644.909315 C691.937098,645.241946 691.293345,645.574576 690.651133,645.905666 C690.162928,645.881027 689.492994,646.055041 689.20962,645.800949 C660.855247,620.274666 631.475183,595.693915 611.6282,562.270746 C610.8443,560.951005 610.168206,559.568126 609.442829,558.216046 C609.606078,556.209486 610.097363,554.165966 609.880212,552.199444 C606.87552,524.945333 606.978705,497.71894 611.189278,470.618823 C613.316125,456.934789 614.505065,442.965863 620.479027,430.138044 C620.999573,431.845853 621.674128,433.518243 622.017565,435.256852 C632.80273,489.731197 659.749472,534.456091 702.888591,569.426914 C693.871436,585.853607 680.611366,597.89143 664.286541,606.769266 C662.781885,607.586982 660.417865,607.930392 660.785944,610.220304 C661.174044,612.641112 663.605826,611.978932 665.230608,612.139087 C673.386861,612.941403 681.544653,613.822257 689.725546,614.253444 C698.040426,614.692331 705.144805,612.981442 709.407741,604.30072 C711.907287,599.21117 715.934591,594.635966 721.763785,592.199758 C722.734034,595.50604 721.029168,598.122423 721.019928,600.869701 C721.012227,603.065676 718.668229,606.581392 722.202707,607.180434 C725.175058,607.685539 724.603689,603.869532 725.03029,601.864512 C726.043661,597.098353 726.765958,592.281376 729.807612,588.243616 C775.036617,614.245745 823.994151,625.823121 875.885533,625.290297 C920.466166,624.832931 963.115541,614.331982 1004.72228,599.014056 C1021.52145,592.8296 1037.08086,583.953303 1053.31328,576.536883 C1051.89487,584.848016 1054.37439,590.327174 1063.45007,592.124301 C1067.88549,593.002075 1072.10223,595.147231 1076.31434,596.959757 C1086.44651,601.320908 1097.09769,601.978468 1107.85051,601.213111 C1119.47502,600.386156 1121.80054,596.020385 1116.32402,586.08152 C1114.97491,583.634532 1113.63197,581.067428 1111.75307,579.051628 C1108.44498,575.505113 1108.04456,571.938579 1110.63652,567.997836 C1115.76035,560.208747 1113.53494,553.533045 1107.68881,547.316249 C1106.14257,545.674658 1104.0881,544.379556 1103.67382,541.88945 C1104.3453,541.279628 1105.01523,540.672886 1105.68516,540.066144 C1130.39879,522.367449 1150.47063,499.856396 1169.44747,476.535328 C1186.68094,455.353256 1201.71364,432.488014 1213.25806,407.546914 C1225.99758,380.02639 1236.30841,351.754368 1240.04001,321.434207 C1245.49805,295.915624 1245.26704,270.224565 1242.06676,244.498088 C1237.51429,207.888754 1224.70084,174.30081 1204.51812,143.475544 C1228.3154,154.957443 1249.29434,170.315408 1267.58893,189.361563 C1267.01602,192.8511 1268.60692,195.904829 1269.67573,199.017077 C1275.92537,217.219337 1279.99733,236.043739 1281.01994,255.097594 C1282.73405,287.068586 1280.62106,318.790105 1272.28308,350.100457 C1257.04401,407.32362 1227.64085,456.374246 1187.99462,499.594604 C1168.59888,520.738177 1147.2226,539.833611 1123.18353,555.759819 C1117.80096,559.324813 1111.62062,571.515092 1114.25262,574.003658 C1123.34062,582.599683 1121.51408,597.88681 1133.48511,604.437775 C1124.9885,611.595483 1116.20544,618.375902 1106.65233,624.075273 C1093.51855,631.909021 1080.30622,639.608793 1067.12778,647.367083 C1065.17034,647.870648 1063.02347,648.013863 1061.28626,648.931676 C1036.72818,661.901172 1010.6947,670.917604 984.065219,678.524979 C950.055681,688.240551 915.430111,693.910662 880.108426,695.133386 C863.7451,695.700089 847.494198,694.298731 831.181694,692.418447 C800.02746,688.828813 769.909698,681.769662 740.842269,669.984392 C726.363998,664.114086 713.163991,655.809112 699.186244,649.000974 C698.608715,648.498949 698.288379,647.011353 697.193384,648.47893 C697.866398,648.643705 698.537872,648.80848 699.210886,648.973255 C698.969093,650.303775 698.727301,651.635836 698.485509,652.967896" id="Fill-13" fill="#EB641B"></path>
            <g id="Group-17" transform="translate(569.288716, 0.666800)" fill="#FACFAD">
                <path d="M51.1900032,429.468318 C45.2160413,442.299217 44.0271012,456.268143 41.9002538,469.952177 C37.689681,497.052294 37.5864958,524.278686 40.5911876,551.532798 C40.8083386,553.49932 40.3170538,555.542839 40.1538055,557.5494 C27.5682896,540.380449 20.4254086,520.649014 13.8954787,500.722005 C2.44191992,465.775821 -1.48065829,429.666972 0.82483821,393.179294 C4.1929884,339.873774 19.3057721,289.720541 44.655453,242.636437 C63.0932647,208.392473 85.6877464,177.257676 112.189406,148.78392 C152.825899,105.121595 200.046225,70.451063 253.677895,44.6368084 C295.638855,24.4403073 339.629638,10.386684 385.996761,4.55641689 C443.892907,-2.72448721 500.982051,-0.0203273973 556.35863,19.997539 C572.489405,25.8293461 589.468763,29.6946315 604.193447,39.1792103 C605.553335,40.0554443 605.804368,40.7284043 605.915254,41.9418884 C607.883473,43.0213963 609.492855,44.9355596 612.072485,44.5983096 C612.072485,44.5983096 611.961599,44.5213119 611.961599,44.5228518 C612.283476,46.2937993 613.869756,46.8250836 615.117219,47.6166201 C679.412388,88.4515893 719.395888,146.246076 735.777696,220.507294 C736.273601,222.751007 736.416828,225.082498 737.034399,227.286173 C737.690472,229.622283 738.23566,231.853677 737.330094,235.047542 C725.161939,218.040287 713.737642,201.659792 698.299902,188.694917 C680.005318,169.648762 659.026378,154.290797 635.230635,142.811977 C632.94516,140.070859 630.548799,137.409818 628.386529,134.570142 C601.844828,99.7040356 567.910753,74.6890174 527.27734,58.5749352 C528.638769,54.0767285 534.013641,50.183724 531.136775,45.2219911 C529.153155,41.8032925 529.866211,39.1376315 530.226589,35.9437662 C531.926835,20.8614534 526.690571,13.0631247 513.405859,10.6361566 C490.407877,6.43670114 473.400798,18.7224568 469.593725,42.2852982 C446.842156,38.5863279 423.899616,37.9195276 400.969398,39.0991326 C391.222245,39.6011578 381.074672,38.8542799 371.801864,43.2831886 C367.680616,43.3802057 363.779599,42.7503644 359.835459,41.245829 C347.536398,36.5520482 336.363133,38.986716 326.415771,47.4487651 C323.702153,49.7571566 321.033199,52.1209865 318.353463,54.4570973 C317.601905,54.5494945 316.801065,54.5202354 316.086469,54.7527685 C220.9189,85.7243301 146.061877,142.905915 94.0010865,228.652112 C63.060923,279.613821 46.8469837,335.044477 48.7458997,395.118096 C49.107818,406.583056 50.3522009,418.018757 51.1900032,429.468318" id="Fill-15"></path>
            </g>
            <path d="M760.738227,889.454988 C797.113325,887.851896 833.477642,886.675371 869.894322,888.806667 C879.062406,889.344112 884.615926,893.723742 888.721774,901.117062 C898.167071,918.130478 902.547052,936.859403 906.991717,955.545209 C913.433862,982.633005 915.804042,1010.49848 922.558823,1037.52776 C923.601456,1041.69795 924.975206,1045.78653 927.993758,1049.85201 C928.657532,1039.60054 929.61084,1029.3583 929.931176,1019.09604 C931.076994,982.454371 932.002581,945.804997 933.032893,909.160244 C933.105276,906.60084 933.360929,904.046056 933.531878,901.489731 C961.08541,902.252009 988.695925,899.931298 1016.20634,903.029686 C1017.3922,939.327949 1018.61194,975.626213 1019.74851,1011.92756 C1020.26906,1028.54212 1020.91127,1045.16285 1020.9698,1061.78204 C1021.02216,1076.70266 1018.73668,1091.36764 1013.32947,1105.36429 C1008.95411,1116.68911 1002.43496,1126.20757 990.188261,1130.32233 C972.538969,1119.33013 955.846065,1107.19529 944.711303,1089.12393 C941.506401,1083.9235 937.446756,1083.07807 931.954838,1083.12581 C906.876211,1083.34294 881.794504,1083.2644 856.715876,1083.18432 C851.578177,1083.16892 846.509781,1083.27518 841.601553,1084.97683 C831.551005,1064.38918 825.655587,1042.47409 820.892126,1020.19557 C820.325378,1017.54377 820.738118,1014.47464 817.885894,1012.73449 C818.434162,1010.79569 818.669794,1009.01858 818.290935,1006.83339 C814.282112,983.744852 810.07924,960.648617 803.344479,938.223802 C796.6282,915.863665 787.902119,894.362823 760.738227,889.454988" id="Fill-18" fill="#F18800"></path>
            <path d="M620.875751,1053.99064 C620.208898,1013.73931 619.528183,973.487987 618.87673,933.23666 C618.139033,887.598573 617.550723,841.955867 616.531192,796.32548 C616.415686,791.140453 617.772494,790.441314 622.365006,790.57529 C644.919446,791.229771 667.483126,791.611679 690.045266,791.93661 C693.972465,791.993588 695.953005,792.752786 696.191717,797.403448 C699.874043,869.086782 705.593892,940.628441 711.250598,1012.17472 C711.49239,1015.24077 711.533972,1018.32376 711.701841,1022.149 C715.307163,1019.08449 715.552035,1015.24231 716.201948,1011.59108 C720.464884,987.634007 724.723199,963.675397 728.983054,939.718328 C732.053969,939.895423 734.066851,941.607852 735.862582,943.994781 C757.281984,972.460837 778.601281,1001.00697 800.424184,1029.16042 C803.205564,1032.74697 804.761043,1038.99918 811.403399,1038.54952 C806.248758,1060.39223 799.627964,1081.74062 789.618998,1101.90324 C785.748782,1109.70157 781.028444,1116.98093 774.453852,1122.83122 C768.367464,1128.24878 761.547999,1131.89539 753.009808,1130.83128 C750.460979,1126.70266 745.614354,1125.62624 742.107597,1122.62794 C724.047105,1107.18528 719.074193,1085.74142 714.754275,1064.11276 C712.887701,1054.7714 711.341462,1052.76176 701.531167,1052.37831 C690.749082,1051.95636 680.097904,1053.63337 669.383582,1053.8813 C653.222006,1054.25397 637.045028,1053.98602 620.875751,1053.99064" id="Fill-20" fill="#F18800"></path>
            <path d="M1267.58816,189.361871 C1283.02744,202.326747 1294.45173,218.707241 1306.61835,235.714497 C1307.52391,232.519091 1306.97873,230.289238 1306.32419,227.951587 C1305.70508,225.749452 1305.56185,223.417961 1305.06595,221.174248 C1288.68414,146.91303 1248.70064,89.1185435 1184.40547,48.2835743 C1183.15801,47.4920378 1181.57173,46.9607535 1181.25139,45.1882661 C1183.86183,43.7299293 1185.56669,45.9505435 1187.34856,46.9622935 C1265.67538,91.4746736 1311.71447,158.510426 1325.98637,247.234895 C1333.20317,292.092225 1330.18308,336.609225 1318.57243,380.511783 C1311.71909,406.424595 1302.66035,431.54125 1290.60924,455.529119 C1287.17025,451.514458 1282.28974,448.896536 1279.6254,444.122677 C1276.79936,439.060847 1274.88966,439.555172 1272.19607,444.647801 C1259.41188,468.823545 1244.98135,491.984458 1228.03434,513.49762 C1219.71484,524.058627 1211.17819,534.447159 1202.7401,544.914228 C1201.73751,545.684206 1200.61633,546.340226 1199.74927,547.241099 C1179.73288,568.053582 1158.47826,587.467787 1135.1738,604.576679 C1134.61168,604.530481 1134.04801,604.484282 1133.48434,604.439623 C1121.51331,597.887118 1123.34139,582.599991 1114.25185,574.003966 C1111.61985,571.5154 1117.80173,559.325121 1123.18276,555.760127 C1147.22337,539.833919 1168.59965,520.738485 1187.99385,499.594912 C1227.64008,456.374554 1257.04324,407.323928 1272.28231,350.100765 C1280.62029,318.790413 1282.73482,287.068894 1281.01917,255.097902 C1279.9981,236.044047 1275.9246,217.218105 1269.6765,199.015845 C1268.60769,195.903597 1267.01525,192.851408 1267.58816,189.361871" id="Fill-22" fill="#F18800"></path>
            <path d="M1315.79259,977.712081 C1316.10523,984.872869 1316.20995,992.050596 1316.769,999.192904 C1318.89893,1026.37772 1333.50657,1043.06466 1359.0503,1047.30108 C1367.41446,1048.68704 1375.92339,1048.34055 1384.37072,1047.8262 C1408.07559,1046.38634 1423.82289,1033.70328 1428.98985,1010.56393 C1433.89654,988.593399 1433.78257,966.27946 1428.59251,944.393629 C1423.87833,924.512819 1412.06132,911.048998 1390.80362,907.188332 C1382.59655,905.699197 1374.48496,906.293619 1366.34565,906.2505 C1344.92624,906.136544 1328.50747,918.101989 1321.0304,938.338529 C1316.30698,951.12477 1315.98356,964.362217 1315.79259,977.712081 M1316.21149,856.885724 C1316.404,867.13412 1316.65042,877.382516 1316.769,887.632452 C1316.86757,896.15148 1316.96305,896.556488 1324.92525,893.359542 C1346.21375,884.812796 1368.14138,881.942321 1390.94377,884.159855 C1413.42891,886.34505 1433.99202,893.347223 1451.83691,907.362347 C1459.97622,913.754698 1465.19708,922.752651 1469.40611,931.855321 C1483.39464,962.100024 1483.58561,992.908351 1469.94206,1023.27625 C1460.06708,1045.25448 1442.07743,1058.52581 1419.2273,1064.67792 C1388.63981,1072.91206 1357.76741,1072.65181 1327.38168,1063.70313 C1291.92909,1053.26224 1273.65452,1028.19486 1269.03737,992.235391 C1266.60713,973.313972 1267.93775,954.317095 1267.80223,935.358717 C1267.61434,909.202593 1267.93621,883.043388 1268.03786,856.885724 L1316.21149,856.885724" id="Fill-24" fill="#F18800"></path>
            <path d="M1238.59111,940.924882 C1246.44859,955.171 1247.62521,970.490465 1246.27456,986.342755 C1245.88646,990.90564 1243.09122,990.143363 1240.39916,990.151062 C1227.82596,990.189561 1215.25277,990.169542 1202.67803,990.169542 C1168.03552,990.169542 1133.39301,990.251159 1098.7505,990.081764 C1093.56814,990.055585 1091.68771,990.617669 1092.91977,996.759007 C1100.38144,1033.97046 1126.23627,1052.9581 1166.08578,1049.91823 C1176.33962,1049.13439 1186.43945,1047.38655 1196.38066,1044.83792 C1200.30169,1043.83233 1201.60768,1045.6926 1201.81559,1048.93882 C1202.0081,1051.95097 1206.21405,1055.38969 1200.60971,1057.89211 C1162.50972,1074.90553 1124.84558,1075.07338 1088.73692,1053.19063 C1051.51478,1030.63184 1036.27109,984.246878 1052.58051,946.898365 C1053.18114,945.526266 1054.13291,944.308162 1054.91989,943.01922 C1057.1222,945.627903 1060.13151,944.562254 1062.80663,944.603833 C1074.27251,944.780928 1085.73993,944.794787 1097.20734,944.868705 C1095.40853,951.743061 1092.97983,958.481901 1092.63485,965.664249 C1093.16618,965.895242 1093.62974,966.270991 1094.09331,966.27253 C1128.06742,966.347988 1162.04154,966.355688 1196.01412,966.501984 C1199.5948,966.515843 1200.46494,965.069826 1199.81811,961.928319 C1198.63687,956.199689 1197.48489,950.463359 1196.32059,944.730109 C1207.60936,944.70239 1218.89813,944.650032 1230.18844,944.662351 C1233.58278,944.665431 1237.00329,944.905664 1238.59111,940.924882" id="Fill-26" fill="#F18800"></path>
            <path d="M1549.25976,926.152408 C1549.17506,952.05752 1553.9339,976.649051 1569.63037,998.020537 C1589.10928,1024.54625 1616.26393,1038.15637 1648.0804,1043.17816 C1683.70856,1048.80207 1717.41932,1042.79163 1748.9863,1025.18225 C1750.09977,1024.56165 1751.29025,1024.07348 1752.46687,1023.57146 C1752.65476,1023.49138 1752.952,1023.66232 1753.74822,1023.84249 C1755.0311,1031.54072 1752.58546,1039.23895 1752.42683,1047.00802 C1752.34983,1050.80401 1748.33946,1051.19978 1745.65973,1052.34243 C1725.25832,1061.04317 1703.85894,1066.50693 1681.94055,1068.8261 C1637.51392,1073.52912 1594.75058,1067.26612 1556.53971,1042.81781 C1515.60136,1016.62319 1497.6918,978.055029 1500.35921,929.743582 C1500.42698,928.525478 1501.04609,927.338173 1501.40801,926.135469 C1517.35859,926.141628 1533.30918,926.147788 1549.25976,926.152408" id="Fill-28" fill="#2A9AD6"></path>
            <path d="M590.940489,975.349175 C590.225892,1015.03842 575.833865,1049.41944 530.678784,1063.91811 C498.5466,1074.2358 465.824566,1073.35341 434.23757,1061.14311 C402.513507,1048.88046 385.298517,1024.4768 380.447272,991.161426 C379.541706,984.943091 377.413319,978.627738 380.00373,972.275426 C395.627819,972.296986 411.250369,972.317005 426.872918,972.337025 C428.756433,981.176363 427.374984,990.163536 428.10652,999.073712 C430.327313,1026.13841 444.602294,1042.86231 470.466361,1047.16187 C480.570812,1048.84196 490.884713,1048.52319 501.106209,1047.05099 C523.503561,1043.82632 536.361671,1030.44104 540.530661,1008.83702 C542.546623,998.386892 542.725272,987.582573 543.735563,976.938408 C549.6048,976.952268 555.486357,977.20482 561.340193,976.926089 C571.209012,976.454863 581.221057,978.55998 590.940489,975.349175" id="Fill-30" fill="#2A9AD6"></path>
            <path d="M1016.20664,903.028916 C988.696233,899.930528 961.085718,902.251239 933.532186,901.488961 C932.845311,867.12488 934.691865,832.808538 935.526587,798.473716 C935.626692,794.366658 936.484515,791.354507 941.859387,791.332948 C963.89944,791.24363 985.937954,790.438234 1007.97185,791.779534 C1011.02428,791.965869 1013.17885,791.985888 1013.27896,796.214603 C1014.1183,831.822967 1015.19789,867.425171 1016.20664,903.028916" id="Fill-32" fill="#EB641B"></path>
            <path d="M1549.25976,926.152408 C1533.30918,926.147788 1517.35859,926.141628 1501.40801,926.135469 C1504.89166,882.91357 1527.82342,852.2346 1564.20314,831.003249 C1598.42059,811.034662 1636.10475,806.833666 1674.87313,809.673342 C1701.50108,811.624464 1727.60232,816.616996 1753.32778,823.864021 C1759.01066,825.465574 1759.99939,827.740086 1758.72421,832.920493 C1757.32274,838.619864 1756.30167,844.46707 1755.77496,850.309657 C1755.31448,855.423845 1753.23229,855.457724 1749.39134,853.628259 C1731.79287,845.247827 1713.87406,837.752869 1694.4968,834.440428 C1664.41446,829.30006 1634.51539,826.511203 1605.50803,839.817948 C1587.48604,848.084423 1573.64844,860.66431 1563.19439,877.562229 C1553.89694,892.589103 1551.48364,909.266809 1549.25976,926.152408" id="Fill-34" fill="#0078BD"></path>
            <path d="M426.872764,972.337333 C411.250215,972.317313 395.627665,972.295754 380.003576,972.275734 C382.133503,938.248903 397.528121,912.460828 428.77938,898.057635 C463.388009,882.106788 499.490514,880.921023 534.912303,894.452602 C571.308963,908.35839 588.177435,937.35573 590.940335,975.349483 C581.222444,978.560288 571.208858,976.455171 561.341579,976.924857 C555.486203,977.205128 549.604646,976.952576 543.735409,976.938716 C543.211783,969.548475 542.892987,962.136675 542.124488,954.772613 C539.561798,930.216502 526.605124,914.519747 504.803782,909.983042 C491.137131,907.138746 477.381156,907.289661 463.743767,910.619043 C448.395352,914.364212 438.212357,923.845711 432.495588,938.469117 C428.228033,949.388933 427.689005,960.873913 426.872764,972.337333" id="Fill-36" fill="#0078BD"></path>
            <path d="M699.186552,649.00159 C713.164299,655.809728 726.364306,664.113162 740.842577,669.983468 C769.910006,681.768738 800.027768,688.827889 831.182002,692.419063 C847.494506,694.297807 863.743867,695.700705 880.108734,695.134002 C915.430419,693.909738 950.054449,688.239627 984.065527,678.524055 C1010.69501,670.91668 1036.72849,661.900248 1061.28657,648.932292 C1063.02378,648.014479 1065.17065,647.869724 1067.12808,647.367699 C1068.54188,652.164656 1071.65283,655.846687 1075.21195,659.12371 C1079.52571,663.095252 1078.25361,666.165921 1073.91675,668.774604 C1071.52501,670.214461 1069.02238,671.538822 1066.42735,672.553652 C1062.23834,674.192163 1060.41027,676.974861 1061.29581,681.437648 C1013.57342,702.150034 963.969052,714.863897 911.814316,717.175369 C889.546331,718.160939 867.416953,717.779031 845.436962,713.784389 C842.293664,709.758949 837.833598,708.336031 833.063977,707.465957 C787.818031,699.210261 745.368866,684.007832 707.546095,657.174128 C705.487011,655.714251 703.532652,652.768318 700.12754,654.360631 C700.12754,654.360631 700.182983,654.297493 700.186063,654.291333 C700.243046,653.093249 699.808744,652.518846 698.54896,652.988532 C698.54896,652.988532 698.487357,652.966972 698.485817,652.966972 C698.727609,651.636452 698.969401,650.304391 699.211194,648.972331 L699.186552,649.00159" id="Fill-38" fill="#F18800"></path>
            <path d="M620.875751,1053.99064 C637.045028,1053.98602 653.222006,1054.25397 669.383582,1053.8813 C680.097904,1053.63337 690.749082,1051.95636 701.531167,1052.37831 C711.341462,1052.76176 712.887701,1054.7714 714.754275,1064.11276 C719.074193,1085.74142 724.047105,1107.18528 742.107597,1122.62794 C745.614354,1125.62624 750.460979,1126.70266 753.009808,1130.83128 C722.017282,1130.67729 691.024756,1130.57411 660.03531,1130.34466 C644.964108,1130.23224 635.625076,1120.88934 630.365711,1108.50502 C623.053421,1091.29295 619.552824,1072.94286 620.875751,1053.99064" id="Fill-40" fill="#EB641B"></path>
            <path d="M811.403091,1038.54936 C804.762275,1038.99903 803.205256,1032.74682 800.425416,1029.16026 C778.600973,1001.00682 757.283216,972.460683 735.862274,943.994627 C734.066543,941.607698 732.053661,939.895269 728.982746,939.718174 C731.268221,927.259943 733.167137,914.724715 738.452684,903.016442 C742.834206,893.31165 750.060251,888.634809 760.739151,889.455604 C787.901503,894.361899 796.627584,915.864281 803.343863,938.224418 C810.078624,960.647693 814.283036,983.745468 818.290319,1006.834 C818.670718,1009.0192 818.433546,1010.79631 817.886818,1012.73357 C816.979712,1021.65452 813.228083,1029.8594 811.403091,1038.54936" id="Fill-42" fill="#EB641B"></path>
            <path d="M1061.29535,681.437186 C1060.4098,676.975939 1062.23788,674.191701 1066.42689,672.55319 C1069.02192,671.53836 1071.52454,670.213999 1073.91629,668.775682 C1078.25314,666.165459 1079.52679,663.09633 1075.21149,659.123248 C1071.65391,655.846225 1068.54295,652.165734 1067.12762,647.367237 C1080.30607,639.608947 1093.5184,631.909175 1106.65218,624.075427 C1116.20528,618.376056 1124.98835,611.595637 1133.48496,604.437929 C1134.04862,604.484128 1134.61075,604.530327 1135.17442,604.576525 C1136.95937,611.703434 1143.32143,615.425504 1147.31485,620.909281 C1149.04436,623.286971 1150.18402,621.500624 1151.64709,620.518133 C1173.96282,605.549776 1193.15065,587.004106 1211.98888,568.034949 C1215.56494,564.432996 1215.8129,561.505542 1212.29228,557.569419 C1208.7886,553.650235 1204.95689,549.854248 1202.73918,544.914074 C1211.17726,534.447005 1219.71391,524.058473 1228.03341,513.497466 C1244.98197,491.984304 1259.4125,468.823391 1272.19668,444.647647 C1274.88874,439.555018 1276.79998,439.060693 1279.62602,444.122523 C1282.29035,448.897921 1287.16932,451.514304 1290.60986,455.528965 C1286.7381,468.104232 1277.73942,478.056957 1272.89434,490.137899 C1272.42616,491.308264 1270.94152,492.404711 1271.04471,493.421081 C1272.63715,509.127076 1260.80319,518.348322 1253.06276,529.049465 C1222.98658,570.629772 1186.55296,606.028702 1144.53501,635.44799 C1120.1063,652.552263 1094.27765,667.452861 1067.12916,679.940351 C1065.28261,680.790405 1063.4915,681.919192 1061.29535,681.437186" id="Fill-44" fill="#FACFAD"></path>
            <path d="M1097.20765,944.868089 C1085.74023,944.794171 1074.27127,944.780312 1062.80539,944.603217 C1060.13028,944.561638 1057.12251,945.627287 1054.9202,943.018604 C1062.41575,925.28141 1075.65272,912.601426 1092.00373,903.489516 C1128.33571,883.243736 1165.40076,882.994264 1202.07155,902.500865 C1218.25931,911.11229 1231.15438,923.618259 1238.59142,940.925806 C1237.0036,944.905048 1233.58308,944.664815 1230.18721,944.661735 C1218.89844,944.650956 1207.60967,944.703314 1196.3209,944.731033 C1191.39419,933.316892 1185.29548,922.778984 1173.75568,916.774702 C1147.1801,902.945912 1112.60381,907.188486 1097.20765,944.868089" id="Fill-46" fill="#EB641B"></path>
            <path d="M841.601245,1084.97606 C846.509473,1083.27441 851.577869,1083.16815 856.715568,1083.18509 C881.795736,1083.26517 906.877443,1083.34217 931.95453,1083.12504 C937.446448,1083.0773 941.506093,1083.92427 944.710995,1089.1247 C955.845757,1107.19452 972.538661,1119.32936 990.187953,1130.3231 C972.081258,1132.51445 953.92528,1130.3154 935.784704,1130.8975 C916.097889,1131.52888 896.375652,1131.00838 876.668817,1131.07305 C873.507037,1131.08229 870.745677,1130.8821 868.446341,1128.15638 C857.396283,1115.05599 847.934045,1100.99621 841.601245,1084.97606" id="Fill-48" fill="#EB641B"></path>
            <path d="M287.902918,961.587989 C287.93988,995.682578 287.901378,1029.77563 288.103128,1063.86868 C288.130849,1068.53782 286.740159,1070.12243 282.01366,1070.01001 C270.225905,1069.7282 258.422748,1069.72358 246.634993,1070.01001 C241.779127,1070.12859 239.878671,1068.85505 239.924874,1063.63306 C240.182067,1033.64091 240.129704,1003.64568 240.162046,973.651992 C240.166666,969.515674 240.705693,965.477914 242.02862,961.55103 C257.320053,961.56335 272.611485,961.57567 287.902918,961.587989" id="Fill-50" fill="#2A9AD6"></path>
            <path d="M287.902918,961.587989 C272.611485,961.57567 257.320053,961.56335 242.02862,961.55103 C249.222323,924.867778 273.085829,903.844322 307.209333,892.858287 C329.751453,885.600483 353.137534,885.406448 376.534396,885.829936 C380.062715,885.894614 381.294777,887.151217 381.505768,890.817848 C382.320469,904.965408 382.469856,904.92229 368.983395,904.688217 C358.464663,904.506502 347.945932,904.386386 337.571968,906.628559 C308.566142,912.897713 293.556544,929.498421 287.902918,961.587989" id="Fill-52" fill="#0078BD"></path>
            <path d="M1316.21195,856.886186 L1268.03832,856.886186 C1267.91819,837.411923 1267.90279,817.936121 1267.59632,798.464938 C1267.52855,794.230064 1269.21186,793.319951 1273.01277,793.370769 C1285.57211,793.540164 1298.1376,793.554024 1310.6954,793.36307 C1314.56407,793.303011 1316.20579,794.34864 1316.18115,798.486498 C1316.06411,817.95306 1316.17961,837.419623 1316.21195,856.886186" id="Fill-54" fill="#EB641B"></path>
            <path d="M700.179132,1238.68891 C700.899889,1243.21484 704.429747,1242.25391 707.348195,1242.26007 C725.290101,1242.29857 743.235088,1242.45564 761.172374,1242.17229 C766.444061,1242.08913 768.235171,1243.51821 768.265973,1249.01585 C768.296774,1254.7337 766.048261,1255.74699 760.999886,1255.67461 C743.318252,1255.42668 725.625838,1255.77317 707.945745,1255.4621 C702.49695,1255.36662 699.949661,1256.41379 700.454806,1262.53511 C700.999994,1269.15383 700.873708,1275.87111 700.468667,1282.50985 C700.143711,1287.81192 701.817775,1289.58286 707.294292,1289.49355 C726.25727,1289.18094 745.229489,1289.54129 764.194007,1289.26563 C769.461073,1289.18864 771.229083,1290.63619 771.299926,1296.10303 C771.37385,1301.94408 768.421521,1302.01646 764.153965,1301.99798 C740.059448,1301.89326 715.96647,1301.93022 691.871953,1301.96718 C688.397537,1301.9718 685.345103,1302.31983 685.435967,1297.07782 C685.773245,1277.61742 685.768624,1258.14932 685.893371,1238.68583 C690.655291,1238.68583 695.417212,1238.68737 700.179132,1238.68891" id="Fill-56" fill="#2A9AD6"></path>
            <path d="M497.452067,1249.6326 C496.417134,1261.67504 487.138165,1269.89224 471.59724,1272.6272 C464.500561,1273.8761 457.376161,1274.3812 450.167057,1274.27957 C442.981054,1274.17639 436.084586,1272.21449 428.068481,1270.89167 C429.540795,1279.33524 434.606111,1283.90274 441.108319,1287.01653 C456.512178,1294.39137 472.036162,1291.66103 487.595568,1287.27216 C489.685454,1286.68236 493.209152,1282.73392 494.193262,1287.30604 C495.015663,1291.12359 497.156372,1296.92614 490.521716,1298.94502 C470.345157,1305.08481 450.185538,1306.84806 430.692773,1296.83374 C413.373058,1287.93434 406.324122,1267.79174 413.525526,1249.48476 C418.438374,1249.64338 423.385104,1249.49092 428.122383,1251.15407 C425.947793,1256.10195 427.537154,1258.20398 432.918186,1259.27425 C441.725891,1261.02672 450.524355,1262.66215 459.453726,1261.60266 C468.540186,1260.52624 478.047086,1259.64076 482.556434,1249.53712 C487.521645,1249.56792 492.486856,1249.60026 497.452067,1249.6326" id="Fill-58" fill="#2A9AD6"></path>
            <path d="M1448.68945,1274.11264 C1443.60719,1273.9956 1438.38941,1275.27992 1433.54894,1272.65276 C1433.70295,1265.53663 1434.9766,1258.30655 1432.7635,1251.36443 C1428.89945,1239.25115 1416.46178,1232.50615 1401.96195,1234.28172 C1389.5751,1235.79857 1379.23348,1246.25332 1378.37258,1258.83629 C1377.77965,1267.49699 1377.97986,1276.21159 1377.82431,1284.90156 C1373.30572,1284.90464 1368.78713,1284.90618 1364.26854,1284.90772 C1364.10684,1266.95185 1364.00981,1248.99598 1363.73876,1231.04165 C1363.67099,1226.55269 1363.62325,1223.34034 1369.93757,1223.31878 C1375.9947,1223.29876 1376.80324,1226.00292 1376.33813,1230.74752 C1376.26729,1231.47438 1376.56914,1232.23974 1376.81402,1233.6642 C1395.83244,1218.66196 1415.99206,1216.78322 1435.54951,1230.58429 C1450.42204,1241.08062 1452.56274,1257.0946 1448.68945,1274.11264" id="Fill-60" fill="#0078BD"></path>
            <path d="M1536.97287,1254.20888 C1537.05603,1268.55048 1536.98211,1282.89515 1537.29475,1297.23059 C1537.42873,1303.38578 1533.25358,1301.84121 1529.98862,1301.90589 C1526.60661,1301.9721 1522.59316,1303.11783 1522.82572,1297.07351 C1523.15221,1288.62994 1522.81339,1280.16173 1522.90888,1271.70738 C1522.94738,1268.30716 1522.56698,1265.42899 1518.32407,1265.27345 C1507.58973,1264.88076 1496.82458,1263.76276 1486.20882,1266.52082 C1479.75744,1268.19629 1474.35793,1271.50873 1474.43801,1278.74497 C1474.52425,1286.43859 1480.56752,1289.45074 1487.14211,1291.03073 C1496.78916,1293.3499 1506.38384,1291.92698 1515.94773,1290.01282 C1515.49032,1300.13186 1513.06008,1302.9161 1503.65791,1303.4058 C1493.93232,1303.91245 1484.18208,1304.26202 1474.88617,1300.35823 C1464.23191,1295.8862 1459.48231,1288.91175 1459.74721,1277.92418 C1459.9736,1268.49196 1465.45628,1261.86707 1475.97655,1258.11112 C1488.57746,1253.61292 1501.61268,1253.85161 1514.68794,1254.38752 C1517.47857,1254.50147 1520.29229,1255.26067 1523.05673,1254.18732 C1527.69544,1254.19348 1532.33416,1254.20118 1536.97287,1254.20888" id="Fill-62" fill="#2A9AD6"></path>
            <path d="M1300.2144,1260.5404 C1292.24757,1271.52028 1280.05324,1272.58747 1268.12534,1274.00268 C1257.1569,1275.30395 1246.34401,1273.32818 1235.3802,1270.96897 C1237.96445,1282.71421 1248.98987,1290.37548 1263.27563,1291.30099 C1276.25541,1292.14181 1288.67151,1289.66864 1300.78115,1284.9995 C1302.73242,1297.68718 1302.66158,1297.92587 1291.17414,1300.78557 C1276.00591,1304.56462 1260.7807,1305.31766 1245.71412,1300.3821 C1226.14589,1293.97127 1216.4049,1278.95672 1218.40392,1258.75098 C1223.4831,1258.12883 1228.87799,1260.55734 1233.66917,1257.16482 C1250.44986,1262.84725 1267.23209,1264.26863 1284.01432,1257.16328 C1288.94565,1260.53732 1294.59157,1260.48188 1300.2144,1260.5404" id="Fill-64" fill="#2A9AD6"></path>
            <path d="M550.165696,1249.4264 C548.562475,1221.30067 563.670639,1200.50821 591.812481,1192.74376 C616.040985,1186.06036 639.936832,1188.13314 663.624769,1195.98998 C672.640385,1198.97903 668.463694,1205.6455 669.336918,1212.2442 C656.666698,1207.07765 644.395358,1203.87455 631.626572,1202.50091 C619.952783,1201.24585 608.519245,1202.1421 597.382942,1205.51922 C576.243834,1211.93159 566.291851,1225.2599 565.105991,1247.95728 C560.093038,1248.11128 555.003081,1247.48452 550.165696,1249.4264" id="Fill-66" fill="#0078BD"></path>
            <path d="M550.165696,1249.4264 C555.003081,1247.48452 560.093038,1248.11128 565.105991,1247.95728 C574.726857,1279.50325 596.167821,1293.42751 629.0146,1290.26753 C641.367565,1289.08022 653.34167,1287.0136 664.576537,1281.70692 C668.483715,1279.86052 669.189071,1280.98622 669.58179,1284.87615 C670.237864,1291.35474 668.479095,1295.32166 661.742794,1297.40522 C632.244144,1306.52945 603.216757,1307.64899 575.752549,1291.45483 C560.106899,1282.23051 551.078962,1268.07063 550.165696,1249.4264" id="Fill-68" fill="#2A9AD6"></path>
            <path d="M1567.64968,1246.5205 C1572.49939,1252.6988 1579.90254,1253.57196 1586.71584,1255.5739 C1595.7407,1258.22724 1604.9442,1259.83803 1613.5594,1264.327 C1620.97487,1268.19228 1624.43235,1273.47895 1624.49857,1281.1433 C1624.56634,1288.95857 1620.58215,1294.89355 1613.68723,1298.52168 C1600.73517,1305.33752 1586.82057,1303.98082 1572.99529,1302.78736 C1569.95056,1302.52402 1566.93816,1301.72325 1563.94425,1301.02873 C1552.45835,1298.37077 1552.32899,1298.13515 1554.6622,1285.48597 C1566.86732,1289.80708 1579.34195,1292.34339 1592.33251,1291.60729 C1602.50626,1291.03134 1609.32111,1287.6958 1609.04851,1282.4769 C1608.61113,1274.02717 1601.08169,1273.36653 1595.18935,1271.46776 C1586.18606,1268.56803 1576.58367,1267.71644 1567.85913,1263.81265 C1560.70701,1260.61109 1554.05387,1256.82588 1552.66934,1248.02812 C1557.52983,1246.20019 1562.62287,1246.6899 1567.64968,1246.5205" id="Fill-70" fill="#2A9AD6"></path>
            <path d="M1650.93539,1249.84095 C1663.22522,1255.09374 1676.28816,1257.86104 1689.02768,1261.6678 C1699.42474,1264.77543 1704.62713,1270.25305 1705.09839,1278.77516 C1705.70364,1289.72269 1702.04596,1296.19666 1691.35012,1300.04347 C1673.50678,1306.46046 1655.52021,1304.3384 1637.86013,1298.91468 C1631.9909,1297.11139 1634.0469,1291.24417 1634.90934,1287.67763 C1635.9335,1283.43814 1639.46798,1287.00467 1641.67029,1287.64067 C1652.34611,1290.72212 1663.17131,1292.29134 1674.27219,1291.49672 C1677.05049,1291.29806 1679.86884,1290.85456 1682.53163,1290.05994 C1686.3156,1288.93116 1689.68991,1287.19871 1689.89782,1282.39251 C1690.10265,1277.68641 1687.18113,1275.53509 1683.44952,1273.91352 C1676.59463,1270.93679 1669.17916,1269.97278 1662.064,1267.94004 C1652.81121,1265.29902 1642.96703,1263.60199 1636.94071,1254.74263 C1639.03675,1251.54414 1642.3125,1253.07332 1645.10928,1252.73145 C1647.4117,1252.44964 1650.34708,1253.54454 1650.93539,1249.84095" id="Fill-72" fill="#2A9AD6"></path>
            <path d="M1930.32045,1261.71754 C1928.93746,1239.03094 1915.09986,1228.95502 1894.64301,1235.73543 C1883.60219,1239.39591 1878.04559,1247.64698 1877.09844,1261.78684 C1872.48437,1261.80378 1867.87183,1261.82072 1863.25776,1261.83766 C1863.10067,1251.6139 1862.89584,1241.39015 1862.8096,1231.16485 C1862.7788,1227.52132 1861.5837,1223.49434 1868.00274,1223.3773 C1873.85196,1223.27104 1876.73652,1224.68472 1875.76473,1230.92 C1875.70775,1231.28343 1876.16515,1231.72539 1876.71958,1232.75408 C1886.72547,1224.10724 1898.4855,1221.13513 1911.39751,1221.86045 C1934.90988,1223.18173 1946.04926,1236.52697 1944.51535,1261.716 C1939.78423,1261.71754 1935.05157,1261.71754 1930.32045,1261.71754" id="Fill-74" fill="#0078BD"></path>
            <path d="M1755.78358,1263.35837 C1755.07977,1245.42714 1765.10876,1230.98853 1782.71185,1225.02428 C1796.79124,1220.25504 1810.87217,1220.48912 1824.70207,1226.09301 C1841.04537,1232.71481 1849.91314,1246.94861 1849.01836,1264.78282 C1844.10859,1264.82286 1839.19728,1264.8629 1834.28597,1264.90294 C1832.0467,1244.19363 1821.78824,1234.21473 1802.60811,1234.08845 C1783.60509,1233.96372 1772.7537,1243.79787 1770.29574,1263.37069 C1765.45835,1263.36607 1760.62097,1263.36299 1755.78358,1263.35837" id="Fill-76" fill="#0078BD"></path>
            <path d="M82.0832217,1249.41762 C88.6639742,1261.51858 95.2431867,1273.61954 102.196638,1286.40424 C109.448865,1273.22685 116.388455,1260.62079 123.328046,1248.01472 C128.342539,1247.93002 133.375514,1247.65591 138.214438,1249.42994 C129.459096,1266.19234 120.826959,1283.02096 111.876027,1299.68019 C109.203992,1304.65424 95.2308661,1304.74356 92.5680715,1299.77105 C83.6448606,1283.10412 75.0743275,1266.24932 66.3682676,1249.46536 C71.6060723,1249.44996 76.845417,1249.43456 82.0832217,1249.41762" id="Fill-78" fill="#2A9AD6"></path>
            <path d="M972.392046,1263.25904 C972.746263,1244.44696 982.129958,1231.10633 999.826992,1225.01581 C1014.71646,1219.89084 1029.79999,1220.02328 1043.85628,1227.19793 C1058.22058,1234.52965 1066.8173,1246.22714 1065.63914,1263.35914 C1060.73707,1263.34682 1055.83654,1263.3345 1050.93601,1263.32218 C1050.58026,1251.00254 1045.37017,1241.74434 1033.73489,1236.84266 C1011.36217,1227.4166 990.360133,1239.41439 987.095168,1263.36068 L972.392046,1263.25904 Z" id="Fill-80" fill="#0078BD"></path>
            <path d="M165.391267,1263.25827 C165.586857,1244.93743 174.858126,1231.40893 192.103917,1225.26759 C207.461573,1219.79922 223.057941,1219.83156 237.517732,1227.57907 C251.379972,1235.00781 259.967446,1246.49895 258.638359,1263.35837 C253.736291,1263.34759 248.835764,1263.33527 243.935236,1263.32295 C243.579478,1251.00331 238.369395,1241.74357 226.734107,1236.84189 C204.362937,1227.41583 183.359355,1239.41362 180.09439,1263.36145 C175.193863,1263.32603 170.291795,1263.29215 165.391267,1263.25827" id="Fill-82" fill="#0078BD"></path>
            <path d="M877.934453,1261.82395 C877.805086,1251.33225 877.789685,1240.839 877.49245,1230.35191 C877.367704,1225.96304 877.731162,1223.24964 883.474112,1223.34974 C888.730398,1223.44059 891.14062,1224.69258 890.248915,1230.17327 C890.104147,1231.05875 890.35672,1232.0089 890.506108,1234.00314 C901.298973,1223.74396 913.676579,1220.67484 927.132239,1222.0069 C947.767741,1224.05041 959.962077,1232.99447 959.229,1258.73481 C954.597986,1258.74713 949.965432,1258.76099 945.334418,1258.77485 C943.99147,1242.89638 936.817788,1235.10575 922.713755,1234.21257 C906.398171,1233.17926 895.716191,1240.7928 892.498968,1255.80273 C892.075447,1257.78311 891.902958,1259.81585 891.614964,1261.82395 L877.934453,1261.82395" id="Fill-84" fill="#0078BD"></path>
            <path d="M972.392046,1263.25904 C977.292573,1263.29292 982.194641,1263.3268 987.095168,1263.36068 C988.596744,1270.90183 990.106021,1278.43375 996.62825,1283.61569 C1007.60592,1292.33338 1019.91731,1293.59152 1032.70149,1289.10409 C1044.57857,1284.93544 1050.07511,1275.61101 1050.93601,1263.32218 C1055.83654,1263.3345 1060.73707,1263.34682 1065.63914,1263.35914 C1066.68639,1279.966 1057.18873,1294.3615 1040.22477,1300.12093 C1021.90709,1306.34234 1003.84197,1305.66014 987.540251,1294.11818 C977.129325,1286.74642 971.672829,1276.37637 972.392046,1263.25904" id="Fill-86" fill="#2A9AD6"></path>
            <path d="M243.934466,1263.32279 C248.834994,1263.33511 253.737061,1263.34743 258.637589,1263.35821 C259.686382,1279.96662 250.187182,1294.36211 233.220145,1300.12308 C214.903999,1306.33988 196.838886,1305.66538 180.537163,1294.11726 C170.126237,1286.74396 164.674361,1276.37391 165.390497,1263.25811 C170.292565,1263.29199 175.193093,1263.32587 180.09362,1263.36129 C181.547454,1271.20274 183.284661,1278.83937 190.19037,1284.1014 C201.123383,1292.43563 213.199133,1293.48896 225.675304,1289.11087 C237.555464,1284.94221 243.073563,1275.62241 243.934466,1263.32279" id="Fill-88" fill="#2A9AD6"></path>
            <path d="M1755.78358,1263.35837 C1760.62097,1263.36299 1765.45835,1263.36607 1770.29728,1263.37069 C1773.20032,1280.86919 1782.82735,1290.41998 1798.44374,1291.29314 C1818.6203,1292.42038 1827.81302,1285.65228 1834.28597,1264.90294 C1839.19728,1264.8629 1844.10859,1264.82286 1849.01836,1264.78282 C1849.12308,1280.82145 1839.6978,1294.55476 1823.39608,1300.03392 C1803.6569,1306.66958 1784.44751,1305.79335 1767.74691,1291.76282 C1759.14095,1284.5312 1754.35131,1275.10668 1755.78358,1263.35837" id="Fill-90" fill="#2A9AD6"></path>
            <path d="M700.178978,1238.68891 C695.417058,1238.68737 690.655137,1238.68583 685.893217,1238.68583 C685.76231,1224.34578 685.705327,1210.00264 685.446594,1195.66567 C685.381911,1192.09297 686.515408,1190.6716 690.243936,1190.68854 C715.350285,1190.79787 740.458174,1190.88103 765.562982,1190.6408 C771.24895,1190.5869 770.685281,1193.84082 770.828508,1197.53517 C770.979436,1201.4713 770.254059,1203.58257 765.484438,1203.52098 C746.529161,1203.2792 727.556942,1203.81665 708.618605,1203.22222 C701.463403,1202.99893 700.069633,1205.37816 700.391509,1211.81363 C700.836592,1220.7469 700.297564,1229.72792 700.178978,1238.68891" id="Fill-92" fill="#0078BD"></path>
            <path d="M1233.6684,1257.16482 C1228.87876,1260.55734 1223.48233,1258.12883 1218.40469,1258.75098 C1220.25741,1241.56971 1230.44656,1230.93016 1245.91048,1225.17381 C1260.37489,1219.79013 1275.01795,1220.60477 1289.3761,1226.28104 C1302.13102,1231.32285 1310.67384,1246.02479 1300.21363,1260.5404 C1294.5908,1260.48188 1288.94488,1260.53732 1284.01355,1257.16328 C1291.29504,1249.2664 1291.57379,1242.32274 1284.03357,1238.18027 C1267.44077,1229.06528 1238.0299,1234.25954 1233.6684,1257.16482" id="Fill-94" fill="#0078BD"></path>
            <path d="M278.491194,1249.53189 C278.41419,1247.99963 278.079994,1246.43042 278.303305,1244.94436 C279.362878,1237.89907 277.188288,1234.22936 269.381634,1235.65844 C264.564271,1236.54083 264.844565,1233.15909 264.869206,1229.94983 C264.893847,1226.57117 264.313238,1222.74284 269.644987,1223.64525 C276.713945,1224.8418 278.817691,1221.64331 277.80894,1215.14471 C277.537886,1213.39532 278.00145,1211.52735 277.708835,1209.78412 C276.438271,1202.20755 279.697075,1200.00695 286.989344,1200.64142 C291.389346,1201.02332 292.692252,1202.35846 292.541324,1206.59334 C292.351895,1211.90772 290.770235,1219.07467 293.497713,1222.12224 C297.123056,1226.17078 304.552391,1223.24332 310.332303,1223.54824 C315.436121,1223.81619 320.587681,1223.89473 325.679179,1223.52206 C330.699832,1223.15401 332.82822,1224.26585 332.889823,1230.03914 C332.952966,1236.1081 329.832769,1235.79087 325.754643,1235.73235 C317.054743,1235.60916 308.322502,1236.14044 299.661104,1235.54756 C293.309823,1235.11329 291.552594,1237.55258 292.26411,1243.29815 C292.510523,1245.29701 292.127043,1247.37441 292.031559,1249.41639 C287.519131,1249.45489 283.005162,1249.49339 278.491194,1249.53189" id="Fill-96" fill="#0078BD"></path>
            <path d="M1085.49197,1249.53189 C1085.41497,1247.99963 1085.08077,1246.43042 1085.30408,1244.94436 C1086.36366,1237.89907 1084.18753,1234.2309 1076.38241,1235.65844 C1071.56505,1236.54083 1071.84534,1233.15909 1071.86998,1229.94983 C1071.89463,1226.57117 1071.31402,1222.74284 1076.64577,1223.64525 C1083.71472,1224.8418 1085.81847,1221.64177 1084.80972,1215.14471 C1084.53866,1213.39532 1085.00223,1211.52735 1084.70961,1209.78412 C1083.43905,1202.20755 1086.69631,1200.00695 1093.99012,1200.64142 C1098.39012,1201.02332 1099.69303,1202.35846 1099.5421,1206.59334 C1099.35267,1211.90772 1097.77101,1219.07467 1100.49849,1222.12224 C1104.12383,1226.17078 1111.55317,1223.24332 1117.33308,1223.54824 C1122.4369,1223.81773 1127.58846,1223.89473 1132.67996,1223.52206 C1137.70061,1223.15401 1139.829,1224.26585 1139.8906,1230.03914 C1139.95374,1236.1081 1136.83201,1235.79087 1132.75542,1235.73389 C1124.05552,1235.60916 1115.32328,1236.14044 1106.66188,1235.54756 C1100.3106,1235.11329 1098.55337,1237.55258 1099.26489,1243.29815 C1099.5113,1245.29701 1099.12782,1247.37441 1099.03234,1249.41639 C1094.51991,1249.45489 1090.00594,1249.49339 1085.49197,1249.53189" id="Fill-98" fill="#0078BD"></path>
            <path d="M278.491194,1249.53189 C283.005162,1249.49339 287.519131,1249.45489 292.031559,1249.41639 C292.177866,1256.82357 292.279511,1264.23075 292.479721,1271.63639 C292.838559,1284.85074 298.635412,1290.56397 311.927824,1291.14761 C316.856073,1291.36474 321.568711,1290.01421 326.392235,1289.65848 C328.432838,1289.50756 332.481702,1285.44362 332.463222,1291.20151 C332.450901,1294.86814 335.584959,1300.38734 328.748554,1301.91189 C318.898216,1304.10941 308.943153,1304.56215 299.060474,1302.53095 C287.275798,1300.10861 280.086715,1292.8585 278.523536,1280.75292 C277.185208,1270.37209 276.948036,1259.94044 278.491194,1249.53189" id="Fill-100" fill="#2A9AD6"></path>
            <path d="M1085.49197,1249.53189 C1090.00594,1249.49339 1094.51991,1249.45489 1099.03234,1249.41639 C1099.17864,1256.82665 1099.29569,1264.23691 1099.47588,1271.64563 C1099.7993,1284.82302 1105.72397,1290.67793 1118.86546,1291.15531 C1124.05706,1291.34473 1129.01765,1290.03268 1134.09067,1289.48292 C1135.8787,1289.29043 1139.18217,1286.17972 1139.36235,1290.39457 C1139.5256,1294.17208 1142.55648,1300.11169 1136.50551,1301.57618 C1123.9508,1304.61451 1111.16199,1305.44147 1098.85061,1300.08705 C1091.74777,1296.99944 1087.51563,1291.11219 1086.08644,1283.78201 C1083.88105,1272.46489 1083.94419,1260.97991 1085.49197,1249.53189" id="Fill-102" fill="#2A9AD6"></path>
            <path d="M428.122999,1251.15469 C423.38418,1249.49154 418.43745,1249.64399 413.526142,1249.48538 C418.266501,1236.09702 428.321669,1228.38646 441.336867,1224.34254 C455.222209,1220.02913 469.133732,1220.72057 482.541649,1226.41378 C493.516244,1231.07368 497.785339,1238.11898 497.452683,1249.63167 C492.487472,1249.60088 487.522261,1249.56854 482.55705,1249.5362 C483.322469,1242.09668 479.068774,1238.17903 472.731353,1236.0308 C455.008138,1230.02344 438.412259,1235.70895 428.122999,1251.15469" id="Fill-104" fill="#0078BD"></path>
            <path d="M1155.66131,1261.71754 C1155.51808,1251.24123 1155.41489,1240.76493 1155.21006,1230.28862 C1155.13614,1226.52959 1154.77884,1223.12321 1160.46327,1223.44198 C1165.02036,1223.69607 1169.50045,1223.06931 1168.44549,1229.90979 C1168.33615,1230.61201 1168.71347,1231.38968 1169.05998,1233.09287 C1179.04585,1222.76594 1191.11082,1220.40365 1204.30774,1222.38249 C1210.20162,1223.26642 1213.44965,1230.02528 1210.83151,1235.4336 C1210.31867,1236.49309 1209.8012,1237.05364 1208.57068,1236.62245 C1207.60967,1236.2852 1206.62248,1235.98953 1205.62143,1235.80473 C1183.30416,1231.69613 1172.72999,1239.35741 1169.84542,1261.70676 C1165.11738,1261.70984 1160.38935,1261.71446 1155.66131,1261.71754" id="Fill-106" fill="#0078BD"></path>
            <path d="M1536.97287,1254.20888 C1532.33416,1254.20118 1527.69544,1254.19348 1523.05673,1254.18732 C1522.61318,1240.57259 1517.82508,1235.42452 1504.15843,1233.98312 C1493.55808,1232.86511 1483.21337,1234.08322 1472.96878,1237.04147 C1471.25621,1237.5358 1467.73559,1241.25786 1467.04256,1236.46399 C1466.56667,1233.17618 1464.34896,1227.87412 1469.32803,1226.36805 C1488.91628,1220.44538 1508.75248,1218.05229 1527.3366,1229.19848 C1536.3784,1234.6222 1538.17413,1244.1576 1536.97287,1254.20888" id="Fill-108" fill="#0078BD"></path>
            <path d="M361.728396,1233.94724 C369.559692,1224.61358 379.80583,1221.27188 391.656729,1221.80008 C404.256105,1222.36216 404.966081,1223.21838 403.375181,1236.47122 C377.749826,1232.65214 370.760953,1235.76901 363.525667,1254.24076 C358.549676,1254.18994 353.575224,1254.13758 348.599233,1254.08522 C348.476027,1246.23608 348.573052,1238.37307 348.15107,1230.53932 C347.884637,1225.59145 348.901088,1223.32001 354.640958,1223.34619 C360.322305,1223.37237 361.760738,1225.59607 361.104665,1230.54548 C360.972218,1231.54645 361.0061,1232.56744 360.961438,1233.57919 C360.966058,1233.98112 360.973758,1234.38459 360.981459,1234.78651 C361.229411,1234.50624 361.478904,1234.22751 361.728396,1233.94724" id="Fill-110" fill="#0078BD"></path>
            <path d="M82.0832217,1249.41762 C76.845417,1249.43456 71.6060723,1249.44996 66.3682676,1249.46536 C55.9958435,1230.38994 45.6218793,1211.31607 35.1555104,1192.06972 C49.7708489,1188.48163 51.8022116,1189.35632 57.8731984,1201.38952 C65.9478264,1217.39581 74.0132139,1233.40826 82.0832217,1249.41762" id="Fill-112" fill="#0078BD"></path>
            <path d="M1650.93539,1249.84095 C1650.34708,1253.54454 1647.4117,1252.44964 1645.10928,1252.73145 C1642.3125,1253.07332 1639.03675,1251.54414 1636.94071,1254.74263 C1631.06069,1246.85498 1632.22961,1236.79292 1639.89304,1230.30355 C1647.33623,1224.0036 1656.44271,1222.66692 1665.7109,1221.95392 C1676.03712,1221.1593 1686.13233,1222.69772 1696.13668,1225.08619 C1699.42474,1225.87156 1701.36986,1227.2914 1701.36832,1231.30452 C1701.36678,1236.34479 1700.43504,1238.27282 1694.81529,1236.56963 C1683.65281,1233.18481 1672.09914,1232.69356 1660.58706,1234.35055 C1655.14751,1235.13439 1649.41072,1236.31092 1648.26644,1243.40395 C1647.81828,1246.18048 1648.13245,1248.48733 1650.93539,1249.84095" id="Fill-114" fill="#0078BD"></path>
            <path d="M138.214284,1249.42963 C133.37536,1247.65561 128.342385,1247.93126 123.327892,1248.01441 C132.497515,1230.07549 141.761083,1212.18276 150.767458,1194.16221 C152.76956,1190.15525 155.968301,1190.77123 159.216325,1190.74351 C162.26876,1190.71733 165.322734,1190.73889 169.898305,1190.73889 C158.986854,1210.95079 148.600569,1230.18944 138.214284,1249.42963" id="Fill-116" fill="#0078BD"></path>
            <path d="M1567.64968,1246.5205 C1562.62287,1246.6899 1557.52983,1246.20019 1552.66934,1248.02812 C1552.04253,1236.09963 1555.3768,1230.13847 1566.16042,1225.91592 C1582.87643,1219.37111 1599.80651,1221.0512 1616.62724,1225.72034 C1622.16535,1227.25722 1620.21716,1232.11423 1619.63655,1235.35738 C1618.91271,1239.39822 1615.5769,1236.81725 1613.43773,1236.29059 C1602.12278,1233.50327 1590.66614,1232.68555 1579.17254,1234.35487 C1572.50247,1235.3235 1566.49924,1237.75354 1567.64968,1246.5205" id="Fill-118" fill="#0078BD"></path>
            <path d="M1738.47342,1247.90816 C1738.57044,1264.31637 1738.59046,1280.72458 1738.82302,1297.13126 C1738.87384,1300.77325 1737.58171,1302.74901 1734.01027,1301.84506 C1730.5836,1300.97806 1724.20306,1305.10822 1724.10141,1298.53262 C1723.83806,1281.6809 1722.70764,1264.77836 1724.67894,1247.9405 C1729.27761,1247.92972 1733.87475,1247.91894 1738.47342,1247.90816" id="Fill-120" fill="#2A9AD6"></path>
            <path d="M348.598771,1254.08584 C353.574762,1254.1382 358.550754,1254.18902 363.526745,1254.24137 C363.443581,1268.30886 363.121705,1282.37942 363.398919,1296.4392 C363.505184,1301.81364 360.876271,1302.52048 356.824327,1301.90296 C353.414594,1301.384 348.038183,1304.41925 348.19065,1297.02439 C348.484805,1282.71359 348.480185,1268.39817 348.598771,1254.08584" id="Fill-122" fill="#2A9AD6"></path>
            <path d="M700.127232,654.360169 C703.532344,652.769396 705.488243,655.713789 707.547327,657.175206 C745.370098,684.00737 787.819263,699.209799 833.063669,707.465495 C837.83329,708.335569 842.293356,709.758487 845.438194,713.783927 C809.404994,710.376008 775.814356,698.829431 743.780738,682.570593 C728.301415,674.713746 713.296437,665.899047 700.127232,654.360169" id="Fill-124" fill="#EB641B"></path>
            <path d="M945.334572,1258.77485 C949.965586,1258.76099 954.5966,1258.74713 959.229154,1258.73481 C959.313859,1271.53491 959.307698,1284.33809 959.54487,1297.13665 C959.612634,1300.77402 958.305108,1302.74824 954.736747,1301.84583 C951.310074,1300.98037 945.026557,1305.11669 944.823266,1298.55187 C944.416686,1285.3175 943.521901,1272.00613 945.334572,1258.77485" id="Fill-126" fill="#2A9AD6"></path>
            <path d="M1155.66131,1261.71754 C1160.38935,1261.71446 1165.11738,1261.70984 1169.84542,1261.70676 C1169.98557,1273.75229 1170.16114,1285.79781 1170.25046,1297.84487 C1170.29821,1304.1941 1165.35456,1301.66396 1162.37451,1301.81488 C1159.51766,1301.95963 1155.15616,1303.63048 1155.24086,1297.85873 C1155.41643,1285.81167 1155.52578,1273.76461 1155.66131,1261.71754" id="Fill-128" fill="#2A9AD6"></path>
            <path d="M1863.25807,1261.8372 C1867.8706,1261.82026 1872.48468,1261.80332 1877.09875,1261.78638 C1877.18961,1273.56857 1877.18345,1285.3523 1877.43141,1297.12987 C1877.50687,1300.7657 1876.19934,1302.74917 1872.62636,1301.84675 C1869.19815,1300.97976 1862.94081,1305.12224 1862.7098,1298.54663 C1862.28012,1286.33941 1861.37455,1274.04134 1863.25807,1261.8372" id="Fill-130" fill="#2A9AD6"></path>
            <path d="M1930.32045,1261.71754 C1935.05157,1261.71754 1939.78423,1261.71754 1944.51535,1261.716 C1944.65241,1273.76153 1944.8249,1285.80551 1944.90961,1297.85103 C1944.95273,1304.20026 1940.00754,1301.66088 1937.02749,1301.81488 C1934.1691,1301.96271 1929.81376,1303.62432 1929.90001,1297.85411 C1930.07712,1285.80859 1930.18492,1273.76307 1930.32045,1261.71754" id="Fill-132" fill="#2A9AD6"></path>
            <path d="M877.934453,1261.82395 L891.614964,1261.82395 C891.719689,1273.59999 891.638065,1285.38218 892.004604,1297.15051 C892.194033,1303.24873 888.097426,1301.90435 884.775478,1301.90435 C881.45353,1301.90435 877.355383,1303.24873 877.544813,1297.15051 C877.911351,1285.38218 877.829727,1273.59999 877.934453,1261.82395" id="Fill-134" fill="#2A9AD6"></path>
            <path d="M790.347917,1307.98439 C791.646202,1304.11449 792.98761,1300.2569 794.238153,1296.3716 C798.678198,1282.56437 798.665877,1282.56129 814.456295,1284.24138 C810.941837,1292.3939 807.538265,1300.28462 804.136233,1308.17381 C799.540641,1308.11067 794.943509,1308.04753 790.347917,1307.98439" id="Fill-136" fill="#0078BD"></path>
            <path d="M790.347917,1307.98439 C794.943509,1308.04753 799.540641,1308.11067 804.136233,1308.17381 C802.765564,1315.51477 798.92923,1321.92714 796.294157,1328.79072 C795.15912,1331.74897 785.26874,1333.78787 782.750713,1331.93376 C780.995024,1330.64174 782.10542,1329.08177 782.565904,1327.85289 C785.06083,1321.19258 787.735945,1314.60004 790.347917,1307.98439" id="Fill-138" fill="#2A9AD6"></path>
            <path d="M1738.47342,1247.90816 C1733.87475,1247.91894 1729.27761,1247.92972 1724.67894,1247.9405 C1724.56806,1241.56047 1724.67124,1235.16658 1724.2893,1228.80348 C1723.89812,1222.32028 1728.39515,1223.79093 1731.98969,1223.64464 C1735.62735,1223.49526 1739.24346,1222.95012 1738.80453,1228.76961 C1738.32403,1235.12192 1738.5535,1241.52659 1738.47342,1247.90816" id="Fill-140" fill="#0078BD"></path>
            <path d="M1731.58742,1187.50622 C1737.51056,1187.68794 1740.88641,1191.13127 1740.92337,1196.57809 C1740.96034,1202.17583 1737.07472,1205.67614 1731.52274,1205.60684 C1726.03852,1205.53755 1722.14829,1202.11269 1722.17755,1196.46567 C1722.20527,1190.83098 1725.89837,1187.80497 1731.58742,1187.50622" id="Fill-142" fill="#0078BD"></path>
            <path d="M1181.36197,45.2649558 C1178.78234,45.6022058 1177.17296,43.6895825 1175.20474,42.6100745 C1177.9353,41.921715 1180.50107,41.616804 1181.36197,45.2649558" id="Fill-144" fill="#F18800"></path>
            <path d="M698.548344,652.988994 C699.809668,652.517768 700.24243,653.092171 700.185447,654.291795 C699.638719,653.860608 699.093532,653.424801 698.548344,652.988994" id="Fill-146" fill="#EB641B"></path>
            <path d="M361.728396,1233.94724 C361.478904,1234.22751 361.229411,1234.50624 360.981459,1234.78651 C360.973758,1234.38459 360.966058,1233.98112 360.961438,1233.57919 C361.303335,1233.52375 361.558988,1233.64695 361.728396,1233.94724" id="Fill-148" fill="#2A9AD6"></path>
            <path d="M848.504181,106.880223 C844.567742,116.543436 839.351499,125.606068 836.788809,135.953021 C835.659932,140.512826 829.350234,142.451628 826.344002,146.748101 C819.706266,156.234219 814.260551,166.408698 808.89646,176.580096 C801.474825,190.650659 793.110662,204.122179 784.589412,217.509003 C781.262844,222.737147 780.554408,227.783578 783.37583,233.376692 C790.412446,247.333298 797.661592,261.148229 806.390753,274.167003 C809.384665,278.63287 812.689672,280.727208 818.514246,278.529693 C818.315576,290.739991 811.967375,300.286168 806.898979,310.243513 C800.726347,322.369113 794.45669,335.070657 792.212797,348.012433 C787.652627,374.316393 781.091895,400.012071 769.51513,423.679629 C750.247216,463.076281 735.618017,504.370157 717.389656,544.139477 C713.357732,552.937237 707.76571,561.020457 702.891364,569.430147 C659.749164,534.456245 632.802422,489.731351 622.017257,435.255466 C621.67382,433.518397 620.999265,431.844467 620.478719,430.138198 C619.640917,418.685557 618.396534,407.249856 618.034616,395.784896 C616.1357,335.711278 632.349639,280.280621 663.289802,229.318912 C715.350593,143.572715 790.207616,86.3911304 885.375185,55.4195687 C886.091321,55.1870356 886.890621,55.2162947 887.642179,55.1238975 C883.861288,60.9695642 880.305248,67.1032023 870.382527,66.2947263 C874.466813,69.8089021 874.884174,71.5752297 870.770627,74.1546532 C857.9849,82.1716555 847.265959,92.3153347 841.818704,106.952601 C840.779151,109.744538 839.450064,112.504136 841.330499,115.892036 C843.880868,112.756689 846.235647,109.863114 848.590426,106.96954 L848.504181,106.880223" id="Fill-150" fill="#2A9AD6"></path>
            <path d="M729.806842,588.244078 C734.889098,583.533357 735.763863,577.813967 734.037435,571.352318 C731.970651,563.610968 732.843875,556.220727 736.490779,548.990642 C746.555188,529.040533 757.267969,509.563191 771.7293,492.297223 C779.84551,482.60629 785.560739,471.421602 789.092137,459.146626 C791.71797,450.016236 795.004496,441.199998 801.856302,434.066929 C805.409262,430.366419 807.54381,425.518643 809.174752,420.635447 C816.987567,397.226602 831.251768,377.36889 844.202282,356.790481 C845.888667,354.11096 864.397322,350.619884 867.160222,352.246075 C868.90051,353.273225 868.395365,354.845518 868.139712,356.311555 C865.067256,374.030269 863.966101,391.909139 863.665786,409.858847 C863.55336,416.625406 861.497356,423.082435 859.105615,429.209913 C849.954473,452.635699 847.545791,477.396624 843.868085,501.926557 C840.934237,521.496297 837.401298,540.847363 825.447214,557.48657 C822.844483,561.108542 822.123726,565.689906 823.928698,569.9525 C826.623834,576.317131 827.53094,582.700242 825.883056,589.449862 C825.544239,590.837361 824.943609,592.793103 826.874866,593.396765 C829.332831,594.166742 829.679348,592.149402 830.175253,590.318396 C831.176304,586.628666 832.372944,582.991293 833.618867,578.902715 C839.086144,581.455959 839.914705,586.299115 840.855693,590.906659 C843.028743,601.540043 844.75517,603.520425 855.112193,604.193385 C862.262775,604.656911 869.465719,604.331981 876.644021,604.321201 C878.144057,604.318121 880.104576,604.518315 880.403351,602.627251 C880.548119,601.707898 879.490085,600.189503 878.558338,599.576602 C873.04794,595.954629 869.542722,590.281437 863.631904,586.688724 C858.306315,583.45174 858.623571,575.416258 857.851992,569.085506 C855.369386,548.70729 862.498407,530.193959 869.170024,511.626729 C875.23023,494.762689 881.307377,477.900189 887.746442,461.179365 C891.573536,451.2405 892.799438,440.79499 894.379558,430.469596 C898.369899,404.384309 909.024158,380.441099 917.485345,355.78643 C917.816462,354.820879 918.061334,353.662833 918.743589,353.006813 C930.911744,341.275441 927.271,325.164438 929.864491,310.978379 C932.23313,298.021203 931.219759,284.569702 929.414788,271.033503 C940.763621,271.994435 952.488234,275.935178 959.387782,263.024201 C961.380643,264.354721 960.581343,265.586685 960.364192,266.630774 C959.050505,272.943047 960.864717,276.808332 968.016838,276.384845 C973.368609,276.069154 974.757759,278.177352 971.80389,282.6232 C967.627199,288.910833 965.266259,294.973634 969.187298,302.644146 C970.833641,305.865731 968.314073,310.325438 966.530663,313.490045 C955.623832,332.85343 952.555997,354.485169 947.544584,375.619502 C941.408914,401.499975 934.107405,427.103256 928.017937,452.994508 C921.159971,482.147384 918.515657,511.665228 924.968583,541.27701 C926.545623,548.511716 923.491649,555.418411 925.328961,562.609998 C926.320772,566.493763 925.941912,570.557702 928.717133,574.087277 C931.215139,577.264203 928.570825,579.775869 926.520982,582.08734 C921.919229,587.276986 917.546948,592.602148 914.41751,598.882082 C912.352266,603.027639 912.986778,606.3601 917.674775,606.942203 C926.788955,608.07561 935.998621,608.890245 945.057358,606.010531 C949.495863,604.599933 952.81011,601.751017 954.715186,597.785635 C958.132619,590.672586 964.100421,587.229248 971.275643,586.040403 C978.33998,584.868498 980.51919,580.508887 980.968893,574.307491 C980.987374,574.051858 981.013555,573.791606 980.984294,573.539054 C979.316389,559.704104 983.48692,546.831626 987.540405,533.946828 C988.561477,530.700604 989.61335,527.569877 986.790387,524.607005 C984.367845,522.06608 986.511633,519.614473 987.558886,517.564793 C990.535856,511.734526 991.435262,505.588568 992.360849,499.168499 C997.493928,463.529336 1008.14049,429.376228 1021.45138,396.013118 C1022.01967,394.58558 1022.07049,391.963038 1024.52229,392.264869 C1026.47665,392.505102 1027.17739,394.57634 1027.76416,396.222551 C1030.30683,403.35716 1029.92643,410.844418 1030.25138,418.248518 C1031.64977,450.025476 1031.90081,481.814753 1031.61435,513.61789 C1031.43416,533.743554 1037.2803,551.607024 1053.24012,564.919929 C1058.33624,569.171743 1053.74989,572.682839 1053.31405,576.537345 C1037.08163,583.953765 1021.52222,592.828522 1004.72151,599.014518 C963.114771,614.332444 920.465396,624.833393 875.884763,625.290759 C823.993381,625.823583 775.035847,614.244667 729.806842,588.244078" id="Fill-152" fill="#2A9AD6"></path>
            <path d="M1240.0394,321.434361 C1236.30779,351.754522 1225.99697,380.025004 1213.25744,407.547068 C1201.71302,432.488168 1186.68186,455.35341 1169.44685,476.535482 C1150.47001,499.85655 1130.39972,522.367603 1105.68763,540.063218 C1104.46481,522.563177 1110.25088,505.771515 1110.6051,488.331532 C1111.17185,460.482998 1109.11276,432.697602 1110.06607,404.819808 C1110.89309,380.630206 1113.40958,356.471402 1110.68518,332.076985 C1107.20615,300.931409 1123.23682,274.667488 1135.77151,247.990859 C1141.439,235.929936 1146.63984,235.883738 1157.71608,243.160022 C1189.88214,264.291275 1217.02602,290.687633 1240.0394,321.434361" id="Fill-154" fill="#0078BD"></path>
            <path d="M1240.0394,321.434361 C1217.02602,290.687633 1189.88214,264.291275 1157.71608,243.160022 C1146.63984,235.883738 1141.439,235.929936 1135.77151,247.990859 C1123.23682,274.667488 1107.20615,300.931409 1110.68518,332.076985 C1113.40958,356.471402 1110.89309,380.630206 1110.06607,404.819808 C1109.11276,432.697602 1111.17185,460.482998 1110.6051,488.331532 C1110.25088,505.771515 1104.46481,522.563177 1105.68763,540.063218 C1105.01616,540.67304 1104.34622,541.279782 1103.67475,541.889604 C1098.47236,532.274129 1101.51094,522.353743 1102.91395,512.630472 C1106.81189,485.621213 1106.99824,458.588854 1104.76204,431.439459 C1103.13572,411.712644 1106.27902,392.064367 1106.46537,372.37605 C1106.6933,348.171048 1108.69078,323.664215 1098.92361,300.480202 C1098.05346,298.418203 1097.79319,296.682675 1099.01293,294.703834 C1099.80761,293.411812 1101.11206,291.571566 1100.7178,290.541337 C1096.93999,280.694869 1105.20404,277.354708 1110.32634,272.449953 C1123.63108,259.705291 1132.88078,243.725185 1144.42367,229.568385 C1154.07995,217.724596 1154.72525,201.73371 1157.94401,187.219641 C1162.5781,166.324 1162.61661,145.275904 1157.85006,124.283247 C1156.25146,117.244116 1154.15542,110.426738 1150.56396,104.169903 C1146.36878,96.8643598 1140.67204,92.1967582 1131.51627,92.1336201 C1123.27686,92.0766418 1115.61343,90.418111 1109.92438,82.8692548 C1107.01826,79.016289 1101.62028,77.0882662 1097.47901,74.1084546 C1087.73494,67.0924226 1087.72878,66.4086829 1096.56575,59.2417354 C1137.19916,75.3558176 1171.13324,100.370836 1197.67494,135.236942 C1199.83721,138.076618 1202.23357,140.737659 1204.51904,143.478778 C1224.70022,174.300964 1237.51367,207.888908 1242.06768,244.498242 C1245.26642,270.224719 1245.49897,295.915778 1240.0394,321.434361" id="Fill-156" fill="#2A9AD6"></path>
            <path d="M699.210578,648.972793 C698.537564,648.808018 697.86609,648.643243 697.193076,648.480008 C698.288071,647.010891 698.608407,648.498487 699.185936,649.002052 L699.210578,648.972793" id="Fill-158" fill="#F18800"></path>
            <path d="M690.651595,645.905974 C691.293807,645.573344 691.93602,645.242254 692.578232,644.909623 C692.673717,645.182195 692.767662,645.456307 692.863147,645.728879 C692.13469,645.790477 691.407773,645.852075 690.679316,645.912134 C690.677776,645.912134 690.651595,645.905974 690.651595,645.905974" id="Fill-160" fill="#F18800"></path>
            <path d="M1038.88244,42.9522524 C1034.04198,46.7543997 1030.48748,58.2393791 1034.20985,62.6652079 C1038.77464,68.0935469 1035.95167,74.5490355 1038.60523,80.0097136 C1039.70792,82.2796063 1037.22532,83.0726828 1035.65444,83.6147467 C1028.202,86.1833905 1023.95601,91.3822764 1022.06633,98.9403723 C1021.36868,101.732309 1019.05856,103.629533 1016.52975,105.055531 C1011.8818,107.674993 1007.31239,110.449991 1002.57357,112.892359 C979.435437,124.822385 979.418497,124.791586 964.524404,146.617359 C958.656707,136.740091 949.430101,134.359322 938.886728,134.43786 C933.956939,134.473279 929.473773,132.643813 925.759105,127.712879 C928.82386,127.226254 931.150918,126.856664 934.241854,126.365419 C926.475241,124.30342 925.800687,122.172123 929.706325,116.369575 C936.385642,106.44765 942.824707,96.3609487 949.360798,86.3420058 C949.916766,85.4904111 950.434232,83.8873186 950.99328,83.8765389 C958.193144,83.7364031 958.146942,78.3619624 958.573543,73.4818471 C959.003225,68.5570732 957.102769,64.5947707 954.814213,60.0519054 C951.395241,53.2668666 949.075883,46.4941474 941.08904,43.9501428 C950.363388,39.5212341 960.510961,40.268112 970.258114,39.7660869 C993.188332,38.5864818 1016.13087,39.2532821 1038.88244,42.9522524" id="Fill-162" fill="#2A9AD6"></path>
            <path d="M836.049572,180.709792 C847.312161,205.122688 840.289406,237.0829 820.716557,254.247231 C818.030662,256.601821 816.550647,256.547923 814.952046,253.461854 C810.699891,245.252358 807.271678,236.74565 805.563732,227.619881 C804.676647,222.876821 805.793203,218.760523 808.531462,214.622666 C816.470563,202.626422 826.206935,192.160892 836.049572,180.709792" id="Fill-164" fill="#2A9AD6"></path>
            <path d="M919.348223,223.478174 C918.937022,220.061015 920.765095,216.705454 923.286202,213.688684 C929.876195,205.804118 933.992823,196.821564 934.969233,186.596267 C935.366573,182.429151 937.570424,179.721911 940.978616,178.40525 C945.022861,176.843736 945.452542,181.559076 947.671794,183.254566 C952.881878,187.235348 952.378272,191.999967 950.411593,197.537643 C948.113797,204.010071 945.370918,210.44862 945.423281,217.558589 C945.451002,221.174402 945.973089,224.25585 948.249324,227.543653 C951.913169,232.836476 949.864865,240.277535 954.201724,245.924548 C955.190454,247.21195 950.892097,250.733825 948.283205,252.224501 C945.541867,253.790635 945.40326,250.190221 943.883203,249.195411 C936.258278,244.201339 933.33829,233.38316 922.181966,232.392969 C919.539193,232.157356 919.47451,227.31882 919.348223,223.478174" id="Fill-166" fill="#2A9AD6"></path>
            <path id="Fill-168" fill="#2A9AD6"></path>
        </g>
    </g>
</svg>