<?xml version="1.0" encoding="UTF-8" standalone="no"?>
<svg width="1648px" height="501px" viewBox="0 0 1648 501" version="1.1" xmlns="http://www.w3.org/2000/svg" xmlns:xlink="http://www.w3.org/1999/xlink">
    <!-- Generator: Sketch 3.8.3 (29802) - http://www.bohemiancoding.com/sketch -->
    <title>qualiforce</title>
    <desc>Created with Sketch.</desc>
    <defs></defs>
    <g id="Page-1" stroke="none" stroke-width="1" fill="none" fill-rule="evenodd">
        <g id="qualiforce" transform="translate(-1.000000, 0.000000)" fill="#002BC7">
            <path d="M728.369134,181.01828 L703.303952,244.114787 C698.886991,255.240224 691.789835,264.109154 682.005338,270.742999 C672.22084,277.383985 661.392853,280.675914 649.521377,280.633069 C637.707078,280.597365 629.945234,277.326858 626.242991,270.850111 C622.540749,264.359083 623.098229,255.054562 627.915433,242.936548 L652.608961,180.76121 L683.77784,180.868323 L659.105753,242.972252 C656.747182,248.913435 657.840701,251.891168 662.393459,251.905449 C666.796126,251.919731 670.176745,248.95628 672.535316,243.015097 L697.207403,180.911168 L728.369134,181.01828 Z" id="Fill-1"></path>
            <path d="M795.929341,229.790966 L785.730306,255.462304 L776.75344,255.4266 L767.555012,278.591501 L736.386133,278.49153 L760.972453,216.608966 C765.732479,204.633769 772.94399,195.336389 782.614133,188.731107 C792.284276,182.118685 803.491064,178.841037 816.227349,178.883882 C828.513362,178.926727 836.396709,181.961586 839.891683,187.988459 C843.393804,194.029614 842.650497,203.319854 837.661761,215.866318 L812.682345,278.7486 L781.520613,278.641487 L805.73528,217.687234 C807.243336,213.881163 807.807964,211.239051 807.422016,209.768037 C807.036068,208.289882 805.585189,207.547234 803.076527,207.540093 C798.21644,207.525811 794.449873,210.89629 791.769678,217.637248 L786.952475,229.762403 L795.929341,229.790966 Z" id="Fill-3"></path>
            <path d="M897.93684,181.583121 L929.105719,181.690234 L906.127516,239.509656 C904.340719,244.029811 903.926182,247.036107 904.891052,248.542825 C905.855923,250.035262 908.643325,250.799332 913.25326,250.813614 L914.85423,250.820755 L903.647442,279.055656 L895.356706,279.027093 C883.99268,278.984248 876.359485,275.87798 872.464269,269.701149 C868.561905,263.524318 868.790615,254.976727 873.128957,244.044093 L897.93684,181.583121 Z" id="Fill-5"></path>
            <polygon id="Fill-7" points="1013.84133 181.970155 975.189346 279.292732 944.027614 279.18562 982.686744 181.870183"></polygon>
            <path d="M1085.82993,228.120723 L1075.46651,254.21337 L1065.11024,254.177666 L1055.01841,279.55623 L1023.86383,279.449117 L1047.84978,219.066131 C1052.35966,207.705046 1059.8642,198.321976 1070.37772,190.902638 C1080.87693,183.490441 1091.86216,179.805765 1103.3191,179.841469 C1115.95532,179.884314 1124.5105,184.982877 1128.98464,195.137159 L1096.54356,212.375159 C1096.58645,208.66192 1094.7925,206.798159 1091.14744,206.791018 C1086.34453,206.769596 1082.71376,209.854441 1080.26227,216.038413 L1075.47366,228.085018 L1085.82993,228.120723 Z" id="Fill-9"></path>
            <path d="M1208.53926,208.894711 C1202.13538,208.873289 1195.82441,211.044106 1189.58492,215.400021 C1183.34542,219.755937 1178.99279,225.02588 1176.5413,231.209852 C1174.09697,237.386683 1174.2542,242.663768 1177.04875,247.055387 C1179.83616,251.447007 1184.41036,253.653528 1190.75706,253.674951 C1197.20382,253.689232 1203.52193,251.539838 1209.73284,247.198204 C1215.92945,242.870852 1220.27494,237.586627 1222.74786,231.35981 C1225.22794,225.132993 1225.08499,219.834486 1222.34047,215.47857 C1219.58881,211.108373 1214.98602,208.916134 1208.53926,208.894711 M1220.84671,180.2385 C1235.68427,180.288486 1246.42649,185.344204 1253.05908,195.412796 C1259.69167,205.474246 1260.22771,217.492289 1254.68149,231.466923 C1249.03521,245.684345 1238.89336,257.730951 1224.24877,267.635303 C1209.60419,277.532514 1194.64513,282.459697 1179.343,282.40257 C1164.14094,282.352585 1153.15571,277.318289 1146.37303,267.299683 C1139.5975,257.281077 1139.00428,245.213049 1144.61482,231.095599 C1150.28254,216.835331 1160.48158,204.781585 1175.24052,194.934359 C1189.97801,185.087134 1205.18008,180.181373 1220.84671,180.2385" id="Fill-11"></path>
            <path d="M1339.28988,209.261037 L1311.02276,280.412417 L1279.86817,280.312445 L1318.53445,182.989868 L1358.50866,183.125544 C1370.70176,183.168389 1379.02823,186.003304 1383.50237,191.63029 C1388.46967,197.935656 1389.05574,205.904839 1385.2177,215.552121 C1381.30819,225.392206 1373.38196,233.675586 1361.43901,240.395121 L1363.45452,280.590938 L1330.76329,280.476685 L1328.09739,249.064107 L1338.03197,224.035445 L1340.49061,224.042586 C1347.04458,224.071149 1351.35433,221.464741 1353.43416,216.237642 C1355.26384,211.631797 1352.39067,209.303882 1344.81465,209.282459 L1339.28988,209.261037 Z" id="Fill-13"></path>
            <path d="M1493.49185,233.406376 L1525.80428,234.298982 C1517.42778,249.980277 1506.75703,262.08401 1493.82062,270.603038 C1480.87707,279.129207 1466.73278,283.363728 1451.38063,283.313742 C1435.77832,283.256615 1424.63586,278.350855 1417.99612,268.596461 C1411.33495,258.849207 1410.86323,246.766897 1416.58813,232.363813 C1422.34876,217.867897 1432.55494,205.692756 1447.19238,195.845531 C1461.84411,185.991165 1477.02473,181.092545 1492.73425,181.149672 C1508.18646,181.199658 1519.1574,186.091137 1525.63275,195.816968 C1530.14262,202.550785 1531.49344,211.905292 1529.70664,223.88763 L1495.49306,225.844221 C1495.99336,215.182939 1491.01178,209.841587 1480.57688,209.805883 C1473.93,209.784461 1467.59045,211.905292 1461.56537,216.168376 C1455.54029,220.431461 1451.22339,225.865644 1448.60037,232.470925 C1446.06312,238.8477 1446.09171,244.117644 1448.68614,248.280756 C1451.28772,252.458151 1455.83333,254.557559 1462.33727,254.578982 C1468.93412,254.600404 1474.91631,252.79377 1480.28385,249.144799 C1485.65853,245.488686 1490.05405,240.247306 1493.49185,233.406376" id="Fill-15"></path>
            <g id="Group-19" transform="translate(1557.939394, 183.208790)">
                <path d="M73.3938026,38.7372437 L64.7814433,60.4168493 L44.4334043,60.3454408 C41.6745905,60.3383 39.5733177,60.7096239 38.1081446,61.4665535 C36.6572658,62.2234831 35.5780407,63.5016944 34.8561749,65.3083282 C34.0485429,67.3506099 34.0985732,68.6930887 35.0277074,69.3500465 C35.9425472,69.9855817 38.2224996,70.3140606 41.8532701,70.3283423 L62.8088199,70.3997507 L51.7592701,98.2062014 L27.2730104,98.1205113 C15.7660407,98.084807 7.98275498,95.506962 3.91600606,90.3726944 C-0.136448485,85.2384268 -0.257950649,77.854793 3.58008831,68.2003704 L18.7392701,30.0611169 C22.4343654,20.7423141 28.180703,13.5300606 35.9782831,8.41721549 C43.768716,3.29722958 52.8885255,0.762229577 63.3305645,0.797933803 L90.4255472,0.883623944 L79.3188199,28.8328915 L59.4424952,28.7686239 C54.0678113,28.7543423 50.7443697,30.3538915 49.4578762,33.5886944 C48.7074216,35.4881592 48.8146294,36.8092155 49.8009411,37.5518634 C50.7944,38.2945113 52.9242615,38.6658352 56.1976727,38.6801169 L73.3938026,38.7372437 Z" id="Fill-17"></path>
            </g>
            <path d="M273.607974,386.336142 C365.735203,388.628354 492.797879,306.401523 556.850961,203.052072 C620.896896,99.7026211 598.047342,13.7554099 505.920113,11.4631986 C413.785736,9.17812817 286.723061,91.3978183 222.677126,194.75441 C158.63119,298.103861 181.473597,384.043931 273.607974,386.336142 M266.53226,397.754354 C168.787342,395.326466 144.551234,304.145015 212.499532,194.497339 C280.447831,84.8496634 415.250909,-2.3829 512.995827,0.052128169 C610.740745,2.48001549 634.976853,93.6614662 567.028554,203.309142 C499.073108,312.956818 364.277177,400.182241 266.53226,397.754354" id="Fill-20"></path>
            <path d="M325.200652,303.081744 C312.878903,302.774687 309.834202,291.320772 318.403678,277.503237 C326.966007,263.685701 343.897691,252.724504 356.21944,253.031561 C368.534042,253.338617 371.578743,264.792532 363.016414,278.610068 C354.454085,292.434744 337.522401,303.3888 325.200652,303.081744 M291.65176,357.21649 C369.598972,359.151659 476.706704,289.842617 530.889522,202.41011 C585.07234,114.977603 565.810674,42.5265887 487.870609,40.5914197 C526.844215,41.5554338 536.471474,77.7809408 509.376492,121.497194 C482.288656,165.213448 428.73479,199.867969 389.761184,198.903955 C350.794726,197.9328 297.24086,232.587321 270.145877,276.303575 C243.050894,320.019828 252.685301,356.245335 291.65176,357.21649" id="Fill-22"></path>
            <path d="M451.73515,98.8992761 C439.413401,98.5922197 422.481717,109.546276 413.919388,123.370952 C405.357059,137.188487 408.401761,148.642403 420.716362,148.949459 C433.038111,149.256515 449.969795,138.295318 458.532124,124.477783 C467.1016,110.660248 464.056899,99.2063324 451.73515,98.8992761" id="Fill-24"></path>
            <g id="Group-28" transform="translate(0.000000, 336.307382)">
                <path d="M4.65006797,164.239437 L0.997855844,158.105451 C2.01990346,157.498479 105.718427,97.1440563 357.17073,51.7354225 C588.882505,9.89007042 997.444254,-27.5922254 1627.95472,31.4554225 L1627.28289,38.5677042 C1279.72237,6.01973239 777.446717,-16.9095211 358.435782,58.7620141 C108.241384,103.949282 5.65782121,163.639606 4.65006797,164.239437" id="Fill-26"></path>
            </g>
        </g>
    </g>
</svg>