<?xml version="1.0" encoding="UTF-8" standalone="no"?>
<svg width="208px" height="41px" viewBox="0 0 208 41" version="1.1" xmlns="http://www.w3.org/2000/svg" xmlns:xlink="http://www.w3.org/1999/xlink">
    <!-- Generator: Sketch 3.8.3 (29802) - http://www.bohemiancoding.com/sketch -->
    <title>realviz</title>
    <desc>Created with Sketch.</desc>
    <defs>
        <polygon id="path-1" points="0 0.57 259.51 0.57 259.51 78 0 78 0 0.570767213 -0.000302221079 78.0000716 66.3384324 78.0000716 66.3384324 0.570767213 5.42101086e-20 0.570767213"></polygon>
        <polygon id="path-3" points="0 78 259.51 78 259.51 0.57 0 0.57"></polygon>
    </defs>
    <g id="Page-1" stroke="none" stroke-width="1" fill="none" fill-rule="evenodd">
        <g id="realviz" transform="translate(-52.000000, -10.000000)">
            <g id="Group-3" transform="translate(0.000000, 0.429600)">
                <mask id="mask-2" fill="white">
                    <use xlink:href="#path-1"></use>
                </mask>
                <g id="Clip-2"></g>
                <path d="M8.4007,36.3659 C14.9357,41.9329 21.4027,47.5819 28.0217,53.0469 C35.8347,59.4979 43.8517,65.7019 51.5887,72.2409 C52.7707,73.2399 52.9177,75.4639 53.5437,77.1209 C51.2927,77.3829 48.6077,78.5369 46.8907,77.7009 C44.1767,76.3799 42.0247,73.8139 39.7857,71.6209 C28.8717,60.9279 18.0047,50.1859 7.1287,39.4549 C2.5067,34.8949 2.6177,33.1029 8.8367,30.9299 C18.9997,27.3769 29.4077,24.5309 39.6777,21.2739 C45.5217,19.4209 51.3517,17.4849 57.0587,15.2559 C58.3057,14.7689 59.5907,12.9429 59.7427,11.6069 C59.8397,10.7519 58.0597,9.2369 56.8307,8.7479 C42.5787,3.0729 27.9037,3.5169 13.2247,6.4369 C10.7237,6.9339 8.7167,9.6209 6.3067,10.9879 C4.8517,11.8129 3.0817,12.1789 1.4037,12.4439 C1.0107,12.5059 -0.1293,11.0169 0.0117,10.7639 C0.8487,9.2619 1.6817,7.1529 3.0337,6.6559 C7.2057,5.1219 11.5507,3.6599 15.9377,3.1899 C27.1257,1.9899 38.3657,1.1809 49.6037,0.5869 C52.4857,0.4339 55.5227,1.3969 58.3427,2.2999 C63.4007,3.9199 66.4427,8.0149 66.3357,12.5459 C66.2087,17.9219 62.7917,20.7129 58.1457,21.9249 C48.0457,24.5609 37.8417,26.7969 27.7177,29.3419 C21.3817,30.9339 15.1137,32.7909 8.8147,34.5279 C8.6767,35.1409 8.5387,35.7529 8.4007,36.3659" id="Fill-1" fill="#F40B0C" mask="url(#mask-2)"></path>
            </g>
            <g id="Group-17" transform="translate(0.000000, 0.429600)">
                <path d="M54.5603,42.1939 L56.6073,42.1939 C58.7453,42.1939 60.1023,41.0219 60.1023,39.2509 C60.1023,37.2499 58.6533,36.3769 56.5383,36.3769 C55.5723,36.3769 54.9053,36.4449 54.5603,36.5369 L54.5603,42.1939 L54.5603,42.1939 Z M52.5603,35.1349 C53.5713,34.9509 55.0433,34.8129 56.4003,34.8129 C58.5393,34.8129 59.9413,35.2269 60.8843,36.0779 C61.6433,36.7669 62.1023,37.8249 62.1023,39.0439 C62.1023,41.0679 60.8153,42.4239 59.2053,42.9759 L59.2053,43.0449 C60.3783,43.4589 61.0913,44.5629 61.4583,46.1729 C61.9643,48.3339 62.3323,49.8289 62.6543,50.4259 L60.5853,50.4259 C60.3323,49.9659 59.9873,48.6559 59.5733,46.7239 C59.1133,44.5859 58.2623,43.7809 56.4463,43.7119 L54.5603,43.7119 L54.5603,50.4259 L52.5603,50.4259 L52.5603,35.1349 L52.5603,35.1349 Z" id="Fill-4" fill="#000000"></path>
                <polygon id="Fill-6" fill="#000000" points="94.7858 43.1597 88.7838 43.1597 88.7838 48.7477 95.4988 48.7477 95.4988 50.4267 86.7608 50.4267 86.7608 34.9277 95.1538 34.9277 95.1538 36.6067 88.7838 36.6067 88.7838 41.5047 94.7858 41.5047"></polygon>
                <path d="M127.5607,43.9878 L126.0197,39.5268 C125.6747,38.5148 125.4457,37.5948 125.2157,36.6978 L125.1687,36.6978 C124.9387,37.5948 124.7097,38.5608 124.3877,39.5038 L122.8697,43.9878 L127.5607,43.9878 Z M122.4557,45.5508 L120.8467,50.4258 L118.7767,50.4258 L124.0657,34.9278 L126.4567,34.9278 L131.7457,50.4258 L129.6067,50.4258 L127.9517,45.5508 L122.4557,45.5508 Z" id="Fill-8" fill="#000000"></path>
                <polygon id="Fill-10" fill="#000000" points="155.8522 34.9278 157.8752 34.9278 157.8752 48.7478 164.4982 48.7478 164.4982 50.4268 155.8522 50.4268"></polygon>
                <path d="M190.6276,50.4263 L185.5456,34.9273 L187.7306,34.9273 L190.1446,42.5623 C190.7886,44.6543 191.3626,46.5403 191.8006,48.3573 L191.8466,48.3573 C192.2826,46.5633 192.9036,44.6083 193.6166,42.5853 L196.2376,34.9273 L198.3766,34.9273 L192.8356,50.4263 L190.6276,50.4263 Z" id="Fill-12" fill="#000000"></path>
                <mask id="mask-4" fill="white">
                    <use xlink:href="#path-3"></use>
                </mask>
                <g id="Clip-15"></g>
                <polygon id="Fill-14" fill="#000000" mask="url(#mask-4)" points="221.886 50.426 223.909 50.426 223.909 34.927 221.886 34.927"></polygon>
                <polygon id="Fill-16" fill="#F40B0C" mask="url(#mask-4)" points="248.197 49.2534 256.774 36.6754 256.774 36.6064 248.933 36.6064 248.933 34.9274 259.396 34.9274 259.396 36.1464 250.842 48.6784 250.842 48.7474 259.51 48.7474 259.51 50.4264 248.197 50.4264"></polygon>
            </g>
        </g>
    </g>
</svg>