<?xml version="1.0" encoding="UTF-8" standalone="no"?>
<svg width="5502px" height="3852px" viewBox="0 0 5502 3852" version="1.1" xmlns="http://www.w3.org/2000/svg" xmlns:xlink="http://www.w3.org/1999/xlink">
    <!-- Generator: Sketch 3.8.3 (29802) - http://www.bohemiancoding.com/sketch -->
    <title>salesforce</title>
    <desc>Created with Sketch.</desc>
    <defs></defs>
    <g id="Page-1" stroke="none" stroke-width="1" fill="none" fill-rule="evenodd">
        <g id="salesforce" transform="translate(0.000000, -1.000000)" fill="#129CD8">
            <path d="M2172.61031,1635.09098 C2130.72088,1635.09098 2101.04663,1651.58632 2081.3913,1681.41859 C2068.53452,1701.07235 2060.20598,1726.29036 2055.67773,1756.61614 L2283.15152,1756.7025 C2280.88122,1727.3514 2275.14379,1701.14638 2262.04023,1681.41859 C2242.15046,1651.58632 2214.49974,1635.09098 2172.61031,1635.09098" id="Fill-1"></path>
            <path d="M1366.86253,1843.33698 C1347.70074,1856.83429 1338.39746,1877.05559 1338.39746,1905.02488 C1338.39746,1922.81567 1341.63017,1936.72012 1348.02154,1946.50382 C1352.14262,1952.96872 1353.84535,1955.48558 1366.38133,1965.42967 C1366.13456,1965.34331 1395.0068,1987.98277 1459.8583,1984.0224 C1505.46163,1981.27112 1545.96914,1972.62248 1545.96914,1972.62248 L1545.96914,1827.64358 C1545.96914,1827.64358 1505.05446,1820.85791 1459.36475,1820.29038 C1394.35285,1819.40208 1366.70213,1843.33698 1366.86253,1843.33698" id="Fill-3"></path>
            <path d="M3455.09186,1637.12421 C3413.20244,1637.12421 3383.36779,1651.59619 3363.71245,1681.35443 C3343.98309,1711.43345 3333.96417,1754.45459 3333.96417,1808.94968 C3333.96417,1863.53113 3343.98309,1906.61396 3363.79882,1937.02609 C3383.36779,1967.10511 3413.20244,1981.81151 3455.09186,1981.81151 C3496.89492,1981.81151 3526.90231,1967.10511 3546.79208,1937.02609 C3566.84225,1906.61396 3577.0339,1863.53113 3577.0339,1808.94968 C3577.0339,1754.45459 3566.84225,1711.43345 3546.79208,1681.35443 C3526.90231,1651.59619 3496.89492,1637.12421 3455.09186,1637.12421" id="Fill-5"></path>
            <path d="M4726.63405,1635.09098 C4684.74462,1635.09098 4654.984,1651.58632 4635.5014,1681.41859 C4622.55825,1701.07235 4614.22972,1726.29036 4609.70146,1756.61614 L4837.17525,1756.7025 C4834.90495,1727.3514 4829.16752,1701.14638 4815.98993,1681.41859 C4796.10017,1651.58632 4768.52347,1635.09098 4726.63405,1635.09098" id="Fill-7"></path>
            <g id="Group-11" transform="translate(0.000000, 0.455834)">
                <path d="M4936.39088,1826.83119 C4935.50251,1835.07269 4927.08761,1835.15906 4927.08761,1835.15906 L4608.24675,1834.92464 C4610.19624,1883.34964 4621.83151,1917.63578 4645.36115,1940.91679 C4668.33556,1963.803 4704.95642,1978.36134 4754.4464,1978.43537 C4830.1435,1978.59576 4862.48288,1963.39586 4885.37092,1954.90761 C4885.37092,1954.90761 4894.18065,1951.74918 4897.33933,1960.39783 L4918.27787,2018.79159 C4922.39895,2028.64932 4919.09222,2032.04215 4915.52637,2034.06552 C4895.55023,2045.14466 4847.035,2065.67439 4754.93995,2065.92115 C4710.21265,2066.08154 4671.24746,2059.61664 4639.14251,2047.24205 C4606.87717,2034.70707 4579.95442,2016.92862 4558.9295,1994.12877 C4537.97862,1971.40295 4522.45671,1944.14924 4512.74625,1913.02152 C4503.13451,1882.30095 4498.27312,1848.01482 4498.27312,1811.22415 C4498.27312,1775.08738 4502.96177,1740.88761 4512.26505,1709.51315 C4521.56833,1677.89193 4536.1155,1650.08303 4555.45003,1626.71565 C4574.85859,1603.26191 4599.52338,1584.42243 4628.87683,1570.67836 C4658.21794,1556.9343 4694.36993,1550.22266 4734.14947,1550.22266 C4768.36431,1550.22266 4799.56854,1557.57585 4825.52888,1568.74136 C4845.41864,1577.30364 4865.55518,1592.75029 4886.09889,1614.90859 C4899.02971,1628.81304 4918.84545,1659.2992 4926.85317,1689.53861 C4947.31051,1761.34332 4936.71169,1823.43836 4936.39088,1826.83119 L4936.39088,1826.83119 Z M4464.194,2041.82585 C4428.53555,2055.81667 4379.04556,2065.60037 4330.76476,2065.60037 C4249.0958,2065.60037 4186.5146,2042.07261 4144.78557,1995.58461 C4103.14291,1949.40504 4082.118,1886.26131 4082.118,1808.1521 C4082.118,1771.92896 4087.21382,1737.80322 4097.47951,1706.68784 C4107.67117,1675.47376 4123.03268,1647.89927 4143.25559,1624.85268 C4163.55253,1601.80608 4189.01932,1583.29971 4219.17478,1569.95045 C4249.34257,1556.52716 4284.59385,1549.74149 4324.13895,1549.74149 C4350.66686,1549.74149 4374.51731,1551.35771 4394.81425,1554.42977 C4416.64117,1557.73624 4445.43938,1565.58294 4457.64222,1570.35759 C4459.91252,1571.24589 4466.05712,1574.24392 4463.54006,1581.43673 C4454.73032,1606.58072 4448.67209,1622.82931 4440.34356,1645.78955 C4436.86408,1655.49922 4429.42393,1652.26678 4429.42393,1652.26678 C4398.36776,1642.5571 4368.69351,1638.04155 4329.87638,1638.04155 C4283.2983,1638.04155 4248.29379,1653.63625 4225.31938,1684.03604 C4202.19691,1714.68259 4189.34013,1754.79206 4189.17973,1808.07807 C4189.01932,1866.69391 4203.65286,1910.03583 4229.6132,1936.8824 C4255.57354,1963.64261 4291.8736,1977.22629 4337.40291,1977.22629 C4355.99712,1977.22629 4373.30813,1976.0172 4388.99045,1973.50034 C4404.59873,1971.08217 4419.15824,1966.30753 4432.81703,1961.05172 C4432.81703,1961.05172 4441.79951,1957.57252 4444.87181,1966.71467 L4467.99428,2030.58632 C4470.99255,2038.50704 4464.194,2041.82585 4464.194,2041.82585 L4464.194,2041.82585 Z M4065.39924,1576.6004 C4062.48734,1585.26138 4046.89139,1628.9981 4041.46243,1643.55645 C4039.36487,1649.05901 4035.97176,1652.85898 4029.74079,1652.20509 C4029.74079,1652.20509 4011.46737,1647.83759 3994.73628,1647.83759 C3983.24908,1647.83759 3966.82645,1649.37978 3952.03251,1653.90768 C3937.48534,1658.3492 3924.22138,1666.26993 3912.57377,1677.59583 C3900.92617,1688.92173 3891.54886,1704.68915 3884.67628,1724.49097 C3877.6433,1744.46551 3874.07745,1776.24711 3874.07745,1808.17677 L3874.07745,2045.81089 C3874.07745,2051.15306 3869.79597,2055.4342 3864.46571,2055.4342 L3780.68685,2055.4342 C3775.27022,2055.4342 3770.9764,2051.15306 3770.9764,2045.81089 L3770.9764,1570.13551 C3770.9764,1564.79334 3774.78902,1560.5122 3780.11928,1560.5122 L3861.87461,1560.5122 C3867.20487,1560.5122 3871.00515,1564.79334 3871.00515,1570.13551 L3871.09152,1609.02356 C3883.22033,1592.61458 3905.13362,1578.1426 3924.94936,1569.2472 C3944.83912,1560.27778 3967.07322,1553.56614 4007.18589,1555.98431 C4028.0504,1557.36611 4055.21993,1563.10309 4060.63656,1565.12645 C4062.73411,1565.92839 4067.82994,1569.40759 4065.39924,1576.6004 L4065.39924,1576.6004 Z M3671.24378,1909.71505 C3662.01453,1941.01549 3647.5414,1968.58998 3628.37961,1991.55022 C3609.13145,2014.59682 3584.7998,2033.02916 3556.01392,2046.13167 C3527.14168,2059.22184 3493.25998,2065.85946 3455.0968,2065.85946 C3416.84725,2065.85946 3382.87918,2059.22184 3354.09331,2046.13167 C3325.30743,2033.02916 3300.88941,2014.59682 3281.72762,1991.55022 C3262.47946,1968.50362 3248.08036,1940.92913 3238.86345,1909.71505 C3229.64654,1878.6737 3224.95788,1844.54796 3224.95788,1808.48521 C3224.95788,1772.42246 3229.64654,1738.39542 3238.86345,1707.25537 C3248.08036,1676.05363 3262.47946,1648.47914 3281.72762,1625.5189 C3300.88941,1602.38594 3325.22106,1583.86724 3354.01927,1570.44395 C3382.80515,1557.02066 3416.84725,1550.16097 3455.0968,1550.16097 C3493.25998,1550.16097 3527.22805,1557.02066 3556.01392,1570.44395 C3584.87383,1583.86724 3609.21782,1602.38594 3628.37961,1625.43254 C3647.5414,1648.39278 3662.01453,1675.96727 3671.24378,1707.25537 C3680.46069,1738.39542 3685.14934,1772.42246 3685.14934,1808.48521 C3685.14934,1844.54796 3680.46069,1878.58734 3671.24378,1909.71505 L3671.24378,1909.71505 Z M3204.41417,1636.57338 C3202.63742,1646.19669 3193.74132,1645.87591 3193.74132,1645.87591 L3088.70311,1645.87591 L3016.89266,2052.33747 C3009.29211,2094.38394 2999.9148,2130.44669 2988.83477,2159.47701 C2977.6807,2188.82811 2965.95907,2210.33252 2947.43888,2230.87459 C2930.21424,2249.7881 2910.80568,2263.85294 2888.48522,2271.94639 C2866.33749,2279.95348 2839.56281,2284.07423 2810.20936,2284.07423 C2796.22977,2284.07423 2781.26309,2283.82748 2763.47088,2279.62036 C2750.70046,2276.63467 2743.74151,2274.45092 2734.3642,2271.13211 C2730.31715,2269.67627 2727.17082,2264.75358 2729.42877,2258.44908 C2731.69907,2252.05821 2750.45369,2200.38843 2753.04479,2193.59042 C2756.36386,2185.34892 2764.60602,2188.495 2764.60602,2188.495 C2770.26943,2190.85148 2774.2301,2192.54173 2781.83066,2193.99756 C2789.43122,2195.53976 2799.6969,2196.82287 2807.38383,2196.82287 C2821.21536,2196.82287 2833.8994,2195.13262 2844.9054,2191.49303 C2858.24339,2187.03917 2865.93032,2179.27883 2874.09845,2168.9276 C2882.50101,2158.18157 2889.37359,2143.37647 2896.33254,2123.57466 C2903.4519,2103.52609 2909.83093,2077.07432 2915.4203,2044.98427 L2986.98398,1645.87591 L2916.46908,1645.87591 C2907.98015,1645.87591 2905.22865,1641.91555 2906.11703,1635.61104 L2917.99906,1569.30889 C2919.77582,1559.68558 2928.67192,1560.00636 2928.67192,1560.00636 L3001.04995,1560.00636 L3004.92425,1538.41559 C3015.76985,1474.45758 3037.35,1425.78583 3069.06012,1393.84383 C3100.99232,1361.66743 3146.43526,1345.33247 3204.09337,1345.33247 C3220.59003,1345.33247 3235.14954,1346.46753 3247.43875,1348.72531 C3259.56756,1350.90906 3268.78447,1353.01878 3278.97612,1356.16487 C3281.23408,1357.05317 3287.30465,1360.12523 3284.79993,1367.31804 L3260.45594,1434.27408 C3258.35838,1439.28314 3256.97646,1442.3552 3246.6244,1439.12275 C3244.04564,1438.39483 3240.159,1437.27211 3230.30048,1435.16239 C3223.09476,1433.70655 3213.71745,1432.5715 3204.09337,1432.5715 C3191.48336,1432.5715 3179.99615,1434.18772 3169.89087,1437.42017 C3160.02002,1440.66495 3150.96351,1446.24154 3143.20255,1454.08824 C3135.19482,1462.09532 3125.81751,1473.6433 3120.80806,1488.12762 C3109.08642,1521.83389 3104.4718,1557.73624 3103.99059,1560.00636 L3205.95649,1560.00636 C3214.44543,1560.00636 3217.11056,1563.96672 3216.30855,1570.27122 L3204.41417,1636.57338 Z M2647.36498,2067.64841 C2591.97716,2067.64841 2538.93367,2058.98743 2482.81788,2029.24152 C2472.21905,2023.17143 2461.79296,2017.75524 2451.4409,2010.24165 C2450.30576,2008.69945 2445.6171,2006.84882 2449.09658,1997.78069 L2471.41704,1936.00643 C2474.64975,1925.90196 2484.18746,1929.6279 2486.21098,1930.91101 C2492.19519,1934.79735 2496.88384,1937.94343 2504.8052,1942.64405 C2570.47104,1984.12299 2631.11509,1984.44377 2650.20285,1984.44377 C2699.28566,1984.44377 2729.77425,1958.39914 2729.77425,1923.48379 L2729.77425,1921.53445 C2729.77425,1883.37432 2682.87537,1868.97636 2628.53633,1852.32063 L2616.56792,1848.60702 C2542.09234,1827.33703 2462.43457,1796.69048 2462.43457,1702.49306 L2462.43457,1700.64243 C2462.43457,1611.20731 2534.56582,1548.7915 2637.91364,1548.7915 L2649.15407,1548.70513 C2709.87215,1548.70513 2768.41864,1566.33554 2810.87564,1592.13341 C2814.76229,1594.47755 2818.4762,1598.91908 2816.37864,1604.81645 C2814.35512,1610.31901 2795.58816,1660.85373 2793.40423,1666.60304 C2789.44356,1677.18869 2778.44989,1670.15627 2778.44989,1670.15627 C2741.33549,1649.6142 2683.67738,1633.45197 2635.07577,1633.45197 C2591.33556,1633.45197 2563.11726,1656.64662 2563.11726,1688.18147 L2563.11726,1690.04445 C2563.11726,1726.92147 2611.38572,1742.60254 2667.34112,1760.80046 L2677.05157,1763.87252 C2751.194,1787.31392 2830.35824,1819.82345 2830.35824,1909.1722 L2830.35824,1911.02283 C2830.35824,2007.65076 2760.25051,2067.64841 2647.36498,2067.64841 L2647.36498,2067.64841 Z M2382.36962,1826.83119 C2381.48124,1835.07269 2373.06634,1835.15906 2373.06634,1835.15906 L2054.22548,1834.92464 C2056.16264,1883.34964 2067.81024,1917.63578 2091.33988,1940.91679 C2114.31429,1963.803 2151.02152,1978.36134 2200.42514,1978.43537 C2276.1099,1978.59576 2308.46161,1963.39586 2331.34965,1954.90761 C2331.34965,1954.90761 2340.15939,1951.74918 2343.30572,1960.39783 L2364.2566,2018.79159 C2368.37769,2028.64932 2365.05861,2032.04215 2361.5051,2034.06552 C2341.52897,2045.14466 2293.01373,2065.67439 2200.91868,2065.92115 C2156.19138,2066.08154 2117.21386,2059.61664 2085.12125,2047.24205 C2052.8559,2034.70707 2025.92081,2016.92862 2004.8959,1994.12877 C1983.95735,1971.40295 1968.43544,1944.14924 1958.72499,1913.02152 C1949.10091,1882.30095 1944.25185,1848.01482 1944.25185,1811.22415 C1944.25185,1775.08738 1948.94051,1740.88761 1958.24378,1709.51315 C1967.54706,1677.89193 1982.09423,1650.08303 2001.42876,1626.71565 C2020.82499,1603.26191 2045.48978,1584.42243 2074.84322,1570.67836 C2104.19667,1556.9343 2140.34867,1550.22266 2180.21457,1550.22266 C2214.3307,1550.22266 2245.47324,1557.57585 2271.50761,1568.74136 C2291.48375,1577.30364 2311.53392,1592.75029 2332.07763,1614.90859 C2345.00844,1628.81304 2364.82418,1659.2992 2372.83191,1689.53861 C2393.28925,1761.34332 2382.69042,1823.43836 2382.36962,1826.83119 L2382.36962,1826.83119 Z M1854.27903,2045.81089 C1854.27903,2051.15306 1850.47876,2055.52057 1845.13616,2055.52057 L1760.5553,2055.52057 C1755.22503,2055.52057 1751.42476,2051.15306 1751.42476,2045.81089 L1751.42476,1365.24532 C1751.42476,1359.90315 1755.22503,1355.62201 1760.5553,1355.62201 L1845.13616,1355.62201 C1850.47876,1355.62201 1854.27903,1359.90315 1854.27903,1365.24532 L1854.27903,2045.81089 Z M1640.18025,2036.60706 C1640.18025,2036.60706 1628.45862,2039.8395 1617.85979,2042.27001 C1607.18693,2044.77454 1568.86335,2052.53487 1537.56041,2057.87704 C1505.94901,2063.20688 1473.43689,2065.95816 1440.69034,2065.95816 C1409.63417,2065.95816 1381.25547,2063.04649 1356.1835,2057.30952 C1330.87711,2051.57254 1308.96382,2042.10962 1291.25797,2029.1675 C1273.37939,2016.23771 1259.3998,1999.42159 1249.68935,1979.28666 C1239.90487,1959.22576 1235.05581,1934.73566 1235.05581,1906.43325 C1235.05581,1878.7724 1240.79324,1854.03555 1252.12005,1833.01232 C1263.43451,1811.98908 1278.96876,1794.28466 1298.37733,1780.3802 C1317.61315,1766.63614 1340.01998,1756.28491 1364.91921,1749.57327 C1389.7444,1742.86162 1416.18595,1739.46879 1443.51587,1739.46879 C1463.57837,1739.46879 1480.30947,1739.94996 1493.25262,1740.91229 C1493.25262,1740.91229 1518.48499,1743.1824 1545.81491,1747.14276 L1545.81491,1733.64545 C1545.81491,1691.11782 1536.99284,1671.05691 1519.6078,1657.63362 C1501.74156,1644.04995 1475.21364,1637.01753 1440.77671,1637.01753 C1440.77671,1637.01753 1363.14245,1636.04286 1301.84446,1669.36666 C1299.01893,1671.05691 1296.58823,1672.03158 1296.58823,1672.03158 C1296.58823,1672.03158 1288.91365,1674.6965 1286.07578,1666.86213 L1263.52088,1606.21059 C1260.12777,1597.40156 1266.43278,1593.51522 1266.43278,1593.51522 C1295.05825,1571.03615 1364.68477,1557.53884 1364.68477,1557.53884 C1387.80725,1552.92459 1426.2172,1549.69214 1450.15401,1549.69214 C1513.87036,1549.69214 1563.19995,1564.49724 1596.67447,1593.76197 C1630.23537,1623.1871 1647.29961,1670.57575 1647.29961,1734.60778 L1647.46001,2026.1818 C1647.46001,2026.1818 1648.10161,2034.58369 1640.18025,2036.60706 L1640.18025,2036.60706 Z M1178.12567,1911.02283 C1178.12567,2007.65076 1108.01795,2067.64841 995.132414,2067.64841 C939.744596,2067.64841 886.701104,2058.98743 830.585311,2029.24152 C819.986483,2023.17143 809.560396,2017.75524 799.20834,2010.24165 C798.073192,2008.69945 793.384537,2006.84882 796.864013,1997.78069 L819.098107,1936.00643 C822.651613,1925.42079 830.745712,1928.88765 833.978416,1930.91101 C840.123022,1934.63696 844.651275,1937.94343 852.572634,1942.64405 C918.152107,1984.12299 978.882524,1984.44377 997.970284,1984.44377 C1046.96673,1984.44377 1077.45532,1958.39914 1077.45532,1923.48379 L1077.45532,1921.53445 C1077.45532,1883.37432 1030.63047,1868.97636 976.291425,1852.32063 L964.323017,1848.60702 C889.773407,1827.33703 810.202001,1796.69048 810.202001,1702.49306 L810.202001,1700.64243 C810.202001,1611.20731 882.333252,1548.7915 985.681073,1548.7915 L996.921506,1548.70513 C1057.56555,1548.70513 1116.18608,1566.33554 1158.64308,1592.13341 C1162.51739,1594.47755 1166.24363,1598.91908 1164.14608,1604.81645 C1162.12255,1610.31901 1143.3556,1660.85373 1141.17167,1666.60304 C1137.21099,1677.18869 1126.21733,1670.15627 1126.21733,1670.15627 C1089.10293,1649.6142 1031.44481,1633.45197 982.843203,1633.45197 C939.10299,1633.45197 910.872353,1656.64662 910.872353,1688.18147 L910.872353,1690.04445 C910.872353,1726.92147 959.153158,1742.60254 1015.10855,1760.80046 L1024.819,1763.87252 C1098.96144,1787.31392 1178.12567,1819.82345 1178.12567,1909.1722 L1178.12567,1911.02283 Z M4315.79808,522.489936 C4145.02,522.489936 3982.73086,558.947484 3836.04999,624.447694 C3667.2831,323.830229 3350.46577,121.35821 2987.23075,121.35821 C2713.99323,121.35821 2466.96282,236.011338 2289.54659,420.852955 C2094.26412,165.588433 1786.3429,0.881745223 1439.83897,0.881745223 C849.710087,0.881745223 371.245212,478.666854 371.245212,1067.94667 C371.245212,1218.82293 402.609844,1362.25963 459.132811,1492.35941 C184.612078,1652.77262 0.002467713,1952.58814 0.002467713,2296.06636 C0.002467713,2808.45838 411.111116,3223.81533 918.275492,3223.81533 C982.966589,3223.81533 1046.11536,3217.01732 1107.00618,3204.16157 C1246.33326,3582.17267 1609.40787,3851.66242 2035.39683,3851.66242 C2444.39558,3851.66242 2795.42776,3603.1959 2945.99527,3248.87296 C3060.65755,3304.83622 3189.29943,3336.19834 3325.31977,3336.19834 C3650.37927,3336.19834 3933.56167,3157.10604 4082.10566,2892.14418 C4157.71638,2907.34408 4235.83184,2915.42519 4315.79808,2915.42519 C4970.87717,2915.42519 5501.97837,2379.75216 5501.97837,1718.91438 C5501.97837,1058.16297 4970.87717,522.489936 4315.79808,522.489936 L4315.79808,522.489936 Z" id="Fill-9"></path>
            </g>
        </g>
    </g>
</svg>