<?xml version="1.0" encoding="UTF-8" standalone="no"?>
<svg width="2764px" height="657px" viewBox="0 0 2764 657" version="1.1" xmlns="http://www.w3.org/2000/svg" xmlns:xlink="http://www.w3.org/1999/xlink">
    <!-- Generator: Sketch 3.8.3 (29802) - http://www.bohemiancoding.com/sketch -->
    <title>sportsfr</title>
    <desc>Created with Sketch.</desc>
    <defs></defs>
    <g id="Page-1" stroke="none" stroke-width="1" fill="none" fill-rule="evenodd">
        <g id="sportsfr" transform="translate(-1.000000, -1.000000)">
            <g id="Group-3" transform="translate(0.000000, 124.468950)" fill="#132654">
                <path d="M217.023069,154.945492 C180.598989,143.230408 160.208157,135.549658 164.820765,113.848492 C169.488813,91.9034917 181.885197,82.538075 206.278797,82.538075 C217.444413,82.538075 224.307885,84.5884917 227.878221,89.0107417 C232.102749,94.2199083 232.690413,104.205992 229.607949,118.691908 L226.669629,132.523908 L340.864941,132.523908 L344.535069,115.278242 C351.465069,82.6821583 346.930077,56.237325 331.085325,36.6752417 C311.404125,12.3694917 274.758285,0.0559083333 222.167901,0.0559083333 C124.393917,0.0559083333 61.4140768,42.9484083 44.8596928,120.819908 C26.7419008,206.072908 72.2359648,226.920658 161.017581,259.272908 C193.250397,271.087742 194.647485,286.515742 191.775693,300.048492 C187.207437,321.561242 170.209533,334.927742 147.423693,334.927742 C128.418861,334.927742 123.052269,326.759325 120.823581,321.084658 C117.973965,311.165075 119.371053,297.477158 122.364813,279.998742 L123.473613,273.526075 L9.5555008,273.526075 L4.9650688,295.049908 C-3.0293792,332.677825 1.0288288,360.774075 17.3725408,380.956825 C37.2533248,405.484242 75.0634048,417.409908 132.953853,417.409908 C228.355005,417.409908 295.703517,368.532408 313.111677,286.637658 C333.158781,192.285242 266.032029,170.705992 217.023069,154.945492" id="Fill-1"></path>
            </g>
            <path d="M589.488947,334.549592 C574.686467,404.230508 563.010803,446.535592 525.888179,446.535592 C518.492483,446.535592 513.148067,444.396508 509.577731,439.985342 C496.704563,424.102925 504.776627,379.769592 514.966499,331.856342 C530.046179,260.923008 544.815395,219.859258 575.706563,219.859258 C584.011475,219.859258 589.998995,222.264342 594.012851,227.229675 C608.504867,245.107092 597.960179,294.705008 589.488947,334.549592 M635.049539,124.520425 C591.595667,124.520425 564.263747,145.357092 548.507699,163.977092 L554.761331,134.517592 L431.994995,134.517592 L320.837795,657.551175 L447.884099,657.551175 L480.970691,501.863592 C493.732979,528.120008 519.279731,541.885508 555.836867,541.885508 C652.646195,541.885508 690.389747,457.630008 717.267059,331.135925 C736.005779,242.956925 732.734819,184.813758 707.265683,153.370342 C691.542899,133.952342 667.914371,124.520425 635.049539,124.520425" id="Fill-4" fill="#132654"></path>
            <path d="M972.106998,332.407183 C951.394614,429.8851 938.144454,455.110767 907.663542,455.110767 C899.41407,455.110767 893.87007,453.004933 890.199942,448.47185 C879.888102,435.748183 881.606742,401.511767 895.965702,334.003183 C915.702342,241.113767 931.713414,211.288517 961.83951,211.288517 C970.48815,211.288517 976.165206,213.32785 979.713366,217.705767 C990.77919,231.371517 985.01343,271.71485 972.106998,332.407183 M977.207478,124.528183 C833.27415,124.528183 792.126582,224.788017 769.085718,333.116517 C753.063558,408.560767 748.495302,466.338183 778.310934,503.145933 C799.433574,529.213933 836.245734,541.882183 890.854134,541.882183 C1034.79855,541.882183 1075.94612,441.62235 1098.97589,333.282767 C1115.00914,257.8496 1119.5774,200.072183 1089.75068,163.264433 C1068.63913,137.196433 1031.82697,124.528183 977.207478,124.528183" id="Fill-6" fill="#132654"></path>
            <path d="M1434.49988,126.072092 C1427.10419,124.520425 1420.9947,124.520425 1415.09588,124.520425 C1368.91436,124.520425 1336.8146,150.211592 1317.28864,173.320342 L1325.52702,134.517592 L1202.76068,134.517592 L1118.2923,531.888342 L1245.34969,531.888342 L1292.88395,308.293175 C1302.25331,264.159342 1330.33921,242.702008 1378.76051,242.702008 C1390.53596,242.702008 1399.08481,243.477842 1409.24142,245.461758 L1414.58584,246.503592 L1439.94409,127.213675 L1434.49988,126.072092 Z" id="Fill-8" fill="#132654"></path>
            <path d="M1594.82128,445.118033 C1582.35836,445.118033 1575.04028,443.24495 1571.78041,439.210617 C1568.58707,435.26495 1568.23225,427.706117 1570.69379,416.11295 L1611.19825,225.568283 L1664.76438,225.568283 L1684.11294,134.5187 L1630.54681,134.5187 L1654.66321,20.9921167 L1527.60582,20.9921167 L1503.48942,134.5187 L1455.62252,134.5187 L1436.27396,225.568283 L1484.14086,225.568283 L1441.68491,425.234533 C1431.50612,473.181033 1432.60384,499.226867 1445.49918,515.142533 C1459.68073,532.6542 1487.5227,536.167617 1527.82758,536.167617 C1550.10337,536.167617 1572.989,534.7157 1595.86355,531.845117 L1599.76652,531.346367 L1618.61612,442.657533 L1610.788,443.7437 C1607.0846,444.253533 1600.09916,445.118033 1594.82128,445.118033" id="Fill-10" fill="#132654"></path>
            <path d="M1877.26146,124.52375 C1779.47639,124.52375 1716.49655,167.41625 1699.94217,245.28775 C1681.83546,330.54075 1727.32953,351.399583 1816.10006,383.74075 C1848.34396,395.555583 1849.74105,410.983583 1846.85817,424.516333 C1842.28991,446.029083 1825.29201,459.395583 1802.50617,459.395583 C1783.50134,459.395583 1778.14583,451.227167 1775.90606,445.5525 C1773.05644,435.61075 1774.46462,421.933917 1777.45838,404.466583 L1778.56718,397.993917 L1664.62689,397.993917 L1660.05863,419.51775 C1652.0531,457.145667 1656.12239,485.241917 1672.45502,505.424667 C1692.3358,529.952083 1730.14588,541.87775 1788.04742,541.87775 C1883.44857,541.87775 1950.78599,493.00025 1968.19415,411.1055 C1988.25234,316.753083 1921.12559,295.173833 1872.10554,279.413333 C1835.68146,267.69825 1815.30172,260.0175 1819.91433,238.316333 C1824.57129,216.371333 1836.96767,207.005917 1861.36127,207.005917 C1872.52689,207.005917 1879.39036,209.056333 1882.97178,213.478583 C1887.19631,218.68775 1887.77289,228.673833 1884.69042,243.15975 L1881.7521,256.99175 L1995.9585,256.99175 L1999.61754,239.746083 C2006.54754,207.15 2002.02364,180.705167 1986.1678,161.143083 C1966.4866,136.837333 1929.84076,124.52375 1877.26146,124.52375" id="Fill-12" fill="#132654"></path>
            <polygon id="Fill-14" fill="#132654" points="2007.62197 531.885017 2130.38831 531.885017 2160.0598 392.27935 2037.29346 392.27935"></polygon>
            <path d="M2489.86348,134.519808 L2436.28627,134.519808 L2440.03401,116.941642 C2443.93699,98.498975 2447.9952,92.048475 2477.97715,92.048475 L2498.88912,92.048475 L2517.6611,3.769725 L2511.48508,3.16014167 C2495.88427,1.65280833 2480.47195,0.998891667 2459.97024,0.998891667 C2368.48315,0.998891667 2331.9371,27.6875583 2315.12769,106.778225 L2309.22888,134.519808 L2261.37307,134.519808 L2242.01342,225.569392 L2289.88032,225.569392 L2224.78267,531.890558 L2351.84006,531.890558 L2416.9488,225.569392 L2470.51492,225.569392 L2489.86348,134.519808 Z" id="Fill-16" fill="#D41A24"></path>
            <path d="M2758.84395,126.072092 C2751.44825,124.520425 2745.33877,124.520425 2739.43995,124.520425 C2693.25843,124.520425 2661.15867,150.211592 2641.6327,173.320342 L2649.87109,134.517592 L2527.10475,134.517592 L2442.64745,531.888342 L2569.70485,531.888342 L2617.22801,308.293175 C2626.59737,264.159342 2654.69437,242.702008 2703.11566,242.702008 C2714.73589,242.702008 2723.56193,243.500008 2733.58549,245.461758 L2738.9299,246.503592 L2764.28816,127.213675 L2758.84395,126.072092 Z" id="Fill-18" fill="#D41A24"></path>
        </g>
    </g>
</svg>