<?xml version="1.0" encoding="UTF-8" standalone="no"?>
<svg width="2122px" height="583px" viewBox="0 0 2122 583" version="1.1" xmlns="http://www.w3.org/2000/svg" xmlns:xlink="http://www.w3.org/1999/xlink">
    <!-- Generator: Sketch 3.8.3 (29802) - http://www.bohemiancoding.com/sketch -->
    <title>tradingcom</title>
    <desc>Created with Sketch.</desc>
    <defs></defs>
    <g id="Page-1" stroke="none" stroke-width="1" fill="none" fill-rule="evenodd">
        <g id="tradingcom" transform="translate(0.000000, -1.000000)">
            <path d="M406.448712,245.293657 C386.560163,245.293657 374.760179,262.791986 374.760179,285.9704 C374.760179,307.408143 385.470038,325.123014 406.007669,325.123014 C418.9061,325.123014 430.706085,316.378014 434.201144,302.161143 C434.858547,299.537643 435.074908,296.905814 435.074908,293.849229 L435.074908,275.4764 C435.074908,273.069443 434.858547,269.787986 434.201144,267.381029 C431.363489,255.354571 420.869991,245.293657 406.448712,245.293657" id="Fill-1" fill="#00693F"></path>
            <path d="M921.792639,244.639031 C899.282796,244.639031 889.446702,265.63536 889.446702,285.540646 C889.446702,308.71906 902.561494,326.217389 921.351596,326.217389 C939.708976,326.217389 953.481173,308.935603 953.481173,285.099231 C953.481173,267.167817 944.518843,244.639031 921.792639,244.639031" id="Fill-3" fill="#00693F"></path>
            <path d="M268.545341,308.063601 C268.545341,320.748016 276.850267,326.43643 286.461678,326.43643 C300.450235,326.43643 309.412565,317.683101 312.46658,308.721559 C313.123984,306.531144 313.340345,304.349059 313.340345,302.600059 L313.340345,284.22723 C292.361671,283.785816 268.545341,287.508687 268.545341,308.063601" id="Fill-5" fill="#00693F"></path>
            <path d="M1148.6361,338.246344 L1129.83768,338.246344 L1129.83768,278.538816 C1129.83768,257.975573 1122.19016,245.949116 1106.89512,245.949116 C1095.75253,245.949116 1087.43929,254.044487 1083.95255,263.230901 C1083.07879,266.070944 1082.42138,269.352401 1082.42138,272.850401 L1082.42138,338.246344 L1063.62296,338.246344 L1063.62296,274.815944 C1063.62296,257.975573 1056.20012,245.949116 1041.55416,245.949116 C1029.75417,245.949116 1020.80017,255.576944 1017.73783,265.196444 C1016.6477,267.819944 1016.20666,271.317944 1016.20666,274.599401 L1016.20666,338.246344 L997.416558,338.246344 L997.416558,261.040487 C997.416558,249.88853 996.975515,241.135201 996.542794,232.390201 L1013.36901,232.390201 L1014.24277,249.671987 L1014.90017,249.671987 C1020.80017,239.611073 1030.62794,230.199787 1048.32792,230.199787 C1062.53283,230.199787 1073.45905,238.953116 1078.05256,251.420987 L1078.48528,251.420987 C1081.76398,245.291159 1086.1328,240.918659 1090.50995,237.637201 C1096.84266,232.823287 1103.61642,230.199787 1113.66887,230.199787 C1127.87379,230.199787 1148.6361,239.386201 1148.6361,276.131859 L1148.6361,338.246344 Z M920.483656,340.653301 C892.0655,340.653301 869.780339,319.656973 869.780339,286.192773 C869.780339,250.979573 893.163947,230.199787 922.222864,230.199787 C952.604911,230.199787 973.142543,252.295487 973.142543,284.443773 C973.142543,323.588059 945.831155,340.653301 920.483656,340.653301 L920.483656,340.653301 Z M829.337515,325.128844 C840.272056,325.128844 847.478535,322.497016 852.945805,320.090059 L856.224504,334.531801 C851.198276,336.938759 840.047374,340.653301 825.842456,340.653301 C793.937562,340.653301 773.18357,318.999016 773.18357,286.634187 C773.18357,254.044487 795.468731,230.199787 829.994919,230.199787 C841.362182,230.199787 851.414637,233.048159 856.657225,235.888201 L852.288402,250.546487 C847.694896,248.13953 840.488417,245.51603 829.994919,245.51603 C805.737547,245.51603 792.631076,263.663987 792.631076,285.534816 C792.631076,310.029144 808.358841,325.128844 829.337515,325.128844 L829.337515,325.128844 Z M749.125915,261.25703 L749.125915,322.721887 C749.125915,347.216216 744.108009,361.866173 734.055555,371.26913 C723.562056,380.680416 708.699735,383.953544 695.368582,383.953544 C682.694833,383.953544 668.714598,380.896959 660.193311,375.208544 L664.994856,360.333716 C671.993296,364.931087 682.919515,368.870501 696.025986,368.870501 C715.698174,368.870501 730.119453,358.584716 730.119453,331.68343 L730.119453,320.090059 L729.678409,320.090059 C724.0031,329.93443 712.419476,337.80493 696.025986,337.80493 C669.804723,337.80493 651.014621,315.501016 651.014621,286.192773 C651.014621,250.321616 674.389907,230.199787 698.871962,230.199787 C717.221021,230.199787 727.057115,239.611073 731.866982,248.356073 L732.299704,248.356073 L732.957107,232.390201 L750.008002,232.390201 C749.350598,239.827616 749.125915,248.572616 749.125915,261.25703 L749.125915,261.25703 Z M627.398009,338.246344 L608.166864,338.246344 L608.166864,277.222901 C608.166864,260.165987 601.825829,245.949116 583.693131,245.949116 C571.235743,245.949116 561.399649,254.918987 557.90459,265.637859 C557.030825,268.036487 556.589782,271.317944 556.589782,274.599401 L556.589782,338.246344 L537.358637,338.246344 L537.358637,261.040487 C537.358637,249.88853 537.142276,241.135201 536.484872,232.390201 L553.535766,232.390201 L554.625892,249.88853 L555.058613,249.88853 C560.309523,240.044159 572.542229,230.199787 590.025845,230.199787 C604.671805,230.199787 627.398009,238.953116 627.398009,275.257359 L627.398009,338.246344 Z M495.401288,214.458787 C488.41117,214.458787 483.817664,209.203459 483.817664,202.648873 C483.817664,196.085959 488.627531,190.614087 495.834009,190.614087 C502.832449,190.614087 507.642315,195.861087 507.642315,202.648873 C507.642315,209.203459 503.048809,214.458787 495.401288,214.458787 L495.401288,214.458787 Z M486.222598,338.246344 L505.453743,338.246344 L505.453743,232.390201 L486.222598,232.390201 L486.222598,338.246344 Z M437.915892,338.246344 L437.042127,319.873516 L436.384723,319.873516 C430.701092,331.68343 418.027343,340.653301 400.760088,340.653301 C375.196229,340.653301 355.316002,318.999016 355.316002,286.85073 C355.091319,251.63753 377.160119,230.199787 402.7323,230.199787 C419.117468,230.199787 429.827327,237.853744 434.637194,246.165659 L435.069915,246.165659 L435.069915,182.96013 L454.0847,182.96013 L454.0847,310.903644 C454.0847,320.31493 454.517421,331.033801 454.958464,338.246344 L437.915892,338.246344 Z M316.179664,338.246344 L314.656817,324.903973 L313.999413,324.903973 C308.099421,333.215887 296.732158,340.653301 281.653476,340.653301 C260.24208,340.653301 249.31586,325.56193 249.31586,310.254016 C249.31586,284.660316 272.042064,270.668316 312.909288,270.884859 L312.909288,268.694444 C312.909288,260.165987 310.504355,244.200116 288.868276,244.416659 C278.815821,244.416659 268.547005,247.26503 261.115845,252.295487 L256.747021,239.386201 C265.484668,233.922659 278.374778,230.199787 291.705931,230.199787 C324.051868,230.199787 331.915751,252.295487 331.915751,273.291816 L331.915751,312.877516 C331.915751,322.06393 332.356794,331.033801 333.446919,338.246344 L316.179664,338.246344 Z M239.471445,248.789159 C237.507555,248.356073 235.535343,248.356073 232.914049,248.356073 C219.366535,248.356073 209.755123,258.416987 207.125507,272.850401 C206.692786,275.473901 206.476425,278.755359 206.476425,281.820273 L206.476425,338.246344 L187.24528,338.246344 L187.24528,265.412987 C187.24528,252.945116 187.020598,242.234573 186.371515,232.390201 L203.197727,232.390201 L204.071492,253.38653 L204.728896,253.38653 C209.530441,239.169659 221.330425,230.199787 234.228856,230.199787 C236.192747,230.199787 237.723915,230.424659 239.471445,230.641201 L239.471445,248.789159 Z M181.328645,207.021373 L136.31728,207.021373 L136.31728,338.246344 L117.086135,338.246344 L117.086135,207.021373 L72.2828094,207.021373 L72.2828094,190.83063 L181.328645,190.83063 L181.328645,207.021373 Z M1206.62912,109.26893 L0.00166431373,109.26893 L0.00166431373,583.997501 L1680.95853,583.997501 L1680.95853,409.097501 L1206.62912,409.097501 L1206.62912,109.26893 Z" id="Fill-7" fill="#00693F"></path>
            <path d="M701.929307,245.074616 C683.571926,245.074616 670.457134,260.607401 670.457134,285.10173 C670.457134,305.873187 681.166993,323.154973 701.712946,323.154973 C713.729291,323.154973 724.43915,315.717559 728.36693,303.474559 C729.465377,300.193101 729.898099,296.47023 729.898099,293.188773 L729.898099,274.166316 C729.898099,270.884859 729.681738,268.036487 728.807973,265.637859 C725.312915,254.26103 716.134224,245.074616 701.929307,245.074616" id="Fill-9" fill="#00693F"></path>
            <path d="M1848.65145,245.531854 C1828.83779,245.531854 1820.47462,263.379983 1818.93513,276.813969 L1875.50515,276.813969 C1875.72151,264.704226 1870.44564,245.531854 1848.65145,245.531854" id="Fill-11" fill="#8CA68B"></path>
            <g id="Group-15" transform="translate(1205.627451, 0.000000)" fill="#8CA68B">
                <path d="M687.926351,290.697697 L613.082162,290.697697 C613.523205,316.924369 630.033198,327.709869 649.62217,327.709869 C663.494225,327.709869 672.073762,325.294583 679.122131,322.204683 L682.642155,336.088411 C675.818468,339.169983 663.935268,342.91784 646.984233,342.91784 C614.180609,342.91784 594.591637,321.105311 594.591637,288.940369 C594.591637,256.767097 613.523205,231.656454 644.562656,231.656454 C679.571496,231.656454 688.592076,262.05574 688.592076,281.661197 C688.592076,285.633926 688.367394,288.498954 687.926351,290.697697 L687.926351,290.697697 Z M529.40879,342.91784 C515.320374,342.91784 502.996131,336.746369 496.605166,326.169083 L496.172445,326.169083 L496.172445,384.110954 L477.016194,384.110954 L477.016194,268.668626 C477.016194,255.009769 476.575151,243.991069 476.134107,233.855197 L493.309825,233.855197 L494.408272,252.14474 L494.849315,252.14474 C502.555088,239.14384 515.320374,231.656454 532.712453,231.656454 C558.684068,231.656454 578.065002,253.460654 578.065002,285.633926 C578.065002,323.97034 554.514962,342.91784 529.40879,342.91784 L529.40879,342.91784 Z M0.997503529,0.996668571 L0.997503529,109.268097 L475.326915,109.268097 L475.326915,409.096669 L916.370053,409.096669 L916.370053,0.996668571 L0.997503529,0.996668571 Z" id="Fill-13"></path>
            </g>
            <path d="M1732.39497,247.075971 C1719.18865,247.075971 1706.63972,256.329014 1703.1197,270.8707 C1702.45397,273.294314 1701.80489,276.159343 1701.80489,278.582957 L1701.80489,297.089043 C1701.80489,299.954071 1702.01293,302.602557 1702.67865,305.017843 C1706.19868,318.460157 1717.87384,327.7132 1731.73757,327.7132 C1752.20863,327.7132 1764.10015,310.964443 1764.10015,286.511757 C1764.10015,265.365514 1752.86603,247.075971 1732.39497,247.075971" id="Fill-16" fill="#8CA68B"></path>
            <polygon id="Fill-18" fill="#00693F" points="1283.70182 270.869867 1341.16225 270.869867 1341.16225 255.003939 1283.70182 255.003939 1283.70182 208.072439 1344.68227 208.072439 1344.68227 191.989967 1264.32921 191.989967 1264.32921 340.496724 1347.98594 340.496724 1347.98594 324.405924 1283.70182 324.405924"></polygon>
            <path d="M1459.83448,233.85603 L1440.45354,233.85603 L1440.45354,299.068744 C1440.45354,302.816601 1439.80446,306.339587 1438.69769,308.988073 C1435.17767,317.799701 1426.14877,326.836201 1413.16712,326.836201 C1395.77504,326.836201 1389.3924,312.952473 1389.3924,292.68073 L1389.3924,233.85603 L1370.01147,233.85603 L1370.01147,296.212044 C1370.01147,333.449087 1390.04148,342.918673 1406.77616,342.918673 C1425.71605,342.918673 1437.1582,331.675101 1442.00136,323.088344 L1442.43408,323.088344 L1443.54085,340.495059 L1460.70824,340.495059 C1460.05916,332.116516 1459.83448,322.430387 1459.83448,311.186816 L1459.83448,233.85603 Z" id="Fill-20" fill="#00693F"></path>
            <path d="M1509.59163,255.00727 L1508.93423,255.00727 L1508.05214,233.852699 L1491.10111,233.852699 C1491.75851,243.772027 1491.98319,254.565856 1491.98319,267.125341 L1491.98319,340.491727 L1511.3558,340.491727 L1511.3558,283.649227 C1511.3558,280.567656 1511.57217,277.261213 1512.01321,274.612727 C1514.65947,260.071041 1524.34577,249.943499 1537.99315,249.943499 C1540.63108,249.943499 1542.61994,249.943499 1544.60047,250.376584 L1544.60047,232.09537 C1542.8363,231.870499 1541.29681,231.653956 1539.31628,231.653956 C1526.32631,231.653956 1514.43479,240.682127 1509.59163,255.00727" id="Fill-22" fill="#00693F"></path>
            <path d="M1606.02863,328.374489 C1587.09706,328.374489 1573.89073,310.751231 1573.89073,287.397917 C1573.89073,267.342717 1583.7934,246.196474 1606.46967,246.196474 C1629.36231,246.196474 1638.39121,268.883503 1638.39121,286.956503 C1638.39121,310.967774 1624.51915,328.374489 1606.02863,328.374489 M1606.91071,231.654789 C1577.62711,231.654789 1554.07707,252.584489 1554.07707,288.055874 C1554.07707,321.761603 1576.52867,342.916174 1605.14654,342.916174 C1630.68543,342.916174 1658.20486,325.726003 1658.20486,286.290217 C1658.20486,253.908731 1637.50912,231.654789 1606.91071,231.654789" id="Fill-24" fill="#00693F"></path>
        </g>
    </g>
</svg>