<?xml version="1.0" encoding="UTF-8" standalone="no"?>
<svg width="12648px" height="5245px" viewBox="0 0 12648 5245" version="1.1" xmlns="http://www.w3.org/2000/svg" xmlns:xlink="http://www.w3.org/1999/xlink">
    <!-- Generator: Sketch 3.8.3 (29802) - http://www.bohemiancoding.com/sketch -->
    <title>voyage-sncf</title>
    <desc>Created with Sketch.</desc>
    <defs></defs>
    <g id="Page-1" stroke="none" stroke-width="1" fill="none" fill-rule="evenodd">
        <g id="voyage-sncf" transform="translate(-1.000000, -1.000000)">
            <path d="M10432.1265,948.106739 C10344.8497,943.521524 10270.2353,938.16322 10206.0573,931.352043 C10178.2401,939.869347 10101.9063,964.888094 10004.0864,997.264511 C9730.71343,1087.76919 9289.23801,1235.90897 9267.24554,1243.33328 C9264.80638,1244.26632 9256.02272,1247.62526 9242.18746,1252.91692 C9113.73813,1302.04803 8548.49177,1518.43287 8547.58542,1518.83274 C8546.51912,1519.25927 8545.47947,1519.69913 8544.41317,1520.13899 C8316.66453,1612.94961 8098.21936,1707.55966 7888.98438,1803.68923 C7888.70447,1803.79587 7888.4379,1803.94249 7888.14466,1804.07578 C7891.6368,1846.35573 7892.08998,1889.18217 7889.33092,1931.71537 C7880.50728,2067.7923 7837.64197,2200.61692 7746.88639,2301.57163 L8258.49779,2075.50985 C8271.8932,1995.94837 8276.93147,1911.88165 8272.9595,1824.04279 C8313.26569,1891.26151 8361.94235,1952.04227 8417.31005,2005.33207 L8646.57817,1904.01747 L8795.22058,1838.34493 C8710.83616,1793.27919 8635.82186,1722.23502 8584.46612,1624.55927 C8568.79149,1594.72871 8555.27612,1562.45893 8544.41317,1527.65661 L8884.66994,1491.8946 L9795.9844,1396.13825 L9874.43753,1361.46922 C9870.57218,1327.7199 9863.93446,1271.09783 9860.93549,1252.91692 C9912.81105,1269.27174 9969.29836,1282.29428 10029.9443,1292.75764 L10120.1,1252.91692 L10750.3241,974.445068 C10651.2381,961.409195 10544.4347,953.95822 10432.1265,948.106739" id="Fill-1" fill="#822566"></path>
            <path d="M6933.74096,2353.95904 C6923.59777,2344.58867 6913.73448,2334.59184 6904.20441,2323.8619 L6696.07571,2458.97913 L6582.11475,2532.95571 C6640.748,2608.43848 6712.81665,2671.92505 6795.30838,2722.04252 L7347.01271,2478.26636 C7246.72707,2485.06421 7066.40218,2476.52024 6933.74096,2353.95904" id="Fill-3" fill="#822566"></path>
            <path d="M1782.80292,4630.30378 C1758.54456,4462.15701 1671.34777,4367.85353 1556.827,4313.77732 C1553.1216,4314.51042 1549.41621,4315.20353 1545.71081,4315.94996 C1249.82551,4374.8913 952.287438,4422.9161 652.776712,4460.75746 C773.482027,4513.60739 928.668863,4526.62994 1084.94866,4532.62804 C1447.7577,4543.22468 1484.66505,4614.36216 1493.52868,4699.20197 C1495.64796,4719.43557 1493.26211,4740.38894 1486.54441,4761.20901 C1458.03418,4849.51439 1350.35107,4935.48718 1166.22748,4954.81439 C1123.86866,4959.25299 1083.77573,4959.45292 1046.29523,4955.74743 C883.750918,4939.63253 770.709644,4849.80763 737.694288,4712.83766 L432.852055,4744.86752 C467.960027,4909.88195 551.731329,5037.06835 670.050795,5121.98814 C781.639233,5202.06946 923.963808,5244.49603 1085.36185,5245.41573 L1618.63249,5009.78366 L1712.97351,4968.09019 C1771.70005,4878.4519 1798.27762,4771.51242 1785.92185,4653.77635 C1785.06881,4645.72557 1783.92253,4638.03467 1782.80292,4630.30378" id="Fill-5" fill="#822566"></path>
            <path d="M3228.7369,3991.31273 C3221.60601,3947.10006 3211.78271,3905.00672 3199.25367,3865.43258 C3101.38053,3899.43515 3003.36078,3932.18478 2905.27438,3963.57484 C2901.48901,3964.86777 2897.70364,3966.16069 2893.95825,3967.36031 C2904.24806,3998.87034 2911.71217,4033.12616 2915.64416,4070.40769 L2921.60212,4127.02977 L2952.41823,4420.32359 L3261.13913,4283.91344 L3236.09438,4045.54889 C3234.14838,4027.08807 3231.60258,4009.08044 3228.7369,3991.31273" id="Fill-7" fill="#822566"></path>
            <path d="M2239.6664,4156.78035 C2236.48083,4157.60675 2232.65547,4158.59311 2228.27031,4159.69942 C2162.4262,4176.46745 1969.66557,4223.7858 1921.72199,4234.88896 L1955.2705,4554.04126 L1986.11327,4847.36174 L2297.7665,4709.64534 L2266.93706,4416.31153 L2239.6664,4156.78035 Z" id="Fill-9" fill="#822566"></path>
            <path d="M4608.62151,3381.55375 C4576.56582,3361.42679 4542.41752,3343.12592 4505.59014,3327.74412 C4498.1127,3331.30299 4027.274,3543.32921 3996.55119,3557.08485 C3995.55153,3557.53804 3995.01838,3557.77797 3994.9784,3557.79129 C3868.60836,3611.46764 3528.96471,3745.34526 3491.75079,3759.35416 C3489.32496,3760.26054 3486.93911,3761.24689 3484.51327,3762.12661 C3466.37282,3805.51288 3451.80448,3850.80521 3440.96819,3897.49709 C3420.06868,3987.64189 3413.36432,4083.09167 3423.64079,4180.78075 C3424.69377,4190.7376 3426.10662,4200.54783 3427.47948,4210.38471 L3743.30462,4070.82889 C3747.88971,3913.01218 3818.51885,3771.2304 3928.37455,3682.1386 C3988.03411,3633.74059 4059.24971,3600.95097 4137.78281,3589.60789 C4143.18096,3588.82147 4148.57911,3588.0084 4154.05723,3587.42192 C4343.00584,3567.56154 4459.79249,3652.13476 4526.26305,3724.85841 L4828.95936,3591.11408 C4773.60499,3513.93851 4700.66997,3439.34879 4608.62151,3381.55375" id="Fill-11" fill="#822566"></path>
            <path d="M5907.86974,2615.64021 C5907.86974,2615.64021 5857.487,2620.21209 5801.1463,2625.33047 C5801.11964,2625.3438 5801.07966,2625.35713 5801.053,2625.38379 L5801.06633,2625.38379 C5781.79293,2637.11341 5754.66889,2653.42824 5727.26495,2669.82305 C5718.42797,2675.12804 5709.61766,2680.39304 5700.98062,2685.55141 C5693.39655,2690.08331 5685.97242,2694.5219 5678.90818,2698.7339 C5665.56608,2706.69138 5653.49022,2713.87577 5643.77355,2719.66061 C5642.04081,2720.70028 5640.52133,2721.60666 5638.94853,2722.5397 C5636.57601,2723.93926 5634.36344,2725.25884 5632.40411,2726.4318 C5628.76536,2728.59112 5625.913,2730.28391 5623.86037,2731.51019 C5622.03433,2732.57652 5620.64814,2733.40293 5620.24827,2733.64285 C5508.56653,2799.58198 5396.91145,2863.58838 5285.2697,2925.51545 C5281.11112,2927.86137 5159.83267,2994.65356 5103.35868,3024.99062 C5082.25925,3074.30834 5067.23773,3127.13162 5058.57403,3182.56741 C5049.15059,3242.93496 5047.28456,3306.40821 5054.21552,3372.20071 L5066.18475,3486.13798 L5376.41181,3349.06137 L5375.29219,3338.50471 C5353.5663,3132.23667 5480.2429,2973.30032 5683.20004,2952.00039 C5703.95293,2949.81442 5941.03171,2931.36693 5941.03171,2931.36693 L5927.10315,2798.79556 L5907.86974,2615.64021 Z" id="Fill-13" fill="#822566"></path>
            <path d="M7373.29171,2476.02174 C7365.34777,2476.86147 7356.49746,2477.62123 7347.00738,2478.26103 L6795.31638,2722.03719 C6912.32963,2793.10803 7050.45564,2837.08077 7201.64385,2849.4102 C7269.47394,2854.95512 7339.87649,2854.22201 7412.21171,2846.62442 C7724.11819,2813.8348 7967.72807,2668.00096 8115.27752,2445.71133 C8186.31985,2338.67855 8235.18311,2213.98468 8258.49512,2075.50852 L7746.89705,2301.57029 C7664.81851,2392.87472 7543.67334,2458.10741 7373.29171,2476.02174" id="Fill-15" fill="#AF1773"></path>
            <path d="M9877.39385,1387.58362 C9877.39385,1387.58362 9876.20759,1376.92033 9874.43486,1361.47189 L9795.98174,1396.14091 L9795.98174,1396.14091 L9877.39385,1387.58362 Z" id="Fill-17" fill="#AF1773"></path>
            <path d="M12338.0775,1049.46132 L12302.0499,706.476562 L11973.1092,741.052284 L11235.8151,818.547752 L11260.7133,1055.84597 L11275.135,1193.2558 C11242.2263,1156.58741 11204.2393,1125.71718 11161.8005,1099.5388 C11051.6116,1031.57365 10911.2063,995.611701 10750.3281,974.445068 L10120.104,1252.91692 L10029.9483,1292.75764 C10141.9232,1312.07152 10268.3066,1322.49489 10407.6988,1327.86652 C10487.0716,1330.17246 10556.0747,1334.46444 10616.6539,1340.42255 C10986.7405,1376.82436 11030.7254,1477.8857 11043.9209,1603.37931 C11044.534,1609.15082 11044.9072,1614.96231 11045.1205,1620.7738 L11045.1205,1620.78713 L11062.5278,1613.0829 L11402.5847,1462.8238 C11390.4955,1402.24298 11372.595,1348.89987 11349.1496,1302.14133 L11896.4955,1244.58622 L12338.0775,1049.46132 Z" id="Fill-19" fill="#AF1773"></path>
            <path d="M9892.01284,1728.21313 L9763.96337,1717.20328 L9426.86552,1688.22578 C9353.42402,1807.40139 9234.51809,1878.25896 9077.11868,1894.80039 C8983.95059,1904.59729 8884.3847,1885.94986 8795.22858,1838.33826 L8646.58617,1904.02414 L8417.31805,2005.3254 C8498.7035,2083.66061 8594.69728,2145.57434 8700.54102,2187.10786 C8826.9777,2236.70549 8967.38294,2257.32563 9113.66615,2241.95716 C9304.09425,2221.91018 9465.8655,2155.23795 9591.36917,2049.21818 C9601.49903,2040.66088 9611.46895,2031.93032 9621.11898,2022.86652 C9627.6634,2031.81035 9634.40776,2040.58091 9641.2854,2049.21818 C9680.53862,2098.50924 9725.33661,2142.84187 9775.01292,2182.00281 L10075.51,2049.21818 L10207.5447,1990.87664 L10207.5447,1990.87664 C10061.3015,1945.81091 9949.39318,1854.75973 9892.01284,1728.21313" id="Fill-21" fill="#AF1773"></path>
            <path d="M1085.36851,5245.41307 C1121.4095,5245.61301 1158.37017,5243.8269 1196.17055,5239.8415 C1375.16257,5221.03412 1522.05891,5160.10674 1624.89035,5069.21551 C1659.37187,5038.73183 1688.88176,5004.87588 1712.98017,4968.08752 L1618.63916,5009.78099 L1085.36851,5245.41307 Z" id="Fill-23" fill="#AF1773"></path>
            <polygon id="Fill-25" fill="#AF1773" points="3261.14313 4283.91477 2952.42223 4420.32492 2983.25166 4713.63207 3014.76087 5013.52381 3334.30473 4979.97443 3291.97257 4577.20859"></polygon>
            <polygon id="Fill-27" fill="#AF1773" points="2297.76383 4709.644 1986.1106 4847.36041 2014.62083 5118.66119 2083.02407 5111.4768 2337.19033 5084.77858 2328.59327 5002.96448"></polygon>
            <path d="M7507.72566,2920.68497 C7191.03415,2953.95444 6938.60063,3180.52272 6844.77944,3477.40208 L7939.47108,2993.68853 C7823.33753,2934.62723 7680.51979,2902.49073 7507.72566,2920.68497" id="Fill-29" fill="#AF1773"></path>
            <path d="M4929.01308,3772.16077 C4906.00763,3715.20546 4872.93896,3652.41201 4828.96735,3591.11141 L4526.27105,3724.86907 C4557.72694,3759.29817 4577.97334,3791.08811 4589.14285,3807.86946 L4929.01308,3772.16077 Z" id="Fill-31" fill="#AF1773"></path>
            <path d="M4485.78492,4519.35224 L4971.63181,4304.67353 C4974.73742,4290.30475 4977.53646,4276.00261 4979.81568,4261.84709 L4640.252,4297.5158 C4626.32344,4334.15753 4589.54937,4441.44357 4485.78492,4519.35224" id="Fill-33" fill="#AF1773"></path>
            <path d="M3808.31168,4349.02616 C3775.77616,4288.69859 3753.89032,4220.41354 3746.17297,4146.90347 C3743.46723,4121.2316 3742.58753,4095.83964 3743.30728,4070.83422 L3427.48215,4210.37672 C3441.02417,4306.99946 3470.44076,4397.61078 3512.6663,4479.6648 C3584.64164,4619.51387 3693.7376,4734.34418 3824.78604,4811.42645 L4315.25801,4594.70839 C4297.99725,4598.32058 4279.92345,4601.25298 4260.82332,4603.26568 C4073.44752,4622.96611 3899.05393,4517.23958 3808.31168,4349.02616" id="Fill-35" fill="#AF1773"></path>
            <polygon id="Fill-37" fill="#AF1773" points="5817.00087 3565.13031 5508.65317 3597.54671 5403.64914 3608.59655 5376.40514 3349.05204 5066.19142 3486.12865 5097.02086 3779.4358 5144.19136 4228.29371 5454.39176 4091.2171 5436.51788 3921.1776 5849.85628 3877.69803"></polygon>
            <path d="M6256.78088,4001.65879 C6087.89207,4019.45315 5962.16181,4160.74176 5959.4694,4326.22271 L6510.84051,4082.59317 C6443.55689,4023.51853 6352.78798,3991.58198 6256.78088,4001.65879" id="Fill-39" fill="#C6174A"></path>
            <path d="M11402.578,1462.82913 L11062.5212,1613.08824 L11045.1138,1620.77913 C11051.1517,1793.24454 10880.1303,1980.7985 10529.9436,2017.60018 C10411.6375,2030.03625 10302.3949,2020.10606 10207.5474,1990.87531 L10075.5126,2049.21684 L9775.01559,2182.00148 C9932.80153,2306.34878 10140.1838,2377.84615 10378.6755,2384.93724 L11324.0183,1967.22946 C11398.2462,1844.37502 11431.2748,1700.31396 11414.7072,1542.63054 C11411.7749,1514.62607 11407.6296,1488.16778 11402.578,1462.82913" id="Fill-41" fill="#C6174A"></path>
            <polygon id="Fill-43" fill="#C6174A" points="12338.0775 1049.46132 11896.4955 1244.58622 12353.5256 1196.52144"></polygon>
            <path d="M7939.46708,2993.69253 L6844.77544,3477.40607 C6810.50718,3585.85175 6797.20507,3703.60114 6809.94737,3824.85609 C6814.53247,3868.48228 6822.4231,3910.93551 6833.17941,3952.06915 L7136.04899,3818.23152 C7134.64947,3809.23437 7133.43655,3800.15724 7132.47688,3791.00014 C7102.86036,3509.3293 7285.89099,3258.24878 7540.40379,3231.51058 C7813.01707,3202.87964 7935.46845,3391.56658 7973.18886,3448.33528 L8267.99453,3318.06985 C8201.04414,3198.601 8093.98748,3072.28099 7939.46708,2993.69253" id="Fill-45" fill="#C6174A"></path>
            <path d="M4315.25401,4594.70439 L3824.78204,4811.42245 C3962.74811,4892.58343 4124.85257,4931.99762 4293.50146,4914.24324 C4709.50561,4870.56373 4913.63568,4572.79132 4971.62915,4304.6762 L4485.78226,4519.35491 C4441.99726,4552.2245 4386.21637,4579.80244 4315.25401,4594.70439" id="Fill-47" fill="#C6174A"></path>
            <polygon id="Fill-49" fill="#C6174A" points="5144.1927 4228.29104 5191.3632 4677.13563 5501.59026 4540.05902 5454.39309 4091.21444"></polygon>
            <path d="M9147.3053,2748.33153 C8860.01705,2778.49532 8625.64401,2947.36186 8517.84094,3207.26626 L8742.67058,3107.92437 L8919.14346,3029.94905 L9479.76474,2782.22747 C9376.68005,2748.27822 9264.22524,2736.04209 9147.3053,2748.33153" id="Fill-51" fill="#C6174A"></path>
            <path d="M6510.8445,4082.58917 L5959.47339,4326.21871 C5959.24681,4339.61447 5959.73997,4353.14352 5961.17948,4366.79253 C5978.02704,4527.16843 6105.92989,4648.63665 6260.4103,4662.96545 C6281.92293,4664.95148 6303.94205,4664.89817 6326.25441,4662.55224 C6421.71504,4652.48876 6503.44704,4602.9711 6556.9887,4531.9136 C6605.79864,4467.1341 6631.20327,4384.48027 6622.04641,4297.34785 C6612.96952,4210.93521 6571.42375,4135.77233 6510.8445,4082.58917" id="Fill-53" fill="#DB0E15"></path>
            <path d="M10567.796,2377.54491 C10923.1809,2340.21006 11190.5027,2188.16486 11324.0169,1967.22147 L10378.6741,2384.94257 C10439.7865,2386.75533 10502.9249,2384.36942 10567.796,2377.54491" id="Fill-55" fill="#DB0E15"></path>
            <path d="M8315.31166,3416.20678 C8302.66266,3384.87003 8286.85474,3351.73386 8267.99453,3318.06452 L7973.18886,3448.32995 C7973.98859,3449.52957 7974.80164,3450.76917 7975.53473,3451.84883 L8315.31166,3416.20678 Z" id="Fill-57" fill="#DB0E15"></path>
            <path d="M7647.18321,4247.37434 C7548.57699,4257.73106 7453.58287,4233.25881 7372.42401,4183.32794 C7250.97228,4108.61826 7160.60324,3976.77999 7136.03832,3818.24351 L6833.18208,3952.06782 C6871.30235,4097.76836 6946.43661,4226.28768 7046.44235,4327.37568 C7181.71601,4464.10573 7362.38745,4550.61168 7558.4003,4561.3816 C7598.33328,4563.58091 7638.90605,4562.6612 7679.85202,4558.35589 C7925.08801,4532.60405 8096.66923,4418.52016 8208.15104,4274.28582 C8295.92097,4160.72177 8346.45032,4028.4703 8366.19023,3905.86911 L8026.61323,3941.61779 C8005.31386,3997.41346 7931.04597,4217.54378 7647.18321,4247.37434" id="Fill-59" fill="#DB0E15"></path>
            <polygon id="Fill-61" fill="#DB0E15" points="5191.3672 4677.14229 5202.55004 4783.56194 5523.64004 4749.78596 5501.59426 4540.06568"></polygon>
            <path d="M9178.36399,3059.53569 C9325.7535,3042.38112 9466.2387,3104.90799 9564.07185,3214.67324 C9634.98089,3294.23473 9683.52426,3398.5617 9695.81339,3515.57799 C9699.39883,3549.68719 9699.77203,3583.32988 9697.29288,3616.19947 C9679.44566,3853.1378 9510.98337,4048.92916 9289.63254,4074.65435 C9157.75772,4090.02281 9031.37435,4041.54483 8936.11365,3952.54633 L8936.11365,3952.54633 C8847.77058,3870.02579 8786.19168,3752.66294 8772.08984,3618.66536 C8770.23714,3600.96429 8769.23748,3583.38319 8769.03755,3565.97537 L8769.03755,3565.97537 C8766.14521,3307.96371 8942.01829,3087.06031 9178.36399,3059.53569 M10017.5432,3474.6976 C10001.9752,3336.86123 9954.17821,3210.52789 9882.85598,3103.16188 C9878.07095,3095.43099 9873.17929,3087.82007 9868.16768,3080.30245 C9772.34717,2936.41466 9636.98021,2834.00708 9479.7674,2782.22347 L8919.14613,3029.94505 L8742.65992,3107.92037 L8517.84361,3207.26226 C8504.71477,3238.94556 8493.332,3271.8818 8484.09517,3306.17761 C8450.01351,3414.25007 8436.79137,3531.66623 8449.48036,3652.58795 C8451.3064,3669.94246 8453.65226,3687.11036 8456.47796,3704.07832 C8476.55109,3824.6135 8521.4557,3935.33845 8585.14055,4031.12146 C8597.81621,4051.62164 8611.26494,4071.14879 8625.27347,4089.88952 C8793.50917,4314.96494 9055.04624,4413.80032 9320.55528,4385.87583 C9641.68526,4352.13984 9898.37066,4145.00541 9983.90136,3828.06574 C10017.8897,3719.99328 10031.0985,3602.57712 10018.3696,3481.68205 C10018.1296,3479.33613 10017.7964,3477.03019 10017.5432,3474.6976" id="Fill-63" fill="#DB0E15"></path>
            <path d="M12548.9146,3055.46231 C12520.8043,2788.22691 12396.2469,2597.74054 12204.4593,2508.34217 C12101.0547,2460.14409 11978.1502,2441.25674 11840.1441,2455.75882 C11568.3572,2484.29645 11443.1868,2650.93703 11373.1174,2764.2345 C11304.5009,2689.77807 11203.6155,2592.60883 11038.1522,2563.32477 C10986.4899,2554.18099 10928.6031,2551.56849 10863.3321,2558.44631 C10561.8487,2590.12961 10420.2705,2756.58359 10420.2705,2756.58359 L10404.3027,2648.07127 L10097.2079,2680.3144 L10127.2109,2965.83735 L10173.4484,3405.79141 L10262.3513,4251.77694 L10588.3196,4217.50779 L10488.9137,3271.94045 C10488.7271,3270.14102 10488.6471,3268.38158 10488.4738,3266.59547 C10468.9872,3057.00849 10602.2215,2889.96803 10807.0847,2868.49483 C10968.4427,2851.51354 11062.6371,2912.58754 11117.645,2988.57682 C11172.5062,3064.40615 11188.3541,3155.07078 11192.8725,3197.95054 L11292.3318,4143.47789 L11618.2601,4109.26206 L11518.8675,3163.7347 C11496.5685,2951.56187 11631.6689,2781.78894 11840.2507,2759.83589 C12162.487,2725.97994 12216.935,3003.50542 12225.9719,3089.37158 L12325.3246,4034.93892 L12648.3206,4000.97634 L12548.9146,3055.46231 Z" id="Fill-65" fill="#DB0E15"></path>
            <path d="M5650.3473,2639.37003 C5391.30271,2666.56142 5193.38384,2814.50125 5103.36135,3024.99462 C5159.83534,2994.64423 5281.10046,2927.85204 5285.25904,2925.51944 C5396.91412,2863.59238 5508.55587,2799.57265 5620.25094,2733.63352 C5620.63747,2733.40693 5622.03699,2732.58052 5623.86304,2731.50086 C5625.91567,2730.27458 5628.76802,2728.58179 5632.40678,2726.42247 C5634.3661,2725.26284 5636.57868,2723.94325 5638.93787,2722.5437 C5640.52399,2721.59733 5642.03015,2720.70428 5643.77621,2719.66461 C5653.49288,2713.87977 5665.55542,2706.69538 5678.91084,2698.72457 C5685.97509,2694.5259 5693.39921,2690.08731 5700.98328,2685.55541 C5709.62032,2680.39704 5718.43064,2675.11871 5727.26761,2669.82705 C5754.67156,2653.41891 5781.7956,2637.11741 5801.06899,2625.37446 L5801.05567,2625.37446 C5735.07827,2631.37256 5660.94367,2638.26371 5650.3473,2639.37003" id="Fill-67" fill="#004F9E"></path>
            <path d="M4121.39909,3276.56432 C4067.43091,3282.24252 4015.35542,3293.54561 3965.5858,3309.83379 C3924.87975,3323.1629 3885.74648,3339.87761 3848.41261,3359.57804 C3685.42844,3445.5375 3557.03243,3588.91877 3484.56392,3762.09062 C3486.93644,3761.15758 3489.33562,3760.26453 3491.74813,3759.35815 C3528.96205,3745.34926 3868.60569,3611.47164 3994.97573,3557.79529 C3995.01572,3557.76864 3995.54887,3557.52871 3996.54853,3557.08885 C4027.27133,3543.31988 4498.07005,3331.18703 4505.48084,3327.66814 C4398.49083,3282.98895 4271.24109,3260.82264 4121.39909,3276.56432" id="Fill-69" fill="#004F9E"></path>
            <path d="M1501.65657,3896.72934 L1321.65157,3973.13182 C1354.7469,4007.22769 1377.61906,4049.18774 1390.96116,4095.70635 L1521.1299,4082.00402 L1694.44385,4063.75646 C1679.86218,3983.10199 1651.89843,3911.35137 1612.09873,3849.85084 L1501.65657,3896.72934 Z" id="Fill-71" fill="#004F9E"></path>
            <path d="M1344.74632,4254.52541 C1264.37386,4242.60918 1181.4556,4238.23723 1103.65558,4234.19851 C948.162185,4226.04109 856.340308,4213.93825 802.385459,4193.61136 L487.613295,4327.20906 C527.77287,4388.26974 584.713363,4430.85625 652.703404,4460.75346 C755.041678,4447.82422 857.126705,4433.58872 959.011801,4418.24691 C1155.35787,4388.69627 1350.90421,4354.68037 1545.70414,4315.86599 C1549.36955,4315.13289 1553.04829,4314.43977 1556.71371,4313.70667 C1552.84836,4311.88058 1548.86306,4310.25443 1544.93108,4308.52165 C1483.63208,4281.38357 1415.21551,4264.97543 1344.74632,4254.52541" id="Fill-73" fill="#004F9E"></path>
            <path d="M2992.76707,3555.03217 C2882.95136,3469.09937 2741.97299,3427.3126 2580.1351,3439.01556 L2202.90433,3599.12488 C2191.48158,3609.13504 2182.04481,3617.57237 2174.66067,3623.21059 L2173.44776,3611.64092 L1869.77845,3740.53345 L1899.06176,4019.25855 L1915.9493,4179.96767 L1921.72066,4234.89695 C1969.63758,4223.75381 2162.42487,4176.46212 2228.26898,4159.70742 C2232.66747,4158.58778 2236.49282,4157.60142 2239.66507,4156.77502 L2237.46582,4135.91495 C2234.09365,4103.83178 2234.5335,4072.76161 2238.45215,4043.07767 C2250.24811,3953.59933 2293.75321,3876.83697 2360.11714,3823.5605 C2407.80747,3785.26595 2467.32041,3759.11423 2535.40376,3749.15738 C2540.94852,3748.34431 2546.50662,3747.61121 2552.15802,3747.0114 C2647.03218,3737.02789 2727.99111,3759.52743 2789.57002,3809.15173 C2836.4073,3846.89978 2872.04843,3900.32286 2893.92093,3967.28833 C2897.7063,3966.08871 2901.49167,3964.87576 2905.27704,3963.56951 C3003.36344,3932.19278 3101.38319,3899.44314 3199.25633,3865.44057 C3176.51745,3793.7566 3145.08822,3729.9368 3106.14156,3674.78093 C3073.48608,3628.5289 3035.48577,3588.46159 2992.76707,3555.03217" id="Fill-75" fill="#004F9E"></path>
            <path d="M9137.47133,1117.62374 L8611.03835,1172.9529 L8535.19766,1180.92371 C8595.67028,958.394149 8780.30036,826.062706 8947.33647,808.508263 C9059.59135,796.711997 9169.70029,830.181403 9260.9357,897.093554 C9304.84066,929.310023 9344.36046,969.257377 9377.62906,1015.68268 C9393.81018,1038.24887 9408.56513,1062.29459 9421.574,1087.76653 L9137.47133,1117.62374 Z M11105.8903,282.114896 C11068.9696,238.58201 11027.1306,200.247478 10980.9731,167.017997 C10881.9404,95.7472253 10762.9012,48.1889468 10628.7205,24.9563013 L9499.49398,504.257909 C9486.28517,537.900592 9476.27526,572.063111 9469.38429,606.358922 C9441.36722,586.965061 9412.40381,569.53058 9382.74731,553.815554 L8830.34988,788.287997 L8535.19766,913.55501 L7837.1568,1209.84788 L7778.61685,1234.69335 C7712.26625,1459.18229 7529.5022,1634.06026 7304.68588,1657.69278 C7185.10018,1670.23548 7069.88632,1639.48521 6971.62665,1577.22492 L6783.93095,1656.89304 L6584.26602,1741.63954 C6658.32065,1816.96236 6743.91799,1879.23598 6838.01909,1925.51467 C6907.0621,1959.49058 6980.69021,1984.73592 7057.49057,2000.47761 C7148.56603,2019.15169 7244.13329,2024.41669 7342.16637,2014.11329 C7547.30943,1992.56011 7744.13533,1880.07572 7878.91583,1713.18188 L7886.32662,1783.63958 C7887.04637,1790.50407 7887.57952,1797.26193 7888.13933,1804.07311 C7888.44589,1803.93982 7888.69914,1803.7932 7888.99237,1803.68657 C8098.22736,1707.557 8316.6592,1612.94695 8544.40784,1520.13633 C8545.47414,1519.69647 8546.52711,1519.26993 8547.59342,1518.83007 C8548.48644,1518.4302 9113.74613,1302.04536 9242.18213,1252.92758 C9256.01739,1247.62259 9264.80105,1244.27698 9267.25354,1243.34395 C9267.70672,1243.17067 9267.99995,1243.05071 9268.01328,1243.05071 C9365.99305,1207.82186 10098.5288,964.285618 10206.0519,931.349377 C10005.4406,910.036124 9909.95336,874.807276 9869.50055,806.90877 C9856.19844,784.569175 9848.84096,758.724023 9845.66872,728.653542 C9842.6964,700.195884 9845.72203,672.311377 9853.94588,645.399896 C9895.81154,508.349947 10075.0968,397.185137 10313.0153,372.16639 C10380.992,365.021985 10441.7045,365.861719 10495.8326,372.939478 C10584.0424,384.469162 10654.6716,412.646909 10710.719,449.848466 C10804.1137,511.842175 10856.9356,599.027909 10882.2736,676.829947 L11271.7802,635.896238 C11242.7768,494.234415 11185.6896,376.23177 11105.8903,282.114896 L11105.8903,282.114896 Z" id="Fill-77" fill="#004F9E"></path>
            <path d="M6456.52578,2087.44607 L6427.18916,1808.3211 L6066.4994,1961.4193 L5878.83035,2041.07409 C5820.27708,2089.73868 5749.42135,2121.90183 5671.84793,2130.05925 C5670.75497,2130.17921 5669.66201,2130.20587 5668.56905,2130.31251 L5613.10805,2153.86505 L5175.77788,2339.48629 C5278.39605,2414.80911 5398.94142,2464.50005 5529.04352,2481.12145 C5587.35688,2488.57243 5647.57625,2489.39883 5708.91523,2482.96087 C5863.27568,2466.69935 6008.83915,2391.56314 6116.77551,2277.79915 L6129.07796,2394.54886 L6129.91767,2402.61297 L6483.02337,2365.50472 C6483.35659,2366.19783 6483.67648,2367.02424 6484.0097,2367.81066 L6485.71578,2365.22481 L6473.43998,2248.3818 L6456.52578,2087.44607 Z" id="Fill-79" fill="#004F9E"></path>
            <path d="M4165.27606,3059.97955 C4201.70358,3060.57936 4239.34402,3059.15314 4278.47728,3055.04777 C4498.66851,3031.90843 4677.99374,2936.17874 4797.59277,2791.58451 C4879.31144,2692.78912 4933.01304,2571.13429 4952.76628,2434.13766 L3762.58734,2939.32441 C3870.35043,3011.26164 4004.78437,3057.35371 4165.27606,3059.97955" id="Fill-81" fill="#004F9E"></path>
            <path d="M1482.40583,3713.56598 C1457.98753,3695.95822 1431.84982,3680.22987 1403.97936,3666.59419 C1373.44316,3685.8281 1226.05365,3775.93291 1214.04443,3783.13063 C1189.89271,3797.59272 1064.16245,3871.71592 1036.29199,3887.69753 C1169.28643,3876.31446 1262.18794,3911.86321 1321.64757,3973.13715 L1501.65257,3896.73467 L1612.09473,3849.85617 C1577.49325,3796.36644 1533.88153,3750.68757 1482.40583,3713.56598" id="Fill-83" fill="#008BD1"></path>
            <path d="M728.576078,4105.36196 C726.843338,4089.11377 729.069242,4072.31908 734.893914,4055.67102 C734.600681,4055.80431 734.334105,4055.96426 734.06753,4056.03091 C712.261667,4067.77386 626.890914,4112.97288 606.071379,4123.8761 C586.264832,4134.20616 446.446064,4205.73019 437.888996,4210.04882 C448.778599,4255.30116 465.746119,4293.95559 487.618626,4327.21173 L802.377462,4193.61402 C749.222338,4173.58036 732.787968,4145.54924 728.576078,4105.36196" id="Fill-85" fill="#008BD1"></path>
            <path d="M3406.22676,2112.17958 C3403.34775,2114.80541 3400.40209,2117.43125 3397.4431,2120.1104 C3306.74084,2202.13777 3213.25287,2285.92458 3116.41938,2371.01764 C3115.49969,2371.84405 3114.55335,2372.67045 3113.64699,2373.43021 C3100.31823,2385.15983 3086.62958,2397.00941 3073.16753,2408.79235 C3068.08927,2413.23095 3062.99768,2417.66954 3057.90609,2422.12146 C2943.91847,2521.59664 2825.63899,2622.63133 2701.73477,2724.8523 C2724.46032,2724.33246 2747.27917,2723.10619 2770.33794,2720.69362 C3147.52872,2681.05283 3431.01827,2397.44927 3491.86409,2034.45752 C3463.62043,2060.19603 3435.03023,2086.04119 3406.22676,2112.17958" id="Fill-87" fill="#008BD1"></path>
            <polygon id="Fill-89" fill="#008BD1" points="1849.48141 3547.41591 1869.76779 3740.52812 2173.45042 3611.63558 2163.22726 3514.38637"></polygon>
            <path d="M2202.90433,3599.13154 L2580.1351,3439.0089 C2571.83128,3439.60871 2563.48747,3440.28849 2555.07702,3441.16821 C2365.43532,3461.16188 2258.61858,3550.36031 2202.90433,3599.13154" id="Fill-91" fill="#008BD1"></path>
            <path d="M10275.5654,16.3790165 C9838.31524,62.2978139 9591.30652,270.471915 9499.49798,504.264573 L10628.7111,24.9629658 C10519.975,6.12892785 10401.389,3.15653544 10275.5654,16.3790165" id="Fill-93" fill="#008BD1"></path>
            <g id="Group-97" transform="translate(3453.150685, 0.758177)" fill="#008BD1">
                <path d="M5460.81988,460.449359 C5459.78024,460.555992 5458.74059,460.59598 5457.70095,460.702613 C5286.81283,478.670258 5133.05217,547.954992 5008.74809,652.335284 C4887.32302,754.289676 4794.00832,889.726803 4740.49332,1043.74471 L4712.58288,778.042157 L4694.08255,602.017878 L4630.87754,0.568270886 L4260.43112,39.5426 L4282.13035,245.957258 C4139.51254,125.608689 3928.37154,29.0259291 3683.18887,54.8044354 C3262.66627,99.0171063 2944.53525,412.211296 2864.24276,817.802904 L2514.1227,854.604587 L2527.1849,978.791942 C2412.19762,900.510056 2259.21003,845.314195 2085.66948,863.548423 C1757.87512,898.017511 1505.08172,1129.51756 1421.11048,1436.27379 L1367.88872,929.940739 C1367.80875,929.980727 1367.68879,930.034043 1367.58216,930.140676 C1366.79576,930.620524 1365.5162,931.4336 1364.22331,932.273334 C1342.75066,946.122284 1252.06173,1006.63646 1205.54433,1037.99987 C1200.51939,1041.46544 1148.93706,1079.28013 1101.60661,1114.12244 C1063.52632,1142.27352 1028.28506,1168.39859 1022.26046,1172.86384 C1021.62068,1173.35702 1021.06087,1173.75689 1020.48773,1174.25007 L1050.05094,1455.42773 C1075.06903,1693.73895 935.756759,1870.2964 703.489663,1894.68868 C552.008225,1910.61697 425.758142,1856.16754 348.557923,1751.36071 C348.437964,1751.52066 348.251362,1751.65395 348.144732,1751.78725 C346.332019,1753.44006 344.479321,1755.11952 342.666608,1756.75901 C300.641005,1794.92026 258.135567,1833.66799 215.030334,1873.01554 C214.230608,1873.72198 112.052279,1966.9458 81.1561973,1995.13688 C79.6367178,1996.44313 78.2371973,1997.76271 76.7710329,1999.12228 C229.865252,2183.34397 468.756745,2282.44593 741.196745,2253.81499 C776.438005,2250.1095 810.146458,2244.39131 842.44206,2236.86036 C921.215074,2218.50617 991.137786,2188.79557 1051.89031,2147.95517 C1075.04238,2132.40009 1096.94154,2115.33883 1117.4012,2096.55811 L1119.77372,2119.15095 L1134.18212,2256.0143 C1135.59496,2269.50336 1136.43468,2282.73917 1136.8612,2295.77504 C1144.01875,2516.59847 1010.34454,2671.6294 787.567526,2695.02199 C617.892321,2712.88301 517.100184,2652.98197 455.694553,2584.89685 C407.684334,2531.6737 383.73254,2473.4388 369.790649,2443.46163 L351.063732,2445.43433 L0.543813699,2482.27601 C7.79466301,2515.35887 17.7512521,2548.65499 30.0936904,2581.67121 C49.4337315,2633.4948 74.8783479,2684.62528 106.667458,2733.04995 C158.089841,2811.42514 225.773321,2882.70925 309.437992,2938.55823 L1499.61692,2433.38482 C1509.50687,2364.81985 1511.07966,2292.52274 1503.16238,2217.22657 L1495.41836,2143.58322 L1486.83464,2061.9424 C1499.05712,2085.53493 1512.42587,2108.30106 1526.67432,2130.32075 C1579.62951,2212.10819 1646.1134,2282.56589 1722.62053,2338.72145 L2159.9507,2153.10021 L2215.42503,2129.56099 L2215.42503,2129.56099 C2082.88377,2142.31695 1957.80662,2084.28199 1871.95603,1983.76714 C1835.7551,1941.36723 1806.5651,1891.42304 1786.71857,1836.06723 C1773.64305,1799.61211 1764.56616,1760.86437 1760.30095,1720.33054 C1733.60343,1466.33094 1896.1744,1240.41579 2122.80343,1216.58333 C2309.13959,1197.00287 2486.54548,1323.68276 2557.60114,1508.85082 C2572.63599,1548.02508 2583.0191,1589.77187 2587.6042,1633.35807 C2589.20365,1648.6199 2590.04336,1663.82842 2590.17665,1678.90365 C2591.37624,1822.75145 2526.91832,1956.17588 2425.67301,2040.30925 L2425.67301,2040.30925 L2613.34205,1960.65446 L2974.04514,1807.55626 L2944.70853,1528.43128 L2937.23109,1457.36045 C2946.70784,1478.27383 2956.91768,1498.6807 2967.66066,1518.6877 C3012.09877,1601.34154 3067.2932,1675.97125 3131.11133,1740.88403 L3330.77627,1656.13752 L3518.48529,1576.46941 C3438.91255,1526.04537 3370.54931,1454.90789 3320.12658,1369.08173 L3320.12658,1369.08173 C3292.06953,1321.33684 3269.57057,1269.10004 3253.80264,1213.34436 C3243.3129,1176.23611 3235.67551,1137.64832 3231.49028,1097.76761 C3194.68955,747.598461 3409.6959,447.680068 3721.04257,414.943765 C3964.13262,389.405182 4189.74866,539.944195 4293.25987,772.150689 L4293.25987,772.150689 C4315.87879,822.894625 4332.55307,877.597309 4342.41636,935.165752 C4344.96216,950.054372 4347.21472,965.076284 4348.8275,980.338119 C4358.05101,1068.13699 4349.04076,1154.14976 4325.46217,1233.93784 L4384.00212,1209.09237 L5082.04298,912.799499 L5377.1952,787.519157 L5929.60595,553.060043 C5785.41535,476.577587 5623.76406,443.947916 5460.81988,460.449359" id="Fill-95"></path>
            </g>
            <g id="Group-100" transform="translate(0.000000, 637.555646)" fill="#00843E">
                <path d="M2024.81201,709.259547 L2216.03983,0.0173949367 L1794.63753,44.3100405 L1345.9779,1777.93458 L1304.72537,1937.3108 L950.006886,1234.38665 L686.270571,711.752091 L422.254352,188.557711 L0.998667123,232.837028 L278.650215,773.199306 L578.840708,1357.41437 L1040.37593,2255.66336 C1159.1619,2218.82169 1273.16285,2172.10314 1381.56571,2116.56072 C1493.71395,2059.11224 1599.87758,1992.28007 1699.0836,1917.07721 L1862.96079,1309.28294 C1863.45395,1314.54794 1863.68054,1319.82627 1864.29367,1325.09127 C1877.56912,1451.49126 1915.68939,1567.85442 1973.16304,1669.62221 C2031.18316,1607.44189 2085.51122,1541.91596 2135.80065,1473.37766 C2151.88848,1451.4646 2167.42982,1429.15166 2182.67793,1406.63879 C2186.7432,1400.64069 2190.90178,1394.70923 2194.90041,1388.67114 C2195.27361,1388.09799 2195.63349,1387.51151 2196.00669,1386.95169 C2205.1369,1373.15605 2214.12049,1359.25379 2222.9308,1345.24489 C2226.11638,1340.17983 2229.16867,1335.02146 2232.31426,1329.91641 C2229.7418,1315.84086 2227.55589,1301.59204 2226.03641,1287.10329 C2202.45782,1062.94758 2308.44817,858.505635 2476.68387,768.240876 C2483.29494,744.021876 2489.4395,719.629597 2495.22419,695.104028 C2496.27716,690.665433 2497.38345,686.240167 2498.39643,681.774914 C2498.96957,679.28237 2499.60935,676.816484 2500.18249,674.323939 C2521.10865,581.420015 2535.81028,486.410091 2544.20741,389.867319 C2328.38801,425.189471 2146.77023,542.805572 2024.81201,709.259547" id="Fill-98"></path>
            </g>
            <path d="M3723.07155,1538.18128 L3620.44004,561.717053 L3522.27367,572.033787 L3254.67201,600.171547 L3333.91153,1354.33281 C3166.00905,1123.40591 2891.6897,989.43499 2591.68581,1020.95834 C2575.67796,1022.65114 2559.87004,1024.86377 2544.20874,1027.42296 C2535.81162,1123.96574 2521.10999,1218.97566 2500.18382,1311.87958 C2499.61068,1314.37213 2498.9709,1316.85134 2498.39777,1319.34389 C2497.38478,1323.79581 2496.27849,1328.22108 2495.22552,1332.673 C2489.44084,1357.18524 2483.29627,1381.57752 2476.68521,1405.79652 C2522.68278,1381.111 2573.30544,1364.91613 2627.23363,1359.25126 C2880.05368,1332.673 3110.20151,1543.13971 3140.23122,1828.56936 C3169.46121,2107.29446 2987.61684,2355.80246 2734.79678,2382.35405 C2496.61171,2407.41279 2279.25951,2224.08415 2232.31559,1967.47205 C2229.17,1972.5771 2226.11771,1977.73547 2222.93214,1982.81386 C2214.12182,1996.82276 2205.13823,2010.7117 2196.00803,2024.50733 C2195.63482,2025.06715 2195.27495,2025.65364 2194.90174,2026.22679 C2190.90311,2032.26488 2186.74453,2038.19633 2182.67926,2044.19443 C2177.42773,2051.93865 2172.08289,2059.62955 2166.76471,2067.32045 C2156.60819,2081.98247 2146.34504,2096.55119 2135.80199,2110.93331 C2085.51255,2179.47161 2031.18449,2244.99753 1973.16437,2307.17785 C2120.08737,2567.29551 2393.48704,2731.99004 2701.72811,2724.84564 C2825.64566,2622.62466 2943.92514,2521.58998 3057.91275,2422.1148 C3063.00434,2417.66288 3068.09593,2413.22428 3073.17419,2408.78569 C3086.63625,2397.01608 3100.31156,2385.15317 3113.65366,2373.43688 C3114.56001,2372.66379 3115.50636,2371.85071 3116.41271,2371.02431 C3127.70218,2361.09412 3138.79171,2351.25723 3149.98788,2341.36703 L3149.98788,2341.36703 C3156.47899,2335.63551 3162.99675,2329.89066 3169.46121,2324.17247 C3173.88636,2320.25371 3178.37815,2316.30829 3182.78997,2312.40286 C3256.13818,2247.38345 3327.64701,2183.23042 3397.43644,2120.11707 C3400.39542,2117.43791 3403.35441,2114.81208 3406.23342,2112.17291 C3435.03689,2086.04785 3463.6271,2060.2027 3491.87075,2034.45085 C3495.80274,2010.87165 3498.86836,1986.8126 3500.881,1962.5936 C3510.18448,1975.34956 3519.87449,1987.81228 3529.92438,1999.88846 C3531.39055,1998.51556 3532.79007,1997.19598 3534.29622,1995.88972 C3565.20563,1967.71198 3667.38396,1874.47483 3668.18368,1873.76838 C3711.28892,1834.43417 3753.78103,1795.6731 3795.81996,1757.52518 C3797.63267,1755.87237 3799.48537,1754.1929 3801.29808,1752.55342 C3801.40471,1752.42013 3801.59132,1752.27351 3801.71127,1752.12689 C3800.59166,1750.60737 3799.592,1748.95456 3798.49904,1747.40838 C3758.15286,1690.83962 3731.69526,1620.20865 3723.07155,1538.18128" id="Fill-101" fill="#77B12B"></path>
            <path d="M1040.37993,2893.215 L1140.90549,3088.84641 L1413.73202,3060.12217 L1567.1328,3043.98061 L1699.07427,2554.62885 C1599.88158,2629.83171 1493.70462,2696.66389 1381.56971,2754.1257 C1273.16684,2809.65479 1159.1659,2856.37333 1040.37993,2893.215" id="Fill-103" fill="#77B12B"></path>
            <path d="M994.923499,3606.40791 C676.499252,3639.83732 502.6788,3798.00059 445.804951,3971.41236 C426.824786,4029.23406 420.866827,4088.74855 426.878101,4145.90379 C429.263951,4168.69658 433.049321,4189.95651 437.887663,4210.04349 C446.444732,4205.73818 586.263499,4134.21416 606.070047,4123.87077 C626.889581,4112.98088 712.260334,4067.76853 734.066197,4056.02558 C734.332773,4055.95893 734.599348,4055.81231 734.892581,4055.66569 C749.567553,4013.21246 787.901088,3971.2924 847.147458,3939.62242 C893.771485,3914.69698 953.324416,3896.10287 1024.56668,3888.62523 C1028.61862,3888.15872 1032.32402,3888.07874 1036.29599,3887.70553 C1064.15312,3871.71059 1189.8967,3797.60072 1214.04843,3783.13863 C1226.04432,3775.94091 1373.43383,3685.83609 1403.98336,3666.60218 C1292.23498,3611.88617 1153.65579,3589.74651 994.923499,3606.40791" id="Fill-105" fill="#77B12B"></path>
            <path d="M4769.54904,440.93662 L4400.5288,479.724342 L4473.63708,1175.01091 C4474.21022,1174.51773 4474.77003,1174.10453 4475.42314,1173.62468 C4481.43441,1169.15943 4516.67567,1143.02104 4554.75596,1114.88328 C4600.59359,1081.00067 4650.54981,1044.21232 4658.69369,1038.76071 C4705.21108,1007.3973 4795.90002,946.883127 4817.37266,933.034177 C4818.81217,932.101139 4819.94511,931.381367 4820.73151,930.88819 C4820.85147,930.794886 4820.9581,930.74157 4821.03807,930.701582 L4769.54904,440.93662 Z" id="Fill-107" fill="#77B12B"></path>
        </g>
    </g>
</svg>