<?xml version="1.0" encoding="UTF-8" standalone="no"?>
<svg width="2623px" height="727px" viewBox="0 0 2623 727" version="1.1" xmlns="http://www.w3.org/2000/svg" xmlns:xlink="http://www.w3.org/1999/xlink">
    <!-- Generator: Sketch 3.8.3 (29802) - http://www.bohemiancoding.com/sketch -->
    <title>wanimo</title>
    <desc>Created with Sketch.</desc>
    <defs></defs>
    <g id="Page-1" stroke="none" stroke-width="1" fill="none" fill-rule="evenodd">
        <g id="wanimo">
            <g id="Group-3" transform="translate(0.000000, 0.604481)" fill="#BDD043">
                <path d="M67.4742054,358.378502 C67.0776523,384.643894 69.2151014,410.785578 73.1834444,436.671413 C79.8292236,480.047828 91.21114,522.038155 118.556426,557.556321 C145.423599,592.450325 180.5312,608.540759 225.338883,602.855828 C259.169639,598.559798 284.262167,580.883655 305.757592,556.009975 C317.015762,542.981305 319.909755,543.237155 330.335444,556.58634 C343.663564,573.652378 359.461001,586.860986 381.400791,591.339767 C419.54582,599.13054 455.401528,593.350017 487.179209,570.801478 C544.339097,530.245036 563.705511,473.938355 552.379843,406.045325 C548.428375,382.369359 542.148212,359.292252 526.623582,340.134428 C513.509206,323.94559 497.768019,323.341109 476.885704,337.480336 C459.234874,349.437809 456.965241,359.505928 467.618737,379.167017 C470.515543,384.514563 473.896087,389.614694 476.61571,395.046586 C495.681194,433.137309 496.429301,470.775375 471.696765,506.65904 C453.345639,533.281498 417.307123,542.669225 389.224979,529.528094 C362.745922,517.134832 353.644889,493.267682 360.934716,458.843205 C367.842051,426.209678 372.086012,393.182536 364.866497,360.026063 C361.857194,346.198917 354.750175,334.696913 338.890866,332.110298 C322.581567,329.450582 310.631539,336.276998 301.907371,349.527778 C296.72687,357.394463 293.27039,366.115855 290.899509,375.228052 C282.408773,407.841898 279.832585,441.459463 285.921502,474.078932 C290.40452,498.100717 267.156949,530.956355 246.727436,539.405028 C219.978385,550.468432 194.590553,543.796652 176.742853,520.368102 C169.903016,511.388048 164.314711,501.713544 159.845755,491.316475 C142.366484,450.639136 137.779406,407.496078 135.087907,363.959405 C133.752002,342.349921 135.476023,321.024402 139.261558,299.687636 C142.729288,280.12214 138.085961,268.679178 124.996898,266.174098 C98.849708,261.169559 79.5648549,266.008217 72.9050135,294.210759 C67.9354444,315.263559 67.3560832,336.825248 67.4742054,358.378502 M306.747569,723.403352 C151.940006,723.406163 24.9895923,614.332528 3.27760943,464.573121 C-6.72621479,395.586402 6.24472626,330.41494 41.1245205,269.952805 C45.6778495,262.060817 46.7015751,255.178171 44.7947456,246.338694 C32.7715944,190.599944 20.9312514,134.813398 9.92620107,78.8665938 C6.13222894,59.5822515 5.19850118,39.6737477 10.8486791,20.4147092 C16.2148013,2.13689769 28.527633,-3.58177154 46.7550114,2.60923615 C60.8678002,7.40009769 72.3762761,16.3998323 82.6219696,26.6788169 C116.672096,60.8446323 150.466291,95.2719208 183.920182,130.016913 C190.17222,136.508755 195.034917,138.724248 204.293447,135.569702 C279.796023,109.855371 354.336748,113.164552 427.178763,145.702486 C435.565438,149.450267 439.539406,147.08014 445.133335,141.771955 C471.603955,116.639613 496.929914,90.2701938 525.037369,66.8866285 C531.182535,61.7752515 537.932375,57.5213938 545.624379,55.0809785 C561.835243,49.9386746 572.151247,56.9000438 573.596838,74.0335592 C575.27586,93.9167592 571.850317,113.170175 566.281699,132.181798 C558.134081,159.999159 550.60801,188.010517 541.89228,215.650752 C538.764855,225.558613 539.625459,232.913598 546.023744,241.356648 C585.805609,293.853694 605.779509,353.818186 605.875131,419.15834 C606.094501,567.854986 503.913185,686.991117 367.465185,717.122375 C346.388812,721.775471 325.014321,724.373332 306.747569,723.403352" id="Fill-1"></path>
            </g>
            <path d="M1136.255,441.166501 C1136.32812,514.401455 1084.1378,567.466432 1019.85121,565.785132 C998.06329,565.217201 979.982158,556.850062 965.925618,539.933035 C954.605575,526.30832 954.017777,526.395478 943.170223,539.353858 C898.129108,593.152647 826.324881,587.571743 790.353862,527.638178 C770.574021,494.684135 762.977639,458.17912 759.543659,420.706935 C757.330274,396.544574 755.862184,372.261316 758.846175,347.882466 C761.48705,326.298285 769.328113,316.29202 787.676426,314.304262 C805.400379,312.383982 814.093609,319.412828 812.147406,337.263285 C809.292786,363.489316 808.83436,389.504482 812.358338,415.603993 C816.889168,449.159705 822.843089,482.318989 843.902587,510.310666 C857.911316,528.928674 875.396212,534.082224 895.780726,526.347682 C915.434008,518.885858 929.816791,498.417858 927.912773,478.53747 C925.361897,451.861593 924.034428,425.343162 930.4749,399.032785 C931.692683,394.061985 933.141086,389.077128 935.157601,384.387482 C942.129622,368.170528 952.951865,361.226028 967.683389,363.669255 C983.143333,366.236189 986.869807,378.57322 989.37006,391.306678 C993.119033,410.40827 990.326287,429.518297 988.512268,448.580528 C988.025717,453.689093 986.996366,458.761108 986.003577,463.805008 C981.551496,486.460385 987.342295,502.649224 1003.55035,512.576766 C1020.55994,522.996328 1045.63559,521.205378 1061.46959,507.875874 C1085.37809,487.750882 1089.23112,461.39552 1083.55,432.585685 C1081.06944,420.012485 1074.11148,409.283655 1067.76663,398.327089 C1059.19433,383.524339 1061.51178,373.737374 1075.09864,364.765755 C1090.6739,354.478335 1103.98795,355.198089 1113.4996,367.951228 C1131.06325,391.497862 1135.80782,418.949724 1136.255,441.166501" id="Fill-4" fill="#BDD043"></path>
            <path d="M2212.19878,513.849268 C2214.47122,503.651818 2210.24414,496.057853 2212.07784,487.991549 C2213.89749,479.995534 2200.62843,456.370176 2193.2261,456.544492 C2181.47857,456.822834 2175.68215,449.071422 2168.17014,443.285276 C2153.99266,432.370884 2139.16833,435.52543 2131.31602,451.576503 C2125.5899,463.278126 2124.60836,475.80353 2126.64457,488.463888 C2132.69692,526.135692 2156.78822,536.743626 2188.74027,515.738622 C2196.21572,510.824053 2203.3143,507.062215 2212.19878,513.849268 M2248.74353,480.822126 C2248.73509,511.611284 2267.12841,533.310738 2293.22497,533.29668 C2318.54812,533.279811 2337.7036,514.262565 2337.66141,489.172395 C2337.61642,461.11043 2316.0563,439.976095 2287.56917,440.068876 C2261.91697,440.153222 2248.74916,453.974745 2248.74353,480.822126 M2217.38209,523.256676 C2199.50627,551.313018 2163.73212,565.213265 2133.90345,556.455322 C2106.3838,548.372149 2089.42764,521.985861 2088.79484,487.701961 C2088.26048,458.931488 2096.1156,434.032503 2119.9116,416.176422 C2149.00903,394.342015 2186.3722,401.072838 2205.53331,431.836692 C2209.88133,438.817742 2212.34784,433.492688 2215.10965,431.746722 C2233.47483,420.146315 2253.02405,411.545818 2274.40698,407.300395 C2322.35897,397.777715 2366.98384,428.094534 2373.72805,474.805434 C2380.35696,520.72348 2343.32284,564.083026 2296.19771,566.259157 C2261.23355,567.875792 2234.73199,554.326988 2217.38209,523.256676" id="Fill-6" fill="#8B8D8A"></path>
            <path d="M1604.66037,453.174019 C1615.9776,428.168196 1630.64725,411.613858 1657.62411,420.518 C1681.65635,428.44935 1686.0325,451.959435 1694.54573,473.883812 C1700.22122,464.223365 1704.47925,455.5329 1710.03099,447.770242 C1730.618,418.985712 1762.45193,421.381142 1777.2622,453.286481 C1793.0737,487.353892 1797.39359,524.162554 1799.82916,561.148342 C1800.64195,573.499431 1792.01622,576.825481 1781.52585,577.438396 C1770.56017,578.082238 1764.03814,574.747754 1762.80911,562.227973 C1760.11761,534.818285 1757.74954,507.259585 1749.24193,480.78895 C1747.25635,474.614812 1745.70389,466.517581 1738.36063,465.969331 C1730.83456,465.407023 1728.30899,473.349619 1725.67093,479.265096 C1717.0227,498.653465 1712.82936,519.287346 1709.55287,540.092731 C1707.72198,551.715631 1701.29838,557.240304 1689.7421,557.774496 C1679.2686,558.260892 1672.88437,554.943277 1671.95346,543.230408 C1670.02132,518.921846 1666.26953,494.900062 1656.67632,472.202512 C1653.24515,464.088412 1650.66615,453.126223 1640.52171,453.098108 C1629.74446,453.067181 1628.18919,464.875642 1625.83237,472.860412 C1619.04597,495.861608 1616.84102,519.588181 1618.52286,543.531242 C1619.67314,559.897208 1612.21457,568.444285 1595.96995,568.627035 C1586.40487,568.733873 1580.86719,564.876442 1580.63376,554.718354 C1579.83784,519.925565 1573.33831,485.928442 1565.50006,452.198415 C1563.33448,442.878165 1566.20879,436.726519 1573.34393,431.705112 C1587.89546,421.462677 1597.23274,424.889942 1601.8395,442.051573 C1602.5173,444.576335 1603.1276,447.120777 1604.66037,453.174019" id="Fill-8" fill="#BDD043"></path>
            <path d="M2428.39782,450.623673 C2436.30356,431.749815 2447.22705,417.666819 2468.86029,418.172896 C2487.37454,418.608684 2493.51689,425.758427 2517.62506,473.026011 C2523.49743,464.119057 2526.7486,454.486727 2532.92751,446.552565 C2553.96451,419.519623 2583.34881,421.692942 2598.78626,451.9704 C2612.87092,479.596577 2616.08834,510.003365 2620.59386,540.044653 C2621.28572,544.664011 2621.63165,549.333977 2622.20539,553.975827 C2624.06722,569.04005 2619.03577,576.037969 2605.34766,577.370638 C2590.30396,578.832638 2586.04031,574.733415 2584.50191,558.44055 C2581.99884,531.913684 2579.33828,505.395253 2571.07817,479.835557 C2569.17415,473.945384 2567.17451,466.660688 2560.75935,466.047773 C2553.19391,465.328019 2550.53334,473.020388 2547.90372,479.00053 C2539.17111,498.86405 2535.02278,520.015253 2531.39755,541.200196 C2529.00698,555.179165 2520.01282,558.052557 2508.06842,557.740477 C2495.79777,557.419961 2494.84998,549.3396 2493.93032,539.521707 C2491.61568,514.802661 2487.50109,490.314161 2477.00228,467.495715 C2473.94517,460.849238 2470.82055,452.304973 2461.81233,453.021915 C2453.70128,453.665757 2451.71007,461.942927 2449.39263,468.491 C2440.31972,494.123796 2439.80223,520.802484 2440.62909,547.517723 C2441.02845,560.459234 2434.44736,566.459057 2422.69139,568.241573 C2411.21385,569.979103 2403.64559,566.762703 2402.95655,553.393838 C2401.19596,519.2224 2395.41079,485.647007 2387.88191,452.285292 C2384.5998,437.746827 2398.02073,424.400453 2412.6735,426.157665 C2418.05369,426.801507 2420.45832,430.15005 2422.3764,434.9381 C2424.2551,439.6165 2422.44389,445.44763 2428.39782,450.623673" id="Fill-10" fill="#8B8D8A"></path>
            <path d="M1169.62058,504.500341 C1170.74836,514.343537 1176.01324,519.159702 1185.76676,517.278783 C1196.12495,515.279779 1204.68599,509.625775 1212.45675,502.560379 C1226.5161,489.779125 1236.65773,474.10761 1246.15532,457.918772 C1248.97619,453.108229 1251.07145,447.622918 1256.78632,445.337137 C1265.81141,441.721498 1261.89651,437.352368 1257.64129,432.904514 C1252.44954,427.475433 1245.66595,426.508264 1239.46173,429.122995 C1206.90219,442.840491 1183.68837,466.032872 1170.71462,499.104998 C1170.04526,500.808791 1169.96088,502.745941 1169.62058,504.500341 M1295.66258,552.498925 C1277.91894,552.661995 1265.58079,542.689468 1258.34159,522.336741 C1252.05018,504.646541 1252.11768,504.708395 1238.573,518.580525 C1222.53369,535.008345 1204.07288,546.946137 1180.755,550.432445 C1148.67077,555.226118 1127.82782,533.993379 1133.703,502.079606 C1142.15155,456.212168 1200.7739,400.653356 1247.61497,395.56166 C1268.31167,393.312429 1286.74716,399.953283 1298.49188,418.526306 C1308.07384,433.68331 1304.18706,446.14686 1288.20682,453.839229 C1285.09908,455.334968 1281.9379,456.245906 1281.94915,460.249537 C1281.99134,476.635183 1281.92665,493.105175 1290.63113,507.874187 C1296.90848,518.527106 1306.90668,517.818598 1316.6827,514.976133 C1324.43377,512.724091 1331.76859,510.924706 1336.23755,519.415552 C1340.91462,528.300014 1335.07601,534.665337 1328.97866,539.979145 C1319.52888,548.216952 1308.44508,552.791325 1295.66258,552.498925" id="Fill-12" fill="#BDD043"></path>
            <path d="M1852.33672,480.726534 C1852.3086,511.431345 1870.72722,533.156103 1896.94472,533.338853 C1921.29196,533.507545 1942.53426,512.983315 1942.52864,489.293292 C1942.52583,462.226611 1919.64106,440.144788 1891.49423,440.046384 C1866.36795,439.959226 1852.36204,454.511749 1852.33672,480.726534 M1816.12946,489.355145 C1817.67911,481.179192 1816.69757,472.817676 1806.26345,466.317399 C1797.46053,460.837711 1797.49147,447.932749 1806.71062,440.993872 C1838.87361,416.789338 1873.83777,399.256584 1915.77959,408.22258 C1954.69522,416.541922 1982.30769,454.208103 1978.54747,491.48348 C1974.461,532.003372 1938.95685,565.151411 1898.55062,566.177622 C1849.13055,567.431568 1815.70478,537.128807 1816.12946,489.355145" id="Fill-14" fill="#BDD043"></path>
            <path d="M1378.77841,434.215534 C1383.28955,425.488519 1386.52947,417.711803 1391.05187,410.767303 C1405.27997,388.907592 1430.90123,387.906684 1447.35396,408.588361 C1461.06176,425.817469 1467.16474,446.636911 1472.74461,467.372007 C1478.07979,487.196165 1482.04532,507.394257 1486.48897,527.454584 C1488.17362,535.059796 1488.41267,542.622834 1481.28878,547.883223 C1473.97083,553.287 1465.45197,553.391027 1457.06811,551.473557 C1451.60636,550.225234 1451.26606,545.001396 1450.24233,540.334242 C1444.64278,514.808284 1440.12039,489.018042 1431.91933,464.116246 C1431.04185,461.45653 1430.30218,458.718092 1429.10409,456.201765 C1425.05981,447.710919 1424.07264,433.982177 1412.45729,434.90155 C1401.62943,435.76188 1400.29633,449.06608 1397.62171,458.169842 C1391.42311,479.259192 1387.89069,500.916473 1385.49731,522.793053 C1383.5483,540.615396 1377.4425,547.32935 1363.2594,548.144696 C1353.59588,548.70138 1347.16666,545.513096 1346.71667,534.140423 C1345.12202,493.98603 1342.39678,453.915984 1336.81128,414.076484 C1335.24195,402.872503 1343.533,394.927096 1357.74141,392.863427 C1368.69865,391.272096 1370.61954,398.478069 1373.00167,406.808657 C1375.44286,415.333242 1373.01573,424.715346 1378.77841,434.215534" id="Fill-16" fill="#BDD043"></path>
            <path d="M1542.64566,531.321293 C1543.18002,543.919797 1542.92691,554.994447 1529.38785,558.683185 C1511.35453,563.592132 1504.36001,557.901578 1504.84375,542.013574 C1505.97997,504.676343 1501.5757,467.485312 1498.80546,430.263355 C1497.64111,414.608708 1506.80683,406.902282 1522.10084,409.266785 C1530.43689,410.55447 1534.79897,414.600274 1535.8452,423.878351 C1539.93448,460.076908 1540.24384,496.480708 1542.64566,531.321293" id="Fill-18" fill="#BDD043"></path>
            <path d="M1593.32627,696.254293 C1600.96765,677.270785 1607.59937,661.475562 1613.62922,645.455416 C1615.83979,639.584923 1618.16005,635.252343 1625.40207,636.568143 C1633.64812,638.069504 1630.2057,644.609143 1630.30414,648.95297 C1630.7035,666.27767 1630.52913,683.613616 1630.41101,700.943939 C1630.38851,704.39932 1631.58098,709.302643 1625.73393,709.181747 C1619.85595,709.058039 1621.41685,704.03382 1621.37466,700.693712 C1621.19185,686.295823 1621.29591,671.897935 1620.06688,657.280747 C1610.70148,669.437839 1607.73717,684.173112 1601.3417,697.317054 C1599.24925,701.615897 1600.05361,708.973693 1593.35439,709.111458 C1585.67926,709.271716 1586.51456,701.227904 1584.50367,696.580431 C1578.85068,683.526458 1574.00485,670.123854 1568.84123,656.856204 C1567.61501,657.08675 1566.38597,657.317297 1565.15975,657.545031 C1565.15975,671.703939 1565.26662,685.860035 1565.081,700.016131 C1565.036,703.406847 1566.68128,708.647554 1561.26734,709.069285 C1554.3572,709.611912 1556.29496,703.561481 1556.24996,699.875554 C1556.03903,682.078516 1556.04747,664.275854 1556.23871,646.476004 C1556.2809,642.708543 1554.41626,637.510008 1560.93829,636.590635 C1566.6644,635.783723 1570.54556,637.192304 1572.80676,643.391747 C1578.86755,660.01075 1585.56395,676.40202 1593.32627,696.254293" id="Fill-20" fill="#BDD043"></path>
            <path d="M1478.1352,677.429918 C1486.31657,679.02406 1493.00734,679.319272 1500.40404,677.466468 C1497.07131,667.789153 1494.99292,658.094968 1488.71838,649.19926 C1485.14659,658.733187 1481.9348,667.299945 1478.1352,677.429918 M1412.73488,672.177964 C1412.74332,662.823976 1412.67863,653.472799 1412.77707,644.121622 C1412.81082,640.961453 1412.33833,637.078718 1417.07728,636.780695 C1422.92151,636.415195 1422.2859,640.924903 1422.30559,644.543353 C1422.38996,659.973076 1422.70214,675.414045 1422.20716,690.82971 C1421.95685,698.66828 1424.38117,701.640076 1432.47816,701.316749 C1439.83267,701.024349 1447.42062,699.719795 1454.6767,702.46948 C1460.76561,704.777753 1460.48437,699.073141 1461.61497,696.36563 C1468.62918,679.558253 1475.10902,662.528764 1482.06698,645.698895 C1483.54351,642.12543 1483.79381,636.84536 1489.45524,636.685103 C1495.35291,636.519222 1495.3501,641.88926 1496.82382,645.485218 C1504.08833,663.206345 1511.30222,680.952776 1518.09425,698.859464 C1519.25578,701.92123 1524.6669,706.661483 1517.98456,709.04848 C1512.49188,711.010933 1510.84942,705.309133 1509.92975,701.530426 C1507.18763,690.29833 1501.12403,686.401537 1489.1065,686.561795 C1478.02551,686.707995 1471.47817,689.393014 1469.00042,700.31303 C1467.45077,707.14788 1463.93241,710.007214 1456.07729,709.335257 C1444.96536,708.382145 1433.66782,709.093464 1422.47996,709.678264 C1415.29701,710.05501 1412.25396,707.693318 1412.61676,700.225872 C1413.06956,690.897187 1412.72644,681.529141 1412.73488,672.177964" id="Fill-22" fill="#BDD043"></path>
            <path d="M2569.25205,651.49207 C2569.25205,670.38842 2569.33361,685.548235 2569.19018,700.705239 C2569.15643,704.138128 2570.40796,709.156724 2564.67623,709.142666 C2558.92761,709.128608 2560.23539,704.081897 2560.21008,700.674312 C2560.06665,682.402124 2560.06102,664.124312 2560.21008,645.852124 C2560.23821,642.441728 2558.73074,637.909528 2564.1053,636.683697 C2568.97644,635.573139 2571.81981,638.11477 2574.37631,642.045301 C2584.07639,656.960512 2594.01271,671.721089 2603.90967,686.50697 C2605.10214,688.286674 2606.58991,689.86957 2610.24327,694.398958 C2610.24327,675.795008 2610.1617,660.635193 2610.30514,645.478189 C2610.33608,642.053735 2608.9608,637.057632 2614.65316,636.880505 C2620.60708,636.692132 2619.13337,641.856928 2619.16712,645.194224 C2619.33305,662.999697 2619.3893,680.807982 2619.13618,698.610643 C2619.08274,702.341555 2621.46206,707.627247 2615.53345,709.291678 C2610.05202,710.826778 2606.98084,707.346093 2604.24153,703.109105 C2594.83394,688.556582 2585.26042,674.110897 2575.70096,659.656778 C2574.52255,657.871451 2573.05446,656.28012 2569.25205,651.49207" id="Fill-24" fill="#8B8D8A"></path>
            <g id="Group-28" transform="translate(1771.020364, 636.012173)" fill="#BDD043">
                <path d="M59.9272437,36.5329781 C59.8175588,18.3310781 51.5715053,8.93491654 35.6812587,8.90398962 C19.2454002,8.87306269 10.5915438,18.7893588 10.7462277,37.4748435 C10.898099,55.4377627 19.2707121,64.8957781 35.20877,65.1010204 C51.686815,65.3118858 60.0425535,55.6542512 59.9272437,36.5329781 M63.7521526,88.7966665 C58.7488343,91.133055 53.6105192,91.8893588 51.4280712,88.3693127 C43.7613788,76.0041665 31.1504292,74.0895088 18.8825964,69.9087512 C4.42387824,64.9829358 -2.27252476,45.2037627 2.10924587,26.5970012 C6.43476785,8.24608962 18.3707335,-0.466868077 37.9312051,0.458128077 C54.9379876,1.26222808 66.6039597,11.5721396 69.1238997,28.961505 C71.2275996,43.471855 69.7988836,58.0300012 56.7154452,66.7823204 C48.2668965,72.4363242 49.777173,75.3828165 55.8689029,80.5138742 C58.6307121,82.8418281 60.8975331,85.760205 63.7521526,88.7966665" id="Fill-26"></path>
            </g>
            <path d="M2024.25822,672.341596 C2024.25822,679.328269 2024.24979,686.314942 2024.26103,693.298803 C2024.26666,697.156234 2024.30322,700.867465 2029.74809,701.04178 C2041.22001,701.410092 2052.74536,700.904015 2059.93112,690.484453 C2067.44032,679.598177 2067.23501,667.084019 2060.82829,656.110584 C2054.07845,644.549538 2041.355,643.323707 2029.76778,645.390188 C2018.53492,647.392003 2026.32817,657.718784 2024.37072,663.999761 C2023.57761,666.547015 2024.24135,669.546927 2024.25822,672.341596 M2014.52158,672.839238 C2014.52158,670.030511 2014.08846,667.14025 2014.60033,664.427115 C2016.33279,655.2615 2009.28202,643.663903 2018.63336,637.146757 C2027.66689,630.854534 2057.17775,637.416665 2065.02163,645.989046 C2075.41357,657.342038 2076.78322,670.935827 2072.87113,685.389946 C2069.1334,699.200223 2059.47551,706.437123 2046.02927,708.950638 C2017.37901,714.303807 2014.52158,711.812784 2014.52158,682.671188 L2014.52158,672.839238" id="Fill-29" fill="#8B8D8A"></path>
            <path d="M2536.83933,673.487017 C2536.95745,654.222355 2528.76202,644.733413 2512.19398,644.941467 C2496.23061,645.141086 2487.89174,654.548493 2487.74268,672.528282 C2487.58519,691.23907 2496.19967,701.135686 2512.61303,701.093513 C2528.50609,701.054151 2536.72964,691.686105 2536.83933,673.487017 M2546.75315,672.924709 C2546.78971,695.793763 2533.56847,709.724936 2511.95773,709.589982 C2490.29356,709.452217 2477.51949,695.535101 2477.81198,672.384893 C2478.09604,649.903832 2490.61418,636.678355 2511.82555,636.444997 C2533.49816,636.206017 2546.71659,650.013482 2546.75315,672.924709" id="Fill-31" fill="#8B8D8A"></path>
            <path d="M1723.20077,656.38499 C1723.65638,665.381913 1720.38271,674.302925 1733.28053,673.147383 C1742.71343,672.303921 1751.48541,671.536371 1751.89602,659.28931 C1752.31507,646.88199 1743.75965,645.740506 1734.18332,644.745221 C1722.41329,643.525013 1722.5736,650.514498 1723.20077,656.38499 M1765.42945,708.221325 C1757.19183,711.187498 1754.32596,707.158563 1751.54447,702.429556 C1748.23705,696.803667 1744.44026,691.467367 1741.07659,685.869594 C1737.68761,680.226837 1732.27649,681.008444 1727.35473,681.801298 C1721.09707,682.807829 1724.24418,688.416848 1723.24858,692.040921 C1721.67362,697.75959 1727.09318,708.406887 1719.04962,708.508102 C1708.6633,708.637433 1714.30504,697.579652 1713.95911,691.762579 C1713.03945,676.411579 1713.81287,660.967798 1713.57943,645.56619 C1713.48381,639.31614 1715.12065,635.84389 1722.21642,636.380894 C1728.71595,636.875725 1735.33923,636.08006 1741.79376,636.827929 C1750.00607,637.783852 1757.22277,641.059294 1760.04927,649.834106 C1762.82795,658.44866 1762.48765,667.493379 1755.16969,672.975879 C1747.0052,679.090975 1749.18202,683.732825 1753.87035,690.06441 C1758.00181,695.642502 1761.37673,701.78009 1765.42945,708.221325" id="Fill-33" fill="#BDD043"></path>
            <path d="M1856.56437,665.630735 C1856.55875,658.621569 1856.46875,651.606781 1856.59531,644.600427 C1856.65718,640.9876 1855.98782,636.368242 1861.81237,636.832146 C1866.5232,637.208892 1865.80322,641.291246 1865.83696,644.383938 C1865.9579,656.065881 1865.73009,667.753446 1865.94946,679.435388 C1866.23914,694.710477 1872.10588,701.101104 1885.35525,701.11235 C1898.554,701.123596 1904.4123,694.668304 1904.65698,679.398838 C1904.8426,667.716896 1904.64854,656.029331 1904.75823,644.347388 C1904.78635,641.223769 1904.16199,637.228573 1908.8475,636.812465 C1914.63549,636.300765 1914.20238,640.796415 1914.19956,644.471096 C1914.19113,658.022712 1914.68893,671.619312 1913.78614,685.114696 C1912.70054,701.33165 1901.50143,709.965885 1883.89841,709.566646 C1867.42599,709.192712 1857.58529,700.046777 1856.62906,683.855127 C1856.27188,677.799073 1856.57,671.706469 1856.56437,665.630735" id="Fill-35" fill="#BDD043"></path>
            <path d="M2276.07785,672.701473 L2276.07785,667.095265 C2276.07785,634.056877 2279.2559,631.388727 2312.21761,636.418569 C2315.06661,636.854357 2318.14622,636.747519 2318.25028,640.548719 C2318.35434,644.313369 2315.48847,644.872865 2312.49042,644.886923 C2306.88243,644.915038 2301.22944,645.37613 2295.67488,644.825069 C2287.28258,643.995665 2285.73856,647.954311 2285.55575,655.447061 C2285.34482,664.190946 2287.39789,668.020261 2297.08672,667.70818 C2303.27689,667.508561 2314.87255,663.648319 2315.01036,671.256342 C2315.17348,680.197034 2303.72969,675.631096 2297.84889,675.459592 C2287.64257,675.167192 2285.42919,678.971203 2285.48825,688.409538 C2285.5445,697.628573 2287.29102,701.902111 2297.71108,701.449453 C2304.4103,701.159865 2317.30249,697.5864 2317.04937,704.691157 C2316.69219,714.804261 2304.33718,708.981565 2297.54234,709.26553 C2276.10316,710.153977 2276.07785,709.591669 2276.07785,688.122761 L2276.07785,672.701473" id="Fill-37" fill="#8B8D8A"></path>
            <path d="M1930.20371,672.618251 L1930.20371,667.012043 C1930.20371,634.285736 1933.82894,631.254897 1966.39129,636.433751 C1969.27122,636.892032 1972.27771,636.903278 1972.2749,640.684797 C1972.2749,644.483186 1969.30778,644.851497 1966.36035,644.871178 C1962.15576,644.896482 1957.94836,645.000509 1953.74659,644.882424 C1946.1474,644.668747 1939.5888,643.513205 1939.38068,655.574705 C1939.16412,667.97359 1945.44991,667.391601 1954.00252,667.639017 C1959.35177,667.796463 1969.11654,663.666313 1969.32184,671.350247 C1969.55528,680.001351 1959.7427,675.30327 1954.57344,675.592859 C1940.79534,676.368843 1935.42921,683.712582 1940.0641,696.864959 C1942.62342,704.135597 1948.72921,699.932347 1953.1616,701.118817 C1959.43052,702.800117 1971.36367,697.54254 1971.20899,704.734455 C1970.99243,714.948774 1959.27865,709.024863 1952.95911,709.249786 C1930.22059,710.067943 1930.20371,709.573113 1930.20371,686.630959 L1930.20371,672.618251" id="Fill-39" fill="#BDD043"></path>
            <path d="M2127.32349,648.723267 C2123.55764,658.912282 2120.23897,667.895148 2116.57437,677.805821 L2138.96415,677.805821 C2135.63985,667.583067 2132.98491,658.251571 2127.32349,648.723267 M2158.93523,704.074025 C2159.89709,710.225671 2156.11155,710.270655 2153.136,708.749613 C2151.00417,707.658736 2149.65983,704.608217 2148.46173,702.184671 C2141.3969,687.87394 2132.48149,683.763471 2116.92592,687.114825 C2108.96392,688.832675 2110.34764,696.42664 2107.27084,701.150025 C2104.84933,704.866878 2104.34872,711.859175 2098.21762,708.831148 C2092.91337,706.210794 2098.29637,701.597059 2099.5479,698.315994 C2106.53398,679.984763 2113.90256,661.799732 2121.28238,643.620325 C2123.55483,638.025363 2128.53846,631.502594 2132.55461,639.878167 C2142.62875,660.897228 2150.45012,682.995921 2158.93523,704.074025" id="Fill-41" fill="#8B8D8A"></path>
            <path d="M1683.81321,677.678177 C1680.15986,668.318565 1677.02681,660.193219 1673.78407,652.110046 C1673.38189,651.109138 1672.79409,649.557169 1671.06445,650.611496 C1660.26752,679.741846 1660.26752,679.741846 1683.81321,677.678177 M1703.57617,705.428062 C1703.71398,710.126142 1700.17875,710.159881 1697.94568,708.964977 C1695.78573,707.806623 1694.27546,704.981027 1693.06049,702.594031 C1685.42754,687.600096 1678.08709,684.051935 1661.82279,687.060281 C1653.22518,688.6488 1654.59484,696.866927 1651.31836,701.930508 C1649.11622,705.335281 1648.51998,711.380088 1643.06668,708.981846 C1636.76683,706.212481 1642.67294,701.795554 1643.80072,698.784396 C1650.67993,680.422238 1658.07101,662.248454 1665.50427,644.097162 C1666.81767,640.897631 1667.38016,636.506008 1672.55504,636.612846 C1676.90025,636.702815 1677.54992,640.121646 1678.74801,643.118746 C1686.54689,662.636446 1694.35421,682.154146 1702.15589,701.671846 C1702.67338,702.965154 1703.14306,704.278142 1703.57617,705.428062" id="Fill-43" fill="#BDD043"></path>
            <path d="M2363.24696,709.536844 C2349.42104,709.848925 2338.24443,704.996209 2332.70394,691.720125 C2326.37315,676.549063 2326.41253,661.304902 2337.27133,648.042875 C2347.31734,635.778944 2361.22201,634.651517 2375.6976,637.626125 C2379.03596,638.31214 2384.57083,638.655148 2383.75241,643.507863 C2382.72306,649.608902 2377.66068,647.162863 2373.55453,646.386878 C2350.16352,641.958705 2336.18292,654.97894 2339.04879,678.365317 C2341.03999,694.610386 2352.45847,702.71324 2370.05867,701.147213 C2374.13389,700.784525 2381.1256,694.475432 2382.19995,702.865063 C2383.01836,709.261313 2374.94106,708.386925 2370.24148,709.449686 C2368.01685,709.952952 2365.58409,709.536844 2363.24696,709.536844" id="Fill-45" fill="#8B8D8A"></path>
            <path d="M2037.34954,546.826928 C2021.76022,546.88597 2010.59205,537.889047 2010.6933,526.446085 C2010.78048,516.206462 2019.15872,509.593724 2032.05372,509.590912 C2046.03152,509.588101 2056.62314,518.74247 2056.21815,530.958605 C2055.78785,543.99852 2046.54057,546.37427 2037.34954,546.826928" id="Fill-47" fill="#8B8D8A"></path>
            <path d="M1522.33708,369.761577 C1507.49587,369.621 1498.42015,362.153554 1498.35266,350.021766 C1498.29359,339.298558 1506.35403,332.7055 1519.37278,332.83202 C1533.01589,332.964162 1544.49062,343.037904 1543.50064,354.829497 C1542.42348,367.717589 1533.13683,370.073658 1522.33708,369.761577" id="Fill-49" fill="#BDD043"></path>
            <path d="M2222.64162,671.965131 L2222.64162,666.350488 C2222.64162,635.597881 2229.3099,630.244712 2259.60824,636.424473 C2262.64004,637.043012 2265.16842,637.563146 2264.74093,641.355912 C2264.39782,644.383938 2262.02412,644.808481 2259.61668,644.853465 C2254.9396,644.943435 2250.1894,645.427019 2245.59108,644.822538 C2235.36507,643.475812 2232.04077,646.931192 2231.91421,657.733123 C2231.77922,669.164838 2236.31567,670.730865 2245.95388,670.508754 C2251.41844,670.382235 2261.726,666.156492 2261.72319,674.956608 C2261.72038,682.058554 2251.46906,678.912442 2246.29418,678.338888 C2233.59886,676.930308 2231.42766,682.713642 2232.02671,693.625223 C2232.30514,698.702862 2236.41973,708.607912 2227.94306,708.650085 C2218.39204,708.695069 2223.56691,698.565096 2222.85255,692.992627 C2221.96945,686.087488 2222.64162,678.982731 2222.64162,671.965131" id="Fill-51" fill="#8B8D8A"></path>
            <path d="M2169.2054,672.329225 L2169.2054,668.11754 C2169.2054,634.27224 2169.2054,634.25256 2202.98553,636.476487 C2206.38013,636.698598 2211.5972,635.098833 2211.22877,640.991817 C2210.87159,646.654256 2205.68546,644.52311 2202.32742,644.866117 C2199.54873,645.150083 2196.71661,644.919537 2193.90981,644.927971 C2179.79139,644.972956 2174.74589,652.34481 2179.01797,665.826137 C2180.4045,670.203702 2183.30412,670.074371 2186.52998,670.136225 C2191.20706,670.226194 2195.8982,669.992837 2200.56684,670.245875 C2203.95863,670.428625 2209.21225,668.837294 2208.99851,674.592513 C2208.79601,680.167794 2203.59301,678.270006 2200.20122,678.615825 C2197.88377,678.851994 2195.47071,678.98976 2193.19545,678.610202 C2181.29886,676.625256 2177.77207,681.759125 2178.55673,693.266752 C2178.91391,698.482156 2183.366,708.896094 2173.48873,708.637433 C2165.35799,708.423756 2169.99569,698.74644 2169.39383,693.362344 C2168.6176,686.42909 2169.2054,679.346825 2169.2054,672.329225" id="Fill-53" fill="#8B8D8A"></path>
            <path d="M2411.07801,676.103434 C2411.0752,670.96113 2410.58865,665.765407 2411.17363,660.69058 C2412.48423,649.3404 2409.84898,642.466188 2396.38023,644.760403 C2393.205,645.30303 2387.90637,646.183042 2388.25793,640.216957 C2388.53355,635.558238 2392.90969,636.525407 2395.95556,636.497292 C2409.04462,636.382019 2422.13931,636.334223 2435.22556,636.528219 C2438.51892,636.576015 2443.63473,634.928453 2443.38443,641.046361 C2443.18193,645.94125 2438.6961,645.300219 2435.88929,644.782896 C2421.50651,642.125992 2419.97373,650.046096 2420.62903,661.483434 C2421.34901,674.062257 2420.95246,686.716992 2420.69091,699.332365 C2420.61497,703.026727 2422.84242,708.812873 2416.26695,709.17275 C2409.48617,709.541061 2411.29457,703.698684 2411.16519,699.936846 C2410.88958,692.002684 2411.08082,684.048842 2411.07801,676.103434" id="Fill-55" fill="#8B8D8A"></path>
            <path d="M2462.97527,672.705971 C2462.97527,682.051525 2463.08777,691.39989 2462.91621,700.742633 C2462.85153,704.167087 2464.25493,708.92421 2458.48663,709.261594 C2452.67333,709.60179 2453.33988,704.957129 2453.32019,701.389287 C2453.22176,682.698179 2453.20769,664.00426 2453.32863,645.315963 C2453.35113,641.869017 2452.18959,636.965694 2457.83696,636.825117 C2464.67117,636.656425 2462.78965,642.321675 2462.89652,646.072267 C2463.14402,654.945483 2462.97527,663.827133 2462.97527,672.705971" id="Fill-57" fill="#8B8D8A"></path>
            <path d="M2080.5606,654.083184 C2084.75675,649.115195 2078.76346,638.619722 2089.54632,636.691007 C2092.94937,636.083715 2095.05588,638.543811 2093.33186,641.844557 C2089.881,648.446049 2091.46722,658.533849 2082.44774,661.058611 C2078.79158,662.082011 2080.87559,657.032488 2080.5606,654.083184" id="Fill-59" fill="#8B8D8A"></path>
        </g>
    </g>
</svg>