<?xml version="1.0" encoding="UTF-8" standalone="no"?>
<svg width="2504px" height="880px" viewBox="0 0 2504 880" version="1.1" xmlns="http://www.w3.org/2000/svg" xmlns:xlink="http://www.w3.org/1999/xlink">
    <!-- Generator: Sketch 3.8.3 (29802) - http://www.bohemiancoding.com/sketch -->
    <title>wmi</title>
    <desc>Created with Sketch.</desc>
    <defs></defs>
    <g id="Page-1" stroke="none" stroke-width="1" fill="none" fill-rule="evenodd">
        <g id="wmi" transform="translate(0.000000, -1.000000)" fill="#549AC4">
            <path d="M1073.81384,160.452055 C1046.75628,160.452055 1024.81872,182.385671 1024.81872,209.438356 L1024.81872,500.086329 C1024.81872,531.15589 999.549483,556.420575 968.474327,556.420575 L951.436273,556.420575 C937.313429,556.420575 923.803024,551.166795 913.379312,541.638959 L671.919102,320.576027 C615.758444,269.164904 528.975834,266.727836 470.034702,314.893616 L189.978585,543.720877 C179.946834,551.913836 167.293844,556.420575 154.334634,556.420575 C123.259478,556.420575 97.9902439,531.15589 97.9902439,500.086329 L97.9902439,193.113671 C97.9902439,166.060986 76.052678,144.12737 48.995122,144.12737 C21.9375659,144.12737 0,166.060986 0,193.113671 L0,500.086329 C0,585.175534 69.2301073,654.393178 154.334634,654.393178 C189.8316,654.393178 224.520146,642.024137 251.994161,619.576164 L532.050278,390.761151 C553.559137,373.187315 585.246732,374.056822 605.75119,392.830822 L847.2114,613.906 C875.751059,640.015699 912.766873,654.393178 951.436273,654.393178 L968.474327,654.393178 C1053.57885,654.393178 1122.80896,585.175534 1122.80896,500.086329 L1122.80896,209.438356 C1122.80896,182.385671 1100.8714,160.452055 1073.81384,160.452055" id="Fill-1"></path>
            <path d="M2148.44712,176.782863 L2142.45747,176.782863 C2108.74882,176.782863 2075.44439,188.049712 2048.7053,208.51374 L1796.36818,401.446288 C1775.44726,417.403575 1746.68712,416.913712 1726.3419,400.197137 L1497.48568,211.942781 C1469.93818,189.27437 1435.11489,176.782863 1399.43419,176.782863 L1354.7139,176.782863 C1269.60937,176.782863 1200.37926,246.000507 1200.37926,331.089712 L1200.37926,605.413 C1200.37926,632.465685 1222.31683,654.399301 1249.37438,654.399301 C1276.43194,654.399301 1298.38176,632.465685 1298.38176,605.413 L1298.38176,331.089712 C1298.38176,300.020151 1323.65099,274.755466 1354.7139,274.755466 L1399.43419,274.755466 C1412.45465,274.755466 1425.16888,279.311192 1435.22513,287.589877 L1664.08135,475.844233 C1719.72756,521.634178 1798.6097,523.054781 1855.885,479.261027 L2108.24662,286.328479 C2117.99665,278.858068 2130.14744,274.755466 2142.45747,274.755466 L2148.44712,274.755466 C2179.51003,274.755466 2204.79151,300.020151 2204.79151,331.089712 L2204.79151,605.413 C2204.79151,632.465685 2226.72908,654.399301 2253.78663,654.399301 C2280.84419,654.399301 2302.78176,632.465685 2302.78176,605.413 L2302.78176,331.089712 C2302.78176,246.000507 2233.5394,176.782863 2148.44712,176.782863" id="Fill-3"></path>
            <path d="M2441.59229,654.399301 C2468.64984,654.399301 2490.58741,632.465685 2490.58741,605.413 L2490.58741,193.107548 C2490.58741,166.054863 2468.64984,144.121247 2441.59229,144.121247 C2414.53473,144.121247 2392.59716,166.054863 2392.59716,193.107548 L2392.59716,605.413 C2392.59716,632.465685 2414.53473,654.399301 2441.59229,654.399301" id="Fill-5"></path>
            <g id="Group-9" transform="translate(2392.512195, 0.836449)">
                <path d="M49.0800902,124.406701 C76.1376463,124.406701 98.0752122,102.473085 98.0752122,75.4204 L98.0752122,49.3964274 C98.0752122,22.3437425 76.1376463,0.410126027 49.0800902,0.410126027 C22.0225341,0.410126027 0.0849682927,22.3437425 0.0849682927,49.3964274 L0.0849682927,75.4204 C0.0849682927,102.473085 22.0225341,124.406701 49.0800902,124.406701" id="Fill-7"></path>
            </g>
            <g id="Group-12" transform="translate(8.000000, 743.630970)">
                <path d="M46.5511688,59.8556904 C28.3004859,52.7894164 20.2530371,46.7151151 20.2530371,34.346074 C20.2530371,25.3203479 27.1246029,14.5311151 45.1793054,14.5311151 C57.1463639,14.5311151 65.9777346,18.2663205 70.0933249,20.8136082 L74.8091054,6.87700548 C69.1134224,3.53369041 59.1061688,0.410813699 45.7672468,0.410813699 C20.0570566,0.410813699 2.98225659,15.7067863 2.98225659,36.305526 C2.98225659,54.7488685 16.3334273,66.1381836 37.9157785,73.9759918 C55.7745005,80.6503753 62.8420468,87.9125945 62.8420468,100.073444 C62.8420468,113.422211 52.6388127,122.643882 35.1720517,122.643882 C23.3887249,122.643882 12.4015688,118.908677 4.74608098,114.010047 L0.238529756,128.33854 C7.29382732,133.041225 21.2329395,136.960129 33.9961688,136.960129 C65.1938127,136.960129 80.1128273,119.116868 80.1128273,98.7018274 C80.1128273,79.2787589 68.917442,68.489526 46.5511688,59.8556904" id="Fill-10"></path>
            </g>
            <polygon id="Fill-13" points="96.5485624 760.706923 136.785806 760.706923 136.785806 878.433252 154.044338 878.433252 154.044338 760.706923 194.477562 760.706923 194.477562 746.182485 96.5485624 746.182485"></polygon>
            <path d="M243.743382,808.199142 L226.276621,808.199142 L226.276621,759.935389 C229.216329,759.139362 234.912012,758.551526 243.155441,758.551526 C261.210143,758.551526 273.569163,766.00969 273.569163,783.081416 C273.569163,798.19369 261.994065,808.199142 243.743382,808.199142 M265.925924,815.461362 L265.925924,814.861279 C279.656807,810.158595 290.643963,798.585581 290.643963,781.31791 C290.643963,770.908321 286.724353,761.894841 280.244748,755.991992 C272.1973,748.742019 260.230241,745.202759 241.967309,745.202759 C230.40446,745.202759 217.837212,746.390677 209.201821,747.958238 L209.201821,878.433252 L226.276621,878.433252 L226.276621,821.143773 L242.371519,821.143773 C257.866226,821.731608 265.129753,828.601937 269.061612,846.849334 C272.58926,863.333225 275.528968,874.514348 277.684753,878.433252 L295.347495,878.433252 C292.603768,873.32643 289.46808,860.577745 285.14426,842.134403 C282.008573,828.393745 275.920929,818.988375 265.925924,815.461362" id="Fill-15"></path>
            <path d="M340.68758,823.495115 L353.64679,785.236814 C356.390517,777.190814 358.350322,768.948868 360.310127,761.294759 L360.702088,761.294759 C362.661893,768.948868 364.633946,776.798923 367.573654,785.432759 L380.728844,823.495115 L340.68758,823.495115 Z M350.890815,746.194732 L305.754059,878.433252 L323.4168,878.433252 L337.147683,836.843882 L384.060512,836.843882 L398.183356,878.433252 L416.446288,878.433252 L371.309532,746.194732 L350.890815,746.194732 Z" id="Fill-17"></path>
            <polygon id="Fill-19" points="405.651438 760.706923 445.888681 760.706923 445.888681 878.433252 463.147213 878.433252 463.147213 760.706923 503.580438 760.706923 503.580438 746.182485 405.651438 746.182485"></polygon>
            <polygon id="Fill-21" points="535.369698 816.438638 586.594098 816.438638 586.594098 802.30609 535.369698 802.30609 535.369698 760.520775 589.729785 760.520775 589.729785 746.192282 518.098917 746.192282 518.098917 878.430803 592.681741 878.430803 592.681741 864.114556 535.369698 864.114556"></polygon>
            <path d="M672.164078,822.717458 L698.854171,822.717458 L698.854171,862.15143 C694.922312,864.110882 687.279073,865.69069 676.083688,865.69069 C645.082024,865.69069 625.067517,845.875732 625.067517,812.307868 C625.067517,779.144142 646.061927,759.145485 678.251722,759.145485 C691.590644,759.145485 700.422015,761.496827 707.489561,764.827896 L711.801132,750.90354 C706.117698,748.14806 693.94241,744.816992 678.643683,744.816992 C634.290849,744.816992 607.012815,773.657677 607.012815,813.103896 C607.012815,833.690389 614.068112,851.362197 625.459478,862.347375 C638.406439,874.70417 654.893298,879.810992 674.907805,879.810992 C692.766527,879.810992 708.077502,875.500197 715.73299,872.548773 L715.73299,808.9768 L672.164078,808.9768 L672.164078,822.717458 Z" id="Fill-23"></path>
            <path d="M794.22685,782.689526 C789.119109,792.682732 784.415577,801.316567 780.887928,809.962649 L780.495967,809.962649 C776.368128,800.740978 772.252538,792.682732 767.340777,782.689526 L748.698133,746.194732 L729.075587,746.194732 L771.076655,822.319444 L771.076655,878.433252 L788.347436,878.433252 L788.347436,822.123499 L832.504289,746.194732 L813.261455,746.194732 L794.22685,782.689526 Z" id="Fill-25"></path>
            <path d="M920.817997,866.274852 C914.730353,866.274852 910.026821,866.06666 906.486923,865.491071 L906.486923,815.059674 L920.622016,815.059674 C939.26466,815.059674 954.759367,822.713784 954.759367,840.56929 C954.759367,859.796414 938.480738,866.274852 920.817997,866.274852 L920.817997,866.274852 Z M906.486923,759.533701 C909.242899,758.945866 913.75045,758.345784 921.601919,758.345784 C938.872699,758.345784 950.447797,764.628277 950.447797,779.936496 C950.447797,792.685181 939.852601,802.298742 921.99388,802.298742 L906.486923,802.298742 L906.486923,759.533701 Z M945.548284,807.809701 L945.548284,807.221866 C959.279167,802.298742 967.914558,791.117619 967.914558,778.172989 C967.914558,767.775647 963.602987,759.925592 956.731421,754.81877 C948.683972,748.144386 937.696816,745.205208 920.622016,745.205208 C908.838689,745.205208 896.871631,746.393126 889.424372,748.144386 L889.424372,878.043811 C895.107806,878.827592 904.135158,879.611373 915.906236,879.611373 C937.500836,879.611373 952.41985,875.692468 961.434953,867.254578 C968.306519,860.972085 972.826319,852.154551 972.826319,840.765236 C972.826319,821.133975 958.103284,810.748879 945.548284,807.809701 L945.548284,807.809701 Z" id="Fill-27"></path>
            <path d="M1045.43464,782.689526 C1040.3269,792.682732 1035.62337,801.316567 1032.08347,809.962649 L1031.69151,809.962649 C1027.57592,800.740978 1023.44808,792.682732 1018.54857,782.689526 L999.905922,746.194732 L980.283376,746.194732 L1022.2722,822.319444 L1022.2722,878.433252 L1039.54298,878.433252 L1039.54298,822.123499 L1083.69983,746.194732 L1064.46924,746.194732 L1045.43464,782.689526 Z" id="Fill-29"></path>
            <polygon id="Fill-31" points="1157.68859 816.438638 1208.91299 816.438638 1208.91299 802.30609 1157.68859 802.30609 1157.68859 760.520775 1212.04868 760.520775 1212.04868 746.192282 1140.41781 746.192282 1140.41781 878.430803 1215.00063 878.430803 1215.00063 864.114556 1157.68859 864.114556"></polygon>
            <path d="M1320.38669,801.524759 C1320.38669,822.123499 1320.7664,838.215499 1322.34649,855.862814 L1321.7463,856.071005 C1315.67091,842.53854 1307.83169,828.601937 1298.20415,813.097773 L1256.01935,746.182485 L1237.18072,746.182485 L1237.18072,878.433252 L1253.26337,878.433252 L1253.26337,821.927553 C1253.26337,799.957197 1253.06739,784.061142 1252.08749,767.381307 L1252.67543,767.185362 C1259.15504,781.501608 1267.98641,796.626129 1277.20974,811.334266 L1319.19856,878.433252 L1336.46934,878.433252 L1336.46934,746.182485 L1320.38669,746.182485 L1320.38669,801.524759 Z" id="Fill-33"></path>
            <polygon id="Fill-35" points="1351.19972 760.706923 1391.42472 760.706923 1391.42472 878.433252 1408.6955 878.433252 1408.6955 760.706923 1449.11647 760.706923 1449.11647 746.182485 1351.19972 746.182485"></polygon>
            <path d="M1498.37617,808.199142 L1480.90941,808.199142 L1480.90941,759.935389 C1483.84912,759.139362 1489.5448,758.551526 1497.78823,758.551526 C1515.85518,758.551526 1528.2142,766.00969 1528.2142,783.081416 C1528.2142,798.19369 1516.62685,808.199142 1498.37617,808.199142 M1520.55871,815.461362 L1520.55871,814.861279 C1534.30184,810.158595 1545.27675,798.585581 1545.27675,781.31791 C1545.27675,770.908321 1541.35714,761.894841 1534.87753,755.991992 C1526.83009,748.742019 1514.87528,745.202759 1496.61234,745.202759 C1485.03725,745.202759 1472.48225,746.390677 1463.84686,747.958238 L1463.84686,878.433252 L1480.90941,878.433252 L1480.90941,821.143773 L1497.01655,821.143773 C1512.51126,821.731608 1519.77479,828.601937 1523.6944,846.849334 C1527.22205,863.333225 1530.174,874.514348 1532.32979,878.433252 L1549.99253,878.433252 C1547.2488,873.32643 1544.10087,860.577745 1539.7893,842.134403 C1536.65361,828.393745 1530.56596,818.988375 1520.55871,815.461362" id="Fill-37"></path>
            <polygon id="Fill-39" points="1586.49757 816.438638 1637.72197 816.438638 1637.72197 802.30609 1586.49757 802.30609 1586.49757 760.520775 1640.85766 760.520775 1640.85766 746.192282 1569.22679 746.192282 1569.22679 878.430803 1643.80961 878.430803 1643.80961 864.114556 1586.49757 864.114556"></polygon>
            <path d="M1697.18,812.899378 C1691.49657,812.899378 1686.78079,812.519734 1683.05716,811.527762 L1683.05716,760.116638 C1685.99686,759.332858 1691.69255,758.745022 1699.15205,758.745022 C1717.7947,758.745022 1730.3497,767.195159 1730.3497,784.842474 C1730.3497,802.697981 1717.7947,812.899378 1697.18,812.899378 M1698.76009,745.212556 C1685.01696,745.212556 1674.22579,746.388227 1665.98236,747.759844 L1665.98236,878.443049 L1683.05716,878.443049 L1683.05716,825.452118 C1686.97677,826.431844 1691.69255,826.640036 1696.80029,826.640036 C1713.47088,826.640036 1727.99793,821.741405 1737.22126,812.127844 C1743.8846,805.245268 1747.4245,795.827652 1747.4245,783.862748 C1747.4245,772.093789 1742.9047,762.480227 1735.8494,756.197734 C1727.99793,749.13146 1715.63891,745.212556 1698.76009,745.212556" id="Fill-41"></path>
            <path d="M1804.9313,808.199142 L1787.46454,808.199142 L1787.46454,759.935389 C1790.40424,759.139362 1796.09993,758.551526 1804.34336,758.551526 C1822.41031,758.551526 1834.76933,766.00969 1834.76933,783.081416 C1834.76933,798.19369 1823.18198,808.199142 1804.9313,808.199142 M1827.11384,815.461362 L1827.11384,814.861279 C1840.85697,810.158595 1851.83188,798.585581 1851.83188,781.31791 C1851.83188,770.908321 1847.91227,761.894841 1841.43266,755.991992 C1833.38521,748.742019 1821.4304,745.202759 1803.16747,745.202759 C1791.59238,745.202759 1779.03738,746.390677 1770.40199,747.958238 L1770.40199,878.433252 L1787.46454,878.433252 L1787.46454,821.143773 L1803.57168,821.143773 C1819.06639,821.731608 1826.32992,828.601937 1830.24953,846.849334 C1833.77718,863.333225 1836.72913,874.514348 1838.88492,878.433252 L1856.54766,878.433252 C1853.80393,873.32643 1850.656,860.577745 1846.34442,842.134403 C1843.20874,828.393745 1837.12109,818.988375 1827.11384,815.461362" id="Fill-43"></path>
            <polygon id="Fill-45" points="1893.0527 816.438638 1944.2771 816.438638 1944.2771 802.30609 1893.0527 802.30609 1893.0527 760.520775 1947.41279 760.520775 1947.41279 746.192282 1875.78192 746.192282 1875.78192 878.430803 1950.36474 878.430803 1950.36474 864.114556 1893.0527 864.114556"></polygon>
            <path d="M2055.74345,801.524759 C2055.74345,822.123499 2056.13541,838.215499 2057.70326,855.862814 L2057.11531,856.071005 C2051.02767,842.53854 2043.18845,828.601937 2033.56091,813.097773 L1991.37611,746.182485 L1972.53749,746.182485 L1972.53749,878.433252 L1988.63238,878.433252 L1988.63238,821.927553 C1988.63238,799.957197 1988.4364,784.061142 1987.4565,767.381307 L1988.04444,767.185362 C1994.5118,781.501608 2003.35542,796.626129 2012.57875,811.334266 L2054.56757,878.433252 L2071.8261,878.433252 L2071.8261,746.182485 L2055.74345,746.182485 L2055.74345,801.524759 Z" id="Fill-47"></path>
            <polygon id="Fill-49" points="2118.74628 816.438638 2169.97068 816.438638 2169.97068 802.30609 2118.74628 802.30609 2118.74628 760.520775 2173.10637 760.520775 2173.10637 746.192282 2101.4755 746.192282 2101.4755 878.430803 2176.05832 878.430803 2176.05832 864.114556 2118.74628 864.114556"></polygon>
            <path d="M2278.30257,824.679359 C2278.30257,853.715989 2265.53934,866.672866 2246.11277,866.672866 C2228.45003,866.672866 2215.29484,854.107879 2215.29484,824.679359 L2215.29484,746.191058 L2198.02406,746.191058 L2198.02406,824.079277 C2198.02406,865.289003 2218.44278,880.584975 2245.52483,880.584975 C2274.17473,880.584975 2295.5611,864.113332 2295.5611,823.491441 L2295.5611,746.191058 L2278.30257,746.191058 L2278.30257,824.679359 Z" id="Fill-51"></path>
            <path d="M2359.73858,808.199142 L2342.27182,808.199142 L2342.27182,759.935389 C2345.21153,759.139362 2350.90721,758.551526 2359.15064,758.551526 C2377.21759,758.551526 2389.57661,766.00969 2389.57661,783.081416 C2389.57661,798.19369 2377.98927,808.199142 2359.73858,808.199142 M2381.92113,815.461362 L2381.92113,814.861279 C2395.66426,810.158595 2406.63917,798.585581 2406.63917,781.31791 C2406.63917,770.908321 2402.71956,761.894841 2396.23995,755.991992 C2388.1925,748.742019 2376.23769,745.202759 2357.97476,745.202759 C2346.39966,745.202759 2333.84466,746.390677 2325.20927,747.958238 L2325.20927,878.433252 L2342.27182,878.433252 L2342.27182,821.143773 L2358.37897,821.143773 C2373.87368,821.731608 2381.1372,828.601937 2385.05681,846.849334 C2388.58446,863.333225 2391.53642,874.514348 2393.6922,878.433252 L2411.35495,878.433252 C2408.61122,873.32643 2405.46328,860.577745 2401.15171,842.134403 C2398.01602,828.393745 2391.92838,818.988375 2381.92113,815.461362" id="Fill-53"></path>
            <g id="Group-57" transform="translate(2424.000000, 743.836449)">
                <path d="M46.432039,59.650211 C28.1813561,52.583937 20.1339073,46.5096356 20.1339073,34.1405945 C20.1339073,25.1148685 27.0054732,14.3256356 45.0601756,14.3256356 C57.0272341,14.3256356 65.8586049,18.0608411 69.9864439,20.6081288 L74.6899756,6.67152603 C69.0065415,3.32821096 58.987039,0.205334247 45.6481171,0.205334247 C19.9379268,0.205334247 2.86312683,15.5013068 2.86312683,36.1000466 C2.86312683,54.543389 16.2020488,65.9327041 37.7966488,73.7705123 C55.6553707,80.4448959 62.7229171,87.7071151 62.7229171,99.8679644 C62.7229171,113.216732 52.5196829,122.438403 35.0406732,122.438403 C23.2695951,122.438403 12.282439,118.703197 4.62695122,113.804567 L0.1194,128.13306 C7.18694634,132.835745 21.1260585,136.754649 33.877039,136.754649 C65.0746829,136.754649 79.9814488,118.911389 79.9814488,98.4963479 C79.9814488,79.0732795 68.7983122,68.2840466 46.432039,59.650211" id="Fill-55"></path>
            </g>
        </g>
    </g>
</svg>