<?xml version="1.0" encoding="UTF-8" standalone="no"?>
<svg width="22253px" height="4984px" viewBox="0 0 22253 4984" version="1.1" xmlns="http://www.w3.org/2000/svg" xmlns:xlink="http://www.w3.org/1999/xlink">
    <!-- Generator: Sketch 3.8.3 (29802) - http://www.bohemiancoding.com/sketch -->
    <title>boursier</title>
    <desc>Created with Sketch.</desc>
    <defs></defs>
    <g id="Page-1" stroke="none" stroke-width="1" fill="none" fill-rule="evenodd">
        <g id="boursier">
            <polygon id="Fill-1" fill="#0C71B4" points="14453.9705 4585.08479 21935.505 4585.08479 21935.505 383.555323 14453.9705 383.555323"></polygon>
            <g id="Group-8" transform="translate(0.000000, 0.084000)">
                <path d="M13841.919,3486.70329 C13841.919,3181.53957 14089.4737,2934.22428 14394.9328,2934.22428 C14700.3919,2934.22428 14947.9466,3181.53957 14947.9466,3486.70329 C14947.9466,3791.86701 14700.3919,4039.1823 14394.9328,4039.1823 C14089.4737,4039.1823 13841.919,3791.86701 13841.919,3486.70329 L13841.919,3486.70329 Z" id="Fill-2" fill="#252F61"></path>
                <path d="M14394.9416,3243.80182 C14547.5827,3243.80182 14686.3231,3285.19794 14791.2416,3352.59932 C14735.0194,3186.92638 14579.8108,3066.89531 14394.9416,3066.89531 C14210.0725,3066.89531 14054.8638,3186.92638 13998.6417,3352.59932 C14103.5602,3285.19794 14242.3006,3243.80182 14394.9416,3243.80182" id="Fill-4" fill="#269DD4"></path>
                <path d="M0,4983.04042 L22252.7398,4983.04042 L22252.7398,0.203382278 L0,0.203382278 L0,4983.04042 Z M177.07774,4806.13392 L22075.662,4806.13392 L22075.662,177.109886 L177.07774,177.109886 L177.07774,4806.13392 Z" id="Fill-6" fill="#929A9F"></path>
            </g>
            <g id="Group-26" transform="translate(1102.000000, 1101.084000)">
                <path d="M658.923021,2471.75946 C939.414161,2471.75946 1096.74773,2327.40376 1096.74773,2072.65839 C1096.74773,1788.10428 901.165369,1601.29101 595.175035,1601.29101 L437.930002,1601.29101 L437.930002,2471.75946 L658.923021,2471.75946 L658.923021,2471.75946 Z M595.175035,1197.94418 C862.916577,1197.94418 1037.16107,1040.85121 1037.16107,798.754657 C1037.16107,692.610754 998.912282,599.292574 930.91443,535.517779 C858.666712,471.831438 769.419531,446.356901 603.674766,446.356901 L437.930002,446.356901 L437.930002,1197.94418 L595.175035,1197.94418 L595.175035,1197.94418 Z M0.193829399,43.0100727 L654.673156,43.0100727 C1185.99491,43.0100727 1483.48552,302.001194 1483.48552,760.542852 C1483.48552,1096.04604 1334.74022,1295.59657 1016.00028,1393.24896 C1398.4882,1503.63862 1551.48337,1698.9434 1551.48337,2072.65839 C1551.48337,2573.65761 1236.9933,2875.19474 709.92141,2875.19474 L0.193829399,2875.19474 L0.193829399,43.0100727 L0.193829399,43.0100727 Z" id="Fill-9" fill="#1D1C1B"></path>
                <path d="M2171.91065,1966.47026 C2171.91065,2191.49533 2184.66024,2263.67319 2227.1589,2352.92252 C2278.15729,2446.2407 2384.40393,2505.76974 2507.65004,2505.76974 C2630.98469,2505.76974 2737.14279,2446.2407 2788.14118,2352.92252 C2834.97824,2263.67319 2843.38943,2195.74109 2843.38943,1966.47026 L2843.38943,951.646102 C2843.38943,722.375274 2834.97824,654.443176 2788.14118,565.282298 C2737.14279,471.875664 2630.98469,412.435079 2507.65004,412.435079 C2384.40393,412.435079 2278.15729,471.875664 2227.1589,565.282298 C2184.66024,650.19742 2171.91065,726.62103 2171.91065,951.646102 L2171.91065,1966.47026 Z M3281.21415,1974.96177 C3281.21415,2293.39348 3234.46562,2484.4525 3119.71925,2645.87969 C2992.22327,2824.20144 2779.72999,2917.60808 2507.65004,2917.60808 C2235.65863,2917.60808 2023.16534,2824.20144 1895.66937,2645.87969 C1780.83446,2484.4525 1734.17447,2293.39348 1734.17447,1974.96177 L1734.17447,943.15459 C1734.17447,624.722883 1780.83446,433.575406 1895.66937,272.236675 C2023.16534,93.9149191 2235.65863,0.508285151 2507.65004,0.508285151 C2779.72999,0.508285151 2992.22327,93.9149191 3119.71925,272.236675 C3234.46562,433.575406 3281.21415,624.722883 3281.21415,943.15459 L3281.21415,1974.96177 Z" id="Fill-11" fill="#1D1C1B"></path>
                <path d="M5002.63998,43.0012273 L5002.63998,1962.25989 C5002.63998,2318.9034 4960.14132,2501.47091 4841.14508,2662.80964 C4717.89897,2828.48258 4509.65555,2917.64346 4254.57507,2917.64346 C3995.33325,2917.64346 3787.08983,2828.48258 3663.84373,2662.80964 C3544.84748,2501.47091 3502.34883,2318.9034 3502.34883,1962.25989 L3502.34883,43.0012273 L3940.085,43.0012273 L3940.085,2034.43774 C3940.085,2369.85247 4029.33218,2505.71667 4250.3252,2505.71667 C4475.56808,2505.71667 4564.9038,2369.85247 4564.9038,2034.43774 L4564.9038,43.0012273 L5002.63998,43.0012273 Z" id="Fill-13" fill="#1D1C1B"></path>
                <path d="M5848.55805,1308.34269 C6035.55214,1308.34269 6120.54946,1287.11391 6188.54731,1219.18181 C6260.79503,1147.00395 6294.88249,1032.28009 6294.88249,875.275565 C6294.88249,722.339892 6260.79503,607.704478 6188.54731,535.526624 C6120.54946,467.594527 6035.55214,446.365746 5848.55805,446.365746 L5687.06315,446.365746 L5687.06315,1308.34269 L5848.55805,1308.34269 Z M5687.06315,2875.11514 L5249.23844,2875.11514 L5249.23844,43.018918 L5933.55536,43.018918 C6192.79717,43.018918 6358.63048,93.9679911 6494.62618,212.849162 C6664.62081,357.204869 6749.61813,573.738429 6749.61813,853.958331 C6749.61813,1210.6903 6622.12215,1456.94415 6367.04167,1588.56259 L6783.61705,2875.11514 L6324.54301,2875.11514 L5950.55483,1711.68951 L5687.06315,1711.68951 L5687.06315,2875.11514 Z" id="Fill-15" fill="#1D1C1B"></path>
                <path d="M7999.26459,832.782623 C7931.26674,552.562721 7803.77077,412.45277 7625.2764,412.45277 C7463.7815,412.45277 7340.5354,535.579696 7340.5354,701.164184 C7340.5354,798.816574 7383.03406,904.960476 7459.53164,985.629842 C7531.77936,1066.29921 7531.77936,1066.29921 7833.51983,1295.57004 C8071.51231,1482.3833 8160.75949,1563.05267 8254.25654,1677.77654 C8369.09145,1817.88649 8437.0893,2004.69976 8437.0893,2195.75878 C8437.0893,2624.6686 8122.5107,2917.62577 7659.27533,2917.62577 C7174.70209,2917.62577 6889.96109,2658.63465 6800.71391,2119.33517 L7221.45062,1996.20824 C7276.69887,2335.86873 7425.53271,2505.78743 7659.27533,2505.78743 C7850.51929,2505.78743 7982.26513,2374.08054 7982.26513,2183.02151 C7982.26513,2004.69976 7893.01795,1890.06434 7561.52842,1630.98477 C7166.20236,1321.13303 7149.2029,1304.06155 7042.95626,1168.19735 C6940.95948,1036.57891 6885.71122,870.994427 6885.71122,696.918428 C6885.71122,289.23739 7191.70156,0.525975801 7625.2764,0.525975801 C8029.01365,0.525975801 8301.0936,242.534073 8420.0013,709.655696 L7999.26459,832.782623 Z" id="Fill-17" fill="#1D1C1B"></path>
                <polygon id="Fill-19" fill="#1D1C1B" points="8560.42395 2875.17705 8998.16012 2875.17705 8998.16012 42.992382 8560.42395 42.992382"></polygon>
                <polygon id="Fill-21" fill="#1D1C1B" points="10532.4768 446.356901 9686.66493 446.356901 9686.66493 1193.69843 10311.4837 1193.69843 10311.4837 1597.04525 9686.66493 1597.04525 9686.66493 2471.75946 10532.4768 2471.75946 10532.4768 2875.10629 9248.92876 2875.10629 9248.92876 43.0100727 10532.4768 43.0100727"></polygon>
                <path d="M11250.8192,1308.34269 C11437.8133,1308.34269 11522.8106,1287.11391 11590.8084,1219.18181 C11663.0561,1147.00395 11697.1436,1032.28009 11697.1436,875.275565 C11697.1436,722.339892 11663.0561,607.704478 11590.8084,535.526624 C11522.8106,467.594527 11437.8133,446.365746 11250.8192,446.365746 L11089.3243,446.365746 L11089.3243,1308.34269 L11250.8192,1308.34269 Z M11089.3243,2875.11514 L10651.4996,2875.11514 L10651.4996,43.018918 L11335.8165,43.018918 C11595.0583,43.018918 11760.8916,93.9679911 11896.8873,212.849162 C12066.8819,357.204869 12151.8792,573.738429 12151.8792,853.958331 C12151.8792,1210.6903 12024.3833,1456.94415 11769.3028,1588.56259 L12185.8782,2875.11514 L11726.8041,2875.11514 L11352.8159,1711.68951 L11089.3243,1711.68951 L11089.3243,2875.11514 Z" id="Fill-22" fill="#1D1C1B"></path>
                <path d="M15764.3979,964.374525 L15764.3979,892.196672 C15764.3979,582.256477 15649.6516,412.426234 15432.9084,412.426234 C15313.9122,412.426234 15220.3266,463.375307 15173.6666,552.536185 C15118.4184,645.942819 15105.6688,730.85794 15105.6688,960.128769 L15105.6688,1902.77507 C15105.6688,2119.30863 15118.4184,2229.78675 15152.3287,2323.10493 C15194.8274,2437.82879 15305.4124,2505.76089 15437.1583,2505.76089 C15598.6532,2505.76089 15704.8998,2408.1085 15747.3985,2212.71527 C15764.3979,2144.78317 15768.6478,2076.85107 15772.8977,1881.54629 L16214.9723,1881.54629 L16214.9723,1974.95293 C16214.9723,2594.92177 15947.1422,2917.59923 15437.1583,2917.59923 C15152.3287,2917.59923 14927.0859,2807.20957 14803.8397,2603.41328 C14697.5931,2429.33728 14667.844,2263.66434 14667.844,1843.33449 L14667.844,1049.28965 C14667.844,599.239502 14701.843,442.146526 14833.5888,263.824771 C14956.8349,93.9060738 15169.4167,0.499439825 15432.9084,0.499439825 C15925.8928,0.499439825 16202.1341,323.176903 16202.1341,900.688184 L16202.1341,964.374525 L15764.3979,964.374525 Z" id="Fill-23" fill="#FEFEFE"></path>
                <path d="M16826.5988,1966.47026 C16826.5988,2191.49533 16839.4369,2263.67319 16881.9356,2352.92252 C16932.934,2446.2407 17039.0921,2505.76974 17162.4267,2505.76974 C17285.7613,2505.76974 17391.9195,2446.2407 17442.9178,2352.92252 C17489.6664,2263.67319 17498.1661,2195.74109 17498.1661,1966.47026 L17498.1661,951.646102 C17498.1661,722.375274 17489.6664,654.443176 17442.9178,565.282298 C17391.9195,471.875664 17285.7613,412.435079 17162.4267,412.435079 C17039.0921,412.435079 16932.934,471.875664 16881.9356,565.282298 C16839.4369,650.19742 16826.5988,726.62103 16826.5988,951.646102 L16826.5988,1966.47026 Z M17935.9023,1974.96177 C17935.9023,2293.39348 17889.2423,2484.4525 17774.4074,2645.87969 C17646.9999,2824.20144 17434.4181,2917.60808 17162.4267,2917.60808 C16890.4353,2917.60808 16677.8535,2824.20144 16550.446,2645.87969 C16435.6111,2484.4525 16388.9511,2293.39348 16388.9511,1974.96177 L16388.9511,943.15459 C16388.9511,624.722883 16435.6111,433.575406 16550.446,272.236675 C16677.8535,93.9149191 16890.4353,0.508285151 17162.4267,0.508285151 C17434.4181,0.508285151 17646.9999,93.9149191 17774.4074,272.236675 C17889.2423,433.575406 17935.9023,624.722883 17935.9023,943.15459 L17935.9023,1974.96177 Z" id="Fill-24" fill="#FEFEFE"></path>
                <polygon id="Fill-25" fill="#FEFEFE" points="20218.3989 2875.15052 19801.9121 2875.15052 19801.9121 790.307371 19308.9276 2875.15052 19062.3469 2875.15052 18573.6123 790.307371 18573.6123 2875.15052 18157.1255 2875.15052 18157.1255 42.965846 18798.8552 42.965846 19189.8429 1822.11455 19585.1689 42.965846 20218.3989 42.965846"></polygon>
            </g>
        </g>
    </g>
</svg>