<?xml version="1.0" encoding="UTF-8" standalone="no"?>
<svg width="1781px" height="1104px" viewBox="0 0 1781 1104" version="1.1" xmlns="http://www.w3.org/2000/svg" xmlns:xlink="http://www.w3.org/1999/xlink">
    <!-- Generator: Sketch 3.8.3 (29802) - http://www.bohemiancoding.com/sketch -->
    <title>buongiorno</title>
    <desc>Created with Sketch.</desc>
    <defs></defs>
    <g id="Page-1" stroke="none" stroke-width="1" fill="none" fill-rule="evenodd">
        <g id="buongiorno" transform="translate(-1.000000, 0.000000)">
            <g id="Group-3" transform="translate(0.000000, 917.611714)" fill="#133478">
                <path d="M47.1768571,144.615071 L82.039,144.615071 C97.0475714,144.615071 103.276857,140.935786 103.276857,125.987929 C103.276857,110.785071 97.9704286,108.575071 82.9618571,108.575071 L47.1768571,108.575071 L47.1768571,144.615071 Z M47.1768571,74.5265 L80.424,74.5265 C96.5861429,74.5265 100.508286,71.5757857 100.508286,56.8707857 C100.508286,45.8329286 98.8932857,41.6800714 85.9611429,41.1822143 L47.1768571,41.1822143 L47.1768571,74.5265 Z M0.997571429,0.977214286 L91.9597143,0.977214286 C126.360429,0.977214286 146.675429,7.85007143 146.675429,48.0429286 C146.675429,71.3329286 142.304,86.5236429 119.439,90.4457857 L119.439,92.4007857 C145.072571,94.1250714 149.456143,110.542214 149.456143,133.589357 C149.456143,178.687929 129.602571,184.820071 92.8947143,184.820071 L0.997571429,184.820071 L0.997571429,0.977214286 Z" id="Fill-1"></path>
            </g>
            <g id="Group-6" transform="translate(183.142857, 917.611714)" fill="#133478">
                <path d="M149.615786,0.976 L149.615786,123.546 C149.615786,172.566714 127.9165,186.288143 77.1229286,186.288143 C7.86007143,186.288143 0.477214286,167.661 0.477214286,123.546 L0.477214286,0.976 L46.6443571,0.976 L46.6443571,122.562429 C46.6443571,143.399571 57.7307857,143.630286 77.1229286,143.630286 C96.7457857,143.630286 103.448643,141.918143 103.448643,120.352429 L103.448643,0.976 L149.615786,0.976 Z" id="Fill-4"></path>
            </g>
            <path d="M478.906429,1031.09979 L478.906429,989.6805 C478.906429,962.468357 470.357857,959.772643 446.351429,959.772643 C422.345,959.772643 414.488571,962.468357 413.796429,989.6805 L413.796429,1031.09979 C414.488571,1058.55479 422.345,1061.23836 446.351429,1061.23836 C470.357857,1061.23836 478.906429,1058.55479 478.906429,1031.09979 M366.245,1036.49121 L366.245,984.531929 C366.245,927.909786 399.48,917.114786 446.351429,917.114786 C493.222857,917.114786 526.47,927.909786 526.47,984.531929 L526.47,1036.49121 C526.47,1093.11336 493.222857,1103.89621 446.351429,1103.89621 C399.48,1103.89621 366.245,1093.11336 366.245,1036.49121" id="Fill-7" fill="#133478"></path>
            <polygon id="Fill-9" fill="#133478" points="605.884286 1102.42693 559.705 1102.42693 559.705 918.584071 637.747143 918.584071 687.375 1059.76907 689.232857 1059.76907 686.452143 918.584071 732.631429 918.584071 732.631429 1102.42693 653.909286 1102.42693 604.961429 961.241929 603.115714 961.241929"></polygon>
            <g id="Group-13" transform="translate(764.857143, 916.611714)" fill="#133478">
                <path d="M112.758786,59.0862857 C111.835929,40.4712857 96.8273571,40.702 82.9723571,40.702 C49.7373571,40.702 48.8023571,51.497 48.3409286,81.1498571 L48.3409286,111.045571 C48.3409286,143.661286 58.9659286,147.085571 82.9723571,147.085571 C106.517357,147.085571 112.758786,141.451286 112.758786,115.963429 L80.9080714,115.963429 L80.9080714,81.8905714 L159.618071,81.8905714 L159.618071,113.984143 C159.618071,176.009857 144.852357,187.290571 82.9723571,187.290571 C28.4995,187.290571 0.7895,177.479143 0.7895,117.930571 L0.7895,70.3791429 C0.7895,9.592 32.1909286,0.509142857 82.9723571,0.509142857 C127.767357,0.509142857 159.618071,0.752 159.618071,59.0862857 L112.758786,59.0862857 Z" id="Fill-11"></path>
            </g>
            <polygon id="Fill-14" fill="#133478" points="959.095714 1102.42814 1005.275 1102.42814 1005.275 918.585286 959.095714 918.585286"></polygon>
            <path d="M1151.41793,1031.09979 L1151.41793,989.6805 C1151.41793,962.468357 1142.8815,959.772643 1118.87507,959.772643 C1094.88079,959.772643 1087.02436,962.468357 1086.32007,989.6805 L1086.32007,1031.09979 C1087.02436,1058.55479 1094.88079,1061.23836 1118.87507,1061.23836 C1142.8815,1061.23836 1151.41793,1058.55479 1151.41793,1031.09979 M1038.76864,1036.49121 L1038.76864,984.531929 C1038.76864,927.909786 1072.01579,917.114786 1118.87507,917.114786 C1165.7465,917.114786 1198.99364,927.909786 1198.99364,984.531929 L1198.99364,1036.49121 C1198.99364,1093.11336 1165.7465,1103.89621 1118.87507,1103.89621 C1072.01579,1103.89621 1038.76864,1093.11336 1038.76864,1036.49121" id="Fill-16" fill="#133478"></path>
            <path d="M1313.25914,1010.99971 C1333.137,1010.99971 1332.42057,1003.16757 1332.42057,982.318286 C1332.42057,965.901143 1328.51057,961.238286 1313.25914,961.238286 L1277.49843,961.238286 L1277.49843,1010.99971 L1313.25914,1010.99971 Z M1231.31914,918.592571 L1320.42343,918.592571 C1360.36129,919.321143 1379.99629,928.404 1379.99629,974.231143 C1379.99629,1004.86757 1379.99629,1022.77829 1347.19843,1030.86543 L1347.19843,1032.80829 C1366.14129,1033.549 1378.38129,1044.58686 1378.38129,1065.41186 L1378.38129,1102.42329 L1332.21414,1102.42329 L1332.21414,1076.68043 C1332.66343,1062.959 1327.11414,1053.65757 1313.25914,1053.65757 L1277.49843,1053.65757 L1277.49843,1102.42329 L1231.31914,1102.42329 L1231.31914,918.592571 Z" id="Fill-17" fill="#133478"></path>
            <polygon id="Fill-18" fill="#133478" points="1461.25021 1102.42693 1415.09521 1102.42693 1415.09521 918.584071 1493.12521 918.584071 1542.76521 1059.76907 1544.61093 1059.76907 1541.84236 918.584071 1588.0095 918.584071 1588.0095 1102.42693 1509.27521 1102.42693 1460.35164 961.241929 1458.49379 961.241929"></polygon>
            <path d="M1733.91929,1031.09979 L1733.91929,989.6805 C1733.91929,962.468357 1725.38286,959.772643 1701.35214,959.772643 C1677.35786,959.772643 1669.50143,962.468357 1668.82143,989.6805 L1668.82143,1031.09979 C1669.50143,1058.55479 1677.35786,1061.23836 1701.35214,1061.23836 C1725.38286,1061.23836 1733.91929,1058.55479 1733.91929,1031.09979 M1621.24571,1036.49121 L1621.24571,984.531929 C1621.24571,927.909786 1654.49286,917.114786 1701.35214,917.114786 C1748.24786,917.114786 1781.47071,927.909786 1781.47071,984.531929 L1781.47071,1036.49121 C1781.47071,1093.11336 1748.24786,1103.89621 1701.35214,1103.89621 C1654.49286,1103.89621 1621.24571,1093.11336 1621.24571,1036.49121" id="Fill-19" fill="#133478"></path>
            <path d="M510.419571,762.332214 L101.278143,762.332214 L101.278143,103.727929 L506.315286,103.727929 C659.485286,103.727929 749.949571,128.317214 749.949571,272.3315 C749.949571,355.752929 730.411714,410.2015 628.642429,424.250786 L628.642429,431.269357 C742.748857,437.425786 762.286714,496.257929 762.286714,578.805071 C762.286714,740.377929 673.874571,762.332214 510.419571,762.332214 M744.679571,0.00364285714 L120.099571,0.00364285714 C72.3052857,0.00364285714 1.19671429,31.6722143 1.19671429,118.894357 L1.19671429,743.4865 C1.19671429,791.292929 32.8652857,862.389357 120.099571,862.389357 L744.679571,862.389357 C792.486,862.389357 863.582429,830.732929 863.582429,743.4865 L863.582429,118.894357 C863.582429,71.1000714 831.913857,0.00364285714 744.679571,0.00364285714" id="Fill-20" fill="#E42313"></path>
            <path d="M466.217143,489.229643 L306.878571,489.229643 L306.878571,618.308214 L462.100714,618.308214 C528.922857,618.308214 556.681429,605.145357 556.681429,551.583214 C556.681429,497.134643 533.039286,489.229643 466.217143,489.229643" id="Fill-21" fill="#E42313"></path>
            <path d="M544.3455,303.945429 C544.3455,264.432571 537.144786,249.496857 479.587643,247.748286 L306.879786,247.748286 L306.879786,367.173286 L454.913357,367.173286 C526.871929,367.173286 544.3455,356.633286 544.3455,303.945429" id="Fill-22" fill="#E42313"></path>
            <path d="M1238.24421,568.455714 L1071.77779,568.455714 L1029.01064,105.897857 L1279.86993,105.897857 L1238.24421,568.455714 Z M1048.66993,764.611429 L1256.73779,764.611429 L1256.73779,627.749286 L1048.66993,627.749286 L1048.66993,764.611429 Z M1659.73493,0.473571429 L1035.82279,0.473571429 C988.0285,0.473571429 916.932071,32.1421429 916.932071,119.376429 L916.932071,742.912143 C916.932071,790.706429 948.5885,861.815 1035.82279,861.815 L1659.73493,861.815 C1707.51707,861.815 1778.62564,830.146429 1778.62564,742.912143 L1778.62564,119.376429 C1778.62564,71.57 1746.95707,0.473571429 1659.73493,0.473571429 L1659.73493,0.473571429 Z" id="Fill-23" fill="#133478"></path>
        </g>
    </g>
</svg>