<?xml version="1.0" encoding="UTF-8" standalone="no"?>
<svg width="557px" height="186px" viewBox="0 0 557 186" version="1.1" xmlns="http://www.w3.org/2000/svg" xmlns:xlink="http://www.w3.org/1999/xlink">
    <!-- Generator: Sketch 3.8.2 (29753) - http://www.bohemiancoding.com/sketch -->
    <title>jobintree</title>
    <desc>Created with Sketch.</desc>
    <defs></defs>
    <g id="Page-1" stroke="none" stroke-width="1" fill="none" fill-rule="evenodd">
        <g id="jobintree" fill="#8CBE2D">
            <path d="M94.6154,119.9657 C95.2184,116.0527 95.9534,113.3947 95.9534,113.3947 C90.9624,121.3667 81.9134,126.6917 71.5724,126.6917 C55.8374,126.6917 43.0734,114.3647 43.0734,99.1437 C43.0734,98.0357 43.1504,96.9507 43.2794,95.8817 C41.3364,96.2897 39.3204,96.5137 37.2514,96.5137 C21.6434,96.5137 8.9804,84.2677 8.9804,69.1777 C8.9804,54.0797 21.6434,41.8417 37.2514,41.8417 C39.5754,41.8417 41.8294,42.1187 43.9914,42.6307 C43.2944,40.2647 42.9164,37.7697 42.9164,35.1897 C42.9164,20.1587 55.5294,7.9757 71.0694,7.9757 C86.6084,7.9757 99.2214,20.1587 99.2214,35.1897 C99.2214,38.0057 98.7744,40.7177 97.9584,43.2757 C99.6124,42.9837 101.3164,42.8277 103.0604,42.8277 C109.6894,42.8277 115.7814,45.0537 120.6204,48.7227 C120.6204,48.7227 121.8074,47.9607 125.1404,46.7517 C128.1894,45.8047 130.0834,45.5867 130.0834,45.5867 C129.7264,45.2087 129.3604,44.8397 128.9874,44.4797 C123.0914,38.7727 115.1534,35.0627 106.3794,34.4337 C106.3744,24.8897 102.3414,16.2227 95.9224,10.0337 C89.5014,3.8217 80.6284,0.0007 70.9064,0.0007 C61.1814,0.0007 52.3144,3.8217 45.8894,10.0337 C39.4654,16.2307 35.4304,24.9137 35.4354,34.4687 L35.4354,34.5727 C25.7404,34.6207 16.9044,38.4437 10.4954,44.6437 C4.0454,50.8657 -0.0026,59.5777 0.0004,69.1707 C-0.0026,78.7607 4.0454,87.4697 10.4954,93.6947 C16.8494,99.8397 25.5894,103.6527 35.1824,103.7627 C35.9054,112.2677 39.7914,119.9237 45.6284,125.5557 C48.7744,128.5977 52.5094,131.0677 56.6334,132.8097 L56.6334,184.1227 L85.6564,184.1227 L85.6564,132.6037 C88.6634,131.2807 91.3904,129.5827 93.8744,127.5347 C93.8744,127.5347 94.0194,123.8327 94.6154,119.9657 L94.6154,119.9657 Z" id="Fill-1"></path>
            <path d="M215.7072,163.7688 C215.7072,165.1548 215.6132,166.6598 215.4362,168.2898 C215.2542,169.9158 214.9042,171.5408 214.3942,173.1728 C213.8812,174.7968 213.1452,176.3488 212.1792,177.8248 C211.2152,179.3058 209.9342,180.6288 208.3362,181.8048 C206.7392,182.9788 204.7762,183.9138 202.4602,184.6058 C200.1372,185.3008 197.3802,185.6508 194.1862,185.6508 C191.4722,185.6508 188.8542,185.2728 186.3172,184.5148 C183.7872,183.7648 181.5252,182.5748 179.5352,180.9448 C177.5482,179.3208 175.9502,177.2528 174.7462,174.7518 C173.5372,172.2498 172.9352,169.2218 172.9352,165.6668 L172.9352,160.0618 L185.7772,160.0618 L185.7772,162.9558 C185.7772,164.5198 185.8942,165.9688 186.1382,167.2928 C186.3792,168.6208 186.7992,169.7518 187.4012,170.6828 C188.0032,171.6198 188.8372,172.3598 189.8892,172.8988 C190.9412,173.4438 192.3152,173.7128 194.0072,173.7128 C195.8702,173.7128 197.3212,173.3858 198.3432,172.7168 C199.3682,172.0558 200.1092,171.1968 200.5592,170.1418 C201.0122,169.0848 201.2832,167.9458 201.3702,166.7048 C201.4622,165.4708 201.5102,164.2788 201.5102,163.1348 L201.5102,119.5508 L215.7072,119.5508 L215.7072,163.7688 Z" id="Fill-3"></path>
            <path d="M236.6815,160.7829 C236.6815,162.6549 236.8635,164.4779 237.2265,166.2549 C237.5875,168.0349 238.2045,169.6299 239.0805,171.0449 C239.9505,172.4609 241.1155,173.5929 242.5575,174.4359 C244.0085,175.2819 245.8165,175.6999 247.9865,175.6999 C250.1585,175.6999 251.9745,175.2819 253.4565,174.4359 C254.9345,173.5929 256.1095,172.4609 256.9825,171.0449 C257.8575,169.6299 258.4725,168.0349 258.8355,166.2549 C259.1995,164.4779 259.3775,162.6549 259.3775,160.7829 C259.3775,158.9179 259.1995,157.0769 258.8355,155.2709 C258.4725,153.4589 257.8575,151.8629 256.9825,150.4739 C256.1095,149.0889 254.9345,147.9569 253.4565,147.0849 C251.9745,146.2129 250.1585,145.7699 247.9865,145.7699 C245.8165,145.7699 244.0085,146.2129 242.5575,147.0849 C241.1155,147.9569 239.9505,149.0889 239.0805,150.4739 C238.2045,151.8629 237.5875,153.4589 237.2265,155.2709 C236.8635,157.0769 236.6815,158.9179 236.6815,160.7829 M223.8445,160.7829 C223.8445,157.0499 224.4175,153.6529 225.5615,150.6099 C226.7065,147.5689 228.3305,144.9759 230.4425,142.8379 C232.5505,140.6949 235.0845,139.0379 238.0375,137.8639 C240.9935,136.6849 244.3065,136.0989 247.9865,136.0989 C251.6635,136.0989 254.9915,136.6849 257.9775,137.8639 C260.9605,139.0379 263.5025,140.6949 265.6145,142.8379 C267.7265,144.9759 269.3535,147.5689 270.5005,150.6099 C271.6445,153.6529 272.2195,157.0499 272.2195,160.7829 C272.2195,164.5199 271.6445,167.8959 270.5005,170.9109 C269.3535,173.9239 267.7265,176.5039 265.6145,178.6429 C263.5025,180.7829 260.9605,182.4389 257.9775,183.6159 C254.9915,184.7869 251.6635,185.3819 247.9865,185.3819 C244.3065,185.3819 240.9935,184.7869 238.0375,183.6159 C235.0845,182.4389 232.5505,180.7829 230.4425,178.6429 C228.3305,176.5039 226.7065,173.9239 225.5615,170.9109 C224.4175,167.8959 223.8445,164.5199 223.8445,160.7829" id="Fill-5"></path>
            <path d="M313.267,160.7829 C313.267,158.7929 313.056,156.8949 312.637,155.0849 C312.211,153.2809 311.551,151.6809 310.645,150.2929 C309.74,148.9089 308.598,147.8049 307.209,146.9959 C305.824,146.1859 304.196,145.7699 302.328,145.7699 C300.396,145.7699 298.755,146.1859 297.402,146.9959 C296.04,147.8049 294.911,148.9089 294.008,150.2929 C293.104,151.6809 292.441,153.2809 292.018,155.0849 C291.599,156.8949 291.386,158.7929 291.386,160.7829 C291.386,162.7109 291.599,164.5779 292.018,166.3889 C292.441,168.1989 293.104,169.7989 294.008,171.1799 C294.911,172.5709 296.04,173.6649 297.402,174.4789 C298.755,175.2969 300.396,175.6999 302.328,175.6999 C304.196,175.6999 305.824,175.2969 307.209,174.4789 C308.598,173.6649 309.74,172.5709 310.645,171.1799 C311.551,169.7989 312.211,168.1989 312.637,166.3889 C313.056,164.5779 313.267,162.7109 313.267,160.7829 L313.267,160.7829 Z M278.998,119.5509 L291.838,119.5509 L291.838,143.0619 L292.018,143.0619 C293.583,140.6469 295.71,138.8889 298.394,137.7719 C301.076,136.6539 303.861,136.0989 306.758,136.0989 C309.111,136.0989 311.424,136.5809 313.72,137.5449 C316.009,138.5079 318.072,139.9879 319.913,141.9769 C321.75,143.9649 323.241,146.5119 324.39,149.6159 C325.535,152.7209 326.106,156.4129 326.106,160.6909 C326.106,164.9759 325.535,168.6699 324.39,171.7669 C323.241,174.8759 321.75,177.4369 319.913,179.4549 C318.072,181.4769 316.009,182.9689 313.72,183.9299 C311.424,184.8949 309.111,185.3819 306.758,185.3819 C303.322,185.3819 300.247,184.8179 297.535,183.7049 C294.822,182.5919 292.772,180.7379 291.386,178.1459 L291.209,178.1459 L291.209,184.1119 L278.998,184.1119 L278.998,119.5509 Z" id="Fill-7"></path>
            <path d="M334.066,184.112 L341.749,184.112 L341.749,137.364 L334.066,137.364 L334.066,184.112 Z M334.066,128.955 L341.749,128.955 L341.749,119.552 L334.066,119.552 L334.066,128.955 Z" id="Fill-9"></path>
            <path d="M352.1486,137.3639 L359.3796,137.3639 L359.3796,144.7789 L359.5606,144.7789 C361.1896,141.8839 363.2796,139.7499 365.8446,138.3589 C368.4046,136.9749 371.3726,136.2789 374.7506,136.2789 C377.8216,136.2789 380.3866,136.7019 382.4376,137.5449 C384.4856,138.3909 386.1446,139.5679 387.4106,141.0759 C388.6726,142.5809 389.5656,144.3739 390.0776,146.4509 C390.5876,148.5289 390.8406,150.8359 390.8406,153.3679 L390.8406,184.1119 L383.1576,184.1119 L383.1576,152.4619 C383.1576,149.5709 382.3126,147.2829 380.6286,145.5909 C378.9396,143.9029 376.6186,143.0619 373.6646,143.0619 C371.3146,143.0619 369.2786,143.4219 367.5636,144.1509 C365.8446,144.8689 364.4096,145.8959 363.2676,147.2169 C362.1196,148.5459 361.2636,150.0989 360.6886,151.8739 C360.1176,153.6529 359.8326,155.5989 359.8326,157.7089 L359.8326,184.1119 L352.1486,184.1119 L352.1486,137.3639 Z" id="Fill-11"></path>
            <path d="M416.2528,137.3639 L425.6548,137.3639 L425.6548,145.9549 L416.2528,145.9549 L416.2528,169.1019 C416.2528,171.2739 416.6118,172.7169 417.3388,173.4439 C418.0588,174.1679 419.5098,174.5239 421.6788,174.5239 C423.1248,174.5239 424.4478,174.4089 425.6548,174.1679 L425.6548,184.1999 C424.5738,184.3819 423.3668,184.5019 422.0398,184.5609 C420.7148,184.6259 419.4178,184.6539 418.1508,184.6539 C416.1648,184.6539 414.2778,184.5139 412.5038,184.2459 C410.7238,183.9769 409.1568,183.4339 407.7968,182.6189 C406.4418,181.8049 405.3678,180.6759 404.5908,179.2319 C403.8028,177.7839 403.4148,175.8809 403.4148,173.5329 L403.4148,145.9549 L395.6378,145.9549 L395.6378,137.3639 L403.4148,137.3639 L403.4148,123.3469 L416.2528,123.3469 L416.2528,137.3639 Z" id="Fill-12"></path>
            <path d="M430.2669,137.3639 L442.4749,137.3639 L442.4749,146.0409 L442.6569,146.0409 C443.2569,144.5979 444.0719,143.2569 445.0969,142.0209 C446.1199,140.7839 447.2979,139.7309 448.6249,138.8569 C449.9479,137.9809 451.3829,137.3039 452.9129,136.8239 C454.4539,136.3389 456.0069,136.0989 457.5739,136.0989 C458.5389,136.0989 459.4709,136.2459 460.3779,136.5509 L460.3779,148.4869 C459.7749,148.3669 459.0479,148.2569 458.2069,148.1679 C457.3629,148.0779 456.5499,148.0359 455.7669,148.0359 C453.4179,148.0359 451.4259,148.4259 449.8009,149.2129 C448.1679,149.9939 446.8589,151.0659 445.8659,152.4169 C444.8729,153.7779 444.1629,155.3749 443.7379,157.2139 C443.3169,159.0489 443.1059,160.9949 443.1059,163.0449 L443.1059,184.1119 L430.2669,184.1119 L430.2669,137.3639 Z" id="Fill-13"></path>
            <path d="M493.745,155.7183 C493.138,152.4623 492.071,149.9933 490.531,148.3053 C488.996,146.6173 486.657,145.7693 483.525,145.7693 C481.477,145.7693 479.773,146.1183 478.412,146.8143 C477.059,147.5033 475.975,148.3673 475.16,149.3873 C474.35,150.4163 473.774,151.4993 473.445,152.6483 C473.111,153.7933 472.916,154.8123 472.861,155.7183 L493.745,155.7183 Z M472.861,163.8553 C473.038,167.9583 474.094,170.9563 476.024,172.8543 C477.948,174.7523 480.723,175.7003 484.339,175.7003 C486.928,175.7003 489.158,175.0533 491.028,173.7573 C492.894,172.4613 494.04,171.0933 494.466,169.6423 L505.766,169.6423 C503.96,175.1893 501.186,179.2003 497.452,181.6723 C493.71,184.1413 489.187,185.3823 483.884,185.3823 C480.206,185.3823 476.89,184.7753 473.94,183.5713 C470.986,182.3623 468.487,180.6753 466.434,178.5063 C464.388,176.3343 462.802,173.7493 461.69,170.7293 C460.57,167.7163 460.018,164.4013 460.018,160.7833 C460.018,157.2883 460.589,154.0343 461.731,151.0183 C462.881,148.0093 464.507,145.3943 466.616,143.1973 C468.726,140.9953 471.242,139.2643 474.167,138.0013 C477.089,136.7343 480.327,136.0993 483.884,136.0993 C487.86,136.0993 491.331,136.8693 494.287,138.4063 C497.234,139.9383 499.662,142.0083 501.561,144.5973 C503.463,147.1903 504.83,150.1483 505.678,153.4593 C506.522,156.7763 506.823,160.2403 506.583,163.8553 L472.861,163.8553 Z" id="Fill-14"></path>
            <path d="M544.1073,155.7183 C543.5043,152.4623 542.4313,149.9933 540.8973,148.3053 C539.3553,146.6173 537.0223,145.7693 533.8853,145.7693 C531.8373,145.7693 530.1343,146.1183 528.7793,146.8143 C527.4233,147.5033 526.3343,148.3673 525.5233,149.3873 C524.7133,150.4163 524.1393,151.4993 523.8083,152.6483 C523.4773,153.7933 523.2783,154.8123 523.2203,155.7183 L544.1073,155.7183 Z M523.2203,163.8553 C523.3983,167.9583 524.4503,170.9563 526.3833,172.8543 C528.3123,174.7523 531.0893,175.7003 534.7033,175.7003 C537.2933,175.7003 539.5283,175.0533 541.3903,173.7573 C543.2563,172.4613 544.4053,171.0933 544.8233,169.6423 L556.1323,169.6423 C554.3223,175.1893 551.5503,179.2003 547.8103,181.6723 C544.0773,184.1413 539.5563,185.3823 534.2493,185.3823 C530.5713,185.3823 527.2553,184.7753 524.3013,183.5713 C521.3543,182.3623 518.8493,180.6753 516.8003,178.5063 C514.7463,176.3343 513.1643,173.7493 512.0493,170.7293 C510.9353,167.7163 510.3753,164.4013 510.3753,160.7833 C510.3753,157.2883 510.9503,154.0343 512.0973,151.0183 C513.2393,148.0093 514.8693,145.3943 516.9833,143.1973 C519.0883,140.9953 521.6033,139.2643 524.5283,138.0013 C527.4523,136.7343 530.6903,136.0993 534.2493,136.0993 C538.2283,136.0993 541.6933,136.8693 544.6453,138.4063 C547.5993,139.9383 550.0273,142.0083 551.9233,144.5973 C553.8293,147.1903 555.1933,150.1483 556.0383,153.4593 C556.8853,156.7763 557.1833,160.2403 556.9443,163.8553 L523.2203,163.8553 Z" id="Fill-15"></path>
            <path d="M155.5715,73.3572 C155.5715,62.4262 146.4015,53.5722 135.1045,53.5722 C123.8005,53.5722 114.6355,62.4262 114.6355,73.3572 C114.6355,80.8382 118.9315,87.3502 125.2705,90.7122 C98.4255,98.4902 102.8705,139.2222 102.8705,139.2222 L112.4955,139.2222 L112.4955,184.1452 L157.7085,184.1452 L157.7085,139.2222 L167.4005,139.2222 C167.4005,139.2222 171.3515,98.7992 144.7545,90.8042 C151.1905,87.4702 155.5715,80.9122 155.5715,73.3572 Z" id="Fill-16"></path>
        </g>
    </g>
</svg>