<?xml version="1.0" encoding="UTF-8" standalone="no"?>
<svg width="2026px" height="337px" viewBox="0 0 2026 337" version="1.1" xmlns="http://www.w3.org/2000/svg" xmlns:xlink="http://www.w3.org/1999/xlink">
    <!-- Generator: Sketch 3.8.3 (29802) - http://www.bohemiancoding.com/sketch -->
    <title>netbooster</title>
    <desc>Created with Sketch.</desc>
    <defs></defs>
    <g id="Page-1" stroke="none" stroke-width="1" fill="none" fill-rule="evenodd">
        <g id="netbooster" fill="#E44792">
            <polygon id="Fill-1" points="215.518309 1.29487273 215.518309 265.577964 52.2461555 1.29487273 0.000518670076 1.29487273 0.000518670076 328.386782 42.3499304 328.386782 42.3499304 64.4197818 208.039086 328.386782 257.862534 328.386782 257.862534 1.29487273"></polygon>
            <g id="Group-9" transform="translate(269.521739, 0.029991)">
                <path d="M43.9899448,190.082564 C44.7264563,169.598836 51.282446,152.716473 63.6579141,139.430291 C76.0333821,126.144109 91.3548962,119.501018 109.622456,119.501018 C135.109904,119.501018 153.310037,129.149564 164.212482,148.446655 C170.104574,158.8362 173.859745,172.713109 175.483183,190.082564 L43.9899448,190.082564 Z M213.16975,169.376018 C210.508973,153.343473 205.197791,139.316291 197.220646,127.294473 C188.947858,114.676745 176.914712,104.396018 161.116021,96.4522909 C145.312144,88.5137455 128.99997,84.5392909 112.16394,84.5392909 C78.7875202,84.5392909 51.7648092,96.4937455 31.0958066,120.392291 C10.4164307,144.290836 0.0845227621,175.386927 0.0845227621,213.685745 C0.0845227621,252.580473 10.3438169,282.821564 30.8675918,304.419382 C51.3913668,326.0172 76.417198,336.816109 105.950272,336.816109 C118.040472,336.816109 128.880676,335.629473 138.465699,333.2562 C156.30795,329.0952 171.276768,321.084109 183.366968,309.207382 C190.592042,302.382927 197.137658,293.589382 203.009004,282.821564 C208.875162,272.064109 212.329505,262.306745 213.372032,253.544291 L173.921986,253.544291 C171.032993,264.130745 166.121188,273.452836 159.191755,281.505382 C146.811101,295.371927 130.224032,302.3052 109.435735,302.3052 C87.179602,302.3052 70.7429473,294.972927 60.1257708,280.313564 C49.5085944,265.6542 43.8343437,246.186109 43.0978322,221.924836 L216.717454,221.924836 C216.717454,197.876018 215.529699,180.366655 213.16975,169.376018 L213.16975,169.376018 Z" id="Fill-2"></path>
                <path d="M275.036198,23.3104091 L234.471012,23.3104091 L234.471012,89.8864091 L202.157866,89.8864091 L202.157866,122.619955 L234.471012,122.619955 L234.471012,280.484045 C234.471012,295.775591 237.816434,308.206773 244.502091,317.782773 C251.187748,327.353591 263.895165,332.141591 282.613968,332.141591 C288.407513,332.141591 293.791308,331.846227 298.770541,331.250318 C303.749774,330.654409 308.537099,329.690591 313.148076,328.358864 L313.148076,296.516591 C310.170909,296.910409 307.572372,297.164318 305.347278,297.262773 C303.116996,297.356045 301.037129,297.407864 299.107677,297.407864 C291.825549,297.407864 286.623288,296.594318 283.506081,294.956864 C277.857764,292.137955 275.036198,286.572682 275.036198,278.261045 L275.036198,122.619955 L313.148076,122.619955 L313.148076,89.8864091 L275.036198,89.8864091 L275.036198,23.3104091 Z" id="Fill-4"></path>
                <g id="Group-8" transform="translate(359.069054, 0.000000)">
                    <path d="M1203.73781,257.330127 C1199.9567,264.455127 1195.59988,270.0204 1190.66214,274.031127 C1181.62172,281.451491 1169.86865,285.161673 1155.39776,285.161673 C1141.75155,285.161673 1130.07628,282.119945 1120.37715,276.031309 C1104.42805,266.237673 1095.95817,249.163582 1094.96751,224.8194 L1255.8849,224.8194 L1255.8849,257.330127 L1203.73781,257.330127 Z M1113.45291,145.392491 C1122.4259,136.148127 1135.06589,131.525945 1151.36769,131.525945 C1166.35726,131.525945 1178.91426,135.883855 1189.0387,144.610036 C1199.16833,153.331036 1204.80627,166.1094 1205.9629,182.955491 L1096.5287,182.955491 C1098.83679,167.156127 1104.47473,154.636855 1113.45291,145.392491 L1113.45291,145.392491 Z M1044.37643,283.601945 C1031.45117,283.601945 1023.72299,282.379036 1021.20225,279.928036 C1018.66595,277.482218 1017.41077,271.279582 1017.41077,261.335673 L1017.41077,133.080491 L1048.9874,133.080491 C1037.04243,153.346582 1031.00511,178.804855 1031.00511,209.569309 C1031.00511,240.017673 1036.84015,264.579491 1048.21977,283.534582 C1046.9231,283.560491 1045.59012,283.601945 1044.37643,283.601945 L1044.37643,283.601945 Z M806.742545,229.939036 C845.087824,238.996855 867.240223,245.375673 873.194555,249.091036 C879.143701,252.801218 882.126054,258.2214 882.126054,265.3464 C882.126054,272.766764 878.427937,278.337218 871.036888,282.0474 C863.651026,285.757582 853.682187,287.612673 841.140745,287.612673 C819.792284,287.612673 805.165788,283.379127 797.250883,274.9224 C792.77476,270.170673 789.865021,262.1544 788.516479,250.873582 L735.311302,250.873582 C739.201328,237.323127 741.265635,222.850309 741.265635,207.341127 C741.265635,203.3874 741.094474,199.506218 740.835139,195.671673 C742.987619,198.848127 745.503169,201.744764 748.397348,204.335673 C759.688796,214.580127 779.138924,223.114582 806.742545,229.939036 L806.742545,229.939036 Z M659.694392,263.594945 C649.741113,276.787855 635.477686,283.379127 616.90411,283.379127 C598.330535,283.379127 584.030801,276.787855 573.999722,263.594945 C563.973829,250.402036 558.95829,231.649036 558.95829,207.341127 C558.95829,183.033218 563.973829,164.316491 573.999722,151.201309 C584.030801,138.086127 598.330535,131.525945 616.90411,131.525945 C635.477686,131.525945 649.741113,138.086127 659.694392,151.201309 C669.647671,164.316491 674.626903,183.033218 674.626903,207.341127 C674.626903,231.649036 669.647671,250.402036 659.694392,263.594945 L659.694392,263.594945 Z M428.351977,263.594945 C418.393512,276.787855 404.130085,283.379127 385.561696,283.379127 C366.982934,283.379127 352.688387,276.787855 342.657307,263.594945 C332.626228,250.402036 327.615875,231.649036 327.615875,207.341127 C327.615875,183.033218 332.626228,164.316491 342.657307,151.201309 C352.688387,138.086127 366.982934,131.525945 385.561696,131.525945 C404.130085,131.525945 418.393512,138.086127 428.351977,151.201309 C438.305256,164.316491 443.284489,183.033218 443.284489,207.341127 C443.284489,231.649036 438.305256,250.402036 428.351977,263.594945 L428.351977,263.594945 Z M179.208806,265.569218 C171.273154,269.429673 160.183988,271.357309 145.941307,271.357309 L66.1854097,271.357309 L66.1854097,183.846764 L147.040888,183.846764 C161.143527,184.002218 172.082279,185.852127 179.872704,189.417218 C193.819742,195.801218 200.801041,207.527673 200.801041,224.596582 C200.801041,244.784945 193.601901,258.444218 179.208806,265.569218 L179.208806,265.569218 Z M66.1854097,57.1564909 L137.647773,57.1564909 C153.379036,57.1564909 166.319855,58.8613091 176.465041,62.2761273 C188.228479,67.1729455 194.115384,77.2671273 194.115384,92.5586727 C194.115384,106.363036 189.660008,115.975309 180.770003,121.395491 C171.869625,126.815673 160.292908,129.520582 146.029481,129.520582 L66.1854097,129.520582 L66.1854097,57.1564909 Z M1391.50156,79.9772182 C1390.68206,79.9046727 1389.68103,79.8632182 1388.49328,79.8632182 C1369.47365,79.8632182 1354.02246,84.8429455 1342.13973,94.7816727 C1334.85242,100.725218 1326.31511,111.783218 1316.50187,127.960855 L1316.50187,85.6564909 L1255.8849,85.6564909 L1255.8849,135.282764 C1254.19403,132.266945 1252.415,129.313309 1250.45442,126.478855 C1239.41712,110.125036 1225.4234,98.1550364 1208.47327,90.5688545 C1191.52832,82.9878545 1172.48794,79.1999455 1151.34176,79.1999455 C1115.74024,79.1999455 1086.77771,90.4185818 1064.46971,112.850673 C1061.76744,115.571127 1059.23633,118.452218 1056.86082,121.462855 L1056.86082,87.8794909 L1017.41077,87.8794909 L1017.41077,20.1945818 L954.55833,20.1945818 L954.55833,87.8794909 L920.683988,87.8794909 L920.683988,109.104218 C916.622801,104.383582 912.001451,100.264036 906.685082,96.9010364 C887.546157,84.8014909 862.790034,78.7543091 832.416714,78.7543091 C800.404397,78.7543091 775.57566,86.8068545 757.930504,102.911945 C742.131814,117.332945 733.45965,134.3034 731.810279,153.776673 C726.737686,140.376491 719.714893,127.867582 710.513686,116.3484 C690.005471,90.6932182 658.88008,77.8630364 617.127139,77.8630364 C575.374197,77.8630364 544.248806,90.6932182 523.745778,116.3484 C513.953287,128.6034 506.572612,141.951764 501.453338,156.336491 C496.339251,141.951764 488.958576,128.6034 479.166085,116.3484 C458.663057,90.6932182 427.532479,77.8630364 385.784724,77.8630364 C344.031783,77.8630364 312.906392,90.6932182 292.398177,116.3484 C275.193891,137.878855 265.308039,162.741218 262.538341,190.842218 C261.018637,187.474036 259.291466,184.240582 257.315333,181.178127 C248.78321,167.964491 236.132847,158.321127 219.364243,152.232491 C230.401543,146.589491 238.752131,140.355764 244.421195,133.526127 C254.566382,121.359218 259.638975,105.248945 259.638975,85.2108545 C259.638975,65.7634909 254.607875,49.0676727 244.556049,35.1130364 C227.860059,12.4011273 199.473246,0.747218182 159.416356,0.151309091 L0.656632225,0.151309091 L0.656632225,328.357309 L148.679885,328.357309 C165.370688,328.357309 180.847804,326.875309 195.100857,323.906127 C209.359098,320.936945 221.729379,315.444218 232.222075,307.427945 C241.527016,300.448036 249.281134,291.841036 255.484428,281.601764 C261.366146,272.290036 265.437706,262.237309 267.771722,251.469491 C272.828755,268.787127 280.961502,284.560582 292.398177,298.670673 C312.906392,323.952764 344.031783,336.5964 385.784724,336.5964 C427.532479,336.5964 458.663057,323.952764 479.166085,298.670673 C488.958576,286.591855 496.339251,273.305673 501.453338,258.884673 C506.572612,273.305673 513.953287,286.591855 523.745778,298.670673 C544.248806,323.952764 575.374197,336.5964 617.127139,336.5964 C658.88008,336.5964 690.005471,323.952764 710.513686,298.670673 C717.048929,290.607764 722.422351,281.964491 726.87254,272.860036 C730.788499,288.125673 738.910873,301.354855 751.462688,312.438764 C769.704315,328.538673 797.951087,336.5964 836.218566,336.5964 C873.733972,336.5964 901.456888,328.984309 919.397686,313.775673 C937.338484,298.556673 946.311476,278.927945 946.311476,254.879127 C946.311476,236.6184 940.071875,221.404582 927.592673,209.232491 C914.95787,197.210673 895.995292,188.230582 870.689379,182.292218 C832.727916,173.980582 810.627384,168.114764 804.367036,164.699945 C798.106688,161.4354 794.979108,156.165491 794.979108,148.890218 C794.979108,143.102127 797.925154,138.055036 803.812059,133.748945 C809.693778,129.448036 819.56407,127.2924 833.422934,127.2924 C850.253778,127.2924 862.172816,131.598491 869.180049,140.205491 C872.9041,144.957218 875.212182,151.418945 876.109481,159.580309 L939.625819,159.580309 C938.687026,149.7504 936.767947,140.982764 934.044929,133.080491 L954.55833,133.080491 L954.55833,282.487855 C954.55833,297.629127 958.126781,308.8374 965.258494,316.112673 C976.2543,327.543764 996.757328,332.735945 1026.77277,331.699582 L1056.86082,330.585491 L1056.86082,295.587491 C1060.29441,299.608582 1063.95104,303.412036 1068.07965,306.733582 C1092.78909,326.642127 1121.31076,336.5964 1153.64465,336.5964 C1192.8198,336.5964 1223.2813,324.7974 1245.03951,301.194218 C1249.22517,296.748218 1252.79362,292.328127 1255.8849,287.923582 L1255.8849,328.357309 L1319.85248,328.357309 L1319.85248,212.351945 C1319.85248,192.904582 1322.3006,178.504309 1327.20722,169.151127 C1335.96756,152.527855 1353.13035,144.216218 1378.68523,144.216218 C1380.61986,144.216218 1383.14579,144.293945 1386.263,144.439036 C1389.38539,144.589309 1392.94865,144.884673 1396.96316,145.330309 L1396.96316,80.3088545 C1394.13641,80.1689455 1392.31588,80.0549455 1391.50156,79.9772182 L1391.50156,79.9772182 Z" id="Fill-6"></path>
                </g>
            </g>
        </g>
    </g>
</svg>