<?xml version="1.0" encoding="UTF-8"?> <svg xmlns="http://www.w3.org/2000/svg" xmlns:xlink="http://www.w3.org/1999/xlink" width="800px" height="128px" viewBox="0 0 800 128"> <!-- Generator: Sketch 47.1 (45422) - http://www.bohemiancoding.com/sketch --> <title>sofinnova</title> <desc>Created with Sketch.</desc> <defs></defs> <g id="Page-1" stroke="none" stroke-width="1" fill="none" fill-rule="evenodd"> <g id="sofinnova" fill="#482D4D"> <path d="M463.588,2.5466 L463.588,4.2906 L463.588,92.3386 C463.588,93.2646 463.599,94.1906 463.578,95.1156 C463.572,95.3956 463.477,95.6736 463.377,96.1826 C462.996,95.5726 462.748,95.1886 462.513,94.7966 C458.026,87.3436 453.537,79.8906 449.055,72.4356 C435.224,49.4346 421.39,26.4356 407.583,3.4206 C407.068,2.5626 406.513,2.2266 405.505,2.2346 C399.903,2.2826 394.302,2.2566 388.701,2.2616 C388.209,2.2626 387.718,2.3106 387.11,2.3426 L387.11,49.2466 L387.11,95.9666 C387,96.0016 386.89,96.0366 386.778,96.0716 C386.495,95.6296 386.201,95.1926 385.931,94.7426 C377.684,81.0186 369.439,67.2926 361.194,53.5666 C351.164,36.8656 341.128,20.1686 331.123,3.4526 C330.608,2.5926 330.052,2.2626 329.043,2.2716 C323.396,2.3206 317.748,2.2936 312.1,2.2986 C311.607,2.2996 311.113,2.3426 310.571,2.3676 L310.571,125.5196 L328.493,125.5196 L328.493,32.0726 C328.605,32.0356 328.717,31.9976 328.83,31.9606 C338.329,47.5366 347.809,63.1246 357.3,78.7056 C366.826,94.3466 376.349,109.9866 385.821,125.5416 C389.967,125.7956 403.853,125.6826 405.072,125.3666 L405.072,119.1746 L405.072,112.9246 L405.072,106.8146 L405.072,100.5656 L405.072,94.3156 L405.072,88.0666 L405.072,81.8166 L405.072,75.7056 L405.072,69.4566 L405.072,63.2066 L405.072,56.9576 L405.072,50.7076 L405.072,44.5976 C405.072,42.5146 405.061,40.4316 405.076,38.3486 C405.091,36.2996 405.007,34.2466 405.262,32.1736 C405.644,32.5106 405.905,32.8686 406.136,33.2456 C414.708,47.3136 423.278,61.3816 431.849,75.4496 C441.792,91.7716 451.74,108.0886 461.659,124.4246 C462.174,125.2716 462.724,125.6196 463.735,125.6096 C469.244,125.5596 474.753,125.5876 480.262,125.5826 C480.705,125.5816 481.149,125.5306 481.618,125.5016 L481.618,2.4196 C479.823,2.1146 464.682,2.2056 463.588,2.5466" id="Fill-1"></path> <path d="M728.005,80.7556 C732.624,65.3746 737.202,50.1266 741.781,34.8786 C741.897,34.8976 742.012,34.9166 742.127,34.9356 C746.78,50.1646 751.433,65.3956 756.125,80.7556 L728.005,80.7556 Z M758.11,3.2726 L725.948,3.2726 C723.943,8.2236 684.741,125.3156 684.705,126.4426 L714.416,126.4426 C716.879,118.2006 719.322,110.0266 721.753,101.8926 L762.483,101.8926 C764.893,110.0936 767.3,118.2786 769.706,126.4666 L800,126.4666 C786.004,85.3046 772.052,44.2716 758.11,3.2726 L758.11,3.2726 Z" id="Fill-3"></path> <path d="M573.8116,84.446 C572.7976,87.731 571.4596,90.874 569.6036,93.778 C564.4996,101.762 557.1786,105.739 547.7296,105.655 C537.2486,105.562 529.6956,100.633 524.8706,91.414 C522.5526,86.984 521.2196,82.23 520.4096,77.321 C519.2726,70.437 519.0636,63.509 519.6216,56.565 C520.0936,50.686 521.1376,44.919 523.4076,39.429 C525.0516,35.452 527.2536,31.841 530.4056,28.863 C534.3106,25.175 538.9726,23.145 544.2836,22.497 C548.0506,22.038 551.7716,22.23 555.4296,23.219 C561.7276,24.923 566.4336,28.752 569.8566,34.23 C572.5896,38.605 574.1816,43.418 575.1886,48.441 C576.2026,53.495 576.5846,58.609 576.5906,64.644 C576.5456,70.772 575.8896,77.705 573.8116,84.446 M591.5236,24.467 C585.1156,13.493 575.9916,5.873 563.7366,2.209 C555.8536,-0.148 547.8146,-0.507 539.6936,0.603 C532.0456,1.649 525.0076,4.298 518.6896,8.76 C511.0776,14.137 505.6836,21.308 501.8886,29.741 C497.9456,38.502 496.0826,47.765 495.5406,57.3 C495.0806,65.402 495.3806,73.486 496.8606,81.495 C498.3256,89.424 500.7876,96.998 504.8986,103.974 C510.7496,113.901 518.9316,121.102 529.8686,124.947 C539.1076,128.195 548.6006,128.674 558.2026,126.998 C568.6656,125.171 577.5616,120.388 584.7586,112.537 C590.0306,106.786 593.6926,100.088 596.2516,92.757 C599.5506,83.303 600.7956,73.528 600.8246,63.563 C600.8316,57.673 600.3656,51.824 599.2706,46.034 C597.8326,38.436 595.4386,31.173 591.5236,24.467" id="Fill-5"></path> <path d="M675.3263,2.3689 C667.3133,30.9779 659.3123,59.5449 651.3103,88.1109 L650.9733,88.0729 C642.9483,59.5069 634.9233,30.9399 626.9153,2.4329 C624.7723,2.1469 598.2713,2.2469 597.2073,2.5509 C610.8493,43.5629 624.4903,84.5719 638.1183,125.5419 L662.9363,125.5419 C664.0203,123.2459 704.3723,3.3869 704.4073,2.3689 L675.3263,2.3689 Z" id="Fill-8"></path> <path d="M167.1515,90.9431 C165.2855,96.7141 162.6885,102.1101 158.8255,106.8341 C154.0165,112.7141 147.9865,116.6571 140.4135,117.8091 C130.1545,119.3701 121.1705,116.5461 113.6225,109.3801 C108.4795,104.4981 105.0775,98.4901 102.6405,91.9001 C100.2495,85.4351 98.8565,78.7371 98.4505,71.8681 C98.1925,67.4851 98.0575,63.0741 98.2365,58.6911 C98.6095,49.5651 100.3275,40.6881 104.0375,32.2781 C106.6465,26.3661 110.1315,21.0581 115.0685,16.8051 C121.4765,11.2861 128.9355,8.7541 137.3595,9.2691 C145.1125,9.7451 151.5815,13.0461 156.8915,18.6601 C161.5255,23.5601 164.5725,29.3951 166.7585,35.7131 C168.7635,41.5101 169.9755,47.4871 170.4925,53.5941 C170.7815,57.0051 170.9385,60.4251 171.0485,62.1671 C170.9565,73.0561 169.9995,82.1361 167.1515,90.9431 M170.3995,19.2791 C166.2285,13.0581 160.9815,7.9981 154.2675,4.5641 C146.9745,0.8351 139.2215,-0.3749 131.1055,0.3431 C121.3135,1.2111 112.7895,4.9401 105.5355,11.5631 C101.3235,15.4091 97.9555,19.9181 95.2465,24.9211 C89.8125,34.9571 87.3665,45.8051 86.6135,57.0941 C86.2625,62.3651 86.3495,67.6351 86.8055,72.9021 C87.3035,78.6341 88.2865,84.2711 89.9095,89.7921 C92.2035,97.5931 95.5825,104.8681 100.7915,111.1671 C111.5735,124.2051 125.5145,129.3961 142.1495,127.1681 C152.6145,125.7651 161.0605,120.5201 167.7115,112.3661 C172.4585,106.5471 175.6515,99.9091 177.8955,92.7851 C180.8565,83.3841 181.9015,73.7121 181.9905,63.7371 C181.9315,56.2491 181.2835,48.6571 179.5395,41.1851 C177.7155,33.3751 174.8885,25.9761 170.3995,19.2791" id="Fill-10"></path> <path d="M63.5397,65.9665 C59.3037,62.8625 54.6547,60.4605 49.9397,58.1945 C43.5607,55.1275 37.1517,52.1255 30.7587,49.0885 C26.8087,47.2105 23.0767,45.0005 19.9927,41.8375 C15.6337,37.3675 14.1867,32.0655 15.5867,26.0065 C17.0477,19.6815 20.9107,15.1955 26.5847,12.2785 C33.3047,8.8225 40.3997,8.3565 47.6437,10.2385 C53.8337,11.8485 58.2687,15.6715 61.0437,21.4225 C62.2787,23.9825 63.0677,26.6825 63.5367,29.4805 C63.7187,30.5645 63.8787,31.6525 64.0437,32.7055 C65.9887,32.9485 72.6927,32.8755 73.6787,32.6125 C73.6787,32.1115 73.7187,31.6005 73.6717,31.0995 C73.3597,27.7285 72.8087,24.4005 71.7537,21.1745 C68.3847,10.8835 61.5737,4.1895 51.0237,1.4445 C45.9997,0.1375 40.8957,-0.1185 35.7367,0.3555 C30.2807,0.8555 25.0627,2.2025 20.2547,4.8515 C10.8057,10.0535 5.1087,17.8325 4.2707,28.7875 C3.6897,36.3925 5.9357,43.1355 10.8277,48.9725 C13.4437,52.0945 16.6787,54.4835 20.2007,56.4955 C25.5527,59.5545 31.1737,62.0595 36.8177,64.5075 C42.1707,66.8285 47.4217,69.3455 52.4927,72.2335 C54.8727,73.5885 57.1067,75.1465 59.1337,76.9975 C65.9617,83.2335 68.0987,90.9765 66.1267,99.8265 C64.1847,108.5445 58.5597,114.0925 50.1697,116.7435 C42.6007,119.1355 34.9857,118.7415 27.5437,116.0745 C21.0307,113.7405 16.4037,109.2675 13.5547,102.9685 C11.8577,99.2175 11.0157,95.2505 10.6607,91.1665 C10.6147,90.6365 10.5577,90.1065 10.5057,89.5765 L0.0717,89.5765 C0.0397,89.8395 -0.0113,90.0175 0.0017,90.1905 C0.3407,94.6775 1.0167,99.1055 2.4217,103.3955 C6.0227,114.3875 13.1307,121.9835 24.2567,125.4545 C33.5197,128.3455 42.9377,128.5285 52.3327,126.0765 C58.9197,124.3595 64.6947,121.1185 69.2607,115.9845 C75.7547,108.6815 78.2047,100.0105 77.3717,90.4105 C76.4857,80.2085 71.8197,72.0315 63.5397,65.9665" id="Fill-12"></path> <path d="M196.5792,125.5222 L207.5692,125.5222 L207.5692,115.6162 L207.5692,105.7562 L207.5692,95.8972 L207.5692,85.8992 C207.5692,82.6132 207.5492,79.3262 207.5752,76.0402 C207.6002,72.7802 207.4602,69.5152 207.6712,66.1252 L256.3422,66.1252 C256.6282,64.3542 256.5622,58.4532 256.2282,57.3482 L207.1042,57.3482 L207.1042,11.0382 L220.3592,11.0382 L233.5512,11.0382 C237.9952,11.0382 242.4382,11.0392 246.8822,11.0372 C251.2622,11.0362 255.6422,11.0462 260.1012,11.0292 L260.1012,2.3732 L196.5792,2.3732 L196.5792,125.5222 Z" id="Fill-15"></path> <path d="M271.7374,2.3865 C271.4494,4.1385 271.5214,124.5185 271.8094,125.5595 L285.4514,125.5595 C285.7474,123.8395 285.6794,3.3825 285.4004,2.3865 L271.7374,2.3865 Z" id="Fill-17"></path> </g> </g> </svg> 