<?xml version="1.0" encoding="UTF-8"?> <svg xmlns="http://www.w3.org/2000/svg" xmlns:xlink="http://www.w3.org/1999/xlink" width="387px" height="96px" viewBox="0 0 387 96"> <!-- Generator: Sketch 48.2 (47327) - http://www.bohemiancoding.com/sketch --> <title>algolia</title> <desc>Created with Sketch.</desc> <defs></defs> <g id="Page-1" stroke="none" stroke-width="1" fill="none" fill-rule="evenodd"> <g id="algolia"> <path d="M190.6569,75.9851735 C172.0389,76.0718 172.0389,60.9338 172.0389,58.5218 L172.0099,4.8248 L183.3669,3.0228 L183.3669,56.3708 C183.3669,57.7368 183.3669,66.3958 190.6569,66.4248 L190.6569,75.9851735 Z M144.6199,66.7158 C148.1049,66.7158 150.6909,66.5128 152.4909,66.1638 L152.4909,54.5988 C151.8519,54.4248 150.9519,54.2208 149.7609,54.0468 C148.5699,53.8728 147.2629,53.7558 145.8109,53.7558 C144.5619,53.7558 143.2839,53.8428 142.0059,54.0468 C140.7279,54.2208 139.5659,54.5698 138.5499,55.0638 C137.5329,55.5578 136.6909,56.2548 136.0809,57.1558 C135.4419,58.0568 135.1519,58.5798 135.1519,59.9448 C135.1519,62.6178 136.0809,64.1578 137.7659,65.1748 C139.4509,66.1918 141.7449,66.7148 144.6209,66.7148 L144.6199,66.7158 Z M143.6319,25.4548 C147.3789,25.4548 150.5449,25.9198 153.1009,26.8498 C155.6569,27.7798 157.7189,29.0868 159.2299,30.7438 C160.7689,32.4288 161.8149,34.6668 162.4539,37.0488 C163.1219,39.4318 163.4419,42.0468 163.4419,44.9228 L163.4419,74.1538 C161.6989,74.5318 159.0559,74.9678 155.5129,75.4908 C151.9689,76.0138 147.9899,76.2758 143.5749,76.2758 C140.6409,76.2758 137.9399,75.9848 135.5289,75.4328 C133.0889,74.8808 131.0269,73.9798 129.2839,72.7308 C127.5699,71.4818 126.2339,69.8828 125.2469,67.9078 C124.2879,65.9318 123.7949,63.1428 123.7949,60.2368 C123.7949,57.4478 124.3469,55.6748 125.4219,53.7568 C126.5259,51.8388 128.0069,50.2698 129.8659,49.0498 C131.7539,47.8298 133.9029,46.9578 136.3719,46.4348 C138.8409,45.9118 141.4259,45.6498 144.0979,45.6498 C145.3469,45.6498 146.6539,45.7368 148.0479,45.8818 C149.4129,46.0268 150.8939,46.2888 152.4629,46.6668 L152.4629,44.8068 C152.4629,43.4988 152.3179,42.2498 151.9979,41.0878 C151.6779,39.8968 151.1269,38.8798 150.3709,37.9788 C149.5869,37.0778 148.5699,36.3808 147.2919,35.8868 C146.0139,35.3928 144.3869,35.0148 142.4409,35.0148 C139.8269,35.0148 137.4449,35.3348 135.2669,35.7118 C133.0889,36.0898 131.2879,36.5258 129.9229,37.0198 L128.5579,27.6928 C129.9809,27.1988 132.1019,26.7048 134.8319,26.2108 C137.5619,25.6878 140.4959,25.4558 143.6329,25.4558 L143.6319,25.4548 Z M367.9219,66.3958 C371.4069,66.3958 373.9929,66.1928 375.7929,65.8438 L375.7929,54.2788 C375.1539,54.1048 374.2539,53.9008 373.0629,53.7268 C371.8719,53.5528 370.5649,53.4358 369.1129,53.4358 C367.8639,53.4358 366.5859,53.5228 365.3079,53.7268 C364.0299,53.9008 362.8679,54.2498 361.8519,54.7438 C360.8349,55.2378 359.9929,55.9348 359.3829,56.8358 C358.7439,57.7368 358.4539,58.2598 358.4539,59.6248 C358.4539,62.2978 359.3829,63.8378 361.0679,64.8548 C362.7819,65.9008 365.0469,66.3948 367.9229,66.3948 L367.9219,66.3958 Z M366.9629,25.1638 C370.7099,25.1638 373.8759,25.6288 376.4319,26.5588 C378.9879,27.4888 381.0499,28.7958 382.5609,30.4528 C384.0709,32.1088 385.1459,34.3758 385.7849,36.7578 C386.4529,39.1408 386.7729,41.7558 386.7729,44.6318 L386.7729,73.8628 C385.0299,74.2408 382.3869,74.6768 378.8439,75.1998 C375.2999,75.7228 371.3209,75.9848 366.9059,75.9848 C363.9719,75.9848 361.2709,75.6938 358.8599,75.1418 C356.4199,74.5898 354.3579,73.6888 352.6149,72.4398 C350.9009,71.1908 349.5649,69.5918 348.5779,67.6168 C347.6189,65.6408 347.1259,62.8518 347.1259,59.9458 C347.1259,57.1568 347.6779,55.3838 348.7529,53.4658 C349.8569,51.5478 351.3379,49.9788 353.1969,48.7588 C355.0849,47.5388 357.2339,46.6668 359.7029,46.1438 C362.1719,45.6208 364.7569,45.3588 367.4289,45.3588 C368.6779,45.3588 369.9849,45.4458 371.3789,45.5908 C372.7729,45.7358 374.2249,45.9978 375.7939,46.3758 L375.7939,44.5158 C375.7939,43.2078 375.6489,41.9588 375.3289,40.7968 C375.0089,39.6058 374.4579,38.5888 373.7019,37.6878 C372.9179,36.7868 371.9009,36.0898 370.6229,35.5958 C369.3449,35.1018 367.7179,34.7238 365.7719,34.7238 C363.1579,34.7238 360.7759,35.0438 358.5979,35.4208 C356.4199,35.7988 354.6189,36.2348 353.2539,36.7288 L351.8889,27.4018 C353.3119,26.9078 355.4329,26.4138 358.1629,25.9198 C360.8929,25.4258 363.8269,25.1648 366.9639,25.1648 L366.9629,25.1638 Z M332.8629,19.7588 C336.6679,19.7588 339.7759,16.6788 339.7759,12.8728 C339.7759,9.0668 336.6969,5.9868 332.8629,5.9868 C329.0289,5.9868 325.9499,9.0668 325.9499,12.8728 C325.9499,16.6788 329.0579,19.7588 332.8629,19.7588 Z M338.5849,75.9838 L327.1699,75.9838 L327.1699,26.9358 L338.5849,25.1338 L338.5849,75.9838 Z M318.5729,75.9841735 C299.9549,76.0708 299.9549,60.9328 299.9549,58.5208 L299.9259,4.8238 L311.2829,3.0218 L311.2829,56.3698 C311.2829,57.7358 311.2829,66.3948 318.5729,66.4238 L318.5729,75.9841735 Z M281.6559,50.8788 C281.6559,45.9678 280.5809,41.8708 278.4899,39.0238 C276.3989,36.1468 273.4649,34.7238 269.7179,34.7238 C265.9709,34.7238 263.0379,36.1478 260.9459,39.0238 C258.8549,41.9008 257.8379,45.9688 257.8379,50.8788 C257.8379,55.8478 258.8839,59.1888 260.9749,62.0658 C263.0659,64.9718 265.9999,66.3948 269.7469,66.3948 C273.4939,66.3948 276.4269,64.9418 278.5189,62.0658 C280.6099,59.1598 281.6559,55.8478 281.6559,50.8788 Z M293.2739,50.8498 C293.2739,54.6848 292.7219,57.5908 291.5889,60.7578 C290.4559,63.9248 288.8589,66.6268 286.7959,68.8648 C284.7339,71.1018 282.2649,72.8458 279.3599,74.0658 C276.4549,75.2858 271.9819,75.9838 269.7459,75.9838 C267.5089,75.9548 263.0659,75.3158 260.1899,74.0658 C257.3139,72.8168 254.8459,71.1018 252.7829,68.8648 C250.7209,66.6278 249.1229,63.9248 247.9609,60.7578 C246.7989,57.5908 246.2179,54.6848 246.2179,50.8498 C246.2179,47.0148 246.7409,43.3238 247.9029,40.1858 C249.0649,37.0478 250.6909,34.3748 252.7829,32.1368 C254.8739,29.8998 257.3719,28.1848 260.2189,26.9648 C263.0949,25.7448 266.2599,25.1628 269.6879,25.1628 C273.1149,25.1628 276.2809,25.7728 279.1859,26.9648 C282.0909,28.1848 284.5879,29.8998 286.6219,32.1368 C288.6839,34.3738 290.2819,37.0478 291.4439,40.1858 C292.6639,43.3238 293.2739,47.0138 293.2739,50.8498 Z M207.7929,50.8498 C207.7929,55.6148 208.8389,60.9038 210.9299,63.1118 C213.0209,65.3198 215.7229,66.4238 219.0339,66.4238 C220.8349,66.4238 222.5489,66.1618 224.1459,65.6688 C225.7439,65.1748 227.0219,64.5938 228.0379,63.8968 L228.0379,35.6828 C227.2249,35.5088 223.8259,34.8108 220.5439,34.7238 C216.4199,34.6078 213.2829,36.2928 211.0749,38.9948 C208.8969,41.6968 207.7929,46.4338 207.7929,50.8498 Z M239.3659,73.2818 C239.3659,81.0398 237.3909,86.7058 233.4119,90.3088 C229.4329,93.9118 223.3619,95.7138 215.1709,95.7138 C212.1789,95.7138 205.9639,95.1328 200.9969,94.0288 L202.8269,85.0208 C206.9809,85.8928 212.4699,86.1248 215.3459,86.1248 C219.9059,86.1248 223.1589,85.1948 225.1049,83.3358 C227.0509,81.4758 228.0099,78.7158 228.0099,75.0548 L228.0099,73.1948 C226.8769,73.7468 225.3959,74.2988 223.5659,74.8798 C221.7359,75.4318 219.6159,75.7228 217.2339,75.7228 C214.0969,75.7228 211.2509,75.2288 208.6659,74.2408 C206.0809,73.2528 203.8439,71.7998 202.0149,69.8818 C200.1849,67.9638 198.7329,65.5528 197.7159,62.6758 C196.6989,59.7988 196.1769,54.6558 196.1769,50.8788 C196.1769,47.3338 196.7289,42.8878 197.8039,39.9248 C198.9079,36.9608 200.4759,34.4038 202.5969,32.2828 C204.6879,30.1618 207.2439,28.5348 210.2359,27.3428 C213.2279,26.1518 216.7419,25.3958 220.5469,25.3958 C224.2359,25.3958 227.6339,25.8608 230.9449,26.4128 C234.2559,26.9648 237.0739,27.5458 239.3679,28.1848 L239.3679,73.2808 L239.3659,73.2818 Z" id="Fill-1" fill="#020203"></path> <path d="M62.3898,44.2802 L60.5698,45.2202 L50.6998,50.3502 L48.9698,48.5602 L48.9698,36.1202 C48.9698,35.8002 49.2598,35.5702 49.5498,35.5702 C50.1798,35.5902 50.8098,35.6502 51.4198,35.7502 C56.2298,36.5002 60.3098,39.4302 62.6198,43.5002 C62.7698,43.7902 62.6798,44.1402 62.3898,44.2802 M48.9698,32.2302 C48.6498,32.2302 48.3398,32.2402 48.0298,32.2502 C43.9298,32.4502 40.1798,33.9502 37.1598,36.3402 C34.2998,38.6002 32.0998,41.6702 30.9198,45.2102 C30.2698,47.1202 29.9198,49.1602 29.9198,51.2902 C29.9198,61.8102 38.4598,70.3502 48.9698,70.3502 C50.8698,70.3502 52.7098,70.0702 54.4398,69.5502 C58.0198,68.4902 61.1598,66.3902 63.5098,63.6102 C66.0098,60.6602 67.6298,56.9502 67.9598,52.8702 C68.0098,52.3502 68.0298,51.8202 68.0298,51.2902 C68.0298,40.7702 59.4898,32.2302 48.9698,32.2302" id="Fill-3" fill="#3E70B6"></path> <path d="M76.0099,51.2602 C76.0099,54.2402 75.5299,57.1002 74.6299,59.7802 C73.4599,63.3702 71.5399,66.6202 69.0699,69.3702 C66.6699,72.0402 63.7399,74.2402 60.4499,75.7802 C56.9599,77.4202 53.0699,78.3402 48.9699,78.3402 C48.6699,78.3402 48.3799,78.3402 48.0899,78.3102 L48.0799,78.3102 C33.5599,77.8502 21.9299,65.9502 21.9299,51.2902 L21.9299,51.2402 C21.9399,46.8202 22.9999,42.6502 24.8899,38.9702 C26.5399,35.7302 28.8199,32.8702 31.5799,30.5602 C34.3999,28.1802 37.7099,26.3702 41.3299,25.3102 C43.7499,24.5902 46.3199,24.2102 48.9699,24.2102 C51.3899,24.2102 53.7299,24.5302 55.9599,25.1202 C65.5799,27.6802 73.0699,35.3902 75.3099,45.1402 L75.3099,45.1502 C75.7699,47.1102 76.0099,49.1602 76.0099,51.2602 Z M29.6599,24.0302 L31.3099,25.6902 C31.5499,25.9502 31.5099,26.3602 31.2299,26.5302 C30.5299,27.0302 29.8599,27.5602 29.2199,28.1102 C28.6299,28.6202 28.0499,29.1602 27.4799,29.7302 C26.3199,30.8902 25.2699,32.1402 24.3099,33.4502 C24.0799,33.7102 23.6999,33.7702 23.4399,33.5002 L21.8099,31.8802 C20.1899,30.2502 20.1899,27.6402 21.8099,26.0102 L23.7899,24.0302 C24.0499,23.7702 24.3399,23.5502 24.6399,23.3802 C26.2199,22.4402 28.2899,22.6602 29.6599,24.0302 Z M53.6799,13.9502 C55.9699,13.9502 57.8299,15.8102 57.8299,18.1002 L57.8299,21.3902 C57.8299,21.7702 57.4799,22.0302 57.1299,21.9402 C55.4399,21.4702 53.7199,21.1502 51.9699,20.9902 C50.9899,20.8902 49.9899,20.8402 48.9999,20.8402 C46.1299,20.8402 43.2799,21.2402 40.5799,22.0302 C40.1999,22.1102 39.8499,21.8502 39.8499,21.4802 L39.8499,18.1002 C39.8499,15.8102 41.7099,13.9502 44.0099,13.9502 L45.1699,13.9502 L53.6799,13.9502 Z M95.7359,12.6122 C95.7359,5.6382 90.0719,0.0012 83.1299,0.0012 L12.6099,0.0002 C9.6199,0.0002 6.8899,1.0402 4.7299,2.7702 C1.8499,5.0702 -0.0001,8.6102 -0.0001,12.5802 L-0.0001,13.2102 L0.0009,43.8812 L0.0009,83.1912 C0.0009,90.1652 5.6649,95.8022 12.6069,95.8022 L83.1299,95.8002 C86.3499,95.8002 89.2799,94.5802 91.5099,92.5902 C94.0999,90.2802 95.7399,86.9202 95.7399,83.1902 L95.7359,12.6122 Z" id="Fill-5" fill="#3E70B6"></path> </g> </g> </svg> 